G04 #@! TF.GenerationSoftware,KiCad,Pcbnew,9.0.3*
G04 #@! TF.CreationDate,2025-07-12T02:21:59+01:00*
G04 #@! TF.ProjectId,PicoChainReference,5069636f-4368-4616-996e-526566657265,v1.2*
G04 #@! TF.SameCoordinates,Original*
G04 #@! TF.FileFunction,Soldermask,Top*
G04 #@! TF.FilePolarity,Negative*
%FSLAX46Y46*%
G04 Gerber Fmt 4.6, Leading zero omitted, Abs format (unit mm)*
G04 Created by KiCad (PCBNEW 9.0.3) date 2025-07-12 02:21:59*
%MOMM*%
%LPD*%
G01*
G04 APERTURE LIST*
G04 Aperture macros list*
%AMRoundRect*
0 Rectangle with rounded corners*
0 $1 Rounding radius*
0 $2 $3 $4 $5 $6 $7 $8 $9 X,Y pos of 4 corners*
0 Add a 4 corners polygon primitive as box body*
4,1,4,$2,$3,$4,$5,$6,$7,$8,$9,$2,$3,0*
0 Add four circle primitives for the rounded corners*
1,1,$1+$1,$2,$3*
1,1,$1+$1,$4,$5*
1,1,$1+$1,$6,$7*
1,1,$1+$1,$8,$9*
0 Add four rect primitives between the rounded corners*
20,1,$1+$1,$2,$3,$4,$5,0*
20,1,$1+$1,$4,$5,$6,$7,0*
20,1,$1+$1,$6,$7,$8,$9,0*
20,1,$1+$1,$8,$9,$2,$3,0*%
G04 Aperture macros list end*
%ADD10RoundRect,0.250000X0.412500X0.925000X-0.412500X0.925000X-0.412500X-0.925000X0.412500X-0.925000X0*%
%ADD11RoundRect,0.149250X-1.847750X-0.447750X1.847750X-0.447750X1.847750X0.447750X-1.847750X0.447750X0*%
%ADD12RoundRect,0.102000X-3.810000X-5.420000X3.810000X-5.420000X3.810000X5.420000X-3.810000X5.420000X0*%
%ADD13RoundRect,0.250000X-0.425000X0.450000X-0.425000X-0.450000X0.425000X-0.450000X0.425000X0.450000X0*%
%ADD14R,0.250000X1.100000*%
%ADD15R,1.700000X1.700000*%
%ADD16O,1.700000X1.700000*%
%ADD17RoundRect,0.243750X-0.243750X-0.456250X0.243750X-0.456250X0.243750X0.456250X-0.243750X0.456250X0*%
%ADD18RoundRect,0.150000X0.150000X-0.512500X0.150000X0.512500X-0.150000X0.512500X-0.150000X-0.512500X0*%
%ADD19C,3.200000*%
%ADD20R,1.500000X1.500000*%
%ADD21C,1.500000*%
%ADD22RoundRect,0.243750X-0.456250X0.243750X-0.456250X-0.243750X0.456250X-0.243750X0.456250X0.243750X0*%
%ADD23RoundRect,0.250000X0.350000X-0.850000X0.350000X0.850000X-0.350000X0.850000X-0.350000X-0.850000X0*%
%ADD24RoundRect,0.249997X2.650003X-2.950003X2.650003X2.950003X-2.650003X2.950003X-2.650003X-2.950003X0*%
%ADD25RoundRect,0.243750X0.243750X0.456250X-0.243750X0.456250X-0.243750X-0.456250X0.243750X-0.456250X0*%
G04 APERTURE END LIST*
D10*
X141145500Y-91599000D03*
X138070500Y-91599000D03*
D11*
X144669600Y-90932000D03*
X144669600Y-93472000D03*
X144669600Y-96012000D03*
D12*
X155549600Y-93472000D03*
D13*
X127940000Y-79264000D03*
X127940000Y-81964000D03*
D14*
X131258000Y-85304000D03*
X131758000Y-85304000D03*
X132258000Y-85304000D03*
X132758000Y-85304000D03*
X133258000Y-85304000D03*
X133258000Y-81004000D03*
X132758000Y-81004000D03*
X132258000Y-81004000D03*
X131758000Y-81004000D03*
X131258000Y-81004000D03*
D15*
X132491400Y-94208600D03*
D16*
X129951400Y-94208600D03*
D17*
X116410500Y-86741000D03*
X118285500Y-86741000D03*
D18*
X112550000Y-92000000D03*
X113500000Y-92000000D03*
X114450000Y-92000000D03*
X114450000Y-89725000D03*
X113500000Y-89725000D03*
X112550000Y-89725000D03*
D19*
X119064500Y-75046000D03*
X107634500Y-75046000D03*
D20*
X117794500Y-81396000D03*
D21*
X116524500Y-83936000D03*
X115254500Y-81396000D03*
X113984500Y-83936000D03*
X112714500Y-81396000D03*
X111444500Y-83936000D03*
X110174500Y-81396000D03*
X108904500Y-83936000D03*
D13*
X124384000Y-79264000D03*
X124384000Y-81964000D03*
D22*
X143357600Y-86514700D03*
X143357600Y-88389700D03*
X108712000Y-86438500D03*
X108712000Y-88313500D03*
D15*
X124663200Y-91155600D03*
D16*
X124663200Y-93695600D03*
D13*
X136068000Y-79518000D03*
X136068000Y-82218000D03*
X139624000Y-79518000D03*
X139624000Y-82218000D03*
D23*
X135059000Y-76857000D03*
D24*
X137339000Y-70557000D03*
D23*
X139619000Y-76857000D03*
D10*
X141145500Y-96425000D03*
X138070500Y-96425000D03*
D15*
X129941400Y-90449400D03*
D16*
X132481400Y-90449400D03*
D19*
X159064500Y-75046000D03*
X147634500Y-75046000D03*
D20*
X157794500Y-81396000D03*
D21*
X156524500Y-83936000D03*
X155254500Y-81396000D03*
X153984500Y-83936000D03*
X152714500Y-81396000D03*
X151444500Y-83936000D03*
X150174500Y-81396000D03*
X148904500Y-83936000D03*
D23*
X124390000Y-76844000D03*
D24*
X126670000Y-70544000D03*
D23*
X128950000Y-76844000D03*
D25*
X156512500Y-86741000D03*
X154637500Y-86741000D03*
D15*
X120421400Y-91181000D03*
D16*
X120421400Y-93721000D03*
M02*
