M48
; DRILL file {KiCad 9.0.3} date 2025-07-20T21:07:38+0100
; FORMAT={-:-/ absolute / inch / decimal}
; #@! TF.CreationDate,2025-07-20T21:07:38+01:00
; #@! TF.GenerationSoftware,Kicad,Pcbnew,9.0.3
; #@! TF.FileFunction,Plated,1,4,PTH
FMAT,2
INCH
; #@! TA.AperFunction,Plated,PTH,ViaDrill
T1C0.0118
; #@! TA.AperFunction,Plated,PTH,ComponentDrill
T2C0.0299
; #@! TA.AperFunction,Plated,PTH,ComponentDrill
T3C0.0394
%
G90
G05
T1
X4.34Y-3.546
X4.3406Y-3.48
X4.5669Y-3.58
X4.651Y-3.58
X4.765Y-3.005
X4.765Y-3.05
X4.765Y-3.09
X4.765Y-3.13
X4.765Y-3.17
X4.817Y-3.362
X4.817Y-3.415
X5.109Y-3.206
X5.195Y-3.255
X5.205Y-3.007
X5.205Y-3.05
X5.23Y-3.0906
X5.2514Y-3.1313
X5.294Y-3.17
X5.575Y-3.525
X5.576Y-3.48
X5.6036Y-3.0506
X5.604Y-3.009
X5.808Y-3.462
X5.886Y-3.415
X5.898Y-3.049
X5.8984Y-3.0906
X6.044Y-3.09
X6.0464Y-3.1313
T2
X4.2876Y-3.3046
X4.3376Y-3.2046
X4.3876Y-3.3046
X4.4376Y-3.2046
X4.4876Y-3.3046
X4.5376Y-3.2046
X4.5876Y-3.3046
X4.6376Y-3.2046
X5.8624Y-3.3046
X5.9124Y-3.2046
X5.9624Y-3.3046
X6.0124Y-3.2046
X6.0624Y-3.3046
X6.1124Y-3.2046
X6.1624Y-3.3046
X6.2124Y-3.2046
T3
X4.741Y-3.5898
X4.741Y-3.6898
X4.908Y-3.5888
X4.908Y-3.6888
X5.1158Y-3.561
X5.1162Y-3.709
X5.2158Y-3.561
X5.2162Y-3.709
M30
