G04 #@! TF.GenerationSoftware,KiCad,Pcbnew,9.0.0*
G04 #@! TF.CreationDate,2025-04-21T23:02:39+01:00*
G04 #@! TF.ProjectId,PicoChainReference,5069636f-4368-4616-996e-526566657265,v1.2*
G04 #@! TF.SameCoordinates,Original*
G04 #@! TF.FileFunction,Paste,Top*
G04 #@! TF.FilePolarity,Positive*
%FSLAX46Y46*%
G04 Gerber Fmt 4.6, Leading zero omitted, Abs format (unit mm)*
G04 Created by KiCad (PCBNEW 9.0.0) date 2025-04-21 23:02:39*
%MOMM*%
%LPD*%
G01*
G04 APERTURE LIST*
G04 Aperture macros list*
%AMRoundRect*
0 Rectangle with rounded corners*
0 $1 Rounding radius*
0 $2 $3 $4 $5 $6 $7 $8 $9 X,Y pos of 4 corners*
0 Add a 4 corners polygon primitive as box body*
4,1,4,$2,$3,$4,$5,$6,$7,$8,$9,$2,$3,0*
0 Add four circle primitives for the rounded corners*
1,1,$1+$1,$2,$3*
1,1,$1+$1,$4,$5*
1,1,$1+$1,$6,$7*
1,1,$1+$1,$8,$9*
0 Add four rect primitives between the rounded corners*
20,1,$1+$1,$2,$3,$4,$5,0*
20,1,$1+$1,$4,$5,$6,$7,0*
20,1,$1+$1,$6,$7,$8,$9,0*
20,1,$1+$1,$8,$9,$2,$3,0*%
G04 Aperture macros list end*
%ADD10C,0.010000*%
%ADD11RoundRect,0.250000X0.412500X0.925000X-0.412500X0.925000X-0.412500X-0.925000X0.412500X-0.925000X0*%
%ADD12RoundRect,0.123750X-1.771250X-0.371250X1.771250X-0.371250X1.771250X0.371250X-1.771250X0.371250X0*%
%ADD13RoundRect,0.250000X-0.425000X0.450000X-0.425000X-0.450000X0.425000X-0.450000X0.425000X0.450000X0*%
%ADD14R,0.250000X1.100000*%
%ADD15RoundRect,0.243750X-0.243750X-0.456250X0.243750X-0.456250X0.243750X0.456250X-0.243750X0.456250X0*%
%ADD16RoundRect,0.150000X0.150000X-0.512500X0.150000X0.512500X-0.150000X0.512500X-0.150000X-0.512500X0*%
%ADD17RoundRect,0.243750X-0.456250X0.243750X-0.456250X-0.243750X0.456250X-0.243750X0.456250X0.243750X0*%
%ADD18RoundRect,0.250000X0.350000X-0.850000X0.350000X0.850000X-0.350000X0.850000X-0.350000X-0.850000X0*%
%ADD19RoundRect,0.250000X1.125000X-1.275000X1.125000X1.275000X-1.125000X1.275000X-1.125000X-1.275000X0*%
%ADD20RoundRect,0.243750X0.243750X0.456250X-0.243750X0.456250X-0.243750X-0.456250X0.243750X-0.456250X0*%
G04 APERTURE END LIST*
D10*
X153734600Y-89602000D02*
X152284600Y-89602000D01*
X152284600Y-88342000D01*
X153734600Y-88342000D01*
X153734600Y-89602000D01*
G36*
X153734600Y-89602000D02*
G01*
X152284600Y-89602000D01*
X152284600Y-88342000D01*
X153734600Y-88342000D01*
X153734600Y-89602000D01*
G37*
X153734600Y-91402000D02*
X152284600Y-91402000D01*
X152284600Y-90142000D01*
X153734600Y-90142000D01*
X153734600Y-91402000D01*
G36*
X153734600Y-91402000D02*
G01*
X152284600Y-91402000D01*
X152284600Y-90142000D01*
X153734600Y-90142000D01*
X153734600Y-91402000D01*
G37*
X153734600Y-93202000D02*
X152284600Y-93202000D01*
X152284600Y-91942000D01*
X153734600Y-91942000D01*
X153734600Y-93202000D01*
G36*
X153734600Y-93202000D02*
G01*
X152284600Y-93202000D01*
X152284600Y-91942000D01*
X153734600Y-91942000D01*
X153734600Y-93202000D01*
G37*
X153734600Y-95002000D02*
X152284600Y-95002000D01*
X152284600Y-93742000D01*
X153734600Y-93742000D01*
X153734600Y-95002000D01*
G36*
X153734600Y-95002000D02*
G01*
X152284600Y-95002000D01*
X152284600Y-93742000D01*
X153734600Y-93742000D01*
X153734600Y-95002000D01*
G37*
X153734600Y-96802000D02*
X152284600Y-96802000D01*
X152284600Y-95542000D01*
X153734600Y-95542000D01*
X153734600Y-96802000D01*
G36*
X153734600Y-96802000D02*
G01*
X152284600Y-96802000D01*
X152284600Y-95542000D01*
X153734600Y-95542000D01*
X153734600Y-96802000D01*
G37*
X153734600Y-98602000D02*
X152284600Y-98602000D01*
X152284600Y-97342000D01*
X153734600Y-97342000D01*
X153734600Y-98602000D01*
G36*
X153734600Y-98602000D02*
G01*
X152284600Y-98602000D01*
X152284600Y-97342000D01*
X153734600Y-97342000D01*
X153734600Y-98602000D01*
G37*
X156274600Y-89602000D02*
X154824600Y-89602000D01*
X154824600Y-88342000D01*
X156274600Y-88342000D01*
X156274600Y-89602000D01*
G36*
X156274600Y-89602000D02*
G01*
X154824600Y-89602000D01*
X154824600Y-88342000D01*
X156274600Y-88342000D01*
X156274600Y-89602000D01*
G37*
X156274600Y-91402000D02*
X154824600Y-91402000D01*
X154824600Y-90142000D01*
X156274600Y-90142000D01*
X156274600Y-91402000D01*
G36*
X156274600Y-91402000D02*
G01*
X154824600Y-91402000D01*
X154824600Y-90142000D01*
X156274600Y-90142000D01*
X156274600Y-91402000D01*
G37*
X156274600Y-93202000D02*
X154824600Y-93202000D01*
X154824600Y-91942000D01*
X156274600Y-91942000D01*
X156274600Y-93202000D01*
G36*
X156274600Y-93202000D02*
G01*
X154824600Y-93202000D01*
X154824600Y-91942000D01*
X156274600Y-91942000D01*
X156274600Y-93202000D01*
G37*
X156274600Y-95002000D02*
X154824600Y-95002000D01*
X154824600Y-93742000D01*
X156274600Y-93742000D01*
X156274600Y-95002000D01*
G36*
X156274600Y-95002000D02*
G01*
X154824600Y-95002000D01*
X154824600Y-93742000D01*
X156274600Y-93742000D01*
X156274600Y-95002000D01*
G37*
X156274600Y-96802000D02*
X154824600Y-96802000D01*
X154824600Y-95542000D01*
X156274600Y-95542000D01*
X156274600Y-96802000D01*
G36*
X156274600Y-96802000D02*
G01*
X154824600Y-96802000D01*
X154824600Y-95542000D01*
X156274600Y-95542000D01*
X156274600Y-96802000D01*
G37*
X156274600Y-98602000D02*
X154824600Y-98602000D01*
X154824600Y-97342000D01*
X156274600Y-97342000D01*
X156274600Y-98602000D01*
G36*
X156274600Y-98602000D02*
G01*
X154824600Y-98602000D01*
X154824600Y-97342000D01*
X156274600Y-97342000D01*
X156274600Y-98602000D01*
G37*
X158814600Y-89602000D02*
X157364600Y-89602000D01*
X157364600Y-88342000D01*
X158814600Y-88342000D01*
X158814600Y-89602000D01*
G36*
X158814600Y-89602000D02*
G01*
X157364600Y-89602000D01*
X157364600Y-88342000D01*
X158814600Y-88342000D01*
X158814600Y-89602000D01*
G37*
X158814600Y-91402000D02*
X157364600Y-91402000D01*
X157364600Y-90142000D01*
X158814600Y-90142000D01*
X158814600Y-91402000D01*
G36*
X158814600Y-91402000D02*
G01*
X157364600Y-91402000D01*
X157364600Y-90142000D01*
X158814600Y-90142000D01*
X158814600Y-91402000D01*
G37*
X158814600Y-93202000D02*
X157364600Y-93202000D01*
X157364600Y-91942000D01*
X158814600Y-91942000D01*
X158814600Y-93202000D01*
G36*
X158814600Y-93202000D02*
G01*
X157364600Y-93202000D01*
X157364600Y-91942000D01*
X158814600Y-91942000D01*
X158814600Y-93202000D01*
G37*
X158814600Y-95002000D02*
X157364600Y-95002000D01*
X157364600Y-93742000D01*
X158814600Y-93742000D01*
X158814600Y-95002000D01*
G36*
X158814600Y-95002000D02*
G01*
X157364600Y-95002000D01*
X157364600Y-93742000D01*
X158814600Y-93742000D01*
X158814600Y-95002000D01*
G37*
X158814600Y-96802000D02*
X157364600Y-96802000D01*
X157364600Y-95542000D01*
X158814600Y-95542000D01*
X158814600Y-96802000D01*
G36*
X158814600Y-96802000D02*
G01*
X157364600Y-96802000D01*
X157364600Y-95542000D01*
X158814600Y-95542000D01*
X158814600Y-96802000D01*
G37*
X158814600Y-98602000D02*
X157364600Y-98602000D01*
X157364600Y-97342000D01*
X158814600Y-97342000D01*
X158814600Y-98602000D01*
G36*
X158814600Y-98602000D02*
G01*
X157364600Y-98602000D01*
X157364600Y-97342000D01*
X158814600Y-97342000D01*
X158814600Y-98602000D01*
G37*
D11*
X141145500Y-91599000D03*
X138070500Y-91599000D03*
D12*
X144669600Y-90932000D03*
X144669600Y-93472000D03*
X144669600Y-96012000D03*
D13*
X127940000Y-79264000D03*
X127940000Y-81964000D03*
D14*
X131258000Y-85304000D03*
X131758000Y-85304000D03*
X132258000Y-85304000D03*
X132758000Y-85304000D03*
X133258000Y-85304000D03*
X133258000Y-81004000D03*
X132758000Y-81004000D03*
X132258000Y-81004000D03*
X131758000Y-81004000D03*
X131258000Y-81004000D03*
D15*
X116410500Y-86741000D03*
X118285500Y-86741000D03*
D16*
X112550000Y-92000000D03*
X113500000Y-92000000D03*
X114450000Y-92000000D03*
X114450000Y-89725000D03*
X113500000Y-89725000D03*
X112550000Y-89725000D03*
D13*
X124384000Y-79264000D03*
X124384000Y-81964000D03*
D17*
X143357600Y-86514700D03*
X143357600Y-88389700D03*
X108712000Y-86438500D03*
X108712000Y-88313500D03*
D13*
X136068000Y-79518000D03*
X136068000Y-82218000D03*
X139624000Y-79518000D03*
X139624000Y-82218000D03*
D18*
X135059000Y-76857000D03*
D19*
X135814000Y-72232000D03*
X138864000Y-72232000D03*
X135814000Y-68882000D03*
X138864000Y-68882000D03*
D18*
X139619000Y-76857000D03*
D11*
X141145500Y-96425000D03*
X138070500Y-96425000D03*
D18*
X124390000Y-76844000D03*
D19*
X125145000Y-72219000D03*
X128195000Y-72219000D03*
X125145000Y-68869000D03*
X128195000Y-68869000D03*
D18*
X128950000Y-76844000D03*
D20*
X156512500Y-86741000D03*
X154637500Y-86741000D03*
M02*
