M48
; DRILL file {KiCad 9.0.0} date 2025-04-21T23:02:42+0100
; FORMAT={-:-/ absolute / metric / decimal}
; #@! TF.CreationDate,2025-04-21T23:02:42+01:00
; #@! TF.GenerationSoftware,Kicad,Pcbnew,9.0.0
; #@! TF.FileFunction,Plated,1,4,PTH
FMAT,2
METRIC
; #@! TA.AperFunction,Plated,PTH,ViaDrill
T1C0.300
; #@! TA.AperFunction,Plated,PTH,ComponentDrill
T2C0.760
; #@! TA.AperFunction,Plated,PTH,ComponentDrill
T3C1.000
%
G90
G05
T1
X110.236Y-89.586
X110.25Y-88.392
X116.0Y-90.932
X117.907Y-90.932
X119.761Y-85.674
X119.761Y-86.741
X121.031Y-76.327
X121.031Y-77.47
X121.031Y-78.486
X121.031Y-79.502
X121.031Y-80.518
X130.048Y-81.686
X131.953Y-82.677
X132.207Y-76.378
X132.207Y-77.47
X132.842Y-78.502
X133.385Y-79.534
X134.163Y-80.493
X141.605Y-89.535
X141.63Y-88.392
X142.331Y-77.486
X142.342Y-76.429
X149.809Y-77.445
X149.82Y-78.502
X151.633Y-86.741
X151.663Y-85.649
X153.518Y-78.486
X153.578Y-79.534
T2
X108.904Y-83.936
X110.174Y-81.396
X111.444Y-83.936
X112.715Y-81.396
X113.984Y-83.936
X115.254Y-81.396
X116.524Y-83.936
X117.794Y-81.396
X148.904Y-83.936
X150.174Y-81.396
X151.445Y-83.936
X152.714Y-81.396
X153.984Y-83.936
X155.254Y-81.396
X156.524Y-83.936
X157.794Y-81.396
T3
X120.421Y-91.181
X120.421Y-93.721
X124.663Y-91.156
X124.663Y-93.696
X129.941Y-90.449
X129.951Y-94.209
X132.481Y-90.449
X132.491Y-94.209
M30
