G04 #@! TF.GenerationSoftware,KiCad,Pcbnew,9.0.0*
G04 #@! TF.CreationDate,2025-04-21T00:28:37+01:00*
G04 #@! TF.ProjectId,PicoChainReference,5069636f-4368-4616-996e-526566657265,v1.2*
G04 #@! TF.SameCoordinates,Original*
G04 #@! TF.FileFunction,Legend,Bot*
G04 #@! TF.FilePolarity,Positive*
%FSLAX46Y46*%
G04 Gerber Fmt 4.6, Leading zero omitted, Abs format (unit mm)*
G04 Created by KiCad (PCBNEW 9.0.0) date 2025-04-21 00:28:37*
%MOMM*%
%LPD*%
G01*
G04 APERTURE LIST*
%ADD10C,0.000000*%
%ADD11C,0.300000*%
%ADD12C,0.093750*%
%ADD13C,0.062500*%
%ADD14R,1.700000X1.700000*%
%ADD15O,1.700000X1.700000*%
%ADD16C,3.200000*%
%ADD17R,1.500000X1.500000*%
%ADD18C,1.500000*%
G04 APERTURE END LIST*
D10*
G36*
X163538410Y-98305423D02*
G01*
X163557497Y-98305705D01*
X163574824Y-98306196D01*
X163590520Y-98306912D01*
X163604717Y-98307869D01*
X163617544Y-98309084D01*
X163629133Y-98310573D01*
X163639614Y-98312353D01*
X163649117Y-98314441D01*
X163653543Y-98315605D01*
X163657773Y-98316852D01*
X163661824Y-98318184D01*
X163665712Y-98319603D01*
X163669454Y-98321112D01*
X163673066Y-98322711D01*
X163679963Y-98326193D01*
X163686536Y-98330064D01*
X163692914Y-98334340D01*
X163699228Y-98339040D01*
X163705791Y-98344311D01*
X163712110Y-98349936D01*
X163718161Y-98355915D01*
X163723917Y-98362251D01*
X163729355Y-98368943D01*
X163734450Y-98375994D01*
X163739178Y-98383405D01*
X163743512Y-98391176D01*
X163747429Y-98399310D01*
X163750904Y-98407807D01*
X163753913Y-98416668D01*
X163756430Y-98425896D01*
X163758430Y-98435491D01*
X163759890Y-98445454D01*
X163760784Y-98455786D01*
X163761087Y-98466490D01*
X163760826Y-98475570D01*
X163760057Y-98484527D01*
X163758795Y-98493346D01*
X163757060Y-98502013D01*
X163754870Y-98510516D01*
X163752241Y-98518840D01*
X163749192Y-98526972D01*
X163745741Y-98534898D01*
X163741906Y-98542604D01*
X163737704Y-98550077D01*
X163733153Y-98557304D01*
X163728271Y-98564270D01*
X163723075Y-98570962D01*
X163717585Y-98577366D01*
X163711817Y-98583469D01*
X163705789Y-98589256D01*
X163755452Y-98589256D01*
X163755452Y-98685194D01*
X163517459Y-98685194D01*
X162530007Y-98685194D01*
X162530007Y-98589600D01*
X162812979Y-98589600D01*
X162818964Y-98589483D01*
X162824787Y-98589135D01*
X162830447Y-98588560D01*
X162835942Y-98587764D01*
X162841270Y-98586751D01*
X162846429Y-98585526D01*
X162851417Y-98584094D01*
X162856232Y-98582459D01*
X162860873Y-98580627D01*
X162865338Y-98578602D01*
X162869624Y-98576389D01*
X162873730Y-98573993D01*
X162877654Y-98571418D01*
X162881394Y-98568670D01*
X162884949Y-98565753D01*
X162888316Y-98562672D01*
X162891493Y-98559432D01*
X162894479Y-98556038D01*
X162897271Y-98552493D01*
X162899869Y-98548804D01*
X162902269Y-98544975D01*
X162904471Y-98541011D01*
X162906472Y-98536916D01*
X162908270Y-98532696D01*
X162909863Y-98528355D01*
X162911251Y-98523897D01*
X162912429Y-98519329D01*
X162913398Y-98514654D01*
X162914155Y-98509877D01*
X162914698Y-98505004D01*
X162915025Y-98500038D01*
X162915134Y-98494985D01*
X162915025Y-98490017D01*
X162914698Y-98485130D01*
X162914155Y-98480330D01*
X162913398Y-98475621D01*
X162912429Y-98471010D01*
X162911251Y-98466500D01*
X162909863Y-98462097D01*
X162908270Y-98457806D01*
X162906472Y-98453632D01*
X162904471Y-98449579D01*
X162902269Y-98445652D01*
X162899869Y-98441858D01*
X162897272Y-98438200D01*
X162894479Y-98434684D01*
X162891493Y-98431314D01*
X162888316Y-98428095D01*
X162884949Y-98425034D01*
X162881395Y-98422133D01*
X162877654Y-98419399D01*
X162873730Y-98416837D01*
X162869624Y-98414451D01*
X162865338Y-98412246D01*
X162860873Y-98410228D01*
X162856232Y-98408401D01*
X162851417Y-98406770D01*
X162846429Y-98405341D01*
X162841270Y-98404118D01*
X162835942Y-98403106D01*
X162830447Y-98402310D01*
X162824787Y-98401736D01*
X162818964Y-98401387D01*
X162812979Y-98401270D01*
X162530008Y-98401270D01*
X162530008Y-98305702D01*
X162845814Y-98305702D01*
X162855766Y-98305947D01*
X162865421Y-98306668D01*
X162874776Y-98307848D01*
X162883832Y-98309470D01*
X162892586Y-98311518D01*
X162901038Y-98313972D01*
X162909186Y-98316817D01*
X162917030Y-98320035D01*
X162924567Y-98323608D01*
X162931798Y-98327519D01*
X162938720Y-98331751D01*
X162945332Y-98336287D01*
X162951633Y-98341108D01*
X162957622Y-98346199D01*
X162963298Y-98351541D01*
X162968660Y-98357118D01*
X162973706Y-98362911D01*
X162978435Y-98368904D01*
X162982846Y-98375079D01*
X162986938Y-98381419D01*
X162990710Y-98387906D01*
X162994160Y-98394524D01*
X162997286Y-98401255D01*
X163000089Y-98408081D01*
X163002567Y-98414986D01*
X163004718Y-98421952D01*
X163006542Y-98428961D01*
X163008036Y-98435997D01*
X163009201Y-98443041D01*
X163010034Y-98450077D01*
X163010535Y-98457088D01*
X163010703Y-98464056D01*
X163010483Y-98473452D01*
X163009823Y-98482668D01*
X163008724Y-98491697D01*
X163007186Y-98500534D01*
X163005208Y-98509174D01*
X163002791Y-98517610D01*
X162999935Y-98525839D01*
X162996640Y-98533853D01*
X162992906Y-98541647D01*
X162988732Y-98549217D01*
X162984120Y-98556556D01*
X162979069Y-98563659D01*
X162973579Y-98570520D01*
X162967651Y-98577135D01*
X162961284Y-98583497D01*
X162954478Y-98589600D01*
X163330981Y-98589256D01*
X163324790Y-98582544D01*
X163318879Y-98575755D01*
X163313265Y-98568879D01*
X163307964Y-98561903D01*
X163302992Y-98554818D01*
X163298366Y-98547612D01*
X163294103Y-98540275D01*
X163290218Y-98532794D01*
X163286729Y-98525160D01*
X163283651Y-98517361D01*
X163281002Y-98509386D01*
X163278798Y-98501225D01*
X163277612Y-98495541D01*
X163370324Y-98495541D01*
X163370552Y-98503643D01*
X163371225Y-98511265D01*
X163372326Y-98518423D01*
X163373840Y-98525130D01*
X163375750Y-98531401D01*
X163378039Y-98537250D01*
X163380692Y-98542694D01*
X163383692Y-98547744D01*
X163387023Y-98552418D01*
X163390668Y-98556728D01*
X163394612Y-98560690D01*
X163398837Y-98564319D01*
X163403329Y-98567628D01*
X163408069Y-98570632D01*
X163413043Y-98573347D01*
X163418233Y-98575786D01*
X163423624Y-98577964D01*
X163429199Y-98579896D01*
X163440836Y-98583079D01*
X163453015Y-98585453D01*
X163465604Y-98587133D01*
X163478473Y-98588237D01*
X163491492Y-98588881D01*
X163517459Y-98589256D01*
X163530550Y-98589182D01*
X163543731Y-98588880D01*
X163556874Y-98588235D01*
X163569849Y-98587130D01*
X163582528Y-98585448D01*
X163588716Y-98584354D01*
X163594781Y-98583073D01*
X163600708Y-98581588D01*
X163606480Y-98579887D01*
X163612080Y-98577955D01*
X163617494Y-98575776D01*
X163622705Y-98573336D01*
X163627697Y-98570621D01*
X163632453Y-98567616D01*
X163636957Y-98564307D01*
X163641194Y-98560679D01*
X163645147Y-98556716D01*
X163648800Y-98552406D01*
X163652137Y-98547733D01*
X163655142Y-98542683D01*
X163657798Y-98537241D01*
X163660091Y-98531392D01*
X163662002Y-98525122D01*
X163663517Y-98518417D01*
X163664619Y-98511261D01*
X163665292Y-98503641D01*
X163665520Y-98495541D01*
X163665305Y-98487355D01*
X163664671Y-98479653D01*
X163663629Y-98472422D01*
X163662195Y-98465646D01*
X163660382Y-98459311D01*
X163658202Y-98453402D01*
X163655670Y-98447904D01*
X163652799Y-98442802D01*
X163649603Y-98438082D01*
X163646096Y-98433728D01*
X163642290Y-98429727D01*
X163638199Y-98426063D01*
X163633837Y-98422722D01*
X163629218Y-98419688D01*
X163624355Y-98416948D01*
X163619261Y-98414486D01*
X163613950Y-98412287D01*
X163608435Y-98410337D01*
X163596851Y-98407125D01*
X163584615Y-98404731D01*
X163571836Y-98403037D01*
X163558623Y-98401925D01*
X163545083Y-98401276D01*
X163517459Y-98400899D01*
X163503764Y-98400974D01*
X163490155Y-98401276D01*
X163476744Y-98401925D01*
X163463639Y-98403037D01*
X163450951Y-98404731D01*
X163444798Y-98405833D01*
X163438790Y-98407125D01*
X163432941Y-98408622D01*
X163427265Y-98410337D01*
X163421776Y-98412287D01*
X163416487Y-98414486D01*
X163411412Y-98416948D01*
X163406565Y-98419688D01*
X163401960Y-98422722D01*
X163397610Y-98426063D01*
X163393529Y-98429727D01*
X163389730Y-98433728D01*
X163386229Y-98438082D01*
X163383037Y-98442802D01*
X163380170Y-98447904D01*
X163377640Y-98453402D01*
X163375462Y-98459311D01*
X163373649Y-98465646D01*
X163372215Y-98472422D01*
X163371173Y-98479653D01*
X163370539Y-98487355D01*
X163370324Y-98495541D01*
X163277612Y-98495541D01*
X163277054Y-98492865D01*
X163275789Y-98484297D01*
X163275017Y-98475509D01*
X163274757Y-98466490D01*
X163274833Y-98461092D01*
X163275060Y-98455786D01*
X163275435Y-98450574D01*
X163275954Y-98445454D01*
X163276615Y-98440426D01*
X163277414Y-98435491D01*
X163278348Y-98430647D01*
X163279414Y-98425896D01*
X163280610Y-98421236D01*
X163281931Y-98416669D01*
X163283375Y-98412192D01*
X163284939Y-98407807D01*
X163286620Y-98403513D01*
X163288414Y-98399310D01*
X163292332Y-98391176D01*
X163296666Y-98383405D01*
X163301393Y-98375994D01*
X163306488Y-98368943D01*
X163311926Y-98362251D01*
X163317683Y-98355915D01*
X163323733Y-98349936D01*
X163330053Y-98344311D01*
X163336616Y-98339040D01*
X163342921Y-98334340D01*
X163349291Y-98330064D01*
X163355854Y-98326193D01*
X163362740Y-98322712D01*
X163370078Y-98319603D01*
X163377996Y-98316852D01*
X163386623Y-98314441D01*
X163396088Y-98312353D01*
X163406519Y-98310573D01*
X163418047Y-98309084D01*
X163430798Y-98307869D01*
X163444903Y-98306912D01*
X163477688Y-98305705D01*
X163517432Y-98305332D01*
X163538410Y-98305423D01*
G37*
G36*
X162978280Y-97436100D02*
G01*
X162982190Y-97441651D01*
X162985886Y-97447279D01*
X162989360Y-97452989D01*
X162992603Y-97458786D01*
X162995608Y-97464676D01*
X162998365Y-97470666D01*
X163000866Y-97476759D01*
X163003104Y-97482963D01*
X163005071Y-97489283D01*
X163006757Y-97495724D01*
X163008156Y-97502291D01*
X163009257Y-97508992D01*
X163010055Y-97515830D01*
X163010539Y-97522812D01*
X163010702Y-97529944D01*
X163010482Y-97539341D01*
X163009823Y-97548554D01*
X163008724Y-97557576D01*
X163007186Y-97566397D01*
X163005208Y-97575011D01*
X163002791Y-97583408D01*
X162999935Y-97591581D01*
X162996639Y-97599520D01*
X162992905Y-97607217D01*
X162988732Y-97614665D01*
X162984120Y-97621854D01*
X162979069Y-97628777D01*
X162973579Y-97635425D01*
X162967650Y-97641790D01*
X162961284Y-97647863D01*
X162954478Y-97653637D01*
X162954478Y-97655515D01*
X163005067Y-97655515D01*
X163005067Y-97751083D01*
X162530007Y-97751083D01*
X162530007Y-97655515D01*
X162815836Y-97655515D01*
X162822218Y-97655382D01*
X162828371Y-97654988D01*
X162834298Y-97654341D01*
X162839999Y-97653450D01*
X162845477Y-97652323D01*
X162850734Y-97650968D01*
X162855771Y-97649393D01*
X162860589Y-97647606D01*
X162865191Y-97645617D01*
X162869578Y-97643432D01*
X162873752Y-97641061D01*
X162877715Y-97638511D01*
X162881468Y-97635791D01*
X162885012Y-97632909D01*
X162888350Y-97629874D01*
X162891484Y-97626692D01*
X162894414Y-97623374D01*
X162897144Y-97619926D01*
X162899673Y-97616358D01*
X162902005Y-97612677D01*
X162904140Y-97608892D01*
X162906081Y-97605010D01*
X162907829Y-97601041D01*
X162909386Y-97596992D01*
X162911933Y-97588689D01*
X162913735Y-97580166D01*
X162914807Y-97571490D01*
X162915161Y-97562726D01*
X162915083Y-97558252D01*
X162914846Y-97553954D01*
X162914444Y-97549810D01*
X162913871Y-97545798D01*
X162913123Y-97541896D01*
X162912193Y-97538081D01*
X162911076Y-97534333D01*
X162909767Y-97530629D01*
X162908259Y-97526946D01*
X162906548Y-97523264D01*
X162904627Y-97519560D01*
X162902492Y-97515812D01*
X162900136Y-97511997D01*
X162897555Y-97508096D01*
X162894742Y-97504084D01*
X162891692Y-97499940D01*
X162974163Y-97430620D01*
X162978280Y-97436100D01*
G37*
G36*
X163434966Y-96724462D02*
G01*
X163448568Y-96725878D01*
X163461688Y-96728274D01*
X163468050Y-96729848D01*
X163474271Y-96731678D01*
X163480344Y-96733767D01*
X163486263Y-96736119D01*
X163492019Y-96738738D01*
X163497608Y-96741627D01*
X163503020Y-96744790D01*
X163508250Y-96748231D01*
X163513291Y-96751952D01*
X163518136Y-96755958D01*
X163522778Y-96760253D01*
X163527210Y-96764840D01*
X163531425Y-96769722D01*
X163535417Y-96774903D01*
X163539178Y-96780388D01*
X163542701Y-96786178D01*
X163545980Y-96792279D01*
X163549008Y-96798694D01*
X163551778Y-96805426D01*
X163554283Y-96812478D01*
X163556516Y-96819856D01*
X163558471Y-96827562D01*
X163560140Y-96835599D01*
X163561516Y-96843972D01*
X163562593Y-96852684D01*
X163563363Y-96861739D01*
X163568946Y-96940452D01*
X163569849Y-96949032D01*
X163571121Y-96956868D01*
X163572738Y-96963988D01*
X163574676Y-96970417D01*
X163576910Y-96976182D01*
X163578130Y-96978823D01*
X163579414Y-96981309D01*
X163580761Y-96983641D01*
X163582166Y-96985823D01*
X163583626Y-96987858D01*
X163585139Y-96989751D01*
X163586701Y-96991503D01*
X163588309Y-96993119D01*
X163591652Y-96995953D01*
X163595142Y-96998280D01*
X163598756Y-97000125D01*
X163602469Y-97001515D01*
X163606256Y-97002475D01*
X163610091Y-97003032D01*
X163613952Y-97003212D01*
X163616998Y-97003151D01*
X163619992Y-97002965D01*
X163622931Y-97002652D01*
X163625812Y-97002207D01*
X163628632Y-97001627D01*
X163631389Y-97000908D01*
X163634079Y-97000047D01*
X163636700Y-96999040D01*
X163639248Y-96997883D01*
X163641721Y-96996573D01*
X163644116Y-96995107D01*
X163646429Y-96993480D01*
X163648658Y-96991689D01*
X163650800Y-96989730D01*
X163652851Y-96987601D01*
X163654810Y-96985296D01*
X163656673Y-96982813D01*
X163658437Y-96980148D01*
X163660099Y-96977298D01*
X163661656Y-96974259D01*
X163663105Y-96971026D01*
X163664444Y-96967598D01*
X163665670Y-96963969D01*
X163666778Y-96960137D01*
X163667768Y-96956098D01*
X163668635Y-96951848D01*
X163669376Y-96947383D01*
X163669990Y-96942701D01*
X163670472Y-96937797D01*
X163670820Y-96932668D01*
X163671031Y-96927310D01*
X163671102Y-96921720D01*
X163670895Y-96912202D01*
X163670284Y-96902974D01*
X163669283Y-96894017D01*
X163667906Y-96885315D01*
X163666166Y-96876850D01*
X163664078Y-96868603D01*
X163661655Y-96860557D01*
X163658911Y-96852693D01*
X163655860Y-96844996D01*
X163652517Y-96837445D01*
X163648893Y-96830025D01*
X163645005Y-96822716D01*
X163640865Y-96815501D01*
X163636487Y-96808363D01*
X163631886Y-96801283D01*
X163627075Y-96794244D01*
X163696370Y-96735241D01*
X163703584Y-96744141D01*
X163710453Y-96753286D01*
X163716959Y-96762702D01*
X163723087Y-96772416D01*
X163728819Y-96782453D01*
X163734140Y-96792841D01*
X163739032Y-96803605D01*
X163743479Y-96814772D01*
X163747465Y-96826367D01*
X163750973Y-96838418D01*
X163753986Y-96850950D01*
X163756489Y-96863989D01*
X163758464Y-96877562D01*
X163759895Y-96891695D01*
X163760766Y-96906414D01*
X163761060Y-96921746D01*
X163760479Y-96940256D01*
X163758738Y-96958138D01*
X163755841Y-96975315D01*
X163751793Y-96991709D01*
X163746596Y-97007241D01*
X163743569Y-97014659D01*
X163740257Y-97021833D01*
X163736660Y-97028752D01*
X163732778Y-97035406D01*
X163728613Y-97041786D01*
X163724164Y-97047883D01*
X163719433Y-97053686D01*
X163714419Y-97059185D01*
X163709124Y-97064371D01*
X163703547Y-97069234D01*
X163697690Y-97073764D01*
X163691552Y-97077952D01*
X163685135Y-97081787D01*
X163678439Y-97085260D01*
X163671464Y-97088361D01*
X163664210Y-97091080D01*
X163656679Y-97093408D01*
X163648871Y-97095335D01*
X163640787Y-97096850D01*
X163632426Y-97097944D01*
X163623790Y-97098608D01*
X163614878Y-97098832D01*
X163607340Y-97098663D01*
X163600006Y-97098160D01*
X163592876Y-97097331D01*
X163585952Y-97096182D01*
X163579236Y-97094719D01*
X163572727Y-97092951D01*
X163566427Y-97090884D01*
X163560338Y-97088524D01*
X163554459Y-97085878D01*
X163548793Y-97082955D01*
X163543340Y-97079759D01*
X163538102Y-97076298D01*
X163533078Y-97072580D01*
X163528271Y-97068610D01*
X163523682Y-97064396D01*
X163519311Y-97059945D01*
X163515159Y-97055263D01*
X163511228Y-97050357D01*
X163507519Y-97045235D01*
X163504032Y-97039903D01*
X163500769Y-97034367D01*
X163497731Y-97028636D01*
X163494919Y-97022715D01*
X163492333Y-97016612D01*
X163489976Y-97010333D01*
X163487847Y-97003885D01*
X163485948Y-96997276D01*
X163484280Y-96990512D01*
X163481642Y-96976546D01*
X163479941Y-96962042D01*
X163472453Y-96877693D01*
X163471839Y-96871630D01*
X163471025Y-96865769D01*
X163469988Y-96860138D01*
X163468703Y-96854762D01*
X163467149Y-96849668D01*
X163465301Y-96844880D01*
X163463136Y-96840425D01*
X163461928Y-96838330D01*
X163460632Y-96836329D01*
X163459246Y-96834423D01*
X163457766Y-96832617D01*
X163456189Y-96830914D01*
X163454513Y-96829317D01*
X163452735Y-96827829D01*
X163450852Y-96826453D01*
X163448860Y-96825193D01*
X163446758Y-96824052D01*
X163444541Y-96823032D01*
X163442208Y-96822139D01*
X163439755Y-96821374D01*
X163437180Y-96820740D01*
X163434479Y-96820242D01*
X163431650Y-96819882D01*
X163428690Y-96819664D01*
X163425595Y-96819590D01*
X163421875Y-96819705D01*
X163418271Y-96820046D01*
X163414782Y-96820609D01*
X163411410Y-96821389D01*
X163408153Y-96822383D01*
X163405013Y-96823584D01*
X163401990Y-96824990D01*
X163399083Y-96826595D01*
X163396293Y-96828395D01*
X163393619Y-96830386D01*
X163391063Y-96832562D01*
X163388624Y-96834920D01*
X163386303Y-96837455D01*
X163384099Y-96840163D01*
X163382012Y-96843039D01*
X163380044Y-96846079D01*
X163378194Y-96849277D01*
X163376462Y-96852630D01*
X163374848Y-96856134D01*
X163373353Y-96859783D01*
X163371976Y-96863573D01*
X163370719Y-96867501D01*
X163369580Y-96871560D01*
X163368561Y-96875747D01*
X163367661Y-96880057D01*
X163366880Y-96884487D01*
X163366219Y-96889030D01*
X163365678Y-96893684D01*
X163365257Y-96898442D01*
X163364956Y-96903302D01*
X163364775Y-96908258D01*
X163364715Y-96913306D01*
X163364956Y-96925036D01*
X163365677Y-96936349D01*
X163366878Y-96947267D01*
X163368557Y-96957811D01*
X163370713Y-96968005D01*
X163373346Y-96977868D01*
X163376453Y-96987425D01*
X163380034Y-96996696D01*
X163384087Y-97005703D01*
X163388612Y-97014469D01*
X163393607Y-97023015D01*
X163399071Y-97031364D01*
X163405003Y-97039536D01*
X163411402Y-97047555D01*
X163418266Y-97055442D01*
X163425595Y-97063219D01*
X163360032Y-97129735D01*
X163349656Y-97118195D01*
X163339959Y-97106421D01*
X163330940Y-97094418D01*
X163322597Y-97082194D01*
X163314929Y-97069755D01*
X163307935Y-97057110D01*
X163301613Y-97044264D01*
X163295963Y-97031224D01*
X163290982Y-97017998D01*
X163286669Y-97004592D01*
X163283024Y-96991013D01*
X163280044Y-96977268D01*
X163277729Y-96963364D01*
X163276076Y-96949308D01*
X163275086Y-96935107D01*
X163274756Y-96920767D01*
X163275379Y-96900336D01*
X163277232Y-96880567D01*
X163280295Y-96861550D01*
X163284549Y-96843375D01*
X163289972Y-96826135D01*
X163296543Y-96809918D01*
X163304243Y-96794816D01*
X163308510Y-96787711D01*
X163313051Y-96780919D01*
X163317864Y-96774450D01*
X163322947Y-96768317D01*
X163328296Y-96762531D01*
X163333909Y-96757102D01*
X163339784Y-96752043D01*
X163345917Y-96747364D01*
X163352308Y-96743077D01*
X163358952Y-96739193D01*
X163365847Y-96735724D01*
X163372992Y-96732681D01*
X163380382Y-96730075D01*
X163388016Y-96727917D01*
X163395891Y-96726219D01*
X163404005Y-96724992D01*
X163412355Y-96724247D01*
X163420938Y-96723997D01*
X163434966Y-96724462D01*
G37*
G36*
X163687448Y-95024870D02*
G01*
X163695913Y-95033155D01*
X163704008Y-95041812D01*
X163711699Y-95050839D01*
X163718956Y-95060236D01*
X163725748Y-95069999D01*
X163732042Y-95080128D01*
X163737807Y-95090622D01*
X163743012Y-95101477D01*
X163747626Y-95112694D01*
X163751616Y-95124270D01*
X163754951Y-95136203D01*
X163757600Y-95148493D01*
X163759531Y-95161137D01*
X163760218Y-95167591D01*
X163760713Y-95174134D01*
X163761013Y-95180764D01*
X163761114Y-95187482D01*
X163760292Y-95207967D01*
X163759256Y-95218130D01*
X163757794Y-95228214D01*
X163755899Y-95238202D01*
X163753565Y-95248075D01*
X163750786Y-95257814D01*
X163747555Y-95267399D01*
X163743866Y-95276814D01*
X163739712Y-95286038D01*
X163735086Y-95295053D01*
X163729983Y-95303840D01*
X163724394Y-95312382D01*
X163718315Y-95320658D01*
X163711739Y-95328650D01*
X163704658Y-95336340D01*
X163697067Y-95343709D01*
X163688959Y-95350738D01*
X163680327Y-95357409D01*
X163671166Y-95363702D01*
X163661467Y-95369599D01*
X163651226Y-95375082D01*
X163640435Y-95380131D01*
X163629088Y-95384728D01*
X163617179Y-95388854D01*
X163604700Y-95392491D01*
X163591646Y-95395620D01*
X163578009Y-95398222D01*
X163563784Y-95400278D01*
X163548964Y-95401770D01*
X163533542Y-95402679D01*
X163517512Y-95402986D01*
X163501556Y-95402679D01*
X163486205Y-95401770D01*
X163471451Y-95400278D01*
X163457287Y-95398222D01*
X163443709Y-95395620D01*
X163430709Y-95392491D01*
X163418281Y-95388854D01*
X163406418Y-95384728D01*
X163395114Y-95380131D01*
X163384364Y-95375082D01*
X163374159Y-95369599D01*
X163364495Y-95363702D01*
X163355364Y-95357409D01*
X163346761Y-95350738D01*
X163338678Y-95343709D01*
X163331110Y-95336340D01*
X163324050Y-95328650D01*
X163317491Y-95320658D01*
X163311428Y-95312382D01*
X163305854Y-95303840D01*
X163300763Y-95295053D01*
X163296148Y-95286038D01*
X163292002Y-95276814D01*
X163288320Y-95267399D01*
X163282321Y-95248075D01*
X163278100Y-95228214D01*
X163275604Y-95207967D01*
X163274783Y-95187482D01*
X163275185Y-95174129D01*
X163276367Y-95161128D01*
X163278299Y-95148481D01*
X163280949Y-95136188D01*
X163284285Y-95124253D01*
X163288276Y-95112675D01*
X163292889Y-95101458D01*
X163298093Y-95090602D01*
X163303857Y-95080109D01*
X163310148Y-95069981D01*
X163316935Y-95060219D01*
X163324187Y-95050825D01*
X163331871Y-95041800D01*
X163339956Y-95033146D01*
X163348410Y-95024865D01*
X163357201Y-95016958D01*
X163419986Y-95087232D01*
X163414641Y-95091742D01*
X163409511Y-95096487D01*
X163404615Y-95101460D01*
X163399970Y-95106654D01*
X163395595Y-95112062D01*
X163391506Y-95117678D01*
X163387722Y-95123493D01*
X163384261Y-95129502D01*
X163381140Y-95135697D01*
X163378377Y-95142072D01*
X163375991Y-95148619D01*
X163373998Y-95155332D01*
X163372418Y-95162203D01*
X163371266Y-95169226D01*
X163370857Y-95172792D01*
X163370563Y-95176393D01*
X163370384Y-95180029D01*
X163370324Y-95183699D01*
X163370454Y-95190895D01*
X163370844Y-95197903D01*
X163371499Y-95204719D01*
X163372419Y-95211341D01*
X163373609Y-95217766D01*
X163375071Y-95223992D01*
X163376808Y-95230016D01*
X163378822Y-95235835D01*
X163381117Y-95241448D01*
X163383694Y-95246850D01*
X163386557Y-95252041D01*
X163389708Y-95257016D01*
X163393151Y-95261775D01*
X163396887Y-95266313D01*
X163400920Y-95270628D01*
X163405252Y-95274718D01*
X163409887Y-95278581D01*
X163414826Y-95282213D01*
X163420072Y-95285612D01*
X163425629Y-95288776D01*
X163431499Y-95291701D01*
X163437685Y-95294385D01*
X163444189Y-95296826D01*
X163451015Y-95299022D01*
X163458164Y-95300968D01*
X163465641Y-95302664D01*
X163473446Y-95304106D01*
X163481584Y-95305291D01*
X163490057Y-95306217D01*
X163498867Y-95306882D01*
X163508018Y-95307283D01*
X163517512Y-95307418D01*
X163536309Y-95306883D01*
X163553725Y-95305292D01*
X163561922Y-95304107D01*
X163569783Y-95302666D01*
X163577309Y-95300971D01*
X163584505Y-95299025D01*
X163591373Y-95296831D01*
X163597915Y-95294391D01*
X163604136Y-95291707D01*
X163610037Y-95288783D01*
X163615622Y-95285620D01*
X163620894Y-95282222D01*
X163625855Y-95278590D01*
X163630509Y-95274728D01*
X163634858Y-95270639D01*
X163638905Y-95266324D01*
X163642653Y-95261786D01*
X163646106Y-95257028D01*
X163649266Y-95252053D01*
X163652135Y-95246862D01*
X163654718Y-95241459D01*
X163657016Y-95235846D01*
X163659033Y-95230026D01*
X163660771Y-95224002D01*
X163662234Y-95217775D01*
X163663425Y-95211348D01*
X163665000Y-95197907D01*
X163665520Y-95183699D01*
X163665281Y-95176393D01*
X163664577Y-95169225D01*
X163663426Y-95162201D01*
X163661845Y-95155328D01*
X163659853Y-95148614D01*
X163657466Y-95142065D01*
X163654704Y-95135689D01*
X163651583Y-95129492D01*
X163648121Y-95123482D01*
X163644337Y-95117666D01*
X163640249Y-95112051D01*
X163635873Y-95106643D01*
X163631228Y-95101450D01*
X163626332Y-95096479D01*
X163621203Y-95091738D01*
X163615857Y-95087232D01*
X163678643Y-95016958D01*
X163687448Y-95024870D01*
G37*
G36*
X162821602Y-95116890D02*
G01*
X162832706Y-95117673D01*
X162843535Y-95118959D01*
X162854083Y-95120736D01*
X162864343Y-95122988D01*
X162874309Y-95125703D01*
X162883976Y-95128866D01*
X162893337Y-95132463D01*
X162902387Y-95136479D01*
X162911119Y-95140902D01*
X162919527Y-95145716D01*
X162927606Y-95150908D01*
X162935349Y-95156464D01*
X162942751Y-95162369D01*
X162949805Y-95168610D01*
X162956506Y-95175172D01*
X162962847Y-95182042D01*
X162968822Y-95189205D01*
X162974426Y-95196648D01*
X162979652Y-95204355D01*
X162984495Y-95212314D01*
X162988948Y-95220510D01*
X162993005Y-95228929D01*
X162996661Y-95237557D01*
X162999909Y-95246380D01*
X163002744Y-95255384D01*
X163005158Y-95264554D01*
X163007148Y-95273878D01*
X163008706Y-95283340D01*
X163009826Y-95292927D01*
X163010502Y-95302624D01*
X163010729Y-95312418D01*
X163010010Y-95329752D01*
X163007792Y-95347201D01*
X163006091Y-95355915D01*
X163003979Y-95364594D01*
X163001445Y-95373217D01*
X162998477Y-95381762D01*
X162995063Y-95390209D01*
X162991191Y-95398535D01*
X162986849Y-95406720D01*
X162982025Y-95414742D01*
X162976709Y-95422581D01*
X162970887Y-95430214D01*
X162964548Y-95437620D01*
X162957680Y-95444779D01*
X162950271Y-95451669D01*
X162942310Y-95458268D01*
X162933784Y-95464556D01*
X162924682Y-95470511D01*
X162914992Y-95476112D01*
X162904702Y-95481337D01*
X162893800Y-95486166D01*
X162882275Y-95490576D01*
X162870114Y-95494548D01*
X162857306Y-95498059D01*
X162843839Y-95501088D01*
X162829700Y-95503614D01*
X162814879Y-95505616D01*
X162810201Y-95506055D01*
X162799364Y-95507072D01*
X162783141Y-95507961D01*
X162766201Y-95508263D01*
X162748358Y-95507934D01*
X162731364Y-95506965D01*
X162715200Y-95505380D01*
X162699848Y-95503201D01*
X162685289Y-95500452D01*
X162671505Y-95497157D01*
X162658478Y-95493340D01*
X162646188Y-95489025D01*
X162634617Y-95484234D01*
X162623747Y-95478993D01*
X162613559Y-95473323D01*
X162604035Y-95467250D01*
X162595156Y-95460797D01*
X162586904Y-95453987D01*
X162579259Y-95446844D01*
X162572205Y-95439392D01*
X162565721Y-95431654D01*
X162559790Y-95423654D01*
X162554393Y-95415416D01*
X162549511Y-95406964D01*
X162545126Y-95398321D01*
X162541220Y-95389510D01*
X162534769Y-95371482D01*
X162530009Y-95353069D01*
X162526793Y-95334461D01*
X162524972Y-95315847D01*
X162524398Y-95297416D01*
X162524663Y-95285506D01*
X162525470Y-95273679D01*
X162526831Y-95261951D01*
X162528761Y-95250338D01*
X162531272Y-95238858D01*
X162534379Y-95227525D01*
X162538096Y-95216358D01*
X162542436Y-95205371D01*
X162547412Y-95194582D01*
X162553040Y-95184007D01*
X162559331Y-95173662D01*
X162566300Y-95163564D01*
X162573962Y-95153729D01*
X162582328Y-95144174D01*
X162591414Y-95134914D01*
X162601233Y-95125967D01*
X162660288Y-95195314D01*
X162654976Y-95200716D01*
X162649958Y-95206360D01*
X162645242Y-95212227D01*
X162640833Y-95218295D01*
X162636738Y-95224544D01*
X162632965Y-95230953D01*
X162629519Y-95237502D01*
X162626408Y-95244169D01*
X162623638Y-95250934D01*
X162621215Y-95257777D01*
X162619147Y-95264676D01*
X162617440Y-95271610D01*
X162616101Y-95278561D01*
X162615136Y-95285505D01*
X162614552Y-95292423D01*
X162614356Y-95299295D01*
X162614472Y-95305393D01*
X162614817Y-95311381D01*
X162615393Y-95317254D01*
X162616200Y-95323006D01*
X162617236Y-95328630D01*
X162618502Y-95334123D01*
X162619997Y-95339479D01*
X162621722Y-95344691D01*
X162623677Y-95349756D01*
X162625860Y-95354666D01*
X162628272Y-95359416D01*
X162630913Y-95364002D01*
X162633782Y-95368418D01*
X162636879Y-95372658D01*
X162640205Y-95376716D01*
X162643758Y-95380588D01*
X162647539Y-95384267D01*
X162651548Y-95387749D01*
X162655784Y-95391028D01*
X162660248Y-95394098D01*
X162664938Y-95396954D01*
X162669855Y-95399590D01*
X162674999Y-95402001D01*
X162680369Y-95404181D01*
X162685966Y-95406126D01*
X162691788Y-95407829D01*
X162697837Y-95409285D01*
X162704111Y-95410489D01*
X162710611Y-95411434D01*
X162717336Y-95412117D01*
X162724286Y-95412530D01*
X162731461Y-95412669D01*
X162810201Y-95412669D01*
X162816867Y-95412378D01*
X162823334Y-95411855D01*
X162829601Y-95411106D01*
X162835669Y-95410135D01*
X162841536Y-95408948D01*
X162847200Y-95407547D01*
X162852662Y-95405940D01*
X162857921Y-95404130D01*
X162862975Y-95402122D01*
X162867824Y-95399921D01*
X162872466Y-95397532D01*
X162876902Y-95394960D01*
X162881129Y-95392209D01*
X162885148Y-95389284D01*
X162888957Y-95386191D01*
X162892556Y-95382933D01*
X162895943Y-95379516D01*
X162899118Y-95375945D01*
X162902080Y-95372224D01*
X162904828Y-95368358D01*
X162907361Y-95364352D01*
X162909679Y-95360210D01*
X162911779Y-95355939D01*
X162913663Y-95351541D01*
X162915328Y-95347023D01*
X162916774Y-95342389D01*
X162917999Y-95337644D01*
X162919004Y-95332792D01*
X162919787Y-95327839D01*
X162920348Y-95322789D01*
X162920684Y-95317647D01*
X162920797Y-95312418D01*
X162920684Y-95307192D01*
X162920348Y-95302057D01*
X162919787Y-95297019D01*
X162919004Y-95292082D01*
X162917999Y-95287250D01*
X162916774Y-95282527D01*
X162915328Y-95277917D01*
X162913663Y-95273425D01*
X162911779Y-95269056D01*
X162909679Y-95264813D01*
X162907361Y-95260700D01*
X162904828Y-95256723D01*
X162902080Y-95252885D01*
X162899118Y-95249191D01*
X162895943Y-95245645D01*
X162892556Y-95242251D01*
X162888957Y-95239013D01*
X162885148Y-95235937D01*
X162881129Y-95233025D01*
X162876902Y-95230284D01*
X162872466Y-95227716D01*
X162867824Y-95225326D01*
X162862975Y-95223118D01*
X162857921Y-95221097D01*
X162852662Y-95219267D01*
X162847200Y-95217633D01*
X162841535Y-95216198D01*
X162835669Y-95214967D01*
X162829601Y-95213944D01*
X162823334Y-95213134D01*
X162816867Y-95212540D01*
X162810201Y-95212168D01*
X162810201Y-95412669D01*
X162731461Y-95412669D01*
X162731461Y-95116627D01*
X162810228Y-95116627D01*
X162821602Y-95116890D01*
G37*
G36*
X163728691Y-95397097D02*
G01*
X163732601Y-95402655D01*
X163736298Y-95408287D01*
X163739771Y-95414000D01*
X163743015Y-95419798D01*
X163746019Y-95425688D01*
X163748776Y-95431676D01*
X163751278Y-95437768D01*
X163753516Y-95443969D01*
X163755482Y-95450285D01*
X163757169Y-95456723D01*
X163758567Y-95463287D01*
X163759669Y-95469984D01*
X163760466Y-95476821D01*
X163760950Y-95483801D01*
X163761113Y-95490932D01*
X163760894Y-95500329D01*
X163760234Y-95509543D01*
X163759135Y-95518566D01*
X163757597Y-95527390D01*
X163755619Y-95536006D01*
X163753202Y-95544405D01*
X163750346Y-95552580D01*
X163747051Y-95560521D01*
X163743316Y-95568221D01*
X163739143Y-95575671D01*
X163734531Y-95582863D01*
X163729480Y-95589788D01*
X163723990Y-95596437D01*
X163718062Y-95602804D01*
X163711695Y-95608878D01*
X163704889Y-95614651D01*
X163704889Y-95616504D01*
X163755478Y-95616504D01*
X163755478Y-95712098D01*
X163280418Y-95712098D01*
X163280418Y-95616504D01*
X163566195Y-95616504D01*
X163572581Y-95616371D01*
X163578738Y-95615977D01*
X163584668Y-95615331D01*
X163590373Y-95614441D01*
X163595853Y-95613315D01*
X163601112Y-95611961D01*
X163606150Y-95610387D01*
X163610970Y-95608603D01*
X163615573Y-95606615D01*
X163619960Y-95604432D01*
X163624134Y-95602063D01*
X163628096Y-95599515D01*
X163631849Y-95596797D01*
X163635393Y-95593917D01*
X163638730Y-95590883D01*
X163641862Y-95587704D01*
X163644791Y-95584387D01*
X163647519Y-95580941D01*
X163650047Y-95577375D01*
X163652377Y-95573695D01*
X163654511Y-95569911D01*
X163656450Y-95566031D01*
X163658197Y-95562063D01*
X163659752Y-95558014D01*
X163662296Y-95549712D01*
X163664096Y-95541188D01*
X163665166Y-95532509D01*
X163665519Y-95523741D01*
X163665442Y-95519263D01*
X163665204Y-95514962D01*
X163664803Y-95510815D01*
X163664231Y-95506802D01*
X163663483Y-95502899D01*
X163662554Y-95499085D01*
X163661439Y-95495337D01*
X163660132Y-95491634D01*
X163658627Y-95487953D01*
X163656919Y-95484272D01*
X163655003Y-95480569D01*
X163652872Y-95476823D01*
X163650523Y-95473010D01*
X163647949Y-95469110D01*
X163645144Y-95465099D01*
X163642104Y-95460955D01*
X163724574Y-95391608D01*
X163728691Y-95397097D01*
G37*
G36*
X163005067Y-96426473D02*
G01*
X162672433Y-96517304D01*
X162672433Y-96519236D01*
X163005067Y-96626974D01*
X163005067Y-96696321D01*
X162672433Y-96804060D01*
X162672433Y-96805938D01*
X163005067Y-96896849D01*
X163005067Y-96998026D01*
X162530007Y-96846234D01*
X162530007Y-96761911D01*
X162862668Y-96662587D01*
X162862668Y-96660709D01*
X162530007Y-96561384D01*
X162530007Y-96477008D01*
X163005067Y-96325243D01*
X163005067Y-96426473D01*
G37*
G36*
X162864979Y-95935721D02*
G01*
X162875283Y-95936420D01*
X162885145Y-95937575D01*
X162894573Y-95939179D01*
X162903573Y-95941222D01*
X162912153Y-95943698D01*
X162920320Y-95946597D01*
X162928080Y-95949912D01*
X162935441Y-95953635D01*
X162942410Y-95957758D01*
X162948993Y-95962272D01*
X162955199Y-95967169D01*
X162961033Y-95972442D01*
X162966503Y-95978083D01*
X162971616Y-95984082D01*
X162976379Y-95990433D01*
X162980799Y-95997127D01*
X162984882Y-96004156D01*
X162988637Y-96011511D01*
X162992070Y-96019186D01*
X162995187Y-96027171D01*
X162997997Y-96035459D01*
X163000506Y-96044042D01*
X163002721Y-96052911D01*
X163004649Y-96062059D01*
X163006297Y-96071477D01*
X163008782Y-96091091D01*
X163010231Y-96111690D01*
X163010702Y-96133209D01*
X163010480Y-96146341D01*
X163009799Y-96159038D01*
X163008642Y-96171306D01*
X163006988Y-96183148D01*
X163004818Y-96194568D01*
X163002113Y-96205570D01*
X162998853Y-96216158D01*
X162995019Y-96226336D01*
X162990591Y-96236107D01*
X162985551Y-96245476D01*
X162979879Y-96254447D01*
X162973555Y-96263024D01*
X162966559Y-96271211D01*
X162958874Y-96279010D01*
X162950479Y-96286428D01*
X162941355Y-96293467D01*
X162884204Y-96218484D01*
X162886700Y-96216884D01*
X162889093Y-96215242D01*
X162891386Y-96213555D01*
X162893578Y-96211819D01*
X162895673Y-96210030D01*
X162897672Y-96208184D01*
X162899575Y-96206279D01*
X162901386Y-96204310D01*
X162903104Y-96202274D01*
X162904732Y-96200166D01*
X162906272Y-96197985D01*
X162907724Y-96195725D01*
X162909090Y-96193384D01*
X162910372Y-96190958D01*
X162911572Y-96188442D01*
X162912690Y-96185834D01*
X162913729Y-96183130D01*
X162914690Y-96180327D01*
X162915574Y-96177420D01*
X162916383Y-96174406D01*
X162917119Y-96171281D01*
X162917783Y-96168042D01*
X162918376Y-96164685D01*
X162918900Y-96161207D01*
X162919748Y-96153873D01*
X162920339Y-96146009D01*
X162920684Y-96137587D01*
X162920797Y-96128578D01*
X162920606Y-96116208D01*
X162920022Y-96104746D01*
X162919025Y-96094176D01*
X162917597Y-96084483D01*
X162915718Y-96075653D01*
X162913369Y-96067670D01*
X162910532Y-96060519D01*
X162908924Y-96057250D01*
X162907187Y-96054184D01*
X162905318Y-96051319D01*
X162903315Y-96048652D01*
X162901175Y-96046182D01*
X162898897Y-96043906D01*
X162896478Y-96041824D01*
X162893915Y-96039932D01*
X162891205Y-96038230D01*
X162888348Y-96036714D01*
X162885340Y-96035385D01*
X162882179Y-96034238D01*
X162878862Y-96033273D01*
X162875387Y-96032488D01*
X162871753Y-96031881D01*
X162867955Y-96031449D01*
X162859863Y-96031106D01*
X162810201Y-96031106D01*
X162810201Y-96163239D01*
X162810013Y-96172666D01*
X162809456Y-96181802D01*
X162808539Y-96190646D01*
X162807273Y-96199198D01*
X162805667Y-96207457D01*
X162803731Y-96215423D01*
X162801474Y-96223095D01*
X162798907Y-96230474D01*
X162796040Y-96237557D01*
X162792881Y-96244345D01*
X162789442Y-96250837D01*
X162785731Y-96257032D01*
X162781758Y-96262931D01*
X162777534Y-96268532D01*
X162773068Y-96273835D01*
X162768370Y-96278839D01*
X162763450Y-96283544D01*
X162758317Y-96287950D01*
X162752981Y-96292055D01*
X162747453Y-96295860D01*
X162741741Y-96299363D01*
X162735856Y-96302565D01*
X162729807Y-96305464D01*
X162723605Y-96308060D01*
X162717259Y-96310353D01*
X162710778Y-96312342D01*
X162704174Y-96314026D01*
X162697454Y-96315406D01*
X162690630Y-96316479D01*
X162683711Y-96317247D01*
X162676707Y-96317708D01*
X162674311Y-96317760D01*
X162669627Y-96317862D01*
X162661955Y-96317681D01*
X162654405Y-96317141D01*
X162646987Y-96316245D01*
X162639708Y-96314997D01*
X162632575Y-96313399D01*
X162625598Y-96311455D01*
X162618783Y-96309168D01*
X162612139Y-96306542D01*
X162605673Y-96303579D01*
X162599394Y-96300283D01*
X162593308Y-96296657D01*
X162587425Y-96292705D01*
X162581752Y-96288430D01*
X162576297Y-96283834D01*
X162571068Y-96278922D01*
X162566073Y-96273696D01*
X162561319Y-96268160D01*
X162556815Y-96262317D01*
X162552568Y-96256171D01*
X162548586Y-96249724D01*
X162544878Y-96242980D01*
X162541450Y-96235941D01*
X162538312Y-96228613D01*
X162535470Y-96220997D01*
X162532933Y-96213097D01*
X162530709Y-96204916D01*
X162528805Y-96196457D01*
X162527230Y-96187724D01*
X162525991Y-96178721D01*
X162525097Y-96169449D01*
X162524554Y-96159913D01*
X162524371Y-96150116D01*
X162524548Y-96138364D01*
X162524571Y-96137892D01*
X162614356Y-96137892D01*
X162614680Y-96149554D01*
X162615627Y-96160316D01*
X162617162Y-96170196D01*
X162619248Y-96179217D01*
X162620487Y-96183411D01*
X162621851Y-96187398D01*
X162623334Y-96191181D01*
X162624934Y-96194761D01*
X162626644Y-96198141D01*
X162628461Y-96201325D01*
X162630381Y-96204313D01*
X162632398Y-96207110D01*
X162634508Y-96209718D01*
X162636707Y-96212139D01*
X162638990Y-96214375D01*
X162641353Y-96216430D01*
X162643792Y-96218306D01*
X162646301Y-96220005D01*
X162648877Y-96221530D01*
X162651515Y-96222884D01*
X162656959Y-96225088D01*
X162662596Y-96226636D01*
X162668392Y-96227550D01*
X162674311Y-96227850D01*
X162677527Y-96227773D01*
X162680670Y-96227542D01*
X162683737Y-96227155D01*
X162686728Y-96226613D01*
X162689640Y-96225914D01*
X162692471Y-96225058D01*
X162695219Y-96224044D01*
X162697883Y-96222871D01*
X162700460Y-96221539D01*
X162702949Y-96220047D01*
X162705347Y-96218395D01*
X162707654Y-96216581D01*
X162709866Y-96214605D01*
X162711983Y-96212467D01*
X162714001Y-96210165D01*
X162715920Y-96207699D01*
X162717737Y-96205069D01*
X162719451Y-96202273D01*
X162721060Y-96199311D01*
X162722561Y-96196182D01*
X162723952Y-96192886D01*
X162725233Y-96189421D01*
X162726401Y-96185788D01*
X162727454Y-96181985D01*
X162728390Y-96178013D01*
X162729207Y-96173869D01*
X162729904Y-96169553D01*
X162730479Y-96165066D01*
X162730929Y-96160406D01*
X162731253Y-96155572D01*
X162731448Y-96150563D01*
X162731514Y-96145380D01*
X162731514Y-96031080D01*
X162696827Y-96031080D01*
X162690075Y-96031160D01*
X162683697Y-96031404D01*
X162677682Y-96031817D01*
X162672021Y-96032403D01*
X162666703Y-96033166D01*
X162661716Y-96034112D01*
X162657052Y-96035245D01*
X162652698Y-96036570D01*
X162648646Y-96038091D01*
X162644884Y-96039812D01*
X162641401Y-96041740D01*
X162638188Y-96043877D01*
X162635234Y-96046229D01*
X162632529Y-96048801D01*
X162630061Y-96051597D01*
X162627820Y-96054621D01*
X162625797Y-96057879D01*
X162623980Y-96061374D01*
X162622359Y-96065113D01*
X162620924Y-96069098D01*
X162619664Y-96073335D01*
X162618568Y-96077829D01*
X162617626Y-96082584D01*
X162616828Y-96087605D01*
X162615621Y-96098462D01*
X162614862Y-96110437D01*
X162614469Y-96123568D01*
X162614356Y-96137892D01*
X162524571Y-96137892D01*
X162525079Y-96127331D01*
X162525970Y-96116988D01*
X162527224Y-96107309D01*
X162528847Y-96098266D01*
X162530841Y-96089831D01*
X162533212Y-96081979D01*
X162535963Y-96074680D01*
X162539099Y-96067908D01*
X162542625Y-96061635D01*
X162546543Y-96055835D01*
X162550859Y-96050479D01*
X162555576Y-96045541D01*
X162560700Y-96040993D01*
X162566234Y-96036808D01*
X162572182Y-96032958D01*
X162572182Y-96031106D01*
X162530007Y-96031106D01*
X162530007Y-95935486D01*
X162854227Y-95935486D01*
X162864979Y-95935721D01*
G37*
G36*
X163571938Y-97849481D02*
G01*
X163583047Y-97850263D01*
X163593881Y-97851550D01*
X163604432Y-97853327D01*
X163614696Y-97855580D01*
X163624665Y-97858296D01*
X163634335Y-97861459D01*
X163643699Y-97865057D01*
X163652752Y-97869075D01*
X163661486Y-97873498D01*
X163669897Y-97878314D01*
X163677978Y-97883507D01*
X163685723Y-97889064D01*
X163693127Y-97894970D01*
X163700182Y-97901212D01*
X163706884Y-97907776D01*
X163713226Y-97914647D01*
X163719203Y-97921811D01*
X163724807Y-97929255D01*
X163730034Y-97936963D01*
X163734877Y-97944923D01*
X163739331Y-97953120D01*
X163743389Y-97961540D01*
X163747045Y-97970169D01*
X163750293Y-97978993D01*
X163753128Y-97987998D01*
X163755543Y-97997169D01*
X163757533Y-98006493D01*
X163759090Y-98015956D01*
X163760210Y-98025543D01*
X163760887Y-98035241D01*
X163761114Y-98045035D01*
X163760395Y-98062373D01*
X163758175Y-98079825D01*
X163756472Y-98088540D01*
X163754359Y-98097221D01*
X163751824Y-98105845D01*
X163748854Y-98114390D01*
X163745437Y-98122837D01*
X163741563Y-98131164D01*
X163737219Y-98139349D01*
X163732394Y-98147371D01*
X163727074Y-98155209D01*
X163721250Y-98162842D01*
X163714909Y-98170248D01*
X163708038Y-98177406D01*
X163700627Y-98184295D01*
X163692663Y-98190894D01*
X163684135Y-98197181D01*
X163675031Y-98203135D01*
X163665339Y-98208735D01*
X163655047Y-98213959D01*
X163644143Y-98218787D01*
X163632615Y-98223197D01*
X163620453Y-98227168D01*
X163607643Y-98230678D01*
X163594174Y-98233707D01*
X163580035Y-98236232D01*
X163565213Y-98238233D01*
X163560533Y-98238673D01*
X163549696Y-98239689D01*
X163533474Y-98240578D01*
X163516533Y-98240879D01*
X163498695Y-98240551D01*
X163481705Y-98239582D01*
X163465545Y-98237997D01*
X163450197Y-98235818D01*
X163435642Y-98233069D01*
X163421862Y-98229774D01*
X163408837Y-98225958D01*
X163396551Y-98221642D01*
X163384983Y-98216852D01*
X163374115Y-98211610D01*
X163363930Y-98205941D01*
X163354407Y-98199868D01*
X163345530Y-98193415D01*
X163337280Y-98186606D01*
X163329637Y-98179463D01*
X163322583Y-98172012D01*
X163316101Y-98164275D01*
X163310171Y-98156276D01*
X163304775Y-98148039D01*
X163299894Y-98139587D01*
X163295510Y-98130945D01*
X163291604Y-98122136D01*
X163285154Y-98104110D01*
X163280395Y-98085700D01*
X163277178Y-98067096D01*
X163275357Y-98048486D01*
X163274783Y-98030060D01*
X163275049Y-98018145D01*
X163275856Y-98006313D01*
X163277217Y-97994582D01*
X163279146Y-97982966D01*
X163281658Y-97971483D01*
X163284765Y-97960148D01*
X163288482Y-97948979D01*
X163292821Y-97937991D01*
X163297798Y-97927201D01*
X163303425Y-97916625D01*
X163309716Y-97906280D01*
X163316686Y-97896181D01*
X163324347Y-97886346D01*
X163332714Y-97876790D01*
X163341799Y-97867530D01*
X163351618Y-97858583D01*
X163410620Y-97927930D01*
X163405317Y-97933327D01*
X163400306Y-97938967D01*
X163395594Y-97944829D01*
X163391188Y-97950893D01*
X163387094Y-97957139D01*
X163383321Y-97963544D01*
X163379874Y-97970090D01*
X163376760Y-97976756D01*
X163373987Y-97983520D01*
X163371562Y-97990363D01*
X163369490Y-97997263D01*
X163367780Y-98004201D01*
X163366438Y-98011155D01*
X163365471Y-98018105D01*
X163364886Y-98025031D01*
X163364689Y-98031912D01*
X163364804Y-98038010D01*
X163365150Y-98043998D01*
X163365726Y-98049871D01*
X163366532Y-98055623D01*
X163367569Y-98061249D01*
X163368835Y-98066743D01*
X163370331Y-98072099D01*
X163372056Y-98077312D01*
X163374010Y-98082377D01*
X163376194Y-98087289D01*
X163378607Y-98092041D01*
X163381248Y-98096628D01*
X163384118Y-98101044D01*
X163387216Y-98105285D01*
X163390543Y-98109345D01*
X163394097Y-98113218D01*
X163397880Y-98116899D01*
X163401890Y-98120382D01*
X163406128Y-98123662D01*
X163410593Y-98126733D01*
X163415286Y-98129590D01*
X163420205Y-98132227D01*
X163425351Y-98134639D01*
X163430724Y-98136821D01*
X163436323Y-98138766D01*
X163442149Y-98140470D01*
X163448201Y-98141926D01*
X163454479Y-98143131D01*
X163460982Y-98144077D01*
X163467712Y-98144759D01*
X163474666Y-98145173D01*
X163481846Y-98145312D01*
X163560533Y-98145312D01*
X163567203Y-98145019D01*
X163573674Y-98144494D01*
X163579945Y-98143743D01*
X163586016Y-98142770D01*
X163591885Y-98141580D01*
X163597552Y-98140178D01*
X163603015Y-98138569D01*
X163608275Y-98136758D01*
X163613330Y-98134748D01*
X163618179Y-98132546D01*
X163622821Y-98130156D01*
X163627257Y-98127583D01*
X163631484Y-98124831D01*
X163635502Y-98121906D01*
X163639310Y-98118811D01*
X163642907Y-98115553D01*
X163646293Y-98112135D01*
X163649467Y-98108564D01*
X163652427Y-98104842D01*
X163655174Y-98100976D01*
X163657705Y-98096969D01*
X163660021Y-98092828D01*
X163662120Y-98088556D01*
X163664002Y-98084158D01*
X163665665Y-98079640D01*
X163667110Y-98075006D01*
X163668334Y-98070261D01*
X163669338Y-98065409D01*
X163670120Y-98060456D01*
X163670680Y-98055406D01*
X163671016Y-98050264D01*
X163671128Y-98045035D01*
X163671016Y-98039809D01*
X163670680Y-98034674D01*
X163670120Y-98029637D01*
X163669338Y-98024700D01*
X163668334Y-98019868D01*
X163667110Y-98015145D01*
X163665665Y-98010537D01*
X163664002Y-98006046D01*
X163662120Y-98001677D01*
X163660021Y-97997435D01*
X163657705Y-97993323D01*
X163655174Y-97989347D01*
X163652427Y-97985510D01*
X163649467Y-97981816D01*
X163646293Y-97978271D01*
X163642907Y-97974877D01*
X163639310Y-97971641D01*
X163635502Y-97968565D01*
X163631484Y-97965654D01*
X163627256Y-97962912D01*
X163622821Y-97960344D01*
X163618179Y-97957954D01*
X163613329Y-97955746D01*
X163608275Y-97953725D01*
X163603015Y-97951895D01*
X163597551Y-97950259D01*
X163591885Y-97948823D01*
X163586016Y-97947591D01*
X163579945Y-97946567D01*
X163573674Y-97945755D01*
X163567203Y-97945159D01*
X163560533Y-97944784D01*
X163560533Y-98145312D01*
X163481846Y-98145312D01*
X163481846Y-97849217D01*
X163560559Y-97849217D01*
X163571938Y-97849481D01*
G37*
G36*
X163197207Y-97144737D02*
G01*
X162954478Y-97144737D01*
X162960669Y-97151449D01*
X162966579Y-97158238D01*
X162972193Y-97165115D01*
X162977495Y-97172090D01*
X162982466Y-97179175D01*
X162987092Y-97186381D01*
X162991356Y-97193719D01*
X162995240Y-97201199D01*
X162998730Y-97208833D01*
X163001807Y-97216632D01*
X163004456Y-97224607D01*
X163006661Y-97232769D01*
X163008404Y-97241128D01*
X163009670Y-97249697D01*
X163010441Y-97258485D01*
X163010702Y-97267504D01*
X163010399Y-97278211D01*
X163009507Y-97288546D01*
X163008050Y-97298510D01*
X163006052Y-97308105D01*
X163003538Y-97317331D01*
X163000533Y-97326190D01*
X162997061Y-97334684D01*
X162993147Y-97342814D01*
X162988815Y-97350582D01*
X162984089Y-97357988D01*
X162978994Y-97365036D01*
X162973555Y-97371724D01*
X162967795Y-97378057D01*
X162961741Y-97384034D01*
X162955415Y-97389657D01*
X162948843Y-97394927D01*
X162942538Y-97399631D01*
X162936170Y-97403912D01*
X162929609Y-97407787D01*
X162922725Y-97411271D01*
X162919122Y-97412872D01*
X162915390Y-97414382D01*
X162911513Y-97415802D01*
X162907474Y-97417135D01*
X162903258Y-97418383D01*
X162898848Y-97419548D01*
X162889384Y-97421637D01*
X162878952Y-97423418D01*
X162867422Y-97424908D01*
X162854666Y-97426124D01*
X162840555Y-97427082D01*
X162824959Y-97427798D01*
X162807750Y-97428289D01*
X162788798Y-97428571D01*
X162767973Y-97428662D01*
X162727926Y-97428289D01*
X162694917Y-97427082D01*
X162680725Y-97426124D01*
X162667902Y-97424908D01*
X162656317Y-97423418D01*
X162645839Y-97421637D01*
X162636338Y-97419548D01*
X162627683Y-97417135D01*
X162619745Y-97414382D01*
X162612392Y-97411271D01*
X162605495Y-97407787D01*
X162598923Y-97403912D01*
X162592545Y-97399631D01*
X162586231Y-97394927D01*
X162579668Y-97389657D01*
X162573348Y-97384034D01*
X162567298Y-97378057D01*
X162561541Y-97371724D01*
X162556103Y-97365036D01*
X162551008Y-97357988D01*
X162546281Y-97350582D01*
X162541947Y-97342814D01*
X162538029Y-97334684D01*
X162536235Y-97330483D01*
X162534554Y-97326190D01*
X162532990Y-97321806D01*
X162531546Y-97317331D01*
X162530225Y-97312764D01*
X162529029Y-97308105D01*
X162527963Y-97303353D01*
X162527029Y-97298510D01*
X162526230Y-97293575D01*
X162525569Y-97288546D01*
X162525050Y-97283425D01*
X162524675Y-97278211D01*
X162524448Y-97272904D01*
X162524372Y-97267504D01*
X162524633Y-97258423D01*
X162525404Y-97249466D01*
X162526668Y-97240645D01*
X162527107Y-97238453D01*
X162619966Y-97238453D01*
X162620180Y-97246639D01*
X162620815Y-97254340D01*
X162621856Y-97261571D01*
X162623290Y-97268347D01*
X162625104Y-97274682D01*
X162627283Y-97280592D01*
X162629815Y-97286090D01*
X162632685Y-97291192D01*
X162635881Y-97295912D01*
X162639388Y-97300265D01*
X162643194Y-97304266D01*
X162647284Y-97307930D01*
X162651645Y-97311272D01*
X162656263Y-97314305D01*
X162661125Y-97317046D01*
X162666218Y-97319508D01*
X162671528Y-97321706D01*
X162677041Y-97323656D01*
X162682743Y-97325372D01*
X162688622Y-97326868D01*
X162694663Y-97328160D01*
X162700853Y-97329263D01*
X162713627Y-97330957D01*
X162726834Y-97332069D01*
X162740366Y-97332717D01*
X162754116Y-97333020D01*
X162767973Y-97333094D01*
X162795294Y-97332717D01*
X162808713Y-97332069D01*
X162821824Y-97330957D01*
X162834517Y-97329263D01*
X162846682Y-97326868D01*
X162858210Y-97323656D01*
X162863701Y-97321706D01*
X162868991Y-97319508D01*
X162874067Y-97317046D01*
X162878915Y-97314305D01*
X162883522Y-97311272D01*
X162887873Y-97307930D01*
X162891954Y-97304266D01*
X162895753Y-97300265D01*
X162899255Y-97295912D01*
X162902447Y-97291192D01*
X162905315Y-97286090D01*
X162907845Y-97280592D01*
X162910023Y-97274682D01*
X162911836Y-97268347D01*
X162913270Y-97261571D01*
X162914312Y-97254340D01*
X162914946Y-97246639D01*
X162915161Y-97238453D01*
X162914933Y-97230351D01*
X162914260Y-97222728D01*
X162913158Y-97215571D01*
X162911643Y-97208864D01*
X162909732Y-97202593D01*
X162907441Y-97196743D01*
X162904787Y-97191300D01*
X162901785Y-97186249D01*
X162898452Y-97181576D01*
X162894804Y-97177265D01*
X162890859Y-97173303D01*
X162886631Y-97169675D01*
X162882137Y-97166366D01*
X162877394Y-97163361D01*
X162872418Y-97160647D01*
X162867225Y-97158208D01*
X162861832Y-97156030D01*
X162856254Y-97154098D01*
X162850509Y-97152397D01*
X162844612Y-97150914D01*
X162838580Y-97149633D01*
X162832430Y-97148540D01*
X162819837Y-97146860D01*
X162806964Y-97145756D01*
X162793942Y-97145112D01*
X162780902Y-97144811D01*
X162767973Y-97144737D01*
X162741703Y-97145112D01*
X162728563Y-97145756D01*
X162715591Y-97146860D01*
X162702917Y-97148540D01*
X162690668Y-97150914D01*
X162678974Y-97154098D01*
X162673376Y-97156030D01*
X162667964Y-97158208D01*
X162662756Y-97160647D01*
X162657767Y-97163361D01*
X162653013Y-97166366D01*
X162648511Y-97169675D01*
X162644277Y-97173303D01*
X162640326Y-97177265D01*
X162636675Y-97181576D01*
X162633340Y-97186249D01*
X162630337Y-97191300D01*
X162627682Y-97196743D01*
X162625391Y-97202593D01*
X162623481Y-97208864D01*
X162621967Y-97215571D01*
X162620866Y-97222728D01*
X162620194Y-97230351D01*
X162619966Y-97238453D01*
X162527107Y-97238453D01*
X162528406Y-97231976D01*
X162530600Y-97223472D01*
X162533232Y-97215146D01*
X162536284Y-97207013D01*
X162539737Y-97199086D01*
X162543575Y-97191378D01*
X162547779Y-97183904D01*
X162552330Y-97176678D01*
X162557211Y-97169713D01*
X162562403Y-97163022D01*
X162567889Y-97156620D01*
X162573651Y-97150521D01*
X162579670Y-97144737D01*
X162530007Y-97144737D01*
X162530007Y-97049170D01*
X163197207Y-97049170D01*
X163197207Y-97144737D01*
G37*
G36*
X163606129Y-97388398D02*
G01*
X163615788Y-97389119D01*
X163625148Y-97390299D01*
X163634207Y-97391922D01*
X163642966Y-97393969D01*
X163651421Y-97396424D01*
X163659572Y-97399268D01*
X163667419Y-97402486D01*
X163674959Y-97406059D01*
X163682192Y-97409970D01*
X163689116Y-97414203D01*
X163695730Y-97418738D01*
X163702033Y-97423560D01*
X163708024Y-97428651D01*
X163713702Y-97433993D01*
X163719065Y-97439569D01*
X163724112Y-97445362D01*
X163728842Y-97451355D01*
X163733254Y-97457530D01*
X163737346Y-97463870D01*
X163741119Y-97470358D01*
X163744569Y-97476976D01*
X163747696Y-97483706D01*
X163750499Y-97490533D01*
X163755129Y-97504403D01*
X163758447Y-97518448D01*
X163760445Y-97532529D01*
X163760946Y-97539540D01*
X163761113Y-97546507D01*
X163760894Y-97555904D01*
X163760234Y-97565117D01*
X163759135Y-97574138D01*
X163757597Y-97582960D01*
X163755619Y-97591573D01*
X163753202Y-97599970D01*
X163750346Y-97608141D01*
X163747051Y-97616079D01*
X163743316Y-97623775D01*
X163739143Y-97631221D01*
X163734531Y-97638409D01*
X163729480Y-97645329D01*
X163723990Y-97651974D01*
X163718062Y-97658335D01*
X163711695Y-97664405D01*
X163704889Y-97670173D01*
X163704889Y-97672078D01*
X163755478Y-97672078D01*
X163755478Y-97767646D01*
X163280418Y-97767646D01*
X163280418Y-97672078D01*
X163563337Y-97672078D01*
X163569322Y-97671961D01*
X163575145Y-97671613D01*
X163580805Y-97671037D01*
X163586300Y-97670241D01*
X163591628Y-97669227D01*
X163596787Y-97668001D01*
X163601775Y-97666568D01*
X163606590Y-97664933D01*
X163611231Y-97663100D01*
X163615696Y-97661074D01*
X163619982Y-97658860D01*
X163624088Y-97656463D01*
X163628012Y-97653887D01*
X163631753Y-97651137D01*
X163635307Y-97648219D01*
X163638674Y-97645137D01*
X163641851Y-97641896D01*
X163644837Y-97638500D01*
X163647630Y-97634954D01*
X163650227Y-97631264D01*
X163652628Y-97627434D01*
X163654829Y-97623469D01*
X163656830Y-97619373D01*
X163658628Y-97615152D01*
X163660222Y-97610809D01*
X163661609Y-97606351D01*
X163662788Y-97601782D01*
X163663756Y-97597107D01*
X163664513Y-97592329D01*
X163665056Y-97587456D01*
X163665383Y-97582490D01*
X163665493Y-97577437D01*
X163665383Y-97572468D01*
X163665056Y-97567581D01*
X163664513Y-97562781D01*
X163663756Y-97558073D01*
X163662788Y-97553461D01*
X163661609Y-97548952D01*
X163660221Y-97544549D01*
X163658628Y-97540257D01*
X163656830Y-97536083D01*
X163654829Y-97532030D01*
X163652627Y-97528104D01*
X163650227Y-97524309D01*
X163647629Y-97520651D01*
X163644837Y-97517135D01*
X163641851Y-97513765D01*
X163638674Y-97510547D01*
X163635307Y-97507485D01*
X163631752Y-97504585D01*
X163628012Y-97501851D01*
X163624088Y-97499288D01*
X163619982Y-97496902D01*
X163615696Y-97494698D01*
X163611231Y-97492679D01*
X163606590Y-97490852D01*
X163601775Y-97489222D01*
X163596786Y-97487792D01*
X163591627Y-97486569D01*
X163586300Y-97485557D01*
X163580805Y-97484762D01*
X163575145Y-97484187D01*
X163569322Y-97483839D01*
X163563337Y-97483721D01*
X163280418Y-97483721D01*
X163280418Y-97388154D01*
X163596172Y-97388154D01*
X163606129Y-97388398D01*
G37*
G36*
X163536818Y-96278139D02*
G01*
X163553873Y-96278677D01*
X163569643Y-96279585D01*
X163584221Y-96280873D01*
X163597700Y-96282551D01*
X163610174Y-96284627D01*
X163621736Y-96287113D01*
X163632480Y-96290017D01*
X163642499Y-96293350D01*
X163651886Y-96297120D01*
X163660736Y-96301338D01*
X163669140Y-96306013D01*
X163677194Y-96311154D01*
X163684989Y-96316772D01*
X163692620Y-96322877D01*
X163700180Y-96329476D01*
X163705652Y-96334609D01*
X163711139Y-96340176D01*
X163716591Y-96346196D01*
X163721957Y-96352687D01*
X163727186Y-96359666D01*
X163732226Y-96367151D01*
X163737028Y-96375161D01*
X163741541Y-96383713D01*
X163743673Y-96388198D01*
X163745713Y-96392825D01*
X163747655Y-96397597D01*
X163749494Y-96402516D01*
X163751221Y-96407583D01*
X163752832Y-96412802D01*
X163754320Y-96418175D01*
X163755678Y-96423703D01*
X163756900Y-96429390D01*
X163757980Y-96435236D01*
X163758911Y-96441245D01*
X163759687Y-96447419D01*
X163760301Y-96453760D01*
X163760748Y-96460270D01*
X163761021Y-96466952D01*
X163761113Y-96473807D01*
X163760748Y-96487334D01*
X163759687Y-96500177D01*
X163757980Y-96512353D01*
X163755678Y-96523880D01*
X163752832Y-96534775D01*
X163749494Y-96545058D01*
X163745713Y-96554745D01*
X163741541Y-96563854D01*
X163737028Y-96572404D01*
X163732226Y-96580412D01*
X163727185Y-96587897D01*
X163721957Y-96594875D01*
X163716591Y-96601365D01*
X163711139Y-96607384D01*
X163705652Y-96612952D01*
X163700180Y-96618084D01*
X163692616Y-96624685D01*
X163684982Y-96630791D01*
X163677184Y-96636411D01*
X163669129Y-96641556D01*
X163660724Y-96646235D01*
X163651875Y-96650457D01*
X163642488Y-96654232D01*
X163632470Y-96657570D01*
X163621727Y-96660479D01*
X163610167Y-96662969D01*
X163597694Y-96665051D01*
X163584217Y-96666732D01*
X163569641Y-96668024D01*
X163553872Y-96668934D01*
X163536818Y-96669474D01*
X163518385Y-96669651D01*
X163499792Y-96669474D01*
X163482598Y-96668934D01*
X163466707Y-96668024D01*
X163452025Y-96666732D01*
X163438456Y-96665051D01*
X163425907Y-96662969D01*
X163414283Y-96660479D01*
X163403489Y-96657570D01*
X163393431Y-96654232D01*
X163384013Y-96650457D01*
X163375141Y-96646235D01*
X163366721Y-96641556D01*
X163358658Y-96636411D01*
X163350857Y-96630791D01*
X163343224Y-96624685D01*
X163335663Y-96618084D01*
X163330192Y-96612952D01*
X163324706Y-96607384D01*
X163319257Y-96601365D01*
X163313895Y-96594875D01*
X163308670Y-96587897D01*
X163303634Y-96580413D01*
X163298836Y-96572404D01*
X163294329Y-96563855D01*
X163292200Y-96559371D01*
X163290162Y-96554745D01*
X163288222Y-96549975D01*
X163286386Y-96545058D01*
X163284660Y-96539992D01*
X163283052Y-96534775D01*
X163281566Y-96529405D01*
X163280210Y-96523880D01*
X163278990Y-96518196D01*
X163277912Y-96512353D01*
X163276982Y-96506347D01*
X163276207Y-96500177D01*
X163275594Y-96493840D01*
X163275147Y-96487334D01*
X163274875Y-96480657D01*
X163274783Y-96473807D01*
X163370324Y-96473807D01*
X163370497Y-96479913D01*
X163371006Y-96485937D01*
X163371835Y-96491857D01*
X163372971Y-96497655D01*
X163374398Y-96503311D01*
X163376101Y-96508805D01*
X163378065Y-96514119D01*
X163380275Y-96519233D01*
X163382716Y-96524126D01*
X163385373Y-96528781D01*
X163388231Y-96533176D01*
X163391275Y-96537293D01*
X163394490Y-96541113D01*
X163397861Y-96544615D01*
X163401373Y-96547780D01*
X163405011Y-96550589D01*
X163409695Y-96553791D01*
X163414308Y-96556717D01*
X163418933Y-96559377D01*
X163423656Y-96561779D01*
X163428558Y-96563934D01*
X163433725Y-96565851D01*
X163439240Y-96567540D01*
X163445188Y-96569011D01*
X163451651Y-96570272D01*
X163458714Y-96571334D01*
X163466460Y-96572206D01*
X163474975Y-96572898D01*
X163484340Y-96573420D01*
X163494641Y-96573781D01*
X163505961Y-96573990D01*
X163518385Y-96574058D01*
X163541824Y-96573781D01*
X163552004Y-96573420D01*
X163561266Y-96572898D01*
X163569694Y-96572206D01*
X163577369Y-96571334D01*
X163584374Y-96570272D01*
X163590791Y-96569011D01*
X163596702Y-96567540D01*
X163602190Y-96565851D01*
X163607337Y-96563934D01*
X163612225Y-96561779D01*
X163616936Y-96559377D01*
X163621553Y-96556717D01*
X163626158Y-96553791D01*
X163630833Y-96550589D01*
X163632664Y-96549230D01*
X163634466Y-96547780D01*
X163637975Y-96544615D01*
X163641344Y-96541113D01*
X163644557Y-96537293D01*
X163647600Y-96533176D01*
X163650458Y-96528781D01*
X163653116Y-96524126D01*
X163655558Y-96519233D01*
X163657769Y-96514119D01*
X163659735Y-96508805D01*
X163661439Y-96503311D01*
X163662868Y-96497655D01*
X163664005Y-96491857D01*
X163664837Y-96485937D01*
X163665346Y-96479913D01*
X163665520Y-96473807D01*
X163665347Y-96467692D01*
X163664838Y-96461662D01*
X163664008Y-96455737D01*
X163662872Y-96449936D01*
X163661445Y-96444278D01*
X163659742Y-96438783D01*
X163657778Y-96433468D01*
X163655568Y-96428355D01*
X163653127Y-96423461D01*
X163650470Y-96418806D01*
X163647612Y-96414410D01*
X163644568Y-96410291D01*
X163641353Y-96406468D01*
X163637983Y-96402962D01*
X163634471Y-96399790D01*
X163630833Y-96396972D01*
X163626157Y-96393770D01*
X163621551Y-96390846D01*
X163616930Y-96388189D01*
X163612210Y-96385790D01*
X163607308Y-96383639D01*
X163602141Y-96381726D01*
X163596625Y-96380042D01*
X163590675Y-96378577D01*
X163584209Y-96377320D01*
X163577143Y-96376263D01*
X163569393Y-96375395D01*
X163560876Y-96374707D01*
X163551507Y-96374189D01*
X163541204Y-96373831D01*
X163529882Y-96373623D01*
X163517458Y-96373556D01*
X163494021Y-96373831D01*
X163483844Y-96374189D01*
X163474584Y-96374707D01*
X163466159Y-96375395D01*
X163458488Y-96376263D01*
X163451486Y-96377320D01*
X163445072Y-96378577D01*
X163439163Y-96380042D01*
X163433676Y-96381726D01*
X163428530Y-96383639D01*
X163423641Y-96385790D01*
X163418927Y-96388189D01*
X163414306Y-96390846D01*
X163409694Y-96393770D01*
X163405011Y-96396972D01*
X163403179Y-96398335D01*
X163401377Y-96399790D01*
X163397868Y-96402962D01*
X163394500Y-96406468D01*
X163391286Y-96410291D01*
X163388243Y-96414410D01*
X163385385Y-96418806D01*
X163382727Y-96423461D01*
X163380285Y-96428355D01*
X163378074Y-96433468D01*
X163376108Y-96438783D01*
X163374404Y-96444278D01*
X163372975Y-96449936D01*
X163371838Y-96455737D01*
X163371007Y-96461662D01*
X163370497Y-96467692D01*
X163370324Y-96473807D01*
X163274783Y-96473807D01*
X163275147Y-96460270D01*
X163276207Y-96447419D01*
X163277912Y-96435236D01*
X163280210Y-96423703D01*
X163283052Y-96412803D01*
X163286386Y-96402516D01*
X163290162Y-96392825D01*
X163294329Y-96383713D01*
X163298837Y-96375161D01*
X163303634Y-96367151D01*
X163308670Y-96359666D01*
X163313895Y-96352687D01*
X163319257Y-96346196D01*
X163324707Y-96340176D01*
X163330192Y-96334609D01*
X163335663Y-96329476D01*
X163343224Y-96322877D01*
X163350858Y-96316772D01*
X163358660Y-96311154D01*
X163366725Y-96306013D01*
X163375146Y-96301338D01*
X163384020Y-96297120D01*
X163393439Y-96293350D01*
X163403499Y-96290017D01*
X163414294Y-96287113D01*
X163425919Y-96284627D01*
X163438468Y-96282551D01*
X163452036Y-96280873D01*
X163466717Y-96279585D01*
X163482605Y-96278677D01*
X163499797Y-96278139D01*
X163518385Y-96277962D01*
X163536818Y-96278139D01*
G37*
G36*
X162864979Y-97856304D02*
G01*
X162875283Y-97857003D01*
X162885145Y-97858158D01*
X162894573Y-97859761D01*
X162903573Y-97861804D01*
X162912153Y-97864279D01*
X162920320Y-97867178D01*
X162928080Y-97870492D01*
X162935441Y-97874214D01*
X162942410Y-97878336D01*
X162948993Y-97882849D01*
X162955199Y-97887746D01*
X162961033Y-97893018D01*
X162966503Y-97898658D01*
X162971616Y-97904657D01*
X162976379Y-97911007D01*
X162980799Y-97917700D01*
X162984882Y-97924729D01*
X162988637Y-97932084D01*
X162992070Y-97939758D01*
X162995187Y-97947743D01*
X162997997Y-97956031D01*
X163000506Y-97964614D01*
X163002721Y-97973484D01*
X163004649Y-97982632D01*
X163006297Y-97992051D01*
X163008782Y-98011667D01*
X163010231Y-98032270D01*
X163010702Y-98053793D01*
X163010480Y-98066928D01*
X163009799Y-98079629D01*
X163008642Y-98091897D01*
X163006988Y-98103739D01*
X163004818Y-98115157D01*
X163002113Y-98126157D01*
X162998853Y-98136742D01*
X162995019Y-98146916D01*
X162990591Y-98156684D01*
X162985551Y-98166049D01*
X162979879Y-98175016D01*
X162973555Y-98183589D01*
X162966559Y-98191773D01*
X162958874Y-98199570D01*
X162950479Y-98206986D01*
X162941355Y-98214024D01*
X162884204Y-98139068D01*
X162886700Y-98137468D01*
X162889093Y-98135826D01*
X162891386Y-98134138D01*
X162893578Y-98132400D01*
X162895673Y-98130610D01*
X162897672Y-98128763D01*
X162899575Y-98126856D01*
X162901386Y-98124885D01*
X162903104Y-98122847D01*
X162904732Y-98120738D01*
X162906272Y-98118554D01*
X162907724Y-98116292D01*
X162909090Y-98113949D01*
X162910372Y-98111520D01*
X162911572Y-98109002D01*
X162912690Y-98106392D01*
X162913729Y-98103685D01*
X162914690Y-98100879D01*
X162915574Y-98097970D01*
X162916383Y-98094953D01*
X162917119Y-98091826D01*
X162917783Y-98088585D01*
X162918376Y-98085227D01*
X162918900Y-98081747D01*
X162919748Y-98074408D01*
X162920339Y-98066542D01*
X162920684Y-98058119D01*
X162920797Y-98049109D01*
X162920606Y-98036744D01*
X162920022Y-98025286D01*
X162919025Y-98014719D01*
X162917597Y-98005029D01*
X162915718Y-97996202D01*
X162913369Y-97988221D01*
X162910532Y-97981071D01*
X162908924Y-97977804D01*
X162907187Y-97974738D01*
X162905318Y-97971873D01*
X162903315Y-97969207D01*
X162901175Y-97966737D01*
X162898897Y-97964462D01*
X162896478Y-97962380D01*
X162893915Y-97960489D01*
X162891205Y-97958786D01*
X162888348Y-97957271D01*
X162885340Y-97955942D01*
X162882179Y-97954795D01*
X162878862Y-97953830D01*
X162875387Y-97953045D01*
X162871753Y-97952438D01*
X162867955Y-97952006D01*
X162859863Y-97951663D01*
X162810201Y-97951663D01*
X162810201Y-98083796D01*
X162810013Y-98093225D01*
X162809456Y-98102363D01*
X162808539Y-98111208D01*
X162807273Y-98119761D01*
X162805667Y-98128021D01*
X162803731Y-98135988D01*
X162801474Y-98143660D01*
X162798907Y-98151038D01*
X162796040Y-98158120D01*
X162792881Y-98164907D01*
X162789442Y-98171398D01*
X162785731Y-98177592D01*
X162781758Y-98183490D01*
X162777534Y-98189089D01*
X162773068Y-98194390D01*
X162768370Y-98199393D01*
X162763450Y-98204096D01*
X162758317Y-98208500D01*
X162752981Y-98212603D01*
X162747453Y-98216406D01*
X162741741Y-98219907D01*
X162735856Y-98223107D01*
X162729807Y-98226004D01*
X162723605Y-98228599D01*
X162717259Y-98230890D01*
X162710778Y-98232877D01*
X162704174Y-98234560D01*
X162697454Y-98235938D01*
X162690630Y-98237011D01*
X162683711Y-98237778D01*
X162676707Y-98238239D01*
X162674311Y-98238291D01*
X162669627Y-98238392D01*
X162661955Y-98238212D01*
X162654405Y-98237672D01*
X162646987Y-98236777D01*
X162639708Y-98235529D01*
X162632575Y-98233931D01*
X162625598Y-98231988D01*
X162618783Y-98229702D01*
X162612139Y-98227076D01*
X162605673Y-98224115D01*
X162599394Y-98220820D01*
X162593308Y-98217195D01*
X162587425Y-98213244D01*
X162581752Y-98208970D01*
X162576297Y-98204376D01*
X162571068Y-98199464D01*
X162566073Y-98194240D01*
X162561319Y-98188705D01*
X162556815Y-98182864D01*
X162552568Y-98176718D01*
X162548586Y-98170272D01*
X162544878Y-98163529D01*
X162541450Y-98156493D01*
X162538312Y-98149165D01*
X162535470Y-98141550D01*
X162532933Y-98133651D01*
X162530709Y-98125471D01*
X162528805Y-98117013D01*
X162527230Y-98108281D01*
X162525991Y-98099277D01*
X162525097Y-98090006D01*
X162524554Y-98080470D01*
X162524371Y-98070673D01*
X162524548Y-98058917D01*
X162524569Y-98058476D01*
X162614356Y-98058476D01*
X162614680Y-98070143D01*
X162615627Y-98080908D01*
X162617162Y-98090792D01*
X162619248Y-98099816D01*
X162620487Y-98104012D01*
X162621851Y-98108000D01*
X162623334Y-98111783D01*
X162624934Y-98115364D01*
X162626644Y-98118746D01*
X162628461Y-98121930D01*
X162630381Y-98124920D01*
X162632398Y-98127717D01*
X162634508Y-98130325D01*
X162636707Y-98132747D01*
X162638990Y-98134984D01*
X162641353Y-98137039D01*
X162643792Y-98138915D01*
X162646301Y-98140614D01*
X162648877Y-98142140D01*
X162651515Y-98143494D01*
X162656959Y-98145698D01*
X162662596Y-98147246D01*
X162668392Y-98148160D01*
X162674311Y-98148460D01*
X162677527Y-98148383D01*
X162680670Y-98148152D01*
X162683737Y-98147765D01*
X162686728Y-98147223D01*
X162689640Y-98146524D01*
X162692471Y-98145668D01*
X162695219Y-98144653D01*
X162697883Y-98143481D01*
X162700460Y-98142148D01*
X162702949Y-98140656D01*
X162705347Y-98139004D01*
X162707654Y-98137190D01*
X162709866Y-98135213D01*
X162711983Y-98133075D01*
X162714001Y-98130772D01*
X162715920Y-98128306D01*
X162717737Y-98125675D01*
X162719451Y-98122878D01*
X162721060Y-98119915D01*
X162722561Y-98116785D01*
X162723952Y-98113488D01*
X162725233Y-98110023D01*
X162726401Y-98106388D01*
X162727454Y-98102584D01*
X162728390Y-98098610D01*
X162729207Y-98094465D01*
X162729904Y-98090148D01*
X162730479Y-98085658D01*
X162730929Y-98080996D01*
X162731253Y-98076160D01*
X162731448Y-98071149D01*
X162731514Y-98065963D01*
X162731514Y-97951663D01*
X162696827Y-97951663D01*
X162690075Y-97951744D01*
X162683697Y-97951988D01*
X162677682Y-97952401D01*
X162672021Y-97952987D01*
X162666703Y-97953750D01*
X162661716Y-97954696D01*
X162657052Y-97955829D01*
X162652698Y-97957153D01*
X162648646Y-97958674D01*
X162644884Y-97960396D01*
X162641401Y-97962323D01*
X162638188Y-97964461D01*
X162635234Y-97966813D01*
X162632529Y-97969385D01*
X162630061Y-97972180D01*
X162627820Y-97975205D01*
X162625797Y-97978462D01*
X162623980Y-97981958D01*
X162622359Y-97985696D01*
X162620924Y-97989682D01*
X162619664Y-97993919D01*
X162618568Y-97998413D01*
X162617626Y-98003168D01*
X162616828Y-98008188D01*
X162615621Y-98019045D01*
X162614862Y-98031021D01*
X162614469Y-98044152D01*
X162614356Y-98058476D01*
X162524569Y-98058476D01*
X162525079Y-98047881D01*
X162525970Y-98037536D01*
X162527224Y-98027856D01*
X162528847Y-98018812D01*
X162530841Y-98010378D01*
X162533212Y-98002527D01*
X162535963Y-97995230D01*
X162539099Y-97988461D01*
X162542625Y-97982192D01*
X162546543Y-97976395D01*
X162550859Y-97971044D01*
X162555576Y-97966110D01*
X162560700Y-97961567D01*
X162566234Y-97957387D01*
X162572182Y-97953542D01*
X162572182Y-97951663D01*
X162530007Y-97951663D01*
X162530007Y-97856070D01*
X162854227Y-97856070D01*
X162864979Y-97856304D01*
G37*
G36*
X163571938Y-94601218D02*
G01*
X163583047Y-94602001D01*
X163593881Y-94603289D01*
X163604432Y-94605067D01*
X163614696Y-94607322D01*
X163624665Y-94610040D01*
X163634335Y-94613205D01*
X163643699Y-94616805D01*
X163652752Y-94620826D01*
X163661486Y-94625252D01*
X163669897Y-94630070D01*
X163677978Y-94635266D01*
X163685723Y-94640826D01*
X163693127Y-94646735D01*
X163700182Y-94652979D01*
X163706884Y-94659546D01*
X163713226Y-94666419D01*
X163719203Y-94673585D01*
X163724807Y-94681031D01*
X163730034Y-94688742D01*
X163734877Y-94696703D01*
X163739331Y-94704901D01*
X163743389Y-94713322D01*
X163747045Y-94721951D01*
X163750293Y-94730774D01*
X163753128Y-94739778D01*
X163755543Y-94748949D01*
X163757533Y-94758271D01*
X163759090Y-94767731D01*
X163760210Y-94777315D01*
X163760887Y-94787009D01*
X163761114Y-94796798D01*
X163760395Y-94814141D01*
X163758175Y-94831596D01*
X163756472Y-94840313D01*
X163754359Y-94848994D01*
X163751824Y-94857618D01*
X163748854Y-94866165D01*
X163745437Y-94874612D01*
X163741563Y-94882939D01*
X163737219Y-94891124D01*
X163732394Y-94899146D01*
X163727074Y-94906984D01*
X163721250Y-94914616D01*
X163714909Y-94922021D01*
X163708038Y-94929179D01*
X163700627Y-94936067D01*
X163692663Y-94942665D01*
X163684135Y-94948952D01*
X163675031Y-94954905D01*
X163665339Y-94960504D01*
X163655047Y-94965728D01*
X163644143Y-94970555D01*
X163632615Y-94974964D01*
X163620453Y-94978934D01*
X163607643Y-94982443D01*
X163594174Y-94985471D01*
X163580035Y-94987996D01*
X163565213Y-94989997D01*
X163560533Y-94990436D01*
X163549696Y-94991453D01*
X163533474Y-94992341D01*
X163516533Y-94992642D01*
X163498695Y-94992314D01*
X163481705Y-94991345D01*
X163465545Y-94989760D01*
X163450197Y-94987581D01*
X163435642Y-94984832D01*
X163421862Y-94981537D01*
X163408837Y-94977720D01*
X163396551Y-94973405D01*
X163384983Y-94968614D01*
X163374115Y-94963373D01*
X163363930Y-94957703D01*
X163354407Y-94951630D01*
X163345530Y-94945177D01*
X163337280Y-94938367D01*
X163329637Y-94931224D01*
X163322583Y-94923771D01*
X163316101Y-94916034D01*
X163310171Y-94908034D01*
X163304775Y-94899796D01*
X163299894Y-94891344D01*
X163295510Y-94882701D01*
X163291604Y-94873890D01*
X163285154Y-94855862D01*
X163280395Y-94837449D01*
X163277178Y-94818841D01*
X163275357Y-94800227D01*
X163274783Y-94781796D01*
X163275049Y-94769886D01*
X163275856Y-94758057D01*
X163277217Y-94746326D01*
X163279146Y-94734711D01*
X163281658Y-94723227D01*
X163284765Y-94711891D01*
X163288482Y-94700720D01*
X163292821Y-94689731D01*
X163297798Y-94678940D01*
X163303425Y-94668363D01*
X163309716Y-94658018D01*
X163316686Y-94647921D01*
X163324347Y-94638089D01*
X163332714Y-94628538D01*
X163341799Y-94619285D01*
X163351618Y-94610346D01*
X163410620Y-94679693D01*
X163405317Y-94685095D01*
X163400306Y-94690738D01*
X163395594Y-94696602D01*
X163391188Y-94702668D01*
X163387094Y-94708913D01*
X163383321Y-94715319D01*
X163379874Y-94721865D01*
X163376760Y-94728529D01*
X163373987Y-94735292D01*
X163371562Y-94742133D01*
X163369490Y-94749032D01*
X163367780Y-94755968D01*
X163366438Y-94762921D01*
X163365471Y-94769870D01*
X163364886Y-94776794D01*
X163364689Y-94783675D01*
X163364804Y-94789773D01*
X163365150Y-94795761D01*
X163365726Y-94801634D01*
X163366532Y-94807385D01*
X163367569Y-94813010D01*
X163368835Y-94818503D01*
X163370331Y-94823859D01*
X163372056Y-94829071D01*
X163374010Y-94834135D01*
X163376194Y-94839046D01*
X163378607Y-94843796D01*
X163381248Y-94848382D01*
X163384118Y-94852798D01*
X163387216Y-94857038D01*
X163390543Y-94861096D01*
X163394097Y-94864968D01*
X163397880Y-94868647D01*
X163401890Y-94872129D01*
X163406128Y-94875408D01*
X163410593Y-94878478D01*
X163415286Y-94881334D01*
X163420205Y-94883970D01*
X163425351Y-94886381D01*
X163430724Y-94888561D01*
X163436323Y-94890506D01*
X163442149Y-94892209D01*
X163448201Y-94893665D01*
X163454479Y-94894869D01*
X163460982Y-94895814D01*
X163467712Y-94896496D01*
X163474666Y-94896910D01*
X163481846Y-94897049D01*
X163560533Y-94897049D01*
X163567203Y-94896758D01*
X163573674Y-94896236D01*
X163579945Y-94895487D01*
X163586016Y-94894516D01*
X163591885Y-94893328D01*
X163597552Y-94891928D01*
X163603015Y-94890320D01*
X163608275Y-94888510D01*
X163613330Y-94886502D01*
X163618179Y-94884301D01*
X163622821Y-94881912D01*
X163627257Y-94879340D01*
X163631484Y-94876589D01*
X163635502Y-94873664D01*
X163639310Y-94870571D01*
X163642907Y-94867313D01*
X163646293Y-94863896D01*
X163649467Y-94860325D01*
X163652427Y-94856604D01*
X163655174Y-94852738D01*
X163657705Y-94848732D01*
X163660021Y-94844591D01*
X163662120Y-94840319D01*
X163664002Y-94835922D01*
X163665665Y-94831404D01*
X163667110Y-94826769D01*
X163668334Y-94822024D01*
X163669338Y-94817173D01*
X163670120Y-94812219D01*
X163670680Y-94807169D01*
X163671016Y-94802028D01*
X163671128Y-94796799D01*
X163671016Y-94791572D01*
X163670680Y-94786438D01*
X163670120Y-94781401D01*
X163669338Y-94776465D01*
X163668334Y-94771633D01*
X163667110Y-94766911D01*
X163665665Y-94762303D01*
X163664002Y-94757813D01*
X163662120Y-94753445D01*
X163660021Y-94749204D01*
X163657705Y-94745093D01*
X163655174Y-94741117D01*
X163652427Y-94737281D01*
X163649467Y-94733588D01*
X163646293Y-94730043D01*
X163642907Y-94726651D01*
X163639310Y-94723415D01*
X163635502Y-94720339D01*
X163631484Y-94717428D01*
X163627256Y-94714687D01*
X163622821Y-94712119D01*
X163618179Y-94709729D01*
X163613329Y-94707521D01*
X163608275Y-94705500D01*
X163603015Y-94703669D01*
X163597551Y-94702033D01*
X163591885Y-94700596D01*
X163586016Y-94699362D01*
X163579945Y-94698336D01*
X163573674Y-94697522D01*
X163567203Y-94696925D01*
X163560533Y-94696548D01*
X163560533Y-94897049D01*
X163481846Y-94897049D01*
X163481846Y-94600954D01*
X163560559Y-94600954D01*
X163571938Y-94601218D01*
G37*
G36*
X162978280Y-95515517D02*
G01*
X162982190Y-95521070D01*
X162985886Y-95526700D01*
X162989360Y-95532412D01*
X162992603Y-95538213D01*
X162995608Y-95544107D01*
X162998365Y-95550099D01*
X163000866Y-95556196D01*
X163003104Y-95562401D01*
X163005071Y-95568722D01*
X163006757Y-95575163D01*
X163008156Y-95581730D01*
X163009257Y-95588428D01*
X163010055Y-95595262D01*
X163010539Y-95602237D01*
X163010702Y-95609360D01*
X163010482Y-95618757D01*
X163009823Y-95627969D01*
X163008724Y-95636989D01*
X163007186Y-95645810D01*
X163005208Y-95654421D01*
X163002791Y-95662816D01*
X162999935Y-95670986D01*
X162996639Y-95678923D01*
X162992905Y-95686618D01*
X162988732Y-95694063D01*
X162984120Y-95701250D01*
X162979069Y-95708171D01*
X162973579Y-95714817D01*
X162967650Y-95721181D01*
X162961284Y-95727253D01*
X162954478Y-95733026D01*
X162954478Y-95734931D01*
X163005067Y-95734931D01*
X163005067Y-95830472D01*
X162530007Y-95830472D01*
X162530007Y-95734931D01*
X162815836Y-95734931D01*
X162822218Y-95734798D01*
X162828371Y-95734405D01*
X162834298Y-95733759D01*
X162839999Y-95732869D01*
X162845477Y-95731742D01*
X162850734Y-95730388D01*
X162855771Y-95728815D01*
X162860589Y-95727030D01*
X162865191Y-95725043D01*
X162869578Y-95722860D01*
X162873752Y-95720491D01*
X162877715Y-95717943D01*
X162881468Y-95715225D01*
X162885012Y-95712345D01*
X162888350Y-95709311D01*
X162891484Y-95706132D01*
X162894414Y-95702815D01*
X162897144Y-95699369D01*
X162899673Y-95695802D01*
X162902005Y-95692123D01*
X162904140Y-95688339D01*
X162906081Y-95684459D01*
X162907829Y-95680490D01*
X162909386Y-95676442D01*
X162911933Y-95668139D01*
X162913735Y-95659615D01*
X162914807Y-95650937D01*
X162915161Y-95642169D01*
X162915083Y-95637691D01*
X162914846Y-95633389D01*
X162914444Y-95629243D01*
X162913871Y-95625230D01*
X162913123Y-95621327D01*
X162912193Y-95617513D01*
X162911076Y-95613765D01*
X162909767Y-95610062D01*
X162908259Y-95606381D01*
X162906548Y-95602700D01*
X162904627Y-95598997D01*
X162902492Y-95595251D01*
X162900136Y-95591438D01*
X162897555Y-95587537D01*
X162894742Y-95583526D01*
X162891692Y-95579383D01*
X162974163Y-95510036D01*
X162978280Y-95515517D01*
G37*
G36*
X163755478Y-95912467D02*
G01*
X163472506Y-95912467D01*
X163466526Y-95912584D01*
X163460707Y-95912932D01*
X163455050Y-95913507D01*
X163449558Y-95914303D01*
X163444233Y-95915315D01*
X163439076Y-95916538D01*
X163434090Y-95917967D01*
X163429275Y-95919598D01*
X163424635Y-95921425D01*
X163420171Y-95923444D01*
X163415885Y-95925649D01*
X163411778Y-95928035D01*
X163407854Y-95930598D01*
X163404113Y-95933332D01*
X163400557Y-95936233D01*
X163397189Y-95939295D01*
X163394011Y-95942514D01*
X163391023Y-95945885D01*
X163388229Y-95949402D01*
X163385630Y-95953061D01*
X163383228Y-95956857D01*
X163381025Y-95960784D01*
X163379022Y-95964838D01*
X163377223Y-95969014D01*
X163375628Y-95973307D01*
X163374239Y-95977711D01*
X163373059Y-95982223D01*
X163372089Y-95986836D01*
X163371331Y-95991546D01*
X163370788Y-95996348D01*
X163370460Y-96001237D01*
X163370351Y-96006209D01*
X163370460Y-96011259D01*
X163370788Y-96016223D01*
X163371331Y-96021094D01*
X163372089Y-96025869D01*
X163373059Y-96030543D01*
X163374239Y-96035111D01*
X163375628Y-96039567D01*
X163377223Y-96043908D01*
X163379022Y-96048128D01*
X163381025Y-96052222D01*
X163383228Y-96056187D01*
X163385630Y-96060016D01*
X163388229Y-96063705D01*
X163391023Y-96067250D01*
X163394011Y-96070645D01*
X163397189Y-96073886D01*
X163400557Y-96076967D01*
X163404113Y-96079885D01*
X163407854Y-96082634D01*
X163411778Y-96085209D01*
X163415885Y-96087606D01*
X163420171Y-96089820D01*
X163424635Y-96091846D01*
X163429275Y-96093679D01*
X163434090Y-96095314D01*
X163439076Y-96096747D01*
X163444233Y-96097972D01*
X163449558Y-96098986D01*
X163455050Y-96099783D01*
X163460707Y-96100358D01*
X163466526Y-96100706D01*
X163472506Y-96100823D01*
X163755478Y-96100823D01*
X163755478Y-96196364D01*
X163439671Y-96196364D01*
X163439671Y-96196365D01*
X163429719Y-96196120D01*
X163420065Y-96195399D01*
X163410709Y-96194218D01*
X163401654Y-96192594D01*
X163392899Y-96190544D01*
X163384447Y-96188086D01*
X163376299Y-96185237D01*
X163368455Y-96182014D01*
X163360918Y-96178434D01*
X163353688Y-96174514D01*
X163346766Y-96170271D01*
X163340154Y-96165723D01*
X163333852Y-96160887D01*
X163327863Y-96155780D01*
X163322187Y-96150418D01*
X163316825Y-96144820D01*
X163311779Y-96139003D01*
X163307050Y-96132983D01*
X163302639Y-96126778D01*
X163298547Y-96120404D01*
X163294776Y-96113880D01*
X163291326Y-96107222D01*
X163288199Y-96100447D01*
X163285396Y-96093573D01*
X163282919Y-96086616D01*
X163280768Y-96079595D01*
X163277449Y-96065425D01*
X163275451Y-96051200D01*
X163274951Y-96044111D01*
X163274783Y-96037059D01*
X163275003Y-96027834D01*
X163275663Y-96018771D01*
X163276761Y-96009879D01*
X163278300Y-96001167D01*
X163280277Y-95992647D01*
X163282694Y-95984326D01*
X163285551Y-95976216D01*
X163288846Y-95968327D01*
X163292580Y-95960667D01*
X163296753Y-95953248D01*
X163301366Y-95946078D01*
X163306417Y-95939167D01*
X163311906Y-95932526D01*
X163317835Y-95926165D01*
X163324202Y-95920092D01*
X163331007Y-95914319D01*
X163331007Y-95912467D01*
X163280366Y-95912467D01*
X163280366Y-95816926D01*
X163755478Y-95816926D01*
X163755478Y-95912467D01*
G37*
G36*
X163536818Y-98766572D02*
G01*
X163553873Y-98767111D01*
X163569643Y-98768020D01*
X163584221Y-98769310D01*
X163597700Y-98770989D01*
X163610174Y-98773068D01*
X163621736Y-98775556D01*
X163632480Y-98778463D01*
X163642499Y-98781798D01*
X163651886Y-98785571D01*
X163660736Y-98789791D01*
X163669140Y-98794468D01*
X163677194Y-98799611D01*
X163684989Y-98805230D01*
X163692620Y-98811335D01*
X163700180Y-98817936D01*
X163705652Y-98823069D01*
X163711139Y-98828637D01*
X163716591Y-98834658D01*
X163721957Y-98841149D01*
X163727186Y-98848129D01*
X163732226Y-98855616D01*
X163737028Y-98863626D01*
X163741541Y-98872179D01*
X163743673Y-98876664D01*
X163745713Y-98881291D01*
X163747655Y-98886062D01*
X163749494Y-98890980D01*
X163751221Y-98896047D01*
X163752832Y-98901265D01*
X163754320Y-98906636D01*
X163755678Y-98912162D01*
X163756900Y-98917847D01*
X163757980Y-98923691D01*
X163758911Y-98929697D01*
X163759687Y-98935868D01*
X163760301Y-98942206D01*
X163760748Y-98948712D01*
X163761021Y-98955389D01*
X163761113Y-98962239D01*
X163760748Y-98975772D01*
X163759687Y-98988619D01*
X163757980Y-99000800D01*
X163755678Y-99012332D01*
X163752832Y-99023232D01*
X163749494Y-99033519D01*
X163745713Y-99043210D01*
X163741541Y-99052323D01*
X163737028Y-99060877D01*
X163732226Y-99068888D01*
X163727185Y-99076375D01*
X163721957Y-99083356D01*
X163716591Y-99089848D01*
X163711139Y-99095869D01*
X163705652Y-99101437D01*
X163700180Y-99106570D01*
X163692616Y-99113170D01*
X163684982Y-99119274D01*
X163677184Y-99124892D01*
X163669129Y-99130034D01*
X163660724Y-99134709D01*
X163651875Y-99138926D01*
X163642488Y-99142697D01*
X163632470Y-99146029D01*
X163621727Y-99148933D01*
X163610167Y-99151419D01*
X163597694Y-99153496D01*
X163584217Y-99155173D01*
X163569641Y-99156461D01*
X163553872Y-99157369D01*
X163536818Y-99157907D01*
X163518385Y-99158084D01*
X163499792Y-99157907D01*
X163482598Y-99157369D01*
X163466707Y-99156461D01*
X163452025Y-99155173D01*
X163438456Y-99153496D01*
X163425907Y-99151419D01*
X163414283Y-99148933D01*
X163403489Y-99146029D01*
X163393431Y-99142697D01*
X163384013Y-99138926D01*
X163375141Y-99134709D01*
X163366721Y-99130034D01*
X163358658Y-99124892D01*
X163350857Y-99119274D01*
X163343224Y-99113170D01*
X163335663Y-99106570D01*
X163330192Y-99101437D01*
X163324706Y-99095869D01*
X163319257Y-99089848D01*
X163313895Y-99083356D01*
X163308670Y-99076375D01*
X163303634Y-99068888D01*
X163298836Y-99060877D01*
X163294329Y-99052323D01*
X163292200Y-99047838D01*
X163290162Y-99043210D01*
X163288222Y-99038438D01*
X163286386Y-99033519D01*
X163284660Y-99028451D01*
X163283052Y-99023232D01*
X163281566Y-99017860D01*
X163280210Y-99012332D01*
X163278990Y-99006646D01*
X163277912Y-99000800D01*
X163276982Y-98994792D01*
X163276207Y-98988619D01*
X163275594Y-98982280D01*
X163275147Y-98975772D01*
X163274875Y-98969092D01*
X163274783Y-98962239D01*
X163370324Y-98962239D01*
X163370497Y-98968355D01*
X163371006Y-98974384D01*
X163371835Y-98980309D01*
X163372971Y-98986110D01*
X163374398Y-98991768D01*
X163376101Y-98997264D01*
X163378065Y-99002578D01*
X163380275Y-99007692D01*
X163382716Y-99012585D01*
X163385373Y-99017240D01*
X163388231Y-99021636D01*
X163391275Y-99025756D01*
X163394490Y-99029578D01*
X163397861Y-99033085D01*
X163401373Y-99036257D01*
X163405011Y-99039074D01*
X163409695Y-99042272D01*
X163414308Y-99045194D01*
X163418933Y-99047850D01*
X163423656Y-99050249D01*
X163428558Y-99052402D01*
X163433725Y-99054317D01*
X163439240Y-99056004D01*
X163445188Y-99057473D01*
X163451651Y-99058733D01*
X163458714Y-99059794D01*
X163466460Y-99060666D01*
X163474975Y-99061358D01*
X163484340Y-99061879D01*
X163494641Y-99062240D01*
X163505961Y-99062449D01*
X163518385Y-99062517D01*
X163541824Y-99062240D01*
X163552004Y-99061879D01*
X163561266Y-99061358D01*
X163569694Y-99060666D01*
X163577369Y-99059794D01*
X163584374Y-99058733D01*
X163590791Y-99057473D01*
X163596702Y-99056004D01*
X163602190Y-99054317D01*
X163607337Y-99052402D01*
X163612225Y-99050249D01*
X163616936Y-99047850D01*
X163621553Y-99045194D01*
X163626158Y-99042272D01*
X163630833Y-99039074D01*
X163632664Y-99037711D01*
X163634466Y-99036257D01*
X163637975Y-99033085D01*
X163641344Y-99029578D01*
X163644557Y-99025756D01*
X163647600Y-99021636D01*
X163650458Y-99017240D01*
X163653116Y-99012585D01*
X163655558Y-99007692D01*
X163657769Y-99002578D01*
X163659735Y-98997264D01*
X163661439Y-98991768D01*
X163662868Y-98986110D01*
X163664005Y-98980309D01*
X163664837Y-98974384D01*
X163665346Y-98968355D01*
X163665520Y-98962239D01*
X163665347Y-98956129D01*
X163664838Y-98950103D01*
X163664008Y-98944182D01*
X163662872Y-98938384D01*
X163661445Y-98932728D01*
X163659742Y-98927234D01*
X163657778Y-98921920D01*
X163655568Y-98916807D01*
X163653127Y-98911913D01*
X163650470Y-98907258D01*
X163647612Y-98902859D01*
X163644568Y-98898738D01*
X163641353Y-98894913D01*
X163637983Y-98891403D01*
X163634471Y-98888227D01*
X163630833Y-98885404D01*
X163626157Y-98882207D01*
X163621551Y-98879286D01*
X163616930Y-98876631D01*
X163612210Y-98874234D01*
X163607308Y-98872083D01*
X163602141Y-98870170D01*
X163596625Y-98868486D01*
X163590675Y-98867019D01*
X163584209Y-98865761D01*
X163577143Y-98864703D01*
X163569393Y-98863833D01*
X163560876Y-98863143D01*
X163551507Y-98862624D01*
X163541204Y-98862265D01*
X163529882Y-98862056D01*
X163517458Y-98861989D01*
X163494021Y-98862265D01*
X163483844Y-98862624D01*
X163474584Y-98863143D01*
X163466159Y-98863833D01*
X163458488Y-98864703D01*
X163451486Y-98865761D01*
X163445072Y-98867019D01*
X163439163Y-98868486D01*
X163433676Y-98870170D01*
X163428530Y-98872083D01*
X163423641Y-98874234D01*
X163418927Y-98876631D01*
X163414306Y-98879286D01*
X163409694Y-98882207D01*
X163405011Y-98885404D01*
X163403179Y-98886770D01*
X163401377Y-98888227D01*
X163397868Y-98891403D01*
X163394500Y-98894913D01*
X163391286Y-98898738D01*
X163388243Y-98902859D01*
X163385385Y-98907258D01*
X163382727Y-98911913D01*
X163380285Y-98916807D01*
X163378074Y-98921920D01*
X163376108Y-98927234D01*
X163374404Y-98932728D01*
X163372975Y-98938384D01*
X163371838Y-98944182D01*
X163371007Y-98950103D01*
X163370497Y-98956129D01*
X163370324Y-98962239D01*
X163274783Y-98962239D01*
X163275147Y-98948712D01*
X163276207Y-98935868D01*
X163277912Y-98923691D01*
X163280210Y-98912162D01*
X163283052Y-98901265D01*
X163286386Y-98890980D01*
X163290162Y-98881291D01*
X163294329Y-98872179D01*
X163298837Y-98863626D01*
X163303634Y-98855616D01*
X163308670Y-98848129D01*
X163313895Y-98841149D01*
X163319257Y-98834658D01*
X163324707Y-98828637D01*
X163330192Y-98823069D01*
X163335663Y-98817936D01*
X163343224Y-98811335D01*
X163350858Y-98805230D01*
X163358660Y-98799611D01*
X163366725Y-98794468D01*
X163375146Y-98789791D01*
X163384020Y-98785571D01*
X163393439Y-98781798D01*
X163403499Y-98778463D01*
X163414294Y-98775556D01*
X163425919Y-98773068D01*
X163438468Y-98770989D01*
X163452036Y-98769310D01*
X163466717Y-98768020D01*
X163482605Y-98767111D01*
X163499797Y-98766572D01*
X163518385Y-98766395D01*
X163536818Y-98766572D01*
G37*
G36*
X165766822Y-95108315D02*
G01*
X165767831Y-95108388D01*
X165768835Y-95108509D01*
X165769832Y-95108677D01*
X165770821Y-95108892D01*
X165771801Y-95109151D01*
X165772769Y-95109453D01*
X165773725Y-95109798D01*
X165774667Y-95110184D01*
X165775593Y-95110610D01*
X165777392Y-95111576D01*
X165779112Y-95112687D01*
X165780741Y-95113931D01*
X165782266Y-95115300D01*
X165783676Y-95116784D01*
X165784960Y-95118371D01*
X165786105Y-95120054D01*
X165786622Y-95120927D01*
X165787100Y-95121820D01*
X165787537Y-95122732D01*
X165787932Y-95123661D01*
X165788284Y-95124607D01*
X165788592Y-95125567D01*
X165788852Y-95126541D01*
X165789065Y-95127528D01*
X165869948Y-95562476D01*
X165870412Y-95564470D01*
X165871051Y-95566474D01*
X165871854Y-95568475D01*
X165872810Y-95570461D01*
X165873907Y-95572417D01*
X165875135Y-95574330D01*
X165876481Y-95576188D01*
X165877935Y-95577977D01*
X165879486Y-95579684D01*
X165881122Y-95581295D01*
X165882832Y-95582798D01*
X165884604Y-95584179D01*
X165886428Y-95585425D01*
X165888292Y-95586522D01*
X165890184Y-95587459D01*
X165892094Y-95588220D01*
X166203138Y-95721544D01*
X166205000Y-95722407D01*
X166206974Y-95723133D01*
X166209042Y-95723722D01*
X166211187Y-95724175D01*
X166213392Y-95724493D01*
X166215641Y-95724678D01*
X166217916Y-95724731D01*
X166220200Y-95724653D01*
X166222477Y-95724444D01*
X166224729Y-95724106D01*
X166226939Y-95723640D01*
X166229090Y-95723047D01*
X166231165Y-95722328D01*
X166233148Y-95721484D01*
X166235021Y-95720517D01*
X166236767Y-95719427D01*
X166606125Y-95466009D01*
X166606972Y-95465462D01*
X166607844Y-95464958D01*
X166608739Y-95464495D01*
X166609655Y-95464075D01*
X166610591Y-95463697D01*
X166611545Y-95463360D01*
X166613497Y-95462812D01*
X166615495Y-95462428D01*
X166617526Y-95462209D01*
X166619572Y-95462153D01*
X166621620Y-95462258D01*
X166623652Y-95462524D01*
X166625655Y-95462950D01*
X166627613Y-95463534D01*
X166629510Y-95464275D01*
X166631330Y-95465172D01*
X166632207Y-95465678D01*
X166633059Y-95466224D01*
X166633885Y-95466807D01*
X166634682Y-95467429D01*
X166635448Y-95468089D01*
X166636182Y-95468787D01*
X166952703Y-95785308D01*
X166953401Y-95786042D01*
X166954061Y-95786808D01*
X166954684Y-95787604D01*
X166955268Y-95788429D01*
X166955814Y-95789281D01*
X166956322Y-95790157D01*
X166956792Y-95791056D01*
X166957222Y-95791976D01*
X166957614Y-95792915D01*
X166957966Y-95793871D01*
X166958554Y-95795826D01*
X166958982Y-95797826D01*
X166959251Y-95799857D01*
X166959359Y-95801902D01*
X166959304Y-95803946D01*
X166959085Y-95805974D01*
X166958913Y-95806977D01*
X166958700Y-95807971D01*
X166958446Y-95808953D01*
X166958149Y-95809921D01*
X166957811Y-95810874D01*
X166957430Y-95811809D01*
X166957007Y-95812725D01*
X166956541Y-95813620D01*
X166956032Y-95814492D01*
X166955481Y-95815338D01*
X166697565Y-96191179D01*
X166696478Y-96192917D01*
X166695510Y-96194787D01*
X166694663Y-96196771D01*
X166693936Y-96198851D01*
X166693333Y-96201010D01*
X166692853Y-96203230D01*
X166692498Y-96205494D01*
X166692270Y-96207785D01*
X166692169Y-96210085D01*
X166692197Y-96212376D01*
X166692354Y-96214641D01*
X166692643Y-96216863D01*
X166693063Y-96219024D01*
X166693617Y-96221106D01*
X166694306Y-96223093D01*
X166695131Y-96224966D01*
X166818559Y-96526485D01*
X166818900Y-96527444D01*
X166819286Y-96528400D01*
X166819717Y-96529352D01*
X166820190Y-96530297D01*
X166821256Y-96532166D01*
X166822473Y-96533995D01*
X166823826Y-96535772D01*
X166825303Y-96537487D01*
X166826891Y-96539128D01*
X166828577Y-96540683D01*
X166830347Y-96542143D01*
X166832189Y-96543494D01*
X166834089Y-96544727D01*
X166836035Y-96545829D01*
X166838013Y-96546790D01*
X166840011Y-96547598D01*
X166842015Y-96548242D01*
X166843015Y-96548499D01*
X166844012Y-96548710D01*
X167293883Y-96632451D01*
X167294872Y-96632659D01*
X167295848Y-96632916D01*
X167296810Y-96633219D01*
X167297758Y-96633567D01*
X167298689Y-96633960D01*
X167299603Y-96634394D01*
X167300498Y-96634870D01*
X167301373Y-96635385D01*
X167302226Y-96635937D01*
X167303058Y-96636526D01*
X167303865Y-96637150D01*
X167304648Y-96637807D01*
X167305405Y-96638496D01*
X167306134Y-96639215D01*
X167306835Y-96639963D01*
X167307506Y-96640739D01*
X167308145Y-96641541D01*
X167308753Y-96642366D01*
X167309327Y-96643215D01*
X167309866Y-96644085D01*
X167310369Y-96644976D01*
X167310834Y-96645884D01*
X167311262Y-96646810D01*
X167311649Y-96647751D01*
X167311996Y-96648705D01*
X167312300Y-96649673D01*
X167312561Y-96650651D01*
X167312777Y-96651639D01*
X167312948Y-96652635D01*
X167313071Y-96653637D01*
X167313146Y-96654644D01*
X167313171Y-96655655D01*
X167313171Y-97103330D01*
X167313146Y-97104338D01*
X167313071Y-97105343D01*
X167312948Y-97106343D01*
X167312777Y-97107337D01*
X167312561Y-97108323D01*
X167312300Y-97109300D01*
X167311996Y-97110266D01*
X167311649Y-97111219D01*
X167311262Y-97112159D01*
X167310834Y-97113083D01*
X167309866Y-97114879D01*
X167308753Y-97116597D01*
X167307506Y-97118223D01*
X167306134Y-97119745D01*
X167304648Y-97121153D01*
X167303058Y-97122433D01*
X167302226Y-97123022D01*
X167301373Y-97123574D01*
X167300498Y-97124089D01*
X167299603Y-97124564D01*
X167298689Y-97124999D01*
X167297758Y-97125391D01*
X167296810Y-97125739D01*
X167295848Y-97126043D01*
X167294872Y-97126299D01*
X167293883Y-97126507D01*
X166844012Y-97210222D01*
X166842015Y-97210690D01*
X166840011Y-97211333D01*
X166838013Y-97212140D01*
X166836035Y-97213099D01*
X166834089Y-97214200D01*
X166832189Y-97215431D01*
X166830347Y-97216781D01*
X166828577Y-97218238D01*
X166826891Y-97219793D01*
X166825303Y-97221433D01*
X166823826Y-97223148D01*
X166822473Y-97224926D01*
X166821256Y-97226756D01*
X166820190Y-97228627D01*
X166819286Y-97230527D01*
X166818559Y-97232446D01*
X166695131Y-97533992D01*
X166694306Y-97535870D01*
X166693617Y-97537861D01*
X166693063Y-97539947D01*
X166692642Y-97542110D01*
X166692354Y-97544334D01*
X166692197Y-97546601D01*
X166692169Y-97548893D01*
X166692270Y-97551193D01*
X166692498Y-97553484D01*
X166692853Y-97555747D01*
X166693333Y-97557966D01*
X166693936Y-97560123D01*
X166694663Y-97562200D01*
X166695510Y-97564180D01*
X166696478Y-97566046D01*
X166697565Y-97567779D01*
X166955481Y-97943593D01*
X166956032Y-97944442D01*
X166956541Y-97945317D01*
X166957007Y-97946214D01*
X166957430Y-97947132D01*
X166957811Y-97948070D01*
X166958149Y-97949025D01*
X166958700Y-97950980D01*
X166959085Y-97952981D01*
X166959304Y-97955013D01*
X166959359Y-97957060D01*
X166959251Y-97959108D01*
X166958982Y-97961140D01*
X166958553Y-97963142D01*
X166957966Y-97965098D01*
X166957222Y-97966993D01*
X166956322Y-97968811D01*
X166955814Y-97969686D01*
X166955268Y-97970537D01*
X166954684Y-97971360D01*
X166954061Y-97972155D01*
X166953401Y-97972919D01*
X166952703Y-97973650D01*
X166636182Y-98290198D01*
X166635448Y-98290894D01*
X166634682Y-98291552D01*
X166633885Y-98292173D01*
X166633059Y-98292756D01*
X166632207Y-98293301D01*
X166631330Y-98293808D01*
X166630430Y-98294276D01*
X166629510Y-98294706D01*
X166628570Y-98295097D01*
X166627613Y-98295450D01*
X166625655Y-98296037D01*
X166623652Y-98296466D01*
X166621620Y-98296736D01*
X166619572Y-98296845D01*
X166617526Y-98296792D01*
X166615495Y-98296575D01*
X166614491Y-98296404D01*
X166613497Y-98296192D01*
X166612514Y-98295938D01*
X166611545Y-98295642D01*
X166610591Y-98295304D01*
X166609655Y-98294924D01*
X166608739Y-98294501D01*
X166607844Y-98294036D01*
X166606972Y-98293527D01*
X166606125Y-98292976D01*
X166236767Y-98039532D01*
X166235021Y-98038451D01*
X166233148Y-98037492D01*
X166231165Y-98036655D01*
X166229090Y-98035942D01*
X166226939Y-98035354D01*
X166224729Y-98034891D01*
X166222477Y-98034556D01*
X166220200Y-98034349D01*
X166217916Y-98034271D01*
X166215641Y-98034324D01*
X166213392Y-98034508D01*
X166211187Y-98034825D01*
X166209042Y-98035275D01*
X166206974Y-98035861D01*
X166205000Y-98036583D01*
X166203138Y-98037441D01*
X165892094Y-98170791D01*
X165891138Y-98171147D01*
X165890184Y-98171548D01*
X165888292Y-98172479D01*
X165886428Y-98173572D01*
X165884604Y-98174814D01*
X165882832Y-98176191D01*
X165881122Y-98177690D01*
X165879486Y-98179299D01*
X165877935Y-98181004D01*
X165876481Y-98182792D01*
X165875135Y-98184650D01*
X165873907Y-98186565D01*
X165872810Y-98188524D01*
X165871854Y-98190514D01*
X165871051Y-98192521D01*
X165870412Y-98194532D01*
X165870158Y-98195536D01*
X165869948Y-98196535D01*
X165789065Y-98631457D01*
X165788852Y-98632449D01*
X165788592Y-98633427D01*
X165788284Y-98634391D01*
X165787933Y-98635340D01*
X165787537Y-98636272D01*
X165787100Y-98637187D01*
X165786622Y-98638083D01*
X165786105Y-98638958D01*
X165785551Y-98639812D01*
X165784961Y-98640644D01*
X165784336Y-98641452D01*
X165783678Y-98642234D01*
X165782988Y-98642991D01*
X165782268Y-98643720D01*
X165781520Y-98644420D01*
X165780744Y-98645090D01*
X165779943Y-98645729D01*
X165779117Y-98646336D01*
X165778269Y-98646909D01*
X165777399Y-98647447D01*
X165776509Y-98647949D01*
X165775601Y-98648414D01*
X165774676Y-98648841D01*
X165773736Y-98649227D01*
X165772782Y-98649573D01*
X165771815Y-98649877D01*
X165770837Y-98650137D01*
X165769850Y-98650353D01*
X165768855Y-98650523D01*
X165767853Y-98650646D01*
X165766846Y-98650720D01*
X165765835Y-98650746D01*
X165318186Y-98650719D01*
X165317175Y-98650694D01*
X165316168Y-98650619D01*
X165315165Y-98650496D01*
X165314168Y-98650325D01*
X165313179Y-98650109D01*
X165312199Y-98649848D01*
X165311231Y-98649544D01*
X165310274Y-98649197D01*
X165308404Y-98648382D01*
X165306601Y-98647414D01*
X165304879Y-98646301D01*
X165303247Y-98645054D01*
X165301720Y-98643682D01*
X165300309Y-98642196D01*
X165299025Y-98640606D01*
X165298436Y-98639775D01*
X165297882Y-98638921D01*
X165297367Y-98638046D01*
X165296892Y-98637151D01*
X165296458Y-98636237D01*
X165296066Y-98635306D01*
X165295718Y-98634358D01*
X165295416Y-98633396D01*
X165295162Y-98632420D01*
X165294956Y-98631431D01*
X165216004Y-98207172D01*
X165215799Y-98206175D01*
X165215548Y-98205176D01*
X165214913Y-98203176D01*
X165214111Y-98201184D01*
X165213152Y-98199214D01*
X165212048Y-98197278D01*
X165210812Y-98195390D01*
X165209454Y-98193563D01*
X165207987Y-98191809D01*
X165206422Y-98190142D01*
X165204771Y-98188574D01*
X165203045Y-98187119D01*
X165201255Y-98185789D01*
X165199415Y-98184597D01*
X165197534Y-98183557D01*
X165195625Y-98182682D01*
X165194664Y-98182309D01*
X165193700Y-98181983D01*
X164862838Y-98049533D01*
X164860956Y-98048713D01*
X164858963Y-98048029D01*
X164856876Y-98047480D01*
X164854713Y-98047064D01*
X164852490Y-98046781D01*
X164850225Y-98046628D01*
X164847935Y-98046606D01*
X164845637Y-98046712D01*
X164843349Y-98046945D01*
X164841088Y-98047305D01*
X164838871Y-98047789D01*
X164836715Y-98048398D01*
X164834638Y-98049129D01*
X164832657Y-98049982D01*
X164830789Y-98050955D01*
X164829051Y-98052046D01*
X164477870Y-98293029D01*
X164477023Y-98293578D01*
X164476151Y-98294084D01*
X164475255Y-98294548D01*
X164474338Y-98294969D01*
X164473402Y-98295348D01*
X164472447Y-98295685D01*
X164470494Y-98296234D01*
X164468493Y-98296616D01*
X164466461Y-98296833D01*
X164464412Y-98296887D01*
X164462362Y-98296779D01*
X164460326Y-98296511D01*
X164458321Y-98296083D01*
X164456361Y-98295497D01*
X164454463Y-98294755D01*
X164452640Y-98293858D01*
X164451763Y-98293352D01*
X164450910Y-98292807D01*
X164450084Y-98292225D01*
X164449287Y-98291605D01*
X164448520Y-98290946D01*
X164447787Y-98290251D01*
X164131265Y-97973677D01*
X164130572Y-97972945D01*
X164129916Y-97972181D01*
X164129298Y-97971387D01*
X164128717Y-97970563D01*
X164128175Y-97969713D01*
X164127670Y-97968837D01*
X164127204Y-97967939D01*
X164126776Y-97967020D01*
X164126386Y-97966081D01*
X164126036Y-97965125D01*
X164125452Y-97963169D01*
X164125025Y-97961167D01*
X164124757Y-97959135D01*
X164124648Y-97957087D01*
X164124702Y-97955039D01*
X164124917Y-97953007D01*
X164125087Y-97952002D01*
X164125297Y-97951007D01*
X164125549Y-97950022D01*
X164125843Y-97949052D01*
X164126178Y-97948097D01*
X164126556Y-97947159D01*
X164126975Y-97946241D01*
X164127437Y-97945343D01*
X164127941Y-97944469D01*
X164128487Y-97943620D01*
X164365263Y-97598656D01*
X164366338Y-97596922D01*
X164367281Y-97595064D01*
X164368092Y-97593099D01*
X164368771Y-97591044D01*
X164369316Y-97588917D01*
X164369727Y-97586734D01*
X164370005Y-97584512D01*
X164370148Y-97582269D01*
X164370156Y-97580021D01*
X164370029Y-97577785D01*
X164369766Y-97575579D01*
X164369367Y-97573419D01*
X164368831Y-97571322D01*
X164368158Y-97569306D01*
X164367348Y-97567388D01*
X164366401Y-97565583D01*
X164285173Y-97413448D01*
X164284739Y-97412541D01*
X164284356Y-97411625D01*
X164284026Y-97410704D01*
X164283747Y-97409778D01*
X164283519Y-97408849D01*
X164283341Y-97407918D01*
X164283213Y-97406988D01*
X164283133Y-97406059D01*
X164283102Y-97405133D01*
X164283119Y-97404213D01*
X164283183Y-97403299D01*
X164283294Y-97402393D01*
X164283451Y-97401497D01*
X164283653Y-97400612D01*
X164283900Y-97399740D01*
X164284191Y-97398883D01*
X164284526Y-97398041D01*
X164284904Y-97397218D01*
X164285324Y-97396414D01*
X164285787Y-97395630D01*
X164286290Y-97394870D01*
X164286834Y-97394133D01*
X164287418Y-97393422D01*
X164288042Y-97392739D01*
X164288705Y-97392084D01*
X164289405Y-97391460D01*
X164290144Y-97390868D01*
X164290920Y-97390309D01*
X164291732Y-97389786D01*
X164292580Y-97389300D01*
X164293463Y-97388852D01*
X164294381Y-97388445D01*
X165052333Y-97074755D01*
X165053276Y-97074390D01*
X165054233Y-97074073D01*
X165055203Y-97073803D01*
X165056183Y-97073580D01*
X165057173Y-97073404D01*
X165058169Y-97073273D01*
X165060176Y-97073146D01*
X165062190Y-97073195D01*
X165064196Y-97073415D01*
X165066181Y-97073801D01*
X165068129Y-97074348D01*
X165070026Y-97075052D01*
X165071857Y-97075908D01*
X165073610Y-97076910D01*
X165075267Y-97078055D01*
X165076817Y-97079338D01*
X165077546Y-97080029D01*
X165078243Y-97080753D01*
X165078906Y-97081509D01*
X165079533Y-97082296D01*
X165080121Y-97083114D01*
X165080670Y-97083963D01*
X165103980Y-97122036D01*
X165105725Y-97124784D01*
X165107717Y-97127714D01*
X165109912Y-97130773D01*
X165112268Y-97133906D01*
X165114740Y-97137060D01*
X165117285Y-97140182D01*
X165119860Y-97143218D01*
X165122421Y-97146113D01*
X165139673Y-97171313D01*
X165158404Y-97195363D01*
X165178549Y-97218199D01*
X165200043Y-97239754D01*
X165222821Y-97259962D01*
X165246817Y-97278759D01*
X165271966Y-97296077D01*
X165298204Y-97311852D01*
X165325463Y-97326017D01*
X165339456Y-97332475D01*
X165353680Y-97338507D01*
X165368127Y-97344103D01*
X165382789Y-97349255D01*
X165397658Y-97353956D01*
X165412725Y-97358197D01*
X165427983Y-97361970D01*
X165443422Y-97365266D01*
X165459036Y-97368078D01*
X165474816Y-97370397D01*
X165490753Y-97372215D01*
X165506841Y-97373524D01*
X165523069Y-97374315D01*
X165539431Y-97374581D01*
X165564907Y-97373937D01*
X165590049Y-97372025D01*
X165614825Y-97368876D01*
X165639205Y-97364522D01*
X165663156Y-97358994D01*
X165686649Y-97352322D01*
X165709652Y-97344538D01*
X165732133Y-97335674D01*
X165754063Y-97325759D01*
X165775409Y-97314825D01*
X165796141Y-97302904D01*
X165816227Y-97290027D01*
X165835636Y-97276224D01*
X165854338Y-97261526D01*
X165872301Y-97245966D01*
X165889494Y-97229573D01*
X165905886Y-97212379D01*
X165921446Y-97194416D01*
X165936143Y-97175714D01*
X165949945Y-97156304D01*
X165962822Y-97136217D01*
X165974742Y-97115486D01*
X165985675Y-97094140D01*
X165995589Y-97072211D01*
X166004453Y-97049730D01*
X166012236Y-97026728D01*
X166018907Y-97003236D01*
X166024435Y-96979285D01*
X166028789Y-96954907D01*
X166031937Y-96930133D01*
X166033849Y-96904993D01*
X166034493Y-96879519D01*
X166033849Y-96854045D01*
X166031937Y-96828906D01*
X166028789Y-96804132D01*
X166024435Y-96779754D01*
X166018907Y-96755804D01*
X166012236Y-96732313D01*
X166004453Y-96709312D01*
X165995589Y-96686832D01*
X165985675Y-96664904D01*
X165974742Y-96643559D01*
X165962822Y-96622828D01*
X165949945Y-96602743D01*
X165936143Y-96583334D01*
X165921446Y-96564633D01*
X165905886Y-96546671D01*
X165889494Y-96529479D01*
X165872301Y-96513087D01*
X165854338Y-96497528D01*
X165835636Y-96482832D01*
X165816227Y-96469030D01*
X165796141Y-96456153D01*
X165775409Y-96444233D01*
X165754063Y-96433301D01*
X165732133Y-96423387D01*
X165709652Y-96414523D01*
X165686649Y-96406740D01*
X165663156Y-96400069D01*
X165639205Y-96394541D01*
X165614825Y-96390188D01*
X165590049Y-96387040D01*
X165564907Y-96385128D01*
X165539431Y-96384484D01*
X165506841Y-96385540D01*
X165474816Y-96388666D01*
X165443422Y-96393796D01*
X165412725Y-96400864D01*
X165382789Y-96409804D01*
X165353680Y-96420551D01*
X165325463Y-96433040D01*
X165298204Y-96447203D01*
X165271967Y-96462977D01*
X165246817Y-96480295D01*
X165222821Y-96499091D01*
X165200043Y-96519300D01*
X165178549Y-96540856D01*
X165158404Y-96563694D01*
X165139673Y-96587748D01*
X165122421Y-96612952D01*
X165119860Y-96615831D01*
X165117285Y-96618856D01*
X165114740Y-96621972D01*
X165112268Y-96625122D01*
X165109912Y-96628254D01*
X165107717Y-96631310D01*
X165105725Y-96634235D01*
X165103980Y-96636976D01*
X165080670Y-96675049D01*
X165080121Y-96675893D01*
X165079533Y-96676707D01*
X165078906Y-96677490D01*
X165078243Y-96678243D01*
X165077546Y-96678964D01*
X165076817Y-96679652D01*
X165076057Y-96680308D01*
X165075267Y-96680931D01*
X165074451Y-96681519D01*
X165073610Y-96682073D01*
X165072744Y-96682591D01*
X165071857Y-96683074D01*
X165070951Y-96683520D01*
X165070026Y-96683929D01*
X165069084Y-96684301D01*
X165068129Y-96684634D01*
X165067160Y-96684928D01*
X165066181Y-96685183D01*
X165065192Y-96685397D01*
X165064196Y-96685571D01*
X165063195Y-96685704D01*
X165062190Y-96685794D01*
X165061183Y-96685842D01*
X165060176Y-96685847D01*
X165059171Y-96685808D01*
X165058169Y-96685724D01*
X165057173Y-96685596D01*
X165056183Y-96685422D01*
X165055203Y-96685201D01*
X165054233Y-96684934D01*
X165053276Y-96684620D01*
X165052333Y-96684257D01*
X164294355Y-96370593D01*
X164293437Y-96370186D01*
X164292554Y-96369738D01*
X164291706Y-96369252D01*
X164290894Y-96368730D01*
X164290119Y-96368172D01*
X164289381Y-96367581D01*
X164288681Y-96366957D01*
X164288020Y-96366303D01*
X164287397Y-96365620D01*
X164286813Y-96364910D01*
X164286270Y-96364174D01*
X164285767Y-96363415D01*
X164285306Y-96362632D01*
X164284886Y-96361829D01*
X164284509Y-96361006D01*
X164284175Y-96360165D01*
X164283884Y-96359309D01*
X164283638Y-96358437D01*
X164283436Y-96357553D01*
X164283279Y-96356657D01*
X164283169Y-96355751D01*
X164283105Y-96354837D01*
X164283088Y-96353916D01*
X164283118Y-96352991D01*
X164283197Y-96352061D01*
X164283325Y-96351130D01*
X164283502Y-96350198D01*
X164283728Y-96349268D01*
X164284006Y-96348340D01*
X164284334Y-96347417D01*
X164284715Y-96346500D01*
X164285147Y-96345590D01*
X164366374Y-96193455D01*
X164367322Y-96191646D01*
X164368133Y-96189724D01*
X164368807Y-96187706D01*
X164369344Y-96185608D01*
X164369745Y-96183448D01*
X164370009Y-96181241D01*
X164370138Y-96179006D01*
X164370131Y-96176759D01*
X164369989Y-96174517D01*
X164369713Y-96172297D01*
X164369301Y-96170116D01*
X164368756Y-96167990D01*
X164368076Y-96165937D01*
X164367263Y-96163973D01*
X164366316Y-96162116D01*
X164365237Y-96160382D01*
X164128461Y-95815391D01*
X164127914Y-95814545D01*
X164127410Y-95813673D01*
X164126949Y-95812777D01*
X164126529Y-95811860D01*
X164126152Y-95810924D01*
X164125817Y-95809970D01*
X164125271Y-95808017D01*
X164124891Y-95806017D01*
X164124675Y-95803985D01*
X164124622Y-95801938D01*
X164124730Y-95799890D01*
X164124999Y-95797858D01*
X164125426Y-95795856D01*
X164126010Y-95793901D01*
X164126750Y-95792007D01*
X164127644Y-95790191D01*
X164128148Y-95789316D01*
X164128691Y-95788467D01*
X164129272Y-95787645D01*
X164129890Y-95786852D01*
X164130546Y-95786090D01*
X164131239Y-95785361D01*
X164447760Y-95468787D01*
X164448494Y-95468089D01*
X164449260Y-95467429D01*
X164450058Y-95466806D01*
X164450884Y-95466222D01*
X164451736Y-95465676D01*
X164452614Y-95465168D01*
X164453515Y-95464699D01*
X164454436Y-95464268D01*
X164455377Y-95463876D01*
X164456335Y-95463524D01*
X164458295Y-95462937D01*
X164460300Y-95462508D01*
X164462335Y-95462239D01*
X164464385Y-95462131D01*
X164466434Y-95462186D01*
X164468467Y-95462405D01*
X164469472Y-95462577D01*
X164470468Y-95462790D01*
X164471451Y-95463044D01*
X164472421Y-95463341D01*
X164473375Y-95463680D01*
X164474312Y-95464060D01*
X164475229Y-95464484D01*
X164476124Y-95464949D01*
X164476997Y-95465458D01*
X164477843Y-95466009D01*
X164829025Y-95707018D01*
X164830763Y-95708101D01*
X164832631Y-95709066D01*
X164834612Y-95709913D01*
X164836689Y-95710640D01*
X164838845Y-95711245D01*
X164841062Y-95711728D01*
X164843323Y-95712087D01*
X164845611Y-95712320D01*
X164847909Y-95712426D01*
X164850199Y-95712404D01*
X164852464Y-95712253D01*
X164854687Y-95711970D01*
X164856850Y-95711556D01*
X164858937Y-95711008D01*
X164860930Y-95710324D01*
X164862812Y-95709505D01*
X165193674Y-95577055D01*
X165194638Y-95576727D01*
X165195599Y-95576353D01*
X165197508Y-95575476D01*
X165199388Y-95574436D01*
X165201229Y-95573246D01*
X165203018Y-95571919D01*
X165204744Y-95570468D01*
X165206396Y-95568905D01*
X165207961Y-95567242D01*
X165209428Y-95565493D01*
X165210786Y-95563670D01*
X165212022Y-95561786D01*
X165213125Y-95559854D01*
X165214084Y-95557886D01*
X165214887Y-95555894D01*
X165215226Y-95554894D01*
X165215522Y-95553892D01*
X165215773Y-95552892D01*
X165215978Y-95551893D01*
X165294930Y-95127633D01*
X165295136Y-95126647D01*
X165295390Y-95125673D01*
X165295692Y-95124712D01*
X165296040Y-95123766D01*
X165296431Y-95122836D01*
X165296866Y-95121923D01*
X165297341Y-95121029D01*
X165297856Y-95120155D01*
X165298409Y-95119301D01*
X165298999Y-95118470D01*
X165299624Y-95117662D01*
X165300282Y-95116880D01*
X165300973Y-95116123D01*
X165301694Y-95115393D01*
X165302444Y-95114692D01*
X165303221Y-95114021D01*
X165304024Y-95113380D01*
X165304852Y-95112772D01*
X165305703Y-95112197D01*
X165306575Y-95111658D01*
X165307467Y-95111154D01*
X165308378Y-95110687D01*
X165309305Y-95110259D01*
X165310248Y-95109871D01*
X165311204Y-95109523D01*
X165312173Y-95109218D01*
X165313153Y-95108957D01*
X165314142Y-95108740D01*
X165315138Y-95108569D01*
X165316141Y-95108446D01*
X165317149Y-95108371D01*
X165318160Y-95108345D01*
X165765809Y-95108292D01*
X165766822Y-95108315D01*
G37*
D11*
G36*
X159060956Y-68229000D02*
G01*
X158743867Y-68229000D01*
X158743867Y-67695573D01*
X158607397Y-67695573D01*
X158462678Y-67686688D01*
X158349584Y-67662619D01*
X158262007Y-67626330D01*
X158183537Y-67573636D01*
X158123762Y-67512614D01*
X158080290Y-67442599D01*
X158050025Y-67364724D01*
X158031841Y-67283451D01*
X158026458Y-67208400D01*
X158347003Y-67208400D01*
X158356659Y-67284120D01*
X158383139Y-67340226D01*
X158425771Y-67381691D01*
X158480835Y-67410052D01*
X158550650Y-67428462D01*
X158638904Y-67435180D01*
X158743867Y-67435180D01*
X158743867Y-66989956D01*
X158598970Y-66989956D01*
X158514794Y-66997348D01*
X158452565Y-67017135D01*
X158407079Y-67047155D01*
X158374814Y-67087364D01*
X158354429Y-67139836D01*
X158347003Y-67208400D01*
X158026458Y-67208400D01*
X158025702Y-67197867D01*
X158034810Y-67090118D01*
X158060613Y-66998882D01*
X158101921Y-66921110D01*
X158159058Y-66854584D01*
X158228486Y-66803797D01*
X158318645Y-66764785D01*
X158434510Y-66739037D01*
X158582209Y-66729562D01*
X159060956Y-66729562D01*
X159060956Y-68229000D01*
G37*
G36*
X157611252Y-66633025D02*
G01*
X157545567Y-66641453D01*
X157491543Y-66665540D01*
X157464939Y-66691356D01*
X157447701Y-66729950D01*
X157441168Y-66786257D01*
X157447620Y-66841215D01*
X157464799Y-66879656D01*
X157491543Y-66906058D01*
X157545636Y-66930911D01*
X157611252Y-66939580D01*
X157678548Y-66930814D01*
X157732061Y-66906058D01*
X157758156Y-66879753D01*
X157774996Y-66841327D01*
X157781337Y-66786257D01*
X157774915Y-66729834D01*
X157758018Y-66691258D01*
X157732061Y-66665540D01*
X157678620Y-66641548D01*
X157611252Y-66633025D01*
G37*
G36*
X157455822Y-67082371D02*
G01*
X157455822Y-68229000D01*
X157768789Y-68229000D01*
X157768789Y-67082371D01*
X157455822Y-67082371D01*
G37*
G36*
X156662185Y-68249974D02*
G01*
X156789723Y-68240033D01*
X156895772Y-68212163D01*
X156984226Y-68168172D01*
X157058042Y-68108282D01*
X157104814Y-68050399D01*
X157142934Y-67979446D01*
X157171995Y-67893077D01*
X157190837Y-67788376D01*
X157197627Y-67661959D01*
X157188714Y-67523273D01*
X157164135Y-67410761D01*
X157126277Y-67319775D01*
X157071677Y-67238282D01*
X157005855Y-67173761D01*
X156927800Y-67124411D01*
X156841036Y-67090081D01*
X156744010Y-67068796D01*
X156634891Y-67061397D01*
X156521341Y-67067578D01*
X156430185Y-67084478D01*
X156346299Y-67110461D01*
X156277869Y-67139066D01*
X156370285Y-67380591D01*
X156507855Y-67332323D01*
X156572070Y-67318037D01*
X156634891Y-67313364D01*
X156707644Y-67322524D01*
X156764854Y-67348212D01*
X156810310Y-67390289D01*
X156845511Y-67451943D01*
X156869372Y-67539142D01*
X156878432Y-67659944D01*
X156869919Y-67773512D01*
X156847504Y-67855678D01*
X156814410Y-67914018D01*
X156766591Y-67959115D01*
X156707899Y-67986315D01*
X156634891Y-67995900D01*
X156539611Y-67988995D01*
X156460594Y-67969705D01*
X156386548Y-67938689D01*
X156313590Y-67897165D01*
X156313590Y-68163878D01*
X156387208Y-68203719D01*
X156463708Y-68230007D01*
X156547651Y-68244457D01*
X156662185Y-68249974D01*
G37*
G36*
X155689300Y-67071931D02*
G01*
X155798255Y-67101724D01*
X155890909Y-67149263D01*
X155969940Y-67214720D01*
X156032532Y-67295294D01*
X156078889Y-67392824D01*
X156108456Y-67510779D01*
X156119050Y-67653624D01*
X156110445Y-67779371D01*
X156086148Y-67886503D01*
X156047701Y-67978040D01*
X155993389Y-68060758D01*
X155928210Y-68127786D01*
X155851330Y-68180731D01*
X155765643Y-68218704D01*
X155671371Y-68241958D01*
X155566756Y-68249974D01*
X155439186Y-68239372D01*
X155330764Y-68209307D01*
X155238008Y-68161165D01*
X155158352Y-68094635D01*
X155095180Y-68012985D01*
X155048487Y-67914676D01*
X155018769Y-67796336D01*
X155008142Y-67653624D01*
X155327337Y-67653624D01*
X155334704Y-67766385D01*
X155354226Y-67849977D01*
X155383025Y-67910904D01*
X155414398Y-67948352D01*
X155453548Y-67975145D01*
X155502073Y-67991972D01*
X155562543Y-67998007D01*
X155624212Y-67991930D01*
X155673432Y-67975037D01*
X155712885Y-67948235D01*
X155744260Y-67910904D01*
X155773008Y-67849985D01*
X155792500Y-67766392D01*
X155799856Y-67653624D01*
X155792455Y-67540827D01*
X155772929Y-67458054D01*
X155744260Y-67398452D01*
X155700917Y-67352177D01*
X155642721Y-67323693D01*
X155564650Y-67313364D01*
X155485219Y-67323752D01*
X155426426Y-67352289D01*
X155383025Y-67398452D01*
X155354306Y-67458062D01*
X155334749Y-67540835D01*
X155327337Y-67653624D01*
X155008142Y-67653624D01*
X155016797Y-67527816D01*
X155041157Y-67421418D01*
X155079583Y-67331224D01*
X155133662Y-67249781D01*
X155198476Y-67183450D01*
X155274856Y-67130731D01*
X155359929Y-67092803D01*
X155454487Y-67069473D01*
X155560437Y-67061397D01*
X155689300Y-67071931D01*
G37*
G36*
X154724668Y-68229000D02*
G01*
X154300510Y-68229000D01*
X154141779Y-68220155D01*
X154004870Y-68195143D01*
X153886729Y-68155718D01*
X153784724Y-68102884D01*
X153696741Y-68036841D01*
X153622241Y-67956409D01*
X153563189Y-67861576D01*
X153519290Y-67750111D01*
X153491405Y-67618995D01*
X153482042Y-67473007D01*
X153811230Y-67473007D01*
X153819882Y-67599098D01*
X153843689Y-67700388D01*
X153880340Y-67781458D01*
X153928878Y-67845967D01*
X153989781Y-67896398D01*
X154064921Y-67933836D01*
X154157360Y-67957843D01*
X154271109Y-67966500D01*
X154407580Y-67966500D01*
X154407580Y-66989956D01*
X154237495Y-66989956D01*
X154134001Y-66998183D01*
X154048783Y-67021167D01*
X153978436Y-67057343D01*
X153920407Y-67106551D01*
X153875947Y-67167227D01*
X153841887Y-67245577D01*
X153819464Y-67345784D01*
X153811230Y-67473007D01*
X153482042Y-67473007D01*
X153481502Y-67464580D01*
X153488112Y-67343030D01*
X153506937Y-67236424D01*
X153536824Y-67142783D01*
X153577124Y-67060389D01*
X153629837Y-66983823D01*
X153691756Y-66917634D01*
X153763462Y-66861030D01*
X153845943Y-66813643D01*
X153964213Y-66768124D01*
X154099356Y-66739581D01*
X154254348Y-66729562D01*
X154724668Y-66729562D01*
X154724668Y-68229000D01*
G37*
G36*
X152846343Y-67066199D02*
G01*
X152960349Y-67086584D01*
X153068965Y-67119624D01*
X153165055Y-67162238D01*
X153062107Y-67374272D01*
X152902555Y-67314463D01*
X152821721Y-67296337D01*
X152738699Y-67290283D01*
X152684205Y-67295474D01*
X152641296Y-67309800D01*
X152607449Y-67332323D01*
X152582396Y-67363492D01*
X152566204Y-67406294D01*
X152560188Y-67464580D01*
X152560188Y-67514956D01*
X152759765Y-67521275D01*
X152891568Y-67531947D01*
X152996641Y-67552679D01*
X153079502Y-67581454D01*
X153144081Y-67616896D01*
X153199242Y-67665437D01*
X153238664Y-67724895D01*
X153263325Y-67797490D01*
X153272125Y-67886724D01*
X153264857Y-67979077D01*
X153244769Y-68053338D01*
X153213508Y-68113021D01*
X153171375Y-68160764D01*
X153099675Y-68209638D01*
X153016038Y-68239519D01*
X152917210Y-68249974D01*
X152822321Y-68244541D01*
X152748815Y-68229903D01*
X152692537Y-68208025D01*
X152615218Y-68155522D01*
X152537107Y-68073569D01*
X152528772Y-68073569D01*
X152467864Y-68229000D01*
X152249419Y-68229000D01*
X152249419Y-67792202D01*
X152560188Y-67792202D01*
X152568484Y-67861836D01*
X152591738Y-67917073D01*
X152629522Y-67961279D01*
X152678624Y-67994199D01*
X152734674Y-68014162D01*
X152799607Y-68021088D01*
X152862351Y-68012971D01*
X152908875Y-67990680D01*
X152931259Y-67967232D01*
X152945526Y-67934382D01*
X152950824Y-67888830D01*
X152944067Y-67836885D01*
X152924613Y-67793457D01*
X152892022Y-67756481D01*
X152849309Y-67730787D01*
X152782386Y-67711538D01*
X152682004Y-67701893D01*
X152560188Y-67697680D01*
X152560188Y-67792202D01*
X152249419Y-67792202D01*
X152249419Y-67464580D01*
X152258132Y-67362510D01*
X152282342Y-67279963D01*
X152320383Y-67213061D01*
X152372335Y-67159033D01*
X152435551Y-67117912D01*
X152513463Y-67086769D01*
X152609107Y-67066587D01*
X152726151Y-67059290D01*
X152846343Y-67066199D01*
G37*
G36*
X151771406Y-66633025D02*
G01*
X151705721Y-66641453D01*
X151651696Y-66665540D01*
X151625092Y-66691356D01*
X151607855Y-66729950D01*
X151601321Y-66786257D01*
X151607774Y-66841215D01*
X151624953Y-66879656D01*
X151651696Y-66906058D01*
X151705789Y-66930911D01*
X151771406Y-66939580D01*
X151838701Y-66930814D01*
X151892214Y-66906058D01*
X151918309Y-66879753D01*
X151935149Y-66841327D01*
X151941490Y-66786257D01*
X151935069Y-66729834D01*
X151918171Y-66691258D01*
X151892214Y-66665540D01*
X151838773Y-66641548D01*
X151771406Y-66633025D01*
G37*
G36*
X151615976Y-67082371D02*
G01*
X151615976Y-68229000D01*
X151928942Y-68229000D01*
X151928942Y-67082371D01*
X151615976Y-67082371D01*
G37*
G36*
X150488398Y-67888830D02*
G01*
X150496670Y-67973819D01*
X150520129Y-68045070D01*
X150558018Y-68105375D01*
X150611313Y-68156551D01*
X150673960Y-68194470D01*
X150753344Y-68223707D01*
X150853136Y-68242943D01*
X150977677Y-68249974D01*
X151093220Y-68245703D01*
X151183483Y-68234220D01*
X151268924Y-68213693D01*
X151355674Y-68182838D01*
X151355674Y-67924459D01*
X151260641Y-67962449D01*
X151156188Y-67993794D01*
X151051682Y-68014794D01*
X150967236Y-68021088D01*
X150882458Y-68012990D01*
X150835986Y-67993794D01*
X150806593Y-67961943D01*
X150797060Y-67922444D01*
X150801048Y-67894457D01*
X150812814Y-67869963D01*
X150834414Y-67847873D01*
X150881140Y-67817389D01*
X151044905Y-67741827D01*
X151146486Y-67693795D01*
X151221310Y-67650419D01*
X151282575Y-67599630D01*
X151324258Y-67541242D01*
X151348761Y-67472063D01*
X151357780Y-67380591D01*
X151349533Y-67303553D01*
X151326147Y-67239688D01*
X151288131Y-67186143D01*
X151233949Y-67141264D01*
X151147699Y-67098853D01*
X151039540Y-67071384D01*
X150904221Y-67061397D01*
X150798703Y-67066768D01*
X150700523Y-67082463D01*
X150604090Y-67109654D01*
X150501038Y-67151705D01*
X150595468Y-67376378D01*
X150755111Y-67316569D01*
X150831408Y-67298405D01*
X150908435Y-67292389D01*
X150978477Y-67299051D01*
X151018850Y-67315208D01*
X151039975Y-67337789D01*
X151047012Y-67368043D01*
X151042591Y-67393909D01*
X151029152Y-67417411D01*
X151006056Y-67438009D01*
X150959909Y-67464580D01*
X150807593Y-67531808D01*
X150712950Y-67573868D01*
X150637508Y-67614790D01*
X150573485Y-67663796D01*
X150527233Y-67721860D01*
X150506566Y-67766211D01*
X150493226Y-67821071D01*
X150488398Y-67888830D01*
G37*
G36*
X150408897Y-67082371D02*
G01*
X150066621Y-67082371D01*
X149850283Y-67727080D01*
X149825095Y-67822702D01*
X149812456Y-67926566D01*
X149806228Y-67926566D01*
X149788367Y-67822702D01*
X149762081Y-67727080D01*
X149549956Y-67082371D01*
X149214000Y-67082371D01*
X149699066Y-68376003D01*
X149751385Y-68488987D01*
X149814810Y-68576907D01*
X149889209Y-68643724D01*
X149976150Y-68693050D01*
X150071612Y-68722818D01*
X150177904Y-68733025D01*
X150269221Y-68727713D01*
X150337456Y-68716172D01*
X150337456Y-68468419D01*
X150281860Y-68476753D01*
X150213625Y-68480967D01*
X150150333Y-68473825D01*
X150099093Y-68453711D01*
X150057187Y-68421066D01*
X150007331Y-68355740D01*
X149972099Y-68277268D01*
X149953231Y-68220573D01*
X150408897Y-67082371D01*
G37*
G36*
X148585410Y-67653624D02*
G01*
X148577045Y-67484002D01*
X148552166Y-67319454D01*
X148510855Y-67159124D01*
X148451570Y-67005158D01*
X148373709Y-66862370D01*
X148276657Y-66729562D01*
X148020477Y-66729562D01*
X148107898Y-66865302D01*
X148180264Y-67009934D01*
X148237822Y-67164345D01*
X148279242Y-67323906D01*
X148304066Y-67486027D01*
X148312377Y-67651518D01*
X148304126Y-67812762D01*
X148279361Y-67972450D01*
X148237822Y-68131363D01*
X148180343Y-68285050D01*
X148108646Y-68427885D01*
X148022583Y-68560834D01*
X148276657Y-68560834D01*
X148373675Y-68432072D01*
X148451531Y-68292844D01*
X148510855Y-68141896D01*
X148552126Y-67984275D01*
X148577024Y-67821817D01*
X148585410Y-67653624D01*
G37*
G36*
X147521855Y-68229000D02*
G01*
X147958653Y-67082371D01*
X147631031Y-67082371D01*
X147410572Y-67735507D01*
X147380072Y-67857323D01*
X147366425Y-67970713D01*
X147358090Y-67970713D01*
X147343713Y-67856987D01*
X147311837Y-67735507D01*
X147091377Y-67082371D01*
X146763756Y-67082371D01*
X147200553Y-68229000D01*
X147521855Y-68229000D01*
G37*
G36*
X145897029Y-68229000D02*
G01*
X146214118Y-68229000D01*
X146214118Y-67361724D01*
X146211004Y-67218933D01*
X146205691Y-67063503D01*
X146250846Y-67108658D01*
X146314868Y-67166360D01*
X146487151Y-67305029D01*
X146640382Y-67113878D01*
X146157423Y-66729562D01*
X145897029Y-66729562D01*
X145897029Y-68229000D01*
G37*
G36*
X145444386Y-68081996D02*
G01*
X145437592Y-68019942D01*
X145419584Y-67976454D01*
X145391905Y-67946533D01*
X145334823Y-67917772D01*
X145263769Y-67907698D01*
X145194621Y-67917698D01*
X145137831Y-67946533D01*
X145110098Y-67976462D01*
X145092062Y-68019951D01*
X145085258Y-68081996D01*
X145091903Y-68141204D01*
X145109819Y-68184282D01*
X145137831Y-68215352D01*
X145194773Y-68245802D01*
X145263769Y-68256294D01*
X145334668Y-68245723D01*
X145391905Y-68215352D01*
X145419863Y-68184290D01*
X145437750Y-68141212D01*
X145444386Y-68081996D01*
G37*
G36*
X143834307Y-68229000D02*
G01*
X144882200Y-68229000D01*
X144882200Y-68008540D01*
X144506311Y-67628437D01*
X144323586Y-67432066D01*
X144261178Y-67353340D01*
X144222836Y-67289275D01*
X144199259Y-67223060D01*
X144191329Y-67151705D01*
X144197514Y-67093570D01*
X144214339Y-67049954D01*
X144240696Y-67017341D01*
X144275945Y-66993530D01*
X144319602Y-66978564D01*
X144373961Y-66973194D01*
X144458436Y-66983038D01*
X144542031Y-67013128D01*
X144623235Y-67059570D01*
X144714222Y-67126518D01*
X144886413Y-66922819D01*
X144748844Y-66817856D01*
X144672099Y-66774677D01*
X144580866Y-66739088D01*
X144479941Y-66716807D01*
X144350881Y-66708588D01*
X144254062Y-66715001D01*
X144170384Y-66733212D01*
X144097814Y-66762169D01*
X144031387Y-66802847D01*
X143977256Y-66851019D01*
X143934050Y-66907066D01*
X143902150Y-66970094D01*
X143882857Y-67038573D01*
X143876256Y-67113878D01*
X143881909Y-67195348D01*
X143898452Y-67270635D01*
X143925623Y-67340749D01*
X143984337Y-67440683D01*
X144068505Y-67544448D01*
X144167821Y-67646696D01*
X144294186Y-67767014D01*
X144487351Y-67947632D01*
X144487351Y-67962286D01*
X143834307Y-67962286D01*
X143834307Y-68229000D01*
G37*
G36*
X143138123Y-67653624D02*
G01*
X143146510Y-67821817D01*
X143171407Y-67984275D01*
X143212678Y-68141896D01*
X143271950Y-68292841D01*
X143349776Y-68432069D01*
X143446785Y-68560834D01*
X143700859Y-68560834D01*
X143613662Y-68427731D01*
X143541652Y-68284904D01*
X143484612Y-68131363D01*
X143443642Y-67972485D01*
X143419208Y-67812791D01*
X143411065Y-67651518D01*
X143419376Y-67486027D01*
X143444200Y-67323906D01*
X143485620Y-67164345D01*
X143543178Y-67009934D01*
X143615544Y-66865302D01*
X143702965Y-66729562D01*
X143446785Y-66729562D01*
X143349741Y-66862373D01*
X143271912Y-67005161D01*
X143212678Y-67159124D01*
X143171368Y-67319454D01*
X143146489Y-67484002D01*
X143138123Y-67653624D01*
G37*
D12*
X158795465Y-68653339D02*
X158795465Y-69189053D01*
X158795465Y-69189053D02*
X158831180Y-69296196D01*
X158831180Y-69296196D02*
X158902608Y-69367625D01*
X158902608Y-69367625D02*
X159009751Y-69403339D01*
X159009751Y-69403339D02*
X159081180Y-69403339D01*
X158116894Y-69403339D02*
X158116894Y-69010482D01*
X158116894Y-69010482D02*
X158152608Y-68939053D01*
X158152608Y-68939053D02*
X158224036Y-68903339D01*
X158224036Y-68903339D02*
X158366894Y-68903339D01*
X158366894Y-68903339D02*
X158438322Y-68939053D01*
X158116894Y-69367625D02*
X158188322Y-69403339D01*
X158188322Y-69403339D02*
X158366894Y-69403339D01*
X158366894Y-69403339D02*
X158438322Y-69367625D01*
X158438322Y-69367625D02*
X158474036Y-69296196D01*
X158474036Y-69296196D02*
X158474036Y-69224767D01*
X158474036Y-69224767D02*
X158438322Y-69153339D01*
X158438322Y-69153339D02*
X158366894Y-69117625D01*
X158366894Y-69117625D02*
X158188322Y-69117625D01*
X158188322Y-69117625D02*
X158116894Y-69081910D01*
X157795465Y-69367625D02*
X157724037Y-69403339D01*
X157724037Y-69403339D02*
X157581180Y-69403339D01*
X157581180Y-69403339D02*
X157509751Y-69367625D01*
X157509751Y-69367625D02*
X157474037Y-69296196D01*
X157474037Y-69296196D02*
X157474037Y-69260482D01*
X157474037Y-69260482D02*
X157509751Y-69189053D01*
X157509751Y-69189053D02*
X157581180Y-69153339D01*
X157581180Y-69153339D02*
X157688323Y-69153339D01*
X157688323Y-69153339D02*
X157759751Y-69117625D01*
X157759751Y-69117625D02*
X157795465Y-69046196D01*
X157795465Y-69046196D02*
X157795465Y-69010482D01*
X157795465Y-69010482D02*
X157759751Y-68939053D01*
X157759751Y-68939053D02*
X157688323Y-68903339D01*
X157688323Y-68903339D02*
X157581180Y-68903339D01*
X157581180Y-68903339D02*
X157509751Y-68939053D01*
X157045465Y-69403339D02*
X157116894Y-69367625D01*
X157116894Y-69367625D02*
X157152608Y-69331910D01*
X157152608Y-69331910D02*
X157188322Y-69260482D01*
X157188322Y-69260482D02*
X157188322Y-69046196D01*
X157188322Y-69046196D02*
X157152608Y-68974767D01*
X157152608Y-68974767D02*
X157116894Y-68939053D01*
X157116894Y-68939053D02*
X157045465Y-68903339D01*
X157045465Y-68903339D02*
X156938322Y-68903339D01*
X156938322Y-68903339D02*
X156866894Y-68939053D01*
X156866894Y-68939053D02*
X156831180Y-68974767D01*
X156831180Y-68974767D02*
X156795465Y-69046196D01*
X156795465Y-69046196D02*
X156795465Y-69260482D01*
X156795465Y-69260482D02*
X156831180Y-69331910D01*
X156831180Y-69331910D02*
X156866894Y-69367625D01*
X156866894Y-69367625D02*
X156938322Y-69403339D01*
X156938322Y-69403339D02*
X157045465Y-69403339D01*
X156474037Y-68903339D02*
X156474037Y-69403339D01*
X156474037Y-68974767D02*
X156438323Y-68939053D01*
X156438323Y-68939053D02*
X156366894Y-68903339D01*
X156366894Y-68903339D02*
X156259751Y-68903339D01*
X156259751Y-68903339D02*
X156188323Y-68939053D01*
X156188323Y-68939053D02*
X156152609Y-69010482D01*
X156152609Y-69010482D02*
X156152609Y-69403339D01*
X155259751Y-69189053D02*
X154902609Y-69189053D01*
X155331180Y-69403339D02*
X155081180Y-68653339D01*
X155081180Y-68653339D02*
X154831180Y-69403339D01*
X154474037Y-69403339D02*
X154545466Y-69367625D01*
X154545466Y-69367625D02*
X154581180Y-69296196D01*
X154581180Y-69296196D02*
X154581180Y-68653339D01*
X153902609Y-69367625D02*
X153974037Y-69403339D01*
X153974037Y-69403339D02*
X154116895Y-69403339D01*
X154116895Y-69403339D02*
X154188323Y-69367625D01*
X154188323Y-69367625D02*
X154224037Y-69296196D01*
X154224037Y-69296196D02*
X154224037Y-69010482D01*
X154224037Y-69010482D02*
X154188323Y-68939053D01*
X154188323Y-68939053D02*
X154116895Y-68903339D01*
X154116895Y-68903339D02*
X153974037Y-68903339D01*
X153974037Y-68903339D02*
X153902609Y-68939053D01*
X153902609Y-68939053D02*
X153866895Y-69010482D01*
X153866895Y-69010482D02*
X153866895Y-69081910D01*
X153866895Y-69081910D02*
X154224037Y-69153339D01*
X153616895Y-69403339D02*
X153224038Y-68903339D01*
X153616895Y-68903339D02*
X153224038Y-69403339D01*
X152616895Y-69403339D02*
X152616895Y-69010482D01*
X152616895Y-69010482D02*
X152652609Y-68939053D01*
X152652609Y-68939053D02*
X152724037Y-68903339D01*
X152724037Y-68903339D02*
X152866895Y-68903339D01*
X152866895Y-68903339D02*
X152938323Y-68939053D01*
X152616895Y-69367625D02*
X152688323Y-69403339D01*
X152688323Y-69403339D02*
X152866895Y-69403339D01*
X152866895Y-69403339D02*
X152938323Y-69367625D01*
X152938323Y-69367625D02*
X152974037Y-69296196D01*
X152974037Y-69296196D02*
X152974037Y-69224767D01*
X152974037Y-69224767D02*
X152938323Y-69153339D01*
X152938323Y-69153339D02*
X152866895Y-69117625D01*
X152866895Y-69117625D02*
X152688323Y-69117625D01*
X152688323Y-69117625D02*
X152616895Y-69081910D01*
X152259752Y-68903339D02*
X152259752Y-69403339D01*
X152259752Y-68974767D02*
X152224038Y-68939053D01*
X152224038Y-68939053D02*
X152152609Y-68903339D01*
X152152609Y-68903339D02*
X152045466Y-68903339D01*
X152045466Y-68903339D02*
X151974038Y-68939053D01*
X151974038Y-68939053D02*
X151938324Y-69010482D01*
X151938324Y-69010482D02*
X151938324Y-69403339D01*
X151259753Y-69403339D02*
X151259753Y-68653339D01*
X151259753Y-69367625D02*
X151331181Y-69403339D01*
X151331181Y-69403339D02*
X151474038Y-69403339D01*
X151474038Y-69403339D02*
X151545467Y-69367625D01*
X151545467Y-69367625D02*
X151581181Y-69331910D01*
X151581181Y-69331910D02*
X151616895Y-69260482D01*
X151616895Y-69260482D02*
X151616895Y-69046196D01*
X151616895Y-69046196D02*
X151581181Y-68974767D01*
X151581181Y-68974767D02*
X151545467Y-68939053D01*
X151545467Y-68939053D02*
X151474038Y-68903339D01*
X151474038Y-68903339D02*
X151331181Y-68903339D01*
X151331181Y-68903339D02*
X151259753Y-68939053D01*
X150616896Y-69367625D02*
X150688324Y-69403339D01*
X150688324Y-69403339D02*
X150831182Y-69403339D01*
X150831182Y-69403339D02*
X150902610Y-69367625D01*
X150902610Y-69367625D02*
X150938324Y-69296196D01*
X150938324Y-69296196D02*
X150938324Y-69010482D01*
X150938324Y-69010482D02*
X150902610Y-68939053D01*
X150902610Y-68939053D02*
X150831182Y-68903339D01*
X150831182Y-68903339D02*
X150688324Y-68903339D01*
X150688324Y-68903339D02*
X150616896Y-68939053D01*
X150616896Y-68939053D02*
X150581182Y-69010482D01*
X150581182Y-69010482D02*
X150581182Y-69081910D01*
X150581182Y-69081910D02*
X150938324Y-69153339D01*
X150259753Y-69403339D02*
X150259753Y-68903339D01*
X150259753Y-69046196D02*
X150224039Y-68974767D01*
X150224039Y-68974767D02*
X150188325Y-68939053D01*
X150188325Y-68939053D02*
X150116896Y-68903339D01*
X150116896Y-68903339D02*
X150045467Y-68903339D01*
D13*
X164674384Y-94411262D02*
X164674384Y-94125548D01*
X164174384Y-94268405D02*
X164674384Y-94268405D01*
X164174384Y-93958882D02*
X164674384Y-93958882D01*
X164174384Y-93744596D02*
X164436289Y-93744596D01*
X164436289Y-93744596D02*
X164483908Y-93768406D01*
X164483908Y-93768406D02*
X164507717Y-93816025D01*
X164507717Y-93816025D02*
X164507717Y-93887453D01*
X164507717Y-93887453D02*
X164483908Y-93935072D01*
X164483908Y-93935072D02*
X164460098Y-93958882D01*
X164198194Y-93316025D02*
X164174384Y-93363644D01*
X164174384Y-93363644D02*
X164174384Y-93458882D01*
X164174384Y-93458882D02*
X164198194Y-93506501D01*
X164198194Y-93506501D02*
X164245813Y-93530310D01*
X164245813Y-93530310D02*
X164436289Y-93530310D01*
X164436289Y-93530310D02*
X164483908Y-93506501D01*
X164483908Y-93506501D02*
X164507717Y-93458882D01*
X164507717Y-93458882D02*
X164507717Y-93363644D01*
X164507717Y-93363644D02*
X164483908Y-93316025D01*
X164483908Y-93316025D02*
X164436289Y-93292215D01*
X164436289Y-93292215D02*
X164388670Y-93292215D01*
X164388670Y-93292215D02*
X164341051Y-93530310D01*
X164674384Y-92768406D02*
X164674384Y-92482692D01*
X164174384Y-92625549D02*
X164674384Y-92625549D01*
X164317241Y-92339835D02*
X164317241Y-92101740D01*
X164174384Y-92387454D02*
X164674384Y-92220788D01*
X164674384Y-92220788D02*
X164174384Y-92054121D01*
X164174384Y-91887455D02*
X164674384Y-91887455D01*
X164674384Y-91887455D02*
X164674384Y-91696979D01*
X164674384Y-91696979D02*
X164650574Y-91649360D01*
X164650574Y-91649360D02*
X164626765Y-91625550D01*
X164626765Y-91625550D02*
X164579146Y-91601741D01*
X164579146Y-91601741D02*
X164507717Y-91601741D01*
X164507717Y-91601741D02*
X164460098Y-91625550D01*
X164460098Y-91625550D02*
X164436289Y-91649360D01*
X164436289Y-91649360D02*
X164412479Y-91696979D01*
X164412479Y-91696979D02*
X164412479Y-91887455D01*
X164174384Y-91101741D02*
X164412479Y-91268407D01*
X164174384Y-91387455D02*
X164674384Y-91387455D01*
X164674384Y-91387455D02*
X164674384Y-91196979D01*
X164674384Y-91196979D02*
X164650574Y-91149360D01*
X164650574Y-91149360D02*
X164626765Y-91125550D01*
X164626765Y-91125550D02*
X164579146Y-91101741D01*
X164579146Y-91101741D02*
X164507717Y-91101741D01*
X164507717Y-91101741D02*
X164460098Y-91125550D01*
X164460098Y-91125550D02*
X164436289Y-91149360D01*
X164436289Y-91149360D02*
X164412479Y-91196979D01*
X164412479Y-91196979D02*
X164412479Y-91387455D01*
X164674384Y-90411265D02*
X164674384Y-90316027D01*
X164674384Y-90316027D02*
X164650574Y-90268408D01*
X164650574Y-90268408D02*
X164602955Y-90220789D01*
X164602955Y-90220789D02*
X164507717Y-90196979D01*
X164507717Y-90196979D02*
X164341051Y-90196979D01*
X164341051Y-90196979D02*
X164245813Y-90220789D01*
X164245813Y-90220789D02*
X164198194Y-90268408D01*
X164198194Y-90268408D02*
X164174384Y-90316027D01*
X164174384Y-90316027D02*
X164174384Y-90411265D01*
X164174384Y-90411265D02*
X164198194Y-90458884D01*
X164198194Y-90458884D02*
X164245813Y-90506503D01*
X164245813Y-90506503D02*
X164341051Y-90530312D01*
X164341051Y-90530312D02*
X164507717Y-90530312D01*
X164507717Y-90530312D02*
X164602955Y-90506503D01*
X164602955Y-90506503D02*
X164650574Y-90458884D01*
X164650574Y-90458884D02*
X164674384Y-90411265D01*
X164507717Y-89982693D02*
X164007717Y-89982693D01*
X164483908Y-89982693D02*
X164507717Y-89935074D01*
X164507717Y-89935074D02*
X164507717Y-89839836D01*
X164507717Y-89839836D02*
X164483908Y-89792217D01*
X164483908Y-89792217D02*
X164460098Y-89768407D01*
X164460098Y-89768407D02*
X164412479Y-89744598D01*
X164412479Y-89744598D02*
X164269622Y-89744598D01*
X164269622Y-89744598D02*
X164222003Y-89768407D01*
X164222003Y-89768407D02*
X164198194Y-89792217D01*
X164198194Y-89792217D02*
X164174384Y-89839836D01*
X164174384Y-89839836D02*
X164174384Y-89935074D01*
X164174384Y-89935074D02*
X164198194Y-89982693D01*
X164198194Y-89339836D02*
X164174384Y-89387455D01*
X164174384Y-89387455D02*
X164174384Y-89482693D01*
X164174384Y-89482693D02*
X164198194Y-89530312D01*
X164198194Y-89530312D02*
X164245813Y-89554121D01*
X164245813Y-89554121D02*
X164436289Y-89554121D01*
X164436289Y-89554121D02*
X164483908Y-89530312D01*
X164483908Y-89530312D02*
X164507717Y-89482693D01*
X164507717Y-89482693D02*
X164507717Y-89387455D01*
X164507717Y-89387455D02*
X164483908Y-89339836D01*
X164483908Y-89339836D02*
X164436289Y-89316026D01*
X164436289Y-89316026D02*
X164388670Y-89316026D01*
X164388670Y-89316026D02*
X164341051Y-89554121D01*
X164507717Y-89101741D02*
X164174384Y-89101741D01*
X164460098Y-89101741D02*
X164483908Y-89077931D01*
X164483908Y-89077931D02*
X164507717Y-89030312D01*
X164507717Y-89030312D02*
X164507717Y-88958884D01*
X164507717Y-88958884D02*
X164483908Y-88911265D01*
X164483908Y-88911265D02*
X164436289Y-88887455D01*
X164436289Y-88887455D02*
X164174384Y-88887455D01*
X163369412Y-94339834D02*
X163869412Y-94339834D01*
X163631317Y-94339834D02*
X163631317Y-94054120D01*
X163369412Y-94054120D02*
X163869412Y-94054120D01*
X163369412Y-93601738D02*
X163631317Y-93601738D01*
X163631317Y-93601738D02*
X163678936Y-93625548D01*
X163678936Y-93625548D02*
X163702745Y-93673167D01*
X163702745Y-93673167D02*
X163702745Y-93768405D01*
X163702745Y-93768405D02*
X163678936Y-93816024D01*
X163393222Y-93601738D02*
X163369412Y-93649357D01*
X163369412Y-93649357D02*
X163369412Y-93768405D01*
X163369412Y-93768405D02*
X163393222Y-93816024D01*
X163393222Y-93816024D02*
X163440841Y-93839833D01*
X163440841Y-93839833D02*
X163488460Y-93839833D01*
X163488460Y-93839833D02*
X163536079Y-93816024D01*
X163536079Y-93816024D02*
X163559888Y-93768405D01*
X163559888Y-93768405D02*
X163559888Y-93649357D01*
X163559888Y-93649357D02*
X163583698Y-93601738D01*
X163369412Y-93363643D02*
X163702745Y-93363643D01*
X163607507Y-93363643D02*
X163655126Y-93339833D01*
X163655126Y-93339833D02*
X163678936Y-93316024D01*
X163678936Y-93316024D02*
X163702745Y-93268405D01*
X163702745Y-93268405D02*
X163702745Y-93220786D01*
X163369412Y-92839833D02*
X163869412Y-92839833D01*
X163393222Y-92839833D02*
X163369412Y-92887452D01*
X163369412Y-92887452D02*
X163369412Y-92982690D01*
X163369412Y-92982690D02*
X163393222Y-93030309D01*
X163393222Y-93030309D02*
X163417031Y-93054119D01*
X163417031Y-93054119D02*
X163464650Y-93077928D01*
X163464650Y-93077928D02*
X163607507Y-93077928D01*
X163607507Y-93077928D02*
X163655126Y-93054119D01*
X163655126Y-93054119D02*
X163678936Y-93030309D01*
X163678936Y-93030309D02*
X163702745Y-92982690D01*
X163702745Y-92982690D02*
X163702745Y-92887452D01*
X163702745Y-92887452D02*
X163678936Y-92839833D01*
X163702745Y-92649357D02*
X163369412Y-92554119D01*
X163369412Y-92554119D02*
X163607507Y-92458881D01*
X163607507Y-92458881D02*
X163369412Y-92363643D01*
X163369412Y-92363643D02*
X163702745Y-92268405D01*
X163369412Y-91863642D02*
X163631317Y-91863642D01*
X163631317Y-91863642D02*
X163678936Y-91887452D01*
X163678936Y-91887452D02*
X163702745Y-91935071D01*
X163702745Y-91935071D02*
X163702745Y-92030309D01*
X163702745Y-92030309D02*
X163678936Y-92077928D01*
X163393222Y-91863642D02*
X163369412Y-91911261D01*
X163369412Y-91911261D02*
X163369412Y-92030309D01*
X163369412Y-92030309D02*
X163393222Y-92077928D01*
X163393222Y-92077928D02*
X163440841Y-92101737D01*
X163440841Y-92101737D02*
X163488460Y-92101737D01*
X163488460Y-92101737D02*
X163536079Y-92077928D01*
X163536079Y-92077928D02*
X163559888Y-92030309D01*
X163559888Y-92030309D02*
X163559888Y-91911261D01*
X163559888Y-91911261D02*
X163583698Y-91863642D01*
X163369412Y-91625547D02*
X163702745Y-91625547D01*
X163607507Y-91625547D02*
X163655126Y-91601737D01*
X163655126Y-91601737D02*
X163678936Y-91577928D01*
X163678936Y-91577928D02*
X163702745Y-91530309D01*
X163702745Y-91530309D02*
X163702745Y-91482690D01*
X163393222Y-91125547D02*
X163369412Y-91173166D01*
X163369412Y-91173166D02*
X163369412Y-91268404D01*
X163369412Y-91268404D02*
X163393222Y-91316023D01*
X163393222Y-91316023D02*
X163440841Y-91339832D01*
X163440841Y-91339832D02*
X163631317Y-91339832D01*
X163631317Y-91339832D02*
X163678936Y-91316023D01*
X163678936Y-91316023D02*
X163702745Y-91268404D01*
X163702745Y-91268404D02*
X163702745Y-91173166D01*
X163702745Y-91173166D02*
X163678936Y-91125547D01*
X163678936Y-91125547D02*
X163631317Y-91101737D01*
X163631317Y-91101737D02*
X163583698Y-91101737D01*
X163583698Y-91101737D02*
X163536079Y-91339832D01*
X163369412Y-90268405D02*
X163369412Y-90506500D01*
X163369412Y-90506500D02*
X163869412Y-90506500D01*
X163369412Y-90101738D02*
X163702745Y-90101738D01*
X163869412Y-90101738D02*
X163845602Y-90125547D01*
X163845602Y-90125547D02*
X163821793Y-90101738D01*
X163821793Y-90101738D02*
X163845602Y-90077928D01*
X163845602Y-90077928D02*
X163869412Y-90101738D01*
X163869412Y-90101738D02*
X163821793Y-90101738D01*
X163393222Y-89649357D02*
X163369412Y-89696976D01*
X163369412Y-89696976D02*
X163369412Y-89792214D01*
X163369412Y-89792214D02*
X163393222Y-89839833D01*
X163393222Y-89839833D02*
X163417031Y-89863643D01*
X163417031Y-89863643D02*
X163464650Y-89887452D01*
X163464650Y-89887452D02*
X163607507Y-89887452D01*
X163607507Y-89887452D02*
X163655126Y-89863643D01*
X163655126Y-89863643D02*
X163678936Y-89839833D01*
X163678936Y-89839833D02*
X163702745Y-89792214D01*
X163702745Y-89792214D02*
X163702745Y-89696976D01*
X163702745Y-89696976D02*
X163678936Y-89649357D01*
X163393222Y-89244596D02*
X163369412Y-89292215D01*
X163369412Y-89292215D02*
X163369412Y-89387453D01*
X163369412Y-89387453D02*
X163393222Y-89435072D01*
X163393222Y-89435072D02*
X163440841Y-89458881D01*
X163440841Y-89458881D02*
X163631317Y-89458881D01*
X163631317Y-89458881D02*
X163678936Y-89435072D01*
X163678936Y-89435072D02*
X163702745Y-89387453D01*
X163702745Y-89387453D02*
X163702745Y-89292215D01*
X163702745Y-89292215D02*
X163678936Y-89244596D01*
X163678936Y-89244596D02*
X163631317Y-89220786D01*
X163631317Y-89220786D02*
X163583698Y-89220786D01*
X163583698Y-89220786D02*
X163536079Y-89458881D01*
X163702745Y-89006501D02*
X163369412Y-89006501D01*
X163655126Y-89006501D02*
X163678936Y-88982691D01*
X163678936Y-88982691D02*
X163702745Y-88935072D01*
X163702745Y-88935072D02*
X163702745Y-88863644D01*
X163702745Y-88863644D02*
X163678936Y-88816025D01*
X163678936Y-88816025D02*
X163631317Y-88792215D01*
X163631317Y-88792215D02*
X163369412Y-88792215D01*
X163393222Y-88577929D02*
X163369412Y-88530310D01*
X163369412Y-88530310D02*
X163369412Y-88435072D01*
X163369412Y-88435072D02*
X163393222Y-88387453D01*
X163393222Y-88387453D02*
X163440841Y-88363644D01*
X163440841Y-88363644D02*
X163464650Y-88363644D01*
X163464650Y-88363644D02*
X163512269Y-88387453D01*
X163512269Y-88387453D02*
X163536079Y-88435072D01*
X163536079Y-88435072D02*
X163536079Y-88506501D01*
X163536079Y-88506501D02*
X163559888Y-88554120D01*
X163559888Y-88554120D02*
X163607507Y-88577929D01*
X163607507Y-88577929D02*
X163631317Y-88577929D01*
X163631317Y-88577929D02*
X163678936Y-88554120D01*
X163678936Y-88554120D02*
X163702745Y-88506501D01*
X163702745Y-88506501D02*
X163702745Y-88435072D01*
X163702745Y-88435072D02*
X163678936Y-88387453D01*
X163393222Y-87958882D02*
X163369412Y-88006501D01*
X163369412Y-88006501D02*
X163369412Y-88101739D01*
X163369412Y-88101739D02*
X163393222Y-88149358D01*
X163393222Y-88149358D02*
X163440841Y-88173167D01*
X163440841Y-88173167D02*
X163631317Y-88173167D01*
X163631317Y-88173167D02*
X163678936Y-88149358D01*
X163678936Y-88149358D02*
X163702745Y-88101739D01*
X163702745Y-88101739D02*
X163702745Y-88006501D01*
X163702745Y-88006501D02*
X163678936Y-87958882D01*
X163678936Y-87958882D02*
X163631317Y-87935072D01*
X163631317Y-87935072D02*
X163583698Y-87935072D01*
X163583698Y-87935072D02*
X163536079Y-88173167D01*
X162564440Y-94339834D02*
X163064440Y-94339834D01*
X162564440Y-94125548D02*
X162826345Y-94125548D01*
X162826345Y-94125548D02*
X162873964Y-94149358D01*
X162873964Y-94149358D02*
X162897773Y-94196977D01*
X162897773Y-94196977D02*
X162897773Y-94268405D01*
X162897773Y-94268405D02*
X162873964Y-94316024D01*
X162873964Y-94316024D02*
X162850154Y-94339834D01*
X162897773Y-93958881D02*
X162897773Y-93768405D01*
X163064440Y-93887453D02*
X162635869Y-93887453D01*
X162635869Y-93887453D02*
X162588250Y-93863643D01*
X162588250Y-93863643D02*
X162564440Y-93816024D01*
X162564440Y-93816024D02*
X162564440Y-93768405D01*
X162897773Y-93673167D02*
X162897773Y-93482691D01*
X163064440Y-93601739D02*
X162635869Y-93601739D01*
X162635869Y-93601739D02*
X162588250Y-93577929D01*
X162588250Y-93577929D02*
X162564440Y-93530310D01*
X162564440Y-93530310D02*
X162564440Y-93482691D01*
X162897773Y-93316025D02*
X162397773Y-93316025D01*
X162873964Y-93316025D02*
X162897773Y-93268406D01*
X162897773Y-93268406D02*
X162897773Y-93173168D01*
X162897773Y-93173168D02*
X162873964Y-93125549D01*
X162873964Y-93125549D02*
X162850154Y-93101739D01*
X162850154Y-93101739D02*
X162802535Y-93077930D01*
X162802535Y-93077930D02*
X162659678Y-93077930D01*
X162659678Y-93077930D02*
X162612059Y-93101739D01*
X162612059Y-93101739D02*
X162588250Y-93125549D01*
X162588250Y-93125549D02*
X162564440Y-93173168D01*
X162564440Y-93173168D02*
X162564440Y-93268406D01*
X162564440Y-93268406D02*
X162588250Y-93316025D01*
X162612059Y-92863644D02*
X162588250Y-92839834D01*
X162588250Y-92839834D02*
X162564440Y-92863644D01*
X162564440Y-92863644D02*
X162588250Y-92887453D01*
X162588250Y-92887453D02*
X162612059Y-92863644D01*
X162612059Y-92863644D02*
X162564440Y-92863644D01*
X162873964Y-92863644D02*
X162850154Y-92839834D01*
X162850154Y-92839834D02*
X162826345Y-92863644D01*
X162826345Y-92863644D02*
X162850154Y-92887453D01*
X162850154Y-92887453D02*
X162873964Y-92863644D01*
X162873964Y-92863644D02*
X162826345Y-92863644D01*
X163088250Y-92268406D02*
X162445392Y-92696977D01*
X163088250Y-91744596D02*
X162445392Y-92173167D01*
X162897773Y-91625548D02*
X162564440Y-91530310D01*
X162564440Y-91530310D02*
X162802535Y-91435072D01*
X162802535Y-91435072D02*
X162564440Y-91339834D01*
X162564440Y-91339834D02*
X162897773Y-91244596D01*
X162897773Y-91101738D02*
X162564440Y-91006500D01*
X162564440Y-91006500D02*
X162802535Y-90911262D01*
X162802535Y-90911262D02*
X162564440Y-90816024D01*
X162564440Y-90816024D02*
X162897773Y-90720786D01*
X162897773Y-90577928D02*
X162564440Y-90482690D01*
X162564440Y-90482690D02*
X162802535Y-90387452D01*
X162802535Y-90387452D02*
X162564440Y-90292214D01*
X162564440Y-90292214D02*
X162897773Y-90196976D01*
X162612059Y-90006499D02*
X162588250Y-89982689D01*
X162588250Y-89982689D02*
X162564440Y-90006499D01*
X162564440Y-90006499D02*
X162588250Y-90030308D01*
X162588250Y-90030308D02*
X162612059Y-90006499D01*
X162612059Y-90006499D02*
X162564440Y-90006499D01*
X162897773Y-89839832D02*
X162897773Y-89649356D01*
X163064440Y-89768404D02*
X162635869Y-89768404D01*
X162635869Y-89768404D02*
X162588250Y-89744594D01*
X162588250Y-89744594D02*
X162564440Y-89696975D01*
X162564440Y-89696975D02*
X162564440Y-89649356D01*
X162564440Y-89268404D02*
X162826345Y-89268404D01*
X162826345Y-89268404D02*
X162873964Y-89292214D01*
X162873964Y-89292214D02*
X162897773Y-89339833D01*
X162897773Y-89339833D02*
X162897773Y-89435071D01*
X162897773Y-89435071D02*
X162873964Y-89482690D01*
X162588250Y-89268404D02*
X162564440Y-89316023D01*
X162564440Y-89316023D02*
X162564440Y-89435071D01*
X162564440Y-89435071D02*
X162588250Y-89482690D01*
X162588250Y-89482690D02*
X162635869Y-89506499D01*
X162635869Y-89506499D02*
X162683488Y-89506499D01*
X162683488Y-89506499D02*
X162731107Y-89482690D01*
X162731107Y-89482690D02*
X162754916Y-89435071D01*
X162754916Y-89435071D02*
X162754916Y-89316023D01*
X162754916Y-89316023D02*
X162778726Y-89268404D01*
X162897773Y-89030309D02*
X162397773Y-89030309D01*
X162873964Y-89030309D02*
X162897773Y-88982690D01*
X162897773Y-88982690D02*
X162897773Y-88887452D01*
X162897773Y-88887452D02*
X162873964Y-88839833D01*
X162873964Y-88839833D02*
X162850154Y-88816023D01*
X162850154Y-88816023D02*
X162802535Y-88792214D01*
X162802535Y-88792214D02*
X162659678Y-88792214D01*
X162659678Y-88792214D02*
X162612059Y-88816023D01*
X162612059Y-88816023D02*
X162588250Y-88839833D01*
X162588250Y-88839833D02*
X162564440Y-88887452D01*
X162564440Y-88887452D02*
X162564440Y-88982690D01*
X162564440Y-88982690D02*
X162588250Y-89030309D01*
X162564440Y-88577928D02*
X162897773Y-88577928D01*
X162802535Y-88577928D02*
X162850154Y-88554118D01*
X162850154Y-88554118D02*
X162873964Y-88530309D01*
X162873964Y-88530309D02*
X162897773Y-88482690D01*
X162897773Y-88482690D02*
X162897773Y-88435071D01*
X162612059Y-88268404D02*
X162588250Y-88244594D01*
X162588250Y-88244594D02*
X162564440Y-88268404D01*
X162564440Y-88268404D02*
X162588250Y-88292213D01*
X162588250Y-88292213D02*
X162612059Y-88268404D01*
X162612059Y-88268404D02*
X162564440Y-88268404D01*
X162564440Y-87958880D02*
X162588250Y-88006499D01*
X162588250Y-88006499D02*
X162612059Y-88030309D01*
X162612059Y-88030309D02*
X162659678Y-88054118D01*
X162659678Y-88054118D02*
X162802535Y-88054118D01*
X162802535Y-88054118D02*
X162850154Y-88030309D01*
X162850154Y-88030309D02*
X162873964Y-88006499D01*
X162873964Y-88006499D02*
X162897773Y-87958880D01*
X162897773Y-87958880D02*
X162897773Y-87887452D01*
X162897773Y-87887452D02*
X162873964Y-87839833D01*
X162873964Y-87839833D02*
X162850154Y-87816023D01*
X162850154Y-87816023D02*
X162802535Y-87792214D01*
X162802535Y-87792214D02*
X162659678Y-87792214D01*
X162659678Y-87792214D02*
X162612059Y-87816023D01*
X162612059Y-87816023D02*
X162588250Y-87839833D01*
X162588250Y-87839833D02*
X162564440Y-87887452D01*
X162564440Y-87887452D02*
X162564440Y-87958880D01*
X162564440Y-87577928D02*
X162897773Y-87577928D01*
X162802535Y-87577928D02*
X162850154Y-87554118D01*
X162850154Y-87554118D02*
X162873964Y-87530309D01*
X162873964Y-87530309D02*
X162897773Y-87482690D01*
X162897773Y-87482690D02*
X162897773Y-87435071D01*
X162897773Y-87054118D02*
X162493011Y-87054118D01*
X162493011Y-87054118D02*
X162445392Y-87077928D01*
X162445392Y-87077928D02*
X162421583Y-87101737D01*
X162421583Y-87101737D02*
X162397773Y-87149356D01*
X162397773Y-87149356D02*
X162397773Y-87220785D01*
X162397773Y-87220785D02*
X162421583Y-87268404D01*
X162588250Y-87054118D02*
X162564440Y-87101737D01*
X162564440Y-87101737D02*
X162564440Y-87196975D01*
X162564440Y-87196975D02*
X162588250Y-87244594D01*
X162588250Y-87244594D02*
X162612059Y-87268404D01*
X162612059Y-87268404D02*
X162659678Y-87292213D01*
X162659678Y-87292213D02*
X162802535Y-87292213D01*
X162802535Y-87292213D02*
X162850154Y-87268404D01*
X162850154Y-87268404D02*
X162873964Y-87244594D01*
X162873964Y-87244594D02*
X162897773Y-87196975D01*
X162897773Y-87196975D02*
X162897773Y-87101737D01*
X162897773Y-87101737D02*
X162873964Y-87054118D01*
X163088250Y-86458880D02*
X162445392Y-86887451D01*
X163064440Y-86196975D02*
X163064440Y-86101737D01*
X163064440Y-86101737D02*
X163040630Y-86054118D01*
X163040630Y-86054118D02*
X162993011Y-86006499D01*
X162993011Y-86006499D02*
X162897773Y-85982689D01*
X162897773Y-85982689D02*
X162731107Y-85982689D01*
X162731107Y-85982689D02*
X162635869Y-86006499D01*
X162635869Y-86006499D02*
X162588250Y-86054118D01*
X162588250Y-86054118D02*
X162564440Y-86101737D01*
X162564440Y-86101737D02*
X162564440Y-86196975D01*
X162564440Y-86196975D02*
X162588250Y-86244594D01*
X162588250Y-86244594D02*
X162635869Y-86292213D01*
X162635869Y-86292213D02*
X162731107Y-86316022D01*
X162731107Y-86316022D02*
X162897773Y-86316022D01*
X162897773Y-86316022D02*
X162993011Y-86292213D01*
X162993011Y-86292213D02*
X163040630Y-86244594D01*
X163040630Y-86244594D02*
X163064440Y-86196975D01*
X162564440Y-85768403D02*
X163064440Y-85768403D01*
X162826345Y-85768403D02*
X162826345Y-85482689D01*
X162564440Y-85482689D02*
X163064440Y-85482689D01*
X162564440Y-85006498D02*
X162564440Y-85244593D01*
X162564440Y-85244593D02*
X163064440Y-85244593D01*
%LPC*%
D14*
X132491400Y-93726000D03*
D15*
X129951400Y-93726000D03*
D16*
X119064500Y-75046000D03*
X107634500Y-75046000D03*
D17*
X117794500Y-81396000D03*
D18*
X116524500Y-83936000D03*
X115254500Y-81396000D03*
X113984500Y-83936000D03*
X112714500Y-81396000D03*
X111444500Y-83936000D03*
X110174500Y-81396000D03*
X108904500Y-83936000D03*
D14*
X124663200Y-91155600D03*
D15*
X124663200Y-93695600D03*
D14*
X129951000Y-89186000D03*
D15*
X132491000Y-89186000D03*
D16*
X159064500Y-75046000D03*
X147634500Y-75046000D03*
D17*
X157794500Y-81396000D03*
D18*
X156524500Y-83936000D03*
X155254500Y-81396000D03*
X153984500Y-83936000D03*
X152714500Y-81396000D03*
X151444500Y-83936000D03*
X150174500Y-81396000D03*
X148904500Y-83936000D03*
D14*
X120421400Y-91181000D03*
D15*
X120421400Y-93721000D03*
%LPD*%
M02*
