G04 #@! TF.GenerationSoftware,KiCad,Pcbnew,9.0.0*
G04 #@! TF.CreationDate,2025-04-21T00:28:36+01:00*
G04 #@! TF.ProjectId,PicoChainReference,5069636f-4368-4616-996e-526566657265,v1.2*
G04 #@! TF.SameCoordinates,Original*
G04 #@! TF.FileFunction,Copper,L2,Inr*
G04 #@! TF.FilePolarity,Positive*
%FSLAX46Y46*%
G04 Gerber Fmt 4.6, Leading zero omitted, Abs format (unit mm)*
G04 Created by KiCad (PCBNEW 9.0.0) date 2025-04-21 00:28:36*
%MOMM*%
%LPD*%
G01*
G04 APERTURE LIST*
G04 #@! TA.AperFunction,ComponentPad*
%ADD10R,1.700000X1.700000*%
G04 #@! TD*
G04 #@! TA.AperFunction,ComponentPad*
%ADD11O,1.700000X1.700000*%
G04 #@! TD*
G04 #@! TA.AperFunction,ComponentPad*
%ADD12R,1.500000X1.500000*%
G04 #@! TD*
G04 #@! TA.AperFunction,ComponentPad*
%ADD13C,1.500000*%
G04 #@! TD*
G04 #@! TA.AperFunction,ViaPad*
%ADD14C,0.600000*%
G04 #@! TD*
G04 APERTURE END LIST*
D10*
X132491400Y-93726000D03*
D11*
X129951400Y-93726000D03*
D12*
X117794500Y-81396000D03*
D13*
X116524500Y-83936000D03*
X115254500Y-81396000D03*
X113984500Y-83936000D03*
X112714500Y-81396000D03*
X111444500Y-83936000D03*
X110174500Y-81396000D03*
X108904500Y-83936000D03*
D10*
X124663200Y-91155600D03*
D11*
X124663200Y-93695600D03*
D10*
X129951000Y-89186000D03*
D11*
X132491000Y-89186000D03*
D12*
X157794500Y-81396000D03*
D13*
X156524500Y-83936000D03*
X155254500Y-81396000D03*
X153984500Y-83936000D03*
X152714500Y-81396000D03*
X151444500Y-83936000D03*
X150174500Y-81396000D03*
X148904500Y-83936000D03*
D10*
X120421400Y-91181000D03*
D11*
X120421400Y-93721000D03*
D14*
X121462800Y-87071200D03*
X142341600Y-76428600D03*
X110236000Y-89585800D03*
X121005600Y-80518000D03*
X153517600Y-78486000D03*
X130124200Y-81813400D03*
X136550400Y-94919800D03*
X144576800Y-87985600D03*
X134162800Y-80492600D03*
X132232400Y-76377800D03*
X121005600Y-76327000D03*
X149809200Y-77444600D03*
X116000000Y-90932000D03*
X143260500Y-87630000D03*
X110250000Y-88392000D03*
X119761000Y-86741000D03*
X121031000Y-77470000D03*
X142330500Y-77486000D03*
X132207000Y-77470000D03*
X133385000Y-79534000D03*
X121031000Y-79502000D03*
X153578000Y-79534000D03*
X131953000Y-82677000D03*
X121031000Y-78486000D03*
X132842000Y-78502000D03*
X149820500Y-78502000D03*
G04 #@! TA.AperFunction,Conductor*
G36*
X167442539Y-66520185D02*
G01*
X167488294Y-66572989D01*
X167499500Y-66624500D01*
X167499500Y-99375500D01*
X167479815Y-99442539D01*
X167427011Y-99488294D01*
X167375500Y-99499500D01*
X100624500Y-99499500D01*
X100557461Y-99479815D01*
X100511706Y-99427011D01*
X100500500Y-99375500D01*
X100500500Y-90853153D01*
X115199500Y-90853153D01*
X115199500Y-91010846D01*
X115230261Y-91165489D01*
X115230264Y-91165501D01*
X115290602Y-91311172D01*
X115290609Y-91311185D01*
X115378210Y-91442288D01*
X115378213Y-91442292D01*
X115489707Y-91553786D01*
X115489711Y-91553789D01*
X115620814Y-91641390D01*
X115620827Y-91641397D01*
X115766498Y-91701735D01*
X115766503Y-91701737D01*
X115921153Y-91732499D01*
X115921156Y-91732500D01*
X115921158Y-91732500D01*
X116078844Y-91732500D01*
X116078845Y-91732499D01*
X116233497Y-91701737D01*
X116379179Y-91641394D01*
X116510289Y-91553789D01*
X116621789Y-91442289D01*
X116709394Y-91311179D01*
X116769737Y-91165497D01*
X116800500Y-91010842D01*
X116800500Y-90853158D01*
X116800500Y-90853155D01*
X116800499Y-90853153D01*
X116769738Y-90698510D01*
X116769737Y-90698503D01*
X116769735Y-90698498D01*
X116709397Y-90552827D01*
X116709390Y-90552814D01*
X116621789Y-90421711D01*
X116621786Y-90421707D01*
X116510292Y-90310213D01*
X116510288Y-90310210D01*
X116469768Y-90283135D01*
X119070900Y-90283135D01*
X119070900Y-92078870D01*
X119070901Y-92078876D01*
X119077308Y-92138483D01*
X119127602Y-92273328D01*
X119127606Y-92273335D01*
X119213852Y-92388544D01*
X119213855Y-92388547D01*
X119329064Y-92474793D01*
X119329071Y-92474797D01*
X119391302Y-92498007D01*
X119460998Y-92524002D01*
X119516931Y-92565873D01*
X119541349Y-92631337D01*
X119526498Y-92699610D01*
X119505347Y-92727865D01*
X119391671Y-92841541D01*
X119266779Y-93013442D01*
X119170304Y-93202782D01*
X119104642Y-93404870D01*
X119104642Y-93404873D01*
X119094169Y-93471000D01*
X119988388Y-93471000D01*
X119955475Y-93528007D01*
X119921400Y-93655174D01*
X119921400Y-93786826D01*
X119955475Y-93913993D01*
X119988388Y-93971000D01*
X119094169Y-93971000D01*
X119104642Y-94037126D01*
X119104642Y-94037129D01*
X119170304Y-94239217D01*
X119266779Y-94428557D01*
X119391672Y-94600459D01*
X119391676Y-94600464D01*
X119541935Y-94750723D01*
X119541940Y-94750727D01*
X119713842Y-94875620D01*
X119903182Y-94972095D01*
X120105271Y-95037757D01*
X120171400Y-95048231D01*
X120171400Y-94154012D01*
X120228407Y-94186925D01*
X120355574Y-94221000D01*
X120487226Y-94221000D01*
X120614393Y-94186925D01*
X120671400Y-94154012D01*
X120671400Y-95048230D01*
X120737526Y-95037757D01*
X120737529Y-95037757D01*
X120939617Y-94972095D01*
X121128957Y-94875620D01*
X121300859Y-94750727D01*
X121300864Y-94750723D01*
X121451123Y-94600464D01*
X121451127Y-94600459D01*
X121576020Y-94428557D01*
X121672495Y-94239217D01*
X121738157Y-94037129D01*
X121738157Y-94037126D01*
X121748631Y-93971000D01*
X120854412Y-93971000D01*
X120887325Y-93913993D01*
X120921400Y-93786826D01*
X120921400Y-93655174D01*
X120887325Y-93528007D01*
X120854412Y-93471000D01*
X121748631Y-93471000D01*
X121738157Y-93404873D01*
X121738157Y-93404870D01*
X121672495Y-93202782D01*
X121576020Y-93013442D01*
X121451127Y-92841540D01*
X121451123Y-92841535D01*
X121337453Y-92727865D01*
X121303968Y-92666542D01*
X121308952Y-92596850D01*
X121350824Y-92540917D01*
X121381800Y-92524002D01*
X121513731Y-92474796D01*
X121628946Y-92388546D01*
X121715196Y-92273331D01*
X121765491Y-92138483D01*
X121771900Y-92078873D01*
X121771899Y-90283128D01*
X121769169Y-90257735D01*
X123312700Y-90257735D01*
X123312700Y-92053470D01*
X123312701Y-92053476D01*
X123319108Y-92113083D01*
X123369402Y-92247928D01*
X123369406Y-92247935D01*
X123455652Y-92363144D01*
X123455655Y-92363147D01*
X123570864Y-92449393D01*
X123570871Y-92449397D01*
X123570874Y-92449398D01*
X123702798Y-92498602D01*
X123758731Y-92540473D01*
X123783149Y-92605937D01*
X123768298Y-92674210D01*
X123747147Y-92702465D01*
X123633471Y-92816141D01*
X123508579Y-92988042D01*
X123412104Y-93177382D01*
X123346442Y-93379470D01*
X123346442Y-93379473D01*
X123335969Y-93445600D01*
X124230188Y-93445600D01*
X124197275Y-93502607D01*
X124163200Y-93629774D01*
X124163200Y-93761426D01*
X124197275Y-93888593D01*
X124230188Y-93945600D01*
X123335969Y-93945600D01*
X123346442Y-94011726D01*
X123346442Y-94011729D01*
X123412104Y-94213817D01*
X123508579Y-94403157D01*
X123633472Y-94575059D01*
X123633476Y-94575064D01*
X123783735Y-94725323D01*
X123783740Y-94725327D01*
X123955642Y-94850220D01*
X124144982Y-94946695D01*
X124347071Y-95012357D01*
X124413200Y-95022831D01*
X124413200Y-94128612D01*
X124470207Y-94161525D01*
X124597374Y-94195600D01*
X124729026Y-94195600D01*
X124856193Y-94161525D01*
X124913200Y-94128612D01*
X124913200Y-95022830D01*
X124979326Y-95012357D01*
X124979329Y-95012357D01*
X125181417Y-94946695D01*
X125370757Y-94850220D01*
X125542659Y-94725327D01*
X125542664Y-94725323D01*
X125692923Y-94575064D01*
X125692927Y-94575059D01*
X125817820Y-94403157D01*
X125914295Y-94213817D01*
X125979957Y-94011729D01*
X125979957Y-94011726D01*
X125990431Y-93945600D01*
X125096212Y-93945600D01*
X125129125Y-93888593D01*
X125163200Y-93761426D01*
X125163200Y-93629774D01*
X125129125Y-93502607D01*
X125113763Y-93476000D01*
X128624169Y-93476000D01*
X129518388Y-93476000D01*
X129485475Y-93533007D01*
X129451400Y-93660174D01*
X129451400Y-93791826D01*
X129485475Y-93918993D01*
X129518388Y-93976000D01*
X128624169Y-93976000D01*
X128634642Y-94042126D01*
X128634642Y-94042129D01*
X128700304Y-94244217D01*
X128796779Y-94433557D01*
X128921672Y-94605459D01*
X128921676Y-94605464D01*
X129071935Y-94755723D01*
X129071940Y-94755727D01*
X129243842Y-94880620D01*
X129433182Y-94977095D01*
X129635271Y-95042757D01*
X129701400Y-95053231D01*
X129701400Y-94159012D01*
X129758407Y-94191925D01*
X129885574Y-94226000D01*
X130017226Y-94226000D01*
X130144393Y-94191925D01*
X130201400Y-94159012D01*
X130201400Y-95053230D01*
X130267526Y-95042757D01*
X130267529Y-95042757D01*
X130469617Y-94977095D01*
X130658957Y-94880620D01*
X130830858Y-94755728D01*
X130944533Y-94642053D01*
X131005856Y-94608568D01*
X131075548Y-94613552D01*
X131131482Y-94655423D01*
X131148397Y-94686401D01*
X131197602Y-94818328D01*
X131197606Y-94818335D01*
X131283852Y-94933544D01*
X131283855Y-94933547D01*
X131399064Y-95019793D01*
X131399071Y-95019797D01*
X131533917Y-95070091D01*
X131533916Y-95070091D01*
X131540844Y-95070835D01*
X131593527Y-95076500D01*
X133389272Y-95076499D01*
X133448883Y-95070091D01*
X133583731Y-95019796D01*
X133698946Y-94933546D01*
X133785196Y-94818331D01*
X133835491Y-94683483D01*
X133841900Y-94623873D01*
X133841899Y-92828128D01*
X133835491Y-92768517D01*
X133834402Y-92765598D01*
X133785197Y-92633671D01*
X133785193Y-92633664D01*
X133698947Y-92518455D01*
X133698944Y-92518452D01*
X133583735Y-92432206D01*
X133583728Y-92432202D01*
X133448882Y-92381908D01*
X133448883Y-92381908D01*
X133389283Y-92375501D01*
X133389281Y-92375500D01*
X133389273Y-92375500D01*
X133389264Y-92375500D01*
X131593529Y-92375500D01*
X131593523Y-92375501D01*
X131533916Y-92381908D01*
X131399071Y-92432202D01*
X131399064Y-92432206D01*
X131283855Y-92518452D01*
X131283852Y-92518455D01*
X131197606Y-92633664D01*
X131197602Y-92633671D01*
X131148397Y-92765598D01*
X131106526Y-92821532D01*
X131041061Y-92845949D01*
X130972788Y-92831097D01*
X130944534Y-92809946D01*
X130830864Y-92696276D01*
X130830859Y-92696272D01*
X130658957Y-92571379D01*
X130469615Y-92474903D01*
X130267524Y-92409241D01*
X130201400Y-92398768D01*
X130201400Y-93292988D01*
X130144393Y-93260075D01*
X130017226Y-93226000D01*
X129885574Y-93226000D01*
X129758407Y-93260075D01*
X129701400Y-93292988D01*
X129701400Y-92398768D01*
X129701399Y-92398768D01*
X129635275Y-92409241D01*
X129433184Y-92474903D01*
X129243842Y-92571379D01*
X129071940Y-92696272D01*
X129071935Y-92696276D01*
X128921676Y-92846535D01*
X128921672Y-92846540D01*
X128796779Y-93018442D01*
X128700304Y-93207782D01*
X128634642Y-93409870D01*
X128634642Y-93409873D01*
X128624169Y-93476000D01*
X125113763Y-93476000D01*
X125096212Y-93445600D01*
X125990431Y-93445600D01*
X125979957Y-93379473D01*
X125979957Y-93379470D01*
X125914295Y-93177382D01*
X125817820Y-92988042D01*
X125692927Y-92816140D01*
X125692923Y-92816135D01*
X125579253Y-92702465D01*
X125545768Y-92641142D01*
X125550752Y-92571450D01*
X125592624Y-92515517D01*
X125623600Y-92498602D01*
X125755531Y-92449396D01*
X125870746Y-92363146D01*
X125956996Y-92247931D01*
X126007291Y-92113083D01*
X126013700Y-92053473D01*
X126013699Y-90257728D01*
X126007291Y-90198117D01*
X125993918Y-90162263D01*
X125956997Y-90063271D01*
X125956993Y-90063264D01*
X125870747Y-89948055D01*
X125870744Y-89948052D01*
X125755535Y-89861806D01*
X125755528Y-89861802D01*
X125620682Y-89811508D01*
X125620683Y-89811508D01*
X125561083Y-89805101D01*
X125561081Y-89805100D01*
X125561073Y-89805100D01*
X125561064Y-89805100D01*
X123765329Y-89805100D01*
X123765323Y-89805101D01*
X123705716Y-89811508D01*
X123570871Y-89861802D01*
X123570864Y-89861806D01*
X123455655Y-89948052D01*
X123455652Y-89948055D01*
X123369406Y-90063264D01*
X123369402Y-90063271D01*
X123319108Y-90198117D01*
X123312701Y-90257716D01*
X123312701Y-90257723D01*
X123312700Y-90257735D01*
X121769169Y-90257735D01*
X121765491Y-90223517D01*
X121765152Y-90222609D01*
X121715197Y-90088671D01*
X121715193Y-90088664D01*
X121628947Y-89973455D01*
X121628944Y-89973452D01*
X121513735Y-89887206D01*
X121513728Y-89887202D01*
X121378882Y-89836908D01*
X121378883Y-89836908D01*
X121319283Y-89830501D01*
X121319281Y-89830500D01*
X121319273Y-89830500D01*
X121319264Y-89830500D01*
X119523529Y-89830500D01*
X119523523Y-89830501D01*
X119463916Y-89836908D01*
X119329071Y-89887202D01*
X119329064Y-89887206D01*
X119213855Y-89973452D01*
X119213852Y-89973455D01*
X119127606Y-90088664D01*
X119127602Y-90088671D01*
X119077308Y-90223517D01*
X119070901Y-90283116D01*
X119070900Y-90283135D01*
X116469768Y-90283135D01*
X116379185Y-90222609D01*
X116379172Y-90222602D01*
X116233501Y-90162264D01*
X116233489Y-90162261D01*
X116078845Y-90131500D01*
X116078842Y-90131500D01*
X115921158Y-90131500D01*
X115921155Y-90131500D01*
X115766510Y-90162261D01*
X115766498Y-90162264D01*
X115620827Y-90222602D01*
X115620814Y-90222609D01*
X115489711Y-90310210D01*
X115489707Y-90310213D01*
X115378213Y-90421707D01*
X115378210Y-90421711D01*
X115290609Y-90552814D01*
X115290602Y-90552827D01*
X115230264Y-90698498D01*
X115230261Y-90698510D01*
X115199500Y-90853153D01*
X100500500Y-90853153D01*
X100500500Y-88313153D01*
X109449500Y-88313153D01*
X109449500Y-88470846D01*
X109480261Y-88625489D01*
X109480264Y-88625501D01*
X109540602Y-88771172D01*
X109540609Y-88771185D01*
X109628210Y-88902288D01*
X109628213Y-88902292D01*
X109739707Y-89013786D01*
X109739711Y-89013789D01*
X109870814Y-89101390D01*
X109870827Y-89101397D01*
X110016498Y-89161735D01*
X110016503Y-89161737D01*
X110171153Y-89192499D01*
X110171156Y-89192500D01*
X110171158Y-89192500D01*
X110328844Y-89192500D01*
X110328845Y-89192499D01*
X110483497Y-89161737D01*
X110629179Y-89101394D01*
X110760289Y-89013789D01*
X110871789Y-88902289D01*
X110959394Y-88771179D01*
X111019737Y-88625497D01*
X111050500Y-88470842D01*
X111050500Y-88313158D01*
X111050500Y-88313155D01*
X111050499Y-88313153D01*
X111049673Y-88308997D01*
X111045523Y-88288135D01*
X128600500Y-88288135D01*
X128600500Y-90083870D01*
X128600501Y-90083876D01*
X128606908Y-90143483D01*
X128657202Y-90278328D01*
X128657206Y-90278335D01*
X128743452Y-90393544D01*
X128743455Y-90393547D01*
X128858664Y-90479793D01*
X128858671Y-90479797D01*
X128993517Y-90530091D01*
X128993516Y-90530091D01*
X129000444Y-90530835D01*
X129053127Y-90536500D01*
X130848872Y-90536499D01*
X130908483Y-90530091D01*
X131043331Y-90479796D01*
X131158546Y-90393546D01*
X131244796Y-90278331D01*
X131293810Y-90146916D01*
X131335681Y-90090984D01*
X131401145Y-90066566D01*
X131469418Y-90081417D01*
X131497673Y-90102569D01*
X131611213Y-90216109D01*
X131783179Y-90341048D01*
X131783181Y-90341049D01*
X131783184Y-90341051D01*
X131972588Y-90437557D01*
X132174757Y-90503246D01*
X132384713Y-90536500D01*
X132384714Y-90536500D01*
X132597286Y-90536500D01*
X132597287Y-90536500D01*
X132807243Y-90503246D01*
X133009412Y-90437557D01*
X133198816Y-90341051D01*
X133278531Y-90283135D01*
X133370786Y-90216109D01*
X133370788Y-90216106D01*
X133370792Y-90216104D01*
X133521104Y-90065792D01*
X133521106Y-90065788D01*
X133521109Y-90065786D01*
X133646048Y-89893820D01*
X133646047Y-89893820D01*
X133646051Y-89893816D01*
X133742557Y-89704412D01*
X133808246Y-89502243D01*
X133841500Y-89292287D01*
X133841500Y-89079713D01*
X133808246Y-88869757D01*
X133742557Y-88667588D01*
X133646051Y-88478184D01*
X133646049Y-88478181D01*
X133646048Y-88478179D01*
X133521109Y-88306213D01*
X133370786Y-88155890D01*
X133198820Y-88030951D01*
X133009414Y-87934444D01*
X133009413Y-87934443D01*
X133009412Y-87934443D01*
X132807243Y-87868754D01*
X132807241Y-87868753D01*
X132807240Y-87868753D01*
X132645957Y-87843208D01*
X132597287Y-87835500D01*
X132384713Y-87835500D01*
X132336042Y-87843208D01*
X132174760Y-87868753D01*
X131972585Y-87934444D01*
X131783179Y-88030951D01*
X131611215Y-88155889D01*
X131497673Y-88269431D01*
X131436350Y-88302915D01*
X131366658Y-88297931D01*
X131310725Y-88256059D01*
X131293810Y-88225082D01*
X131244797Y-88093671D01*
X131244793Y-88093664D01*
X131158547Y-87978455D01*
X131158544Y-87978452D01*
X131043335Y-87892206D01*
X131043328Y-87892202D01*
X130908482Y-87841908D01*
X130908483Y-87841908D01*
X130848883Y-87835501D01*
X130848881Y-87835500D01*
X130848873Y-87835500D01*
X130848864Y-87835500D01*
X129053129Y-87835500D01*
X129053123Y-87835501D01*
X128993516Y-87841908D01*
X128858671Y-87892202D01*
X128858664Y-87892206D01*
X128743455Y-87978452D01*
X128743452Y-87978455D01*
X128657206Y-88093664D01*
X128657202Y-88093671D01*
X128606908Y-88228517D01*
X128600501Y-88288116D01*
X128600500Y-88288135D01*
X111045523Y-88288135D01*
X111019738Y-88158510D01*
X111019737Y-88158503D01*
X110966903Y-88030949D01*
X110959397Y-88012827D01*
X110959390Y-88012814D01*
X110871789Y-87881711D01*
X110871786Y-87881707D01*
X110760292Y-87770213D01*
X110760288Y-87770210D01*
X110629185Y-87682609D01*
X110629172Y-87682602D01*
X110483501Y-87622264D01*
X110483489Y-87622261D01*
X110328845Y-87591500D01*
X110328842Y-87591500D01*
X110171158Y-87591500D01*
X110171155Y-87591500D01*
X110016510Y-87622261D01*
X110016498Y-87622264D01*
X109870827Y-87682602D01*
X109870814Y-87682609D01*
X109739711Y-87770210D01*
X109739707Y-87770213D01*
X109628213Y-87881707D01*
X109628210Y-87881711D01*
X109540609Y-88012814D01*
X109540602Y-88012827D01*
X109480264Y-88158498D01*
X109480261Y-88158510D01*
X109449500Y-88313153D01*
X100500500Y-88313153D01*
X100500500Y-87551153D01*
X142460000Y-87551153D01*
X142460000Y-87708846D01*
X142490761Y-87863489D01*
X142490764Y-87863501D01*
X142551102Y-88009172D01*
X142551109Y-88009185D01*
X142638710Y-88140288D01*
X142638713Y-88140292D01*
X142750207Y-88251786D01*
X142750211Y-88251789D01*
X142881314Y-88339390D01*
X142881327Y-88339397D01*
X143026998Y-88399735D01*
X143027003Y-88399737D01*
X143181653Y-88430499D01*
X143181656Y-88430500D01*
X143181658Y-88430500D01*
X143339344Y-88430500D01*
X143339345Y-88430499D01*
X143493997Y-88399737D01*
X143639679Y-88339394D01*
X143770789Y-88251789D01*
X143882289Y-88140289D01*
X143969894Y-88009179D01*
X144030237Y-87863497D01*
X144061000Y-87708842D01*
X144061000Y-87551158D01*
X144061000Y-87551155D01*
X144060999Y-87551153D01*
X144040957Y-87450397D01*
X144030237Y-87396503D01*
X144016271Y-87362786D01*
X143969897Y-87250827D01*
X143969890Y-87250814D01*
X143882289Y-87119711D01*
X143882286Y-87119707D01*
X143770792Y-87008213D01*
X143770788Y-87008210D01*
X143639685Y-86920609D01*
X143639672Y-86920602D01*
X143494001Y-86860264D01*
X143493989Y-86860261D01*
X143339345Y-86829500D01*
X143339342Y-86829500D01*
X143181658Y-86829500D01*
X143181655Y-86829500D01*
X143027010Y-86860261D01*
X143026998Y-86860264D01*
X142881327Y-86920602D01*
X142881314Y-86920609D01*
X142750211Y-87008210D01*
X142750207Y-87008213D01*
X142638713Y-87119707D01*
X142638710Y-87119711D01*
X142551109Y-87250814D01*
X142551102Y-87250827D01*
X142490764Y-87396498D01*
X142490761Y-87396510D01*
X142460000Y-87551153D01*
X100500500Y-87551153D01*
X100500500Y-86662153D01*
X118960500Y-86662153D01*
X118960500Y-86819846D01*
X118991261Y-86974489D01*
X118991264Y-86974501D01*
X119051602Y-87120172D01*
X119051609Y-87120185D01*
X119139210Y-87251288D01*
X119139213Y-87251292D01*
X119250707Y-87362786D01*
X119250711Y-87362789D01*
X119381814Y-87450390D01*
X119381827Y-87450397D01*
X119527498Y-87510735D01*
X119527503Y-87510737D01*
X119682153Y-87541499D01*
X119682156Y-87541500D01*
X119682158Y-87541500D01*
X119839844Y-87541500D01*
X119839845Y-87541499D01*
X119994497Y-87510737D01*
X120140179Y-87450394D01*
X120271289Y-87362789D01*
X120382789Y-87251289D01*
X120470394Y-87120179D01*
X120530737Y-86974497D01*
X120561500Y-86819842D01*
X120561500Y-86662158D01*
X120561500Y-86662155D01*
X120561499Y-86662153D01*
X120530738Y-86507510D01*
X120530737Y-86507503D01*
X120530735Y-86507498D01*
X120470397Y-86361827D01*
X120470390Y-86361814D01*
X120382789Y-86230711D01*
X120382786Y-86230707D01*
X120271292Y-86119213D01*
X120271288Y-86119210D01*
X120140185Y-86031609D01*
X120140172Y-86031602D01*
X119994501Y-85971264D01*
X119994489Y-85971261D01*
X119839845Y-85940500D01*
X119839842Y-85940500D01*
X119682158Y-85940500D01*
X119682155Y-85940500D01*
X119527510Y-85971261D01*
X119527498Y-85971264D01*
X119381827Y-86031602D01*
X119381814Y-86031609D01*
X119250711Y-86119210D01*
X119250707Y-86119213D01*
X119139213Y-86230707D01*
X119139210Y-86230711D01*
X119051609Y-86361814D01*
X119051602Y-86361827D01*
X118991264Y-86507498D01*
X118991261Y-86507510D01*
X118960500Y-86662153D01*
X100500500Y-86662153D01*
X100500500Y-83837577D01*
X107654000Y-83837577D01*
X107654000Y-84034422D01*
X107684790Y-84228826D01*
X107745617Y-84416029D01*
X107834975Y-84591403D01*
X107834976Y-84591405D01*
X107950672Y-84750646D01*
X108089854Y-84889828D01*
X108249095Y-85005524D01*
X108331955Y-85047743D01*
X108424470Y-85094882D01*
X108424472Y-85094882D01*
X108424475Y-85094884D01*
X108524817Y-85127487D01*
X108611673Y-85155709D01*
X108806078Y-85186500D01*
X108806083Y-85186500D01*
X109002922Y-85186500D01*
X109197326Y-85155709D01*
X109384525Y-85094884D01*
X109559905Y-85005524D01*
X109719146Y-84889828D01*
X109858328Y-84750646D01*
X109974024Y-84591405D01*
X110063384Y-84416025D01*
X110064015Y-84414787D01*
X110111989Y-84363990D01*
X110179810Y-84347195D01*
X110245945Y-84369732D01*
X110284985Y-84414787D01*
X110374974Y-84591403D01*
X110409734Y-84639246D01*
X110490672Y-84750646D01*
X110629854Y-84889828D01*
X110789095Y-85005524D01*
X110871955Y-85047743D01*
X110964470Y-85094882D01*
X110964472Y-85094882D01*
X110964475Y-85094884D01*
X111064817Y-85127487D01*
X111151673Y-85155709D01*
X111346078Y-85186500D01*
X111346083Y-85186500D01*
X111542922Y-85186500D01*
X111737326Y-85155709D01*
X111924525Y-85094884D01*
X112099905Y-85005524D01*
X112259146Y-84889828D01*
X112398328Y-84750646D01*
X112514024Y-84591405D01*
X112603384Y-84416025D01*
X112604015Y-84414787D01*
X112651989Y-84363990D01*
X112719810Y-84347195D01*
X112785945Y-84369732D01*
X112824985Y-84414787D01*
X112914974Y-84591403D01*
X112949734Y-84639246D01*
X113030672Y-84750646D01*
X113169854Y-84889828D01*
X113329095Y-85005524D01*
X113411955Y-85047743D01*
X113504470Y-85094882D01*
X113504472Y-85094882D01*
X113504475Y-85094884D01*
X113604817Y-85127487D01*
X113691673Y-85155709D01*
X113886078Y-85186500D01*
X113886083Y-85186500D01*
X114082922Y-85186500D01*
X114277326Y-85155709D01*
X114464525Y-85094884D01*
X114639905Y-85005524D01*
X114799146Y-84889828D01*
X114938328Y-84750646D01*
X115054024Y-84591405D01*
X115143384Y-84416025D01*
X115144015Y-84414787D01*
X115191989Y-84363990D01*
X115259810Y-84347195D01*
X115325945Y-84369732D01*
X115364985Y-84414787D01*
X115454974Y-84591403D01*
X115489734Y-84639246D01*
X115570672Y-84750646D01*
X115709854Y-84889828D01*
X115869095Y-85005524D01*
X115951955Y-85047743D01*
X116044470Y-85094882D01*
X116044472Y-85094882D01*
X116044475Y-85094884D01*
X116144817Y-85127487D01*
X116231673Y-85155709D01*
X116426078Y-85186500D01*
X116426083Y-85186500D01*
X116622922Y-85186500D01*
X116817326Y-85155709D01*
X117004525Y-85094884D01*
X117179905Y-85005524D01*
X117339146Y-84889828D01*
X117478328Y-84750646D01*
X117594024Y-84591405D01*
X117683384Y-84416025D01*
X117744209Y-84228826D01*
X117775000Y-84034422D01*
X117775000Y-83837577D01*
X147654000Y-83837577D01*
X147654000Y-84034422D01*
X147684790Y-84228826D01*
X147745617Y-84416029D01*
X147834975Y-84591403D01*
X147834976Y-84591405D01*
X147950672Y-84750646D01*
X148089854Y-84889828D01*
X148249095Y-85005524D01*
X148331955Y-85047743D01*
X148424470Y-85094882D01*
X148424472Y-85094882D01*
X148424475Y-85094884D01*
X148524817Y-85127487D01*
X148611673Y-85155709D01*
X148806078Y-85186500D01*
X148806083Y-85186500D01*
X149002922Y-85186500D01*
X149197326Y-85155709D01*
X149384525Y-85094884D01*
X149559905Y-85005524D01*
X149719146Y-84889828D01*
X149858328Y-84750646D01*
X149974024Y-84591405D01*
X150063384Y-84416025D01*
X150064015Y-84414787D01*
X150111989Y-84363990D01*
X150179810Y-84347195D01*
X150245945Y-84369732D01*
X150284985Y-84414787D01*
X150374974Y-84591403D01*
X150409734Y-84639246D01*
X150490672Y-84750646D01*
X150629854Y-84889828D01*
X150789095Y-85005524D01*
X150871955Y-85047743D01*
X150964470Y-85094882D01*
X150964472Y-85094882D01*
X150964475Y-85094884D01*
X151064817Y-85127487D01*
X151151673Y-85155709D01*
X151346078Y-85186500D01*
X151346083Y-85186500D01*
X151542922Y-85186500D01*
X151737326Y-85155709D01*
X151924525Y-85094884D01*
X152099905Y-85005524D01*
X152259146Y-84889828D01*
X152398328Y-84750646D01*
X152514024Y-84591405D01*
X152603384Y-84416025D01*
X152604015Y-84414787D01*
X152651989Y-84363990D01*
X152719810Y-84347195D01*
X152785945Y-84369732D01*
X152824985Y-84414787D01*
X152914974Y-84591403D01*
X152949734Y-84639246D01*
X153030672Y-84750646D01*
X153169854Y-84889828D01*
X153329095Y-85005524D01*
X153411955Y-85047743D01*
X153504470Y-85094882D01*
X153504472Y-85094882D01*
X153504475Y-85094884D01*
X153604817Y-85127487D01*
X153691673Y-85155709D01*
X153886078Y-85186500D01*
X153886083Y-85186500D01*
X154082922Y-85186500D01*
X154277326Y-85155709D01*
X154464525Y-85094884D01*
X154639905Y-85005524D01*
X154799146Y-84889828D01*
X154938328Y-84750646D01*
X155054024Y-84591405D01*
X155143384Y-84416025D01*
X155144015Y-84414787D01*
X155191989Y-84363990D01*
X155259810Y-84347195D01*
X155325945Y-84369732D01*
X155364985Y-84414787D01*
X155454974Y-84591403D01*
X155489734Y-84639246D01*
X155570672Y-84750646D01*
X155709854Y-84889828D01*
X155869095Y-85005524D01*
X155951955Y-85047743D01*
X156044470Y-85094882D01*
X156044472Y-85094882D01*
X156044475Y-85094884D01*
X156144817Y-85127487D01*
X156231673Y-85155709D01*
X156426078Y-85186500D01*
X156426083Y-85186500D01*
X156622922Y-85186500D01*
X156817326Y-85155709D01*
X157004525Y-85094884D01*
X157179905Y-85005524D01*
X157339146Y-84889828D01*
X157478328Y-84750646D01*
X157594024Y-84591405D01*
X157683384Y-84416025D01*
X157744209Y-84228826D01*
X157775000Y-84034422D01*
X157775000Y-83837577D01*
X157744209Y-83643173D01*
X157690378Y-83477500D01*
X157683384Y-83455975D01*
X157683382Y-83455972D01*
X157683382Y-83455970D01*
X157603294Y-83298789D01*
X157594024Y-83280595D01*
X157478328Y-83121354D01*
X157339146Y-82982172D01*
X157185192Y-82870317D01*
X157142528Y-82814988D01*
X157136549Y-82745374D01*
X157169155Y-82683579D01*
X157229994Y-82649222D01*
X157258079Y-82646000D01*
X157544500Y-82646000D01*
X157544500Y-81683401D01*
X157561175Y-81700076D01*
X157647825Y-81750104D01*
X157744472Y-81776000D01*
X157844528Y-81776000D01*
X157941175Y-81750104D01*
X158027825Y-81700076D01*
X158044500Y-81683401D01*
X158044500Y-82646000D01*
X158592328Y-82646000D01*
X158592344Y-82645999D01*
X158651872Y-82639598D01*
X158651879Y-82639596D01*
X158786586Y-82589354D01*
X158786593Y-82589350D01*
X158901687Y-82503190D01*
X158901690Y-82503187D01*
X158987850Y-82388093D01*
X158987854Y-82388086D01*
X159038096Y-82253379D01*
X159038098Y-82253372D01*
X159044499Y-82193844D01*
X159044500Y-82193827D01*
X159044500Y-81646000D01*
X158081901Y-81646000D01*
X158098576Y-81629325D01*
X158148604Y-81542675D01*
X158174500Y-81446028D01*
X158174500Y-81345972D01*
X158148604Y-81249325D01*
X158098576Y-81162675D01*
X158081901Y-81146000D01*
X159044500Y-81146000D01*
X159044500Y-80598172D01*
X159044499Y-80598155D01*
X159038098Y-80538627D01*
X159038096Y-80538620D01*
X158987854Y-80403913D01*
X158987850Y-80403906D01*
X158901690Y-80288812D01*
X158901687Y-80288809D01*
X158786593Y-80202649D01*
X158786586Y-80202645D01*
X158651879Y-80152403D01*
X158651872Y-80152401D01*
X158592344Y-80146000D01*
X158044500Y-80146000D01*
X158044500Y-81108599D01*
X158027825Y-81091924D01*
X157941175Y-81041896D01*
X157844528Y-81016000D01*
X157744472Y-81016000D01*
X157647825Y-81041896D01*
X157561175Y-81091924D01*
X157544500Y-81108599D01*
X157544500Y-80146000D01*
X156996655Y-80146000D01*
X156937127Y-80152401D01*
X156937120Y-80152403D01*
X156802413Y-80202645D01*
X156802406Y-80202649D01*
X156687312Y-80288809D01*
X156687309Y-80288812D01*
X156601149Y-80403906D01*
X156601145Y-80403913D01*
X156550903Y-80538620D01*
X156550901Y-80538627D01*
X156544500Y-80598155D01*
X156544500Y-80662421D01*
X156524815Y-80729460D01*
X156472011Y-80775215D01*
X156402853Y-80785159D01*
X156339297Y-80756134D01*
X156320182Y-80735307D01*
X156298796Y-80705872D01*
X156208328Y-80581354D01*
X156069146Y-80442172D01*
X155909905Y-80326476D01*
X155734529Y-80237117D01*
X155547326Y-80176290D01*
X155352922Y-80145500D01*
X155352917Y-80145500D01*
X155156083Y-80145500D01*
X155156078Y-80145500D01*
X154961673Y-80176290D01*
X154774470Y-80237117D01*
X154599094Y-80326476D01*
X154551219Y-80361260D01*
X154439854Y-80442172D01*
X154439852Y-80442174D01*
X154439851Y-80442174D01*
X154300674Y-80581351D01*
X154300674Y-80581352D01*
X154300672Y-80581354D01*
X154288453Y-80598172D01*
X154184976Y-80740594D01*
X154094985Y-80917213D01*
X154047011Y-80968009D01*
X153979190Y-80984804D01*
X153913055Y-80962267D01*
X153874015Y-80917213D01*
X153806730Y-80785159D01*
X153784024Y-80740595D01*
X153668328Y-80581354D01*
X153624564Y-80537590D01*
X153591079Y-80476267D01*
X153596063Y-80406575D01*
X153637935Y-80350642D01*
X153688054Y-80328292D01*
X153744284Y-80317106D01*
X153811497Y-80303737D01*
X153957179Y-80243394D01*
X154088289Y-80155789D01*
X154199789Y-80044289D01*
X154287394Y-79913179D01*
X154300349Y-79881902D01*
X163499500Y-79881902D01*
X163499500Y-80118097D01*
X163536446Y-80351368D01*
X163609433Y-80575996D01*
X163687628Y-80729460D01*
X163716657Y-80786433D01*
X163855483Y-80977510D01*
X164022490Y-81144517D01*
X164213567Y-81283343D01*
X164312991Y-81334002D01*
X164424003Y-81390566D01*
X164424005Y-81390566D01*
X164424008Y-81390568D01*
X164544412Y-81429689D01*
X164648631Y-81463553D01*
X164881903Y-81500500D01*
X164881908Y-81500500D01*
X165118097Y-81500500D01*
X165351368Y-81463553D01*
X165405304Y-81446028D01*
X165575992Y-81390568D01*
X165786433Y-81283343D01*
X165977510Y-81144517D01*
X166144517Y-80977510D01*
X166283343Y-80786433D01*
X166390568Y-80575992D01*
X166463553Y-80351368D01*
X166467428Y-80326902D01*
X166500500Y-80118097D01*
X166500500Y-79881902D01*
X166463553Y-79648631D01*
X166400688Y-79455155D01*
X166390568Y-79424008D01*
X166390566Y-79424005D01*
X166390566Y-79424003D01*
X166327639Y-79300503D01*
X166283343Y-79213567D01*
X166144517Y-79022490D01*
X165977510Y-78855483D01*
X165786433Y-78716657D01*
X165575996Y-78609433D01*
X165351368Y-78536446D01*
X165118097Y-78499500D01*
X165118092Y-78499500D01*
X164881908Y-78499500D01*
X164881903Y-78499500D01*
X164648631Y-78536446D01*
X164424003Y-78609433D01*
X164213566Y-78716657D01*
X164104550Y-78795862D01*
X164022490Y-78855483D01*
X164022488Y-78855485D01*
X164022487Y-78855485D01*
X163855485Y-79022487D01*
X163855485Y-79022488D01*
X163855483Y-79022490D01*
X163854599Y-79023707D01*
X163716657Y-79213566D01*
X163609433Y-79424003D01*
X163536446Y-79648631D01*
X163499500Y-79881902D01*
X154300349Y-79881902D01*
X154347737Y-79767497D01*
X154378500Y-79612842D01*
X154378500Y-79455158D01*
X154378500Y-79455155D01*
X154378499Y-79455153D01*
X154347738Y-79300510D01*
X154347737Y-79300503D01*
X154347735Y-79300498D01*
X154287397Y-79154827D01*
X154287390Y-79154814D01*
X154199789Y-79023711D01*
X154199786Y-79023707D01*
X154088292Y-78912213D01*
X154088288Y-78912210D01*
X153957185Y-78824609D01*
X153957172Y-78824602D01*
X153811501Y-78764264D01*
X153811489Y-78764261D01*
X153656845Y-78733500D01*
X153656842Y-78733500D01*
X153499158Y-78733500D01*
X153499155Y-78733500D01*
X153344510Y-78764261D01*
X153344498Y-78764264D01*
X153198827Y-78824602D01*
X153198814Y-78824609D01*
X153067711Y-78912210D01*
X153067707Y-78912213D01*
X152956213Y-79023707D01*
X152956210Y-79023711D01*
X152868609Y-79154814D01*
X152868602Y-79154827D01*
X152808264Y-79300498D01*
X152808261Y-79300510D01*
X152777500Y-79455153D01*
X152777500Y-79612846D01*
X152808261Y-79767489D01*
X152808264Y-79767501D01*
X152868602Y-79913172D01*
X152868609Y-79913184D01*
X152894952Y-79952609D01*
X152915830Y-80019286D01*
X152897346Y-80086666D01*
X152845367Y-80133357D01*
X152791850Y-80145500D01*
X152616078Y-80145500D01*
X152421673Y-80176290D01*
X152234470Y-80237117D01*
X152059094Y-80326476D01*
X152011219Y-80361260D01*
X151899854Y-80442172D01*
X151899852Y-80442174D01*
X151899851Y-80442174D01*
X151760674Y-80581351D01*
X151760674Y-80581352D01*
X151760672Y-80581354D01*
X151748453Y-80598172D01*
X151644976Y-80740594D01*
X151554704Y-80917764D01*
X151506729Y-80968560D01*
X151438908Y-80985355D01*
X151372774Y-80962818D01*
X151333734Y-80917764D01*
X151243596Y-80740858D01*
X151218178Y-80705873D01*
X151218177Y-80705873D01*
X150554500Y-81369551D01*
X150554500Y-81345972D01*
X150528604Y-81249325D01*
X150478576Y-81162675D01*
X150407825Y-81091924D01*
X150321175Y-81041896D01*
X150224528Y-81016000D01*
X150200947Y-81016000D01*
X150864625Y-80352320D01*
X150864625Y-80352319D01*
X150829645Y-80326905D01*
X150654335Y-80237581D01*
X150467205Y-80176778D01*
X150272882Y-80146000D01*
X150076118Y-80146000D01*
X149881794Y-80176778D01*
X149694661Y-80237582D01*
X149519363Y-80326899D01*
X149519359Y-80326902D01*
X149484373Y-80352320D01*
X149484372Y-80352320D01*
X150148054Y-81016000D01*
X150124472Y-81016000D01*
X150027825Y-81041896D01*
X149941175Y-81091924D01*
X149870424Y-81162675D01*
X149820396Y-81249325D01*
X149794500Y-81345972D01*
X149794500Y-81369552D01*
X149130820Y-80705872D01*
X149130820Y-80705873D01*
X149105402Y-80740859D01*
X149105399Y-80740863D01*
X149016082Y-80916161D01*
X148955278Y-81103294D01*
X148924500Y-81297617D01*
X148924500Y-81494382D01*
X148955278Y-81688705D01*
X149016081Y-81875835D01*
X149105405Y-82051145D01*
X149130819Y-82086125D01*
X149130820Y-82086125D01*
X149794500Y-81422445D01*
X149794500Y-81446028D01*
X149820396Y-81542675D01*
X149870424Y-81629325D01*
X149941175Y-81700076D01*
X150027825Y-81750104D01*
X150124472Y-81776000D01*
X150148053Y-81776000D01*
X149484373Y-82439677D01*
X149484373Y-82439678D01*
X149519358Y-82465096D01*
X149694664Y-82554418D01*
X149881794Y-82615221D01*
X150076118Y-82646000D01*
X150272882Y-82646000D01*
X150467205Y-82615221D01*
X150654335Y-82554418D01*
X150829643Y-82465095D01*
X150864625Y-82439678D01*
X150864626Y-82439678D01*
X150200948Y-81776000D01*
X150224528Y-81776000D01*
X150321175Y-81750104D01*
X150407825Y-81700076D01*
X150478576Y-81629325D01*
X150528604Y-81542675D01*
X150554500Y-81446028D01*
X150554500Y-81422448D01*
X151218178Y-82086126D01*
X151218178Y-82086125D01*
X151243597Y-82051141D01*
X151333734Y-81874236D01*
X151381708Y-81823439D01*
X151449529Y-81806644D01*
X151515664Y-81829181D01*
X151554704Y-81874235D01*
X151555615Y-81876024D01*
X151555616Y-81876025D01*
X151644976Y-82051405D01*
X151760672Y-82210646D01*
X151899854Y-82349828D01*
X152059095Y-82465524D01*
X152133013Y-82503187D01*
X152234470Y-82554882D01*
X152234472Y-82554882D01*
X152234475Y-82554884D01*
X152334817Y-82587487D01*
X152421673Y-82615709D01*
X152616078Y-82646500D01*
X152616083Y-82646500D01*
X152812922Y-82646500D01*
X153007326Y-82615709D01*
X153008828Y-82615221D01*
X153194525Y-82554884D01*
X153369905Y-82465524D01*
X153529146Y-82349828D01*
X153668328Y-82210646D01*
X153784024Y-82051405D01*
X153826720Y-81967609D01*
X153874015Y-81874787D01*
X153921989Y-81823990D01*
X153989810Y-81807195D01*
X154055945Y-81829732D01*
X154094985Y-81874787D01*
X154184974Y-82051403D01*
X154188817Y-82056692D01*
X154300672Y-82210646D01*
X154439854Y-82349828D01*
X154599095Y-82465524D01*
X154673013Y-82503187D01*
X154774470Y-82554882D01*
X154774472Y-82554882D01*
X154774475Y-82554884D01*
X154874817Y-82587487D01*
X154961673Y-82615709D01*
X155156078Y-82646500D01*
X155156083Y-82646500D01*
X155352922Y-82646500D01*
X155547326Y-82615709D01*
X155548828Y-82615221D01*
X155734525Y-82554884D01*
X155909905Y-82465524D01*
X156069146Y-82349828D01*
X156208328Y-82210646D01*
X156320183Y-82056690D01*
X156375512Y-82014027D01*
X156445126Y-82008048D01*
X156506920Y-82040654D01*
X156541278Y-82101493D01*
X156544500Y-82129578D01*
X156544500Y-82193844D01*
X156550901Y-82253372D01*
X156550903Y-82253379D01*
X156601145Y-82388086D01*
X156601149Y-82388093D01*
X156675333Y-82487189D01*
X156699751Y-82552653D01*
X156684900Y-82620926D01*
X156635495Y-82670332D01*
X156576067Y-82685500D01*
X156426078Y-82685500D01*
X156231673Y-82716290D01*
X156044470Y-82777117D01*
X155869094Y-82866476D01*
X155808500Y-82910501D01*
X155709854Y-82982172D01*
X155709852Y-82982174D01*
X155709851Y-82982174D01*
X155570674Y-83121351D01*
X155570674Y-83121352D01*
X155570672Y-83121354D01*
X155522768Y-83187288D01*
X155454976Y-83280594D01*
X155364985Y-83457213D01*
X155317011Y-83508009D01*
X155249190Y-83524804D01*
X155183055Y-83502267D01*
X155144015Y-83457213D01*
X155063294Y-83298789D01*
X155054024Y-83280595D01*
X154938328Y-83121354D01*
X154799146Y-82982172D01*
X154639905Y-82866476D01*
X154464529Y-82777117D01*
X154277326Y-82716290D01*
X154082922Y-82685500D01*
X154082917Y-82685500D01*
X153886083Y-82685500D01*
X153886078Y-82685500D01*
X153691673Y-82716290D01*
X153504470Y-82777117D01*
X153329094Y-82866476D01*
X153268500Y-82910501D01*
X153169854Y-82982172D01*
X153169852Y-82982174D01*
X153169851Y-82982174D01*
X153030674Y-83121351D01*
X153030674Y-83121352D01*
X153030672Y-83121354D01*
X152982768Y-83187288D01*
X152914976Y-83280594D01*
X152824985Y-83457213D01*
X152777011Y-83508009D01*
X152709190Y-83524804D01*
X152643055Y-83502267D01*
X152604015Y-83457213D01*
X152523294Y-83298789D01*
X152514024Y-83280595D01*
X152398328Y-83121354D01*
X152259146Y-82982172D01*
X152099905Y-82866476D01*
X151924529Y-82777117D01*
X151737326Y-82716290D01*
X151542922Y-82685500D01*
X151542917Y-82685500D01*
X151346083Y-82685500D01*
X151346078Y-82685500D01*
X151151673Y-82716290D01*
X150964470Y-82777117D01*
X150789094Y-82866476D01*
X150728500Y-82910501D01*
X150629854Y-82982172D01*
X150629852Y-82982174D01*
X150629851Y-82982174D01*
X150490674Y-83121351D01*
X150490674Y-83121352D01*
X150490672Y-83121354D01*
X150442768Y-83187288D01*
X150374976Y-83280594D01*
X150284985Y-83457213D01*
X150237011Y-83508009D01*
X150169190Y-83524804D01*
X150103055Y-83502267D01*
X150064015Y-83457213D01*
X149983294Y-83298789D01*
X149974024Y-83280595D01*
X149858328Y-83121354D01*
X149719146Y-82982172D01*
X149559905Y-82866476D01*
X149384529Y-82777117D01*
X149197326Y-82716290D01*
X149002922Y-82685500D01*
X149002917Y-82685500D01*
X148806083Y-82685500D01*
X148806078Y-82685500D01*
X148611673Y-82716290D01*
X148424470Y-82777117D01*
X148249094Y-82866476D01*
X148188500Y-82910501D01*
X148089854Y-82982172D01*
X148089852Y-82982174D01*
X148089851Y-82982174D01*
X147950674Y-83121351D01*
X147950674Y-83121352D01*
X147950672Y-83121354D01*
X147902768Y-83187288D01*
X147834976Y-83280594D01*
X147745617Y-83455970D01*
X147684790Y-83643173D01*
X147654000Y-83837577D01*
X117775000Y-83837577D01*
X117744209Y-83643173D01*
X117690378Y-83477500D01*
X117683384Y-83455975D01*
X117683382Y-83455972D01*
X117683382Y-83455970D01*
X117603294Y-83298789D01*
X117594024Y-83280595D01*
X117478328Y-83121354D01*
X117339146Y-82982172D01*
X117185192Y-82870317D01*
X117142528Y-82814988D01*
X117136549Y-82745374D01*
X117169155Y-82683579D01*
X117229994Y-82649222D01*
X117258079Y-82646000D01*
X117544500Y-82646000D01*
X117544500Y-81683401D01*
X117561175Y-81700076D01*
X117647825Y-81750104D01*
X117744472Y-81776000D01*
X117844528Y-81776000D01*
X117941175Y-81750104D01*
X118027825Y-81700076D01*
X118044500Y-81683401D01*
X118044500Y-82646000D01*
X118592328Y-82646000D01*
X118592344Y-82645999D01*
X118651872Y-82639598D01*
X118651879Y-82639596D01*
X118762994Y-82598153D01*
X131152500Y-82598153D01*
X131152500Y-82755846D01*
X131183261Y-82910489D01*
X131183264Y-82910501D01*
X131243602Y-83056172D01*
X131243609Y-83056185D01*
X131331210Y-83187288D01*
X131331213Y-83187292D01*
X131442707Y-83298786D01*
X131442711Y-83298789D01*
X131573814Y-83386390D01*
X131573827Y-83386397D01*
X131719498Y-83446735D01*
X131719503Y-83446737D01*
X131874153Y-83477499D01*
X131874156Y-83477500D01*
X131874158Y-83477500D01*
X132031844Y-83477500D01*
X132031845Y-83477499D01*
X132186497Y-83446737D01*
X132332179Y-83386394D01*
X132463289Y-83298789D01*
X132574789Y-83187289D01*
X132662394Y-83056179D01*
X132722737Y-82910497D01*
X132753500Y-82755842D01*
X132753500Y-82598158D01*
X132753500Y-82598155D01*
X132753499Y-82598153D01*
X132744892Y-82554882D01*
X132722737Y-82443503D01*
X132683935Y-82349825D01*
X132662397Y-82297827D01*
X132662390Y-82297814D01*
X132574789Y-82166711D01*
X132574786Y-82166707D01*
X132463292Y-82055213D01*
X132463288Y-82055210D01*
X132332185Y-81967609D01*
X132332172Y-81967602D01*
X132186501Y-81907264D01*
X132186489Y-81907261D01*
X132031845Y-81876500D01*
X132031842Y-81876500D01*
X131874158Y-81876500D01*
X131874155Y-81876500D01*
X131719510Y-81907261D01*
X131719498Y-81907264D01*
X131573827Y-81967602D01*
X131573814Y-81967609D01*
X131442711Y-82055210D01*
X131442707Y-82055213D01*
X131331213Y-82166707D01*
X131331210Y-82166711D01*
X131243609Y-82297814D01*
X131243602Y-82297827D01*
X131183264Y-82443498D01*
X131183261Y-82443510D01*
X131152500Y-82598153D01*
X118762994Y-82598153D01*
X118786586Y-82589354D01*
X118786593Y-82589350D01*
X118901687Y-82503190D01*
X118901690Y-82503187D01*
X118987850Y-82388093D01*
X118987854Y-82388086D01*
X119038096Y-82253379D01*
X119038098Y-82253372D01*
X119044499Y-82193844D01*
X119044500Y-82193827D01*
X119044500Y-81646000D01*
X118081901Y-81646000D01*
X118098576Y-81629325D01*
X118148604Y-81542675D01*
X118174500Y-81446028D01*
X118174500Y-81345972D01*
X118148604Y-81249325D01*
X118098576Y-81162675D01*
X118081901Y-81146000D01*
X119044500Y-81146000D01*
X119044500Y-80598172D01*
X119044499Y-80598155D01*
X119038098Y-80538627D01*
X119038096Y-80538620D01*
X118987854Y-80403913D01*
X118987850Y-80403906D01*
X118901690Y-80288812D01*
X118901687Y-80288809D01*
X118786593Y-80202649D01*
X118786586Y-80202645D01*
X118651879Y-80152403D01*
X118651872Y-80152401D01*
X118592344Y-80146000D01*
X118044500Y-80146000D01*
X118044500Y-81108599D01*
X118027825Y-81091924D01*
X117941175Y-81041896D01*
X117844528Y-81016000D01*
X117744472Y-81016000D01*
X117647825Y-81041896D01*
X117561175Y-81091924D01*
X117544500Y-81108599D01*
X117544500Y-80146000D01*
X116996655Y-80146000D01*
X116937127Y-80152401D01*
X116937120Y-80152403D01*
X116802413Y-80202645D01*
X116802406Y-80202649D01*
X116687312Y-80288809D01*
X116687309Y-80288812D01*
X116601149Y-80403906D01*
X116601145Y-80403913D01*
X116550903Y-80538620D01*
X116550901Y-80538627D01*
X116544500Y-80598155D01*
X116544500Y-80662421D01*
X116524815Y-80729460D01*
X116472011Y-80775215D01*
X116402853Y-80785159D01*
X116339297Y-80756134D01*
X116320182Y-80735307D01*
X116298796Y-80705872D01*
X116208328Y-80581354D01*
X116069146Y-80442172D01*
X115909905Y-80326476D01*
X115734529Y-80237117D01*
X115547326Y-80176290D01*
X115352922Y-80145500D01*
X115352917Y-80145500D01*
X115156083Y-80145500D01*
X115156078Y-80145500D01*
X114961673Y-80176290D01*
X114774470Y-80237117D01*
X114599094Y-80326476D01*
X114551219Y-80361260D01*
X114439854Y-80442172D01*
X114439852Y-80442174D01*
X114439851Y-80442174D01*
X114300674Y-80581351D01*
X114300674Y-80581352D01*
X114300672Y-80581354D01*
X114288453Y-80598172D01*
X114184976Y-80740594D01*
X114094985Y-80917213D01*
X114047011Y-80968009D01*
X113979190Y-80984804D01*
X113913055Y-80962267D01*
X113874015Y-80917213D01*
X113806730Y-80785159D01*
X113784024Y-80740595D01*
X113668328Y-80581354D01*
X113529146Y-80442172D01*
X113369905Y-80326476D01*
X113194529Y-80237117D01*
X113007326Y-80176290D01*
X112812922Y-80145500D01*
X112812917Y-80145500D01*
X112616083Y-80145500D01*
X112616078Y-80145500D01*
X112421673Y-80176290D01*
X112234470Y-80237117D01*
X112059094Y-80326476D01*
X112011219Y-80361260D01*
X111899854Y-80442172D01*
X111899852Y-80442174D01*
X111899851Y-80442174D01*
X111760674Y-80581351D01*
X111760674Y-80581352D01*
X111760672Y-80581354D01*
X111748453Y-80598172D01*
X111644976Y-80740594D01*
X111554704Y-80917764D01*
X111506729Y-80968560D01*
X111438908Y-80985355D01*
X111372774Y-80962818D01*
X111333734Y-80917764D01*
X111243596Y-80740858D01*
X111218178Y-80705873D01*
X111218177Y-80705873D01*
X110554500Y-81369551D01*
X110554500Y-81345972D01*
X110528604Y-81249325D01*
X110478576Y-81162675D01*
X110407825Y-81091924D01*
X110321175Y-81041896D01*
X110224528Y-81016000D01*
X110200947Y-81016000D01*
X110864625Y-80352320D01*
X110864625Y-80352319D01*
X110829645Y-80326905D01*
X110654335Y-80237581D01*
X110467205Y-80176778D01*
X110272882Y-80146000D01*
X110076118Y-80146000D01*
X109881794Y-80176778D01*
X109694661Y-80237582D01*
X109519363Y-80326899D01*
X109519359Y-80326902D01*
X109484373Y-80352320D01*
X109484372Y-80352320D01*
X110148054Y-81016000D01*
X110124472Y-81016000D01*
X110027825Y-81041896D01*
X109941175Y-81091924D01*
X109870424Y-81162675D01*
X109820396Y-81249325D01*
X109794500Y-81345972D01*
X109794500Y-81369552D01*
X109130820Y-80705872D01*
X109130820Y-80705873D01*
X109105402Y-80740859D01*
X109105399Y-80740863D01*
X109016082Y-80916161D01*
X108955278Y-81103294D01*
X108924500Y-81297617D01*
X108924500Y-81494382D01*
X108955278Y-81688705D01*
X109016081Y-81875835D01*
X109105405Y-82051145D01*
X109130819Y-82086125D01*
X109130820Y-82086125D01*
X109794500Y-81422445D01*
X109794500Y-81446028D01*
X109820396Y-81542675D01*
X109870424Y-81629325D01*
X109941175Y-81700076D01*
X110027825Y-81750104D01*
X110124472Y-81776000D01*
X110148053Y-81776000D01*
X109484373Y-82439677D01*
X109484373Y-82439678D01*
X109519358Y-82465096D01*
X109694664Y-82554418D01*
X109881794Y-82615221D01*
X110076118Y-82646000D01*
X110272882Y-82646000D01*
X110467205Y-82615221D01*
X110654335Y-82554418D01*
X110829643Y-82465095D01*
X110864625Y-82439678D01*
X110864626Y-82439678D01*
X110200948Y-81776000D01*
X110224528Y-81776000D01*
X110321175Y-81750104D01*
X110407825Y-81700076D01*
X110478576Y-81629325D01*
X110528604Y-81542675D01*
X110554500Y-81446028D01*
X110554500Y-81422447D01*
X111218178Y-82086126D01*
X111218178Y-82086125D01*
X111243597Y-82051141D01*
X111333734Y-81874236D01*
X111381708Y-81823439D01*
X111449529Y-81806644D01*
X111515664Y-81829181D01*
X111554704Y-81874235D01*
X111555615Y-81876024D01*
X111555616Y-81876025D01*
X111644976Y-82051405D01*
X111760672Y-82210646D01*
X111899854Y-82349828D01*
X112059095Y-82465524D01*
X112133013Y-82503187D01*
X112234470Y-82554882D01*
X112234472Y-82554882D01*
X112234475Y-82554884D01*
X112334817Y-82587487D01*
X112421673Y-82615709D01*
X112616078Y-82646500D01*
X112616083Y-82646500D01*
X112812922Y-82646500D01*
X113007326Y-82615709D01*
X113008828Y-82615221D01*
X113194525Y-82554884D01*
X113369905Y-82465524D01*
X113529146Y-82349828D01*
X113668328Y-82210646D01*
X113784024Y-82051405D01*
X113826720Y-81967609D01*
X113874015Y-81874787D01*
X113921989Y-81823990D01*
X113989810Y-81807195D01*
X114055945Y-81829732D01*
X114094985Y-81874787D01*
X114184974Y-82051403D01*
X114188817Y-82056692D01*
X114300672Y-82210646D01*
X114439854Y-82349828D01*
X114599095Y-82465524D01*
X114673013Y-82503187D01*
X114774470Y-82554882D01*
X114774472Y-82554882D01*
X114774475Y-82554884D01*
X114874817Y-82587487D01*
X114961673Y-82615709D01*
X115156078Y-82646500D01*
X115156083Y-82646500D01*
X115352922Y-82646500D01*
X115547326Y-82615709D01*
X115548828Y-82615221D01*
X115734525Y-82554884D01*
X115909905Y-82465524D01*
X116069146Y-82349828D01*
X116208328Y-82210646D01*
X116320183Y-82056690D01*
X116375512Y-82014027D01*
X116445126Y-82008048D01*
X116506920Y-82040654D01*
X116541278Y-82101493D01*
X116544500Y-82129578D01*
X116544500Y-82193844D01*
X116550901Y-82253372D01*
X116550903Y-82253379D01*
X116601145Y-82388086D01*
X116601149Y-82388093D01*
X116675333Y-82487189D01*
X116699751Y-82552653D01*
X116684900Y-82620926D01*
X116635495Y-82670332D01*
X116576067Y-82685500D01*
X116426078Y-82685500D01*
X116231673Y-82716290D01*
X116044470Y-82777117D01*
X115869094Y-82866476D01*
X115808500Y-82910501D01*
X115709854Y-82982172D01*
X115709852Y-82982174D01*
X115709851Y-82982174D01*
X115570674Y-83121351D01*
X115570674Y-83121352D01*
X115570672Y-83121354D01*
X115522768Y-83187288D01*
X115454976Y-83280594D01*
X115364985Y-83457213D01*
X115317011Y-83508009D01*
X115249190Y-83524804D01*
X115183055Y-83502267D01*
X115144015Y-83457213D01*
X115063294Y-83298789D01*
X115054024Y-83280595D01*
X114938328Y-83121354D01*
X114799146Y-82982172D01*
X114639905Y-82866476D01*
X114464529Y-82777117D01*
X114277326Y-82716290D01*
X114082922Y-82685500D01*
X114082917Y-82685500D01*
X113886083Y-82685500D01*
X113886078Y-82685500D01*
X113691673Y-82716290D01*
X113504470Y-82777117D01*
X113329094Y-82866476D01*
X113268500Y-82910501D01*
X113169854Y-82982172D01*
X113169852Y-82982174D01*
X113169851Y-82982174D01*
X113030674Y-83121351D01*
X113030674Y-83121352D01*
X113030672Y-83121354D01*
X112982768Y-83187288D01*
X112914976Y-83280594D01*
X112824985Y-83457213D01*
X112777011Y-83508009D01*
X112709190Y-83524804D01*
X112643055Y-83502267D01*
X112604015Y-83457213D01*
X112523294Y-83298789D01*
X112514024Y-83280595D01*
X112398328Y-83121354D01*
X112259146Y-82982172D01*
X112099905Y-82866476D01*
X111924529Y-82777117D01*
X111737326Y-82716290D01*
X111542922Y-82685500D01*
X111542917Y-82685500D01*
X111346083Y-82685500D01*
X111346078Y-82685500D01*
X111151673Y-82716290D01*
X110964470Y-82777117D01*
X110789094Y-82866476D01*
X110728500Y-82910501D01*
X110629854Y-82982172D01*
X110629852Y-82982174D01*
X110629851Y-82982174D01*
X110490674Y-83121351D01*
X110490674Y-83121352D01*
X110490672Y-83121354D01*
X110442768Y-83187288D01*
X110374976Y-83280594D01*
X110284985Y-83457213D01*
X110237011Y-83508009D01*
X110169190Y-83524804D01*
X110103055Y-83502267D01*
X110064015Y-83457213D01*
X109983294Y-83298789D01*
X109974024Y-83280595D01*
X109858328Y-83121354D01*
X109719146Y-82982172D01*
X109559905Y-82866476D01*
X109384529Y-82777117D01*
X109197326Y-82716290D01*
X109002922Y-82685500D01*
X109002917Y-82685500D01*
X108806083Y-82685500D01*
X108806078Y-82685500D01*
X108611673Y-82716290D01*
X108424470Y-82777117D01*
X108249094Y-82866476D01*
X108188500Y-82910501D01*
X108089854Y-82982172D01*
X108089852Y-82982174D01*
X108089851Y-82982174D01*
X107950674Y-83121351D01*
X107950674Y-83121352D01*
X107950672Y-83121354D01*
X107902768Y-83187288D01*
X107834976Y-83280594D01*
X107745617Y-83455970D01*
X107684790Y-83643173D01*
X107654000Y-83837577D01*
X100500500Y-83837577D01*
X100500500Y-79881902D01*
X101499500Y-79881902D01*
X101499500Y-80118097D01*
X101536446Y-80351368D01*
X101609433Y-80575996D01*
X101687628Y-80729460D01*
X101716657Y-80786433D01*
X101855483Y-80977510D01*
X102022490Y-81144517D01*
X102213567Y-81283343D01*
X102312991Y-81334002D01*
X102424003Y-81390566D01*
X102424005Y-81390566D01*
X102424008Y-81390568D01*
X102544412Y-81429689D01*
X102648631Y-81463553D01*
X102881903Y-81500500D01*
X102881908Y-81500500D01*
X103118097Y-81500500D01*
X103351368Y-81463553D01*
X103405304Y-81446028D01*
X103575992Y-81390568D01*
X103786433Y-81283343D01*
X103977510Y-81144517D01*
X104144517Y-80977510D01*
X104283343Y-80786433D01*
X104390568Y-80575992D01*
X104463553Y-80351368D01*
X104488929Y-80191150D01*
X104500500Y-80118097D01*
X104500500Y-79881902D01*
X104463553Y-79648631D01*
X104400688Y-79455155D01*
X104390568Y-79424008D01*
X104390566Y-79424005D01*
X104390566Y-79424003D01*
X104327639Y-79300503D01*
X104283343Y-79213567D01*
X104144517Y-79022490D01*
X103977510Y-78855483D01*
X103786433Y-78716657D01*
X103575996Y-78609433D01*
X103351368Y-78536446D01*
X103118097Y-78499500D01*
X103118092Y-78499500D01*
X102881908Y-78499500D01*
X102881903Y-78499500D01*
X102648631Y-78536446D01*
X102424003Y-78609433D01*
X102213566Y-78716657D01*
X102104550Y-78795862D01*
X102022490Y-78855483D01*
X102022488Y-78855485D01*
X102022487Y-78855485D01*
X101855485Y-79022487D01*
X101855485Y-79022488D01*
X101855483Y-79022490D01*
X101854599Y-79023707D01*
X101716657Y-79213566D01*
X101609433Y-79424003D01*
X101536446Y-79648631D01*
X101499500Y-79881902D01*
X100500500Y-79881902D01*
X100500500Y-77391153D01*
X120230500Y-77391153D01*
X120230500Y-77548846D01*
X120261261Y-77703489D01*
X120261264Y-77703501D01*
X120321602Y-77849171D01*
X120321609Y-77849184D01*
X120361650Y-77909109D01*
X120382528Y-77975787D01*
X120364043Y-78043167D01*
X120361650Y-78046891D01*
X120321609Y-78106815D01*
X120321602Y-78106828D01*
X120261264Y-78252498D01*
X120261261Y-78252510D01*
X120230500Y-78407153D01*
X120230500Y-78564846D01*
X120261261Y-78719489D01*
X120261264Y-78719501D01*
X120321602Y-78865171D01*
X120321609Y-78865184D01*
X120361650Y-78925109D01*
X120382528Y-78991787D01*
X120364043Y-79059167D01*
X120361650Y-79062891D01*
X120321609Y-79122815D01*
X120321602Y-79122828D01*
X120261264Y-79268498D01*
X120261261Y-79268510D01*
X120230500Y-79423153D01*
X120230500Y-79580846D01*
X120261261Y-79735489D01*
X120261264Y-79735501D01*
X120321602Y-79881172D01*
X120321609Y-79881185D01*
X120409210Y-80012288D01*
X120409213Y-80012292D01*
X120520707Y-80123786D01*
X120520711Y-80123789D01*
X120651814Y-80211390D01*
X120651827Y-80211397D01*
X120771977Y-80261164D01*
X120797503Y-80271737D01*
X120952153Y-80302499D01*
X120952156Y-80302500D01*
X120952158Y-80302500D01*
X121109844Y-80302500D01*
X121109845Y-80302499D01*
X121264497Y-80271737D01*
X121410179Y-80211394D01*
X121541289Y-80123789D01*
X121652789Y-80012289D01*
X121740394Y-79881179D01*
X121800737Y-79735497D01*
X121831500Y-79580842D01*
X121831500Y-79423158D01*
X121831500Y-79423155D01*
X121831499Y-79423153D01*
X121807499Y-79302499D01*
X121800737Y-79268503D01*
X121777080Y-79211390D01*
X121740397Y-79122827D01*
X121740393Y-79122820D01*
X121700350Y-79062892D01*
X121679472Y-78996214D01*
X121697956Y-78928834D01*
X121700338Y-78925125D01*
X121740394Y-78865179D01*
X121800737Y-78719497D01*
X121831500Y-78564842D01*
X121831500Y-78407158D01*
X121831500Y-78407155D01*
X121831499Y-78407153D01*
X121826004Y-78379526D01*
X121800737Y-78252503D01*
X121770456Y-78179397D01*
X121740397Y-78106827D01*
X121740393Y-78106820D01*
X121700350Y-78046892D01*
X121679472Y-77980214D01*
X121697956Y-77912834D01*
X121700338Y-77909125D01*
X121740394Y-77849179D01*
X121800737Y-77703497D01*
X121831500Y-77548842D01*
X121831500Y-77391158D01*
X121831500Y-77391155D01*
X121831499Y-77391153D01*
X131406500Y-77391153D01*
X131406500Y-77548846D01*
X131437261Y-77703489D01*
X131437264Y-77703501D01*
X131497602Y-77849172D01*
X131497609Y-77849185D01*
X131585210Y-77980288D01*
X131585213Y-77980292D01*
X131696707Y-78091786D01*
X131696711Y-78091789D01*
X131827814Y-78179390D01*
X131827827Y-78179397D01*
X131927062Y-78220500D01*
X131973503Y-78239737D01*
X131973504Y-78239737D01*
X131976012Y-78240776D01*
X132030416Y-78284616D01*
X132052481Y-78350910D01*
X132050178Y-78379526D01*
X132041500Y-78423157D01*
X132041500Y-78580846D01*
X132072261Y-78735489D01*
X132072264Y-78735501D01*
X132132602Y-78881172D01*
X132132609Y-78881185D01*
X132220210Y-79012288D01*
X132220213Y-79012292D01*
X132331707Y-79123786D01*
X132331711Y-79123789D01*
X132462814Y-79211390D01*
X132462827Y-79211397D01*
X132526015Y-79237570D01*
X132580419Y-79281410D01*
X132602484Y-79347705D01*
X132600181Y-79376321D01*
X132584500Y-79455158D01*
X132584500Y-79612846D01*
X132615261Y-79767489D01*
X132615264Y-79767501D01*
X132675602Y-79913172D01*
X132675609Y-79913185D01*
X132763210Y-80044288D01*
X132763213Y-80044292D01*
X132874707Y-80155786D01*
X132874711Y-80155789D01*
X133005814Y-80243390D01*
X133005827Y-80243397D01*
X133151498Y-80303735D01*
X133151503Y-80303737D01*
X133306153Y-80334499D01*
X133306156Y-80334500D01*
X133306158Y-80334500D01*
X133463844Y-80334500D01*
X133463845Y-80334499D01*
X133618497Y-80303737D01*
X133639069Y-80295215D01*
X133663690Y-80285018D01*
X133764172Y-80243397D01*
X133764172Y-80243396D01*
X133764179Y-80243394D01*
X133895289Y-80155789D01*
X134006789Y-80044289D01*
X134094394Y-79913179D01*
X134154737Y-79767497D01*
X134185500Y-79612842D01*
X134185500Y-79455158D01*
X134185500Y-79455155D01*
X134185499Y-79455153D01*
X134154738Y-79300510D01*
X134154737Y-79300503D01*
X134154735Y-79300498D01*
X134094397Y-79154827D01*
X134094390Y-79154814D01*
X134006789Y-79023711D01*
X134006786Y-79023707D01*
X133895292Y-78912213D01*
X133895288Y-78912210D01*
X133764185Y-78824609D01*
X133764175Y-78824604D01*
X133700983Y-78798429D01*
X133646580Y-78754588D01*
X133624515Y-78688294D01*
X133626819Y-78659676D01*
X133642500Y-78580844D01*
X133642500Y-78423155D01*
X133642499Y-78423153D01*
X149020000Y-78423153D01*
X149020000Y-78580846D01*
X149050761Y-78735489D01*
X149050764Y-78735501D01*
X149111102Y-78881172D01*
X149111109Y-78881185D01*
X149198710Y-79012288D01*
X149198713Y-79012292D01*
X149310207Y-79123786D01*
X149310211Y-79123789D01*
X149441314Y-79211390D01*
X149441327Y-79211397D01*
X149579183Y-79268498D01*
X149587003Y-79271737D01*
X149731654Y-79300510D01*
X149741653Y-79302499D01*
X149741656Y-79302500D01*
X149741658Y-79302500D01*
X149899344Y-79302500D01*
X149899345Y-79302499D01*
X150053997Y-79271737D01*
X150199679Y-79211394D01*
X150330789Y-79123789D01*
X150442289Y-79012289D01*
X150529894Y-78881179D01*
X150590237Y-78735497D01*
X150621000Y-78580842D01*
X150621000Y-78423158D01*
X150621000Y-78423157D01*
X150621000Y-78423155D01*
X150620999Y-78423153D01*
X150593817Y-78286500D01*
X150590237Y-78268503D01*
X150590235Y-78268498D01*
X150529897Y-78122827D01*
X150529890Y-78122814D01*
X150442289Y-77991711D01*
X150442286Y-77991707D01*
X150330792Y-77880213D01*
X150330788Y-77880210D01*
X150199685Y-77792609D01*
X150199672Y-77792602D01*
X150054001Y-77732264D01*
X150053989Y-77732261D01*
X149899345Y-77701500D01*
X149899342Y-77701500D01*
X149741658Y-77701500D01*
X149741655Y-77701500D01*
X149587010Y-77732261D01*
X149586998Y-77732264D01*
X149441327Y-77792602D01*
X149441314Y-77792609D01*
X149310211Y-77880210D01*
X149310207Y-77880213D01*
X149198713Y-77991707D01*
X149198710Y-77991711D01*
X149111109Y-78122814D01*
X149111102Y-78122827D01*
X149050764Y-78268498D01*
X149050761Y-78268510D01*
X149020000Y-78423153D01*
X133642499Y-78423153D01*
X133615317Y-78286500D01*
X133611737Y-78268503D01*
X133611735Y-78268498D01*
X133551397Y-78122827D01*
X133551390Y-78122814D01*
X133463789Y-77991711D01*
X133463786Y-77991707D01*
X133352292Y-77880213D01*
X133352288Y-77880210D01*
X133221185Y-77792609D01*
X133221172Y-77792602D01*
X133072987Y-77731223D01*
X133018583Y-77687382D01*
X132996518Y-77621088D01*
X132996602Y-77610309D01*
X132997063Y-77601308D01*
X133007500Y-77548842D01*
X133007500Y-77407153D01*
X141530000Y-77407153D01*
X141530000Y-77564846D01*
X141560761Y-77719489D01*
X141560764Y-77719501D01*
X141621102Y-77865172D01*
X141621109Y-77865185D01*
X141708710Y-77996288D01*
X141708713Y-77996292D01*
X141820207Y-78107786D01*
X141820211Y-78107789D01*
X141951314Y-78195390D01*
X141951327Y-78195397D01*
X142089183Y-78252498D01*
X142097003Y-78255737D01*
X142242187Y-78284616D01*
X142251653Y-78286499D01*
X142251656Y-78286500D01*
X142251658Y-78286500D01*
X142409344Y-78286500D01*
X142409345Y-78286499D01*
X142563997Y-78255737D01*
X142709679Y-78195394D01*
X142840789Y-78107789D01*
X142952289Y-77996289D01*
X143039894Y-77865179D01*
X143100237Y-77719497D01*
X143131000Y-77564842D01*
X143131000Y-77407158D01*
X143131000Y-77407155D01*
X143130999Y-77407153D01*
X143100238Y-77252510D01*
X143100237Y-77252503D01*
X143093608Y-77236498D01*
X143039897Y-77106827D01*
X143039890Y-77106814D01*
X142952289Y-76975711D01*
X142952286Y-76975707D01*
X142840792Y-76864213D01*
X142840788Y-76864210D01*
X142709685Y-76776609D01*
X142709672Y-76776602D01*
X142564001Y-76716264D01*
X142563989Y-76716261D01*
X142409345Y-76685500D01*
X142409342Y-76685500D01*
X142251658Y-76685500D01*
X142251655Y-76685500D01*
X142097010Y-76716261D01*
X142096998Y-76716264D01*
X141951327Y-76776602D01*
X141951314Y-76776609D01*
X141820211Y-76864210D01*
X141820207Y-76864213D01*
X141708713Y-76975707D01*
X141708710Y-76975711D01*
X141621109Y-77106814D01*
X141621102Y-77106827D01*
X141560764Y-77252498D01*
X141560761Y-77252510D01*
X141530000Y-77407153D01*
X133007500Y-77407153D01*
X133007500Y-77391158D01*
X133007500Y-77391155D01*
X133007499Y-77391153D01*
X132979921Y-77252510D01*
X132976737Y-77236503D01*
X132923024Y-77106827D01*
X132916397Y-77090827D01*
X132916390Y-77090814D01*
X132828789Y-76959711D01*
X132828786Y-76959707D01*
X132717292Y-76848213D01*
X132717288Y-76848210D01*
X132586185Y-76760609D01*
X132586172Y-76760602D01*
X132440501Y-76700264D01*
X132440489Y-76700261D01*
X132285845Y-76669500D01*
X132285842Y-76669500D01*
X132128158Y-76669500D01*
X132128155Y-76669500D01*
X131973510Y-76700261D01*
X131973498Y-76700264D01*
X131827827Y-76760602D01*
X131827814Y-76760609D01*
X131696711Y-76848210D01*
X131696707Y-76848213D01*
X131585213Y-76959707D01*
X131585210Y-76959711D01*
X131497609Y-77090814D01*
X131497602Y-77090827D01*
X131437264Y-77236498D01*
X131437261Y-77236510D01*
X131406500Y-77391153D01*
X121831499Y-77391153D01*
X121803921Y-77252510D01*
X121800737Y-77236503D01*
X121747024Y-77106827D01*
X121740397Y-77090827D01*
X121740390Y-77090814D01*
X121652789Y-76959711D01*
X121652786Y-76959707D01*
X121541292Y-76848213D01*
X121541288Y-76848210D01*
X121410185Y-76760609D01*
X121410172Y-76760602D01*
X121264501Y-76700264D01*
X121264489Y-76700261D01*
X121109845Y-76669500D01*
X121109842Y-76669500D01*
X120952158Y-76669500D01*
X120952155Y-76669500D01*
X120797510Y-76700261D01*
X120797498Y-76700264D01*
X120651827Y-76760602D01*
X120651814Y-76760609D01*
X120520711Y-76848210D01*
X120520707Y-76848213D01*
X120409213Y-76959707D01*
X120409210Y-76959711D01*
X120321609Y-77090814D01*
X120321602Y-77090827D01*
X120261264Y-77236498D01*
X120261261Y-77236510D01*
X120230500Y-77391153D01*
X100500500Y-77391153D01*
X100500500Y-74924711D01*
X105784000Y-74924711D01*
X105784000Y-75167288D01*
X105815661Y-75407785D01*
X105878447Y-75642104D01*
X105971273Y-75866205D01*
X105971276Y-75866212D01*
X106092564Y-76076289D01*
X106092566Y-76076292D01*
X106092567Y-76076293D01*
X106240233Y-76268736D01*
X106240239Y-76268743D01*
X106411756Y-76440260D01*
X106411762Y-76440265D01*
X106604211Y-76587936D01*
X106814288Y-76709224D01*
X107038400Y-76802054D01*
X107272711Y-76864838D01*
X107453086Y-76888584D01*
X107513211Y-76896500D01*
X107513212Y-76896500D01*
X107755789Y-76896500D01*
X107803888Y-76890167D01*
X107996289Y-76864838D01*
X108230600Y-76802054D01*
X108454712Y-76709224D01*
X108664789Y-76587936D01*
X108857238Y-76440265D01*
X109028765Y-76268738D01*
X109176436Y-76076289D01*
X109297724Y-75866212D01*
X109390554Y-75642100D01*
X109453338Y-75407789D01*
X109485000Y-75167288D01*
X109485000Y-74924712D01*
X109485000Y-74924711D01*
X117214000Y-74924711D01*
X117214000Y-75167288D01*
X117245661Y-75407785D01*
X117308447Y-75642104D01*
X117401273Y-75866205D01*
X117401276Y-75866212D01*
X117522564Y-76076289D01*
X117522566Y-76076292D01*
X117522567Y-76076293D01*
X117670233Y-76268736D01*
X117670239Y-76268743D01*
X117841756Y-76440260D01*
X117841762Y-76440265D01*
X118034211Y-76587936D01*
X118244288Y-76709224D01*
X118468400Y-76802054D01*
X118702711Y-76864838D01*
X118883086Y-76888584D01*
X118943211Y-76896500D01*
X118943212Y-76896500D01*
X119185789Y-76896500D01*
X119233888Y-76890167D01*
X119426289Y-76864838D01*
X119660600Y-76802054D01*
X119884712Y-76709224D01*
X120094789Y-76587936D01*
X120287238Y-76440265D01*
X120458765Y-76268738D01*
X120606436Y-76076289D01*
X120727724Y-75866212D01*
X120820554Y-75642100D01*
X120883338Y-75407789D01*
X120915000Y-75167288D01*
X120915000Y-74924712D01*
X120915000Y-74924711D01*
X145784000Y-74924711D01*
X145784000Y-75167288D01*
X145815661Y-75407785D01*
X145878447Y-75642104D01*
X145971273Y-75866205D01*
X145971276Y-75866212D01*
X146092564Y-76076289D01*
X146092566Y-76076292D01*
X146092567Y-76076293D01*
X146240233Y-76268736D01*
X146240239Y-76268743D01*
X146411756Y-76440260D01*
X146411762Y-76440265D01*
X146604211Y-76587936D01*
X146814288Y-76709224D01*
X147038400Y-76802054D01*
X147272711Y-76864838D01*
X147453086Y-76888584D01*
X147513211Y-76896500D01*
X147513212Y-76896500D01*
X147755789Y-76896500D01*
X147803888Y-76890167D01*
X147996289Y-76864838D01*
X148230600Y-76802054D01*
X148454712Y-76709224D01*
X148664789Y-76587936D01*
X148857238Y-76440265D01*
X149028765Y-76268738D01*
X149176436Y-76076289D01*
X149297724Y-75866212D01*
X149390554Y-75642100D01*
X149453338Y-75407789D01*
X149485000Y-75167288D01*
X149485000Y-74924712D01*
X149485000Y-74924711D01*
X157214000Y-74924711D01*
X157214000Y-75167288D01*
X157245661Y-75407785D01*
X157308447Y-75642104D01*
X157401273Y-75866205D01*
X157401276Y-75866212D01*
X157522564Y-76076289D01*
X157522566Y-76076292D01*
X157522567Y-76076293D01*
X157670233Y-76268736D01*
X157670239Y-76268743D01*
X157841756Y-76440260D01*
X157841762Y-76440265D01*
X158034211Y-76587936D01*
X158244288Y-76709224D01*
X158468400Y-76802054D01*
X158702711Y-76864838D01*
X158883086Y-76888584D01*
X158943211Y-76896500D01*
X158943212Y-76896500D01*
X159185789Y-76896500D01*
X159233888Y-76890167D01*
X159426289Y-76864838D01*
X159660600Y-76802054D01*
X159884712Y-76709224D01*
X160094789Y-76587936D01*
X160287238Y-76440265D01*
X160458765Y-76268738D01*
X160606436Y-76076289D01*
X160727724Y-75866212D01*
X160820554Y-75642100D01*
X160883338Y-75407789D01*
X160915000Y-75167288D01*
X160915000Y-74924712D01*
X160883338Y-74684211D01*
X160820554Y-74449900D01*
X160727724Y-74225788D01*
X160606436Y-74015711D01*
X160458765Y-73823262D01*
X160458760Y-73823256D01*
X160287243Y-73651739D01*
X160287236Y-73651733D01*
X160094793Y-73504067D01*
X160094792Y-73504066D01*
X160094789Y-73504064D01*
X159884712Y-73382776D01*
X159884705Y-73382773D01*
X159660604Y-73289947D01*
X159426285Y-73227161D01*
X159185789Y-73195500D01*
X159185788Y-73195500D01*
X158943212Y-73195500D01*
X158943211Y-73195500D01*
X158702714Y-73227161D01*
X158468395Y-73289947D01*
X158244294Y-73382773D01*
X158244285Y-73382777D01*
X158034206Y-73504067D01*
X157841763Y-73651733D01*
X157841756Y-73651739D01*
X157670239Y-73823256D01*
X157670233Y-73823263D01*
X157522567Y-74015706D01*
X157401277Y-74225785D01*
X157401273Y-74225794D01*
X157308447Y-74449895D01*
X157245661Y-74684214D01*
X157214000Y-74924711D01*
X149485000Y-74924711D01*
X149453338Y-74684211D01*
X149390554Y-74449900D01*
X149297724Y-74225788D01*
X149176436Y-74015711D01*
X149028765Y-73823262D01*
X149028760Y-73823256D01*
X148857243Y-73651739D01*
X148857236Y-73651733D01*
X148664793Y-73504067D01*
X148664792Y-73504066D01*
X148664789Y-73504064D01*
X148454712Y-73382776D01*
X148454705Y-73382773D01*
X148230604Y-73289947D01*
X147996285Y-73227161D01*
X147755789Y-73195500D01*
X147755788Y-73195500D01*
X147513212Y-73195500D01*
X147513211Y-73195500D01*
X147272714Y-73227161D01*
X147038395Y-73289947D01*
X146814294Y-73382773D01*
X146814285Y-73382777D01*
X146604206Y-73504067D01*
X146411763Y-73651733D01*
X146411756Y-73651739D01*
X146240239Y-73823256D01*
X146240233Y-73823263D01*
X146092567Y-74015706D01*
X145971277Y-74225785D01*
X145971273Y-74225794D01*
X145878447Y-74449895D01*
X145815661Y-74684214D01*
X145784000Y-74924711D01*
X120915000Y-74924711D01*
X120883338Y-74684211D01*
X120820554Y-74449900D01*
X120727724Y-74225788D01*
X120606436Y-74015711D01*
X120458765Y-73823262D01*
X120458760Y-73823256D01*
X120287243Y-73651739D01*
X120287236Y-73651733D01*
X120094793Y-73504067D01*
X120094792Y-73504066D01*
X120094789Y-73504064D01*
X119884712Y-73382776D01*
X119884705Y-73382773D01*
X119660604Y-73289947D01*
X119426285Y-73227161D01*
X119185789Y-73195500D01*
X119185788Y-73195500D01*
X118943212Y-73195500D01*
X118943211Y-73195500D01*
X118702714Y-73227161D01*
X118468395Y-73289947D01*
X118244294Y-73382773D01*
X118244285Y-73382777D01*
X118034206Y-73504067D01*
X117841763Y-73651733D01*
X117841756Y-73651739D01*
X117670239Y-73823256D01*
X117670233Y-73823263D01*
X117522567Y-74015706D01*
X117401277Y-74225785D01*
X117401273Y-74225794D01*
X117308447Y-74449895D01*
X117245661Y-74684214D01*
X117214000Y-74924711D01*
X109485000Y-74924711D01*
X109453338Y-74684211D01*
X109390554Y-74449900D01*
X109297724Y-74225788D01*
X109176436Y-74015711D01*
X109028765Y-73823262D01*
X109028760Y-73823256D01*
X108857243Y-73651739D01*
X108857236Y-73651733D01*
X108664793Y-73504067D01*
X108664792Y-73504066D01*
X108664789Y-73504064D01*
X108454712Y-73382776D01*
X108454705Y-73382773D01*
X108230604Y-73289947D01*
X107996285Y-73227161D01*
X107755789Y-73195500D01*
X107755788Y-73195500D01*
X107513212Y-73195500D01*
X107513211Y-73195500D01*
X107272714Y-73227161D01*
X107038395Y-73289947D01*
X106814294Y-73382773D01*
X106814285Y-73382777D01*
X106604206Y-73504067D01*
X106411763Y-73651733D01*
X106411756Y-73651739D01*
X106240239Y-73823256D01*
X106240233Y-73823263D01*
X106092567Y-74015706D01*
X105971277Y-74225785D01*
X105971273Y-74225794D01*
X105878447Y-74449895D01*
X105815661Y-74684214D01*
X105784000Y-74924711D01*
X100500500Y-74924711D01*
X100500500Y-68881902D01*
X101499500Y-68881902D01*
X101499500Y-69118097D01*
X101536446Y-69351368D01*
X101609433Y-69575996D01*
X101716657Y-69786433D01*
X101855483Y-69977510D01*
X102022490Y-70144517D01*
X102213567Y-70283343D01*
X102312991Y-70334002D01*
X102424003Y-70390566D01*
X102424005Y-70390566D01*
X102424008Y-70390568D01*
X102544412Y-70429689D01*
X102648631Y-70463553D01*
X102881903Y-70500500D01*
X102881908Y-70500500D01*
X103118097Y-70500500D01*
X103351368Y-70463553D01*
X103575992Y-70390568D01*
X103786433Y-70283343D01*
X103977510Y-70144517D01*
X104144517Y-69977510D01*
X104283343Y-69786433D01*
X104390568Y-69575992D01*
X104463553Y-69351368D01*
X104488929Y-69191150D01*
X104500500Y-69118097D01*
X104500500Y-68881902D01*
X163499500Y-68881902D01*
X163499500Y-69118097D01*
X163536446Y-69351368D01*
X163609433Y-69575996D01*
X163716657Y-69786433D01*
X163855483Y-69977510D01*
X164022490Y-70144517D01*
X164213567Y-70283343D01*
X164312991Y-70334002D01*
X164424003Y-70390566D01*
X164424005Y-70390566D01*
X164424008Y-70390568D01*
X164544412Y-70429689D01*
X164648631Y-70463553D01*
X164881903Y-70500500D01*
X164881908Y-70500500D01*
X165118097Y-70500500D01*
X165351368Y-70463553D01*
X165575992Y-70390568D01*
X165786433Y-70283343D01*
X165977510Y-70144517D01*
X166144517Y-69977510D01*
X166283343Y-69786433D01*
X166390568Y-69575992D01*
X166463553Y-69351368D01*
X166488929Y-69191150D01*
X166500500Y-69118097D01*
X166500500Y-68881902D01*
X166463553Y-68648631D01*
X166390566Y-68424003D01*
X166283342Y-68213566D01*
X166144517Y-68022490D01*
X165977510Y-67855483D01*
X165786433Y-67716657D01*
X165575996Y-67609433D01*
X165351368Y-67536446D01*
X165118097Y-67499500D01*
X165118092Y-67499500D01*
X164881908Y-67499500D01*
X164881903Y-67499500D01*
X164648631Y-67536446D01*
X164424003Y-67609433D01*
X164213566Y-67716657D01*
X164104550Y-67795862D01*
X164022490Y-67855483D01*
X164022488Y-67855485D01*
X164022487Y-67855485D01*
X163855485Y-68022487D01*
X163855485Y-68022488D01*
X163855483Y-68022490D01*
X163795862Y-68104550D01*
X163716657Y-68213566D01*
X163609433Y-68424003D01*
X163536446Y-68648631D01*
X163499500Y-68881902D01*
X104500500Y-68881902D01*
X104463553Y-68648631D01*
X104390566Y-68424003D01*
X104283342Y-68213566D01*
X104144517Y-68022490D01*
X103977510Y-67855483D01*
X103786433Y-67716657D01*
X103575996Y-67609433D01*
X103351368Y-67536446D01*
X103118097Y-67499500D01*
X103118092Y-67499500D01*
X102881908Y-67499500D01*
X102881903Y-67499500D01*
X102648631Y-67536446D01*
X102424003Y-67609433D01*
X102213566Y-67716657D01*
X102104550Y-67795862D01*
X102022490Y-67855483D01*
X102022488Y-67855485D01*
X102022487Y-67855485D01*
X101855485Y-68022487D01*
X101855485Y-68022488D01*
X101855483Y-68022490D01*
X101795862Y-68104550D01*
X101716657Y-68213566D01*
X101609433Y-68424003D01*
X101536446Y-68648631D01*
X101499500Y-68881902D01*
X100500500Y-68881902D01*
X100500500Y-66624500D01*
X100520185Y-66557461D01*
X100572989Y-66511706D01*
X100624500Y-66500500D01*
X167375500Y-66500500D01*
X167442539Y-66520185D01*
G37*
G04 #@! TD.AperFunction*
M02*
