G04 #@! TF.GenerationSoftware,KiCad,Pcbnew,9.0.3*
G04 #@! TF.CreationDate,2025-07-12T02:21:59+01:00*
G04 #@! TF.ProjectId,PicoChainReference,5069636f-4368-4616-996e-526566657265,v1.2*
G04 #@! TF.SameCoordinates,Original*
G04 #@! TF.FileFunction,Copper,L1,Top*
G04 #@! TF.FilePolarity,Positive*
%FSLAX46Y46*%
G04 Gerber Fmt 4.6, Leading zero omitted, Abs format (unit mm)*
G04 Created by KiCad (PCBNEW 9.0.3) date 2025-07-12 02:21:59*
%MOMM*%
%LPD*%
G01*
G04 APERTURE LIST*
G04 Aperture macros list*
%AMRoundRect*
0 Rectangle with rounded corners*
0 $1 Rounding radius*
0 $2 $3 $4 $5 $6 $7 $8 $9 X,Y pos of 4 corners*
0 Add a 4 corners polygon primitive as box body*
4,1,4,$2,$3,$4,$5,$6,$7,$8,$9,$2,$3,0*
0 Add four circle primitives for the rounded corners*
1,1,$1+$1,$2,$3*
1,1,$1+$1,$4,$5*
1,1,$1+$1,$6,$7*
1,1,$1+$1,$8,$9*
0 Add four rect primitives between the rounded corners*
20,1,$1+$1,$2,$3,$4,$5,0*
20,1,$1+$1,$4,$5,$6,$7,0*
20,1,$1+$1,$6,$7,$8,$9,0*
20,1,$1+$1,$8,$9,$2,$3,0*%
G04 Aperture macros list end*
G04 #@! TA.AperFunction,SMDPad,CuDef*
%ADD10RoundRect,0.250000X0.412500X0.925000X-0.412500X0.925000X-0.412500X-0.925000X0.412500X-0.925000X0*%
G04 #@! TD*
G04 #@! TA.AperFunction,SMDPad,CuDef*
%ADD11RoundRect,0.123750X-1.771250X-0.371250X1.771250X-0.371250X1.771250X0.371250X-1.771250X0.371250X0*%
G04 #@! TD*
G04 #@! TA.AperFunction,SMDPad,CuDef*
%ADD12R,7.620000X10.840000*%
G04 #@! TD*
G04 #@! TA.AperFunction,SMDPad,CuDef*
%ADD13RoundRect,0.250000X-0.425000X0.450000X-0.425000X-0.450000X0.425000X-0.450000X0.425000X0.450000X0*%
G04 #@! TD*
G04 #@! TA.AperFunction,SMDPad,CuDef*
%ADD14R,0.250000X1.100000*%
G04 #@! TD*
G04 #@! TA.AperFunction,ComponentPad*
%ADD15R,1.700000X1.700000*%
G04 #@! TD*
G04 #@! TA.AperFunction,ComponentPad*
%ADD16O,1.700000X1.700000*%
G04 #@! TD*
G04 #@! TA.AperFunction,SMDPad,CuDef*
%ADD17RoundRect,0.243750X-0.243750X-0.456250X0.243750X-0.456250X0.243750X0.456250X-0.243750X0.456250X0*%
G04 #@! TD*
G04 #@! TA.AperFunction,SMDPad,CuDef*
%ADD18RoundRect,0.150000X0.150000X-0.512500X0.150000X0.512500X-0.150000X0.512500X-0.150000X-0.512500X0*%
G04 #@! TD*
G04 #@! TA.AperFunction,ComponentPad*
%ADD19R,1.500000X1.500000*%
G04 #@! TD*
G04 #@! TA.AperFunction,ComponentPad*
%ADD20C,1.500000*%
G04 #@! TD*
G04 #@! TA.AperFunction,SMDPad,CuDef*
%ADD21RoundRect,0.243750X-0.456250X0.243750X-0.456250X-0.243750X0.456250X-0.243750X0.456250X0.243750X0*%
G04 #@! TD*
G04 #@! TA.AperFunction,SMDPad,CuDef*
%ADD22RoundRect,0.250000X0.350000X-0.850000X0.350000X0.850000X-0.350000X0.850000X-0.350000X-0.850000X0*%
G04 #@! TD*
G04 #@! TA.AperFunction,SMDPad,CuDef*
%ADD23RoundRect,0.250000X1.125000X-1.275000X1.125000X1.275000X-1.125000X1.275000X-1.125000X-1.275000X0*%
G04 #@! TD*
G04 #@! TA.AperFunction,SMDPad,CuDef*
%ADD24RoundRect,0.249997X2.650003X-2.950003X2.650003X2.950003X-2.650003X2.950003X-2.650003X-2.950003X0*%
G04 #@! TD*
G04 #@! TA.AperFunction,SMDPad,CuDef*
%ADD25RoundRect,0.243750X0.243750X0.456250X-0.243750X0.456250X-0.243750X-0.456250X0.243750X-0.456250X0*%
G04 #@! TD*
G04 #@! TA.AperFunction,ViaPad*
%ADD26C,0.600000*%
G04 #@! TD*
G04 #@! TA.AperFunction,Conductor*
%ADD27C,1.016000*%
G04 #@! TD*
G04 #@! TA.AperFunction,Conductor*
%ADD28C,0.762000*%
G04 #@! TD*
G04 #@! TA.AperFunction,Conductor*
%ADD29C,0.254000*%
G04 #@! TD*
G04 #@! TA.AperFunction,Conductor*
%ADD30C,0.508000*%
G04 #@! TD*
G04 APERTURE END LIST*
D10*
X141145500Y-91599000D03*
X138070500Y-91599000D03*
D11*
X144669600Y-90932000D03*
X144669600Y-93472000D03*
X144669600Y-96012000D03*
D12*
X155549600Y-93472000D03*
D13*
X127940000Y-79264000D03*
X127940000Y-81964000D03*
D14*
X131258000Y-85304000D03*
X131758000Y-85304000D03*
X132258000Y-85304000D03*
X132758000Y-85304000D03*
X133258000Y-85304000D03*
X133258000Y-81004000D03*
X132758000Y-81004000D03*
X132258000Y-81004000D03*
X131758000Y-81004000D03*
X131258000Y-81004000D03*
D15*
X132491400Y-94208600D03*
D16*
X129951400Y-94208600D03*
D17*
X116410500Y-86741000D03*
X118285500Y-86741000D03*
D18*
X112550000Y-92000000D03*
X113500000Y-92000000D03*
X114450000Y-92000000D03*
X114450000Y-89725000D03*
X113500000Y-89725000D03*
X112550000Y-89725000D03*
D19*
X117794500Y-81396000D03*
D20*
X116524500Y-83936000D03*
X115254500Y-81396000D03*
X113984500Y-83936000D03*
X112714500Y-81396000D03*
X111444500Y-83936000D03*
X110174500Y-81396000D03*
X108904500Y-83936000D03*
D13*
X124384000Y-79264000D03*
X124384000Y-81964000D03*
D21*
X143357600Y-86514700D03*
X143357600Y-88389700D03*
X108712000Y-86438500D03*
X108712000Y-88313500D03*
D15*
X124663200Y-91155600D03*
D16*
X124663200Y-93695600D03*
D13*
X136068000Y-79518000D03*
X136068000Y-82218000D03*
X139624000Y-79518000D03*
X139624000Y-82218000D03*
D22*
X135059000Y-76857000D03*
D23*
X135814000Y-72232000D03*
X138864000Y-72232000D03*
D24*
X137339000Y-70557000D03*
D23*
X135814000Y-68882000D03*
X138864000Y-68882000D03*
D22*
X139619000Y-76857000D03*
D10*
X141145500Y-96425000D03*
X138070500Y-96425000D03*
D15*
X129941400Y-90449400D03*
D16*
X132481400Y-90449400D03*
D19*
X157794500Y-81396000D03*
D20*
X156524500Y-83936000D03*
X155254500Y-81396000D03*
X153984500Y-83936000D03*
X152714500Y-81396000D03*
X151444500Y-83936000D03*
X150174500Y-81396000D03*
X148904500Y-83936000D03*
D22*
X124390000Y-76844000D03*
D23*
X125145000Y-72219000D03*
X128195000Y-72219000D03*
D24*
X126670000Y-70544000D03*
D23*
X125145000Y-68869000D03*
X128195000Y-68869000D03*
D22*
X128950000Y-76844000D03*
D25*
X156512500Y-86741000D03*
X154637500Y-86741000D03*
D15*
X120421400Y-91181000D03*
D16*
X120421400Y-93721000D03*
D26*
X122351800Y-85394800D03*
X142341600Y-76428600D03*
X110236000Y-90068400D03*
X121031000Y-80518000D03*
X153517600Y-78486000D03*
X147523200Y-87934800D03*
X118135400Y-90932000D03*
X129768600Y-81432400D03*
X134467600Y-80518000D03*
X141605000Y-89535000D03*
X132207000Y-76377800D03*
X121031000Y-76327000D03*
X149809200Y-77444600D03*
X116000000Y-90932000D03*
X141630400Y-88392000D03*
X110250000Y-88392000D03*
X122351800Y-86741000D03*
X149504400Y-86741000D03*
X121031000Y-77470000D03*
X142330500Y-77486000D03*
X132207000Y-77470000D03*
X133385000Y-79534000D03*
X121031000Y-79502000D03*
X153578000Y-79534000D03*
X131953000Y-82677000D03*
X121031000Y-78486000D03*
X132842000Y-78502000D03*
X149820500Y-78502000D03*
D27*
X146564599Y-96012000D02*
X144669600Y-96012000D01*
X148818600Y-93757999D02*
X146564599Y-96012000D01*
X148818600Y-87426800D02*
X148818600Y-93757999D01*
X149504400Y-86741000D02*
X148818600Y-87426800D01*
X154637500Y-86741000D02*
X149504400Y-86741000D01*
X118285500Y-86741000D02*
X122351800Y-86741000D01*
D28*
X126111000Y-81093000D02*
X126111000Y-85491400D01*
X126111000Y-85491400D02*
X120421400Y-91181000D01*
X127940000Y-79264000D02*
X126111000Y-81093000D01*
X128950000Y-78254000D02*
X127940000Y-79264000D01*
X128950000Y-76754000D02*
X128950000Y-78254000D01*
D29*
X138070500Y-88794500D02*
X138070500Y-91599000D01*
X133258000Y-85304000D02*
X134580000Y-85304000D01*
X134580000Y-85304000D02*
X138070500Y-88794500D01*
X113500000Y-89725000D02*
X113500000Y-90117650D01*
D30*
X141132000Y-83344000D02*
X141132000Y-81002000D01*
D29*
X113500000Y-90117650D02*
X114314350Y-90932000D01*
X139624000Y-79438000D02*
X139624000Y-79494000D01*
X131258000Y-80924000D02*
X131258000Y-83328000D01*
D30*
X131258000Y-83328000D02*
X131930000Y-84000000D01*
D29*
X131258000Y-83328000D02*
X131258000Y-85224000D01*
X139624000Y-79772000D02*
X139624000Y-79438000D01*
D30*
X139624000Y-79438000D02*
X139624000Y-76782000D01*
X140476000Y-84000000D02*
X141132000Y-83344000D01*
X141132000Y-81002000D02*
X139624000Y-79494000D01*
D28*
X124663200Y-91155600D02*
X124663200Y-89922800D01*
X124663200Y-89922800D02*
X131258000Y-83328000D01*
D30*
X131930000Y-84000000D02*
X140476000Y-84000000D01*
D29*
X114314350Y-90932000D02*
X116000000Y-90932000D01*
D27*
X108790500Y-88392000D02*
X108712000Y-88313500D01*
X108712000Y-88313500D02*
X108012001Y-88313500D01*
D28*
X114681000Y-71755000D02*
X107061000Y-79375000D01*
X124390000Y-74698000D02*
X124390000Y-76674000D01*
X123876000Y-74692000D02*
X120939000Y-71755000D01*
X107061000Y-87362499D02*
X107061000Y-79375000D01*
D27*
X143355300Y-88392000D02*
X143357600Y-88389700D01*
D30*
X136068000Y-77786000D02*
X135059000Y-76777000D01*
D28*
X124384000Y-79184000D02*
X124384000Y-76680000D01*
D27*
X110250000Y-88392000D02*
X108790500Y-88392000D01*
D28*
X135059000Y-76777000D02*
X132988000Y-74706000D01*
D30*
X124384000Y-76680000D02*
X124390000Y-76674000D01*
D28*
X132988000Y-74692000D02*
X123876000Y-74692000D01*
X120939000Y-71755000D02*
X114681000Y-71755000D01*
X108012001Y-88313500D02*
X107061000Y-87362499D01*
D27*
X141630400Y-88392000D02*
X143355300Y-88392000D01*
D30*
X136068000Y-79438000D02*
X136068000Y-77786000D01*
D28*
X132988000Y-74706000D02*
X132988000Y-74692000D01*
D30*
X132491000Y-90439800D02*
X132491000Y-86905000D01*
X132491000Y-86905000D02*
X132496000Y-86900000D01*
D29*
X132758000Y-86240800D02*
X132511800Y-86487000D01*
X132511800Y-86487000D02*
X132511800Y-86884200D01*
X132758000Y-85304000D02*
X132758000Y-86240800D01*
D30*
X132481400Y-90449400D02*
X132491000Y-90439800D01*
D29*
X131758000Y-86133000D02*
X131499000Y-86392000D01*
D30*
X129941400Y-90449400D02*
X129951000Y-90439800D01*
D29*
X131758000Y-85304000D02*
X131758000Y-86133000D01*
D30*
X129951000Y-90439800D02*
X129951000Y-86397000D01*
D29*
X131499000Y-86392000D02*
X129956000Y-86392000D01*
D30*
X129951000Y-86397000D02*
X129956000Y-86392000D01*
D27*
X141558500Y-96012000D02*
X141145500Y-96425000D01*
X144669600Y-96012000D02*
X141558500Y-96012000D01*
X142468600Y-93472000D02*
X141145500Y-92148900D01*
D28*
X132491400Y-94208600D02*
X138535900Y-94208600D01*
X138535900Y-94208600D02*
X141145500Y-91599000D01*
D27*
X144669600Y-93472000D02*
X142468600Y-93472000D01*
X141145500Y-92148900D02*
X141145500Y-91599000D01*
X116410500Y-86741000D02*
X116410500Y-84000000D01*
D30*
X116410500Y-84000000D02*
X116474500Y-83936000D01*
X112550000Y-92000000D02*
X111444500Y-90894500D01*
X147575500Y-82731000D02*
X142330500Y-77486000D01*
X114535814Y-77486000D02*
X111394500Y-80627314D01*
X111394500Y-80627314D02*
X111394500Y-83856000D01*
X111444500Y-90894500D02*
X111444500Y-83936000D01*
D29*
X132215000Y-80961000D02*
X132215000Y-77478000D01*
X132215000Y-77478000D02*
X132207000Y-77470000D01*
D30*
X150239500Y-82731000D02*
X147575500Y-82731000D01*
D29*
X132258000Y-81004000D02*
X132215000Y-80961000D01*
D30*
X121015000Y-77486000D02*
X114535814Y-77486000D01*
X151444500Y-83936000D02*
X150239500Y-82731000D01*
X113934500Y-80883286D02*
X113934500Y-83856000D01*
D29*
X133258000Y-79661000D02*
X133385000Y-79534000D01*
D30*
X153984500Y-79940500D02*
X153984500Y-83936000D01*
D29*
X133258000Y-81004000D02*
X133258000Y-79661000D01*
D30*
X115283786Y-79534000D02*
X113934500Y-80883286D01*
X153578000Y-79534000D02*
X153984500Y-79940500D01*
X120999000Y-79534000D02*
X115283786Y-79534000D01*
X114450000Y-84401500D02*
X113984500Y-83936000D01*
X114450000Y-89725000D02*
X114450000Y-84401500D01*
X115254500Y-88254500D02*
X115254500Y-81396000D01*
X117000000Y-90000000D02*
X115254500Y-88254500D01*
D29*
X131758000Y-82482000D02*
X131953000Y-82677000D01*
D30*
X117000000Y-91500000D02*
X117000000Y-90000000D01*
X116500000Y-92000000D02*
X117000000Y-91500000D01*
D29*
X131758000Y-81004000D02*
X131758000Y-82482000D01*
D30*
X114450000Y-92000000D02*
X116500000Y-92000000D01*
D29*
X115204500Y-81396000D02*
X115457609Y-81396000D01*
X132842000Y-78502000D02*
X132758000Y-78586000D01*
X132758000Y-78586000D02*
X132758000Y-81004000D01*
D30*
X112550000Y-89725000D02*
X112714500Y-89560500D01*
X121015000Y-78502000D02*
X114986000Y-78502000D01*
X114986000Y-78502000D02*
X112664500Y-80823500D01*
X112714500Y-89560500D02*
X112714500Y-81396000D01*
X149820500Y-78502000D02*
X152714500Y-81396000D01*
D27*
X108712000Y-86438500D02*
X108712000Y-84078500D01*
X108712000Y-84078500D02*
X108854500Y-83936000D01*
X146325800Y-86514700D02*
X148904500Y-83936000D01*
X143357600Y-86514700D02*
X146325800Y-86514700D01*
X156524500Y-86729000D02*
X156512500Y-86741000D01*
X156524500Y-83936000D02*
X156524500Y-86729000D01*
G04 #@! TA.AperFunction,Conductor*
G36*
X167441621Y-66520502D02*
G01*
X167488114Y-66574158D01*
X167499500Y-66626500D01*
X167499500Y-99373500D01*
X167479498Y-99441621D01*
X167425842Y-99488114D01*
X167373500Y-99499500D01*
X100626500Y-99499500D01*
X100558379Y-99479498D01*
X100511886Y-99425842D01*
X100500500Y-99373500D01*
X100500500Y-97400516D01*
X136900000Y-97400516D01*
X136910605Y-97504318D01*
X136910606Y-97504321D01*
X136966342Y-97672525D01*
X137059365Y-97823339D01*
X137059370Y-97823345D01*
X137184654Y-97948629D01*
X137184660Y-97948634D01*
X137335474Y-98041657D01*
X137503678Y-98097393D01*
X137503681Y-98097394D01*
X137607483Y-98107999D01*
X137607483Y-98108000D01*
X137816500Y-98108000D01*
X138324500Y-98108000D01*
X138533517Y-98108000D01*
X138533516Y-98107999D01*
X138637318Y-98097394D01*
X138637321Y-98097393D01*
X138805525Y-98041657D01*
X138956339Y-97948634D01*
X138956345Y-97948629D01*
X139081629Y-97823345D01*
X139081634Y-97823339D01*
X139174657Y-97672525D01*
X139230393Y-97504321D01*
X139230394Y-97504318D01*
X139240999Y-97400516D01*
X139241000Y-97400516D01*
X139241000Y-96679000D01*
X138324500Y-96679000D01*
X138324500Y-98108000D01*
X137816500Y-98108000D01*
X137816500Y-96679000D01*
X136900000Y-96679000D01*
X136900000Y-97400516D01*
X100500500Y-97400516D01*
X100500500Y-79881908D01*
X101499500Y-79881908D01*
X101499500Y-79934802D01*
X101499500Y-80118092D01*
X101536447Y-80351368D01*
X101609432Y-80575992D01*
X101716657Y-80786433D01*
X101716659Y-80786436D01*
X101855484Y-80977512D01*
X102022487Y-81144515D01*
X102109335Y-81207614D01*
X102213567Y-81283343D01*
X102424008Y-81390568D01*
X102648632Y-81463553D01*
X102881908Y-81500500D01*
X102881911Y-81500500D01*
X103118089Y-81500500D01*
X103118092Y-81500500D01*
X103351368Y-81463553D01*
X103575992Y-81390568D01*
X103786433Y-81283343D01*
X103977510Y-81144517D01*
X104144517Y-80977510D01*
X104283343Y-80786433D01*
X104390568Y-80575992D01*
X104463553Y-80351368D01*
X104500500Y-80118092D01*
X104500500Y-79881908D01*
X104463553Y-79648632D01*
X104390568Y-79424008D01*
X104283343Y-79213567D01*
X104144517Y-79022490D01*
X104144515Y-79022487D01*
X103977512Y-78855484D01*
X103786436Y-78716659D01*
X103786435Y-78716658D01*
X103786433Y-78716657D01*
X103575992Y-78609432D01*
X103351368Y-78536447D01*
X103118092Y-78499500D01*
X102881908Y-78499500D01*
X102648632Y-78536447D01*
X102648629Y-78536447D01*
X102648628Y-78536448D01*
X102424008Y-78609432D01*
X102424006Y-78609433D01*
X102213563Y-78716659D01*
X102022487Y-78855484D01*
X101855484Y-79022487D01*
X101716659Y-79213563D01*
X101609433Y-79424006D01*
X101609432Y-79424008D01*
X101543062Y-79628274D01*
X101536447Y-79648632D01*
X101499500Y-79881908D01*
X100500500Y-79881908D01*
X100500500Y-74924709D01*
X105784000Y-74924709D01*
X105784000Y-75167290D01*
X105815660Y-75407782D01*
X105878444Y-75642095D01*
X105878445Y-75642097D01*
X105878446Y-75642100D01*
X105971276Y-75866212D01*
X105971277Y-75866213D01*
X105971282Y-75866224D01*
X106092561Y-76076285D01*
X106092563Y-76076288D01*
X106092564Y-76076289D01*
X106240235Y-76268738D01*
X106240239Y-76268742D01*
X106240244Y-76268748D01*
X106411751Y-76440255D01*
X106411756Y-76440259D01*
X106411762Y-76440265D01*
X106604211Y-76587936D01*
X106604214Y-76587938D01*
X106814275Y-76709217D01*
X106814279Y-76709218D01*
X106814288Y-76709224D01*
X107038400Y-76802054D01*
X107272711Y-76864838D01*
X107272715Y-76864838D01*
X107272717Y-76864839D01*
X107334702Y-76872999D01*
X107513212Y-76896500D01*
X107513219Y-76896500D01*
X107755781Y-76896500D01*
X107755788Y-76896500D01*
X107973137Y-76867885D01*
X107996282Y-76864839D01*
X107996282Y-76864838D01*
X107996289Y-76864838D01*
X108230600Y-76802054D01*
X108454712Y-76709224D01*
X108509180Y-76677777D01*
X108578175Y-76661038D01*
X108645267Y-76684257D01*
X108689155Y-76740064D01*
X108695904Y-76810739D01*
X108663373Y-76873844D01*
X108661276Y-76875990D01*
X106655892Y-78881375D01*
X106567377Y-78969889D01*
X106567372Y-78969896D01*
X106497827Y-79073977D01*
X106449924Y-79189625D01*
X106449922Y-79189630D01*
X106425500Y-79312406D01*
X106425500Y-87425092D01*
X106449922Y-87547868D01*
X106449924Y-87547873D01*
X106480445Y-87621556D01*
X106497827Y-87663521D01*
X106567375Y-87767607D01*
X106567377Y-87767609D01*
X107237652Y-88437884D01*
X107271678Y-88500196D01*
X107272135Y-88502393D01*
X107278802Y-88535908D01*
X107278803Y-88535910D01*
X107278804Y-88535913D01*
X107336283Y-88674679D01*
X107419729Y-88799565D01*
X107525936Y-88905772D01*
X107650822Y-88989218D01*
X107789588Y-89046697D01*
X107936901Y-89076000D01*
X108424252Y-89076000D01*
X108472469Y-89085590D01*
X108568087Y-89125197D01*
X108715400Y-89154500D01*
X110325100Y-89154500D01*
X110472413Y-89125197D01*
X110611179Y-89067718D01*
X110736065Y-88984272D01*
X110736065Y-88984271D01*
X110739998Y-88981644D01*
X110807751Y-88960429D01*
X110876218Y-88979212D01*
X110923661Y-89032029D01*
X110936000Y-89086409D01*
X110936000Y-90827555D01*
X110936000Y-90961445D01*
X110970653Y-91090774D01*
X110970654Y-91090776D01*
X110970655Y-91090778D01*
X111037596Y-91206723D01*
X111037598Y-91206725D01*
X111037599Y-91206727D01*
X111958596Y-92127724D01*
X111992620Y-92190035D01*
X111995500Y-92216818D01*
X111995500Y-92544334D01*
X111997908Y-92559536D01*
X112010501Y-92639053D01*
X112068673Y-92753223D01*
X112159276Y-92843826D01*
X112216361Y-92872912D01*
X112273445Y-92901998D01*
X112368166Y-92917000D01*
X112368168Y-92917000D01*
X112731829Y-92917000D01*
X112731834Y-92917000D01*
X112747944Y-92914448D01*
X112818352Y-92923547D01*
X112856748Y-92949802D01*
X112943497Y-93036551D01*
X113086600Y-93121181D01*
X113246000Y-93167491D01*
X113246000Y-92126000D01*
X113266002Y-92057879D01*
X113319658Y-92011386D01*
X113372000Y-92000000D01*
X113628000Y-92000000D01*
X113696121Y-92020002D01*
X113742614Y-92073658D01*
X113754000Y-92126000D01*
X113754000Y-93167491D01*
X113913399Y-93121181D01*
X114056500Y-93036552D01*
X114143250Y-92949802D01*
X114205562Y-92915777D01*
X114252053Y-92914448D01*
X114268166Y-92917000D01*
X114268169Y-92917000D01*
X114631832Y-92917000D01*
X114631834Y-92917000D01*
X114726555Y-92901998D01*
X114840723Y-92843826D01*
X114931326Y-92753223D01*
X114989498Y-92639055D01*
X114993341Y-92614791D01*
X115023752Y-92550638D01*
X115084020Y-92513110D01*
X115117790Y-92508500D01*
X116566943Y-92508500D01*
X116566945Y-92508500D01*
X116696274Y-92473847D01*
X116812227Y-92406901D01*
X117406901Y-91812226D01*
X117473847Y-91696274D01*
X117508500Y-91566945D01*
X117508500Y-91433055D01*
X117508500Y-89933055D01*
X117473847Y-89803726D01*
X117406901Y-89687774D01*
X117312226Y-89593099D01*
X116561714Y-88842587D01*
X115799905Y-88080777D01*
X115784960Y-88053408D01*
X115768104Y-88027180D01*
X115767198Y-88020881D01*
X115765879Y-88018465D01*
X115763000Y-87991682D01*
X115763000Y-87759912D01*
X115783002Y-87691791D01*
X115836658Y-87645298D01*
X115906932Y-87635194D01*
X115933022Y-87641853D01*
X116059750Y-87689120D01*
X116119091Y-87695500D01*
X116701908Y-87695499D01*
X116761250Y-87689120D01*
X116895491Y-87639051D01*
X116898882Y-87636513D01*
X117010189Y-87553189D01*
X117096049Y-87438494D01*
X117096049Y-87438493D01*
X117096051Y-87438491D01*
X117146120Y-87304250D01*
X117152500Y-87244909D01*
X117152499Y-86931569D01*
X117155091Y-86922742D01*
X117153782Y-86913637D01*
X117154920Y-86906988D01*
X117154920Y-86906987D01*
X117173000Y-86816100D01*
X117173000Y-86665897D01*
X117523000Y-86665897D01*
X117523000Y-86816102D01*
X117527367Y-86838054D01*
X117541078Y-86906987D01*
X117541079Y-86906989D01*
X117543500Y-86931571D01*
X117543500Y-87244900D01*
X117543502Y-87244921D01*
X117549879Y-87304246D01*
X117549879Y-87304248D01*
X117549880Y-87304250D01*
X117567578Y-87351700D01*
X117599950Y-87438494D01*
X117685810Y-87553189D01*
X117800505Y-87639049D01*
X117800507Y-87639049D01*
X117800509Y-87639051D01*
X117934750Y-87689120D01*
X117994091Y-87695500D01*
X118576908Y-87695499D01*
X118636250Y-87689120D01*
X118770491Y-87639051D01*
X118773882Y-87636513D01*
X118793862Y-87621556D01*
X118885189Y-87553189D01*
X118885194Y-87553181D01*
X118891557Y-87546820D01*
X118892674Y-87547937D01*
X118941424Y-87511444D01*
X118985456Y-87503500D01*
X122426900Y-87503500D01*
X122574213Y-87474197D01*
X122712979Y-87416718D01*
X122837865Y-87333272D01*
X122944072Y-87227065D01*
X123027518Y-87102179D01*
X123084997Y-86963413D01*
X123114300Y-86816100D01*
X123114300Y-86665900D01*
X123084997Y-86518587D01*
X123027518Y-86379821D01*
X122944072Y-86254935D01*
X122837865Y-86148728D01*
X122712979Y-86065282D01*
X122574214Y-86007803D01*
X122426903Y-85978500D01*
X122426900Y-85978500D01*
X118985456Y-85978500D01*
X118917335Y-85958498D01*
X118891910Y-85934826D01*
X118891557Y-85935180D01*
X118885191Y-85928814D01*
X118885189Y-85928811D01*
X118870952Y-85918153D01*
X118770494Y-85842950D01*
X118733494Y-85829150D01*
X118636250Y-85792880D01*
X118606579Y-85789690D01*
X118576910Y-85786500D01*
X117994099Y-85786500D01*
X117994078Y-85786502D01*
X117934753Y-85792879D01*
X117800505Y-85842950D01*
X117685810Y-85928810D01*
X117599950Y-86043505D01*
X117549880Y-86177750D01*
X117543500Y-86237083D01*
X117543500Y-86550429D01*
X117541079Y-86575011D01*
X117523000Y-86665897D01*
X117173000Y-86665897D01*
X117173000Y-84760267D01*
X117193002Y-84692146D01*
X117209905Y-84671172D01*
X117242215Y-84638862D01*
X117304746Y-84576331D01*
X117414676Y-84411809D01*
X117490397Y-84229002D01*
X117529000Y-84034935D01*
X117529000Y-83837065D01*
X117490397Y-83642998D01*
X117414676Y-83460191D01*
X117304746Y-83295669D01*
X117164831Y-83155754D01*
X117000309Y-83045824D01*
X116892063Y-83000987D01*
X116817505Y-82970104D01*
X116817502Y-82970103D01*
X116623438Y-82931500D01*
X116623435Y-82931500D01*
X116425565Y-82931500D01*
X116425561Y-82931500D01*
X116231497Y-82970103D01*
X116231494Y-82970104D01*
X116048690Y-83045824D01*
X115959002Y-83105752D01*
X115891249Y-83126967D01*
X115822782Y-83108184D01*
X115775339Y-83055366D01*
X115763000Y-83000987D01*
X115763000Y-82331679D01*
X115783002Y-82263558D01*
X115818993Y-82226918D01*
X115894831Y-82176246D01*
X116034746Y-82036331D01*
X116144676Y-81871809D01*
X116220397Y-81689002D01*
X116239593Y-81592495D01*
X116243427Y-81573226D01*
X116243427Y-81573225D01*
X116258999Y-81494938D01*
X116259000Y-81494935D01*
X116259000Y-81297064D01*
X116258999Y-81297061D01*
X116258986Y-81296996D01*
X116220397Y-81102998D01*
X116144676Y-80920191D01*
X116034746Y-80755669D01*
X115894831Y-80615754D01*
X115730309Y-80505824D01*
X115649855Y-80472499D01*
X115547505Y-80430104D01*
X115547502Y-80430103D01*
X115411125Y-80402975D01*
X115401973Y-80398187D01*
X115391674Y-80397451D01*
X115371047Y-80382010D01*
X115348215Y-80370067D01*
X115343105Y-80361093D01*
X115334838Y-80354905D01*
X115325832Y-80330759D01*
X115313084Y-80308371D01*
X115313636Y-80298060D01*
X115310028Y-80288384D01*
X115315505Y-80263204D01*
X115316885Y-80237477D01*
X115323326Y-80227254D01*
X115325120Y-80219010D01*
X115346610Y-80190302D01*
X115457509Y-80079404D01*
X115519821Y-80045379D01*
X115546604Y-80042500D01*
X116624425Y-80042500D01*
X116692546Y-80062502D01*
X116739039Y-80116158D01*
X116749143Y-80186432D01*
X116719649Y-80251012D01*
X116699934Y-80269368D01*
X116681595Y-80283095D01*
X116594055Y-80400034D01*
X116594055Y-80400035D01*
X116543005Y-80536906D01*
X116536500Y-80597402D01*
X116536500Y-81142000D01*
X117511099Y-81142000D01*
X117490424Y-81162675D01*
X117440396Y-81249325D01*
X117414500Y-81345972D01*
X117414500Y-81446028D01*
X117440396Y-81542675D01*
X117490424Y-81629325D01*
X117511099Y-81650000D01*
X116536500Y-81650000D01*
X116536500Y-82194597D01*
X116543005Y-82255093D01*
X116594055Y-82391964D01*
X116594055Y-82391965D01*
X116681595Y-82508904D01*
X116798534Y-82596444D01*
X116935406Y-82647494D01*
X116995902Y-82653999D01*
X116995915Y-82654000D01*
X117540500Y-82654000D01*
X117540500Y-81679401D01*
X117561175Y-81700076D01*
X117647825Y-81750104D01*
X117744472Y-81776000D01*
X117844528Y-81776000D01*
X117941175Y-81750104D01*
X118027825Y-81700076D01*
X118048500Y-81679401D01*
X118048500Y-82654000D01*
X118593085Y-82654000D01*
X118593097Y-82653999D01*
X118653593Y-82647494D01*
X118790464Y-82596444D01*
X118790465Y-82596444D01*
X118907404Y-82508904D01*
X118940633Y-82464516D01*
X123201000Y-82464516D01*
X123211605Y-82568318D01*
X123211606Y-82568321D01*
X123267342Y-82736525D01*
X123360365Y-82887339D01*
X123360370Y-82887345D01*
X123485654Y-83012629D01*
X123485660Y-83012634D01*
X123636474Y-83105657D01*
X123804678Y-83161393D01*
X123804681Y-83161394D01*
X123908483Y-83171999D01*
X123908483Y-83172000D01*
X124130000Y-83172000D01*
X124130000Y-82218000D01*
X123201000Y-82218000D01*
X123201000Y-82464516D01*
X118940633Y-82464516D01*
X118994944Y-82391965D01*
X118994944Y-82391964D01*
X119045994Y-82255093D01*
X119052499Y-82194597D01*
X119052500Y-82194585D01*
X119052500Y-81650000D01*
X118077901Y-81650000D01*
X118098576Y-81629325D01*
X118148604Y-81542675D01*
X118169823Y-81463483D01*
X123201000Y-81463483D01*
X123201000Y-81710000D01*
X124130000Y-81710000D01*
X124130000Y-80756000D01*
X123908483Y-80756000D01*
X123804681Y-80766605D01*
X123804678Y-80766606D01*
X123636474Y-80822342D01*
X123485660Y-80915365D01*
X123485654Y-80915370D01*
X123360370Y-81040654D01*
X123360365Y-81040660D01*
X123267342Y-81191474D01*
X123211606Y-81359678D01*
X123211605Y-81359681D01*
X123201000Y-81463483D01*
X118169823Y-81463483D01*
X118174500Y-81446028D01*
X118174500Y-81345972D01*
X118148604Y-81249325D01*
X118098576Y-81162675D01*
X118077901Y-81142000D01*
X119052500Y-81142000D01*
X119052500Y-80597414D01*
X119052499Y-80597402D01*
X119045994Y-80536906D01*
X118994944Y-80400035D01*
X118994944Y-80400034D01*
X118907404Y-80283095D01*
X118889066Y-80269368D01*
X118846519Y-80212532D01*
X118841455Y-80141717D01*
X118875480Y-80079405D01*
X118937792Y-80045379D01*
X118964575Y-80042500D01*
X120889161Y-80042500D01*
X120921771Y-80046793D01*
X120929837Y-80048954D01*
X120957999Y-80056500D01*
X120958000Y-80056500D01*
X121103999Y-80056500D01*
X121104001Y-80056500D01*
X121245029Y-80018712D01*
X121245032Y-80018710D01*
X121245033Y-80018710D01*
X121316045Y-79977711D01*
X121371471Y-79945711D01*
X121474711Y-79842471D01*
X121521015Y-79762270D01*
X121547710Y-79716033D01*
X121547710Y-79716032D01*
X121547712Y-79716029D01*
X121585500Y-79575001D01*
X121585500Y-79428999D01*
X121547712Y-79287971D01*
X121547710Y-79287968D01*
X121547710Y-79287966D01*
X121474713Y-79161532D01*
X121474705Y-79161522D01*
X121396278Y-79083095D01*
X121362252Y-79020783D01*
X121367317Y-78949968D01*
X121396278Y-78904905D01*
X121474705Y-78826477D01*
X121474711Y-78826471D01*
X121538472Y-78716033D01*
X121547710Y-78700033D01*
X121547710Y-78700032D01*
X121547712Y-78700029D01*
X121585500Y-78559001D01*
X121585500Y-78412999D01*
X121547712Y-78271971D01*
X121547710Y-78271968D01*
X121547710Y-78271966D01*
X121474713Y-78145532D01*
X121474705Y-78145522D01*
X121396278Y-78067095D01*
X121362252Y-78004783D01*
X121367317Y-77933968D01*
X121396278Y-77888905D01*
X121474705Y-77810477D01*
X121474711Y-77810471D01*
X121538472Y-77700033D01*
X121547710Y-77684033D01*
X121547710Y-77684032D01*
X121547712Y-77684029D01*
X121585500Y-77543001D01*
X121585500Y-77396999D01*
X121547712Y-77255971D01*
X121547710Y-77255968D01*
X121547710Y-77255966D01*
X121474713Y-77129532D01*
X121474705Y-77129522D01*
X121371477Y-77026294D01*
X121371467Y-77026286D01*
X121245033Y-76953289D01*
X121228372Y-76948824D01*
X121104001Y-76915500D01*
X120957999Y-76915500D01*
X120816971Y-76953288D01*
X120816970Y-76953288D01*
X120816968Y-76953289D01*
X120804273Y-76960619D01*
X120741273Y-76977500D01*
X119870480Y-76977500D01*
X119802359Y-76957498D01*
X119755866Y-76903842D01*
X119745762Y-76833568D01*
X119775256Y-76768988D01*
X119822260Y-76735092D01*
X119884712Y-76709224D01*
X120094789Y-76587936D01*
X120287238Y-76440265D01*
X120458765Y-76268738D01*
X120606436Y-76076289D01*
X120727724Y-75866212D01*
X120820554Y-75642100D01*
X120883338Y-75407789D01*
X120915000Y-75167288D01*
X120915000Y-74924712D01*
X120883338Y-74684211D01*
X120820554Y-74449900D01*
X120727724Y-74225788D01*
X120727718Y-74225779D01*
X120727717Y-74225775D01*
X120606438Y-74015714D01*
X120606436Y-74015711D01*
X120458765Y-73823262D01*
X120458759Y-73823256D01*
X120458755Y-73823251D01*
X120287248Y-73651744D01*
X120287242Y-73651739D01*
X120287238Y-73651735D01*
X120094789Y-73504064D01*
X120094788Y-73504063D01*
X120094785Y-73504061D01*
X119884724Y-73382782D01*
X119884716Y-73382778D01*
X119884712Y-73382776D01*
X119660600Y-73289946D01*
X119660597Y-73289945D01*
X119660595Y-73289944D01*
X119426282Y-73227160D01*
X119185790Y-73195500D01*
X119185788Y-73195500D01*
X118943212Y-73195500D01*
X118943209Y-73195500D01*
X118702717Y-73227160D01*
X118468404Y-73289944D01*
X118468400Y-73289946D01*
X118244286Y-73382777D01*
X118244275Y-73382782D01*
X118034214Y-73504061D01*
X117841762Y-73651735D01*
X117841751Y-73651744D01*
X117670244Y-73823251D01*
X117670235Y-73823262D01*
X117522561Y-74015714D01*
X117401282Y-74225775D01*
X117401277Y-74225786D01*
X117401276Y-74225788D01*
X117388206Y-74257342D01*
X117308446Y-74449900D01*
X117308444Y-74449904D01*
X117245660Y-74684217D01*
X117214000Y-74924709D01*
X117214000Y-75167290D01*
X117245660Y-75407782D01*
X117308444Y-75642095D01*
X117308445Y-75642097D01*
X117308446Y-75642100D01*
X117401276Y-75866212D01*
X117401277Y-75866213D01*
X117401282Y-75866224D01*
X117522561Y-76076285D01*
X117522563Y-76076288D01*
X117522564Y-76076289D01*
X117670235Y-76268738D01*
X117670239Y-76268742D01*
X117670244Y-76268748D01*
X117841751Y-76440255D01*
X117841756Y-76440259D01*
X117841762Y-76440265D01*
X118034211Y-76587936D01*
X118034214Y-76587938D01*
X118244275Y-76709217D01*
X118244279Y-76709218D01*
X118244288Y-76709224D01*
X118306739Y-76735092D01*
X118362019Y-76779639D01*
X118384440Y-76847002D01*
X118366882Y-76915794D01*
X118314920Y-76964172D01*
X118258520Y-76977500D01*
X114602759Y-76977500D01*
X114468869Y-76977500D01*
X114339540Y-77012153D01*
X114339538Y-77012154D01*
X114339535Y-77012155D01*
X114223589Y-77079097D01*
X114223586Y-77079099D01*
X110996107Y-80306577D01*
X110933795Y-80340603D01*
X110862979Y-80335538D01*
X110838289Y-80322287D01*
X110838065Y-80322654D01*
X110833836Y-80320063D01*
X110657402Y-80230165D01*
X110469085Y-80168977D01*
X110273504Y-80138000D01*
X110075496Y-80138000D01*
X109879914Y-80168977D01*
X109691594Y-80230166D01*
X109515171Y-80320057D01*
X109515167Y-80320060D01*
X109481923Y-80344212D01*
X110153710Y-81016000D01*
X110124472Y-81016000D01*
X110027825Y-81041896D01*
X109941175Y-81091924D01*
X109870424Y-81162675D01*
X109820396Y-81249325D01*
X109794500Y-81345972D01*
X109794500Y-81375210D01*
X109122712Y-80703422D01*
X109098560Y-80736667D01*
X109098557Y-80736671D01*
X109008666Y-80913094D01*
X108947477Y-81101414D01*
X108916500Y-81296996D01*
X108916500Y-81495003D01*
X108947477Y-81690585D01*
X109008666Y-81878905D01*
X109098558Y-82055330D01*
X109122712Y-82088575D01*
X109794500Y-81416787D01*
X109794500Y-81446028D01*
X109820396Y-81542675D01*
X109870424Y-81629325D01*
X109941175Y-81700076D01*
X110027825Y-81750104D01*
X110124472Y-81776000D01*
X110153709Y-81776000D01*
X109481923Y-82447785D01*
X109481923Y-82447787D01*
X109515160Y-82471935D01*
X109691597Y-82561834D01*
X109879914Y-82623022D01*
X110075496Y-82654000D01*
X110273504Y-82654000D01*
X110469085Y-82623022D01*
X110657404Y-82561833D01*
X110702796Y-82538705D01*
X110772573Y-82525600D01*
X110838358Y-82552299D01*
X110879265Y-82610327D01*
X110886000Y-82650971D01*
X110886000Y-83033727D01*
X110865998Y-83101848D01*
X110830004Y-83138491D01*
X110804168Y-83155754D01*
X110664252Y-83295671D01*
X110664251Y-83295673D01*
X110554324Y-83460190D01*
X110478604Y-83642994D01*
X110478603Y-83642997D01*
X110440000Y-83837061D01*
X110440000Y-84034938D01*
X110478603Y-84229002D01*
X110478604Y-84229005D01*
X110498881Y-84277957D01*
X110554324Y-84411809D01*
X110664254Y-84576331D01*
X110804169Y-84716246D01*
X110880004Y-84766917D01*
X110925529Y-84821389D01*
X110936000Y-84871679D01*
X110936000Y-87697590D01*
X110915998Y-87765711D01*
X110862342Y-87812204D01*
X110792068Y-87822308D01*
X110739999Y-87802356D01*
X110611179Y-87716282D01*
X110589999Y-87707509D01*
X110472414Y-87658803D01*
X110325103Y-87629500D01*
X110325100Y-87629500D01*
X109436383Y-87629500D01*
X109392351Y-87621556D01*
X109275250Y-87577880D01*
X109215916Y-87571500D01*
X109215909Y-87571500D01*
X108902570Y-87571500D01*
X108893742Y-87568907D01*
X108884637Y-87570217D01*
X108877988Y-87569079D01*
X108787103Y-87551000D01*
X108787100Y-87551000D01*
X108200424Y-87551000D01*
X108132303Y-87530998D01*
X108111329Y-87514095D01*
X107956425Y-87359191D01*
X107922399Y-87296879D01*
X107927464Y-87226064D01*
X107970011Y-87169228D01*
X108036531Y-87144417D01*
X108089550Y-87152039D01*
X108148750Y-87174120D01*
X108208091Y-87180500D01*
X108521428Y-87180499D01*
X108546010Y-87182920D01*
X108553495Y-87184409D01*
X108636900Y-87201000D01*
X108636905Y-87201000D01*
X108787095Y-87201000D01*
X108787100Y-87201000D01*
X108877990Y-87182919D01*
X108902572Y-87180499D01*
X109215901Y-87180499D01*
X109215908Y-87180499D01*
X109275250Y-87174120D01*
X109409491Y-87124051D01*
X109432305Y-87106973D01*
X109524189Y-87038189D01*
X109610049Y-86923494D01*
X109610049Y-86923493D01*
X109610051Y-86923491D01*
X109660120Y-86789250D01*
X109666500Y-86729909D01*
X109666499Y-86147092D01*
X109660120Y-86087750D01*
X109610051Y-85953509D01*
X109610049Y-85953507D01*
X109610049Y-85953505D01*
X109527287Y-85842950D01*
X109524189Y-85838811D01*
X109524185Y-85838808D01*
X109517820Y-85832443D01*
X109518936Y-85831326D01*
X109482440Y-85782563D01*
X109474500Y-85738543D01*
X109474500Y-84830588D01*
X109494502Y-84762467D01*
X109530500Y-84725822D01*
X109536384Y-84721889D01*
X109544831Y-84716246D01*
X109684746Y-84576331D01*
X109794676Y-84411809D01*
X109870397Y-84229002D01*
X109909000Y-84034935D01*
X109909000Y-83837065D01*
X109870397Y-83642998D01*
X109794676Y-83460191D01*
X109684746Y-83295669D01*
X109544831Y-83155754D01*
X109380309Y-83045824D01*
X109272063Y-83000987D01*
X109197505Y-82970104D01*
X109197502Y-82970103D01*
X109003438Y-82931500D01*
X109003435Y-82931500D01*
X108805565Y-82931500D01*
X108805561Y-82931500D01*
X108611497Y-82970103D01*
X108611494Y-82970104D01*
X108428690Y-83045824D01*
X108264173Y-83155751D01*
X108264166Y-83155756D01*
X108124256Y-83295666D01*
X108124251Y-83295673D01*
X108014324Y-83460191D01*
X107938909Y-83642258D01*
X107894360Y-83697539D01*
X107826997Y-83719960D01*
X107758206Y-83702402D01*
X107709827Y-83650440D01*
X107696500Y-83594040D01*
X107696500Y-79690423D01*
X107716502Y-79622302D01*
X107733405Y-79601328D01*
X114907328Y-72427405D01*
X114969640Y-72393379D01*
X114996423Y-72390500D01*
X120623577Y-72390500D01*
X120691698Y-72410502D01*
X120712672Y-72427405D01*
X123382375Y-75097108D01*
X123470892Y-75185625D01*
X123574978Y-75255173D01*
X123676718Y-75297315D01*
X123692536Y-75310061D01*
X123711012Y-75318500D01*
X123719611Y-75331880D01*
X123731999Y-75341863D01*
X123738414Y-75361138D01*
X123749396Y-75378226D01*
X123753422Y-75406229D01*
X123754420Y-75409227D01*
X123754500Y-75413724D01*
X123754500Y-75514452D01*
X123734498Y-75582573D01*
X123704010Y-75615320D01*
X123679595Y-75633596D01*
X123592657Y-75749734D01*
X123541962Y-75885650D01*
X123541960Y-75885658D01*
X123535500Y-75945737D01*
X123535500Y-77742246D01*
X123535502Y-77742270D01*
X123541959Y-77802339D01*
X123541959Y-77802341D01*
X123592657Y-77938266D01*
X123618992Y-77973446D01*
X123679596Y-78054404D01*
X123696962Y-78067404D01*
X123698006Y-78068185D01*
X123700788Y-78071902D01*
X123705012Y-78073831D01*
X123721867Y-78100057D01*
X123740554Y-78125019D01*
X123741586Y-78130741D01*
X123743396Y-78133557D01*
X123748500Y-78169055D01*
X123748500Y-78278308D01*
X123728498Y-78346429D01*
X123698009Y-78379176D01*
X123598596Y-78453595D01*
X123511657Y-78569734D01*
X123460962Y-78705650D01*
X123460960Y-78705658D01*
X123454500Y-78765737D01*
X123454500Y-79762246D01*
X123454502Y-79762270D01*
X123460959Y-79822339D01*
X123460959Y-79822341D01*
X123511657Y-79958266D01*
X123511658Y-79958267D01*
X123598596Y-80074404D01*
X123714733Y-80161342D01*
X123850658Y-80212040D01*
X123910745Y-80218500D01*
X124857254Y-80218499D01*
X124917342Y-80212040D01*
X125053267Y-80161342D01*
X125169404Y-80074404D01*
X125256342Y-79958267D01*
X125307040Y-79822342D01*
X125313500Y-79762255D01*
X125313499Y-78765746D01*
X125307040Y-78705658D01*
X125256342Y-78569733D01*
X125169404Y-78453596D01*
X125169403Y-78453595D01*
X125069991Y-78379176D01*
X125067209Y-78375459D01*
X125062988Y-78373532D01*
X125046133Y-78347306D01*
X125027444Y-78322340D01*
X125026411Y-78316619D01*
X125024604Y-78313806D01*
X125019500Y-78278308D01*
X125019500Y-78178038D01*
X125039502Y-78109917D01*
X125069989Y-78077171D01*
X125100404Y-78054404D01*
X125187342Y-77938267D01*
X125238040Y-77802342D01*
X125244500Y-77742255D01*
X125244499Y-75945746D01*
X125238040Y-75885658D01*
X125187342Y-75749733D01*
X125100404Y-75633596D01*
X125075990Y-75615320D01*
X125073207Y-75611603D01*
X125068988Y-75609676D01*
X125052136Y-75583454D01*
X125033444Y-75558484D01*
X125032411Y-75552763D01*
X125030604Y-75549950D01*
X125025500Y-75514452D01*
X125025500Y-75453500D01*
X125045502Y-75385379D01*
X125099158Y-75338886D01*
X125151500Y-75327500D01*
X128269924Y-75327500D01*
X128338045Y-75347502D01*
X128384538Y-75401158D01*
X128394642Y-75471432D01*
X128365148Y-75536012D01*
X128345432Y-75554369D01*
X128239596Y-75633595D01*
X128152657Y-75749734D01*
X128101962Y-75885650D01*
X128101960Y-75885658D01*
X128095500Y-75945737D01*
X128095500Y-77742246D01*
X128095502Y-77742270D01*
X128101959Y-77802339D01*
X128101959Y-77802341D01*
X128152657Y-77938265D01*
X128178992Y-77973446D01*
X128188728Y-77999551D01*
X128203801Y-78039964D01*
X128203800Y-78039965D01*
X128203801Y-78039967D01*
X128202850Y-78044337D01*
X128188710Y-78109338D01*
X128167217Y-78138048D01*
X128032670Y-78272595D01*
X127970358Y-78306621D01*
X127943575Y-78309500D01*
X127466753Y-78309500D01*
X127466729Y-78309502D01*
X127406660Y-78315959D01*
X127406658Y-78315959D01*
X127270733Y-78366657D01*
X127154596Y-78453596D01*
X127067657Y-78569734D01*
X127016962Y-78705650D01*
X127016960Y-78705658D01*
X127010500Y-78765737D01*
X127010500Y-79242576D01*
X126990498Y-79310697D01*
X126973595Y-79331671D01*
X125705892Y-80599375D01*
X125617377Y-80687889D01*
X125617372Y-80687896D01*
X125547826Y-80791978D01*
X125547824Y-80791983D01*
X125506090Y-80892736D01*
X125461542Y-80948017D01*
X125394178Y-80970437D01*
X125325387Y-80952878D01*
X125300587Y-80933612D01*
X125282345Y-80915370D01*
X125282339Y-80915365D01*
X125131525Y-80822342D01*
X124963321Y-80766606D01*
X124963318Y-80766605D01*
X124859516Y-80756000D01*
X124638000Y-80756000D01*
X124638000Y-83172000D01*
X124859517Y-83172000D01*
X124859516Y-83171999D01*
X124963318Y-83161394D01*
X124963321Y-83161393D01*
X125131525Y-83105657D01*
X125283353Y-83012009D01*
X125351833Y-82993272D01*
X125419571Y-83014531D01*
X125465063Y-83069038D01*
X125475500Y-83119250D01*
X125475500Y-85175976D01*
X125455498Y-85244097D01*
X125438595Y-85265071D01*
X120664070Y-90039595D01*
X120601758Y-90073621D01*
X120574975Y-90076500D01*
X119546336Y-90076500D01*
X119546326Y-90076501D01*
X119472099Y-90091265D01*
X119387915Y-90147516D01*
X119331666Y-90231697D01*
X119316900Y-90305930D01*
X119316900Y-92056063D01*
X119316901Y-92056073D01*
X119331665Y-92130300D01*
X119387916Y-92214484D01*
X119472097Y-92270733D01*
X119472099Y-92270734D01*
X119546333Y-92285500D01*
X119722649Y-92285499D01*
X119790767Y-92305501D01*
X119837260Y-92359156D01*
X119847365Y-92429430D01*
X119817872Y-92494011D01*
X119779851Y-92523765D01*
X119709652Y-92559534D01*
X119536720Y-92685177D01*
X119385577Y-92836320D01*
X119259936Y-93009249D01*
X119162893Y-93199707D01*
X119162890Y-93199713D01*
X119096840Y-93402995D01*
X119086702Y-93467000D01*
X119990697Y-93467000D01*
X119955475Y-93528007D01*
X119921400Y-93655174D01*
X119921400Y-93786826D01*
X119955475Y-93913993D01*
X119990697Y-93975000D01*
X119086702Y-93975000D01*
X119096840Y-94039004D01*
X119162890Y-94242286D01*
X119162893Y-94242292D01*
X119259936Y-94432750D01*
X119385577Y-94605679D01*
X119536720Y-94756822D01*
X119709649Y-94882463D01*
X119900107Y-94979506D01*
X119900113Y-94979509D01*
X120103398Y-95045560D01*
X120167400Y-95055696D01*
X120167400Y-94151702D01*
X120228407Y-94186925D01*
X120355574Y-94221000D01*
X120487226Y-94221000D01*
X120614393Y-94186925D01*
X120675400Y-94151702D01*
X120675400Y-95055696D01*
X120739401Y-95045560D01*
X120942686Y-94979509D01*
X120942692Y-94979506D01*
X121133150Y-94882463D01*
X121306079Y-94756822D01*
X121457222Y-94605679D01*
X121582863Y-94432750D01*
X121679906Y-94242292D01*
X121679909Y-94242286D01*
X121745959Y-94039004D01*
X121756097Y-93975000D01*
X120852103Y-93975000D01*
X120887325Y-93913993D01*
X120921400Y-93786826D01*
X120921400Y-93655174D01*
X120887325Y-93528007D01*
X120852103Y-93467000D01*
X121756098Y-93467000D01*
X121756098Y-93466999D01*
X121752075Y-93441600D01*
X123328502Y-93441600D01*
X124232497Y-93441600D01*
X124197275Y-93502607D01*
X124163200Y-93629774D01*
X124163200Y-93761426D01*
X124197275Y-93888593D01*
X124232497Y-93949600D01*
X123328502Y-93949600D01*
X123338640Y-94013604D01*
X123404690Y-94216886D01*
X123404693Y-94216892D01*
X123501736Y-94407350D01*
X123627377Y-94580279D01*
X123778520Y-94731422D01*
X123951449Y-94857063D01*
X124141907Y-94954106D01*
X124141913Y-94954109D01*
X124345198Y-95020160D01*
X124409200Y-95030296D01*
X124409200Y-94126302D01*
X124470207Y-94161525D01*
X124597374Y-94195600D01*
X124729026Y-94195600D01*
X124856193Y-94161525D01*
X124917200Y-94126302D01*
X124917200Y-95030296D01*
X124981201Y-95020160D01*
X125184486Y-94954109D01*
X125184492Y-94954106D01*
X125374950Y-94857063D01*
X125547879Y-94731422D01*
X125699022Y-94580279D01*
X125824664Y-94407349D01*
X125844848Y-94367737D01*
X125921706Y-94216892D01*
X125921709Y-94216886D01*
X125987761Y-94013599D01*
X125994245Y-93972663D01*
X125994263Y-93972548D01*
X125997106Y-93954600D01*
X128616702Y-93954600D01*
X129520697Y-93954600D01*
X129485475Y-94015607D01*
X129451400Y-94142774D01*
X129451400Y-94274426D01*
X129485475Y-94401593D01*
X129520697Y-94462600D01*
X128616702Y-94462600D01*
X128626840Y-94526604D01*
X128692890Y-94729886D01*
X128692893Y-94729892D01*
X128789936Y-94920350D01*
X128915577Y-95093279D01*
X129066720Y-95244422D01*
X129239649Y-95370063D01*
X129430107Y-95467106D01*
X129430113Y-95467109D01*
X129633398Y-95533160D01*
X129697400Y-95543296D01*
X129697400Y-94639302D01*
X129758407Y-94674525D01*
X129885574Y-94708600D01*
X130017226Y-94708600D01*
X130144393Y-94674525D01*
X130205400Y-94639302D01*
X130205400Y-95543296D01*
X130269401Y-95533160D01*
X130472686Y-95467109D01*
X130472692Y-95467106D01*
X130663150Y-95370063D01*
X130836079Y-95244422D01*
X130987222Y-95093279D01*
X131112863Y-94920350D01*
X131148632Y-94850149D01*
X131197380Y-94798533D01*
X131266295Y-94781466D01*
X131333496Y-94804366D01*
X131377650Y-94859963D01*
X131386900Y-94907349D01*
X131386900Y-95083663D01*
X131386901Y-95083673D01*
X131401665Y-95157900D01*
X131457916Y-95242084D01*
X131542097Y-95298333D01*
X131542099Y-95298334D01*
X131616333Y-95313100D01*
X133366466Y-95313099D01*
X133366469Y-95313098D01*
X133366473Y-95313098D01*
X133415726Y-95303301D01*
X133440701Y-95298334D01*
X133524884Y-95242084D01*
X133581134Y-95157901D01*
X133595900Y-95083667D01*
X133595900Y-94970100D01*
X133615902Y-94901979D01*
X133669558Y-94855486D01*
X133721900Y-94844100D01*
X136946212Y-94844100D01*
X137014333Y-94864102D01*
X137060826Y-94917758D01*
X137070930Y-94988032D01*
X137053453Y-95036247D01*
X136966342Y-95177474D01*
X136910606Y-95345678D01*
X136910605Y-95345681D01*
X136900000Y-95449483D01*
X136900000Y-96171000D01*
X139241000Y-96171000D01*
X139241000Y-95451737D01*
X140228500Y-95451737D01*
X140228500Y-97398246D01*
X140228502Y-97398270D01*
X140234959Y-97458339D01*
X140234959Y-97458341D01*
X140285657Y-97594266D01*
X140285658Y-97594267D01*
X140372596Y-97710404D01*
X140488733Y-97797342D01*
X140624658Y-97848040D01*
X140684745Y-97854500D01*
X141606254Y-97854499D01*
X141666342Y-97848040D01*
X141802267Y-97797342D01*
X141918404Y-97710404D01*
X142005342Y-97594267D01*
X142056040Y-97458342D01*
X142062500Y-97398255D01*
X142062500Y-96900500D01*
X142082502Y-96832379D01*
X142136158Y-96785886D01*
X142188500Y-96774500D01*
X146639699Y-96774500D01*
X146787012Y-96745197D01*
X146925778Y-96687718D01*
X147050664Y-96604273D01*
X149410873Y-94244064D01*
X149494318Y-94119178D01*
X149551797Y-93980412D01*
X149581100Y-93833099D01*
X149581100Y-93682899D01*
X149581100Y-87794828D01*
X149601102Y-87726707D01*
X149618005Y-87705733D01*
X149783333Y-87540405D01*
X149845645Y-87506379D01*
X149872428Y-87503500D01*
X153937544Y-87503500D01*
X154005665Y-87523502D01*
X154020458Y-87534625D01*
X154030452Y-87543359D01*
X154037811Y-87553189D01*
X154064928Y-87573489D01*
X154068517Y-87576625D01*
X154085127Y-87602713D01*
X154103658Y-87627467D01*
X154104008Y-87632367D01*
X154106648Y-87636513D01*
X154106517Y-87667436D01*
X154108724Y-87698283D01*
X154106368Y-87702596D01*
X154106348Y-87707509D01*
X154089519Y-87733452D01*
X154074699Y-87760595D01*
X154070386Y-87762949D01*
X154067713Y-87767072D01*
X154039526Y-87779800D01*
X154012387Y-87794620D01*
X154004936Y-87795421D01*
X154003008Y-87796292D01*
X154000412Y-87795907D01*
X153985603Y-87797500D01*
X151714536Y-87797500D01*
X151714527Y-87797501D01*
X151640299Y-87812265D01*
X151556115Y-87868516D01*
X151499866Y-87952697D01*
X151485100Y-88026930D01*
X151485100Y-98917063D01*
X151485101Y-98917072D01*
X151499865Y-98991300D01*
X151556116Y-99075484D01*
X151640297Y-99131733D01*
X151640299Y-99131734D01*
X151714533Y-99146500D01*
X159384666Y-99146499D01*
X159384669Y-99146498D01*
X159384672Y-99146498D01*
X159421263Y-99139219D01*
X159458901Y-99131734D01*
X159543084Y-99075484D01*
X159599334Y-98991301D01*
X159614100Y-98917067D01*
X159614099Y-88026934D01*
X159599334Y-87952699D01*
X159543084Y-87868516D01*
X159543083Y-87868515D01*
X159458902Y-87812266D01*
X159384669Y-87797500D01*
X157164397Y-87797500D01*
X157096276Y-87777498D01*
X157049783Y-87723842D01*
X157039679Y-87653568D01*
X157069173Y-87588988D01*
X157088889Y-87570631D01*
X157112189Y-87553189D01*
X157198051Y-87438491D01*
X157248120Y-87304250D01*
X157254500Y-87244909D01*
X157254499Y-86979896D01*
X157256920Y-86955314D01*
X157257695Y-86951417D01*
X157257697Y-86951413D01*
X157287000Y-86804100D01*
X157287000Y-84641111D01*
X157307002Y-84572990D01*
X157308235Y-84571109D01*
X157346216Y-84514266D01*
X157414676Y-84411809D01*
X157490397Y-84229002D01*
X157529000Y-84034935D01*
X157529000Y-83837065D01*
X157490397Y-83642998D01*
X157414676Y-83460191D01*
X157304746Y-83295669D01*
X157164831Y-83155754D01*
X157000309Y-83045824D01*
X156892063Y-83000987D01*
X156817505Y-82970104D01*
X156817502Y-82970103D01*
X156623438Y-82931500D01*
X156623435Y-82931500D01*
X156425565Y-82931500D01*
X156425561Y-82931500D01*
X156231497Y-82970103D01*
X156231494Y-82970104D01*
X156048690Y-83045824D01*
X155884173Y-83155751D01*
X155884166Y-83155756D01*
X155744256Y-83295666D01*
X155744251Y-83295673D01*
X155634324Y-83460190D01*
X155558604Y-83642994D01*
X155558603Y-83642997D01*
X155520000Y-83837061D01*
X155520000Y-84034938D01*
X155558603Y-84229002D01*
X155558604Y-84229005D01*
X155569500Y-84255309D01*
X155634324Y-84411809D01*
X155698931Y-84508500D01*
X155740765Y-84571109D01*
X155761980Y-84638862D01*
X155762000Y-84641111D01*
X155762000Y-86593165D01*
X155760385Y-86598664D01*
X155759579Y-86617746D01*
X155750001Y-86665894D01*
X155750001Y-86816105D01*
X155768079Y-86906987D01*
X155767226Y-86916518D01*
X155770500Y-86931568D01*
X155770500Y-87244900D01*
X155770502Y-87244921D01*
X155776879Y-87304246D01*
X155776879Y-87304248D01*
X155776880Y-87304250D01*
X155794578Y-87351700D01*
X155826950Y-87438494D01*
X155912810Y-87553188D01*
X155912811Y-87553189D01*
X155936111Y-87570631D01*
X155978658Y-87627467D01*
X155983724Y-87698283D01*
X155949699Y-87760595D01*
X155887387Y-87794620D01*
X155860603Y-87797500D01*
X155289396Y-87797500D01*
X155221275Y-87777498D01*
X155174782Y-87723842D01*
X155164678Y-87653568D01*
X155194172Y-87588988D01*
X155213882Y-87570636D01*
X155237189Y-87553189D01*
X155323051Y-87438491D01*
X155373120Y-87304250D01*
X155379500Y-87244909D01*
X155379499Y-86931568D01*
X155381068Y-86915637D01*
X155380781Y-86913640D01*
X155381397Y-86912289D01*
X155381920Y-86906988D01*
X155381920Y-86906987D01*
X155400000Y-86816100D01*
X155400000Y-86665900D01*
X155384812Y-86589547D01*
X155381920Y-86575008D01*
X155381068Y-86566359D01*
X155380287Y-86564499D01*
X155380669Y-86562316D01*
X155379499Y-86550427D01*
X155379499Y-86237099D01*
X155379499Y-86237092D01*
X155373120Y-86177750D01*
X155323051Y-86043509D01*
X155323049Y-86043507D01*
X155323049Y-86043505D01*
X155237189Y-85928810D01*
X155122494Y-85842950D01*
X155085494Y-85829150D01*
X154988250Y-85792880D01*
X154958579Y-85789690D01*
X154928910Y-85786500D01*
X154346099Y-85786500D01*
X154346078Y-85786502D01*
X154286753Y-85792879D01*
X154152505Y-85842950D01*
X154037814Y-85928808D01*
X154031443Y-85935180D01*
X154030325Y-85934062D01*
X153981576Y-85970556D01*
X153937544Y-85978500D01*
X149429298Y-85978500D01*
X149281986Y-86007803D01*
X149281983Y-86007804D01*
X149241343Y-86024636D01*
X149241343Y-86024637D01*
X149195783Y-86043509D01*
X149143221Y-86065281D01*
X149018339Y-86148724D01*
X149018337Y-86148725D01*
X148226329Y-86940732D01*
X148226328Y-86940734D01*
X148161210Y-87038188D01*
X148161211Y-87038189D01*
X148142883Y-87065619D01*
X148085404Y-87204384D01*
X148085403Y-87204385D01*
X148056100Y-87351696D01*
X148056100Y-93389971D01*
X148036098Y-93458092D01*
X148019195Y-93479066D01*
X146285666Y-95212595D01*
X146223354Y-95246621D01*
X146196571Y-95249500D01*
X142063748Y-95249500D01*
X141995627Y-95229498D01*
X141962880Y-95199009D01*
X141918404Y-95139596D01*
X141856531Y-95093279D01*
X141802267Y-95052658D01*
X141802265Y-95052657D01*
X141802266Y-95052657D01*
X141666349Y-95001962D01*
X141666344Y-95001960D01*
X141666342Y-95001960D01*
X141636298Y-94998730D01*
X141606256Y-94995500D01*
X140684753Y-94995500D01*
X140684729Y-94995502D01*
X140624660Y-95001959D01*
X140624658Y-95001959D01*
X140488733Y-95052657D01*
X140372596Y-95139596D01*
X140285657Y-95255734D01*
X140234962Y-95391650D01*
X140234960Y-95391658D01*
X140228500Y-95451737D01*
X139241000Y-95451737D01*
X139241000Y-95449483D01*
X139230394Y-95345681D01*
X139230393Y-95345678D01*
X139174657Y-95177474D01*
X139081634Y-95026660D01*
X139081629Y-95026654D01*
X138956345Y-94901370D01*
X138950584Y-94896815D01*
X138951975Y-94895055D01*
X138911808Y-94850403D01*
X138900400Y-94780329D01*
X138928688Y-94715211D01*
X138937003Y-94706975D01*
X138936630Y-94706602D01*
X138941004Y-94702227D01*
X138941008Y-94702225D01*
X140578904Y-93064327D01*
X140606514Y-93049251D01*
X140633071Y-93032362D01*
X140638275Y-93031908D01*
X140641213Y-93030305D01*
X140668593Y-93027426D01*
X140675039Y-93027456D01*
X140684745Y-93028500D01*
X140894998Y-93028499D01*
X140895168Y-93028500D01*
X140928985Y-93038604D01*
X140962691Y-93048501D01*
X140963034Y-93048777D01*
X140963193Y-93048825D01*
X140963417Y-93049086D01*
X140983666Y-93065404D01*
X141982530Y-94064269D01*
X141982534Y-94064272D01*
X141982535Y-94064273D01*
X142104863Y-94146009D01*
X142107421Y-94147718D01*
X142246187Y-94205197D01*
X142393500Y-94234500D01*
X144744697Y-94234500D01*
X144744700Y-94234500D01*
X144797886Y-94223920D01*
X144822468Y-94221499D01*
X146476745Y-94221499D01*
X146476746Y-94221499D01*
X146550271Y-94210788D01*
X146561712Y-94205195D01*
X146663678Y-94155347D01*
X146663682Y-94155344D01*
X146752944Y-94066082D01*
X146752945Y-94066081D01*
X146808388Y-93952671D01*
X146819100Y-93879147D01*
X146819099Y-93064854D01*
X146808388Y-92991329D01*
X146808386Y-92991324D01*
X146752947Y-92877921D01*
X146752944Y-92877917D01*
X146663682Y-92788655D01*
X146663680Y-92788654D01*
X146550273Y-92733213D01*
X146550271Y-92733212D01*
X146531890Y-92730534D01*
X146476750Y-92722500D01*
X146476747Y-92722500D01*
X144822466Y-92722500D01*
X144797885Y-92720079D01*
X144784069Y-92717330D01*
X144744702Y-92709500D01*
X144744700Y-92709500D01*
X142836628Y-92709500D01*
X142768507Y-92689498D01*
X142747533Y-92672595D01*
X142099404Y-92024466D01*
X142065378Y-91962154D01*
X142062499Y-91935371D01*
X142062499Y-91575962D01*
X142082501Y-91507841D01*
X142136157Y-91461348D01*
X142206431Y-91451244D01*
X142271011Y-91480738D01*
X142309395Y-91540464D01*
X142309496Y-91540810D01*
X142313950Y-91556143D01*
X142395201Y-91693530D01*
X142395204Y-91693534D01*
X142508065Y-91806395D01*
X142508069Y-91806398D01*
X142645455Y-91887648D01*
X142798738Y-91932181D01*
X142834546Y-91935000D01*
X144415600Y-91935000D01*
X144923600Y-91935000D01*
X146504654Y-91935000D01*
X146540461Y-91932181D01*
X146693744Y-91887648D01*
X146831130Y-91806398D01*
X146831134Y-91806395D01*
X146943995Y-91693534D01*
X146943998Y-91693530D01*
X147025248Y-91556144D01*
X147069781Y-91402861D01*
X147072600Y-91367054D01*
X147072600Y-91186000D01*
X144923600Y-91186000D01*
X144923600Y-91935000D01*
X144415600Y-91935000D01*
X144415600Y-90678000D01*
X144923600Y-90678000D01*
X147072600Y-90678000D01*
X147072600Y-90496945D01*
X147069781Y-90461138D01*
X147025248Y-90307855D01*
X146943998Y-90170469D01*
X146943995Y-90170465D01*
X146831134Y-90057604D01*
X146831130Y-90057601D01*
X146693744Y-89976351D01*
X146540461Y-89931818D01*
X146504654Y-89929000D01*
X144923600Y-89929000D01*
X144923600Y-90678000D01*
X144415600Y-90678000D01*
X144415600Y-89929000D01*
X142834546Y-89929000D01*
X142798738Y-89931818D01*
X142645455Y-89976351D01*
X142508069Y-90057601D01*
X142508065Y-90057604D01*
X142395204Y-90170465D01*
X142395201Y-90170469D01*
X142313951Y-90307855D01*
X142269418Y-90461138D01*
X142268636Y-90465424D01*
X142236717Y-90528842D01*
X142175580Y-90564935D01*
X142104634Y-90562246D01*
X142046405Y-90521627D01*
X142026633Y-90486818D01*
X142005342Y-90429733D01*
X141918404Y-90313596D01*
X141802267Y-90226658D01*
X141802265Y-90226657D01*
X141802266Y-90226657D01*
X141666349Y-90175962D01*
X141666344Y-90175960D01*
X141666342Y-90175960D01*
X141636298Y-90172730D01*
X141606256Y-90169500D01*
X140684753Y-90169500D01*
X140684729Y-90169502D01*
X140624660Y-90175959D01*
X140624658Y-90175959D01*
X140488733Y-90226657D01*
X140372596Y-90313596D01*
X140285657Y-90429734D01*
X140234962Y-90565650D01*
X140234960Y-90565658D01*
X140228500Y-90625737D01*
X140228500Y-91565076D01*
X140208498Y-91633197D01*
X140191595Y-91654171D01*
X139456095Y-92389671D01*
X139393783Y-92423697D01*
X139322968Y-92418632D01*
X139266132Y-92376085D01*
X139241321Y-92309565D01*
X139241000Y-92300576D01*
X139241000Y-91853000D01*
X138324500Y-91853000D01*
X138324500Y-93282001D01*
X138355037Y-93312538D01*
X138389063Y-93374850D01*
X138383998Y-93445665D01*
X138355038Y-93490727D01*
X138309572Y-93536194D01*
X138247261Y-93570220D01*
X138220476Y-93573100D01*
X133721899Y-93573100D01*
X133653778Y-93553098D01*
X133607285Y-93499442D01*
X133595899Y-93447100D01*
X133595899Y-93333536D01*
X133595898Y-93333527D01*
X133581134Y-93259299D01*
X133524883Y-93175115D01*
X133440702Y-93118866D01*
X133366467Y-93104100D01*
X131616336Y-93104100D01*
X131616326Y-93104101D01*
X131542099Y-93118865D01*
X131457915Y-93175116D01*
X131401666Y-93259297D01*
X131386900Y-93333530D01*
X131386900Y-93509847D01*
X131366898Y-93577968D01*
X131313242Y-93624461D01*
X131242968Y-93634565D01*
X131178388Y-93605071D01*
X131148633Y-93567050D01*
X131112864Y-93496850D01*
X130987222Y-93323920D01*
X130836079Y-93172777D01*
X130663150Y-93047136D01*
X130472692Y-92950093D01*
X130472686Y-92950090D01*
X130269404Y-92884040D01*
X130205400Y-92873902D01*
X130205400Y-93777897D01*
X130144393Y-93742675D01*
X130017226Y-93708600D01*
X129885574Y-93708600D01*
X129758407Y-93742675D01*
X129697400Y-93777897D01*
X129697400Y-92873902D01*
X129633395Y-92884040D01*
X129430113Y-92950090D01*
X129430107Y-92950093D01*
X129239649Y-93047136D01*
X129066720Y-93172777D01*
X128915577Y-93323920D01*
X128789936Y-93496849D01*
X128692893Y-93687307D01*
X128692890Y-93687313D01*
X128626840Y-93890595D01*
X128616702Y-93954600D01*
X125997106Y-93954600D01*
X125997898Y-93949600D01*
X125093903Y-93949600D01*
X125129125Y-93888593D01*
X125163200Y-93761426D01*
X125163200Y-93629774D01*
X125129125Y-93502607D01*
X125093903Y-93441600D01*
X125997897Y-93441600D01*
X125987759Y-93377595D01*
X125921709Y-93174313D01*
X125921706Y-93174307D01*
X125824663Y-92983849D01*
X125699022Y-92810920D01*
X125547879Y-92659777D01*
X125430528Y-92574516D01*
X136900000Y-92574516D01*
X136910605Y-92678318D01*
X136910606Y-92678321D01*
X136966342Y-92846525D01*
X137059365Y-92997339D01*
X137059370Y-92997345D01*
X137184654Y-93122629D01*
X137184660Y-93122634D01*
X137335474Y-93215657D01*
X137503678Y-93271393D01*
X137503681Y-93271394D01*
X137607483Y-93281999D01*
X137607483Y-93282000D01*
X137816500Y-93282000D01*
X137816500Y-91853000D01*
X136900000Y-91853000D01*
X136900000Y-92574516D01*
X125430528Y-92574516D01*
X125374950Y-92534136D01*
X125304747Y-92498366D01*
X125253132Y-92449618D01*
X125236066Y-92380703D01*
X125258967Y-92313501D01*
X125314564Y-92269349D01*
X125361949Y-92260099D01*
X125538266Y-92260099D01*
X125538269Y-92260098D01*
X125538273Y-92260098D01*
X125587526Y-92250301D01*
X125612501Y-92245334D01*
X125696684Y-92189084D01*
X125752934Y-92104901D01*
X125767700Y-92030667D01*
X125767699Y-91098002D01*
X125767699Y-90280536D01*
X125767698Y-90280526D01*
X125752934Y-90206299D01*
X125696683Y-90122115D01*
X125624080Y-90073602D01*
X125578553Y-90019125D01*
X125569706Y-89948682D01*
X125600347Y-89884638D01*
X125604969Y-89879762D01*
X129227406Y-86257326D01*
X129289717Y-86223301D01*
X129360533Y-86228366D01*
X129417368Y-86270913D01*
X129442179Y-86337433D01*
X129442500Y-86346422D01*
X129442500Y-89218900D01*
X129422498Y-89287021D01*
X129368842Y-89333514D01*
X129316500Y-89344900D01*
X129066336Y-89344900D01*
X129066326Y-89344901D01*
X128992099Y-89359665D01*
X128907915Y-89415916D01*
X128851666Y-89500097D01*
X128836900Y-89574330D01*
X128836900Y-91324463D01*
X128836901Y-91324473D01*
X128851665Y-91398700D01*
X128907916Y-91482884D01*
X128992097Y-91539133D01*
X128992099Y-91539134D01*
X129066333Y-91553900D01*
X130816466Y-91553899D01*
X130816469Y-91553898D01*
X130816473Y-91553898D01*
X130882274Y-91540810D01*
X130890701Y-91539134D01*
X130974884Y-91482884D01*
X131031134Y-91398701D01*
X131045900Y-91324467D01*
X131045899Y-89574334D01*
X131045898Y-89574330D01*
X131045898Y-89574326D01*
X131031134Y-89500099D01*
X130974883Y-89415915D01*
X130890702Y-89359666D01*
X130816469Y-89344900D01*
X130816467Y-89344900D01*
X130585500Y-89344900D01*
X130517379Y-89324898D01*
X130470886Y-89271242D01*
X130459500Y-89218900D01*
X130459500Y-86899500D01*
X130479502Y-86831379D01*
X130533158Y-86784886D01*
X130585500Y-86773500D01*
X131549223Y-86773500D01*
X131549225Y-86773500D01*
X131646254Y-86747501D01*
X131646257Y-86747499D01*
X131646258Y-86747499D01*
X131722075Y-86703726D01*
X131733247Y-86697276D01*
X131792754Y-86637768D01*
X131855064Y-86603745D01*
X131925880Y-86608809D01*
X131982716Y-86651355D01*
X132007527Y-86717875D01*
X132003555Y-86759475D01*
X131982500Y-86838054D01*
X131982500Y-89386780D01*
X131962498Y-89454901D01*
X131913705Y-89499046D01*
X131902513Y-89504748D01*
X131761864Y-89606936D01*
X131638936Y-89729864D01*
X131536749Y-89870512D01*
X131457821Y-90025417D01*
X131457818Y-90025423D01*
X131404098Y-90190757D01*
X131404097Y-90190760D01*
X131404097Y-90190762D01*
X131376900Y-90362474D01*
X131376900Y-90536326D01*
X131404097Y-90708038D01*
X131404098Y-90708042D01*
X131450495Y-90850839D01*
X131457820Y-90873381D01*
X131536308Y-91027422D01*
X131536749Y-91028287D01*
X131638936Y-91168935D01*
X131761864Y-91291863D01*
X131806742Y-91324469D01*
X131902516Y-91394053D01*
X132057419Y-91472980D01*
X132222762Y-91526703D01*
X132394474Y-91553900D01*
X132394477Y-91553900D01*
X132568323Y-91553900D01*
X132568326Y-91553900D01*
X132740038Y-91526703D01*
X132905381Y-91472980D01*
X133060284Y-91394053D01*
X133200933Y-91291865D01*
X133323865Y-91168933D01*
X133426053Y-91028284D01*
X133504980Y-90873381D01*
X133558703Y-90708038D01*
X133572095Y-90623483D01*
X136900000Y-90623483D01*
X136900000Y-91345000D01*
X137816500Y-91345000D01*
X138324500Y-91345000D01*
X139241000Y-91345000D01*
X139241000Y-90623483D01*
X139230394Y-90519681D01*
X139230393Y-90519678D01*
X139174657Y-90351474D01*
X139081634Y-90200660D01*
X139081629Y-90200654D01*
X138956345Y-90075370D01*
X138956339Y-90075365D01*
X138805525Y-89982342D01*
X138637321Y-89926606D01*
X138637318Y-89926605D01*
X138533516Y-89916000D01*
X138324500Y-89916000D01*
X138324500Y-91345000D01*
X137816500Y-91345000D01*
X137816500Y-89916000D01*
X137607483Y-89916000D01*
X137503681Y-89926605D01*
X137503678Y-89926606D01*
X137335474Y-89982342D01*
X137184660Y-90075365D01*
X137184654Y-90075370D01*
X137059370Y-90200654D01*
X137059365Y-90200660D01*
X136966342Y-90351474D01*
X136910606Y-90519678D01*
X136910605Y-90519681D01*
X136900000Y-90623483D01*
X133572095Y-90623483D01*
X133585900Y-90536326D01*
X133585900Y-90362474D01*
X133558703Y-90190762D01*
X133504980Y-90025419D01*
X133426053Y-89870516D01*
X133323865Y-89729867D01*
X133323863Y-89729864D01*
X133200935Y-89606936D01*
X133060285Y-89504747D01*
X133059664Y-89504367D01*
X133059477Y-89504160D01*
X133056279Y-89501837D01*
X133056767Y-89501165D01*
X133012033Y-89451719D01*
X132999500Y-89396935D01*
X132999500Y-88316896D01*
X140867900Y-88316896D01*
X140867900Y-88467103D01*
X140874483Y-88500196D01*
X140897203Y-88614413D01*
X140954682Y-88753179D01*
X141038128Y-88878065D01*
X141144335Y-88984272D01*
X141269221Y-89067718D01*
X141407987Y-89125197D01*
X141555300Y-89154500D01*
X143430395Y-89154500D01*
X143430400Y-89154500D01*
X143532853Y-89134119D01*
X143557435Y-89131699D01*
X143861501Y-89131699D01*
X143861508Y-89131699D01*
X143920850Y-89125320D01*
X144055091Y-89075251D01*
X144093238Y-89046695D01*
X144169789Y-88989389D01*
X144255649Y-88874694D01*
X144255649Y-88874693D01*
X144255651Y-88874691D01*
X144305720Y-88740450D01*
X144312100Y-88681109D01*
X144312099Y-88098292D01*
X144305720Y-88038950D01*
X144255651Y-87904709D01*
X144255649Y-87904707D01*
X144255649Y-87904705D01*
X144169789Y-87790010D01*
X144055094Y-87704150D01*
X144014794Y-87689119D01*
X143920850Y-87654080D01*
X143913432Y-87653282D01*
X143861516Y-87647700D01*
X143861509Y-87647700D01*
X143548170Y-87647700D01*
X143523588Y-87645279D01*
X143432703Y-87627200D01*
X143432700Y-87627200D01*
X143282501Y-87627200D01*
X143282500Y-87627200D01*
X143276337Y-87627807D01*
X143276204Y-87626460D01*
X143271817Y-87626067D01*
X143258527Y-87629500D01*
X141555296Y-87629500D01*
X141407985Y-87658803D01*
X141407984Y-87658804D01*
X141387145Y-87667436D01*
X141294689Y-87705733D01*
X141269219Y-87716283D01*
X141144339Y-87799725D01*
X141144332Y-87799730D01*
X141038130Y-87905932D01*
X141038125Y-87905939D01*
X140954683Y-88030819D01*
X140897204Y-88169584D01*
X140897203Y-88169585D01*
X140867900Y-88316896D01*
X132999500Y-88316896D01*
X132999500Y-87002193D01*
X133003793Y-86969582D01*
X133004500Y-86966945D01*
X133004500Y-86833055D01*
X132969847Y-86703726D01*
X132968687Y-86701717D01*
X132968224Y-86699809D01*
X132966685Y-86696093D01*
X132967264Y-86695853D01*
X132963434Y-86680071D01*
X132953626Y-86660072D01*
X132955226Y-86646249D01*
X132951944Y-86632726D01*
X132959228Y-86611672D01*
X132961790Y-86589547D01*
X132972257Y-86574018D01*
X132975159Y-86565632D01*
X132980340Y-86558854D01*
X132984295Y-86554026D01*
X132992245Y-86546077D01*
X132992247Y-86546076D01*
X133063276Y-86475047D01*
X133097309Y-86416097D01*
X133103828Y-86408143D01*
X133125003Y-86393694D01*
X133143554Y-86376007D01*
X133154994Y-86373231D01*
X133162474Y-86368128D01*
X133177768Y-86367706D01*
X133201290Y-86362000D01*
X133431585Y-86362000D01*
X133431597Y-86361999D01*
X133492093Y-86355494D01*
X133628964Y-86304444D01*
X133628965Y-86304444D01*
X133745904Y-86216904D01*
X133833444Y-86099965D01*
X133833444Y-86099964D01*
X133884494Y-85963093D01*
X133890999Y-85902597D01*
X133891000Y-85902585D01*
X133891000Y-84705414D01*
X133890999Y-84705402D01*
X133884824Y-84647970D01*
X133897429Y-84578102D01*
X133945807Y-84526139D01*
X134010102Y-84508500D01*
X140542943Y-84508500D01*
X140542945Y-84508500D01*
X140672274Y-84473847D01*
X140788227Y-84406901D01*
X141538901Y-83656227D01*
X141605847Y-83540274D01*
X141640500Y-83410945D01*
X141640500Y-83277055D01*
X141640500Y-80935055D01*
X141605847Y-80805726D01*
X141583260Y-80766605D01*
X141538903Y-80689776D01*
X141538895Y-80689766D01*
X140590404Y-79741275D01*
X140556378Y-79678963D01*
X140553499Y-79652180D01*
X140553499Y-79019753D01*
X140553499Y-79019746D01*
X140547040Y-78959658D01*
X140496342Y-78823733D01*
X140409404Y-78707596D01*
X140293267Y-78620658D01*
X140255290Y-78606493D01*
X140214466Y-78591266D01*
X140196453Y-78577781D01*
X140175988Y-78568435D01*
X140168589Y-78556922D01*
X140157631Y-78548719D01*
X140149767Y-78527635D01*
X140137604Y-78508709D01*
X140134401Y-78486435D01*
X140132821Y-78482198D01*
X140132500Y-78473211D01*
X140132500Y-78271950D01*
X140152502Y-78203829D01*
X140206158Y-78157336D01*
X140212890Y-78154547D01*
X140213264Y-78154343D01*
X140213263Y-78154343D01*
X140213267Y-78154342D01*
X140329404Y-78067404D01*
X140416342Y-77951267D01*
X140467040Y-77815342D01*
X140473500Y-77755255D01*
X140473500Y-77412999D01*
X141776000Y-77412999D01*
X141776000Y-77559001D01*
X141809324Y-77683372D01*
X141813789Y-77700033D01*
X141886786Y-77826467D01*
X141886794Y-77826477D01*
X141990022Y-77929705D01*
X141990027Y-77929709D01*
X141990029Y-77929711D01*
X141990030Y-77929712D01*
X141990032Y-77929713D01*
X142123624Y-78006842D01*
X142123000Y-78007921D01*
X142154019Y-78028647D01*
X147263266Y-83137895D01*
X147263271Y-83137899D01*
X147263273Y-83137901D01*
X147263274Y-83137902D01*
X147263276Y-83137903D01*
X147269238Y-83141345D01*
X147359940Y-83193712D01*
X147359941Y-83193713D01*
X147379220Y-83204844D01*
X147379222Y-83204845D01*
X147379226Y-83204847D01*
X147508555Y-83239500D01*
X147926056Y-83239500D01*
X147994177Y-83259502D01*
X148040670Y-83313158D01*
X148050774Y-83383432D01*
X148030821Y-83435502D01*
X148014324Y-83460191D01*
X147938604Y-83642994D01*
X147938603Y-83642997D01*
X147901224Y-83830908D01*
X147868316Y-83893818D01*
X147866740Y-83895421D01*
X146046867Y-85715295D01*
X145984555Y-85749320D01*
X145957772Y-85752200D01*
X143282494Y-85752200D01*
X143191608Y-85770279D01*
X143167027Y-85772700D01*
X142853699Y-85772700D01*
X142853678Y-85772702D01*
X142794353Y-85779079D01*
X142660105Y-85829150D01*
X142545410Y-85915010D01*
X142459550Y-86029705D01*
X142409480Y-86163950D01*
X142403101Y-86223277D01*
X142403100Y-86223295D01*
X142403100Y-86806100D01*
X142403102Y-86806121D01*
X142409479Y-86865446D01*
X142409479Y-86865448D01*
X142409480Y-86865450D01*
X142446019Y-86963415D01*
X142459550Y-86999694D01*
X142545410Y-87114389D01*
X142660105Y-87200249D01*
X142660107Y-87200249D01*
X142660109Y-87200251D01*
X142794350Y-87250320D01*
X142853691Y-87256700D01*
X143167028Y-87256699D01*
X143173619Y-87257348D01*
X143175307Y-87256971D01*
X143177333Y-87257713D01*
X143191610Y-87259120D01*
X143199095Y-87260609D01*
X143282500Y-87277200D01*
X143282505Y-87277200D01*
X146400900Y-87277200D01*
X146548213Y-87247897D01*
X146686979Y-87190418D01*
X146695520Y-87184711D01*
X146811865Y-87106973D01*
X148945080Y-84973757D01*
X149007390Y-84939734D01*
X149009541Y-84939285D01*
X149197502Y-84901897D01*
X149380309Y-84826176D01*
X149544831Y-84716246D01*
X149684746Y-84576331D01*
X149794676Y-84411809D01*
X149870397Y-84229002D01*
X149909000Y-84034935D01*
X149909000Y-83837065D01*
X149870397Y-83642998D01*
X149794676Y-83460191D01*
X149778178Y-83435501D01*
X149775093Y-83425647D01*
X149768330Y-83417842D01*
X149764662Y-83392337D01*
X149756964Y-83367750D01*
X149759695Y-83357791D01*
X149758226Y-83347568D01*
X149768931Y-83324128D01*
X149775747Y-83299283D01*
X149783429Y-83292381D01*
X149787720Y-83282988D01*
X149809394Y-83269058D01*
X149828564Y-83251839D01*
X149840349Y-83249164D01*
X149847446Y-83244604D01*
X149882944Y-83239500D01*
X149976682Y-83239500D01*
X150044803Y-83259502D01*
X150065777Y-83276405D01*
X150423309Y-83633937D01*
X150457335Y-83696249D01*
X150457793Y-83747614D01*
X150440000Y-83837062D01*
X150440000Y-84034938D01*
X150478603Y-84229002D01*
X150478604Y-84229005D01*
X150498881Y-84277957D01*
X150554324Y-84411809D01*
X150664254Y-84576331D01*
X150804169Y-84716246D01*
X150968691Y-84826176D01*
X151151498Y-84901897D01*
X151345565Y-84940500D01*
X151543435Y-84940500D01*
X151737502Y-84901897D01*
X151920309Y-84826176D01*
X152084831Y-84716246D01*
X152224746Y-84576331D01*
X152334676Y-84411809D01*
X152410397Y-84229002D01*
X152449000Y-84034935D01*
X152449000Y-83837065D01*
X152410397Y-83642998D01*
X152334676Y-83460191D01*
X152224746Y-83295669D01*
X152084831Y-83155754D01*
X151920309Y-83045824D01*
X151812063Y-83000987D01*
X151737505Y-82970104D01*
X151737502Y-82970103D01*
X151543438Y-82931500D01*
X151543435Y-82931500D01*
X151345565Y-82931500D01*
X151345562Y-82931500D01*
X151256114Y-82949293D01*
X151185400Y-82942965D01*
X151142437Y-82914809D01*
X150860384Y-82632756D01*
X150826358Y-82570444D01*
X150831423Y-82499629D01*
X150866705Y-82452497D01*
X150867076Y-82447786D01*
X150195290Y-81776000D01*
X150224528Y-81776000D01*
X150321175Y-81750104D01*
X150407825Y-81700076D01*
X150478576Y-81629325D01*
X150528604Y-81542675D01*
X150554500Y-81446028D01*
X150554500Y-81416790D01*
X151226286Y-82088576D01*
X151226287Y-82088575D01*
X151250435Y-82055339D01*
X151250436Y-82055337D01*
X151340334Y-81878902D01*
X151401522Y-81690585D01*
X151432500Y-81495003D01*
X151432500Y-81296996D01*
X151405867Y-81128845D01*
X151409973Y-81097064D01*
X151412260Y-81065102D01*
X151414489Y-81062124D01*
X151414966Y-81058434D01*
X151435606Y-81033914D01*
X151454807Y-81008266D01*
X151458292Y-81006966D01*
X151460688Y-81004120D01*
X151491302Y-80994653D01*
X151521327Y-80983455D01*
X151524962Y-80984245D01*
X151528516Y-80983147D01*
X151559383Y-80991733D01*
X151590701Y-80998546D01*
X151594737Y-81001568D01*
X151596916Y-81002174D01*
X151619411Y-81020039D01*
X151693309Y-81093937D01*
X151727335Y-81156249D01*
X151727793Y-81207614D01*
X151710000Y-81297062D01*
X151710000Y-81494938D01*
X151748603Y-81689002D01*
X151748604Y-81689005D01*
X151760400Y-81717483D01*
X151824324Y-81871809D01*
X151934254Y-82036331D01*
X152074169Y-82176246D01*
X152238691Y-82286176D01*
X152421498Y-82361897D01*
X152615565Y-82400500D01*
X152813435Y-82400500D01*
X153007502Y-82361897D01*
X153190309Y-82286176D01*
X153280000Y-82226246D01*
X153347750Y-82205032D01*
X153416217Y-82223815D01*
X153463661Y-82276632D01*
X153476000Y-82331012D01*
X153476000Y-83000318D01*
X153455998Y-83068439D01*
X153420003Y-83105083D01*
X153344167Y-83155755D01*
X153204252Y-83295671D01*
X153204251Y-83295673D01*
X153094324Y-83460190D01*
X153018604Y-83642994D01*
X153018603Y-83642997D01*
X152980000Y-83837061D01*
X152980000Y-84034938D01*
X153018603Y-84229002D01*
X153018604Y-84229005D01*
X153038881Y-84277957D01*
X153094324Y-84411809D01*
X153204254Y-84576331D01*
X153344169Y-84716246D01*
X153508691Y-84826176D01*
X153691498Y-84901897D01*
X153885565Y-84940500D01*
X154083435Y-84940500D01*
X154277502Y-84901897D01*
X154460309Y-84826176D01*
X154624831Y-84716246D01*
X154764746Y-84576331D01*
X154874676Y-84411809D01*
X154950397Y-84229002D01*
X154989000Y-84034935D01*
X154989000Y-83837065D01*
X154950397Y-83642998D01*
X154874676Y-83460191D01*
X154764746Y-83295669D01*
X154624831Y-83155754D01*
X154548997Y-83105083D01*
X154503470Y-83050605D01*
X154493000Y-83000318D01*
X154493000Y-82331012D01*
X154513002Y-82262891D01*
X154566658Y-82216398D01*
X154636932Y-82206294D01*
X154688999Y-82226245D01*
X154778691Y-82286176D01*
X154961498Y-82361897D01*
X155155565Y-82400500D01*
X155353435Y-82400500D01*
X155547502Y-82361897D01*
X155730309Y-82286176D01*
X155894831Y-82176246D01*
X156034746Y-82036331D01*
X156144676Y-81871809D01*
X156220397Y-81689002D01*
X156239593Y-81592495D01*
X156243427Y-81573226D01*
X156243427Y-81573225D01*
X156258999Y-81494938D01*
X156259000Y-81494935D01*
X156259000Y-81297064D01*
X156258999Y-81297061D01*
X156258986Y-81296996D01*
X156220397Y-81102998D01*
X156144676Y-80920191D01*
X156034746Y-80755669D01*
X155894831Y-80615754D01*
X155867365Y-80597402D01*
X156536500Y-80597402D01*
X156536500Y-81142000D01*
X157511099Y-81142000D01*
X157490424Y-81162675D01*
X157440396Y-81249325D01*
X157414500Y-81345972D01*
X157414500Y-81446028D01*
X157440396Y-81542675D01*
X157490424Y-81629325D01*
X157511099Y-81650000D01*
X156536500Y-81650000D01*
X156536500Y-82194597D01*
X156543005Y-82255093D01*
X156594055Y-82391964D01*
X156594055Y-82391965D01*
X156681595Y-82508904D01*
X156798534Y-82596444D01*
X156935406Y-82647494D01*
X156995902Y-82653999D01*
X156995915Y-82654000D01*
X157540500Y-82654000D01*
X157540500Y-81679401D01*
X157561175Y-81700076D01*
X157647825Y-81750104D01*
X157744472Y-81776000D01*
X157844528Y-81776000D01*
X157941175Y-81750104D01*
X158027825Y-81700076D01*
X158048500Y-81679401D01*
X158048500Y-82654000D01*
X158593085Y-82654000D01*
X158593097Y-82653999D01*
X158653593Y-82647494D01*
X158790464Y-82596444D01*
X158790465Y-82596444D01*
X158907404Y-82508904D01*
X158994944Y-82391965D01*
X158994944Y-82391964D01*
X159045994Y-82255093D01*
X159052499Y-82194597D01*
X159052500Y-82194585D01*
X159052500Y-81650000D01*
X158077901Y-81650000D01*
X158098576Y-81629325D01*
X158148604Y-81542675D01*
X158174500Y-81446028D01*
X158174500Y-81345972D01*
X158148604Y-81249325D01*
X158098576Y-81162675D01*
X158077901Y-81142000D01*
X159052500Y-81142000D01*
X159052500Y-80597414D01*
X159052499Y-80597402D01*
X159045994Y-80536906D01*
X158994944Y-80400035D01*
X158994944Y-80400034D01*
X158907404Y-80283095D01*
X158790465Y-80195555D01*
X158653593Y-80144505D01*
X158593097Y-80138000D01*
X158048500Y-80138000D01*
X158048500Y-81112599D01*
X158027825Y-81091924D01*
X157941175Y-81041896D01*
X157844528Y-81016000D01*
X157744472Y-81016000D01*
X157647825Y-81041896D01*
X157561175Y-81091924D01*
X157540500Y-81112599D01*
X157540500Y-80138000D01*
X156995902Y-80138000D01*
X156935406Y-80144505D01*
X156798535Y-80195555D01*
X156798534Y-80195555D01*
X156681595Y-80283095D01*
X156594055Y-80400034D01*
X156594055Y-80400035D01*
X156543005Y-80536906D01*
X156536500Y-80597402D01*
X155867365Y-80597402D01*
X155730309Y-80505824D01*
X155649855Y-80472499D01*
X155547505Y-80430104D01*
X155547502Y-80430103D01*
X155353438Y-80391500D01*
X155353435Y-80391500D01*
X155155565Y-80391500D01*
X155155561Y-80391500D01*
X154961497Y-80430103D01*
X154961494Y-80430104D01*
X154778690Y-80505824D01*
X154689002Y-80565752D01*
X154621249Y-80586967D01*
X154552782Y-80568184D01*
X154505339Y-80515366D01*
X154493000Y-80460987D01*
X154493000Y-79881908D01*
X163499500Y-79881908D01*
X163499500Y-79934802D01*
X163499500Y-80118092D01*
X163536447Y-80351368D01*
X163609432Y-80575992D01*
X163716657Y-80786433D01*
X163716659Y-80786436D01*
X163855484Y-80977512D01*
X164022487Y-81144515D01*
X164109335Y-81207614D01*
X164213567Y-81283343D01*
X164424008Y-81390568D01*
X164648632Y-81463553D01*
X164881908Y-81500500D01*
X164881911Y-81500500D01*
X165118089Y-81500500D01*
X165118092Y-81500500D01*
X165351368Y-81463553D01*
X165575992Y-81390568D01*
X165786433Y-81283343D01*
X165977510Y-81144517D01*
X166144517Y-80977510D01*
X166283343Y-80786433D01*
X166390568Y-80575992D01*
X166463553Y-80351368D01*
X166500500Y-80118092D01*
X166500500Y-79881908D01*
X166463553Y-79648632D01*
X166390568Y-79424008D01*
X166283343Y-79213567D01*
X166144517Y-79022490D01*
X166144515Y-79022487D01*
X165977512Y-78855484D01*
X165786436Y-78716659D01*
X165786435Y-78716658D01*
X165786433Y-78716657D01*
X165575992Y-78609432D01*
X165351368Y-78536447D01*
X165118092Y-78499500D01*
X164881908Y-78499500D01*
X164648632Y-78536447D01*
X164648629Y-78536447D01*
X164648628Y-78536448D01*
X164424008Y-78609432D01*
X164424006Y-78609433D01*
X164213563Y-78716659D01*
X164022487Y-78855484D01*
X163855484Y-79022487D01*
X163716659Y-79213563D01*
X163609433Y-79424006D01*
X163609432Y-79424008D01*
X163543062Y-79628274D01*
X163536447Y-79648632D01*
X163499500Y-79881908D01*
X154493000Y-79881908D01*
X154493000Y-79873556D01*
X154493000Y-79873555D01*
X154458347Y-79744226D01*
X154391401Y-79628274D01*
X154296726Y-79533599D01*
X154120647Y-79357520D01*
X154099922Y-79326500D01*
X154098842Y-79327124D01*
X154021713Y-79193532D01*
X154021705Y-79193522D01*
X153918477Y-79090294D01*
X153918467Y-79090286D01*
X153792033Y-79017289D01*
X153775372Y-79012824D01*
X153651001Y-78979500D01*
X153504999Y-78979500D01*
X153418686Y-79002627D01*
X153363966Y-79017289D01*
X153237532Y-79090286D01*
X153237522Y-79090294D01*
X153134294Y-79193522D01*
X153134286Y-79193532D01*
X153061289Y-79319966D01*
X153059371Y-79327124D01*
X153023500Y-79460999D01*
X153023500Y-79607001D01*
X153027600Y-79622302D01*
X153061289Y-79748033D01*
X153134286Y-79874467D01*
X153134294Y-79874477D01*
X153237522Y-79977705D01*
X153237527Y-79977709D01*
X153237529Y-79977711D01*
X153237530Y-79977712D01*
X153237532Y-79977713D01*
X153370971Y-80054754D01*
X153372810Y-80055154D01*
X153401520Y-80076647D01*
X153439095Y-80114222D01*
X153473121Y-80176534D01*
X153476000Y-80203317D01*
X153476000Y-80460987D01*
X153455998Y-80529108D01*
X153402342Y-80575601D01*
X153332068Y-80585705D01*
X153279998Y-80565752D01*
X153190309Y-80505824D01*
X153007505Y-80430104D01*
X153007502Y-80430103D01*
X152813438Y-80391500D01*
X152813435Y-80391500D01*
X152615565Y-80391500D01*
X152615562Y-80391500D01*
X152526114Y-80409293D01*
X152455400Y-80402965D01*
X152412437Y-80374809D01*
X150363147Y-78325519D01*
X150342421Y-78294500D01*
X150341342Y-78295124D01*
X150264213Y-78161532D01*
X150264205Y-78161522D01*
X150160977Y-78058294D01*
X150160967Y-78058286D01*
X150034533Y-77985289D01*
X150017872Y-77980824D01*
X149893501Y-77947500D01*
X149747499Y-77947500D01*
X149661186Y-77970627D01*
X149606466Y-77985289D01*
X149480032Y-78058286D01*
X149480022Y-78058294D01*
X149376794Y-78161522D01*
X149376786Y-78161532D01*
X149303789Y-78287966D01*
X149296288Y-78315960D01*
X149266000Y-78428999D01*
X149266000Y-78575001D01*
X149275226Y-78609432D01*
X149303789Y-78716033D01*
X149376786Y-78842467D01*
X149376794Y-78842477D01*
X149480022Y-78945705D01*
X149480027Y-78945709D01*
X149480029Y-78945711D01*
X149480030Y-78945712D01*
X149480032Y-78945713D01*
X149613624Y-79022842D01*
X149613000Y-79023921D01*
X149644019Y-79044647D01*
X150550460Y-79951088D01*
X150584486Y-80013400D01*
X150579421Y-80084215D01*
X150536874Y-80141051D01*
X150470354Y-80165862D01*
X150441655Y-80164632D01*
X150273505Y-80138000D01*
X150075496Y-80138000D01*
X149879914Y-80168977D01*
X149691594Y-80230166D01*
X149515171Y-80320057D01*
X149515167Y-80320060D01*
X149481922Y-80344212D01*
X150153710Y-81016000D01*
X150124472Y-81016000D01*
X150027825Y-81041896D01*
X149941175Y-81091924D01*
X149870424Y-81162675D01*
X149820396Y-81249325D01*
X149794500Y-81345972D01*
X149794500Y-81375210D01*
X149122712Y-80703422D01*
X149098560Y-80736667D01*
X149098557Y-80736671D01*
X149008666Y-80913094D01*
X148947477Y-81101414D01*
X148916500Y-81296996D01*
X148916500Y-81495003D01*
X148947477Y-81690585D01*
X149008666Y-81878905D01*
X149090390Y-82039298D01*
X149103494Y-82109074D01*
X149076794Y-82174859D01*
X149018766Y-82215765D01*
X148978123Y-82222500D01*
X147838318Y-82222500D01*
X147770197Y-82202498D01*
X147749223Y-82185595D01*
X142873147Y-77309519D01*
X142852421Y-77278500D01*
X142851342Y-77279124D01*
X142774213Y-77145532D01*
X142774205Y-77145522D01*
X142670977Y-77042294D01*
X142670967Y-77042286D01*
X142544533Y-76969289D01*
X142525436Y-76964172D01*
X142403501Y-76931500D01*
X142257499Y-76931500D01*
X142176184Y-76953288D01*
X142116466Y-76969289D01*
X141990032Y-77042286D01*
X141990022Y-77042294D01*
X141886794Y-77145522D01*
X141886786Y-77145532D01*
X141813789Y-77271966D01*
X141803727Y-77309519D01*
X141776000Y-77412999D01*
X140473500Y-77412999D01*
X140473499Y-76847002D01*
X140473499Y-75958753D01*
X140473499Y-75958746D01*
X140467040Y-75898658D01*
X140416342Y-75762733D01*
X140329404Y-75646596D01*
X140213267Y-75559658D01*
X140213265Y-75559657D01*
X140213266Y-75559657D01*
X140077349Y-75508962D01*
X140077344Y-75508960D01*
X140077342Y-75508960D01*
X140047298Y-75505730D01*
X140017256Y-75502500D01*
X139220753Y-75502500D01*
X139220729Y-75502502D01*
X139160660Y-75508959D01*
X139160658Y-75508959D01*
X139024733Y-75559657D01*
X138908596Y-75646596D01*
X138821657Y-75762734D01*
X138770962Y-75898650D01*
X138770960Y-75898658D01*
X138764500Y-75958737D01*
X138764500Y-77755246D01*
X138764502Y-77755270D01*
X138770959Y-77815339D01*
X138770959Y-77815341D01*
X138821657Y-77951266D01*
X138821658Y-77951267D01*
X138908596Y-78067404D01*
X139024733Y-78154342D01*
X139024734Y-78154342D01*
X139024735Y-78154343D01*
X139033531Y-78157624D01*
X139051545Y-78171108D01*
X139072012Y-78180456D01*
X139079409Y-78191966D01*
X139090367Y-78200169D01*
X139098231Y-78221254D01*
X139110396Y-78240182D01*
X139113597Y-78262449D01*
X139115179Y-78266689D01*
X139115500Y-78275680D01*
X139115500Y-78473211D01*
X139095498Y-78541332D01*
X139041842Y-78587825D01*
X139033534Y-78591266D01*
X138954733Y-78620658D01*
X138838596Y-78707596D01*
X138751657Y-78823734D01*
X138700962Y-78959650D01*
X138700960Y-78959658D01*
X138694500Y-79019737D01*
X138694500Y-80016246D01*
X138694502Y-80016270D01*
X138700959Y-80076339D01*
X138700959Y-80076341D01*
X138751657Y-80212266D01*
X138758478Y-80221378D01*
X138838596Y-80328404D01*
X138954733Y-80415342D01*
X139090658Y-80466040D01*
X139150745Y-80472500D01*
X139831181Y-80472499D01*
X139899302Y-80492501D01*
X139920276Y-80509404D01*
X140207000Y-80796128D01*
X140241026Y-80858440D01*
X140235961Y-80929255D01*
X140193414Y-80986091D01*
X140126894Y-81010902D01*
X140105102Y-81010571D01*
X140099512Y-81010000D01*
X139878000Y-81010000D01*
X139878000Y-82092000D01*
X139857998Y-82160121D01*
X139804342Y-82206614D01*
X139752000Y-82218000D01*
X139624000Y-82218000D01*
X139624000Y-82346000D01*
X139603998Y-82414121D01*
X139550342Y-82460614D01*
X139498000Y-82472000D01*
X138441000Y-82472000D01*
X138441000Y-82718516D01*
X138451605Y-82822318D01*
X138451606Y-82822321D01*
X138507342Y-82990525D01*
X138600365Y-83141339D01*
X138600370Y-83141345D01*
X138725653Y-83266628D01*
X138725692Y-83266659D01*
X138725711Y-83266686D01*
X138730850Y-83271825D01*
X138729972Y-83272702D01*
X138766724Y-83324598D01*
X138769919Y-83395523D01*
X138734261Y-83456915D01*
X138671073Y-83489284D01*
X138647548Y-83491500D01*
X137044452Y-83491500D01*
X136976331Y-83471498D01*
X136929838Y-83417842D01*
X136919734Y-83347568D01*
X136949228Y-83282988D01*
X136966308Y-83266659D01*
X136966346Y-83266628D01*
X137091629Y-83141345D01*
X137091634Y-83141339D01*
X137184657Y-82990525D01*
X137240393Y-82822321D01*
X137240394Y-82822318D01*
X137250999Y-82718516D01*
X137251000Y-82718516D01*
X137251000Y-82472000D01*
X134885000Y-82472000D01*
X134885000Y-82718516D01*
X134895605Y-82822318D01*
X134895606Y-82822321D01*
X134951342Y-82990525D01*
X135044365Y-83141339D01*
X135044370Y-83141345D01*
X135169653Y-83266628D01*
X135169692Y-83266659D01*
X135169711Y-83266686D01*
X135174850Y-83271825D01*
X135173972Y-83272702D01*
X135210724Y-83324598D01*
X135213919Y-83395523D01*
X135178261Y-83456915D01*
X135115073Y-83489284D01*
X135091548Y-83491500D01*
X132192818Y-83491500D01*
X132162902Y-83482716D01*
X132132433Y-83476088D01*
X132127337Y-83472273D01*
X132124697Y-83471498D01*
X132103723Y-83454595D01*
X132065666Y-83416538D01*
X132031640Y-83354226D01*
X132036705Y-83283411D01*
X132079252Y-83226575D01*
X132122146Y-83205738D01*
X132167029Y-83193712D01*
X132293471Y-83120711D01*
X132396711Y-83017471D01*
X132439727Y-82942965D01*
X132469710Y-82891033D01*
X132469710Y-82891032D01*
X132469712Y-82891029D01*
X132507500Y-82750001D01*
X132507500Y-82603999D01*
X132469712Y-82462971D01*
X132469710Y-82462968D01*
X132469710Y-82462966D01*
X132396713Y-82336532D01*
X132396705Y-82336522D01*
X132293477Y-82233294D01*
X132293467Y-82233286D01*
X132202500Y-82180767D01*
X132194082Y-82171938D01*
X132182988Y-82166872D01*
X132170038Y-82146723D01*
X132153507Y-82129385D01*
X132150238Y-82115914D01*
X132144604Y-82107146D01*
X132139500Y-82071648D01*
X132139500Y-81934499D01*
X132159502Y-81866378D01*
X132213158Y-81819885D01*
X132265500Y-81808499D01*
X132408064Y-81808499D01*
X132408066Y-81808499D01*
X132482301Y-81793734D01*
X132482302Y-81793732D01*
X132483418Y-81793511D01*
X132532581Y-81793511D01*
X132533697Y-81793733D01*
X132533699Y-81793734D01*
X132607933Y-81808500D01*
X132908066Y-81808499D01*
X132982301Y-81793734D01*
X132982302Y-81793732D01*
X132983418Y-81793511D01*
X133032581Y-81793511D01*
X133033697Y-81793733D01*
X133033699Y-81793734D01*
X133107933Y-81808500D01*
X133408066Y-81808499D01*
X133408069Y-81808498D01*
X133408073Y-81808498D01*
X133457326Y-81798701D01*
X133482301Y-81793734D01*
X133566484Y-81737484D01*
X133579848Y-81717483D01*
X134885000Y-81717483D01*
X134885000Y-81964000D01*
X135814000Y-81964000D01*
X136322000Y-81964000D01*
X137251000Y-81964000D01*
X137251000Y-81717483D01*
X138441000Y-81717483D01*
X138441000Y-81964000D01*
X139370000Y-81964000D01*
X139370000Y-81010000D01*
X139148483Y-81010000D01*
X139044681Y-81020605D01*
X139044678Y-81020606D01*
X138876474Y-81076342D01*
X138725660Y-81169365D01*
X138725654Y-81169370D01*
X138600370Y-81294654D01*
X138600365Y-81294660D01*
X138507342Y-81445474D01*
X138451606Y-81613678D01*
X138451605Y-81613681D01*
X138441000Y-81717483D01*
X137251000Y-81717483D01*
X137240394Y-81613681D01*
X137240393Y-81613678D01*
X137184657Y-81445474D01*
X137091634Y-81294660D01*
X137091629Y-81294654D01*
X136966345Y-81169370D01*
X136966339Y-81169365D01*
X136815525Y-81076342D01*
X136647321Y-81020606D01*
X136647318Y-81020605D01*
X136543516Y-81010000D01*
X136322000Y-81010000D01*
X136322000Y-81964000D01*
X135814000Y-81964000D01*
X135814000Y-81010000D01*
X135592483Y-81010000D01*
X135488681Y-81020605D01*
X135488678Y-81020606D01*
X135320474Y-81076342D01*
X135169660Y-81169365D01*
X135169654Y-81169370D01*
X135044370Y-81294654D01*
X135044365Y-81294660D01*
X134951342Y-81445474D01*
X134895606Y-81613678D01*
X134895605Y-81613681D01*
X134885000Y-81717483D01*
X133579848Y-81717483D01*
X133622734Y-81653301D01*
X133637500Y-81579067D01*
X133637499Y-81077681D01*
X133638577Y-81061232D01*
X133639500Y-81054222D01*
X133639500Y-80100092D01*
X133659502Y-80031971D01*
X133702499Y-79990973D01*
X133725471Y-79977711D01*
X133828711Y-79874471D01*
X133901712Y-79748029D01*
X133939500Y-79607001D01*
X133939500Y-79460999D01*
X133901712Y-79319971D01*
X133901710Y-79319968D01*
X133901710Y-79319966D01*
X133828713Y-79193532D01*
X133828705Y-79193522D01*
X133725477Y-79090294D01*
X133725467Y-79090286D01*
X133599033Y-79017289D01*
X133582372Y-79012824D01*
X133458001Y-78979500D01*
X133424836Y-78979500D01*
X133356715Y-78959498D01*
X133310222Y-78905842D01*
X133300118Y-78835568D01*
X133315717Y-78790500D01*
X133358710Y-78716033D01*
X133358710Y-78716032D01*
X133358712Y-78716029D01*
X133396500Y-78575001D01*
X133396500Y-78428999D01*
X133358712Y-78287971D01*
X133358710Y-78287968D01*
X133358710Y-78287966D01*
X133285713Y-78161532D01*
X133285705Y-78161522D01*
X133182477Y-78058294D01*
X133182467Y-78058286D01*
X133056033Y-77985289D01*
X133039372Y-77980824D01*
X132915001Y-77947500D01*
X132789836Y-77947500D01*
X132721715Y-77927498D01*
X132675222Y-77873842D01*
X132665118Y-77803568D01*
X132680717Y-77758500D01*
X132723710Y-77684033D01*
X132723710Y-77684032D01*
X132723712Y-77684029D01*
X132761500Y-77543001D01*
X132761500Y-77396999D01*
X132723712Y-77255971D01*
X132723710Y-77255968D01*
X132723710Y-77255966D01*
X132650713Y-77129532D01*
X132650705Y-77129522D01*
X132547477Y-77026294D01*
X132547467Y-77026286D01*
X132421033Y-76953289D01*
X132404372Y-76948824D01*
X132280001Y-76915500D01*
X132133999Y-76915500D01*
X132074286Y-76931500D01*
X131992966Y-76953289D01*
X131866532Y-77026286D01*
X131866522Y-77026294D01*
X131763294Y-77129522D01*
X131763286Y-77129532D01*
X131690289Y-77255966D01*
X131690288Y-77255971D01*
X131652500Y-77396999D01*
X131652500Y-77543001D01*
X131685824Y-77667372D01*
X131690289Y-77684033D01*
X131763286Y-77810467D01*
X131763288Y-77810470D01*
X131763289Y-77810471D01*
X131796595Y-77843777D01*
X131830620Y-77906087D01*
X131833500Y-77932872D01*
X131833500Y-80073500D01*
X131832476Y-80076985D01*
X131833304Y-80080522D01*
X131822549Y-80110793D01*
X131813498Y-80141621D01*
X131810752Y-80143999D01*
X131809537Y-80147422D01*
X131784125Y-80167072D01*
X131759842Y-80188114D01*
X131755400Y-80189284D01*
X131753374Y-80190852D01*
X131739609Y-80193446D01*
X131718454Y-80199023D01*
X131712981Y-80199500D01*
X131607934Y-80199501D01*
X131533699Y-80214266D01*
X131532185Y-80215277D01*
X131518954Y-80216432D01*
X131509292Y-80214488D01*
X131483419Y-80214488D01*
X131408069Y-80199500D01*
X131107936Y-80199500D01*
X131107926Y-80199501D01*
X131033699Y-80214265D01*
X130949515Y-80270516D01*
X130893266Y-80354697D01*
X130878500Y-80428930D01*
X130878500Y-80850324D01*
X130877423Y-80866767D01*
X130876501Y-80873771D01*
X130876500Y-80873775D01*
X130876500Y-80873779D01*
X130876500Y-82758576D01*
X130856498Y-82826697D01*
X130839595Y-82847671D01*
X124258092Y-89429175D01*
X124169577Y-89517689D01*
X124169572Y-89517696D01*
X124100027Y-89621777D01*
X124052124Y-89737425D01*
X124052122Y-89737430D01*
X124027700Y-89860206D01*
X124027700Y-89925100D01*
X124007698Y-89993221D01*
X123954042Y-90039714D01*
X123901701Y-90051100D01*
X123788137Y-90051100D01*
X123788126Y-90051101D01*
X123713899Y-90065865D01*
X123629715Y-90122116D01*
X123573466Y-90206297D01*
X123558700Y-90280530D01*
X123558700Y-92030663D01*
X123558701Y-92030673D01*
X123573465Y-92104900D01*
X123629716Y-92189084D01*
X123713897Y-92245333D01*
X123713899Y-92245334D01*
X123788133Y-92260100D01*
X123964449Y-92260099D01*
X124032567Y-92280101D01*
X124079060Y-92333756D01*
X124089165Y-92404030D01*
X124059672Y-92468611D01*
X124021651Y-92498365D01*
X123951452Y-92534134D01*
X123778520Y-92659777D01*
X123627377Y-92810920D01*
X123501736Y-92983849D01*
X123404693Y-93174307D01*
X123404690Y-93174313D01*
X123338640Y-93377595D01*
X123328502Y-93441600D01*
X121752075Y-93441600D01*
X121745961Y-93403001D01*
X121679909Y-93199713D01*
X121679906Y-93199707D01*
X121582863Y-93009249D01*
X121457222Y-92836320D01*
X121306079Y-92685177D01*
X121133150Y-92559536D01*
X121062947Y-92523766D01*
X121011332Y-92475018D01*
X120994266Y-92406103D01*
X121017167Y-92338901D01*
X121072764Y-92294749D01*
X121120149Y-92285499D01*
X121296466Y-92285499D01*
X121296469Y-92285498D01*
X121296473Y-92285498D01*
X121345726Y-92275701D01*
X121370701Y-92270734D01*
X121454884Y-92214484D01*
X121511134Y-92130301D01*
X121525900Y-92056067D01*
X121525899Y-91027421D01*
X121545901Y-90959301D01*
X121562799Y-90938332D01*
X126604625Y-85896508D01*
X126674173Y-85792422D01*
X126722078Y-85676769D01*
X126746500Y-85553991D01*
X126746500Y-85428809D01*
X126746500Y-83021665D01*
X126766502Y-82953544D01*
X126820158Y-82907051D01*
X126890432Y-82896947D01*
X126955012Y-82926441D01*
X126961595Y-82932570D01*
X127041654Y-83012629D01*
X127041660Y-83012634D01*
X127192474Y-83105657D01*
X127360678Y-83161393D01*
X127360681Y-83161394D01*
X127464483Y-83171999D01*
X127464483Y-83172000D01*
X127686000Y-83172000D01*
X128194000Y-83172000D01*
X128415517Y-83172000D01*
X128415516Y-83171999D01*
X128519318Y-83161394D01*
X128519321Y-83161393D01*
X128687525Y-83105657D01*
X128838339Y-83012634D01*
X128838345Y-83012629D01*
X128963629Y-82887345D01*
X128963634Y-82887339D01*
X129056657Y-82736525D01*
X129112393Y-82568321D01*
X129112394Y-82568318D01*
X129122999Y-82464516D01*
X129123000Y-82464516D01*
X129123000Y-82218000D01*
X128194000Y-82218000D01*
X128194000Y-83172000D01*
X127686000Y-83172000D01*
X127686000Y-81710000D01*
X128194000Y-81710000D01*
X129123000Y-81710000D01*
X129123000Y-81463483D01*
X129112394Y-81359681D01*
X129112393Y-81359678D01*
X129056657Y-81191474D01*
X128963634Y-81040660D01*
X128963629Y-81040654D01*
X128838345Y-80915370D01*
X128838339Y-80915365D01*
X128687525Y-80822342D01*
X128519321Y-80766606D01*
X128519318Y-80766605D01*
X128415516Y-80756000D01*
X128194000Y-80756000D01*
X128194000Y-81710000D01*
X127686000Y-81710000D01*
X127686000Y-80784671D01*
X127598434Y-80744547D01*
X127591550Y-80738567D01*
X127582801Y-80735998D01*
X127565164Y-80715644D01*
X127544838Y-80697986D01*
X127542280Y-80689234D01*
X127536308Y-80682342D01*
X127532475Y-80655684D01*
X127524922Y-80629840D01*
X127527501Y-80621094D01*
X127526204Y-80612068D01*
X127537392Y-80587570D01*
X127545011Y-80561745D01*
X127551910Y-80555782D01*
X127555698Y-80547488D01*
X127561827Y-80540905D01*
X127847328Y-80255404D01*
X127909640Y-80221378D01*
X127936423Y-80218499D01*
X128413247Y-80218499D01*
X128413254Y-80218499D01*
X128473342Y-80212040D01*
X128609267Y-80161342D01*
X128725404Y-80074404D01*
X128812342Y-79958267D01*
X128863040Y-79822342D01*
X128869500Y-79762255D01*
X128869499Y-79285422D01*
X128889501Y-79217302D01*
X128906399Y-79196332D01*
X129443625Y-78659108D01*
X129513173Y-78555022D01*
X129561078Y-78439369D01*
X129585500Y-78316591D01*
X129585500Y-78191409D01*
X129585500Y-78173547D01*
X129605502Y-78105426D01*
X129635992Y-78072678D01*
X129641994Y-78068185D01*
X129660404Y-78054404D01*
X129747342Y-77938267D01*
X129798040Y-77802342D01*
X129804500Y-77742255D01*
X129804499Y-75945746D01*
X129798040Y-75885658D01*
X129747342Y-75749733D01*
X129660404Y-75633596D01*
X129631024Y-75611603D01*
X129554568Y-75554369D01*
X129512021Y-75497533D01*
X129506955Y-75426717D01*
X129540980Y-75364405D01*
X129603292Y-75330380D01*
X129630076Y-75327500D01*
X132658577Y-75327500D01*
X132726698Y-75347502D01*
X132747672Y-75364405D01*
X134167595Y-76784328D01*
X134201621Y-76846640D01*
X134204500Y-76873423D01*
X134204500Y-77755246D01*
X134204502Y-77755270D01*
X134210959Y-77815339D01*
X134210959Y-77815341D01*
X134261657Y-77951266D01*
X134261658Y-77951267D01*
X134348596Y-78067404D01*
X134464733Y-78154342D01*
X134600658Y-78205040D01*
X134660745Y-78211500D01*
X135433500Y-78211499D01*
X135442325Y-78214090D01*
X135451432Y-78212781D01*
X135475857Y-78223936D01*
X135501621Y-78231501D01*
X135507645Y-78238454D01*
X135516012Y-78242275D01*
X135530526Y-78264860D01*
X135548114Y-78285157D01*
X135550438Y-78295843D01*
X135554396Y-78302001D01*
X135559500Y-78337499D01*
X135559500Y-78473211D01*
X135539498Y-78541332D01*
X135485842Y-78587825D01*
X135477534Y-78591266D01*
X135398733Y-78620658D01*
X135282596Y-78707596D01*
X135195657Y-78823734D01*
X135144962Y-78959650D01*
X135144960Y-78959658D01*
X135138500Y-79019737D01*
X135138500Y-80016246D01*
X135138502Y-80016270D01*
X135144959Y-80076339D01*
X135144959Y-80076341D01*
X135195657Y-80212266D01*
X135202478Y-80221378D01*
X135282596Y-80328404D01*
X135398733Y-80415342D01*
X135534658Y-80466040D01*
X135594745Y-80472500D01*
X136541254Y-80472499D01*
X136601342Y-80466040D01*
X136737267Y-80415342D01*
X136853404Y-80328404D01*
X136940342Y-80212267D01*
X136991040Y-80076342D01*
X136997500Y-80016255D01*
X136997499Y-79019746D01*
X136991040Y-78959658D01*
X136940342Y-78823733D01*
X136853404Y-78707596D01*
X136737267Y-78620658D01*
X136699290Y-78606493D01*
X136658466Y-78591266D01*
X136601631Y-78548719D01*
X136576821Y-78482198D01*
X136576500Y-78473211D01*
X136576500Y-77719056D01*
X136571402Y-77700029D01*
X136541847Y-77589726D01*
X136506339Y-77528225D01*
X136474901Y-77473773D01*
X136474898Y-77473770D01*
X136474895Y-77473766D01*
X135950404Y-76949275D01*
X135916378Y-76886963D01*
X135913499Y-76860180D01*
X135913499Y-75958753D01*
X135913499Y-75958746D01*
X135907040Y-75898658D01*
X135856342Y-75762733D01*
X135769404Y-75646596D01*
X135653267Y-75559658D01*
X135653265Y-75559657D01*
X135653266Y-75559657D01*
X135517349Y-75508962D01*
X135517344Y-75508960D01*
X135517342Y-75508960D01*
X135509831Y-75508152D01*
X135457262Y-75502500D01*
X135457255Y-75502500D01*
X134735423Y-75502500D01*
X134667302Y-75482498D01*
X134646328Y-75465595D01*
X134105442Y-74924709D01*
X145784000Y-74924709D01*
X145784000Y-75167290D01*
X145815660Y-75407782D01*
X145878444Y-75642095D01*
X145878445Y-75642097D01*
X145878446Y-75642100D01*
X145971276Y-75866212D01*
X145971277Y-75866213D01*
X145971282Y-75866224D01*
X146092561Y-76076285D01*
X146092563Y-76076288D01*
X146092564Y-76076289D01*
X146240235Y-76268738D01*
X146240239Y-76268742D01*
X146240244Y-76268748D01*
X146411751Y-76440255D01*
X146411756Y-76440259D01*
X146411762Y-76440265D01*
X146604211Y-76587936D01*
X146604214Y-76587938D01*
X146814275Y-76709217D01*
X146814279Y-76709218D01*
X146814288Y-76709224D01*
X147038400Y-76802054D01*
X147272711Y-76864838D01*
X147272715Y-76864838D01*
X147272717Y-76864839D01*
X147334702Y-76872999D01*
X147513212Y-76896500D01*
X147513219Y-76896500D01*
X147755781Y-76896500D01*
X147755788Y-76896500D01*
X147973137Y-76867885D01*
X147996282Y-76864839D01*
X147996282Y-76864838D01*
X147996289Y-76864838D01*
X148230600Y-76802054D01*
X148454712Y-76709224D01*
X148664789Y-76587936D01*
X148857238Y-76440265D01*
X149028765Y-76268738D01*
X149176436Y-76076289D01*
X149297724Y-75866212D01*
X149390554Y-75642100D01*
X149453338Y-75407789D01*
X149485000Y-75167288D01*
X149485000Y-74924712D01*
X149485000Y-74924709D01*
X157214000Y-74924709D01*
X157214000Y-75167290D01*
X157245660Y-75407782D01*
X157308444Y-75642095D01*
X157308445Y-75642097D01*
X157308446Y-75642100D01*
X157401276Y-75866212D01*
X157401277Y-75866213D01*
X157401282Y-75866224D01*
X157522561Y-76076285D01*
X157522563Y-76076288D01*
X157522564Y-76076289D01*
X157670235Y-76268738D01*
X157670239Y-76268742D01*
X157670244Y-76268748D01*
X157841751Y-76440255D01*
X157841756Y-76440259D01*
X157841762Y-76440265D01*
X158034211Y-76587936D01*
X158034214Y-76587938D01*
X158244275Y-76709217D01*
X158244279Y-76709218D01*
X158244288Y-76709224D01*
X158468400Y-76802054D01*
X158702711Y-76864838D01*
X158702715Y-76864838D01*
X158702717Y-76864839D01*
X158764702Y-76872999D01*
X158943212Y-76896500D01*
X158943219Y-76896500D01*
X159185781Y-76896500D01*
X159185788Y-76896500D01*
X159403137Y-76867885D01*
X159426282Y-76864839D01*
X159426282Y-76864838D01*
X159426289Y-76864838D01*
X159660600Y-76802054D01*
X159884712Y-76709224D01*
X160094789Y-76587936D01*
X160287238Y-76440265D01*
X160458765Y-76268738D01*
X160606436Y-76076289D01*
X160727724Y-75866212D01*
X160820554Y-75642100D01*
X160883338Y-75407789D01*
X160915000Y-75167288D01*
X160915000Y-74924712D01*
X160883338Y-74684211D01*
X160820554Y-74449900D01*
X160727724Y-74225788D01*
X160727718Y-74225779D01*
X160727717Y-74225775D01*
X160606438Y-74015714D01*
X160606436Y-74015711D01*
X160458765Y-73823262D01*
X160458759Y-73823256D01*
X160458755Y-73823251D01*
X160287248Y-73651744D01*
X160287242Y-73651739D01*
X160287238Y-73651735D01*
X160094789Y-73504064D01*
X160094788Y-73504063D01*
X160094785Y-73504061D01*
X159884724Y-73382782D01*
X159884716Y-73382778D01*
X159884712Y-73382776D01*
X159660600Y-73289946D01*
X159660597Y-73289945D01*
X159660595Y-73289944D01*
X159426282Y-73227160D01*
X159185790Y-73195500D01*
X159185788Y-73195500D01*
X158943212Y-73195500D01*
X158943209Y-73195500D01*
X158702717Y-73227160D01*
X158468404Y-73289944D01*
X158468400Y-73289946D01*
X158244286Y-73382777D01*
X158244275Y-73382782D01*
X158034214Y-73504061D01*
X157841762Y-73651735D01*
X157841751Y-73651744D01*
X157670244Y-73823251D01*
X157670235Y-73823262D01*
X157522561Y-74015714D01*
X157401282Y-74225775D01*
X157401277Y-74225786D01*
X157401276Y-74225788D01*
X157388206Y-74257342D01*
X157308446Y-74449900D01*
X157308444Y-74449904D01*
X157245660Y-74684217D01*
X157214000Y-74924709D01*
X149485000Y-74924709D01*
X149453338Y-74684211D01*
X149390554Y-74449900D01*
X149297724Y-74225788D01*
X149297718Y-74225779D01*
X149297717Y-74225775D01*
X149176438Y-74015714D01*
X149176436Y-74015711D01*
X149028765Y-73823262D01*
X149028759Y-73823256D01*
X149028755Y-73823251D01*
X148857248Y-73651744D01*
X148857242Y-73651739D01*
X148857238Y-73651735D01*
X148664789Y-73504064D01*
X148664788Y-73504063D01*
X148664785Y-73504061D01*
X148454724Y-73382782D01*
X148454716Y-73382778D01*
X148454712Y-73382776D01*
X148230600Y-73289946D01*
X148230597Y-73289945D01*
X148230595Y-73289944D01*
X147996282Y-73227160D01*
X147755790Y-73195500D01*
X147755788Y-73195500D01*
X147513212Y-73195500D01*
X147513209Y-73195500D01*
X147272717Y-73227160D01*
X147038404Y-73289944D01*
X147038400Y-73289946D01*
X146814286Y-73382777D01*
X146814275Y-73382782D01*
X146604214Y-73504061D01*
X146411762Y-73651735D01*
X146411751Y-73651744D01*
X146240244Y-73823251D01*
X146240235Y-73823262D01*
X146092561Y-74015714D01*
X145971282Y-74225775D01*
X145971277Y-74225786D01*
X145971276Y-74225788D01*
X145958206Y-74257342D01*
X145878446Y-74449900D01*
X145878444Y-74449904D01*
X145815660Y-74684217D01*
X145784000Y-74924709D01*
X134105442Y-74924709D01*
X133518592Y-74337859D01*
X133502922Y-74318766D01*
X133481625Y-74286892D01*
X133393108Y-74198375D01*
X133289022Y-74128827D01*
X133173369Y-74080922D01*
X133050593Y-74056500D01*
X133050591Y-74056500D01*
X130089399Y-74056500D01*
X130021278Y-74036498D01*
X129974785Y-73982842D01*
X129964681Y-73912568D01*
X129982158Y-73864353D01*
X130011659Y-73816523D01*
X130067392Y-73648333D01*
X130067394Y-73648321D01*
X130076672Y-73557507D01*
X133931000Y-73557507D01*
X133938657Y-73632457D01*
X133938657Y-73632459D01*
X133941605Y-73661327D01*
X133997340Y-73829523D01*
X134090365Y-73980340D01*
X134090370Y-73980346D01*
X134215653Y-74105629D01*
X134215659Y-74105634D01*
X134366476Y-74198659D01*
X134534668Y-74254392D01*
X134620131Y-74263124D01*
X134643867Y-74265548D01*
X134649918Y-74265000D01*
X135560000Y-74265000D01*
X136068000Y-74265000D01*
X136997226Y-74265000D01*
X136997242Y-74264999D01*
X137085000Y-74264999D01*
X137593000Y-74264999D01*
X137683275Y-74264999D01*
X137683299Y-74265000D01*
X138610000Y-74265000D01*
X139118000Y-74265000D01*
X140039505Y-74265000D01*
X140114447Y-74257342D01*
X140114457Y-74257343D01*
X140114457Y-74257342D01*
X140143326Y-74254393D01*
X140143334Y-74254392D01*
X140311523Y-74198659D01*
X140462340Y-74105634D01*
X140462346Y-74105629D01*
X140587629Y-73980346D01*
X140587634Y-73980340D01*
X140680659Y-73829523D01*
X140736392Y-73661333D01*
X140736394Y-73661321D01*
X140746999Y-73557519D01*
X140747000Y-73557519D01*
X140747000Y-72486000D01*
X139118000Y-72486000D01*
X139118000Y-74265000D01*
X138610000Y-74265000D01*
X138610000Y-72486000D01*
X137593000Y-72486000D01*
X137593000Y-74264999D01*
X137085000Y-74264999D01*
X137085000Y-72486000D01*
X136068000Y-72486000D01*
X136068000Y-74265000D01*
X135560000Y-74265000D01*
X135560000Y-72486000D01*
X133931000Y-72486000D01*
X133931000Y-73557507D01*
X130076672Y-73557507D01*
X130077999Y-73544519D01*
X130078000Y-73544519D01*
X130078000Y-72473000D01*
X123262000Y-72473000D01*
X123262000Y-72875077D01*
X123241998Y-72943198D01*
X123188342Y-72989691D01*
X123118068Y-72999795D01*
X123053488Y-72970301D01*
X123046905Y-72964172D01*
X122060733Y-71978000D01*
X133931000Y-71978000D01*
X135560000Y-71978000D01*
X136068000Y-71978000D01*
X137085000Y-71978000D01*
X137593000Y-71978000D01*
X138610000Y-71978000D01*
X139118000Y-71978000D01*
X140747000Y-71978000D01*
X140746999Y-70811000D01*
X139118000Y-70811000D01*
X139118000Y-71978000D01*
X138610000Y-71978000D01*
X138610000Y-70811000D01*
X137593000Y-70811000D01*
X137593000Y-71978000D01*
X137085000Y-71978000D01*
X137085000Y-70811000D01*
X136068000Y-70811000D01*
X136068000Y-71978000D01*
X135560000Y-71978000D01*
X135560000Y-70811000D01*
X133931000Y-70811000D01*
X133931000Y-71978000D01*
X122060733Y-71978000D01*
X122047733Y-71965000D01*
X123262000Y-71965000D01*
X124891000Y-71965000D01*
X125399000Y-71965000D01*
X127941000Y-71965000D01*
X128449000Y-71965000D01*
X130078000Y-71965000D01*
X130077999Y-70798000D01*
X128449000Y-70798000D01*
X128449000Y-71965000D01*
X127941000Y-71965000D01*
X127941000Y-70798000D01*
X125399000Y-70798000D01*
X125399000Y-71965000D01*
X124891000Y-71965000D01*
X124891000Y-70798000D01*
X123262000Y-70798000D01*
X123262000Y-71965000D01*
X122047733Y-71965000D01*
X121344110Y-71261377D01*
X121344108Y-71261375D01*
X121240022Y-71191827D01*
X121124369Y-71143922D01*
X121001593Y-71119500D01*
X121001591Y-71119500D01*
X114743591Y-71119500D01*
X114618409Y-71119500D01*
X114618406Y-71119500D01*
X114495630Y-71143922D01*
X114495625Y-71143924D01*
X114379977Y-71191827D01*
X114275896Y-71261372D01*
X114275889Y-71261377D01*
X109464490Y-76072776D01*
X109402178Y-76106802D01*
X109331363Y-76101737D01*
X109274527Y-76059190D01*
X109249716Y-75992670D01*
X109264807Y-75923296D01*
X109266277Y-75920680D01*
X109297715Y-75866228D01*
X109297717Y-75866224D01*
X109297724Y-75866212D01*
X109390554Y-75642100D01*
X109453338Y-75407789D01*
X109485000Y-75167288D01*
X109485000Y-74924712D01*
X109453338Y-74684211D01*
X109390554Y-74449900D01*
X109297724Y-74225788D01*
X109297718Y-74225779D01*
X109297717Y-74225775D01*
X109176438Y-74015714D01*
X109176436Y-74015711D01*
X109028765Y-73823262D01*
X109028759Y-73823256D01*
X109028755Y-73823251D01*
X108857248Y-73651744D01*
X108857242Y-73651739D01*
X108857238Y-73651735D01*
X108664789Y-73504064D01*
X108664788Y-73504063D01*
X108664785Y-73504061D01*
X108454724Y-73382782D01*
X108454716Y-73382778D01*
X108454712Y-73382776D01*
X108230600Y-73289946D01*
X108230597Y-73289945D01*
X108230595Y-73289944D01*
X107996282Y-73227160D01*
X107755790Y-73195500D01*
X107755788Y-73195500D01*
X107513212Y-73195500D01*
X107513209Y-73195500D01*
X107272717Y-73227160D01*
X107038404Y-73289944D01*
X107038400Y-73289946D01*
X106814286Y-73382777D01*
X106814275Y-73382782D01*
X106604214Y-73504061D01*
X106411762Y-73651735D01*
X106411751Y-73651744D01*
X106240244Y-73823251D01*
X106240235Y-73823262D01*
X106092561Y-74015714D01*
X105971282Y-74225775D01*
X105971277Y-74225786D01*
X105971276Y-74225788D01*
X105958206Y-74257342D01*
X105878446Y-74449900D01*
X105878444Y-74449904D01*
X105815660Y-74684217D01*
X105784000Y-74924709D01*
X100500500Y-74924709D01*
X100500500Y-68881908D01*
X101499500Y-68881908D01*
X101499500Y-68934802D01*
X101499500Y-69118092D01*
X101536447Y-69351368D01*
X101609432Y-69575992D01*
X101609433Y-69575993D01*
X101716659Y-69786436D01*
X101855484Y-69977512D01*
X102022487Y-70144515D01*
X102099875Y-70200741D01*
X102213567Y-70283343D01*
X102424008Y-70390568D01*
X102648632Y-70463553D01*
X102881908Y-70500500D01*
X102881911Y-70500500D01*
X103118089Y-70500500D01*
X103118092Y-70500500D01*
X103351368Y-70463553D01*
X103575992Y-70390568D01*
X103747854Y-70303000D01*
X133931000Y-70303000D01*
X135560000Y-70303000D01*
X136068000Y-70303000D01*
X137085000Y-70303000D01*
X137593000Y-70303000D01*
X138610000Y-70303000D01*
X139118000Y-70303000D01*
X140746999Y-70303000D01*
X140746999Y-70213741D01*
X140747000Y-70213720D01*
X140747000Y-69136000D01*
X139118000Y-69136000D01*
X139118000Y-70303000D01*
X138610000Y-70303000D01*
X138610000Y-69136000D01*
X137593000Y-69136000D01*
X137593000Y-70303000D01*
X137085000Y-70303000D01*
X137085000Y-69136000D01*
X136068000Y-69136000D01*
X136068000Y-70303000D01*
X135560000Y-70303000D01*
X135560000Y-69136000D01*
X133931000Y-69136000D01*
X133931000Y-70303000D01*
X103747854Y-70303000D01*
X103773368Y-70290000D01*
X123262000Y-70290000D01*
X124891000Y-70290000D01*
X125399000Y-70290000D01*
X126416000Y-70290000D01*
X126924000Y-70290000D01*
X127941000Y-70290000D01*
X128449000Y-70290000D01*
X130077999Y-70290000D01*
X130077999Y-70200741D01*
X130078000Y-70200720D01*
X130078000Y-69123000D01*
X128449000Y-69123000D01*
X128449000Y-70290000D01*
X127941000Y-70290000D01*
X127941000Y-69123000D01*
X126924000Y-69123000D01*
X126924000Y-70290000D01*
X126416000Y-70290000D01*
X126416000Y-69123000D01*
X125399000Y-69123000D01*
X125399000Y-70290000D01*
X124891000Y-70290000D01*
X124891000Y-69123000D01*
X123262000Y-69123000D01*
X123262000Y-70290000D01*
X103773368Y-70290000D01*
X103786433Y-70283343D01*
X103977510Y-70144517D01*
X104144517Y-69977510D01*
X104283343Y-69786433D01*
X104390568Y-69575992D01*
X104463553Y-69351368D01*
X104500500Y-69118092D01*
X104500500Y-68881908D01*
X163499500Y-68881908D01*
X163499500Y-68934802D01*
X163499500Y-69118092D01*
X163536447Y-69351368D01*
X163609432Y-69575992D01*
X163609433Y-69575993D01*
X163716659Y-69786436D01*
X163855484Y-69977512D01*
X164022487Y-70144515D01*
X164099875Y-70200741D01*
X164213567Y-70283343D01*
X164424008Y-70390568D01*
X164648632Y-70463553D01*
X164881908Y-70500500D01*
X164881911Y-70500500D01*
X165118089Y-70500500D01*
X165118092Y-70500500D01*
X165351368Y-70463553D01*
X165575992Y-70390568D01*
X165786433Y-70283343D01*
X165977510Y-70144517D01*
X166144517Y-69977510D01*
X166283343Y-69786433D01*
X166390568Y-69575992D01*
X166463553Y-69351368D01*
X166500500Y-69118092D01*
X166500500Y-68881908D01*
X166463553Y-68648632D01*
X166390568Y-68424008D01*
X166283343Y-68213567D01*
X166144517Y-68022490D01*
X166144515Y-68022487D01*
X165977512Y-67855484D01*
X165786436Y-67716659D01*
X165786435Y-67716658D01*
X165786433Y-67716657D01*
X165575992Y-67609432D01*
X165351368Y-67536447D01*
X165118092Y-67499500D01*
X164881908Y-67499500D01*
X164648632Y-67536447D01*
X164648629Y-67536447D01*
X164648628Y-67536448D01*
X164424008Y-67609432D01*
X164424006Y-67609433D01*
X164213563Y-67716659D01*
X164022487Y-67855484D01*
X163855484Y-68022487D01*
X163716659Y-68213563D01*
X163609433Y-68424006D01*
X163609432Y-68424008D01*
X163543151Y-68628000D01*
X163536447Y-68648632D01*
X163499500Y-68881908D01*
X104500500Y-68881908D01*
X104463553Y-68648632D01*
X104390568Y-68424008D01*
X104283343Y-68213567D01*
X104144517Y-68022490D01*
X104144515Y-68022487D01*
X103977512Y-67855484D01*
X103786436Y-67716659D01*
X103786435Y-67716658D01*
X103786433Y-67716657D01*
X103575992Y-67609432D01*
X103373013Y-67543480D01*
X123262000Y-67543480D01*
X123262000Y-68615000D01*
X124891000Y-68615000D01*
X125399000Y-68615000D01*
X126416000Y-68615000D01*
X126924000Y-68615000D01*
X127941000Y-68615000D01*
X128449000Y-68615000D01*
X130078000Y-68615000D01*
X130078000Y-67558836D01*
X130077792Y-67556480D01*
X133931000Y-67556480D01*
X133931000Y-68628000D01*
X135560000Y-68628000D01*
X136068000Y-68628000D01*
X137085000Y-68628000D01*
X137593000Y-68628000D01*
X138610000Y-68628000D01*
X139118000Y-68628000D01*
X140747000Y-68628000D01*
X140747000Y-67556491D01*
X140737046Y-67459058D01*
X140736871Y-67455630D01*
X140736393Y-67452670D01*
X140680659Y-67284476D01*
X140587634Y-67133659D01*
X140587629Y-67133653D01*
X140462346Y-67008370D01*
X140462340Y-67008365D01*
X140311523Y-66915340D01*
X140143333Y-66859607D01*
X140143321Y-66859605D01*
X140039519Y-66849000D01*
X139118000Y-66849000D01*
X139118000Y-68628000D01*
X138610000Y-68628000D01*
X138610000Y-66849000D01*
X137593000Y-66849000D01*
X137593000Y-68628000D01*
X137085000Y-68628000D01*
X137085000Y-66849000D01*
X136068000Y-66849000D01*
X136068000Y-68628000D01*
X135560000Y-68628000D01*
X135560000Y-66849000D01*
X134638492Y-66849000D01*
X134563542Y-66856657D01*
X134563541Y-66856657D01*
X134534672Y-66859606D01*
X134366476Y-66915340D01*
X134215659Y-67008365D01*
X134215653Y-67008370D01*
X134090370Y-67133653D01*
X134090365Y-67133659D01*
X133997340Y-67284476D01*
X133941607Y-67452666D01*
X133941605Y-67452678D01*
X133931000Y-67556480D01*
X130077792Y-67556480D01*
X130067883Y-67444342D01*
X130067943Y-67444040D01*
X130067871Y-67442630D01*
X130067393Y-67439670D01*
X130011659Y-67271476D01*
X129918634Y-67120659D01*
X129918629Y-67120653D01*
X129793346Y-66995370D01*
X129793340Y-66995365D01*
X129642523Y-66902340D01*
X129474333Y-66846607D01*
X129474321Y-66846605D01*
X129370519Y-66836000D01*
X128449000Y-66836000D01*
X128449000Y-68615000D01*
X127941000Y-68615000D01*
X127941000Y-66836000D01*
X126924000Y-66836000D01*
X126924000Y-68615000D01*
X126416000Y-68615000D01*
X126416000Y-66836000D01*
X125399000Y-66836000D01*
X125399000Y-68615000D01*
X124891000Y-68615000D01*
X124891000Y-66836000D01*
X123969492Y-66836000D01*
X123894542Y-66843657D01*
X123894541Y-66843657D01*
X123865672Y-66846606D01*
X123697476Y-66902340D01*
X123546659Y-66995365D01*
X123546653Y-66995370D01*
X123421370Y-67120653D01*
X123421365Y-67120659D01*
X123328340Y-67271476D01*
X123272607Y-67439666D01*
X123272605Y-67439678D01*
X123262000Y-67543480D01*
X103373013Y-67543480D01*
X103351368Y-67536447D01*
X103118092Y-67499500D01*
X102881908Y-67499500D01*
X102648632Y-67536447D01*
X102648629Y-67536447D01*
X102648628Y-67536448D01*
X102424008Y-67609432D01*
X102424006Y-67609433D01*
X102213563Y-67716659D01*
X102022487Y-67855484D01*
X101855484Y-68022487D01*
X101716659Y-68213563D01*
X101609433Y-68424006D01*
X101609432Y-68424008D01*
X101543151Y-68628000D01*
X101536447Y-68648632D01*
X101499500Y-68881908D01*
X100500500Y-68881908D01*
X100500500Y-66626500D01*
X100520502Y-66558379D01*
X100574158Y-66511886D01*
X100626500Y-66500500D01*
X167373500Y-66500500D01*
X167441621Y-66520502D01*
G37*
G04 #@! TD.AperFunction*
M02*
