M48
; DRILL file {KiCad 8.0.8} date 2025-02-11T12:11:13+0000
; FORMAT={-:-/ absolute / metric / decimal}
; #@! TF.CreationDate,2025-02-11T12:11:13+00:00
; #@! TF.GenerationSoftware,Kicad,Pcbnew,8.0.8
; #@! TF.FileFunction,Plated,1,4,PTH
FMAT,2
METRIC
; #@! TA.AperFunction,Plated,PTH,ViaDrill
T1C0.300
; #@! TA.AperFunction,Plated,PTH,ComponentDrill
T2C0.760
; #@! TA.AperFunction,Plated,PTH,ComponentDrill
T3C1.000
%
G90
G05
T1
X110.236Y-89.586
X110.25Y-88.392
X112.598Y-91.034
X119.761Y-86.741
X121.006Y-76.327
X121.006Y-80.518
X121.031Y-77.47
X121.031Y-78.486
X121.031Y-79.502
X121.463Y-87.071
X126.319Y-75.865
X127.584Y-75.641
X130.124Y-81.813
X131.953Y-82.677
X132.207Y-77.47
X132.258Y-75.768
X132.842Y-78.502
X133.385Y-79.534
X134.163Y-80.493
X136.55Y-94.92
X136.56Y-93.758
X137.77Y-75.717
X137.785Y-76.7
X142.331Y-77.486
X142.342Y-76.429
X143.261Y-87.63
X144.577Y-87.986
X147.87Y-78.502
X147.904Y-77.445
X153.518Y-78.486
X153.578Y-79.534
T2
X108.855Y-83.936
X110.124Y-81.396
X111.394Y-83.936
X112.664Y-81.396
X113.934Y-83.936
X115.204Y-81.396
X116.474Y-83.936
X117.744Y-81.396
X146.954Y-83.936
X148.225Y-81.396
X149.494Y-83.936
X150.764Y-81.396
X152.034Y-83.936
X153.304Y-81.396
X154.575Y-83.936
X155.844Y-81.396
T3
X102.651Y-70.131
X102.651Y-72.671
X102.651Y-78.894
X102.651Y-81.434
X102.651Y-88.165
X102.651Y-90.705
X129.951Y-89.186
X132.491Y-89.186
M30
