G04 #@! TF.GenerationSoftware,KiCad,Pcbnew,9.0.0*
G04 #@! TF.CreationDate,2025-04-21T00:28:37+01:00*
G04 #@! TF.ProjectId,PicoChainReference,5069636f-4368-4616-996e-526566657265,v1.2*
G04 #@! TF.SameCoordinates,Original*
G04 #@! TF.FileFunction,Copper,L4,Bot*
G04 #@! TF.FilePolarity,Positive*
%FSLAX46Y46*%
G04 Gerber Fmt 4.6, Leading zero omitted, Abs format (unit mm)*
G04 Created by KiCad (PCBNEW 9.0.0) date 2025-04-21 00:28:37*
%MOMM*%
%LPD*%
G01*
G04 APERTURE LIST*
G04 #@! TA.AperFunction,ComponentPad*
%ADD10R,1.700000X1.700000*%
G04 #@! TD*
G04 #@! TA.AperFunction,ComponentPad*
%ADD11O,1.700000X1.700000*%
G04 #@! TD*
G04 #@! TA.AperFunction,ComponentPad*
%ADD12R,1.500000X1.500000*%
G04 #@! TD*
G04 #@! TA.AperFunction,ComponentPad*
%ADD13C,1.500000*%
G04 #@! TD*
G04 #@! TA.AperFunction,ViaPad*
%ADD14C,0.600000*%
G04 #@! TD*
G04 #@! TA.AperFunction,Conductor*
%ADD15C,0.762000*%
G04 #@! TD*
G04 #@! TA.AperFunction,Conductor*
%ADD16C,1.016000*%
G04 #@! TD*
G04 #@! TA.AperFunction,Conductor*
%ADD17C,0.508000*%
G04 #@! TD*
G04 APERTURE END LIST*
D10*
X132491400Y-93726000D03*
D11*
X129951400Y-93726000D03*
D12*
X117794500Y-81396000D03*
D13*
X116524500Y-83936000D03*
X115254500Y-81396000D03*
X113984500Y-83936000D03*
X112714500Y-81396000D03*
X111444500Y-83936000D03*
X110174500Y-81396000D03*
X108904500Y-83936000D03*
D10*
X124663200Y-91155600D03*
D11*
X124663200Y-93695600D03*
D10*
X129951000Y-89186000D03*
D11*
X132491000Y-89186000D03*
D12*
X157794500Y-81396000D03*
D13*
X156524500Y-83936000D03*
X155254500Y-81396000D03*
X153984500Y-83936000D03*
X152714500Y-81396000D03*
X151444500Y-83936000D03*
X150174500Y-81396000D03*
X148904500Y-83936000D03*
D10*
X120421400Y-91181000D03*
D11*
X120421400Y-93721000D03*
D14*
X121462800Y-87071200D03*
X142341600Y-76428600D03*
X110236000Y-89585800D03*
X121005600Y-80518000D03*
X153517600Y-78486000D03*
X130124200Y-81813400D03*
X136550400Y-94919800D03*
X144576800Y-87985600D03*
X134162800Y-80492600D03*
X132232400Y-76377800D03*
X121005600Y-76327000D03*
X149809200Y-77444600D03*
X116000000Y-90932000D03*
X143260500Y-87630000D03*
X110250000Y-88392000D03*
X119761000Y-86741000D03*
X121031000Y-77470000D03*
X142330500Y-77486000D03*
X132207000Y-77470000D03*
X133385000Y-79534000D03*
X121031000Y-79502000D03*
X153578000Y-79534000D03*
X131953000Y-82677000D03*
X121031000Y-78486000D03*
X132842000Y-78502000D03*
X149820500Y-78502000D03*
D15*
X122605800Y-91998800D02*
X123449000Y-91155600D01*
X118211600Y-96088200D02*
X121589800Y-96088200D01*
X122605800Y-95072200D02*
X122605800Y-91998800D01*
X116000000Y-93876600D02*
X118211600Y-96088200D01*
X116000000Y-90932000D02*
X116000000Y-93876600D01*
X121589800Y-96088200D02*
X122605800Y-95072200D01*
X123449000Y-91155600D02*
X124663200Y-91155600D01*
D16*
X133138345Y-87630000D02*
X143260500Y-87630000D01*
X124780000Y-87628000D02*
X133136345Y-87628000D01*
X133136345Y-87628000D02*
X133138345Y-87630000D01*
X124016000Y-88392000D02*
X124780000Y-87628000D01*
X110250000Y-88392000D02*
X124016000Y-88392000D01*
X119761000Y-86741000D02*
X120745000Y-85757000D01*
X120745000Y-85757000D02*
X154703500Y-85757000D01*
X154703500Y-85757000D02*
X156524500Y-83936000D01*
D17*
X121047000Y-77486000D02*
X121031000Y-77470000D01*
X131064000Y-77470000D02*
X131048000Y-77486000D01*
X131048000Y-77486000D02*
X121047000Y-77486000D01*
X142330500Y-77486000D02*
X131080000Y-77486000D01*
X121031000Y-77470000D02*
X121015000Y-77486000D01*
X131080000Y-77486000D02*
X131064000Y-77470000D01*
X133385000Y-79534000D02*
X153578000Y-79534000D01*
X133385000Y-79534000D02*
X121063000Y-79534000D01*
X121063000Y-79534000D02*
X121031000Y-79502000D01*
X121031000Y-79502000D02*
X120999000Y-79534000D01*
X131985000Y-82709000D02*
X131953000Y-82677000D01*
X131921000Y-82709000D02*
X116517500Y-82709000D01*
X155254500Y-81396000D02*
X153941500Y-82709000D01*
X153941500Y-82709000D02*
X131985000Y-82709000D01*
X116517500Y-82709000D02*
X115204500Y-81396000D01*
X131953000Y-82677000D02*
X131921000Y-82709000D01*
X112664500Y-80823500D02*
X112664500Y-81316000D01*
X132842000Y-78502000D02*
X121047000Y-78502000D01*
X132842000Y-78502000D02*
X149820500Y-78502000D01*
X121047000Y-78502000D02*
X121031000Y-78486000D01*
X121031000Y-78486000D02*
X121015000Y-78502000D01*
G04 #@! TA.AperFunction,Conductor*
G36*
X167441621Y-66520502D02*
G01*
X167488114Y-66574158D01*
X167499500Y-66626500D01*
X167499500Y-99373500D01*
X167479498Y-99441621D01*
X167425842Y-99488114D01*
X167373500Y-99499500D01*
X100626500Y-99499500D01*
X100558379Y-99479498D01*
X100511886Y-99425842D01*
X100500500Y-99373500D01*
X100500500Y-90869406D01*
X115364500Y-90869406D01*
X115364500Y-93939193D01*
X115385854Y-94046545D01*
X115388922Y-94061969D01*
X115436827Y-94177622D01*
X115506375Y-94281708D01*
X117806492Y-96581825D01*
X117910578Y-96651373D01*
X118026231Y-96699278D01*
X118149009Y-96723700D01*
X118149010Y-96723700D01*
X121652390Y-96723700D01*
X121652391Y-96723700D01*
X121775169Y-96699278D01*
X121890822Y-96651373D01*
X121994908Y-96581825D01*
X123099425Y-95477308D01*
X123168973Y-95373222D01*
X123216878Y-95257569D01*
X123241300Y-95134791D01*
X123241300Y-95009609D01*
X123241300Y-94421043D01*
X123261302Y-94352922D01*
X123314958Y-94306429D01*
X123385232Y-94296325D01*
X123449812Y-94325819D01*
X123479567Y-94363841D01*
X123501734Y-94407347D01*
X123627377Y-94580279D01*
X123778520Y-94731422D01*
X123951449Y-94857063D01*
X124141907Y-94954106D01*
X124141913Y-94954109D01*
X124345198Y-95020160D01*
X124409200Y-95030296D01*
X124409200Y-94126302D01*
X124470207Y-94161525D01*
X124597374Y-94195600D01*
X124729026Y-94195600D01*
X124856193Y-94161525D01*
X124917200Y-94126302D01*
X124917200Y-95030296D01*
X124981201Y-95020160D01*
X125184486Y-94954109D01*
X125184492Y-94954106D01*
X125374950Y-94857063D01*
X125547879Y-94731422D01*
X125699022Y-94580279D01*
X125824663Y-94407350D01*
X125921706Y-94216892D01*
X125921709Y-94216886D01*
X125987761Y-94013598D01*
X125997899Y-93949600D01*
X125093903Y-93949600D01*
X125129125Y-93888593D01*
X125163200Y-93761426D01*
X125163200Y-93629774D01*
X125129125Y-93502607D01*
X125111454Y-93472000D01*
X128616702Y-93472000D01*
X129520697Y-93472000D01*
X129485475Y-93533007D01*
X129451400Y-93660174D01*
X129451400Y-93791826D01*
X129485475Y-93918993D01*
X129520697Y-93980000D01*
X128616702Y-93980000D01*
X128626840Y-94044004D01*
X128692890Y-94247286D01*
X128692893Y-94247292D01*
X128789936Y-94437750D01*
X128915577Y-94610679D01*
X129066720Y-94761822D01*
X129239649Y-94887463D01*
X129430107Y-94984506D01*
X129430113Y-94984509D01*
X129633398Y-95050560D01*
X129697400Y-95060696D01*
X129697400Y-94156702D01*
X129758407Y-94191925D01*
X129885574Y-94226000D01*
X130017226Y-94226000D01*
X130144393Y-94191925D01*
X130205400Y-94156702D01*
X130205400Y-95060696D01*
X130269401Y-95050560D01*
X130472686Y-94984509D01*
X130472692Y-94984506D01*
X130663150Y-94887463D01*
X130836079Y-94761822D01*
X130987222Y-94610679D01*
X131112863Y-94437750D01*
X131148632Y-94367549D01*
X131197380Y-94315933D01*
X131266295Y-94298866D01*
X131333496Y-94321766D01*
X131377650Y-94377363D01*
X131386900Y-94424749D01*
X131386900Y-94601063D01*
X131386901Y-94601073D01*
X131401665Y-94675300D01*
X131457916Y-94759484D01*
X131542097Y-94815733D01*
X131542099Y-94815734D01*
X131616333Y-94830500D01*
X133366466Y-94830499D01*
X133366469Y-94830498D01*
X133366473Y-94830498D01*
X133415726Y-94820701D01*
X133440701Y-94815734D01*
X133524884Y-94759484D01*
X133581134Y-94675301D01*
X133595900Y-94601067D01*
X133595899Y-92850934D01*
X133595898Y-92850930D01*
X133595898Y-92850926D01*
X133581134Y-92776699D01*
X133524883Y-92692515D01*
X133440702Y-92636266D01*
X133366467Y-92621500D01*
X131616336Y-92621500D01*
X131616326Y-92621501D01*
X131542099Y-92636265D01*
X131457915Y-92692516D01*
X131401666Y-92776697D01*
X131386900Y-92850930D01*
X131386900Y-93027247D01*
X131366898Y-93095368D01*
X131313242Y-93141861D01*
X131242968Y-93151965D01*
X131178388Y-93122471D01*
X131148633Y-93084450D01*
X131112864Y-93014250D01*
X130987222Y-92841320D01*
X130836079Y-92690177D01*
X130663150Y-92564536D01*
X130472692Y-92467493D01*
X130472686Y-92467490D01*
X130269404Y-92401440D01*
X130205400Y-92391302D01*
X130205400Y-93295297D01*
X130144393Y-93260075D01*
X130017226Y-93226000D01*
X129885574Y-93226000D01*
X129758407Y-93260075D01*
X129697400Y-93295297D01*
X129697400Y-92391302D01*
X129633395Y-92401440D01*
X129430113Y-92467490D01*
X129430107Y-92467493D01*
X129239649Y-92564536D01*
X129066720Y-92690177D01*
X128915577Y-92841320D01*
X128789936Y-93014249D01*
X128692893Y-93204707D01*
X128692890Y-93204713D01*
X128626840Y-93407995D01*
X128616702Y-93472000D01*
X125111454Y-93472000D01*
X125093903Y-93441600D01*
X125997897Y-93441600D01*
X125997897Y-93441599D01*
X125987759Y-93377595D01*
X125921709Y-93174313D01*
X125921706Y-93174307D01*
X125824663Y-92983849D01*
X125699022Y-92810920D01*
X125547879Y-92659777D01*
X125374950Y-92534136D01*
X125304747Y-92498366D01*
X125253132Y-92449618D01*
X125236066Y-92380703D01*
X125258967Y-92313501D01*
X125314564Y-92269349D01*
X125361949Y-92260099D01*
X125538266Y-92260099D01*
X125538269Y-92260098D01*
X125538273Y-92260098D01*
X125595371Y-92248741D01*
X125612501Y-92245334D01*
X125696684Y-92189084D01*
X125752934Y-92104901D01*
X125767700Y-92030667D01*
X125767699Y-90280534D01*
X125767698Y-90280530D01*
X125767698Y-90280526D01*
X125752934Y-90206299D01*
X125713655Y-90147515D01*
X125696684Y-90122116D01*
X125696683Y-90122115D01*
X125612502Y-90065866D01*
X125538267Y-90051100D01*
X123788136Y-90051100D01*
X123788126Y-90051101D01*
X123713899Y-90065865D01*
X123629715Y-90122116D01*
X123573466Y-90206297D01*
X123558700Y-90280530D01*
X123558700Y-90394100D01*
X123538698Y-90462221D01*
X123485042Y-90508714D01*
X123432700Y-90520100D01*
X123386406Y-90520100D01*
X123263630Y-90544522D01*
X123263625Y-90544524D01*
X123147977Y-90592427D01*
X123043896Y-90661972D01*
X123043889Y-90661977D01*
X122112177Y-91593689D01*
X122112172Y-91593696D01*
X122042627Y-91697777D01*
X121994724Y-91813425D01*
X121994722Y-91813430D01*
X121970300Y-91936206D01*
X121970300Y-93297912D01*
X121950298Y-93366033D01*
X121896642Y-93412526D01*
X121826368Y-93422630D01*
X121761788Y-93393136D01*
X121724467Y-93336848D01*
X121679909Y-93199713D01*
X121679906Y-93199707D01*
X121582863Y-93009249D01*
X121457222Y-92836320D01*
X121306079Y-92685177D01*
X121133150Y-92559536D01*
X121062947Y-92523766D01*
X121011332Y-92475018D01*
X120994266Y-92406103D01*
X121017167Y-92338901D01*
X121072764Y-92294749D01*
X121120149Y-92285499D01*
X121296466Y-92285499D01*
X121296469Y-92285498D01*
X121296473Y-92285498D01*
X121345726Y-92275701D01*
X121370701Y-92270734D01*
X121454884Y-92214484D01*
X121511134Y-92130301D01*
X121525900Y-92056067D01*
X121525899Y-90305934D01*
X121525898Y-90305930D01*
X121525898Y-90305926D01*
X121511134Y-90231699D01*
X121454883Y-90147515D01*
X121370702Y-90091266D01*
X121296467Y-90076500D01*
X119546336Y-90076500D01*
X119546326Y-90076501D01*
X119472099Y-90091265D01*
X119387915Y-90147516D01*
X119331666Y-90231697D01*
X119316900Y-90305930D01*
X119316900Y-92056063D01*
X119316901Y-92056073D01*
X119331665Y-92130300D01*
X119387916Y-92214484D01*
X119472097Y-92270733D01*
X119472099Y-92270734D01*
X119546333Y-92285500D01*
X119722649Y-92285499D01*
X119790767Y-92305501D01*
X119837260Y-92359156D01*
X119847365Y-92429430D01*
X119817872Y-92494011D01*
X119779851Y-92523765D01*
X119709652Y-92559534D01*
X119536720Y-92685177D01*
X119385577Y-92836320D01*
X119259936Y-93009249D01*
X119162893Y-93199707D01*
X119162890Y-93199713D01*
X119096840Y-93402995D01*
X119086702Y-93467000D01*
X119990697Y-93467000D01*
X119955475Y-93528007D01*
X119921400Y-93655174D01*
X119921400Y-93786826D01*
X119955475Y-93913993D01*
X119990697Y-93975000D01*
X119086702Y-93975000D01*
X119096840Y-94039004D01*
X119162890Y-94242286D01*
X119162893Y-94242292D01*
X119259936Y-94432750D01*
X119385577Y-94605679D01*
X119536720Y-94756822D01*
X119709649Y-94882463D01*
X119900107Y-94979506D01*
X119900113Y-94979509D01*
X120103398Y-95045560D01*
X120167400Y-95055696D01*
X120167400Y-94151702D01*
X120228407Y-94186925D01*
X120355574Y-94221000D01*
X120487226Y-94221000D01*
X120614393Y-94186925D01*
X120675400Y-94151702D01*
X120675400Y-95055696D01*
X120739401Y-95045560D01*
X120942686Y-94979509D01*
X120942692Y-94979506D01*
X121133150Y-94882463D01*
X121306079Y-94756822D01*
X121457222Y-94605679D01*
X121582863Y-94432750D01*
X121679906Y-94242292D01*
X121679909Y-94242286D01*
X121724467Y-94105151D01*
X121764540Y-94046545D01*
X121829937Y-94018908D01*
X121899894Y-94031015D01*
X121952200Y-94079021D01*
X121970300Y-94144087D01*
X121970300Y-94756777D01*
X121950298Y-94824898D01*
X121933395Y-94845872D01*
X121363472Y-95415795D01*
X121301160Y-95449821D01*
X121274377Y-95452700D01*
X118527023Y-95452700D01*
X118458902Y-95432698D01*
X118437928Y-95415795D01*
X116672405Y-93650272D01*
X116638379Y-93587960D01*
X116635500Y-93561177D01*
X116635500Y-90869410D01*
X116635499Y-90869406D01*
X116611078Y-90746631D01*
X116563173Y-90630978D01*
X116493625Y-90526892D01*
X116405108Y-90438375D01*
X116301022Y-90368827D01*
X116185369Y-90320922D01*
X116062593Y-90296500D01*
X116062591Y-90296500D01*
X115937409Y-90296500D01*
X115937406Y-90296500D01*
X115814630Y-90320922D01*
X115814625Y-90320924D01*
X115698977Y-90368827D01*
X115594896Y-90438372D01*
X115594889Y-90438377D01*
X115506377Y-90526889D01*
X115506372Y-90526896D01*
X115436827Y-90630977D01*
X115388924Y-90746625D01*
X115388922Y-90746630D01*
X115364500Y-90869406D01*
X100500500Y-90869406D01*
X100500500Y-88316896D01*
X109487500Y-88316896D01*
X109487500Y-88467103D01*
X109516803Y-88614413D01*
X109574282Y-88753179D01*
X109657728Y-88878065D01*
X109763935Y-88984272D01*
X109888821Y-89067718D01*
X110027587Y-89125197D01*
X110174900Y-89154500D01*
X124091100Y-89154500D01*
X124238413Y-89125197D01*
X124377179Y-89067718D01*
X124502065Y-88984273D01*
X125058934Y-88427403D01*
X125121245Y-88393380D01*
X125148028Y-88390500D01*
X128720500Y-88390500D01*
X128788621Y-88410502D01*
X128835114Y-88464158D01*
X128846500Y-88516500D01*
X128846500Y-90061063D01*
X128846501Y-90061073D01*
X128861265Y-90135300D01*
X128917516Y-90219484D01*
X129001697Y-90275733D01*
X129001699Y-90275734D01*
X129075933Y-90290500D01*
X130826066Y-90290499D01*
X130826069Y-90290498D01*
X130826073Y-90290498D01*
X130876208Y-90280526D01*
X130900301Y-90275734D01*
X130984484Y-90219484D01*
X131040734Y-90135301D01*
X131055500Y-90061067D01*
X131055499Y-88516499D01*
X131075501Y-88448379D01*
X131129157Y-88401886D01*
X131181499Y-88390500D01*
X131456439Y-88390500D01*
X131524560Y-88410502D01*
X131571053Y-88464158D01*
X131581157Y-88534432D01*
X131558374Y-88590562D01*
X131546349Y-88607111D01*
X131467421Y-88762017D01*
X131467418Y-88762023D01*
X131413698Y-88927357D01*
X131413697Y-88927360D01*
X131413697Y-88927362D01*
X131386500Y-89099074D01*
X131386500Y-89272926D01*
X131413697Y-89444638D01*
X131467420Y-89609981D01*
X131467421Y-89609982D01*
X131546349Y-89764887D01*
X131648536Y-89905535D01*
X131771464Y-90028463D01*
X131857903Y-90091265D01*
X131912116Y-90130653D01*
X132067019Y-90209580D01*
X132232362Y-90263303D01*
X132404074Y-90290500D01*
X132404077Y-90290500D01*
X132577923Y-90290500D01*
X132577926Y-90290500D01*
X132749638Y-90263303D01*
X132914981Y-90209580D01*
X133069884Y-90130653D01*
X133210533Y-90028465D01*
X133333465Y-89905533D01*
X133435653Y-89764884D01*
X133514580Y-89609981D01*
X133568303Y-89444638D01*
X133595500Y-89272926D01*
X133595500Y-89099074D01*
X133568303Y-88927362D01*
X133514580Y-88762019D01*
X133435653Y-88607116D01*
X133435651Y-88607113D01*
X133435650Y-88607111D01*
X133425079Y-88592562D01*
X133401220Y-88525695D01*
X133417299Y-88456543D01*
X133468212Y-88407062D01*
X133527014Y-88392500D01*
X143335600Y-88392500D01*
X143482913Y-88363197D01*
X143621679Y-88305718D01*
X143746565Y-88222272D01*
X143852772Y-88116065D01*
X143936218Y-87991179D01*
X143993697Y-87852413D01*
X144023000Y-87705100D01*
X144023000Y-87554900D01*
X143993697Y-87407587D01*
X143936218Y-87268821D01*
X143852772Y-87143935D01*
X143746565Y-87037728D01*
X143621679Y-86954282D01*
X143482914Y-86896803D01*
X143335603Y-86867500D01*
X143335600Y-86867500D01*
X133233909Y-86867500D01*
X133217623Y-86865896D01*
X133217603Y-86866107D01*
X133211447Y-86865500D01*
X133211445Y-86865500D01*
X124704900Y-86865500D01*
X124704896Y-86865500D01*
X124557585Y-86894803D01*
X124557584Y-86894804D01*
X124418820Y-86952282D01*
X124293935Y-87035726D01*
X124102597Y-87227065D01*
X123737065Y-87592596D01*
X123674755Y-87626620D01*
X123647972Y-87629500D01*
X120219095Y-87629500D01*
X120150974Y-87609498D01*
X120104481Y-87555842D01*
X120094377Y-87485568D01*
X120123871Y-87420988D01*
X120149094Y-87398734D01*
X120247065Y-87333273D01*
X121023934Y-86556403D01*
X121086245Y-86522380D01*
X121113028Y-86519500D01*
X154778600Y-86519500D01*
X154925913Y-86490197D01*
X155064679Y-86432718D01*
X155087724Y-86417320D01*
X155189565Y-86349273D01*
X156565081Y-84973756D01*
X156627390Y-84939734D01*
X156629541Y-84939285D01*
X156817502Y-84901897D01*
X157000309Y-84826176D01*
X157164831Y-84716246D01*
X157304746Y-84576331D01*
X157414676Y-84411809D01*
X157490397Y-84229002D01*
X157529000Y-84034935D01*
X157529000Y-83837065D01*
X157490397Y-83642998D01*
X157414676Y-83460191D01*
X157304746Y-83295669D01*
X157164831Y-83155754D01*
X157000309Y-83045824D01*
X156903784Y-83005842D01*
X156817505Y-82970104D01*
X156817502Y-82970103D01*
X156623438Y-82931500D01*
X156623435Y-82931500D01*
X156425565Y-82931500D01*
X156425561Y-82931500D01*
X156231497Y-82970103D01*
X156231494Y-82970104D01*
X156048690Y-83045824D01*
X155884173Y-83155751D01*
X155884166Y-83155756D01*
X155744256Y-83295666D01*
X155744251Y-83295673D01*
X155634324Y-83460190D01*
X155558604Y-83642994D01*
X155558603Y-83642997D01*
X155521224Y-83830908D01*
X155488316Y-83893818D01*
X155486740Y-83895421D01*
X155193759Y-84188402D01*
X155131447Y-84222428D01*
X155060632Y-84217363D01*
X155003796Y-84174816D01*
X154978985Y-84108296D01*
X154981085Y-84074724D01*
X154989000Y-84034935D01*
X154989000Y-83837065D01*
X154950397Y-83642998D01*
X154874676Y-83460191D01*
X154764746Y-83295669D01*
X154624831Y-83155754D01*
X154506134Y-83076443D01*
X154460607Y-83021967D01*
X154451759Y-82951524D01*
X154482400Y-82887480D01*
X154487023Y-82882603D01*
X154952438Y-82417188D01*
X155014748Y-82383164D01*
X155066111Y-82382706D01*
X155155565Y-82400500D01*
X155155570Y-82400500D01*
X155353435Y-82400500D01*
X155547502Y-82361897D01*
X155730309Y-82286176D01*
X155894831Y-82176246D01*
X156034746Y-82036331D01*
X156144676Y-81871809D01*
X156220397Y-81689002D01*
X156259000Y-81494935D01*
X156259000Y-81297065D01*
X156220397Y-81102998D01*
X156144676Y-80920191D01*
X156034746Y-80755669D01*
X155894831Y-80615754D01*
X155867365Y-80597402D01*
X156536500Y-80597402D01*
X156536500Y-81142000D01*
X157511099Y-81142000D01*
X157490424Y-81162675D01*
X157440396Y-81249325D01*
X157414500Y-81345972D01*
X157414500Y-81446028D01*
X157440396Y-81542675D01*
X157490424Y-81629325D01*
X157511099Y-81650000D01*
X156536500Y-81650000D01*
X156536500Y-82194597D01*
X156543005Y-82255093D01*
X156594055Y-82391964D01*
X156594055Y-82391965D01*
X156681595Y-82508904D01*
X156798534Y-82596444D01*
X156935406Y-82647494D01*
X156995902Y-82653999D01*
X156995915Y-82654000D01*
X157540500Y-82654000D01*
X157540500Y-81679401D01*
X157561175Y-81700076D01*
X157647825Y-81750104D01*
X157744472Y-81776000D01*
X157844528Y-81776000D01*
X157941175Y-81750104D01*
X158027825Y-81700076D01*
X158048500Y-81679401D01*
X158048500Y-82654000D01*
X158593085Y-82654000D01*
X158593097Y-82653999D01*
X158653593Y-82647494D01*
X158790464Y-82596444D01*
X158790465Y-82596444D01*
X158907404Y-82508904D01*
X158994944Y-82391965D01*
X158994944Y-82391964D01*
X159045994Y-82255093D01*
X159052499Y-82194597D01*
X159052500Y-82194585D01*
X159052500Y-81650000D01*
X158077901Y-81650000D01*
X158098576Y-81629325D01*
X158148604Y-81542675D01*
X158174500Y-81446028D01*
X158174500Y-81345972D01*
X158148604Y-81249325D01*
X158098576Y-81162675D01*
X158077901Y-81142000D01*
X159052500Y-81142000D01*
X159052500Y-80597414D01*
X159052499Y-80597402D01*
X159045994Y-80536906D01*
X158994944Y-80400035D01*
X158994944Y-80400034D01*
X158907404Y-80283095D01*
X158790465Y-80195555D01*
X158653593Y-80144505D01*
X158593097Y-80138000D01*
X158048500Y-80138000D01*
X158048500Y-81112599D01*
X158027825Y-81091924D01*
X157941175Y-81041896D01*
X157844528Y-81016000D01*
X157744472Y-81016000D01*
X157647825Y-81041896D01*
X157561175Y-81091924D01*
X157540500Y-81112599D01*
X157540500Y-80138000D01*
X156995902Y-80138000D01*
X156935406Y-80144505D01*
X156798535Y-80195555D01*
X156798534Y-80195555D01*
X156681595Y-80283095D01*
X156594055Y-80400034D01*
X156594055Y-80400035D01*
X156543005Y-80536906D01*
X156536500Y-80597402D01*
X155867365Y-80597402D01*
X155730309Y-80505824D01*
X155623248Y-80461478D01*
X155547505Y-80430104D01*
X155547502Y-80430103D01*
X155353438Y-80391500D01*
X155353435Y-80391500D01*
X155155565Y-80391500D01*
X155155561Y-80391500D01*
X154961497Y-80430103D01*
X154961494Y-80430104D01*
X154778690Y-80505824D01*
X154614173Y-80615751D01*
X154614166Y-80615756D01*
X154474256Y-80755666D01*
X154474251Y-80755673D01*
X154364324Y-80920190D01*
X154288604Y-81102994D01*
X154288603Y-81102997D01*
X154250000Y-81297061D01*
X154250000Y-81494940D01*
X154267792Y-81584385D01*
X154261464Y-81655099D01*
X154233309Y-81698061D01*
X153767777Y-82163595D01*
X153740408Y-82178539D01*
X153714179Y-82195396D01*
X153707877Y-82196302D01*
X153705464Y-82197620D01*
X153678681Y-82200500D01*
X153620781Y-82200500D01*
X153552660Y-82180498D01*
X153506167Y-82126842D01*
X153496063Y-82056568D01*
X153516016Y-82004498D01*
X153604676Y-81871809D01*
X153680397Y-81689002D01*
X153719000Y-81494935D01*
X153719000Y-81297065D01*
X153680397Y-81102998D01*
X153604676Y-80920191D01*
X153494746Y-80755669D01*
X153354831Y-80615754D01*
X153190309Y-80505824D01*
X153083248Y-80461478D01*
X153007505Y-80430104D01*
X153007502Y-80430103D01*
X152813438Y-80391500D01*
X152813435Y-80391500D01*
X152615565Y-80391500D01*
X152615561Y-80391500D01*
X152421497Y-80430103D01*
X152421494Y-80430104D01*
X152238690Y-80505824D01*
X152074173Y-80615751D01*
X152074166Y-80615756D01*
X151934256Y-80755666D01*
X151934251Y-80755673D01*
X151824324Y-80920190D01*
X151748604Y-81102994D01*
X151748603Y-81102997D01*
X151710000Y-81297061D01*
X151710000Y-81494938D01*
X151748603Y-81689002D01*
X151748604Y-81689005D01*
X151749706Y-81691665D01*
X151824324Y-81871809D01*
X151912984Y-82004498D01*
X151934199Y-82072251D01*
X151915416Y-82140718D01*
X151862599Y-82188161D01*
X151808219Y-82200500D01*
X151382086Y-82200500D01*
X151313965Y-82180498D01*
X151267472Y-82126842D01*
X151257368Y-82056568D01*
X151269819Y-82017297D01*
X151340334Y-81878902D01*
X151401522Y-81690585D01*
X151432500Y-81495003D01*
X151432500Y-81296996D01*
X151401522Y-81101414D01*
X151340334Y-80913097D01*
X151250435Y-80736660D01*
X151226287Y-80703423D01*
X151226285Y-80703423D01*
X150554500Y-81375208D01*
X150554500Y-81345972D01*
X150528604Y-81249325D01*
X150478576Y-81162675D01*
X150407825Y-81091924D01*
X150321175Y-81041896D01*
X150224528Y-81016000D01*
X150195289Y-81016000D01*
X150867075Y-80344212D01*
X150833830Y-80320058D01*
X150756715Y-80280767D01*
X150705099Y-80232019D01*
X150688033Y-80163105D01*
X150710933Y-80095903D01*
X150766531Y-80051750D01*
X150813917Y-80042500D01*
X153319083Y-80042500D01*
X153355671Y-80049777D01*
X153355994Y-80048574D01*
X153363969Y-80050710D01*
X153363971Y-80050712D01*
X153504999Y-80088500D01*
X153505001Y-80088500D01*
X153650999Y-80088500D01*
X153651001Y-80088500D01*
X153792029Y-80050712D01*
X153792032Y-80050710D01*
X153792033Y-80050710D01*
X153855250Y-80014211D01*
X153918471Y-79977711D01*
X154014274Y-79881908D01*
X163499500Y-79881908D01*
X163499500Y-79934802D01*
X163499500Y-80118092D01*
X163536447Y-80351368D01*
X163609432Y-80575992D01*
X163700982Y-80755669D01*
X163716659Y-80786436D01*
X163855484Y-80977512D01*
X164022487Y-81144515D01*
X164022490Y-81144517D01*
X164213567Y-81283343D01*
X164424008Y-81390568D01*
X164648632Y-81463553D01*
X164881908Y-81500500D01*
X164881911Y-81500500D01*
X165118089Y-81500500D01*
X165118092Y-81500500D01*
X165351368Y-81463553D01*
X165575992Y-81390568D01*
X165786433Y-81283343D01*
X165977510Y-81144517D01*
X166144517Y-80977510D01*
X166283343Y-80786433D01*
X166390568Y-80575992D01*
X166463553Y-80351368D01*
X166500500Y-80118092D01*
X166500500Y-79881908D01*
X166463553Y-79648632D01*
X166390568Y-79424008D01*
X166283343Y-79213567D01*
X166144517Y-79022490D01*
X166144515Y-79022487D01*
X165977512Y-78855484D01*
X165786436Y-78716659D01*
X165786435Y-78716658D01*
X165786433Y-78716657D01*
X165575992Y-78609432D01*
X165351368Y-78536447D01*
X165118092Y-78499500D01*
X164881908Y-78499500D01*
X164648632Y-78536447D01*
X164648629Y-78536447D01*
X164648628Y-78536448D01*
X164424008Y-78609432D01*
X164424006Y-78609433D01*
X164213563Y-78716659D01*
X164022487Y-78855484D01*
X163855484Y-79022487D01*
X163716659Y-79213563D01*
X163609433Y-79424006D01*
X163609432Y-79424008D01*
X163597413Y-79461000D01*
X163536447Y-79648632D01*
X163499500Y-79881908D01*
X154014274Y-79881908D01*
X154021711Y-79874471D01*
X154059598Y-79808850D01*
X154094710Y-79748033D01*
X154094710Y-79748032D01*
X154094712Y-79748029D01*
X154132500Y-79607001D01*
X154132500Y-79460999D01*
X154094712Y-79319971D01*
X154094710Y-79319968D01*
X154094710Y-79319966D01*
X154021713Y-79193532D01*
X154021705Y-79193522D01*
X153918477Y-79090294D01*
X153918467Y-79090286D01*
X153792033Y-79017289D01*
X153775372Y-79012824D01*
X153651001Y-78979500D01*
X153504999Y-78979500D01*
X153363971Y-79017288D01*
X153363969Y-79017289D01*
X153355994Y-79019426D01*
X153355671Y-79018222D01*
X153319083Y-79025500D01*
X150376778Y-79025500D01*
X150308657Y-79005498D01*
X150262164Y-78951842D01*
X150252060Y-78881568D01*
X150267659Y-78836500D01*
X150337210Y-78716033D01*
X150337210Y-78716032D01*
X150337212Y-78716029D01*
X150375000Y-78575001D01*
X150375000Y-78428999D01*
X150337212Y-78287971D01*
X150337210Y-78287968D01*
X150337210Y-78287966D01*
X150264213Y-78161532D01*
X150264205Y-78161522D01*
X150160977Y-78058294D01*
X150160967Y-78058286D01*
X150034533Y-77985289D01*
X150017872Y-77980824D01*
X149893501Y-77947500D01*
X149747499Y-77947500D01*
X149606471Y-77985288D01*
X149606469Y-77985289D01*
X149598494Y-77987426D01*
X149598171Y-77986222D01*
X149561583Y-77993500D01*
X142896015Y-77993500D01*
X142827894Y-77973498D01*
X142781401Y-77919842D01*
X142771297Y-77849568D01*
X142786896Y-77804500D01*
X142847210Y-77700033D01*
X142847210Y-77700032D01*
X142847212Y-77700029D01*
X142885000Y-77559001D01*
X142885000Y-77412999D01*
X142847212Y-77271971D01*
X142847210Y-77271968D01*
X142847210Y-77271966D01*
X142774213Y-77145532D01*
X142774205Y-77145522D01*
X142670977Y-77042294D01*
X142670967Y-77042286D01*
X142544533Y-76969289D01*
X142527872Y-76964824D01*
X142403501Y-76931500D01*
X142257499Y-76931500D01*
X142116471Y-76969288D01*
X142116469Y-76969289D01*
X142108494Y-76971426D01*
X142108171Y-76970222D01*
X142071583Y-76977500D01*
X132496727Y-76977500D01*
X132433727Y-76960619D01*
X132421031Y-76953289D01*
X132421030Y-76953288D01*
X132421029Y-76953288D01*
X132280001Y-76915500D01*
X132133999Y-76915500D01*
X131992971Y-76953288D01*
X131992970Y-76953288D01*
X131992968Y-76953289D01*
X131980273Y-76960619D01*
X131917273Y-76977500D01*
X131207248Y-76977500D01*
X131174638Y-76973207D01*
X131130945Y-76961500D01*
X130997055Y-76961500D01*
X130997054Y-76961500D01*
X130953362Y-76973207D01*
X130920752Y-76977500D01*
X121320727Y-76977500D01*
X121257727Y-76960619D01*
X121245031Y-76953289D01*
X121245030Y-76953288D01*
X121245029Y-76953288D01*
X121104001Y-76915500D01*
X120957999Y-76915500D01*
X120898286Y-76931500D01*
X120816966Y-76953289D01*
X120690532Y-77026286D01*
X120690522Y-77026294D01*
X120587294Y-77129522D01*
X120587286Y-77129532D01*
X120514289Y-77255966D01*
X120514288Y-77255971D01*
X120476500Y-77396999D01*
X120476500Y-77543001D01*
X120509824Y-77667372D01*
X120514289Y-77684033D01*
X120587286Y-77810467D01*
X120587294Y-77810477D01*
X120665722Y-77888905D01*
X120699748Y-77951217D01*
X120694683Y-78022032D01*
X120665722Y-78067095D01*
X120587294Y-78145522D01*
X120587286Y-78145532D01*
X120514289Y-78271966D01*
X120514288Y-78271971D01*
X120476500Y-78412999D01*
X120476500Y-78559001D01*
X120490013Y-78609432D01*
X120514289Y-78700033D01*
X120587286Y-78826467D01*
X120587294Y-78826477D01*
X120665722Y-78904905D01*
X120699748Y-78967217D01*
X120694683Y-79038032D01*
X120665722Y-79083095D01*
X120587294Y-79161522D01*
X120587286Y-79161532D01*
X120514289Y-79287966D01*
X120514288Y-79287971D01*
X120476500Y-79428999D01*
X120476500Y-79575001D01*
X120496228Y-79648628D01*
X120514289Y-79716033D01*
X120587286Y-79842467D01*
X120587294Y-79842477D01*
X120690522Y-79945705D01*
X120690527Y-79945709D01*
X120690529Y-79945711D01*
X120690530Y-79945712D01*
X120690532Y-79945713D01*
X120816966Y-80018710D01*
X120816968Y-80018710D01*
X120816971Y-80018712D01*
X120957999Y-80056500D01*
X120958001Y-80056500D01*
X121104000Y-80056500D01*
X121104001Y-80056500D01*
X121133948Y-80048475D01*
X121140229Y-80046793D01*
X121172839Y-80042500D01*
X133126083Y-80042500D01*
X133162671Y-80049777D01*
X133162994Y-80048574D01*
X133170969Y-80050710D01*
X133170971Y-80050712D01*
X133311999Y-80088500D01*
X133312001Y-80088500D01*
X133457999Y-80088500D01*
X133458001Y-80088500D01*
X133599029Y-80050712D01*
X133599030Y-80050710D01*
X133607006Y-80048574D01*
X133607328Y-80049777D01*
X133643917Y-80042500D01*
X149535083Y-80042500D01*
X149603204Y-80062502D01*
X149649697Y-80116158D01*
X149659801Y-80186432D01*
X149630307Y-80251012D01*
X149592285Y-80280767D01*
X149515171Y-80320057D01*
X149515167Y-80320060D01*
X149481922Y-80344212D01*
X150153710Y-81016000D01*
X150124472Y-81016000D01*
X150027825Y-81041896D01*
X149941175Y-81091924D01*
X149870424Y-81162675D01*
X149820396Y-81249325D01*
X149794500Y-81345972D01*
X149794500Y-81375210D01*
X149122712Y-80703423D01*
X149098560Y-80736667D01*
X149098557Y-80736671D01*
X149008666Y-80913094D01*
X148947477Y-81101414D01*
X148916500Y-81296996D01*
X148916500Y-81495003D01*
X148947477Y-81690585D01*
X149008665Y-81878902D01*
X149079181Y-82017297D01*
X149092285Y-82087074D01*
X149065585Y-82152859D01*
X149007557Y-82193765D01*
X148966914Y-82200500D01*
X132270441Y-82200500D01*
X132207442Y-82183620D01*
X132167030Y-82160288D01*
X132093992Y-82140718D01*
X132026001Y-82122500D01*
X131879999Y-82122500D01*
X131812008Y-82140718D01*
X131738969Y-82160288D01*
X131698558Y-82183620D01*
X131635559Y-82200500D01*
X119178500Y-82200500D01*
X119110379Y-82180498D01*
X119063886Y-82126842D01*
X119052500Y-82074500D01*
X119052500Y-81650000D01*
X118077901Y-81650000D01*
X118098576Y-81629325D01*
X118148604Y-81542675D01*
X118174500Y-81446028D01*
X118174500Y-81345972D01*
X118148604Y-81249325D01*
X118098576Y-81162675D01*
X118077901Y-81142000D01*
X119052500Y-81142000D01*
X119052500Y-80597414D01*
X119052499Y-80597402D01*
X119045994Y-80536906D01*
X118994944Y-80400035D01*
X118994944Y-80400034D01*
X118907404Y-80283095D01*
X118790465Y-80195555D01*
X118653593Y-80144505D01*
X118593097Y-80138000D01*
X118048500Y-80138000D01*
X118048500Y-81112599D01*
X118027825Y-81091924D01*
X117941175Y-81041896D01*
X117844528Y-81016000D01*
X117744472Y-81016000D01*
X117647825Y-81041896D01*
X117561175Y-81091924D01*
X117540500Y-81112599D01*
X117540500Y-80138000D01*
X116995902Y-80138000D01*
X116935406Y-80144505D01*
X116798535Y-80195555D01*
X116798534Y-80195555D01*
X116681595Y-80283095D01*
X116594055Y-80400034D01*
X116594055Y-80400035D01*
X116543005Y-80536906D01*
X116536500Y-80597402D01*
X116536500Y-81142000D01*
X117511099Y-81142000D01*
X117490424Y-81162675D01*
X117440396Y-81249325D01*
X117414500Y-81345972D01*
X117414500Y-81446028D01*
X117440396Y-81542675D01*
X117490424Y-81629325D01*
X117511099Y-81650000D01*
X116536500Y-81650000D01*
X116536500Y-81704682D01*
X116530161Y-81726269D01*
X116528556Y-81748714D01*
X116520354Y-81759670D01*
X116516498Y-81772803D01*
X116499492Y-81787538D01*
X116486009Y-81805550D01*
X116473186Y-81810332D01*
X116462842Y-81819296D01*
X116440569Y-81822498D01*
X116419489Y-81830361D01*
X116406116Y-81827452D01*
X116392568Y-81829400D01*
X116372101Y-81820052D01*
X116350115Y-81815270D01*
X116332101Y-81801784D01*
X116327988Y-81799906D01*
X116321405Y-81793777D01*
X116267394Y-81739766D01*
X116233368Y-81677454D01*
X116232910Y-81626095D01*
X116259000Y-81494935D01*
X116259000Y-81297065D01*
X116220397Y-81102998D01*
X116144676Y-80920191D01*
X116034746Y-80755669D01*
X115894831Y-80615754D01*
X115730309Y-80505824D01*
X115623248Y-80461478D01*
X115547505Y-80430104D01*
X115547502Y-80430103D01*
X115353438Y-80391500D01*
X115353435Y-80391500D01*
X115155565Y-80391500D01*
X115155561Y-80391500D01*
X114961497Y-80430103D01*
X114961494Y-80430104D01*
X114778690Y-80505824D01*
X114614173Y-80615751D01*
X114614166Y-80615756D01*
X114474256Y-80755666D01*
X114474251Y-80755673D01*
X114364324Y-80920190D01*
X114288604Y-81102994D01*
X114288603Y-81102997D01*
X114250000Y-81297061D01*
X114250000Y-81494938D01*
X114288603Y-81689002D01*
X114288604Y-81689005D01*
X114323314Y-81772803D01*
X114364324Y-81871809D01*
X114474254Y-82036331D01*
X114614169Y-82176246D01*
X114778691Y-82286176D01*
X114961498Y-82361897D01*
X115155565Y-82400500D01*
X115353430Y-82400500D01*
X115353435Y-82400500D01*
X115401182Y-82391002D01*
X115471895Y-82397330D01*
X115514858Y-82425486D01*
X115991983Y-82902611D01*
X116026009Y-82964923D01*
X116020944Y-83035738D01*
X115978397Y-83092574D01*
X115972891Y-83096470D01*
X115884175Y-83155748D01*
X115884166Y-83155756D01*
X115744256Y-83295666D01*
X115744251Y-83295673D01*
X115634324Y-83460190D01*
X115558604Y-83642994D01*
X115558603Y-83642997D01*
X115520000Y-83837061D01*
X115520000Y-84034938D01*
X115550527Y-84188402D01*
X115558603Y-84229002D01*
X115634324Y-84411809D01*
X115744254Y-84576331D01*
X115884169Y-84716246D01*
X116048691Y-84826176D01*
X116231498Y-84901897D01*
X116425565Y-84940500D01*
X116623435Y-84940500D01*
X116817502Y-84901897D01*
X117000309Y-84826176D01*
X117164831Y-84716246D01*
X117304746Y-84576331D01*
X117414676Y-84411809D01*
X117490397Y-84229002D01*
X117529000Y-84034935D01*
X117529000Y-83837065D01*
X117490397Y-83642998D01*
X117414676Y-83460191D01*
X117383478Y-83413500D01*
X117362264Y-83345749D01*
X117381047Y-83277282D01*
X117433864Y-83229839D01*
X117488244Y-83217500D01*
X131811161Y-83217500D01*
X131843771Y-83221793D01*
X131851837Y-83223954D01*
X131879999Y-83231500D01*
X131880000Y-83231500D01*
X132026000Y-83231500D01*
X132026001Y-83231500D01*
X132055948Y-83223475D01*
X132062229Y-83221793D01*
X132094839Y-83217500D01*
X147940756Y-83217500D01*
X148008877Y-83237502D01*
X148055370Y-83291158D01*
X148065474Y-83361432D01*
X148045521Y-83413502D01*
X148014324Y-83460191D01*
X147938604Y-83642994D01*
X147938603Y-83642997D01*
X147900000Y-83837061D01*
X147900000Y-84034938D01*
X147930527Y-84188402D01*
X147938603Y-84229002D01*
X148014324Y-84411809D01*
X148124254Y-84576331D01*
X148264169Y-84716246D01*
X148316271Y-84751059D01*
X148335241Y-84763735D01*
X148380769Y-84818212D01*
X148389617Y-84888655D01*
X148358975Y-84952699D01*
X148298574Y-84990010D01*
X148265239Y-84994500D01*
X120669896Y-84994500D01*
X120522585Y-85023803D01*
X120522584Y-85023804D01*
X120383820Y-85081282D01*
X120258934Y-85164727D01*
X120258930Y-85164730D01*
X119168730Y-86254930D01*
X119168727Y-86254934D01*
X119085281Y-86379822D01*
X119027805Y-86518581D01*
X119027803Y-86518586D01*
X118998501Y-86665897D01*
X118998501Y-86816102D01*
X119027803Y-86963413D01*
X119027805Y-86963418D01*
X119085281Y-87102177D01*
X119168727Y-87227065D01*
X119168730Y-87227069D01*
X119274930Y-87333269D01*
X119274934Y-87333272D01*
X119372906Y-87398734D01*
X119418434Y-87453211D01*
X119427283Y-87523654D01*
X119396642Y-87587698D01*
X119336241Y-87625010D01*
X119302905Y-87629500D01*
X110174896Y-87629500D01*
X110027585Y-87658803D01*
X110027584Y-87658804D01*
X109946295Y-87692475D01*
X109915810Y-87705103D01*
X109888819Y-87716283D01*
X109763939Y-87799725D01*
X109763932Y-87799730D01*
X109657730Y-87905932D01*
X109657725Y-87905939D01*
X109574283Y-88030819D01*
X109516804Y-88169584D01*
X109516803Y-88169585D01*
X109487500Y-88316896D01*
X100500500Y-88316896D01*
X100500500Y-83837061D01*
X107900000Y-83837061D01*
X107900000Y-84034938D01*
X107930527Y-84188402D01*
X107938603Y-84229002D01*
X108014324Y-84411809D01*
X108124254Y-84576331D01*
X108264169Y-84716246D01*
X108428691Y-84826176D01*
X108611498Y-84901897D01*
X108805565Y-84940500D01*
X109003435Y-84940500D01*
X109197502Y-84901897D01*
X109380309Y-84826176D01*
X109544831Y-84716246D01*
X109684746Y-84576331D01*
X109794676Y-84411809D01*
X109870397Y-84229002D01*
X109909000Y-84034935D01*
X109909000Y-83837065D01*
X109908999Y-83837061D01*
X110440000Y-83837061D01*
X110440000Y-84034938D01*
X110470527Y-84188402D01*
X110478603Y-84229002D01*
X110554324Y-84411809D01*
X110664254Y-84576331D01*
X110804169Y-84716246D01*
X110968691Y-84826176D01*
X111151498Y-84901897D01*
X111345565Y-84940500D01*
X111543435Y-84940500D01*
X111737502Y-84901897D01*
X111920309Y-84826176D01*
X112084831Y-84716246D01*
X112224746Y-84576331D01*
X112334676Y-84411809D01*
X112410397Y-84229002D01*
X112449000Y-84034935D01*
X112449000Y-83837065D01*
X112448999Y-83837061D01*
X112980000Y-83837061D01*
X112980000Y-84034938D01*
X113010527Y-84188402D01*
X113018603Y-84229002D01*
X113094324Y-84411809D01*
X113204254Y-84576331D01*
X113344169Y-84716246D01*
X113508691Y-84826176D01*
X113691498Y-84901897D01*
X113885565Y-84940500D01*
X114083435Y-84940500D01*
X114277502Y-84901897D01*
X114460309Y-84826176D01*
X114624831Y-84716246D01*
X114764746Y-84576331D01*
X114874676Y-84411809D01*
X114950397Y-84229002D01*
X114989000Y-84034935D01*
X114989000Y-83837065D01*
X114950397Y-83642998D01*
X114874676Y-83460191D01*
X114764746Y-83295669D01*
X114624831Y-83155754D01*
X114460309Y-83045824D01*
X114363784Y-83005842D01*
X114277505Y-82970104D01*
X114277502Y-82970103D01*
X114083438Y-82931500D01*
X114083435Y-82931500D01*
X113885565Y-82931500D01*
X113885561Y-82931500D01*
X113691497Y-82970103D01*
X113691494Y-82970104D01*
X113508690Y-83045824D01*
X113344173Y-83155751D01*
X113344166Y-83155756D01*
X113204256Y-83295666D01*
X113204251Y-83295673D01*
X113094324Y-83460190D01*
X113018604Y-83642994D01*
X113018603Y-83642997D01*
X112980000Y-83837061D01*
X112448999Y-83837061D01*
X112410397Y-83642998D01*
X112334676Y-83460191D01*
X112224746Y-83295669D01*
X112084831Y-83155754D01*
X111920309Y-83045824D01*
X111823784Y-83005842D01*
X111737505Y-82970104D01*
X111737502Y-82970103D01*
X111543438Y-82931500D01*
X111543435Y-82931500D01*
X111345565Y-82931500D01*
X111345561Y-82931500D01*
X111151497Y-82970103D01*
X111151494Y-82970104D01*
X110968690Y-83045824D01*
X110804173Y-83155751D01*
X110804166Y-83155756D01*
X110664256Y-83295666D01*
X110664251Y-83295673D01*
X110554324Y-83460190D01*
X110478604Y-83642994D01*
X110478603Y-83642997D01*
X110440000Y-83837061D01*
X109908999Y-83837061D01*
X109870397Y-83642998D01*
X109794676Y-83460191D01*
X109684746Y-83295669D01*
X109544831Y-83155754D01*
X109380309Y-83045824D01*
X109283784Y-83005842D01*
X109197505Y-82970104D01*
X109197502Y-82970103D01*
X109003438Y-82931500D01*
X109003435Y-82931500D01*
X108805565Y-82931500D01*
X108805561Y-82931500D01*
X108611497Y-82970103D01*
X108611494Y-82970104D01*
X108428690Y-83045824D01*
X108264173Y-83155751D01*
X108264166Y-83155756D01*
X108124256Y-83295666D01*
X108124251Y-83295673D01*
X108014324Y-83460190D01*
X107938604Y-83642994D01*
X107938603Y-83642997D01*
X107900000Y-83837061D01*
X100500500Y-83837061D01*
X100500500Y-79881908D01*
X101499500Y-79881908D01*
X101499500Y-79934802D01*
X101499500Y-80118092D01*
X101536447Y-80351368D01*
X101609432Y-80575992D01*
X101700982Y-80755669D01*
X101716659Y-80786436D01*
X101855484Y-80977512D01*
X102022487Y-81144515D01*
X102022490Y-81144517D01*
X102213567Y-81283343D01*
X102424008Y-81390568D01*
X102648632Y-81463553D01*
X102881908Y-81500500D01*
X102881911Y-81500500D01*
X103118089Y-81500500D01*
X103118092Y-81500500D01*
X103351368Y-81463553D01*
X103575992Y-81390568D01*
X103759637Y-81296996D01*
X108916500Y-81296996D01*
X108916500Y-81495003D01*
X108947477Y-81690585D01*
X109008666Y-81878905D01*
X109098558Y-82055330D01*
X109122712Y-82088575D01*
X109794500Y-81416787D01*
X109794500Y-81446028D01*
X109820396Y-81542675D01*
X109870424Y-81629325D01*
X109941175Y-81700076D01*
X110027825Y-81750104D01*
X110124472Y-81776000D01*
X110153709Y-81776000D01*
X109481923Y-82447785D01*
X109481923Y-82447787D01*
X109515160Y-82471935D01*
X109691597Y-82561834D01*
X109879914Y-82623022D01*
X110075496Y-82654000D01*
X110273504Y-82654000D01*
X110469085Y-82623022D01*
X110657402Y-82561834D01*
X110833837Y-82471936D01*
X110833839Y-82471935D01*
X110867075Y-82447787D01*
X110867076Y-82447786D01*
X110195290Y-81776000D01*
X110224528Y-81776000D01*
X110321175Y-81750104D01*
X110407825Y-81700076D01*
X110478576Y-81629325D01*
X110528604Y-81542675D01*
X110554500Y-81446028D01*
X110554500Y-81416789D01*
X111226286Y-82088576D01*
X111226287Y-82088575D01*
X111250435Y-82055339D01*
X111250436Y-82055337D01*
X111340334Y-81878902D01*
X111401522Y-81690585D01*
X111432500Y-81495003D01*
X111432500Y-81297061D01*
X111710000Y-81297061D01*
X111710000Y-81494938D01*
X111748603Y-81689002D01*
X111748604Y-81689005D01*
X111783314Y-81772803D01*
X111824324Y-81871809D01*
X111934254Y-82036331D01*
X112074169Y-82176246D01*
X112238691Y-82286176D01*
X112421498Y-82361897D01*
X112615565Y-82400500D01*
X112813435Y-82400500D01*
X113007502Y-82361897D01*
X113190309Y-82286176D01*
X113354831Y-82176246D01*
X113494746Y-82036331D01*
X113604676Y-81871809D01*
X113680397Y-81689002D01*
X113719000Y-81494935D01*
X113719000Y-81297065D01*
X113680397Y-81102998D01*
X113604676Y-80920191D01*
X113494746Y-80755669D01*
X113354831Y-80615754D01*
X113190309Y-80505824D01*
X113105944Y-80470879D01*
X113007506Y-80430104D01*
X113005814Y-80429591D01*
X112979386Y-80418134D01*
X112860778Y-80349655D01*
X112860776Y-80349654D01*
X112860774Y-80349653D01*
X112731445Y-80315000D01*
X112597555Y-80315000D01*
X112468226Y-80349653D01*
X112468224Y-80349654D01*
X112468221Y-80349655D01*
X112352276Y-80416597D01*
X112297993Y-80470879D01*
X112257119Y-80498190D01*
X112238695Y-80505821D01*
X112238692Y-80505823D01*
X112074173Y-80615751D01*
X112074166Y-80615756D01*
X111934256Y-80755666D01*
X111934251Y-80755673D01*
X111824324Y-80920190D01*
X111748604Y-81102994D01*
X111748603Y-81102997D01*
X111710000Y-81297061D01*
X111432500Y-81297061D01*
X111432500Y-81297001D01*
X111432499Y-81296991D01*
X111401522Y-81101414D01*
X111340334Y-80913097D01*
X111250435Y-80736660D01*
X111226287Y-80703423D01*
X111226285Y-80703423D01*
X110554500Y-81375208D01*
X110554500Y-81345972D01*
X110528604Y-81249325D01*
X110478576Y-81162675D01*
X110407825Y-81091924D01*
X110321175Y-81041896D01*
X110224528Y-81016000D01*
X110195289Y-81016000D01*
X110867075Y-80344212D01*
X110833830Y-80320058D01*
X110657405Y-80230166D01*
X110469085Y-80168977D01*
X110273504Y-80138000D01*
X110075496Y-80138000D01*
X109879914Y-80168977D01*
X109691594Y-80230166D01*
X109515171Y-80320057D01*
X109515167Y-80320060D01*
X109481922Y-80344212D01*
X110153710Y-81016000D01*
X110124472Y-81016000D01*
X110027825Y-81041896D01*
X109941175Y-81091924D01*
X109870424Y-81162675D01*
X109820396Y-81249325D01*
X109794500Y-81345972D01*
X109794500Y-81375210D01*
X109122712Y-80703422D01*
X109098560Y-80736667D01*
X109098557Y-80736671D01*
X109008666Y-80913094D01*
X108947477Y-81101414D01*
X108916500Y-81296996D01*
X103759637Y-81296996D01*
X103786433Y-81283343D01*
X103977510Y-81144517D01*
X104144517Y-80977510D01*
X104283343Y-80786433D01*
X104390568Y-80575992D01*
X104463553Y-80351368D01*
X104500500Y-80118092D01*
X104500500Y-79881908D01*
X104463553Y-79648632D01*
X104390568Y-79424008D01*
X104283343Y-79213567D01*
X104144517Y-79022490D01*
X104144515Y-79022487D01*
X103977512Y-78855484D01*
X103786436Y-78716659D01*
X103786435Y-78716658D01*
X103786433Y-78716657D01*
X103575992Y-78609432D01*
X103351368Y-78536447D01*
X103118092Y-78499500D01*
X102881908Y-78499500D01*
X102648632Y-78536447D01*
X102648629Y-78536447D01*
X102648628Y-78536448D01*
X102424008Y-78609432D01*
X102424006Y-78609433D01*
X102213563Y-78716659D01*
X102022487Y-78855484D01*
X101855484Y-79022487D01*
X101716659Y-79213563D01*
X101609433Y-79424006D01*
X101609432Y-79424008D01*
X101597413Y-79461000D01*
X101536447Y-79648632D01*
X101499500Y-79881908D01*
X100500500Y-79881908D01*
X100500500Y-74924709D01*
X105784000Y-74924709D01*
X105784000Y-75167290D01*
X105815660Y-75407782D01*
X105878444Y-75642095D01*
X105878445Y-75642097D01*
X105878446Y-75642100D01*
X105971276Y-75866212D01*
X105971277Y-75866213D01*
X105971282Y-75866224D01*
X106092561Y-76076285D01*
X106092563Y-76076288D01*
X106092564Y-76076289D01*
X106240235Y-76268738D01*
X106240239Y-76268742D01*
X106240244Y-76268748D01*
X106411751Y-76440255D01*
X106411756Y-76440259D01*
X106411762Y-76440265D01*
X106604211Y-76587936D01*
X106604214Y-76587938D01*
X106814275Y-76709217D01*
X106814279Y-76709218D01*
X106814288Y-76709224D01*
X107038400Y-76802054D01*
X107272711Y-76864838D01*
X107272715Y-76864838D01*
X107272717Y-76864839D01*
X107334702Y-76872999D01*
X107513212Y-76896500D01*
X107513219Y-76896500D01*
X107755781Y-76896500D01*
X107755788Y-76896500D01*
X107973137Y-76867885D01*
X107996282Y-76864839D01*
X107996282Y-76864838D01*
X107996289Y-76864838D01*
X108230600Y-76802054D01*
X108454712Y-76709224D01*
X108664789Y-76587936D01*
X108857238Y-76440265D01*
X109028765Y-76268738D01*
X109176436Y-76076289D01*
X109297724Y-75866212D01*
X109390554Y-75642100D01*
X109453338Y-75407789D01*
X109485000Y-75167288D01*
X109485000Y-74924712D01*
X109485000Y-74924709D01*
X117214000Y-74924709D01*
X117214000Y-75167290D01*
X117245660Y-75407782D01*
X117308444Y-75642095D01*
X117308445Y-75642097D01*
X117308446Y-75642100D01*
X117401276Y-75866212D01*
X117401277Y-75866213D01*
X117401282Y-75866224D01*
X117522561Y-76076285D01*
X117522563Y-76076288D01*
X117522564Y-76076289D01*
X117670235Y-76268738D01*
X117670239Y-76268742D01*
X117670244Y-76268748D01*
X117841751Y-76440255D01*
X117841756Y-76440259D01*
X117841762Y-76440265D01*
X118034211Y-76587936D01*
X118034214Y-76587938D01*
X118244275Y-76709217D01*
X118244279Y-76709218D01*
X118244288Y-76709224D01*
X118468400Y-76802054D01*
X118702711Y-76864838D01*
X118702715Y-76864838D01*
X118702717Y-76864839D01*
X118764702Y-76872999D01*
X118943212Y-76896500D01*
X118943219Y-76896500D01*
X119185781Y-76896500D01*
X119185788Y-76896500D01*
X119403137Y-76867885D01*
X119426282Y-76864839D01*
X119426282Y-76864838D01*
X119426289Y-76864838D01*
X119660600Y-76802054D01*
X119884712Y-76709224D01*
X120094789Y-76587936D01*
X120287238Y-76440265D01*
X120458765Y-76268738D01*
X120606436Y-76076289D01*
X120727724Y-75866212D01*
X120820554Y-75642100D01*
X120883338Y-75407789D01*
X120915000Y-75167288D01*
X120915000Y-74924712D01*
X120915000Y-74924709D01*
X145784000Y-74924709D01*
X145784000Y-75167290D01*
X145815660Y-75407782D01*
X145878444Y-75642095D01*
X145878445Y-75642097D01*
X145878446Y-75642100D01*
X145971276Y-75866212D01*
X145971277Y-75866213D01*
X145971282Y-75866224D01*
X146092561Y-76076285D01*
X146092563Y-76076288D01*
X146092564Y-76076289D01*
X146240235Y-76268738D01*
X146240239Y-76268742D01*
X146240244Y-76268748D01*
X146411751Y-76440255D01*
X146411756Y-76440259D01*
X146411762Y-76440265D01*
X146604211Y-76587936D01*
X146604214Y-76587938D01*
X146814275Y-76709217D01*
X146814279Y-76709218D01*
X146814288Y-76709224D01*
X147038400Y-76802054D01*
X147272711Y-76864838D01*
X147272715Y-76864838D01*
X147272717Y-76864839D01*
X147334702Y-76872999D01*
X147513212Y-76896500D01*
X147513219Y-76896500D01*
X147755781Y-76896500D01*
X147755788Y-76896500D01*
X147973137Y-76867885D01*
X147996282Y-76864839D01*
X147996282Y-76864838D01*
X147996289Y-76864838D01*
X148230600Y-76802054D01*
X148454712Y-76709224D01*
X148664789Y-76587936D01*
X148857238Y-76440265D01*
X149028765Y-76268738D01*
X149176436Y-76076289D01*
X149297724Y-75866212D01*
X149390554Y-75642100D01*
X149453338Y-75407789D01*
X149485000Y-75167288D01*
X149485000Y-74924712D01*
X149485000Y-74924709D01*
X157214000Y-74924709D01*
X157214000Y-75167290D01*
X157245660Y-75407782D01*
X157308444Y-75642095D01*
X157308445Y-75642097D01*
X157308446Y-75642100D01*
X157401276Y-75866212D01*
X157401277Y-75866213D01*
X157401282Y-75866224D01*
X157522561Y-76076285D01*
X157522563Y-76076288D01*
X157522564Y-76076289D01*
X157670235Y-76268738D01*
X157670239Y-76268742D01*
X157670244Y-76268748D01*
X157841751Y-76440255D01*
X157841756Y-76440259D01*
X157841762Y-76440265D01*
X158034211Y-76587936D01*
X158034214Y-76587938D01*
X158244275Y-76709217D01*
X158244279Y-76709218D01*
X158244288Y-76709224D01*
X158468400Y-76802054D01*
X158702711Y-76864838D01*
X158702715Y-76864838D01*
X158702717Y-76864839D01*
X158764702Y-76872999D01*
X158943212Y-76896500D01*
X158943219Y-76896500D01*
X159185781Y-76896500D01*
X159185788Y-76896500D01*
X159403137Y-76867885D01*
X159426282Y-76864839D01*
X159426282Y-76864838D01*
X159426289Y-76864838D01*
X159660600Y-76802054D01*
X159884712Y-76709224D01*
X160094789Y-76587936D01*
X160287238Y-76440265D01*
X160458765Y-76268738D01*
X160606436Y-76076289D01*
X160727724Y-75866212D01*
X160820554Y-75642100D01*
X160883338Y-75407789D01*
X160915000Y-75167288D01*
X160915000Y-74924712D01*
X160883338Y-74684211D01*
X160820554Y-74449900D01*
X160727724Y-74225788D01*
X160727718Y-74225779D01*
X160727717Y-74225775D01*
X160606438Y-74015714D01*
X160606436Y-74015711D01*
X160458765Y-73823262D01*
X160458759Y-73823256D01*
X160458755Y-73823251D01*
X160287248Y-73651744D01*
X160287242Y-73651739D01*
X160287238Y-73651735D01*
X160094789Y-73504064D01*
X160094788Y-73504063D01*
X160094785Y-73504061D01*
X159884724Y-73382782D01*
X159884716Y-73382778D01*
X159884712Y-73382776D01*
X159660600Y-73289946D01*
X159660597Y-73289945D01*
X159660595Y-73289944D01*
X159426282Y-73227160D01*
X159185790Y-73195500D01*
X159185788Y-73195500D01*
X158943212Y-73195500D01*
X158943209Y-73195500D01*
X158702717Y-73227160D01*
X158468404Y-73289944D01*
X158468400Y-73289946D01*
X158244286Y-73382777D01*
X158244275Y-73382782D01*
X158034214Y-73504061D01*
X157841762Y-73651735D01*
X157841751Y-73651744D01*
X157670244Y-73823251D01*
X157670235Y-73823262D01*
X157522561Y-74015714D01*
X157401282Y-74225775D01*
X157401277Y-74225786D01*
X157308446Y-74449900D01*
X157308444Y-74449904D01*
X157245660Y-74684217D01*
X157214000Y-74924709D01*
X149485000Y-74924709D01*
X149453338Y-74684211D01*
X149390554Y-74449900D01*
X149297724Y-74225788D01*
X149297718Y-74225779D01*
X149297717Y-74225775D01*
X149176438Y-74015714D01*
X149176436Y-74015711D01*
X149028765Y-73823262D01*
X149028759Y-73823256D01*
X149028755Y-73823251D01*
X148857248Y-73651744D01*
X148857242Y-73651739D01*
X148857238Y-73651735D01*
X148664789Y-73504064D01*
X148664788Y-73504063D01*
X148664785Y-73504061D01*
X148454724Y-73382782D01*
X148454716Y-73382778D01*
X148454712Y-73382776D01*
X148230600Y-73289946D01*
X148230597Y-73289945D01*
X148230595Y-73289944D01*
X147996282Y-73227160D01*
X147755790Y-73195500D01*
X147755788Y-73195500D01*
X147513212Y-73195500D01*
X147513209Y-73195500D01*
X147272717Y-73227160D01*
X147038404Y-73289944D01*
X147038400Y-73289946D01*
X146814286Y-73382777D01*
X146814275Y-73382782D01*
X146604214Y-73504061D01*
X146411762Y-73651735D01*
X146411751Y-73651744D01*
X146240244Y-73823251D01*
X146240235Y-73823262D01*
X146092561Y-74015714D01*
X145971282Y-74225775D01*
X145971277Y-74225786D01*
X145878446Y-74449900D01*
X145878444Y-74449904D01*
X145815660Y-74684217D01*
X145784000Y-74924709D01*
X120915000Y-74924709D01*
X120883338Y-74684211D01*
X120820554Y-74449900D01*
X120727724Y-74225788D01*
X120727718Y-74225779D01*
X120727717Y-74225775D01*
X120606438Y-74015714D01*
X120606436Y-74015711D01*
X120458765Y-73823262D01*
X120458759Y-73823256D01*
X120458755Y-73823251D01*
X120287248Y-73651744D01*
X120287242Y-73651739D01*
X120287238Y-73651735D01*
X120094789Y-73504064D01*
X120094788Y-73504063D01*
X120094785Y-73504061D01*
X119884724Y-73382782D01*
X119884716Y-73382778D01*
X119884712Y-73382776D01*
X119660600Y-73289946D01*
X119660597Y-73289945D01*
X119660595Y-73289944D01*
X119426282Y-73227160D01*
X119185790Y-73195500D01*
X119185788Y-73195500D01*
X118943212Y-73195500D01*
X118943209Y-73195500D01*
X118702717Y-73227160D01*
X118468404Y-73289944D01*
X118468400Y-73289946D01*
X118244286Y-73382777D01*
X118244275Y-73382782D01*
X118034214Y-73504061D01*
X117841762Y-73651735D01*
X117841751Y-73651744D01*
X117670244Y-73823251D01*
X117670235Y-73823262D01*
X117522561Y-74015714D01*
X117401282Y-74225775D01*
X117401277Y-74225786D01*
X117308446Y-74449900D01*
X117308444Y-74449904D01*
X117245660Y-74684217D01*
X117214000Y-74924709D01*
X109485000Y-74924709D01*
X109453338Y-74684211D01*
X109390554Y-74449900D01*
X109297724Y-74225788D01*
X109297718Y-74225779D01*
X109297717Y-74225775D01*
X109176438Y-74015714D01*
X109176436Y-74015711D01*
X109028765Y-73823262D01*
X109028759Y-73823256D01*
X109028755Y-73823251D01*
X108857248Y-73651744D01*
X108857242Y-73651739D01*
X108857238Y-73651735D01*
X108664789Y-73504064D01*
X108664788Y-73504063D01*
X108664785Y-73504061D01*
X108454724Y-73382782D01*
X108454716Y-73382778D01*
X108454712Y-73382776D01*
X108230600Y-73289946D01*
X108230597Y-73289945D01*
X108230595Y-73289944D01*
X107996282Y-73227160D01*
X107755790Y-73195500D01*
X107755788Y-73195500D01*
X107513212Y-73195500D01*
X107513209Y-73195500D01*
X107272717Y-73227160D01*
X107038404Y-73289944D01*
X107038400Y-73289946D01*
X106814286Y-73382777D01*
X106814275Y-73382782D01*
X106604214Y-73504061D01*
X106411762Y-73651735D01*
X106411751Y-73651744D01*
X106240244Y-73823251D01*
X106240235Y-73823262D01*
X106092561Y-74015714D01*
X105971282Y-74225775D01*
X105971277Y-74225786D01*
X105878446Y-74449900D01*
X105878444Y-74449904D01*
X105815660Y-74684217D01*
X105784000Y-74924709D01*
X100500500Y-74924709D01*
X100500500Y-68881908D01*
X101499500Y-68881908D01*
X101499500Y-68934802D01*
X101499500Y-69118092D01*
X101536447Y-69351368D01*
X101609432Y-69575992D01*
X101609433Y-69575993D01*
X101716659Y-69786436D01*
X101855484Y-69977512D01*
X102022487Y-70144515D01*
X102022490Y-70144517D01*
X102213567Y-70283343D01*
X102424008Y-70390568D01*
X102648632Y-70463553D01*
X102881908Y-70500500D01*
X102881911Y-70500500D01*
X103118089Y-70500500D01*
X103118092Y-70500500D01*
X103351368Y-70463553D01*
X103575992Y-70390568D01*
X103786433Y-70283343D01*
X103977510Y-70144517D01*
X104144517Y-69977510D01*
X104283343Y-69786433D01*
X104390568Y-69575992D01*
X104463553Y-69351368D01*
X104500500Y-69118092D01*
X104500500Y-68881908D01*
X163499500Y-68881908D01*
X163499500Y-68934802D01*
X163499500Y-69118092D01*
X163536447Y-69351368D01*
X163609432Y-69575992D01*
X163609433Y-69575993D01*
X163716659Y-69786436D01*
X163855484Y-69977512D01*
X164022487Y-70144515D01*
X164022490Y-70144517D01*
X164213567Y-70283343D01*
X164424008Y-70390568D01*
X164648632Y-70463553D01*
X164881908Y-70500500D01*
X164881911Y-70500500D01*
X165118089Y-70500500D01*
X165118092Y-70500500D01*
X165351368Y-70463553D01*
X165575992Y-70390568D01*
X165786433Y-70283343D01*
X165977510Y-70144517D01*
X166144517Y-69977510D01*
X166283343Y-69786433D01*
X166390568Y-69575992D01*
X166463553Y-69351368D01*
X166500500Y-69118092D01*
X166500500Y-68881908D01*
X166463553Y-68648632D01*
X166390568Y-68424008D01*
X166283343Y-68213567D01*
X166144517Y-68022490D01*
X166144515Y-68022487D01*
X165977512Y-67855484D01*
X165786436Y-67716659D01*
X165786435Y-67716658D01*
X165786433Y-67716657D01*
X165575992Y-67609432D01*
X165351368Y-67536447D01*
X165118092Y-67499500D01*
X164881908Y-67499500D01*
X164648632Y-67536447D01*
X164648629Y-67536447D01*
X164648628Y-67536448D01*
X164424008Y-67609432D01*
X164424006Y-67609433D01*
X164213563Y-67716659D01*
X164022487Y-67855484D01*
X163855484Y-68022487D01*
X163716659Y-68213563D01*
X163716657Y-68213567D01*
X163609432Y-68424008D01*
X163536447Y-68648632D01*
X163499500Y-68881908D01*
X104500500Y-68881908D01*
X104463553Y-68648632D01*
X104390568Y-68424008D01*
X104283343Y-68213567D01*
X104144517Y-68022490D01*
X104144515Y-68022487D01*
X103977512Y-67855484D01*
X103786436Y-67716659D01*
X103786435Y-67716658D01*
X103786433Y-67716657D01*
X103575992Y-67609432D01*
X103351368Y-67536447D01*
X103118092Y-67499500D01*
X102881908Y-67499500D01*
X102648632Y-67536447D01*
X102648629Y-67536447D01*
X102648628Y-67536448D01*
X102424008Y-67609432D01*
X102424006Y-67609433D01*
X102213563Y-67716659D01*
X102022487Y-67855484D01*
X101855484Y-68022487D01*
X101716659Y-68213563D01*
X101716657Y-68213567D01*
X101609432Y-68424008D01*
X101536447Y-68648632D01*
X101499500Y-68881908D01*
X100500500Y-68881908D01*
X100500500Y-66626500D01*
X100520502Y-66558379D01*
X100574158Y-66511886D01*
X100626500Y-66500500D01*
X167373500Y-66500500D01*
X167441621Y-66520502D01*
G37*
G04 #@! TD.AperFunction*
M02*
