%TF.GenerationSoftware,KiCad,Pcbnew,8.0.4*%
%TF.CreationDate,2024-08-22T22:47:01+01:00*%
%TF.ProjectId,PicoChainATtiny85,5069636f-4368-4616-996e-415474696e79,v1.1*%
%TF.SameCoordinates,Original*%
%TF.FileFunction,Legend,Bot*%
%TF.FilePolarity,Positive*%
%FSLAX46Y46*%
G04 Gerber Fmt 4.6, Leading zero omitted, Abs format (unit mm)*
G04 Created by KiCad (PCBNEW 8.0.4) date 2024-08-22 22:47:01*
%MOMM*%
%LPD*%
G01*
G04 APERTURE LIST*
%ADD10C,0.000000*%
%ADD11C,0.300000*%
%ADD12C,0.093750*%
%ADD13C,0.062500*%
G04 APERTURE END LIST*
D10*
G36*
X149204525Y-98268895D02*
G01*
X149213739Y-98269555D01*
X149222762Y-98270654D01*
X149231586Y-98272192D01*
X149240202Y-98274170D01*
X149248601Y-98276587D01*
X149256776Y-98279443D01*
X149264717Y-98282738D01*
X149272417Y-98286473D01*
X149279867Y-98290646D01*
X149287059Y-98295258D01*
X149293984Y-98300309D01*
X149300633Y-98305799D01*
X149307000Y-98311727D01*
X149313074Y-98318094D01*
X149318847Y-98324900D01*
X149320700Y-98324900D01*
X149320700Y-98274311D01*
X149416294Y-98274311D01*
X149416294Y-98749371D01*
X149320700Y-98749371D01*
X149320700Y-98463594D01*
X149320567Y-98457208D01*
X149320173Y-98451051D01*
X149319527Y-98445121D01*
X149318637Y-98439416D01*
X149317511Y-98433936D01*
X149316157Y-98428677D01*
X149314583Y-98423639D01*
X149312799Y-98418819D01*
X149310811Y-98414216D01*
X149308628Y-98409829D01*
X149306259Y-98405655D01*
X149303711Y-98401693D01*
X149300993Y-98397940D01*
X149298113Y-98394396D01*
X149295079Y-98391059D01*
X149291900Y-98387927D01*
X149288583Y-98384998D01*
X149285137Y-98382270D01*
X149281571Y-98379742D01*
X149277891Y-98377412D01*
X149274107Y-98375278D01*
X149270227Y-98373339D01*
X149266259Y-98371592D01*
X149262210Y-98370037D01*
X149253908Y-98367493D01*
X149245384Y-98365693D01*
X149236705Y-98364623D01*
X149227937Y-98364270D01*
X149223459Y-98364347D01*
X149219158Y-98364585D01*
X149215011Y-98364986D01*
X149210998Y-98365558D01*
X149207095Y-98366306D01*
X149203281Y-98367235D01*
X149199533Y-98368350D01*
X149195830Y-98369657D01*
X149192149Y-98371162D01*
X149188468Y-98372870D01*
X149184765Y-98374786D01*
X149181019Y-98376917D01*
X149177206Y-98379266D01*
X149173306Y-98381840D01*
X149169295Y-98384645D01*
X149165151Y-98387685D01*
X149095804Y-98305215D01*
X149101293Y-98301098D01*
X149106851Y-98297188D01*
X149112483Y-98293491D01*
X149118196Y-98290018D01*
X149123994Y-98286774D01*
X149129884Y-98283770D01*
X149135872Y-98281013D01*
X149141964Y-98278511D01*
X149148165Y-98276273D01*
X149154481Y-98274307D01*
X149160919Y-98272620D01*
X149167483Y-98271222D01*
X149174180Y-98270120D01*
X149181017Y-98269323D01*
X149187997Y-98268839D01*
X149195128Y-98268676D01*
X149204525Y-98268895D01*
G37*
G36*
X151260100Y-98268895D02*
G01*
X151269313Y-98269555D01*
X151278334Y-98270654D01*
X151287156Y-98272192D01*
X151295769Y-98274170D01*
X151304166Y-98276587D01*
X151312337Y-98279443D01*
X151320275Y-98282738D01*
X151327971Y-98286473D01*
X151335417Y-98290646D01*
X151342605Y-98295258D01*
X151349525Y-98300309D01*
X151356170Y-98305799D01*
X151362531Y-98311727D01*
X151368601Y-98318094D01*
X151374369Y-98324900D01*
X151376274Y-98324900D01*
X151376274Y-98274311D01*
X151471842Y-98274311D01*
X151471842Y-98749371D01*
X151376274Y-98749371D01*
X151376274Y-98466452D01*
X151376157Y-98460467D01*
X151375809Y-98454644D01*
X151375233Y-98448984D01*
X151374437Y-98443489D01*
X151373423Y-98438161D01*
X151372197Y-98433002D01*
X151370764Y-98428014D01*
X151369129Y-98423199D01*
X151367296Y-98418558D01*
X151365270Y-98414093D01*
X151363056Y-98409807D01*
X151360659Y-98405701D01*
X151358083Y-98401777D01*
X151355333Y-98398036D01*
X151352415Y-98394482D01*
X151349333Y-98391115D01*
X151346092Y-98387938D01*
X151342696Y-98384952D01*
X151339150Y-98382159D01*
X151335460Y-98379562D01*
X151331630Y-98377161D01*
X151327665Y-98374960D01*
X151323569Y-98372959D01*
X151319348Y-98371161D01*
X151315005Y-98369567D01*
X151310547Y-98368180D01*
X151305978Y-98367001D01*
X151301303Y-98366033D01*
X151296525Y-98365276D01*
X151291652Y-98364733D01*
X151286686Y-98364406D01*
X151281633Y-98364296D01*
X151276664Y-98364406D01*
X151271777Y-98364733D01*
X151266977Y-98365276D01*
X151262269Y-98366033D01*
X151257657Y-98367001D01*
X151253148Y-98368180D01*
X151248745Y-98369568D01*
X151244453Y-98371161D01*
X151240279Y-98372959D01*
X151236226Y-98374960D01*
X151232300Y-98377162D01*
X151228505Y-98379562D01*
X151224847Y-98382160D01*
X151221331Y-98384952D01*
X151217961Y-98387938D01*
X151214743Y-98391115D01*
X151211681Y-98394482D01*
X151208781Y-98398037D01*
X151206047Y-98401777D01*
X151203484Y-98405701D01*
X151201098Y-98409807D01*
X151198894Y-98414093D01*
X151196875Y-98418558D01*
X151195048Y-98423199D01*
X151193418Y-98428014D01*
X151191988Y-98433003D01*
X151190765Y-98438162D01*
X151189753Y-98443489D01*
X151188958Y-98448984D01*
X151188383Y-98454644D01*
X151188035Y-98460467D01*
X151187917Y-98466452D01*
X151187917Y-98749371D01*
X151092350Y-98749371D01*
X151092350Y-98433617D01*
X151092594Y-98423660D01*
X151093315Y-98414001D01*
X151094495Y-98404641D01*
X151096118Y-98395582D01*
X151098165Y-98386823D01*
X151100620Y-98378368D01*
X151103464Y-98370217D01*
X151106682Y-98362370D01*
X151110255Y-98354830D01*
X151114166Y-98347597D01*
X151118399Y-98340673D01*
X151122934Y-98334059D01*
X151127756Y-98327756D01*
X151132847Y-98321765D01*
X151138189Y-98316087D01*
X151143765Y-98310724D01*
X151149558Y-98305677D01*
X151155551Y-98300947D01*
X151161726Y-98296535D01*
X151168066Y-98292443D01*
X151174554Y-98288670D01*
X151181172Y-98285220D01*
X151187902Y-98282093D01*
X151194729Y-98279290D01*
X151208599Y-98274660D01*
X151222644Y-98271342D01*
X151236725Y-98269344D01*
X151243736Y-98268843D01*
X151250703Y-98268676D01*
X151260100Y-98268895D01*
G37*
G36*
X150644452Y-98269310D02*
G01*
X150662334Y-98271051D01*
X150679511Y-98273948D01*
X150695905Y-98277996D01*
X150711437Y-98283193D01*
X150718855Y-98286220D01*
X150726029Y-98289532D01*
X150732948Y-98293129D01*
X150739602Y-98297011D01*
X150745982Y-98301176D01*
X150752079Y-98305625D01*
X150757882Y-98310356D01*
X150763381Y-98315370D01*
X150768567Y-98320665D01*
X150773430Y-98326242D01*
X150777960Y-98332099D01*
X150782148Y-98338237D01*
X150785983Y-98344654D01*
X150789456Y-98351350D01*
X150792557Y-98358325D01*
X150795276Y-98365579D01*
X150797604Y-98373110D01*
X150799531Y-98380918D01*
X150801046Y-98389002D01*
X150802140Y-98397363D01*
X150802804Y-98405999D01*
X150803028Y-98414911D01*
X150802859Y-98422449D01*
X150802356Y-98429783D01*
X150801527Y-98436913D01*
X150800378Y-98443837D01*
X150798915Y-98450553D01*
X150797147Y-98457062D01*
X150795080Y-98463362D01*
X150792720Y-98469451D01*
X150790074Y-98475330D01*
X150787151Y-98480996D01*
X150783955Y-98486449D01*
X150780494Y-98491687D01*
X150776776Y-98496711D01*
X150772806Y-98501518D01*
X150768592Y-98506107D01*
X150764141Y-98510478D01*
X150759459Y-98514630D01*
X150754553Y-98518561D01*
X150749431Y-98522270D01*
X150744099Y-98525757D01*
X150738563Y-98529020D01*
X150732832Y-98532058D01*
X150726911Y-98534870D01*
X150720808Y-98537456D01*
X150714529Y-98539813D01*
X150708081Y-98541942D01*
X150701472Y-98543841D01*
X150694708Y-98545509D01*
X150680742Y-98548147D01*
X150666238Y-98549848D01*
X150581889Y-98557336D01*
X150575826Y-98557950D01*
X150569965Y-98558764D01*
X150564334Y-98559801D01*
X150558958Y-98561086D01*
X150553864Y-98562640D01*
X150549076Y-98564488D01*
X150544621Y-98566653D01*
X150542526Y-98567861D01*
X150540525Y-98569157D01*
X150538619Y-98570543D01*
X150536813Y-98572023D01*
X150535110Y-98573600D01*
X150533513Y-98575276D01*
X150532025Y-98577054D01*
X150530649Y-98578937D01*
X150529389Y-98580929D01*
X150528248Y-98583031D01*
X150527228Y-98585248D01*
X150526335Y-98587581D01*
X150525570Y-98590034D01*
X150524936Y-98592609D01*
X150524438Y-98595310D01*
X150524078Y-98598139D01*
X150523860Y-98601099D01*
X150523786Y-98604194D01*
X150523901Y-98607914D01*
X150524242Y-98611518D01*
X150524805Y-98615007D01*
X150525585Y-98618379D01*
X150526579Y-98621636D01*
X150527780Y-98624776D01*
X150529186Y-98627799D01*
X150530791Y-98630706D01*
X150532591Y-98633496D01*
X150534582Y-98636170D01*
X150536758Y-98638726D01*
X150539116Y-98641165D01*
X150541651Y-98643486D01*
X150544359Y-98645690D01*
X150547235Y-98647777D01*
X150550275Y-98649745D01*
X150553473Y-98651595D01*
X150556826Y-98653327D01*
X150560330Y-98654941D01*
X150563979Y-98656436D01*
X150567769Y-98657813D01*
X150571697Y-98659070D01*
X150575756Y-98660209D01*
X150579943Y-98661228D01*
X150584253Y-98662128D01*
X150588683Y-98662909D01*
X150593226Y-98663570D01*
X150597880Y-98664111D01*
X150602638Y-98664532D01*
X150607498Y-98664833D01*
X150612454Y-98665014D01*
X150617502Y-98665074D01*
X150629232Y-98664833D01*
X150640545Y-98664112D01*
X150651463Y-98662911D01*
X150662007Y-98661232D01*
X150672201Y-98659076D01*
X150682064Y-98656443D01*
X150691621Y-98653336D01*
X150700892Y-98649755D01*
X150709899Y-98645702D01*
X150718665Y-98641177D01*
X150727211Y-98636182D01*
X150735560Y-98630718D01*
X150743732Y-98624786D01*
X150751751Y-98618387D01*
X150759638Y-98611523D01*
X150767415Y-98604194D01*
X150833931Y-98669757D01*
X150822391Y-98680133D01*
X150810617Y-98689830D01*
X150798614Y-98698849D01*
X150786390Y-98707192D01*
X150773951Y-98714860D01*
X150761306Y-98721854D01*
X150748460Y-98728176D01*
X150735420Y-98733826D01*
X150722194Y-98738807D01*
X150708788Y-98743120D01*
X150695209Y-98746765D01*
X150681464Y-98749745D01*
X150667560Y-98752060D01*
X150653504Y-98753713D01*
X150639303Y-98754703D01*
X150624963Y-98755033D01*
X150604532Y-98754410D01*
X150584763Y-98752557D01*
X150565746Y-98749494D01*
X150547571Y-98745240D01*
X150530331Y-98739817D01*
X150514114Y-98733246D01*
X150499012Y-98725546D01*
X150491907Y-98721279D01*
X150485115Y-98716738D01*
X150478646Y-98711925D01*
X150472513Y-98706842D01*
X150466727Y-98701493D01*
X150461298Y-98695880D01*
X150456239Y-98690005D01*
X150451560Y-98683872D01*
X150447273Y-98677481D01*
X150443389Y-98670837D01*
X150439920Y-98663942D01*
X150436877Y-98656797D01*
X150434271Y-98649407D01*
X150432113Y-98641773D01*
X150430415Y-98633898D01*
X150429188Y-98625784D01*
X150428443Y-98617434D01*
X150428193Y-98608851D01*
X150428658Y-98594823D01*
X150430074Y-98581221D01*
X150432470Y-98568101D01*
X150434044Y-98561739D01*
X150435874Y-98555518D01*
X150437963Y-98549445D01*
X150440315Y-98543526D01*
X150442934Y-98537770D01*
X150445823Y-98532181D01*
X150448986Y-98526769D01*
X150452427Y-98521539D01*
X150456148Y-98516498D01*
X150460154Y-98511653D01*
X150464449Y-98507011D01*
X150469036Y-98502579D01*
X150473918Y-98498364D01*
X150479099Y-98494372D01*
X150484584Y-98490611D01*
X150490374Y-98487088D01*
X150496475Y-98483809D01*
X150502890Y-98480781D01*
X150509622Y-98478011D01*
X150516674Y-98475506D01*
X150524052Y-98473273D01*
X150531758Y-98471318D01*
X150539795Y-98469649D01*
X150548168Y-98468273D01*
X150556880Y-98467196D01*
X150565935Y-98466426D01*
X150644648Y-98460843D01*
X150653228Y-98459940D01*
X150661064Y-98458668D01*
X150668184Y-98457051D01*
X150674613Y-98455113D01*
X150680378Y-98452879D01*
X150683019Y-98451659D01*
X150685505Y-98450375D01*
X150687837Y-98449028D01*
X150690019Y-98447623D01*
X150692054Y-98446163D01*
X150693947Y-98444650D01*
X150695699Y-98443088D01*
X150697315Y-98441480D01*
X150700149Y-98438137D01*
X150702476Y-98434647D01*
X150704321Y-98431033D01*
X150705711Y-98427320D01*
X150706671Y-98423533D01*
X150707228Y-98419698D01*
X150707408Y-98415837D01*
X150707347Y-98412791D01*
X150707161Y-98409797D01*
X150706848Y-98406858D01*
X150706403Y-98403977D01*
X150705823Y-98401157D01*
X150705104Y-98398400D01*
X150704243Y-98395710D01*
X150703236Y-98393089D01*
X150702079Y-98390541D01*
X150700769Y-98388068D01*
X150699303Y-98385673D01*
X150697676Y-98383360D01*
X150695885Y-98381131D01*
X150693926Y-98378989D01*
X150691797Y-98376938D01*
X150689492Y-98374979D01*
X150687009Y-98373116D01*
X150684344Y-98371352D01*
X150681494Y-98369690D01*
X150678455Y-98368133D01*
X150675222Y-98366684D01*
X150671794Y-98365345D01*
X150668165Y-98364119D01*
X150664333Y-98363011D01*
X150660294Y-98362021D01*
X150656044Y-98361154D01*
X150651579Y-98360413D01*
X150646897Y-98359799D01*
X150641993Y-98359317D01*
X150636864Y-98358969D01*
X150631506Y-98358758D01*
X150625916Y-98358687D01*
X150616398Y-98358894D01*
X150607170Y-98359505D01*
X150598213Y-98360506D01*
X150589511Y-98361883D01*
X150581046Y-98363623D01*
X150572799Y-98365711D01*
X150564753Y-98368134D01*
X150556889Y-98370878D01*
X150549192Y-98373929D01*
X150541641Y-98377272D01*
X150534221Y-98380896D01*
X150526912Y-98384784D01*
X150519697Y-98388924D01*
X150512559Y-98393302D01*
X150505479Y-98397903D01*
X150498440Y-98402714D01*
X150439437Y-98333419D01*
X150448337Y-98326205D01*
X150457482Y-98319336D01*
X150466898Y-98312830D01*
X150476612Y-98306702D01*
X150486649Y-98300970D01*
X150497037Y-98295649D01*
X150507801Y-98290757D01*
X150518968Y-98286310D01*
X150530563Y-98282324D01*
X150542614Y-98278816D01*
X150555146Y-98275803D01*
X150568185Y-98273300D01*
X150581758Y-98271325D01*
X150595891Y-98269894D01*
X150610610Y-98269023D01*
X150625942Y-98268729D01*
X150644452Y-98269310D01*
G37*
G36*
X150373670Y-98529997D02*
G01*
X150373130Y-98547191D01*
X150372220Y-98563082D01*
X150370928Y-98577764D01*
X150369247Y-98591333D01*
X150367165Y-98603882D01*
X150364675Y-98615506D01*
X150361766Y-98626300D01*
X150358428Y-98636358D01*
X150354653Y-98645776D01*
X150350431Y-98654648D01*
X150345752Y-98663068D01*
X150340607Y-98671131D01*
X150334987Y-98678932D01*
X150328881Y-98686565D01*
X150322280Y-98694126D01*
X150317148Y-98699597D01*
X150311580Y-98705083D01*
X150305561Y-98710532D01*
X150299071Y-98715894D01*
X150292093Y-98721119D01*
X150284609Y-98726155D01*
X150276600Y-98730953D01*
X150268051Y-98735460D01*
X150263567Y-98737589D01*
X150258941Y-98739627D01*
X150254171Y-98741567D01*
X150249254Y-98743403D01*
X150244188Y-98745129D01*
X150238971Y-98746737D01*
X150233601Y-98748223D01*
X150228076Y-98749579D01*
X150222392Y-98750799D01*
X150216549Y-98751877D01*
X150210543Y-98752807D01*
X150204373Y-98753582D01*
X150198036Y-98754195D01*
X150191530Y-98754642D01*
X150184853Y-98754914D01*
X150178003Y-98755006D01*
X150164466Y-98754642D01*
X150151615Y-98753582D01*
X150139432Y-98751877D01*
X150127899Y-98749579D01*
X150116999Y-98746737D01*
X150106712Y-98743403D01*
X150097021Y-98739627D01*
X150087909Y-98735460D01*
X150079357Y-98730952D01*
X150071347Y-98726155D01*
X150063862Y-98721119D01*
X150056883Y-98715894D01*
X150050392Y-98710532D01*
X150044372Y-98705082D01*
X150038805Y-98699597D01*
X150033672Y-98694126D01*
X150027073Y-98686565D01*
X150020968Y-98678931D01*
X150015350Y-98671129D01*
X150010209Y-98663064D01*
X150005534Y-98654643D01*
X150001316Y-98645769D01*
X149997546Y-98636350D01*
X149994213Y-98626290D01*
X149991309Y-98615495D01*
X149988823Y-98603870D01*
X149986747Y-98591321D01*
X149985069Y-98577753D01*
X149983781Y-98563072D01*
X149982873Y-98547184D01*
X149982335Y-98529992D01*
X149982167Y-98512331D01*
X150077752Y-98512331D01*
X150078027Y-98535768D01*
X150078385Y-98545945D01*
X150078903Y-98555205D01*
X150079591Y-98563630D01*
X150080459Y-98571301D01*
X150081516Y-98578303D01*
X150082773Y-98584717D01*
X150084238Y-98590626D01*
X150085922Y-98596113D01*
X150087835Y-98601259D01*
X150089986Y-98606148D01*
X150092385Y-98610862D01*
X150095042Y-98615483D01*
X150097966Y-98620095D01*
X150101168Y-98624778D01*
X150102531Y-98626610D01*
X150103986Y-98628412D01*
X150107158Y-98631921D01*
X150110664Y-98635289D01*
X150114487Y-98638503D01*
X150118606Y-98641546D01*
X150123002Y-98644404D01*
X150127657Y-98647062D01*
X150132551Y-98649504D01*
X150137664Y-98651715D01*
X150142979Y-98653681D01*
X150148474Y-98655385D01*
X150154132Y-98656814D01*
X150159933Y-98657951D01*
X150165858Y-98658782D01*
X150171888Y-98659292D01*
X150178003Y-98659465D01*
X150184109Y-98659292D01*
X150190133Y-98658783D01*
X150196053Y-98657954D01*
X150201851Y-98656818D01*
X150207507Y-98655391D01*
X150213001Y-98653688D01*
X150218315Y-98651724D01*
X150223429Y-98649514D01*
X150228322Y-98647073D01*
X150232977Y-98644416D01*
X150237372Y-98641558D01*
X150241489Y-98638514D01*
X150245309Y-98635299D01*
X150248811Y-98631928D01*
X150251976Y-98628416D01*
X150254785Y-98624778D01*
X150257987Y-98620094D01*
X150260913Y-98615481D01*
X150263573Y-98610856D01*
X150265975Y-98606133D01*
X150268130Y-98601231D01*
X150270047Y-98596064D01*
X150271736Y-98590549D01*
X150273207Y-98584601D01*
X150274468Y-98578138D01*
X150275530Y-98571075D01*
X150276402Y-98563329D01*
X150277094Y-98554814D01*
X150277616Y-98545449D01*
X150277977Y-98535148D01*
X150278186Y-98523828D01*
X150278254Y-98511404D01*
X150277977Y-98487965D01*
X150277616Y-98477785D01*
X150277094Y-98468523D01*
X150276402Y-98460095D01*
X150275530Y-98452420D01*
X150274468Y-98445415D01*
X150273207Y-98438998D01*
X150271736Y-98433087D01*
X150270047Y-98427599D01*
X150268130Y-98422452D01*
X150265975Y-98417564D01*
X150263573Y-98412853D01*
X150260913Y-98408236D01*
X150257987Y-98403631D01*
X150254785Y-98398956D01*
X150253426Y-98397125D01*
X150251976Y-98395323D01*
X150248811Y-98391814D01*
X150245309Y-98388445D01*
X150241489Y-98385232D01*
X150237372Y-98382189D01*
X150232977Y-98379331D01*
X150228322Y-98376673D01*
X150223429Y-98374231D01*
X150218315Y-98372020D01*
X150213001Y-98370054D01*
X150207507Y-98368350D01*
X150201851Y-98366921D01*
X150196053Y-98365784D01*
X150190133Y-98364952D01*
X150184109Y-98364443D01*
X150178003Y-98364269D01*
X150171888Y-98364442D01*
X150165858Y-98364951D01*
X150159933Y-98365781D01*
X150154132Y-98366917D01*
X150148474Y-98368344D01*
X150142979Y-98370047D01*
X150137664Y-98372011D01*
X150132551Y-98374221D01*
X150127657Y-98376662D01*
X150123002Y-98379319D01*
X150118606Y-98382177D01*
X150114487Y-98385221D01*
X150110664Y-98388436D01*
X150107158Y-98391806D01*
X150103986Y-98395318D01*
X150101168Y-98398956D01*
X150097966Y-98403632D01*
X150095042Y-98408238D01*
X150092385Y-98412859D01*
X150089986Y-98417579D01*
X150087835Y-98422481D01*
X150085922Y-98427648D01*
X150084238Y-98433164D01*
X150082773Y-98439114D01*
X150081516Y-98445580D01*
X150080459Y-98452646D01*
X150079591Y-98460396D01*
X150078903Y-98468913D01*
X150078385Y-98478282D01*
X150078027Y-98488585D01*
X150077819Y-98499907D01*
X150077752Y-98512331D01*
X149982167Y-98512331D01*
X149982158Y-98511404D01*
X149982335Y-98492971D01*
X149982873Y-98475916D01*
X149983781Y-98460146D01*
X149985069Y-98445568D01*
X149986747Y-98432089D01*
X149988823Y-98419615D01*
X149991309Y-98408053D01*
X149994213Y-98397309D01*
X149997546Y-98387290D01*
X150001316Y-98377903D01*
X150005534Y-98369053D01*
X150010209Y-98360649D01*
X150015350Y-98352595D01*
X150020968Y-98344800D01*
X150027073Y-98337169D01*
X150033672Y-98329609D01*
X150038805Y-98324137D01*
X150044372Y-98318650D01*
X150050392Y-98313198D01*
X150056883Y-98307832D01*
X150063862Y-98302603D01*
X150071347Y-98297563D01*
X150079357Y-98292761D01*
X150087909Y-98288248D01*
X150092394Y-98286116D01*
X150097021Y-98284076D01*
X150101793Y-98282134D01*
X150106712Y-98280295D01*
X150111779Y-98278568D01*
X150116998Y-98276957D01*
X150122371Y-98275469D01*
X150127899Y-98274111D01*
X150133586Y-98272889D01*
X150139432Y-98271809D01*
X150145441Y-98270878D01*
X150151615Y-98270102D01*
X150157956Y-98269488D01*
X150164466Y-98269041D01*
X150171148Y-98268768D01*
X150178003Y-98268676D01*
X150191530Y-98269041D01*
X150204373Y-98270102D01*
X150216549Y-98271809D01*
X150228076Y-98274111D01*
X150238971Y-98276957D01*
X150249254Y-98280295D01*
X150258941Y-98284076D01*
X150268050Y-98288248D01*
X150276600Y-98292761D01*
X150284608Y-98297563D01*
X150292093Y-98302604D01*
X150299071Y-98307832D01*
X150305561Y-98313198D01*
X150311580Y-98318650D01*
X150317148Y-98324137D01*
X150322280Y-98329609D01*
X150328881Y-98337173D01*
X150334987Y-98344807D01*
X150340607Y-98352605D01*
X150345752Y-98360660D01*
X150350431Y-98369065D01*
X150354653Y-98377914D01*
X150358428Y-98387301D01*
X150361766Y-98397319D01*
X150364675Y-98408062D01*
X150367165Y-98419622D01*
X150369247Y-98432095D01*
X150370928Y-98445572D01*
X150372220Y-98460148D01*
X150373130Y-98475917D01*
X150373670Y-98492971D01*
X150373847Y-98511404D01*
X150373670Y-98529997D01*
G37*
G36*
X150221500Y-99357356D02*
G01*
X150223432Y-99357356D01*
X150331170Y-99024722D01*
X150400517Y-99024722D01*
X150508256Y-99357356D01*
X150510134Y-99357356D01*
X150601045Y-99024722D01*
X150702222Y-99024722D01*
X150550430Y-99499782D01*
X150466107Y-99499782D01*
X150366783Y-99167121D01*
X150364905Y-99167121D01*
X150265580Y-99499782D01*
X150181204Y-99499782D01*
X150029439Y-99024722D01*
X150130669Y-99024722D01*
X150221500Y-99357356D01*
G37*
G36*
X152862103Y-98529997D02*
G01*
X152861565Y-98547191D01*
X152860657Y-98563082D01*
X152859369Y-98577764D01*
X152857692Y-98591333D01*
X152855615Y-98603882D01*
X152853129Y-98615506D01*
X152850225Y-98626300D01*
X152846893Y-98636358D01*
X152843122Y-98645776D01*
X152838905Y-98654648D01*
X152834230Y-98663068D01*
X152829088Y-98671131D01*
X152823470Y-98678932D01*
X152817366Y-98686565D01*
X152810766Y-98694126D01*
X152805633Y-98699597D01*
X152800065Y-98705083D01*
X152794044Y-98710532D01*
X152787552Y-98715894D01*
X152780571Y-98721119D01*
X152773084Y-98726155D01*
X152765073Y-98730953D01*
X152756519Y-98735460D01*
X152752034Y-98737589D01*
X152747406Y-98739627D01*
X152742634Y-98741567D01*
X152737715Y-98743403D01*
X152732647Y-98745129D01*
X152727428Y-98746737D01*
X152722056Y-98748223D01*
X152716528Y-98749579D01*
X152710842Y-98750799D01*
X152704996Y-98751877D01*
X152698988Y-98752807D01*
X152692815Y-98753582D01*
X152686476Y-98754195D01*
X152679968Y-98754642D01*
X152673288Y-98754914D01*
X152666435Y-98755006D01*
X152652908Y-98754642D01*
X152640064Y-98753582D01*
X152627887Y-98751877D01*
X152616358Y-98749579D01*
X152605461Y-98746737D01*
X152595176Y-98743403D01*
X152585487Y-98739627D01*
X152576375Y-98735460D01*
X152567822Y-98730952D01*
X152559812Y-98726155D01*
X152552325Y-98721119D01*
X152545345Y-98715894D01*
X152538854Y-98710532D01*
X152532833Y-98705082D01*
X152527265Y-98699597D01*
X152522132Y-98694126D01*
X152515531Y-98686565D01*
X152509426Y-98678931D01*
X152503807Y-98671129D01*
X152498664Y-98663064D01*
X152493987Y-98654643D01*
X152489767Y-98645769D01*
X152485994Y-98636350D01*
X152482659Y-98626290D01*
X152479752Y-98615495D01*
X152477264Y-98603870D01*
X152475185Y-98591321D01*
X152473506Y-98577753D01*
X152472216Y-98563072D01*
X152471307Y-98547184D01*
X152470768Y-98529992D01*
X152470600Y-98512331D01*
X152566185Y-98512331D01*
X152566461Y-98535768D01*
X152566820Y-98545945D01*
X152567339Y-98555205D01*
X152568029Y-98563630D01*
X152568899Y-98571301D01*
X152569957Y-98578303D01*
X152571215Y-98584717D01*
X152572682Y-98590626D01*
X152574366Y-98596113D01*
X152576279Y-98601259D01*
X152578430Y-98606148D01*
X152580827Y-98610862D01*
X152583482Y-98615483D01*
X152586403Y-98620095D01*
X152589600Y-98624778D01*
X152590966Y-98626610D01*
X152592423Y-98628412D01*
X152595599Y-98631921D01*
X152599109Y-98635289D01*
X152602934Y-98638503D01*
X152607055Y-98641546D01*
X152611454Y-98644404D01*
X152616109Y-98647062D01*
X152621003Y-98649504D01*
X152626116Y-98651715D01*
X152631430Y-98653681D01*
X152636924Y-98655385D01*
X152642580Y-98656814D01*
X152648378Y-98657951D01*
X152654299Y-98658782D01*
X152660325Y-98659292D01*
X152666435Y-98659465D01*
X152672551Y-98659292D01*
X152678580Y-98658783D01*
X152684505Y-98657954D01*
X152690306Y-98656818D01*
X152695964Y-98655391D01*
X152701460Y-98653688D01*
X152706774Y-98651724D01*
X152711888Y-98649514D01*
X152716781Y-98647073D01*
X152721436Y-98644416D01*
X152725832Y-98641558D01*
X152729952Y-98638514D01*
X152733774Y-98635299D01*
X152737281Y-98631928D01*
X152740453Y-98628416D01*
X152743270Y-98624778D01*
X152746468Y-98620094D01*
X152749390Y-98615481D01*
X152752046Y-98610856D01*
X152754445Y-98606133D01*
X152756598Y-98601231D01*
X152758513Y-98596064D01*
X152760200Y-98590549D01*
X152761669Y-98584601D01*
X152762929Y-98578138D01*
X152763990Y-98571075D01*
X152764862Y-98563329D01*
X152765554Y-98554814D01*
X152766075Y-98545449D01*
X152766436Y-98535148D01*
X152766645Y-98523828D01*
X152766713Y-98511404D01*
X152766436Y-98487965D01*
X152766075Y-98477785D01*
X152765554Y-98468523D01*
X152764862Y-98460095D01*
X152763990Y-98452420D01*
X152762929Y-98445415D01*
X152761669Y-98438998D01*
X152760200Y-98433087D01*
X152758513Y-98427599D01*
X152756598Y-98422452D01*
X152754445Y-98417564D01*
X152752046Y-98412853D01*
X152749390Y-98408236D01*
X152746468Y-98403631D01*
X152743270Y-98398956D01*
X152741907Y-98397125D01*
X152740453Y-98395323D01*
X152737281Y-98391814D01*
X152733774Y-98388445D01*
X152729952Y-98385232D01*
X152725832Y-98382189D01*
X152721436Y-98379331D01*
X152716781Y-98376673D01*
X152711888Y-98374231D01*
X152706774Y-98372020D01*
X152701460Y-98370054D01*
X152695964Y-98368350D01*
X152690306Y-98366921D01*
X152684505Y-98365784D01*
X152678580Y-98364952D01*
X152672551Y-98364443D01*
X152666435Y-98364269D01*
X152660325Y-98364442D01*
X152654299Y-98364951D01*
X152648378Y-98365781D01*
X152642580Y-98366917D01*
X152636924Y-98368344D01*
X152631430Y-98370047D01*
X152626116Y-98372011D01*
X152621003Y-98374221D01*
X152616109Y-98376662D01*
X152611454Y-98379319D01*
X152607055Y-98382177D01*
X152602934Y-98385221D01*
X152599109Y-98388436D01*
X152595599Y-98391806D01*
X152592423Y-98395318D01*
X152589600Y-98398956D01*
X152586403Y-98403632D01*
X152583482Y-98408238D01*
X152580827Y-98412859D01*
X152578430Y-98417579D01*
X152576279Y-98422481D01*
X152574366Y-98427648D01*
X152572682Y-98433164D01*
X152571215Y-98439114D01*
X152569957Y-98445580D01*
X152568899Y-98452646D01*
X152568029Y-98460396D01*
X152567339Y-98468913D01*
X152566820Y-98478282D01*
X152566461Y-98488585D01*
X152566252Y-98499907D01*
X152566185Y-98512331D01*
X152470600Y-98512331D01*
X152470591Y-98511404D01*
X152470768Y-98492971D01*
X152471307Y-98475916D01*
X152472216Y-98460146D01*
X152473506Y-98445568D01*
X152475185Y-98432089D01*
X152477264Y-98419615D01*
X152479752Y-98408053D01*
X152482659Y-98397309D01*
X152485994Y-98387290D01*
X152489767Y-98377903D01*
X152493987Y-98369053D01*
X152498664Y-98360649D01*
X152503807Y-98352595D01*
X152509426Y-98344800D01*
X152515531Y-98337169D01*
X152522132Y-98329609D01*
X152527265Y-98324137D01*
X152532833Y-98318650D01*
X152538854Y-98313198D01*
X152545345Y-98307832D01*
X152552325Y-98302603D01*
X152559812Y-98297563D01*
X152567822Y-98292761D01*
X152576375Y-98288248D01*
X152580860Y-98286116D01*
X152585487Y-98284076D01*
X152590258Y-98282134D01*
X152595176Y-98280295D01*
X152600243Y-98278568D01*
X152605461Y-98276957D01*
X152610832Y-98275469D01*
X152616358Y-98274111D01*
X152622043Y-98272889D01*
X152627887Y-98271809D01*
X152633893Y-98270878D01*
X152640064Y-98270102D01*
X152646402Y-98269488D01*
X152652908Y-98269041D01*
X152659585Y-98268768D01*
X152666435Y-98268676D01*
X152679968Y-98269041D01*
X152692815Y-98270102D01*
X152704996Y-98271809D01*
X152716528Y-98274111D01*
X152727428Y-98276957D01*
X152737715Y-98280295D01*
X152747406Y-98284076D01*
X152756519Y-98288248D01*
X152765073Y-98292761D01*
X152773084Y-98297563D01*
X152780571Y-98302604D01*
X152787552Y-98307832D01*
X152794044Y-98313198D01*
X152800065Y-98318650D01*
X152805633Y-98324137D01*
X152810766Y-98329609D01*
X152817366Y-98337173D01*
X152823470Y-98344807D01*
X152829088Y-98352605D01*
X152834230Y-98360660D01*
X152838905Y-98369065D01*
X152843122Y-98377914D01*
X152846893Y-98387301D01*
X152850225Y-98397319D01*
X152853129Y-98408062D01*
X152855615Y-98419622D01*
X152857692Y-98432095D01*
X152859369Y-98445572D01*
X152860657Y-98460148D01*
X152861565Y-98475917D01*
X152862103Y-98492971D01*
X152862280Y-98511404D01*
X152862103Y-98529997D01*
G37*
G36*
X152389390Y-99499782D02*
G01*
X152293796Y-99499782D01*
X152293796Y-99216810D01*
X152293679Y-99210825D01*
X152293331Y-99205002D01*
X152292756Y-99199342D01*
X152291960Y-99193847D01*
X152290947Y-99188519D01*
X152289722Y-99183360D01*
X152288290Y-99178372D01*
X152286655Y-99173557D01*
X152284823Y-99168916D01*
X152282798Y-99164451D01*
X152280585Y-99160165D01*
X152278189Y-99156059D01*
X152275614Y-99152135D01*
X152272866Y-99148395D01*
X152269949Y-99144840D01*
X152266868Y-99141473D01*
X152263628Y-99138296D01*
X152260234Y-99135310D01*
X152256689Y-99132518D01*
X152253000Y-99129920D01*
X152249171Y-99127520D01*
X152245207Y-99125318D01*
X152241112Y-99123317D01*
X152236892Y-99121519D01*
X152232551Y-99119926D01*
X152228093Y-99118538D01*
X152223525Y-99117360D01*
X152218850Y-99116391D01*
X152214073Y-99115634D01*
X152209200Y-99115091D01*
X152204234Y-99114764D01*
X152199181Y-99114655D01*
X152194213Y-99114764D01*
X152189326Y-99115091D01*
X152184526Y-99115634D01*
X152179817Y-99116391D01*
X152175206Y-99117360D01*
X152170696Y-99118538D01*
X152166293Y-99119926D01*
X152162002Y-99121519D01*
X152157828Y-99123317D01*
X152153775Y-99125318D01*
X152149848Y-99127520D01*
X152146054Y-99129920D01*
X152142396Y-99132517D01*
X152138880Y-99135310D01*
X152135510Y-99138296D01*
X152132291Y-99141473D01*
X152129230Y-99144840D01*
X152126329Y-99148394D01*
X152123595Y-99152135D01*
X152121033Y-99156059D01*
X152118647Y-99160165D01*
X152116442Y-99164451D01*
X152114424Y-99168916D01*
X152112597Y-99173557D01*
X152110966Y-99178372D01*
X152109537Y-99183360D01*
X152108314Y-99188519D01*
X152107302Y-99193847D01*
X152106506Y-99199342D01*
X152105932Y-99205002D01*
X152105583Y-99210825D01*
X152105466Y-99216810D01*
X152105466Y-99499781D01*
X152009898Y-99499781D01*
X152009898Y-99183975D01*
X152010143Y-99174023D01*
X152010864Y-99164368D01*
X152012044Y-99155013D01*
X152013666Y-99145957D01*
X152015714Y-99137203D01*
X152018168Y-99128751D01*
X152021013Y-99120603D01*
X152024231Y-99112759D01*
X152027804Y-99105222D01*
X152031715Y-99097991D01*
X152035947Y-99091069D01*
X152040483Y-99084457D01*
X152045304Y-99078156D01*
X152050395Y-99072167D01*
X152055737Y-99066491D01*
X152061314Y-99061129D01*
X152067107Y-99056083D01*
X152073100Y-99051354D01*
X152079275Y-99046943D01*
X152085615Y-99042851D01*
X152092102Y-99039079D01*
X152098720Y-99035629D01*
X152105451Y-99032503D01*
X152112277Y-99029700D01*
X152119182Y-99027222D01*
X152126148Y-99025071D01*
X152133157Y-99023247D01*
X152140193Y-99021753D01*
X152147237Y-99020588D01*
X152154273Y-99019755D01*
X152161284Y-99019254D01*
X152168252Y-99019086D01*
X152177648Y-99019306D01*
X152186864Y-99019966D01*
X152195893Y-99021065D01*
X152204730Y-99022603D01*
X152213370Y-99024581D01*
X152221806Y-99026998D01*
X152230035Y-99029854D01*
X152238049Y-99033149D01*
X152245843Y-99036883D01*
X152253413Y-99041057D01*
X152260752Y-99045669D01*
X152267855Y-99050720D01*
X152274716Y-99056210D01*
X152281331Y-99062138D01*
X152287693Y-99068505D01*
X152293796Y-99075311D01*
X152293452Y-98698808D01*
X152286740Y-98704999D01*
X152279951Y-98710910D01*
X152273075Y-98716524D01*
X152266099Y-98721825D01*
X152259014Y-98726797D01*
X152251808Y-98731423D01*
X152244471Y-98735686D01*
X152236990Y-98739571D01*
X152229356Y-98743060D01*
X152221557Y-98746138D01*
X152213582Y-98748787D01*
X152205421Y-98750991D01*
X152197061Y-98752735D01*
X152188493Y-98754000D01*
X152179705Y-98754772D01*
X152170686Y-98755032D01*
X152165288Y-98754956D01*
X152159982Y-98754729D01*
X152154770Y-98754354D01*
X152149650Y-98753835D01*
X152144622Y-98753174D01*
X152139687Y-98752375D01*
X152134843Y-98751441D01*
X152130092Y-98750375D01*
X152125432Y-98749179D01*
X152120865Y-98747858D01*
X152116388Y-98746414D01*
X152112003Y-98744850D01*
X152107709Y-98743169D01*
X152103506Y-98741375D01*
X152095372Y-98737457D01*
X152087601Y-98733123D01*
X152080190Y-98728396D01*
X152073139Y-98723301D01*
X152066447Y-98717863D01*
X152060111Y-98712106D01*
X152054132Y-98706056D01*
X152048507Y-98699736D01*
X152043236Y-98693173D01*
X152038536Y-98686868D01*
X152034260Y-98680498D01*
X152030389Y-98673935D01*
X152026908Y-98667049D01*
X152023799Y-98659711D01*
X152021048Y-98651793D01*
X152018637Y-98643166D01*
X152016549Y-98633701D01*
X152014769Y-98623270D01*
X152013280Y-98611742D01*
X152012065Y-98598991D01*
X152011108Y-98584886D01*
X152009901Y-98552101D01*
X152009528Y-98512357D01*
X152009528Y-98512330D01*
X152105095Y-98512330D01*
X152105170Y-98526025D01*
X152105472Y-98539634D01*
X152106121Y-98553045D01*
X152107233Y-98566150D01*
X152108927Y-98578838D01*
X152110029Y-98584991D01*
X152111321Y-98590999D01*
X152112818Y-98596848D01*
X152114533Y-98602524D01*
X152116483Y-98608013D01*
X152118682Y-98613302D01*
X152121144Y-98618377D01*
X152123884Y-98623224D01*
X152126918Y-98627829D01*
X152130259Y-98632179D01*
X152133923Y-98636260D01*
X152137924Y-98640059D01*
X152142278Y-98643560D01*
X152146998Y-98646752D01*
X152152100Y-98649619D01*
X152157598Y-98652149D01*
X152163507Y-98654327D01*
X152169842Y-98656140D01*
X152176618Y-98657574D01*
X152183849Y-98658616D01*
X152191551Y-98659250D01*
X152199737Y-98659465D01*
X152207839Y-98659237D01*
X152215461Y-98658564D01*
X152222619Y-98657463D01*
X152229326Y-98655949D01*
X152235597Y-98654039D01*
X152241446Y-98651750D01*
X152246890Y-98649097D01*
X152251940Y-98646097D01*
X152256614Y-98642766D01*
X152260924Y-98639121D01*
X152264886Y-98635177D01*
X152268515Y-98630952D01*
X152271824Y-98626460D01*
X152274828Y-98621720D01*
X152277543Y-98616746D01*
X152279982Y-98611556D01*
X152282160Y-98606165D01*
X152284092Y-98600590D01*
X152287275Y-98588953D01*
X152289649Y-98576774D01*
X152291329Y-98564185D01*
X152292433Y-98551316D01*
X152293077Y-98538297D01*
X152293452Y-98512330D01*
X152293378Y-98499239D01*
X152293076Y-98486058D01*
X152292431Y-98472915D01*
X152291326Y-98459940D01*
X152289644Y-98447261D01*
X152288550Y-98441073D01*
X152287269Y-98435008D01*
X152285784Y-98429081D01*
X152284083Y-98423309D01*
X152282151Y-98417709D01*
X152279972Y-98412295D01*
X152277532Y-98407084D01*
X152274817Y-98402092D01*
X152271812Y-98397336D01*
X152268503Y-98392832D01*
X152264875Y-98388595D01*
X152260912Y-98384642D01*
X152256602Y-98380989D01*
X152251929Y-98377652D01*
X152246879Y-98374647D01*
X152241437Y-98371991D01*
X152235588Y-98369698D01*
X152229318Y-98367787D01*
X152222613Y-98366272D01*
X152215457Y-98365170D01*
X152207837Y-98364497D01*
X152199737Y-98364269D01*
X152191551Y-98364484D01*
X152183849Y-98365118D01*
X152176618Y-98366160D01*
X152169842Y-98367594D01*
X152163507Y-98369407D01*
X152157598Y-98371587D01*
X152152100Y-98374119D01*
X152146998Y-98376990D01*
X152142278Y-98380186D01*
X152137924Y-98383693D01*
X152133923Y-98387499D01*
X152130259Y-98391590D01*
X152126918Y-98395952D01*
X152123884Y-98400571D01*
X152121144Y-98405434D01*
X152118682Y-98410528D01*
X152116483Y-98415839D01*
X152114533Y-98421354D01*
X152111321Y-98432938D01*
X152108927Y-98445174D01*
X152107233Y-98457953D01*
X152106121Y-98471166D01*
X152105472Y-98484706D01*
X152105095Y-98512330D01*
X152009528Y-98512330D01*
X152009619Y-98491379D01*
X152009901Y-98472292D01*
X152010392Y-98454965D01*
X152011108Y-98439269D01*
X152012065Y-98425072D01*
X152013280Y-98412245D01*
X152014769Y-98400656D01*
X152016549Y-98390175D01*
X152018637Y-98380672D01*
X152019801Y-98376246D01*
X152021048Y-98372016D01*
X152022380Y-98367965D01*
X152023799Y-98364077D01*
X152025308Y-98360335D01*
X152026907Y-98356723D01*
X152030389Y-98349826D01*
X152034260Y-98343253D01*
X152038536Y-98336875D01*
X152043236Y-98330561D01*
X152048507Y-98323998D01*
X152054132Y-98317679D01*
X152060111Y-98311628D01*
X152066447Y-98305872D01*
X152073139Y-98300434D01*
X152080190Y-98295339D01*
X152087601Y-98290611D01*
X152095372Y-98286277D01*
X152103506Y-98282360D01*
X152112003Y-98278885D01*
X152120864Y-98275876D01*
X152130092Y-98273359D01*
X152139687Y-98271359D01*
X152149650Y-98269899D01*
X152159982Y-98269005D01*
X152170686Y-98268702D01*
X152179766Y-98268963D01*
X152188723Y-98269732D01*
X152197542Y-98270994D01*
X152206209Y-98272729D01*
X152214712Y-98274919D01*
X152223036Y-98277548D01*
X152231168Y-98280597D01*
X152239094Y-98284048D01*
X152246800Y-98287883D01*
X152254273Y-98292085D01*
X152261500Y-98296636D01*
X152268466Y-98301518D01*
X152275158Y-98306714D01*
X152281562Y-98312204D01*
X152287665Y-98317972D01*
X152293452Y-98324000D01*
X152293452Y-98274337D01*
X152389390Y-98274337D01*
X152389390Y-98512330D01*
X152389390Y-99499782D01*
G37*
G36*
X150808534Y-94716643D02*
G01*
X150809539Y-94716718D01*
X150810539Y-94716841D01*
X150811533Y-94717012D01*
X150812519Y-94717228D01*
X150813496Y-94717489D01*
X150814462Y-94717793D01*
X150815415Y-94718140D01*
X150816355Y-94718527D01*
X150817279Y-94718955D01*
X150819075Y-94719923D01*
X150820793Y-94721036D01*
X150822419Y-94722283D01*
X150823941Y-94723655D01*
X150825349Y-94725141D01*
X150826629Y-94726731D01*
X150827218Y-94727563D01*
X150827770Y-94728416D01*
X150828285Y-94729291D01*
X150828760Y-94730186D01*
X150829195Y-94731100D01*
X150829587Y-94732031D01*
X150829935Y-94732979D01*
X150830239Y-94733941D01*
X150830495Y-94734917D01*
X150830703Y-94735906D01*
X150914418Y-95185777D01*
X150914886Y-95187774D01*
X150915529Y-95189778D01*
X150916336Y-95191776D01*
X150917295Y-95193754D01*
X150918396Y-95195700D01*
X150919627Y-95197600D01*
X150920977Y-95199442D01*
X150922434Y-95201212D01*
X150923989Y-95202898D01*
X150925629Y-95204486D01*
X150927344Y-95205963D01*
X150929122Y-95207316D01*
X150930952Y-95208533D01*
X150932823Y-95209599D01*
X150934723Y-95210503D01*
X150936642Y-95211230D01*
X151238188Y-95334658D01*
X151240066Y-95335483D01*
X151242057Y-95336172D01*
X151244143Y-95336726D01*
X151246306Y-95337147D01*
X151248530Y-95337435D01*
X151250797Y-95337592D01*
X151253089Y-95337620D01*
X151255389Y-95337519D01*
X151257680Y-95337291D01*
X151259943Y-95336936D01*
X151262162Y-95336456D01*
X151264319Y-95335853D01*
X151266396Y-95335126D01*
X151268376Y-95334279D01*
X151270242Y-95333311D01*
X151271975Y-95332224D01*
X151647789Y-95074308D01*
X151648638Y-95073757D01*
X151649513Y-95073248D01*
X151650410Y-95072782D01*
X151651328Y-95072359D01*
X151652266Y-95071978D01*
X151653221Y-95071640D01*
X151655176Y-95071089D01*
X151657177Y-95070704D01*
X151659209Y-95070485D01*
X151661256Y-95070430D01*
X151663304Y-95070538D01*
X151665336Y-95070807D01*
X151667338Y-95071236D01*
X151669294Y-95071823D01*
X151671189Y-95072567D01*
X151673007Y-95073467D01*
X151673882Y-95073975D01*
X151674733Y-95074521D01*
X151675556Y-95075105D01*
X151676351Y-95075728D01*
X151677115Y-95076388D01*
X151677846Y-95077086D01*
X151994394Y-95393607D01*
X151995090Y-95394341D01*
X151995748Y-95395107D01*
X151996369Y-95395904D01*
X151996952Y-95396730D01*
X151997497Y-95397582D01*
X151998004Y-95398459D01*
X151998472Y-95399359D01*
X151998902Y-95400279D01*
X151999293Y-95401219D01*
X151999646Y-95402176D01*
X152000233Y-95404134D01*
X152000662Y-95406137D01*
X152000932Y-95408169D01*
X152001041Y-95410217D01*
X152000988Y-95412263D01*
X152000771Y-95414294D01*
X152000600Y-95415298D01*
X152000388Y-95416292D01*
X152000134Y-95417275D01*
X151999838Y-95418244D01*
X151999500Y-95419198D01*
X151999120Y-95420134D01*
X151998697Y-95421050D01*
X151998232Y-95421945D01*
X151997723Y-95422817D01*
X151997172Y-95423664D01*
X151743728Y-95793022D01*
X151742647Y-95794768D01*
X151741688Y-95796641D01*
X151740851Y-95798624D01*
X151740138Y-95800699D01*
X151739550Y-95802850D01*
X151739087Y-95805060D01*
X151738752Y-95807312D01*
X151738545Y-95809589D01*
X151738467Y-95811873D01*
X151738520Y-95814148D01*
X151738704Y-95816397D01*
X151739021Y-95818602D01*
X151739471Y-95820747D01*
X151740057Y-95822815D01*
X151740779Y-95824789D01*
X151741637Y-95826651D01*
X151874987Y-96137695D01*
X151875343Y-96138651D01*
X151875744Y-96139605D01*
X151876675Y-96141497D01*
X151877768Y-96143361D01*
X151879010Y-96145185D01*
X151880387Y-96146957D01*
X151881886Y-96148667D01*
X151883495Y-96150303D01*
X151885200Y-96151854D01*
X151886988Y-96153308D01*
X151888846Y-96154654D01*
X151890761Y-96155882D01*
X151892720Y-96156979D01*
X151894710Y-96157935D01*
X151896717Y-96158738D01*
X151898728Y-96159377D01*
X151899732Y-96159631D01*
X151900731Y-96159841D01*
X152335653Y-96240724D01*
X152336645Y-96240937D01*
X152337623Y-96241197D01*
X152338587Y-96241505D01*
X152339536Y-96241856D01*
X152340468Y-96242252D01*
X152341383Y-96242689D01*
X152342279Y-96243167D01*
X152343154Y-96243684D01*
X152344008Y-96244238D01*
X152344840Y-96244828D01*
X152345648Y-96245453D01*
X152346430Y-96246111D01*
X152347187Y-96246801D01*
X152347916Y-96247521D01*
X152348616Y-96248269D01*
X152349286Y-96249045D01*
X152349925Y-96249846D01*
X152350532Y-96250672D01*
X152351105Y-96251520D01*
X152351643Y-96252390D01*
X152352145Y-96253280D01*
X152352610Y-96254188D01*
X152353037Y-96255113D01*
X152353423Y-96256053D01*
X152353769Y-96257007D01*
X152354073Y-96257974D01*
X152354333Y-96258952D01*
X152354549Y-96259939D01*
X152354719Y-96260934D01*
X152354842Y-96261936D01*
X152354916Y-96262943D01*
X152354942Y-96263954D01*
X152354915Y-96711603D01*
X152354890Y-96712614D01*
X152354815Y-96713621D01*
X152354692Y-96714624D01*
X152354521Y-96715621D01*
X152354305Y-96716610D01*
X152354044Y-96717590D01*
X152353740Y-96718558D01*
X152353393Y-96719515D01*
X152352578Y-96721385D01*
X152351610Y-96723188D01*
X152350497Y-96724910D01*
X152349250Y-96726542D01*
X152347878Y-96728069D01*
X152346392Y-96729480D01*
X152344802Y-96730764D01*
X152343971Y-96731353D01*
X152343117Y-96731907D01*
X152342242Y-96732422D01*
X152341347Y-96732897D01*
X152340433Y-96733331D01*
X152339502Y-96733723D01*
X152338554Y-96734071D01*
X152337592Y-96734373D01*
X152336616Y-96734627D01*
X152335627Y-96734833D01*
X151911368Y-96813785D01*
X151910371Y-96813990D01*
X151909372Y-96814241D01*
X151907372Y-96814876D01*
X151905380Y-96815678D01*
X151903410Y-96816637D01*
X151901474Y-96817741D01*
X151899586Y-96818977D01*
X151897759Y-96820335D01*
X151896005Y-96821802D01*
X151894338Y-96823367D01*
X151892770Y-96825018D01*
X151891315Y-96826744D01*
X151889985Y-96828534D01*
X151888793Y-96830374D01*
X151887753Y-96832255D01*
X151886878Y-96834164D01*
X151886505Y-96835125D01*
X151886179Y-96836089D01*
X151753729Y-97166951D01*
X151752909Y-97168833D01*
X151752225Y-97170826D01*
X151751676Y-97172913D01*
X151751260Y-97175076D01*
X151750977Y-97177299D01*
X151750824Y-97179564D01*
X151750802Y-97181854D01*
X151750908Y-97184152D01*
X151751141Y-97186440D01*
X151751501Y-97188701D01*
X151751985Y-97190918D01*
X151752594Y-97193074D01*
X151753325Y-97195151D01*
X151754178Y-97197132D01*
X151755151Y-97199000D01*
X151756242Y-97200738D01*
X151997225Y-97551919D01*
X151997774Y-97552766D01*
X151998280Y-97553638D01*
X151998744Y-97554534D01*
X151999165Y-97555451D01*
X151999544Y-97556387D01*
X151999881Y-97557342D01*
X152000430Y-97559295D01*
X152000812Y-97561296D01*
X152001029Y-97563328D01*
X152001083Y-97565377D01*
X152000975Y-97567427D01*
X152000707Y-97569463D01*
X152000279Y-97571468D01*
X151999693Y-97573428D01*
X151998951Y-97575326D01*
X151998054Y-97577149D01*
X151997548Y-97578026D01*
X151997003Y-97578879D01*
X151996421Y-97579705D01*
X151995801Y-97580502D01*
X151995142Y-97581269D01*
X151994447Y-97582002D01*
X151677873Y-97898524D01*
X151677141Y-97899217D01*
X151676377Y-97899873D01*
X151675583Y-97900491D01*
X151674759Y-97901072D01*
X151673909Y-97901614D01*
X151673033Y-97902119D01*
X151672135Y-97902585D01*
X151671216Y-97903013D01*
X151670277Y-97903403D01*
X151669321Y-97903753D01*
X151667365Y-97904337D01*
X151665363Y-97904764D01*
X151663331Y-97905032D01*
X151661283Y-97905141D01*
X151659235Y-97905087D01*
X151657203Y-97904872D01*
X151656198Y-97904702D01*
X151655203Y-97904492D01*
X151654218Y-97904240D01*
X151653248Y-97903946D01*
X151652293Y-97903611D01*
X151651355Y-97903233D01*
X151650437Y-97902814D01*
X151649539Y-97902352D01*
X151648665Y-97901848D01*
X151647816Y-97901302D01*
X151302852Y-97664526D01*
X151301118Y-97663451D01*
X151299260Y-97662508D01*
X151297295Y-97661697D01*
X151295240Y-97661018D01*
X151293113Y-97660473D01*
X151290930Y-97660062D01*
X151288708Y-97659784D01*
X151286465Y-97659641D01*
X151284217Y-97659633D01*
X151281981Y-97659760D01*
X151279775Y-97660023D01*
X151277615Y-97660422D01*
X151275518Y-97660958D01*
X151273502Y-97661631D01*
X151271584Y-97662441D01*
X151269779Y-97663388D01*
X151117644Y-97744616D01*
X151116737Y-97745050D01*
X151115821Y-97745433D01*
X151114900Y-97745763D01*
X151113974Y-97746042D01*
X151113045Y-97746270D01*
X151112114Y-97746448D01*
X151111184Y-97746576D01*
X151110255Y-97746656D01*
X151109329Y-97746687D01*
X151108409Y-97746670D01*
X151107495Y-97746606D01*
X151106589Y-97746495D01*
X151105693Y-97746338D01*
X151104808Y-97746136D01*
X151103936Y-97745889D01*
X151103079Y-97745598D01*
X151102237Y-97745263D01*
X151101414Y-97744885D01*
X151100610Y-97744465D01*
X151099826Y-97744002D01*
X151099066Y-97743499D01*
X151098329Y-97742955D01*
X151097618Y-97742371D01*
X151096935Y-97741747D01*
X151096280Y-97741084D01*
X151095656Y-97740384D01*
X151095064Y-97739645D01*
X151094505Y-97738869D01*
X151093982Y-97738057D01*
X151093496Y-97737209D01*
X151093048Y-97736326D01*
X151092641Y-97735408D01*
X150778951Y-96977456D01*
X150778586Y-96976513D01*
X150778269Y-96975556D01*
X150777999Y-96974586D01*
X150777776Y-96973606D01*
X150777600Y-96972616D01*
X150777469Y-96971620D01*
X150777342Y-96969613D01*
X150777391Y-96967599D01*
X150777611Y-96965593D01*
X150777997Y-96963608D01*
X150778544Y-96961660D01*
X150779248Y-96959763D01*
X150780104Y-96957932D01*
X150781106Y-96956179D01*
X150782251Y-96954522D01*
X150783534Y-96952972D01*
X150784225Y-96952243D01*
X150784949Y-96951546D01*
X150785705Y-96950883D01*
X150786492Y-96950256D01*
X150787310Y-96949668D01*
X150788159Y-96949119D01*
X150826232Y-96925809D01*
X150828980Y-96924064D01*
X150831910Y-96922072D01*
X150834969Y-96919877D01*
X150838102Y-96917521D01*
X150841256Y-96915049D01*
X150844378Y-96912504D01*
X150847414Y-96909929D01*
X150850309Y-96907368D01*
X150875509Y-96890116D01*
X150899559Y-96871385D01*
X150922395Y-96851240D01*
X150943950Y-96829746D01*
X150964158Y-96806968D01*
X150982955Y-96782972D01*
X151000273Y-96757823D01*
X151016048Y-96731585D01*
X151030213Y-96704326D01*
X151036671Y-96690333D01*
X151042703Y-96676109D01*
X151048299Y-96661662D01*
X151053451Y-96647000D01*
X151058152Y-96632131D01*
X151062393Y-96617064D01*
X151066166Y-96601806D01*
X151069462Y-96586367D01*
X151072274Y-96570753D01*
X151074593Y-96554973D01*
X151076411Y-96539036D01*
X151077720Y-96522948D01*
X151078511Y-96506720D01*
X151078777Y-96490358D01*
X151078133Y-96464882D01*
X151076221Y-96439740D01*
X151073072Y-96414964D01*
X151068718Y-96390584D01*
X151063190Y-96366633D01*
X151056518Y-96343140D01*
X151048734Y-96320137D01*
X151039870Y-96297656D01*
X151029955Y-96275726D01*
X151019021Y-96254380D01*
X151007100Y-96233648D01*
X150994223Y-96213562D01*
X150980420Y-96194153D01*
X150965722Y-96175451D01*
X150950162Y-96157488D01*
X150933769Y-96140295D01*
X150916575Y-96123903D01*
X150898612Y-96108343D01*
X150879910Y-96093646D01*
X150860500Y-96079844D01*
X150840413Y-96066967D01*
X150819682Y-96055047D01*
X150798336Y-96044114D01*
X150776407Y-96034200D01*
X150753926Y-96025336D01*
X150730924Y-96017553D01*
X150707432Y-96010882D01*
X150683481Y-96005354D01*
X150659103Y-96001000D01*
X150634329Y-95997852D01*
X150609189Y-95995940D01*
X150583715Y-95995296D01*
X150558241Y-95995940D01*
X150533102Y-95997852D01*
X150508328Y-96001000D01*
X150483950Y-96005354D01*
X150460000Y-96010882D01*
X150436509Y-96017553D01*
X150413508Y-96025336D01*
X150391028Y-96034200D01*
X150369100Y-96044114D01*
X150347755Y-96055047D01*
X150327024Y-96066967D01*
X150306939Y-96079844D01*
X150287530Y-96093646D01*
X150268829Y-96108343D01*
X150250867Y-96123903D01*
X150233675Y-96140295D01*
X150217283Y-96157488D01*
X150201724Y-96175451D01*
X150187028Y-96194153D01*
X150173226Y-96213562D01*
X150160349Y-96233648D01*
X150148429Y-96254380D01*
X150137497Y-96275726D01*
X150127583Y-96297656D01*
X150118719Y-96320137D01*
X150110936Y-96343140D01*
X150104265Y-96366633D01*
X150098737Y-96390584D01*
X150094384Y-96414964D01*
X150091236Y-96439740D01*
X150089324Y-96464882D01*
X150088680Y-96490358D01*
X150089736Y-96522948D01*
X150092862Y-96554973D01*
X150097992Y-96586367D01*
X150105060Y-96617064D01*
X150114000Y-96647000D01*
X150124747Y-96676109D01*
X150137236Y-96704326D01*
X150151399Y-96731585D01*
X150167173Y-96757822D01*
X150184491Y-96782972D01*
X150203287Y-96806968D01*
X150223496Y-96829746D01*
X150245052Y-96851240D01*
X150267890Y-96871385D01*
X150291944Y-96890116D01*
X150317148Y-96907368D01*
X150320027Y-96909929D01*
X150323052Y-96912504D01*
X150326168Y-96915049D01*
X150329318Y-96917521D01*
X150332450Y-96919877D01*
X150335506Y-96922072D01*
X150338431Y-96924064D01*
X150341172Y-96925809D01*
X150379245Y-96949119D01*
X150380089Y-96949668D01*
X150380903Y-96950256D01*
X150381686Y-96950883D01*
X150382439Y-96951546D01*
X150383160Y-96952243D01*
X150383848Y-96952972D01*
X150384504Y-96953732D01*
X150385127Y-96954522D01*
X150385715Y-96955338D01*
X150386269Y-96956179D01*
X150386787Y-96957045D01*
X150387270Y-96957932D01*
X150387716Y-96958838D01*
X150388125Y-96959763D01*
X150388497Y-96960705D01*
X150388830Y-96961660D01*
X150389124Y-96962629D01*
X150389379Y-96963608D01*
X150389593Y-96964597D01*
X150389767Y-96965593D01*
X150389900Y-96966594D01*
X150389990Y-96967599D01*
X150390038Y-96968606D01*
X150390043Y-96969613D01*
X150390004Y-96970618D01*
X150389920Y-96971620D01*
X150389792Y-96972616D01*
X150389618Y-96973606D01*
X150389397Y-96974586D01*
X150389130Y-96975556D01*
X150388816Y-96976513D01*
X150388453Y-96977456D01*
X150074789Y-97735434D01*
X150074382Y-97736352D01*
X150073934Y-97737235D01*
X150073448Y-97738083D01*
X150072926Y-97738895D01*
X150072368Y-97739670D01*
X150071777Y-97740408D01*
X150071153Y-97741108D01*
X150070499Y-97741769D01*
X150069816Y-97742392D01*
X150069106Y-97742976D01*
X150068370Y-97743519D01*
X150067611Y-97744022D01*
X150066828Y-97744483D01*
X150066025Y-97744903D01*
X150065202Y-97745280D01*
X150064361Y-97745614D01*
X150063505Y-97745905D01*
X150062633Y-97746151D01*
X150061749Y-97746353D01*
X150060853Y-97746510D01*
X150059947Y-97746620D01*
X150059033Y-97746684D01*
X150058112Y-97746701D01*
X150057187Y-97746671D01*
X150056257Y-97746592D01*
X150055326Y-97746464D01*
X150054394Y-97746287D01*
X150053464Y-97746061D01*
X150052536Y-97745783D01*
X150051613Y-97745455D01*
X150050696Y-97745074D01*
X150049786Y-97744642D01*
X149897651Y-97663415D01*
X149895842Y-97662467D01*
X149893920Y-97661656D01*
X149891902Y-97660982D01*
X149889804Y-97660445D01*
X149887644Y-97660044D01*
X149885437Y-97659780D01*
X149883202Y-97659651D01*
X149880955Y-97659658D01*
X149878713Y-97659800D01*
X149876493Y-97660076D01*
X149874312Y-97660488D01*
X149872186Y-97661033D01*
X149870133Y-97661713D01*
X149868169Y-97662526D01*
X149866312Y-97663473D01*
X149864578Y-97664552D01*
X149519587Y-97901328D01*
X149518741Y-97901875D01*
X149517869Y-97902379D01*
X149516973Y-97902840D01*
X149516056Y-97903260D01*
X149515120Y-97903637D01*
X149514166Y-97903972D01*
X149512213Y-97904518D01*
X149510213Y-97904898D01*
X149508181Y-97905114D01*
X149506134Y-97905167D01*
X149504086Y-97905059D01*
X149502054Y-97904790D01*
X149500052Y-97904363D01*
X149498097Y-97903779D01*
X149496203Y-97903039D01*
X149494387Y-97902145D01*
X149493512Y-97901641D01*
X149492663Y-97901098D01*
X149491841Y-97900517D01*
X149491048Y-97899899D01*
X149490286Y-97899243D01*
X149489557Y-97898550D01*
X149172983Y-97582029D01*
X149172285Y-97581295D01*
X149171625Y-97580529D01*
X149171002Y-97579731D01*
X149170418Y-97578905D01*
X149169872Y-97578053D01*
X149169364Y-97577175D01*
X149168895Y-97576274D01*
X149168464Y-97575353D01*
X149168072Y-97574412D01*
X149167720Y-97573454D01*
X149167133Y-97571494D01*
X149166704Y-97569489D01*
X149166435Y-97567454D01*
X149166327Y-97565404D01*
X149166382Y-97563355D01*
X149166601Y-97561322D01*
X149166773Y-97560317D01*
X149166986Y-97559321D01*
X149167240Y-97558338D01*
X149167537Y-97557368D01*
X149167876Y-97556414D01*
X149168256Y-97555477D01*
X149168680Y-97554560D01*
X149169145Y-97553665D01*
X149169654Y-97552792D01*
X149170205Y-97551946D01*
X149411214Y-97200764D01*
X149412297Y-97199026D01*
X149413262Y-97197158D01*
X149414109Y-97195177D01*
X149414836Y-97193100D01*
X149415441Y-97190944D01*
X149415924Y-97188727D01*
X149416283Y-97186466D01*
X149416516Y-97184178D01*
X149416622Y-97181880D01*
X149416600Y-97179590D01*
X149416449Y-97177325D01*
X149416166Y-97175102D01*
X149415752Y-97172939D01*
X149415204Y-97170852D01*
X149414520Y-97168859D01*
X149413701Y-97166977D01*
X149281251Y-96836115D01*
X149280923Y-96835151D01*
X149280549Y-96834190D01*
X149279672Y-96832281D01*
X149278632Y-96830401D01*
X149277442Y-96828560D01*
X149276115Y-96826771D01*
X149274664Y-96825045D01*
X149273101Y-96823393D01*
X149271438Y-96821828D01*
X149269689Y-96820361D01*
X149267866Y-96819003D01*
X149265982Y-96817767D01*
X149264050Y-96816664D01*
X149262082Y-96815705D01*
X149260090Y-96814902D01*
X149259090Y-96814563D01*
X149258088Y-96814267D01*
X149257088Y-96814016D01*
X149256089Y-96813811D01*
X148831829Y-96734859D01*
X148830843Y-96734653D01*
X148829869Y-96734399D01*
X148828908Y-96734097D01*
X148827962Y-96733749D01*
X148827032Y-96733358D01*
X148826119Y-96732923D01*
X148825225Y-96732448D01*
X148824351Y-96731933D01*
X148823497Y-96731380D01*
X148822666Y-96730790D01*
X148821858Y-96730165D01*
X148821076Y-96729507D01*
X148820319Y-96728816D01*
X148819589Y-96728095D01*
X148818888Y-96727345D01*
X148818217Y-96726568D01*
X148817576Y-96725765D01*
X148816968Y-96724937D01*
X148816393Y-96724086D01*
X148815854Y-96723214D01*
X148815350Y-96722322D01*
X148814883Y-96721411D01*
X148814455Y-96720484D01*
X148814067Y-96719541D01*
X148813719Y-96718585D01*
X148813414Y-96717616D01*
X148813153Y-96716636D01*
X148812936Y-96715647D01*
X148812765Y-96714651D01*
X148812642Y-96713648D01*
X148812567Y-96712640D01*
X148812541Y-96711629D01*
X148812488Y-96263980D01*
X148812511Y-96262967D01*
X148812584Y-96261958D01*
X148812705Y-96260954D01*
X148812873Y-96259957D01*
X148813088Y-96258968D01*
X148813347Y-96257988D01*
X148813649Y-96257020D01*
X148813994Y-96256064D01*
X148814380Y-96255122D01*
X148814806Y-96254196D01*
X148815772Y-96252397D01*
X148816883Y-96250677D01*
X148818127Y-96249048D01*
X148819496Y-96247523D01*
X148820980Y-96246113D01*
X148822567Y-96244829D01*
X148824250Y-96243684D01*
X148825123Y-96243167D01*
X148826016Y-96242689D01*
X148826928Y-96242252D01*
X148827857Y-96241857D01*
X148828803Y-96241505D01*
X148829763Y-96241197D01*
X148830737Y-96240937D01*
X148831724Y-96240724D01*
X149266672Y-96159841D01*
X149268666Y-96159377D01*
X149270670Y-96158738D01*
X149272671Y-96157935D01*
X149274657Y-96156979D01*
X149276613Y-96155882D01*
X149278526Y-96154654D01*
X149280384Y-96153308D01*
X149282173Y-96151854D01*
X149283880Y-96150303D01*
X149285491Y-96148667D01*
X149286994Y-96146957D01*
X149288375Y-96145185D01*
X149289621Y-96143361D01*
X149290718Y-96141497D01*
X149291655Y-96139605D01*
X149292416Y-96137695D01*
X149425740Y-95826651D01*
X149426603Y-95824789D01*
X149427329Y-95822815D01*
X149427918Y-95820747D01*
X149428371Y-95818602D01*
X149428689Y-95816397D01*
X149428874Y-95814148D01*
X149428927Y-95811873D01*
X149428849Y-95809589D01*
X149428640Y-95807312D01*
X149428302Y-95805060D01*
X149427836Y-95802850D01*
X149427243Y-95800699D01*
X149426524Y-95798624D01*
X149425680Y-95796641D01*
X149424713Y-95794768D01*
X149423623Y-95793022D01*
X149170205Y-95423664D01*
X149169658Y-95422817D01*
X149169154Y-95421945D01*
X149168691Y-95421050D01*
X149168271Y-95420134D01*
X149167893Y-95419198D01*
X149167556Y-95418244D01*
X149167008Y-95416292D01*
X149166624Y-95414294D01*
X149166405Y-95412263D01*
X149166349Y-95410217D01*
X149166454Y-95408169D01*
X149166720Y-95406137D01*
X149167146Y-95404134D01*
X149167730Y-95402176D01*
X149168471Y-95400279D01*
X149169368Y-95398459D01*
X149169874Y-95397582D01*
X149170420Y-95396730D01*
X149171003Y-95395904D01*
X149171625Y-95395107D01*
X149172285Y-95394341D01*
X149172983Y-95393607D01*
X149489504Y-95077086D01*
X149490238Y-95076388D01*
X149491004Y-95075728D01*
X149491800Y-95075105D01*
X149492625Y-95074521D01*
X149493477Y-95073975D01*
X149494353Y-95073467D01*
X149495252Y-95072997D01*
X149496172Y-95072567D01*
X149497111Y-95072175D01*
X149498067Y-95071823D01*
X149500022Y-95071235D01*
X149502022Y-95070807D01*
X149504053Y-95070538D01*
X149506098Y-95070430D01*
X149508142Y-95070485D01*
X149510170Y-95070704D01*
X149511173Y-95070876D01*
X149512167Y-95071089D01*
X149513149Y-95071343D01*
X149514117Y-95071640D01*
X149515070Y-95071978D01*
X149516005Y-95072359D01*
X149516921Y-95072782D01*
X149517816Y-95073248D01*
X149518688Y-95073757D01*
X149519534Y-95074308D01*
X149895375Y-95332224D01*
X149897113Y-95333311D01*
X149898983Y-95334279D01*
X149900967Y-95335126D01*
X149903047Y-95335853D01*
X149905206Y-95336456D01*
X149907426Y-95336936D01*
X149909690Y-95337291D01*
X149911981Y-95337519D01*
X149914281Y-95337620D01*
X149916572Y-95337592D01*
X149918837Y-95337435D01*
X149921059Y-95337146D01*
X149923220Y-95336726D01*
X149925302Y-95336172D01*
X149927289Y-95335483D01*
X149929162Y-95334658D01*
X150230681Y-95211230D01*
X150231640Y-95210889D01*
X150232596Y-95210503D01*
X150233548Y-95210072D01*
X150234493Y-95209599D01*
X150236362Y-95208533D01*
X150238191Y-95207316D01*
X150239968Y-95205963D01*
X150241683Y-95204486D01*
X150243324Y-95202898D01*
X150244879Y-95201212D01*
X150246339Y-95199442D01*
X150247690Y-95197600D01*
X150248923Y-95195700D01*
X150250025Y-95193754D01*
X150250986Y-95191776D01*
X150251794Y-95189778D01*
X150252438Y-95187774D01*
X150252695Y-95186774D01*
X150252906Y-95185777D01*
X150336647Y-94735906D01*
X150336855Y-94734917D01*
X150337112Y-94733941D01*
X150337415Y-94732979D01*
X150337763Y-94732031D01*
X150338156Y-94731100D01*
X150338590Y-94730186D01*
X150339066Y-94729291D01*
X150339581Y-94728416D01*
X150340133Y-94727563D01*
X150340722Y-94726731D01*
X150341346Y-94725924D01*
X150342003Y-94725141D01*
X150342692Y-94724384D01*
X150343411Y-94723655D01*
X150344159Y-94722954D01*
X150344935Y-94722283D01*
X150345737Y-94721644D01*
X150346562Y-94721036D01*
X150347411Y-94720462D01*
X150348281Y-94719923D01*
X150349172Y-94719420D01*
X150350080Y-94718955D01*
X150351006Y-94718527D01*
X150351947Y-94718140D01*
X150352901Y-94717793D01*
X150353869Y-94717489D01*
X150354847Y-94717228D01*
X150355835Y-94717012D01*
X150356831Y-94716841D01*
X150357833Y-94716718D01*
X150358840Y-94716643D01*
X150359851Y-94716618D01*
X150807526Y-94716618D01*
X150808534Y-94716643D01*
G37*
G36*
X151942588Y-99360162D02*
G01*
X151942408Y-99367834D01*
X151941868Y-99375384D01*
X151940973Y-99382802D01*
X151939725Y-99390081D01*
X151938127Y-99397214D01*
X151936184Y-99404191D01*
X151933898Y-99411006D01*
X151931272Y-99417650D01*
X151928311Y-99424116D01*
X151925016Y-99430395D01*
X151921391Y-99436481D01*
X151917440Y-99442364D01*
X151913166Y-99448037D01*
X151908572Y-99453492D01*
X151903660Y-99458721D01*
X151898436Y-99463716D01*
X151892901Y-99468470D01*
X151887060Y-99472974D01*
X151880914Y-99477221D01*
X151874468Y-99481203D01*
X151867725Y-99484911D01*
X151860689Y-99488339D01*
X151853361Y-99491477D01*
X151845746Y-99494319D01*
X151837847Y-99496856D01*
X151829667Y-99499080D01*
X151821209Y-99500984D01*
X151812477Y-99502559D01*
X151803473Y-99503798D01*
X151794202Y-99504692D01*
X151784666Y-99505235D01*
X151774869Y-99505418D01*
X151763113Y-99505241D01*
X151752077Y-99504710D01*
X151741732Y-99503819D01*
X151732052Y-99502565D01*
X151723008Y-99500942D01*
X151714574Y-99498948D01*
X151706723Y-99496577D01*
X151699426Y-99493826D01*
X151692657Y-99490690D01*
X151686388Y-99487164D01*
X151680591Y-99483246D01*
X151675240Y-99478930D01*
X151670306Y-99474213D01*
X151665763Y-99469089D01*
X151661583Y-99463555D01*
X151657738Y-99457607D01*
X151655859Y-99457607D01*
X151655859Y-99499782D01*
X151560266Y-99499782D01*
X151560266Y-99298275D01*
X151655859Y-99298275D01*
X151655859Y-99332962D01*
X151655940Y-99339714D01*
X151656184Y-99346092D01*
X151656597Y-99352107D01*
X151657183Y-99357768D01*
X151657946Y-99363086D01*
X151658892Y-99368073D01*
X151660025Y-99372737D01*
X151661349Y-99377091D01*
X151662870Y-99381143D01*
X151664592Y-99384905D01*
X151666519Y-99388388D01*
X151668657Y-99391601D01*
X151671009Y-99394555D01*
X151673581Y-99397260D01*
X151676376Y-99399728D01*
X151679401Y-99401969D01*
X151682658Y-99403992D01*
X151686154Y-99405809D01*
X151689892Y-99407430D01*
X151693878Y-99408865D01*
X151698115Y-99410125D01*
X151702609Y-99411221D01*
X151707364Y-99412163D01*
X151712384Y-99412961D01*
X151723241Y-99414168D01*
X151735217Y-99414927D01*
X151748348Y-99415320D01*
X151762672Y-99415433D01*
X151774339Y-99415109D01*
X151785104Y-99414162D01*
X151794988Y-99412627D01*
X151804012Y-99410541D01*
X151808208Y-99409302D01*
X151812196Y-99407938D01*
X151815979Y-99406455D01*
X151819560Y-99404855D01*
X151822942Y-99403145D01*
X151826126Y-99401328D01*
X151829116Y-99399408D01*
X151831913Y-99397391D01*
X151834521Y-99395281D01*
X151836943Y-99393082D01*
X151839180Y-99390799D01*
X151841235Y-99388436D01*
X151843111Y-99385997D01*
X151844810Y-99383488D01*
X151846336Y-99380912D01*
X151847690Y-99378274D01*
X151849894Y-99372830D01*
X151851442Y-99367193D01*
X151852356Y-99361397D01*
X151852656Y-99355478D01*
X151852579Y-99352262D01*
X151852348Y-99349119D01*
X151851961Y-99346052D01*
X151851419Y-99343061D01*
X151850720Y-99340149D01*
X151849864Y-99337318D01*
X151848849Y-99334570D01*
X151847677Y-99331906D01*
X151846344Y-99329329D01*
X151844852Y-99326840D01*
X151843200Y-99324442D01*
X151841386Y-99322135D01*
X151839409Y-99319923D01*
X151837271Y-99317806D01*
X151834968Y-99315788D01*
X151832502Y-99313869D01*
X151829871Y-99312052D01*
X151827074Y-99310338D01*
X151824111Y-99308729D01*
X151820981Y-99307228D01*
X151817684Y-99305837D01*
X151814219Y-99304556D01*
X151810584Y-99303388D01*
X151806780Y-99302335D01*
X151802806Y-99301399D01*
X151798661Y-99300582D01*
X151794344Y-99299885D01*
X151789854Y-99299310D01*
X151785192Y-99298860D01*
X151780356Y-99298536D01*
X151775345Y-99298341D01*
X151770159Y-99298275D01*
X151655859Y-99298275D01*
X151560266Y-99298275D01*
X151560266Y-99175562D01*
X151560500Y-99164810D01*
X151561199Y-99154506D01*
X151562354Y-99144644D01*
X151563957Y-99135216D01*
X151566000Y-99126216D01*
X151568475Y-99117636D01*
X151571374Y-99109469D01*
X151574688Y-99101709D01*
X151578410Y-99094348D01*
X151582532Y-99087379D01*
X151587045Y-99080796D01*
X151591942Y-99074590D01*
X151597214Y-99068756D01*
X151602854Y-99063286D01*
X151608853Y-99058173D01*
X151615203Y-99053410D01*
X151621896Y-99048990D01*
X151628925Y-99044907D01*
X151636280Y-99041152D01*
X151643954Y-99037719D01*
X151651939Y-99034602D01*
X151660227Y-99031792D01*
X151668810Y-99029283D01*
X151677680Y-99027068D01*
X151686828Y-99025140D01*
X151696247Y-99023492D01*
X151715863Y-99021007D01*
X151736466Y-99019558D01*
X151757989Y-99019087D01*
X151771124Y-99019309D01*
X151783825Y-99019990D01*
X151796093Y-99021147D01*
X151807935Y-99022801D01*
X151819353Y-99024971D01*
X151830353Y-99027676D01*
X151840938Y-99030936D01*
X151851112Y-99034770D01*
X151860880Y-99039198D01*
X151870245Y-99044238D01*
X151879212Y-99049910D01*
X151887785Y-99056234D01*
X151895969Y-99063230D01*
X151903766Y-99070915D01*
X151911182Y-99079310D01*
X151918220Y-99088434D01*
X151843264Y-99145585D01*
X151841664Y-99143089D01*
X151840022Y-99140696D01*
X151838334Y-99138403D01*
X151836596Y-99136211D01*
X151834806Y-99134116D01*
X151832959Y-99132117D01*
X151831052Y-99130214D01*
X151829081Y-99128403D01*
X151827043Y-99126685D01*
X151824934Y-99125057D01*
X151822750Y-99123517D01*
X151820488Y-99122065D01*
X151818145Y-99120699D01*
X151815716Y-99119417D01*
X151813198Y-99118217D01*
X151810588Y-99117099D01*
X151807881Y-99116060D01*
X151805075Y-99115099D01*
X151802166Y-99114215D01*
X151799149Y-99113406D01*
X151796022Y-99112670D01*
X151792781Y-99112006D01*
X151789423Y-99111413D01*
X151785943Y-99110889D01*
X151778604Y-99110041D01*
X151770738Y-99109450D01*
X151762315Y-99109105D01*
X151753305Y-99108992D01*
X151740940Y-99109183D01*
X151729482Y-99109767D01*
X151718915Y-99110764D01*
X151709225Y-99112192D01*
X151700398Y-99114071D01*
X151692417Y-99116420D01*
X151685267Y-99119257D01*
X151682000Y-99120865D01*
X151678934Y-99122602D01*
X151676069Y-99124471D01*
X151673403Y-99126474D01*
X151670933Y-99128614D01*
X151668658Y-99130892D01*
X151666576Y-99133311D01*
X151664685Y-99135874D01*
X151662982Y-99138584D01*
X151661467Y-99141441D01*
X151660138Y-99144449D01*
X151658991Y-99147610D01*
X151658026Y-99150927D01*
X151657241Y-99154402D01*
X151656634Y-99158036D01*
X151656202Y-99161834D01*
X151655859Y-99169926D01*
X151655859Y-99219588D01*
X151787992Y-99219588D01*
X151797421Y-99219776D01*
X151806559Y-99220333D01*
X151815404Y-99221250D01*
X151823957Y-99222516D01*
X151832217Y-99224122D01*
X151840184Y-99226058D01*
X151847856Y-99228315D01*
X151855234Y-99230882D01*
X151862316Y-99233749D01*
X151869103Y-99236908D01*
X151875594Y-99240347D01*
X151881788Y-99244058D01*
X151887686Y-99248031D01*
X151893285Y-99252255D01*
X151898586Y-99256721D01*
X151903589Y-99261419D01*
X151908292Y-99266339D01*
X151912696Y-99271472D01*
X151916799Y-99276808D01*
X151920602Y-99282336D01*
X151924103Y-99288048D01*
X151927303Y-99293933D01*
X151930200Y-99299982D01*
X151932795Y-99306184D01*
X151935086Y-99312530D01*
X151937073Y-99319011D01*
X151938756Y-99325615D01*
X151940134Y-99332335D01*
X151941207Y-99339159D01*
X151941974Y-99346078D01*
X151942435Y-99353082D01*
X151942487Y-99355478D01*
X151942588Y-99360162D01*
G37*
G36*
X150022058Y-99360162D02*
G01*
X150021877Y-99367834D01*
X150021337Y-99375384D01*
X150020441Y-99382802D01*
X150019193Y-99390081D01*
X150017595Y-99397214D01*
X150015651Y-99404191D01*
X150013364Y-99411006D01*
X150010738Y-99417650D01*
X150007775Y-99424116D01*
X150004479Y-99430395D01*
X150000853Y-99436481D01*
X149996901Y-99442364D01*
X149992626Y-99448037D01*
X149988030Y-99453492D01*
X149983118Y-99458721D01*
X149977892Y-99463716D01*
X149972356Y-99468470D01*
X149966513Y-99472974D01*
X149960367Y-99477221D01*
X149953920Y-99481203D01*
X149947176Y-99484911D01*
X149940137Y-99488339D01*
X149932809Y-99491477D01*
X149925193Y-99494319D01*
X149917293Y-99496856D01*
X149909112Y-99499080D01*
X149900653Y-99500984D01*
X149891920Y-99502559D01*
X149882917Y-99503798D01*
X149873645Y-99504692D01*
X149864109Y-99505235D01*
X149854312Y-99505418D01*
X149842560Y-99505241D01*
X149831527Y-99504710D01*
X149821184Y-99503819D01*
X149811505Y-99502565D01*
X149802462Y-99500942D01*
X149794027Y-99498948D01*
X149786175Y-99496577D01*
X149778876Y-99493826D01*
X149772104Y-99490690D01*
X149765831Y-99487164D01*
X149760031Y-99483246D01*
X149754675Y-99478930D01*
X149749737Y-99474213D01*
X149745189Y-99469089D01*
X149741004Y-99463555D01*
X149737154Y-99457607D01*
X149735302Y-99457607D01*
X149735302Y-99499782D01*
X149639682Y-99499782D01*
X149639682Y-99298275D01*
X149735276Y-99298275D01*
X149735276Y-99332962D01*
X149735356Y-99339714D01*
X149735600Y-99346092D01*
X149736013Y-99352107D01*
X149736599Y-99357768D01*
X149737362Y-99363086D01*
X149738308Y-99368073D01*
X149739441Y-99372737D01*
X149740766Y-99377091D01*
X149742287Y-99381143D01*
X149744008Y-99384905D01*
X149745936Y-99388388D01*
X149748073Y-99391601D01*
X149750425Y-99394555D01*
X149752997Y-99397260D01*
X149755793Y-99399728D01*
X149758817Y-99401969D01*
X149762075Y-99403992D01*
X149765570Y-99405809D01*
X149769309Y-99407430D01*
X149773294Y-99408865D01*
X149777531Y-99410125D01*
X149782025Y-99411221D01*
X149786780Y-99412163D01*
X149791801Y-99412961D01*
X149802658Y-99414168D01*
X149814633Y-99414927D01*
X149827764Y-99415320D01*
X149842088Y-99415433D01*
X149853750Y-99415109D01*
X149864512Y-99414162D01*
X149874392Y-99412627D01*
X149883413Y-99410541D01*
X149887607Y-99409302D01*
X149891594Y-99407938D01*
X149895377Y-99406455D01*
X149898957Y-99404855D01*
X149902337Y-99403145D01*
X149905521Y-99401328D01*
X149908509Y-99399408D01*
X149911306Y-99397391D01*
X149913914Y-99395281D01*
X149916335Y-99393082D01*
X149918571Y-99390799D01*
X149920626Y-99388436D01*
X149922502Y-99385997D01*
X149924201Y-99383488D01*
X149925726Y-99380912D01*
X149927080Y-99378274D01*
X149929284Y-99372830D01*
X149930832Y-99367193D01*
X149931746Y-99361397D01*
X149932046Y-99355478D01*
X149931969Y-99352262D01*
X149931738Y-99349119D01*
X149931351Y-99346052D01*
X149930809Y-99343061D01*
X149930110Y-99340149D01*
X149929254Y-99337318D01*
X149928240Y-99334570D01*
X149927067Y-99331906D01*
X149925735Y-99329329D01*
X149924243Y-99326840D01*
X149922591Y-99324442D01*
X149920777Y-99322135D01*
X149918801Y-99319923D01*
X149916663Y-99317806D01*
X149914361Y-99315788D01*
X149911895Y-99313869D01*
X149909265Y-99312052D01*
X149906469Y-99310338D01*
X149903507Y-99308729D01*
X149900378Y-99307228D01*
X149897082Y-99305837D01*
X149893617Y-99304556D01*
X149889984Y-99303388D01*
X149886181Y-99302335D01*
X149882209Y-99301399D01*
X149878065Y-99300582D01*
X149873749Y-99299885D01*
X149869262Y-99299310D01*
X149864602Y-99298860D01*
X149859768Y-99298536D01*
X149854759Y-99298341D01*
X149849576Y-99298275D01*
X149735276Y-99298275D01*
X149639682Y-99298275D01*
X149639682Y-99175562D01*
X149639917Y-99164810D01*
X149640616Y-99154506D01*
X149641771Y-99144644D01*
X149643375Y-99135216D01*
X149645418Y-99126216D01*
X149647894Y-99117636D01*
X149650793Y-99109469D01*
X149654108Y-99101709D01*
X149657831Y-99094348D01*
X149661954Y-99087379D01*
X149666468Y-99080796D01*
X149671365Y-99074590D01*
X149676638Y-99068756D01*
X149682279Y-99063286D01*
X149688278Y-99058173D01*
X149694629Y-99053410D01*
X149701323Y-99048990D01*
X149708352Y-99044907D01*
X149715707Y-99041152D01*
X149723382Y-99037719D01*
X149731367Y-99034602D01*
X149739655Y-99031792D01*
X149748238Y-99029283D01*
X149757107Y-99027068D01*
X149766255Y-99025140D01*
X149775673Y-99023492D01*
X149795287Y-99021007D01*
X149815886Y-99019558D01*
X149837405Y-99019087D01*
X149850537Y-99019309D01*
X149863234Y-99019990D01*
X149875502Y-99021147D01*
X149887344Y-99022801D01*
X149898764Y-99024971D01*
X149909766Y-99027676D01*
X149920354Y-99030936D01*
X149930532Y-99034770D01*
X149940303Y-99039198D01*
X149949672Y-99044238D01*
X149958643Y-99049910D01*
X149967220Y-99056234D01*
X149975407Y-99063230D01*
X149983206Y-99070915D01*
X149990624Y-99079310D01*
X149997663Y-99088434D01*
X149922680Y-99145585D01*
X149921080Y-99143089D01*
X149919438Y-99140696D01*
X149917751Y-99138403D01*
X149916015Y-99136211D01*
X149914226Y-99134116D01*
X149912380Y-99132117D01*
X149910475Y-99130214D01*
X149908506Y-99128403D01*
X149906470Y-99126685D01*
X149904362Y-99125057D01*
X149902181Y-99123517D01*
X149899921Y-99122065D01*
X149897580Y-99120699D01*
X149895154Y-99119417D01*
X149892638Y-99118217D01*
X149890030Y-99117099D01*
X149887326Y-99116060D01*
X149884523Y-99115099D01*
X149881616Y-99114215D01*
X149878602Y-99113406D01*
X149875477Y-99112670D01*
X149872238Y-99112006D01*
X149868881Y-99111413D01*
X149865403Y-99110889D01*
X149858069Y-99110041D01*
X149850205Y-99109450D01*
X149841783Y-99109105D01*
X149832774Y-99108992D01*
X149820404Y-99109183D01*
X149808942Y-99109767D01*
X149798372Y-99110764D01*
X149788679Y-99112192D01*
X149779849Y-99114071D01*
X149771866Y-99116420D01*
X149764715Y-99119257D01*
X149761446Y-99120865D01*
X149758380Y-99122602D01*
X149755515Y-99124471D01*
X149752848Y-99126474D01*
X149750378Y-99128614D01*
X149748102Y-99130892D01*
X149746020Y-99133311D01*
X149744128Y-99135874D01*
X149742426Y-99138584D01*
X149740910Y-99141441D01*
X149739581Y-99144449D01*
X149738434Y-99147610D01*
X149737469Y-99150927D01*
X149736684Y-99154402D01*
X149736077Y-99158036D01*
X149735645Y-99161834D01*
X149735302Y-99169926D01*
X149735302Y-99219588D01*
X149867435Y-99219588D01*
X149876862Y-99219776D01*
X149885998Y-99220333D01*
X149894842Y-99221250D01*
X149903394Y-99222516D01*
X149911653Y-99224122D01*
X149919619Y-99226058D01*
X149927291Y-99228315D01*
X149934670Y-99230882D01*
X149941753Y-99233749D01*
X149948541Y-99236908D01*
X149955033Y-99240347D01*
X149961228Y-99244058D01*
X149967127Y-99248031D01*
X149972728Y-99252255D01*
X149978031Y-99256721D01*
X149983035Y-99261419D01*
X149987740Y-99266339D01*
X149992146Y-99271472D01*
X149996251Y-99276808D01*
X150000056Y-99282336D01*
X150003559Y-99288048D01*
X150006761Y-99293933D01*
X150009660Y-99299982D01*
X150012256Y-99306184D01*
X150014549Y-99312530D01*
X150016538Y-99319011D01*
X150018222Y-99325615D01*
X150019602Y-99332335D01*
X150020675Y-99339159D01*
X150021443Y-99346078D01*
X150021904Y-99353082D01*
X150021956Y-99355478D01*
X150022058Y-99360162D01*
G37*
G36*
X151132485Y-99301863D02*
G01*
X151131278Y-99334872D01*
X151130320Y-99349064D01*
X151129104Y-99361887D01*
X151127614Y-99373472D01*
X151125833Y-99383950D01*
X151123744Y-99393451D01*
X151121331Y-99402106D01*
X151118578Y-99410044D01*
X151115467Y-99417397D01*
X151111983Y-99424294D01*
X151108108Y-99430866D01*
X151103827Y-99437244D01*
X151099123Y-99443558D01*
X151093853Y-99450121D01*
X151088230Y-99456441D01*
X151082253Y-99462491D01*
X151075920Y-99468248D01*
X151069232Y-99473686D01*
X151062184Y-99478781D01*
X151054778Y-99483508D01*
X151047010Y-99487842D01*
X151038880Y-99491760D01*
X151034679Y-99493554D01*
X151030386Y-99495235D01*
X151026002Y-99496799D01*
X151021527Y-99498243D01*
X151016960Y-99499564D01*
X151012301Y-99500760D01*
X151007549Y-99501826D01*
X151002706Y-99502760D01*
X150997771Y-99503559D01*
X150992742Y-99504220D01*
X150987621Y-99504739D01*
X150982407Y-99505114D01*
X150977100Y-99505341D01*
X150971700Y-99505417D01*
X150962619Y-99505156D01*
X150953662Y-99504385D01*
X150944841Y-99503121D01*
X150936172Y-99501383D01*
X150927668Y-99499189D01*
X150919342Y-99496557D01*
X150911209Y-99493505D01*
X150903282Y-99490052D01*
X150895574Y-99486214D01*
X150888100Y-99482010D01*
X150880874Y-99477459D01*
X150873909Y-99472578D01*
X150867218Y-99467386D01*
X150860816Y-99461900D01*
X150854717Y-99456138D01*
X150848933Y-99450119D01*
X150848933Y-99499782D01*
X150753366Y-99499782D01*
X150753366Y-99261816D01*
X150848933Y-99261816D01*
X150849308Y-99288086D01*
X150849952Y-99301226D01*
X150851056Y-99314198D01*
X150852736Y-99326872D01*
X150855110Y-99339121D01*
X150858294Y-99350815D01*
X150860226Y-99356413D01*
X150862404Y-99361825D01*
X150864843Y-99367033D01*
X150867557Y-99372022D01*
X150870562Y-99376776D01*
X150873871Y-99381278D01*
X150877499Y-99385512D01*
X150881461Y-99389463D01*
X150885772Y-99393114D01*
X150890445Y-99396449D01*
X150895496Y-99399452D01*
X150900939Y-99402107D01*
X150906789Y-99404398D01*
X150913060Y-99406308D01*
X150919767Y-99407822D01*
X150926924Y-99408923D01*
X150934547Y-99409595D01*
X150942649Y-99409823D01*
X150950835Y-99409609D01*
X150958536Y-99408974D01*
X150965767Y-99407933D01*
X150972543Y-99406499D01*
X150978878Y-99404685D01*
X150984788Y-99402506D01*
X150990286Y-99399974D01*
X150995388Y-99397104D01*
X151000108Y-99393908D01*
X151004461Y-99390401D01*
X151008462Y-99386595D01*
X151012126Y-99382505D01*
X151015468Y-99378144D01*
X151018501Y-99373526D01*
X151021242Y-99368664D01*
X151023704Y-99363571D01*
X151025902Y-99358261D01*
X151027852Y-99352748D01*
X151029568Y-99347046D01*
X151031064Y-99341167D01*
X151032356Y-99335126D01*
X151033459Y-99328936D01*
X151035153Y-99316162D01*
X151036265Y-99302955D01*
X151036913Y-99289423D01*
X151037216Y-99275673D01*
X151037290Y-99261816D01*
X151036913Y-99234495D01*
X151036265Y-99221076D01*
X151035153Y-99207965D01*
X151033459Y-99195272D01*
X151031064Y-99183107D01*
X151027852Y-99171579D01*
X151025902Y-99166088D01*
X151023704Y-99160798D01*
X151021242Y-99155722D01*
X151018501Y-99150874D01*
X151015468Y-99146267D01*
X151012126Y-99141916D01*
X151008462Y-99137835D01*
X151004461Y-99134036D01*
X151000108Y-99130534D01*
X150995388Y-99127342D01*
X150990286Y-99124474D01*
X150984788Y-99121944D01*
X150978878Y-99119766D01*
X150972543Y-99117953D01*
X150965767Y-99116519D01*
X150958536Y-99115477D01*
X150950835Y-99114843D01*
X150942649Y-99114628D01*
X150934547Y-99114856D01*
X150926924Y-99115529D01*
X150919767Y-99116631D01*
X150913060Y-99118146D01*
X150906789Y-99120057D01*
X150900939Y-99122348D01*
X150895496Y-99125002D01*
X150890445Y-99128004D01*
X150885772Y-99131337D01*
X150881461Y-99134985D01*
X150877499Y-99138930D01*
X150873871Y-99143158D01*
X150870562Y-99147652D01*
X150867557Y-99152395D01*
X150864843Y-99157371D01*
X150862404Y-99162564D01*
X150860226Y-99167957D01*
X150858294Y-99173535D01*
X150856593Y-99179280D01*
X150855110Y-99185177D01*
X150853829Y-99191209D01*
X150852736Y-99197359D01*
X150851056Y-99209952D01*
X150849952Y-99222825D01*
X150849308Y-99235847D01*
X150849007Y-99248887D01*
X150848933Y-99261816D01*
X150753366Y-99261816D01*
X150753366Y-98832582D01*
X150848933Y-98832582D01*
X150848933Y-99075311D01*
X150855645Y-99069120D01*
X150862434Y-99063210D01*
X150869311Y-99057596D01*
X150876286Y-99052294D01*
X150883371Y-99047323D01*
X150890577Y-99042697D01*
X150897915Y-99038433D01*
X150905395Y-99034549D01*
X150913029Y-99031059D01*
X150920828Y-99027982D01*
X150928803Y-99025333D01*
X150936965Y-99023128D01*
X150945324Y-99021385D01*
X150953893Y-99020119D01*
X150962681Y-99019348D01*
X150971700Y-99019087D01*
X150982407Y-99019390D01*
X150992742Y-99020282D01*
X151002706Y-99021739D01*
X151012301Y-99023737D01*
X151021527Y-99026251D01*
X151030386Y-99029256D01*
X151038880Y-99032728D01*
X151047010Y-99036642D01*
X151054778Y-99040974D01*
X151062184Y-99045700D01*
X151069232Y-99050795D01*
X151075920Y-99056234D01*
X151082253Y-99061994D01*
X151088230Y-99068048D01*
X151093853Y-99074374D01*
X151099123Y-99080946D01*
X151103827Y-99087251D01*
X151108108Y-99093619D01*
X151111983Y-99100180D01*
X151115467Y-99107064D01*
X151117068Y-99110667D01*
X151118578Y-99114399D01*
X151119998Y-99118276D01*
X151121331Y-99122315D01*
X151122579Y-99126531D01*
X151123744Y-99130941D01*
X151125833Y-99140405D01*
X151127614Y-99150837D01*
X151129104Y-99162367D01*
X151130320Y-99175123D01*
X151131278Y-99189234D01*
X151131994Y-99204830D01*
X151132485Y-99222039D01*
X151132767Y-99240991D01*
X151132858Y-99261816D01*
X151132485Y-99301863D01*
G37*
G36*
X149616663Y-98557283D02*
G01*
X149616780Y-98563263D01*
X149617128Y-98569082D01*
X149617703Y-98574739D01*
X149618499Y-98580231D01*
X149619511Y-98585556D01*
X149620734Y-98590713D01*
X149622163Y-98595699D01*
X149623794Y-98600514D01*
X149625621Y-98605154D01*
X149627640Y-98609618D01*
X149629845Y-98613904D01*
X149632231Y-98618011D01*
X149634794Y-98621935D01*
X149637528Y-98625676D01*
X149640429Y-98629232D01*
X149643491Y-98632600D01*
X149646710Y-98635778D01*
X149650081Y-98638766D01*
X149653598Y-98641560D01*
X149657257Y-98644159D01*
X149661053Y-98646561D01*
X149664980Y-98648764D01*
X149669034Y-98650767D01*
X149673210Y-98652566D01*
X149677503Y-98654161D01*
X149681907Y-98655550D01*
X149686419Y-98656730D01*
X149691032Y-98657700D01*
X149695742Y-98658458D01*
X149700544Y-98659001D01*
X149705433Y-98659329D01*
X149710405Y-98659438D01*
X149715455Y-98659329D01*
X149720419Y-98659001D01*
X149725290Y-98658458D01*
X149730065Y-98657700D01*
X149734739Y-98656730D01*
X149739307Y-98655550D01*
X149743763Y-98654161D01*
X149748104Y-98652566D01*
X149752324Y-98650767D01*
X149756418Y-98648764D01*
X149760383Y-98646561D01*
X149764212Y-98644159D01*
X149767901Y-98641560D01*
X149771446Y-98638766D01*
X149774841Y-98635778D01*
X149778082Y-98632600D01*
X149781163Y-98629232D01*
X149784081Y-98625676D01*
X149786830Y-98621935D01*
X149789405Y-98618011D01*
X149791802Y-98613904D01*
X149794016Y-98609618D01*
X149796042Y-98605154D01*
X149797875Y-98600514D01*
X149799510Y-98595699D01*
X149800943Y-98590713D01*
X149802168Y-98585556D01*
X149803182Y-98580231D01*
X149803979Y-98574739D01*
X149804554Y-98569082D01*
X149804902Y-98563263D01*
X149805019Y-98557283D01*
X149805019Y-98274311D01*
X149900560Y-98274311D01*
X149900560Y-98590118D01*
X149900561Y-98590118D01*
X149900316Y-98600070D01*
X149899595Y-98609724D01*
X149898414Y-98619080D01*
X149896790Y-98628135D01*
X149894740Y-98636890D01*
X149892282Y-98645342D01*
X149889433Y-98653490D01*
X149886210Y-98661334D01*
X149882630Y-98668871D01*
X149878710Y-98676101D01*
X149874467Y-98683023D01*
X149869919Y-98689635D01*
X149865083Y-98695937D01*
X149859976Y-98701926D01*
X149854614Y-98707602D01*
X149849016Y-98712964D01*
X149843199Y-98718010D01*
X149837179Y-98722739D01*
X149830974Y-98727150D01*
X149824600Y-98731242D01*
X149818076Y-98735013D01*
X149811418Y-98738463D01*
X149804643Y-98741590D01*
X149797769Y-98744393D01*
X149790812Y-98746870D01*
X149783791Y-98749021D01*
X149769621Y-98752340D01*
X149755396Y-98754338D01*
X149748307Y-98754838D01*
X149741255Y-98755006D01*
X149732030Y-98754786D01*
X149722967Y-98754126D01*
X149714075Y-98753028D01*
X149705363Y-98751489D01*
X149696843Y-98749512D01*
X149688522Y-98747095D01*
X149680412Y-98744238D01*
X149672523Y-98740943D01*
X149664863Y-98737209D01*
X149657444Y-98733036D01*
X149650274Y-98728423D01*
X149643363Y-98723372D01*
X149636722Y-98717883D01*
X149630361Y-98711954D01*
X149624288Y-98705587D01*
X149618515Y-98698782D01*
X149616663Y-98698782D01*
X149616663Y-98749423D01*
X149521122Y-98749423D01*
X149521122Y-98274311D01*
X149616663Y-98274311D01*
X149616663Y-98557283D01*
G37*
G36*
X149211268Y-99230425D02*
G01*
X149212157Y-99246648D01*
X149212459Y-99263588D01*
X149212130Y-99281431D01*
X149211161Y-99298425D01*
X149209576Y-99314589D01*
X149207397Y-99329941D01*
X149204648Y-99344500D01*
X149201353Y-99358284D01*
X149197536Y-99371311D01*
X149193221Y-99383601D01*
X149188430Y-99395172D01*
X149183189Y-99406042D01*
X149177519Y-99416230D01*
X149171446Y-99425754D01*
X149164993Y-99434633D01*
X149158183Y-99442885D01*
X149151040Y-99450530D01*
X149143588Y-99457584D01*
X149135850Y-99464068D01*
X149127850Y-99469999D01*
X149119612Y-99475396D01*
X149111160Y-99480278D01*
X149102517Y-99484663D01*
X149093706Y-99488569D01*
X149075678Y-99495020D01*
X149057265Y-99499780D01*
X149038657Y-99502996D01*
X149020043Y-99504817D01*
X149001612Y-99505391D01*
X148989702Y-99505126D01*
X148977875Y-99504319D01*
X148966147Y-99502958D01*
X148954534Y-99501028D01*
X148943054Y-99498517D01*
X148931721Y-99495410D01*
X148920554Y-99491693D01*
X148909567Y-99487353D01*
X148898778Y-99482377D01*
X148888203Y-99476749D01*
X148877858Y-99470458D01*
X148867760Y-99463489D01*
X148857925Y-99455827D01*
X148848370Y-99447461D01*
X148839110Y-99438375D01*
X148830163Y-99428556D01*
X148899510Y-99369501D01*
X148904912Y-99374813D01*
X148910556Y-99379831D01*
X148916423Y-99384547D01*
X148922491Y-99388956D01*
X148928740Y-99393051D01*
X148935149Y-99396824D01*
X148941698Y-99400270D01*
X148948365Y-99403381D01*
X148955130Y-99406151D01*
X148961973Y-99408574D01*
X148968872Y-99410642D01*
X148975806Y-99412349D01*
X148982757Y-99413688D01*
X148989701Y-99414653D01*
X148996619Y-99415237D01*
X149003491Y-99415433D01*
X149009589Y-99415317D01*
X149015577Y-99414972D01*
X149021450Y-99414396D01*
X149027202Y-99413589D01*
X149032826Y-99412553D01*
X149038319Y-99411287D01*
X149043675Y-99409792D01*
X149048887Y-99408067D01*
X149053952Y-99406112D01*
X149058862Y-99403929D01*
X149063612Y-99401517D01*
X149068198Y-99398876D01*
X149072614Y-99396007D01*
X149076854Y-99392910D01*
X149080912Y-99389584D01*
X149084784Y-99386031D01*
X149088463Y-99382250D01*
X149091945Y-99378241D01*
X149095224Y-99374005D01*
X149098294Y-99369541D01*
X149101150Y-99364851D01*
X149103786Y-99359934D01*
X149106197Y-99354790D01*
X149108377Y-99349420D01*
X149110322Y-99343823D01*
X149112025Y-99338001D01*
X149113481Y-99331952D01*
X149114685Y-99325678D01*
X149115630Y-99319178D01*
X149116313Y-99312453D01*
X149116726Y-99305503D01*
X149116865Y-99298328D01*
X148820823Y-99298328D01*
X148820823Y-99219588D01*
X148916364Y-99219588D01*
X149116865Y-99219588D01*
X149116574Y-99212922D01*
X149116051Y-99206455D01*
X149115302Y-99200188D01*
X149114331Y-99194120D01*
X149113144Y-99188253D01*
X149111743Y-99182589D01*
X149110136Y-99177127D01*
X149108326Y-99171868D01*
X149106318Y-99166814D01*
X149104117Y-99161965D01*
X149101728Y-99157323D01*
X149099156Y-99152887D01*
X149096405Y-99148660D01*
X149093480Y-99144641D01*
X149090387Y-99140832D01*
X149087129Y-99137233D01*
X149083712Y-99133846D01*
X149080141Y-99130671D01*
X149076420Y-99127709D01*
X149072554Y-99124961D01*
X149068548Y-99122428D01*
X149064406Y-99120110D01*
X149060135Y-99118010D01*
X149055737Y-99116126D01*
X149051219Y-99114461D01*
X149046585Y-99113015D01*
X149041840Y-99111790D01*
X149036988Y-99110785D01*
X149032035Y-99110002D01*
X149026985Y-99109441D01*
X149021843Y-99109105D01*
X149016614Y-99108992D01*
X149011388Y-99109105D01*
X149006253Y-99109441D01*
X149001215Y-99110002D01*
X148996278Y-99110785D01*
X148991446Y-99111790D01*
X148986723Y-99113015D01*
X148982113Y-99114461D01*
X148977621Y-99116126D01*
X148973252Y-99118010D01*
X148969009Y-99120110D01*
X148964896Y-99122428D01*
X148960919Y-99124961D01*
X148957081Y-99127709D01*
X148953387Y-99130671D01*
X148949841Y-99133846D01*
X148946447Y-99137233D01*
X148943209Y-99140832D01*
X148940133Y-99144641D01*
X148937221Y-99148660D01*
X148934480Y-99152887D01*
X148931912Y-99157323D01*
X148929522Y-99161965D01*
X148927314Y-99166814D01*
X148925293Y-99171868D01*
X148923463Y-99177127D01*
X148921829Y-99182589D01*
X148920394Y-99188254D01*
X148919163Y-99194120D01*
X148918140Y-99200188D01*
X148917330Y-99206455D01*
X148916736Y-99212922D01*
X148916364Y-99219588D01*
X148820823Y-99219588D01*
X148820823Y-99219561D01*
X148821086Y-99208187D01*
X148821869Y-99197083D01*
X148823155Y-99186254D01*
X148824932Y-99175706D01*
X148827184Y-99165446D01*
X148829899Y-99155480D01*
X148833062Y-99145813D01*
X148836659Y-99136452D01*
X148840675Y-99127402D01*
X148845098Y-99118670D01*
X148849912Y-99110262D01*
X148855104Y-99102183D01*
X148860660Y-99094440D01*
X148866565Y-99087038D01*
X148872806Y-99079984D01*
X148879368Y-99073283D01*
X148886238Y-99066942D01*
X148893401Y-99060967D01*
X148900844Y-99055363D01*
X148908551Y-99050137D01*
X148916510Y-99045294D01*
X148924706Y-99040841D01*
X148933125Y-99036784D01*
X148941753Y-99033128D01*
X148950576Y-99029880D01*
X148959580Y-99027045D01*
X148968750Y-99024631D01*
X148978074Y-99022641D01*
X148987536Y-99021083D01*
X148997123Y-99019963D01*
X149006820Y-99019287D01*
X149016614Y-99019060D01*
X149033948Y-99019779D01*
X149051397Y-99021997D01*
X149060111Y-99023698D01*
X149068790Y-99025810D01*
X149077413Y-99028344D01*
X149085958Y-99031312D01*
X149094405Y-99034726D01*
X149102731Y-99038598D01*
X149110916Y-99042940D01*
X149118938Y-99047764D01*
X149126777Y-99053080D01*
X149134410Y-99058902D01*
X149141816Y-99065241D01*
X149148975Y-99072109D01*
X149155865Y-99079518D01*
X149162464Y-99087479D01*
X149168752Y-99096005D01*
X149174707Y-99105107D01*
X149180308Y-99114797D01*
X149185533Y-99125087D01*
X149190362Y-99135989D01*
X149194772Y-99147514D01*
X149198744Y-99159675D01*
X149202255Y-99172483D01*
X149205284Y-99185950D01*
X149207810Y-99200089D01*
X149209812Y-99214910D01*
X149210251Y-99219588D01*
X149211268Y-99230425D01*
G37*
G36*
X148912163Y-98269497D02*
G01*
X148922326Y-98270533D01*
X148932410Y-98271995D01*
X148942398Y-98273890D01*
X148952271Y-98276224D01*
X148962010Y-98279003D01*
X148971595Y-98282234D01*
X148981010Y-98285923D01*
X148990234Y-98290077D01*
X148999249Y-98294703D01*
X149008036Y-98299806D01*
X149016578Y-98305395D01*
X149024854Y-98311474D01*
X149032846Y-98318050D01*
X149040536Y-98325131D01*
X149047905Y-98332722D01*
X149054934Y-98340830D01*
X149061605Y-98349462D01*
X149067898Y-98358623D01*
X149073795Y-98368322D01*
X149079278Y-98378563D01*
X149084327Y-98389354D01*
X149088924Y-98400701D01*
X149093050Y-98412610D01*
X149096687Y-98425089D01*
X149099816Y-98438143D01*
X149102418Y-98451780D01*
X149104474Y-98466005D01*
X149105966Y-98480825D01*
X149106875Y-98496247D01*
X149107182Y-98512277D01*
X149106875Y-98528233D01*
X149105966Y-98543584D01*
X149104474Y-98558338D01*
X149102418Y-98572502D01*
X149099816Y-98586080D01*
X149096687Y-98599080D01*
X149093050Y-98611508D01*
X149088924Y-98623371D01*
X149084327Y-98634675D01*
X149079278Y-98645425D01*
X149073795Y-98655630D01*
X149067898Y-98665294D01*
X149061605Y-98674425D01*
X149054934Y-98683028D01*
X149047905Y-98691111D01*
X149040536Y-98698679D01*
X149032846Y-98705739D01*
X149024854Y-98712298D01*
X149016578Y-98718361D01*
X149008036Y-98723935D01*
X148999249Y-98729026D01*
X148990234Y-98733641D01*
X148981010Y-98737787D01*
X148971595Y-98741469D01*
X148952271Y-98747468D01*
X148932410Y-98751689D01*
X148912163Y-98754185D01*
X148891678Y-98755006D01*
X148878325Y-98754604D01*
X148865324Y-98753422D01*
X148852677Y-98751490D01*
X148840384Y-98748840D01*
X148828449Y-98745504D01*
X148816871Y-98741513D01*
X148805654Y-98736900D01*
X148794798Y-98731696D01*
X148784305Y-98725932D01*
X148774177Y-98719641D01*
X148764415Y-98712854D01*
X148755021Y-98705602D01*
X148745996Y-98697918D01*
X148737342Y-98689833D01*
X148729061Y-98681379D01*
X148721154Y-98672588D01*
X148791428Y-98609803D01*
X148795938Y-98615148D01*
X148800683Y-98620278D01*
X148805656Y-98625174D01*
X148810850Y-98629819D01*
X148816258Y-98634194D01*
X148821874Y-98638283D01*
X148827689Y-98642067D01*
X148833698Y-98645528D01*
X148839893Y-98648649D01*
X148846268Y-98651412D01*
X148852815Y-98653798D01*
X148859528Y-98655791D01*
X148866399Y-98657371D01*
X148873422Y-98658523D01*
X148876988Y-98658932D01*
X148880589Y-98659226D01*
X148884225Y-98659405D01*
X148887895Y-98659465D01*
X148895091Y-98659335D01*
X148902099Y-98658945D01*
X148908915Y-98658290D01*
X148915537Y-98657370D01*
X148921962Y-98656180D01*
X148928188Y-98654718D01*
X148934212Y-98652981D01*
X148940031Y-98650967D01*
X148945644Y-98648672D01*
X148951046Y-98646095D01*
X148956237Y-98643232D01*
X148961212Y-98640081D01*
X148965971Y-98636638D01*
X148970509Y-98632902D01*
X148974824Y-98628869D01*
X148978914Y-98624537D01*
X148982777Y-98619902D01*
X148986409Y-98614963D01*
X148989808Y-98609717D01*
X148992972Y-98604160D01*
X148995897Y-98598290D01*
X148998581Y-98592104D01*
X149001022Y-98585600D01*
X149003218Y-98578774D01*
X149005164Y-98571625D01*
X149006860Y-98564148D01*
X149008302Y-98556343D01*
X149009487Y-98548205D01*
X149010413Y-98539732D01*
X149011078Y-98530922D01*
X149011479Y-98521771D01*
X149011614Y-98512277D01*
X149011079Y-98493480D01*
X149009488Y-98476064D01*
X149008303Y-98467867D01*
X149006862Y-98460006D01*
X149005167Y-98452480D01*
X149003221Y-98445284D01*
X149001027Y-98438416D01*
X148998587Y-98431874D01*
X148995903Y-98425653D01*
X148992979Y-98419752D01*
X148989816Y-98414167D01*
X148986418Y-98408895D01*
X148982786Y-98403934D01*
X148978924Y-98399280D01*
X148974835Y-98394931D01*
X148970520Y-98390884D01*
X148965982Y-98387136D01*
X148961224Y-98383683D01*
X148956249Y-98380523D01*
X148951058Y-98377654D01*
X148945655Y-98375071D01*
X148940042Y-98372773D01*
X148934222Y-98370756D01*
X148928198Y-98369018D01*
X148921971Y-98367555D01*
X148915544Y-98366364D01*
X148902103Y-98364789D01*
X148887895Y-98364269D01*
X148880589Y-98364508D01*
X148873421Y-98365212D01*
X148866397Y-98366363D01*
X148859524Y-98367944D01*
X148852810Y-98369936D01*
X148846261Y-98372323D01*
X148839885Y-98375085D01*
X148833688Y-98378206D01*
X148827678Y-98381668D01*
X148821862Y-98385452D01*
X148816247Y-98389540D01*
X148810839Y-98393916D01*
X148805646Y-98398561D01*
X148800675Y-98403457D01*
X148795934Y-98408586D01*
X148791428Y-98413932D01*
X148721154Y-98351146D01*
X148729066Y-98342341D01*
X148737351Y-98333876D01*
X148746008Y-98325781D01*
X148755035Y-98318090D01*
X148764432Y-98310833D01*
X148774195Y-98304041D01*
X148784324Y-98297747D01*
X148794818Y-98291982D01*
X148805673Y-98286777D01*
X148816890Y-98282163D01*
X148828466Y-98278173D01*
X148840399Y-98274838D01*
X148852689Y-98272189D01*
X148865333Y-98270258D01*
X148871787Y-98269571D01*
X148878330Y-98269076D01*
X148884960Y-98268776D01*
X148891678Y-98268675D01*
X148912163Y-98269497D01*
G37*
G36*
X149322953Y-99019307D02*
G01*
X149332165Y-99019966D01*
X149341185Y-99021065D01*
X149350006Y-99022603D01*
X149358617Y-99024581D01*
X149367012Y-99026998D01*
X149375182Y-99029854D01*
X149383119Y-99033150D01*
X149390814Y-99036884D01*
X149398259Y-99041057D01*
X149405446Y-99045669D01*
X149412367Y-99050720D01*
X149419013Y-99056210D01*
X149425377Y-99062139D01*
X149431449Y-99068505D01*
X149437222Y-99075311D01*
X149439127Y-99075311D01*
X149439127Y-99024722D01*
X149534668Y-99024722D01*
X149534668Y-99499782D01*
X149439127Y-99499782D01*
X149439127Y-99213953D01*
X149438994Y-99207571D01*
X149438601Y-99201418D01*
X149437955Y-99195491D01*
X149437065Y-99189790D01*
X149435938Y-99184312D01*
X149434584Y-99179055D01*
X149433011Y-99174018D01*
X149431226Y-99169200D01*
X149429239Y-99164598D01*
X149427056Y-99160211D01*
X149424687Y-99156037D01*
X149422139Y-99152074D01*
X149419421Y-99148321D01*
X149416541Y-99144777D01*
X149413507Y-99141439D01*
X149410328Y-99138305D01*
X149407011Y-99135375D01*
X149403565Y-99132645D01*
X149399998Y-99130116D01*
X149396319Y-99127784D01*
X149392535Y-99125649D01*
X149388655Y-99123708D01*
X149384686Y-99121960D01*
X149380638Y-99120403D01*
X149372335Y-99117856D01*
X149363811Y-99116054D01*
X149355133Y-99114982D01*
X149346365Y-99114628D01*
X149341887Y-99114706D01*
X149337585Y-99114943D01*
X149333439Y-99115345D01*
X149329426Y-99115918D01*
X149325523Y-99116666D01*
X149321709Y-99117596D01*
X149317961Y-99118713D01*
X149314258Y-99120022D01*
X149310577Y-99121530D01*
X149306896Y-99123241D01*
X149303193Y-99125162D01*
X149299447Y-99127297D01*
X149295634Y-99129653D01*
X149291733Y-99132234D01*
X149287722Y-99135047D01*
X149283579Y-99138097D01*
X149214232Y-99055626D01*
X149219713Y-99051509D01*
X149225266Y-99047599D01*
X149230896Y-99043903D01*
X149236608Y-99040429D01*
X149242409Y-99037186D01*
X149248303Y-99034181D01*
X149254295Y-99031424D01*
X149260392Y-99028923D01*
X149266597Y-99026685D01*
X149272918Y-99024718D01*
X149279359Y-99023032D01*
X149285926Y-99021633D01*
X149292624Y-99020532D01*
X149299458Y-99019734D01*
X149306433Y-99019250D01*
X149313556Y-99019087D01*
X149322953Y-99019307D01*
G37*
G36*
X151943885Y-98480093D02*
G01*
X151944774Y-98496315D01*
X151945075Y-98513256D01*
X151944747Y-98531094D01*
X151943778Y-98548084D01*
X151942193Y-98564244D01*
X151940014Y-98579592D01*
X151937265Y-98594147D01*
X151933970Y-98607927D01*
X151930154Y-98620952D01*
X151925838Y-98633238D01*
X151921048Y-98644806D01*
X151915806Y-98655674D01*
X151910137Y-98665859D01*
X151904064Y-98675382D01*
X151897611Y-98684259D01*
X151890802Y-98692509D01*
X151883659Y-98700152D01*
X151876208Y-98707206D01*
X151868471Y-98713688D01*
X151860472Y-98719618D01*
X151852235Y-98725014D01*
X151843783Y-98729895D01*
X151835141Y-98734279D01*
X151826332Y-98738185D01*
X151808306Y-98744635D01*
X151789896Y-98749394D01*
X151771292Y-98752611D01*
X151752682Y-98754432D01*
X151734256Y-98755006D01*
X151722341Y-98754740D01*
X151710509Y-98753933D01*
X151698778Y-98752572D01*
X151687162Y-98750643D01*
X151675679Y-98748131D01*
X151664344Y-98745024D01*
X151653175Y-98741307D01*
X151642187Y-98736968D01*
X151631397Y-98731991D01*
X151620821Y-98726364D01*
X151610476Y-98720073D01*
X151600377Y-98713103D01*
X151590542Y-98705442D01*
X151580986Y-98697075D01*
X151571726Y-98687990D01*
X151562779Y-98678171D01*
X151632126Y-98619169D01*
X151637523Y-98624472D01*
X151643163Y-98629483D01*
X151649025Y-98634195D01*
X151655089Y-98638601D01*
X151661335Y-98642695D01*
X151667740Y-98646468D01*
X151674286Y-98649915D01*
X151680952Y-98653029D01*
X151687716Y-98655802D01*
X151694559Y-98658227D01*
X151701459Y-98660299D01*
X151708397Y-98662009D01*
X151715351Y-98663351D01*
X151722301Y-98664318D01*
X151729227Y-98664903D01*
X151736108Y-98665100D01*
X151742206Y-98664985D01*
X151748194Y-98664639D01*
X151754067Y-98664063D01*
X151759819Y-98663257D01*
X151765445Y-98662220D01*
X151770939Y-98660954D01*
X151776295Y-98659458D01*
X151781508Y-98657733D01*
X151786573Y-98655779D01*
X151791485Y-98653595D01*
X151796237Y-98651182D01*
X151800824Y-98648541D01*
X151805240Y-98645671D01*
X151809481Y-98642573D01*
X151813541Y-98639246D01*
X151817414Y-98635692D01*
X151821095Y-98631909D01*
X151824578Y-98627899D01*
X151827858Y-98623661D01*
X151830929Y-98619196D01*
X151833786Y-98614503D01*
X151836423Y-98609584D01*
X151838835Y-98604438D01*
X151841017Y-98599065D01*
X151842962Y-98593466D01*
X151844666Y-98587640D01*
X151846122Y-98581588D01*
X151847327Y-98575310D01*
X151848273Y-98568807D01*
X151848955Y-98562077D01*
X151849369Y-98555123D01*
X151849508Y-98547943D01*
X151553413Y-98547943D01*
X151553413Y-98469256D01*
X151648980Y-98469256D01*
X151849508Y-98469256D01*
X151849215Y-98462586D01*
X151848690Y-98456115D01*
X151847939Y-98449844D01*
X151846966Y-98443773D01*
X151845776Y-98437904D01*
X151844374Y-98432237D01*
X151842765Y-98426774D01*
X151840954Y-98421514D01*
X151838944Y-98416459D01*
X151836742Y-98411610D01*
X151834352Y-98406968D01*
X151831779Y-98402532D01*
X151829027Y-98398305D01*
X151826102Y-98394287D01*
X151823007Y-98390479D01*
X151819749Y-98386882D01*
X151816331Y-98383496D01*
X151812760Y-98380322D01*
X151809038Y-98377362D01*
X151805172Y-98374615D01*
X151801165Y-98372084D01*
X151797024Y-98369768D01*
X151792752Y-98367669D01*
X151788354Y-98365787D01*
X151783836Y-98364124D01*
X151779202Y-98362679D01*
X151774457Y-98361455D01*
X151769605Y-98360451D01*
X151764652Y-98359669D01*
X151759602Y-98359109D01*
X151754460Y-98358773D01*
X151749231Y-98358661D01*
X151744005Y-98358773D01*
X151738870Y-98359109D01*
X151733833Y-98359669D01*
X151728896Y-98360451D01*
X151724064Y-98361455D01*
X151719341Y-98362679D01*
X151714733Y-98364124D01*
X151710242Y-98365787D01*
X151705873Y-98367669D01*
X151701631Y-98369768D01*
X151697519Y-98372084D01*
X151693543Y-98374615D01*
X151689706Y-98377362D01*
X151686012Y-98380322D01*
X151682467Y-98383496D01*
X151679073Y-98386882D01*
X151675837Y-98390479D01*
X151672761Y-98394287D01*
X151669850Y-98398305D01*
X151667108Y-98402533D01*
X151664540Y-98406968D01*
X151662150Y-98411610D01*
X151659942Y-98416460D01*
X151657921Y-98421514D01*
X151656091Y-98426774D01*
X151654455Y-98432238D01*
X151653019Y-98437904D01*
X151651787Y-98443773D01*
X151650763Y-98449844D01*
X151649951Y-98456115D01*
X151649355Y-98462586D01*
X151648980Y-98469256D01*
X151553413Y-98469256D01*
X151553413Y-98469230D01*
X151553677Y-98457851D01*
X151554459Y-98446742D01*
X151555746Y-98435908D01*
X151557523Y-98425357D01*
X151559776Y-98415093D01*
X151562492Y-98405124D01*
X151565655Y-98395454D01*
X151569253Y-98386090D01*
X151573271Y-98377037D01*
X151577694Y-98368303D01*
X151582510Y-98359892D01*
X151587703Y-98351811D01*
X151593260Y-98344066D01*
X151599166Y-98336662D01*
X151605408Y-98329607D01*
X151611972Y-98322905D01*
X151618843Y-98316563D01*
X151626007Y-98310586D01*
X151633451Y-98304982D01*
X151641159Y-98299755D01*
X151649119Y-98294912D01*
X151657316Y-98290458D01*
X151665736Y-98286400D01*
X151674365Y-98282744D01*
X151683189Y-98279496D01*
X151692194Y-98276661D01*
X151701365Y-98274246D01*
X151710689Y-98272256D01*
X151720152Y-98270699D01*
X151729739Y-98269579D01*
X151739437Y-98268902D01*
X151749231Y-98268675D01*
X151766569Y-98269394D01*
X151784021Y-98271614D01*
X151792736Y-98273317D01*
X151801417Y-98275430D01*
X151810041Y-98277965D01*
X151818586Y-98280935D01*
X151827033Y-98284352D01*
X151835360Y-98288226D01*
X151843545Y-98292570D01*
X151851567Y-98297395D01*
X151859405Y-98302715D01*
X151867038Y-98308539D01*
X151874444Y-98314880D01*
X151881602Y-98321751D01*
X151888491Y-98329162D01*
X151895090Y-98337126D01*
X151901377Y-98345654D01*
X151907331Y-98354758D01*
X151912931Y-98364450D01*
X151918155Y-98374742D01*
X151922983Y-98385646D01*
X151927393Y-98397174D01*
X151931364Y-98409336D01*
X151934874Y-98422146D01*
X151937903Y-98435615D01*
X151940428Y-98449754D01*
X151942429Y-98464576D01*
X151942869Y-98469256D01*
X151943885Y-98480093D01*
G37*
G36*
X148695649Y-98480093D02*
G01*
X148696537Y-98496315D01*
X148696838Y-98513256D01*
X148696510Y-98531094D01*
X148695541Y-98548084D01*
X148693956Y-98564244D01*
X148691777Y-98579592D01*
X148689028Y-98594147D01*
X148685733Y-98607927D01*
X148681916Y-98620952D01*
X148677601Y-98633238D01*
X148672810Y-98644806D01*
X148667569Y-98655674D01*
X148661899Y-98665859D01*
X148655826Y-98675382D01*
X148649373Y-98684259D01*
X148642563Y-98692509D01*
X148635420Y-98700152D01*
X148627967Y-98707206D01*
X148620230Y-98713688D01*
X148612230Y-98719618D01*
X148603992Y-98725014D01*
X148595540Y-98729895D01*
X148586897Y-98734279D01*
X148578086Y-98738185D01*
X148560058Y-98744635D01*
X148541645Y-98749394D01*
X148523037Y-98752611D01*
X148504423Y-98754432D01*
X148485992Y-98755006D01*
X148474082Y-98754740D01*
X148462253Y-98753933D01*
X148450522Y-98752572D01*
X148438907Y-98750643D01*
X148427423Y-98748131D01*
X148416087Y-98745024D01*
X148404916Y-98741307D01*
X148393927Y-98736968D01*
X148383136Y-98731991D01*
X148372559Y-98726364D01*
X148362214Y-98720073D01*
X148352117Y-98713103D01*
X148342285Y-98705442D01*
X148332734Y-98697075D01*
X148323481Y-98687990D01*
X148314542Y-98678171D01*
X148383889Y-98619169D01*
X148389291Y-98624472D01*
X148394934Y-98629483D01*
X148400798Y-98634195D01*
X148406864Y-98638601D01*
X148413109Y-98642695D01*
X148419515Y-98646468D01*
X148426061Y-98649915D01*
X148432725Y-98653029D01*
X148439488Y-98655802D01*
X148446329Y-98658227D01*
X148453228Y-98660299D01*
X148460164Y-98662009D01*
X148467117Y-98663351D01*
X148474066Y-98664318D01*
X148480990Y-98664903D01*
X148487871Y-98665100D01*
X148493969Y-98664985D01*
X148499957Y-98664639D01*
X148505830Y-98664063D01*
X148511581Y-98663257D01*
X148517206Y-98662220D01*
X148522699Y-98660954D01*
X148528055Y-98659458D01*
X148533267Y-98657733D01*
X148538331Y-98655779D01*
X148543242Y-98653595D01*
X148547992Y-98651182D01*
X148552578Y-98648541D01*
X148556994Y-98645671D01*
X148561234Y-98642573D01*
X148565292Y-98639246D01*
X148569164Y-98635692D01*
X148572843Y-98631909D01*
X148576325Y-98627899D01*
X148579604Y-98623661D01*
X148582674Y-98619196D01*
X148585530Y-98614503D01*
X148588166Y-98609584D01*
X148590577Y-98604438D01*
X148592757Y-98599065D01*
X148594702Y-98593466D01*
X148596405Y-98587640D01*
X148597861Y-98581588D01*
X148599065Y-98575310D01*
X148600010Y-98568807D01*
X148600692Y-98562077D01*
X148601106Y-98555123D01*
X148601245Y-98547943D01*
X148305150Y-98547943D01*
X148305150Y-98469256D01*
X148400744Y-98469256D01*
X148601245Y-98469256D01*
X148600954Y-98462586D01*
X148600432Y-98456115D01*
X148599683Y-98449844D01*
X148598712Y-98443773D01*
X148597524Y-98437904D01*
X148596124Y-98432237D01*
X148594516Y-98426774D01*
X148592706Y-98421514D01*
X148590698Y-98416459D01*
X148588497Y-98411610D01*
X148586108Y-98406968D01*
X148583536Y-98402532D01*
X148580785Y-98398305D01*
X148577860Y-98394287D01*
X148574767Y-98390479D01*
X148571509Y-98386882D01*
X148568092Y-98383496D01*
X148564521Y-98380322D01*
X148560800Y-98377362D01*
X148556934Y-98374615D01*
X148552928Y-98372084D01*
X148548787Y-98369768D01*
X148544515Y-98367669D01*
X148540118Y-98365787D01*
X148535600Y-98364124D01*
X148530965Y-98362679D01*
X148526220Y-98361455D01*
X148521369Y-98360451D01*
X148516415Y-98359669D01*
X148511365Y-98359109D01*
X148506224Y-98358773D01*
X148500995Y-98358661D01*
X148495768Y-98358773D01*
X148490634Y-98359109D01*
X148485597Y-98359669D01*
X148480661Y-98360451D01*
X148475829Y-98361455D01*
X148471107Y-98362679D01*
X148466499Y-98364124D01*
X148462009Y-98365787D01*
X148457641Y-98367669D01*
X148453400Y-98369768D01*
X148449289Y-98372084D01*
X148445313Y-98374615D01*
X148441477Y-98377362D01*
X148437784Y-98380322D01*
X148434239Y-98383496D01*
X148430847Y-98386882D01*
X148427611Y-98390479D01*
X148424535Y-98394287D01*
X148421624Y-98398305D01*
X148418883Y-98402533D01*
X148416315Y-98406968D01*
X148413925Y-98411610D01*
X148411717Y-98416460D01*
X148409696Y-98421514D01*
X148407865Y-98426774D01*
X148406229Y-98432238D01*
X148404792Y-98437904D01*
X148403558Y-98443773D01*
X148402532Y-98449844D01*
X148401718Y-98456115D01*
X148401121Y-98462586D01*
X148400744Y-98469256D01*
X148305150Y-98469256D01*
X148305150Y-98469230D01*
X148305414Y-98457851D01*
X148306197Y-98446742D01*
X148307485Y-98435908D01*
X148309263Y-98425357D01*
X148311518Y-98415093D01*
X148314236Y-98405124D01*
X148317401Y-98395454D01*
X148321001Y-98386090D01*
X148325022Y-98377037D01*
X148329448Y-98368303D01*
X148334266Y-98359892D01*
X148339462Y-98351811D01*
X148345022Y-98344066D01*
X148350931Y-98336662D01*
X148357175Y-98329607D01*
X148363742Y-98322905D01*
X148370615Y-98316563D01*
X148377781Y-98310586D01*
X148385227Y-98304982D01*
X148392938Y-98299755D01*
X148400899Y-98294912D01*
X148409097Y-98290458D01*
X148417518Y-98286400D01*
X148426147Y-98282744D01*
X148434970Y-98279496D01*
X148443974Y-98276661D01*
X148453145Y-98274246D01*
X148462467Y-98272256D01*
X148471927Y-98270699D01*
X148481511Y-98269579D01*
X148491205Y-98268902D01*
X148500994Y-98268675D01*
X148518337Y-98269394D01*
X148535792Y-98271614D01*
X148544509Y-98273317D01*
X148553190Y-98275430D01*
X148561814Y-98277965D01*
X148570361Y-98280935D01*
X148578808Y-98284352D01*
X148587135Y-98288226D01*
X148595320Y-98292570D01*
X148603342Y-98297395D01*
X148611180Y-98302715D01*
X148618812Y-98308539D01*
X148626217Y-98314880D01*
X148633375Y-98321751D01*
X148640263Y-98329162D01*
X148646861Y-98337126D01*
X148653148Y-98345654D01*
X148659101Y-98354758D01*
X148664700Y-98364450D01*
X148669924Y-98374742D01*
X148674751Y-98385646D01*
X148679160Y-98397174D01*
X148683130Y-98409336D01*
X148686639Y-98422146D01*
X148689667Y-98435615D01*
X148692192Y-98449754D01*
X148694193Y-98464576D01*
X148694632Y-98469256D01*
X148695649Y-98480093D01*
G37*
G36*
X151243537Y-99019307D02*
G01*
X151252750Y-99019966D01*
X151261772Y-99021065D01*
X151270593Y-99022603D01*
X151279207Y-99024581D01*
X151287604Y-99026998D01*
X151295777Y-99029854D01*
X151303716Y-99033150D01*
X151311413Y-99036884D01*
X151318861Y-99041057D01*
X151326050Y-99045669D01*
X151332973Y-99050720D01*
X151339621Y-99056210D01*
X151345986Y-99062139D01*
X151352059Y-99068505D01*
X151357833Y-99075311D01*
X151359711Y-99075311D01*
X151359711Y-99024722D01*
X151455279Y-99024722D01*
X151455279Y-99499782D01*
X151359711Y-99499782D01*
X151359711Y-99213953D01*
X151359578Y-99207571D01*
X151359184Y-99201418D01*
X151358537Y-99195491D01*
X151357646Y-99189790D01*
X151356519Y-99184312D01*
X151355164Y-99179055D01*
X151353589Y-99174018D01*
X151351802Y-99169200D01*
X151349813Y-99164598D01*
X151347628Y-99160211D01*
X151345257Y-99156037D01*
X151342707Y-99152074D01*
X151339987Y-99148321D01*
X151337105Y-99144777D01*
X151334070Y-99141439D01*
X151330888Y-99138305D01*
X151327570Y-99135375D01*
X151324122Y-99132645D01*
X151320554Y-99130116D01*
X151316873Y-99127784D01*
X151313088Y-99125649D01*
X151309206Y-99123708D01*
X151305237Y-99121960D01*
X151301188Y-99120403D01*
X151292885Y-99117856D01*
X151284362Y-99116054D01*
X151275686Y-99114982D01*
X151266922Y-99114628D01*
X151262448Y-99114706D01*
X151258150Y-99114943D01*
X151254006Y-99115345D01*
X151249994Y-99115918D01*
X151246092Y-99116666D01*
X151242277Y-99117596D01*
X151238529Y-99118713D01*
X151234825Y-99120022D01*
X151231142Y-99121530D01*
X151227460Y-99123241D01*
X151223756Y-99125162D01*
X151220008Y-99127297D01*
X151216193Y-99129653D01*
X151212292Y-99132234D01*
X151208280Y-99135047D01*
X151204136Y-99138097D01*
X151134816Y-99055626D01*
X151140296Y-99051509D01*
X151145847Y-99047599D01*
X151151475Y-99043903D01*
X151157185Y-99040429D01*
X151162982Y-99037186D01*
X151168872Y-99034181D01*
X151174862Y-99031424D01*
X151180955Y-99028923D01*
X151187159Y-99026685D01*
X151193479Y-99024718D01*
X151199920Y-99023032D01*
X151206487Y-99021633D01*
X151213188Y-99020532D01*
X151220026Y-99019734D01*
X151227008Y-99019250D01*
X151234140Y-99019087D01*
X151243537Y-99019307D01*
G37*
D11*
G36*
X159310956Y-68229000D02*
G01*
X158994050Y-68229000D01*
X158994050Y-67689711D01*
X158857397Y-67689711D01*
X158817257Y-67689106D01*
X158741789Y-67684263D01*
X158661850Y-67672492D01*
X158581181Y-67650968D01*
X158511915Y-67620835D01*
X158488716Y-67607534D01*
X158426770Y-67562995D01*
X158371400Y-67505350D01*
X158330198Y-67439118D01*
X158323588Y-67424896D01*
X158296934Y-67351637D01*
X158280941Y-67274801D01*
X158276290Y-67204645D01*
X158596912Y-67204645D01*
X158600681Y-67255097D01*
X158624680Y-67326495D01*
X158675680Y-67382332D01*
X158736413Y-67413411D01*
X158810307Y-67431589D01*
X158888904Y-67436920D01*
X158994050Y-67436920D01*
X158994050Y-66981163D01*
X158848970Y-66981163D01*
X158776356Y-66986619D01*
X158695372Y-67012590D01*
X158638511Y-67059949D01*
X158605773Y-67128696D01*
X158596912Y-67204645D01*
X158276290Y-67204645D01*
X158275610Y-67194387D01*
X158278866Y-67128767D01*
X158291368Y-67056021D01*
X158317805Y-66979420D01*
X158357005Y-66911725D01*
X158408967Y-66852935D01*
X158435346Y-66830674D01*
X158507592Y-66787247D01*
X158581433Y-66759512D01*
X158666273Y-66740536D01*
X158745376Y-66731413D01*
X158832117Y-66728371D01*
X159310956Y-66728371D01*
X159310956Y-68229000D01*
G37*
G36*
X157859787Y-66634582D02*
G01*
X157784277Y-66646077D01*
X157740352Y-66667189D01*
X157696903Y-66729098D01*
X157689794Y-66786990D01*
X157702433Y-66859621D01*
X157740352Y-66906058D01*
X157810534Y-66934709D01*
X157859787Y-66939397D01*
X157933203Y-66928849D01*
X157980687Y-66906058D01*
X158022876Y-66843919D01*
X158029780Y-66786990D01*
X158017506Y-66713259D01*
X157980687Y-66667189D01*
X157910276Y-66639167D01*
X157859787Y-66634582D01*
G37*
G36*
X157704448Y-67080081D02*
G01*
X157704448Y-68229000D01*
X158017323Y-68229000D01*
X158017323Y-67080081D01*
X157704448Y-67080081D01*
G37*
G36*
X156910537Y-68252447D02*
G01*
X156987826Y-68248994D01*
X157073040Y-68235736D01*
X157150036Y-68212535D01*
X157218816Y-68179391D01*
X157279377Y-68136303D01*
X157306577Y-68111030D01*
X157354014Y-68052001D01*
X157391636Y-67981251D01*
X157419444Y-67898781D01*
X157435120Y-67821102D01*
X157443980Y-67735284D01*
X157446161Y-67660769D01*
X157443650Y-67584377D01*
X157434371Y-67502189D01*
X157418255Y-67427469D01*
X157391464Y-67351219D01*
X157374720Y-67316752D01*
X157335542Y-67254448D01*
X157283201Y-67194810D01*
X157222108Y-67146243D01*
X157176517Y-67120015D01*
X157101936Y-67089377D01*
X157030483Y-67070560D01*
X156954176Y-67059667D01*
X156883426Y-67056634D01*
X156806167Y-67059361D01*
X156730081Y-67068557D01*
X156678628Y-67079715D01*
X156606540Y-67101523D01*
X156534458Y-67130398D01*
X156526221Y-67134303D01*
X156618911Y-67381599D01*
X156689894Y-67352931D01*
X156756297Y-67329942D01*
X156828078Y-67313352D01*
X156883426Y-67309425D01*
X156966223Y-67321738D01*
X157031889Y-67358678D01*
X157080425Y-67420245D01*
X157107786Y-67490362D01*
X157123251Y-67577581D01*
X157127058Y-67659669D01*
X157123051Y-67741140D01*
X157108964Y-67819109D01*
X157081415Y-67888747D01*
X157062944Y-67916857D01*
X157007646Y-67967312D01*
X156937923Y-67994481D01*
X156883426Y-67999655D01*
X156806924Y-67995302D01*
X156733194Y-67980876D01*
X156709036Y-67973277D01*
X156639168Y-67944120D01*
X156571070Y-67906108D01*
X156562124Y-67900371D01*
X156562124Y-68168183D01*
X156630710Y-68204794D01*
X156702516Y-68230136D01*
X156712334Y-68232663D01*
X156789040Y-68246187D01*
X156867178Y-68251751D01*
X156910537Y-68252447D01*
G37*
G36*
X155856742Y-67057989D02*
G01*
X155932161Y-67066274D01*
X156015486Y-67086156D01*
X156090980Y-67116884D01*
X156158643Y-67158456D01*
X156218475Y-67210873D01*
X156261431Y-67262320D01*
X156303369Y-67332627D01*
X156334822Y-67412286D01*
X156353023Y-67485811D01*
X156363945Y-67565830D01*
X156367585Y-67652342D01*
X156367306Y-67676157D01*
X156361934Y-67755926D01*
X156349725Y-67830120D01*
X156327399Y-67908087D01*
X156296144Y-67978773D01*
X156272513Y-68019110D01*
X156223395Y-68083829D01*
X156165815Y-68138405D01*
X156099773Y-68182838D01*
X156043468Y-68209961D01*
X155966233Y-68235045D01*
X155893006Y-68248096D01*
X155815474Y-68252447D01*
X155767995Y-68251075D01*
X155693085Y-68242692D01*
X155610160Y-68222574D01*
X155534833Y-68191482D01*
X155467106Y-68149415D01*
X155406978Y-68096376D01*
X155363705Y-68044287D01*
X155321458Y-67973327D01*
X155289774Y-67893144D01*
X155271437Y-67819281D01*
X155260436Y-67739014D01*
X155256769Y-67652342D01*
X155575872Y-67652342D01*
X155576742Y-67693902D01*
X155583703Y-67769189D01*
X155599854Y-67841408D01*
X155631559Y-67911728D01*
X155668274Y-67954232D01*
X155733996Y-67989266D01*
X155811078Y-67999655D01*
X155869696Y-67994160D01*
X155941137Y-67965309D01*
X155992794Y-67911728D01*
X156008837Y-67882211D01*
X156032765Y-67810942D01*
X156045001Y-67732851D01*
X156048482Y-67652342D01*
X156047612Y-67610817D01*
X156040651Y-67535804D01*
X156024499Y-67464223D01*
X155992794Y-67395154D01*
X155956080Y-67353713D01*
X155890358Y-67319555D01*
X155813276Y-67309425D01*
X155754658Y-67314783D01*
X155683217Y-67342913D01*
X155631559Y-67395154D01*
X155615516Y-67424038D01*
X155591588Y-67494363D01*
X155579352Y-67571971D01*
X155575872Y-67652342D01*
X155256769Y-67652342D01*
X155257048Y-67628798D01*
X155262420Y-67549908D01*
X155274629Y-67476487D01*
X155296954Y-67399276D01*
X155328210Y-67329209D01*
X155351814Y-67289197D01*
X155400748Y-67224974D01*
X155457971Y-67170778D01*
X155523482Y-67126609D01*
X155579464Y-67099344D01*
X155656747Y-67074128D01*
X155730455Y-67061007D01*
X155808879Y-67056634D01*
X155856742Y-67057989D01*
G37*
G36*
X154973203Y-68229000D02*
G01*
X154548953Y-68229000D01*
X154478044Y-68227309D01*
X154388147Y-68219796D01*
X154303563Y-68206272D01*
X154224291Y-68186737D01*
X154150331Y-68161192D01*
X154081684Y-68129636D01*
X154018349Y-68092069D01*
X153946650Y-68036658D01*
X153920431Y-68011881D01*
X153862283Y-67943516D01*
X153814707Y-67865973D01*
X153784259Y-67797331D01*
X153760577Y-67722816D01*
X153743661Y-67642427D01*
X153733512Y-67556166D01*
X153730465Y-67473190D01*
X154059856Y-67473190D01*
X154063898Y-67563085D01*
X154076021Y-67644138D01*
X154104758Y-67738453D01*
X154147863Y-67817050D01*
X154205336Y-67879927D01*
X154277178Y-67927085D01*
X154363388Y-67958524D01*
X154437475Y-67971787D01*
X154519644Y-67976208D01*
X154656297Y-67976208D01*
X154656297Y-66981163D01*
X154485938Y-66981163D01*
X154460357Y-66981631D01*
X154376886Y-66990639D01*
X154302848Y-67011113D01*
X154229781Y-67048551D01*
X154169033Y-67100964D01*
X154121268Y-67169153D01*
X154090669Y-67242418D01*
X154072757Y-67315319D01*
X154062522Y-67397545D01*
X154059856Y-67473190D01*
X153730465Y-67473190D01*
X153730129Y-67464031D01*
X153730222Y-67449130D01*
X153734704Y-67362834D01*
X153745910Y-67281870D01*
X153763839Y-67206239D01*
X153788491Y-67135940D01*
X153825750Y-67060664D01*
X153850783Y-67020885D01*
X153900458Y-66957304D01*
X153957602Y-66901403D01*
X154022214Y-66853180D01*
X154094295Y-66812635D01*
X154116198Y-66802431D01*
X154184810Y-66775770D01*
X154257775Y-66755033D01*
X154335093Y-66740221D01*
X154416765Y-66731334D01*
X154502791Y-66728371D01*
X154973203Y-66728371D01*
X154973203Y-68229000D01*
G37*
G36*
X152989858Y-67056748D02*
G01*
X153064777Y-67060755D01*
X153138121Y-67070487D01*
X153209891Y-67085943D01*
X153271773Y-67103701D01*
X153342527Y-67129420D01*
X153413590Y-67162513D01*
X153310642Y-67375737D01*
X153290680Y-67366944D01*
X153220907Y-67339055D01*
X153151273Y-67315653D01*
X153141272Y-67312681D01*
X153065173Y-67296500D01*
X152987142Y-67291107D01*
X152920744Y-67299522D01*
X152855983Y-67335071D01*
X152819107Y-67395662D01*
X152808722Y-67472824D01*
X152808722Y-67525580D01*
X153008391Y-67525580D01*
X153085297Y-67527709D01*
X153169343Y-67535883D01*
X153244399Y-67550189D01*
X153320602Y-67574627D01*
X153392707Y-67612775D01*
X153400574Y-67618320D01*
X153454515Y-67669530D01*
X153492474Y-67732923D01*
X153514450Y-67808497D01*
X153520568Y-67884617D01*
X153517026Y-67952130D01*
X153501284Y-68031207D01*
X153468521Y-68105225D01*
X153419818Y-68163420D01*
X153380195Y-68193675D01*
X153313853Y-68227321D01*
X153239223Y-68246883D01*
X153165928Y-68252447D01*
X153090396Y-68249085D01*
X153011225Y-68235846D01*
X152941346Y-68209949D01*
X152895851Y-68181809D01*
X152837264Y-68131757D01*
X152785642Y-68073295D01*
X152777215Y-68073295D01*
X152716399Y-68229000D01*
X152498046Y-68229000D01*
X152498046Y-67802185D01*
X152808722Y-67802185D01*
X152809804Y-67827195D01*
X152830631Y-67903280D01*
X152877965Y-67961554D01*
X152900382Y-67977807D01*
X152971428Y-68008662D01*
X153048325Y-68017974D01*
X153087795Y-68015111D01*
X153157501Y-67988665D01*
X153181280Y-67963630D01*
X153199267Y-67890113D01*
X153186387Y-67822342D01*
X153140648Y-67761885D01*
X153083478Y-67732192D01*
X153008353Y-67717013D01*
X152930722Y-67713159D01*
X152808722Y-67713159D01*
X152808722Y-67802185D01*
X152498046Y-67802185D01*
X152498046Y-67462932D01*
X152498525Y-67437564D01*
X152507754Y-67355313D01*
X152528729Y-67283230D01*
X152567082Y-67213300D01*
X152620778Y-67156651D01*
X152670615Y-67122661D01*
X152738395Y-67091894D01*
X152816553Y-67070699D01*
X152891807Y-67060150D01*
X152974685Y-67056634D01*
X152989858Y-67056748D01*
G37*
G36*
X152019940Y-66634582D02*
G01*
X151944431Y-66646077D01*
X151900505Y-66667189D01*
X151857057Y-66729098D01*
X151849947Y-66786990D01*
X151862587Y-66859621D01*
X151900505Y-66906058D01*
X151970687Y-66934709D01*
X152019940Y-66939397D01*
X152093356Y-66928849D01*
X152140840Y-66906058D01*
X152183030Y-66843919D01*
X152189933Y-66786990D01*
X152177660Y-66713259D01*
X152140840Y-66667189D01*
X152070430Y-66639167D01*
X152019940Y-66634582D01*
G37*
G36*
X151864602Y-67080081D02*
G01*
X151864602Y-68229000D01*
X152177477Y-68229000D01*
X152177477Y-67080081D01*
X151864602Y-67080081D01*
G37*
G36*
X150736933Y-67889746D02*
G01*
X150744626Y-67972224D01*
X150767707Y-68044535D01*
X150812066Y-68113733D01*
X150860031Y-68158658D01*
X150928953Y-68199690D01*
X151001657Y-68225977D01*
X151085932Y-68243288D01*
X151167376Y-68250981D01*
X151226395Y-68252447D01*
X151304567Y-68250542D01*
X151380860Y-68244119D01*
X151431926Y-68236327D01*
X151507259Y-68218685D01*
X151577212Y-68195397D01*
X151604117Y-68184669D01*
X151604117Y-67922353D01*
X151532813Y-67951393D01*
X151457388Y-67976414D01*
X151404815Y-67990863D01*
X151327912Y-68007383D01*
X151252741Y-68016676D01*
X151215771Y-68017974D01*
X151142124Y-68012017D01*
X151085711Y-67990863D01*
X151046129Y-67927219D01*
X151045778Y-67919055D01*
X151061531Y-67866665D01*
X151120174Y-67819353D01*
X151129675Y-67813909D01*
X151196811Y-67780295D01*
X151266518Y-67749434D01*
X151293440Y-67738071D01*
X151363693Y-67706465D01*
X151429373Y-67672281D01*
X151471127Y-67646847D01*
X151530661Y-67596746D01*
X151572976Y-67537304D01*
X151597980Y-67465038D01*
X151606185Y-67388432D01*
X151606315Y-67376470D01*
X151598575Y-67301434D01*
X151571366Y-67229006D01*
X151524567Y-67169272D01*
X151482484Y-67136501D01*
X151415439Y-67101559D01*
X151338136Y-67076601D01*
X151262081Y-67062951D01*
X151178172Y-67056946D01*
X151152756Y-67056634D01*
X151073965Y-67059674D01*
X150998059Y-67068793D01*
X150949057Y-67078249D01*
X150875641Y-67098428D01*
X150806805Y-67123895D01*
X150749389Y-67149690D01*
X150843911Y-67380866D01*
X150915959Y-67349911D01*
X150984641Y-67323725D01*
X151003646Y-67317119D01*
X151074883Y-67298448D01*
X151151934Y-67291132D01*
X151156786Y-67291107D01*
X151230009Y-67298513D01*
X151290757Y-67341172D01*
X151295638Y-67366944D01*
X151277686Y-67416770D01*
X151217767Y-67459320D01*
X151208443Y-67464031D01*
X151139702Y-67495646D01*
X151068438Y-67526241D01*
X151056036Y-67531442D01*
X150985934Y-67561856D01*
X150918596Y-67595851D01*
X150886043Y-67614607D01*
X150826231Y-67660046D01*
X150778226Y-67719340D01*
X150775767Y-67723417D01*
X150747893Y-67792443D01*
X150737539Y-67865028D01*
X150736933Y-67889746D01*
G37*
G36*
X150657431Y-67080081D02*
G01*
X150315247Y-67080081D01*
X150098726Y-67734041D01*
X150078393Y-67807337D01*
X150073813Y-67831861D01*
X150063782Y-67905649D01*
X150060990Y-67936274D01*
X150054762Y-67936274D01*
X150044120Y-67863152D01*
X150037909Y-67831861D01*
X150018675Y-67758427D01*
X150010799Y-67734041D01*
X149798674Y-67080081D01*
X149462351Y-67080081D01*
X149947784Y-68384704D01*
X149979833Y-68459234D01*
X150017317Y-68525103D01*
X150066811Y-68589778D01*
X150123403Y-68643141D01*
X150138660Y-68654715D01*
X150203071Y-68694145D01*
X150272474Y-68722309D01*
X150346869Y-68739208D01*
X150426256Y-68744840D01*
X150501613Y-68741710D01*
X150518946Y-68739711D01*
X150585990Y-68728720D01*
X150585990Y-68479593D01*
X150531402Y-68487653D01*
X150462159Y-68492049D01*
X150388979Y-68482133D01*
X150321670Y-68446047D01*
X150306821Y-68431965D01*
X150259621Y-68370587D01*
X150226462Y-68303568D01*
X150220725Y-68287984D01*
X150201674Y-68231198D01*
X150657431Y-67080081D01*
G37*
G36*
X148834036Y-67651243D02*
G01*
X148832221Y-67571663D01*
X148826774Y-67492977D01*
X148817695Y-67415185D01*
X148804985Y-67338288D01*
X148788643Y-67262285D01*
X148768671Y-67187177D01*
X148759665Y-67157384D01*
X148734234Y-67084120D01*
X148704653Y-67013164D01*
X148670921Y-66944515D01*
X148633040Y-66878174D01*
X148591008Y-66814141D01*
X148544826Y-66752416D01*
X148525191Y-66728371D01*
X148269103Y-66728371D01*
X148312090Y-66790941D01*
X148351749Y-66855461D01*
X148388082Y-66921931D01*
X148421087Y-66990351D01*
X148450764Y-67060720D01*
X148477115Y-67133039D01*
X148486723Y-67162513D01*
X148508149Y-67236891D01*
X148525943Y-67311878D01*
X148540105Y-67387473D01*
X148550637Y-67463676D01*
X148557536Y-67540487D01*
X148560805Y-67617907D01*
X148561095Y-67649045D01*
X148559297Y-67724887D01*
X148553904Y-67800370D01*
X148544915Y-67875497D01*
X148532330Y-67950265D01*
X148516149Y-68024676D01*
X148496373Y-68098728D01*
X148487456Y-68128249D01*
X148462762Y-68200934D01*
X148434705Y-68271525D01*
X148403285Y-68340023D01*
X148368502Y-68406429D01*
X148330356Y-68470741D01*
X148288846Y-68532960D01*
X148271301Y-68557262D01*
X148525191Y-68557262D01*
X148573033Y-68498361D01*
X148616725Y-68437063D01*
X148656267Y-68373368D01*
X148691658Y-68307276D01*
X148722899Y-68238786D01*
X148749990Y-68167900D01*
X148759665Y-68138874D01*
X148781090Y-68065338D01*
X148798884Y-67990818D01*
X148813047Y-67915315D01*
X148823578Y-67838827D01*
X148830478Y-67761356D01*
X148833746Y-67682901D01*
X148834036Y-67651243D01*
G37*
G36*
X147770481Y-68229000D02*
G01*
X148207187Y-67080081D01*
X147879658Y-67080081D01*
X147659106Y-67737339D01*
X147639583Y-67809062D01*
X147629797Y-67860071D01*
X147619092Y-67934288D01*
X147615143Y-67974010D01*
X147606716Y-67974010D01*
X147598286Y-67894638D01*
X147583861Y-67820678D01*
X147562995Y-67745001D01*
X147560554Y-67737339D01*
X147340003Y-67080081D01*
X147012107Y-67080081D01*
X147449180Y-68229000D01*
X147770481Y-68229000D01*
G37*
G36*
X146145655Y-68229000D02*
G01*
X146462561Y-68229000D01*
X146462561Y-67372073D01*
X146461915Y-67297815D01*
X146460729Y-67232122D01*
X146458185Y-67154177D01*
X146454134Y-67077517D01*
X146499563Y-67122213D01*
X146555903Y-67172663D01*
X146563311Y-67179000D01*
X146735502Y-67316020D01*
X146889009Y-67126976D01*
X146405774Y-66728371D01*
X146145655Y-66728371D01*
X146145655Y-68229000D01*
G37*
G36*
X145692829Y-68076592D02*
G01*
X145682801Y-68002470D01*
X145640439Y-67939938D01*
X145574081Y-67908240D01*
X145512212Y-67900737D01*
X145436387Y-67913141D01*
X145386549Y-67939938D01*
X145343890Y-68002470D01*
X145333792Y-68076592D01*
X145345384Y-68152482D01*
X145386549Y-68211048D01*
X145452095Y-68244523D01*
X145512212Y-68252447D01*
X145586171Y-68240763D01*
X145640439Y-68211048D01*
X145682801Y-68148129D01*
X145692829Y-68076592D01*
G37*
G36*
X144347540Y-68229000D02*
G01*
X144664445Y-68229000D01*
X144664445Y-67372073D01*
X144663799Y-67297815D01*
X144662613Y-67232122D01*
X144660069Y-67154177D01*
X144656018Y-67077517D01*
X144701448Y-67122213D01*
X144757787Y-67172663D01*
X144765195Y-67179000D01*
X144937386Y-67316020D01*
X145090893Y-67126976D01*
X144607658Y-66728371D01*
X144347540Y-66728371D01*
X144347540Y-68229000D01*
G37*
G36*
X143386566Y-67651243D02*
G01*
X143388391Y-67730092D01*
X143393865Y-67807957D01*
X143402988Y-67884838D01*
X143415761Y-67960735D01*
X143432183Y-68035648D01*
X143452254Y-68109578D01*
X143461304Y-68138874D01*
X143486630Y-68210719D01*
X143516123Y-68280167D01*
X143549785Y-68347219D01*
X143587614Y-68411873D01*
X143629612Y-68474129D01*
X143675778Y-68533989D01*
X143695411Y-68557262D01*
X143949302Y-68557262D01*
X143906957Y-68495880D01*
X143867850Y-68432405D01*
X143831981Y-68366837D01*
X143799350Y-68299175D01*
X143769957Y-68229421D01*
X143743801Y-68157574D01*
X143734246Y-68128249D01*
X143712715Y-68054340D01*
X143694833Y-67980072D01*
X143680601Y-67905447D01*
X143670018Y-67830464D01*
X143663084Y-67755123D01*
X143659799Y-67679424D01*
X143659508Y-67649045D01*
X143661332Y-67571382D01*
X143666806Y-67494328D01*
X143675930Y-67417881D01*
X143688702Y-67342043D01*
X143705124Y-67266813D01*
X143725195Y-67192191D01*
X143734246Y-67162513D01*
X143759160Y-67089414D01*
X143787419Y-67018264D01*
X143819023Y-66949065D01*
X143853973Y-66881815D01*
X143892267Y-66816515D01*
X143933907Y-66753165D01*
X143951500Y-66728371D01*
X143695411Y-66728371D01*
X143647578Y-66789174D01*
X143603913Y-66852284D01*
X143564416Y-66917702D01*
X143529088Y-66985428D01*
X143497927Y-67055461D01*
X143470934Y-67127802D01*
X143461304Y-67157384D01*
X143439773Y-67232134D01*
X143421892Y-67307779D01*
X143407659Y-67384319D01*
X143397076Y-67461753D01*
X143390142Y-67540081D01*
X143386858Y-67619304D01*
X143386566Y-67651243D01*
G37*
D12*
X159045465Y-68653339D02*
X159045465Y-69189053D01*
X159045465Y-69189053D02*
X159081180Y-69296196D01*
X159081180Y-69296196D02*
X159152608Y-69367625D01*
X159152608Y-69367625D02*
X159259751Y-69403339D01*
X159259751Y-69403339D02*
X159331180Y-69403339D01*
X158366894Y-69403339D02*
X158366894Y-69010482D01*
X158366894Y-69010482D02*
X158402608Y-68939053D01*
X158402608Y-68939053D02*
X158474036Y-68903339D01*
X158474036Y-68903339D02*
X158616894Y-68903339D01*
X158616894Y-68903339D02*
X158688322Y-68939053D01*
X158366894Y-69367625D02*
X158438322Y-69403339D01*
X158438322Y-69403339D02*
X158616894Y-69403339D01*
X158616894Y-69403339D02*
X158688322Y-69367625D01*
X158688322Y-69367625D02*
X158724036Y-69296196D01*
X158724036Y-69296196D02*
X158724036Y-69224767D01*
X158724036Y-69224767D02*
X158688322Y-69153339D01*
X158688322Y-69153339D02*
X158616894Y-69117625D01*
X158616894Y-69117625D02*
X158438322Y-69117625D01*
X158438322Y-69117625D02*
X158366894Y-69081910D01*
X158045465Y-69367625D02*
X157974037Y-69403339D01*
X157974037Y-69403339D02*
X157831180Y-69403339D01*
X157831180Y-69403339D02*
X157759751Y-69367625D01*
X157759751Y-69367625D02*
X157724037Y-69296196D01*
X157724037Y-69296196D02*
X157724037Y-69260482D01*
X157724037Y-69260482D02*
X157759751Y-69189053D01*
X157759751Y-69189053D02*
X157831180Y-69153339D01*
X157831180Y-69153339D02*
X157938323Y-69153339D01*
X157938323Y-69153339D02*
X158009751Y-69117625D01*
X158009751Y-69117625D02*
X158045465Y-69046196D01*
X158045465Y-69046196D02*
X158045465Y-69010482D01*
X158045465Y-69010482D02*
X158009751Y-68939053D01*
X158009751Y-68939053D02*
X157938323Y-68903339D01*
X157938323Y-68903339D02*
X157831180Y-68903339D01*
X157831180Y-68903339D02*
X157759751Y-68939053D01*
X157295465Y-69403339D02*
X157366894Y-69367625D01*
X157366894Y-69367625D02*
X157402608Y-69331910D01*
X157402608Y-69331910D02*
X157438322Y-69260482D01*
X157438322Y-69260482D02*
X157438322Y-69046196D01*
X157438322Y-69046196D02*
X157402608Y-68974767D01*
X157402608Y-68974767D02*
X157366894Y-68939053D01*
X157366894Y-68939053D02*
X157295465Y-68903339D01*
X157295465Y-68903339D02*
X157188322Y-68903339D01*
X157188322Y-68903339D02*
X157116894Y-68939053D01*
X157116894Y-68939053D02*
X157081180Y-68974767D01*
X157081180Y-68974767D02*
X157045465Y-69046196D01*
X157045465Y-69046196D02*
X157045465Y-69260482D01*
X157045465Y-69260482D02*
X157081180Y-69331910D01*
X157081180Y-69331910D02*
X157116894Y-69367625D01*
X157116894Y-69367625D02*
X157188322Y-69403339D01*
X157188322Y-69403339D02*
X157295465Y-69403339D01*
X156724037Y-68903339D02*
X156724037Y-69403339D01*
X156724037Y-68974767D02*
X156688323Y-68939053D01*
X156688323Y-68939053D02*
X156616894Y-68903339D01*
X156616894Y-68903339D02*
X156509751Y-68903339D01*
X156509751Y-68903339D02*
X156438323Y-68939053D01*
X156438323Y-68939053D02*
X156402609Y-69010482D01*
X156402609Y-69010482D02*
X156402609Y-69403339D01*
X155509751Y-69189053D02*
X155152609Y-69189053D01*
X155581180Y-69403339D02*
X155331180Y-68653339D01*
X155331180Y-68653339D02*
X155081180Y-69403339D01*
X154724037Y-69403339D02*
X154795466Y-69367625D01*
X154795466Y-69367625D02*
X154831180Y-69296196D01*
X154831180Y-69296196D02*
X154831180Y-68653339D01*
X154152609Y-69367625D02*
X154224037Y-69403339D01*
X154224037Y-69403339D02*
X154366895Y-69403339D01*
X154366895Y-69403339D02*
X154438323Y-69367625D01*
X154438323Y-69367625D02*
X154474037Y-69296196D01*
X154474037Y-69296196D02*
X154474037Y-69010482D01*
X154474037Y-69010482D02*
X154438323Y-68939053D01*
X154438323Y-68939053D02*
X154366895Y-68903339D01*
X154366895Y-68903339D02*
X154224037Y-68903339D01*
X154224037Y-68903339D02*
X154152609Y-68939053D01*
X154152609Y-68939053D02*
X154116895Y-69010482D01*
X154116895Y-69010482D02*
X154116895Y-69081910D01*
X154116895Y-69081910D02*
X154474037Y-69153339D01*
X153866895Y-69403339D02*
X153474038Y-68903339D01*
X153866895Y-68903339D02*
X153474038Y-69403339D01*
X152866895Y-69403339D02*
X152866895Y-69010482D01*
X152866895Y-69010482D02*
X152902609Y-68939053D01*
X152902609Y-68939053D02*
X152974037Y-68903339D01*
X152974037Y-68903339D02*
X153116895Y-68903339D01*
X153116895Y-68903339D02*
X153188323Y-68939053D01*
X152866895Y-69367625D02*
X152938323Y-69403339D01*
X152938323Y-69403339D02*
X153116895Y-69403339D01*
X153116895Y-69403339D02*
X153188323Y-69367625D01*
X153188323Y-69367625D02*
X153224037Y-69296196D01*
X153224037Y-69296196D02*
X153224037Y-69224767D01*
X153224037Y-69224767D02*
X153188323Y-69153339D01*
X153188323Y-69153339D02*
X153116895Y-69117625D01*
X153116895Y-69117625D02*
X152938323Y-69117625D01*
X152938323Y-69117625D02*
X152866895Y-69081910D01*
X152509752Y-68903339D02*
X152509752Y-69403339D01*
X152509752Y-68974767D02*
X152474038Y-68939053D01*
X152474038Y-68939053D02*
X152402609Y-68903339D01*
X152402609Y-68903339D02*
X152295466Y-68903339D01*
X152295466Y-68903339D02*
X152224038Y-68939053D01*
X152224038Y-68939053D02*
X152188324Y-69010482D01*
X152188324Y-69010482D02*
X152188324Y-69403339D01*
X151509753Y-69403339D02*
X151509753Y-68653339D01*
X151509753Y-69367625D02*
X151581181Y-69403339D01*
X151581181Y-69403339D02*
X151724038Y-69403339D01*
X151724038Y-69403339D02*
X151795467Y-69367625D01*
X151795467Y-69367625D02*
X151831181Y-69331910D01*
X151831181Y-69331910D02*
X151866895Y-69260482D01*
X151866895Y-69260482D02*
X151866895Y-69046196D01*
X151866895Y-69046196D02*
X151831181Y-68974767D01*
X151831181Y-68974767D02*
X151795467Y-68939053D01*
X151795467Y-68939053D02*
X151724038Y-68903339D01*
X151724038Y-68903339D02*
X151581181Y-68903339D01*
X151581181Y-68903339D02*
X151509753Y-68939053D01*
X150866896Y-69367625D02*
X150938324Y-69403339D01*
X150938324Y-69403339D02*
X151081182Y-69403339D01*
X151081182Y-69403339D02*
X151152610Y-69367625D01*
X151152610Y-69367625D02*
X151188324Y-69296196D01*
X151188324Y-69296196D02*
X151188324Y-69010482D01*
X151188324Y-69010482D02*
X151152610Y-68939053D01*
X151152610Y-68939053D02*
X151081182Y-68903339D01*
X151081182Y-68903339D02*
X150938324Y-68903339D01*
X150938324Y-68903339D02*
X150866896Y-68939053D01*
X150866896Y-68939053D02*
X150831182Y-69010482D01*
X150831182Y-69010482D02*
X150831182Y-69081910D01*
X150831182Y-69081910D02*
X151188324Y-69153339D01*
X150509753Y-69403339D02*
X150509753Y-68903339D01*
X150509753Y-69046196D02*
X150474039Y-68974767D01*
X150474039Y-68974767D02*
X150438325Y-68939053D01*
X150438325Y-68939053D02*
X150366896Y-68903339D01*
X150366896Y-68903339D02*
X150295467Y-68903339D01*
D13*
X148115458Y-97355404D02*
X147829744Y-97355404D01*
X147972601Y-97855404D02*
X147972601Y-97355404D01*
X147663078Y-97855404D02*
X147663078Y-97355404D01*
X147448792Y-97855404D02*
X147448792Y-97593499D01*
X147448792Y-97593499D02*
X147472602Y-97545880D01*
X147472602Y-97545880D02*
X147520221Y-97522071D01*
X147520221Y-97522071D02*
X147591649Y-97522071D01*
X147591649Y-97522071D02*
X147639268Y-97545880D01*
X147639268Y-97545880D02*
X147663078Y-97569690D01*
X147020221Y-97831595D02*
X147067840Y-97855404D01*
X147067840Y-97855404D02*
X147163078Y-97855404D01*
X147163078Y-97855404D02*
X147210697Y-97831595D01*
X147210697Y-97831595D02*
X147234506Y-97783975D01*
X147234506Y-97783975D02*
X147234506Y-97593499D01*
X147234506Y-97593499D02*
X147210697Y-97545880D01*
X147210697Y-97545880D02*
X147163078Y-97522071D01*
X147163078Y-97522071D02*
X147067840Y-97522071D01*
X147067840Y-97522071D02*
X147020221Y-97545880D01*
X147020221Y-97545880D02*
X146996411Y-97593499D01*
X146996411Y-97593499D02*
X146996411Y-97641118D01*
X146996411Y-97641118D02*
X147234506Y-97688737D01*
X146472602Y-97355404D02*
X146186888Y-97355404D01*
X146329745Y-97855404D02*
X146329745Y-97355404D01*
X146044031Y-97712547D02*
X145805936Y-97712547D01*
X146091650Y-97855404D02*
X145924984Y-97355404D01*
X145924984Y-97355404D02*
X145758317Y-97855404D01*
X145591651Y-97855404D02*
X145591651Y-97355404D01*
X145591651Y-97355404D02*
X145401175Y-97355404D01*
X145401175Y-97355404D02*
X145353556Y-97379214D01*
X145353556Y-97379214D02*
X145329746Y-97403023D01*
X145329746Y-97403023D02*
X145305937Y-97450642D01*
X145305937Y-97450642D02*
X145305937Y-97522071D01*
X145305937Y-97522071D02*
X145329746Y-97569690D01*
X145329746Y-97569690D02*
X145353556Y-97593499D01*
X145353556Y-97593499D02*
X145401175Y-97617309D01*
X145401175Y-97617309D02*
X145591651Y-97617309D01*
X144805937Y-97855404D02*
X144972603Y-97617309D01*
X145091651Y-97855404D02*
X145091651Y-97355404D01*
X145091651Y-97355404D02*
X144901175Y-97355404D01*
X144901175Y-97355404D02*
X144853556Y-97379214D01*
X144853556Y-97379214D02*
X144829746Y-97403023D01*
X144829746Y-97403023D02*
X144805937Y-97450642D01*
X144805937Y-97450642D02*
X144805937Y-97522071D01*
X144805937Y-97522071D02*
X144829746Y-97569690D01*
X144829746Y-97569690D02*
X144853556Y-97593499D01*
X144853556Y-97593499D02*
X144901175Y-97617309D01*
X144901175Y-97617309D02*
X145091651Y-97617309D01*
X144115461Y-97355404D02*
X144020223Y-97355404D01*
X144020223Y-97355404D02*
X143972604Y-97379214D01*
X143972604Y-97379214D02*
X143924985Y-97426833D01*
X143924985Y-97426833D02*
X143901175Y-97522071D01*
X143901175Y-97522071D02*
X143901175Y-97688737D01*
X143901175Y-97688737D02*
X143924985Y-97783975D01*
X143924985Y-97783975D02*
X143972604Y-97831595D01*
X143972604Y-97831595D02*
X144020223Y-97855404D01*
X144020223Y-97855404D02*
X144115461Y-97855404D01*
X144115461Y-97855404D02*
X144163080Y-97831595D01*
X144163080Y-97831595D02*
X144210699Y-97783975D01*
X144210699Y-97783975D02*
X144234508Y-97688737D01*
X144234508Y-97688737D02*
X144234508Y-97522071D01*
X144234508Y-97522071D02*
X144210699Y-97426833D01*
X144210699Y-97426833D02*
X144163080Y-97379214D01*
X144163080Y-97379214D02*
X144115461Y-97355404D01*
X143686889Y-97522071D02*
X143686889Y-98022071D01*
X143686889Y-97545880D02*
X143639270Y-97522071D01*
X143639270Y-97522071D02*
X143544032Y-97522071D01*
X143544032Y-97522071D02*
X143496413Y-97545880D01*
X143496413Y-97545880D02*
X143472603Y-97569690D01*
X143472603Y-97569690D02*
X143448794Y-97617309D01*
X143448794Y-97617309D02*
X143448794Y-97760166D01*
X143448794Y-97760166D02*
X143472603Y-97807785D01*
X143472603Y-97807785D02*
X143496413Y-97831595D01*
X143496413Y-97831595D02*
X143544032Y-97855404D01*
X143544032Y-97855404D02*
X143639270Y-97855404D01*
X143639270Y-97855404D02*
X143686889Y-97831595D01*
X143044032Y-97831595D02*
X143091651Y-97855404D01*
X143091651Y-97855404D02*
X143186889Y-97855404D01*
X143186889Y-97855404D02*
X143234508Y-97831595D01*
X143234508Y-97831595D02*
X143258317Y-97783975D01*
X143258317Y-97783975D02*
X143258317Y-97593499D01*
X143258317Y-97593499D02*
X143234508Y-97545880D01*
X143234508Y-97545880D02*
X143186889Y-97522071D01*
X143186889Y-97522071D02*
X143091651Y-97522071D01*
X143091651Y-97522071D02*
X143044032Y-97545880D01*
X143044032Y-97545880D02*
X143020222Y-97593499D01*
X143020222Y-97593499D02*
X143020222Y-97641118D01*
X143020222Y-97641118D02*
X143258317Y-97688737D01*
X142805937Y-97522071D02*
X142805937Y-97855404D01*
X142805937Y-97569690D02*
X142782127Y-97545880D01*
X142782127Y-97545880D02*
X142734508Y-97522071D01*
X142734508Y-97522071D02*
X142663080Y-97522071D01*
X142663080Y-97522071D02*
X142615461Y-97545880D01*
X142615461Y-97545880D02*
X142591651Y-97593499D01*
X142591651Y-97593499D02*
X142591651Y-97855404D01*
X148044030Y-98660376D02*
X148044030Y-98160376D01*
X148044030Y-98398471D02*
X147758316Y-98398471D01*
X147758316Y-98660376D02*
X147758316Y-98160376D01*
X147305934Y-98660376D02*
X147305934Y-98398471D01*
X147305934Y-98398471D02*
X147329744Y-98350852D01*
X147329744Y-98350852D02*
X147377363Y-98327043D01*
X147377363Y-98327043D02*
X147472601Y-98327043D01*
X147472601Y-98327043D02*
X147520220Y-98350852D01*
X147305934Y-98636567D02*
X147353553Y-98660376D01*
X147353553Y-98660376D02*
X147472601Y-98660376D01*
X147472601Y-98660376D02*
X147520220Y-98636567D01*
X147520220Y-98636567D02*
X147544029Y-98588947D01*
X147544029Y-98588947D02*
X147544029Y-98541328D01*
X147544029Y-98541328D02*
X147520220Y-98493709D01*
X147520220Y-98493709D02*
X147472601Y-98469900D01*
X147472601Y-98469900D02*
X147353553Y-98469900D01*
X147353553Y-98469900D02*
X147305934Y-98446090D01*
X147067839Y-98660376D02*
X147067839Y-98327043D01*
X147067839Y-98422281D02*
X147044029Y-98374662D01*
X147044029Y-98374662D02*
X147020220Y-98350852D01*
X147020220Y-98350852D02*
X146972601Y-98327043D01*
X146972601Y-98327043D02*
X146924982Y-98327043D01*
X146544029Y-98660376D02*
X146544029Y-98160376D01*
X146544029Y-98636567D02*
X146591648Y-98660376D01*
X146591648Y-98660376D02*
X146686886Y-98660376D01*
X146686886Y-98660376D02*
X146734505Y-98636567D01*
X146734505Y-98636567D02*
X146758315Y-98612757D01*
X146758315Y-98612757D02*
X146782124Y-98565138D01*
X146782124Y-98565138D02*
X146782124Y-98422281D01*
X146782124Y-98422281D02*
X146758315Y-98374662D01*
X146758315Y-98374662D02*
X146734505Y-98350852D01*
X146734505Y-98350852D02*
X146686886Y-98327043D01*
X146686886Y-98327043D02*
X146591648Y-98327043D01*
X146591648Y-98327043D02*
X146544029Y-98350852D01*
X146353553Y-98327043D02*
X146258315Y-98660376D01*
X146258315Y-98660376D02*
X146163077Y-98422281D01*
X146163077Y-98422281D02*
X146067839Y-98660376D01*
X146067839Y-98660376D02*
X145972601Y-98327043D01*
X145567838Y-98660376D02*
X145567838Y-98398471D01*
X145567838Y-98398471D02*
X145591648Y-98350852D01*
X145591648Y-98350852D02*
X145639267Y-98327043D01*
X145639267Y-98327043D02*
X145734505Y-98327043D01*
X145734505Y-98327043D02*
X145782124Y-98350852D01*
X145567838Y-98636567D02*
X145615457Y-98660376D01*
X145615457Y-98660376D02*
X145734505Y-98660376D01*
X145734505Y-98660376D02*
X145782124Y-98636567D01*
X145782124Y-98636567D02*
X145805933Y-98588947D01*
X145805933Y-98588947D02*
X145805933Y-98541328D01*
X145805933Y-98541328D02*
X145782124Y-98493709D01*
X145782124Y-98493709D02*
X145734505Y-98469900D01*
X145734505Y-98469900D02*
X145615457Y-98469900D01*
X145615457Y-98469900D02*
X145567838Y-98446090D01*
X145329743Y-98660376D02*
X145329743Y-98327043D01*
X145329743Y-98422281D02*
X145305933Y-98374662D01*
X145305933Y-98374662D02*
X145282124Y-98350852D01*
X145282124Y-98350852D02*
X145234505Y-98327043D01*
X145234505Y-98327043D02*
X145186886Y-98327043D01*
X144829743Y-98636567D02*
X144877362Y-98660376D01*
X144877362Y-98660376D02*
X144972600Y-98660376D01*
X144972600Y-98660376D02*
X145020219Y-98636567D01*
X145020219Y-98636567D02*
X145044028Y-98588947D01*
X145044028Y-98588947D02*
X145044028Y-98398471D01*
X145044028Y-98398471D02*
X145020219Y-98350852D01*
X145020219Y-98350852D02*
X144972600Y-98327043D01*
X144972600Y-98327043D02*
X144877362Y-98327043D01*
X144877362Y-98327043D02*
X144829743Y-98350852D01*
X144829743Y-98350852D02*
X144805933Y-98398471D01*
X144805933Y-98398471D02*
X144805933Y-98446090D01*
X144805933Y-98446090D02*
X145044028Y-98493709D01*
X143972601Y-98660376D02*
X144210696Y-98660376D01*
X144210696Y-98660376D02*
X144210696Y-98160376D01*
X143805934Y-98660376D02*
X143805934Y-98327043D01*
X143805934Y-98160376D02*
X143829743Y-98184186D01*
X143829743Y-98184186D02*
X143805934Y-98207995D01*
X143805934Y-98207995D02*
X143782124Y-98184186D01*
X143782124Y-98184186D02*
X143805934Y-98160376D01*
X143805934Y-98160376D02*
X143805934Y-98207995D01*
X143353553Y-98636567D02*
X143401172Y-98660376D01*
X143401172Y-98660376D02*
X143496410Y-98660376D01*
X143496410Y-98660376D02*
X143544029Y-98636567D01*
X143544029Y-98636567D02*
X143567839Y-98612757D01*
X143567839Y-98612757D02*
X143591648Y-98565138D01*
X143591648Y-98565138D02*
X143591648Y-98422281D01*
X143591648Y-98422281D02*
X143567839Y-98374662D01*
X143567839Y-98374662D02*
X143544029Y-98350852D01*
X143544029Y-98350852D02*
X143496410Y-98327043D01*
X143496410Y-98327043D02*
X143401172Y-98327043D01*
X143401172Y-98327043D02*
X143353553Y-98350852D01*
X142948792Y-98636567D02*
X142996411Y-98660376D01*
X142996411Y-98660376D02*
X143091649Y-98660376D01*
X143091649Y-98660376D02*
X143139268Y-98636567D01*
X143139268Y-98636567D02*
X143163077Y-98588947D01*
X143163077Y-98588947D02*
X143163077Y-98398471D01*
X143163077Y-98398471D02*
X143139268Y-98350852D01*
X143139268Y-98350852D02*
X143091649Y-98327043D01*
X143091649Y-98327043D02*
X142996411Y-98327043D01*
X142996411Y-98327043D02*
X142948792Y-98350852D01*
X142948792Y-98350852D02*
X142924982Y-98398471D01*
X142924982Y-98398471D02*
X142924982Y-98446090D01*
X142924982Y-98446090D02*
X143163077Y-98493709D01*
X142710697Y-98327043D02*
X142710697Y-98660376D01*
X142710697Y-98374662D02*
X142686887Y-98350852D01*
X142686887Y-98350852D02*
X142639268Y-98327043D01*
X142639268Y-98327043D02*
X142567840Y-98327043D01*
X142567840Y-98327043D02*
X142520221Y-98350852D01*
X142520221Y-98350852D02*
X142496411Y-98398471D01*
X142496411Y-98398471D02*
X142496411Y-98660376D01*
X142282125Y-98636567D02*
X142234506Y-98660376D01*
X142234506Y-98660376D02*
X142139268Y-98660376D01*
X142139268Y-98660376D02*
X142091649Y-98636567D01*
X142091649Y-98636567D02*
X142067840Y-98588947D01*
X142067840Y-98588947D02*
X142067840Y-98565138D01*
X142067840Y-98565138D02*
X142091649Y-98517519D01*
X142091649Y-98517519D02*
X142139268Y-98493709D01*
X142139268Y-98493709D02*
X142210697Y-98493709D01*
X142210697Y-98493709D02*
X142258316Y-98469900D01*
X142258316Y-98469900D02*
X142282125Y-98422281D01*
X142282125Y-98422281D02*
X142282125Y-98398471D01*
X142282125Y-98398471D02*
X142258316Y-98350852D01*
X142258316Y-98350852D02*
X142210697Y-98327043D01*
X142210697Y-98327043D02*
X142139268Y-98327043D01*
X142139268Y-98327043D02*
X142091649Y-98350852D01*
X141663078Y-98636567D02*
X141710697Y-98660376D01*
X141710697Y-98660376D02*
X141805935Y-98660376D01*
X141805935Y-98660376D02*
X141853554Y-98636567D01*
X141853554Y-98636567D02*
X141877363Y-98588947D01*
X141877363Y-98588947D02*
X141877363Y-98398471D01*
X141877363Y-98398471D02*
X141853554Y-98350852D01*
X141853554Y-98350852D02*
X141805935Y-98327043D01*
X141805935Y-98327043D02*
X141710697Y-98327043D01*
X141710697Y-98327043D02*
X141663078Y-98350852D01*
X141663078Y-98350852D02*
X141639268Y-98398471D01*
X141639268Y-98398471D02*
X141639268Y-98446090D01*
X141639268Y-98446090D02*
X141877363Y-98493709D01*
X148044030Y-99465348D02*
X148044030Y-98965348D01*
X147829744Y-99465348D02*
X147829744Y-99203443D01*
X147829744Y-99203443D02*
X147853554Y-99155824D01*
X147853554Y-99155824D02*
X147901173Y-99132015D01*
X147901173Y-99132015D02*
X147972601Y-99132015D01*
X147972601Y-99132015D02*
X148020220Y-99155824D01*
X148020220Y-99155824D02*
X148044030Y-99179634D01*
X147663077Y-99132015D02*
X147472601Y-99132015D01*
X147591649Y-98965348D02*
X147591649Y-99393919D01*
X147591649Y-99393919D02*
X147567839Y-99441539D01*
X147567839Y-99441539D02*
X147520220Y-99465348D01*
X147520220Y-99465348D02*
X147472601Y-99465348D01*
X147377363Y-99132015D02*
X147186887Y-99132015D01*
X147305935Y-98965348D02*
X147305935Y-99393919D01*
X147305935Y-99393919D02*
X147282125Y-99441539D01*
X147282125Y-99441539D02*
X147234506Y-99465348D01*
X147234506Y-99465348D02*
X147186887Y-99465348D01*
X147020221Y-99132015D02*
X147020221Y-99632015D01*
X147020221Y-99155824D02*
X146972602Y-99132015D01*
X146972602Y-99132015D02*
X146877364Y-99132015D01*
X146877364Y-99132015D02*
X146829745Y-99155824D01*
X146829745Y-99155824D02*
X146805935Y-99179634D01*
X146805935Y-99179634D02*
X146782126Y-99227253D01*
X146782126Y-99227253D02*
X146782126Y-99370110D01*
X146782126Y-99370110D02*
X146805935Y-99417729D01*
X146805935Y-99417729D02*
X146829745Y-99441539D01*
X146829745Y-99441539D02*
X146877364Y-99465348D01*
X146877364Y-99465348D02*
X146972602Y-99465348D01*
X146972602Y-99465348D02*
X147020221Y-99441539D01*
X146567840Y-99417729D02*
X146544030Y-99441539D01*
X146544030Y-99441539D02*
X146567840Y-99465348D01*
X146567840Y-99465348D02*
X146591649Y-99441539D01*
X146591649Y-99441539D02*
X146567840Y-99417729D01*
X146567840Y-99417729D02*
X146567840Y-99465348D01*
X146567840Y-99155824D02*
X146544030Y-99179634D01*
X146544030Y-99179634D02*
X146567840Y-99203443D01*
X146567840Y-99203443D02*
X146591649Y-99179634D01*
X146591649Y-99179634D02*
X146567840Y-99155824D01*
X146567840Y-99155824D02*
X146567840Y-99203443D01*
X145972602Y-98941539D02*
X146401173Y-99584396D01*
X145448792Y-98941539D02*
X145877363Y-99584396D01*
X145329744Y-99132015D02*
X145234506Y-99465348D01*
X145234506Y-99465348D02*
X145139268Y-99227253D01*
X145139268Y-99227253D02*
X145044030Y-99465348D01*
X145044030Y-99465348D02*
X144948792Y-99132015D01*
X144805934Y-99132015D02*
X144710696Y-99465348D01*
X144710696Y-99465348D02*
X144615458Y-99227253D01*
X144615458Y-99227253D02*
X144520220Y-99465348D01*
X144520220Y-99465348D02*
X144424982Y-99132015D01*
X144282124Y-99132015D02*
X144186886Y-99465348D01*
X144186886Y-99465348D02*
X144091648Y-99227253D01*
X144091648Y-99227253D02*
X143996410Y-99465348D01*
X143996410Y-99465348D02*
X143901172Y-99132015D01*
X143710695Y-99417729D02*
X143686885Y-99441539D01*
X143686885Y-99441539D02*
X143710695Y-99465348D01*
X143710695Y-99465348D02*
X143734504Y-99441539D01*
X143734504Y-99441539D02*
X143710695Y-99417729D01*
X143710695Y-99417729D02*
X143710695Y-99465348D01*
X143544028Y-99132015D02*
X143353552Y-99132015D01*
X143472600Y-98965348D02*
X143472600Y-99393919D01*
X143472600Y-99393919D02*
X143448790Y-99441539D01*
X143448790Y-99441539D02*
X143401171Y-99465348D01*
X143401171Y-99465348D02*
X143353552Y-99465348D01*
X142972600Y-99465348D02*
X142972600Y-99203443D01*
X142972600Y-99203443D02*
X142996410Y-99155824D01*
X142996410Y-99155824D02*
X143044029Y-99132015D01*
X143044029Y-99132015D02*
X143139267Y-99132015D01*
X143139267Y-99132015D02*
X143186886Y-99155824D01*
X142972600Y-99441539D02*
X143020219Y-99465348D01*
X143020219Y-99465348D02*
X143139267Y-99465348D01*
X143139267Y-99465348D02*
X143186886Y-99441539D01*
X143186886Y-99441539D02*
X143210695Y-99393919D01*
X143210695Y-99393919D02*
X143210695Y-99346300D01*
X143210695Y-99346300D02*
X143186886Y-99298681D01*
X143186886Y-99298681D02*
X143139267Y-99274872D01*
X143139267Y-99274872D02*
X143020219Y-99274872D01*
X143020219Y-99274872D02*
X142972600Y-99251062D01*
X142734505Y-99132015D02*
X142734505Y-99632015D01*
X142734505Y-99155824D02*
X142686886Y-99132015D01*
X142686886Y-99132015D02*
X142591648Y-99132015D01*
X142591648Y-99132015D02*
X142544029Y-99155824D01*
X142544029Y-99155824D02*
X142520219Y-99179634D01*
X142520219Y-99179634D02*
X142496410Y-99227253D01*
X142496410Y-99227253D02*
X142496410Y-99370110D01*
X142496410Y-99370110D02*
X142520219Y-99417729D01*
X142520219Y-99417729D02*
X142544029Y-99441539D01*
X142544029Y-99441539D02*
X142591648Y-99465348D01*
X142591648Y-99465348D02*
X142686886Y-99465348D01*
X142686886Y-99465348D02*
X142734505Y-99441539D01*
X142282124Y-99465348D02*
X142282124Y-99132015D01*
X142282124Y-99227253D02*
X142258314Y-99179634D01*
X142258314Y-99179634D02*
X142234505Y-99155824D01*
X142234505Y-99155824D02*
X142186886Y-99132015D01*
X142186886Y-99132015D02*
X142139267Y-99132015D01*
X141972600Y-99417729D02*
X141948790Y-99441539D01*
X141948790Y-99441539D02*
X141972600Y-99465348D01*
X141972600Y-99465348D02*
X141996409Y-99441539D01*
X141996409Y-99441539D02*
X141972600Y-99417729D01*
X141972600Y-99417729D02*
X141972600Y-99465348D01*
X141663076Y-99465348D02*
X141710695Y-99441539D01*
X141710695Y-99441539D02*
X141734505Y-99417729D01*
X141734505Y-99417729D02*
X141758314Y-99370110D01*
X141758314Y-99370110D02*
X141758314Y-99227253D01*
X141758314Y-99227253D02*
X141734505Y-99179634D01*
X141734505Y-99179634D02*
X141710695Y-99155824D01*
X141710695Y-99155824D02*
X141663076Y-99132015D01*
X141663076Y-99132015D02*
X141591648Y-99132015D01*
X141591648Y-99132015D02*
X141544029Y-99155824D01*
X141544029Y-99155824D02*
X141520219Y-99179634D01*
X141520219Y-99179634D02*
X141496410Y-99227253D01*
X141496410Y-99227253D02*
X141496410Y-99370110D01*
X141496410Y-99370110D02*
X141520219Y-99417729D01*
X141520219Y-99417729D02*
X141544029Y-99441539D01*
X141544029Y-99441539D02*
X141591648Y-99465348D01*
X141591648Y-99465348D02*
X141663076Y-99465348D01*
X141282124Y-99465348D02*
X141282124Y-99132015D01*
X141282124Y-99227253D02*
X141258314Y-99179634D01*
X141258314Y-99179634D02*
X141234505Y-99155824D01*
X141234505Y-99155824D02*
X141186886Y-99132015D01*
X141186886Y-99132015D02*
X141139267Y-99132015D01*
X140758314Y-99132015D02*
X140758314Y-99536777D01*
X140758314Y-99536777D02*
X140782124Y-99584396D01*
X140782124Y-99584396D02*
X140805933Y-99608205D01*
X140805933Y-99608205D02*
X140853552Y-99632015D01*
X140853552Y-99632015D02*
X140924981Y-99632015D01*
X140924981Y-99632015D02*
X140972600Y-99608205D01*
X140758314Y-99441539D02*
X140805933Y-99465348D01*
X140805933Y-99465348D02*
X140901171Y-99465348D01*
X140901171Y-99465348D02*
X140948790Y-99441539D01*
X140948790Y-99441539D02*
X140972600Y-99417729D01*
X140972600Y-99417729D02*
X140996409Y-99370110D01*
X140996409Y-99370110D02*
X140996409Y-99227253D01*
X140996409Y-99227253D02*
X140972600Y-99179634D01*
X140972600Y-99179634D02*
X140948790Y-99155824D01*
X140948790Y-99155824D02*
X140901171Y-99132015D01*
X140901171Y-99132015D02*
X140805933Y-99132015D01*
X140805933Y-99132015D02*
X140758314Y-99155824D01*
X140163076Y-98941539D02*
X140591647Y-99584396D01*
X139901171Y-98965348D02*
X139805933Y-98965348D01*
X139805933Y-98965348D02*
X139758314Y-98989158D01*
X139758314Y-98989158D02*
X139710695Y-99036777D01*
X139710695Y-99036777D02*
X139686885Y-99132015D01*
X139686885Y-99132015D02*
X139686885Y-99298681D01*
X139686885Y-99298681D02*
X139710695Y-99393919D01*
X139710695Y-99393919D02*
X139758314Y-99441539D01*
X139758314Y-99441539D02*
X139805933Y-99465348D01*
X139805933Y-99465348D02*
X139901171Y-99465348D01*
X139901171Y-99465348D02*
X139948790Y-99441539D01*
X139948790Y-99441539D02*
X139996409Y-99393919D01*
X139996409Y-99393919D02*
X140020218Y-99298681D01*
X140020218Y-99298681D02*
X140020218Y-99132015D01*
X140020218Y-99132015D02*
X139996409Y-99036777D01*
X139996409Y-99036777D02*
X139948790Y-98989158D01*
X139948790Y-98989158D02*
X139901171Y-98965348D01*
X139472599Y-99465348D02*
X139472599Y-98965348D01*
X139472599Y-99203443D02*
X139186885Y-99203443D01*
X139186885Y-99465348D02*
X139186885Y-98965348D01*
X138710694Y-99465348D02*
X138948789Y-99465348D01*
X138948789Y-99465348D02*
X138948789Y-98965348D01*
M02*
