%TF.GenerationSoftware,KiCad,Pcbnew,8.0.4*%
%TF.CreationDate,2024-08-22T06:14:14+01:00*%
%TF.ProjectId,PicoChainATtiny85,5069636f-4368-4616-996e-415474696e79,rev?*%
%TF.SameCoordinates,Original*%
%TF.FileFunction,Legend,Top*%
%TF.FilePolarity,Positive*%
%FSLAX46Y46*%
G04 Gerber Fmt 4.6, Leading zero omitted, Abs format (unit mm)*
G04 Created by KiCad (PCBNEW 8.0.4) date 2024-08-22 06:14:14*
%MOMM*%
%LPD*%
G01*
G04 APERTURE LIST*
%ADD10C,0.150000*%
%ADD11C,0.300000*%
%ADD12C,0.120000*%
G04 APERTURE END LIST*
D10*
X117012438Y-95024411D02*
X116964819Y-95119649D01*
X116964819Y-95119649D02*
X116964819Y-95262506D01*
X116964819Y-95262506D02*
X117012438Y-95405363D01*
X117012438Y-95405363D02*
X117107676Y-95500601D01*
X117107676Y-95500601D02*
X117202914Y-95548220D01*
X117202914Y-95548220D02*
X117393390Y-95595839D01*
X117393390Y-95595839D02*
X117536247Y-95595839D01*
X117536247Y-95595839D02*
X117726723Y-95548220D01*
X117726723Y-95548220D02*
X117821961Y-95500601D01*
X117821961Y-95500601D02*
X117917200Y-95405363D01*
X117917200Y-95405363D02*
X117964819Y-95262506D01*
X117964819Y-95262506D02*
X117964819Y-95167268D01*
X117964819Y-95167268D02*
X117917200Y-95024411D01*
X117917200Y-95024411D02*
X117869580Y-94976792D01*
X117869580Y-94976792D02*
X117536247Y-94976792D01*
X117536247Y-94976792D02*
X117536247Y-95167268D01*
X117964819Y-94548220D02*
X116964819Y-94548220D01*
X116964819Y-94548220D02*
X117964819Y-93976792D01*
X117964819Y-93976792D02*
X116964819Y-93976792D01*
X117964819Y-93500601D02*
X116964819Y-93500601D01*
X116964819Y-93500601D02*
X116964819Y-93262506D01*
X116964819Y-93262506D02*
X117012438Y-93119649D01*
X117012438Y-93119649D02*
X117107676Y-93024411D01*
X117107676Y-93024411D02*
X117202914Y-92976792D01*
X117202914Y-92976792D02*
X117393390Y-92929173D01*
X117393390Y-92929173D02*
X117536247Y-92929173D01*
X117536247Y-92929173D02*
X117726723Y-92976792D01*
X117726723Y-92976792D02*
X117821961Y-93024411D01*
X117821961Y-93024411D02*
X117917200Y-93119649D01*
X117917200Y-93119649D02*
X117964819Y-93262506D01*
X117964819Y-93262506D02*
X117964819Y-93500601D01*
D11*
G36*
X101540801Y-76280941D02*
G01*
X101617637Y-76296934D01*
X101690896Y-76323588D01*
X101705118Y-76330198D01*
X101771350Y-76371400D01*
X101828995Y-76426770D01*
X101873534Y-76488716D01*
X101886835Y-76511915D01*
X101916968Y-76581181D01*
X101938492Y-76661850D01*
X101950263Y-76741789D01*
X101955106Y-76817257D01*
X101955711Y-76857397D01*
X101955711Y-76994050D01*
X102495000Y-76994050D01*
X102495000Y-77310956D01*
X100994371Y-77310956D01*
X100994371Y-76848970D01*
X101247163Y-76848970D01*
X101247163Y-76994050D01*
X101702920Y-76994050D01*
X101702920Y-76888904D01*
X101697589Y-76810307D01*
X101679411Y-76736413D01*
X101648332Y-76675680D01*
X101592495Y-76624680D01*
X101521097Y-76600681D01*
X101470645Y-76596912D01*
X101394696Y-76605773D01*
X101325949Y-76638511D01*
X101278590Y-76695372D01*
X101252619Y-76776356D01*
X101247163Y-76848970D01*
X100994371Y-76848970D01*
X100994371Y-76832117D01*
X100997413Y-76745376D01*
X101006536Y-76666273D01*
X101025512Y-76581433D01*
X101053247Y-76507592D01*
X101096674Y-76435346D01*
X101118935Y-76408967D01*
X101177725Y-76357005D01*
X101245420Y-76317805D01*
X101322021Y-76291368D01*
X101394767Y-76278866D01*
X101460387Y-76275610D01*
X101540801Y-76280941D01*
G37*
G36*
X100900582Y-75859787D02*
G01*
X100912077Y-75784277D01*
X100933189Y-75740352D01*
X100995098Y-75696903D01*
X101052990Y-75689794D01*
X101125621Y-75702433D01*
X101172058Y-75740352D01*
X101200709Y-75810534D01*
X101205397Y-75859787D01*
X101194849Y-75933203D01*
X101172058Y-75980687D01*
X101109919Y-76022876D01*
X101052990Y-76029780D01*
X100979259Y-76017506D01*
X100933189Y-75980687D01*
X100905167Y-75910276D01*
X100900582Y-75859787D01*
G37*
G36*
X101346081Y-75704448D02*
G01*
X102495000Y-75704448D01*
X102495000Y-76017323D01*
X101346081Y-76017323D01*
X101346081Y-75704448D01*
G37*
G36*
X102518447Y-74910537D02*
G01*
X102514994Y-74987826D01*
X102501736Y-75073040D01*
X102478535Y-75150036D01*
X102445391Y-75218816D01*
X102402303Y-75279377D01*
X102377030Y-75306577D01*
X102318001Y-75354014D01*
X102247251Y-75391636D01*
X102164781Y-75419444D01*
X102087102Y-75435120D01*
X102001284Y-75443980D01*
X101926769Y-75446161D01*
X101850377Y-75443650D01*
X101768189Y-75434371D01*
X101693469Y-75418255D01*
X101617219Y-75391464D01*
X101582752Y-75374720D01*
X101520448Y-75335542D01*
X101460810Y-75283201D01*
X101412243Y-75222108D01*
X101386015Y-75176517D01*
X101355377Y-75101936D01*
X101336560Y-75030483D01*
X101325667Y-74954176D01*
X101322634Y-74883426D01*
X101325361Y-74806167D01*
X101334557Y-74730081D01*
X101345715Y-74678628D01*
X101367523Y-74606540D01*
X101396398Y-74534458D01*
X101400303Y-74526221D01*
X101647599Y-74618911D01*
X101618931Y-74689894D01*
X101595942Y-74756297D01*
X101579352Y-74828078D01*
X101575425Y-74883426D01*
X101587738Y-74966223D01*
X101624678Y-75031889D01*
X101686245Y-75080425D01*
X101756362Y-75107786D01*
X101843581Y-75123251D01*
X101925669Y-75127058D01*
X102007140Y-75123051D01*
X102085109Y-75108964D01*
X102154747Y-75081415D01*
X102182857Y-75062944D01*
X102233312Y-75007646D01*
X102260481Y-74937923D01*
X102265655Y-74883426D01*
X102261302Y-74806924D01*
X102246876Y-74733194D01*
X102239277Y-74709036D01*
X102210120Y-74639168D01*
X102172108Y-74571070D01*
X102166371Y-74562124D01*
X102434183Y-74562124D01*
X102470794Y-74630710D01*
X102496136Y-74702516D01*
X102498663Y-74712334D01*
X102512187Y-74789040D01*
X102517751Y-74867178D01*
X102518447Y-74910537D01*
G37*
G36*
X102005014Y-73260436D02*
G01*
X102085281Y-73271437D01*
X102159144Y-73289774D01*
X102239327Y-73321458D01*
X102310287Y-73363705D01*
X102362376Y-73406978D01*
X102415415Y-73467106D01*
X102457482Y-73534833D01*
X102488574Y-73610160D01*
X102508692Y-73693085D01*
X102517075Y-73767995D01*
X102518447Y-73815474D01*
X102514096Y-73893006D01*
X102501045Y-73966233D01*
X102475961Y-74043468D01*
X102448838Y-74099773D01*
X102404405Y-74165815D01*
X102349829Y-74223395D01*
X102285110Y-74272513D01*
X102244773Y-74296144D01*
X102174087Y-74327399D01*
X102096120Y-74349725D01*
X102021926Y-74361934D01*
X101942157Y-74367306D01*
X101918342Y-74367585D01*
X101831830Y-74363945D01*
X101751811Y-74353023D01*
X101678286Y-74334822D01*
X101598627Y-74303369D01*
X101528320Y-74261431D01*
X101476873Y-74218475D01*
X101424456Y-74158643D01*
X101382884Y-74090980D01*
X101352156Y-74015486D01*
X101332274Y-73932161D01*
X101323989Y-73856742D01*
X101322758Y-73813276D01*
X101575425Y-73813276D01*
X101585555Y-73890358D01*
X101619713Y-73956080D01*
X101661154Y-73992794D01*
X101730223Y-74024499D01*
X101801804Y-74040651D01*
X101876817Y-74047612D01*
X101918342Y-74048482D01*
X101998851Y-74045001D01*
X102076942Y-74032765D01*
X102148211Y-74008837D01*
X102177728Y-73992794D01*
X102231309Y-73941137D01*
X102260160Y-73869696D01*
X102265655Y-73811078D01*
X102255266Y-73733996D01*
X102220232Y-73668274D01*
X102177728Y-73631559D01*
X102107408Y-73599854D01*
X102035189Y-73583703D01*
X101959902Y-73576742D01*
X101918342Y-73575872D01*
X101837971Y-73579352D01*
X101760363Y-73591588D01*
X101690038Y-73615516D01*
X101661154Y-73631559D01*
X101608913Y-73683217D01*
X101580783Y-73754658D01*
X101575425Y-73813276D01*
X101322758Y-73813276D01*
X101322634Y-73808879D01*
X101327007Y-73730455D01*
X101340128Y-73656747D01*
X101365344Y-73579464D01*
X101392609Y-73523482D01*
X101436778Y-73457971D01*
X101490974Y-73400748D01*
X101555197Y-73351814D01*
X101595209Y-73328210D01*
X101665276Y-73296954D01*
X101742487Y-73274629D01*
X101815908Y-73262420D01*
X101894798Y-73257048D01*
X101918342Y-73256769D01*
X102005014Y-73260436D01*
G37*
G36*
X101822166Y-71733512D02*
G01*
X101908427Y-71743661D01*
X101988816Y-71760577D01*
X102063331Y-71784259D01*
X102131973Y-71814707D01*
X102209516Y-71862283D01*
X102277881Y-71920431D01*
X102302658Y-71946650D01*
X102358069Y-72018349D01*
X102395636Y-72081684D01*
X102427192Y-72150331D01*
X102452737Y-72224291D01*
X102472272Y-72303563D01*
X102485796Y-72388147D01*
X102493309Y-72478044D01*
X102495000Y-72548953D01*
X102495000Y-72973203D01*
X100994371Y-72973203D01*
X100994371Y-72502791D01*
X100994951Y-72485938D01*
X101247163Y-72485938D01*
X101247163Y-72656297D01*
X102242208Y-72656297D01*
X102242208Y-72519644D01*
X102237787Y-72437475D01*
X102224524Y-72363388D01*
X102193085Y-72277178D01*
X102145927Y-72205336D01*
X102083050Y-72147863D01*
X102004453Y-72104758D01*
X101910138Y-72076021D01*
X101829085Y-72063898D01*
X101739190Y-72059856D01*
X101663545Y-72062522D01*
X101581319Y-72072757D01*
X101508418Y-72090669D01*
X101435153Y-72121268D01*
X101366964Y-72169033D01*
X101314551Y-72229781D01*
X101277113Y-72302848D01*
X101256639Y-72376886D01*
X101247631Y-72460357D01*
X101247163Y-72485938D01*
X100994951Y-72485938D01*
X100997334Y-72416765D01*
X101006221Y-72335093D01*
X101021033Y-72257775D01*
X101041770Y-72184810D01*
X101068431Y-72116198D01*
X101078635Y-72094295D01*
X101119180Y-72022214D01*
X101167403Y-71957602D01*
X101223304Y-71900458D01*
X101286885Y-71850783D01*
X101326664Y-71825750D01*
X101401940Y-71788491D01*
X101472239Y-71763839D01*
X101547870Y-71745910D01*
X101628834Y-71734704D01*
X101715130Y-71730222D01*
X101730031Y-71730129D01*
X101822166Y-71733512D01*
G37*
G36*
X102495000Y-70716399D02*
G01*
X102339295Y-70777215D01*
X102339295Y-70785642D01*
X102397757Y-70837264D01*
X102447809Y-70895851D01*
X102475949Y-70941346D01*
X102501846Y-71011225D01*
X102515085Y-71090396D01*
X102518447Y-71165928D01*
X102512883Y-71239223D01*
X102493321Y-71313853D01*
X102459675Y-71380195D01*
X102429420Y-71419818D01*
X102371225Y-71468521D01*
X102297207Y-71501284D01*
X102218130Y-71517026D01*
X102150617Y-71520568D01*
X102074497Y-71514450D01*
X101998923Y-71492474D01*
X101935530Y-71454515D01*
X101884320Y-71400574D01*
X101878775Y-71392707D01*
X101840627Y-71320602D01*
X101816189Y-71244399D01*
X101801883Y-71169343D01*
X101793709Y-71085297D01*
X101791580Y-71008391D01*
X101791580Y-70930722D01*
X101979159Y-70930722D01*
X101983013Y-71008353D01*
X101998192Y-71083478D01*
X102027885Y-71140648D01*
X102088342Y-71186387D01*
X102156113Y-71199267D01*
X102229630Y-71181280D01*
X102254665Y-71157501D01*
X102281111Y-71087795D01*
X102283974Y-71048325D01*
X102274662Y-70971428D01*
X102243807Y-70900382D01*
X102227554Y-70877965D01*
X102169280Y-70830631D01*
X102093195Y-70809804D01*
X102068185Y-70808722D01*
X101979159Y-70808722D01*
X101979159Y-70930722D01*
X101791580Y-70930722D01*
X101791580Y-70808722D01*
X101738824Y-70808722D01*
X101661662Y-70819107D01*
X101601071Y-70855983D01*
X101565522Y-70920744D01*
X101557107Y-70987142D01*
X101562500Y-71065173D01*
X101578681Y-71141272D01*
X101581653Y-71151273D01*
X101605055Y-71220907D01*
X101632944Y-71290680D01*
X101641737Y-71310642D01*
X101428513Y-71413590D01*
X101395420Y-71342527D01*
X101369701Y-71271773D01*
X101351943Y-71209891D01*
X101336487Y-71138121D01*
X101326755Y-71064777D01*
X101322748Y-70989858D01*
X101322634Y-70974685D01*
X101326150Y-70891807D01*
X101336699Y-70816553D01*
X101357894Y-70738395D01*
X101388661Y-70670615D01*
X101422651Y-70620778D01*
X101479300Y-70567082D01*
X101549230Y-70528729D01*
X101621313Y-70507754D01*
X101703564Y-70498525D01*
X101728932Y-70498046D01*
X102495000Y-70498046D01*
X102495000Y-70716399D01*
G37*
G36*
X100900582Y-70019940D02*
G01*
X100912077Y-69944431D01*
X100933189Y-69900505D01*
X100995098Y-69857057D01*
X101052990Y-69849947D01*
X101125621Y-69862587D01*
X101172058Y-69900505D01*
X101200709Y-69970687D01*
X101205397Y-70019940D01*
X101194849Y-70093356D01*
X101172058Y-70140840D01*
X101109919Y-70183030D01*
X101052990Y-70189933D01*
X100979259Y-70177660D01*
X100933189Y-70140840D01*
X100905167Y-70070430D01*
X100900582Y-70019940D01*
G37*
G36*
X101346081Y-69864602D02*
G01*
X102495000Y-69864602D01*
X102495000Y-70177477D01*
X101346081Y-70177477D01*
X101346081Y-69864602D01*
G37*
G36*
X102155746Y-68736933D02*
G01*
X102238224Y-68744626D01*
X102310535Y-68767707D01*
X102379733Y-68812066D01*
X102424658Y-68860031D01*
X102465690Y-68928953D01*
X102491977Y-69001657D01*
X102509288Y-69085932D01*
X102516981Y-69167376D01*
X102518447Y-69226395D01*
X102516542Y-69304567D01*
X102510119Y-69380860D01*
X102502327Y-69431926D01*
X102484685Y-69507259D01*
X102461397Y-69577212D01*
X102450669Y-69604117D01*
X102188353Y-69604117D01*
X102217393Y-69532813D01*
X102242414Y-69457388D01*
X102256863Y-69404815D01*
X102273383Y-69327912D01*
X102282676Y-69252741D01*
X102283974Y-69215771D01*
X102278017Y-69142124D01*
X102256863Y-69085711D01*
X102193219Y-69046129D01*
X102185055Y-69045778D01*
X102132665Y-69061531D01*
X102085353Y-69120174D01*
X102079909Y-69129675D01*
X102046295Y-69196811D01*
X102015434Y-69266518D01*
X102004071Y-69293440D01*
X101972465Y-69363693D01*
X101938281Y-69429373D01*
X101912847Y-69471127D01*
X101862746Y-69530661D01*
X101803304Y-69572976D01*
X101731038Y-69597980D01*
X101654432Y-69606185D01*
X101642470Y-69606315D01*
X101567434Y-69598575D01*
X101495006Y-69571366D01*
X101435272Y-69524567D01*
X101402501Y-69482484D01*
X101367559Y-69415439D01*
X101342601Y-69338136D01*
X101328951Y-69262081D01*
X101322946Y-69178172D01*
X101322634Y-69152756D01*
X101325674Y-69073965D01*
X101334793Y-68998059D01*
X101344249Y-68949057D01*
X101364428Y-68875641D01*
X101389895Y-68806805D01*
X101415690Y-68749389D01*
X101646866Y-68843911D01*
X101615911Y-68915959D01*
X101589725Y-68984641D01*
X101583119Y-69003646D01*
X101564448Y-69074883D01*
X101557132Y-69151934D01*
X101557107Y-69156786D01*
X101564513Y-69230009D01*
X101607172Y-69290757D01*
X101632944Y-69295638D01*
X101682770Y-69277686D01*
X101725320Y-69217767D01*
X101730031Y-69208443D01*
X101761646Y-69139702D01*
X101792241Y-69068438D01*
X101797442Y-69056036D01*
X101827856Y-68985934D01*
X101861851Y-68918596D01*
X101880607Y-68886043D01*
X101926046Y-68826231D01*
X101985340Y-68778226D01*
X101989417Y-68775767D01*
X102058443Y-68747893D01*
X102131028Y-68737539D01*
X102155746Y-68736933D01*
G37*
G36*
X101346081Y-68657431D02*
G01*
X101346081Y-68315247D01*
X102000041Y-68098726D01*
X102073337Y-68078393D01*
X102097861Y-68073813D01*
X102171649Y-68063782D01*
X102202274Y-68060990D01*
X102202274Y-68054762D01*
X102129152Y-68044120D01*
X102097861Y-68037909D01*
X102024427Y-68018675D01*
X102000041Y-68010799D01*
X101346081Y-67798674D01*
X101346081Y-67462351D01*
X102650704Y-67947784D01*
X102725234Y-67979833D01*
X102791103Y-68017317D01*
X102855778Y-68066811D01*
X102909141Y-68123403D01*
X102920715Y-68138660D01*
X102960145Y-68203071D01*
X102988309Y-68272474D01*
X103005208Y-68346869D01*
X103010840Y-68426256D01*
X103007710Y-68501613D01*
X103005711Y-68518946D01*
X102994720Y-68585990D01*
X102745593Y-68585990D01*
X102753653Y-68531402D01*
X102758049Y-68462159D01*
X102748133Y-68388979D01*
X102712047Y-68321670D01*
X102697965Y-68306821D01*
X102636587Y-68259621D01*
X102569568Y-68226462D01*
X102553984Y-68220725D01*
X102497198Y-68201674D01*
X101346081Y-68657431D01*
G37*
D10*
X122997200Y-95595839D02*
X123044819Y-95452982D01*
X123044819Y-95452982D02*
X123044819Y-95214887D01*
X123044819Y-95214887D02*
X122997200Y-95119649D01*
X122997200Y-95119649D02*
X122949580Y-95072030D01*
X122949580Y-95072030D02*
X122854342Y-95024411D01*
X122854342Y-95024411D02*
X122759104Y-95024411D01*
X122759104Y-95024411D02*
X122663866Y-95072030D01*
X122663866Y-95072030D02*
X122616247Y-95119649D01*
X122616247Y-95119649D02*
X122568628Y-95214887D01*
X122568628Y-95214887D02*
X122521009Y-95405363D01*
X122521009Y-95405363D02*
X122473390Y-95500601D01*
X122473390Y-95500601D02*
X122425771Y-95548220D01*
X122425771Y-95548220D02*
X122330533Y-95595839D01*
X122330533Y-95595839D02*
X122235295Y-95595839D01*
X122235295Y-95595839D02*
X122140057Y-95548220D01*
X122140057Y-95548220D02*
X122092438Y-95500601D01*
X122092438Y-95500601D02*
X122044819Y-95405363D01*
X122044819Y-95405363D02*
X122044819Y-95167268D01*
X122044819Y-95167268D02*
X122092438Y-95024411D01*
X123044819Y-94595839D02*
X122378152Y-94595839D01*
X122044819Y-94595839D02*
X122092438Y-94643458D01*
X122092438Y-94643458D02*
X122140057Y-94595839D01*
X122140057Y-94595839D02*
X122092438Y-94548220D01*
X122092438Y-94548220D02*
X122044819Y-94595839D01*
X122044819Y-94595839D02*
X122140057Y-94595839D01*
X122378152Y-93691078D02*
X123187676Y-93691078D01*
X123187676Y-93691078D02*
X123282914Y-93738697D01*
X123282914Y-93738697D02*
X123330533Y-93786316D01*
X123330533Y-93786316D02*
X123378152Y-93881554D01*
X123378152Y-93881554D02*
X123378152Y-94024411D01*
X123378152Y-94024411D02*
X123330533Y-94119649D01*
X122997200Y-93691078D02*
X123044819Y-93786316D01*
X123044819Y-93786316D02*
X123044819Y-93976792D01*
X123044819Y-93976792D02*
X122997200Y-94072030D01*
X122997200Y-94072030D02*
X122949580Y-94119649D01*
X122949580Y-94119649D02*
X122854342Y-94167268D01*
X122854342Y-94167268D02*
X122568628Y-94167268D01*
X122568628Y-94167268D02*
X122473390Y-94119649D01*
X122473390Y-94119649D02*
X122425771Y-94072030D01*
X122425771Y-94072030D02*
X122378152Y-93976792D01*
X122378152Y-93976792D02*
X122378152Y-93786316D01*
X122378152Y-93786316D02*
X122425771Y-93691078D01*
X122378152Y-93214887D02*
X123044819Y-93214887D01*
X122473390Y-93214887D02*
X122425771Y-93167268D01*
X122425771Y-93167268D02*
X122378152Y-93072030D01*
X122378152Y-93072030D02*
X122378152Y-92929173D01*
X122378152Y-92929173D02*
X122425771Y-92833935D01*
X122425771Y-92833935D02*
X122521009Y-92786316D01*
X122521009Y-92786316D02*
X123044819Y-92786316D01*
X123044819Y-91881554D02*
X122521009Y-91881554D01*
X122521009Y-91881554D02*
X122425771Y-91929173D01*
X122425771Y-91929173D02*
X122378152Y-92024411D01*
X122378152Y-92024411D02*
X122378152Y-92214887D01*
X122378152Y-92214887D02*
X122425771Y-92310125D01*
X122997200Y-91881554D02*
X123044819Y-91976792D01*
X123044819Y-91976792D02*
X123044819Y-92214887D01*
X123044819Y-92214887D02*
X122997200Y-92310125D01*
X122997200Y-92310125D02*
X122901961Y-92357744D01*
X122901961Y-92357744D02*
X122806723Y-92357744D01*
X122806723Y-92357744D02*
X122711485Y-92310125D01*
X122711485Y-92310125D02*
X122663866Y-92214887D01*
X122663866Y-92214887D02*
X122663866Y-91976792D01*
X122663866Y-91976792D02*
X122616247Y-91881554D01*
X123044819Y-91262506D02*
X122997200Y-91357744D01*
X122997200Y-91357744D02*
X122901961Y-91405363D01*
X122901961Y-91405363D02*
X122044819Y-91405363D01*
X120123866Y-95548220D02*
X120123866Y-94786316D01*
X120504819Y-95167268D02*
X119742914Y-95167268D01*
X119504819Y-93833935D02*
X119504819Y-94310125D01*
X119504819Y-94310125D02*
X119981009Y-94357744D01*
X119981009Y-94357744D02*
X119933390Y-94310125D01*
X119933390Y-94310125D02*
X119885771Y-94214887D01*
X119885771Y-94214887D02*
X119885771Y-93976792D01*
X119885771Y-93976792D02*
X119933390Y-93881554D01*
X119933390Y-93881554D02*
X119981009Y-93833935D01*
X119981009Y-93833935D02*
X120076247Y-93786316D01*
X120076247Y-93786316D02*
X120314342Y-93786316D01*
X120314342Y-93786316D02*
X120409580Y-93833935D01*
X120409580Y-93833935D02*
X120457200Y-93881554D01*
X120457200Y-93881554D02*
X120504819Y-93976792D01*
X120504819Y-93976792D02*
X120504819Y-94214887D01*
X120504819Y-94214887D02*
X120457200Y-94310125D01*
X120457200Y-94310125D02*
X120409580Y-94357744D01*
X119504819Y-93500601D02*
X120504819Y-93167268D01*
X120504819Y-93167268D02*
X119504819Y-92833935D01*
X105741541Y-87666414D02*
X105741541Y-88202128D01*
X105741541Y-88202128D02*
X105705826Y-88309271D01*
X105705826Y-88309271D02*
X105634398Y-88380700D01*
X105634398Y-88380700D02*
X105527255Y-88416414D01*
X105527255Y-88416414D02*
X105455826Y-88416414D01*
X106420113Y-88416414D02*
X106420113Y-88023557D01*
X106420113Y-88023557D02*
X106384398Y-87952128D01*
X106384398Y-87952128D02*
X106312970Y-87916414D01*
X106312970Y-87916414D02*
X106170113Y-87916414D01*
X106170113Y-87916414D02*
X106098684Y-87952128D01*
X106420113Y-88380700D02*
X106348684Y-88416414D01*
X106348684Y-88416414D02*
X106170113Y-88416414D01*
X106170113Y-88416414D02*
X106098684Y-88380700D01*
X106098684Y-88380700D02*
X106062970Y-88309271D01*
X106062970Y-88309271D02*
X106062970Y-88237842D01*
X106062970Y-88237842D02*
X106098684Y-88166414D01*
X106098684Y-88166414D02*
X106170113Y-88130700D01*
X106170113Y-88130700D02*
X106348684Y-88130700D01*
X106348684Y-88130700D02*
X106420113Y-88094985D01*
X106741541Y-88380700D02*
X106812969Y-88416414D01*
X106812969Y-88416414D02*
X106955826Y-88416414D01*
X106955826Y-88416414D02*
X107027255Y-88380700D01*
X107027255Y-88380700D02*
X107062969Y-88309271D01*
X107062969Y-88309271D02*
X107062969Y-88273557D01*
X107062969Y-88273557D02*
X107027255Y-88202128D01*
X107027255Y-88202128D02*
X106955826Y-88166414D01*
X106955826Y-88166414D02*
X106848684Y-88166414D01*
X106848684Y-88166414D02*
X106777255Y-88130700D01*
X106777255Y-88130700D02*
X106741541Y-88059271D01*
X106741541Y-88059271D02*
X106741541Y-88023557D01*
X106741541Y-88023557D02*
X106777255Y-87952128D01*
X106777255Y-87952128D02*
X106848684Y-87916414D01*
X106848684Y-87916414D02*
X106955826Y-87916414D01*
X106955826Y-87916414D02*
X107027255Y-87952128D01*
X107491541Y-88416414D02*
X107420112Y-88380700D01*
X107420112Y-88380700D02*
X107384398Y-88344985D01*
X107384398Y-88344985D02*
X107348684Y-88273557D01*
X107348684Y-88273557D02*
X107348684Y-88059271D01*
X107348684Y-88059271D02*
X107384398Y-87987842D01*
X107384398Y-87987842D02*
X107420112Y-87952128D01*
X107420112Y-87952128D02*
X107491541Y-87916414D01*
X107491541Y-87916414D02*
X107598684Y-87916414D01*
X107598684Y-87916414D02*
X107670112Y-87952128D01*
X107670112Y-87952128D02*
X107705827Y-87987842D01*
X107705827Y-87987842D02*
X107741541Y-88059271D01*
X107741541Y-88059271D02*
X107741541Y-88273557D01*
X107741541Y-88273557D02*
X107705827Y-88344985D01*
X107705827Y-88344985D02*
X107670112Y-88380700D01*
X107670112Y-88380700D02*
X107598684Y-88416414D01*
X107598684Y-88416414D02*
X107491541Y-88416414D01*
X108062969Y-87916414D02*
X108062969Y-88416414D01*
X108062969Y-87987842D02*
X108098683Y-87952128D01*
X108098683Y-87952128D02*
X108170112Y-87916414D01*
X108170112Y-87916414D02*
X108277255Y-87916414D01*
X108277255Y-87916414D02*
X108348683Y-87952128D01*
X108348683Y-87952128D02*
X108384398Y-88023557D01*
X108384398Y-88023557D02*
X108384398Y-88416414D01*
X109277255Y-88202128D02*
X109634398Y-88202128D01*
X109205826Y-88416414D02*
X109455826Y-87666414D01*
X109455826Y-87666414D02*
X109705826Y-88416414D01*
X110062969Y-88416414D02*
X109991540Y-88380700D01*
X109991540Y-88380700D02*
X109955826Y-88309271D01*
X109955826Y-88309271D02*
X109955826Y-87666414D01*
X110634397Y-88380700D02*
X110562969Y-88416414D01*
X110562969Y-88416414D02*
X110420112Y-88416414D01*
X110420112Y-88416414D02*
X110348683Y-88380700D01*
X110348683Y-88380700D02*
X110312969Y-88309271D01*
X110312969Y-88309271D02*
X110312969Y-88023557D01*
X110312969Y-88023557D02*
X110348683Y-87952128D01*
X110348683Y-87952128D02*
X110420112Y-87916414D01*
X110420112Y-87916414D02*
X110562969Y-87916414D01*
X110562969Y-87916414D02*
X110634397Y-87952128D01*
X110634397Y-87952128D02*
X110670112Y-88023557D01*
X110670112Y-88023557D02*
X110670112Y-88094985D01*
X110670112Y-88094985D02*
X110312969Y-88166414D01*
X110920111Y-88416414D02*
X111312969Y-87916414D01*
X110920111Y-87916414D02*
X111312969Y-88416414D01*
X111920112Y-88416414D02*
X111920112Y-88023557D01*
X111920112Y-88023557D02*
X111884397Y-87952128D01*
X111884397Y-87952128D02*
X111812969Y-87916414D01*
X111812969Y-87916414D02*
X111670112Y-87916414D01*
X111670112Y-87916414D02*
X111598683Y-87952128D01*
X111920112Y-88380700D02*
X111848683Y-88416414D01*
X111848683Y-88416414D02*
X111670112Y-88416414D01*
X111670112Y-88416414D02*
X111598683Y-88380700D01*
X111598683Y-88380700D02*
X111562969Y-88309271D01*
X111562969Y-88309271D02*
X111562969Y-88237842D01*
X111562969Y-88237842D02*
X111598683Y-88166414D01*
X111598683Y-88166414D02*
X111670112Y-88130700D01*
X111670112Y-88130700D02*
X111848683Y-88130700D01*
X111848683Y-88130700D02*
X111920112Y-88094985D01*
X112277254Y-87916414D02*
X112277254Y-88416414D01*
X112277254Y-87987842D02*
X112312968Y-87952128D01*
X112312968Y-87952128D02*
X112384397Y-87916414D01*
X112384397Y-87916414D02*
X112491540Y-87916414D01*
X112491540Y-87916414D02*
X112562968Y-87952128D01*
X112562968Y-87952128D02*
X112598683Y-88023557D01*
X112598683Y-88023557D02*
X112598683Y-88416414D01*
X113277254Y-88416414D02*
X113277254Y-87666414D01*
X113277254Y-88380700D02*
X113205825Y-88416414D01*
X113205825Y-88416414D02*
X113062968Y-88416414D01*
X113062968Y-88416414D02*
X112991539Y-88380700D01*
X112991539Y-88380700D02*
X112955825Y-88344985D01*
X112955825Y-88344985D02*
X112920111Y-88273557D01*
X112920111Y-88273557D02*
X112920111Y-88059271D01*
X112920111Y-88059271D02*
X112955825Y-87987842D01*
X112955825Y-87987842D02*
X112991539Y-87952128D01*
X112991539Y-87952128D02*
X113062968Y-87916414D01*
X113062968Y-87916414D02*
X113205825Y-87916414D01*
X113205825Y-87916414D02*
X113277254Y-87952128D01*
X113920110Y-88380700D02*
X113848682Y-88416414D01*
X113848682Y-88416414D02*
X113705825Y-88416414D01*
X113705825Y-88416414D02*
X113634396Y-88380700D01*
X113634396Y-88380700D02*
X113598682Y-88309271D01*
X113598682Y-88309271D02*
X113598682Y-88023557D01*
X113598682Y-88023557D02*
X113634396Y-87952128D01*
X113634396Y-87952128D02*
X113705825Y-87916414D01*
X113705825Y-87916414D02*
X113848682Y-87916414D01*
X113848682Y-87916414D02*
X113920110Y-87952128D01*
X113920110Y-87952128D02*
X113955825Y-88023557D01*
X113955825Y-88023557D02*
X113955825Y-88094985D01*
X113955825Y-88094985D02*
X113598682Y-88166414D01*
X114277253Y-88416414D02*
X114277253Y-87916414D01*
X114277253Y-88059271D02*
X114312967Y-87987842D01*
X114312967Y-87987842D02*
X114348682Y-87952128D01*
X114348682Y-87952128D02*
X114420110Y-87916414D01*
X114420110Y-87916414D02*
X114491539Y-87916414D01*
D11*
G36*
X106004623Y-85747413D02*
G01*
X106083726Y-85756536D01*
X106168566Y-85775512D01*
X106242407Y-85803247D01*
X106314653Y-85846674D01*
X106341032Y-85868935D01*
X106392994Y-85927725D01*
X106432194Y-85995420D01*
X106458631Y-86072021D01*
X106471133Y-86144767D01*
X106474389Y-86210387D01*
X106469058Y-86290801D01*
X106453065Y-86367637D01*
X106426411Y-86440896D01*
X106419801Y-86455118D01*
X106378599Y-86521350D01*
X106323229Y-86578995D01*
X106261283Y-86623534D01*
X106238084Y-86636835D01*
X106168818Y-86666968D01*
X106088149Y-86688492D01*
X106008210Y-86700263D01*
X105932742Y-86705106D01*
X105892602Y-86705711D01*
X105755949Y-86705711D01*
X105755949Y-87245000D01*
X105439043Y-87245000D01*
X105439043Y-86452920D01*
X105755949Y-86452920D01*
X105861095Y-86452920D01*
X105939692Y-86447589D01*
X106013586Y-86429411D01*
X106074319Y-86398332D01*
X106125319Y-86342495D01*
X106149318Y-86271097D01*
X106153087Y-86220645D01*
X106144226Y-86144696D01*
X106111488Y-86075949D01*
X106054627Y-86028590D01*
X105973643Y-86002619D01*
X105901029Y-85997163D01*
X105755949Y-85997163D01*
X105755949Y-86452920D01*
X105439043Y-86452920D01*
X105439043Y-85744371D01*
X105917882Y-85744371D01*
X106004623Y-85747413D01*
G37*
G36*
X106890212Y-85650582D02*
G01*
X106965722Y-85662077D01*
X107009647Y-85683189D01*
X107053096Y-85745098D01*
X107060205Y-85802990D01*
X107047566Y-85875621D01*
X107009647Y-85922058D01*
X106939465Y-85950709D01*
X106890212Y-85955397D01*
X106816796Y-85944849D01*
X106769312Y-85922058D01*
X106727123Y-85859919D01*
X106720219Y-85802990D01*
X106732493Y-85729259D01*
X106769312Y-85683189D01*
X106839723Y-85655167D01*
X106890212Y-85650582D01*
G37*
G36*
X107045551Y-86096081D02*
G01*
X107045551Y-87245000D01*
X106732676Y-87245000D01*
X106732676Y-86096081D01*
X107045551Y-86096081D01*
G37*
G36*
X107839462Y-87268447D02*
G01*
X107762173Y-87264994D01*
X107676959Y-87251736D01*
X107599963Y-87228535D01*
X107531183Y-87195391D01*
X107470622Y-87152303D01*
X107443422Y-87127030D01*
X107395985Y-87068001D01*
X107358363Y-86997251D01*
X107330555Y-86914781D01*
X107314879Y-86837102D01*
X107306019Y-86751284D01*
X107303838Y-86676769D01*
X107306349Y-86600377D01*
X107315628Y-86518189D01*
X107331744Y-86443469D01*
X107358535Y-86367219D01*
X107375279Y-86332752D01*
X107414457Y-86270448D01*
X107466798Y-86210810D01*
X107527891Y-86162243D01*
X107573482Y-86136015D01*
X107648063Y-86105377D01*
X107719516Y-86086560D01*
X107795823Y-86075667D01*
X107866573Y-86072634D01*
X107943832Y-86075361D01*
X108019918Y-86084557D01*
X108071371Y-86095715D01*
X108143459Y-86117523D01*
X108215541Y-86146398D01*
X108223778Y-86150303D01*
X108131088Y-86397599D01*
X108060105Y-86368931D01*
X107993702Y-86345942D01*
X107921921Y-86329352D01*
X107866573Y-86325425D01*
X107783776Y-86337738D01*
X107718110Y-86374678D01*
X107669574Y-86436245D01*
X107642213Y-86506362D01*
X107626748Y-86593581D01*
X107622941Y-86675669D01*
X107626948Y-86757140D01*
X107641035Y-86835109D01*
X107668584Y-86904747D01*
X107687055Y-86932857D01*
X107742353Y-86983312D01*
X107812076Y-87010481D01*
X107866573Y-87015655D01*
X107943075Y-87011302D01*
X108016805Y-86996876D01*
X108040963Y-86989277D01*
X108110831Y-86960120D01*
X108178929Y-86922108D01*
X108187875Y-86916371D01*
X108187875Y-87184183D01*
X108119289Y-87220794D01*
X108047483Y-87246136D01*
X108037665Y-87248663D01*
X107960959Y-87262187D01*
X107882821Y-87267751D01*
X107839462Y-87268447D01*
G37*
G36*
X109019544Y-86077007D02*
G01*
X109093252Y-86090128D01*
X109170535Y-86115344D01*
X109226517Y-86142609D01*
X109292028Y-86186778D01*
X109349251Y-86240974D01*
X109398185Y-86305197D01*
X109421789Y-86345209D01*
X109453045Y-86415276D01*
X109475370Y-86492487D01*
X109487579Y-86565908D01*
X109492951Y-86644798D01*
X109493230Y-86668342D01*
X109489563Y-86755014D01*
X109478562Y-86835281D01*
X109460225Y-86909144D01*
X109428541Y-86989327D01*
X109386294Y-87060287D01*
X109343021Y-87112376D01*
X109282893Y-87165415D01*
X109215166Y-87207482D01*
X109139839Y-87238574D01*
X109056914Y-87258692D01*
X108982004Y-87267075D01*
X108934525Y-87268447D01*
X108856993Y-87264096D01*
X108783766Y-87251045D01*
X108706531Y-87225961D01*
X108650226Y-87198838D01*
X108584184Y-87154405D01*
X108526604Y-87099829D01*
X108477486Y-87035110D01*
X108453855Y-86994773D01*
X108422600Y-86924087D01*
X108400274Y-86846120D01*
X108388065Y-86771926D01*
X108382693Y-86692157D01*
X108382414Y-86668342D01*
X108701517Y-86668342D01*
X108704998Y-86748851D01*
X108717234Y-86826942D01*
X108741162Y-86898211D01*
X108757205Y-86927728D01*
X108808862Y-86981309D01*
X108880303Y-87010160D01*
X108938921Y-87015655D01*
X109016003Y-87005266D01*
X109081725Y-86970232D01*
X109118440Y-86927728D01*
X109150145Y-86857408D01*
X109166296Y-86785189D01*
X109173257Y-86709902D01*
X109174127Y-86668342D01*
X109170647Y-86587971D01*
X109158411Y-86510363D01*
X109134483Y-86440038D01*
X109118440Y-86411154D01*
X109066782Y-86358913D01*
X108995341Y-86330783D01*
X108936723Y-86325425D01*
X108859641Y-86335555D01*
X108793919Y-86369713D01*
X108757205Y-86411154D01*
X108725500Y-86480223D01*
X108709348Y-86551804D01*
X108702387Y-86626817D01*
X108701517Y-86668342D01*
X108382414Y-86668342D01*
X108386054Y-86581830D01*
X108396976Y-86501811D01*
X108415177Y-86428286D01*
X108446630Y-86348627D01*
X108488568Y-86278320D01*
X108531524Y-86226873D01*
X108591356Y-86174456D01*
X108659019Y-86132884D01*
X108734513Y-86102156D01*
X108817838Y-86082274D01*
X108893257Y-86073989D01*
X108941120Y-86072634D01*
X109019544Y-86077007D01*
G37*
G36*
X110333234Y-85747334D02*
G01*
X110414906Y-85756221D01*
X110492224Y-85771033D01*
X110565189Y-85791770D01*
X110633801Y-85818431D01*
X110655704Y-85828635D01*
X110727785Y-85869180D01*
X110792397Y-85917403D01*
X110849541Y-85973304D01*
X110899216Y-86036885D01*
X110924249Y-86076664D01*
X110961508Y-86151940D01*
X110986160Y-86222239D01*
X111004089Y-86297870D01*
X111015295Y-86378834D01*
X111019777Y-86465130D01*
X111019870Y-86480031D01*
X111016487Y-86572166D01*
X111006338Y-86658427D01*
X110989422Y-86738816D01*
X110965740Y-86813331D01*
X110935292Y-86881973D01*
X110887716Y-86959516D01*
X110829568Y-87027881D01*
X110803349Y-87052658D01*
X110731650Y-87108069D01*
X110668315Y-87145636D01*
X110599668Y-87177192D01*
X110525708Y-87202737D01*
X110446436Y-87222272D01*
X110361852Y-87235796D01*
X110271955Y-87243309D01*
X110201046Y-87245000D01*
X109776796Y-87245000D01*
X109776796Y-86992208D01*
X110093702Y-86992208D01*
X110230355Y-86992208D01*
X110312524Y-86987787D01*
X110386611Y-86974524D01*
X110472821Y-86943085D01*
X110544663Y-86895927D01*
X110602136Y-86833050D01*
X110645241Y-86754453D01*
X110673978Y-86660138D01*
X110686101Y-86579085D01*
X110690143Y-86489190D01*
X110687477Y-86413545D01*
X110677242Y-86331319D01*
X110659330Y-86258418D01*
X110628731Y-86185153D01*
X110580966Y-86116964D01*
X110520218Y-86064551D01*
X110447151Y-86027113D01*
X110373113Y-86006639D01*
X110289642Y-85997631D01*
X110264061Y-85997163D01*
X110093702Y-85997163D01*
X110093702Y-86992208D01*
X109776796Y-86992208D01*
X109776796Y-85744371D01*
X110247208Y-85744371D01*
X110333234Y-85747334D01*
G37*
G36*
X111858192Y-86076150D02*
G01*
X111933446Y-86086699D01*
X112011604Y-86107894D01*
X112079384Y-86138661D01*
X112129221Y-86172651D01*
X112182917Y-86229300D01*
X112221270Y-86299230D01*
X112242245Y-86371313D01*
X112251474Y-86453564D01*
X112251953Y-86478932D01*
X112251953Y-87245000D01*
X112033600Y-87245000D01*
X111972784Y-87089295D01*
X111964357Y-87089295D01*
X111912735Y-87147757D01*
X111854148Y-87197809D01*
X111808653Y-87225949D01*
X111738774Y-87251846D01*
X111659603Y-87265085D01*
X111584071Y-87268447D01*
X111510776Y-87262883D01*
X111436146Y-87243321D01*
X111369804Y-87209675D01*
X111330181Y-87179420D01*
X111281478Y-87121225D01*
X111248715Y-87047207D01*
X111232973Y-86968130D01*
X111229719Y-86906113D01*
X111550732Y-86906113D01*
X111568719Y-86979630D01*
X111592498Y-87004665D01*
X111662204Y-87031111D01*
X111701674Y-87033974D01*
X111778571Y-87024662D01*
X111849617Y-86993807D01*
X111872034Y-86977554D01*
X111919368Y-86919280D01*
X111940195Y-86843195D01*
X111941277Y-86818185D01*
X111941277Y-86729159D01*
X111819277Y-86729159D01*
X111741646Y-86733013D01*
X111666521Y-86748192D01*
X111609351Y-86777885D01*
X111563612Y-86838342D01*
X111550732Y-86906113D01*
X111229719Y-86906113D01*
X111229431Y-86900617D01*
X111235549Y-86824497D01*
X111257525Y-86748923D01*
X111295484Y-86685530D01*
X111349425Y-86634320D01*
X111357292Y-86628775D01*
X111429397Y-86590627D01*
X111505600Y-86566189D01*
X111580656Y-86551883D01*
X111664702Y-86543709D01*
X111741608Y-86541580D01*
X111941277Y-86541580D01*
X111941277Y-86488824D01*
X111930892Y-86411662D01*
X111894016Y-86351071D01*
X111829255Y-86315522D01*
X111762857Y-86307107D01*
X111684826Y-86312500D01*
X111608727Y-86328681D01*
X111598726Y-86331653D01*
X111529092Y-86355055D01*
X111459319Y-86382944D01*
X111439357Y-86391737D01*
X111336409Y-86178513D01*
X111407472Y-86145420D01*
X111478226Y-86119701D01*
X111540108Y-86101943D01*
X111611878Y-86086487D01*
X111685222Y-86076755D01*
X111760141Y-86072748D01*
X111775314Y-86072634D01*
X111858192Y-86076150D01*
G37*
G36*
X112730059Y-85650582D02*
G01*
X112805568Y-85662077D01*
X112849494Y-85683189D01*
X112892942Y-85745098D01*
X112900052Y-85802990D01*
X112887412Y-85875621D01*
X112849494Y-85922058D01*
X112779312Y-85950709D01*
X112730059Y-85955397D01*
X112656643Y-85944849D01*
X112609159Y-85922058D01*
X112566969Y-85859919D01*
X112560066Y-85802990D01*
X112572339Y-85729259D01*
X112609159Y-85683189D01*
X112679569Y-85655167D01*
X112730059Y-85650582D01*
G37*
G36*
X112885397Y-86096081D02*
G01*
X112885397Y-87245000D01*
X112572522Y-87245000D01*
X112572522Y-86096081D01*
X112885397Y-86096081D01*
G37*
G36*
X114013066Y-86905746D02*
G01*
X114005373Y-86988224D01*
X113982292Y-87060535D01*
X113937933Y-87129733D01*
X113889968Y-87174658D01*
X113821046Y-87215690D01*
X113748342Y-87241977D01*
X113664067Y-87259288D01*
X113582623Y-87266981D01*
X113523604Y-87268447D01*
X113445432Y-87266542D01*
X113369139Y-87260119D01*
X113318073Y-87252327D01*
X113242740Y-87234685D01*
X113172787Y-87211397D01*
X113145882Y-87200669D01*
X113145882Y-86938353D01*
X113217186Y-86967393D01*
X113292611Y-86992414D01*
X113345184Y-87006863D01*
X113422087Y-87023383D01*
X113497258Y-87032676D01*
X113534228Y-87033974D01*
X113607875Y-87028017D01*
X113664288Y-87006863D01*
X113703870Y-86943219D01*
X113704221Y-86935055D01*
X113688468Y-86882665D01*
X113629825Y-86835353D01*
X113620324Y-86829909D01*
X113553188Y-86796295D01*
X113483481Y-86765434D01*
X113456559Y-86754071D01*
X113386306Y-86722465D01*
X113320626Y-86688281D01*
X113278872Y-86662847D01*
X113219338Y-86612746D01*
X113177023Y-86553304D01*
X113152019Y-86481038D01*
X113143814Y-86404432D01*
X113143684Y-86392470D01*
X113151424Y-86317434D01*
X113178633Y-86245006D01*
X113225432Y-86185272D01*
X113267515Y-86152501D01*
X113334560Y-86117559D01*
X113411863Y-86092601D01*
X113487918Y-86078951D01*
X113571827Y-86072946D01*
X113597243Y-86072634D01*
X113676034Y-86075674D01*
X113751940Y-86084793D01*
X113800942Y-86094249D01*
X113874358Y-86114428D01*
X113943194Y-86139895D01*
X114000610Y-86165690D01*
X113906088Y-86396866D01*
X113834040Y-86365911D01*
X113765358Y-86339725D01*
X113746353Y-86333119D01*
X113675116Y-86314448D01*
X113598065Y-86307132D01*
X113593213Y-86307107D01*
X113519990Y-86314513D01*
X113459242Y-86357172D01*
X113454361Y-86382944D01*
X113472313Y-86432770D01*
X113532232Y-86475320D01*
X113541556Y-86480031D01*
X113610297Y-86511646D01*
X113681561Y-86542241D01*
X113693963Y-86547442D01*
X113764065Y-86577856D01*
X113831403Y-86611851D01*
X113863956Y-86630607D01*
X113923768Y-86676046D01*
X113971773Y-86735340D01*
X113974232Y-86739417D01*
X114002106Y-86808443D01*
X114012460Y-86881028D01*
X114013066Y-86905746D01*
G37*
G36*
X114092568Y-86096081D02*
G01*
X114434752Y-86096081D01*
X114651273Y-86750041D01*
X114671606Y-86823337D01*
X114676186Y-86847861D01*
X114686217Y-86921649D01*
X114689009Y-86952274D01*
X114695237Y-86952274D01*
X114705879Y-86879152D01*
X114712090Y-86847861D01*
X114731324Y-86774427D01*
X114739200Y-86750041D01*
X114951325Y-86096081D01*
X115287648Y-86096081D01*
X114802215Y-87400704D01*
X114770166Y-87475234D01*
X114732682Y-87541103D01*
X114683188Y-87605778D01*
X114626596Y-87659141D01*
X114611339Y-87670715D01*
X114546928Y-87710145D01*
X114477525Y-87738309D01*
X114403130Y-87755208D01*
X114323743Y-87760840D01*
X114248386Y-87757710D01*
X114231053Y-87755711D01*
X114164009Y-87744720D01*
X114164009Y-87495593D01*
X114218597Y-87503653D01*
X114287840Y-87508049D01*
X114361020Y-87498133D01*
X114428329Y-87462047D01*
X114443178Y-87447965D01*
X114490378Y-87386587D01*
X114523537Y-87319568D01*
X114529274Y-87303984D01*
X114548325Y-87247198D01*
X114092568Y-86096081D01*
G37*
G36*
X115915963Y-86667243D02*
G01*
X115917778Y-86587663D01*
X115923225Y-86508977D01*
X115932304Y-86431185D01*
X115945014Y-86354288D01*
X115961356Y-86278285D01*
X115981328Y-86203177D01*
X115990334Y-86173384D01*
X116015765Y-86100120D01*
X116045346Y-86029164D01*
X116079078Y-85960515D01*
X116116959Y-85894174D01*
X116158991Y-85830141D01*
X116205173Y-85768416D01*
X116224808Y-85744371D01*
X116480896Y-85744371D01*
X116437909Y-85806941D01*
X116398250Y-85871461D01*
X116361917Y-85937931D01*
X116328912Y-86006351D01*
X116299235Y-86076720D01*
X116272884Y-86149039D01*
X116263276Y-86178513D01*
X116241850Y-86252891D01*
X116224056Y-86327878D01*
X116209894Y-86403473D01*
X116199362Y-86479676D01*
X116192463Y-86556487D01*
X116189194Y-86633907D01*
X116188904Y-86665045D01*
X116190702Y-86740887D01*
X116196095Y-86816370D01*
X116205084Y-86891497D01*
X116217669Y-86966265D01*
X116233850Y-87040676D01*
X116253626Y-87114728D01*
X116262543Y-87144249D01*
X116287237Y-87216934D01*
X116315294Y-87287525D01*
X116346714Y-87356023D01*
X116381497Y-87422429D01*
X116419643Y-87486741D01*
X116461153Y-87548960D01*
X116478698Y-87573262D01*
X116224808Y-87573262D01*
X116176966Y-87514361D01*
X116133274Y-87453063D01*
X116093732Y-87389368D01*
X116058341Y-87323276D01*
X116027100Y-87254786D01*
X116000009Y-87183900D01*
X115990334Y-87154874D01*
X115968909Y-87081338D01*
X115951115Y-87006818D01*
X115936952Y-86931315D01*
X115926421Y-86854827D01*
X115919521Y-86777356D01*
X115916253Y-86698901D01*
X115915963Y-86667243D01*
G37*
G36*
X116979518Y-87245000D02*
G01*
X116542812Y-86096081D01*
X116870341Y-86096081D01*
X117090893Y-86753339D01*
X117110416Y-86825062D01*
X117120202Y-86876071D01*
X117130907Y-86950288D01*
X117134856Y-86990010D01*
X117143283Y-86990010D01*
X117151713Y-86910638D01*
X117166138Y-86836678D01*
X117187004Y-86761001D01*
X117189445Y-86753339D01*
X117409996Y-86096081D01*
X117737892Y-86096081D01*
X117300819Y-87245000D01*
X116979518Y-87245000D01*
G37*
G36*
X118604344Y-87245000D02*
G01*
X118287438Y-87245000D01*
X118287438Y-86388073D01*
X118288084Y-86313815D01*
X118289270Y-86248122D01*
X118291814Y-86170177D01*
X118295865Y-86093517D01*
X118250436Y-86138213D01*
X118194096Y-86188663D01*
X118186688Y-86195000D01*
X118014497Y-86332020D01*
X117860990Y-86142976D01*
X118344225Y-85744371D01*
X118604344Y-85744371D01*
X118604344Y-87245000D01*
G37*
G36*
X119057170Y-87092592D02*
G01*
X119067198Y-87018470D01*
X119109560Y-86955938D01*
X119175918Y-86924240D01*
X119237787Y-86916737D01*
X119313612Y-86929141D01*
X119363450Y-86955938D01*
X119406109Y-87018470D01*
X119416207Y-87092592D01*
X119404615Y-87168482D01*
X119363450Y-87227048D01*
X119297904Y-87260523D01*
X119237787Y-87268447D01*
X119163828Y-87256763D01*
X119109560Y-87227048D01*
X119067198Y-87164129D01*
X119057170Y-87092592D01*
G37*
G36*
X120402459Y-87245000D02*
G01*
X120085554Y-87245000D01*
X120085554Y-86388073D01*
X120086200Y-86313815D01*
X120087386Y-86248122D01*
X120089930Y-86170177D01*
X120093981Y-86093517D01*
X120048551Y-86138213D01*
X119992212Y-86188663D01*
X119984804Y-86195000D01*
X119812613Y-86332020D01*
X119659106Y-86142976D01*
X120142341Y-85744371D01*
X120402459Y-85744371D01*
X120402459Y-87245000D01*
G37*
G36*
X121363433Y-86667243D02*
G01*
X121361608Y-86746092D01*
X121356134Y-86823957D01*
X121347011Y-86900838D01*
X121334238Y-86976735D01*
X121317816Y-87051648D01*
X121297745Y-87125578D01*
X121288695Y-87154874D01*
X121263369Y-87226719D01*
X121233876Y-87296167D01*
X121200214Y-87363219D01*
X121162385Y-87427873D01*
X121120387Y-87490129D01*
X121074221Y-87549989D01*
X121054588Y-87573262D01*
X120800697Y-87573262D01*
X120843042Y-87511880D01*
X120882149Y-87448405D01*
X120918018Y-87382837D01*
X120950649Y-87315175D01*
X120980042Y-87245421D01*
X121006198Y-87173574D01*
X121015753Y-87144249D01*
X121037284Y-87070340D01*
X121055166Y-86996072D01*
X121069398Y-86921447D01*
X121079981Y-86846464D01*
X121086915Y-86771123D01*
X121090200Y-86695424D01*
X121090491Y-86665045D01*
X121088667Y-86587382D01*
X121083193Y-86510328D01*
X121074069Y-86433881D01*
X121061297Y-86358043D01*
X121044875Y-86282813D01*
X121024804Y-86208191D01*
X121015753Y-86178513D01*
X120990839Y-86105414D01*
X120962580Y-86034264D01*
X120930976Y-85965065D01*
X120896026Y-85897815D01*
X120857732Y-85832515D01*
X120816092Y-85769165D01*
X120798499Y-85744371D01*
X121054588Y-85744371D01*
X121102421Y-85805174D01*
X121146086Y-85868284D01*
X121185583Y-85933702D01*
X121220911Y-86001428D01*
X121252072Y-86071461D01*
X121279065Y-86143802D01*
X121288695Y-86173384D01*
X121310226Y-86248134D01*
X121328107Y-86323779D01*
X121342340Y-86400319D01*
X121352923Y-86477753D01*
X121359857Y-86556081D01*
X121363141Y-86635304D01*
X121363433Y-86667243D01*
G37*
D10*
X128283580Y-83764666D02*
X128331200Y-83812285D01*
X128331200Y-83812285D02*
X128378819Y-83955142D01*
X128378819Y-83955142D02*
X128378819Y-84050380D01*
X128378819Y-84050380D02*
X128331200Y-84193237D01*
X128331200Y-84193237D02*
X128235961Y-84288475D01*
X128235961Y-84288475D02*
X128140723Y-84336094D01*
X128140723Y-84336094D02*
X127950247Y-84383713D01*
X127950247Y-84383713D02*
X127807390Y-84383713D01*
X127807390Y-84383713D02*
X127616914Y-84336094D01*
X127616914Y-84336094D02*
X127521676Y-84288475D01*
X127521676Y-84288475D02*
X127426438Y-84193237D01*
X127426438Y-84193237D02*
X127378819Y-84050380D01*
X127378819Y-84050380D02*
X127378819Y-83955142D01*
X127378819Y-83955142D02*
X127426438Y-83812285D01*
X127426438Y-83812285D02*
X127474057Y-83764666D01*
X127474057Y-83383713D02*
X127426438Y-83336094D01*
X127426438Y-83336094D02*
X127378819Y-83240856D01*
X127378819Y-83240856D02*
X127378819Y-83002761D01*
X127378819Y-83002761D02*
X127426438Y-82907523D01*
X127426438Y-82907523D02*
X127474057Y-82859904D01*
X127474057Y-82859904D02*
X127569295Y-82812285D01*
X127569295Y-82812285D02*
X127664533Y-82812285D01*
X127664533Y-82812285D02*
X127807390Y-82859904D01*
X127807390Y-82859904D02*
X128378819Y-83431332D01*
X128378819Y-83431332D02*
X128378819Y-82812285D01*
X125644819Y-81780666D02*
X125644819Y-81161619D01*
X125644819Y-81161619D02*
X126025771Y-81494952D01*
X126025771Y-81494952D02*
X126025771Y-81352095D01*
X126025771Y-81352095D02*
X126073390Y-81256857D01*
X126073390Y-81256857D02*
X126121009Y-81209238D01*
X126121009Y-81209238D02*
X126216247Y-81161619D01*
X126216247Y-81161619D02*
X126454342Y-81161619D01*
X126454342Y-81161619D02*
X126549580Y-81209238D01*
X126549580Y-81209238D02*
X126597200Y-81256857D01*
X126597200Y-81256857D02*
X126644819Y-81352095D01*
X126644819Y-81352095D02*
X126644819Y-81637809D01*
X126644819Y-81637809D02*
X126597200Y-81733047D01*
X126597200Y-81733047D02*
X126549580Y-81780666D01*
X125644819Y-80828285D02*
X125644819Y-80209238D01*
X125644819Y-80209238D02*
X126025771Y-80542571D01*
X126025771Y-80542571D02*
X126025771Y-80399714D01*
X126025771Y-80399714D02*
X126073390Y-80304476D01*
X126073390Y-80304476D02*
X126121009Y-80256857D01*
X126121009Y-80256857D02*
X126216247Y-80209238D01*
X126216247Y-80209238D02*
X126454342Y-80209238D01*
X126454342Y-80209238D02*
X126549580Y-80256857D01*
X126549580Y-80256857D02*
X126597200Y-80304476D01*
X126597200Y-80304476D02*
X126644819Y-80399714D01*
X126644819Y-80399714D02*
X126644819Y-80685428D01*
X126644819Y-80685428D02*
X126597200Y-80780666D01*
X126597200Y-80780666D02*
X126549580Y-80828285D01*
X125644819Y-79590190D02*
X125644819Y-79494952D01*
X125644819Y-79494952D02*
X125692438Y-79399714D01*
X125692438Y-79399714D02*
X125740057Y-79352095D01*
X125740057Y-79352095D02*
X125835295Y-79304476D01*
X125835295Y-79304476D02*
X126025771Y-79256857D01*
X126025771Y-79256857D02*
X126263866Y-79256857D01*
X126263866Y-79256857D02*
X126454342Y-79304476D01*
X126454342Y-79304476D02*
X126549580Y-79352095D01*
X126549580Y-79352095D02*
X126597200Y-79399714D01*
X126597200Y-79399714D02*
X126644819Y-79494952D01*
X126644819Y-79494952D02*
X126644819Y-79590190D01*
X126644819Y-79590190D02*
X126597200Y-79685428D01*
X126597200Y-79685428D02*
X126549580Y-79733047D01*
X126549580Y-79733047D02*
X126454342Y-79780666D01*
X126454342Y-79780666D02*
X126263866Y-79828285D01*
X126263866Y-79828285D02*
X126025771Y-79828285D01*
X126025771Y-79828285D02*
X125835295Y-79780666D01*
X125835295Y-79780666D02*
X125740057Y-79733047D01*
X125740057Y-79733047D02*
X125692438Y-79685428D01*
X125692438Y-79685428D02*
X125644819Y-79590190D01*
X125978152Y-78828285D02*
X126644819Y-78828285D01*
X126073390Y-78828285D02*
X126025771Y-78780666D01*
X126025771Y-78780666D02*
X125978152Y-78685428D01*
X125978152Y-78685428D02*
X125978152Y-78542571D01*
X125978152Y-78542571D02*
X126025771Y-78447333D01*
X126025771Y-78447333D02*
X126121009Y-78399714D01*
X126121009Y-78399714D02*
X126644819Y-78399714D01*
X126121009Y-77590190D02*
X126121009Y-77923523D01*
X126644819Y-77923523D02*
X125644819Y-77923523D01*
X125644819Y-77923523D02*
X125644819Y-77447333D01*
X129162819Y-83915904D02*
X129972342Y-83915904D01*
X129972342Y-83915904D02*
X130067580Y-83868285D01*
X130067580Y-83868285D02*
X130115200Y-83820666D01*
X130115200Y-83820666D02*
X130162819Y-83725428D01*
X130162819Y-83725428D02*
X130162819Y-83534952D01*
X130162819Y-83534952D02*
X130115200Y-83439714D01*
X130115200Y-83439714D02*
X130067580Y-83392095D01*
X130067580Y-83392095D02*
X129972342Y-83344476D01*
X129972342Y-83344476D02*
X129162819Y-83344476D01*
X129258057Y-82915904D02*
X129210438Y-82868285D01*
X129210438Y-82868285D02*
X129162819Y-82773047D01*
X129162819Y-82773047D02*
X129162819Y-82534952D01*
X129162819Y-82534952D02*
X129210438Y-82439714D01*
X129210438Y-82439714D02*
X129258057Y-82392095D01*
X129258057Y-82392095D02*
X129353295Y-82344476D01*
X129353295Y-82344476D02*
X129448533Y-82344476D01*
X129448533Y-82344476D02*
X129591390Y-82392095D01*
X129591390Y-82392095D02*
X130162819Y-82963523D01*
X130162819Y-82963523D02*
X130162819Y-82344476D01*
X135262819Y-87249237D02*
X134262819Y-87249237D01*
X134262819Y-87249237D02*
X134262819Y-86868285D01*
X134262819Y-86868285D02*
X134310438Y-86773047D01*
X134310438Y-86773047D02*
X134358057Y-86725428D01*
X134358057Y-86725428D02*
X134453295Y-86677809D01*
X134453295Y-86677809D02*
X134596152Y-86677809D01*
X134596152Y-86677809D02*
X134691390Y-86725428D01*
X134691390Y-86725428D02*
X134739009Y-86773047D01*
X134739009Y-86773047D02*
X134786628Y-86868285D01*
X134786628Y-86868285D02*
X134786628Y-87249237D01*
X135167580Y-85677809D02*
X135215200Y-85725428D01*
X135215200Y-85725428D02*
X135262819Y-85868285D01*
X135262819Y-85868285D02*
X135262819Y-85963523D01*
X135262819Y-85963523D02*
X135215200Y-86106380D01*
X135215200Y-86106380D02*
X135119961Y-86201618D01*
X135119961Y-86201618D02*
X135024723Y-86249237D01*
X135024723Y-86249237D02*
X134834247Y-86296856D01*
X134834247Y-86296856D02*
X134691390Y-86296856D01*
X134691390Y-86296856D02*
X134500914Y-86249237D01*
X134500914Y-86249237D02*
X134405676Y-86201618D01*
X134405676Y-86201618D02*
X134310438Y-86106380D01*
X134310438Y-86106380D02*
X134262819Y-85963523D01*
X134262819Y-85963523D02*
X134262819Y-85868285D01*
X134262819Y-85868285D02*
X134310438Y-85725428D01*
X134310438Y-85725428D02*
X134358057Y-85677809D01*
X134977104Y-85296856D02*
X134977104Y-84820666D01*
X135262819Y-85392094D02*
X134262819Y-85058761D01*
X134262819Y-85058761D02*
X135262819Y-84725428D01*
X135262819Y-84344475D02*
X135262819Y-84153999D01*
X135262819Y-84153999D02*
X135215200Y-84058761D01*
X135215200Y-84058761D02*
X135167580Y-84011142D01*
X135167580Y-84011142D02*
X135024723Y-83915904D01*
X135024723Y-83915904D02*
X134834247Y-83868285D01*
X134834247Y-83868285D02*
X134453295Y-83868285D01*
X134453295Y-83868285D02*
X134358057Y-83915904D01*
X134358057Y-83915904D02*
X134310438Y-83963523D01*
X134310438Y-83963523D02*
X134262819Y-84058761D01*
X134262819Y-84058761D02*
X134262819Y-84249237D01*
X134262819Y-84249237D02*
X134310438Y-84344475D01*
X134310438Y-84344475D02*
X134358057Y-84392094D01*
X134358057Y-84392094D02*
X134453295Y-84439713D01*
X134453295Y-84439713D02*
X134691390Y-84439713D01*
X134691390Y-84439713D02*
X134786628Y-84392094D01*
X134786628Y-84392094D02*
X134834247Y-84344475D01*
X134834247Y-84344475D02*
X134881866Y-84249237D01*
X134881866Y-84249237D02*
X134881866Y-84058761D01*
X134881866Y-84058761D02*
X134834247Y-83963523D01*
X134834247Y-83963523D02*
X134786628Y-83915904D01*
X134786628Y-83915904D02*
X134691390Y-83868285D01*
X134262819Y-83011142D02*
X134262819Y-83201618D01*
X134262819Y-83201618D02*
X134310438Y-83296856D01*
X134310438Y-83296856D02*
X134358057Y-83344475D01*
X134358057Y-83344475D02*
X134500914Y-83439713D01*
X134500914Y-83439713D02*
X134691390Y-83487332D01*
X134691390Y-83487332D02*
X135072342Y-83487332D01*
X135072342Y-83487332D02*
X135167580Y-83439713D01*
X135167580Y-83439713D02*
X135215200Y-83392094D01*
X135215200Y-83392094D02*
X135262819Y-83296856D01*
X135262819Y-83296856D02*
X135262819Y-83106380D01*
X135262819Y-83106380D02*
X135215200Y-83011142D01*
X135215200Y-83011142D02*
X135167580Y-82963523D01*
X135167580Y-82963523D02*
X135072342Y-82915904D01*
X135072342Y-82915904D02*
X134834247Y-82915904D01*
X134834247Y-82915904D02*
X134739009Y-82963523D01*
X134739009Y-82963523D02*
X134691390Y-83011142D01*
X134691390Y-83011142D02*
X134643771Y-83106380D01*
X134643771Y-83106380D02*
X134643771Y-83296856D01*
X134643771Y-83296856D02*
X134691390Y-83392094D01*
X134691390Y-83392094D02*
X134739009Y-83439713D01*
X134739009Y-83439713D02*
X134834247Y-83487332D01*
X135262819Y-81963523D02*
X135262819Y-82534951D01*
X135262819Y-82249237D02*
X134262819Y-82249237D01*
X134262819Y-82249237D02*
X134405676Y-82344475D01*
X134405676Y-82344475D02*
X134500914Y-82439713D01*
X134500914Y-82439713D02*
X134548533Y-82534951D01*
X134262819Y-81058761D02*
X134262819Y-81534951D01*
X134262819Y-81534951D02*
X134739009Y-81582570D01*
X134739009Y-81582570D02*
X134691390Y-81534951D01*
X134691390Y-81534951D02*
X134643771Y-81439713D01*
X134643771Y-81439713D02*
X134643771Y-81201618D01*
X134643771Y-81201618D02*
X134691390Y-81106380D01*
X134691390Y-81106380D02*
X134739009Y-81058761D01*
X134739009Y-81058761D02*
X134834247Y-81011142D01*
X134834247Y-81011142D02*
X135072342Y-81011142D01*
X135072342Y-81011142D02*
X135167580Y-81058761D01*
X135167580Y-81058761D02*
X135215200Y-81106380D01*
X135215200Y-81106380D02*
X135262819Y-81201618D01*
X135262819Y-81201618D02*
X135262819Y-81439713D01*
X135262819Y-81439713D02*
X135215200Y-81534951D01*
X135215200Y-81534951D02*
X135167580Y-81582570D01*
X135262819Y-80582570D02*
X134262819Y-80582570D01*
X134262819Y-80582570D02*
X134262819Y-80344475D01*
X134262819Y-80344475D02*
X134310438Y-80201618D01*
X134310438Y-80201618D02*
X134405676Y-80106380D01*
X134405676Y-80106380D02*
X134500914Y-80058761D01*
X134500914Y-80058761D02*
X134691390Y-80011142D01*
X134691390Y-80011142D02*
X134834247Y-80011142D01*
X134834247Y-80011142D02*
X135024723Y-80058761D01*
X135024723Y-80058761D02*
X135119961Y-80106380D01*
X135119961Y-80106380D02*
X135215200Y-80201618D01*
X135215200Y-80201618D02*
X135262819Y-80344475D01*
X135262819Y-80344475D02*
X135262819Y-80582570D01*
X135262819Y-79582570D02*
X134262819Y-79582570D01*
X134262819Y-79582570D02*
X134262819Y-79201618D01*
X134262819Y-79201618D02*
X134310438Y-79106380D01*
X134310438Y-79106380D02*
X134358057Y-79058761D01*
X134358057Y-79058761D02*
X134453295Y-79011142D01*
X134453295Y-79011142D02*
X134596152Y-79011142D01*
X134596152Y-79011142D02*
X134691390Y-79058761D01*
X134691390Y-79058761D02*
X134739009Y-79106380D01*
X134739009Y-79106380D02*
X134786628Y-79201618D01*
X134786628Y-79201618D02*
X134786628Y-79582570D01*
X121666666Y-84204819D02*
X121666666Y-84919104D01*
X121666666Y-84919104D02*
X121619047Y-85061961D01*
X121619047Y-85061961D02*
X121523809Y-85157200D01*
X121523809Y-85157200D02*
X121380952Y-85204819D01*
X121380952Y-85204819D02*
X121285714Y-85204819D01*
X122666666Y-85204819D02*
X122095238Y-85204819D01*
X122380952Y-85204819D02*
X122380952Y-84204819D01*
X122380952Y-84204819D02*
X122285714Y-84347676D01*
X122285714Y-84347676D02*
X122190476Y-84442914D01*
X122190476Y-84442914D02*
X122095238Y-84490533D01*
X112275690Y-77850819D02*
X111942357Y-77374628D01*
X111704262Y-77850819D02*
X111704262Y-76850819D01*
X111704262Y-76850819D02*
X112085214Y-76850819D01*
X112085214Y-76850819D02*
X112180452Y-76898438D01*
X112180452Y-76898438D02*
X112228071Y-76946057D01*
X112228071Y-76946057D02*
X112275690Y-77041295D01*
X112275690Y-77041295D02*
X112275690Y-77184152D01*
X112275690Y-77184152D02*
X112228071Y-77279390D01*
X112228071Y-77279390D02*
X112180452Y-77327009D01*
X112180452Y-77327009D02*
X112085214Y-77374628D01*
X112085214Y-77374628D02*
X111704262Y-77374628D01*
X112989976Y-76850819D02*
X112989976Y-77565104D01*
X112989976Y-77565104D02*
X112942357Y-77707961D01*
X112942357Y-77707961D02*
X112847119Y-77803200D01*
X112847119Y-77803200D02*
X112704262Y-77850819D01*
X112704262Y-77850819D02*
X112609024Y-77850819D01*
X113894738Y-77184152D02*
X113894738Y-77850819D01*
X113656643Y-76803200D02*
X113418548Y-77517485D01*
X113418548Y-77517485D02*
X114037595Y-77517485D01*
X114894738Y-76850819D02*
X114418548Y-76850819D01*
X114418548Y-76850819D02*
X114370929Y-77327009D01*
X114370929Y-77327009D02*
X114418548Y-77279390D01*
X114418548Y-77279390D02*
X114513786Y-77231771D01*
X114513786Y-77231771D02*
X114751881Y-77231771D01*
X114751881Y-77231771D02*
X114847119Y-77279390D01*
X114847119Y-77279390D02*
X114894738Y-77327009D01*
X114894738Y-77327009D02*
X114942357Y-77422247D01*
X114942357Y-77422247D02*
X114942357Y-77660342D01*
X114942357Y-77660342D02*
X114894738Y-77755580D01*
X114894738Y-77755580D02*
X114847119Y-77803200D01*
X114847119Y-77803200D02*
X114751881Y-77850819D01*
X114751881Y-77850819D02*
X114513786Y-77850819D01*
X114513786Y-77850819D02*
X114418548Y-77803200D01*
X114418548Y-77803200D02*
X114370929Y-77755580D01*
X124744580Y-83828666D02*
X124792200Y-83876285D01*
X124792200Y-83876285D02*
X124839819Y-84019142D01*
X124839819Y-84019142D02*
X124839819Y-84114380D01*
X124839819Y-84114380D02*
X124792200Y-84257237D01*
X124792200Y-84257237D02*
X124696961Y-84352475D01*
X124696961Y-84352475D02*
X124601723Y-84400094D01*
X124601723Y-84400094D02*
X124411247Y-84447713D01*
X124411247Y-84447713D02*
X124268390Y-84447713D01*
X124268390Y-84447713D02*
X124077914Y-84400094D01*
X124077914Y-84400094D02*
X123982676Y-84352475D01*
X123982676Y-84352475D02*
X123887438Y-84257237D01*
X123887438Y-84257237D02*
X123839819Y-84114380D01*
X123839819Y-84114380D02*
X123839819Y-84019142D01*
X123839819Y-84019142D02*
X123887438Y-83876285D01*
X123887438Y-83876285D02*
X123935057Y-83828666D01*
X124839819Y-82876285D02*
X124839819Y-83447713D01*
X124839819Y-83161999D02*
X123839819Y-83161999D01*
X123839819Y-83161999D02*
X123982676Y-83257237D01*
X123982676Y-83257237D02*
X124077914Y-83352475D01*
X124077914Y-83352475D02*
X124125533Y-83447713D01*
X122088819Y-81780666D02*
X122088819Y-81161619D01*
X122088819Y-81161619D02*
X122469771Y-81494952D01*
X122469771Y-81494952D02*
X122469771Y-81352095D01*
X122469771Y-81352095D02*
X122517390Y-81256857D01*
X122517390Y-81256857D02*
X122565009Y-81209238D01*
X122565009Y-81209238D02*
X122660247Y-81161619D01*
X122660247Y-81161619D02*
X122898342Y-81161619D01*
X122898342Y-81161619D02*
X122993580Y-81209238D01*
X122993580Y-81209238D02*
X123041200Y-81256857D01*
X123041200Y-81256857D02*
X123088819Y-81352095D01*
X123088819Y-81352095D02*
X123088819Y-81637809D01*
X123088819Y-81637809D02*
X123041200Y-81733047D01*
X123041200Y-81733047D02*
X122993580Y-81780666D01*
X122088819Y-80828285D02*
X122088819Y-80209238D01*
X122088819Y-80209238D02*
X122469771Y-80542571D01*
X122469771Y-80542571D02*
X122469771Y-80399714D01*
X122469771Y-80399714D02*
X122517390Y-80304476D01*
X122517390Y-80304476D02*
X122565009Y-80256857D01*
X122565009Y-80256857D02*
X122660247Y-80209238D01*
X122660247Y-80209238D02*
X122898342Y-80209238D01*
X122898342Y-80209238D02*
X122993580Y-80256857D01*
X122993580Y-80256857D02*
X123041200Y-80304476D01*
X123041200Y-80304476D02*
X123088819Y-80399714D01*
X123088819Y-80399714D02*
X123088819Y-80685428D01*
X123088819Y-80685428D02*
X123041200Y-80780666D01*
X123041200Y-80780666D02*
X122993580Y-80828285D01*
X122088819Y-79590190D02*
X122088819Y-79494952D01*
X122088819Y-79494952D02*
X122136438Y-79399714D01*
X122136438Y-79399714D02*
X122184057Y-79352095D01*
X122184057Y-79352095D02*
X122279295Y-79304476D01*
X122279295Y-79304476D02*
X122469771Y-79256857D01*
X122469771Y-79256857D02*
X122707866Y-79256857D01*
X122707866Y-79256857D02*
X122898342Y-79304476D01*
X122898342Y-79304476D02*
X122993580Y-79352095D01*
X122993580Y-79352095D02*
X123041200Y-79399714D01*
X123041200Y-79399714D02*
X123088819Y-79494952D01*
X123088819Y-79494952D02*
X123088819Y-79590190D01*
X123088819Y-79590190D02*
X123041200Y-79685428D01*
X123041200Y-79685428D02*
X122993580Y-79733047D01*
X122993580Y-79733047D02*
X122898342Y-79780666D01*
X122898342Y-79780666D02*
X122707866Y-79828285D01*
X122707866Y-79828285D02*
X122469771Y-79828285D01*
X122469771Y-79828285D02*
X122279295Y-79780666D01*
X122279295Y-79780666D02*
X122184057Y-79733047D01*
X122184057Y-79733047D02*
X122136438Y-79685428D01*
X122136438Y-79685428D02*
X122088819Y-79590190D01*
X122422152Y-78828285D02*
X123088819Y-78828285D01*
X122517390Y-78828285D02*
X122469771Y-78780666D01*
X122469771Y-78780666D02*
X122422152Y-78685428D01*
X122422152Y-78685428D02*
X122422152Y-78542571D01*
X122422152Y-78542571D02*
X122469771Y-78447333D01*
X122469771Y-78447333D02*
X122565009Y-78399714D01*
X122565009Y-78399714D02*
X123088819Y-78399714D01*
X122565009Y-77590190D02*
X122565009Y-77923523D01*
X123088819Y-77923523D02*
X122088819Y-77923523D01*
X122088819Y-77923523D02*
X122088819Y-77447333D01*
X114584819Y-98123333D02*
X115299104Y-98123333D01*
X115299104Y-98123333D02*
X115441961Y-98170952D01*
X115441961Y-98170952D02*
X115537200Y-98266190D01*
X115537200Y-98266190D02*
X115584819Y-98409047D01*
X115584819Y-98409047D02*
X115584819Y-98504285D01*
X114584819Y-97742380D02*
X114584819Y-97123333D01*
X114584819Y-97123333D02*
X114965771Y-97456666D01*
X114965771Y-97456666D02*
X114965771Y-97313809D01*
X114965771Y-97313809D02*
X115013390Y-97218571D01*
X115013390Y-97218571D02*
X115061009Y-97170952D01*
X115061009Y-97170952D02*
X115156247Y-97123333D01*
X115156247Y-97123333D02*
X115394342Y-97123333D01*
X115394342Y-97123333D02*
X115489580Y-97170952D01*
X115489580Y-97170952D02*
X115537200Y-97218571D01*
X115537200Y-97218571D02*
X115584819Y-97313809D01*
X115584819Y-97313809D02*
X115584819Y-97599523D01*
X115584819Y-97599523D02*
X115537200Y-97694761D01*
X115537200Y-97694761D02*
X115489580Y-97742380D01*
X125277200Y-99647142D02*
X125324819Y-99504285D01*
X125324819Y-99504285D02*
X125324819Y-99266190D01*
X125324819Y-99266190D02*
X125277200Y-99170952D01*
X125277200Y-99170952D02*
X125229580Y-99123333D01*
X125229580Y-99123333D02*
X125134342Y-99075714D01*
X125134342Y-99075714D02*
X125039104Y-99075714D01*
X125039104Y-99075714D02*
X124943866Y-99123333D01*
X124943866Y-99123333D02*
X124896247Y-99170952D01*
X124896247Y-99170952D02*
X124848628Y-99266190D01*
X124848628Y-99266190D02*
X124801009Y-99456666D01*
X124801009Y-99456666D02*
X124753390Y-99551904D01*
X124753390Y-99551904D02*
X124705771Y-99599523D01*
X124705771Y-99599523D02*
X124610533Y-99647142D01*
X124610533Y-99647142D02*
X124515295Y-99647142D01*
X124515295Y-99647142D02*
X124420057Y-99599523D01*
X124420057Y-99599523D02*
X124372438Y-99551904D01*
X124372438Y-99551904D02*
X124324819Y-99456666D01*
X124324819Y-99456666D02*
X124324819Y-99218571D01*
X124324819Y-99218571D02*
X124372438Y-99075714D01*
X125277200Y-98266190D02*
X125324819Y-98361428D01*
X125324819Y-98361428D02*
X125324819Y-98551904D01*
X125324819Y-98551904D02*
X125277200Y-98647142D01*
X125277200Y-98647142D02*
X125181961Y-98694761D01*
X125181961Y-98694761D02*
X124801009Y-98694761D01*
X124801009Y-98694761D02*
X124705771Y-98647142D01*
X124705771Y-98647142D02*
X124658152Y-98551904D01*
X124658152Y-98551904D02*
X124658152Y-98361428D01*
X124658152Y-98361428D02*
X124705771Y-98266190D01*
X124705771Y-98266190D02*
X124801009Y-98218571D01*
X124801009Y-98218571D02*
X124896247Y-98218571D01*
X124896247Y-98218571D02*
X124991485Y-98694761D01*
X125324819Y-97789999D02*
X124658152Y-97789999D01*
X124848628Y-97789999D02*
X124753390Y-97742380D01*
X124753390Y-97742380D02*
X124705771Y-97694761D01*
X124705771Y-97694761D02*
X124658152Y-97599523D01*
X124658152Y-97599523D02*
X124658152Y-97504285D01*
X124658152Y-97266189D02*
X125324819Y-97028094D01*
X125324819Y-97028094D02*
X124658152Y-96789999D01*
X125324819Y-96266189D02*
X125277200Y-96361427D01*
X125277200Y-96361427D02*
X125229580Y-96409046D01*
X125229580Y-96409046D02*
X125134342Y-96456665D01*
X125134342Y-96456665D02*
X124848628Y-96456665D01*
X124848628Y-96456665D02*
X124753390Y-96409046D01*
X124753390Y-96409046D02*
X124705771Y-96361427D01*
X124705771Y-96361427D02*
X124658152Y-96266189D01*
X124658152Y-96266189D02*
X124658152Y-96123332D01*
X124658152Y-96123332D02*
X124705771Y-96028094D01*
X124705771Y-96028094D02*
X124753390Y-95980475D01*
X124753390Y-95980475D02*
X124848628Y-95932856D01*
X124848628Y-95932856D02*
X125134342Y-95932856D01*
X125134342Y-95932856D02*
X125229580Y-95980475D01*
X125229580Y-95980475D02*
X125277200Y-96028094D01*
X125277200Y-96028094D02*
X125324819Y-96123332D01*
X125324819Y-96123332D02*
X125324819Y-96266189D01*
X136427580Y-83764666D02*
X136475200Y-83812285D01*
X136475200Y-83812285D02*
X136522819Y-83955142D01*
X136522819Y-83955142D02*
X136522819Y-84050380D01*
X136522819Y-84050380D02*
X136475200Y-84193237D01*
X136475200Y-84193237D02*
X136379961Y-84288475D01*
X136379961Y-84288475D02*
X136284723Y-84336094D01*
X136284723Y-84336094D02*
X136094247Y-84383713D01*
X136094247Y-84383713D02*
X135951390Y-84383713D01*
X135951390Y-84383713D02*
X135760914Y-84336094D01*
X135760914Y-84336094D02*
X135665676Y-84288475D01*
X135665676Y-84288475D02*
X135570438Y-84193237D01*
X135570438Y-84193237D02*
X135522819Y-84050380D01*
X135522819Y-84050380D02*
X135522819Y-83955142D01*
X135522819Y-83955142D02*
X135570438Y-83812285D01*
X135570438Y-83812285D02*
X135618057Y-83764666D01*
X135522819Y-83431332D02*
X135522819Y-82812285D01*
X135522819Y-82812285D02*
X135903771Y-83145618D01*
X135903771Y-83145618D02*
X135903771Y-83002761D01*
X135903771Y-83002761D02*
X135951390Y-82907523D01*
X135951390Y-82907523D02*
X135999009Y-82859904D01*
X135999009Y-82859904D02*
X136094247Y-82812285D01*
X136094247Y-82812285D02*
X136332342Y-82812285D01*
X136332342Y-82812285D02*
X136427580Y-82859904D01*
X136427580Y-82859904D02*
X136475200Y-82907523D01*
X136475200Y-82907523D02*
X136522819Y-83002761D01*
X136522819Y-83002761D02*
X136522819Y-83288475D01*
X136522819Y-83288475D02*
X136475200Y-83383713D01*
X136475200Y-83383713D02*
X136427580Y-83431332D01*
X137300819Y-82166666D02*
X137300819Y-81547619D01*
X137300819Y-81547619D02*
X137681771Y-81880952D01*
X137681771Y-81880952D02*
X137681771Y-81738095D01*
X137681771Y-81738095D02*
X137729390Y-81642857D01*
X137729390Y-81642857D02*
X137777009Y-81595238D01*
X137777009Y-81595238D02*
X137872247Y-81547619D01*
X137872247Y-81547619D02*
X138110342Y-81547619D01*
X138110342Y-81547619D02*
X138205580Y-81595238D01*
X138205580Y-81595238D02*
X138253200Y-81642857D01*
X138253200Y-81642857D02*
X138300819Y-81738095D01*
X138300819Y-81738095D02*
X138300819Y-82023809D01*
X138300819Y-82023809D02*
X138253200Y-82119047D01*
X138253200Y-82119047D02*
X138205580Y-82166666D01*
X137300819Y-81214285D02*
X137300819Y-80595238D01*
X137300819Y-80595238D02*
X137681771Y-80928571D01*
X137681771Y-80928571D02*
X137681771Y-80785714D01*
X137681771Y-80785714D02*
X137729390Y-80690476D01*
X137729390Y-80690476D02*
X137777009Y-80642857D01*
X137777009Y-80642857D02*
X137872247Y-80595238D01*
X137872247Y-80595238D02*
X138110342Y-80595238D01*
X138110342Y-80595238D02*
X138205580Y-80642857D01*
X138205580Y-80642857D02*
X138253200Y-80690476D01*
X138253200Y-80690476D02*
X138300819Y-80785714D01*
X138300819Y-80785714D02*
X138300819Y-81071428D01*
X138300819Y-81071428D02*
X138253200Y-81166666D01*
X138253200Y-81166666D02*
X138205580Y-81214285D01*
X137300819Y-79976190D02*
X137300819Y-79880952D01*
X137300819Y-79880952D02*
X137348438Y-79785714D01*
X137348438Y-79785714D02*
X137396057Y-79738095D01*
X137396057Y-79738095D02*
X137491295Y-79690476D01*
X137491295Y-79690476D02*
X137681771Y-79642857D01*
X137681771Y-79642857D02*
X137919866Y-79642857D01*
X137919866Y-79642857D02*
X138110342Y-79690476D01*
X138110342Y-79690476D02*
X138205580Y-79738095D01*
X138205580Y-79738095D02*
X138253200Y-79785714D01*
X138253200Y-79785714D02*
X138300819Y-79880952D01*
X138300819Y-79880952D02*
X138300819Y-79976190D01*
X138300819Y-79976190D02*
X138253200Y-80071428D01*
X138253200Y-80071428D02*
X138205580Y-80119047D01*
X138205580Y-80119047D02*
X138110342Y-80166666D01*
X138110342Y-80166666D02*
X137919866Y-80214285D01*
X137919866Y-80214285D02*
X137681771Y-80214285D01*
X137681771Y-80214285D02*
X137491295Y-80166666D01*
X137491295Y-80166666D02*
X137396057Y-80119047D01*
X137396057Y-80119047D02*
X137348438Y-80071428D01*
X137348438Y-80071428D02*
X137300819Y-79976190D01*
X137634152Y-79214285D02*
X138300819Y-79214285D01*
X137729390Y-79214285D02*
X137681771Y-79166666D01*
X137681771Y-79166666D02*
X137634152Y-79071428D01*
X137634152Y-79071428D02*
X137634152Y-78928571D01*
X137634152Y-78928571D02*
X137681771Y-78833333D01*
X137681771Y-78833333D02*
X137777009Y-78785714D01*
X137777009Y-78785714D02*
X138300819Y-78785714D01*
X137777009Y-77976190D02*
X137777009Y-78309523D01*
X138300819Y-78309523D02*
X137300819Y-78309523D01*
X137300819Y-78309523D02*
X137300819Y-77833333D01*
X139983580Y-83764666D02*
X140031200Y-83812285D01*
X140031200Y-83812285D02*
X140078819Y-83955142D01*
X140078819Y-83955142D02*
X140078819Y-84050380D01*
X140078819Y-84050380D02*
X140031200Y-84193237D01*
X140031200Y-84193237D02*
X139935961Y-84288475D01*
X139935961Y-84288475D02*
X139840723Y-84336094D01*
X139840723Y-84336094D02*
X139650247Y-84383713D01*
X139650247Y-84383713D02*
X139507390Y-84383713D01*
X139507390Y-84383713D02*
X139316914Y-84336094D01*
X139316914Y-84336094D02*
X139221676Y-84288475D01*
X139221676Y-84288475D02*
X139126438Y-84193237D01*
X139126438Y-84193237D02*
X139078819Y-84050380D01*
X139078819Y-84050380D02*
X139078819Y-83955142D01*
X139078819Y-83955142D02*
X139126438Y-83812285D01*
X139126438Y-83812285D02*
X139174057Y-83764666D01*
X139412152Y-82907523D02*
X140078819Y-82907523D01*
X139031200Y-83145618D02*
X139745485Y-83383713D01*
X139745485Y-83383713D02*
X139745485Y-82764666D01*
X140856819Y-82166666D02*
X140856819Y-81547619D01*
X140856819Y-81547619D02*
X141237771Y-81880952D01*
X141237771Y-81880952D02*
X141237771Y-81738095D01*
X141237771Y-81738095D02*
X141285390Y-81642857D01*
X141285390Y-81642857D02*
X141333009Y-81595238D01*
X141333009Y-81595238D02*
X141428247Y-81547619D01*
X141428247Y-81547619D02*
X141666342Y-81547619D01*
X141666342Y-81547619D02*
X141761580Y-81595238D01*
X141761580Y-81595238D02*
X141809200Y-81642857D01*
X141809200Y-81642857D02*
X141856819Y-81738095D01*
X141856819Y-81738095D02*
X141856819Y-82023809D01*
X141856819Y-82023809D02*
X141809200Y-82119047D01*
X141809200Y-82119047D02*
X141761580Y-82166666D01*
X140856819Y-81214285D02*
X140856819Y-80595238D01*
X140856819Y-80595238D02*
X141237771Y-80928571D01*
X141237771Y-80928571D02*
X141237771Y-80785714D01*
X141237771Y-80785714D02*
X141285390Y-80690476D01*
X141285390Y-80690476D02*
X141333009Y-80642857D01*
X141333009Y-80642857D02*
X141428247Y-80595238D01*
X141428247Y-80595238D02*
X141666342Y-80595238D01*
X141666342Y-80595238D02*
X141761580Y-80642857D01*
X141761580Y-80642857D02*
X141809200Y-80690476D01*
X141809200Y-80690476D02*
X141856819Y-80785714D01*
X141856819Y-80785714D02*
X141856819Y-81071428D01*
X141856819Y-81071428D02*
X141809200Y-81166666D01*
X141809200Y-81166666D02*
X141761580Y-81214285D01*
X140856819Y-79976190D02*
X140856819Y-79880952D01*
X140856819Y-79880952D02*
X140904438Y-79785714D01*
X140904438Y-79785714D02*
X140952057Y-79738095D01*
X140952057Y-79738095D02*
X141047295Y-79690476D01*
X141047295Y-79690476D02*
X141237771Y-79642857D01*
X141237771Y-79642857D02*
X141475866Y-79642857D01*
X141475866Y-79642857D02*
X141666342Y-79690476D01*
X141666342Y-79690476D02*
X141761580Y-79738095D01*
X141761580Y-79738095D02*
X141809200Y-79785714D01*
X141809200Y-79785714D02*
X141856819Y-79880952D01*
X141856819Y-79880952D02*
X141856819Y-79976190D01*
X141856819Y-79976190D02*
X141809200Y-80071428D01*
X141809200Y-80071428D02*
X141761580Y-80119047D01*
X141761580Y-80119047D02*
X141666342Y-80166666D01*
X141666342Y-80166666D02*
X141475866Y-80214285D01*
X141475866Y-80214285D02*
X141237771Y-80214285D01*
X141237771Y-80214285D02*
X141047295Y-80166666D01*
X141047295Y-80166666D02*
X140952057Y-80119047D01*
X140952057Y-80119047D02*
X140904438Y-80071428D01*
X140904438Y-80071428D02*
X140856819Y-79976190D01*
X141190152Y-79214285D02*
X141856819Y-79214285D01*
X141285390Y-79214285D02*
X141237771Y-79166666D01*
X141237771Y-79166666D02*
X141190152Y-79071428D01*
X141190152Y-79071428D02*
X141190152Y-78928571D01*
X141190152Y-78928571D02*
X141237771Y-78833333D01*
X141237771Y-78833333D02*
X141333009Y-78785714D01*
X141333009Y-78785714D02*
X141856819Y-78785714D01*
X141333009Y-77976190D02*
X141333009Y-78309523D01*
X141856819Y-78309523D02*
X140856819Y-78309523D01*
X140856819Y-78309523D02*
X140856819Y-77833333D01*
X127182819Y-95493904D02*
X127992342Y-95493904D01*
X127992342Y-95493904D02*
X128087580Y-95446285D01*
X128087580Y-95446285D02*
X128135200Y-95398666D01*
X128135200Y-95398666D02*
X128182819Y-95303428D01*
X128182819Y-95303428D02*
X128182819Y-95112952D01*
X128182819Y-95112952D02*
X128135200Y-95017714D01*
X128135200Y-95017714D02*
X128087580Y-94970095D01*
X128087580Y-94970095D02*
X127992342Y-94922476D01*
X127992342Y-94922476D02*
X127182819Y-94922476D01*
X127182819Y-94541523D02*
X127182819Y-93922476D01*
X127182819Y-93922476D02*
X127563771Y-94255809D01*
X127563771Y-94255809D02*
X127563771Y-94112952D01*
X127563771Y-94112952D02*
X127611390Y-94017714D01*
X127611390Y-94017714D02*
X127659009Y-93970095D01*
X127659009Y-93970095D02*
X127754247Y-93922476D01*
X127754247Y-93922476D02*
X127992342Y-93922476D01*
X127992342Y-93922476D02*
X128087580Y-93970095D01*
X128087580Y-93970095D02*
X128135200Y-94017714D01*
X128135200Y-94017714D02*
X128182819Y-94112952D01*
X128182819Y-94112952D02*
X128182819Y-94398666D01*
X128182819Y-94398666D02*
X128135200Y-94493904D01*
X128135200Y-94493904D02*
X128087580Y-94541523D01*
X140177104Y-97660571D02*
X140177104Y-97184381D01*
X140462819Y-97755809D02*
X139462819Y-97422476D01*
X139462819Y-97422476D02*
X140462819Y-97089143D01*
X139462819Y-96898666D02*
X139462819Y-96327238D01*
X140462819Y-96612952D02*
X139462819Y-96612952D01*
X139796152Y-96136761D02*
X139796152Y-95755809D01*
X139462819Y-95993904D02*
X140319961Y-95993904D01*
X140319961Y-95993904D02*
X140415200Y-95946285D01*
X140415200Y-95946285D02*
X140462819Y-95851047D01*
X140462819Y-95851047D02*
X140462819Y-95755809D01*
X140462819Y-95422475D02*
X139796152Y-95422475D01*
X139462819Y-95422475D02*
X139510438Y-95470094D01*
X139510438Y-95470094D02*
X139558057Y-95422475D01*
X139558057Y-95422475D02*
X139510438Y-95374856D01*
X139510438Y-95374856D02*
X139462819Y-95422475D01*
X139462819Y-95422475D02*
X139558057Y-95422475D01*
X139796152Y-94946285D02*
X140462819Y-94946285D01*
X139891390Y-94946285D02*
X139843771Y-94898666D01*
X139843771Y-94898666D02*
X139796152Y-94803428D01*
X139796152Y-94803428D02*
X139796152Y-94660571D01*
X139796152Y-94660571D02*
X139843771Y-94565333D01*
X139843771Y-94565333D02*
X139939009Y-94517714D01*
X139939009Y-94517714D02*
X140462819Y-94517714D01*
X139796152Y-94136761D02*
X140462819Y-93898666D01*
X139796152Y-93660571D02*
X140462819Y-93898666D01*
X140462819Y-93898666D02*
X140700914Y-93993904D01*
X140700914Y-93993904D02*
X140748533Y-94041523D01*
X140748533Y-94041523D02*
X140796152Y-94136761D01*
X139891390Y-93136761D02*
X139843771Y-93231999D01*
X139843771Y-93231999D02*
X139796152Y-93279618D01*
X139796152Y-93279618D02*
X139700914Y-93327237D01*
X139700914Y-93327237D02*
X139653295Y-93327237D01*
X139653295Y-93327237D02*
X139558057Y-93279618D01*
X139558057Y-93279618D02*
X139510438Y-93231999D01*
X139510438Y-93231999D02*
X139462819Y-93136761D01*
X139462819Y-93136761D02*
X139462819Y-92946285D01*
X139462819Y-92946285D02*
X139510438Y-92851047D01*
X139510438Y-92851047D02*
X139558057Y-92803428D01*
X139558057Y-92803428D02*
X139653295Y-92755809D01*
X139653295Y-92755809D02*
X139700914Y-92755809D01*
X139700914Y-92755809D02*
X139796152Y-92803428D01*
X139796152Y-92803428D02*
X139843771Y-92851047D01*
X139843771Y-92851047D02*
X139891390Y-92946285D01*
X139891390Y-92946285D02*
X139891390Y-93136761D01*
X139891390Y-93136761D02*
X139939009Y-93231999D01*
X139939009Y-93231999D02*
X139986628Y-93279618D01*
X139986628Y-93279618D02*
X140081866Y-93327237D01*
X140081866Y-93327237D02*
X140272342Y-93327237D01*
X140272342Y-93327237D02*
X140367580Y-93279618D01*
X140367580Y-93279618D02*
X140415200Y-93231999D01*
X140415200Y-93231999D02*
X140462819Y-93136761D01*
X140462819Y-93136761D02*
X140462819Y-92946285D01*
X140462819Y-92946285D02*
X140415200Y-92851047D01*
X140415200Y-92851047D02*
X140367580Y-92803428D01*
X140367580Y-92803428D02*
X140272342Y-92755809D01*
X140272342Y-92755809D02*
X140081866Y-92755809D01*
X140081866Y-92755809D02*
X139986628Y-92803428D01*
X139986628Y-92803428D02*
X139939009Y-92851047D01*
X139939009Y-92851047D02*
X139891390Y-92946285D01*
X139462819Y-91851047D02*
X139462819Y-92327237D01*
X139462819Y-92327237D02*
X139939009Y-92374856D01*
X139939009Y-92374856D02*
X139891390Y-92327237D01*
X139891390Y-92327237D02*
X139843771Y-92231999D01*
X139843771Y-92231999D02*
X139843771Y-91993904D01*
X139843771Y-91993904D02*
X139891390Y-91898666D01*
X139891390Y-91898666D02*
X139939009Y-91851047D01*
X139939009Y-91851047D02*
X140034247Y-91803428D01*
X140034247Y-91803428D02*
X140272342Y-91803428D01*
X140272342Y-91803428D02*
X140367580Y-91851047D01*
X140367580Y-91851047D02*
X140415200Y-91898666D01*
X140415200Y-91898666D02*
X140462819Y-91993904D01*
X140462819Y-91993904D02*
X140462819Y-92231999D01*
X140462819Y-92231999D02*
X140415200Y-92327237D01*
X140415200Y-92327237D02*
X140367580Y-92374856D01*
X132293819Y-72578904D02*
X133103342Y-72578904D01*
X133103342Y-72578904D02*
X133198580Y-72531285D01*
X133198580Y-72531285D02*
X133246200Y-72483666D01*
X133246200Y-72483666D02*
X133293819Y-72388428D01*
X133293819Y-72388428D02*
X133293819Y-72197952D01*
X133293819Y-72197952D02*
X133246200Y-72102714D01*
X133246200Y-72102714D02*
X133198580Y-72055095D01*
X133198580Y-72055095D02*
X133103342Y-72007476D01*
X133103342Y-72007476D02*
X132293819Y-72007476D01*
X132627152Y-71102714D02*
X133293819Y-71102714D01*
X132246200Y-71340809D02*
X132960485Y-71578904D01*
X132960485Y-71578904D02*
X132960485Y-70959857D01*
X142110819Y-74462095D02*
X142110819Y-74938285D01*
X142110819Y-74938285D02*
X141110819Y-74938285D01*
X142110819Y-74128761D02*
X141110819Y-74128761D01*
X141110819Y-74128761D02*
X141825104Y-73795428D01*
X141825104Y-73795428D02*
X141110819Y-73462095D01*
X141110819Y-73462095D02*
X142110819Y-73462095D01*
X141110819Y-73081142D02*
X141110819Y-72414476D01*
X141110819Y-72414476D02*
X142110819Y-72843047D01*
X141539390Y-71890666D02*
X141491771Y-71985904D01*
X141491771Y-71985904D02*
X141444152Y-72033523D01*
X141444152Y-72033523D02*
X141348914Y-72081142D01*
X141348914Y-72081142D02*
X141301295Y-72081142D01*
X141301295Y-72081142D02*
X141206057Y-72033523D01*
X141206057Y-72033523D02*
X141158438Y-71985904D01*
X141158438Y-71985904D02*
X141110819Y-71890666D01*
X141110819Y-71890666D02*
X141110819Y-71700190D01*
X141110819Y-71700190D02*
X141158438Y-71604952D01*
X141158438Y-71604952D02*
X141206057Y-71557333D01*
X141206057Y-71557333D02*
X141301295Y-71509714D01*
X141301295Y-71509714D02*
X141348914Y-71509714D01*
X141348914Y-71509714D02*
X141444152Y-71557333D01*
X141444152Y-71557333D02*
X141491771Y-71604952D01*
X141491771Y-71604952D02*
X141539390Y-71700190D01*
X141539390Y-71700190D02*
X141539390Y-71890666D01*
X141539390Y-71890666D02*
X141587009Y-71985904D01*
X141587009Y-71985904D02*
X141634628Y-72033523D01*
X141634628Y-72033523D02*
X141729866Y-72081142D01*
X141729866Y-72081142D02*
X141920342Y-72081142D01*
X141920342Y-72081142D02*
X142015580Y-72033523D01*
X142015580Y-72033523D02*
X142063200Y-71985904D01*
X142063200Y-71985904D02*
X142110819Y-71890666D01*
X142110819Y-71890666D02*
X142110819Y-71700190D01*
X142110819Y-71700190D02*
X142063200Y-71604952D01*
X142063200Y-71604952D02*
X142015580Y-71557333D01*
X142015580Y-71557333D02*
X141920342Y-71509714D01*
X141920342Y-71509714D02*
X141729866Y-71509714D01*
X141729866Y-71509714D02*
X141634628Y-71557333D01*
X141634628Y-71557333D02*
X141587009Y-71604952D01*
X141587009Y-71604952D02*
X141539390Y-71700190D01*
X142110819Y-71081142D02*
X141110819Y-71081142D01*
X141110819Y-71081142D02*
X141825104Y-70747809D01*
X141825104Y-70747809D02*
X141110819Y-70414476D01*
X141110819Y-70414476D02*
X142110819Y-70414476D01*
X141110819Y-69747809D02*
X141110819Y-69652571D01*
X141110819Y-69652571D02*
X141158438Y-69557333D01*
X141158438Y-69557333D02*
X141206057Y-69509714D01*
X141206057Y-69509714D02*
X141301295Y-69462095D01*
X141301295Y-69462095D02*
X141491771Y-69414476D01*
X141491771Y-69414476D02*
X141729866Y-69414476D01*
X141729866Y-69414476D02*
X141920342Y-69462095D01*
X141920342Y-69462095D02*
X142015580Y-69509714D01*
X142015580Y-69509714D02*
X142063200Y-69557333D01*
X142063200Y-69557333D02*
X142110819Y-69652571D01*
X142110819Y-69652571D02*
X142110819Y-69747809D01*
X142110819Y-69747809D02*
X142063200Y-69843047D01*
X142063200Y-69843047D02*
X142015580Y-69890666D01*
X142015580Y-69890666D02*
X141920342Y-69938285D01*
X141920342Y-69938285D02*
X141729866Y-69985904D01*
X141729866Y-69985904D02*
X141491771Y-69985904D01*
X141491771Y-69985904D02*
X141301295Y-69938285D01*
X141301295Y-69938285D02*
X141206057Y-69890666D01*
X141206057Y-69890666D02*
X141158438Y-69843047D01*
X141158438Y-69843047D02*
X141110819Y-69747809D01*
X141110819Y-68509714D02*
X141110819Y-68985904D01*
X141110819Y-68985904D02*
X141587009Y-69033523D01*
X141587009Y-69033523D02*
X141539390Y-68985904D01*
X141539390Y-68985904D02*
X141491771Y-68890666D01*
X141491771Y-68890666D02*
X141491771Y-68652571D01*
X141491771Y-68652571D02*
X141539390Y-68557333D01*
X141539390Y-68557333D02*
X141587009Y-68509714D01*
X141587009Y-68509714D02*
X141682247Y-68462095D01*
X141682247Y-68462095D02*
X141920342Y-68462095D01*
X141920342Y-68462095D02*
X142015580Y-68509714D01*
X142015580Y-68509714D02*
X142063200Y-68557333D01*
X142063200Y-68557333D02*
X142110819Y-68652571D01*
X142110819Y-68652571D02*
X142110819Y-68890666D01*
X142110819Y-68890666D02*
X142063200Y-68985904D01*
X142063200Y-68985904D02*
X142015580Y-69033523D01*
X142416666Y-84204819D02*
X142416666Y-84919104D01*
X142416666Y-84919104D02*
X142369047Y-85061961D01*
X142369047Y-85061961D02*
X142273809Y-85157200D01*
X142273809Y-85157200D02*
X142130952Y-85204819D01*
X142130952Y-85204819D02*
X142035714Y-85204819D01*
X142845238Y-84300057D02*
X142892857Y-84252438D01*
X142892857Y-84252438D02*
X142988095Y-84204819D01*
X142988095Y-84204819D02*
X143226190Y-84204819D01*
X143226190Y-84204819D02*
X143321428Y-84252438D01*
X143321428Y-84252438D02*
X143369047Y-84300057D01*
X143369047Y-84300057D02*
X143416666Y-84395295D01*
X143416666Y-84395295D02*
X143416666Y-84490533D01*
X143416666Y-84490533D02*
X143369047Y-84633390D01*
X143369047Y-84633390D02*
X142797619Y-85204819D01*
X142797619Y-85204819D02*
X143416666Y-85204819D01*
X150375690Y-77850819D02*
X150042357Y-77374628D01*
X149804262Y-77850819D02*
X149804262Y-76850819D01*
X149804262Y-76850819D02*
X150185214Y-76850819D01*
X150185214Y-76850819D02*
X150280452Y-76898438D01*
X150280452Y-76898438D02*
X150328071Y-76946057D01*
X150328071Y-76946057D02*
X150375690Y-77041295D01*
X150375690Y-77041295D02*
X150375690Y-77184152D01*
X150375690Y-77184152D02*
X150328071Y-77279390D01*
X150328071Y-77279390D02*
X150280452Y-77327009D01*
X150280452Y-77327009D02*
X150185214Y-77374628D01*
X150185214Y-77374628D02*
X149804262Y-77374628D01*
X151089976Y-76850819D02*
X151089976Y-77565104D01*
X151089976Y-77565104D02*
X151042357Y-77707961D01*
X151042357Y-77707961D02*
X150947119Y-77803200D01*
X150947119Y-77803200D02*
X150804262Y-77850819D01*
X150804262Y-77850819D02*
X150709024Y-77850819D01*
X151994738Y-77184152D02*
X151994738Y-77850819D01*
X151756643Y-76803200D02*
X151518548Y-77517485D01*
X151518548Y-77517485D02*
X152137595Y-77517485D01*
X152994738Y-76850819D02*
X152518548Y-76850819D01*
X152518548Y-76850819D02*
X152470929Y-77327009D01*
X152470929Y-77327009D02*
X152518548Y-77279390D01*
X152518548Y-77279390D02*
X152613786Y-77231771D01*
X152613786Y-77231771D02*
X152851881Y-77231771D01*
X152851881Y-77231771D02*
X152947119Y-77279390D01*
X152947119Y-77279390D02*
X152994738Y-77327009D01*
X152994738Y-77327009D02*
X153042357Y-77422247D01*
X153042357Y-77422247D02*
X153042357Y-77660342D01*
X153042357Y-77660342D02*
X152994738Y-77755580D01*
X152994738Y-77755580D02*
X152947119Y-77803200D01*
X152947119Y-77803200D02*
X152851881Y-77850819D01*
X152851881Y-77850819D02*
X152613786Y-77850819D01*
X152613786Y-77850819D02*
X152518548Y-77803200D01*
X152518548Y-77803200D02*
X152470929Y-77755580D01*
X121624819Y-72475904D02*
X122434342Y-72475904D01*
X122434342Y-72475904D02*
X122529580Y-72428285D01*
X122529580Y-72428285D02*
X122577200Y-72380666D01*
X122577200Y-72380666D02*
X122624819Y-72285428D01*
X122624819Y-72285428D02*
X122624819Y-72094952D01*
X122624819Y-72094952D02*
X122577200Y-71999714D01*
X122577200Y-71999714D02*
X122529580Y-71952095D01*
X122529580Y-71952095D02*
X122434342Y-71904476D01*
X122434342Y-71904476D02*
X121624819Y-71904476D01*
X122624819Y-70904476D02*
X122624819Y-71475904D01*
X122624819Y-71190190D02*
X121624819Y-71190190D01*
X121624819Y-71190190D02*
X121767676Y-71285428D01*
X121767676Y-71285428D02*
X121862914Y-71380666D01*
X121862914Y-71380666D02*
X121910533Y-71475904D01*
X131624819Y-74462095D02*
X131624819Y-74938285D01*
X131624819Y-74938285D02*
X130624819Y-74938285D01*
X131624819Y-74128761D02*
X130624819Y-74128761D01*
X130624819Y-74128761D02*
X131339104Y-73795428D01*
X131339104Y-73795428D02*
X130624819Y-73462095D01*
X130624819Y-73462095D02*
X131624819Y-73462095D01*
X130624819Y-73081142D02*
X130624819Y-72414476D01*
X130624819Y-72414476D02*
X131624819Y-72843047D01*
X131053390Y-71890666D02*
X131005771Y-71985904D01*
X131005771Y-71985904D02*
X130958152Y-72033523D01*
X130958152Y-72033523D02*
X130862914Y-72081142D01*
X130862914Y-72081142D02*
X130815295Y-72081142D01*
X130815295Y-72081142D02*
X130720057Y-72033523D01*
X130720057Y-72033523D02*
X130672438Y-71985904D01*
X130672438Y-71985904D02*
X130624819Y-71890666D01*
X130624819Y-71890666D02*
X130624819Y-71700190D01*
X130624819Y-71700190D02*
X130672438Y-71604952D01*
X130672438Y-71604952D02*
X130720057Y-71557333D01*
X130720057Y-71557333D02*
X130815295Y-71509714D01*
X130815295Y-71509714D02*
X130862914Y-71509714D01*
X130862914Y-71509714D02*
X130958152Y-71557333D01*
X130958152Y-71557333D02*
X131005771Y-71604952D01*
X131005771Y-71604952D02*
X131053390Y-71700190D01*
X131053390Y-71700190D02*
X131053390Y-71890666D01*
X131053390Y-71890666D02*
X131101009Y-71985904D01*
X131101009Y-71985904D02*
X131148628Y-72033523D01*
X131148628Y-72033523D02*
X131243866Y-72081142D01*
X131243866Y-72081142D02*
X131434342Y-72081142D01*
X131434342Y-72081142D02*
X131529580Y-72033523D01*
X131529580Y-72033523D02*
X131577200Y-71985904D01*
X131577200Y-71985904D02*
X131624819Y-71890666D01*
X131624819Y-71890666D02*
X131624819Y-71700190D01*
X131624819Y-71700190D02*
X131577200Y-71604952D01*
X131577200Y-71604952D02*
X131529580Y-71557333D01*
X131529580Y-71557333D02*
X131434342Y-71509714D01*
X131434342Y-71509714D02*
X131243866Y-71509714D01*
X131243866Y-71509714D02*
X131148628Y-71557333D01*
X131148628Y-71557333D02*
X131101009Y-71604952D01*
X131101009Y-71604952D02*
X131053390Y-71700190D01*
X131624819Y-71081142D02*
X130624819Y-71081142D01*
X130624819Y-71081142D02*
X131339104Y-70747809D01*
X131339104Y-70747809D02*
X130624819Y-70414476D01*
X130624819Y-70414476D02*
X131624819Y-70414476D01*
X130624819Y-69747809D02*
X130624819Y-69652571D01*
X130624819Y-69652571D02*
X130672438Y-69557333D01*
X130672438Y-69557333D02*
X130720057Y-69509714D01*
X130720057Y-69509714D02*
X130815295Y-69462095D01*
X130815295Y-69462095D02*
X131005771Y-69414476D01*
X131005771Y-69414476D02*
X131243866Y-69414476D01*
X131243866Y-69414476D02*
X131434342Y-69462095D01*
X131434342Y-69462095D02*
X131529580Y-69509714D01*
X131529580Y-69509714D02*
X131577200Y-69557333D01*
X131577200Y-69557333D02*
X131624819Y-69652571D01*
X131624819Y-69652571D02*
X131624819Y-69747809D01*
X131624819Y-69747809D02*
X131577200Y-69843047D01*
X131577200Y-69843047D02*
X131529580Y-69890666D01*
X131529580Y-69890666D02*
X131434342Y-69938285D01*
X131434342Y-69938285D02*
X131243866Y-69985904D01*
X131243866Y-69985904D02*
X131005771Y-69985904D01*
X131005771Y-69985904D02*
X130815295Y-69938285D01*
X130815295Y-69938285D02*
X130720057Y-69890666D01*
X130720057Y-69890666D02*
X130672438Y-69843047D01*
X130672438Y-69843047D02*
X130624819Y-69747809D01*
X130624819Y-68509714D02*
X130624819Y-68985904D01*
X130624819Y-68985904D02*
X131101009Y-69033523D01*
X131101009Y-69033523D02*
X131053390Y-68985904D01*
X131053390Y-68985904D02*
X131005771Y-68890666D01*
X131005771Y-68890666D02*
X131005771Y-68652571D01*
X131005771Y-68652571D02*
X131053390Y-68557333D01*
X131053390Y-68557333D02*
X131101009Y-68509714D01*
X131101009Y-68509714D02*
X131196247Y-68462095D01*
X131196247Y-68462095D02*
X131434342Y-68462095D01*
X131434342Y-68462095D02*
X131529580Y-68509714D01*
X131529580Y-68509714D02*
X131577200Y-68557333D01*
X131577200Y-68557333D02*
X131624819Y-68652571D01*
X131624819Y-68652571D02*
X131624819Y-68890666D01*
X131624819Y-68890666D02*
X131577200Y-68985904D01*
X131577200Y-68985904D02*
X131529580Y-69033523D01*
D12*
%TO.C,C2*%
X127005000Y-78304000D02*
X127005000Y-82214000D01*
X128875000Y-78304000D02*
X127005000Y-78304000D01*
X128875000Y-82214000D02*
X128875000Y-78304000D01*
D10*
%TO.C,U2*%
X130633000Y-81529000D02*
X130858000Y-81529000D01*
X130633000Y-84779000D02*
X130633000Y-81529000D01*
X130633000Y-84779000D02*
X130858000Y-84779000D01*
X133883000Y-81529000D02*
X133658000Y-81529000D01*
X133883000Y-84779000D02*
X133658000Y-84779000D01*
X133883000Y-84779000D02*
X133883000Y-81529000D01*
D12*
X130858000Y-85254000D02*
X130528000Y-85494000D01*
X130528000Y-85014000D01*
X130858000Y-85254000D01*
G36*
X130858000Y-85254000D02*
G01*
X130528000Y-85494000D01*
X130528000Y-85014000D01*
X130858000Y-85254000D01*
G37*
%TO.C,J1*%
X105539500Y-85276000D02*
X105539500Y-67316000D01*
X105539500Y-85276000D02*
X121059500Y-85276000D01*
X121059500Y-67316000D02*
X105539500Y-67316000D01*
X121059500Y-85276000D02*
X121059500Y-67316000D01*
X121244500Y-81396000D02*
X121744500Y-81896000D01*
X121744500Y-80896000D02*
X121244500Y-81396000D01*
X121744500Y-81896000D02*
X121744500Y-80896000D01*
%TO.C,C1*%
X123449000Y-78304000D02*
X123449000Y-82214000D01*
X125319000Y-78304000D02*
X123449000Y-78304000D01*
X125319000Y-82214000D02*
X125319000Y-78304000D01*
%TO.C,J3*%
X116130000Y-99120000D02*
X116130000Y-97790000D01*
X117460000Y-99120000D02*
X116130000Y-99120000D01*
X118730000Y-96460000D02*
X123870000Y-96460000D01*
X118730000Y-99120000D02*
X118730000Y-96460000D01*
X118730000Y-99120000D02*
X123870000Y-99120000D01*
X123870000Y-99120000D02*
X123870000Y-96460000D01*
%TO.C,C3*%
X135133000Y-78558000D02*
X135133000Y-82468000D01*
X137003000Y-78558000D02*
X135133000Y-78558000D01*
X137003000Y-82468000D02*
X137003000Y-78558000D01*
%TO.C,C4*%
X138689000Y-78558000D02*
X138689000Y-82468000D01*
X140559000Y-78558000D02*
X138689000Y-78558000D01*
X140559000Y-82468000D02*
X140559000Y-78558000D01*
%TO.C,U3*%
X128728000Y-92082000D02*
X128728000Y-93732000D01*
X128728000Y-95732000D02*
X128728000Y-97382000D01*
X128728000Y-97382000D02*
X139008000Y-97382000D01*
X139008000Y-92082000D02*
X128728000Y-92082000D01*
X139008000Y-97382000D02*
X139008000Y-92082000D01*
X128728000Y-93732000D02*
G75*
G02*
X128728000Y-95732000I0J-1000000D01*
G01*
%TO.C,U4*%
X133889000Y-68707000D02*
X133889000Y-75127000D01*
X133889000Y-75127000D02*
X134159000Y-75127000D01*
X140789000Y-68707000D02*
X140789000Y-75127000D01*
X140789000Y-75127000D02*
X140519000Y-75127000D01*
X134199000Y-76547000D02*
X133869000Y-76787000D01*
X133869000Y-76307000D01*
X134199000Y-76547000D01*
G36*
X134199000Y-76547000D02*
G01*
X133869000Y-76787000D01*
X133869000Y-76307000D01*
X134199000Y-76547000D01*
G37*
%TO.C,J2*%
X143639500Y-85276000D02*
X143639500Y-67316000D01*
X143639500Y-85276000D02*
X159159500Y-85276000D01*
X159159500Y-67316000D02*
X143639500Y-67316000D01*
X159159500Y-85276000D02*
X159159500Y-67316000D01*
X159344500Y-81396000D02*
X159844500Y-81896000D01*
X159844500Y-80896000D02*
X159344500Y-81396000D01*
X159844500Y-81896000D02*
X159844500Y-80896000D01*
%TO.C,U1*%
X123220000Y-68604000D02*
X123220000Y-75024000D01*
X123220000Y-75024000D02*
X123490000Y-75024000D01*
X130120000Y-68604000D02*
X130120000Y-75024000D01*
X130120000Y-75024000D02*
X129850000Y-75024000D01*
X123530000Y-76444000D02*
X123200000Y-76684000D01*
X123200000Y-76204000D01*
X123530000Y-76444000D01*
G36*
X123530000Y-76444000D02*
G01*
X123200000Y-76684000D01*
X123200000Y-76204000D01*
X123530000Y-76444000D01*
G37*
%TD*%
M02*
