%TF.GenerationSoftware,KiCad,Pcbnew,8.0.4*%
%TF.CreationDate,2024-08-22T22:47:01+01:00*%
%TF.ProjectId,PicoChainATtiny85,5069636f-4368-4616-996e-415474696e79,v1.1*%
%TF.SameCoordinates,Original*%
%TF.FileFunction,Copper,L2,Bot*%
%TF.FilePolarity,Positive*%
%FSLAX46Y46*%
G04 Gerber Fmt 4.6, Leading zero omitted, Abs format (unit mm)*
G04 Created by KiCad (PCBNEW 8.0.4) date 2024-08-22 22:47:01*
%MOMM*%
%LPD*%
G01*
G04 APERTURE LIST*
%TA.AperFunction,ComponentPad*%
%ADD10R,1.500000X1.500000*%
%TD*%
%TA.AperFunction,ComponentPad*%
%ADD11C,1.500000*%
%TD*%
%TA.AperFunction,ComponentPad*%
%ADD12R,1.700000X1.700000*%
%TD*%
%TA.AperFunction,ComponentPad*%
%ADD13O,1.700000X1.700000*%
%TD*%
%TA.AperFunction,ComponentPad*%
%ADD14R,1.600000X1.600000*%
%TD*%
%TA.AperFunction,ComponentPad*%
%ADD15O,1.600000X1.600000*%
%TD*%
%TA.AperFunction,ViaPad*%
%ADD16C,0.600000*%
%TD*%
%TA.AperFunction,Conductor*%
%ADD17C,0.762000*%
%TD*%
%TA.AperFunction,Conductor*%
%ADD18C,0.508000*%
%TD*%
G04 APERTURE END LIST*
D10*
%TO.P,J1,1*%
%TO.N,GND*%
X117744500Y-81396000D03*
D11*
%TO.P,J1,2*%
%TO.N,+24V*%
X116474500Y-83936000D03*
%TO.P,J1,3*%
%TO.N,Net-(U2-DSCLM)*%
X115204500Y-81396000D03*
%TO.P,J1,4*%
%TO.N,Net-(U2-DSCLP)*%
X113934500Y-83936000D03*
%TO.P,J1,5*%
%TO.N,Net-(U2-DSDAP)*%
X112664500Y-81396000D03*
%TO.P,J1,6*%
%TO.N,Net-(U2-DSDAM)*%
X111394500Y-83936000D03*
%TO.P,J1,7*%
%TO.N,GND*%
X110124500Y-81396000D03*
%TO.P,J1,8*%
%TO.N,+12V*%
X108854500Y-83936000D03*
%TD*%
D12*
%TO.P,J3,1,Pin_1*%
%TO.N,GND*%
X117460000Y-97790000D03*
D13*
%TO.P,J3,2,Pin_2*%
%TO.N,/+5V(M)*%
X120000000Y-97790000D03*
%TO.P,J3,3,Pin_3*%
%TO.N,Net-(J3-Pin_3)*%
X122540000Y-97790000D03*
%TD*%
D14*
%TO.P,U3,1,~{RESET}/PB5*%
%TO.N,unconnected-(U3-~{RESET}{slash}PB5-Pad1)*%
X130058000Y-98542000D03*
D15*
%TO.P,U3,2,XTAL1/PB3*%
%TO.N,unconnected-(U3-XTAL1{slash}PB3-Pad2)*%
X132598000Y-98542000D03*
%TO.P,U3,3,XTAL2/PB4*%
%TO.N,Net-(J3-Pin_3)*%
X135138000Y-98542000D03*
%TO.P,U3,4,GND*%
%TO.N,GND*%
X137678000Y-98542000D03*
%TO.P,U3,5,AREF/PB0*%
%TO.N,Net-(U2-SDA)*%
X137678000Y-90922000D03*
%TO.P,U3,6,PB1*%
%TO.N,unconnected-(U3-PB1-Pad6)*%
X135138000Y-90922000D03*
%TO.P,U3,7,PB2*%
%TO.N,Net-(U2-SCL)*%
X132598000Y-90922000D03*
%TO.P,U3,8,VCC*%
%TO.N,+5V*%
X130058000Y-90922000D03*
%TD*%
D10*
%TO.P,J2,1*%
%TO.N,GND*%
X155844500Y-81396000D03*
D11*
%TO.P,J2,2*%
%TO.N,+24V*%
X154574500Y-83936000D03*
%TO.P,J2,3*%
%TO.N,Net-(U2-DSCLM)*%
X153304500Y-81396000D03*
%TO.P,J2,4*%
%TO.N,Net-(U2-DSCLP)*%
X152034500Y-83936000D03*
%TO.P,J2,5*%
%TO.N,Net-(U2-DSDAP)*%
X150764500Y-81396000D03*
%TO.P,J2,6*%
%TO.N,Net-(U2-DSDAM)*%
X149494500Y-83936000D03*
%TO.P,J2,7*%
%TO.N,GND*%
X148224500Y-81396000D03*
%TO.P,J2,8*%
%TO.N,+12V*%
X146954500Y-83936000D03*
%TD*%
D16*
%TO.N,+12V*%
X143894750Y-86995750D03*
%TO.N,Net-(U2-DSDAP)*%
X121031000Y-78486000D03*
X147870500Y-78502000D03*
X133020000Y-78582000D03*
%TO.N,Net-(U2-DSDAM)*%
X121031000Y-77470000D03*
X142330500Y-77486000D03*
X133020000Y-77566000D03*
%TO.N,Net-(U2-DSCLM)*%
X133258000Y-82709000D03*
%TO.N,Net-(U2-DSCLP)*%
X121031000Y-79502000D03*
X153578000Y-79534000D03*
X133020000Y-79492000D03*
%TO.N,Net-(U2-SCL)*%
X132758000Y-88011000D03*
%TD*%
D17*
%TO.N,+12V*%
X143863500Y-87027000D02*
X111945500Y-87027000D01*
X111945500Y-87027000D02*
X108854500Y-83936000D01*
X143894750Y-86995750D02*
X143863500Y-87027000D01*
D18*
%TO.N,Net-(U2-DSDAP)*%
X112664500Y-80823500D02*
X112664500Y-81316000D01*
X147870500Y-78502000D02*
X121047000Y-78502000D01*
X121047000Y-78502000D02*
X121031000Y-78486000D01*
X121031000Y-78486000D02*
X121015000Y-78502000D01*
%TO.N,Net-(U2-DSDAM)*%
X121047000Y-77486000D02*
X121031000Y-77470000D01*
X142330500Y-77486000D02*
X121047000Y-77486000D01*
X121031000Y-77470000D02*
X121015000Y-77486000D01*
X149494500Y-83856000D02*
X149042000Y-83856000D01*
%TO.N,Net-(U2-DSCLM)*%
X133258000Y-82709000D02*
X151911500Y-82709000D01*
X151911500Y-82709000D02*
X153304500Y-81316000D01*
X133258000Y-82709000D02*
X133235000Y-82732000D01*
X133235000Y-82732000D02*
X116540500Y-82732000D01*
X116540500Y-82732000D02*
X115204500Y-81396000D01*
%TO.N,Net-(U2-DSCLP)*%
X153578000Y-79534000D02*
X121063000Y-79534000D01*
X121063000Y-79534000D02*
X121031000Y-79502000D01*
X121031000Y-79502000D02*
X120999000Y-79534000D01*
D17*
%TO.N,+24V*%
X116474500Y-83856000D02*
X118375500Y-85757000D01*
X118375500Y-85757000D02*
X152673500Y-85757000D01*
X152673500Y-85757000D02*
X154574500Y-83856000D01*
D18*
%TO.N,Net-(U2-SCL)*%
X132758000Y-90762000D02*
X132598000Y-90922000D01*
X132758000Y-88011000D02*
X132758000Y-90762000D01*
%TD*%
%TA.AperFunction,Conductor*%
%TO.N,GND*%
G36*
X159441621Y-66520502D02*
G01*
X159488114Y-66574158D01*
X159499500Y-66626500D01*
X159499500Y-99373500D01*
X159479498Y-99441621D01*
X159425842Y-99488114D01*
X159373500Y-99499500D01*
X138846368Y-99499500D01*
X138778247Y-99479498D01*
X138731754Y-99425842D01*
X138721650Y-99355568D01*
X138743155Y-99301229D01*
X138815087Y-99198498D01*
X138911811Y-98991073D01*
X138911813Y-98991068D01*
X138964082Y-98796000D01*
X137989686Y-98796000D01*
X137998080Y-98787606D01*
X138050741Y-98696394D01*
X138078000Y-98594661D01*
X138078000Y-98489339D01*
X138050741Y-98387606D01*
X137998080Y-98296394D01*
X137989686Y-98288000D01*
X138964082Y-98288000D01*
X138911813Y-98092931D01*
X138911811Y-98092926D01*
X138815087Y-97885501D01*
X138683815Y-97698025D01*
X138683810Y-97698019D01*
X138521980Y-97536189D01*
X138521974Y-97536184D01*
X138334498Y-97404912D01*
X138127073Y-97308188D01*
X138127071Y-97308187D01*
X137932000Y-97255917D01*
X137932000Y-98230314D01*
X137923606Y-98221920D01*
X137832394Y-98169259D01*
X137730661Y-98142000D01*
X137625339Y-98142000D01*
X137523606Y-98169259D01*
X137432394Y-98221920D01*
X137424000Y-98230314D01*
X137424000Y-97255917D01*
X137423999Y-97255917D01*
X137228928Y-97308187D01*
X137228926Y-97308188D01*
X137021501Y-97404912D01*
X136834025Y-97536184D01*
X136834019Y-97536189D01*
X136672189Y-97698019D01*
X136672184Y-97698025D01*
X136540912Y-97885501D01*
X136444188Y-98092926D01*
X136444187Y-98092928D01*
X136398702Y-98262680D01*
X136361750Y-98323302D01*
X136297889Y-98354324D01*
X136227395Y-98345895D01*
X136172648Y-98300692D01*
X136156422Y-98266647D01*
X136116945Y-98136508D01*
X136019027Y-97953317D01*
X136019025Y-97953313D01*
X135887252Y-97792747D01*
X135726686Y-97660975D01*
X135726686Y-97660974D01*
X135543492Y-97563055D01*
X135528529Y-97558516D01*
X135344718Y-97502758D01*
X135344717Y-97502757D01*
X135344711Y-97502756D01*
X135138003Y-97482398D01*
X135137997Y-97482398D01*
X134931288Y-97502756D01*
X134732507Y-97563055D01*
X134549313Y-97660974D01*
X134549313Y-97660975D01*
X134388747Y-97792747D01*
X134256975Y-97953313D01*
X134256974Y-97953313D01*
X134159055Y-98136507D01*
X134098756Y-98335288D01*
X134078398Y-98541996D01*
X134078398Y-98542003D01*
X134098756Y-98748711D01*
X134098757Y-98748717D01*
X134098758Y-98748718D01*
X134113101Y-98796000D01*
X134159055Y-98947492D01*
X134256974Y-99130686D01*
X134390647Y-99293567D01*
X134418401Y-99358914D01*
X134406419Y-99428892D01*
X134358506Y-99481284D01*
X134293248Y-99499500D01*
X133442752Y-99499500D01*
X133374631Y-99479498D01*
X133328138Y-99425842D01*
X133318034Y-99355568D01*
X133345353Y-99293567D01*
X133464816Y-99147999D01*
X133479027Y-99130683D01*
X133576945Y-98947492D01*
X133637242Y-98748718D01*
X133638122Y-98739789D01*
X133657602Y-98542003D01*
X133657602Y-98541996D01*
X133637243Y-98335288D01*
X133637242Y-98335286D01*
X133637242Y-98335282D01*
X133576945Y-98136508D01*
X133479027Y-97953317D01*
X133479025Y-97953313D01*
X133347252Y-97792747D01*
X133186686Y-97660975D01*
X133186686Y-97660974D01*
X133003492Y-97563055D01*
X132988529Y-97558516D01*
X132804718Y-97502758D01*
X132804717Y-97502757D01*
X132804711Y-97502756D01*
X132598003Y-97482398D01*
X132597997Y-97482398D01*
X132391288Y-97502756D01*
X132192507Y-97563055D01*
X132009313Y-97660974D01*
X132009313Y-97660975D01*
X131848747Y-97792747D01*
X131716975Y-97953313D01*
X131716974Y-97953313D01*
X131619055Y-98136507D01*
X131558756Y-98335288D01*
X131538398Y-98541996D01*
X131538398Y-98542003D01*
X131558756Y-98748711D01*
X131558757Y-98748717D01*
X131558758Y-98748718D01*
X131573101Y-98796000D01*
X131619055Y-98947492D01*
X131716974Y-99130686D01*
X131850647Y-99293567D01*
X131878401Y-99358914D01*
X131866419Y-99428892D01*
X131818506Y-99481284D01*
X131753248Y-99499500D01*
X131238476Y-99499500D01*
X131170355Y-99479498D01*
X131123862Y-99425842D01*
X131115107Y-99373257D01*
X131112500Y-99373257D01*
X131112499Y-98542003D01*
X131112499Y-97716934D01*
X131112498Y-97716930D01*
X131112498Y-97716926D01*
X131097734Y-97642699D01*
X131042720Y-97560366D01*
X131041484Y-97558516D01*
X131008070Y-97536189D01*
X130957302Y-97502266D01*
X130883067Y-97487500D01*
X129232936Y-97487500D01*
X129232926Y-97487501D01*
X129158699Y-97502265D01*
X129074515Y-97558516D01*
X129018266Y-97642697D01*
X129003500Y-97716930D01*
X129003500Y-97716934D01*
X129003501Y-99373256D01*
X129000625Y-99373256D01*
X128989682Y-99430918D01*
X128940835Y-99482439D01*
X128877525Y-99499500D01*
X100626500Y-99499500D01*
X100558379Y-99479498D01*
X100511886Y-99425842D01*
X100500500Y-99373500D01*
X100500500Y-95499993D01*
X100994696Y-95499993D01*
X100994696Y-95500006D01*
X101013896Y-95866395D01*
X101071294Y-96228792D01*
X101166259Y-96583205D01*
X101297740Y-96925726D01*
X101297744Y-96925734D01*
X101297745Y-96925736D01*
X101440580Y-97206063D01*
X101464318Y-97252652D01*
X101664143Y-97560358D01*
X101664155Y-97560375D01*
X101895038Y-97845492D01*
X101895052Y-97845507D01*
X102154492Y-98104947D01*
X102154507Y-98104961D01*
X102439624Y-98335844D01*
X102439641Y-98335856D01*
X102613294Y-98448626D01*
X102747348Y-98535682D01*
X103074264Y-98702255D01*
X103074268Y-98702256D01*
X103074273Y-98702259D01*
X103416794Y-98833740D01*
X103416799Y-98833741D01*
X103416801Y-98833742D01*
X103771206Y-98928705D01*
X104133596Y-98986102D01*
X104133598Y-98986102D01*
X104133604Y-98986103D01*
X104499994Y-99005304D01*
X104500000Y-99005304D01*
X104500006Y-99005304D01*
X104866395Y-98986103D01*
X104866399Y-98986102D01*
X104866404Y-98986102D01*
X105228794Y-98928705D01*
X105583199Y-98833742D01*
X105583202Y-98833740D01*
X105583205Y-98833740D01*
X105925726Y-98702259D01*
X105925727Y-98702258D01*
X105925736Y-98702255D01*
X106252652Y-98535682D01*
X106560366Y-98335851D01*
X106560375Y-98335844D01*
X106845492Y-98104961D01*
X106845497Y-98104955D01*
X106845506Y-98104949D01*
X107104949Y-97845506D01*
X107104955Y-97845497D01*
X107104961Y-97845492D01*
X107335844Y-97560375D01*
X107335845Y-97560372D01*
X107335851Y-97560366D01*
X107535682Y-97252652D01*
X107702255Y-96925736D01*
X107715434Y-96891402D01*
X116102000Y-96891402D01*
X116102000Y-97536000D01*
X117029297Y-97536000D01*
X116994075Y-97597007D01*
X116960000Y-97724174D01*
X116960000Y-97855826D01*
X116994075Y-97982993D01*
X117029297Y-98044000D01*
X116102000Y-98044000D01*
X116102000Y-98688597D01*
X116108505Y-98749093D01*
X116159555Y-98885964D01*
X116159555Y-98885965D01*
X116247095Y-99002904D01*
X116364034Y-99090444D01*
X116500906Y-99141494D01*
X116561402Y-99147999D01*
X116561415Y-99148000D01*
X117206000Y-99148000D01*
X117206000Y-98220702D01*
X117267007Y-98255925D01*
X117394174Y-98290000D01*
X117525826Y-98290000D01*
X117652993Y-98255925D01*
X117714000Y-98220702D01*
X117714000Y-99148000D01*
X118358585Y-99148000D01*
X118358597Y-99147999D01*
X118419093Y-99141494D01*
X118555964Y-99090444D01*
X118555965Y-99090444D01*
X118672904Y-99002904D01*
X118760444Y-98885965D01*
X118760444Y-98885964D01*
X118811494Y-98749093D01*
X118817999Y-98688597D01*
X118818000Y-98688585D01*
X118818000Y-98429854D01*
X118838002Y-98361733D01*
X118891658Y-98315240D01*
X118961932Y-98305136D01*
X119026512Y-98334630D01*
X119053368Y-98369277D01*
X119053845Y-98368982D01*
X119056644Y-98373503D01*
X119056791Y-98373693D01*
X119056912Y-98373935D01*
X119056913Y-98373937D01*
X119180266Y-98537284D01*
X119331536Y-98675185D01*
X119505566Y-98782940D01*
X119505568Y-98782940D01*
X119505573Y-98782944D01*
X119696444Y-98856888D01*
X119897653Y-98894500D01*
X119897655Y-98894500D01*
X120102345Y-98894500D01*
X120102347Y-98894500D01*
X120303556Y-98856888D01*
X120494427Y-98782944D01*
X120668462Y-98675186D01*
X120819732Y-98537285D01*
X120820944Y-98535681D01*
X120855939Y-98489339D01*
X120943088Y-98373935D01*
X121034328Y-98190701D01*
X121090345Y-97993821D01*
X121096640Y-97925880D01*
X121109232Y-97790004D01*
X121109232Y-97789995D01*
X121430768Y-97789995D01*
X121430768Y-97790004D01*
X121449654Y-97993819D01*
X121490253Y-98136508D01*
X121505672Y-98190701D01*
X121596912Y-98373935D01*
X121596913Y-98373936D01*
X121720266Y-98537284D01*
X121871536Y-98675185D01*
X122045566Y-98782940D01*
X122045568Y-98782940D01*
X122045573Y-98782944D01*
X122236444Y-98856888D01*
X122437653Y-98894500D01*
X122437655Y-98894500D01*
X122642345Y-98894500D01*
X122642347Y-98894500D01*
X122843556Y-98856888D01*
X123034427Y-98782944D01*
X123208462Y-98675186D01*
X123359732Y-98537285D01*
X123360944Y-98535681D01*
X123395939Y-98489339D01*
X123483088Y-98373935D01*
X123574328Y-98190701D01*
X123630345Y-97993821D01*
X123636640Y-97925880D01*
X123649232Y-97790004D01*
X123649232Y-97789995D01*
X123630345Y-97586180D01*
X123630345Y-97586179D01*
X123574328Y-97389299D01*
X123483088Y-97206065D01*
X123440859Y-97150145D01*
X123359733Y-97042715D01*
X123208463Y-96904814D01*
X123034433Y-96797059D01*
X123034428Y-96797057D01*
X123034427Y-96797056D01*
X122843559Y-96723113D01*
X122843560Y-96723113D01*
X122843557Y-96723112D01*
X122843556Y-96723112D01*
X122642347Y-96685500D01*
X122437653Y-96685500D01*
X122236444Y-96723112D01*
X122236439Y-96723113D01*
X122045577Y-96797054D01*
X122045566Y-96797059D01*
X121871536Y-96904814D01*
X121720266Y-97042715D01*
X121596913Y-97206063D01*
X121505671Y-97389301D01*
X121449654Y-97586180D01*
X121430768Y-97789995D01*
X121109232Y-97789995D01*
X121090345Y-97586180D01*
X121090345Y-97586179D01*
X121034328Y-97389299D01*
X120943088Y-97206065D01*
X120900859Y-97150145D01*
X120819733Y-97042715D01*
X120668463Y-96904814D01*
X120494433Y-96797059D01*
X120494428Y-96797057D01*
X120494427Y-96797056D01*
X120303559Y-96723113D01*
X120303560Y-96723113D01*
X120303557Y-96723112D01*
X120303556Y-96723112D01*
X120102347Y-96685500D01*
X119897653Y-96685500D01*
X119696444Y-96723112D01*
X119696439Y-96723113D01*
X119505577Y-96797054D01*
X119505566Y-96797059D01*
X119331536Y-96904814D01*
X119180266Y-97042715D01*
X119056912Y-97206063D01*
X119056789Y-97206312D01*
X119056698Y-97206409D01*
X119053845Y-97211018D01*
X119052943Y-97210459D01*
X119008518Y-97258374D01*
X118939763Y-97276074D01*
X118872353Y-97253792D01*
X118827691Y-97198603D01*
X118818000Y-97150145D01*
X118818000Y-96891414D01*
X118817999Y-96891402D01*
X118811494Y-96830906D01*
X118760444Y-96694035D01*
X118760444Y-96694034D01*
X118672904Y-96577095D01*
X118555965Y-96489555D01*
X118419093Y-96438505D01*
X118358597Y-96432000D01*
X117714000Y-96432000D01*
X117714000Y-97359297D01*
X117652993Y-97324075D01*
X117525826Y-97290000D01*
X117394174Y-97290000D01*
X117267007Y-97324075D01*
X117206000Y-97359297D01*
X117206000Y-96432000D01*
X116561402Y-96432000D01*
X116500906Y-96438505D01*
X116364035Y-96489555D01*
X116364034Y-96489555D01*
X116247095Y-96577095D01*
X116159555Y-96694034D01*
X116159555Y-96694035D01*
X116108505Y-96830906D01*
X116102000Y-96891402D01*
X107715434Y-96891402D01*
X107751649Y-96797059D01*
X107833740Y-96583205D01*
X107833742Y-96583199D01*
X107928705Y-96228794D01*
X107986102Y-95866404D01*
X107986102Y-95866399D01*
X107986103Y-95866395D01*
X108005304Y-95500006D01*
X108005304Y-95499993D01*
X151994696Y-95499993D01*
X151994696Y-95500006D01*
X152013896Y-95866395D01*
X152071294Y-96228792D01*
X152166259Y-96583205D01*
X152297740Y-96925726D01*
X152297744Y-96925734D01*
X152297745Y-96925736D01*
X152440580Y-97206063D01*
X152464318Y-97252652D01*
X152664143Y-97560358D01*
X152664155Y-97560375D01*
X152895038Y-97845492D01*
X152895052Y-97845507D01*
X153154492Y-98104947D01*
X153154507Y-98104961D01*
X153439624Y-98335844D01*
X153439641Y-98335856D01*
X153613294Y-98448626D01*
X153747348Y-98535682D01*
X154074264Y-98702255D01*
X154074268Y-98702256D01*
X154074273Y-98702259D01*
X154416794Y-98833740D01*
X154416799Y-98833741D01*
X154416801Y-98833742D01*
X154771206Y-98928705D01*
X155133596Y-98986102D01*
X155133598Y-98986102D01*
X155133604Y-98986103D01*
X155499994Y-99005304D01*
X155500000Y-99005304D01*
X155500006Y-99005304D01*
X155866395Y-98986103D01*
X155866399Y-98986102D01*
X155866404Y-98986102D01*
X156228794Y-98928705D01*
X156583199Y-98833742D01*
X156583202Y-98833740D01*
X156583205Y-98833740D01*
X156925726Y-98702259D01*
X156925727Y-98702258D01*
X156925736Y-98702255D01*
X157252652Y-98535682D01*
X157560366Y-98335851D01*
X157560375Y-98335844D01*
X157845492Y-98104961D01*
X157845497Y-98104955D01*
X157845506Y-98104949D01*
X158104949Y-97845506D01*
X158104955Y-97845497D01*
X158104961Y-97845492D01*
X158335844Y-97560375D01*
X158335845Y-97560372D01*
X158335851Y-97560366D01*
X158535682Y-97252652D01*
X158702255Y-96925736D01*
X158751649Y-96797059D01*
X158833740Y-96583205D01*
X158833742Y-96583199D01*
X158928705Y-96228794D01*
X158986102Y-95866404D01*
X158986102Y-95866399D01*
X158986103Y-95866395D01*
X159005304Y-95500006D01*
X159005304Y-95499993D01*
X158986103Y-95133604D01*
X158928705Y-94771207D01*
X158833740Y-94416794D01*
X158702259Y-94074273D01*
X158702255Y-94074265D01*
X158702255Y-94074264D01*
X158535682Y-93747348D01*
X158335851Y-93439634D01*
X158335844Y-93439624D01*
X158104961Y-93154507D01*
X158104947Y-93154492D01*
X157845507Y-92895052D01*
X157845492Y-92895038D01*
X157560375Y-92664155D01*
X157560358Y-92664143D01*
X157252652Y-92464318D01*
X156925734Y-92297744D01*
X156925726Y-92297740D01*
X156583205Y-92166259D01*
X156228792Y-92071294D01*
X155866395Y-92013896D01*
X155500006Y-91994696D01*
X155499994Y-91994696D01*
X155133604Y-92013896D01*
X154771207Y-92071294D01*
X154416794Y-92166259D01*
X154074273Y-92297740D01*
X154074265Y-92297744D01*
X153747347Y-92464318D01*
X153439641Y-92664143D01*
X153439624Y-92664155D01*
X153154507Y-92895038D01*
X153154492Y-92895052D01*
X152895052Y-93154492D01*
X152895038Y-93154507D01*
X152664155Y-93439624D01*
X152664143Y-93439641D01*
X152464318Y-93747347D01*
X152297744Y-94074265D01*
X152297740Y-94074273D01*
X152166259Y-94416794D01*
X152071294Y-94771207D01*
X152013896Y-95133604D01*
X151994696Y-95499993D01*
X108005304Y-95499993D01*
X107986103Y-95133604D01*
X107928705Y-94771207D01*
X107833740Y-94416794D01*
X107702259Y-94074273D01*
X107702255Y-94074265D01*
X107702255Y-94074264D01*
X107535682Y-93747348D01*
X107335851Y-93439634D01*
X107335844Y-93439624D01*
X107104961Y-93154507D01*
X107104947Y-93154492D01*
X106845507Y-92895052D01*
X106845492Y-92895038D01*
X106560375Y-92664155D01*
X106560358Y-92664143D01*
X106252652Y-92464318D01*
X105925734Y-92297744D01*
X105925726Y-92297740D01*
X105583205Y-92166259D01*
X105228792Y-92071294D01*
X104866395Y-92013896D01*
X104500006Y-91994696D01*
X104499994Y-91994696D01*
X104133604Y-92013896D01*
X103771207Y-92071294D01*
X103416794Y-92166259D01*
X103074273Y-92297740D01*
X103074265Y-92297744D01*
X102747347Y-92464318D01*
X102439641Y-92664143D01*
X102439624Y-92664155D01*
X102154507Y-92895038D01*
X102154492Y-92895052D01*
X101895052Y-93154492D01*
X101895038Y-93154507D01*
X101664155Y-93439624D01*
X101664143Y-93439641D01*
X101464318Y-93747347D01*
X101297744Y-94074265D01*
X101297740Y-94074273D01*
X101166259Y-94416794D01*
X101071294Y-94771207D01*
X101013896Y-95133604D01*
X100994696Y-95499993D01*
X100500500Y-95499993D01*
X100500500Y-90921996D01*
X128998398Y-90921996D01*
X128998398Y-90922003D01*
X129018756Y-91128711D01*
X129079055Y-91327492D01*
X129176974Y-91510686D01*
X129308747Y-91671252D01*
X129469313Y-91803024D01*
X129469313Y-91803025D01*
X129469317Y-91803027D01*
X129652508Y-91900945D01*
X129851282Y-91961242D01*
X129851286Y-91961242D01*
X129851288Y-91961243D01*
X130057997Y-91981602D01*
X130058000Y-91981602D01*
X130058003Y-91981602D01*
X130264711Y-91961243D01*
X130264712Y-91961242D01*
X130264718Y-91961242D01*
X130463492Y-91900945D01*
X130646683Y-91803027D01*
X130646684Y-91803025D01*
X130646686Y-91803025D01*
X130646686Y-91803024D01*
X130807252Y-91671252D01*
X130939027Y-91510683D01*
X131036945Y-91327492D01*
X131097242Y-91128718D01*
X131117602Y-90922000D01*
X131097242Y-90715282D01*
X131036945Y-90516508D01*
X130939027Y-90333317D01*
X130939025Y-90333313D01*
X130807252Y-90172747D01*
X130646686Y-90040975D01*
X130646686Y-90040974D01*
X130463492Y-89943055D01*
X130264711Y-89882756D01*
X130058003Y-89862398D01*
X130057997Y-89862398D01*
X129851288Y-89882756D01*
X129652507Y-89943055D01*
X129469313Y-90040974D01*
X129469313Y-90040975D01*
X129308747Y-90172747D01*
X129176975Y-90333313D01*
X129176974Y-90333313D01*
X129079055Y-90516507D01*
X129018756Y-90715288D01*
X128998398Y-90921996D01*
X100500500Y-90921996D01*
X100500500Y-83935997D01*
X107845140Y-83935997D01*
X107845140Y-83936002D01*
X107864533Y-84132909D01*
X107864534Y-84132915D01*
X107864535Y-84132916D01*
X107921973Y-84322265D01*
X108015248Y-84496770D01*
X108140775Y-84649725D01*
X108293730Y-84775252D01*
X108468235Y-84868527D01*
X108657584Y-84925965D01*
X108657588Y-84925965D01*
X108657590Y-84925966D01*
X108854497Y-84945360D01*
X108854500Y-84945360D01*
X108854501Y-84945360D01*
X108895900Y-84941282D01*
X108965654Y-84954510D01*
X108997347Y-84977580D01*
X111540392Y-87520625D01*
X111644478Y-87590173D01*
X111760131Y-87638078D01*
X111882909Y-87662500D01*
X112008091Y-87662500D01*
X132113594Y-87662500D01*
X132181715Y-87682502D01*
X132228208Y-87736158D01*
X132238312Y-87806432D01*
X132230003Y-87836718D01*
X132217772Y-87866245D01*
X132217771Y-87866246D01*
X132198715Y-88010999D01*
X132198715Y-88011000D01*
X132217771Y-88155753D01*
X132217772Y-88155754D01*
X132239909Y-88209197D01*
X132249500Y-88257415D01*
X132249500Y-89837070D01*
X132229498Y-89905191D01*
X132182897Y-89948192D01*
X132009311Y-90040976D01*
X131848747Y-90172747D01*
X131716975Y-90333313D01*
X131716974Y-90333313D01*
X131619055Y-90516507D01*
X131558756Y-90715288D01*
X131538398Y-90921996D01*
X131538398Y-90922003D01*
X131558756Y-91128711D01*
X131619055Y-91327492D01*
X131716974Y-91510686D01*
X131848747Y-91671252D01*
X132009313Y-91803024D01*
X132009313Y-91803025D01*
X132009317Y-91803027D01*
X132192508Y-91900945D01*
X132391282Y-91961242D01*
X132391286Y-91961242D01*
X132391288Y-91961243D01*
X132597997Y-91981602D01*
X132598000Y-91981602D01*
X132598003Y-91981602D01*
X132804711Y-91961243D01*
X132804712Y-91961242D01*
X132804718Y-91961242D01*
X133003492Y-91900945D01*
X133186683Y-91803027D01*
X133186684Y-91803025D01*
X133186686Y-91803025D01*
X133186686Y-91803024D01*
X133347252Y-91671252D01*
X133479027Y-91510683D01*
X133576945Y-91327492D01*
X133637242Y-91128718D01*
X133657602Y-90922000D01*
X133657602Y-90921996D01*
X134078398Y-90921996D01*
X134078398Y-90922003D01*
X134098756Y-91128711D01*
X134159055Y-91327492D01*
X134256974Y-91510686D01*
X134388747Y-91671252D01*
X134549313Y-91803024D01*
X134549313Y-91803025D01*
X134549317Y-91803027D01*
X134732508Y-91900945D01*
X134931282Y-91961242D01*
X134931286Y-91961242D01*
X134931288Y-91961243D01*
X135137997Y-91981602D01*
X135138000Y-91981602D01*
X135138003Y-91981602D01*
X135344711Y-91961243D01*
X135344712Y-91961242D01*
X135344718Y-91961242D01*
X135543492Y-91900945D01*
X135726683Y-91803027D01*
X135726684Y-91803025D01*
X135726686Y-91803025D01*
X135726686Y-91803024D01*
X135887252Y-91671252D01*
X136019027Y-91510683D01*
X136116945Y-91327492D01*
X136177242Y-91128718D01*
X136197602Y-90922000D01*
X136197602Y-90921996D01*
X136618398Y-90921996D01*
X136618398Y-90922003D01*
X136638756Y-91128711D01*
X136699055Y-91327492D01*
X136796974Y-91510686D01*
X136928747Y-91671252D01*
X137089313Y-91803024D01*
X137089313Y-91803025D01*
X137089317Y-91803027D01*
X137272508Y-91900945D01*
X137471282Y-91961242D01*
X137471286Y-91961242D01*
X137471288Y-91961243D01*
X137677997Y-91981602D01*
X137678000Y-91981602D01*
X137678003Y-91981602D01*
X137884711Y-91961243D01*
X137884712Y-91961242D01*
X137884718Y-91961242D01*
X138083492Y-91900945D01*
X138266683Y-91803027D01*
X138266684Y-91803025D01*
X138266686Y-91803025D01*
X138266686Y-91803024D01*
X138427252Y-91671252D01*
X138559027Y-91510683D01*
X138656945Y-91327492D01*
X138717242Y-91128718D01*
X138737602Y-90922000D01*
X138717242Y-90715282D01*
X138656945Y-90516508D01*
X138559027Y-90333317D01*
X138559025Y-90333313D01*
X138427252Y-90172747D01*
X138266686Y-90040975D01*
X138266686Y-90040974D01*
X138083492Y-89943055D01*
X137884711Y-89882756D01*
X137678003Y-89862398D01*
X137677997Y-89862398D01*
X137471288Y-89882756D01*
X137272507Y-89943055D01*
X137089313Y-90040974D01*
X137089313Y-90040975D01*
X136928747Y-90172747D01*
X136796975Y-90333313D01*
X136796974Y-90333313D01*
X136699055Y-90516507D01*
X136638756Y-90715288D01*
X136618398Y-90921996D01*
X136197602Y-90921996D01*
X136177242Y-90715282D01*
X136116945Y-90516508D01*
X136019027Y-90333317D01*
X136019025Y-90333313D01*
X135887252Y-90172747D01*
X135726686Y-90040975D01*
X135726686Y-90040974D01*
X135543492Y-89943055D01*
X135344711Y-89882756D01*
X135138003Y-89862398D01*
X135137997Y-89862398D01*
X134931288Y-89882756D01*
X134732507Y-89943055D01*
X134549313Y-90040974D01*
X134549313Y-90040975D01*
X134388747Y-90172747D01*
X134256975Y-90333313D01*
X134256974Y-90333313D01*
X134159055Y-90516507D01*
X134098756Y-90715288D01*
X134078398Y-90921996D01*
X133657602Y-90921996D01*
X133637242Y-90715282D01*
X133576945Y-90516508D01*
X133479027Y-90333317D01*
X133479025Y-90333313D01*
X133347254Y-90172749D01*
X133312565Y-90144280D01*
X133272597Y-90085602D01*
X133266500Y-90046882D01*
X133266500Y-88257415D01*
X133276091Y-88209197D01*
X133279027Y-88202107D01*
X133298228Y-88155754D01*
X133317285Y-88011000D01*
X133298228Y-87866246D01*
X133285997Y-87836718D01*
X133278408Y-87766128D01*
X133310187Y-87702641D01*
X133371245Y-87666414D01*
X133402406Y-87662500D01*
X143926090Y-87662500D01*
X143926091Y-87662500D01*
X144048869Y-87638078D01*
X144164522Y-87590173D01*
X144268608Y-87520625D01*
X144388375Y-87400858D01*
X144457923Y-87296772D01*
X144505828Y-87181119D01*
X144530250Y-87058341D01*
X144530250Y-86933159D01*
X144505828Y-86810381D01*
X144457923Y-86694728D01*
X144388375Y-86590642D01*
X144388374Y-86590641D01*
X144386945Y-86588502D01*
X144365730Y-86520749D01*
X144384513Y-86452282D01*
X144437330Y-86404839D01*
X144491710Y-86392500D01*
X152736090Y-86392500D01*
X152736091Y-86392500D01*
X152858869Y-86368078D01*
X152974522Y-86320173D01*
X153078608Y-86250625D01*
X154358828Y-84970403D01*
X154421137Y-84936381D01*
X154460267Y-84934108D01*
X154559896Y-84943921D01*
X154574499Y-84945360D01*
X154574500Y-84945360D01*
X154574503Y-84945360D01*
X154771409Y-84925966D01*
X154771410Y-84925965D01*
X154771416Y-84925965D01*
X154960765Y-84868527D01*
X155135270Y-84775252D01*
X155288225Y-84649725D01*
X155413752Y-84496770D01*
X155507027Y-84322265D01*
X155564465Y-84132916D01*
X155569791Y-84078847D01*
X155583860Y-83936002D01*
X155583860Y-83935997D01*
X155564466Y-83739090D01*
X155564465Y-83739088D01*
X155564465Y-83739084D01*
X155507027Y-83549735D01*
X155413752Y-83375230D01*
X155288225Y-83222275D01*
X155135270Y-83096748D01*
X154960765Y-83003473D01*
X154771416Y-82946035D01*
X154771415Y-82946034D01*
X154771409Y-82946033D01*
X154574503Y-82926640D01*
X154574497Y-82926640D01*
X154377590Y-82946033D01*
X154188234Y-83003473D01*
X154013729Y-83096748D01*
X153860775Y-83222275D01*
X153735248Y-83375229D01*
X153641973Y-83549734D01*
X153584533Y-83739090D01*
X153566212Y-83925107D01*
X153539629Y-83990939D01*
X153529914Y-84001851D01*
X153217132Y-84314633D01*
X153154820Y-84348659D01*
X153084005Y-84343594D01*
X153027169Y-84301047D01*
X153002358Y-84234527D01*
X153007462Y-84188966D01*
X153024465Y-84132916D01*
X153029791Y-84078847D01*
X153043860Y-83936002D01*
X153043860Y-83935997D01*
X153024466Y-83739090D01*
X153024465Y-83739088D01*
X153024465Y-83739084D01*
X152967027Y-83549735D01*
X152873752Y-83375230D01*
X152748225Y-83222275D01*
X152662368Y-83151814D01*
X152595272Y-83096749D01*
X152515455Y-83054086D01*
X152464807Y-83004333D01*
X152449098Y-82935097D01*
X152473314Y-82868358D01*
X152485750Y-82853876D01*
X152936086Y-82403540D01*
X152998396Y-82369516D01*
X153061755Y-82372063D01*
X153082796Y-82378445D01*
X153107581Y-82385964D01*
X153107584Y-82385965D01*
X153256191Y-82400601D01*
X153304498Y-82405360D01*
X153304500Y-82405360D01*
X153304503Y-82405360D01*
X153501409Y-82385966D01*
X153501410Y-82385965D01*
X153501416Y-82385965D01*
X153690765Y-82328527D01*
X153865270Y-82235252D01*
X154018225Y-82109725D01*
X154143752Y-81956770D01*
X154237027Y-81782265D01*
X154294465Y-81592916D01*
X154299414Y-81542675D01*
X154313860Y-81396002D01*
X154313860Y-81395997D01*
X154294466Y-81199090D01*
X154294465Y-81199088D01*
X154294465Y-81199084D01*
X154237027Y-81009735D01*
X154143752Y-80835230D01*
X154018225Y-80682275D01*
X153914807Y-80597402D01*
X154586500Y-80597402D01*
X154586500Y-81142000D01*
X155561099Y-81142000D01*
X155540424Y-81162675D01*
X155490396Y-81249325D01*
X155464500Y-81345972D01*
X155464500Y-81446028D01*
X155490396Y-81542675D01*
X155540424Y-81629325D01*
X155561099Y-81650000D01*
X154586500Y-81650000D01*
X154586500Y-82194597D01*
X154593005Y-82255093D01*
X154644055Y-82391964D01*
X154644055Y-82391965D01*
X154731595Y-82508904D01*
X154848534Y-82596444D01*
X154985406Y-82647494D01*
X155045902Y-82653999D01*
X155045915Y-82654000D01*
X155590500Y-82654000D01*
X155590500Y-81679401D01*
X155611175Y-81700076D01*
X155697825Y-81750104D01*
X155794472Y-81776000D01*
X155894528Y-81776000D01*
X155991175Y-81750104D01*
X156077825Y-81700076D01*
X156098500Y-81679401D01*
X156098500Y-82654000D01*
X156643085Y-82654000D01*
X156643097Y-82653999D01*
X156703593Y-82647494D01*
X156840464Y-82596444D01*
X156840465Y-82596444D01*
X156957404Y-82508904D01*
X157044944Y-82391965D01*
X157044944Y-82391964D01*
X157095994Y-82255093D01*
X157102499Y-82194597D01*
X157102500Y-82194585D01*
X157102500Y-81650000D01*
X156127901Y-81650000D01*
X156148576Y-81629325D01*
X156198604Y-81542675D01*
X156224500Y-81446028D01*
X156224500Y-81345972D01*
X156198604Y-81249325D01*
X156148576Y-81162675D01*
X156127901Y-81142000D01*
X157102500Y-81142000D01*
X157102500Y-80597414D01*
X157102499Y-80597402D01*
X157095994Y-80536906D01*
X157044944Y-80400035D01*
X157044944Y-80400034D01*
X156957404Y-80283095D01*
X156840465Y-80195555D01*
X156703593Y-80144505D01*
X156643097Y-80138000D01*
X156098500Y-80138000D01*
X156098500Y-81112599D01*
X156077825Y-81091924D01*
X155991175Y-81041896D01*
X155894528Y-81016000D01*
X155794472Y-81016000D01*
X155697825Y-81041896D01*
X155611175Y-81091924D01*
X155590500Y-81112599D01*
X155590500Y-80138000D01*
X155045902Y-80138000D01*
X154985406Y-80144505D01*
X154848535Y-80195555D01*
X154848534Y-80195555D01*
X154731595Y-80283095D01*
X154644055Y-80400034D01*
X154644055Y-80400035D01*
X154593005Y-80536906D01*
X154586500Y-80597402D01*
X153914807Y-80597402D01*
X153865270Y-80556748D01*
X153690765Y-80463473D01*
X153501416Y-80406035D01*
X153501415Y-80406034D01*
X153501409Y-80406033D01*
X153304503Y-80386640D01*
X153304497Y-80386640D01*
X153107590Y-80406033D01*
X152918234Y-80463473D01*
X152743729Y-80556748D01*
X152590775Y-80682275D01*
X152465248Y-80835229D01*
X152371973Y-81009734D01*
X152314533Y-81199090D01*
X152295140Y-81395997D01*
X152295140Y-81396004D01*
X152308147Y-81528076D01*
X152294918Y-81597829D01*
X152271850Y-81629520D01*
X151812994Y-82088377D01*
X151750681Y-82122402D01*
X151679866Y-82117338D01*
X151623030Y-82074791D01*
X151598219Y-82008271D01*
X151612775Y-81939888D01*
X151697027Y-81782265D01*
X151754465Y-81592916D01*
X151759414Y-81542675D01*
X151773860Y-81396002D01*
X151773860Y-81395997D01*
X151754466Y-81199090D01*
X151754465Y-81199088D01*
X151754465Y-81199084D01*
X151697027Y-81009735D01*
X151603752Y-80835230D01*
X151478225Y-80682275D01*
X151325270Y-80556748D01*
X151150765Y-80463473D01*
X150961416Y-80406035D01*
X150961415Y-80406034D01*
X150961409Y-80406033D01*
X150764503Y-80386640D01*
X150764497Y-80386640D01*
X150567590Y-80406033D01*
X150378234Y-80463473D01*
X150203729Y-80556748D01*
X150050775Y-80682275D01*
X149925248Y-80835229D01*
X149831973Y-81009734D01*
X149774533Y-81199090D01*
X149755140Y-81395997D01*
X149755140Y-81396002D01*
X149774533Y-81592909D01*
X149774534Y-81592915D01*
X149774535Y-81592916D01*
X149791851Y-81650000D01*
X149831973Y-81782265D01*
X149925248Y-81956770D01*
X149956267Y-81994567D01*
X149984020Y-82059914D01*
X149972038Y-82129892D01*
X149924125Y-82182284D01*
X149858867Y-82200500D01*
X149435185Y-82200500D01*
X149367064Y-82180498D01*
X149320571Y-82126842D01*
X149310467Y-82056568D01*
X149320990Y-82021250D01*
X149411147Y-81827907D01*
X149411149Y-81827903D01*
X149468119Y-81615287D01*
X149487304Y-81396000D01*
X149468119Y-81176712D01*
X149411149Y-80964096D01*
X149411147Y-80964092D01*
X149318119Y-80764594D01*
X149275699Y-80704011D01*
X149275697Y-80704011D01*
X148604500Y-81375208D01*
X148604500Y-81345972D01*
X148578604Y-81249325D01*
X148528576Y-81162675D01*
X148457825Y-81091924D01*
X148371175Y-81041896D01*
X148274528Y-81016000D01*
X148245290Y-81016000D01*
X148916487Y-80344800D01*
X148855903Y-80302379D01*
X148813691Y-80282695D01*
X148760406Y-80235777D01*
X148740945Y-80167500D01*
X148761487Y-80099540D01*
X148815510Y-80053475D01*
X148866941Y-80042500D01*
X153331585Y-80042500D01*
X153379802Y-80052090D01*
X153433246Y-80074228D01*
X153578000Y-80093285D01*
X153722754Y-80074228D01*
X153857643Y-80018355D01*
X153973474Y-79929474D01*
X154062355Y-79813643D01*
X154118228Y-79678754D01*
X154137285Y-79534000D01*
X154118228Y-79389246D01*
X154062355Y-79254358D01*
X153973474Y-79138526D01*
X153973472Y-79138524D01*
X153973471Y-79138523D01*
X153857649Y-79049649D01*
X153857641Y-79049644D01*
X153722752Y-78993771D01*
X153578000Y-78974715D01*
X153433246Y-78993771D01*
X153433245Y-78993772D01*
X153379803Y-79015909D01*
X153331585Y-79025500D01*
X148423239Y-79025500D01*
X148355118Y-79005498D01*
X148308625Y-78951842D01*
X148298521Y-78881568D01*
X148323276Y-78822797D01*
X148354855Y-78781643D01*
X148410728Y-78646754D01*
X148429785Y-78502000D01*
X148427678Y-78485999D01*
X148410728Y-78357247D01*
X148410728Y-78357246D01*
X148354855Y-78222358D01*
X148265974Y-78106526D01*
X148265972Y-78106524D01*
X148265971Y-78106523D01*
X148150149Y-78017649D01*
X148150141Y-78017644D01*
X148015252Y-77961771D01*
X147870500Y-77942715D01*
X147725746Y-77961771D01*
X147725745Y-77961772D01*
X147672303Y-77983909D01*
X147624085Y-77993500D01*
X142895517Y-77993500D01*
X142827396Y-77973498D01*
X142780903Y-77919842D01*
X142770799Y-77849568D01*
X142795554Y-77790796D01*
X142814855Y-77765643D01*
X142870728Y-77630754D01*
X142889785Y-77486000D01*
X142887678Y-77469999D01*
X142870728Y-77341247D01*
X142870728Y-77341246D01*
X142814855Y-77206358D01*
X142725974Y-77090526D01*
X142725972Y-77090524D01*
X142725971Y-77090523D01*
X142610149Y-77001649D01*
X142610141Y-77001644D01*
X142475252Y-76945771D01*
X142330500Y-76926715D01*
X142185746Y-76945771D01*
X142185745Y-76945772D01*
X142132303Y-76967909D01*
X142084085Y-76977500D01*
X121316042Y-76977500D01*
X121267824Y-76967909D01*
X121175752Y-76929771D01*
X121031000Y-76910715D01*
X120886247Y-76929771D01*
X120818802Y-76957708D01*
X120751358Y-76985645D01*
X120751357Y-76985646D01*
X120751356Y-76985646D01*
X120635526Y-77074526D01*
X120546646Y-77190356D01*
X120546645Y-77190358D01*
X120540018Y-77206357D01*
X120490771Y-77325247D01*
X120471715Y-77469999D01*
X120471715Y-77470000D01*
X120490771Y-77614752D01*
X120546644Y-77749641D01*
X120546649Y-77749649D01*
X120635525Y-77865473D01*
X120651900Y-77878039D01*
X120693766Y-77935378D01*
X120697986Y-78006249D01*
X120663221Y-78068151D01*
X120651900Y-78077961D01*
X120635527Y-78090524D01*
X120546646Y-78206356D01*
X120546645Y-78206358D01*
X120540018Y-78222357D01*
X120490771Y-78341247D01*
X120471715Y-78485999D01*
X120471715Y-78486000D01*
X120490771Y-78630752D01*
X120546644Y-78765641D01*
X120546649Y-78765649D01*
X120635525Y-78881473D01*
X120651900Y-78894039D01*
X120693766Y-78951378D01*
X120697986Y-79022249D01*
X120663221Y-79084151D01*
X120651900Y-79093961D01*
X120635527Y-79106524D01*
X120546646Y-79222356D01*
X120546645Y-79222358D01*
X120533390Y-79254358D01*
X120490771Y-79357247D01*
X120471715Y-79501999D01*
X120471715Y-79502000D01*
X120490772Y-79646754D01*
X120521607Y-79721198D01*
X120522584Y-79724075D01*
X120527734Y-79736504D01*
X120529068Y-79739210D01*
X120546644Y-79781641D01*
X120546649Y-79781649D01*
X120574597Y-79818071D01*
X120583753Y-79831774D01*
X120592095Y-79846223D01*
X120592099Y-79846228D01*
X120603891Y-79858020D01*
X120614757Y-79870409D01*
X120635525Y-79897473D01*
X120635526Y-79897474D01*
X120662588Y-79918239D01*
X120674970Y-79929098D01*
X120686773Y-79940901D01*
X120701229Y-79949247D01*
X120714917Y-79958393D01*
X120751357Y-79986355D01*
X120793778Y-80003926D01*
X120796486Y-80005262D01*
X120802723Y-80007845D01*
X120802726Y-80007847D01*
X120802728Y-80007847D01*
X120808963Y-80010430D01*
X120811817Y-80011398D01*
X120886246Y-80042228D01*
X121031000Y-80061285D01*
X121165500Y-80043578D01*
X121181946Y-80042500D01*
X132945013Y-80042500D01*
X132961459Y-80043578D01*
X133020000Y-80051285D01*
X133078541Y-80043578D01*
X133094987Y-80042500D01*
X147582060Y-80042500D01*
X147650181Y-80062502D01*
X147696674Y-80116158D01*
X147706778Y-80186432D01*
X147677284Y-80251012D01*
X147635310Y-80282695D01*
X147593098Y-80302378D01*
X147532510Y-80344801D01*
X148203709Y-81016000D01*
X148174472Y-81016000D01*
X148077825Y-81041896D01*
X147991175Y-81091924D01*
X147920424Y-81162675D01*
X147870396Y-81249325D01*
X147844500Y-81345972D01*
X147844500Y-81375209D01*
X147173301Y-80704010D01*
X147130878Y-80764598D01*
X147037852Y-80964092D01*
X147037850Y-80964096D01*
X146980880Y-81176712D01*
X146961695Y-81396000D01*
X146980880Y-81615287D01*
X147037850Y-81827903D01*
X147037852Y-81827907D01*
X147128010Y-82021250D01*
X147138671Y-82091441D01*
X147109691Y-82156254D01*
X147050272Y-82195111D01*
X147013815Y-82200500D01*
X133504415Y-82200500D01*
X133456197Y-82190909D01*
X133402752Y-82168771D01*
X133258000Y-82149715D01*
X133113247Y-82168771D01*
X133004277Y-82213909D01*
X132956059Y-82223500D01*
X119128500Y-82223500D01*
X119060379Y-82203498D01*
X119013886Y-82149842D01*
X119002500Y-82097500D01*
X119002500Y-81650000D01*
X118027901Y-81650000D01*
X118048576Y-81629325D01*
X118098604Y-81542675D01*
X118124500Y-81446028D01*
X118124500Y-81345972D01*
X118098604Y-81249325D01*
X118048576Y-81162675D01*
X118027901Y-81142000D01*
X119002500Y-81142000D01*
X119002500Y-80597414D01*
X119002499Y-80597402D01*
X118995994Y-80536906D01*
X118944944Y-80400035D01*
X118944944Y-80400034D01*
X118857404Y-80283095D01*
X118740465Y-80195555D01*
X118603593Y-80144505D01*
X118543097Y-80138000D01*
X117998500Y-80138000D01*
X117998500Y-81112599D01*
X117977825Y-81091924D01*
X117891175Y-81041896D01*
X117794528Y-81016000D01*
X117694472Y-81016000D01*
X117597825Y-81041896D01*
X117511175Y-81091924D01*
X117490500Y-81112599D01*
X117490500Y-80138000D01*
X116945902Y-80138000D01*
X116885406Y-80144505D01*
X116748535Y-80195555D01*
X116748534Y-80195555D01*
X116631595Y-80283095D01*
X116544055Y-80400034D01*
X116544055Y-80400035D01*
X116493005Y-80536906D01*
X116486500Y-80597402D01*
X116486500Y-81142000D01*
X117461099Y-81142000D01*
X117440424Y-81162675D01*
X117390396Y-81249325D01*
X117364500Y-81345972D01*
X117364500Y-81446028D01*
X117390396Y-81542675D01*
X117440424Y-81629325D01*
X117461099Y-81650000D01*
X116486500Y-81650000D01*
X116486500Y-81654682D01*
X116466498Y-81722803D01*
X116412842Y-81769296D01*
X116342568Y-81779400D01*
X116277988Y-81749906D01*
X116271405Y-81743777D01*
X116229823Y-81702195D01*
X116195797Y-81639883D01*
X116195437Y-81599231D01*
X116193858Y-81599076D01*
X116194466Y-81592909D01*
X116213860Y-81396000D01*
X116208933Y-81345972D01*
X116194466Y-81199090D01*
X116194465Y-81199088D01*
X116194465Y-81199084D01*
X116137027Y-81009735D01*
X116043752Y-80835230D01*
X115918225Y-80682275D01*
X115765270Y-80556748D01*
X115590765Y-80463473D01*
X115401416Y-80406035D01*
X115401415Y-80406034D01*
X115401409Y-80406033D01*
X115204503Y-80386640D01*
X115204497Y-80386640D01*
X115007590Y-80406033D01*
X114818234Y-80463473D01*
X114643729Y-80556748D01*
X114490775Y-80682275D01*
X114365248Y-80835229D01*
X114271973Y-81009734D01*
X114214533Y-81199090D01*
X114195140Y-81395997D01*
X114195140Y-81396002D01*
X114214533Y-81592909D01*
X114214534Y-81592915D01*
X114214535Y-81592916D01*
X114271973Y-81782265D01*
X114365248Y-81956770D01*
X114490775Y-82109725D01*
X114643730Y-82235252D01*
X114818235Y-82328527D01*
X115007584Y-82385965D01*
X115007588Y-82385965D01*
X115007590Y-82385966D01*
X115204497Y-82405360D01*
X115204500Y-82405360D01*
X115204502Y-82405360D01*
X115288658Y-82397070D01*
X115401416Y-82385965D01*
X115401417Y-82385964D01*
X115407576Y-82385358D01*
X115407817Y-82387808D01*
X115467718Y-82393161D01*
X115510695Y-82421323D01*
X115971108Y-82881736D01*
X116005134Y-82944048D01*
X116000069Y-83014863D01*
X115957522Y-83071699D01*
X115941412Y-83081951D01*
X115932435Y-83086749D01*
X115913727Y-83096749D01*
X115760775Y-83222275D01*
X115635248Y-83375229D01*
X115541973Y-83549734D01*
X115484533Y-83739090D01*
X115465140Y-83935997D01*
X115465140Y-83936002D01*
X115484533Y-84132909D01*
X115484534Y-84132915D01*
X115484535Y-84132916D01*
X115541973Y-84322265D01*
X115635248Y-84496770D01*
X115760775Y-84649725D01*
X115913730Y-84775252D01*
X116088235Y-84868527D01*
X116277584Y-84925965D01*
X116277588Y-84925965D01*
X116277590Y-84925966D01*
X116474497Y-84945360D01*
X116474500Y-84945360D01*
X116474501Y-84945360D01*
X116486965Y-84944132D01*
X116588728Y-84934108D01*
X116658479Y-84947336D01*
X116690173Y-84970406D01*
X117896172Y-86176405D01*
X117930198Y-86238717D01*
X117925133Y-86309532D01*
X117882586Y-86366368D01*
X117816066Y-86391179D01*
X117807077Y-86391500D01*
X112260923Y-86391500D01*
X112192802Y-86371498D01*
X112171828Y-86354595D01*
X110901031Y-85083798D01*
X110867005Y-85021486D01*
X110872070Y-84950671D01*
X110914617Y-84893835D01*
X110981137Y-84869024D01*
X111026697Y-84874127D01*
X111197584Y-84925965D01*
X111197590Y-84925965D01*
X111197592Y-84925966D01*
X111394497Y-84945360D01*
X111394500Y-84945360D01*
X111394503Y-84945360D01*
X111591409Y-84925966D01*
X111591410Y-84925965D01*
X111591416Y-84925965D01*
X111780765Y-84868527D01*
X111955270Y-84775252D01*
X112108225Y-84649725D01*
X112233752Y-84496770D01*
X112327027Y-84322265D01*
X112384465Y-84132916D01*
X112389791Y-84078847D01*
X112403860Y-83936002D01*
X112403860Y-83935997D01*
X112925140Y-83935997D01*
X112925140Y-83936002D01*
X112944533Y-84132909D01*
X112944534Y-84132915D01*
X112944535Y-84132916D01*
X113001973Y-84322265D01*
X113095248Y-84496770D01*
X113220775Y-84649725D01*
X113373730Y-84775252D01*
X113548235Y-84868527D01*
X113737584Y-84925965D01*
X113737588Y-84925965D01*
X113737590Y-84925966D01*
X113934497Y-84945360D01*
X113934500Y-84945360D01*
X113934503Y-84945360D01*
X114131409Y-84925966D01*
X114131410Y-84925965D01*
X114131416Y-84925965D01*
X114320765Y-84868527D01*
X114495270Y-84775252D01*
X114648225Y-84649725D01*
X114773752Y-84496770D01*
X114867027Y-84322265D01*
X114924465Y-84132916D01*
X114929791Y-84078847D01*
X114943860Y-83936002D01*
X114943860Y-83935997D01*
X114924466Y-83739090D01*
X114924465Y-83739088D01*
X114924465Y-83739084D01*
X114867027Y-83549735D01*
X114773752Y-83375230D01*
X114648225Y-83222275D01*
X114495270Y-83096748D01*
X114320765Y-83003473D01*
X114131416Y-82946035D01*
X114131415Y-82946034D01*
X114131409Y-82946033D01*
X113934503Y-82926640D01*
X113934497Y-82926640D01*
X113737590Y-82946033D01*
X113548234Y-83003473D01*
X113373729Y-83096748D01*
X113220775Y-83222275D01*
X113095248Y-83375229D01*
X113001973Y-83549734D01*
X112944533Y-83739090D01*
X112925140Y-83935997D01*
X112403860Y-83935997D01*
X112384466Y-83739090D01*
X112384465Y-83739088D01*
X112384465Y-83739084D01*
X112327027Y-83549735D01*
X112233752Y-83375230D01*
X112108225Y-83222275D01*
X111955270Y-83096748D01*
X111780765Y-83003473D01*
X111591416Y-82946035D01*
X111591415Y-82946034D01*
X111591409Y-82946033D01*
X111394503Y-82926640D01*
X111394497Y-82926640D01*
X111197590Y-82946033D01*
X111008234Y-83003473D01*
X110833729Y-83096748D01*
X110680775Y-83222275D01*
X110555248Y-83375229D01*
X110461973Y-83549734D01*
X110404533Y-83739090D01*
X110385140Y-83935997D01*
X110385140Y-83936002D01*
X110404533Y-84132909D01*
X110456371Y-84303798D01*
X110457004Y-84374792D01*
X110419154Y-84434858D01*
X110354839Y-84464926D01*
X110284478Y-84455449D01*
X110246701Y-84429468D01*
X109896080Y-84078847D01*
X109862054Y-84016535D01*
X109859782Y-83977400D01*
X109863860Y-83936001D01*
X109863860Y-83935997D01*
X109844466Y-83739090D01*
X109844465Y-83739088D01*
X109844465Y-83739084D01*
X109787027Y-83549735D01*
X109693752Y-83375230D01*
X109568225Y-83222275D01*
X109415270Y-83096748D01*
X109240765Y-83003473D01*
X109051416Y-82946035D01*
X109051415Y-82946034D01*
X109051409Y-82946033D01*
X108854503Y-82926640D01*
X108854497Y-82926640D01*
X108657590Y-82946033D01*
X108468234Y-83003473D01*
X108293729Y-83096748D01*
X108140775Y-83222275D01*
X108015248Y-83375229D01*
X107921973Y-83549734D01*
X107864533Y-83739090D01*
X107845140Y-83935997D01*
X100500500Y-83935997D01*
X100500500Y-81396000D01*
X108861695Y-81396000D01*
X108880880Y-81615287D01*
X108937850Y-81827903D01*
X108937852Y-81827907D01*
X109030879Y-82027403D01*
X109073300Y-82087987D01*
X109744500Y-81416788D01*
X109744500Y-81446028D01*
X109770396Y-81542675D01*
X109820424Y-81629325D01*
X109891175Y-81700076D01*
X109977825Y-81750104D01*
X110074472Y-81776000D01*
X110103710Y-81776000D01*
X109432511Y-82447197D01*
X109432511Y-82447198D01*
X109493097Y-82489621D01*
X109692592Y-82582647D01*
X109692596Y-82582649D01*
X109905212Y-82639619D01*
X110124500Y-82658804D01*
X110343787Y-82639619D01*
X110556403Y-82582649D01*
X110556407Y-82582647D01*
X110755899Y-82489622D01*
X110816487Y-82447197D01*
X110816487Y-82447196D01*
X110145291Y-81776000D01*
X110174528Y-81776000D01*
X110271175Y-81750104D01*
X110357825Y-81700076D01*
X110428576Y-81629325D01*
X110478604Y-81542675D01*
X110504500Y-81446028D01*
X110504500Y-81416791D01*
X111175696Y-82087987D01*
X111175697Y-82087987D01*
X111218122Y-82027399D01*
X111311147Y-81827907D01*
X111311149Y-81827903D01*
X111368119Y-81615287D01*
X111387304Y-81396000D01*
X111387304Y-81395997D01*
X111655140Y-81395997D01*
X111655140Y-81396002D01*
X111674533Y-81592909D01*
X111674534Y-81592915D01*
X111674535Y-81592916D01*
X111731973Y-81782265D01*
X111825248Y-81956770D01*
X111950775Y-82109725D01*
X112103730Y-82235252D01*
X112278235Y-82328527D01*
X112467584Y-82385965D01*
X112467588Y-82385965D01*
X112467590Y-82385966D01*
X112664497Y-82405360D01*
X112664500Y-82405360D01*
X112664503Y-82405360D01*
X112861409Y-82385966D01*
X112861410Y-82385965D01*
X112861416Y-82385965D01*
X113050765Y-82328527D01*
X113225270Y-82235252D01*
X113378225Y-82109725D01*
X113503752Y-81956770D01*
X113597027Y-81782265D01*
X113654465Y-81592916D01*
X113659414Y-81542675D01*
X113673860Y-81396002D01*
X113673860Y-81395997D01*
X113654466Y-81199090D01*
X113654465Y-81199088D01*
X113654465Y-81199084D01*
X113597027Y-81009735D01*
X113503752Y-80835230D01*
X113378225Y-80682275D01*
X113225270Y-80556748D01*
X113188148Y-80536906D01*
X113050766Y-80463473D01*
X113050761Y-80463471D01*
X113041966Y-80460803D01*
X112989454Y-80429326D01*
X112976727Y-80416599D01*
X112976724Y-80416597D01*
X112860778Y-80349655D01*
X112860776Y-80349654D01*
X112860774Y-80349653D01*
X112731445Y-80315000D01*
X112597555Y-80315000D01*
X112468226Y-80349653D01*
X112468224Y-80349654D01*
X112468221Y-80349655D01*
X112352278Y-80416596D01*
X112352268Y-80416603D01*
X112339540Y-80429331D01*
X112287034Y-80460803D01*
X112278240Y-80463471D01*
X112278230Y-80463475D01*
X112103729Y-80556748D01*
X111950775Y-80682275D01*
X111825248Y-80835229D01*
X111731973Y-81009734D01*
X111674533Y-81199090D01*
X111655140Y-81395997D01*
X111387304Y-81395997D01*
X111368119Y-81176712D01*
X111311149Y-80964096D01*
X111311147Y-80964092D01*
X111218119Y-80764594D01*
X111175699Y-80704011D01*
X111175697Y-80704011D01*
X110504500Y-81375208D01*
X110504500Y-81345972D01*
X110478604Y-81249325D01*
X110428576Y-81162675D01*
X110357825Y-81091924D01*
X110271175Y-81041896D01*
X110174528Y-81016000D01*
X110145290Y-81016000D01*
X110816487Y-80344800D01*
X110755903Y-80302379D01*
X110556407Y-80209352D01*
X110556403Y-80209350D01*
X110343787Y-80152380D01*
X110124500Y-80133195D01*
X109905212Y-80152380D01*
X109692596Y-80209350D01*
X109692592Y-80209352D01*
X109493098Y-80302378D01*
X109432510Y-80344801D01*
X110103709Y-81016000D01*
X110074472Y-81016000D01*
X109977825Y-81041896D01*
X109891175Y-81091924D01*
X109820424Y-81162675D01*
X109770396Y-81249325D01*
X109744500Y-81345972D01*
X109744500Y-81375209D01*
X109073301Y-80704010D01*
X109030878Y-80764598D01*
X108937852Y-80964092D01*
X108937850Y-80964096D01*
X108880880Y-81176712D01*
X108861695Y-81396000D01*
X100500500Y-81396000D01*
X100500500Y-74924709D01*
X105734000Y-74924709D01*
X105734000Y-75167290D01*
X105765660Y-75407782D01*
X105828444Y-75642095D01*
X105828445Y-75642097D01*
X105828446Y-75642100D01*
X105921276Y-75866212D01*
X105921277Y-75866213D01*
X105921282Y-75866224D01*
X106042561Y-76076285D01*
X106042563Y-76076288D01*
X106042564Y-76076289D01*
X106190235Y-76268738D01*
X106190239Y-76268742D01*
X106190244Y-76268748D01*
X106361751Y-76440255D01*
X106361756Y-76440259D01*
X106361762Y-76440265D01*
X106554211Y-76587936D01*
X106554214Y-76587938D01*
X106764275Y-76709217D01*
X106764279Y-76709218D01*
X106764288Y-76709224D01*
X106988400Y-76802054D01*
X107222711Y-76864838D01*
X107222715Y-76864838D01*
X107222717Y-76864839D01*
X107284702Y-76872999D01*
X107463212Y-76896500D01*
X107463219Y-76896500D01*
X107705781Y-76896500D01*
X107705788Y-76896500D01*
X107923137Y-76867885D01*
X107946282Y-76864839D01*
X107946282Y-76864838D01*
X107946289Y-76864838D01*
X108180600Y-76802054D01*
X108404712Y-76709224D01*
X108614789Y-76587936D01*
X108807238Y-76440265D01*
X108978765Y-76268738D01*
X109126436Y-76076289D01*
X109247724Y-75866212D01*
X109340554Y-75642100D01*
X109403338Y-75407789D01*
X109435000Y-75167288D01*
X109435000Y-74924712D01*
X109435000Y-74924709D01*
X117164000Y-74924709D01*
X117164000Y-75167290D01*
X117195660Y-75407782D01*
X117258444Y-75642095D01*
X117258445Y-75642097D01*
X117258446Y-75642100D01*
X117351276Y-75866212D01*
X117351277Y-75866213D01*
X117351282Y-75866224D01*
X117472561Y-76076285D01*
X117472563Y-76076288D01*
X117472564Y-76076289D01*
X117620235Y-76268738D01*
X117620239Y-76268742D01*
X117620244Y-76268748D01*
X117791751Y-76440255D01*
X117791756Y-76440259D01*
X117791762Y-76440265D01*
X117984211Y-76587936D01*
X117984214Y-76587938D01*
X118194275Y-76709217D01*
X118194279Y-76709218D01*
X118194288Y-76709224D01*
X118418400Y-76802054D01*
X118652711Y-76864838D01*
X118652715Y-76864838D01*
X118652717Y-76864839D01*
X118714702Y-76872999D01*
X118893212Y-76896500D01*
X118893219Y-76896500D01*
X119135781Y-76896500D01*
X119135788Y-76896500D01*
X119353137Y-76867885D01*
X119376282Y-76864839D01*
X119376282Y-76864838D01*
X119376289Y-76864838D01*
X119610600Y-76802054D01*
X119834712Y-76709224D01*
X120044789Y-76587936D01*
X120237238Y-76440265D01*
X120408765Y-76268738D01*
X120556436Y-76076289D01*
X120677724Y-75866212D01*
X120770554Y-75642100D01*
X120833338Y-75407789D01*
X120865000Y-75167288D01*
X120865000Y-74924712D01*
X120865000Y-74924709D01*
X143834000Y-74924709D01*
X143834000Y-75167290D01*
X143865660Y-75407782D01*
X143928444Y-75642095D01*
X143928445Y-75642097D01*
X143928446Y-75642100D01*
X144021276Y-75866212D01*
X144021277Y-75866213D01*
X144021282Y-75866224D01*
X144142561Y-76076285D01*
X144142563Y-76076288D01*
X144142564Y-76076289D01*
X144290235Y-76268738D01*
X144290239Y-76268742D01*
X144290244Y-76268748D01*
X144461751Y-76440255D01*
X144461756Y-76440259D01*
X144461762Y-76440265D01*
X144654211Y-76587936D01*
X144654214Y-76587938D01*
X144864275Y-76709217D01*
X144864279Y-76709218D01*
X144864288Y-76709224D01*
X145088400Y-76802054D01*
X145322711Y-76864838D01*
X145322715Y-76864838D01*
X145322717Y-76864839D01*
X145384702Y-76872999D01*
X145563212Y-76896500D01*
X145563219Y-76896500D01*
X145805781Y-76896500D01*
X145805788Y-76896500D01*
X146023137Y-76867885D01*
X146046282Y-76864839D01*
X146046282Y-76864838D01*
X146046289Y-76864838D01*
X146280600Y-76802054D01*
X146504712Y-76709224D01*
X146714789Y-76587936D01*
X146907238Y-76440265D01*
X147078765Y-76268738D01*
X147226436Y-76076289D01*
X147347724Y-75866212D01*
X147440554Y-75642100D01*
X147503338Y-75407789D01*
X147535000Y-75167288D01*
X147535000Y-74924712D01*
X147535000Y-74924709D01*
X155264000Y-74924709D01*
X155264000Y-75167290D01*
X155295660Y-75407782D01*
X155358444Y-75642095D01*
X155358445Y-75642097D01*
X155358446Y-75642100D01*
X155451276Y-75866212D01*
X155451277Y-75866213D01*
X155451282Y-75866224D01*
X155572561Y-76076285D01*
X155572563Y-76076288D01*
X155572564Y-76076289D01*
X155720235Y-76268738D01*
X155720239Y-76268742D01*
X155720244Y-76268748D01*
X155891751Y-76440255D01*
X155891756Y-76440259D01*
X155891762Y-76440265D01*
X156084211Y-76587936D01*
X156084214Y-76587938D01*
X156294275Y-76709217D01*
X156294279Y-76709218D01*
X156294288Y-76709224D01*
X156518400Y-76802054D01*
X156752711Y-76864838D01*
X156752715Y-76864838D01*
X156752717Y-76864839D01*
X156814702Y-76872999D01*
X156993212Y-76896500D01*
X156993219Y-76896500D01*
X157235781Y-76896500D01*
X157235788Y-76896500D01*
X157453137Y-76867885D01*
X157476282Y-76864839D01*
X157476282Y-76864838D01*
X157476289Y-76864838D01*
X157710600Y-76802054D01*
X157934712Y-76709224D01*
X158144789Y-76587936D01*
X158337238Y-76440265D01*
X158508765Y-76268738D01*
X158656436Y-76076289D01*
X158777724Y-75866212D01*
X158870554Y-75642100D01*
X158933338Y-75407789D01*
X158965000Y-75167288D01*
X158965000Y-74924712D01*
X158933338Y-74684211D01*
X158870554Y-74449900D01*
X158777724Y-74225788D01*
X158777718Y-74225779D01*
X158777717Y-74225775D01*
X158656438Y-74015714D01*
X158656436Y-74015711D01*
X158508765Y-73823262D01*
X158508759Y-73823256D01*
X158508755Y-73823251D01*
X158337248Y-73651744D01*
X158337242Y-73651739D01*
X158337238Y-73651735D01*
X158144789Y-73504064D01*
X158144788Y-73504063D01*
X158144785Y-73504061D01*
X157934724Y-73382782D01*
X157934716Y-73382778D01*
X157934712Y-73382776D01*
X157710600Y-73289946D01*
X157710597Y-73289945D01*
X157710595Y-73289944D01*
X157476282Y-73227160D01*
X157235790Y-73195500D01*
X157235788Y-73195500D01*
X156993212Y-73195500D01*
X156993209Y-73195500D01*
X156752717Y-73227160D01*
X156518404Y-73289944D01*
X156518400Y-73289946D01*
X156294286Y-73382777D01*
X156294275Y-73382782D01*
X156084214Y-73504061D01*
X155891762Y-73651735D01*
X155891751Y-73651744D01*
X155720244Y-73823251D01*
X155720235Y-73823262D01*
X155572561Y-74015714D01*
X155451282Y-74225775D01*
X155451277Y-74225786D01*
X155358446Y-74449900D01*
X155358444Y-74449904D01*
X155295660Y-74684217D01*
X155264000Y-74924709D01*
X147535000Y-74924709D01*
X147503338Y-74684211D01*
X147440554Y-74449900D01*
X147347724Y-74225788D01*
X147347718Y-74225779D01*
X147347717Y-74225775D01*
X147226438Y-74015714D01*
X147226436Y-74015711D01*
X147078765Y-73823262D01*
X147078759Y-73823256D01*
X147078755Y-73823251D01*
X146907248Y-73651744D01*
X146907242Y-73651739D01*
X146907238Y-73651735D01*
X146714789Y-73504064D01*
X146714788Y-73504063D01*
X146714785Y-73504061D01*
X146504724Y-73382782D01*
X146504716Y-73382778D01*
X146504712Y-73382776D01*
X146280600Y-73289946D01*
X146280597Y-73289945D01*
X146280595Y-73289944D01*
X146046282Y-73227160D01*
X145805790Y-73195500D01*
X145805788Y-73195500D01*
X145563212Y-73195500D01*
X145563209Y-73195500D01*
X145322717Y-73227160D01*
X145088404Y-73289944D01*
X145088400Y-73289946D01*
X144864286Y-73382777D01*
X144864275Y-73382782D01*
X144654214Y-73504061D01*
X144461762Y-73651735D01*
X144461751Y-73651744D01*
X144290244Y-73823251D01*
X144290235Y-73823262D01*
X144142561Y-74015714D01*
X144021282Y-74225775D01*
X144021277Y-74225786D01*
X143928446Y-74449900D01*
X143928444Y-74449904D01*
X143865660Y-74684217D01*
X143834000Y-74924709D01*
X120865000Y-74924709D01*
X120833338Y-74684211D01*
X120770554Y-74449900D01*
X120677724Y-74225788D01*
X120677718Y-74225779D01*
X120677717Y-74225775D01*
X120556438Y-74015714D01*
X120556436Y-74015711D01*
X120408765Y-73823262D01*
X120408759Y-73823256D01*
X120408755Y-73823251D01*
X120237248Y-73651744D01*
X120237242Y-73651739D01*
X120237238Y-73651735D01*
X120044789Y-73504064D01*
X120044788Y-73504063D01*
X120044785Y-73504061D01*
X119834724Y-73382782D01*
X119834716Y-73382778D01*
X119834712Y-73382776D01*
X119610600Y-73289946D01*
X119610597Y-73289945D01*
X119610595Y-73289944D01*
X119376282Y-73227160D01*
X119135790Y-73195500D01*
X119135788Y-73195500D01*
X118893212Y-73195500D01*
X118893209Y-73195500D01*
X118652717Y-73227160D01*
X118418404Y-73289944D01*
X118418400Y-73289946D01*
X118194286Y-73382777D01*
X118194275Y-73382782D01*
X117984214Y-73504061D01*
X117791762Y-73651735D01*
X117791751Y-73651744D01*
X117620244Y-73823251D01*
X117620235Y-73823262D01*
X117472561Y-74015714D01*
X117351282Y-74225775D01*
X117351277Y-74225786D01*
X117258446Y-74449900D01*
X117258444Y-74449904D01*
X117195660Y-74684217D01*
X117164000Y-74924709D01*
X109435000Y-74924709D01*
X109403338Y-74684211D01*
X109340554Y-74449900D01*
X109247724Y-74225788D01*
X109247718Y-74225779D01*
X109247717Y-74225775D01*
X109126438Y-74015714D01*
X109126436Y-74015711D01*
X108978765Y-73823262D01*
X108978759Y-73823256D01*
X108978755Y-73823251D01*
X108807248Y-73651744D01*
X108807242Y-73651739D01*
X108807238Y-73651735D01*
X108614789Y-73504064D01*
X108614788Y-73504063D01*
X108614785Y-73504061D01*
X108404724Y-73382782D01*
X108404716Y-73382778D01*
X108404712Y-73382776D01*
X108180600Y-73289946D01*
X108180597Y-73289945D01*
X108180595Y-73289944D01*
X107946282Y-73227160D01*
X107705790Y-73195500D01*
X107705788Y-73195500D01*
X107463212Y-73195500D01*
X107463209Y-73195500D01*
X107222717Y-73227160D01*
X106988404Y-73289944D01*
X106988400Y-73289946D01*
X106764286Y-73382777D01*
X106764275Y-73382782D01*
X106554214Y-73504061D01*
X106361762Y-73651735D01*
X106361751Y-73651744D01*
X106190244Y-73823251D01*
X106190235Y-73823262D01*
X106042561Y-74015714D01*
X105921282Y-74225775D01*
X105921277Y-74225786D01*
X105828446Y-74449900D01*
X105828444Y-74449904D01*
X105765660Y-74684217D01*
X105734000Y-74924709D01*
X100500500Y-74924709D01*
X100500500Y-66626500D01*
X100520502Y-66558379D01*
X100574158Y-66511886D01*
X100626500Y-66500500D01*
X159373500Y-66500500D01*
X159441621Y-66520502D01*
G37*
%TD.AperFunction*%
%TD*%
M02*
