%TF.GenerationSoftware,KiCad,Pcbnew,8.0.4*%
%TF.CreationDate,2024-08-23T02:07:50+01:00*%
%TF.ProjectId,PicoChainATtiny85,5069636f-4368-4616-996e-415474696e79,v1.1*%
%TF.SameCoordinates,Original*%
%TF.FileFunction,Copper,L1,Top*%
%TF.FilePolarity,Positive*%
%FSLAX46Y46*%
G04 Gerber Fmt 4.6, Leading zero omitted, Abs format (unit mm)*
G04 Created by KiCad (PCBNEW 8.0.4) date 2024-08-23 02:07:50*
%MOMM*%
%LPD*%
G01*
G04 APERTURE LIST*
G04 Aperture macros list*
%AMRoundRect*
0 Rectangle with rounded corners*
0 $1 Rounding radius*
0 $2 $3 $4 $5 $6 $7 $8 $9 X,Y pos of 4 corners*
0 Add a 4 corners polygon primitive as box body*
4,1,4,$2,$3,$4,$5,$6,$7,$8,$9,$2,$3,0*
0 Add four circle primitives for the rounded corners*
1,1,$1+$1,$2,$3*
1,1,$1+$1,$4,$5*
1,1,$1+$1,$6,$7*
1,1,$1+$1,$8,$9*
0 Add four rect primitives between the rounded corners*
20,1,$1+$1,$2,$3,$4,$5,0*
20,1,$1+$1,$4,$5,$6,$7,0*
20,1,$1+$1,$6,$7,$8,$9,0*
20,1,$1+$1,$8,$9,$2,$3,0*%
G04 Aperture macros list end*
%TA.AperFunction,SMDPad,CuDef*%
%ADD10RoundRect,0.250000X-0.425000X0.450000X-0.425000X-0.450000X0.425000X-0.450000X0.425000X0.450000X0*%
%TD*%
%TA.AperFunction,SMDPad,CuDef*%
%ADD11R,0.250000X1.100000*%
%TD*%
%TA.AperFunction,ComponentPad*%
%ADD12R,1.500000X1.500000*%
%TD*%
%TA.AperFunction,ComponentPad*%
%ADD13C,1.500000*%
%TD*%
%TA.AperFunction,ComponentPad*%
%ADD14R,1.700000X1.700000*%
%TD*%
%TA.AperFunction,ComponentPad*%
%ADD15O,1.700000X1.700000*%
%TD*%
%TA.AperFunction,ComponentPad*%
%ADD16R,1.600000X1.600000*%
%TD*%
%TA.AperFunction,ComponentPad*%
%ADD17O,1.600000X1.600000*%
%TD*%
%TA.AperFunction,SMDPad,CuDef*%
%ADD18RoundRect,0.250000X0.350000X-0.850000X0.350000X0.850000X-0.350000X0.850000X-0.350000X-0.850000X0*%
%TD*%
%TA.AperFunction,SMDPad,CuDef*%
%ADD19RoundRect,0.250000X1.125000X-1.275000X1.125000X1.275000X-1.125000X1.275000X-1.125000X-1.275000X0*%
%TD*%
%TA.AperFunction,SMDPad,CuDef*%
%ADD20RoundRect,0.249997X2.650003X-2.950003X2.650003X2.950003X-2.650003X2.950003X-2.650003X-2.950003X0*%
%TD*%
%TA.AperFunction,ViaPad*%
%ADD21C,0.600000*%
%TD*%
%TA.AperFunction,Conductor*%
%ADD22C,0.200000*%
%TD*%
%TA.AperFunction,Conductor*%
%ADD23C,0.508000*%
%TD*%
%TA.AperFunction,Conductor*%
%ADD24C,0.254000*%
%TD*%
%TA.AperFunction,Conductor*%
%ADD25C,0.762000*%
%TD*%
%TA.AperFunction,Conductor*%
%ADD26C,1.016000*%
%TD*%
G04 APERTURE END LIST*
D10*
%TO.P,C2,1*%
%TO.N,+5V*%
X127940000Y-79264000D03*
%TO.P,C2,2*%
%TO.N,GND*%
X127940000Y-81964000D03*
%TD*%
D11*
%TO.P,U2,1,V_{DD(A)}*%
%TO.N,+5V*%
X131258000Y-85304000D03*
%TO.P,U2,2,SDA*%
%TO.N,Net-(U2-SDA)*%
X131758000Y-85304000D03*
%TO.P,U2,3,EN*%
%TO.N,unconnected-(U2-EN-Pad3)*%
X132258000Y-85304000D03*
%TO.P,U2,4,SCL*%
%TO.N,Net-(U2-SCL)*%
X132758000Y-85304000D03*
%TO.P,U2,5,V_{SS}*%
%TO.N,GND*%
X133258000Y-85304000D03*
%TO.P,U2,6,DSCLM*%
%TO.N,Net-(U2-DSCLM)*%
X133258000Y-81004000D03*
%TO.P,U2,7,DSCLP*%
%TO.N,Net-(U2-DSCLP)*%
X132758000Y-81004000D03*
%TO.P,U2,8,DSDAP*%
%TO.N,Net-(U2-DSDAP)*%
X132258000Y-81004000D03*
%TO.P,U2,9,DSDAM*%
%TO.N,Net-(U2-DSDAM)*%
X131758000Y-81004000D03*
%TO.P,U2,10,V_{DD(B)}*%
%TO.N,+5V*%
X131258000Y-81004000D03*
%TD*%
D12*
%TO.P,J1,1*%
%TO.N,GND*%
X117744500Y-81396000D03*
D13*
%TO.P,J1,2*%
%TO.N,+24V*%
X116474500Y-83936000D03*
%TO.P,J1,3*%
%TO.N,Net-(U2-DSCLM)*%
X115204500Y-81396000D03*
%TO.P,J1,4*%
%TO.N,Net-(U2-DSCLP)*%
X113934500Y-83936000D03*
%TO.P,J1,5*%
%TO.N,Net-(U2-DSDAP)*%
X112664500Y-81396000D03*
%TO.P,J1,6*%
%TO.N,Net-(U2-DSDAM)*%
X111394500Y-83936000D03*
%TO.P,J1,7*%
%TO.N,GND*%
X110124500Y-81396000D03*
%TO.P,J1,8*%
%TO.N,+12V*%
X108854500Y-83936000D03*
%TD*%
D10*
%TO.P,C1,1*%
%TO.N,+12V*%
X124384000Y-79264000D03*
%TO.P,C1,2*%
%TO.N,GND*%
X124384000Y-81964000D03*
%TD*%
D14*
%TO.P,J3,1,Pin_1*%
%TO.N,GND*%
X117460000Y-97790000D03*
D15*
%TO.P,J3,2,Pin_2*%
%TO.N,/+5V(M)*%
X120000000Y-97790000D03*
%TO.P,J3,3,Pin_3*%
%TO.N,Net-(J3-Pin_3)*%
X122540000Y-97790000D03*
%TD*%
D10*
%TO.P,C3,1*%
%TO.N,+12V*%
X136068000Y-79518000D03*
%TO.P,C3,2*%
%TO.N,GND*%
X136068000Y-82218000D03*
%TD*%
%TO.P,C4,1*%
%TO.N,/+5V(M)*%
X139624000Y-79518000D03*
%TO.P,C4,2*%
%TO.N,GND*%
X139624000Y-82218000D03*
%TD*%
D16*
%TO.P,U3,1,~{RESET}/PB5*%
%TO.N,unconnected-(U3-~{RESET}{slash}PB5-Pad1)*%
X130058000Y-98542000D03*
D17*
%TO.P,U3,2,XTAL1/PB3*%
%TO.N,unconnected-(U3-XTAL1{slash}PB3-Pad2)*%
X132598000Y-98542000D03*
%TO.P,U3,3,XTAL2/PB4*%
%TO.N,Net-(J3-Pin_3)*%
X135138000Y-98542000D03*
%TO.P,U3,4,GND*%
%TO.N,GND*%
X137678000Y-98542000D03*
%TO.P,U3,5,AREF/PB0*%
%TO.N,Net-(U2-SDA)*%
X137678000Y-90922000D03*
%TO.P,U3,6,PB1*%
%TO.N,unconnected-(U3-PB1-Pad6)*%
X135138000Y-90922000D03*
%TO.P,U3,7,PB2*%
%TO.N,Net-(U2-SCL)*%
X132598000Y-90922000D03*
%TO.P,U3,8,VCC*%
%TO.N,+5V*%
X130058000Y-90922000D03*
%TD*%
D18*
%TO.P,U4,1,VI*%
%TO.N,+12V*%
X135059000Y-76857000D03*
D19*
%TO.P,U4,2,GND*%
%TO.N,GND*%
X135814000Y-72232000D03*
X138864000Y-72232000D03*
D20*
X137339000Y-70557000D03*
D19*
X135814000Y-68882000D03*
X138864000Y-68882000D03*
D18*
%TO.P,U4,3,VO*%
%TO.N,/+5V(M)*%
X139619000Y-76857000D03*
%TD*%
D12*
%TO.P,J2,1*%
%TO.N,GND*%
X155844500Y-81396000D03*
D13*
%TO.P,J2,2*%
%TO.N,+24V*%
X154574500Y-83936000D03*
%TO.P,J2,3*%
%TO.N,Net-(U2-DSCLM)*%
X153304500Y-81396000D03*
%TO.P,J2,4*%
%TO.N,Net-(U2-DSCLP)*%
X152034500Y-83936000D03*
%TO.P,J2,5*%
%TO.N,Net-(U2-DSDAP)*%
X150764500Y-81396000D03*
%TO.P,J2,6*%
%TO.N,Net-(U2-DSDAM)*%
X149494500Y-83936000D03*
%TO.P,J2,7*%
%TO.N,GND*%
X148224500Y-81396000D03*
%TO.P,J2,8*%
%TO.N,+12V*%
X146954500Y-83936000D03*
%TD*%
D18*
%TO.P,U1,1,VI*%
%TO.N,+12V*%
X124390000Y-76754000D03*
D19*
%TO.P,U1,2,GND*%
%TO.N,GND*%
X125145000Y-72129000D03*
X128195000Y-72129000D03*
D20*
X126670000Y-70454000D03*
D19*
X125145000Y-68779000D03*
X128195000Y-68779000D03*
D18*
%TO.P,U1,3,VO*%
%TO.N,+5V*%
X128950000Y-76754000D03*
%TD*%
D21*
%TO.N,+12V*%
X143894750Y-86995750D03*
%TO.N,Net-(U2-DSDAP)*%
X121031000Y-78486000D03*
X147870500Y-78502000D03*
X133020000Y-78582000D03*
%TO.N,Net-(U2-DSDAM)*%
X121031000Y-77470000D03*
X142330500Y-77486000D03*
X133020000Y-77566000D03*
%TO.N,Net-(U2-DSCLM)*%
X133258000Y-82709000D03*
%TO.N,Net-(U2-DSCLP)*%
X121031000Y-79502000D03*
X153578000Y-79534000D03*
X133020000Y-79492000D03*
%TO.N,Net-(U2-SCL)*%
X132758000Y-88290400D03*
%TD*%
D22*
%TO.N,Net-(U2-SCL)*%
X132758000Y-88290400D02*
X132758000Y-85304000D01*
D23*
%TO.N,/+5V(M)*%
X124064000Y-93726000D02*
X120000000Y-97790000D01*
D24*
X139624000Y-79438000D02*
X139624000Y-79494000D01*
D23*
X139446000Y-93726000D02*
X124064000Y-93726000D01*
X141732000Y-91440000D02*
X139446000Y-93726000D01*
D24*
X139624000Y-79772000D02*
X139624000Y-79438000D01*
D23*
X139624000Y-79438000D02*
X139624000Y-76782000D01*
X141732000Y-81626000D02*
X141732000Y-91440000D01*
X139624000Y-79518000D02*
X141732000Y-81626000D01*
D24*
%TO.N,GND*%
X133258000Y-85028000D02*
X136068000Y-82218000D01*
X133258000Y-85304000D02*
X133258000Y-85028000D01*
%TO.N,+5V*%
X131258000Y-80924000D02*
X131258000Y-85304000D01*
X131258000Y-85304000D02*
X131258000Y-86928000D01*
D23*
X130058000Y-88148000D02*
X130058000Y-90922000D01*
D24*
X131258000Y-80562000D02*
X128950000Y-78254000D01*
D25*
X128950000Y-78254000D02*
X127940000Y-79264000D01*
X128950000Y-76754000D02*
X128950000Y-78254000D01*
D24*
X131258000Y-86928000D02*
X130048000Y-88138000D01*
D25*
%TO.N,+12V*%
X114681000Y-71755000D02*
X107061000Y-79375000D01*
D26*
X143894750Y-86995750D02*
X146954500Y-83936000D01*
D25*
X124390000Y-74698000D02*
X124390000Y-76674000D01*
X123876000Y-74692000D02*
X120939000Y-71755000D01*
D23*
X136068000Y-77786000D02*
X135059000Y-76777000D01*
D25*
X124384000Y-79184000D02*
X124384000Y-76680000D01*
X135059000Y-76777000D02*
X132988000Y-74706000D01*
D23*
X124384000Y-76680000D02*
X124390000Y-76674000D01*
D25*
X107061000Y-79375000D02*
X107061000Y-82142500D01*
X132988000Y-74692000D02*
X123876000Y-74692000D01*
X120939000Y-71755000D02*
X114681000Y-71755000D01*
D23*
X136068000Y-79438000D02*
X136068000Y-77786000D01*
D25*
X132988000Y-74706000D02*
X132988000Y-74692000D01*
X107061000Y-82142500D02*
X108854500Y-83936000D01*
D23*
%TO.N,Net-(J3-Pin_3)*%
X131973000Y-95377000D02*
X124953000Y-95377000D01*
X124953000Y-95377000D02*
X122540000Y-97790000D01*
X135138000Y-98542000D02*
X131973000Y-95377000D01*
%TO.N,Net-(U2-DSDAP)*%
X147870500Y-78502000D02*
X150764500Y-81396000D01*
D24*
X132258000Y-80924000D02*
X132258000Y-79264000D01*
X132258000Y-79264000D02*
X133020000Y-78502000D01*
D23*
X121015000Y-78502000D02*
X114986000Y-78502000D01*
X114986000Y-78502000D02*
X112664500Y-80823500D01*
%TO.N,Net-(U2-DSDAM)*%
X114535814Y-77486000D02*
X111394500Y-80627314D01*
X111394500Y-80627314D02*
X111394500Y-83856000D01*
X142330500Y-77486000D02*
X148700500Y-83856000D01*
D24*
X131758000Y-80924000D02*
X131758000Y-78748000D01*
D23*
X148700500Y-83856000D02*
X149494500Y-83856000D01*
X121015000Y-77486000D02*
X114535814Y-77486000D01*
D24*
X131758000Y-78748000D02*
X133020000Y-77486000D01*
%TO.N,Net-(U2-DSCLM)*%
X133258000Y-81004000D02*
X133258000Y-82709000D01*
D23*
%TO.N,Net-(U2-DSCLP)*%
X154508500Y-82159500D02*
X152812000Y-83856000D01*
X113934500Y-80883286D02*
X113934500Y-83856000D01*
X152812000Y-83856000D02*
X152467214Y-83856000D01*
X154508500Y-80464500D02*
X154508500Y-82159500D01*
X153578000Y-79534000D02*
X154508500Y-80464500D01*
X115283786Y-79534000D02*
X113934500Y-80883286D01*
D24*
X132758000Y-80924000D02*
X132758000Y-79674000D01*
D23*
X120999000Y-79534000D02*
X115283786Y-79534000D01*
D24*
X132758000Y-79674000D02*
X133020000Y-79412000D01*
D23*
%TO.N,Net-(U2-SDA)*%
X131826000Y-89154000D02*
X135910000Y-89154000D01*
D24*
X131758000Y-89086000D02*
X131758000Y-85304000D01*
D23*
X135910000Y-89154000D02*
X137678000Y-90922000D01*
%TD*%
%TA.AperFunction,Conductor*%
%TO.N,GND*%
G36*
X123967564Y-66520502D02*
G01*
X124014057Y-66574158D01*
X124024161Y-66644432D01*
X123994667Y-66709012D01*
X123934941Y-66747396D01*
X123912249Y-66751848D01*
X123894542Y-66753657D01*
X123894541Y-66753657D01*
X123865672Y-66756606D01*
X123697476Y-66812340D01*
X123546659Y-66905365D01*
X123546653Y-66905370D01*
X123421370Y-67030653D01*
X123421365Y-67030659D01*
X123328340Y-67181476D01*
X123272607Y-67349666D01*
X123272605Y-67349678D01*
X123262000Y-67453480D01*
X123262000Y-68525000D01*
X130078000Y-68525000D01*
X130078000Y-67556480D01*
X133931000Y-67556480D01*
X133931000Y-68628000D01*
X135560000Y-68628000D01*
X136068000Y-68628000D01*
X137085000Y-68628000D01*
X137593000Y-68628000D01*
X138610000Y-68628000D01*
X139118000Y-68628000D01*
X140747000Y-68628000D01*
X140747000Y-67556492D01*
X140739342Y-67481542D01*
X140739341Y-67481534D01*
X140736394Y-67452673D01*
X140736392Y-67452665D01*
X140680659Y-67284476D01*
X140587634Y-67133659D01*
X140587629Y-67133653D01*
X140462346Y-67008370D01*
X140462340Y-67008365D01*
X140311523Y-66915340D01*
X140143333Y-66859607D01*
X140143321Y-66859605D01*
X140039519Y-66849000D01*
X139118000Y-66849000D01*
X139118000Y-68628000D01*
X138610000Y-68628000D01*
X138610000Y-66849000D01*
X137593000Y-66849000D01*
X137593000Y-68628000D01*
X137085000Y-68628000D01*
X137085000Y-66849000D01*
X136068000Y-66849000D01*
X136068000Y-68628000D01*
X135560000Y-68628000D01*
X135560000Y-66849000D01*
X134638492Y-66849000D01*
X134563542Y-66856657D01*
X134563541Y-66856657D01*
X134534672Y-66859606D01*
X134366476Y-66915340D01*
X134215659Y-67008365D01*
X134215653Y-67008370D01*
X134090370Y-67133653D01*
X134090365Y-67133659D01*
X133997340Y-67284476D01*
X133941607Y-67452666D01*
X133941605Y-67452678D01*
X133931000Y-67556480D01*
X130078000Y-67556480D01*
X130078000Y-67453491D01*
X130068046Y-67356058D01*
X130067871Y-67352630D01*
X130067393Y-67349670D01*
X130011659Y-67181476D01*
X129918634Y-67030659D01*
X129918629Y-67030653D01*
X129793346Y-66905370D01*
X129793340Y-66905365D01*
X129642523Y-66812340D01*
X129474333Y-66756607D01*
X129474321Y-66756605D01*
X129427748Y-66751847D01*
X129362013Y-66725025D01*
X129321215Y-66666922D01*
X129318306Y-66595985D01*
X129354210Y-66534736D01*
X129417528Y-66502622D01*
X129440555Y-66500500D01*
X159373500Y-66500500D01*
X159441621Y-66520502D01*
X159488114Y-66574158D01*
X159499500Y-66626500D01*
X159499500Y-99373500D01*
X159479498Y-99441621D01*
X159425842Y-99488114D01*
X159373500Y-99499500D01*
X138846368Y-99499500D01*
X138778247Y-99479498D01*
X138731754Y-99425842D01*
X138721650Y-99355568D01*
X138743155Y-99301229D01*
X138815087Y-99198498D01*
X138911811Y-98991073D01*
X138911813Y-98991068D01*
X138964082Y-98796000D01*
X137989686Y-98796000D01*
X137998080Y-98787606D01*
X138050741Y-98696394D01*
X138078000Y-98594661D01*
X138078000Y-98489339D01*
X138050741Y-98387606D01*
X137998080Y-98296394D01*
X137989686Y-98288000D01*
X138964082Y-98288000D01*
X138911813Y-98092931D01*
X138911811Y-98092926D01*
X138815087Y-97885501D01*
X138683815Y-97698025D01*
X138683810Y-97698019D01*
X138521980Y-97536189D01*
X138521974Y-97536184D01*
X138334498Y-97404912D01*
X138127073Y-97308188D01*
X138127071Y-97308187D01*
X137932000Y-97255917D01*
X137932000Y-98230314D01*
X137923606Y-98221920D01*
X137832394Y-98169259D01*
X137730661Y-98142000D01*
X137625339Y-98142000D01*
X137523606Y-98169259D01*
X137432394Y-98221920D01*
X137424000Y-98230314D01*
X137424000Y-97255917D01*
X137423999Y-97255917D01*
X137228928Y-97308187D01*
X137228926Y-97308188D01*
X137021501Y-97404912D01*
X136834025Y-97536184D01*
X136834019Y-97536189D01*
X136672189Y-97698019D01*
X136672184Y-97698025D01*
X136540912Y-97885501D01*
X136444188Y-98092926D01*
X136444187Y-98092928D01*
X136398702Y-98262680D01*
X136361750Y-98323302D01*
X136297889Y-98354324D01*
X136227395Y-98345895D01*
X136172648Y-98300692D01*
X136156422Y-98266647D01*
X136116945Y-98136508D01*
X136019027Y-97953317D01*
X136019025Y-97953313D01*
X135887252Y-97792747D01*
X135726686Y-97660975D01*
X135726686Y-97660974D01*
X135543492Y-97563055D01*
X135528529Y-97558516D01*
X135344718Y-97502758D01*
X135344717Y-97502757D01*
X135344711Y-97502756D01*
X135138003Y-97482398D01*
X135137997Y-97482398D01*
X134931284Y-97502757D01*
X134916540Y-97507229D01*
X134845546Y-97507859D01*
X134790875Y-97475748D01*
X132815122Y-95499993D01*
X151994696Y-95499993D01*
X151994696Y-95500006D01*
X152013896Y-95866395D01*
X152071294Y-96228792D01*
X152166259Y-96583205D01*
X152297740Y-96925726D01*
X152297744Y-96925734D01*
X152297745Y-96925736D01*
X152440580Y-97206063D01*
X152464318Y-97252652D01*
X152664143Y-97560358D01*
X152664155Y-97560375D01*
X152895038Y-97845492D01*
X152895052Y-97845507D01*
X153154492Y-98104947D01*
X153154507Y-98104961D01*
X153439624Y-98335844D01*
X153439641Y-98335856D01*
X153613294Y-98448626D01*
X153747348Y-98535682D01*
X154074264Y-98702255D01*
X154074268Y-98702256D01*
X154074273Y-98702259D01*
X154416794Y-98833740D01*
X154416799Y-98833741D01*
X154416801Y-98833742D01*
X154771206Y-98928705D01*
X155133596Y-98986102D01*
X155133598Y-98986102D01*
X155133604Y-98986103D01*
X155499994Y-99005304D01*
X155500000Y-99005304D01*
X155500006Y-99005304D01*
X155866395Y-98986103D01*
X155866399Y-98986102D01*
X155866404Y-98986102D01*
X156228794Y-98928705D01*
X156583199Y-98833742D01*
X156583202Y-98833740D01*
X156583205Y-98833740D01*
X156925726Y-98702259D01*
X156925727Y-98702258D01*
X156925736Y-98702255D01*
X157252652Y-98535682D01*
X157560366Y-98335851D01*
X157560375Y-98335844D01*
X157845492Y-98104961D01*
X157845497Y-98104955D01*
X157845506Y-98104949D01*
X158104949Y-97845506D01*
X158104955Y-97845497D01*
X158104961Y-97845492D01*
X158335844Y-97560375D01*
X158335845Y-97560372D01*
X158335851Y-97560366D01*
X158535682Y-97252652D01*
X158702255Y-96925736D01*
X158751649Y-96797059D01*
X158833740Y-96583205D01*
X158833742Y-96583199D01*
X158928705Y-96228794D01*
X158986102Y-95866404D01*
X158986102Y-95866399D01*
X158986103Y-95866395D01*
X159005304Y-95500006D01*
X159005304Y-95499993D01*
X158986103Y-95133604D01*
X158960206Y-94970099D01*
X158928705Y-94771206D01*
X158833742Y-94416801D01*
X158833741Y-94416799D01*
X158833740Y-94416794D01*
X158702259Y-94074273D01*
X158702255Y-94074265D01*
X158702255Y-94074264D01*
X158535682Y-93747348D01*
X158335851Y-93439634D01*
X158335844Y-93439624D01*
X158104961Y-93154507D01*
X158104947Y-93154492D01*
X157845507Y-92895052D01*
X157845492Y-92895038D01*
X157560375Y-92664155D01*
X157560358Y-92664143D01*
X157252652Y-92464318D01*
X156925734Y-92297744D01*
X156925726Y-92297740D01*
X156583205Y-92166259D01*
X156228792Y-92071294D01*
X155866395Y-92013896D01*
X155500006Y-91994696D01*
X155499994Y-91994696D01*
X155133604Y-92013896D01*
X154771207Y-92071294D01*
X154416794Y-92166259D01*
X154074273Y-92297740D01*
X154074265Y-92297744D01*
X153747347Y-92464318D01*
X153439641Y-92664143D01*
X153439624Y-92664155D01*
X153154507Y-92895038D01*
X153154492Y-92895052D01*
X152895052Y-93154492D01*
X152895038Y-93154507D01*
X152664155Y-93439624D01*
X152664143Y-93439641D01*
X152464318Y-93747347D01*
X152297744Y-94074265D01*
X152297740Y-94074273D01*
X152166259Y-94416794D01*
X152071294Y-94771207D01*
X152013896Y-95133604D01*
X151994696Y-95499993D01*
X132815122Y-95499993D01*
X132285233Y-94970104D01*
X132285223Y-94970096D01*
X132169278Y-94903155D01*
X132169276Y-94903154D01*
X132169274Y-94903153D01*
X132039945Y-94868500D01*
X124886055Y-94868500D01*
X124756726Y-94903153D01*
X124756724Y-94903154D01*
X124756721Y-94903155D01*
X124640776Y-94970096D01*
X124640766Y-94970104D01*
X122927760Y-96683110D01*
X122865448Y-96717136D01*
X122815513Y-96717870D01*
X122642347Y-96685500D01*
X122437653Y-96685500D01*
X122337048Y-96704306D01*
X122236442Y-96723112D01*
X122058134Y-96792190D01*
X121987388Y-96798146D01*
X121924652Y-96764909D01*
X121889845Y-96703030D01*
X121894017Y-96632156D01*
X121923521Y-96585605D01*
X124237722Y-94271405D01*
X124300034Y-94237379D01*
X124326817Y-94234500D01*
X139512943Y-94234500D01*
X139512945Y-94234500D01*
X139642274Y-94199847D01*
X139758227Y-94132901D01*
X142138901Y-91752227D01*
X142205847Y-91636274D01*
X142228602Y-91551348D01*
X142240500Y-91506945D01*
X142240500Y-81559055D01*
X142205847Y-81429726D01*
X142163935Y-81357133D01*
X142138901Y-81313773D01*
X142138899Y-81313771D01*
X142138895Y-81313766D01*
X140590404Y-79765275D01*
X140556378Y-79702963D01*
X140553499Y-79676180D01*
X140553499Y-79019753D01*
X140553499Y-79019746D01*
X140547040Y-78959658D01*
X140496342Y-78823733D01*
X140409404Y-78707596D01*
X140293267Y-78620658D01*
X140255290Y-78606493D01*
X140214466Y-78591266D01*
X140157631Y-78548719D01*
X140132821Y-78482198D01*
X140132500Y-78473211D01*
X140132500Y-78271950D01*
X140152502Y-78203829D01*
X140206158Y-78157336D01*
X140212890Y-78154547D01*
X140213264Y-78154343D01*
X140213263Y-78154343D01*
X140213267Y-78154342D01*
X140329404Y-78067404D01*
X140416342Y-77951267D01*
X140467040Y-77815342D01*
X140473500Y-77755255D01*
X140473500Y-77486000D01*
X141771215Y-77486000D01*
X141774104Y-77507945D01*
X141790271Y-77630752D01*
X141846144Y-77765641D01*
X141846149Y-77765649D01*
X141935025Y-77881474D01*
X142050850Y-77970350D01*
X142050857Y-77970355D01*
X142104304Y-77992493D01*
X142145178Y-78019806D01*
X146854892Y-82729520D01*
X146888918Y-82791832D01*
X146883853Y-82862647D01*
X146841306Y-82919483D01*
X146778152Y-82944008D01*
X146757589Y-82946034D01*
X146757586Y-82946034D01*
X146757584Y-82946035D01*
X146638276Y-82982226D01*
X146568234Y-83003473D01*
X146393729Y-83096748D01*
X146240775Y-83222275D01*
X146115248Y-83375229D01*
X146021973Y-83549734D01*
X146021973Y-83549735D01*
X145964535Y-83739084D01*
X145959840Y-83786740D01*
X145957095Y-83814619D01*
X145930512Y-83880451D01*
X145920797Y-83891363D01*
X143302480Y-86509680D01*
X143302477Y-86509684D01*
X143219031Y-86634572D01*
X143161555Y-86773331D01*
X143161553Y-86773336D01*
X143132251Y-86920647D01*
X143132251Y-87070852D01*
X143161553Y-87218163D01*
X143161555Y-87218168D01*
X143219031Y-87356927D01*
X143302477Y-87481815D01*
X143302480Y-87481819D01*
X143408680Y-87588019D01*
X143408684Y-87588022D01*
X143408685Y-87588023D01*
X143533571Y-87671468D01*
X143672337Y-87728947D01*
X143819650Y-87758249D01*
X143819651Y-87758249D01*
X143969849Y-87758249D01*
X143969850Y-87758249D01*
X144117163Y-87728947D01*
X144255929Y-87671468D01*
X144380815Y-87588023D01*
X146999137Y-84969699D01*
X147061446Y-84935677D01*
X147075877Y-84933404D01*
X147112116Y-84929835D01*
X147151408Y-84925966D01*
X147151409Y-84925965D01*
X147151416Y-84925965D01*
X147340765Y-84868527D01*
X147515270Y-84775252D01*
X147668225Y-84649725D01*
X147793752Y-84496770D01*
X147887027Y-84322265D01*
X147944465Y-84132916D01*
X147944466Y-84132909D01*
X147946491Y-84112352D01*
X147973073Y-84046520D01*
X148031027Y-84005510D01*
X148101953Y-84002343D01*
X148160977Y-84035605D01*
X148388273Y-84262901D01*
X148447644Y-84297179D01*
X148504226Y-84329847D01*
X148523592Y-84335035D01*
X148584215Y-84371985D01*
X148602105Y-84397347D01*
X148655248Y-84496770D01*
X148780775Y-84649725D01*
X148933730Y-84775252D01*
X149108235Y-84868527D01*
X149297584Y-84925965D01*
X149297588Y-84925965D01*
X149297590Y-84925966D01*
X149494497Y-84945360D01*
X149494500Y-84945360D01*
X149494503Y-84945360D01*
X149691409Y-84925966D01*
X149691410Y-84925965D01*
X149691416Y-84925965D01*
X149880765Y-84868527D01*
X150055270Y-84775252D01*
X150208225Y-84649725D01*
X150333752Y-84496770D01*
X150427027Y-84322265D01*
X150484465Y-84132916D01*
X150486491Y-84112352D01*
X150503860Y-83936002D01*
X150503860Y-83935997D01*
X151025140Y-83935997D01*
X151025140Y-83936002D01*
X151044533Y-84132909D01*
X151044534Y-84132915D01*
X151044535Y-84132916D01*
X151101973Y-84322265D01*
X151195248Y-84496770D01*
X151320775Y-84649725D01*
X151473730Y-84775252D01*
X151648235Y-84868527D01*
X151837584Y-84925965D01*
X151837588Y-84925965D01*
X151837590Y-84925966D01*
X152034497Y-84945360D01*
X152034500Y-84945360D01*
X152034503Y-84945360D01*
X152231409Y-84925966D01*
X152231410Y-84925965D01*
X152231416Y-84925965D01*
X152420765Y-84868527D01*
X152595270Y-84775252D01*
X152748225Y-84649725D01*
X152873752Y-84496770D01*
X152929652Y-84392187D01*
X152979404Y-84341539D01*
X153008174Y-84329873D01*
X153008274Y-84329847D01*
X153124227Y-84262901D01*
X153366543Y-84020584D01*
X153428852Y-83986561D01*
X153499668Y-83991625D01*
X153556504Y-84034172D01*
X153581029Y-84097329D01*
X153584533Y-84132909D01*
X153584534Y-84132915D01*
X153584535Y-84132916D01*
X153641973Y-84322265D01*
X153735248Y-84496770D01*
X153860775Y-84649725D01*
X154013730Y-84775252D01*
X154188235Y-84868527D01*
X154377584Y-84925965D01*
X154377588Y-84925965D01*
X154377590Y-84925966D01*
X154574497Y-84945360D01*
X154574500Y-84945360D01*
X154574503Y-84945360D01*
X154771409Y-84925966D01*
X154771410Y-84925965D01*
X154771416Y-84925965D01*
X154960765Y-84868527D01*
X155135270Y-84775252D01*
X155288225Y-84649725D01*
X155413752Y-84496770D01*
X155507027Y-84322265D01*
X155564465Y-84132916D01*
X155566491Y-84112352D01*
X155583860Y-83936002D01*
X155583860Y-83935997D01*
X155564466Y-83739090D01*
X155564465Y-83739086D01*
X155564465Y-83739084D01*
X155507027Y-83549735D01*
X155413752Y-83375230D01*
X155288225Y-83222275D01*
X155135270Y-83096748D01*
X154960765Y-83003473D01*
X154771416Y-82946035D01*
X154771415Y-82946034D01*
X154771409Y-82946033D01*
X154735829Y-82942529D01*
X154669997Y-82915946D01*
X154628987Y-82857991D01*
X154625821Y-82787065D01*
X154659083Y-82728044D01*
X154749142Y-82637985D01*
X154811451Y-82603961D01*
X154882266Y-82609026D01*
X154985405Y-82647494D01*
X155045902Y-82653999D01*
X155045915Y-82654000D01*
X155590500Y-82654000D01*
X155590500Y-81679401D01*
X155611175Y-81700076D01*
X155697825Y-81750104D01*
X155794472Y-81776000D01*
X155894528Y-81776000D01*
X155991175Y-81750104D01*
X156077825Y-81700076D01*
X156098500Y-81679401D01*
X156098500Y-82654000D01*
X156643085Y-82654000D01*
X156643097Y-82653999D01*
X156703593Y-82647494D01*
X156840464Y-82596444D01*
X156840465Y-82596444D01*
X156957404Y-82508904D01*
X157044944Y-82391965D01*
X157044944Y-82391964D01*
X157095994Y-82255093D01*
X157102499Y-82194597D01*
X157102500Y-82194585D01*
X157102500Y-81650000D01*
X156127901Y-81650000D01*
X156148576Y-81629325D01*
X156198604Y-81542675D01*
X156224500Y-81446028D01*
X156224500Y-81345972D01*
X156198604Y-81249325D01*
X156148576Y-81162675D01*
X156127901Y-81142000D01*
X157102500Y-81142000D01*
X157102500Y-80597414D01*
X157102499Y-80597402D01*
X157095994Y-80536906D01*
X157044944Y-80400035D01*
X157044944Y-80400034D01*
X156957404Y-80283095D01*
X156840465Y-80195555D01*
X156703593Y-80144505D01*
X156643097Y-80138000D01*
X156098500Y-80138000D01*
X156098500Y-81112599D01*
X156077825Y-81091924D01*
X155991175Y-81041896D01*
X155894528Y-81016000D01*
X155794472Y-81016000D01*
X155697825Y-81041896D01*
X155611175Y-81091924D01*
X155590500Y-81112599D01*
X155590500Y-80138000D01*
X155045902Y-80138000D01*
X154977570Y-80145348D01*
X154977262Y-80142486D01*
X154919951Y-80139398D01*
X154872810Y-80109683D01*
X154111805Y-79348678D01*
X154084491Y-79307800D01*
X154062356Y-79254360D01*
X154062355Y-79254359D01*
X154062355Y-79254358D01*
X153973474Y-79138526D01*
X153973472Y-79138524D01*
X153973471Y-79138523D01*
X153857649Y-79049649D01*
X153857641Y-79049644D01*
X153722752Y-78993771D01*
X153578000Y-78974715D01*
X153433247Y-78993771D01*
X153370542Y-79019745D01*
X153298358Y-79049645D01*
X153298357Y-79049646D01*
X153298356Y-79049646D01*
X153182526Y-79138526D01*
X153093646Y-79254356D01*
X153093645Y-79254358D01*
X153069599Y-79312409D01*
X153037771Y-79389247D01*
X153018715Y-79533999D01*
X153018715Y-79534000D01*
X153037771Y-79678752D01*
X153093644Y-79813641D01*
X153093649Y-79813649D01*
X153182525Y-79929474D01*
X153298350Y-80018350D01*
X153298357Y-80018355D01*
X153351800Y-80040492D01*
X153392676Y-80067805D01*
X153506973Y-80182102D01*
X153540999Y-80244414D01*
X153535934Y-80315229D01*
X153493387Y-80372065D01*
X153426867Y-80396876D01*
X153405528Y-80396590D01*
X153304503Y-80386640D01*
X153304497Y-80386640D01*
X153107590Y-80406033D01*
X152918234Y-80463473D01*
X152743729Y-80556748D01*
X152590775Y-80682275D01*
X152465248Y-80835229D01*
X152371973Y-81009734D01*
X152314533Y-81199090D01*
X152295140Y-81395997D01*
X152295140Y-81396002D01*
X152314533Y-81592909D01*
X152314534Y-81592915D01*
X152314535Y-81592916D01*
X152371973Y-81782265D01*
X152465248Y-81956770D01*
X152590775Y-82109725D01*
X152743730Y-82235252D01*
X152918235Y-82328527D01*
X153107584Y-82385965D01*
X153107589Y-82385965D01*
X153107591Y-82385966D01*
X153164294Y-82391550D01*
X153256960Y-82400677D01*
X153322792Y-82427259D01*
X153363802Y-82485213D01*
X153366970Y-82556139D01*
X153333705Y-82615165D01*
X152817096Y-83131774D01*
X152754784Y-83165800D01*
X152683969Y-83160735D01*
X152648067Y-83140078D01*
X152606125Y-83105657D01*
X152595270Y-83096748D01*
X152420765Y-83003473D01*
X152231416Y-82946035D01*
X152231415Y-82946034D01*
X152231409Y-82946033D01*
X152034503Y-82926640D01*
X152034497Y-82926640D01*
X151837590Y-82946033D01*
X151648234Y-83003473D01*
X151473729Y-83096748D01*
X151320775Y-83222275D01*
X151195248Y-83375229D01*
X151101973Y-83549734D01*
X151044533Y-83739090D01*
X151025140Y-83935997D01*
X150503860Y-83935997D01*
X150484466Y-83739090D01*
X150484465Y-83739086D01*
X150484465Y-83739084D01*
X150427027Y-83549735D01*
X150333752Y-83375230D01*
X150208225Y-83222275D01*
X150055270Y-83096748D01*
X149880765Y-83003473D01*
X149691416Y-82946035D01*
X149691415Y-82946034D01*
X149691409Y-82946033D01*
X149494503Y-82926640D01*
X149494497Y-82926640D01*
X149297590Y-82946033D01*
X149108234Y-83003473D01*
X148933731Y-83096747D01*
X148933728Y-83096749D01*
X148871865Y-83147517D01*
X148806517Y-83175269D01*
X148736539Y-83163286D01*
X148702839Y-83139211D01*
X148408397Y-82844769D01*
X148374371Y-82782457D01*
X148379436Y-82711642D01*
X148421983Y-82654806D01*
X148464881Y-82633967D01*
X148656403Y-82582649D01*
X148656407Y-82582647D01*
X148855899Y-82489622D01*
X148916487Y-82447197D01*
X148245289Y-81776000D01*
X148274528Y-81776000D01*
X148371175Y-81750104D01*
X148457825Y-81700076D01*
X148528576Y-81629325D01*
X148578604Y-81542675D01*
X148604500Y-81446028D01*
X148604500Y-81416790D01*
X149275696Y-82087987D01*
X149275697Y-82087987D01*
X149318122Y-82027399D01*
X149411147Y-81827907D01*
X149411149Y-81827903D01*
X149468119Y-81615287D01*
X149487304Y-81396000D01*
X149468119Y-81176713D01*
X149458801Y-81141938D01*
X149460491Y-81070961D01*
X149500285Y-81012165D01*
X149565549Y-80984217D01*
X149635563Y-80995990D01*
X149669603Y-81020231D01*
X149739176Y-81089804D01*
X149773202Y-81152116D01*
X149773566Y-81192768D01*
X149775141Y-81192924D01*
X149755140Y-81395997D01*
X149755140Y-81396002D01*
X149774533Y-81592909D01*
X149774534Y-81592915D01*
X149774535Y-81592916D01*
X149831973Y-81782265D01*
X149925248Y-81956770D01*
X150050775Y-82109725D01*
X150203730Y-82235252D01*
X150378235Y-82328527D01*
X150567584Y-82385965D01*
X150567588Y-82385965D01*
X150567590Y-82385966D01*
X150764497Y-82405360D01*
X150764500Y-82405360D01*
X150764503Y-82405360D01*
X150961409Y-82385966D01*
X150961410Y-82385965D01*
X150961416Y-82385965D01*
X151150765Y-82328527D01*
X151325270Y-82235252D01*
X151478225Y-82109725D01*
X151603752Y-81956770D01*
X151697027Y-81782265D01*
X151754465Y-81592916D01*
X151759414Y-81542675D01*
X151773860Y-81396002D01*
X151773860Y-81395997D01*
X151754466Y-81199090D01*
X151754465Y-81199088D01*
X151754465Y-81199084D01*
X151697027Y-81009735D01*
X151603752Y-80835230D01*
X151478225Y-80682275D01*
X151325270Y-80556748D01*
X151150765Y-80463473D01*
X150961416Y-80406035D01*
X150961415Y-80406034D01*
X150961409Y-80406033D01*
X150764503Y-80386640D01*
X150764497Y-80386640D01*
X150561424Y-80406641D01*
X150561183Y-80404195D01*
X150501254Y-80398827D01*
X150458304Y-80370676D01*
X148404305Y-78316677D01*
X148376991Y-78275800D01*
X148354855Y-78222358D01*
X148265974Y-78106526D01*
X148265972Y-78106524D01*
X148265971Y-78106523D01*
X148150149Y-78017649D01*
X148150141Y-78017644D01*
X148015252Y-77961771D01*
X147870500Y-77942715D01*
X147725747Y-77961771D01*
X147675275Y-77982678D01*
X147590858Y-78017645D01*
X147590857Y-78017646D01*
X147590856Y-78017646D01*
X147475026Y-78106526D01*
X147386146Y-78222356D01*
X147386145Y-78222358D01*
X147365603Y-78271950D01*
X147330271Y-78357247D01*
X147311215Y-78501999D01*
X147311215Y-78502000D01*
X147330271Y-78646752D01*
X147386144Y-78781641D01*
X147386149Y-78781649D01*
X147475025Y-78897474D01*
X147590850Y-78986350D01*
X147590857Y-78986355D01*
X147644304Y-79008493D01*
X147685178Y-79035806D01*
X148600268Y-79950896D01*
X148634294Y-80013208D01*
X148629229Y-80084023D01*
X148586682Y-80140859D01*
X148520162Y-80165670D01*
X148478564Y-80161698D01*
X148443791Y-80152381D01*
X148224500Y-80133195D01*
X148005212Y-80152380D01*
X147792596Y-80209350D01*
X147792592Y-80209352D01*
X147593098Y-80302378D01*
X147532511Y-80344801D01*
X148203711Y-81016000D01*
X148174472Y-81016000D01*
X148077825Y-81041896D01*
X147991175Y-81091924D01*
X147920424Y-81162675D01*
X147870396Y-81249325D01*
X147844500Y-81345972D01*
X147844500Y-81375209D01*
X147173301Y-80704010D01*
X147130878Y-80764598D01*
X147037852Y-80964092D01*
X147037851Y-80964094D01*
X146986532Y-81155619D01*
X146949580Y-81216241D01*
X146885719Y-81247263D01*
X146815225Y-81238834D01*
X146775730Y-81212102D01*
X142864305Y-77300677D01*
X142836991Y-77259800D01*
X142814855Y-77206359D01*
X142814855Y-77206358D01*
X142725974Y-77090526D01*
X142725972Y-77090524D01*
X142725971Y-77090523D01*
X142610149Y-77001649D01*
X142610141Y-77001644D01*
X142475252Y-76945771D01*
X142330500Y-76926715D01*
X142185747Y-76945771D01*
X142132303Y-76967909D01*
X142050858Y-77001645D01*
X142050857Y-77001646D01*
X142050856Y-77001646D01*
X141935026Y-77090526D01*
X141846146Y-77206356D01*
X141846145Y-77206358D01*
X141846145Y-77206359D01*
X141790271Y-77341247D01*
X141773321Y-77470000D01*
X141771215Y-77486000D01*
X140473500Y-77486000D01*
X140473499Y-75958746D01*
X140467040Y-75898658D01*
X140416342Y-75762733D01*
X140329404Y-75646596D01*
X140213267Y-75559658D01*
X140213265Y-75559657D01*
X140213266Y-75559657D01*
X140077349Y-75508962D01*
X140077344Y-75508960D01*
X140077342Y-75508960D01*
X140047298Y-75505730D01*
X140017256Y-75502500D01*
X139220753Y-75502500D01*
X139220729Y-75502502D01*
X139160660Y-75508959D01*
X139160658Y-75508959D01*
X139024733Y-75559657D01*
X138908596Y-75646596D01*
X138821657Y-75762734D01*
X138770962Y-75898650D01*
X138770960Y-75898658D01*
X138764500Y-75958737D01*
X138764500Y-77755246D01*
X138764502Y-77755270D01*
X138770959Y-77815339D01*
X138770959Y-77815341D01*
X138821657Y-77951266D01*
X138829299Y-77961474D01*
X138908596Y-78067404D01*
X139024733Y-78154342D01*
X139024734Y-78154342D01*
X139024735Y-78154343D01*
X139033531Y-78157624D01*
X139090367Y-78200169D01*
X139115179Y-78266689D01*
X139115500Y-78275680D01*
X139115500Y-78473211D01*
X139095498Y-78541332D01*
X139041842Y-78587825D01*
X139033534Y-78591266D01*
X138954733Y-78620658D01*
X138838596Y-78707596D01*
X138751657Y-78823734D01*
X138700962Y-78959650D01*
X138700960Y-78959658D01*
X138694500Y-79019737D01*
X138694500Y-80016246D01*
X138694502Y-80016270D01*
X138700959Y-80076339D01*
X138700959Y-80076341D01*
X138751657Y-80212266D01*
X138756323Y-80218499D01*
X138838596Y-80328404D01*
X138954733Y-80415342D01*
X139090658Y-80466040D01*
X139150745Y-80472500D01*
X139807181Y-80472499D01*
X139875302Y-80492501D01*
X139896276Y-80509404D01*
X140181777Y-80794905D01*
X140215803Y-80857217D01*
X140210738Y-80928032D01*
X140168191Y-80984868D01*
X140101671Y-81009679D01*
X140092682Y-81010000D01*
X139878000Y-81010000D01*
X139878000Y-81964000D01*
X140807000Y-81964000D01*
X140807000Y-81724318D01*
X140827002Y-81656197D01*
X140880658Y-81609704D01*
X140950932Y-81599600D01*
X141015512Y-81629094D01*
X141022095Y-81635223D01*
X141186595Y-81799723D01*
X141220621Y-81862035D01*
X141223500Y-81888818D01*
X141223500Y-91177182D01*
X141203498Y-91245303D01*
X141186595Y-91266277D01*
X139272277Y-93180595D01*
X139209965Y-93214621D01*
X139183182Y-93217500D01*
X124130945Y-93217500D01*
X123997055Y-93217500D01*
X123867726Y-93252153D01*
X123867724Y-93252154D01*
X123867721Y-93252155D01*
X123751775Y-93319097D01*
X123751772Y-93319099D01*
X120387761Y-96683110D01*
X120325449Y-96717136D01*
X120275514Y-96717870D01*
X120236502Y-96710577D01*
X120102347Y-96685500D01*
X119897653Y-96685500D01*
X119724487Y-96717870D01*
X119696439Y-96723113D01*
X119505577Y-96797054D01*
X119505566Y-96797059D01*
X119331536Y-96904814D01*
X119180266Y-97042715D01*
X119056912Y-97206063D01*
X119056789Y-97206312D01*
X119056698Y-97206409D01*
X119053845Y-97211018D01*
X119052943Y-97210459D01*
X119008518Y-97258374D01*
X118939763Y-97276074D01*
X118872353Y-97253792D01*
X118827691Y-97198603D01*
X118818000Y-97150145D01*
X118818000Y-96891414D01*
X118817999Y-96891402D01*
X118811494Y-96830906D01*
X118760444Y-96694035D01*
X118760444Y-96694034D01*
X118672904Y-96577095D01*
X118555965Y-96489555D01*
X118419093Y-96438505D01*
X118358597Y-96432000D01*
X117714000Y-96432000D01*
X117714000Y-97359297D01*
X117652993Y-97324075D01*
X117525826Y-97290000D01*
X117394174Y-97290000D01*
X117267007Y-97324075D01*
X117206000Y-97359297D01*
X117206000Y-96432000D01*
X116561402Y-96432000D01*
X116500906Y-96438505D01*
X116364035Y-96489555D01*
X116364034Y-96489555D01*
X116247095Y-96577095D01*
X116159555Y-96694034D01*
X116159555Y-96694035D01*
X116108505Y-96830906D01*
X116102000Y-96891402D01*
X116102000Y-97536000D01*
X117029297Y-97536000D01*
X116994075Y-97597007D01*
X116960000Y-97724174D01*
X116960000Y-97855826D01*
X116994075Y-97982993D01*
X117029297Y-98044000D01*
X116102000Y-98044000D01*
X116102000Y-98688597D01*
X116108505Y-98749093D01*
X116159555Y-98885964D01*
X116159555Y-98885965D01*
X116247095Y-99002904D01*
X116364034Y-99090444D01*
X116500906Y-99141494D01*
X116561402Y-99147999D01*
X116561415Y-99148000D01*
X117206000Y-99148000D01*
X117206000Y-98220702D01*
X117267007Y-98255925D01*
X117394174Y-98290000D01*
X117525826Y-98290000D01*
X117652993Y-98255925D01*
X117714000Y-98220702D01*
X117714000Y-99148000D01*
X118358585Y-99148000D01*
X118358597Y-99147999D01*
X118419093Y-99141494D01*
X118555964Y-99090444D01*
X118555965Y-99090444D01*
X118672904Y-99002904D01*
X118760444Y-98885965D01*
X118760444Y-98885964D01*
X118811494Y-98749093D01*
X118817999Y-98688597D01*
X118818000Y-98688585D01*
X118818000Y-98429854D01*
X118838002Y-98361733D01*
X118891658Y-98315240D01*
X118961932Y-98305136D01*
X119026512Y-98334630D01*
X119053368Y-98369277D01*
X119053845Y-98368982D01*
X119056644Y-98373503D01*
X119056791Y-98373693D01*
X119056912Y-98373935D01*
X119056913Y-98373937D01*
X119180266Y-98537284D01*
X119331536Y-98675185D01*
X119505566Y-98782940D01*
X119505568Y-98782940D01*
X119505573Y-98782944D01*
X119696444Y-98856888D01*
X119897653Y-98894500D01*
X119897655Y-98894500D01*
X120102345Y-98894500D01*
X120102347Y-98894500D01*
X120303556Y-98856888D01*
X120494427Y-98782944D01*
X120668462Y-98675186D01*
X120819732Y-98537285D01*
X120820944Y-98535681D01*
X120855939Y-98489339D01*
X120943088Y-98373935D01*
X121034328Y-98190701D01*
X121090345Y-97993821D01*
X121096640Y-97925880D01*
X121109232Y-97790004D01*
X121109232Y-97789995D01*
X121090345Y-97586182D01*
X121090345Y-97586179D01*
X121073529Y-97527077D01*
X121074125Y-97456085D01*
X121105622Y-97403504D01*
X121342171Y-97166955D01*
X121404481Y-97132931D01*
X121475296Y-97137996D01*
X121532132Y-97180543D01*
X121556943Y-97247063D01*
X121544055Y-97312214D01*
X121505672Y-97389297D01*
X121505671Y-97389299D01*
X121449654Y-97586180D01*
X121430768Y-97789995D01*
X121430768Y-97790004D01*
X121449654Y-97993819D01*
X121490253Y-98136508D01*
X121505672Y-98190701D01*
X121596912Y-98373935D01*
X121596913Y-98373936D01*
X121720266Y-98537284D01*
X121871536Y-98675185D01*
X122045566Y-98782940D01*
X122045568Y-98782940D01*
X122045573Y-98782944D01*
X122236444Y-98856888D01*
X122437653Y-98894500D01*
X122437655Y-98894500D01*
X122642345Y-98894500D01*
X122642347Y-98894500D01*
X122843556Y-98856888D01*
X123034427Y-98782944D01*
X123208462Y-98675186D01*
X123359732Y-98537285D01*
X123360944Y-98535681D01*
X123395939Y-98489339D01*
X123483088Y-98373935D01*
X123574328Y-98190701D01*
X123630345Y-97993821D01*
X123636640Y-97925880D01*
X123649232Y-97790004D01*
X123649232Y-97789995D01*
X123630345Y-97586182D01*
X123630345Y-97586179D01*
X123613529Y-97527077D01*
X123614125Y-97456085D01*
X123645620Y-97403506D01*
X125126725Y-95922402D01*
X125189035Y-95888379D01*
X125215818Y-95885500D01*
X131710182Y-95885500D01*
X131778303Y-95905502D01*
X131799276Y-95922404D01*
X132919587Y-97042715D01*
X133340447Y-97463574D01*
X133374472Y-97525886D01*
X133369408Y-97596701D01*
X133326861Y-97653537D01*
X133260341Y-97678348D01*
X133191956Y-97663791D01*
X133003492Y-97563055D01*
X132988529Y-97558516D01*
X132804718Y-97502758D01*
X132804717Y-97502757D01*
X132804711Y-97502756D01*
X132598003Y-97482398D01*
X132597997Y-97482398D01*
X132391288Y-97502756D01*
X132192507Y-97563055D01*
X132009313Y-97660974D01*
X132009313Y-97660975D01*
X131848747Y-97792747D01*
X131716975Y-97953313D01*
X131716974Y-97953313D01*
X131619055Y-98136507D01*
X131558756Y-98335288D01*
X131538398Y-98541996D01*
X131538398Y-98542003D01*
X131558756Y-98748711D01*
X131558757Y-98748717D01*
X131558758Y-98748718D01*
X131573101Y-98796000D01*
X131619055Y-98947492D01*
X131716974Y-99130686D01*
X131850647Y-99293567D01*
X131878401Y-99358914D01*
X131866419Y-99428892D01*
X131818506Y-99481284D01*
X131753248Y-99499500D01*
X131238476Y-99499500D01*
X131170355Y-99479498D01*
X131123862Y-99425842D01*
X131115107Y-99373257D01*
X131112500Y-99373257D01*
X131112499Y-98542003D01*
X131112499Y-97716934D01*
X131112498Y-97716930D01*
X131112498Y-97716926D01*
X131097734Y-97642699D01*
X131042720Y-97560366D01*
X131041484Y-97558516D01*
X131008070Y-97536189D01*
X130957302Y-97502266D01*
X130883067Y-97487500D01*
X129232936Y-97487500D01*
X129232926Y-97487501D01*
X129158699Y-97502265D01*
X129074515Y-97558516D01*
X129018266Y-97642697D01*
X129003500Y-97716930D01*
X129003500Y-97716934D01*
X129003501Y-99373256D01*
X129000625Y-99373256D01*
X128989682Y-99430918D01*
X128940835Y-99482439D01*
X128877525Y-99499500D01*
X100626500Y-99499500D01*
X100558379Y-99479498D01*
X100511886Y-99425842D01*
X100500500Y-99373500D01*
X100500500Y-95499993D01*
X100994696Y-95499993D01*
X100994696Y-95500006D01*
X101013896Y-95866395D01*
X101071294Y-96228792D01*
X101166259Y-96583205D01*
X101297740Y-96925726D01*
X101297744Y-96925734D01*
X101297745Y-96925736D01*
X101440580Y-97206063D01*
X101464318Y-97252652D01*
X101664143Y-97560358D01*
X101664155Y-97560375D01*
X101895038Y-97845492D01*
X101895052Y-97845507D01*
X102154492Y-98104947D01*
X102154507Y-98104961D01*
X102439624Y-98335844D01*
X102439641Y-98335856D01*
X102613294Y-98448626D01*
X102747348Y-98535682D01*
X103074264Y-98702255D01*
X103074268Y-98702256D01*
X103074273Y-98702259D01*
X103416794Y-98833740D01*
X103416799Y-98833741D01*
X103416801Y-98833742D01*
X103771206Y-98928705D01*
X104133596Y-98986102D01*
X104133598Y-98986102D01*
X104133604Y-98986103D01*
X104499994Y-99005304D01*
X104500000Y-99005304D01*
X104500006Y-99005304D01*
X104866395Y-98986103D01*
X104866399Y-98986102D01*
X104866404Y-98986102D01*
X105228794Y-98928705D01*
X105583199Y-98833742D01*
X105583202Y-98833740D01*
X105583205Y-98833740D01*
X105925726Y-98702259D01*
X105925727Y-98702258D01*
X105925736Y-98702255D01*
X106252652Y-98535682D01*
X106560366Y-98335851D01*
X106560375Y-98335844D01*
X106845492Y-98104961D01*
X106845497Y-98104955D01*
X106845506Y-98104949D01*
X107104949Y-97845506D01*
X107104955Y-97845497D01*
X107104961Y-97845492D01*
X107335844Y-97560375D01*
X107335845Y-97560372D01*
X107335851Y-97560366D01*
X107535682Y-97252652D01*
X107702255Y-96925736D01*
X107751649Y-96797059D01*
X107833740Y-96583205D01*
X107833742Y-96583199D01*
X107928705Y-96228794D01*
X107986102Y-95866404D01*
X107986102Y-95866399D01*
X107986103Y-95866395D01*
X108005304Y-95500006D01*
X108005304Y-95499993D01*
X107986103Y-95133604D01*
X107960206Y-94970099D01*
X107928705Y-94771206D01*
X107833742Y-94416801D01*
X107833741Y-94416799D01*
X107833740Y-94416794D01*
X107702259Y-94074273D01*
X107702255Y-94074265D01*
X107702255Y-94074264D01*
X107535682Y-93747348D01*
X107335851Y-93439634D01*
X107335844Y-93439624D01*
X107104961Y-93154507D01*
X107104947Y-93154492D01*
X106845507Y-92895052D01*
X106845492Y-92895038D01*
X106560375Y-92664155D01*
X106560358Y-92664143D01*
X106252652Y-92464318D01*
X105925734Y-92297744D01*
X105925726Y-92297740D01*
X105583205Y-92166259D01*
X105228792Y-92071294D01*
X104866395Y-92013896D01*
X104500006Y-91994696D01*
X104499994Y-91994696D01*
X104133604Y-92013896D01*
X103771207Y-92071294D01*
X103416794Y-92166259D01*
X103074273Y-92297740D01*
X103074265Y-92297744D01*
X102747347Y-92464318D01*
X102439641Y-92664143D01*
X102439624Y-92664155D01*
X102154507Y-92895038D01*
X102154492Y-92895052D01*
X101895052Y-93154492D01*
X101895038Y-93154507D01*
X101664155Y-93439624D01*
X101664143Y-93439641D01*
X101464318Y-93747347D01*
X101297744Y-94074265D01*
X101297740Y-94074273D01*
X101166259Y-94416794D01*
X101071294Y-94771207D01*
X101013896Y-95133604D01*
X100994696Y-95499993D01*
X100500500Y-95499993D01*
X100500500Y-74924709D01*
X105734000Y-74924709D01*
X105734000Y-75167290D01*
X105765660Y-75407782D01*
X105828444Y-75642095D01*
X105828445Y-75642097D01*
X105828446Y-75642100D01*
X105921276Y-75866212D01*
X105921277Y-75866213D01*
X105921282Y-75866224D01*
X106042561Y-76076285D01*
X106042563Y-76076288D01*
X106042564Y-76076289D01*
X106190235Y-76268738D01*
X106190239Y-76268742D01*
X106190244Y-76268748D01*
X106361751Y-76440255D01*
X106361756Y-76440259D01*
X106361762Y-76440265D01*
X106554211Y-76587936D01*
X106554214Y-76587938D01*
X106764275Y-76709217D01*
X106764279Y-76709218D01*
X106764288Y-76709224D01*
X106988400Y-76802054D01*
X107222711Y-76864838D01*
X107222715Y-76864838D01*
X107222717Y-76864839D01*
X107284702Y-76872999D01*
X107463212Y-76896500D01*
X107463219Y-76896500D01*
X107705781Y-76896500D01*
X107705788Y-76896500D01*
X107923137Y-76867885D01*
X107946282Y-76864839D01*
X107946282Y-76864838D01*
X107946289Y-76864838D01*
X108180600Y-76802054D01*
X108404712Y-76709224D01*
X108577485Y-76609473D01*
X108646478Y-76592736D01*
X108713570Y-76615956D01*
X108757457Y-76671763D01*
X108764206Y-76742438D01*
X108731674Y-76805542D01*
X108729578Y-76807688D01*
X106655892Y-78881375D01*
X106567377Y-78969889D01*
X106567372Y-78969896D01*
X106497827Y-79073977D01*
X106449924Y-79189625D01*
X106449922Y-79189630D01*
X106425500Y-79312406D01*
X106425500Y-82205093D01*
X106449922Y-82327869D01*
X106449924Y-82327874D01*
X106450493Y-82329248D01*
X106497827Y-82443522D01*
X106567375Y-82547608D01*
X106567377Y-82547610D01*
X107812919Y-83793152D01*
X107846945Y-83855464D01*
X107849217Y-83894596D01*
X107845140Y-83935995D01*
X107845140Y-83936002D01*
X107864533Y-84132909D01*
X107864534Y-84132915D01*
X107864535Y-84132916D01*
X107921973Y-84322265D01*
X108015248Y-84496770D01*
X108140775Y-84649725D01*
X108293730Y-84775252D01*
X108468235Y-84868527D01*
X108657584Y-84925965D01*
X108657588Y-84925965D01*
X108657590Y-84925966D01*
X108854497Y-84945360D01*
X108854500Y-84945360D01*
X108854503Y-84945360D01*
X109051409Y-84925966D01*
X109051410Y-84925965D01*
X109051416Y-84925965D01*
X109240765Y-84868527D01*
X109415270Y-84775252D01*
X109568225Y-84649725D01*
X109693752Y-84496770D01*
X109787027Y-84322265D01*
X109844465Y-84132916D01*
X109846491Y-84112352D01*
X109863860Y-83936002D01*
X109863860Y-83935997D01*
X109844466Y-83739090D01*
X109844465Y-83739086D01*
X109844465Y-83739084D01*
X109787027Y-83549735D01*
X109693752Y-83375230D01*
X109568225Y-83222275D01*
X109415270Y-83096748D01*
X109240765Y-83003473D01*
X109051416Y-82946035D01*
X109051415Y-82946034D01*
X109051409Y-82946033D01*
X108854503Y-82926640D01*
X108854495Y-82926640D01*
X108813096Y-82930717D01*
X108743343Y-82917488D01*
X108711652Y-82894419D01*
X107733405Y-81916172D01*
X107699379Y-81853860D01*
X107696500Y-81827077D01*
X107696500Y-81396000D01*
X108861695Y-81396000D01*
X108880880Y-81615287D01*
X108937850Y-81827903D01*
X108937852Y-81827907D01*
X109030879Y-82027403D01*
X109073300Y-82087987D01*
X109744500Y-81416788D01*
X109744500Y-81446028D01*
X109770396Y-81542675D01*
X109820424Y-81629325D01*
X109891175Y-81700076D01*
X109977825Y-81750104D01*
X110074472Y-81776000D01*
X110103708Y-81776000D01*
X109432511Y-82447196D01*
X109432511Y-82447198D01*
X109493097Y-82489621D01*
X109692592Y-82582647D01*
X109692596Y-82582649D01*
X109905212Y-82639619D01*
X110124500Y-82658804D01*
X110343787Y-82639619D01*
X110556403Y-82582649D01*
X110556407Y-82582647D01*
X110706750Y-82512541D01*
X110776941Y-82501880D01*
X110841754Y-82530860D01*
X110880611Y-82590279D01*
X110886000Y-82626736D01*
X110886000Y-82994473D01*
X110865998Y-83062594D01*
X110837514Y-83091601D01*
X110838515Y-83092821D01*
X110680775Y-83222275D01*
X110555248Y-83375229D01*
X110461973Y-83549734D01*
X110404533Y-83739090D01*
X110385140Y-83935997D01*
X110385140Y-83936002D01*
X110404533Y-84132909D01*
X110404534Y-84132915D01*
X110404535Y-84132916D01*
X110461973Y-84322265D01*
X110555248Y-84496770D01*
X110680775Y-84649725D01*
X110833730Y-84775252D01*
X111008235Y-84868527D01*
X111197584Y-84925965D01*
X111197588Y-84925965D01*
X111197590Y-84925966D01*
X111394497Y-84945360D01*
X111394500Y-84945360D01*
X111394503Y-84945360D01*
X111591409Y-84925966D01*
X111591410Y-84925965D01*
X111591416Y-84925965D01*
X111780765Y-84868527D01*
X111955270Y-84775252D01*
X112108225Y-84649725D01*
X112233752Y-84496770D01*
X112327027Y-84322265D01*
X112384465Y-84132916D01*
X112386491Y-84112352D01*
X112403860Y-83936002D01*
X112403860Y-83935997D01*
X112384466Y-83739090D01*
X112384465Y-83739086D01*
X112384465Y-83739084D01*
X112327027Y-83549735D01*
X112233752Y-83375230D01*
X112108225Y-83222275D01*
X111955270Y-83096748D01*
X111950485Y-83092821D01*
X111952039Y-83090927D01*
X111913449Y-83044713D01*
X111903000Y-82994473D01*
X111903000Y-82336857D01*
X111923002Y-82268736D01*
X111976658Y-82222243D01*
X112046932Y-82212139D01*
X112099007Y-82232095D01*
X112103721Y-82235244D01*
X112103730Y-82235252D01*
X112278235Y-82328527D01*
X112467584Y-82385965D01*
X112467588Y-82385965D01*
X112467590Y-82385966D01*
X112664497Y-82405360D01*
X112664500Y-82405360D01*
X112664503Y-82405360D01*
X112861409Y-82385966D01*
X112861410Y-82385965D01*
X112861416Y-82385965D01*
X113050765Y-82328527D01*
X113225270Y-82235252D01*
X113225283Y-82235241D01*
X113229993Y-82232095D01*
X113297745Y-82210877D01*
X113366212Y-82229657D01*
X113413658Y-82282471D01*
X113426000Y-82336857D01*
X113426000Y-82994473D01*
X113405998Y-83062594D01*
X113377514Y-83091601D01*
X113378515Y-83092821D01*
X113220775Y-83222275D01*
X113095248Y-83375229D01*
X113001973Y-83549734D01*
X112944533Y-83739090D01*
X112925140Y-83935997D01*
X112925140Y-83936002D01*
X112944533Y-84132909D01*
X112944534Y-84132915D01*
X112944535Y-84132916D01*
X113001973Y-84322265D01*
X113095248Y-84496770D01*
X113220775Y-84649725D01*
X113373730Y-84775252D01*
X113548235Y-84868527D01*
X113737584Y-84925965D01*
X113737588Y-84925965D01*
X113737590Y-84925966D01*
X113934497Y-84945360D01*
X113934500Y-84945360D01*
X113934503Y-84945360D01*
X114131409Y-84925966D01*
X114131410Y-84925965D01*
X114131416Y-84925965D01*
X114320765Y-84868527D01*
X114495270Y-84775252D01*
X114648225Y-84649725D01*
X114773752Y-84496770D01*
X114867027Y-84322265D01*
X114924465Y-84132916D01*
X114926491Y-84112352D01*
X114943860Y-83936002D01*
X114943860Y-83935997D01*
X115465140Y-83935997D01*
X115465140Y-83936002D01*
X115484533Y-84132909D01*
X115484534Y-84132915D01*
X115484535Y-84132916D01*
X115541973Y-84322265D01*
X115635248Y-84496770D01*
X115760775Y-84649725D01*
X115913730Y-84775252D01*
X116088235Y-84868527D01*
X116277584Y-84925965D01*
X116277588Y-84925965D01*
X116277590Y-84925966D01*
X116474497Y-84945360D01*
X116474500Y-84945360D01*
X116474503Y-84945360D01*
X116671409Y-84925966D01*
X116671410Y-84925965D01*
X116671416Y-84925965D01*
X116860765Y-84868527D01*
X117035270Y-84775252D01*
X117188225Y-84649725D01*
X117313752Y-84496770D01*
X117407027Y-84322265D01*
X117464465Y-84132916D01*
X117466491Y-84112352D01*
X117483860Y-83936002D01*
X117483860Y-83935997D01*
X117464466Y-83739090D01*
X117464465Y-83739086D01*
X117464465Y-83739084D01*
X117407027Y-83549735D01*
X117313752Y-83375230D01*
X117188225Y-83222275D01*
X117035270Y-83096748D01*
X116860765Y-83003473D01*
X116671416Y-82946035D01*
X116671415Y-82946034D01*
X116671409Y-82946033D01*
X116474503Y-82926640D01*
X116474497Y-82926640D01*
X116277590Y-82946033D01*
X116088234Y-83003473D01*
X115913729Y-83096748D01*
X115760775Y-83222275D01*
X115635248Y-83375229D01*
X115541973Y-83549734D01*
X115484533Y-83739090D01*
X115465140Y-83935997D01*
X114943860Y-83935997D01*
X114924466Y-83739090D01*
X114924465Y-83739086D01*
X114924465Y-83739084D01*
X114867027Y-83549735D01*
X114773752Y-83375230D01*
X114648225Y-83222275D01*
X114495270Y-83096748D01*
X114490485Y-83092821D01*
X114492039Y-83090927D01*
X114453449Y-83044713D01*
X114443000Y-82994473D01*
X114443000Y-82336857D01*
X114463002Y-82268736D01*
X114516658Y-82222243D01*
X114586932Y-82212139D01*
X114639007Y-82232095D01*
X114643721Y-82235244D01*
X114643730Y-82235252D01*
X114818235Y-82328527D01*
X115007584Y-82385965D01*
X115007588Y-82385965D01*
X115007590Y-82385966D01*
X115204497Y-82405360D01*
X115204500Y-82405360D01*
X115204503Y-82405360D01*
X115401409Y-82385966D01*
X115401410Y-82385965D01*
X115401416Y-82385965D01*
X115590765Y-82328527D01*
X115765270Y-82235252D01*
X115918225Y-82109725D01*
X116043752Y-81956770D01*
X116137027Y-81782265D01*
X116194465Y-81592916D01*
X116199414Y-81542675D01*
X116213860Y-81396002D01*
X116213860Y-81395997D01*
X116194466Y-81199090D01*
X116194465Y-81199088D01*
X116194465Y-81199084D01*
X116137027Y-81009735D01*
X116043752Y-80835230D01*
X115918225Y-80682275D01*
X115765270Y-80556748D01*
X115590765Y-80463473D01*
X115401416Y-80406035D01*
X115401412Y-80406034D01*
X115395493Y-80404239D01*
X115396297Y-80401587D01*
X115343957Y-80374139D01*
X115308890Y-80312407D01*
X115312764Y-80241516D01*
X115342445Y-80194467D01*
X115457509Y-80079404D01*
X115519822Y-80045379D01*
X115546604Y-80042500D01*
X116574425Y-80042500D01*
X116642546Y-80062502D01*
X116689039Y-80116158D01*
X116699143Y-80186432D01*
X116669649Y-80251012D01*
X116649934Y-80269368D01*
X116631595Y-80283095D01*
X116544055Y-80400034D01*
X116544055Y-80400035D01*
X116493005Y-80536906D01*
X116486500Y-80597402D01*
X116486500Y-81142000D01*
X117461099Y-81142000D01*
X117440424Y-81162675D01*
X117390396Y-81249325D01*
X117364500Y-81345972D01*
X117364500Y-81446028D01*
X117390396Y-81542675D01*
X117440424Y-81629325D01*
X117461099Y-81650000D01*
X116486500Y-81650000D01*
X116486500Y-82194597D01*
X116493005Y-82255093D01*
X116544055Y-82391964D01*
X116544055Y-82391965D01*
X116631595Y-82508904D01*
X116748534Y-82596444D01*
X116885406Y-82647494D01*
X116945902Y-82653999D01*
X116945915Y-82654000D01*
X117490500Y-82654000D01*
X117490500Y-81679401D01*
X117511175Y-81700076D01*
X117597825Y-81750104D01*
X117694472Y-81776000D01*
X117794528Y-81776000D01*
X117891175Y-81750104D01*
X117977825Y-81700076D01*
X117998500Y-81679401D01*
X117998500Y-82654000D01*
X118543085Y-82654000D01*
X118543097Y-82653999D01*
X118603593Y-82647494D01*
X118740464Y-82596444D01*
X118740465Y-82596444D01*
X118857404Y-82508904D01*
X118890633Y-82464516D01*
X123201000Y-82464516D01*
X123211605Y-82568318D01*
X123211606Y-82568321D01*
X123267342Y-82736525D01*
X123360365Y-82887339D01*
X123360370Y-82887345D01*
X123485654Y-83012629D01*
X123485660Y-83012634D01*
X123636474Y-83105657D01*
X123804678Y-83161393D01*
X123804681Y-83161394D01*
X123908483Y-83171999D01*
X123908483Y-83172000D01*
X124130000Y-83172000D01*
X124638000Y-83172000D01*
X124859517Y-83172000D01*
X124859516Y-83171999D01*
X124963318Y-83161394D01*
X124963321Y-83161393D01*
X125131525Y-83105657D01*
X125282339Y-83012634D01*
X125282345Y-83012629D01*
X125407629Y-82887345D01*
X125407634Y-82887339D01*
X125500657Y-82736525D01*
X125556393Y-82568321D01*
X125556394Y-82568318D01*
X125566999Y-82464516D01*
X125567000Y-82464516D01*
X126757000Y-82464516D01*
X126767605Y-82568318D01*
X126767606Y-82568321D01*
X126823342Y-82736525D01*
X126916365Y-82887339D01*
X126916370Y-82887345D01*
X127041654Y-83012629D01*
X127041660Y-83012634D01*
X127192474Y-83105657D01*
X127360678Y-83161393D01*
X127360681Y-83161394D01*
X127464483Y-83171999D01*
X127464483Y-83172000D01*
X127686000Y-83172000D01*
X128194000Y-83172000D01*
X128415517Y-83172000D01*
X128415516Y-83171999D01*
X128519318Y-83161394D01*
X128519321Y-83161393D01*
X128687525Y-83105657D01*
X128838339Y-83012634D01*
X128838345Y-83012629D01*
X128963629Y-82887345D01*
X128963634Y-82887339D01*
X129056657Y-82736525D01*
X129112393Y-82568321D01*
X129112394Y-82568318D01*
X129122999Y-82464516D01*
X129123000Y-82464516D01*
X129123000Y-82218000D01*
X128194000Y-82218000D01*
X128194000Y-83172000D01*
X127686000Y-83172000D01*
X127686000Y-82218000D01*
X126757000Y-82218000D01*
X126757000Y-82464516D01*
X125567000Y-82464516D01*
X125567000Y-82218000D01*
X124638000Y-82218000D01*
X124638000Y-83172000D01*
X124130000Y-83172000D01*
X124130000Y-82218000D01*
X123201000Y-82218000D01*
X123201000Y-82464516D01*
X118890633Y-82464516D01*
X118944944Y-82391965D01*
X118944944Y-82391964D01*
X118995994Y-82255093D01*
X119002499Y-82194597D01*
X119002500Y-82194585D01*
X119002500Y-81650000D01*
X118027901Y-81650000D01*
X118048576Y-81629325D01*
X118098604Y-81542675D01*
X118119823Y-81463483D01*
X123201000Y-81463483D01*
X123201000Y-81710000D01*
X124130000Y-81710000D01*
X124638000Y-81710000D01*
X125567000Y-81710000D01*
X125567000Y-81463483D01*
X126757000Y-81463483D01*
X126757000Y-81710000D01*
X127686000Y-81710000D01*
X128194000Y-81710000D01*
X129123000Y-81710000D01*
X129123000Y-81463483D01*
X129112394Y-81359681D01*
X129112393Y-81359678D01*
X129056657Y-81191474D01*
X128963634Y-81040660D01*
X128963629Y-81040654D01*
X128838345Y-80915370D01*
X128838339Y-80915365D01*
X128687525Y-80822342D01*
X128519321Y-80766606D01*
X128519318Y-80766605D01*
X128415516Y-80756000D01*
X128194000Y-80756000D01*
X128194000Y-81710000D01*
X127686000Y-81710000D01*
X127686000Y-80756000D01*
X127464483Y-80756000D01*
X127360681Y-80766605D01*
X127360678Y-80766606D01*
X127192474Y-80822342D01*
X127041660Y-80915365D01*
X127041654Y-80915370D01*
X126916370Y-81040654D01*
X126916365Y-81040660D01*
X126823342Y-81191474D01*
X126767606Y-81359678D01*
X126767605Y-81359681D01*
X126757000Y-81463483D01*
X125567000Y-81463483D01*
X125556394Y-81359681D01*
X125556393Y-81359678D01*
X125500657Y-81191474D01*
X125407634Y-81040660D01*
X125407629Y-81040654D01*
X125282345Y-80915370D01*
X125282339Y-80915365D01*
X125131525Y-80822342D01*
X124963321Y-80766606D01*
X124963318Y-80766605D01*
X124859516Y-80756000D01*
X124638000Y-80756000D01*
X124638000Y-81710000D01*
X124130000Y-81710000D01*
X124130000Y-80756000D01*
X123908483Y-80756000D01*
X123804681Y-80766605D01*
X123804678Y-80766606D01*
X123636474Y-80822342D01*
X123485660Y-80915365D01*
X123485654Y-80915370D01*
X123360370Y-81040654D01*
X123360365Y-81040660D01*
X123267342Y-81191474D01*
X123211606Y-81359678D01*
X123211605Y-81359681D01*
X123201000Y-81463483D01*
X118119823Y-81463483D01*
X118124500Y-81446028D01*
X118124500Y-81345972D01*
X118098604Y-81249325D01*
X118048576Y-81162675D01*
X118027901Y-81142000D01*
X119002500Y-81142000D01*
X119002500Y-80597414D01*
X119002499Y-80597402D01*
X118995994Y-80536906D01*
X118944944Y-80400035D01*
X118944944Y-80400034D01*
X118857404Y-80283095D01*
X118839066Y-80269368D01*
X118796519Y-80212532D01*
X118791455Y-80141717D01*
X118825480Y-80079405D01*
X118887792Y-80045379D01*
X118914575Y-80042500D01*
X120880054Y-80042500D01*
X120896500Y-80043578D01*
X121030999Y-80061285D01*
X121030999Y-80061284D01*
X121031000Y-80061285D01*
X121175754Y-80042228D01*
X121310643Y-79986355D01*
X121426474Y-79897474D01*
X121515355Y-79781643D01*
X121571228Y-79646754D01*
X121590285Y-79502000D01*
X121588968Y-79492000D01*
X121571228Y-79357247D01*
X121571228Y-79357246D01*
X121515355Y-79222358D01*
X121426474Y-79106526D01*
X121426472Y-79106524D01*
X121426471Y-79106523D01*
X121410101Y-79093962D01*
X121368234Y-79036624D01*
X121364012Y-78965753D01*
X121398776Y-78903851D01*
X121410101Y-78894038D01*
X121426474Y-78881474D01*
X121441691Y-78861643D01*
X121515355Y-78765643D01*
X121571228Y-78630754D01*
X121590285Y-78486000D01*
X121589784Y-78482198D01*
X121577236Y-78386882D01*
X121571228Y-78341246D01*
X121515355Y-78206358D01*
X121426474Y-78090526D01*
X121426472Y-78090524D01*
X121426471Y-78090523D01*
X121410101Y-78077962D01*
X121368234Y-78020624D01*
X121364012Y-77949753D01*
X121398776Y-77887851D01*
X121410101Y-77878038D01*
X121426474Y-77865474D01*
X121515355Y-77749643D01*
X121571228Y-77614754D01*
X121590285Y-77470000D01*
X121583866Y-77421246D01*
X121580756Y-77397623D01*
X121571228Y-77325246D01*
X121515355Y-77190358D01*
X121426474Y-77074526D01*
X121426472Y-77074524D01*
X121426471Y-77074523D01*
X121310649Y-76985649D01*
X121310641Y-76985644D01*
X121175752Y-76929771D01*
X121031000Y-76910715D01*
X120886246Y-76929771D01*
X120886245Y-76929772D01*
X120794176Y-76967909D01*
X120745958Y-76977500D01*
X119820480Y-76977500D01*
X119752359Y-76957498D01*
X119705866Y-76903842D01*
X119695762Y-76833568D01*
X119725256Y-76768988D01*
X119772260Y-76735092D01*
X119834712Y-76709224D01*
X120044789Y-76587936D01*
X120237238Y-76440265D01*
X120408765Y-76268738D01*
X120556436Y-76076289D01*
X120677724Y-75866212D01*
X120770554Y-75642100D01*
X120833338Y-75407789D01*
X120865000Y-75167288D01*
X120865000Y-74924712D01*
X120833338Y-74684211D01*
X120770554Y-74449900D01*
X120677724Y-74225788D01*
X120677718Y-74225779D01*
X120677717Y-74225775D01*
X120556438Y-74015714D01*
X120556436Y-74015711D01*
X120408765Y-73823262D01*
X120408759Y-73823256D01*
X120408755Y-73823251D01*
X120237248Y-73651744D01*
X120237242Y-73651739D01*
X120237238Y-73651735D01*
X120044789Y-73504064D01*
X120044788Y-73504063D01*
X120044785Y-73504061D01*
X119834724Y-73382782D01*
X119834716Y-73382778D01*
X119834712Y-73382776D01*
X119610600Y-73289946D01*
X119610597Y-73289945D01*
X119610595Y-73289944D01*
X119376282Y-73227160D01*
X119135790Y-73195500D01*
X119135788Y-73195500D01*
X118893212Y-73195500D01*
X118893209Y-73195500D01*
X118652717Y-73227160D01*
X118418404Y-73289944D01*
X118418400Y-73289946D01*
X118194286Y-73382777D01*
X118194275Y-73382782D01*
X117984214Y-73504061D01*
X117791762Y-73651735D01*
X117791751Y-73651744D01*
X117620244Y-73823251D01*
X117620235Y-73823262D01*
X117472561Y-74015714D01*
X117351282Y-74225775D01*
X117351277Y-74225786D01*
X117351276Y-74225788D01*
X117338206Y-74257342D01*
X117258446Y-74449900D01*
X117258444Y-74449904D01*
X117195660Y-74684217D01*
X117164000Y-74924709D01*
X117164000Y-75167290D01*
X117195660Y-75407782D01*
X117258444Y-75642095D01*
X117258445Y-75642097D01*
X117258446Y-75642100D01*
X117351276Y-75866212D01*
X117351277Y-75866213D01*
X117351282Y-75866224D01*
X117472561Y-76076285D01*
X117472563Y-76076288D01*
X117472564Y-76076289D01*
X117620235Y-76268738D01*
X117620239Y-76268742D01*
X117620244Y-76268748D01*
X117791751Y-76440255D01*
X117791756Y-76440259D01*
X117791762Y-76440265D01*
X117984211Y-76587936D01*
X117984214Y-76587938D01*
X118194275Y-76709217D01*
X118194279Y-76709218D01*
X118194288Y-76709224D01*
X118256739Y-76735092D01*
X118312019Y-76779639D01*
X118334440Y-76847002D01*
X118316882Y-76915794D01*
X118264920Y-76964172D01*
X118208520Y-76977500D01*
X114602759Y-76977500D01*
X114468869Y-76977500D01*
X114339540Y-77012153D01*
X114339538Y-77012154D01*
X114339535Y-77012155D01*
X114223589Y-77079097D01*
X114223586Y-77079099D01*
X110987603Y-80315081D01*
X110986389Y-80316664D01*
X110985025Y-80317659D01*
X110981759Y-80320926D01*
X110981249Y-80320416D01*
X110929049Y-80358529D01*
X110858178Y-80362748D01*
X110814159Y-80343169D01*
X110755906Y-80302380D01*
X110755907Y-80302380D01*
X110556407Y-80209352D01*
X110556403Y-80209350D01*
X110343787Y-80152380D01*
X110124500Y-80133195D01*
X109905212Y-80152380D01*
X109692596Y-80209350D01*
X109692592Y-80209352D01*
X109493098Y-80302378D01*
X109432511Y-80344801D01*
X110103711Y-81016000D01*
X110074472Y-81016000D01*
X109977825Y-81041896D01*
X109891175Y-81091924D01*
X109820424Y-81162675D01*
X109770396Y-81249325D01*
X109744500Y-81345972D01*
X109744500Y-81375209D01*
X109073301Y-80704010D01*
X109030878Y-80764598D01*
X108937852Y-80964092D01*
X108937850Y-80964096D01*
X108880880Y-81176712D01*
X108861695Y-81396000D01*
X107696500Y-81396000D01*
X107696500Y-79690423D01*
X107716502Y-79622302D01*
X107733405Y-79601328D01*
X114907328Y-72427405D01*
X114969640Y-72393379D01*
X114996423Y-72390500D01*
X120623577Y-72390500D01*
X120691698Y-72410502D01*
X120712672Y-72427405D01*
X123382375Y-75097108D01*
X123470892Y-75185625D01*
X123574978Y-75255173D01*
X123676718Y-75297315D01*
X123731999Y-75341863D01*
X123754420Y-75409227D01*
X123754500Y-75413724D01*
X123754500Y-75424452D01*
X123734498Y-75492573D01*
X123704010Y-75525320D01*
X123679595Y-75543596D01*
X123592657Y-75659734D01*
X123541962Y-75795650D01*
X123541960Y-75795658D01*
X123535500Y-75855737D01*
X123535500Y-77652246D01*
X123535502Y-77652270D01*
X123541959Y-77712339D01*
X123541959Y-77712341D01*
X123592657Y-77848266D01*
X123677403Y-77961474D01*
X123679596Y-77964404D01*
X123697758Y-77978000D01*
X123698006Y-77978185D01*
X123740554Y-78035019D01*
X123748500Y-78079055D01*
X123748500Y-78278308D01*
X123728498Y-78346429D01*
X123698009Y-78379176D01*
X123598596Y-78453595D01*
X123511657Y-78569734D01*
X123460962Y-78705650D01*
X123460960Y-78705658D01*
X123454500Y-78765737D01*
X123454500Y-79762246D01*
X123454502Y-79762270D01*
X123460959Y-79822339D01*
X123460959Y-79822341D01*
X123511657Y-79958266D01*
X123525198Y-79976355D01*
X123598596Y-80074404D01*
X123714733Y-80161342D01*
X123850658Y-80212040D01*
X123910745Y-80218500D01*
X124857254Y-80218499D01*
X124917342Y-80212040D01*
X125053267Y-80161342D01*
X125169404Y-80074404D01*
X125256342Y-79958267D01*
X125307040Y-79822342D01*
X125313500Y-79762255D01*
X125313499Y-78765746D01*
X125307040Y-78705658D01*
X125256342Y-78569733D01*
X125169404Y-78453596D01*
X125154881Y-78442724D01*
X125069991Y-78379176D01*
X125027444Y-78322340D01*
X125019500Y-78278308D01*
X125019500Y-78088038D01*
X125039502Y-78019917D01*
X125069989Y-77987171D01*
X125100404Y-77964404D01*
X125187342Y-77848267D01*
X125238040Y-77712342D01*
X125244500Y-77652255D01*
X125244499Y-75855746D01*
X125238040Y-75795658D01*
X125187342Y-75659733D01*
X125100404Y-75543596D01*
X125100403Y-75543595D01*
X125100401Y-75543592D01*
X125099404Y-75542595D01*
X125098728Y-75541357D01*
X125095003Y-75536381D01*
X125095718Y-75535845D01*
X125065378Y-75480283D01*
X125070443Y-75409468D01*
X125112990Y-75352632D01*
X125179510Y-75327821D01*
X125188499Y-75327500D01*
X128151501Y-75327500D01*
X128219622Y-75347502D01*
X128266115Y-75401158D01*
X128276219Y-75471432D01*
X128246725Y-75536012D01*
X128240596Y-75542595D01*
X128239598Y-75543592D01*
X128152657Y-75659734D01*
X128101962Y-75795650D01*
X128101960Y-75795658D01*
X128095500Y-75855737D01*
X128095500Y-77652246D01*
X128095502Y-77652270D01*
X128101959Y-77712339D01*
X128101959Y-77712341D01*
X128152657Y-77848266D01*
X128217521Y-77934915D01*
X128242331Y-78001435D01*
X128227239Y-78070809D01*
X128205747Y-78099518D01*
X128032670Y-78272595D01*
X127970358Y-78306621D01*
X127943575Y-78309500D01*
X127466753Y-78309500D01*
X127466729Y-78309502D01*
X127406660Y-78315959D01*
X127406658Y-78315959D01*
X127270733Y-78366657D01*
X127154596Y-78453596D01*
X127067657Y-78569734D01*
X127016962Y-78705650D01*
X127016960Y-78705658D01*
X127010500Y-78765737D01*
X127010500Y-79762246D01*
X127010502Y-79762270D01*
X127016959Y-79822339D01*
X127016959Y-79822341D01*
X127067657Y-79958266D01*
X127081198Y-79976355D01*
X127154596Y-80074404D01*
X127270733Y-80161342D01*
X127406658Y-80212040D01*
X127466745Y-80218500D01*
X128413254Y-80218499D01*
X128473342Y-80212040D01*
X128609267Y-80161342D01*
X128725404Y-80074404D01*
X128812342Y-79958267D01*
X128863040Y-79822342D01*
X128869500Y-79762255D01*
X128869499Y-79285423D01*
X128889501Y-79217303D01*
X128906404Y-79196329D01*
X129040510Y-79062223D01*
X129102822Y-79028197D01*
X129173637Y-79033262D01*
X129218700Y-79062223D01*
X130841595Y-80685118D01*
X130875621Y-80747430D01*
X130878500Y-80774213D01*
X130878500Y-80850324D01*
X130877423Y-80866767D01*
X130876501Y-80873771D01*
X130876500Y-80873775D01*
X130876500Y-80873779D01*
X130876500Y-86717787D01*
X130856498Y-86785908D01*
X130839599Y-86806877D01*
X130428314Y-87218163D01*
X130036678Y-87609799D01*
X129980194Y-87642410D01*
X129861728Y-87674152D01*
X129861721Y-87674155D01*
X129745775Y-87741097D01*
X129745772Y-87741099D01*
X129651099Y-87835772D01*
X129651097Y-87835775D01*
X129584155Y-87951721D01*
X129584154Y-87951724D01*
X129584153Y-87951726D01*
X129568336Y-88010757D01*
X129549500Y-88081056D01*
X129549500Y-89922592D01*
X129529498Y-89990713D01*
X129482900Y-90033712D01*
X129469314Y-90040974D01*
X129469313Y-90040975D01*
X129308747Y-90172747D01*
X129176975Y-90333313D01*
X129176974Y-90333313D01*
X129079055Y-90516507D01*
X129018756Y-90715288D01*
X128998398Y-90921996D01*
X128998398Y-90922003D01*
X129018756Y-91128711D01*
X129079055Y-91327492D01*
X129176974Y-91510686D01*
X129308747Y-91671252D01*
X129469313Y-91803024D01*
X129469313Y-91803025D01*
X129469317Y-91803027D01*
X129652508Y-91900945D01*
X129851282Y-91961242D01*
X129851286Y-91961242D01*
X129851288Y-91961243D01*
X130057997Y-91981602D01*
X130058000Y-91981602D01*
X130058003Y-91981602D01*
X130264711Y-91961243D01*
X130264712Y-91961242D01*
X130264718Y-91961242D01*
X130463492Y-91900945D01*
X130646683Y-91803027D01*
X130646684Y-91803025D01*
X130646686Y-91803025D01*
X130646686Y-91803024D01*
X130807252Y-91671252D01*
X130939027Y-91510683D01*
X131036945Y-91327492D01*
X131097242Y-91128718D01*
X131117602Y-90922000D01*
X131097242Y-90715282D01*
X131036945Y-90516508D01*
X130939027Y-90333317D01*
X130939025Y-90333313D01*
X130807252Y-90172747D01*
X130646686Y-90040975D01*
X130646685Y-90040974D01*
X130633100Y-90033712D01*
X130582453Y-89983958D01*
X130566500Y-89922592D01*
X130566500Y-88211212D01*
X130586502Y-88143091D01*
X130603405Y-88122117D01*
X131161405Y-87564117D01*
X131223717Y-87530091D01*
X131294532Y-87535156D01*
X131351368Y-87577703D01*
X131376179Y-87644223D01*
X131376500Y-87653212D01*
X131376500Y-88881794D01*
X131359620Y-88944792D01*
X131352156Y-88957719D01*
X131352154Y-88957723D01*
X131352153Y-88957726D01*
X131317500Y-89087055D01*
X131317500Y-89220945D01*
X131352153Y-89350274D01*
X131352154Y-89350276D01*
X131352155Y-89350278D01*
X131419097Y-89466224D01*
X131419099Y-89466227D01*
X131513772Y-89560900D01*
X131513775Y-89560902D01*
X131605226Y-89613701D01*
X131629726Y-89627847D01*
X131759055Y-89662500D01*
X132267952Y-89662500D01*
X132336073Y-89682502D01*
X132382566Y-89736158D01*
X132392670Y-89806432D01*
X132363176Y-89871012D01*
X132304528Y-89909074D01*
X132259966Y-89922592D01*
X132192507Y-89943055D01*
X132009313Y-90040974D01*
X132009313Y-90040975D01*
X131848747Y-90172747D01*
X131716975Y-90333313D01*
X131716974Y-90333313D01*
X131619055Y-90516507D01*
X131558756Y-90715288D01*
X131538398Y-90921996D01*
X131538398Y-90922003D01*
X131558756Y-91128711D01*
X131619055Y-91327492D01*
X131716974Y-91510686D01*
X131848747Y-91671252D01*
X132009313Y-91803024D01*
X132009313Y-91803025D01*
X132009317Y-91803027D01*
X132192508Y-91900945D01*
X132391282Y-91961242D01*
X132391286Y-91961242D01*
X132391288Y-91961243D01*
X132597997Y-91981602D01*
X132598000Y-91981602D01*
X132598003Y-91981602D01*
X132804711Y-91961243D01*
X132804712Y-91961242D01*
X132804718Y-91961242D01*
X133003492Y-91900945D01*
X133186683Y-91803027D01*
X133186684Y-91803025D01*
X133186686Y-91803025D01*
X133186686Y-91803024D01*
X133347252Y-91671252D01*
X133479027Y-91510683D01*
X133576945Y-91327492D01*
X133637242Y-91128718D01*
X133657602Y-90922000D01*
X133637242Y-90715282D01*
X133576945Y-90516508D01*
X133479027Y-90333317D01*
X133479025Y-90333313D01*
X133347252Y-90172747D01*
X133186686Y-90040975D01*
X133186686Y-90040974D01*
X133003492Y-89943055D01*
X132891472Y-89909074D01*
X132832091Y-89870160D01*
X132803176Y-89805318D01*
X132813906Y-89735137D01*
X132860875Y-89681899D01*
X132928048Y-89662500D01*
X134807952Y-89662500D01*
X134876073Y-89682502D01*
X134922566Y-89736158D01*
X134932670Y-89806432D01*
X134903176Y-89871012D01*
X134844528Y-89909074D01*
X134799966Y-89922592D01*
X134732507Y-89943055D01*
X134549313Y-90040974D01*
X134549313Y-90040975D01*
X134388747Y-90172747D01*
X134256975Y-90333313D01*
X134256974Y-90333313D01*
X134159055Y-90516507D01*
X134098756Y-90715288D01*
X134078398Y-90921996D01*
X134078398Y-90922003D01*
X134098756Y-91128711D01*
X134159055Y-91327492D01*
X134256974Y-91510686D01*
X134388747Y-91671252D01*
X134549313Y-91803024D01*
X134549313Y-91803025D01*
X134549317Y-91803027D01*
X134732508Y-91900945D01*
X134931282Y-91961242D01*
X134931286Y-91961242D01*
X134931288Y-91961243D01*
X135137997Y-91981602D01*
X135138000Y-91981602D01*
X135138003Y-91981602D01*
X135344711Y-91961243D01*
X135344712Y-91961242D01*
X135344718Y-91961242D01*
X135543492Y-91900945D01*
X135726683Y-91803027D01*
X135726684Y-91803025D01*
X135726686Y-91803025D01*
X135726686Y-91803024D01*
X135887252Y-91671252D01*
X136019027Y-91510683D01*
X136116945Y-91327492D01*
X136177242Y-91128718D01*
X136197602Y-90922000D01*
X136177242Y-90715282D01*
X136116945Y-90516508D01*
X136019027Y-90333317D01*
X136019026Y-90333316D01*
X136016209Y-90328045D01*
X136001737Y-90258539D01*
X136027141Y-90192243D01*
X136084354Y-90150205D01*
X136155212Y-90145772D01*
X136216426Y-90179554D01*
X136611748Y-90574876D01*
X136645774Y-90637188D01*
X136643229Y-90700542D01*
X136638756Y-90715286D01*
X136618398Y-90921996D01*
X136618398Y-90922003D01*
X136638756Y-91128711D01*
X136699055Y-91327492D01*
X136796974Y-91510686D01*
X136928747Y-91671252D01*
X137089313Y-91803024D01*
X137089313Y-91803025D01*
X137089317Y-91803027D01*
X137272508Y-91900945D01*
X137471282Y-91961242D01*
X137471286Y-91961242D01*
X137471288Y-91961243D01*
X137677997Y-91981602D01*
X137678000Y-91981602D01*
X137678003Y-91981602D01*
X137884711Y-91961243D01*
X137884712Y-91961242D01*
X137884718Y-91961242D01*
X138083492Y-91900945D01*
X138266683Y-91803027D01*
X138266684Y-91803025D01*
X138266686Y-91803025D01*
X138266686Y-91803024D01*
X138427252Y-91671252D01*
X138559027Y-91510683D01*
X138656945Y-91327492D01*
X138717242Y-91128718D01*
X138737602Y-90922000D01*
X138717242Y-90715282D01*
X138656945Y-90516508D01*
X138559027Y-90333317D01*
X138559025Y-90333313D01*
X138427252Y-90172747D01*
X138266686Y-90040975D01*
X138266686Y-90040974D01*
X138083492Y-89943055D01*
X137960958Y-89905885D01*
X137884718Y-89882758D01*
X137884717Y-89882757D01*
X137884711Y-89882756D01*
X137678003Y-89862398D01*
X137677997Y-89862398D01*
X137471284Y-89882757D01*
X137456540Y-89887229D01*
X137385546Y-89887859D01*
X137330876Y-89855749D01*
X136222227Y-88747099D01*
X136222225Y-88747098D01*
X136222223Y-88747096D01*
X136106278Y-88680155D01*
X136106276Y-88680154D01*
X136106274Y-88680153D01*
X135976945Y-88645500D01*
X135976943Y-88645500D01*
X133399672Y-88645500D01*
X133331551Y-88625498D01*
X133285058Y-88571842D01*
X133274954Y-88501568D01*
X133283263Y-88471282D01*
X133298228Y-88435154D01*
X133317285Y-88290400D01*
X133298228Y-88145646D01*
X133242355Y-88010758D01*
X133153474Y-87894926D01*
X133153472Y-87894924D01*
X133153468Y-87894919D01*
X133149405Y-87890856D01*
X133115379Y-87828544D01*
X133112500Y-87801761D01*
X133112500Y-86488000D01*
X133132502Y-86419879D01*
X133186158Y-86373386D01*
X133238500Y-86362000D01*
X133431585Y-86362000D01*
X133431597Y-86361999D01*
X133492093Y-86355494D01*
X133628964Y-86304444D01*
X133628965Y-86304444D01*
X133745904Y-86216904D01*
X133833444Y-86099965D01*
X133833444Y-86099964D01*
X133884494Y-85963093D01*
X133890999Y-85902597D01*
X133891000Y-85902585D01*
X133891000Y-84705414D01*
X133890999Y-84705402D01*
X133884494Y-84644906D01*
X133833444Y-84508035D01*
X133833444Y-84508034D01*
X133745904Y-84391095D01*
X133628965Y-84303555D01*
X133492093Y-84252505D01*
X133431597Y-84246000D01*
X133084402Y-84246000D01*
X133023906Y-84252505D01*
X132887035Y-84303555D01*
X132887034Y-84303555D01*
X132770097Y-84391094D01*
X132726740Y-84449011D01*
X132669903Y-84491556D01*
X132625878Y-84499500D01*
X132607931Y-84499500D01*
X132532579Y-84514488D01*
X132483419Y-84514488D01*
X132408069Y-84499500D01*
X132107936Y-84499500D01*
X132107924Y-84499502D01*
X132032579Y-84514488D01*
X131983419Y-84514488D01*
X131908072Y-84499500D01*
X131908067Y-84499500D01*
X131765500Y-84499500D01*
X131697379Y-84479498D01*
X131650886Y-84425842D01*
X131639500Y-84373500D01*
X131639500Y-81934499D01*
X131659502Y-81866378D01*
X131713158Y-81819885D01*
X131765500Y-81808499D01*
X131908064Y-81808499D01*
X131908066Y-81808499D01*
X131982301Y-81793734D01*
X131982302Y-81793732D01*
X131983418Y-81793511D01*
X132032581Y-81793511D01*
X132033697Y-81793733D01*
X132033699Y-81793734D01*
X132107933Y-81808500D01*
X132408066Y-81808499D01*
X132482301Y-81793734D01*
X132482302Y-81793732D01*
X132483418Y-81793511D01*
X132532581Y-81793511D01*
X132533697Y-81793733D01*
X132533699Y-81793734D01*
X132607933Y-81808500D01*
X132750500Y-81808499D01*
X132818620Y-81828501D01*
X132865113Y-81882156D01*
X132876500Y-81934499D01*
X132876500Y-82252544D01*
X132856498Y-82320665D01*
X132850462Y-82329248D01*
X132773649Y-82429351D01*
X132773646Y-82429356D01*
X132773645Y-82429358D01*
X132759082Y-82464516D01*
X132717771Y-82564247D01*
X132698715Y-82708999D01*
X132698715Y-82709000D01*
X132717771Y-82853752D01*
X132773644Y-82988641D01*
X132773649Y-82988649D01*
X132862525Y-83104474D01*
X132978350Y-83193350D01*
X132978357Y-83193355D01*
X133113246Y-83249228D01*
X133258000Y-83268285D01*
X133402754Y-83249228D01*
X133537643Y-83193355D01*
X133653474Y-83104474D01*
X133742355Y-82988643D01*
X133798228Y-82853754D01*
X133816032Y-82718516D01*
X134885000Y-82718516D01*
X134895605Y-82822318D01*
X134895606Y-82822321D01*
X134951342Y-82990525D01*
X135044365Y-83141339D01*
X135044370Y-83141345D01*
X135169654Y-83266629D01*
X135169660Y-83266634D01*
X135320474Y-83359657D01*
X135488678Y-83415393D01*
X135488681Y-83415394D01*
X135592483Y-83425999D01*
X135592483Y-83426000D01*
X135814000Y-83426000D01*
X136322000Y-83426000D01*
X136543517Y-83426000D01*
X136543516Y-83425999D01*
X136647318Y-83415394D01*
X136647321Y-83415393D01*
X136815525Y-83359657D01*
X136966339Y-83266634D01*
X136966345Y-83266629D01*
X137091629Y-83141345D01*
X137091634Y-83141339D01*
X137184657Y-82990525D01*
X137240393Y-82822321D01*
X137240394Y-82822318D01*
X137250999Y-82718516D01*
X137251000Y-82718516D01*
X138441000Y-82718516D01*
X138451605Y-82822318D01*
X138451606Y-82822321D01*
X138507342Y-82990525D01*
X138600365Y-83141339D01*
X138600370Y-83141345D01*
X138725654Y-83266629D01*
X138725660Y-83266634D01*
X138876474Y-83359657D01*
X139044678Y-83415393D01*
X139044681Y-83415394D01*
X139148483Y-83425999D01*
X139148483Y-83426000D01*
X139370000Y-83426000D01*
X139878000Y-83426000D01*
X140099517Y-83426000D01*
X140099516Y-83425999D01*
X140203318Y-83415394D01*
X140203321Y-83415393D01*
X140371525Y-83359657D01*
X140522339Y-83266634D01*
X140522345Y-83266629D01*
X140647629Y-83141345D01*
X140647634Y-83141339D01*
X140740657Y-82990525D01*
X140796393Y-82822321D01*
X140796394Y-82822318D01*
X140806999Y-82718516D01*
X140807000Y-82718516D01*
X140807000Y-82472000D01*
X139878000Y-82472000D01*
X139878000Y-83426000D01*
X139370000Y-83426000D01*
X139370000Y-82472000D01*
X138441000Y-82472000D01*
X138441000Y-82718516D01*
X137251000Y-82718516D01*
X137251000Y-82472000D01*
X136322000Y-82472000D01*
X136322000Y-83426000D01*
X135814000Y-83426000D01*
X135814000Y-82472000D01*
X134885000Y-82472000D01*
X134885000Y-82718516D01*
X133816032Y-82718516D01*
X133817285Y-82709000D01*
X133798228Y-82564246D01*
X133742355Y-82429358D01*
X133740744Y-82427259D01*
X133665538Y-82329248D01*
X133639937Y-82263028D01*
X133639500Y-82252544D01*
X133639500Y-81717483D01*
X134885000Y-81717483D01*
X134885000Y-81964000D01*
X135814000Y-81964000D01*
X136322000Y-81964000D01*
X137251000Y-81964000D01*
X137251000Y-81717483D01*
X138441000Y-81717483D01*
X138441000Y-81964000D01*
X139370000Y-81964000D01*
X139370000Y-81010000D01*
X139148483Y-81010000D01*
X139044681Y-81020605D01*
X139044678Y-81020606D01*
X138876474Y-81076342D01*
X138725660Y-81169365D01*
X138725654Y-81169370D01*
X138600370Y-81294654D01*
X138600365Y-81294660D01*
X138507342Y-81445474D01*
X138451606Y-81613678D01*
X138451605Y-81613681D01*
X138441000Y-81717483D01*
X137251000Y-81717483D01*
X137240394Y-81613681D01*
X137240393Y-81613678D01*
X137184657Y-81445474D01*
X137091634Y-81294660D01*
X137091629Y-81294654D01*
X136966345Y-81169370D01*
X136966339Y-81169365D01*
X136815525Y-81076342D01*
X136647321Y-81020606D01*
X136647318Y-81020605D01*
X136543516Y-81010000D01*
X136322000Y-81010000D01*
X136322000Y-81964000D01*
X135814000Y-81964000D01*
X135814000Y-81010000D01*
X135592483Y-81010000D01*
X135488681Y-81020605D01*
X135488678Y-81020606D01*
X135320474Y-81076342D01*
X135169660Y-81169365D01*
X135169654Y-81169370D01*
X135044370Y-81294654D01*
X135044365Y-81294660D01*
X134951342Y-81445474D01*
X134895606Y-81613678D01*
X134895605Y-81613681D01*
X134885000Y-81717483D01*
X133639500Y-81717483D01*
X133639500Y-80953770D01*
X133638577Y-80946759D01*
X133637499Y-80930315D01*
X133637499Y-80428936D01*
X133637498Y-80428927D01*
X133622734Y-80354699D01*
X133600167Y-80320926D01*
X133566484Y-80270516D01*
X133537295Y-80251012D01*
X133482302Y-80214266D01*
X133408069Y-80199500D01*
X133408067Y-80199500D01*
X133380019Y-80199500D01*
X133311898Y-80179498D01*
X133265405Y-80125842D01*
X133255301Y-80055568D01*
X133284795Y-79990988D01*
X133303315Y-79973538D01*
X133415474Y-79887474D01*
X133454368Y-79836787D01*
X133504355Y-79771643D01*
X133560228Y-79636754D01*
X133579285Y-79492000D01*
X133560228Y-79347246D01*
X133504355Y-79212358D01*
X133486911Y-79189625D01*
X133428655Y-79113704D01*
X133403054Y-79047484D01*
X133417318Y-78977935D01*
X133428649Y-78960303D01*
X133504355Y-78861643D01*
X133560228Y-78726754D01*
X133579285Y-78582000D01*
X133560228Y-78437246D01*
X133504355Y-78302358D01*
X133415474Y-78186526D01*
X133415472Y-78186524D01*
X133415471Y-78186523D01*
X133399101Y-78173962D01*
X133357234Y-78116624D01*
X133353012Y-78045753D01*
X133387776Y-77983851D01*
X133399101Y-77974038D01*
X133415474Y-77961474D01*
X133471967Y-77887851D01*
X133504355Y-77845643D01*
X133560228Y-77710754D01*
X133579285Y-77566000D01*
X133560228Y-77421246D01*
X133504355Y-77286358D01*
X133415474Y-77170526D01*
X133415472Y-77170524D01*
X133415471Y-77170523D01*
X133299649Y-77081649D01*
X133299641Y-77081644D01*
X133164752Y-77025771D01*
X133020000Y-77006715D01*
X132875247Y-77025771D01*
X132807802Y-77053708D01*
X132740358Y-77081645D01*
X132740357Y-77081646D01*
X132740356Y-77081646D01*
X132624526Y-77170526D01*
X132535646Y-77286356D01*
X132535645Y-77286358D01*
X132512909Y-77341247D01*
X132479771Y-77421247D01*
X132475430Y-77454224D01*
X132446707Y-77519151D01*
X132439603Y-77526872D01*
X131506030Y-78460445D01*
X131506028Y-78460448D01*
X131452729Y-78513746D01*
X131452721Y-78513756D01*
X131402500Y-78600741D01*
X131376500Y-78697776D01*
X131376500Y-79836787D01*
X131356498Y-79904908D01*
X131302842Y-79951401D01*
X131232568Y-79961505D01*
X131167988Y-79932011D01*
X131161405Y-79925882D01*
X129622405Y-78386882D01*
X129588379Y-78324570D01*
X129585500Y-78297787D01*
X129585500Y-78083547D01*
X129605502Y-78015426D01*
X129635992Y-77982678D01*
X129642241Y-77978000D01*
X129660404Y-77964404D01*
X129747342Y-77848267D01*
X129798040Y-77712342D01*
X129804500Y-77652255D01*
X129804499Y-75855746D01*
X129798040Y-75795658D01*
X129747342Y-75659733D01*
X129660404Y-75543596D01*
X129660403Y-75543595D01*
X129660401Y-75543592D01*
X129659404Y-75542595D01*
X129658728Y-75541357D01*
X129655003Y-75536381D01*
X129655718Y-75535845D01*
X129625378Y-75480283D01*
X129630443Y-75409468D01*
X129672990Y-75352632D01*
X129739510Y-75327821D01*
X129748499Y-75327500D01*
X132658577Y-75327500D01*
X132726698Y-75347502D01*
X132747672Y-75364405D01*
X134167595Y-76784328D01*
X134201621Y-76846640D01*
X134204500Y-76873423D01*
X134204500Y-77755246D01*
X134204502Y-77755270D01*
X134210959Y-77815339D01*
X134210959Y-77815341D01*
X134261657Y-77951266D01*
X134269299Y-77961474D01*
X134348596Y-78067404D01*
X134464733Y-78154342D01*
X134600658Y-78205040D01*
X134660745Y-78211500D01*
X135433500Y-78211499D01*
X135501621Y-78231501D01*
X135548114Y-78285157D01*
X135559500Y-78337499D01*
X135559500Y-78473211D01*
X135539498Y-78541332D01*
X135485842Y-78587825D01*
X135477534Y-78591266D01*
X135398733Y-78620658D01*
X135282596Y-78707596D01*
X135195657Y-78823734D01*
X135144962Y-78959650D01*
X135144960Y-78959658D01*
X135138500Y-79019737D01*
X135138500Y-80016246D01*
X135138502Y-80016270D01*
X135144959Y-80076339D01*
X135144959Y-80076341D01*
X135195657Y-80212266D01*
X135200323Y-80218499D01*
X135282596Y-80328404D01*
X135398733Y-80415342D01*
X135534658Y-80466040D01*
X135594745Y-80472500D01*
X136541254Y-80472499D01*
X136601342Y-80466040D01*
X136737267Y-80415342D01*
X136853404Y-80328404D01*
X136940342Y-80212267D01*
X136991040Y-80076342D01*
X136997500Y-80016255D01*
X136997499Y-79019746D01*
X136991040Y-78959658D01*
X136940342Y-78823733D01*
X136853404Y-78707596D01*
X136737267Y-78620658D01*
X136699290Y-78606493D01*
X136658466Y-78591266D01*
X136601631Y-78548719D01*
X136576821Y-78482198D01*
X136576500Y-78473211D01*
X136576500Y-77719056D01*
X136574700Y-77712339D01*
X136541847Y-77589726D01*
X136501100Y-77519151D01*
X136481960Y-77485999D01*
X136481961Y-77485998D01*
X136481956Y-77485993D01*
X136474902Y-77473775D01*
X136474901Y-77473773D01*
X135950404Y-76949276D01*
X135916378Y-76886964D01*
X135913499Y-76860181D01*
X135913499Y-75958753D01*
X135913499Y-75958746D01*
X135907040Y-75898658D01*
X135856342Y-75762733D01*
X135769404Y-75646596D01*
X135653267Y-75559658D01*
X135653265Y-75559657D01*
X135653266Y-75559657D01*
X135517349Y-75508962D01*
X135517344Y-75508960D01*
X135517342Y-75508960D01*
X135509831Y-75508152D01*
X135457262Y-75502500D01*
X135457255Y-75502500D01*
X134735423Y-75502500D01*
X134667302Y-75482498D01*
X134646328Y-75465595D01*
X134105442Y-74924709D01*
X143834000Y-74924709D01*
X143834000Y-75167290D01*
X143865660Y-75407782D01*
X143928444Y-75642095D01*
X143928445Y-75642097D01*
X143928446Y-75642100D01*
X144021276Y-75866212D01*
X144021277Y-75866213D01*
X144021282Y-75866224D01*
X144142561Y-76076285D01*
X144142563Y-76076288D01*
X144142564Y-76076289D01*
X144290235Y-76268738D01*
X144290239Y-76268742D01*
X144290244Y-76268748D01*
X144461751Y-76440255D01*
X144461756Y-76440259D01*
X144461762Y-76440265D01*
X144654211Y-76587936D01*
X144654214Y-76587938D01*
X144864275Y-76709217D01*
X144864279Y-76709218D01*
X144864288Y-76709224D01*
X145088400Y-76802054D01*
X145322711Y-76864838D01*
X145322715Y-76864838D01*
X145322717Y-76864839D01*
X145384702Y-76872999D01*
X145563212Y-76896500D01*
X145563219Y-76896500D01*
X145805781Y-76896500D01*
X145805788Y-76896500D01*
X146023137Y-76867885D01*
X146046282Y-76864839D01*
X146046282Y-76864838D01*
X146046289Y-76864838D01*
X146280600Y-76802054D01*
X146504712Y-76709224D01*
X146714789Y-76587936D01*
X146907238Y-76440265D01*
X147078765Y-76268738D01*
X147226436Y-76076289D01*
X147347724Y-75866212D01*
X147440554Y-75642100D01*
X147503338Y-75407789D01*
X147535000Y-75167288D01*
X147535000Y-74924712D01*
X147535000Y-74924709D01*
X155264000Y-74924709D01*
X155264000Y-75167290D01*
X155295660Y-75407782D01*
X155358444Y-75642095D01*
X155358445Y-75642097D01*
X155358446Y-75642100D01*
X155451276Y-75866212D01*
X155451277Y-75866213D01*
X155451282Y-75866224D01*
X155572561Y-76076285D01*
X155572563Y-76076288D01*
X155572564Y-76076289D01*
X155720235Y-76268738D01*
X155720239Y-76268742D01*
X155720244Y-76268748D01*
X155891751Y-76440255D01*
X155891756Y-76440259D01*
X155891762Y-76440265D01*
X156084211Y-76587936D01*
X156084214Y-76587938D01*
X156294275Y-76709217D01*
X156294279Y-76709218D01*
X156294288Y-76709224D01*
X156518400Y-76802054D01*
X156752711Y-76864838D01*
X156752715Y-76864838D01*
X156752717Y-76864839D01*
X156814702Y-76872999D01*
X156993212Y-76896500D01*
X156993219Y-76896500D01*
X157235781Y-76896500D01*
X157235788Y-76896500D01*
X157453137Y-76867885D01*
X157476282Y-76864839D01*
X157476282Y-76864838D01*
X157476289Y-76864838D01*
X157710600Y-76802054D01*
X157934712Y-76709224D01*
X158144789Y-76587936D01*
X158337238Y-76440265D01*
X158508765Y-76268738D01*
X158656436Y-76076289D01*
X158777724Y-75866212D01*
X158870554Y-75642100D01*
X158933338Y-75407789D01*
X158965000Y-75167288D01*
X158965000Y-74924712D01*
X158933338Y-74684211D01*
X158870554Y-74449900D01*
X158777724Y-74225788D01*
X158777718Y-74225779D01*
X158777717Y-74225775D01*
X158656438Y-74015714D01*
X158656436Y-74015711D01*
X158508765Y-73823262D01*
X158508759Y-73823256D01*
X158508755Y-73823251D01*
X158337248Y-73651744D01*
X158337242Y-73651739D01*
X158337238Y-73651735D01*
X158144789Y-73504064D01*
X158144788Y-73504063D01*
X158144785Y-73504061D01*
X157934724Y-73382782D01*
X157934716Y-73382778D01*
X157934712Y-73382776D01*
X157710600Y-73289946D01*
X157710597Y-73289945D01*
X157710595Y-73289944D01*
X157476282Y-73227160D01*
X157235790Y-73195500D01*
X157235788Y-73195500D01*
X156993212Y-73195500D01*
X156993209Y-73195500D01*
X156752717Y-73227160D01*
X156518404Y-73289944D01*
X156518400Y-73289946D01*
X156294286Y-73382777D01*
X156294275Y-73382782D01*
X156084214Y-73504061D01*
X155891762Y-73651735D01*
X155891751Y-73651744D01*
X155720244Y-73823251D01*
X155720235Y-73823262D01*
X155572561Y-74015714D01*
X155451282Y-74225775D01*
X155451277Y-74225786D01*
X155451276Y-74225788D01*
X155438206Y-74257342D01*
X155358446Y-74449900D01*
X155358444Y-74449904D01*
X155295660Y-74684217D01*
X155264000Y-74924709D01*
X147535000Y-74924709D01*
X147503338Y-74684211D01*
X147440554Y-74449900D01*
X147347724Y-74225788D01*
X147347718Y-74225779D01*
X147347717Y-74225775D01*
X147226438Y-74015714D01*
X147226436Y-74015711D01*
X147078765Y-73823262D01*
X147078759Y-73823256D01*
X147078755Y-73823251D01*
X146907248Y-73651744D01*
X146907242Y-73651739D01*
X146907238Y-73651735D01*
X146714789Y-73504064D01*
X146714788Y-73504063D01*
X146714785Y-73504061D01*
X146504724Y-73382782D01*
X146504716Y-73382778D01*
X146504712Y-73382776D01*
X146280600Y-73289946D01*
X146280597Y-73289945D01*
X146280595Y-73289944D01*
X146046282Y-73227160D01*
X145805790Y-73195500D01*
X145805788Y-73195500D01*
X145563212Y-73195500D01*
X145563209Y-73195500D01*
X145322717Y-73227160D01*
X145088404Y-73289944D01*
X145088400Y-73289946D01*
X144864286Y-73382777D01*
X144864275Y-73382782D01*
X144654214Y-73504061D01*
X144461762Y-73651735D01*
X144461751Y-73651744D01*
X144290244Y-73823251D01*
X144290235Y-73823262D01*
X144142561Y-74015714D01*
X144021282Y-74225775D01*
X144021277Y-74225786D01*
X144021276Y-74225788D01*
X144008206Y-74257342D01*
X143928446Y-74449900D01*
X143928444Y-74449904D01*
X143865660Y-74684217D01*
X143834000Y-74924709D01*
X134105442Y-74924709D01*
X133518592Y-74337859D01*
X133502922Y-74318766D01*
X133481625Y-74286892D01*
X133393108Y-74198375D01*
X133289022Y-74128827D01*
X133173369Y-74080922D01*
X133050593Y-74056500D01*
X133050591Y-74056500D01*
X130033886Y-74056500D01*
X129965765Y-74036498D01*
X129919272Y-73982842D01*
X129909168Y-73912568D01*
X129926645Y-73864353D01*
X130011659Y-73726523D01*
X130067392Y-73558333D01*
X130067394Y-73558321D01*
X130067477Y-73557513D01*
X133931000Y-73557513D01*
X133931079Y-73558284D01*
X133931081Y-73558327D01*
X133931084Y-73558327D01*
X133941605Y-73661325D01*
X133941606Y-73661328D01*
X133997340Y-73829523D01*
X134090365Y-73980340D01*
X134090370Y-73980346D01*
X134215653Y-74105629D01*
X134215659Y-74105634D01*
X134366476Y-74198659D01*
X134534668Y-74254392D01*
X134620131Y-74263124D01*
X134627563Y-74265000D01*
X134632070Y-74265000D01*
X134643502Y-74265582D01*
X134649918Y-74265000D01*
X135560000Y-74265000D01*
X136068000Y-74265000D01*
X136997226Y-74265000D01*
X136997242Y-74264999D01*
X137085000Y-74264999D01*
X137593000Y-74264999D01*
X137683275Y-74264999D01*
X137683299Y-74265000D01*
X138610000Y-74265000D01*
X139118000Y-74265000D01*
X140039505Y-74265000D01*
X140114447Y-74257342D01*
X140114457Y-74257343D01*
X140114457Y-74257342D01*
X140143326Y-74254393D01*
X140143334Y-74254392D01*
X140311523Y-74198659D01*
X140462340Y-74105634D01*
X140462346Y-74105629D01*
X140587629Y-73980346D01*
X140587634Y-73980340D01*
X140680659Y-73829523D01*
X140736392Y-73661333D01*
X140736394Y-73661321D01*
X140746999Y-73557519D01*
X140747000Y-73557519D01*
X140747000Y-72486000D01*
X139118000Y-72486000D01*
X139118000Y-74265000D01*
X138610000Y-74265000D01*
X138610000Y-72486000D01*
X137593000Y-72486000D01*
X137593000Y-74264999D01*
X137085000Y-74264999D01*
X137085000Y-72486000D01*
X136068000Y-72486000D01*
X136068000Y-74265000D01*
X135560000Y-74265000D01*
X135560000Y-72486000D01*
X133931000Y-72486000D01*
X133931000Y-73557513D01*
X130067477Y-73557513D01*
X130077999Y-73454519D01*
X130078000Y-73454519D01*
X130078000Y-72383000D01*
X123262000Y-72383000D01*
X123262000Y-72875077D01*
X123241998Y-72943198D01*
X123188342Y-72989691D01*
X123118068Y-72999795D01*
X123053488Y-72970301D01*
X123046905Y-72964172D01*
X122060733Y-71978000D01*
X133931000Y-71978000D01*
X135560000Y-71978000D01*
X136068000Y-71978000D01*
X137085000Y-71978000D01*
X137593000Y-71978000D01*
X138610000Y-71978000D01*
X139118000Y-71978000D01*
X140747000Y-71978000D01*
X140746999Y-70811000D01*
X139118000Y-70811000D01*
X139118000Y-71978000D01*
X138610000Y-71978000D01*
X138610000Y-70811000D01*
X137593000Y-70811000D01*
X137593000Y-71978000D01*
X137085000Y-71978000D01*
X137085000Y-70811000D01*
X136068000Y-70811000D01*
X136068000Y-71978000D01*
X135560000Y-71978000D01*
X135560000Y-70811000D01*
X133931000Y-70811000D01*
X133931000Y-71978000D01*
X122060733Y-71978000D01*
X121957733Y-71875000D01*
X123262000Y-71875000D01*
X124891000Y-71875000D01*
X125399000Y-71875000D01*
X127941000Y-71875000D01*
X128449000Y-71875000D01*
X130078000Y-71875000D01*
X130077999Y-70708000D01*
X128449000Y-70708000D01*
X128449000Y-71875000D01*
X127941000Y-71875000D01*
X127941000Y-70708000D01*
X125399000Y-70708000D01*
X125399000Y-71875000D01*
X124891000Y-71875000D01*
X124891000Y-70708000D01*
X123262000Y-70708000D01*
X123262000Y-71875000D01*
X121957733Y-71875000D01*
X121344110Y-71261377D01*
X121344108Y-71261375D01*
X121240022Y-71191827D01*
X121124369Y-71143922D01*
X121001593Y-71119500D01*
X121001591Y-71119500D01*
X114743591Y-71119500D01*
X114618409Y-71119500D01*
X114618406Y-71119500D01*
X114495630Y-71143922D01*
X114495625Y-71143924D01*
X114379977Y-71191827D01*
X114275896Y-71261372D01*
X114275889Y-71261377D01*
X109346188Y-76191078D01*
X109283876Y-76225104D01*
X109213061Y-76220039D01*
X109156225Y-76177492D01*
X109131414Y-76110972D01*
X109146505Y-76041598D01*
X109147931Y-76039058D01*
X109247724Y-75866212D01*
X109340554Y-75642100D01*
X109403338Y-75407789D01*
X109435000Y-75167288D01*
X109435000Y-74924712D01*
X109403338Y-74684211D01*
X109340554Y-74449900D01*
X109247724Y-74225788D01*
X109247718Y-74225779D01*
X109247717Y-74225775D01*
X109126438Y-74015714D01*
X109126436Y-74015711D01*
X108978765Y-73823262D01*
X108978759Y-73823256D01*
X108978755Y-73823251D01*
X108807248Y-73651744D01*
X108807242Y-73651739D01*
X108807238Y-73651735D01*
X108614789Y-73504064D01*
X108614788Y-73504063D01*
X108614785Y-73504061D01*
X108404724Y-73382782D01*
X108404716Y-73382778D01*
X108404712Y-73382776D01*
X108180600Y-73289946D01*
X108180597Y-73289945D01*
X108180595Y-73289944D01*
X107946282Y-73227160D01*
X107705790Y-73195500D01*
X107705788Y-73195500D01*
X107463212Y-73195500D01*
X107463209Y-73195500D01*
X107222717Y-73227160D01*
X106988404Y-73289944D01*
X106988400Y-73289946D01*
X106764286Y-73382777D01*
X106764275Y-73382782D01*
X106554214Y-73504061D01*
X106361762Y-73651735D01*
X106361751Y-73651744D01*
X106190244Y-73823251D01*
X106190235Y-73823262D01*
X106042561Y-74015714D01*
X105921282Y-74225775D01*
X105921277Y-74225786D01*
X105921276Y-74225788D01*
X105908206Y-74257342D01*
X105828446Y-74449900D01*
X105828444Y-74449904D01*
X105765660Y-74684217D01*
X105734000Y-74924709D01*
X100500500Y-74924709D01*
X100500500Y-70303000D01*
X133931000Y-70303000D01*
X135560000Y-70303000D01*
X136068000Y-70303000D01*
X137085000Y-70303000D01*
X137593000Y-70303000D01*
X138610000Y-70303000D01*
X139118000Y-70303000D01*
X140746999Y-70303000D01*
X140746999Y-70213741D01*
X140747000Y-70213720D01*
X140747000Y-69136000D01*
X139118000Y-69136000D01*
X139118000Y-70303000D01*
X138610000Y-70303000D01*
X138610000Y-69136000D01*
X137593000Y-69136000D01*
X137593000Y-70303000D01*
X137085000Y-70303000D01*
X137085000Y-69136000D01*
X136068000Y-69136000D01*
X136068000Y-70303000D01*
X135560000Y-70303000D01*
X135560000Y-69136000D01*
X133931000Y-69136000D01*
X133931000Y-70303000D01*
X100500500Y-70303000D01*
X100500500Y-70200000D01*
X123262000Y-70200000D01*
X124891000Y-70200000D01*
X125399000Y-70200000D01*
X127941000Y-70200000D01*
X128449000Y-70200000D01*
X130077999Y-70200000D01*
X130077999Y-70110741D01*
X130078000Y-70110720D01*
X130078000Y-69033000D01*
X128449000Y-69033000D01*
X128449000Y-70200000D01*
X127941000Y-70200000D01*
X127941000Y-69033000D01*
X125399000Y-69033000D01*
X125399000Y-70200000D01*
X124891000Y-70200000D01*
X124891000Y-69033000D01*
X123262000Y-69033000D01*
X123262000Y-70200000D01*
X100500500Y-70200000D01*
X100500500Y-66626500D01*
X100520502Y-66558379D01*
X100574158Y-66511886D01*
X100626500Y-66500500D01*
X123899443Y-66500500D01*
X123967564Y-66520502D01*
G37*
%TD.AperFunction*%
%TD*%
M02*
