%TF.GenerationSoftware,KiCad,Pcbnew,8.0.4*%
%TF.CreationDate,2024-08-22T06:11:56+01:00*%
%TF.ProjectId,PicoChainReference,5069636f-4368-4616-996e-526566657265,rev?*%
%TF.SameCoordinates,Original*%
%TF.FileFunction,Copper,L1,Top*%
%TF.FilePolarity,Positive*%
%FSLAX46Y46*%
G04 Gerber Fmt 4.6, Leading zero omitted, Abs format (unit mm)*
G04 Created by KiCad (PCBNEW 8.0.4) date 2024-08-22 06:11:56*
%MOMM*%
%LPD*%
G01*
G04 APERTURE LIST*
G04 Aperture macros list*
%AMRoundRect*
0 Rectangle with rounded corners*
0 $1 Rounding radius*
0 $2 $3 $4 $5 $6 $7 $8 $9 X,Y pos of 4 corners*
0 Add a 4 corners polygon primitive as box body*
4,1,4,$2,$3,$4,$5,$6,$7,$8,$9,$2,$3,0*
0 Add four circle primitives for the rounded corners*
1,1,$1+$1,$2,$3*
1,1,$1+$1,$4,$5*
1,1,$1+$1,$6,$7*
1,1,$1+$1,$8,$9*
0 Add four rect primitives between the rounded corners*
20,1,$1+$1,$2,$3,$4,$5,0*
20,1,$1+$1,$4,$5,$6,$7,0*
20,1,$1+$1,$6,$7,$8,$9,0*
20,1,$1+$1,$8,$9,$2,$3,0*%
G04 Aperture macros list end*
%TA.AperFunction,SMDPad,CuDef*%
%ADD10RoundRect,0.250000X0.412500X0.925000X-0.412500X0.925000X-0.412500X-0.925000X0.412500X-0.925000X0*%
%TD*%
%TA.AperFunction,SMDPad,CuDef*%
%ADD11RoundRect,0.123750X-1.771250X-0.371250X1.771250X-0.371250X1.771250X0.371250X-1.771250X0.371250X0*%
%TD*%
%TA.AperFunction,SMDPad,CuDef*%
%ADD12R,7.620000X10.840000*%
%TD*%
%TA.AperFunction,SMDPad,CuDef*%
%ADD13RoundRect,0.250000X-0.425000X0.450000X-0.425000X-0.450000X0.425000X-0.450000X0.425000X0.450000X0*%
%TD*%
%TA.AperFunction,SMDPad,CuDef*%
%ADD14R,0.250000X1.100000*%
%TD*%
%TA.AperFunction,ComponentPad*%
%ADD15R,1.700000X1.700000*%
%TD*%
%TA.AperFunction,ComponentPad*%
%ADD16O,1.700000X1.700000*%
%TD*%
%TA.AperFunction,ComponentPad*%
%ADD17R,1.500000X1.500000*%
%TD*%
%TA.AperFunction,ComponentPad*%
%ADD18C,1.500000*%
%TD*%
%TA.AperFunction,SMDPad,CuDef*%
%ADD19RoundRect,0.250000X0.350000X-0.850000X0.350000X0.850000X-0.350000X0.850000X-0.350000X-0.850000X0*%
%TD*%
%TA.AperFunction,SMDPad,CuDef*%
%ADD20RoundRect,0.250000X1.125000X-1.275000X1.125000X1.275000X-1.125000X1.275000X-1.125000X-1.275000X0*%
%TD*%
%TA.AperFunction,SMDPad,CuDef*%
%ADD21RoundRect,0.249997X2.650003X-2.950003X2.650003X2.950003X-2.650003X2.950003X-2.650003X-2.950003X0*%
%TD*%
%TA.AperFunction,ViaPad*%
%ADD22C,0.600000*%
%TD*%
%TA.AperFunction,Conductor*%
%ADD23C,0.762000*%
%TD*%
%TA.AperFunction,Conductor*%
%ADD24C,0.254000*%
%TD*%
%TA.AperFunction,Conductor*%
%ADD25C,0.508000*%
%TD*%
G04 APERTURE END LIST*
D10*
%TO.P,C6,1*%
%TO.N,/+12V(R)*%
X141145500Y-91599000D03*
%TO.P,C6,2*%
%TO.N,GND*%
X138070500Y-91599000D03*
%TD*%
D11*
%TO.P,U5,1,GND*%
%TO.N,GND*%
X144638000Y-90075000D03*
%TO.P,U5,2,VO*%
%TO.N,/+12V(R)*%
X144638000Y-92615000D03*
%TO.P,U5,3,VI*%
%TO.N,+24V*%
X144638000Y-95155000D03*
D12*
%TO.P,U5,4*%
%TO.N,N/C*%
X155518000Y-92615000D03*
%TD*%
D13*
%TO.P,C4,1*%
%TO.N,/+5V(M)*%
X127940000Y-79264000D03*
%TO.P,C4,2*%
%TO.N,GND*%
X127940000Y-81964000D03*
%TD*%
D14*
%TO.P,U2,1,V_{DD(A)}*%
%TO.N,+5V*%
X131258000Y-85304000D03*
%TO.P,U2,2,SDA*%
%TO.N,Net-(J5-Pin_1)*%
X131758000Y-85304000D03*
%TO.P,U2,3,EN*%
%TO.N,unconnected-(U2-EN-Pad3)*%
X132258000Y-85304000D03*
%TO.P,U2,4,SCL*%
%TO.N,Net-(J5-Pin_2)*%
X132758000Y-85304000D03*
%TO.P,U2,5,V_{SS}*%
%TO.N,GND*%
X133258000Y-85304000D03*
%TO.P,U2,6,DSCLM*%
%TO.N,Net-(U2-DSCLM)*%
X133258000Y-81004000D03*
%TO.P,U2,7,DSCLP*%
%TO.N,Net-(U2-DSCLP)*%
X132758000Y-81004000D03*
%TO.P,U2,8,DSDAP*%
%TO.N,Net-(U2-DSDAP)*%
X132258000Y-81004000D03*
%TO.P,U2,9,DSDAM*%
%TO.N,Net-(U2-DSDAM)*%
X131758000Y-81004000D03*
%TO.P,U2,10,V_{DD(B)}*%
%TO.N,+5V*%
X131258000Y-81004000D03*
%TD*%
D15*
%TO.P,J3,1,Pin_1*%
%TO.N,/+12V(R)*%
X102651000Y-88165000D03*
D16*
%TO.P,J3,2,Pin_2*%
%TO.N,GND*%
X102651000Y-90705000D03*
%TD*%
D17*
%TO.P,J1,1*%
%TO.N,GND*%
X117744500Y-81396000D03*
D18*
%TO.P,J1,2*%
%TO.N,+24V*%
X116474500Y-83936000D03*
%TO.P,J1,3*%
%TO.N,Net-(U2-DSCLM)*%
X115204500Y-81396000D03*
%TO.P,J1,4*%
%TO.N,Net-(U2-DSCLP)*%
X113934500Y-83936000D03*
%TO.P,J1,5*%
%TO.N,Net-(U2-DSDAP)*%
X112664500Y-81396000D03*
%TO.P,J1,6*%
%TO.N,Net-(U2-DSDAM)*%
X111394500Y-83936000D03*
%TO.P,J1,7*%
%TO.N,GND*%
X110124500Y-81396000D03*
%TO.P,J1,8*%
%TO.N,+12V*%
X108854500Y-83936000D03*
%TD*%
D13*
%TO.P,C1,1*%
%TO.N,+12V*%
X124384000Y-79264000D03*
%TO.P,C1,2*%
%TO.N,GND*%
X124384000Y-81964000D03*
%TD*%
D15*
%TO.P,J6,1,Pin_1*%
%TO.N,+5V*%
X102651000Y-78894000D03*
D16*
%TO.P,J6,2,Pin_2*%
%TO.N,GND*%
X102651000Y-81434000D03*
%TD*%
D13*
%TO.P,C3,1*%
%TO.N,+12V*%
X136068000Y-79518000D03*
%TO.P,C3,2*%
%TO.N,GND*%
X136068000Y-82218000D03*
%TD*%
%TO.P,C2,1*%
%TO.N,+5V*%
X139624000Y-79518000D03*
%TO.P,C2,2*%
%TO.N,GND*%
X139624000Y-82218000D03*
%TD*%
D19*
%TO.P,U3,1,VI*%
%TO.N,+12V*%
X135059000Y-76857000D03*
D20*
%TO.P,U3,2,GND*%
%TO.N,GND*%
X135814000Y-72232000D03*
X138864000Y-72232000D03*
D21*
X137339000Y-70557000D03*
D20*
X135814000Y-68882000D03*
X138864000Y-68882000D03*
D19*
%TO.P,U3,3,VO*%
%TO.N,+5V*%
X139619000Y-76857000D03*
%TD*%
D10*
%TO.P,C5,1*%
%TO.N,+24V*%
X141145500Y-96425000D03*
%TO.P,C5,2*%
%TO.N,GND*%
X138070500Y-96425000D03*
%TD*%
D15*
%TO.P,J5,1,Pin_1*%
%TO.N,Net-(J5-Pin_1)*%
X129951000Y-89186000D03*
D16*
%TO.P,J5,2,Pin_2*%
%TO.N,Net-(J5-Pin_2)*%
X132491000Y-89186000D03*
%TD*%
D17*
%TO.P,J2,1*%
%TO.N,GND*%
X155844500Y-81396000D03*
D18*
%TO.P,J2,2*%
%TO.N,+24V*%
X154574500Y-83936000D03*
%TO.P,J2,3*%
%TO.N,Net-(U2-DSCLM)*%
X153304500Y-81396000D03*
%TO.P,J2,4*%
%TO.N,Net-(U2-DSCLP)*%
X152034500Y-83936000D03*
%TO.P,J2,5*%
%TO.N,Net-(U2-DSDAP)*%
X150764500Y-81396000D03*
%TO.P,J2,6*%
%TO.N,Net-(U2-DSDAM)*%
X149494500Y-83936000D03*
%TO.P,J2,7*%
%TO.N,GND*%
X148224500Y-81396000D03*
%TO.P,J2,8*%
%TO.N,+12V*%
X146954500Y-83936000D03*
%TD*%
D19*
%TO.P,U4,1,VI*%
%TO.N,+12V*%
X124390000Y-76754000D03*
D20*
%TO.P,U4,2,GND*%
%TO.N,GND*%
X125145000Y-72129000D03*
X128195000Y-72129000D03*
D21*
X126670000Y-70454000D03*
D20*
X125145000Y-68779000D03*
X128195000Y-68779000D03*
D19*
%TO.P,U4,3,VO*%
%TO.N,/+5V(M)*%
X128950000Y-76754000D03*
%TD*%
D15*
%TO.P,J4,1,Pin_1*%
%TO.N,/+5V(M)*%
X102651000Y-70131000D03*
D16*
%TO.P,J4,2,Pin_2*%
%TO.N,GND*%
X102651000Y-72671000D03*
%TD*%
D22*
%TO.N,/+5V(M)*%
X126319000Y-75865000D03*
%TO.N,+5V*%
X137785000Y-76700000D03*
%TO.N,+12V*%
X143894750Y-86995750D03*
%TO.N,Net-(U2-DSDAP)*%
X121031000Y-78486000D03*
X147870500Y-78502000D03*
X133020000Y-78582000D03*
%TO.N,Net-(U2-DSDAM)*%
X121031000Y-77470000D03*
X142330500Y-77486000D03*
X133020000Y-77566000D03*
%TO.N,Net-(U2-DSCLM)*%
X133258000Y-82709000D03*
%TO.N,Net-(U2-DSCLP)*%
X121031000Y-79502000D03*
X153578000Y-79534000D03*
X133020000Y-79492000D03*
%TO.N,/+12V(R)*%
X136560000Y-93758000D03*
%TD*%
D23*
%TO.N,/+5V(M)*%
X127162000Y-76708000D02*
X128916000Y-76708000D01*
X126319000Y-75865000D02*
X127162000Y-76708000D01*
X128950000Y-78254000D02*
X127940000Y-79264000D01*
X128950000Y-76754000D02*
X128950000Y-78254000D01*
D24*
%TO.N,GND*%
X138070500Y-88794500D02*
X138070500Y-91599000D01*
X133258000Y-85304000D02*
X134580000Y-85304000D01*
X134580000Y-85304000D02*
X138070500Y-88794500D01*
D25*
%TO.N,+5V*%
X141132000Y-83344000D02*
X141132000Y-81002000D01*
X137793000Y-76708000D02*
X139470000Y-76708000D01*
D24*
X139624000Y-79438000D02*
X139624000Y-79494000D01*
X131258000Y-80924000D02*
X131258000Y-83328000D01*
D25*
X131258000Y-83328000D02*
X131930000Y-84000000D01*
D24*
X131258000Y-83328000D02*
X131258000Y-85224000D01*
X139624000Y-79772000D02*
X139624000Y-79438000D01*
D25*
X139624000Y-79438000D02*
X139624000Y-76782000D01*
X140476000Y-84000000D02*
X141132000Y-83344000D01*
X141132000Y-81002000D02*
X139624000Y-79494000D01*
X137785000Y-76700000D02*
X137793000Y-76708000D01*
X131930000Y-84000000D02*
X140476000Y-84000000D01*
D23*
%TO.N,+12V*%
X114681000Y-71755000D02*
X107061000Y-79375000D01*
X143894750Y-86995750D02*
X146954500Y-83936000D01*
X124390000Y-74698000D02*
X124390000Y-76674000D01*
X123876000Y-74692000D02*
X120939000Y-71755000D01*
D25*
X136068000Y-77786000D02*
X135059000Y-76777000D01*
D23*
X124384000Y-79184000D02*
X124384000Y-76680000D01*
X135059000Y-76777000D02*
X132988000Y-74706000D01*
D25*
X124384000Y-76680000D02*
X124390000Y-76674000D01*
D23*
X107061000Y-79375000D02*
X107061000Y-82142500D01*
X132988000Y-74692000D02*
X123876000Y-74692000D01*
X120939000Y-71755000D02*
X114681000Y-71755000D01*
D25*
X136068000Y-79438000D02*
X136068000Y-77786000D01*
D23*
X132988000Y-74706000D02*
X132988000Y-74692000D01*
X107061000Y-82142500D02*
X108854500Y-83936000D01*
D24*
%TO.N,Net-(J5-Pin_2)*%
X132758000Y-85304000D02*
X132758000Y-86638000D01*
D25*
X132491000Y-86905000D02*
X132496000Y-86900000D01*
X132491000Y-89186000D02*
X132491000Y-86905000D01*
D24*
X132758000Y-86638000D02*
X132496000Y-86900000D01*
D25*
%TO.N,Net-(U2-DSDAP)*%
X147870500Y-78502000D02*
X150764500Y-81396000D01*
D24*
X132258000Y-80924000D02*
X132258000Y-79264000D01*
X132258000Y-79264000D02*
X133020000Y-78502000D01*
D25*
X121015000Y-78502000D02*
X114986000Y-78502000D01*
X114986000Y-78502000D02*
X112664500Y-80823500D01*
%TO.N,Net-(U2-DSDAM)*%
X114535814Y-77486000D02*
X111394500Y-80627314D01*
X111394500Y-80627314D02*
X111394500Y-83856000D01*
X142330500Y-77486000D02*
X148700500Y-83856000D01*
D24*
X131758000Y-80924000D02*
X131758000Y-78748000D01*
D25*
X148700500Y-83856000D02*
X149494500Y-83856000D01*
X121015000Y-77486000D02*
X114535814Y-77486000D01*
D24*
X131758000Y-78748000D02*
X133020000Y-77486000D01*
%TO.N,Net-(U2-DSCLM)*%
X133258000Y-81004000D02*
X133258000Y-82709000D01*
D25*
%TO.N,Net-(U2-DSCLP)*%
X154508500Y-82159500D02*
X152812000Y-83856000D01*
X113934500Y-80883286D02*
X113934500Y-83856000D01*
X152812000Y-83856000D02*
X152467214Y-83856000D01*
X154508500Y-80464500D02*
X154508500Y-82159500D01*
X153578000Y-79534000D02*
X154508500Y-80464500D01*
X115283786Y-79534000D02*
X113934500Y-80883286D01*
D24*
X132758000Y-80924000D02*
X132758000Y-79674000D01*
D25*
X120999000Y-79534000D02*
X115283786Y-79534000D01*
D24*
X132758000Y-79674000D02*
X133020000Y-79412000D01*
%TO.N,Net-(J5-Pin_1)*%
X131758000Y-86133000D02*
X131499000Y-86392000D01*
X131758000Y-85304000D02*
X131758000Y-86133000D01*
X131499000Y-86392000D02*
X129956000Y-86392000D01*
D25*
X129951000Y-89186000D02*
X129951000Y-86397000D01*
X129951000Y-86397000D02*
X129956000Y-86392000D01*
D23*
%TO.N,+24V*%
X146085000Y-95155000D02*
X144638000Y-95155000D01*
X148244000Y-92996000D02*
X146085000Y-95155000D01*
X154574500Y-83936000D02*
X152277500Y-86233000D01*
X148244000Y-87408000D02*
X148244000Y-92996000D01*
X144688000Y-95125000D02*
X144638000Y-95075000D01*
X144638000Y-95155000D02*
X142415500Y-95155000D01*
X142415500Y-95155000D02*
X141145500Y-96425000D01*
X149419000Y-86233000D02*
X148244000Y-87408000D01*
X152277500Y-86233000D02*
X149419000Y-86233000D01*
%TO.N,/+12V(R)*%
X138986500Y-93758000D02*
X141145500Y-91599000D01*
X136560000Y-93758000D02*
X138986500Y-93758000D01*
X144638000Y-92615000D02*
X142161500Y-92615000D01*
X142161500Y-92615000D02*
X141145500Y-91599000D01*
%TD*%
%TA.AperFunction,Conductor*%
%TO.N,GND*%
G36*
X123967564Y-66520502D02*
G01*
X124014057Y-66574158D01*
X124024161Y-66644432D01*
X123994667Y-66709012D01*
X123934941Y-66747396D01*
X123912249Y-66751848D01*
X123894542Y-66753657D01*
X123894541Y-66753657D01*
X123865672Y-66756606D01*
X123697476Y-66812340D01*
X123546659Y-66905365D01*
X123546653Y-66905370D01*
X123421370Y-67030653D01*
X123421365Y-67030659D01*
X123328340Y-67181476D01*
X123272607Y-67349666D01*
X123272605Y-67349678D01*
X123262000Y-67453480D01*
X123262000Y-68525000D01*
X130078000Y-68525000D01*
X130078000Y-67556480D01*
X133931000Y-67556480D01*
X133931000Y-68628000D01*
X135560000Y-68628000D01*
X136068000Y-68628000D01*
X137085000Y-68628000D01*
X137593000Y-68628000D01*
X138610000Y-68628000D01*
X139118000Y-68628000D01*
X140747000Y-68628000D01*
X140747000Y-67556492D01*
X140739342Y-67481542D01*
X140739341Y-67481534D01*
X140736394Y-67452673D01*
X140736392Y-67452665D01*
X140680659Y-67284476D01*
X140587634Y-67133659D01*
X140587629Y-67133653D01*
X140462346Y-67008370D01*
X140462340Y-67008365D01*
X140311523Y-66915340D01*
X140143333Y-66859607D01*
X140143321Y-66859605D01*
X140039519Y-66849000D01*
X139118000Y-66849000D01*
X139118000Y-68628000D01*
X138610000Y-68628000D01*
X138610000Y-66849000D01*
X137593000Y-66849000D01*
X137593000Y-68628000D01*
X137085000Y-68628000D01*
X137085000Y-66849000D01*
X136068000Y-66849000D01*
X136068000Y-68628000D01*
X135560000Y-68628000D01*
X135560000Y-66849000D01*
X134638492Y-66849000D01*
X134563542Y-66856657D01*
X134563541Y-66856657D01*
X134534672Y-66859606D01*
X134366476Y-66915340D01*
X134215659Y-67008365D01*
X134215653Y-67008370D01*
X134090370Y-67133653D01*
X134090365Y-67133659D01*
X133997340Y-67284476D01*
X133941607Y-67452666D01*
X133941605Y-67452678D01*
X133931000Y-67556480D01*
X130078000Y-67556480D01*
X130078000Y-67453491D01*
X130068046Y-67356058D01*
X130067871Y-67352630D01*
X130067393Y-67349670D01*
X130011659Y-67181476D01*
X129918634Y-67030659D01*
X129918629Y-67030653D01*
X129793346Y-66905370D01*
X129793340Y-66905365D01*
X129642523Y-66812340D01*
X129474333Y-66756607D01*
X129474321Y-66756605D01*
X129427748Y-66751847D01*
X129362013Y-66725025D01*
X129321215Y-66666922D01*
X129318306Y-66595985D01*
X129354210Y-66534736D01*
X129417528Y-66502622D01*
X129440555Y-66500500D01*
X159373500Y-66500500D01*
X159441621Y-66520502D01*
X159488114Y-66574158D01*
X159499500Y-66626500D01*
X159499500Y-86816095D01*
X159479498Y-86884216D01*
X159425842Y-86930709D01*
X159359312Y-86940274D01*
X159359231Y-86941107D01*
X159355843Y-86940773D01*
X159355568Y-86940813D01*
X159354651Y-86940656D01*
X159353067Y-86940500D01*
X159353066Y-86940500D01*
X152772922Y-86940500D01*
X152704801Y-86920498D01*
X152658308Y-86866842D01*
X152648204Y-86796568D01*
X152677698Y-86731988D01*
X152683813Y-86725419D01*
X154431654Y-84977577D01*
X154493964Y-84943554D01*
X154533094Y-84941281D01*
X154574500Y-84945360D01*
X154574501Y-84945359D01*
X154574502Y-84945360D01*
X154574503Y-84945360D01*
X154771409Y-84925966D01*
X154771410Y-84925965D01*
X154771416Y-84925965D01*
X154960765Y-84868527D01*
X155135270Y-84775252D01*
X155288225Y-84649725D01*
X155413752Y-84496770D01*
X155507027Y-84322265D01*
X155564465Y-84132916D01*
X155566491Y-84112352D01*
X155583860Y-83936002D01*
X155583860Y-83935997D01*
X155564466Y-83739090D01*
X155564465Y-83739088D01*
X155564465Y-83739084D01*
X155507027Y-83549735D01*
X155413752Y-83375230D01*
X155288225Y-83222275D01*
X155135270Y-83096748D01*
X154960765Y-83003473D01*
X154771416Y-82946035D01*
X154771415Y-82946034D01*
X154771409Y-82946033D01*
X154735829Y-82942529D01*
X154669997Y-82915946D01*
X154628987Y-82857991D01*
X154625821Y-82787065D01*
X154659083Y-82728044D01*
X154749142Y-82637985D01*
X154811451Y-82603961D01*
X154882266Y-82609026D01*
X154985405Y-82647494D01*
X155045902Y-82653999D01*
X155045915Y-82654000D01*
X155590500Y-82654000D01*
X155590500Y-81679401D01*
X155611175Y-81700076D01*
X155697825Y-81750104D01*
X155794472Y-81776000D01*
X155894528Y-81776000D01*
X155991175Y-81750104D01*
X156077825Y-81700076D01*
X156098500Y-81679401D01*
X156098500Y-82654000D01*
X156643085Y-82654000D01*
X156643097Y-82653999D01*
X156703593Y-82647494D01*
X156840464Y-82596444D01*
X156840465Y-82596444D01*
X156957404Y-82508904D01*
X157044944Y-82391965D01*
X157044944Y-82391964D01*
X157095994Y-82255093D01*
X157102499Y-82194597D01*
X157102500Y-82194585D01*
X157102500Y-81650000D01*
X156127901Y-81650000D01*
X156148576Y-81629325D01*
X156198604Y-81542675D01*
X156224500Y-81446028D01*
X156224500Y-81345972D01*
X156198604Y-81249325D01*
X156148576Y-81162675D01*
X156127901Y-81142000D01*
X157102500Y-81142000D01*
X157102500Y-80597414D01*
X157102499Y-80597402D01*
X157095994Y-80536906D01*
X157044944Y-80400035D01*
X157044944Y-80400034D01*
X156957404Y-80283095D01*
X156840465Y-80195555D01*
X156703593Y-80144505D01*
X156643097Y-80138000D01*
X156098500Y-80138000D01*
X156098500Y-81112599D01*
X156077825Y-81091924D01*
X155991175Y-81041896D01*
X155894528Y-81016000D01*
X155794472Y-81016000D01*
X155697825Y-81041896D01*
X155611175Y-81091924D01*
X155590500Y-81112599D01*
X155590500Y-80138000D01*
X155045902Y-80138000D01*
X154977570Y-80145348D01*
X154977262Y-80142486D01*
X154919951Y-80139398D01*
X154872810Y-80109683D01*
X154111805Y-79348678D01*
X154084491Y-79307800D01*
X154062356Y-79254360D01*
X154062355Y-79254359D01*
X154062355Y-79254358D01*
X153973474Y-79138526D01*
X153973472Y-79138524D01*
X153973471Y-79138523D01*
X153857649Y-79049649D01*
X153857641Y-79049644D01*
X153722752Y-78993771D01*
X153578000Y-78974715D01*
X153433247Y-78993771D01*
X153370542Y-79019745D01*
X153298358Y-79049645D01*
X153298357Y-79049646D01*
X153298356Y-79049646D01*
X153182526Y-79138526D01*
X153093646Y-79254356D01*
X153093645Y-79254358D01*
X153069599Y-79312409D01*
X153037771Y-79389247D01*
X153018715Y-79533999D01*
X153018715Y-79534000D01*
X153037771Y-79678752D01*
X153093644Y-79813641D01*
X153093649Y-79813649D01*
X153182525Y-79929474D01*
X153298350Y-80018350D01*
X153298357Y-80018355D01*
X153351800Y-80040492D01*
X153392676Y-80067805D01*
X153506973Y-80182102D01*
X153540999Y-80244414D01*
X153535934Y-80315229D01*
X153493387Y-80372065D01*
X153426867Y-80396876D01*
X153405528Y-80396590D01*
X153304503Y-80386640D01*
X153304497Y-80386640D01*
X153107590Y-80406033D01*
X152918234Y-80463473D01*
X152743729Y-80556748D01*
X152590775Y-80682275D01*
X152465248Y-80835229D01*
X152371973Y-81009734D01*
X152314533Y-81199090D01*
X152295140Y-81395997D01*
X152295140Y-81396002D01*
X152314533Y-81592909D01*
X152314534Y-81592915D01*
X152314535Y-81592916D01*
X152371973Y-81782265D01*
X152465248Y-81956770D01*
X152590775Y-82109725D01*
X152743730Y-82235252D01*
X152918235Y-82328527D01*
X153107584Y-82385965D01*
X153107589Y-82385965D01*
X153107591Y-82385966D01*
X153164294Y-82391550D01*
X153256960Y-82400677D01*
X153322792Y-82427259D01*
X153363802Y-82485213D01*
X153366970Y-82556139D01*
X153333705Y-82615165D01*
X152817096Y-83131774D01*
X152754784Y-83165800D01*
X152683969Y-83160735D01*
X152648067Y-83140078D01*
X152637890Y-83131726D01*
X152595270Y-83096748D01*
X152420765Y-83003473D01*
X152231416Y-82946035D01*
X152231415Y-82946034D01*
X152231409Y-82946033D01*
X152034503Y-82926640D01*
X152034497Y-82926640D01*
X151837590Y-82946033D01*
X151648234Y-83003473D01*
X151473729Y-83096748D01*
X151320775Y-83222275D01*
X151195248Y-83375229D01*
X151101973Y-83549734D01*
X151044533Y-83739090D01*
X151025140Y-83935997D01*
X151025140Y-83936002D01*
X151044533Y-84132909D01*
X151044534Y-84132915D01*
X151044535Y-84132916D01*
X151101973Y-84322265D01*
X151195248Y-84496770D01*
X151320775Y-84649725D01*
X151473730Y-84775252D01*
X151648235Y-84868527D01*
X151837584Y-84925965D01*
X151837588Y-84925965D01*
X151837590Y-84925966D01*
X152034497Y-84945360D01*
X152034500Y-84945360D01*
X152034503Y-84945360D01*
X152231412Y-84925966D01*
X152231414Y-84925965D01*
X152231416Y-84925965D01*
X152402297Y-84874128D01*
X152473290Y-84873495D01*
X152533356Y-84911344D01*
X152563424Y-84975659D01*
X152553948Y-85046020D01*
X152527968Y-85083798D01*
X152365459Y-85246308D01*
X152051170Y-85560596D01*
X151988860Y-85594620D01*
X151962077Y-85597500D01*
X149356406Y-85597500D01*
X149233630Y-85621922D01*
X149233625Y-85621924D01*
X149117977Y-85669827D01*
X149013896Y-85739372D01*
X149013889Y-85739377D01*
X147750377Y-87002889D01*
X147750372Y-87002896D01*
X147680827Y-87106977D01*
X147632924Y-87222625D01*
X147632922Y-87222630D01*
X147608500Y-87345406D01*
X147608500Y-92680576D01*
X147588498Y-92748697D01*
X147571595Y-92769671D01*
X145972671Y-94368595D01*
X145910359Y-94402621D01*
X145883576Y-94405500D01*
X142830855Y-94405500D01*
X142768041Y-94414651D01*
X142757329Y-94416212D01*
X142757328Y-94416212D01*
X142757324Y-94416213D01*
X142643921Y-94471652D01*
X142643917Y-94471655D01*
X142632978Y-94482595D01*
X142570666Y-94516621D01*
X142543883Y-94519500D01*
X142352906Y-94519500D01*
X142230130Y-94543922D01*
X142230125Y-94543924D01*
X142114477Y-94591827D01*
X142010393Y-94661374D01*
X142010391Y-94661375D01*
X141712096Y-94959670D01*
X141649784Y-94993695D01*
X141609532Y-94995852D01*
X141606257Y-94995500D01*
X140684753Y-94995500D01*
X140684729Y-94995502D01*
X140624660Y-95001959D01*
X140624658Y-95001959D01*
X140488733Y-95052657D01*
X140372596Y-95139596D01*
X140285657Y-95255734D01*
X140234962Y-95391650D01*
X140234960Y-95391658D01*
X140228500Y-95451737D01*
X140228500Y-97398246D01*
X140228502Y-97398270D01*
X140234959Y-97458339D01*
X140234959Y-97458341D01*
X140285657Y-97594266D01*
X140285658Y-97594267D01*
X140372596Y-97710404D01*
X140488733Y-97797342D01*
X140624658Y-97848040D01*
X140684745Y-97854500D01*
X141606254Y-97854499D01*
X141666342Y-97848040D01*
X141802267Y-97797342D01*
X141918404Y-97710404D01*
X142005342Y-97594267D01*
X142056040Y-97458342D01*
X142062500Y-97398255D01*
X142062499Y-96458921D01*
X142082501Y-96390801D01*
X142099399Y-96369832D01*
X142571554Y-95897677D01*
X142633864Y-95863653D01*
X142704679Y-95868718D01*
X142715986Y-95873577D01*
X142734782Y-95882765D01*
X142757329Y-95893788D01*
X142830853Y-95904500D01*
X146445146Y-95904499D01*
X146518671Y-95893788D01*
X146560013Y-95873577D01*
X146632078Y-95838347D01*
X146632082Y-95838344D01*
X146721344Y-95749082D01*
X146721345Y-95749081D01*
X146776788Y-95635671D01*
X146787500Y-95562147D01*
X146787499Y-95403422D01*
X146807501Y-95335302D01*
X146824395Y-95314336D01*
X148737625Y-93401108D01*
X148807173Y-93297022D01*
X148855078Y-93181369D01*
X148879500Y-93058591D01*
X148879500Y-92933409D01*
X148879500Y-87723423D01*
X148899502Y-87655302D01*
X148916405Y-87634328D01*
X149645328Y-86905405D01*
X149707640Y-86871379D01*
X149734423Y-86868500D01*
X151384346Y-86868500D01*
X151452467Y-86888502D01*
X151498960Y-86942158D01*
X151509064Y-87012432D01*
X151489111Y-87064503D01*
X151468265Y-87095699D01*
X151453500Y-87169930D01*
X151453500Y-98060063D01*
X151453501Y-98060072D01*
X151468265Y-98134300D01*
X151524516Y-98218484D01*
X151608697Y-98274733D01*
X151608699Y-98274734D01*
X151682933Y-98289500D01*
X159353066Y-98289499D01*
X159353068Y-98289498D01*
X159359229Y-98288892D01*
X159359462Y-98291268D01*
X159419627Y-98296650D01*
X159475696Y-98340202D01*
X159499319Y-98407153D01*
X159499500Y-98413903D01*
X159499500Y-99373500D01*
X159479498Y-99441621D01*
X159425842Y-99488114D01*
X159373500Y-99499500D01*
X100626500Y-99499500D01*
X100558379Y-99479498D01*
X100511886Y-99425842D01*
X100500500Y-99373500D01*
X100500500Y-97400516D01*
X136900000Y-97400516D01*
X136910605Y-97504318D01*
X136910606Y-97504321D01*
X136966342Y-97672525D01*
X137059365Y-97823339D01*
X137059370Y-97823345D01*
X137184654Y-97948629D01*
X137184660Y-97948634D01*
X137335474Y-98041657D01*
X137503678Y-98097393D01*
X137503681Y-98097394D01*
X137607483Y-98107999D01*
X137607483Y-98108000D01*
X137816500Y-98108000D01*
X138324500Y-98108000D01*
X138533517Y-98108000D01*
X138533516Y-98107999D01*
X138637318Y-98097394D01*
X138637321Y-98097393D01*
X138805525Y-98041657D01*
X138956339Y-97948634D01*
X138956345Y-97948629D01*
X139081629Y-97823345D01*
X139081634Y-97823339D01*
X139174657Y-97672525D01*
X139230393Y-97504321D01*
X139230394Y-97504318D01*
X139240999Y-97400516D01*
X139241000Y-97400516D01*
X139241000Y-96679000D01*
X138324500Y-96679000D01*
X138324500Y-98108000D01*
X137816500Y-98108000D01*
X137816500Y-96679000D01*
X136900000Y-96679000D01*
X136900000Y-97400516D01*
X100500500Y-97400516D01*
X100500500Y-95449483D01*
X136900000Y-95449483D01*
X136900000Y-96171000D01*
X137816500Y-96171000D01*
X138324500Y-96171000D01*
X139241000Y-96171000D01*
X139241000Y-95449483D01*
X139230394Y-95345681D01*
X139230393Y-95345678D01*
X139174657Y-95177474D01*
X139081634Y-95026660D01*
X139081629Y-95026654D01*
X138956345Y-94901370D01*
X138956339Y-94901365D01*
X138805525Y-94808342D01*
X138637321Y-94752606D01*
X138637318Y-94752605D01*
X138533516Y-94742000D01*
X138324500Y-94742000D01*
X138324500Y-96171000D01*
X137816500Y-96171000D01*
X137816500Y-94742000D01*
X137607483Y-94742000D01*
X137503681Y-94752605D01*
X137503678Y-94752606D01*
X137335474Y-94808342D01*
X137184660Y-94901365D01*
X137184654Y-94901370D01*
X137059370Y-95026654D01*
X137059365Y-95026660D01*
X136966342Y-95177474D01*
X136910606Y-95345678D01*
X136910605Y-95345681D01*
X136900000Y-95449483D01*
X100500500Y-95449483D01*
X100500500Y-93695406D01*
X135924500Y-93695406D01*
X135924500Y-93695409D01*
X135924500Y-93820591D01*
X135948922Y-93943369D01*
X135996827Y-94059022D01*
X136066375Y-94163108D01*
X136154892Y-94251625D01*
X136258978Y-94321173D01*
X136374631Y-94369078D01*
X136497409Y-94393500D01*
X136497410Y-94393500D01*
X139049090Y-94393500D01*
X139049091Y-94393500D01*
X139171869Y-94369078D01*
X139287522Y-94321173D01*
X139391608Y-94251625D01*
X140578904Y-93064327D01*
X140641213Y-93030305D01*
X140681472Y-93028148D01*
X140684745Y-93028500D01*
X141606254Y-93028499D01*
X141609523Y-93028147D01*
X141679390Y-93040746D01*
X141712096Y-93064329D01*
X141756392Y-93108625D01*
X141860478Y-93178173D01*
X141976131Y-93226078D01*
X142098909Y-93250500D01*
X142224091Y-93250500D01*
X142543883Y-93250500D01*
X142612004Y-93270502D01*
X142632978Y-93287405D01*
X142643917Y-93298344D01*
X142643919Y-93298345D01*
X142757329Y-93353788D01*
X142830853Y-93364500D01*
X146445146Y-93364499D01*
X146518671Y-93353788D01*
X146527409Y-93349515D01*
X146632078Y-93298347D01*
X146632082Y-93298344D01*
X146721344Y-93209082D01*
X146721345Y-93209081D01*
X146776788Y-93095671D01*
X146787500Y-93022147D01*
X146787499Y-92207854D01*
X146776788Y-92134329D01*
X146776786Y-92134324D01*
X146721347Y-92020921D01*
X146721344Y-92020917D01*
X146632082Y-91931655D01*
X146632080Y-91931654D01*
X146518673Y-91876213D01*
X146518671Y-91876212D01*
X146445147Y-91865500D01*
X146445145Y-91865500D01*
X142830855Y-91865500D01*
X142768041Y-91874651D01*
X142757329Y-91876212D01*
X142757328Y-91876212D01*
X142757324Y-91876213D01*
X142643921Y-91931652D01*
X142643917Y-91931655D01*
X142632978Y-91942595D01*
X142570666Y-91976621D01*
X142543883Y-91979500D01*
X142476923Y-91979500D01*
X142408802Y-91959498D01*
X142387828Y-91942595D01*
X142099404Y-91654171D01*
X142065378Y-91591859D01*
X142062499Y-91565076D01*
X142062499Y-90787972D01*
X142082501Y-90719851D01*
X142136157Y-90673358D01*
X142206431Y-90663254D01*
X142271011Y-90692748D01*
X142296953Y-90723833D01*
X142363603Y-90836533D01*
X142476465Y-90949395D01*
X142476469Y-90949398D01*
X142613855Y-91030648D01*
X142767138Y-91075181D01*
X142802946Y-91078000D01*
X144384000Y-91078000D01*
X144892000Y-91078000D01*
X146473054Y-91078000D01*
X146508861Y-91075181D01*
X146662144Y-91030648D01*
X146799530Y-90949398D01*
X146799534Y-90949395D01*
X146912395Y-90836534D01*
X146912398Y-90836530D01*
X146993648Y-90699144D01*
X147038181Y-90545861D01*
X147041000Y-90510054D01*
X147041000Y-90329000D01*
X144892000Y-90329000D01*
X144892000Y-91078000D01*
X144384000Y-91078000D01*
X144384000Y-90329000D01*
X142235000Y-90329000D01*
X142235000Y-90357951D01*
X142214998Y-90426072D01*
X142161342Y-90472565D01*
X142091068Y-90482669D01*
X142026488Y-90453175D01*
X142008131Y-90433459D01*
X141918404Y-90313596D01*
X141887551Y-90290500D01*
X141802267Y-90226658D01*
X141802265Y-90226657D01*
X141802266Y-90226657D01*
X141666349Y-90175962D01*
X141666344Y-90175960D01*
X141666342Y-90175960D01*
X141636298Y-90172730D01*
X141606256Y-90169500D01*
X140684753Y-90169500D01*
X140684729Y-90169502D01*
X140624660Y-90175959D01*
X140624658Y-90175959D01*
X140488733Y-90226657D01*
X140372596Y-90313596D01*
X140285657Y-90429734D01*
X140234962Y-90565650D01*
X140234960Y-90565658D01*
X140228500Y-90625737D01*
X140228500Y-91565075D01*
X140208498Y-91633196D01*
X140191595Y-91654170D01*
X139456095Y-92389670D01*
X139393783Y-92423696D01*
X139322968Y-92418631D01*
X139266132Y-92376084D01*
X139241321Y-92309564D01*
X139241000Y-92300575D01*
X139241000Y-91853000D01*
X136900000Y-91853000D01*
X136900000Y-92574516D01*
X136910605Y-92678318D01*
X136910606Y-92678321D01*
X136966342Y-92846525D01*
X137018048Y-92930353D01*
X137036785Y-92998833D01*
X137015526Y-93066571D01*
X136961018Y-93112063D01*
X136910807Y-93122500D01*
X136497406Y-93122500D01*
X136374630Y-93146922D01*
X136374625Y-93146924D01*
X136258977Y-93194827D01*
X136154896Y-93264372D01*
X136154889Y-93264377D01*
X136066377Y-93352889D01*
X136066372Y-93352896D01*
X135996827Y-93456977D01*
X135948924Y-93572625D01*
X135948922Y-93572630D01*
X135924500Y-93695406D01*
X100500500Y-93695406D01*
X100500500Y-90450999D01*
X101314455Y-90450999D01*
X101314456Y-90451000D01*
X102220297Y-90451000D01*
X102185075Y-90512007D01*
X102151000Y-90639174D01*
X102151000Y-90770826D01*
X102185075Y-90897993D01*
X102220297Y-90959000D01*
X101314455Y-90959000D01*
X101362176Y-91147449D01*
X101362179Y-91147456D01*
X101452580Y-91353548D01*
X101575674Y-91541958D01*
X101728097Y-91707534D01*
X101905698Y-91845767D01*
X101905699Y-91845768D01*
X102103628Y-91952882D01*
X102103630Y-91952883D01*
X102316483Y-92025955D01*
X102316492Y-92025957D01*
X102397000Y-92039391D01*
X102397000Y-91135702D01*
X102458007Y-91170925D01*
X102585174Y-91205000D01*
X102716826Y-91205000D01*
X102843993Y-91170925D01*
X102905000Y-91135702D01*
X102905000Y-92039390D01*
X102985507Y-92025957D01*
X102985516Y-92025955D01*
X103198369Y-91952883D01*
X103198371Y-91952882D01*
X103396300Y-91845768D01*
X103396301Y-91845767D01*
X103573902Y-91707534D01*
X103726325Y-91541958D01*
X103849419Y-91353548D01*
X103939820Y-91147456D01*
X103939823Y-91147449D01*
X103987544Y-90959000D01*
X103081703Y-90959000D01*
X103116925Y-90897993D01*
X103151000Y-90770826D01*
X103151000Y-90639174D01*
X103146796Y-90623483D01*
X136900000Y-90623483D01*
X136900000Y-91345000D01*
X137816500Y-91345000D01*
X138324500Y-91345000D01*
X139241000Y-91345000D01*
X139241000Y-90623483D01*
X139230394Y-90519681D01*
X139230393Y-90519678D01*
X139174657Y-90351474D01*
X139081634Y-90200660D01*
X139081629Y-90200654D01*
X138956345Y-90075370D01*
X138956339Y-90075365D01*
X138805525Y-89982342D01*
X138637321Y-89926606D01*
X138637318Y-89926605D01*
X138533516Y-89916000D01*
X138324500Y-89916000D01*
X138324500Y-91345000D01*
X137816500Y-91345000D01*
X137816500Y-89916000D01*
X137607483Y-89916000D01*
X137503681Y-89926605D01*
X137503678Y-89926606D01*
X137335474Y-89982342D01*
X137184660Y-90075365D01*
X137184654Y-90075370D01*
X137059370Y-90200654D01*
X137059365Y-90200660D01*
X136966342Y-90351474D01*
X136910606Y-90519678D01*
X136910605Y-90519681D01*
X136900000Y-90623483D01*
X103146796Y-90623483D01*
X103116925Y-90512007D01*
X103081703Y-90451000D01*
X103987544Y-90451000D01*
X103987544Y-90450999D01*
X103939823Y-90262550D01*
X103939820Y-90262543D01*
X103849419Y-90056451D01*
X103726325Y-89868041D01*
X103573902Y-89702465D01*
X103396303Y-89564233D01*
X103289275Y-89506313D01*
X103238885Y-89456299D01*
X103223533Y-89386982D01*
X103248094Y-89320369D01*
X103304769Y-89277610D01*
X103349244Y-89269499D01*
X103526066Y-89269499D01*
X103526069Y-89269498D01*
X103526073Y-89269498D01*
X103575326Y-89259701D01*
X103600301Y-89254734D01*
X103684484Y-89198484D01*
X103740734Y-89114301D01*
X103755500Y-89040067D01*
X103755500Y-88310930D01*
X128846500Y-88310930D01*
X128846500Y-90061063D01*
X128846501Y-90061073D01*
X128861265Y-90135300D01*
X128917516Y-90219484D01*
X129001697Y-90275733D01*
X129001699Y-90275734D01*
X129075933Y-90290500D01*
X130826066Y-90290499D01*
X130826069Y-90290498D01*
X130826073Y-90290498D01*
X130875326Y-90280701D01*
X130900301Y-90275734D01*
X130984484Y-90219484D01*
X131040734Y-90135301D01*
X131055500Y-90061067D01*
X131055499Y-88310934D01*
X131055498Y-88310930D01*
X131055498Y-88310926D01*
X131040734Y-88236699D01*
X130984483Y-88152515D01*
X130900302Y-88096266D01*
X130826069Y-88081500D01*
X130826067Y-88081500D01*
X130585500Y-88081500D01*
X130517379Y-88061498D01*
X130470886Y-88007842D01*
X130459500Y-87955500D01*
X130459500Y-86899500D01*
X130479502Y-86831379D01*
X130533158Y-86784886D01*
X130585500Y-86773500D01*
X131549223Y-86773500D01*
X131549225Y-86773500D01*
X131646254Y-86747501D01*
X131646257Y-86747499D01*
X131646258Y-86747499D01*
X131713415Y-86708726D01*
X131733247Y-86697276D01*
X131792754Y-86637768D01*
X131855064Y-86603745D01*
X131925880Y-86608809D01*
X131982716Y-86651355D01*
X132007527Y-86717875D01*
X132003555Y-86759475D01*
X131982500Y-86838054D01*
X131982500Y-88131587D01*
X131962498Y-88199708D01*
X131922831Y-88238714D01*
X131822541Y-88300811D01*
X131822537Y-88300814D01*
X131671266Y-88438715D01*
X131547913Y-88602063D01*
X131456671Y-88785301D01*
X131400654Y-88982180D01*
X131381768Y-89185995D01*
X131381768Y-89186004D01*
X131400654Y-89389819D01*
X131450278Y-89564228D01*
X131456672Y-89586701D01*
X131547912Y-89769935D01*
X131547913Y-89769936D01*
X131671266Y-89933284D01*
X131822536Y-90071185D01*
X131996566Y-90178940D01*
X131996568Y-90178940D01*
X131996573Y-90178944D01*
X132187444Y-90252888D01*
X132388653Y-90290500D01*
X132388655Y-90290500D01*
X132593345Y-90290500D01*
X132593347Y-90290500D01*
X132794556Y-90252888D01*
X132985427Y-90178944D01*
X133159462Y-90071186D01*
X133310732Y-89933285D01*
X133315777Y-89926605D01*
X133360002Y-89868041D01*
X133434088Y-89769935D01*
X133498816Y-89639945D01*
X142235000Y-89639945D01*
X142235000Y-89821000D01*
X144384000Y-89821000D01*
X144892000Y-89821000D01*
X147041000Y-89821000D01*
X147041000Y-89639945D01*
X147038181Y-89604138D01*
X146993648Y-89450855D01*
X146912398Y-89313469D01*
X146912395Y-89313465D01*
X146799534Y-89200604D01*
X146799530Y-89200601D01*
X146662144Y-89119351D01*
X146508861Y-89074818D01*
X146473054Y-89072000D01*
X144892000Y-89072000D01*
X144892000Y-89821000D01*
X144384000Y-89821000D01*
X144384000Y-89072000D01*
X142802946Y-89072000D01*
X142767138Y-89074818D01*
X142613855Y-89119351D01*
X142476469Y-89200601D01*
X142476465Y-89200604D01*
X142363604Y-89313465D01*
X142363601Y-89313469D01*
X142282351Y-89450855D01*
X142237818Y-89604138D01*
X142235000Y-89639945D01*
X133498816Y-89639945D01*
X133525328Y-89586701D01*
X133581345Y-89389821D01*
X133598879Y-89200601D01*
X133600232Y-89186004D01*
X133600232Y-89185995D01*
X133581345Y-88982180D01*
X133581345Y-88982179D01*
X133525328Y-88785299D01*
X133434088Y-88602065D01*
X133393538Y-88548368D01*
X133310733Y-88438715D01*
X133159462Y-88300814D01*
X133159458Y-88300811D01*
X133059169Y-88238714D01*
X133011782Y-88185847D01*
X132999500Y-88131587D01*
X132999500Y-87002193D01*
X133003793Y-86969582D01*
X133006637Y-86958968D01*
X133008170Y-86959378D01*
X133033080Y-86903060D01*
X133040179Y-86895343D01*
X133063276Y-86872247D01*
X133098998Y-86810375D01*
X133113500Y-86785257D01*
X133113500Y-86785256D01*
X133113502Y-86785253D01*
X133139500Y-86688225D01*
X133139500Y-86587775D01*
X133139500Y-86587774D01*
X133139500Y-86488000D01*
X133159502Y-86419879D01*
X133213158Y-86373386D01*
X133265500Y-86362000D01*
X133431585Y-86362000D01*
X133431597Y-86361999D01*
X133492093Y-86355494D01*
X133628964Y-86304444D01*
X133628965Y-86304444D01*
X133745904Y-86216904D01*
X133833444Y-86099965D01*
X133833444Y-86099964D01*
X133884494Y-85963093D01*
X133890999Y-85902597D01*
X133891000Y-85902585D01*
X133891000Y-84705414D01*
X133890999Y-84705402D01*
X133884824Y-84647970D01*
X133897429Y-84578102D01*
X133945807Y-84526139D01*
X134010102Y-84508500D01*
X140542943Y-84508500D01*
X140542945Y-84508500D01*
X140672274Y-84473847D01*
X140788227Y-84406901D01*
X141538901Y-83656227D01*
X141605847Y-83540274D01*
X141640500Y-83410945D01*
X141640500Y-83277055D01*
X141640500Y-80935055D01*
X141605847Y-80805726D01*
X141577458Y-80756555D01*
X141538901Y-80689773D01*
X141538899Y-80689771D01*
X141538895Y-80689766D01*
X140590404Y-79741275D01*
X140556378Y-79678963D01*
X140553499Y-79652180D01*
X140553499Y-79019753D01*
X140553499Y-79019746D01*
X140547040Y-78959658D01*
X140496342Y-78823733D01*
X140409404Y-78707596D01*
X140293267Y-78620658D01*
X140255290Y-78606493D01*
X140214466Y-78591266D01*
X140157631Y-78548719D01*
X140132821Y-78482198D01*
X140132500Y-78473211D01*
X140132500Y-78271950D01*
X140152502Y-78203829D01*
X140206158Y-78157336D01*
X140212890Y-78154547D01*
X140213264Y-78154343D01*
X140213263Y-78154343D01*
X140213267Y-78154342D01*
X140329404Y-78067404D01*
X140416342Y-77951267D01*
X140467040Y-77815342D01*
X140473500Y-77755255D01*
X140473500Y-77486000D01*
X141771215Y-77486000D01*
X141774104Y-77507945D01*
X141790271Y-77630752D01*
X141846144Y-77765641D01*
X141846149Y-77765649D01*
X141935025Y-77881474D01*
X142050850Y-77970350D01*
X142050857Y-77970355D01*
X142104304Y-77992493D01*
X142145178Y-78019806D01*
X146854892Y-82729520D01*
X146888918Y-82791832D01*
X146883853Y-82862647D01*
X146841306Y-82919483D01*
X146778152Y-82944008D01*
X146757589Y-82946034D01*
X146757586Y-82946034D01*
X146757584Y-82946035D01*
X146638276Y-82982226D01*
X146568234Y-83003473D01*
X146393729Y-83096748D01*
X146240775Y-83222275D01*
X146115248Y-83375229D01*
X146021973Y-83549734D01*
X145964533Y-83739090D01*
X145945140Y-83935997D01*
X145945140Y-83936004D01*
X145949217Y-83977402D01*
X145935988Y-84047155D01*
X145912919Y-84078846D01*
X143401127Y-86590639D01*
X143401122Y-86590646D01*
X143331577Y-86694727D01*
X143283674Y-86810375D01*
X143283672Y-86810380D01*
X143259250Y-86933156D01*
X143259250Y-87058343D01*
X143266681Y-87095699D01*
X143283672Y-87181119D01*
X143331577Y-87296772D01*
X143401125Y-87400858D01*
X143489642Y-87489375D01*
X143593728Y-87558923D01*
X143709381Y-87606828D01*
X143832159Y-87631250D01*
X143832160Y-87631250D01*
X143957340Y-87631250D01*
X143957341Y-87631250D01*
X144080119Y-87606828D01*
X144195772Y-87558923D01*
X144299858Y-87489375D01*
X146811654Y-84977577D01*
X146873964Y-84943554D01*
X146913094Y-84941281D01*
X146954500Y-84945360D01*
X146954501Y-84945359D01*
X146954502Y-84945360D01*
X146954503Y-84945360D01*
X147151409Y-84925966D01*
X147151410Y-84925965D01*
X147151416Y-84925965D01*
X147340765Y-84868527D01*
X147515270Y-84775252D01*
X147668225Y-84649725D01*
X147793752Y-84496770D01*
X147887027Y-84322265D01*
X147944465Y-84132916D01*
X147944466Y-84132909D01*
X147946491Y-84112352D01*
X147973073Y-84046520D01*
X148031027Y-84005510D01*
X148101953Y-84002343D01*
X148160977Y-84035605D01*
X148388273Y-84262901D01*
X148388274Y-84262902D01*
X148388276Y-84262903D01*
X148491094Y-84322265D01*
X148491093Y-84322265D01*
X148491096Y-84322266D01*
X148504226Y-84329847D01*
X148523592Y-84335035D01*
X148584215Y-84371985D01*
X148602105Y-84397347D01*
X148642994Y-84473844D01*
X148655248Y-84496770D01*
X148780775Y-84649725D01*
X148933730Y-84775252D01*
X149108235Y-84868527D01*
X149297584Y-84925965D01*
X149297588Y-84925965D01*
X149297590Y-84925966D01*
X149494497Y-84945360D01*
X149494500Y-84945360D01*
X149494503Y-84945360D01*
X149691409Y-84925966D01*
X149691410Y-84925965D01*
X149691416Y-84925965D01*
X149880765Y-84868527D01*
X150055270Y-84775252D01*
X150208225Y-84649725D01*
X150333752Y-84496770D01*
X150427027Y-84322265D01*
X150484465Y-84132916D01*
X150486491Y-84112352D01*
X150503860Y-83936002D01*
X150503860Y-83935997D01*
X150484466Y-83739090D01*
X150484465Y-83739088D01*
X150484465Y-83739084D01*
X150427027Y-83549735D01*
X150333752Y-83375230D01*
X150208225Y-83222275D01*
X150055270Y-83096748D01*
X149880765Y-83003473D01*
X149691416Y-82946035D01*
X149691415Y-82946034D01*
X149691409Y-82946033D01*
X149494503Y-82926640D01*
X149494497Y-82926640D01*
X149297590Y-82946033D01*
X149108234Y-83003473D01*
X148933731Y-83096747D01*
X148933728Y-83096749D01*
X148871865Y-83147517D01*
X148806517Y-83175269D01*
X148736539Y-83163286D01*
X148702839Y-83139211D01*
X148408397Y-82844769D01*
X148374371Y-82782457D01*
X148379436Y-82711642D01*
X148421983Y-82654806D01*
X148464881Y-82633967D01*
X148656403Y-82582649D01*
X148656407Y-82582647D01*
X148855899Y-82489622D01*
X148916487Y-82447197D01*
X148245289Y-81776000D01*
X148274528Y-81776000D01*
X148371175Y-81750104D01*
X148457825Y-81700076D01*
X148528576Y-81629325D01*
X148578604Y-81542675D01*
X148604500Y-81446028D01*
X148604500Y-81416790D01*
X149275696Y-82087987D01*
X149275697Y-82087987D01*
X149318122Y-82027399D01*
X149411147Y-81827907D01*
X149411149Y-81827903D01*
X149468119Y-81615287D01*
X149487304Y-81396000D01*
X149468119Y-81176713D01*
X149458801Y-81141938D01*
X149460491Y-81070961D01*
X149500285Y-81012165D01*
X149565549Y-80984217D01*
X149635563Y-80995990D01*
X149669603Y-81020231D01*
X149739176Y-81089804D01*
X149773202Y-81152116D01*
X149773566Y-81192768D01*
X149775141Y-81192924D01*
X149755140Y-81395997D01*
X149755140Y-81396002D01*
X149774533Y-81592909D01*
X149774534Y-81592915D01*
X149774535Y-81592916D01*
X149831973Y-81782265D01*
X149925248Y-81956770D01*
X150050775Y-82109725D01*
X150203730Y-82235252D01*
X150378235Y-82328527D01*
X150567584Y-82385965D01*
X150567588Y-82385965D01*
X150567590Y-82385966D01*
X150764497Y-82405360D01*
X150764500Y-82405360D01*
X150764503Y-82405360D01*
X150961409Y-82385966D01*
X150961410Y-82385965D01*
X150961416Y-82385965D01*
X151150765Y-82328527D01*
X151325270Y-82235252D01*
X151478225Y-82109725D01*
X151603752Y-81956770D01*
X151697027Y-81782265D01*
X151754465Y-81592916D01*
X151759414Y-81542675D01*
X151773860Y-81396002D01*
X151773860Y-81395997D01*
X151754466Y-81199090D01*
X151754465Y-81199088D01*
X151754465Y-81199084D01*
X151697027Y-81009735D01*
X151603752Y-80835230D01*
X151478225Y-80682275D01*
X151325270Y-80556748D01*
X151150765Y-80463473D01*
X150961416Y-80406035D01*
X150961415Y-80406034D01*
X150961409Y-80406033D01*
X150764503Y-80386640D01*
X150764497Y-80386640D01*
X150561424Y-80406641D01*
X150561183Y-80404195D01*
X150501254Y-80398827D01*
X150458304Y-80370676D01*
X148404305Y-78316677D01*
X148376991Y-78275800D01*
X148354855Y-78222358D01*
X148265974Y-78106526D01*
X148265972Y-78106524D01*
X148265971Y-78106523D01*
X148150149Y-78017649D01*
X148150141Y-78017644D01*
X148015252Y-77961771D01*
X147870500Y-77942715D01*
X147725747Y-77961771D01*
X147675275Y-77982678D01*
X147590858Y-78017645D01*
X147590857Y-78017646D01*
X147590856Y-78017646D01*
X147475026Y-78106526D01*
X147386146Y-78222356D01*
X147386145Y-78222358D01*
X147365603Y-78271950D01*
X147330271Y-78357247D01*
X147311215Y-78501999D01*
X147311215Y-78502000D01*
X147330271Y-78646752D01*
X147386144Y-78781641D01*
X147386149Y-78781649D01*
X147475025Y-78897474D01*
X147590850Y-78986350D01*
X147590857Y-78986355D01*
X147644304Y-79008493D01*
X147685178Y-79035806D01*
X148600268Y-79950896D01*
X148634294Y-80013208D01*
X148629229Y-80084023D01*
X148586682Y-80140859D01*
X148520162Y-80165670D01*
X148478564Y-80161698D01*
X148443791Y-80152381D01*
X148224500Y-80133195D01*
X148005212Y-80152380D01*
X147792596Y-80209350D01*
X147792592Y-80209352D01*
X147593098Y-80302378D01*
X147532511Y-80344801D01*
X148203711Y-81016000D01*
X148174472Y-81016000D01*
X148077825Y-81041896D01*
X147991175Y-81091924D01*
X147920424Y-81162675D01*
X147870396Y-81249325D01*
X147844500Y-81345972D01*
X147844500Y-81375209D01*
X147173301Y-80704010D01*
X147130878Y-80764598D01*
X147037852Y-80964092D01*
X147037851Y-80964094D01*
X146986532Y-81155619D01*
X146949580Y-81216241D01*
X146885719Y-81247263D01*
X146815225Y-81238834D01*
X146775730Y-81212102D01*
X142864305Y-77300677D01*
X142836991Y-77259800D01*
X142827341Y-77236502D01*
X142814855Y-77206358D01*
X142725974Y-77090526D01*
X142725972Y-77090524D01*
X142725971Y-77090523D01*
X142610149Y-77001649D01*
X142610141Y-77001644D01*
X142475252Y-76945771D01*
X142330500Y-76926715D01*
X142185747Y-76945771D01*
X142132303Y-76967909D01*
X142050858Y-77001645D01*
X142050857Y-77001646D01*
X142050856Y-77001646D01*
X141935026Y-77090526D01*
X141846146Y-77206356D01*
X141846145Y-77206358D01*
X141818208Y-77273802D01*
X141790271Y-77341247D01*
X141773321Y-77470000D01*
X141771215Y-77486000D01*
X140473500Y-77486000D01*
X140473499Y-75958746D01*
X140467040Y-75898658D01*
X140416342Y-75762733D01*
X140329404Y-75646596D01*
X140213267Y-75559658D01*
X140213265Y-75559657D01*
X140213266Y-75559657D01*
X140077349Y-75508962D01*
X140077344Y-75508960D01*
X140077342Y-75508960D01*
X140047298Y-75505730D01*
X140017256Y-75502500D01*
X139220753Y-75502500D01*
X139220729Y-75502502D01*
X139160660Y-75508959D01*
X139160658Y-75508959D01*
X139024733Y-75559657D01*
X138908596Y-75646596D01*
X138821657Y-75762734D01*
X138770962Y-75898650D01*
X138770960Y-75898658D01*
X138764500Y-75958737D01*
X138764500Y-76073500D01*
X138744498Y-76141621D01*
X138690842Y-76188114D01*
X138638500Y-76199500D01*
X138050729Y-76199500D01*
X138002511Y-76189909D01*
X137929752Y-76159771D01*
X137785000Y-76140715D01*
X137640247Y-76159771D01*
X137572802Y-76187708D01*
X137505358Y-76215645D01*
X137505357Y-76215646D01*
X137505356Y-76215646D01*
X137389526Y-76304526D01*
X137300646Y-76420356D01*
X137300645Y-76420358D01*
X137272708Y-76487802D01*
X137244771Y-76555247D01*
X137225715Y-76699999D01*
X137225715Y-76700000D01*
X137244771Y-76844752D01*
X137300644Y-76979641D01*
X137300649Y-76979649D01*
X137389525Y-77095474D01*
X137505350Y-77184350D01*
X137505357Y-77184355D01*
X137640246Y-77240228D01*
X137785000Y-77259285D01*
X137929754Y-77240228D01*
X137963883Y-77226090D01*
X138012101Y-77216500D01*
X138638501Y-77216500D01*
X138706622Y-77236502D01*
X138753115Y-77290158D01*
X138764501Y-77342500D01*
X138764501Y-77755246D01*
X138764502Y-77755270D01*
X138770959Y-77815339D01*
X138770959Y-77815341D01*
X138821657Y-77951266D01*
X138829299Y-77961474D01*
X138908596Y-78067404D01*
X139024733Y-78154342D01*
X139024734Y-78154342D01*
X139024735Y-78154343D01*
X139033531Y-78157624D01*
X139090367Y-78200169D01*
X139115179Y-78266689D01*
X139115500Y-78275680D01*
X139115500Y-78473211D01*
X139095498Y-78541332D01*
X139041842Y-78587825D01*
X139033534Y-78591266D01*
X138954733Y-78620658D01*
X138838596Y-78707596D01*
X138751657Y-78823734D01*
X138700962Y-78959650D01*
X138700960Y-78959658D01*
X138694500Y-79019737D01*
X138694500Y-80016246D01*
X138694502Y-80016270D01*
X138700959Y-80076339D01*
X138700959Y-80076341D01*
X138751657Y-80212266D01*
X138756323Y-80218499D01*
X138838596Y-80328404D01*
X138954733Y-80415342D01*
X139090658Y-80466040D01*
X139150745Y-80472500D01*
X139831181Y-80472499D01*
X139899302Y-80492501D01*
X139920276Y-80509404D01*
X140207000Y-80796128D01*
X140241026Y-80858440D01*
X140235961Y-80929255D01*
X140193414Y-80986091D01*
X140126894Y-81010902D01*
X140105102Y-81010571D01*
X140099512Y-81010000D01*
X139878000Y-81010000D01*
X139878000Y-82346000D01*
X139857998Y-82414121D01*
X139804342Y-82460614D01*
X139752000Y-82472000D01*
X138441000Y-82472000D01*
X138441000Y-82718516D01*
X138451605Y-82822318D01*
X138451606Y-82822321D01*
X138507342Y-82990525D01*
X138600365Y-83141339D01*
X138600370Y-83141345D01*
X138725653Y-83266628D01*
X138725692Y-83266659D01*
X138725711Y-83266686D01*
X138730850Y-83271825D01*
X138729972Y-83272702D01*
X138766724Y-83324598D01*
X138769919Y-83395523D01*
X138734261Y-83456915D01*
X138671073Y-83489284D01*
X138647548Y-83491500D01*
X137044452Y-83491500D01*
X136976331Y-83471498D01*
X136929838Y-83417842D01*
X136919734Y-83347568D01*
X136949228Y-83282988D01*
X136966308Y-83266659D01*
X136966346Y-83266628D01*
X137091629Y-83141345D01*
X137091634Y-83141339D01*
X137184657Y-82990525D01*
X137240393Y-82822321D01*
X137240394Y-82822318D01*
X137250999Y-82718516D01*
X137251000Y-82718516D01*
X137251000Y-82472000D01*
X134885000Y-82472000D01*
X134885000Y-82718516D01*
X134895605Y-82822318D01*
X134895606Y-82822321D01*
X134951342Y-82990525D01*
X135044365Y-83141339D01*
X135044370Y-83141345D01*
X135169653Y-83266628D01*
X135169692Y-83266659D01*
X135169711Y-83266686D01*
X135174850Y-83271825D01*
X135173972Y-83272702D01*
X135210724Y-83324598D01*
X135213919Y-83395523D01*
X135178261Y-83456915D01*
X135115073Y-83489284D01*
X135091548Y-83491500D01*
X133451302Y-83491500D01*
X133383181Y-83471498D01*
X133336688Y-83417842D01*
X133326584Y-83347568D01*
X133356078Y-83282988D01*
X133403082Y-83249091D01*
X133537643Y-83193355D01*
X133653474Y-83104474D01*
X133742355Y-82988643D01*
X133798228Y-82853754D01*
X133817285Y-82709000D01*
X133798228Y-82564246D01*
X133742355Y-82429358D01*
X133740744Y-82427259D01*
X133665538Y-82329248D01*
X133639937Y-82263028D01*
X133639500Y-82252544D01*
X133639500Y-81717483D01*
X134885000Y-81717483D01*
X134885000Y-81964000D01*
X135814000Y-81964000D01*
X136322000Y-81964000D01*
X137251000Y-81964000D01*
X137251000Y-81717483D01*
X138441000Y-81717483D01*
X138441000Y-81964000D01*
X139370000Y-81964000D01*
X139370000Y-81010000D01*
X139148483Y-81010000D01*
X139044681Y-81020605D01*
X139044678Y-81020606D01*
X138876474Y-81076342D01*
X138725660Y-81169365D01*
X138725654Y-81169370D01*
X138600370Y-81294654D01*
X138600365Y-81294660D01*
X138507342Y-81445474D01*
X138451606Y-81613678D01*
X138451605Y-81613681D01*
X138441000Y-81717483D01*
X137251000Y-81717483D01*
X137240394Y-81613681D01*
X137240393Y-81613678D01*
X137184657Y-81445474D01*
X137091634Y-81294660D01*
X137091629Y-81294654D01*
X136966345Y-81169370D01*
X136966339Y-81169365D01*
X136815525Y-81076342D01*
X136647321Y-81020606D01*
X136647318Y-81020605D01*
X136543516Y-81010000D01*
X136322000Y-81010000D01*
X136322000Y-81964000D01*
X135814000Y-81964000D01*
X135814000Y-81010000D01*
X135592483Y-81010000D01*
X135488681Y-81020605D01*
X135488678Y-81020606D01*
X135320474Y-81076342D01*
X135169660Y-81169365D01*
X135169654Y-81169370D01*
X135044370Y-81294654D01*
X135044365Y-81294660D01*
X134951342Y-81445474D01*
X134895606Y-81613678D01*
X134895605Y-81613681D01*
X134885000Y-81717483D01*
X133639500Y-81717483D01*
X133639500Y-80953770D01*
X133638577Y-80946759D01*
X133637499Y-80930315D01*
X133637499Y-80428936D01*
X133637498Y-80428927D01*
X133622734Y-80354699D01*
X133600167Y-80320926D01*
X133566484Y-80270516D01*
X133537295Y-80251012D01*
X133482302Y-80214266D01*
X133408069Y-80199500D01*
X133408067Y-80199500D01*
X133380019Y-80199500D01*
X133311898Y-80179498D01*
X133265405Y-80125842D01*
X133255301Y-80055568D01*
X133284795Y-79990988D01*
X133303315Y-79973538D01*
X133415474Y-79887474D01*
X133449370Y-79843300D01*
X133504355Y-79771643D01*
X133560228Y-79636754D01*
X133579285Y-79492000D01*
X133560228Y-79347246D01*
X133504355Y-79212358D01*
X133486911Y-79189625D01*
X133428655Y-79113704D01*
X133403054Y-79047484D01*
X133417318Y-78977935D01*
X133428649Y-78960303D01*
X133504355Y-78861643D01*
X133560228Y-78726754D01*
X133579285Y-78582000D01*
X133560228Y-78437246D01*
X133504355Y-78302358D01*
X133415474Y-78186526D01*
X133415472Y-78186524D01*
X133415471Y-78186523D01*
X133399101Y-78173962D01*
X133357234Y-78116624D01*
X133353012Y-78045753D01*
X133387776Y-77983851D01*
X133399101Y-77974038D01*
X133415474Y-77961474D01*
X133428346Y-77944699D01*
X133504355Y-77845643D01*
X133560228Y-77710754D01*
X133579285Y-77566000D01*
X133560228Y-77421246D01*
X133504355Y-77286358D01*
X133415474Y-77170526D01*
X133415472Y-77170524D01*
X133415471Y-77170523D01*
X133299649Y-77081649D01*
X133299641Y-77081644D01*
X133164752Y-77025771D01*
X133020000Y-77006715D01*
X132875247Y-77025771D01*
X132807802Y-77053708D01*
X132740358Y-77081645D01*
X132740357Y-77081646D01*
X132740356Y-77081646D01*
X132624526Y-77170526D01*
X132535646Y-77286356D01*
X132535645Y-77286358D01*
X132512909Y-77341247D01*
X132479771Y-77421247D01*
X132475430Y-77454224D01*
X132446707Y-77519151D01*
X132439603Y-77526872D01*
X131506030Y-78460445D01*
X131506028Y-78460448D01*
X131452729Y-78513746D01*
X131452721Y-78513756D01*
X131402500Y-78600741D01*
X131376500Y-78697776D01*
X131376500Y-80073500D01*
X131356498Y-80141621D01*
X131302842Y-80188114D01*
X131250501Y-80199500D01*
X131107937Y-80199500D01*
X131107926Y-80199501D01*
X131033699Y-80214265D01*
X130949515Y-80270516D01*
X130893266Y-80354697D01*
X130878500Y-80428930D01*
X130878500Y-80850324D01*
X130877423Y-80866767D01*
X130876501Y-80873771D01*
X130876500Y-80873775D01*
X130876500Y-80873779D01*
X130876500Y-82939898D01*
X130856498Y-83008019D01*
X130851343Y-83015349D01*
X130784155Y-83131721D01*
X130784154Y-83131724D01*
X130784153Y-83131726D01*
X130749500Y-83261055D01*
X130749500Y-83394945D01*
X130784153Y-83524274D01*
X130784154Y-83524276D01*
X130784155Y-83524278D01*
X130855229Y-83647380D01*
X130853854Y-83648173D01*
X130876063Y-83705616D01*
X130876500Y-83716101D01*
X130876500Y-85274222D01*
X130877423Y-85281235D01*
X130878500Y-85297678D01*
X130878501Y-85884500D01*
X130858499Y-85952621D01*
X130804843Y-85999114D01*
X130752501Y-86010500D01*
X130344101Y-86010500D01*
X130275980Y-85990498D01*
X130268643Y-85985339D01*
X130152278Y-85918155D01*
X130152276Y-85918154D01*
X130152274Y-85918153D01*
X130022945Y-85883500D01*
X129889055Y-85883500D01*
X129759726Y-85918153D01*
X129759724Y-85918154D01*
X129759721Y-85918155D01*
X129643776Y-85985096D01*
X129643766Y-85985104D01*
X129544104Y-86084766D01*
X129544096Y-86084776D01*
X129501964Y-86157752D01*
X129501964Y-86157753D01*
X129477153Y-86200724D01*
X129477153Y-86200725D01*
X129442500Y-86330056D01*
X129442500Y-87955500D01*
X129422498Y-88023621D01*
X129368842Y-88070114D01*
X129316501Y-88081500D01*
X129075936Y-88081500D01*
X129075926Y-88081501D01*
X129001699Y-88096265D01*
X128917515Y-88152516D01*
X128861266Y-88236697D01*
X128846500Y-88310930D01*
X103755500Y-88310930D01*
X103755499Y-87289934D01*
X103755498Y-87289930D01*
X103755498Y-87289926D01*
X103740734Y-87215699D01*
X103684483Y-87131515D01*
X103600302Y-87075266D01*
X103526067Y-87060500D01*
X101775936Y-87060500D01*
X101775926Y-87060501D01*
X101701699Y-87075265D01*
X101617515Y-87131516D01*
X101561266Y-87215697D01*
X101546500Y-87289930D01*
X101546500Y-89040063D01*
X101546501Y-89040073D01*
X101561265Y-89114300D01*
X101617516Y-89198484D01*
X101701697Y-89254733D01*
X101701699Y-89254734D01*
X101775933Y-89269500D01*
X101952755Y-89269499D01*
X102020873Y-89289501D01*
X102067366Y-89343156D01*
X102077471Y-89413430D01*
X102047978Y-89478011D01*
X102012723Y-89506312D01*
X101905704Y-89564228D01*
X101905698Y-89564232D01*
X101728097Y-89702465D01*
X101575674Y-89868041D01*
X101452580Y-90056451D01*
X101362179Y-90262543D01*
X101362176Y-90262550D01*
X101314455Y-90450999D01*
X100500500Y-90450999D01*
X100500500Y-81179999D01*
X101314455Y-81179999D01*
X101314456Y-81180000D01*
X102220297Y-81180000D01*
X102185075Y-81241007D01*
X102151000Y-81368174D01*
X102151000Y-81499826D01*
X102185075Y-81626993D01*
X102220297Y-81688000D01*
X101314455Y-81688000D01*
X101362176Y-81876449D01*
X101362179Y-81876456D01*
X101452580Y-82082548D01*
X101575674Y-82270958D01*
X101728097Y-82436534D01*
X101905698Y-82574767D01*
X101905699Y-82574768D01*
X102103628Y-82681882D01*
X102103630Y-82681883D01*
X102316483Y-82754955D01*
X102316492Y-82754957D01*
X102397000Y-82768391D01*
X102397000Y-81864702D01*
X102458007Y-81899925D01*
X102585174Y-81934000D01*
X102716826Y-81934000D01*
X102843993Y-81899925D01*
X102905000Y-81864702D01*
X102905000Y-82768390D01*
X102985507Y-82754957D01*
X102985516Y-82754955D01*
X103198369Y-82681883D01*
X103198371Y-82681882D01*
X103396300Y-82574768D01*
X103396301Y-82574767D01*
X103573902Y-82436534D01*
X103726325Y-82270958D01*
X103849419Y-82082548D01*
X103939820Y-81876456D01*
X103939823Y-81876449D01*
X103987544Y-81688000D01*
X103081703Y-81688000D01*
X103116925Y-81626993D01*
X103151000Y-81499826D01*
X103151000Y-81368174D01*
X103116925Y-81241007D01*
X103081703Y-81180000D01*
X103987544Y-81180000D01*
X103987544Y-81179999D01*
X103939823Y-80991550D01*
X103939820Y-80991543D01*
X103849419Y-80785451D01*
X103726325Y-80597041D01*
X103573902Y-80431465D01*
X103396303Y-80293233D01*
X103289275Y-80235313D01*
X103238885Y-80185299D01*
X103223533Y-80115982D01*
X103248094Y-80049369D01*
X103304769Y-80006610D01*
X103349244Y-79998499D01*
X103526066Y-79998499D01*
X103526069Y-79998498D01*
X103526073Y-79998498D01*
X103587148Y-79986350D01*
X103600301Y-79983734D01*
X103684484Y-79927484D01*
X103740734Y-79843301D01*
X103755500Y-79769067D01*
X103755499Y-78018934D01*
X103755498Y-78018930D01*
X103755498Y-78018926D01*
X103740734Y-77944699D01*
X103684483Y-77860515D01*
X103600302Y-77804266D01*
X103526067Y-77789500D01*
X101775936Y-77789500D01*
X101775926Y-77789501D01*
X101701699Y-77804265D01*
X101617515Y-77860516D01*
X101561266Y-77944697D01*
X101546500Y-78018930D01*
X101546500Y-79769063D01*
X101546501Y-79769073D01*
X101561265Y-79843300D01*
X101617516Y-79927484D01*
X101701697Y-79983733D01*
X101701699Y-79983734D01*
X101775933Y-79998500D01*
X101952755Y-79998499D01*
X102020873Y-80018501D01*
X102067366Y-80072156D01*
X102077471Y-80142430D01*
X102047978Y-80207011D01*
X102012723Y-80235312D01*
X101905704Y-80293228D01*
X101905698Y-80293232D01*
X101728097Y-80431465D01*
X101575674Y-80597041D01*
X101452580Y-80785451D01*
X101362179Y-80991543D01*
X101362176Y-80991550D01*
X101314455Y-81179999D01*
X100500500Y-81179999D01*
X100500500Y-74924709D01*
X105734000Y-74924709D01*
X105734000Y-75167290D01*
X105765660Y-75407782D01*
X105828444Y-75642095D01*
X105828445Y-75642097D01*
X105828446Y-75642100D01*
X105921276Y-75866212D01*
X105921277Y-75866213D01*
X105921282Y-75866224D01*
X106042561Y-76076285D01*
X106042563Y-76076288D01*
X106042564Y-76076289D01*
X106190235Y-76268738D01*
X106190239Y-76268742D01*
X106190244Y-76268748D01*
X106361751Y-76440255D01*
X106361756Y-76440259D01*
X106361762Y-76440265D01*
X106511610Y-76555247D01*
X106554214Y-76587938D01*
X106764275Y-76709217D01*
X106764279Y-76709218D01*
X106764288Y-76709224D01*
X106988400Y-76802054D01*
X107222711Y-76864838D01*
X107222715Y-76864838D01*
X107222717Y-76864839D01*
X107284702Y-76872999D01*
X107463212Y-76896500D01*
X107463219Y-76896500D01*
X107705781Y-76896500D01*
X107705788Y-76896500D01*
X107923137Y-76867885D01*
X107946282Y-76864839D01*
X107946282Y-76864838D01*
X107946289Y-76864838D01*
X108180600Y-76802054D01*
X108404712Y-76709224D01*
X108577485Y-76609473D01*
X108646478Y-76592736D01*
X108713570Y-76615956D01*
X108757457Y-76671763D01*
X108764206Y-76742438D01*
X108731674Y-76805542D01*
X108729578Y-76807688D01*
X106655892Y-78881375D01*
X106567377Y-78969889D01*
X106567372Y-78969896D01*
X106497827Y-79073977D01*
X106449924Y-79189625D01*
X106449922Y-79189630D01*
X106425500Y-79312406D01*
X106425500Y-82205093D01*
X106449922Y-82327869D01*
X106449924Y-82327874D01*
X106450493Y-82329248D01*
X106497827Y-82443522D01*
X106567375Y-82547608D01*
X106567377Y-82547610D01*
X107812919Y-83793152D01*
X107846945Y-83855464D01*
X107849217Y-83894596D01*
X107845140Y-83935995D01*
X107845140Y-83936002D01*
X107864533Y-84132909D01*
X107864534Y-84132915D01*
X107864535Y-84132916D01*
X107921973Y-84322265D01*
X108015248Y-84496770D01*
X108140775Y-84649725D01*
X108293730Y-84775252D01*
X108468235Y-84868527D01*
X108657584Y-84925965D01*
X108657588Y-84925965D01*
X108657590Y-84925966D01*
X108854497Y-84945360D01*
X108854500Y-84945360D01*
X108854503Y-84945360D01*
X109051409Y-84925966D01*
X109051410Y-84925965D01*
X109051416Y-84925965D01*
X109240765Y-84868527D01*
X109415270Y-84775252D01*
X109568225Y-84649725D01*
X109693752Y-84496770D01*
X109787027Y-84322265D01*
X109844465Y-84132916D01*
X109846491Y-84112352D01*
X109863860Y-83936002D01*
X109863860Y-83935997D01*
X109844466Y-83739090D01*
X109844465Y-83739088D01*
X109844465Y-83739084D01*
X109787027Y-83549735D01*
X109693752Y-83375230D01*
X109568225Y-83222275D01*
X109415270Y-83096748D01*
X109240765Y-83003473D01*
X109051416Y-82946035D01*
X109051415Y-82946034D01*
X109051409Y-82946033D01*
X108854503Y-82926640D01*
X108854495Y-82926640D01*
X108813096Y-82930717D01*
X108743343Y-82917488D01*
X108711652Y-82894419D01*
X107733405Y-81916172D01*
X107699379Y-81853860D01*
X107696500Y-81827077D01*
X107696500Y-81396000D01*
X108861695Y-81396000D01*
X108880880Y-81615287D01*
X108937850Y-81827903D01*
X108937852Y-81827907D01*
X109030879Y-82027403D01*
X109073300Y-82087987D01*
X109744500Y-81416788D01*
X109744500Y-81446028D01*
X109770396Y-81542675D01*
X109820424Y-81629325D01*
X109891175Y-81700076D01*
X109977825Y-81750104D01*
X110074472Y-81776000D01*
X110103708Y-81776000D01*
X109432511Y-82447196D01*
X109432511Y-82447198D01*
X109493097Y-82489621D01*
X109692592Y-82582647D01*
X109692596Y-82582649D01*
X109905212Y-82639619D01*
X110124500Y-82658804D01*
X110343787Y-82639619D01*
X110556403Y-82582649D01*
X110556407Y-82582647D01*
X110706750Y-82512541D01*
X110776941Y-82501880D01*
X110841754Y-82530860D01*
X110880611Y-82590279D01*
X110886000Y-82626736D01*
X110886000Y-82994473D01*
X110865998Y-83062594D01*
X110837514Y-83091601D01*
X110838515Y-83092821D01*
X110680775Y-83222275D01*
X110555248Y-83375229D01*
X110461973Y-83549734D01*
X110404533Y-83739090D01*
X110385140Y-83935997D01*
X110385140Y-83936002D01*
X110404533Y-84132909D01*
X110404534Y-84132915D01*
X110404535Y-84132916D01*
X110461973Y-84322265D01*
X110555248Y-84496770D01*
X110680775Y-84649725D01*
X110833730Y-84775252D01*
X111008235Y-84868527D01*
X111197584Y-84925965D01*
X111197588Y-84925965D01*
X111197590Y-84925966D01*
X111394497Y-84945360D01*
X111394500Y-84945360D01*
X111394503Y-84945360D01*
X111591409Y-84925966D01*
X111591410Y-84925965D01*
X111591416Y-84925965D01*
X111780765Y-84868527D01*
X111955270Y-84775252D01*
X112108225Y-84649725D01*
X112233752Y-84496770D01*
X112327027Y-84322265D01*
X112384465Y-84132916D01*
X112386491Y-84112352D01*
X112403860Y-83936002D01*
X112403860Y-83935997D01*
X112384466Y-83739090D01*
X112384465Y-83739088D01*
X112384465Y-83739084D01*
X112327027Y-83549735D01*
X112233752Y-83375230D01*
X112108225Y-83222275D01*
X111955270Y-83096748D01*
X111950485Y-83092821D01*
X111952039Y-83090927D01*
X111913449Y-83044713D01*
X111903000Y-82994473D01*
X111903000Y-82336857D01*
X111923002Y-82268736D01*
X111976658Y-82222243D01*
X112046932Y-82212139D01*
X112099007Y-82232095D01*
X112103721Y-82235244D01*
X112103730Y-82235252D01*
X112278235Y-82328527D01*
X112467584Y-82385965D01*
X112467588Y-82385965D01*
X112467590Y-82385966D01*
X112664497Y-82405360D01*
X112664500Y-82405360D01*
X112664503Y-82405360D01*
X112861409Y-82385966D01*
X112861410Y-82385965D01*
X112861416Y-82385965D01*
X113050765Y-82328527D01*
X113225270Y-82235252D01*
X113225283Y-82235241D01*
X113229993Y-82232095D01*
X113297745Y-82210877D01*
X113366212Y-82229657D01*
X113413658Y-82282471D01*
X113426000Y-82336857D01*
X113426000Y-82994473D01*
X113405998Y-83062594D01*
X113377514Y-83091601D01*
X113378515Y-83092821D01*
X113220775Y-83222275D01*
X113095248Y-83375229D01*
X113001973Y-83549734D01*
X112944533Y-83739090D01*
X112925140Y-83935997D01*
X112925140Y-83936002D01*
X112944533Y-84132909D01*
X112944534Y-84132915D01*
X112944535Y-84132916D01*
X113001973Y-84322265D01*
X113095248Y-84496770D01*
X113220775Y-84649725D01*
X113373730Y-84775252D01*
X113548235Y-84868527D01*
X113737584Y-84925965D01*
X113737588Y-84925965D01*
X113737590Y-84925966D01*
X113934497Y-84945360D01*
X113934500Y-84945360D01*
X113934503Y-84945360D01*
X114131409Y-84925966D01*
X114131410Y-84925965D01*
X114131416Y-84925965D01*
X114320765Y-84868527D01*
X114495270Y-84775252D01*
X114648225Y-84649725D01*
X114773752Y-84496770D01*
X114867027Y-84322265D01*
X114924465Y-84132916D01*
X114926491Y-84112352D01*
X114943860Y-83936002D01*
X114943860Y-83935997D01*
X115465140Y-83935997D01*
X115465140Y-83936002D01*
X115484533Y-84132909D01*
X115484534Y-84132915D01*
X115484535Y-84132916D01*
X115541973Y-84322265D01*
X115635248Y-84496770D01*
X115760775Y-84649725D01*
X115913730Y-84775252D01*
X116088235Y-84868527D01*
X116277584Y-84925965D01*
X116277588Y-84925965D01*
X116277590Y-84925966D01*
X116474497Y-84945360D01*
X116474500Y-84945360D01*
X116474503Y-84945360D01*
X116671409Y-84925966D01*
X116671410Y-84925965D01*
X116671416Y-84925965D01*
X116860765Y-84868527D01*
X117035270Y-84775252D01*
X117188225Y-84649725D01*
X117313752Y-84496770D01*
X117407027Y-84322265D01*
X117464465Y-84132916D01*
X117466491Y-84112352D01*
X117483860Y-83936002D01*
X117483860Y-83935997D01*
X117464466Y-83739090D01*
X117464465Y-83739088D01*
X117464465Y-83739084D01*
X117407027Y-83549735D01*
X117313752Y-83375230D01*
X117188225Y-83222275D01*
X117035270Y-83096748D01*
X116860765Y-83003473D01*
X116671416Y-82946035D01*
X116671415Y-82946034D01*
X116671409Y-82946033D01*
X116474503Y-82926640D01*
X116474497Y-82926640D01*
X116277590Y-82946033D01*
X116088234Y-83003473D01*
X115913729Y-83096748D01*
X115760775Y-83222275D01*
X115635248Y-83375229D01*
X115541973Y-83549734D01*
X115484533Y-83739090D01*
X115465140Y-83935997D01*
X114943860Y-83935997D01*
X114924466Y-83739090D01*
X114924465Y-83739088D01*
X114924465Y-83739084D01*
X114867027Y-83549735D01*
X114773752Y-83375230D01*
X114648225Y-83222275D01*
X114495270Y-83096748D01*
X114490485Y-83092821D01*
X114492039Y-83090927D01*
X114453449Y-83044713D01*
X114443000Y-82994473D01*
X114443000Y-82336857D01*
X114463002Y-82268736D01*
X114516658Y-82222243D01*
X114586932Y-82212139D01*
X114639007Y-82232095D01*
X114643721Y-82235244D01*
X114643730Y-82235252D01*
X114818235Y-82328527D01*
X115007584Y-82385965D01*
X115007588Y-82385965D01*
X115007590Y-82385966D01*
X115204497Y-82405360D01*
X115204500Y-82405360D01*
X115204503Y-82405360D01*
X115401409Y-82385966D01*
X115401410Y-82385965D01*
X115401416Y-82385965D01*
X115590765Y-82328527D01*
X115765270Y-82235252D01*
X115918225Y-82109725D01*
X116043752Y-81956770D01*
X116137027Y-81782265D01*
X116194465Y-81592916D01*
X116199414Y-81542675D01*
X116213860Y-81396002D01*
X116213860Y-81395997D01*
X116194466Y-81199090D01*
X116194465Y-81199088D01*
X116194465Y-81199084D01*
X116137027Y-81009735D01*
X116043752Y-80835230D01*
X115918225Y-80682275D01*
X115765270Y-80556748D01*
X115590765Y-80463473D01*
X115401416Y-80406035D01*
X115401412Y-80406034D01*
X115395493Y-80404239D01*
X115396297Y-80401587D01*
X115343957Y-80374139D01*
X115308890Y-80312407D01*
X115312764Y-80241516D01*
X115342445Y-80194467D01*
X115457509Y-80079404D01*
X115519822Y-80045379D01*
X115546604Y-80042500D01*
X116574425Y-80042500D01*
X116642546Y-80062502D01*
X116689039Y-80116158D01*
X116699143Y-80186432D01*
X116669649Y-80251012D01*
X116649934Y-80269368D01*
X116631595Y-80283095D01*
X116544055Y-80400034D01*
X116544055Y-80400035D01*
X116493005Y-80536906D01*
X116486500Y-80597402D01*
X116486500Y-81142000D01*
X117461099Y-81142000D01*
X117440424Y-81162675D01*
X117390396Y-81249325D01*
X117364500Y-81345972D01*
X117364500Y-81446028D01*
X117390396Y-81542675D01*
X117440424Y-81629325D01*
X117461099Y-81650000D01*
X116486500Y-81650000D01*
X116486500Y-82194597D01*
X116493005Y-82255093D01*
X116544055Y-82391964D01*
X116544055Y-82391965D01*
X116631595Y-82508904D01*
X116748534Y-82596444D01*
X116885406Y-82647494D01*
X116945902Y-82653999D01*
X116945915Y-82654000D01*
X117490500Y-82654000D01*
X117490500Y-81679401D01*
X117511175Y-81700076D01*
X117597825Y-81750104D01*
X117694472Y-81776000D01*
X117794528Y-81776000D01*
X117891175Y-81750104D01*
X117977825Y-81700076D01*
X117998500Y-81679401D01*
X117998500Y-82654000D01*
X118543085Y-82654000D01*
X118543097Y-82653999D01*
X118603593Y-82647494D01*
X118740464Y-82596444D01*
X118740465Y-82596444D01*
X118857404Y-82508904D01*
X118890633Y-82464516D01*
X123201000Y-82464516D01*
X123211605Y-82568318D01*
X123211606Y-82568321D01*
X123267342Y-82736525D01*
X123360365Y-82887339D01*
X123360370Y-82887345D01*
X123485654Y-83012629D01*
X123485660Y-83012634D01*
X123636474Y-83105657D01*
X123804678Y-83161393D01*
X123804681Y-83161394D01*
X123908483Y-83171999D01*
X123908483Y-83172000D01*
X124130000Y-83172000D01*
X124638000Y-83172000D01*
X124859517Y-83172000D01*
X124859516Y-83171999D01*
X124963318Y-83161394D01*
X124963321Y-83161393D01*
X125131525Y-83105657D01*
X125282339Y-83012634D01*
X125282345Y-83012629D01*
X125407629Y-82887345D01*
X125407634Y-82887339D01*
X125500657Y-82736525D01*
X125556393Y-82568321D01*
X125556394Y-82568318D01*
X125566999Y-82464516D01*
X125567000Y-82464516D01*
X126757000Y-82464516D01*
X126767605Y-82568318D01*
X126767606Y-82568321D01*
X126823342Y-82736525D01*
X126916365Y-82887339D01*
X126916370Y-82887345D01*
X127041654Y-83012629D01*
X127041660Y-83012634D01*
X127192474Y-83105657D01*
X127360678Y-83161393D01*
X127360681Y-83161394D01*
X127464483Y-83171999D01*
X127464483Y-83172000D01*
X127686000Y-83172000D01*
X128194000Y-83172000D01*
X128415517Y-83172000D01*
X128415516Y-83171999D01*
X128519318Y-83161394D01*
X128519321Y-83161393D01*
X128687525Y-83105657D01*
X128838339Y-83012634D01*
X128838345Y-83012629D01*
X128963629Y-82887345D01*
X128963634Y-82887339D01*
X129056657Y-82736525D01*
X129112393Y-82568321D01*
X129112394Y-82568318D01*
X129122999Y-82464516D01*
X129123000Y-82464516D01*
X129123000Y-82218000D01*
X128194000Y-82218000D01*
X128194000Y-83172000D01*
X127686000Y-83172000D01*
X127686000Y-82218000D01*
X126757000Y-82218000D01*
X126757000Y-82464516D01*
X125567000Y-82464516D01*
X125567000Y-82218000D01*
X124638000Y-82218000D01*
X124638000Y-83172000D01*
X124130000Y-83172000D01*
X124130000Y-82218000D01*
X123201000Y-82218000D01*
X123201000Y-82464516D01*
X118890633Y-82464516D01*
X118944944Y-82391965D01*
X118944944Y-82391964D01*
X118995994Y-82255093D01*
X119002499Y-82194597D01*
X119002500Y-82194585D01*
X119002500Y-81650000D01*
X118027901Y-81650000D01*
X118048576Y-81629325D01*
X118098604Y-81542675D01*
X118119823Y-81463483D01*
X123201000Y-81463483D01*
X123201000Y-81710000D01*
X124130000Y-81710000D01*
X124638000Y-81710000D01*
X125567000Y-81710000D01*
X125567000Y-81463483D01*
X126757000Y-81463483D01*
X126757000Y-81710000D01*
X127686000Y-81710000D01*
X128194000Y-81710000D01*
X129123000Y-81710000D01*
X129123000Y-81463483D01*
X129112394Y-81359681D01*
X129112393Y-81359678D01*
X129056657Y-81191474D01*
X128963634Y-81040660D01*
X128963629Y-81040654D01*
X128838345Y-80915370D01*
X128838339Y-80915365D01*
X128687525Y-80822342D01*
X128519321Y-80766606D01*
X128519318Y-80766605D01*
X128415516Y-80756000D01*
X128194000Y-80756000D01*
X128194000Y-81710000D01*
X127686000Y-81710000D01*
X127686000Y-80756000D01*
X127464483Y-80756000D01*
X127360681Y-80766605D01*
X127360678Y-80766606D01*
X127192474Y-80822342D01*
X127041660Y-80915365D01*
X127041654Y-80915370D01*
X126916370Y-81040654D01*
X126916365Y-81040660D01*
X126823342Y-81191474D01*
X126767606Y-81359678D01*
X126767605Y-81359681D01*
X126757000Y-81463483D01*
X125567000Y-81463483D01*
X125556394Y-81359681D01*
X125556393Y-81359678D01*
X125500657Y-81191474D01*
X125407634Y-81040660D01*
X125407629Y-81040654D01*
X125282345Y-80915370D01*
X125282339Y-80915365D01*
X125131525Y-80822342D01*
X124963321Y-80766606D01*
X124963318Y-80766605D01*
X124859516Y-80756000D01*
X124638000Y-80756000D01*
X124638000Y-81710000D01*
X124130000Y-81710000D01*
X124130000Y-80756000D01*
X123908483Y-80756000D01*
X123804681Y-80766605D01*
X123804678Y-80766606D01*
X123636474Y-80822342D01*
X123485660Y-80915365D01*
X123485654Y-80915370D01*
X123360370Y-81040654D01*
X123360365Y-81040660D01*
X123267342Y-81191474D01*
X123211606Y-81359678D01*
X123211605Y-81359681D01*
X123201000Y-81463483D01*
X118119823Y-81463483D01*
X118124500Y-81446028D01*
X118124500Y-81345972D01*
X118098604Y-81249325D01*
X118048576Y-81162675D01*
X118027901Y-81142000D01*
X119002500Y-81142000D01*
X119002500Y-80597414D01*
X119002499Y-80597402D01*
X118995994Y-80536906D01*
X118944944Y-80400035D01*
X118944944Y-80400034D01*
X118857404Y-80283095D01*
X118839066Y-80269368D01*
X118796519Y-80212532D01*
X118791455Y-80141717D01*
X118825480Y-80079405D01*
X118887792Y-80045379D01*
X118914575Y-80042500D01*
X120880054Y-80042500D01*
X120896500Y-80043578D01*
X121030999Y-80061285D01*
X121030999Y-80061284D01*
X121031000Y-80061285D01*
X121175754Y-80042228D01*
X121310643Y-79986355D01*
X121426474Y-79897474D01*
X121515355Y-79781643D01*
X121571228Y-79646754D01*
X121590285Y-79502000D01*
X121588968Y-79492000D01*
X121571228Y-79357247D01*
X121571228Y-79357246D01*
X121515355Y-79222358D01*
X121426474Y-79106526D01*
X121426472Y-79106524D01*
X121426471Y-79106523D01*
X121410101Y-79093962D01*
X121368234Y-79036624D01*
X121364012Y-78965753D01*
X121398776Y-78903851D01*
X121410101Y-78894038D01*
X121426474Y-78881474D01*
X121441691Y-78861643D01*
X121515355Y-78765643D01*
X121571228Y-78630754D01*
X121590285Y-78486000D01*
X121589784Y-78482198D01*
X121580756Y-78413623D01*
X121571228Y-78341246D01*
X121515355Y-78206358D01*
X121426474Y-78090526D01*
X121426472Y-78090524D01*
X121426471Y-78090523D01*
X121410101Y-78077962D01*
X121368234Y-78020624D01*
X121364012Y-77949753D01*
X121398776Y-77887851D01*
X121410101Y-77878038D01*
X121426474Y-77865474D01*
X121430279Y-77860515D01*
X121515355Y-77749643D01*
X121571228Y-77614754D01*
X121590285Y-77470000D01*
X121583866Y-77421246D01*
X121573631Y-77343499D01*
X121571228Y-77325246D01*
X121515355Y-77190358D01*
X121426474Y-77074526D01*
X121426472Y-77074524D01*
X121426471Y-77074523D01*
X121310649Y-76985649D01*
X121310641Y-76985644D01*
X121175752Y-76929771D01*
X121031000Y-76910715D01*
X120886246Y-76929771D01*
X120886245Y-76929772D01*
X120794176Y-76967909D01*
X120745958Y-76977500D01*
X119820480Y-76977500D01*
X119752359Y-76957498D01*
X119705866Y-76903842D01*
X119695762Y-76833568D01*
X119725256Y-76768988D01*
X119772260Y-76735092D01*
X119834712Y-76709224D01*
X120044789Y-76587936D01*
X120237238Y-76440265D01*
X120408765Y-76268738D01*
X120556436Y-76076289D01*
X120677724Y-75866212D01*
X120770554Y-75642100D01*
X120833338Y-75407789D01*
X120865000Y-75167288D01*
X120865000Y-74924712D01*
X120833338Y-74684211D01*
X120770554Y-74449900D01*
X120677724Y-74225788D01*
X120677718Y-74225779D01*
X120677717Y-74225775D01*
X120556438Y-74015714D01*
X120538207Y-73991955D01*
X120408765Y-73823262D01*
X120408759Y-73823256D01*
X120408755Y-73823251D01*
X120237248Y-73651744D01*
X120237242Y-73651739D01*
X120237238Y-73651735D01*
X120044789Y-73504064D01*
X120044788Y-73504063D01*
X120044785Y-73504061D01*
X119834724Y-73382782D01*
X119834716Y-73382778D01*
X119834712Y-73382776D01*
X119610600Y-73289946D01*
X119610597Y-73289945D01*
X119610595Y-73289944D01*
X119376282Y-73227160D01*
X119135790Y-73195500D01*
X119135788Y-73195500D01*
X118893212Y-73195500D01*
X118893209Y-73195500D01*
X118652717Y-73227160D01*
X118418404Y-73289944D01*
X118418400Y-73289946D01*
X118194286Y-73382777D01*
X118194275Y-73382782D01*
X117984214Y-73504061D01*
X117791762Y-73651735D01*
X117791751Y-73651744D01*
X117620244Y-73823251D01*
X117620235Y-73823262D01*
X117472561Y-74015714D01*
X117351282Y-74225775D01*
X117351277Y-74225786D01*
X117351276Y-74225788D01*
X117338206Y-74257342D01*
X117258446Y-74449900D01*
X117258444Y-74449904D01*
X117195660Y-74684217D01*
X117164000Y-74924709D01*
X117164000Y-75167290D01*
X117195660Y-75407782D01*
X117258444Y-75642095D01*
X117258445Y-75642097D01*
X117258446Y-75642100D01*
X117351276Y-75866212D01*
X117351277Y-75866213D01*
X117351282Y-75866224D01*
X117472561Y-76076285D01*
X117472563Y-76076288D01*
X117472564Y-76076289D01*
X117620235Y-76268738D01*
X117620239Y-76268742D01*
X117620244Y-76268748D01*
X117791751Y-76440255D01*
X117791756Y-76440259D01*
X117791762Y-76440265D01*
X117941610Y-76555247D01*
X117984214Y-76587938D01*
X118194275Y-76709217D01*
X118194279Y-76709218D01*
X118194288Y-76709224D01*
X118256739Y-76735092D01*
X118312019Y-76779639D01*
X118334440Y-76847002D01*
X118316882Y-76915794D01*
X118264920Y-76964172D01*
X118208520Y-76977500D01*
X114602759Y-76977500D01*
X114468869Y-76977500D01*
X114339540Y-77012153D01*
X114339538Y-77012154D01*
X114339535Y-77012155D01*
X114223589Y-77079097D01*
X114223586Y-77079099D01*
X110987603Y-80315081D01*
X110986389Y-80316664D01*
X110985025Y-80317659D01*
X110981759Y-80320926D01*
X110981249Y-80320416D01*
X110929049Y-80358529D01*
X110858178Y-80362748D01*
X110814159Y-80343169D01*
X110755906Y-80302380D01*
X110755907Y-80302380D01*
X110556407Y-80209352D01*
X110556403Y-80209350D01*
X110343787Y-80152380D01*
X110124500Y-80133195D01*
X109905212Y-80152380D01*
X109692596Y-80209350D01*
X109692592Y-80209352D01*
X109493098Y-80302378D01*
X109432511Y-80344801D01*
X110103711Y-81016000D01*
X110074472Y-81016000D01*
X109977825Y-81041896D01*
X109891175Y-81091924D01*
X109820424Y-81162675D01*
X109770396Y-81249325D01*
X109744500Y-81345972D01*
X109744500Y-81375209D01*
X109073301Y-80704010D01*
X109030878Y-80764598D01*
X108937852Y-80964092D01*
X108937850Y-80964096D01*
X108880880Y-81176712D01*
X108861695Y-81396000D01*
X107696500Y-81396000D01*
X107696500Y-79690423D01*
X107716502Y-79622302D01*
X107733405Y-79601328D01*
X114907328Y-72427405D01*
X114969640Y-72393379D01*
X114996423Y-72390500D01*
X120623577Y-72390500D01*
X120691698Y-72410502D01*
X120712672Y-72427405D01*
X123382375Y-75097108D01*
X123470892Y-75185625D01*
X123574978Y-75255173D01*
X123676718Y-75297315D01*
X123731999Y-75341863D01*
X123754420Y-75409227D01*
X123754500Y-75413724D01*
X123754500Y-75424452D01*
X123734498Y-75492573D01*
X123704010Y-75525320D01*
X123679595Y-75543596D01*
X123592657Y-75659734D01*
X123541962Y-75795650D01*
X123541960Y-75795658D01*
X123535500Y-75855737D01*
X123535500Y-77652246D01*
X123535502Y-77652270D01*
X123541959Y-77712339D01*
X123541959Y-77712341D01*
X123592657Y-77848266D01*
X123677403Y-77961474D01*
X123679596Y-77964404D01*
X123697758Y-77978000D01*
X123698006Y-77978185D01*
X123740554Y-78035019D01*
X123748500Y-78079055D01*
X123748500Y-78278308D01*
X123728498Y-78346429D01*
X123698009Y-78379176D01*
X123598596Y-78453595D01*
X123511657Y-78569734D01*
X123460962Y-78705650D01*
X123460960Y-78705658D01*
X123454500Y-78765737D01*
X123454500Y-79762246D01*
X123454502Y-79762270D01*
X123460959Y-79822339D01*
X123460959Y-79822341D01*
X123511657Y-79958266D01*
X123525198Y-79976355D01*
X123598596Y-80074404D01*
X123714733Y-80161342D01*
X123850658Y-80212040D01*
X123910745Y-80218500D01*
X124857254Y-80218499D01*
X124917342Y-80212040D01*
X125053267Y-80161342D01*
X125169404Y-80074404D01*
X125256342Y-79958267D01*
X125307040Y-79822342D01*
X125313500Y-79762255D01*
X125313499Y-78765746D01*
X125307040Y-78705658D01*
X125256342Y-78569733D01*
X125169404Y-78453596D01*
X125154881Y-78442724D01*
X125069991Y-78379176D01*
X125027444Y-78322340D01*
X125019500Y-78278308D01*
X125019500Y-78088038D01*
X125039502Y-78019917D01*
X125069989Y-77987171D01*
X125100404Y-77964404D01*
X125187342Y-77848267D01*
X125238040Y-77712342D01*
X125244500Y-77652255D01*
X125244499Y-75855746D01*
X125238040Y-75795658D01*
X125187342Y-75659733D01*
X125100404Y-75543596D01*
X125100403Y-75543595D01*
X125100401Y-75543592D01*
X125099404Y-75542595D01*
X125098728Y-75541357D01*
X125095003Y-75536381D01*
X125095718Y-75535845D01*
X125065378Y-75480283D01*
X125070443Y-75409468D01*
X125112990Y-75352632D01*
X125179510Y-75327821D01*
X125188499Y-75327500D01*
X125678107Y-75327500D01*
X125746228Y-75347502D01*
X125792721Y-75401158D01*
X125802825Y-75471432D01*
X125782873Y-75523500D01*
X125758715Y-75559657D01*
X125755828Y-75563977D01*
X125755827Y-75563977D01*
X125707924Y-75679625D01*
X125707922Y-75679630D01*
X125683500Y-75802406D01*
X125683500Y-75927593D01*
X125707922Y-76050369D01*
X125707924Y-76050374D01*
X125745720Y-76141621D01*
X125755827Y-76166022D01*
X125825375Y-76270108D01*
X126756892Y-77201625D01*
X126860978Y-77271173D01*
X126976631Y-77319078D01*
X127099409Y-77343500D01*
X127224591Y-77343500D01*
X127969501Y-77343500D01*
X128037622Y-77363502D01*
X128084115Y-77417158D01*
X128095501Y-77469500D01*
X128095501Y-77652246D01*
X128095502Y-77652270D01*
X128101959Y-77712339D01*
X128101959Y-77712341D01*
X128152657Y-77848266D01*
X128217521Y-77934915D01*
X128242331Y-78001435D01*
X128227239Y-78070809D01*
X128205747Y-78099518D01*
X128032670Y-78272595D01*
X127970358Y-78306621D01*
X127943575Y-78309500D01*
X127466753Y-78309500D01*
X127466729Y-78309502D01*
X127406660Y-78315959D01*
X127406658Y-78315959D01*
X127270733Y-78366657D01*
X127154596Y-78453596D01*
X127067657Y-78569734D01*
X127016962Y-78705650D01*
X127016960Y-78705658D01*
X127010500Y-78765737D01*
X127010500Y-79762246D01*
X127010502Y-79762270D01*
X127016959Y-79822339D01*
X127016959Y-79822341D01*
X127067657Y-79958266D01*
X127081198Y-79976355D01*
X127154596Y-80074404D01*
X127270733Y-80161342D01*
X127406658Y-80212040D01*
X127466745Y-80218500D01*
X128413254Y-80218499D01*
X128473342Y-80212040D01*
X128609267Y-80161342D01*
X128725404Y-80074404D01*
X128812342Y-79958267D01*
X128863040Y-79822342D01*
X128869500Y-79762255D01*
X128869499Y-79285422D01*
X128889501Y-79217302D01*
X128906399Y-79196332D01*
X129443625Y-78659108D01*
X129513173Y-78555022D01*
X129561078Y-78439369D01*
X129585500Y-78316591D01*
X129585500Y-78191409D01*
X129585500Y-78083547D01*
X129605502Y-78015426D01*
X129635992Y-77982678D01*
X129642241Y-77978000D01*
X129660404Y-77964404D01*
X129747342Y-77848267D01*
X129798040Y-77712342D01*
X129804500Y-77652255D01*
X129804499Y-75855746D01*
X129798040Y-75795658D01*
X129747342Y-75659733D01*
X129660404Y-75543596D01*
X129660403Y-75543595D01*
X129660401Y-75543592D01*
X129659404Y-75542595D01*
X129658728Y-75541357D01*
X129655003Y-75536381D01*
X129655718Y-75535845D01*
X129625378Y-75480283D01*
X129630443Y-75409468D01*
X129672990Y-75352632D01*
X129739510Y-75327821D01*
X129748499Y-75327500D01*
X132658577Y-75327500D01*
X132726698Y-75347502D01*
X132747672Y-75364405D01*
X134167595Y-76784328D01*
X134201621Y-76846640D01*
X134204500Y-76873423D01*
X134204500Y-77755246D01*
X134204502Y-77755270D01*
X134210959Y-77815339D01*
X134210959Y-77815341D01*
X134261657Y-77951266D01*
X134269299Y-77961474D01*
X134348596Y-78067404D01*
X134464733Y-78154342D01*
X134600658Y-78205040D01*
X134660745Y-78211500D01*
X135433500Y-78211499D01*
X135501621Y-78231501D01*
X135548114Y-78285157D01*
X135559500Y-78337499D01*
X135559500Y-78473211D01*
X135539498Y-78541332D01*
X135485842Y-78587825D01*
X135477534Y-78591266D01*
X135398733Y-78620658D01*
X135282596Y-78707596D01*
X135195657Y-78823734D01*
X135144962Y-78959650D01*
X135144960Y-78959658D01*
X135138500Y-79019737D01*
X135138500Y-80016246D01*
X135138502Y-80016270D01*
X135144959Y-80076339D01*
X135144959Y-80076341D01*
X135195657Y-80212266D01*
X135200323Y-80218499D01*
X135282596Y-80328404D01*
X135398733Y-80415342D01*
X135534658Y-80466040D01*
X135594745Y-80472500D01*
X136541254Y-80472499D01*
X136601342Y-80466040D01*
X136737267Y-80415342D01*
X136853404Y-80328404D01*
X136940342Y-80212267D01*
X136991040Y-80076342D01*
X136997500Y-80016255D01*
X136997499Y-79019746D01*
X136991040Y-78959658D01*
X136940342Y-78823733D01*
X136853404Y-78707596D01*
X136737267Y-78620658D01*
X136699290Y-78606493D01*
X136658466Y-78591266D01*
X136601631Y-78548719D01*
X136576821Y-78482198D01*
X136576500Y-78473211D01*
X136576500Y-77719056D01*
X136574700Y-77712339D01*
X136541847Y-77589726D01*
X136501100Y-77519151D01*
X136481960Y-77485999D01*
X136481961Y-77485998D01*
X136481956Y-77485993D01*
X136474902Y-77473775D01*
X136474901Y-77473773D01*
X135950404Y-76949276D01*
X135916378Y-76886964D01*
X135913499Y-76860181D01*
X135913499Y-75958753D01*
X135913499Y-75958746D01*
X135907040Y-75898658D01*
X135856342Y-75762733D01*
X135769404Y-75646596D01*
X135653267Y-75559658D01*
X135653265Y-75559657D01*
X135653266Y-75559657D01*
X135517349Y-75508962D01*
X135517344Y-75508960D01*
X135517342Y-75508960D01*
X135509831Y-75508152D01*
X135457262Y-75502500D01*
X135457255Y-75502500D01*
X134735423Y-75502500D01*
X134667302Y-75482498D01*
X134646328Y-75465595D01*
X134105442Y-74924709D01*
X143834000Y-74924709D01*
X143834000Y-75167290D01*
X143865660Y-75407782D01*
X143928444Y-75642095D01*
X143928445Y-75642097D01*
X143928446Y-75642100D01*
X144021276Y-75866212D01*
X144021277Y-75866213D01*
X144021282Y-75866224D01*
X144142561Y-76076285D01*
X144142563Y-76076288D01*
X144142564Y-76076289D01*
X144290235Y-76268738D01*
X144290239Y-76268742D01*
X144290244Y-76268748D01*
X144461751Y-76440255D01*
X144461756Y-76440259D01*
X144461762Y-76440265D01*
X144611610Y-76555247D01*
X144654214Y-76587938D01*
X144864275Y-76709217D01*
X144864279Y-76709218D01*
X144864288Y-76709224D01*
X145088400Y-76802054D01*
X145322711Y-76864838D01*
X145322715Y-76864838D01*
X145322717Y-76864839D01*
X145384702Y-76872999D01*
X145563212Y-76896500D01*
X145563219Y-76896500D01*
X145805781Y-76896500D01*
X145805788Y-76896500D01*
X146023137Y-76867885D01*
X146046282Y-76864839D01*
X146046282Y-76864838D01*
X146046289Y-76864838D01*
X146280600Y-76802054D01*
X146504712Y-76709224D01*
X146714789Y-76587936D01*
X146907238Y-76440265D01*
X147078765Y-76268738D01*
X147226436Y-76076289D01*
X147347724Y-75866212D01*
X147440554Y-75642100D01*
X147503338Y-75407789D01*
X147535000Y-75167288D01*
X147535000Y-74924712D01*
X147535000Y-74924709D01*
X155264000Y-74924709D01*
X155264000Y-75167290D01*
X155295660Y-75407782D01*
X155358444Y-75642095D01*
X155358445Y-75642097D01*
X155358446Y-75642100D01*
X155451276Y-75866212D01*
X155451277Y-75866213D01*
X155451282Y-75866224D01*
X155572561Y-76076285D01*
X155572563Y-76076288D01*
X155572564Y-76076289D01*
X155720235Y-76268738D01*
X155720239Y-76268742D01*
X155720244Y-76268748D01*
X155891751Y-76440255D01*
X155891756Y-76440259D01*
X155891762Y-76440265D01*
X156041610Y-76555247D01*
X156084214Y-76587938D01*
X156294275Y-76709217D01*
X156294279Y-76709218D01*
X156294288Y-76709224D01*
X156518400Y-76802054D01*
X156752711Y-76864838D01*
X156752715Y-76864838D01*
X156752717Y-76864839D01*
X156814702Y-76872999D01*
X156993212Y-76896500D01*
X156993219Y-76896500D01*
X157235781Y-76896500D01*
X157235788Y-76896500D01*
X157453137Y-76867885D01*
X157476282Y-76864839D01*
X157476282Y-76864838D01*
X157476289Y-76864838D01*
X157710600Y-76802054D01*
X157934712Y-76709224D01*
X158144789Y-76587936D01*
X158337238Y-76440265D01*
X158508765Y-76268738D01*
X158656436Y-76076289D01*
X158777724Y-75866212D01*
X158870554Y-75642100D01*
X158933338Y-75407789D01*
X158965000Y-75167288D01*
X158965000Y-74924712D01*
X158933338Y-74684211D01*
X158870554Y-74449900D01*
X158777724Y-74225788D01*
X158777718Y-74225779D01*
X158777717Y-74225775D01*
X158656438Y-74015714D01*
X158638207Y-73991955D01*
X158508765Y-73823262D01*
X158508759Y-73823256D01*
X158508755Y-73823251D01*
X158337248Y-73651744D01*
X158337242Y-73651739D01*
X158337238Y-73651735D01*
X158144789Y-73504064D01*
X158144788Y-73504063D01*
X158144785Y-73504061D01*
X157934724Y-73382782D01*
X157934716Y-73382778D01*
X157934712Y-73382776D01*
X157710600Y-73289946D01*
X157710597Y-73289945D01*
X157710595Y-73289944D01*
X157476282Y-73227160D01*
X157235790Y-73195500D01*
X157235788Y-73195500D01*
X156993212Y-73195500D01*
X156993209Y-73195500D01*
X156752717Y-73227160D01*
X156518404Y-73289944D01*
X156518400Y-73289946D01*
X156294286Y-73382777D01*
X156294275Y-73382782D01*
X156084214Y-73504061D01*
X155891762Y-73651735D01*
X155891751Y-73651744D01*
X155720244Y-73823251D01*
X155720235Y-73823262D01*
X155572561Y-74015714D01*
X155451282Y-74225775D01*
X155451277Y-74225786D01*
X155451276Y-74225788D01*
X155438206Y-74257342D01*
X155358446Y-74449900D01*
X155358444Y-74449904D01*
X155295660Y-74684217D01*
X155264000Y-74924709D01*
X147535000Y-74924709D01*
X147503338Y-74684211D01*
X147440554Y-74449900D01*
X147347724Y-74225788D01*
X147347718Y-74225779D01*
X147347717Y-74225775D01*
X147226438Y-74015714D01*
X147208207Y-73991955D01*
X147078765Y-73823262D01*
X147078759Y-73823256D01*
X147078755Y-73823251D01*
X146907248Y-73651744D01*
X146907242Y-73651739D01*
X146907238Y-73651735D01*
X146714789Y-73504064D01*
X146714788Y-73504063D01*
X146714785Y-73504061D01*
X146504724Y-73382782D01*
X146504716Y-73382778D01*
X146504712Y-73382776D01*
X146280600Y-73289946D01*
X146280597Y-73289945D01*
X146280595Y-73289944D01*
X146046282Y-73227160D01*
X145805790Y-73195500D01*
X145805788Y-73195500D01*
X145563212Y-73195500D01*
X145563209Y-73195500D01*
X145322717Y-73227160D01*
X145088404Y-73289944D01*
X145088400Y-73289946D01*
X144864286Y-73382777D01*
X144864275Y-73382782D01*
X144654214Y-73504061D01*
X144461762Y-73651735D01*
X144461751Y-73651744D01*
X144290244Y-73823251D01*
X144290235Y-73823262D01*
X144142561Y-74015714D01*
X144021282Y-74225775D01*
X144021277Y-74225786D01*
X144021276Y-74225788D01*
X144008206Y-74257342D01*
X143928446Y-74449900D01*
X143928444Y-74449904D01*
X143865660Y-74684217D01*
X143834000Y-74924709D01*
X134105442Y-74924709D01*
X133518592Y-74337859D01*
X133502922Y-74318766D01*
X133481625Y-74286892D01*
X133393108Y-74198375D01*
X133289022Y-74128827D01*
X133173369Y-74080922D01*
X133050593Y-74056500D01*
X133050591Y-74056500D01*
X130033886Y-74056500D01*
X129965765Y-74036498D01*
X129919272Y-73982842D01*
X129909168Y-73912568D01*
X129926645Y-73864353D01*
X130011659Y-73726523D01*
X130067392Y-73558333D01*
X130067394Y-73558321D01*
X130067477Y-73557513D01*
X133931000Y-73557513D01*
X133931079Y-73558284D01*
X133931081Y-73558327D01*
X133931084Y-73558327D01*
X133941605Y-73661325D01*
X133941606Y-73661328D01*
X133997340Y-73829523D01*
X134090365Y-73980340D01*
X134090370Y-73980346D01*
X134215653Y-74105629D01*
X134215659Y-74105634D01*
X134366476Y-74198659D01*
X134534668Y-74254392D01*
X134620131Y-74263124D01*
X134627563Y-74265000D01*
X134632070Y-74265000D01*
X134643502Y-74265582D01*
X134649918Y-74265000D01*
X135560000Y-74265000D01*
X136068000Y-74265000D01*
X136997226Y-74265000D01*
X136997242Y-74264999D01*
X137085000Y-74264999D01*
X137593000Y-74264999D01*
X137683275Y-74264999D01*
X137683299Y-74265000D01*
X138610000Y-74265000D01*
X139118000Y-74265000D01*
X140039505Y-74265000D01*
X140114447Y-74257342D01*
X140114457Y-74257343D01*
X140114457Y-74257342D01*
X140143326Y-74254393D01*
X140143334Y-74254392D01*
X140311523Y-74198659D01*
X140462340Y-74105634D01*
X140462346Y-74105629D01*
X140587629Y-73980346D01*
X140587634Y-73980340D01*
X140680659Y-73829523D01*
X140736392Y-73661333D01*
X140736394Y-73661321D01*
X140746999Y-73557519D01*
X140747000Y-73557519D01*
X140747000Y-72486000D01*
X139118000Y-72486000D01*
X139118000Y-74265000D01*
X138610000Y-74265000D01*
X138610000Y-72486000D01*
X137593000Y-72486000D01*
X137593000Y-74264999D01*
X137085000Y-74264999D01*
X137085000Y-72486000D01*
X136068000Y-72486000D01*
X136068000Y-74265000D01*
X135560000Y-74265000D01*
X135560000Y-72486000D01*
X133931000Y-72486000D01*
X133931000Y-73557513D01*
X130067477Y-73557513D01*
X130077999Y-73454519D01*
X130078000Y-73454519D01*
X130078000Y-72383000D01*
X123262000Y-72383000D01*
X123262000Y-72875077D01*
X123241998Y-72943198D01*
X123188342Y-72989691D01*
X123118068Y-72999795D01*
X123053488Y-72970301D01*
X123046905Y-72964172D01*
X122060733Y-71978000D01*
X133931000Y-71978000D01*
X135560000Y-71978000D01*
X136068000Y-71978000D01*
X137085000Y-71978000D01*
X137593000Y-71978000D01*
X138610000Y-71978000D01*
X139118000Y-71978000D01*
X140747000Y-71978000D01*
X140746999Y-70811000D01*
X139118000Y-70811000D01*
X139118000Y-71978000D01*
X138610000Y-71978000D01*
X138610000Y-70811000D01*
X137593000Y-70811000D01*
X137593000Y-71978000D01*
X137085000Y-71978000D01*
X137085000Y-70811000D01*
X136068000Y-70811000D01*
X136068000Y-71978000D01*
X135560000Y-71978000D01*
X135560000Y-70811000D01*
X133931000Y-70811000D01*
X133931000Y-71978000D01*
X122060733Y-71978000D01*
X121957733Y-71875000D01*
X123262000Y-71875000D01*
X124891000Y-71875000D01*
X125399000Y-71875000D01*
X127941000Y-71875000D01*
X128449000Y-71875000D01*
X130078000Y-71875000D01*
X130077999Y-70708000D01*
X128449000Y-70708000D01*
X128449000Y-71875000D01*
X127941000Y-71875000D01*
X127941000Y-70708000D01*
X125399000Y-70708000D01*
X125399000Y-71875000D01*
X124891000Y-71875000D01*
X124891000Y-70708000D01*
X123262000Y-70708000D01*
X123262000Y-71875000D01*
X121957733Y-71875000D01*
X121344110Y-71261377D01*
X121344108Y-71261375D01*
X121240022Y-71191827D01*
X121124369Y-71143922D01*
X121001593Y-71119500D01*
X121001591Y-71119500D01*
X114743591Y-71119500D01*
X114618409Y-71119500D01*
X114618406Y-71119500D01*
X114495630Y-71143922D01*
X114495625Y-71143924D01*
X114379977Y-71191827D01*
X114275896Y-71261372D01*
X114275889Y-71261377D01*
X109346188Y-76191078D01*
X109283876Y-76225104D01*
X109213061Y-76220039D01*
X109156225Y-76177492D01*
X109131414Y-76110972D01*
X109146505Y-76041598D01*
X109147931Y-76039058D01*
X109247724Y-75866212D01*
X109340554Y-75642100D01*
X109403338Y-75407789D01*
X109435000Y-75167288D01*
X109435000Y-74924712D01*
X109403338Y-74684211D01*
X109340554Y-74449900D01*
X109247724Y-74225788D01*
X109247718Y-74225779D01*
X109247717Y-74225775D01*
X109126438Y-74015714D01*
X109108207Y-73991955D01*
X108978765Y-73823262D01*
X108978759Y-73823256D01*
X108978755Y-73823251D01*
X108807248Y-73651744D01*
X108807242Y-73651739D01*
X108807238Y-73651735D01*
X108614789Y-73504064D01*
X108614788Y-73504063D01*
X108614785Y-73504061D01*
X108404724Y-73382782D01*
X108404716Y-73382778D01*
X108404712Y-73382776D01*
X108180600Y-73289946D01*
X108180597Y-73289945D01*
X108180595Y-73289944D01*
X107946282Y-73227160D01*
X107705790Y-73195500D01*
X107705788Y-73195500D01*
X107463212Y-73195500D01*
X107463209Y-73195500D01*
X107222717Y-73227160D01*
X106988404Y-73289944D01*
X106988400Y-73289946D01*
X106764286Y-73382777D01*
X106764275Y-73382782D01*
X106554214Y-73504061D01*
X106361762Y-73651735D01*
X106361751Y-73651744D01*
X106190244Y-73823251D01*
X106190235Y-73823262D01*
X106042561Y-74015714D01*
X105921282Y-74225775D01*
X105921277Y-74225786D01*
X105921276Y-74225788D01*
X105908206Y-74257342D01*
X105828446Y-74449900D01*
X105828444Y-74449904D01*
X105765660Y-74684217D01*
X105734000Y-74924709D01*
X100500500Y-74924709D01*
X100500500Y-72416999D01*
X101314455Y-72416999D01*
X101314456Y-72417000D01*
X102220297Y-72417000D01*
X102185075Y-72478007D01*
X102151000Y-72605174D01*
X102151000Y-72736826D01*
X102185075Y-72863993D01*
X102220297Y-72925000D01*
X101314455Y-72925000D01*
X101362176Y-73113449D01*
X101362179Y-73113456D01*
X101452580Y-73319548D01*
X101575674Y-73507958D01*
X101728097Y-73673534D01*
X101905698Y-73811767D01*
X101905699Y-73811768D01*
X102103628Y-73918882D01*
X102103630Y-73918883D01*
X102316483Y-73991955D01*
X102316492Y-73991957D01*
X102397000Y-74005391D01*
X102397000Y-73101702D01*
X102458007Y-73136925D01*
X102585174Y-73171000D01*
X102716826Y-73171000D01*
X102843993Y-73136925D01*
X102905000Y-73101702D01*
X102905000Y-74005390D01*
X102985507Y-73991957D01*
X102985516Y-73991955D01*
X103198369Y-73918883D01*
X103198371Y-73918882D01*
X103396300Y-73811768D01*
X103396301Y-73811767D01*
X103573902Y-73673534D01*
X103726325Y-73507958D01*
X103849419Y-73319548D01*
X103939820Y-73113456D01*
X103939823Y-73113449D01*
X103987544Y-72925000D01*
X103081703Y-72925000D01*
X103116925Y-72863993D01*
X103151000Y-72736826D01*
X103151000Y-72605174D01*
X103116925Y-72478007D01*
X103081703Y-72417000D01*
X103987544Y-72417000D01*
X103987544Y-72416999D01*
X103939823Y-72228550D01*
X103939820Y-72228543D01*
X103849419Y-72022451D01*
X103726325Y-71834041D01*
X103573902Y-71668465D01*
X103396303Y-71530233D01*
X103289275Y-71472313D01*
X103238885Y-71422299D01*
X103223533Y-71352982D01*
X103248094Y-71286369D01*
X103304769Y-71243610D01*
X103349244Y-71235499D01*
X103526066Y-71235499D01*
X103526069Y-71235498D01*
X103526073Y-71235498D01*
X103575326Y-71225701D01*
X103600301Y-71220734D01*
X103684484Y-71164484D01*
X103740734Y-71080301D01*
X103755500Y-71006067D01*
X103755500Y-70303000D01*
X133931000Y-70303000D01*
X135560000Y-70303000D01*
X136068000Y-70303000D01*
X137085000Y-70303000D01*
X137593000Y-70303000D01*
X138610000Y-70303000D01*
X139118000Y-70303000D01*
X140746999Y-70303000D01*
X140746999Y-70213741D01*
X140747000Y-70213720D01*
X140747000Y-69136000D01*
X139118000Y-69136000D01*
X139118000Y-70303000D01*
X138610000Y-70303000D01*
X138610000Y-69136000D01*
X137593000Y-69136000D01*
X137593000Y-70303000D01*
X137085000Y-70303000D01*
X137085000Y-69136000D01*
X136068000Y-69136000D01*
X136068000Y-70303000D01*
X135560000Y-70303000D01*
X135560000Y-69136000D01*
X133931000Y-69136000D01*
X133931000Y-70303000D01*
X103755500Y-70303000D01*
X103755500Y-70200000D01*
X123262000Y-70200000D01*
X124891000Y-70200000D01*
X125399000Y-70200000D01*
X127941000Y-70200000D01*
X128449000Y-70200000D01*
X130077999Y-70200000D01*
X130077999Y-70110741D01*
X130078000Y-70110720D01*
X130078000Y-69033000D01*
X128449000Y-69033000D01*
X128449000Y-70200000D01*
X127941000Y-70200000D01*
X127941000Y-69033000D01*
X125399000Y-69033000D01*
X125399000Y-70200000D01*
X124891000Y-70200000D01*
X124891000Y-69033000D01*
X123262000Y-69033000D01*
X123262000Y-70200000D01*
X103755500Y-70200000D01*
X103755499Y-69255934D01*
X103755498Y-69255930D01*
X103755498Y-69255926D01*
X103740734Y-69181699D01*
X103740733Y-69181697D01*
X103684484Y-69097516D01*
X103684483Y-69097515D01*
X103600302Y-69041266D01*
X103526067Y-69026500D01*
X101775936Y-69026500D01*
X101775926Y-69026501D01*
X101701699Y-69041265D01*
X101617515Y-69097516D01*
X101561266Y-69181697D01*
X101546500Y-69255930D01*
X101546500Y-71006063D01*
X101546501Y-71006073D01*
X101561265Y-71080300D01*
X101617516Y-71164484D01*
X101701697Y-71220733D01*
X101701699Y-71220734D01*
X101775933Y-71235500D01*
X101952755Y-71235499D01*
X102020873Y-71255501D01*
X102067366Y-71309156D01*
X102077471Y-71379430D01*
X102047978Y-71444011D01*
X102012723Y-71472312D01*
X101905704Y-71530228D01*
X101905698Y-71530232D01*
X101728097Y-71668465D01*
X101575674Y-71834041D01*
X101452580Y-72022451D01*
X101362179Y-72228543D01*
X101362176Y-72228550D01*
X101314455Y-72416999D01*
X100500500Y-72416999D01*
X100500500Y-66626500D01*
X100520502Y-66558379D01*
X100574158Y-66511886D01*
X100626500Y-66500500D01*
X123899443Y-66500500D01*
X123967564Y-66520502D01*
G37*
%TD.AperFunction*%
%TD*%
M02*
