M48
; DRILL file {KiCad 8.0.4} date 2024-08-22T06:12:05+0100
; FORMAT={-:-/ absolute / inch / decimal}
; #@! TF.CreationDate,2024-08-22T06:12:05+01:00
; #@! TF.GenerationSoftware,Kicad,Pcbnew,8.0.4
; #@! TF.FileFunction,Plated,1,2,PTH
FMAT,2
INCH
; #@! TA.AperFunction,Plated,PTH,ViaDrill
T1C0.0118
; #@! TA.AperFunction,Plated,PTH,ComponentDrill
T2C0.0299
; #@! TA.AperFunction,Plated,PTH,ComponentDrill
T3C0.0394
%
G90
G05
T1
X4.765Y-3.05
X4.765Y-3.09
X4.765Y-3.13
X4.9732Y-2.9868
X5.237Y-3.0538
X5.237Y-3.0938
X5.237Y-3.1296
X5.2464Y-3.2563
X5.3764Y-3.6913
X5.4246Y-3.0197
X5.6036Y-3.0506
X5.6651Y-3.425
X5.8217Y-3.0906
X6.0464Y-3.1313
T2
X4.2856Y-3.3046
X4.3356Y-3.2046
X4.3856Y-3.3046
X4.4356Y-3.2046
X4.4856Y-3.3046
X4.5356Y-3.2046
X4.5856Y-3.3046
X4.6356Y-3.2046
X5.7856Y-3.3046
X5.8356Y-3.2046
X5.8856Y-3.3046
X5.9356Y-3.2046
X5.9856Y-3.3046
X6.0356Y-3.2046
X6.0856Y-3.3046
X6.1356Y-3.2046
T3
X4.0414Y-2.7611
X4.0414Y-2.8611
X4.0414Y-3.1061
X4.0414Y-3.2061
X4.0414Y-3.4711
X4.0414Y-3.5711
X5.1162Y-3.5113
X5.2162Y-3.5113
M30
