%TF.GenerationSoftware,KiCad,Pcbnew,8.0.4*%
%TF.CreationDate,2024-08-22T22:45:39+01:00*%
%TF.ProjectId,PicoChainReference,5069636f-4368-4616-996e-526566657265,v1.1*%
%TF.SameCoordinates,Original*%
%TF.FileFunction,Legend,Bot*%
%TF.FilePolarity,Positive*%
%FSLAX46Y46*%
G04 Gerber Fmt 4.6, Leading zero omitted, Abs format (unit mm)*
G04 Created by KiCad (PCBNEW 8.0.4) date 2024-08-22 22:45:39*
%MOMM*%
%LPD*%
G01*
G04 APERTURE LIST*
%ADD10C,0.000000*%
%ADD11C,0.062500*%
%ADD12C,0.300000*%
%ADD13C,0.093750*%
G04 APERTURE END LIST*
D10*
G36*
X135477301Y-98122143D02*
G01*
X135476763Y-98139337D01*
X135475855Y-98155228D01*
X135474567Y-98169910D01*
X135472890Y-98183479D01*
X135470813Y-98196028D01*
X135468327Y-98207652D01*
X135465423Y-98218446D01*
X135462091Y-98228504D01*
X135458320Y-98237922D01*
X135454103Y-98246794D01*
X135449428Y-98255214D01*
X135444286Y-98263277D01*
X135438668Y-98271078D01*
X135432564Y-98278711D01*
X135425964Y-98286272D01*
X135420831Y-98291743D01*
X135415263Y-98297229D01*
X135409242Y-98302678D01*
X135402750Y-98308040D01*
X135395769Y-98313265D01*
X135388282Y-98318301D01*
X135380271Y-98323099D01*
X135371717Y-98327606D01*
X135367232Y-98329735D01*
X135362604Y-98331773D01*
X135357832Y-98333713D01*
X135352913Y-98335549D01*
X135347845Y-98337275D01*
X135342626Y-98338883D01*
X135337254Y-98340369D01*
X135331726Y-98341725D01*
X135326040Y-98342945D01*
X135320194Y-98344023D01*
X135314186Y-98344953D01*
X135308013Y-98345728D01*
X135301674Y-98346341D01*
X135295166Y-98346788D01*
X135288486Y-98347060D01*
X135281633Y-98347152D01*
X135268106Y-98346788D01*
X135255262Y-98345728D01*
X135243085Y-98344023D01*
X135231556Y-98341725D01*
X135220659Y-98338883D01*
X135210374Y-98335549D01*
X135200685Y-98331773D01*
X135191573Y-98327606D01*
X135183020Y-98323098D01*
X135175010Y-98318301D01*
X135167523Y-98313265D01*
X135160543Y-98308040D01*
X135154052Y-98302678D01*
X135148031Y-98297228D01*
X135142463Y-98291743D01*
X135137330Y-98286272D01*
X135130729Y-98278711D01*
X135124624Y-98271077D01*
X135119005Y-98263275D01*
X135113862Y-98255210D01*
X135109185Y-98246789D01*
X135104965Y-98237915D01*
X135101192Y-98228496D01*
X135097857Y-98218436D01*
X135094950Y-98207641D01*
X135092462Y-98196016D01*
X135090383Y-98183467D01*
X135088704Y-98169899D01*
X135087414Y-98155218D01*
X135086505Y-98139330D01*
X135085966Y-98122138D01*
X135085798Y-98104477D01*
X135181383Y-98104477D01*
X135181659Y-98127914D01*
X135182018Y-98138091D01*
X135182537Y-98147351D01*
X135183227Y-98155776D01*
X135184097Y-98163447D01*
X135185155Y-98170449D01*
X135186413Y-98176863D01*
X135187880Y-98182772D01*
X135189564Y-98188259D01*
X135191477Y-98193405D01*
X135193628Y-98198294D01*
X135196025Y-98203008D01*
X135198680Y-98207629D01*
X135201601Y-98212241D01*
X135204798Y-98216924D01*
X135206164Y-98218756D01*
X135207621Y-98220558D01*
X135210797Y-98224067D01*
X135214307Y-98227435D01*
X135218132Y-98230649D01*
X135222253Y-98233692D01*
X135226652Y-98236550D01*
X135231307Y-98239208D01*
X135236201Y-98241650D01*
X135241314Y-98243861D01*
X135246628Y-98245827D01*
X135252122Y-98247531D01*
X135257778Y-98248960D01*
X135263576Y-98250097D01*
X135269497Y-98250928D01*
X135275523Y-98251438D01*
X135281633Y-98251611D01*
X135287749Y-98251438D01*
X135293778Y-98250929D01*
X135299703Y-98250100D01*
X135305504Y-98248964D01*
X135311162Y-98247537D01*
X135316658Y-98245834D01*
X135321972Y-98243870D01*
X135327086Y-98241660D01*
X135331979Y-98239219D01*
X135336634Y-98236562D01*
X135341030Y-98233704D01*
X135345150Y-98230660D01*
X135348972Y-98227445D01*
X135352479Y-98224074D01*
X135355651Y-98220562D01*
X135358468Y-98216924D01*
X135361666Y-98212240D01*
X135364588Y-98207627D01*
X135367244Y-98203002D01*
X135369643Y-98198279D01*
X135371796Y-98193377D01*
X135373711Y-98188210D01*
X135375398Y-98182695D01*
X135376867Y-98176747D01*
X135378127Y-98170284D01*
X135379188Y-98163221D01*
X135380060Y-98155475D01*
X135380752Y-98146960D01*
X135381273Y-98137595D01*
X135381634Y-98127294D01*
X135381843Y-98115974D01*
X135381911Y-98103550D01*
X135381634Y-98080111D01*
X135381273Y-98069931D01*
X135380752Y-98060669D01*
X135380060Y-98052241D01*
X135379188Y-98044566D01*
X135378127Y-98037561D01*
X135376867Y-98031144D01*
X135375398Y-98025233D01*
X135373711Y-98019745D01*
X135371796Y-98014598D01*
X135369643Y-98009710D01*
X135367244Y-98004999D01*
X135364588Y-98000382D01*
X135361666Y-97995777D01*
X135358468Y-97991102D01*
X135357105Y-97989271D01*
X135355651Y-97987469D01*
X135352479Y-97983960D01*
X135348972Y-97980591D01*
X135345150Y-97977378D01*
X135341030Y-97974335D01*
X135336634Y-97971477D01*
X135331979Y-97968819D01*
X135327086Y-97966377D01*
X135321972Y-97964166D01*
X135316658Y-97962200D01*
X135311162Y-97960496D01*
X135305504Y-97959067D01*
X135299703Y-97957930D01*
X135293778Y-97957098D01*
X135287749Y-97956589D01*
X135281633Y-97956415D01*
X135275523Y-97956588D01*
X135269497Y-97957097D01*
X135263576Y-97957927D01*
X135257778Y-97959063D01*
X135252122Y-97960490D01*
X135246628Y-97962193D01*
X135241314Y-97964157D01*
X135236201Y-97966367D01*
X135231307Y-97968808D01*
X135226652Y-97971465D01*
X135222253Y-97974323D01*
X135218132Y-97977367D01*
X135214307Y-97980582D01*
X135210797Y-97983952D01*
X135207621Y-97987464D01*
X135204798Y-97991102D01*
X135201601Y-97995778D01*
X135198680Y-98000384D01*
X135196025Y-98005005D01*
X135193628Y-98009725D01*
X135191477Y-98014627D01*
X135189564Y-98019794D01*
X135187880Y-98025310D01*
X135186413Y-98031260D01*
X135185155Y-98037726D01*
X135184097Y-98044792D01*
X135183227Y-98052542D01*
X135182537Y-98061059D01*
X135182018Y-98070428D01*
X135181659Y-98080731D01*
X135181450Y-98092053D01*
X135181383Y-98104477D01*
X135085798Y-98104477D01*
X135085789Y-98103550D01*
X135085966Y-98085117D01*
X135086505Y-98068062D01*
X135087414Y-98052292D01*
X135088704Y-98037714D01*
X135090383Y-98024235D01*
X135092462Y-98011761D01*
X135094950Y-98000199D01*
X135097857Y-97989455D01*
X135101192Y-97979436D01*
X135104965Y-97970049D01*
X135109185Y-97961199D01*
X135113862Y-97952795D01*
X135119005Y-97944741D01*
X135124624Y-97936946D01*
X135130729Y-97929315D01*
X135137330Y-97921755D01*
X135142463Y-97916283D01*
X135148031Y-97910796D01*
X135154052Y-97905344D01*
X135160543Y-97899978D01*
X135167523Y-97894749D01*
X135175010Y-97889709D01*
X135183020Y-97884907D01*
X135191573Y-97880394D01*
X135196058Y-97878262D01*
X135200685Y-97876222D01*
X135205456Y-97874280D01*
X135210374Y-97872441D01*
X135215441Y-97870714D01*
X135220659Y-97869103D01*
X135226030Y-97867615D01*
X135231556Y-97866257D01*
X135237241Y-97865035D01*
X135243085Y-97863955D01*
X135249091Y-97863024D01*
X135255262Y-97862248D01*
X135261600Y-97861634D01*
X135268106Y-97861187D01*
X135274783Y-97860914D01*
X135281633Y-97860822D01*
X135295166Y-97861187D01*
X135308013Y-97862248D01*
X135320194Y-97863955D01*
X135331726Y-97866257D01*
X135342626Y-97869103D01*
X135352913Y-97872441D01*
X135362604Y-97876222D01*
X135371717Y-97880394D01*
X135380271Y-97884907D01*
X135388282Y-97889709D01*
X135395769Y-97894750D01*
X135402750Y-97899978D01*
X135409242Y-97905344D01*
X135415263Y-97910796D01*
X135420831Y-97916283D01*
X135425964Y-97921755D01*
X135432564Y-97929319D01*
X135438668Y-97936953D01*
X135444286Y-97944751D01*
X135449428Y-97952806D01*
X135454103Y-97961211D01*
X135458320Y-97970060D01*
X135462091Y-97979447D01*
X135465423Y-97989465D01*
X135468327Y-98000208D01*
X135470813Y-98011768D01*
X135472890Y-98024241D01*
X135474567Y-98037718D01*
X135475855Y-98052294D01*
X135476763Y-98068063D01*
X135477301Y-98085117D01*
X135477478Y-98103550D01*
X135477301Y-98122143D01*
G37*
G36*
X133858735Y-98611453D02*
G01*
X133867948Y-98612112D01*
X133876970Y-98613211D01*
X133885791Y-98614749D01*
X133894405Y-98616727D01*
X133902802Y-98619144D01*
X133910975Y-98622000D01*
X133918914Y-98625296D01*
X133926611Y-98629030D01*
X133934059Y-98633203D01*
X133941248Y-98637815D01*
X133948171Y-98642866D01*
X133954819Y-98648356D01*
X133961184Y-98654285D01*
X133967257Y-98660651D01*
X133973031Y-98667457D01*
X133974909Y-98667457D01*
X133974909Y-98616868D01*
X134070477Y-98616868D01*
X134070477Y-99091928D01*
X133974909Y-99091928D01*
X133974909Y-98806099D01*
X133974776Y-98799717D01*
X133974382Y-98793564D01*
X133973735Y-98787637D01*
X133972844Y-98781936D01*
X133971717Y-98776458D01*
X133970362Y-98771201D01*
X133968787Y-98766164D01*
X133967000Y-98761346D01*
X133965011Y-98756744D01*
X133962826Y-98752357D01*
X133960455Y-98748183D01*
X133957905Y-98744220D01*
X133955185Y-98740467D01*
X133952303Y-98736923D01*
X133949268Y-98733585D01*
X133946086Y-98730451D01*
X133942768Y-98727521D01*
X133939320Y-98724791D01*
X133935752Y-98722262D01*
X133932071Y-98719930D01*
X133928286Y-98717795D01*
X133924404Y-98715854D01*
X133920435Y-98714106D01*
X133916386Y-98712549D01*
X133908083Y-98710002D01*
X133899560Y-98708200D01*
X133890884Y-98707128D01*
X133882120Y-98706774D01*
X133877646Y-98706852D01*
X133873348Y-98707089D01*
X133869204Y-98707491D01*
X133865192Y-98708064D01*
X133861290Y-98708812D01*
X133857475Y-98709742D01*
X133853727Y-98710859D01*
X133850023Y-98712168D01*
X133846340Y-98713676D01*
X133842658Y-98715387D01*
X133838954Y-98717308D01*
X133835206Y-98719443D01*
X133831391Y-98721799D01*
X133827490Y-98724380D01*
X133823478Y-98727193D01*
X133819334Y-98730243D01*
X133750014Y-98647772D01*
X133755494Y-98643655D01*
X133761045Y-98639745D01*
X133766673Y-98636049D01*
X133772383Y-98632575D01*
X133778180Y-98629332D01*
X133784070Y-98626327D01*
X133790060Y-98623570D01*
X133796153Y-98621069D01*
X133802357Y-98618831D01*
X133808677Y-98616864D01*
X133815118Y-98615178D01*
X133821685Y-98613779D01*
X133828386Y-98612678D01*
X133835224Y-98611880D01*
X133842206Y-98611396D01*
X133849338Y-98611233D01*
X133858735Y-98611453D01*
G37*
G36*
X131819723Y-97861041D02*
G01*
X131828937Y-97861701D01*
X131837960Y-97862800D01*
X131846784Y-97864338D01*
X131855400Y-97866316D01*
X131863799Y-97868733D01*
X131871974Y-97871589D01*
X131879915Y-97874884D01*
X131887615Y-97878619D01*
X131895065Y-97882792D01*
X131902257Y-97887404D01*
X131909182Y-97892455D01*
X131915831Y-97897945D01*
X131922198Y-97903873D01*
X131928272Y-97910240D01*
X131934045Y-97917046D01*
X131935898Y-97917046D01*
X131935898Y-97866457D01*
X132031492Y-97866457D01*
X132031492Y-98341517D01*
X131935898Y-98341517D01*
X131935898Y-98055740D01*
X131935765Y-98049354D01*
X131935371Y-98043197D01*
X131934725Y-98037267D01*
X131933835Y-98031562D01*
X131932709Y-98026082D01*
X131931355Y-98020823D01*
X131929781Y-98015785D01*
X131927997Y-98010965D01*
X131926009Y-98006362D01*
X131923826Y-98001975D01*
X131921457Y-97997801D01*
X131918909Y-97993839D01*
X131916191Y-97990086D01*
X131913311Y-97986542D01*
X131910277Y-97983205D01*
X131907098Y-97980073D01*
X131903781Y-97977144D01*
X131900335Y-97974416D01*
X131896769Y-97971888D01*
X131893089Y-97969558D01*
X131889305Y-97967424D01*
X131885425Y-97965485D01*
X131881457Y-97963738D01*
X131877408Y-97962183D01*
X131869106Y-97959639D01*
X131860582Y-97957839D01*
X131851903Y-97956769D01*
X131843135Y-97956416D01*
X131838657Y-97956493D01*
X131834356Y-97956731D01*
X131830209Y-97957132D01*
X131826196Y-97957704D01*
X131822293Y-97958452D01*
X131818479Y-97959381D01*
X131814731Y-97960496D01*
X131811028Y-97961803D01*
X131807347Y-97963308D01*
X131803666Y-97965016D01*
X131799963Y-97966932D01*
X131796217Y-97969063D01*
X131792404Y-97971412D01*
X131788504Y-97973986D01*
X131784493Y-97976791D01*
X131780349Y-97979831D01*
X131711002Y-97897361D01*
X131716491Y-97893244D01*
X131722049Y-97889334D01*
X131727681Y-97885637D01*
X131733394Y-97882164D01*
X131739192Y-97878920D01*
X131745082Y-97875916D01*
X131751070Y-97873159D01*
X131757162Y-97870657D01*
X131763363Y-97868419D01*
X131769679Y-97866453D01*
X131776117Y-97864766D01*
X131782681Y-97863368D01*
X131789378Y-97862266D01*
X131796215Y-97861469D01*
X131803195Y-97860985D01*
X131810326Y-97860822D01*
X131819723Y-97861041D01*
G37*
G36*
X131310847Y-98072239D02*
G01*
X131311735Y-98088461D01*
X131312036Y-98105402D01*
X131311708Y-98123240D01*
X131310739Y-98140230D01*
X131309154Y-98156390D01*
X131306975Y-98171738D01*
X131304226Y-98186293D01*
X131300931Y-98200073D01*
X131297114Y-98213098D01*
X131292799Y-98225384D01*
X131288008Y-98236952D01*
X131282767Y-98247820D01*
X131277097Y-98258005D01*
X131271024Y-98267528D01*
X131264571Y-98276405D01*
X131257761Y-98284655D01*
X131250618Y-98292298D01*
X131243165Y-98299352D01*
X131235428Y-98305834D01*
X131227428Y-98311764D01*
X131219190Y-98317160D01*
X131210738Y-98322041D01*
X131202095Y-98326425D01*
X131193284Y-98330331D01*
X131175256Y-98336781D01*
X131156843Y-98341540D01*
X131138235Y-98344757D01*
X131119621Y-98346578D01*
X131101190Y-98347152D01*
X131089280Y-98346886D01*
X131077451Y-98346079D01*
X131065720Y-98344718D01*
X131054105Y-98342789D01*
X131042621Y-98340277D01*
X131031285Y-98337170D01*
X131020114Y-98333453D01*
X131009125Y-98329114D01*
X130998334Y-98324137D01*
X130987757Y-98318510D01*
X130977412Y-98312219D01*
X130967315Y-98305249D01*
X130957483Y-98297588D01*
X130947932Y-98289221D01*
X130938679Y-98280136D01*
X130929740Y-98270317D01*
X130999087Y-98211315D01*
X131004489Y-98216618D01*
X131010132Y-98221629D01*
X131015996Y-98226341D01*
X131022062Y-98230747D01*
X131028307Y-98234841D01*
X131034713Y-98238614D01*
X131041259Y-98242061D01*
X131047923Y-98245175D01*
X131054686Y-98247948D01*
X131061527Y-98250373D01*
X131068426Y-98252445D01*
X131075362Y-98254155D01*
X131082315Y-98255497D01*
X131089264Y-98256464D01*
X131096188Y-98257049D01*
X131103069Y-98257246D01*
X131109167Y-98257131D01*
X131115155Y-98256785D01*
X131121028Y-98256209D01*
X131126779Y-98255403D01*
X131132404Y-98254366D01*
X131137897Y-98253100D01*
X131143253Y-98251604D01*
X131148465Y-98249879D01*
X131153529Y-98247925D01*
X131158440Y-98245741D01*
X131163190Y-98243328D01*
X131167776Y-98240687D01*
X131172192Y-98237817D01*
X131176432Y-98234719D01*
X131180490Y-98231392D01*
X131184362Y-98227838D01*
X131188041Y-98224055D01*
X131191523Y-98220045D01*
X131194802Y-98215807D01*
X131197872Y-98211342D01*
X131200728Y-98206649D01*
X131203364Y-98201730D01*
X131205775Y-98196584D01*
X131207955Y-98191211D01*
X131209900Y-98185612D01*
X131211603Y-98179786D01*
X131213059Y-98173734D01*
X131214263Y-98167456D01*
X131215208Y-98160953D01*
X131215890Y-98154223D01*
X131216304Y-98147269D01*
X131216443Y-98140089D01*
X130920348Y-98140089D01*
X130920348Y-98061402D01*
X131015942Y-98061402D01*
X131216443Y-98061402D01*
X131216152Y-98054732D01*
X131215630Y-98048261D01*
X131214881Y-98041990D01*
X131213910Y-98035919D01*
X131212722Y-98030050D01*
X131211322Y-98024383D01*
X131209714Y-98018920D01*
X131207904Y-98013660D01*
X131205896Y-98008605D01*
X131203695Y-98003756D01*
X131201306Y-97999114D01*
X131198734Y-97994678D01*
X131195983Y-97990451D01*
X131193058Y-97986433D01*
X131189965Y-97982625D01*
X131186707Y-97979028D01*
X131183290Y-97975642D01*
X131179719Y-97972468D01*
X131175998Y-97969508D01*
X131172132Y-97966761D01*
X131168126Y-97964230D01*
X131163985Y-97961914D01*
X131159713Y-97959815D01*
X131155316Y-97957933D01*
X131150798Y-97956270D01*
X131146163Y-97954825D01*
X131141418Y-97953601D01*
X131136567Y-97952597D01*
X131131613Y-97951815D01*
X131126563Y-97951255D01*
X131121422Y-97950919D01*
X131116193Y-97950807D01*
X131110966Y-97950919D01*
X131105832Y-97951255D01*
X131100795Y-97951815D01*
X131095859Y-97952597D01*
X131091027Y-97953601D01*
X131086305Y-97954825D01*
X131081697Y-97956270D01*
X131077207Y-97957933D01*
X131072839Y-97959815D01*
X131068598Y-97961914D01*
X131064487Y-97964230D01*
X131060511Y-97966761D01*
X131056675Y-97969508D01*
X131052982Y-97972468D01*
X131049437Y-97975642D01*
X131046045Y-97979028D01*
X131042809Y-97982625D01*
X131039733Y-97986433D01*
X131036822Y-97990451D01*
X131034081Y-97994679D01*
X131031513Y-97999114D01*
X131029123Y-98003756D01*
X131026915Y-98008606D01*
X131024894Y-98013660D01*
X131023063Y-98018920D01*
X131021427Y-98024384D01*
X131019990Y-98030050D01*
X131018756Y-98035919D01*
X131017730Y-98041990D01*
X131016916Y-98048261D01*
X131016319Y-98054732D01*
X131015942Y-98061402D01*
X130920348Y-98061402D01*
X130920348Y-98061376D01*
X130920612Y-98049997D01*
X130921395Y-98038888D01*
X130922683Y-98028054D01*
X130924461Y-98017503D01*
X130926716Y-98007239D01*
X130929434Y-97997270D01*
X130932599Y-97987600D01*
X130936199Y-97978236D01*
X130940220Y-97969183D01*
X130944646Y-97960449D01*
X130949464Y-97952038D01*
X130954660Y-97943957D01*
X130960220Y-97936212D01*
X130966129Y-97928808D01*
X130972373Y-97921753D01*
X130978940Y-97915051D01*
X130985813Y-97908709D01*
X130992979Y-97902732D01*
X131000425Y-97897128D01*
X131008136Y-97891901D01*
X131016097Y-97887058D01*
X131024295Y-97882604D01*
X131032716Y-97878546D01*
X131041345Y-97874890D01*
X131050168Y-97871642D01*
X131059172Y-97868807D01*
X131068343Y-97866392D01*
X131077665Y-97864402D01*
X131087125Y-97862845D01*
X131096709Y-97861725D01*
X131106403Y-97861048D01*
X131116192Y-97860821D01*
X131133535Y-97861540D01*
X131150990Y-97863760D01*
X131159707Y-97865463D01*
X131168388Y-97867576D01*
X131177012Y-97870111D01*
X131185559Y-97873081D01*
X131194006Y-97876498D01*
X131202333Y-97880372D01*
X131210518Y-97884716D01*
X131218540Y-97889541D01*
X131226378Y-97894861D01*
X131234010Y-97900685D01*
X131241415Y-97907026D01*
X131248573Y-97913897D01*
X131255461Y-97921308D01*
X131262059Y-97929272D01*
X131268346Y-97937800D01*
X131274299Y-97946904D01*
X131279898Y-97956596D01*
X131285122Y-97966888D01*
X131289949Y-97977792D01*
X131294358Y-97989320D01*
X131298328Y-98001482D01*
X131301837Y-98014292D01*
X131304865Y-98027761D01*
X131307390Y-98041900D01*
X131309391Y-98056722D01*
X131309830Y-98061402D01*
X131310847Y-98072239D01*
G37*
G36*
X132637256Y-98952308D02*
G01*
X132637075Y-98959980D01*
X132636535Y-98967530D01*
X132635639Y-98974948D01*
X132634391Y-98982227D01*
X132632793Y-98989360D01*
X132630849Y-98996337D01*
X132628562Y-99003152D01*
X132625936Y-99009796D01*
X132622973Y-99016262D01*
X132619677Y-99022541D01*
X132616051Y-99028627D01*
X132612099Y-99034510D01*
X132607824Y-99040183D01*
X132603228Y-99045638D01*
X132598316Y-99050867D01*
X132593090Y-99055862D01*
X132587554Y-99060616D01*
X132581711Y-99065120D01*
X132575565Y-99069367D01*
X132569118Y-99073349D01*
X132562374Y-99077057D01*
X132555335Y-99080485D01*
X132548007Y-99083623D01*
X132540391Y-99086465D01*
X132532491Y-99089002D01*
X132524310Y-99091226D01*
X132515851Y-99093130D01*
X132507118Y-99094705D01*
X132498115Y-99095944D01*
X132488843Y-99096838D01*
X132479307Y-99097381D01*
X132469510Y-99097564D01*
X132457758Y-99097387D01*
X132446725Y-99096856D01*
X132436382Y-99095965D01*
X132426703Y-99094711D01*
X132417660Y-99093088D01*
X132409225Y-99091094D01*
X132401373Y-99088723D01*
X132394074Y-99085972D01*
X132387302Y-99082836D01*
X132381029Y-99079310D01*
X132375229Y-99075392D01*
X132369873Y-99071076D01*
X132364935Y-99066359D01*
X132360387Y-99061235D01*
X132356202Y-99055701D01*
X132352352Y-99049753D01*
X132350500Y-99049753D01*
X132350500Y-99091928D01*
X132254880Y-99091928D01*
X132254880Y-98890421D01*
X132350474Y-98890421D01*
X132350474Y-98925108D01*
X132350554Y-98931860D01*
X132350798Y-98938238D01*
X132351211Y-98944253D01*
X132351797Y-98949914D01*
X132352560Y-98955232D01*
X132353506Y-98960219D01*
X132354639Y-98964883D01*
X132355964Y-98969237D01*
X132357485Y-98973289D01*
X132359206Y-98977051D01*
X132361134Y-98980534D01*
X132363271Y-98983747D01*
X132365623Y-98986701D01*
X132368195Y-98989406D01*
X132370991Y-98991874D01*
X132374015Y-98994115D01*
X132377273Y-98996138D01*
X132380768Y-98997955D01*
X132384507Y-98999576D01*
X132388492Y-99001011D01*
X132392729Y-99002271D01*
X132397223Y-99003367D01*
X132401978Y-99004309D01*
X132406999Y-99005107D01*
X132417856Y-99006314D01*
X132429831Y-99007073D01*
X132442962Y-99007466D01*
X132457286Y-99007579D01*
X132468948Y-99007255D01*
X132479710Y-99006308D01*
X132489590Y-99004773D01*
X132498611Y-99002687D01*
X132502805Y-99001448D01*
X132506792Y-99000084D01*
X132510575Y-98998601D01*
X132514155Y-98997001D01*
X132517535Y-98995291D01*
X132520719Y-98993474D01*
X132523707Y-98991554D01*
X132526504Y-98989537D01*
X132529112Y-98987427D01*
X132531533Y-98985228D01*
X132533769Y-98982945D01*
X132535824Y-98980582D01*
X132537700Y-98978143D01*
X132539399Y-98975634D01*
X132540924Y-98973058D01*
X132542278Y-98970420D01*
X132544482Y-98964976D01*
X132546030Y-98959339D01*
X132546944Y-98953543D01*
X132547244Y-98947624D01*
X132547167Y-98944408D01*
X132546936Y-98941265D01*
X132546549Y-98938198D01*
X132546007Y-98935207D01*
X132545308Y-98932295D01*
X132544452Y-98929464D01*
X132543438Y-98926716D01*
X132542265Y-98924052D01*
X132540933Y-98921475D01*
X132539441Y-98918986D01*
X132537789Y-98916588D01*
X132535975Y-98914281D01*
X132533999Y-98912069D01*
X132531861Y-98909952D01*
X132529559Y-98907934D01*
X132527093Y-98906015D01*
X132524463Y-98904198D01*
X132521667Y-98902484D01*
X132518705Y-98900875D01*
X132515576Y-98899374D01*
X132512280Y-98897983D01*
X132508815Y-98896702D01*
X132505182Y-98895534D01*
X132501379Y-98894481D01*
X132497407Y-98893545D01*
X132493263Y-98892728D01*
X132488947Y-98892031D01*
X132484460Y-98891456D01*
X132479800Y-98891006D01*
X132474966Y-98890682D01*
X132469957Y-98890487D01*
X132464774Y-98890421D01*
X132350474Y-98890421D01*
X132254880Y-98890421D01*
X132254880Y-98767708D01*
X132255115Y-98756956D01*
X132255814Y-98746652D01*
X132256969Y-98736790D01*
X132258573Y-98727362D01*
X132260616Y-98718362D01*
X132263092Y-98709782D01*
X132265991Y-98701615D01*
X132269306Y-98693855D01*
X132273029Y-98686494D01*
X132277152Y-98679525D01*
X132281666Y-98672942D01*
X132286563Y-98666736D01*
X132291836Y-98660902D01*
X132297477Y-98655432D01*
X132303476Y-98650319D01*
X132309827Y-98645556D01*
X132316521Y-98641136D01*
X132323550Y-98637053D01*
X132330905Y-98633298D01*
X132338580Y-98629865D01*
X132346565Y-98626748D01*
X132354853Y-98623938D01*
X132363436Y-98621429D01*
X132372305Y-98619214D01*
X132381453Y-98617286D01*
X132390871Y-98615638D01*
X132410485Y-98613153D01*
X132431084Y-98611704D01*
X132452603Y-98611233D01*
X132465735Y-98611455D01*
X132478432Y-98612136D01*
X132490700Y-98613293D01*
X132502542Y-98614947D01*
X132513962Y-98617117D01*
X132524964Y-98619822D01*
X132535552Y-98623082D01*
X132545730Y-98626916D01*
X132555501Y-98631344D01*
X132564870Y-98636384D01*
X132573841Y-98642056D01*
X132582418Y-98648380D01*
X132590605Y-98655376D01*
X132598404Y-98663061D01*
X132605822Y-98671456D01*
X132612861Y-98680580D01*
X132537878Y-98737731D01*
X132536278Y-98735235D01*
X132534636Y-98732842D01*
X132532949Y-98730549D01*
X132531213Y-98728357D01*
X132529424Y-98726262D01*
X132527578Y-98724263D01*
X132525673Y-98722360D01*
X132523704Y-98720549D01*
X132521668Y-98718831D01*
X132519560Y-98717203D01*
X132517379Y-98715663D01*
X132515119Y-98714211D01*
X132512778Y-98712845D01*
X132510352Y-98711563D01*
X132507836Y-98710363D01*
X132505228Y-98709245D01*
X132502524Y-98708206D01*
X132499721Y-98707245D01*
X132496814Y-98706361D01*
X132493800Y-98705552D01*
X132490675Y-98704816D01*
X132487436Y-98704152D01*
X132484079Y-98703559D01*
X132480601Y-98703035D01*
X132473267Y-98702187D01*
X132465403Y-98701596D01*
X132456981Y-98701251D01*
X132447972Y-98701138D01*
X132435602Y-98701329D01*
X132424140Y-98701913D01*
X132413570Y-98702910D01*
X132403877Y-98704338D01*
X132395047Y-98706217D01*
X132387064Y-98708566D01*
X132379913Y-98711403D01*
X132376644Y-98713011D01*
X132373578Y-98714748D01*
X132370713Y-98716617D01*
X132368046Y-98718620D01*
X132365576Y-98720760D01*
X132363300Y-98723038D01*
X132361218Y-98725457D01*
X132359326Y-98728020D01*
X132357624Y-98730730D01*
X132356108Y-98733587D01*
X132354779Y-98736595D01*
X132353632Y-98739756D01*
X132352667Y-98743073D01*
X132351882Y-98746548D01*
X132351275Y-98750182D01*
X132350843Y-98753980D01*
X132350500Y-98762072D01*
X132350500Y-98811734D01*
X132482633Y-98811734D01*
X132492060Y-98811922D01*
X132501196Y-98812479D01*
X132510040Y-98813396D01*
X132518592Y-98814662D01*
X132526851Y-98816268D01*
X132534817Y-98818204D01*
X132542489Y-98820461D01*
X132549868Y-98823028D01*
X132556951Y-98825895D01*
X132563739Y-98829054D01*
X132570231Y-98832493D01*
X132576426Y-98836204D01*
X132582325Y-98840177D01*
X132587926Y-98844401D01*
X132593229Y-98848867D01*
X132598233Y-98853565D01*
X132602938Y-98858485D01*
X132607344Y-98863618D01*
X132611449Y-98868954D01*
X132615254Y-98874482D01*
X132618757Y-98880194D01*
X132621959Y-98886079D01*
X132624858Y-98892128D01*
X132627454Y-98898330D01*
X132629747Y-98904676D01*
X132631736Y-98911157D01*
X132633420Y-98917761D01*
X132634800Y-98924481D01*
X132635873Y-98931305D01*
X132636641Y-98938224D01*
X132637102Y-98945228D01*
X132637154Y-98947624D01*
X132637256Y-98952308D01*
G37*
G36*
X131826466Y-98822571D02*
G01*
X131827355Y-98838794D01*
X131827657Y-98855734D01*
X131827328Y-98873577D01*
X131826359Y-98890571D01*
X131824774Y-98906735D01*
X131822595Y-98922087D01*
X131819846Y-98936646D01*
X131816551Y-98950430D01*
X131812734Y-98963457D01*
X131808419Y-98975747D01*
X131803628Y-98987318D01*
X131798387Y-98998188D01*
X131792717Y-99008376D01*
X131786644Y-99017900D01*
X131780191Y-99026779D01*
X131773381Y-99035031D01*
X131766238Y-99042676D01*
X131758786Y-99049730D01*
X131751048Y-99056214D01*
X131743048Y-99062145D01*
X131734810Y-99067542D01*
X131726358Y-99072424D01*
X131717715Y-99076809D01*
X131708904Y-99080715D01*
X131690876Y-99087166D01*
X131672463Y-99091926D01*
X131653855Y-99095142D01*
X131635241Y-99096963D01*
X131616810Y-99097537D01*
X131604900Y-99097272D01*
X131593073Y-99096465D01*
X131581345Y-99095104D01*
X131569732Y-99093174D01*
X131558252Y-99090663D01*
X131546919Y-99087556D01*
X131535752Y-99083839D01*
X131524765Y-99079499D01*
X131513976Y-99074523D01*
X131503401Y-99068895D01*
X131493056Y-99062604D01*
X131482958Y-99055635D01*
X131473123Y-99047973D01*
X131463568Y-99039607D01*
X131454308Y-99030521D01*
X131445361Y-99020702D01*
X131514708Y-98961647D01*
X131520110Y-98966959D01*
X131525754Y-98971977D01*
X131531621Y-98976693D01*
X131537689Y-98981102D01*
X131543938Y-98985197D01*
X131550347Y-98988970D01*
X131556896Y-98992416D01*
X131563563Y-98995527D01*
X131570328Y-98998297D01*
X131577171Y-99000720D01*
X131584070Y-99002788D01*
X131591004Y-99004495D01*
X131597955Y-99005834D01*
X131604899Y-99006799D01*
X131611817Y-99007383D01*
X131618689Y-99007579D01*
X131624787Y-99007463D01*
X131630775Y-99007118D01*
X131636648Y-99006542D01*
X131642400Y-99005735D01*
X131648024Y-99004699D01*
X131653517Y-99003433D01*
X131658873Y-99001938D01*
X131664085Y-99000213D01*
X131669150Y-98998258D01*
X131674060Y-98996075D01*
X131678810Y-98993663D01*
X131683396Y-98991022D01*
X131687812Y-98988153D01*
X131692052Y-98985056D01*
X131696110Y-98981730D01*
X131699982Y-98978177D01*
X131703661Y-98974396D01*
X131707143Y-98970387D01*
X131710422Y-98966151D01*
X131713492Y-98961687D01*
X131716348Y-98956997D01*
X131718984Y-98952080D01*
X131721395Y-98946936D01*
X131723575Y-98941566D01*
X131725520Y-98935969D01*
X131727223Y-98930147D01*
X131728679Y-98924098D01*
X131729883Y-98917824D01*
X131730828Y-98911324D01*
X131731511Y-98904599D01*
X131731924Y-98897649D01*
X131732063Y-98890474D01*
X131436021Y-98890474D01*
X131436021Y-98811734D01*
X131531562Y-98811734D01*
X131732063Y-98811734D01*
X131731772Y-98805068D01*
X131731249Y-98798601D01*
X131730500Y-98792334D01*
X131729529Y-98786266D01*
X131728342Y-98780399D01*
X131726941Y-98774735D01*
X131725334Y-98769273D01*
X131723524Y-98764014D01*
X131721516Y-98758960D01*
X131719315Y-98754111D01*
X131716926Y-98749469D01*
X131714354Y-98745033D01*
X131711603Y-98740806D01*
X131708678Y-98736787D01*
X131705585Y-98732978D01*
X131702327Y-98729379D01*
X131698910Y-98725992D01*
X131695339Y-98722817D01*
X131691618Y-98719855D01*
X131687752Y-98717107D01*
X131683746Y-98714574D01*
X131679604Y-98712256D01*
X131675333Y-98710156D01*
X131670935Y-98708272D01*
X131666417Y-98706607D01*
X131661783Y-98705161D01*
X131657038Y-98703936D01*
X131652186Y-98702931D01*
X131647233Y-98702148D01*
X131642183Y-98701587D01*
X131637041Y-98701251D01*
X131631812Y-98701138D01*
X131626586Y-98701251D01*
X131621451Y-98701587D01*
X131616413Y-98702148D01*
X131611476Y-98702931D01*
X131606644Y-98703936D01*
X131601921Y-98705161D01*
X131597311Y-98706607D01*
X131592819Y-98708272D01*
X131588450Y-98710156D01*
X131584207Y-98712256D01*
X131580094Y-98714574D01*
X131576117Y-98717107D01*
X131572279Y-98719855D01*
X131568585Y-98722817D01*
X131565039Y-98725992D01*
X131561645Y-98729379D01*
X131558407Y-98732978D01*
X131555331Y-98736787D01*
X131552419Y-98740806D01*
X131549678Y-98745033D01*
X131547110Y-98749469D01*
X131544720Y-98754111D01*
X131542512Y-98758960D01*
X131540491Y-98764014D01*
X131538661Y-98769273D01*
X131537027Y-98774735D01*
X131535592Y-98780400D01*
X131534361Y-98786266D01*
X131533338Y-98792334D01*
X131532528Y-98798601D01*
X131531934Y-98805068D01*
X131531562Y-98811734D01*
X131436021Y-98811734D01*
X131436021Y-98811707D01*
X131436284Y-98800333D01*
X131437067Y-98789229D01*
X131438353Y-98778400D01*
X131440130Y-98767852D01*
X131442382Y-98757592D01*
X131445097Y-98747626D01*
X131448260Y-98737959D01*
X131451857Y-98728598D01*
X131455873Y-98719548D01*
X131460296Y-98710816D01*
X131465110Y-98702408D01*
X131470302Y-98694329D01*
X131475858Y-98686586D01*
X131481763Y-98679184D01*
X131488004Y-98672130D01*
X131494566Y-98665429D01*
X131501436Y-98659088D01*
X131508599Y-98653113D01*
X131516042Y-98647509D01*
X131523749Y-98642283D01*
X131531708Y-98637440D01*
X131539904Y-98632987D01*
X131548323Y-98628930D01*
X131556951Y-98625274D01*
X131565774Y-98622026D01*
X131574778Y-98619191D01*
X131583948Y-98616777D01*
X131593272Y-98614787D01*
X131602734Y-98613229D01*
X131612321Y-98612109D01*
X131622018Y-98611433D01*
X131631812Y-98611206D01*
X131649146Y-98611925D01*
X131666595Y-98614143D01*
X131675309Y-98615844D01*
X131683988Y-98617956D01*
X131692611Y-98620490D01*
X131701156Y-98623458D01*
X131709603Y-98626872D01*
X131717929Y-98630744D01*
X131726114Y-98635086D01*
X131734136Y-98639910D01*
X131741975Y-98645226D01*
X131749608Y-98651048D01*
X131757014Y-98657387D01*
X131764173Y-98664255D01*
X131771063Y-98671664D01*
X131777662Y-98679625D01*
X131783950Y-98688151D01*
X131789905Y-98697253D01*
X131795506Y-98706943D01*
X131800731Y-98717233D01*
X131805560Y-98728135D01*
X131809970Y-98739660D01*
X131813942Y-98751821D01*
X131817453Y-98764629D01*
X131820482Y-98778096D01*
X131823008Y-98792235D01*
X131825010Y-98807056D01*
X131825449Y-98811734D01*
X131826466Y-98822571D01*
G37*
G36*
X133423732Y-94308789D02*
G01*
X133424737Y-94308864D01*
X133425737Y-94308987D01*
X133426731Y-94309158D01*
X133427717Y-94309374D01*
X133428694Y-94309635D01*
X133429660Y-94309939D01*
X133430613Y-94310286D01*
X133431553Y-94310673D01*
X133432477Y-94311101D01*
X133434273Y-94312069D01*
X133435991Y-94313182D01*
X133437617Y-94314429D01*
X133439139Y-94315801D01*
X133440547Y-94317287D01*
X133441827Y-94318877D01*
X133442416Y-94319709D01*
X133442968Y-94320562D01*
X133443483Y-94321437D01*
X133443958Y-94322332D01*
X133444393Y-94323246D01*
X133444785Y-94324177D01*
X133445133Y-94325125D01*
X133445437Y-94326087D01*
X133445693Y-94327063D01*
X133445901Y-94328052D01*
X133529616Y-94777923D01*
X133530084Y-94779920D01*
X133530727Y-94781924D01*
X133531534Y-94783922D01*
X133532493Y-94785900D01*
X133533594Y-94787846D01*
X133534825Y-94789746D01*
X133536175Y-94791588D01*
X133537632Y-94793358D01*
X133539187Y-94795044D01*
X133540827Y-94796632D01*
X133542542Y-94798109D01*
X133544320Y-94799462D01*
X133546150Y-94800679D01*
X133548021Y-94801745D01*
X133549921Y-94802649D01*
X133551840Y-94803376D01*
X133853386Y-94926804D01*
X133855264Y-94927629D01*
X133857255Y-94928318D01*
X133859341Y-94928872D01*
X133861504Y-94929293D01*
X133863728Y-94929581D01*
X133865995Y-94929738D01*
X133868287Y-94929766D01*
X133870587Y-94929665D01*
X133872878Y-94929437D01*
X133875141Y-94929082D01*
X133877360Y-94928602D01*
X133879517Y-94927999D01*
X133881594Y-94927272D01*
X133883574Y-94926425D01*
X133885440Y-94925457D01*
X133887173Y-94924370D01*
X134262987Y-94666454D01*
X134263836Y-94665903D01*
X134264711Y-94665394D01*
X134265608Y-94664928D01*
X134266526Y-94664505D01*
X134267464Y-94664124D01*
X134268419Y-94663786D01*
X134270374Y-94663235D01*
X134272375Y-94662850D01*
X134274407Y-94662631D01*
X134276454Y-94662576D01*
X134278502Y-94662684D01*
X134280534Y-94662953D01*
X134282536Y-94663382D01*
X134284492Y-94663969D01*
X134286387Y-94664713D01*
X134288205Y-94665613D01*
X134289080Y-94666121D01*
X134289931Y-94666667D01*
X134290754Y-94667251D01*
X134291549Y-94667874D01*
X134292313Y-94668534D01*
X134293044Y-94669232D01*
X134609592Y-94985753D01*
X134610288Y-94986487D01*
X134610946Y-94987253D01*
X134611567Y-94988050D01*
X134612150Y-94988876D01*
X134612695Y-94989728D01*
X134613202Y-94990605D01*
X134613670Y-94991505D01*
X134614100Y-94992425D01*
X134614491Y-94993365D01*
X134614844Y-94994322D01*
X134615431Y-94996280D01*
X134615860Y-94998283D01*
X134616130Y-95000315D01*
X134616239Y-95002363D01*
X134616186Y-95004409D01*
X134615969Y-95006440D01*
X134615798Y-95007444D01*
X134615586Y-95008438D01*
X134615332Y-95009421D01*
X134615036Y-95010390D01*
X134614698Y-95011344D01*
X134614318Y-95012280D01*
X134613895Y-95013196D01*
X134613430Y-95014091D01*
X134612921Y-95014963D01*
X134612370Y-95015810D01*
X134358926Y-95385168D01*
X134357845Y-95386914D01*
X134356886Y-95388787D01*
X134356049Y-95390770D01*
X134355336Y-95392845D01*
X134354748Y-95394996D01*
X134354285Y-95397206D01*
X134353950Y-95399458D01*
X134353743Y-95401735D01*
X134353665Y-95404019D01*
X134353718Y-95406294D01*
X134353902Y-95408543D01*
X134354219Y-95410748D01*
X134354669Y-95412893D01*
X134355255Y-95414961D01*
X134355977Y-95416935D01*
X134356835Y-95418797D01*
X134490185Y-95729841D01*
X134490541Y-95730797D01*
X134490942Y-95731751D01*
X134491873Y-95733643D01*
X134492966Y-95735507D01*
X134494208Y-95737331D01*
X134495585Y-95739103D01*
X134497084Y-95740813D01*
X134498693Y-95742449D01*
X134500398Y-95744000D01*
X134502186Y-95745454D01*
X134504044Y-95746800D01*
X134505959Y-95748028D01*
X134507918Y-95749125D01*
X134509908Y-95750081D01*
X134511915Y-95750884D01*
X134513926Y-95751523D01*
X134514930Y-95751777D01*
X134515929Y-95751987D01*
X134950851Y-95832870D01*
X134951843Y-95833083D01*
X134952821Y-95833343D01*
X134953785Y-95833651D01*
X134954734Y-95834002D01*
X134955666Y-95834398D01*
X134956581Y-95834835D01*
X134957477Y-95835313D01*
X134958352Y-95835830D01*
X134959206Y-95836384D01*
X134960038Y-95836974D01*
X134960846Y-95837599D01*
X134961628Y-95838257D01*
X134962385Y-95838947D01*
X134963114Y-95839667D01*
X134963814Y-95840415D01*
X134964484Y-95841191D01*
X134965123Y-95841992D01*
X134965730Y-95842818D01*
X134966303Y-95843666D01*
X134966841Y-95844536D01*
X134967343Y-95845426D01*
X134967808Y-95846334D01*
X134968235Y-95847259D01*
X134968621Y-95848199D01*
X134968967Y-95849153D01*
X134969271Y-95850120D01*
X134969531Y-95851098D01*
X134969747Y-95852085D01*
X134969917Y-95853080D01*
X134970040Y-95854082D01*
X134970114Y-95855089D01*
X134970140Y-95856100D01*
X134970113Y-96303749D01*
X134970088Y-96304760D01*
X134970013Y-96305767D01*
X134969890Y-96306770D01*
X134969719Y-96307767D01*
X134969503Y-96308756D01*
X134969242Y-96309736D01*
X134968938Y-96310704D01*
X134968591Y-96311661D01*
X134967776Y-96313531D01*
X134966808Y-96315334D01*
X134965695Y-96317056D01*
X134964448Y-96318688D01*
X134963076Y-96320215D01*
X134961590Y-96321626D01*
X134960000Y-96322910D01*
X134959169Y-96323499D01*
X134958315Y-96324053D01*
X134957440Y-96324568D01*
X134956545Y-96325043D01*
X134955631Y-96325477D01*
X134954700Y-96325869D01*
X134953752Y-96326217D01*
X134952790Y-96326519D01*
X134951814Y-96326773D01*
X134950825Y-96326979D01*
X134526566Y-96405931D01*
X134525569Y-96406136D01*
X134524570Y-96406387D01*
X134522570Y-96407022D01*
X134520578Y-96407824D01*
X134518608Y-96408783D01*
X134516672Y-96409887D01*
X134514784Y-96411123D01*
X134512957Y-96412481D01*
X134511203Y-96413948D01*
X134509536Y-96415513D01*
X134507968Y-96417164D01*
X134506513Y-96418890D01*
X134505183Y-96420680D01*
X134503991Y-96422520D01*
X134502951Y-96424401D01*
X134502076Y-96426310D01*
X134501703Y-96427271D01*
X134501377Y-96428235D01*
X134368927Y-96759097D01*
X134368107Y-96760979D01*
X134367423Y-96762972D01*
X134366874Y-96765059D01*
X134366458Y-96767222D01*
X134366175Y-96769445D01*
X134366022Y-96771710D01*
X134366000Y-96774000D01*
X134366106Y-96776298D01*
X134366339Y-96778586D01*
X134366699Y-96780847D01*
X134367183Y-96783064D01*
X134367792Y-96785220D01*
X134368523Y-96787297D01*
X134369376Y-96789278D01*
X134370349Y-96791146D01*
X134371440Y-96792884D01*
X134612423Y-97144065D01*
X134612972Y-97144912D01*
X134613478Y-97145784D01*
X134613942Y-97146680D01*
X134614363Y-97147597D01*
X134614742Y-97148533D01*
X134615079Y-97149488D01*
X134615628Y-97151441D01*
X134616010Y-97153442D01*
X134616227Y-97155474D01*
X134616281Y-97157523D01*
X134616173Y-97159573D01*
X134615905Y-97161609D01*
X134615477Y-97163614D01*
X134614891Y-97165574D01*
X134614149Y-97167472D01*
X134613252Y-97169295D01*
X134612746Y-97170172D01*
X134612201Y-97171025D01*
X134611619Y-97171851D01*
X134610999Y-97172648D01*
X134610340Y-97173415D01*
X134609645Y-97174148D01*
X134293071Y-97490670D01*
X134292339Y-97491363D01*
X134291575Y-97492019D01*
X134290781Y-97492637D01*
X134289957Y-97493218D01*
X134289107Y-97493760D01*
X134288231Y-97494265D01*
X134287333Y-97494731D01*
X134286414Y-97495159D01*
X134285475Y-97495549D01*
X134284519Y-97495899D01*
X134282563Y-97496483D01*
X134280561Y-97496910D01*
X134278529Y-97497178D01*
X134276481Y-97497287D01*
X134274433Y-97497233D01*
X134272401Y-97497018D01*
X134271396Y-97496848D01*
X134270401Y-97496638D01*
X134269416Y-97496386D01*
X134268446Y-97496092D01*
X134267491Y-97495757D01*
X134266553Y-97495379D01*
X134265635Y-97494960D01*
X134264737Y-97494498D01*
X134263863Y-97493994D01*
X134263014Y-97493448D01*
X133918050Y-97256672D01*
X133916316Y-97255597D01*
X133914458Y-97254654D01*
X133912493Y-97253843D01*
X133910438Y-97253164D01*
X133908311Y-97252619D01*
X133906128Y-97252208D01*
X133903906Y-97251930D01*
X133901663Y-97251787D01*
X133899415Y-97251779D01*
X133897179Y-97251906D01*
X133894973Y-97252169D01*
X133892813Y-97252568D01*
X133890716Y-97253104D01*
X133888700Y-97253777D01*
X133886782Y-97254587D01*
X133884977Y-97255534D01*
X133732842Y-97336762D01*
X133731935Y-97337196D01*
X133731019Y-97337579D01*
X133730098Y-97337909D01*
X133729172Y-97338188D01*
X133728243Y-97338416D01*
X133727312Y-97338594D01*
X133726382Y-97338722D01*
X133725453Y-97338802D01*
X133724527Y-97338833D01*
X133723607Y-97338816D01*
X133722693Y-97338752D01*
X133721787Y-97338641D01*
X133720891Y-97338484D01*
X133720006Y-97338282D01*
X133719134Y-97338035D01*
X133718277Y-97337744D01*
X133717435Y-97337409D01*
X133716612Y-97337031D01*
X133715808Y-97336611D01*
X133715024Y-97336148D01*
X133714264Y-97335645D01*
X133713527Y-97335101D01*
X133712816Y-97334517D01*
X133712133Y-97333893D01*
X133711478Y-97333230D01*
X133710854Y-97332530D01*
X133710262Y-97331791D01*
X133709703Y-97331015D01*
X133709180Y-97330203D01*
X133708694Y-97329355D01*
X133708246Y-97328472D01*
X133707839Y-97327554D01*
X133394149Y-96569602D01*
X133393784Y-96568659D01*
X133393467Y-96567702D01*
X133393197Y-96566732D01*
X133392974Y-96565752D01*
X133392798Y-96564762D01*
X133392667Y-96563766D01*
X133392540Y-96561759D01*
X133392589Y-96559745D01*
X133392809Y-96557739D01*
X133393195Y-96555754D01*
X133393742Y-96553806D01*
X133394446Y-96551909D01*
X133395302Y-96550078D01*
X133396304Y-96548325D01*
X133397449Y-96546668D01*
X133398732Y-96545118D01*
X133399423Y-96544389D01*
X133400147Y-96543692D01*
X133400903Y-96543029D01*
X133401690Y-96542402D01*
X133402508Y-96541814D01*
X133403357Y-96541265D01*
X133441430Y-96517955D01*
X133444178Y-96516210D01*
X133447108Y-96514218D01*
X133450167Y-96512023D01*
X133453300Y-96509667D01*
X133456454Y-96507195D01*
X133459576Y-96504650D01*
X133462612Y-96502075D01*
X133465507Y-96499514D01*
X133490707Y-96482262D01*
X133514757Y-96463531D01*
X133537593Y-96443386D01*
X133559148Y-96421892D01*
X133579356Y-96399114D01*
X133598153Y-96375118D01*
X133615471Y-96349969D01*
X133631246Y-96323731D01*
X133645411Y-96296472D01*
X133651869Y-96282479D01*
X133657901Y-96268255D01*
X133663497Y-96253808D01*
X133668649Y-96239146D01*
X133673350Y-96224277D01*
X133677591Y-96209210D01*
X133681364Y-96193952D01*
X133684660Y-96178513D01*
X133687472Y-96162899D01*
X133689791Y-96147119D01*
X133691609Y-96131182D01*
X133692918Y-96115094D01*
X133693709Y-96098866D01*
X133693975Y-96082504D01*
X133693331Y-96057028D01*
X133691419Y-96031886D01*
X133688270Y-96007110D01*
X133683916Y-95982730D01*
X133678388Y-95958779D01*
X133671716Y-95935286D01*
X133663932Y-95912283D01*
X133655068Y-95889802D01*
X133645153Y-95867872D01*
X133634219Y-95846526D01*
X133622298Y-95825794D01*
X133609421Y-95805708D01*
X133595618Y-95786299D01*
X133580920Y-95767597D01*
X133565360Y-95749634D01*
X133548967Y-95732441D01*
X133531773Y-95716049D01*
X133513810Y-95700489D01*
X133495108Y-95685792D01*
X133475698Y-95671990D01*
X133455611Y-95659113D01*
X133434880Y-95647193D01*
X133413534Y-95636260D01*
X133391605Y-95626346D01*
X133369124Y-95617482D01*
X133346122Y-95609699D01*
X133322630Y-95603028D01*
X133298679Y-95597500D01*
X133274301Y-95593146D01*
X133249527Y-95589998D01*
X133224387Y-95588086D01*
X133198913Y-95587442D01*
X133173439Y-95588086D01*
X133148300Y-95589998D01*
X133123526Y-95593146D01*
X133099148Y-95597500D01*
X133075198Y-95603028D01*
X133051707Y-95609699D01*
X133028706Y-95617482D01*
X133006226Y-95626346D01*
X132984298Y-95636260D01*
X132962953Y-95647193D01*
X132942222Y-95659113D01*
X132922137Y-95671990D01*
X132902728Y-95685792D01*
X132884027Y-95700489D01*
X132866065Y-95716049D01*
X132848873Y-95732441D01*
X132832481Y-95749634D01*
X132816922Y-95767597D01*
X132802226Y-95786299D01*
X132788424Y-95805708D01*
X132775547Y-95825794D01*
X132763627Y-95846526D01*
X132752695Y-95867872D01*
X132742781Y-95889802D01*
X132733917Y-95912283D01*
X132726134Y-95935286D01*
X132719463Y-95958779D01*
X132713935Y-95982730D01*
X132709582Y-96007110D01*
X132706434Y-96031886D01*
X132704522Y-96057028D01*
X132703878Y-96082504D01*
X132704934Y-96115094D01*
X132708060Y-96147119D01*
X132713190Y-96178513D01*
X132720258Y-96209210D01*
X132729198Y-96239146D01*
X132739945Y-96268255D01*
X132752434Y-96296472D01*
X132766597Y-96323731D01*
X132782371Y-96349968D01*
X132799689Y-96375118D01*
X132818485Y-96399114D01*
X132838694Y-96421892D01*
X132860250Y-96443386D01*
X132883088Y-96463531D01*
X132907142Y-96482262D01*
X132932346Y-96499514D01*
X132935225Y-96502075D01*
X132938250Y-96504650D01*
X132941366Y-96507195D01*
X132944516Y-96509667D01*
X132947648Y-96512023D01*
X132950704Y-96514218D01*
X132953629Y-96516210D01*
X132956370Y-96517955D01*
X132994443Y-96541265D01*
X132995287Y-96541814D01*
X132996101Y-96542402D01*
X132996884Y-96543029D01*
X132997637Y-96543692D01*
X132998358Y-96544389D01*
X132999046Y-96545118D01*
X132999702Y-96545878D01*
X133000325Y-96546668D01*
X133000913Y-96547484D01*
X133001467Y-96548325D01*
X133001985Y-96549191D01*
X133002468Y-96550078D01*
X133002914Y-96550984D01*
X133003323Y-96551909D01*
X133003695Y-96552851D01*
X133004028Y-96553806D01*
X133004322Y-96554775D01*
X133004577Y-96555754D01*
X133004791Y-96556743D01*
X133004965Y-96557739D01*
X133005098Y-96558740D01*
X133005188Y-96559745D01*
X133005236Y-96560752D01*
X133005241Y-96561759D01*
X133005202Y-96562764D01*
X133005118Y-96563766D01*
X133004990Y-96564762D01*
X133004816Y-96565752D01*
X133004595Y-96566732D01*
X133004328Y-96567702D01*
X133004014Y-96568659D01*
X133003651Y-96569602D01*
X132689987Y-97327580D01*
X132689580Y-97328498D01*
X132689132Y-97329381D01*
X132688646Y-97330229D01*
X132688124Y-97331041D01*
X132687566Y-97331816D01*
X132686975Y-97332554D01*
X132686351Y-97333254D01*
X132685697Y-97333915D01*
X132685014Y-97334538D01*
X132684304Y-97335122D01*
X132683568Y-97335665D01*
X132682809Y-97336168D01*
X132682026Y-97336629D01*
X132681223Y-97337049D01*
X132680400Y-97337426D01*
X132679559Y-97337760D01*
X132678703Y-97338051D01*
X132677831Y-97338297D01*
X132676947Y-97338499D01*
X132676051Y-97338656D01*
X132675145Y-97338766D01*
X132674231Y-97338830D01*
X132673310Y-97338847D01*
X132672385Y-97338817D01*
X132671455Y-97338738D01*
X132670524Y-97338610D01*
X132669592Y-97338433D01*
X132668662Y-97338207D01*
X132667734Y-97337929D01*
X132666811Y-97337601D01*
X132665894Y-97337220D01*
X132664984Y-97336788D01*
X132512849Y-97255561D01*
X132511040Y-97254613D01*
X132509118Y-97253802D01*
X132507100Y-97253128D01*
X132505002Y-97252591D01*
X132502842Y-97252190D01*
X132500635Y-97251926D01*
X132498400Y-97251797D01*
X132496153Y-97251804D01*
X132493911Y-97251946D01*
X132491691Y-97252222D01*
X132489510Y-97252634D01*
X132487384Y-97253179D01*
X132485331Y-97253859D01*
X132483367Y-97254672D01*
X132481510Y-97255619D01*
X132479776Y-97256698D01*
X132134785Y-97493474D01*
X132133939Y-97494021D01*
X132133067Y-97494525D01*
X132132171Y-97494986D01*
X132131254Y-97495406D01*
X132130318Y-97495783D01*
X132129364Y-97496118D01*
X132127411Y-97496664D01*
X132125411Y-97497044D01*
X132123379Y-97497260D01*
X132121332Y-97497313D01*
X132119284Y-97497205D01*
X132117252Y-97496936D01*
X132115250Y-97496509D01*
X132113295Y-97495925D01*
X132111401Y-97495185D01*
X132109585Y-97494291D01*
X132108710Y-97493787D01*
X132107861Y-97493244D01*
X132107039Y-97492663D01*
X132106246Y-97492045D01*
X132105484Y-97491389D01*
X132104755Y-97490696D01*
X131788181Y-97174175D01*
X131787483Y-97173441D01*
X131786823Y-97172675D01*
X131786200Y-97171877D01*
X131785616Y-97171051D01*
X131785070Y-97170199D01*
X131784562Y-97169321D01*
X131784093Y-97168420D01*
X131783662Y-97167499D01*
X131783270Y-97166558D01*
X131782918Y-97165600D01*
X131782331Y-97163640D01*
X131781902Y-97161635D01*
X131781633Y-97159600D01*
X131781525Y-97157550D01*
X131781580Y-97155501D01*
X131781799Y-97153468D01*
X131781971Y-97152463D01*
X131782184Y-97151467D01*
X131782438Y-97150484D01*
X131782735Y-97149514D01*
X131783074Y-97148560D01*
X131783454Y-97147623D01*
X131783878Y-97146706D01*
X131784343Y-97145811D01*
X131784852Y-97144938D01*
X131785403Y-97144092D01*
X132026412Y-96792910D01*
X132027495Y-96791172D01*
X132028460Y-96789304D01*
X132029307Y-96787323D01*
X132030034Y-96785246D01*
X132030639Y-96783090D01*
X132031122Y-96780873D01*
X132031481Y-96778612D01*
X132031714Y-96776324D01*
X132031820Y-96774026D01*
X132031798Y-96771736D01*
X132031647Y-96769471D01*
X132031364Y-96767248D01*
X132030950Y-96765085D01*
X132030402Y-96762998D01*
X132029718Y-96761005D01*
X132028899Y-96759123D01*
X131896449Y-96428261D01*
X131896121Y-96427297D01*
X131895747Y-96426336D01*
X131894870Y-96424427D01*
X131893830Y-96422547D01*
X131892640Y-96420706D01*
X131891313Y-96418917D01*
X131889862Y-96417191D01*
X131888299Y-96415539D01*
X131886636Y-96413974D01*
X131884887Y-96412507D01*
X131883064Y-96411149D01*
X131881180Y-96409913D01*
X131879248Y-96408810D01*
X131877280Y-96407851D01*
X131875288Y-96407048D01*
X131874288Y-96406709D01*
X131873286Y-96406413D01*
X131872286Y-96406162D01*
X131871287Y-96405957D01*
X131447027Y-96327005D01*
X131446041Y-96326799D01*
X131445067Y-96326545D01*
X131444106Y-96326243D01*
X131443160Y-96325895D01*
X131442230Y-96325504D01*
X131441317Y-96325069D01*
X131440423Y-96324594D01*
X131439549Y-96324079D01*
X131438695Y-96323526D01*
X131437864Y-96322936D01*
X131437056Y-96322311D01*
X131436274Y-96321653D01*
X131435517Y-96320962D01*
X131434787Y-96320241D01*
X131434086Y-96319491D01*
X131433415Y-96318714D01*
X131432774Y-96317911D01*
X131432166Y-96317083D01*
X131431591Y-96316232D01*
X131431052Y-96315360D01*
X131430548Y-96314468D01*
X131430081Y-96313557D01*
X131429653Y-96312630D01*
X131429265Y-96311687D01*
X131428917Y-96310731D01*
X131428612Y-96309762D01*
X131428351Y-96308782D01*
X131428134Y-96307793D01*
X131427963Y-96306797D01*
X131427840Y-96305794D01*
X131427765Y-96304786D01*
X131427739Y-96303775D01*
X131427686Y-95856126D01*
X131427709Y-95855113D01*
X131427782Y-95854104D01*
X131427903Y-95853100D01*
X131428071Y-95852103D01*
X131428286Y-95851114D01*
X131428545Y-95850134D01*
X131428847Y-95849166D01*
X131429192Y-95848210D01*
X131429578Y-95847268D01*
X131430004Y-95846342D01*
X131430970Y-95844543D01*
X131432081Y-95842823D01*
X131433325Y-95841194D01*
X131434694Y-95839669D01*
X131436178Y-95838259D01*
X131437765Y-95836975D01*
X131439448Y-95835830D01*
X131440321Y-95835313D01*
X131441214Y-95834835D01*
X131442126Y-95834398D01*
X131443055Y-95834003D01*
X131444001Y-95833651D01*
X131444961Y-95833343D01*
X131445935Y-95833083D01*
X131446922Y-95832870D01*
X131881870Y-95751987D01*
X131883864Y-95751523D01*
X131885868Y-95750884D01*
X131887869Y-95750081D01*
X131889855Y-95749125D01*
X131891811Y-95748028D01*
X131893724Y-95746800D01*
X131895582Y-95745454D01*
X131897371Y-95744000D01*
X131899078Y-95742449D01*
X131900689Y-95740813D01*
X131902192Y-95739103D01*
X131903573Y-95737331D01*
X131904819Y-95735507D01*
X131905916Y-95733643D01*
X131906853Y-95731751D01*
X131907614Y-95729841D01*
X132040938Y-95418797D01*
X132041801Y-95416935D01*
X132042527Y-95414961D01*
X132043116Y-95412893D01*
X132043569Y-95410748D01*
X132043887Y-95408543D01*
X132044072Y-95406294D01*
X132044125Y-95404019D01*
X132044047Y-95401735D01*
X132043838Y-95399458D01*
X132043500Y-95397206D01*
X132043034Y-95394996D01*
X132042441Y-95392845D01*
X132041722Y-95390770D01*
X132040878Y-95388787D01*
X132039911Y-95386914D01*
X132038821Y-95385168D01*
X131785403Y-95015810D01*
X131784856Y-95014963D01*
X131784352Y-95014091D01*
X131783889Y-95013196D01*
X131783469Y-95012280D01*
X131783091Y-95011344D01*
X131782754Y-95010390D01*
X131782206Y-95008438D01*
X131781822Y-95006440D01*
X131781603Y-95004409D01*
X131781547Y-95002363D01*
X131781652Y-95000315D01*
X131781918Y-94998283D01*
X131782344Y-94996280D01*
X131782928Y-94994322D01*
X131783669Y-94992425D01*
X131784566Y-94990605D01*
X131785072Y-94989728D01*
X131785618Y-94988876D01*
X131786201Y-94988050D01*
X131786823Y-94987253D01*
X131787483Y-94986487D01*
X131788181Y-94985753D01*
X132104702Y-94669232D01*
X132105436Y-94668534D01*
X132106202Y-94667874D01*
X132106998Y-94667251D01*
X132107823Y-94666667D01*
X132108675Y-94666121D01*
X132109551Y-94665613D01*
X132110450Y-94665143D01*
X132111370Y-94664713D01*
X132112309Y-94664321D01*
X132113265Y-94663969D01*
X132115220Y-94663381D01*
X132117220Y-94662953D01*
X132119251Y-94662684D01*
X132121296Y-94662576D01*
X132123340Y-94662631D01*
X132125368Y-94662850D01*
X132126371Y-94663022D01*
X132127365Y-94663235D01*
X132128347Y-94663489D01*
X132129315Y-94663786D01*
X132130268Y-94664124D01*
X132131203Y-94664505D01*
X132132119Y-94664928D01*
X132133014Y-94665394D01*
X132133886Y-94665903D01*
X132134732Y-94666454D01*
X132510573Y-94924370D01*
X132512311Y-94925457D01*
X132514181Y-94926425D01*
X132516165Y-94927272D01*
X132518245Y-94927999D01*
X132520404Y-94928602D01*
X132522624Y-94929082D01*
X132524888Y-94929437D01*
X132527179Y-94929665D01*
X132529479Y-94929766D01*
X132531770Y-94929738D01*
X132534035Y-94929581D01*
X132536257Y-94929292D01*
X132538418Y-94928872D01*
X132540500Y-94928318D01*
X132542487Y-94927629D01*
X132544360Y-94926804D01*
X132845879Y-94803376D01*
X132846838Y-94803035D01*
X132847794Y-94802649D01*
X132848746Y-94802218D01*
X132849691Y-94801745D01*
X132851560Y-94800679D01*
X132853389Y-94799462D01*
X132855166Y-94798109D01*
X132856881Y-94796632D01*
X132858522Y-94795044D01*
X132860077Y-94793358D01*
X132861537Y-94791588D01*
X132862888Y-94789746D01*
X132864121Y-94787846D01*
X132865223Y-94785900D01*
X132866184Y-94783922D01*
X132866992Y-94781924D01*
X132867636Y-94779920D01*
X132867893Y-94778920D01*
X132868104Y-94777923D01*
X132951845Y-94328052D01*
X132952053Y-94327063D01*
X132952310Y-94326087D01*
X132952613Y-94325125D01*
X132952961Y-94324177D01*
X132953354Y-94323246D01*
X132953788Y-94322332D01*
X132954264Y-94321437D01*
X132954779Y-94320562D01*
X132955331Y-94319709D01*
X132955920Y-94318877D01*
X132956544Y-94318070D01*
X132957201Y-94317287D01*
X132957890Y-94316530D01*
X132958609Y-94315801D01*
X132959357Y-94315100D01*
X132960133Y-94314429D01*
X132960935Y-94313790D01*
X132961760Y-94313182D01*
X132962609Y-94312608D01*
X132963479Y-94312069D01*
X132964370Y-94311566D01*
X132965278Y-94311101D01*
X132966204Y-94310673D01*
X132967145Y-94310286D01*
X132968099Y-94309939D01*
X132969067Y-94309635D01*
X132970045Y-94309374D01*
X132971033Y-94309158D01*
X132972029Y-94308987D01*
X132973031Y-94308864D01*
X132974038Y-94308789D01*
X132975049Y-94308764D01*
X133422724Y-94308764D01*
X133423732Y-94308789D01*
G37*
G36*
X133259650Y-97861456D02*
G01*
X133277532Y-97863197D01*
X133294709Y-97866094D01*
X133311103Y-97870142D01*
X133326635Y-97875339D01*
X133334053Y-97878366D01*
X133341227Y-97881678D01*
X133348146Y-97885275D01*
X133354800Y-97889157D01*
X133361180Y-97893322D01*
X133367277Y-97897771D01*
X133373080Y-97902502D01*
X133378579Y-97907516D01*
X133383765Y-97912811D01*
X133388628Y-97918388D01*
X133393158Y-97924245D01*
X133397346Y-97930383D01*
X133401181Y-97936800D01*
X133404654Y-97943496D01*
X133407755Y-97950471D01*
X133410474Y-97957725D01*
X133412802Y-97965256D01*
X133414729Y-97973064D01*
X133416244Y-97981148D01*
X133417338Y-97989509D01*
X133418002Y-97998145D01*
X133418226Y-98007057D01*
X133418057Y-98014595D01*
X133417554Y-98021929D01*
X133416725Y-98029059D01*
X133415576Y-98035983D01*
X133414113Y-98042699D01*
X133412345Y-98049208D01*
X133410278Y-98055508D01*
X133407918Y-98061597D01*
X133405272Y-98067476D01*
X133402349Y-98073142D01*
X133399153Y-98078595D01*
X133395692Y-98083833D01*
X133391974Y-98088857D01*
X133388004Y-98093664D01*
X133383790Y-98098253D01*
X133379339Y-98102624D01*
X133374657Y-98106776D01*
X133369751Y-98110707D01*
X133364629Y-98114416D01*
X133359297Y-98117903D01*
X133353761Y-98121166D01*
X133348030Y-98124204D01*
X133342109Y-98127016D01*
X133336006Y-98129602D01*
X133329727Y-98131959D01*
X133323279Y-98134088D01*
X133316670Y-98135987D01*
X133309906Y-98137655D01*
X133295940Y-98140293D01*
X133281436Y-98141994D01*
X133197087Y-98149482D01*
X133191024Y-98150096D01*
X133185163Y-98150910D01*
X133179532Y-98151947D01*
X133174156Y-98153232D01*
X133169062Y-98154786D01*
X133164274Y-98156634D01*
X133159819Y-98158799D01*
X133157724Y-98160007D01*
X133155723Y-98161303D01*
X133153817Y-98162689D01*
X133152011Y-98164169D01*
X133150308Y-98165746D01*
X133148711Y-98167422D01*
X133147223Y-98169200D01*
X133145847Y-98171083D01*
X133144587Y-98173075D01*
X133143446Y-98175177D01*
X133142426Y-98177394D01*
X133141533Y-98179727D01*
X133140768Y-98182180D01*
X133140134Y-98184755D01*
X133139636Y-98187456D01*
X133139276Y-98190285D01*
X133139058Y-98193245D01*
X133138984Y-98196340D01*
X133139099Y-98200060D01*
X133139440Y-98203664D01*
X133140003Y-98207153D01*
X133140783Y-98210525D01*
X133141777Y-98213782D01*
X133142978Y-98216922D01*
X133144384Y-98219945D01*
X133145989Y-98222852D01*
X133147789Y-98225642D01*
X133149780Y-98228316D01*
X133151956Y-98230872D01*
X133154314Y-98233311D01*
X133156849Y-98235632D01*
X133159557Y-98237836D01*
X133162433Y-98239923D01*
X133165473Y-98241891D01*
X133168671Y-98243741D01*
X133172024Y-98245473D01*
X133175528Y-98247087D01*
X133179177Y-98248582D01*
X133182967Y-98249959D01*
X133186895Y-98251216D01*
X133190954Y-98252355D01*
X133195141Y-98253374D01*
X133199451Y-98254274D01*
X133203881Y-98255055D01*
X133208424Y-98255716D01*
X133213078Y-98256257D01*
X133217836Y-98256678D01*
X133222696Y-98256979D01*
X133227652Y-98257160D01*
X133232700Y-98257220D01*
X133244430Y-98256979D01*
X133255743Y-98256258D01*
X133266661Y-98255057D01*
X133277205Y-98253378D01*
X133287399Y-98251222D01*
X133297262Y-98248589D01*
X133306819Y-98245482D01*
X133316090Y-98241901D01*
X133325097Y-98237848D01*
X133333863Y-98233323D01*
X133342409Y-98228328D01*
X133350758Y-98222864D01*
X133358930Y-98216932D01*
X133366949Y-98210533D01*
X133374836Y-98203669D01*
X133382613Y-98196340D01*
X133449129Y-98261903D01*
X133437589Y-98272279D01*
X133425815Y-98281976D01*
X133413812Y-98290995D01*
X133401588Y-98299338D01*
X133389149Y-98307006D01*
X133376504Y-98314000D01*
X133363658Y-98320322D01*
X133350618Y-98325972D01*
X133337392Y-98330953D01*
X133323986Y-98335266D01*
X133310407Y-98338911D01*
X133296662Y-98341891D01*
X133282758Y-98344206D01*
X133268702Y-98345859D01*
X133254501Y-98346849D01*
X133240161Y-98347179D01*
X133219730Y-98346556D01*
X133199961Y-98344703D01*
X133180944Y-98341640D01*
X133162769Y-98337386D01*
X133145529Y-98331963D01*
X133129312Y-98325392D01*
X133114210Y-98317692D01*
X133107105Y-98313425D01*
X133100313Y-98308884D01*
X133093844Y-98304071D01*
X133087711Y-98298988D01*
X133081925Y-98293639D01*
X133076496Y-98288026D01*
X133071437Y-98282151D01*
X133066758Y-98276018D01*
X133062471Y-98269627D01*
X133058587Y-98262983D01*
X133055118Y-98256088D01*
X133052075Y-98248943D01*
X133049469Y-98241553D01*
X133047311Y-98233919D01*
X133045613Y-98226044D01*
X133044386Y-98217930D01*
X133043641Y-98209580D01*
X133043391Y-98200997D01*
X133043856Y-98186969D01*
X133045272Y-98173367D01*
X133047668Y-98160247D01*
X133049242Y-98153885D01*
X133051072Y-98147664D01*
X133053161Y-98141591D01*
X133055513Y-98135672D01*
X133058132Y-98129916D01*
X133061021Y-98124327D01*
X133064184Y-98118915D01*
X133067625Y-98113685D01*
X133071346Y-98108644D01*
X133075352Y-98103799D01*
X133079647Y-98099157D01*
X133084234Y-98094725D01*
X133089116Y-98090510D01*
X133094297Y-98086518D01*
X133099782Y-98082757D01*
X133105572Y-98079234D01*
X133111673Y-98075955D01*
X133118088Y-98072927D01*
X133124820Y-98070157D01*
X133131872Y-98067652D01*
X133139250Y-98065419D01*
X133146956Y-98063464D01*
X133154993Y-98061795D01*
X133163366Y-98060419D01*
X133172078Y-98059342D01*
X133181133Y-98058572D01*
X133259846Y-98052989D01*
X133268426Y-98052086D01*
X133276262Y-98050814D01*
X133283382Y-98049197D01*
X133289811Y-98047259D01*
X133295576Y-98045025D01*
X133298217Y-98043805D01*
X133300703Y-98042521D01*
X133303035Y-98041174D01*
X133305217Y-98039769D01*
X133307252Y-98038309D01*
X133309145Y-98036796D01*
X133310897Y-98035234D01*
X133312513Y-98033626D01*
X133315347Y-98030283D01*
X133317674Y-98026793D01*
X133319519Y-98023179D01*
X133320909Y-98019466D01*
X133321869Y-98015679D01*
X133322426Y-98011844D01*
X133322606Y-98007983D01*
X133322545Y-98004937D01*
X133322359Y-98001943D01*
X133322046Y-97999004D01*
X133321601Y-97996123D01*
X133321021Y-97993303D01*
X133320302Y-97990546D01*
X133319441Y-97987856D01*
X133318434Y-97985235D01*
X133317277Y-97982687D01*
X133315967Y-97980214D01*
X133314501Y-97977819D01*
X133312874Y-97975506D01*
X133311083Y-97973277D01*
X133309124Y-97971135D01*
X133306995Y-97969084D01*
X133304690Y-97967125D01*
X133302207Y-97965262D01*
X133299542Y-97963498D01*
X133296692Y-97961836D01*
X133293653Y-97960279D01*
X133290420Y-97958830D01*
X133286992Y-97957491D01*
X133283363Y-97956265D01*
X133279531Y-97955157D01*
X133275492Y-97954167D01*
X133271242Y-97953300D01*
X133266777Y-97952559D01*
X133262095Y-97951945D01*
X133257191Y-97951463D01*
X133252062Y-97951115D01*
X133246704Y-97950904D01*
X133241114Y-97950833D01*
X133231596Y-97951040D01*
X133222368Y-97951651D01*
X133213411Y-97952652D01*
X133204709Y-97954029D01*
X133196244Y-97955769D01*
X133187997Y-97957857D01*
X133179951Y-97960280D01*
X133172087Y-97963024D01*
X133164390Y-97966075D01*
X133156839Y-97969418D01*
X133149419Y-97973042D01*
X133142110Y-97976930D01*
X133134895Y-97981070D01*
X133127757Y-97985448D01*
X133120677Y-97990049D01*
X133113638Y-97994860D01*
X133054635Y-97925565D01*
X133063535Y-97918351D01*
X133072680Y-97911482D01*
X133082096Y-97904976D01*
X133091810Y-97898848D01*
X133101847Y-97893116D01*
X133112235Y-97887795D01*
X133122999Y-97882903D01*
X133134166Y-97878456D01*
X133145761Y-97874470D01*
X133157812Y-97870962D01*
X133170344Y-97867949D01*
X133183383Y-97865446D01*
X133196956Y-97863471D01*
X133211089Y-97862040D01*
X133225808Y-97861169D01*
X133241140Y-97860875D01*
X133259650Y-97861456D01*
G37*
G36*
X132988868Y-98122143D02*
G01*
X132988328Y-98139337D01*
X132987418Y-98155228D01*
X132986126Y-98169910D01*
X132984445Y-98183479D01*
X132982363Y-98196028D01*
X132979873Y-98207652D01*
X132976964Y-98218446D01*
X132973626Y-98228504D01*
X132969851Y-98237922D01*
X132965629Y-98246794D01*
X132960950Y-98255214D01*
X132955805Y-98263277D01*
X132950185Y-98271078D01*
X132944079Y-98278711D01*
X132937478Y-98286272D01*
X132932346Y-98291743D01*
X132926778Y-98297229D01*
X132920759Y-98302678D01*
X132914269Y-98308040D01*
X132907291Y-98313265D01*
X132899807Y-98318301D01*
X132891798Y-98323099D01*
X132883249Y-98327606D01*
X132878765Y-98329735D01*
X132874139Y-98331773D01*
X132869369Y-98333713D01*
X132864452Y-98335549D01*
X132859386Y-98337275D01*
X132854169Y-98338883D01*
X132848799Y-98340369D01*
X132843274Y-98341725D01*
X132837590Y-98342945D01*
X132831747Y-98344023D01*
X132825741Y-98344953D01*
X132819571Y-98345728D01*
X132813234Y-98346341D01*
X132806728Y-98346788D01*
X132800051Y-98347060D01*
X132793201Y-98347152D01*
X132779664Y-98346788D01*
X132766813Y-98345728D01*
X132754630Y-98344023D01*
X132743097Y-98341725D01*
X132732197Y-98338883D01*
X132721910Y-98335549D01*
X132712219Y-98331773D01*
X132703107Y-98327606D01*
X132694555Y-98323098D01*
X132686545Y-98318301D01*
X132679060Y-98313265D01*
X132672081Y-98308040D01*
X132665590Y-98302678D01*
X132659570Y-98297228D01*
X132654003Y-98291743D01*
X132648870Y-98286272D01*
X132642271Y-98278711D01*
X132636166Y-98271077D01*
X132630548Y-98263275D01*
X132625407Y-98255210D01*
X132620732Y-98246789D01*
X132616514Y-98237915D01*
X132612744Y-98228496D01*
X132609411Y-98218436D01*
X132606507Y-98207641D01*
X132604021Y-98196016D01*
X132601945Y-98183467D01*
X132600267Y-98169899D01*
X132598979Y-98155218D01*
X132598071Y-98139330D01*
X132597533Y-98122138D01*
X132597365Y-98104477D01*
X132692950Y-98104477D01*
X132693225Y-98127914D01*
X132693583Y-98138091D01*
X132694101Y-98147351D01*
X132694789Y-98155776D01*
X132695657Y-98163447D01*
X132696714Y-98170449D01*
X132697971Y-98176863D01*
X132699436Y-98182772D01*
X132701120Y-98188259D01*
X132703033Y-98193405D01*
X132705184Y-98198294D01*
X132707583Y-98203008D01*
X132710240Y-98207629D01*
X132713164Y-98212241D01*
X132716366Y-98216924D01*
X132717729Y-98218756D01*
X132719184Y-98220558D01*
X132722356Y-98224067D01*
X132725862Y-98227435D01*
X132729685Y-98230649D01*
X132733804Y-98233692D01*
X132738200Y-98236550D01*
X132742855Y-98239208D01*
X132747749Y-98241650D01*
X132752862Y-98243861D01*
X132758177Y-98245827D01*
X132763672Y-98247531D01*
X132769330Y-98248960D01*
X132775131Y-98250097D01*
X132781056Y-98250928D01*
X132787086Y-98251438D01*
X132793201Y-98251611D01*
X132799307Y-98251438D01*
X132805331Y-98250929D01*
X132811251Y-98250100D01*
X132817049Y-98248964D01*
X132822705Y-98247537D01*
X132828199Y-98245834D01*
X132833513Y-98243870D01*
X132838627Y-98241660D01*
X132843520Y-98239219D01*
X132848175Y-98236562D01*
X132852570Y-98233704D01*
X132856687Y-98230660D01*
X132860507Y-98227445D01*
X132864009Y-98224074D01*
X132867174Y-98220562D01*
X132869983Y-98216924D01*
X132873185Y-98212240D01*
X132876111Y-98207627D01*
X132878771Y-98203002D01*
X132881173Y-98198279D01*
X132883328Y-98193377D01*
X132885245Y-98188210D01*
X132886934Y-98182695D01*
X132888405Y-98176747D01*
X132889666Y-98170284D01*
X132890728Y-98163221D01*
X132891600Y-98155475D01*
X132892292Y-98146960D01*
X132892814Y-98137595D01*
X132893175Y-98127294D01*
X132893384Y-98115974D01*
X132893452Y-98103550D01*
X132893175Y-98080111D01*
X132892814Y-98069931D01*
X132892292Y-98060669D01*
X132891600Y-98052241D01*
X132890728Y-98044566D01*
X132889666Y-98037561D01*
X132888405Y-98031144D01*
X132886934Y-98025233D01*
X132885245Y-98019745D01*
X132883328Y-98014598D01*
X132881173Y-98009710D01*
X132878771Y-98004999D01*
X132876111Y-98000382D01*
X132873185Y-97995777D01*
X132869983Y-97991102D01*
X132868624Y-97989271D01*
X132867174Y-97987469D01*
X132864009Y-97983960D01*
X132860507Y-97980591D01*
X132856687Y-97977378D01*
X132852570Y-97974335D01*
X132848175Y-97971477D01*
X132843520Y-97968819D01*
X132838627Y-97966377D01*
X132833513Y-97964166D01*
X132828199Y-97962200D01*
X132822705Y-97960496D01*
X132817049Y-97959067D01*
X132811251Y-97957930D01*
X132805331Y-97957098D01*
X132799307Y-97956589D01*
X132793201Y-97956415D01*
X132787086Y-97956588D01*
X132781056Y-97957097D01*
X132775131Y-97957927D01*
X132769330Y-97959063D01*
X132763672Y-97960490D01*
X132758177Y-97962193D01*
X132752862Y-97964157D01*
X132747749Y-97966367D01*
X132742855Y-97968808D01*
X132738200Y-97971465D01*
X132733804Y-97974323D01*
X132729685Y-97977367D01*
X132725862Y-97980582D01*
X132722356Y-97983952D01*
X132719184Y-97987464D01*
X132716366Y-97991102D01*
X132713164Y-97995778D01*
X132710240Y-98000384D01*
X132707583Y-98005005D01*
X132705184Y-98009725D01*
X132703033Y-98014627D01*
X132701120Y-98019794D01*
X132699436Y-98025310D01*
X132697971Y-98031260D01*
X132696714Y-98037726D01*
X132695657Y-98044792D01*
X132694789Y-98052542D01*
X132694101Y-98061059D01*
X132693583Y-98070428D01*
X132693225Y-98080731D01*
X132693017Y-98092053D01*
X132692950Y-98104477D01*
X132597365Y-98104477D01*
X132597356Y-98103550D01*
X132597533Y-98085117D01*
X132598071Y-98068062D01*
X132598979Y-98052292D01*
X132600267Y-98037714D01*
X132601945Y-98024235D01*
X132604021Y-98011761D01*
X132606507Y-98000199D01*
X132609411Y-97989455D01*
X132612744Y-97979436D01*
X132616514Y-97970049D01*
X132620732Y-97961199D01*
X132625407Y-97952795D01*
X132630548Y-97944741D01*
X132636166Y-97936946D01*
X132642271Y-97929315D01*
X132648870Y-97921755D01*
X132654003Y-97916283D01*
X132659570Y-97910796D01*
X132665590Y-97905344D01*
X132672081Y-97899978D01*
X132679060Y-97894749D01*
X132686545Y-97889709D01*
X132694555Y-97884907D01*
X132703107Y-97880394D01*
X132707592Y-97878262D01*
X132712219Y-97876222D01*
X132716991Y-97874280D01*
X132721910Y-97872441D01*
X132726977Y-97870714D01*
X132732196Y-97869103D01*
X132737569Y-97867615D01*
X132743097Y-97866257D01*
X132748784Y-97865035D01*
X132754630Y-97863955D01*
X132760639Y-97863024D01*
X132766813Y-97862248D01*
X132773154Y-97861634D01*
X132779664Y-97861187D01*
X132786346Y-97860914D01*
X132793201Y-97860822D01*
X132806728Y-97861187D01*
X132819571Y-97862248D01*
X132831747Y-97863955D01*
X132843274Y-97866257D01*
X132854169Y-97869103D01*
X132864452Y-97872441D01*
X132874139Y-97876222D01*
X132883248Y-97880394D01*
X132891798Y-97884907D01*
X132899806Y-97889709D01*
X132907291Y-97894750D01*
X132914269Y-97899978D01*
X132920759Y-97905344D01*
X132926778Y-97910796D01*
X132932346Y-97916283D01*
X132937478Y-97921755D01*
X132944079Y-97929319D01*
X132950185Y-97936953D01*
X132955805Y-97944751D01*
X132960950Y-97952806D01*
X132965629Y-97961211D01*
X132969851Y-97970060D01*
X132973626Y-97979447D01*
X132976964Y-97989465D01*
X132979873Y-98000208D01*
X132982363Y-98011768D01*
X132984445Y-98024241D01*
X132986126Y-98037718D01*
X132987418Y-98052294D01*
X132988328Y-98068063D01*
X132988868Y-98085117D01*
X132989045Y-98103550D01*
X132988868Y-98122143D01*
G37*
G36*
X133875298Y-97861041D02*
G01*
X133884511Y-97861701D01*
X133893532Y-97862800D01*
X133902354Y-97864338D01*
X133910967Y-97866316D01*
X133919364Y-97868733D01*
X133927535Y-97871589D01*
X133935473Y-97874884D01*
X133943169Y-97878619D01*
X133950615Y-97882792D01*
X133957803Y-97887404D01*
X133964723Y-97892455D01*
X133971368Y-97897945D01*
X133977729Y-97903873D01*
X133983799Y-97910240D01*
X133989567Y-97917046D01*
X133991472Y-97917046D01*
X133991472Y-97866457D01*
X134087040Y-97866457D01*
X134087040Y-98341517D01*
X133991472Y-98341517D01*
X133991472Y-98058598D01*
X133991355Y-98052613D01*
X133991007Y-98046790D01*
X133990431Y-98041130D01*
X133989635Y-98035635D01*
X133988621Y-98030307D01*
X133987395Y-98025148D01*
X133985962Y-98020160D01*
X133984327Y-98015345D01*
X133982494Y-98010704D01*
X133980468Y-98006239D01*
X133978254Y-98001953D01*
X133975857Y-97997847D01*
X133973281Y-97993923D01*
X133970531Y-97990182D01*
X133967613Y-97986628D01*
X133964531Y-97983261D01*
X133961290Y-97980084D01*
X133957894Y-97977098D01*
X133954348Y-97974305D01*
X133950658Y-97971708D01*
X133946828Y-97969307D01*
X133942863Y-97967106D01*
X133938767Y-97965105D01*
X133934546Y-97963307D01*
X133930203Y-97961713D01*
X133925745Y-97960326D01*
X133921176Y-97959147D01*
X133916501Y-97958179D01*
X133911723Y-97957422D01*
X133906850Y-97956879D01*
X133901884Y-97956552D01*
X133896831Y-97956442D01*
X133891862Y-97956552D01*
X133886975Y-97956879D01*
X133882175Y-97957422D01*
X133877467Y-97958179D01*
X133872855Y-97959147D01*
X133868346Y-97960326D01*
X133863943Y-97961714D01*
X133859651Y-97963307D01*
X133855477Y-97965105D01*
X133851424Y-97967106D01*
X133847498Y-97969308D01*
X133843703Y-97971708D01*
X133840045Y-97974306D01*
X133836529Y-97977098D01*
X133833159Y-97980084D01*
X133829941Y-97983261D01*
X133826879Y-97986628D01*
X133823979Y-97990183D01*
X133821245Y-97993923D01*
X133818682Y-97997847D01*
X133816296Y-98001953D01*
X133814092Y-98006239D01*
X133812073Y-98010704D01*
X133810246Y-98015345D01*
X133808616Y-98020160D01*
X133807186Y-98025149D01*
X133805963Y-98030308D01*
X133804951Y-98035635D01*
X133804156Y-98041130D01*
X133803581Y-98046790D01*
X133803233Y-98052613D01*
X133803115Y-98058598D01*
X133803115Y-98341517D01*
X133707548Y-98341517D01*
X133707548Y-98025763D01*
X133707792Y-98015806D01*
X133708513Y-98006147D01*
X133709693Y-97996787D01*
X133711316Y-97987728D01*
X133713363Y-97978969D01*
X133715818Y-97970514D01*
X133718662Y-97962363D01*
X133721880Y-97954516D01*
X133725453Y-97946976D01*
X133729364Y-97939743D01*
X133733597Y-97932819D01*
X133738132Y-97926205D01*
X133742954Y-97919902D01*
X133748045Y-97913911D01*
X133753387Y-97908233D01*
X133758963Y-97902870D01*
X133764756Y-97897823D01*
X133770749Y-97893093D01*
X133776924Y-97888681D01*
X133783264Y-97884589D01*
X133789752Y-97880816D01*
X133796370Y-97877366D01*
X133803100Y-97874239D01*
X133809927Y-97871436D01*
X133823797Y-97866806D01*
X133837842Y-97863488D01*
X133851923Y-97861490D01*
X133858934Y-97860989D01*
X133865901Y-97860822D01*
X133875298Y-97861041D01*
G37*
G36*
X131527361Y-97861643D02*
G01*
X131537524Y-97862679D01*
X131547608Y-97864141D01*
X131557596Y-97866036D01*
X131567469Y-97868370D01*
X131577208Y-97871149D01*
X131586793Y-97874380D01*
X131596208Y-97878069D01*
X131605432Y-97882223D01*
X131614447Y-97886849D01*
X131623234Y-97891952D01*
X131631776Y-97897541D01*
X131640052Y-97903620D01*
X131648044Y-97910196D01*
X131655734Y-97917277D01*
X131663103Y-97924868D01*
X131670132Y-97932976D01*
X131676803Y-97941608D01*
X131683096Y-97950769D01*
X131688993Y-97960468D01*
X131694476Y-97970709D01*
X131699525Y-97981500D01*
X131704122Y-97992847D01*
X131708248Y-98004756D01*
X131711885Y-98017235D01*
X131715014Y-98030289D01*
X131717616Y-98043926D01*
X131719672Y-98058151D01*
X131721164Y-98072971D01*
X131722073Y-98088393D01*
X131722380Y-98104423D01*
X131722073Y-98120379D01*
X131721164Y-98135730D01*
X131719672Y-98150484D01*
X131717616Y-98164648D01*
X131715014Y-98178226D01*
X131711885Y-98191226D01*
X131708248Y-98203654D01*
X131704122Y-98215517D01*
X131699525Y-98226821D01*
X131694476Y-98237571D01*
X131688993Y-98247776D01*
X131683096Y-98257440D01*
X131676803Y-98266571D01*
X131670132Y-98275174D01*
X131663103Y-98283257D01*
X131655734Y-98290825D01*
X131648044Y-98297885D01*
X131640052Y-98304444D01*
X131631776Y-98310507D01*
X131623234Y-98316081D01*
X131614447Y-98321172D01*
X131605432Y-98325787D01*
X131596208Y-98329933D01*
X131586793Y-98333615D01*
X131567469Y-98339614D01*
X131547608Y-98343835D01*
X131527361Y-98346331D01*
X131506876Y-98347152D01*
X131493523Y-98346750D01*
X131480522Y-98345568D01*
X131467875Y-98343636D01*
X131455582Y-98340986D01*
X131443647Y-98337650D01*
X131432069Y-98333659D01*
X131420852Y-98329046D01*
X131409996Y-98323842D01*
X131399503Y-98318078D01*
X131389375Y-98311787D01*
X131379613Y-98305000D01*
X131370219Y-98297748D01*
X131361194Y-98290064D01*
X131352540Y-98281979D01*
X131344259Y-98273525D01*
X131336352Y-98264734D01*
X131406626Y-98201949D01*
X131411136Y-98207294D01*
X131415881Y-98212424D01*
X131420854Y-98217320D01*
X131426048Y-98221965D01*
X131431456Y-98226340D01*
X131437072Y-98230429D01*
X131442887Y-98234213D01*
X131448896Y-98237674D01*
X131455091Y-98240795D01*
X131461466Y-98243558D01*
X131468013Y-98245944D01*
X131474726Y-98247937D01*
X131481597Y-98249517D01*
X131488620Y-98250669D01*
X131492186Y-98251078D01*
X131495787Y-98251372D01*
X131499423Y-98251551D01*
X131503093Y-98251611D01*
X131510289Y-98251481D01*
X131517297Y-98251091D01*
X131524113Y-98250436D01*
X131530735Y-98249516D01*
X131537160Y-98248326D01*
X131543386Y-98246864D01*
X131549410Y-98245127D01*
X131555229Y-98243113D01*
X131560842Y-98240818D01*
X131566244Y-98238241D01*
X131571435Y-98235378D01*
X131576410Y-98232227D01*
X131581169Y-98228784D01*
X131585707Y-98225048D01*
X131590022Y-98221015D01*
X131594112Y-98216683D01*
X131597975Y-98212048D01*
X131601607Y-98207109D01*
X131605006Y-98201863D01*
X131608170Y-98196306D01*
X131611095Y-98190436D01*
X131613779Y-98184250D01*
X131616220Y-98177746D01*
X131618416Y-98170920D01*
X131620362Y-98163771D01*
X131622058Y-98156294D01*
X131623500Y-98148489D01*
X131624685Y-98140351D01*
X131625611Y-98131878D01*
X131626276Y-98123068D01*
X131626677Y-98113917D01*
X131626812Y-98104423D01*
X131626277Y-98085626D01*
X131624686Y-98068210D01*
X131623501Y-98060013D01*
X131622060Y-98052152D01*
X131620365Y-98044626D01*
X131618419Y-98037430D01*
X131616225Y-98030562D01*
X131613785Y-98024020D01*
X131611101Y-98017799D01*
X131608177Y-98011898D01*
X131605014Y-98006313D01*
X131601616Y-98001041D01*
X131597984Y-97996080D01*
X131594122Y-97991426D01*
X131590033Y-97987077D01*
X131585718Y-97983030D01*
X131581180Y-97979282D01*
X131576422Y-97975829D01*
X131571447Y-97972669D01*
X131566256Y-97969800D01*
X131560853Y-97967217D01*
X131555240Y-97964919D01*
X131549420Y-97962902D01*
X131543396Y-97961164D01*
X131537169Y-97959701D01*
X131530742Y-97958510D01*
X131517301Y-97956935D01*
X131503093Y-97956415D01*
X131495787Y-97956654D01*
X131488619Y-97957358D01*
X131481595Y-97958509D01*
X131474722Y-97960090D01*
X131468008Y-97962082D01*
X131461459Y-97964469D01*
X131455083Y-97967231D01*
X131448886Y-97970352D01*
X131442876Y-97973814D01*
X131437060Y-97977598D01*
X131431445Y-97981686D01*
X131426037Y-97986062D01*
X131420844Y-97990707D01*
X131415873Y-97995603D01*
X131411132Y-98000732D01*
X131406626Y-98006078D01*
X131336352Y-97943292D01*
X131344264Y-97934487D01*
X131352549Y-97926022D01*
X131361206Y-97917927D01*
X131370233Y-97910236D01*
X131379630Y-97902979D01*
X131389393Y-97896187D01*
X131399522Y-97889893D01*
X131410016Y-97884128D01*
X131420871Y-97878923D01*
X131432088Y-97874309D01*
X131443664Y-97870319D01*
X131455597Y-97866984D01*
X131467887Y-97864335D01*
X131480531Y-97862404D01*
X131486985Y-97861717D01*
X131493528Y-97861222D01*
X131500158Y-97860922D01*
X131506876Y-97860821D01*
X131527361Y-97861643D01*
G37*
G36*
X132231861Y-98149429D02*
G01*
X132231978Y-98155409D01*
X132232326Y-98161228D01*
X132232901Y-98166885D01*
X132233697Y-98172377D01*
X132234709Y-98177702D01*
X132235932Y-98182859D01*
X132237361Y-98187845D01*
X132238992Y-98192660D01*
X132240819Y-98197300D01*
X132242838Y-98201764D01*
X132245043Y-98206050D01*
X132247429Y-98210157D01*
X132249992Y-98214081D01*
X132252726Y-98217822D01*
X132255627Y-98221378D01*
X132258689Y-98224746D01*
X132261908Y-98227924D01*
X132265279Y-98230912D01*
X132268796Y-98233706D01*
X132272455Y-98236305D01*
X132276251Y-98238707D01*
X132280178Y-98240910D01*
X132284232Y-98242913D01*
X132288408Y-98244712D01*
X132292701Y-98246307D01*
X132297105Y-98247696D01*
X132301617Y-98248876D01*
X132306230Y-98249846D01*
X132310940Y-98250604D01*
X132315742Y-98251147D01*
X132320631Y-98251475D01*
X132325603Y-98251584D01*
X132330653Y-98251475D01*
X132335617Y-98251147D01*
X132340488Y-98250604D01*
X132345263Y-98249846D01*
X132349937Y-98248876D01*
X132354505Y-98247696D01*
X132358961Y-98246307D01*
X132363302Y-98244712D01*
X132367522Y-98242913D01*
X132371616Y-98240910D01*
X132375581Y-98238707D01*
X132379410Y-98236305D01*
X132383099Y-98233706D01*
X132386644Y-98230912D01*
X132390039Y-98227924D01*
X132393280Y-98224746D01*
X132396361Y-98221378D01*
X132399279Y-98217822D01*
X132402028Y-98214081D01*
X132404603Y-98210157D01*
X132407000Y-98206050D01*
X132409214Y-98201764D01*
X132411240Y-98197300D01*
X132413073Y-98192660D01*
X132414708Y-98187845D01*
X132416141Y-98182859D01*
X132417366Y-98177702D01*
X132418380Y-98172377D01*
X132419177Y-98166885D01*
X132419752Y-98161228D01*
X132420100Y-98155409D01*
X132420217Y-98149429D01*
X132420217Y-97866457D01*
X132515758Y-97866457D01*
X132515758Y-98182264D01*
X132515759Y-98182264D01*
X132515514Y-98192216D01*
X132514793Y-98201870D01*
X132513612Y-98211226D01*
X132511988Y-98220281D01*
X132509938Y-98229036D01*
X132507480Y-98237488D01*
X132504631Y-98245636D01*
X132501408Y-98253480D01*
X132497828Y-98261017D01*
X132493908Y-98268247D01*
X132489665Y-98275169D01*
X132485117Y-98281781D01*
X132480281Y-98288083D01*
X132475174Y-98294072D01*
X132469812Y-98299748D01*
X132464214Y-98305110D01*
X132458397Y-98310156D01*
X132452377Y-98314885D01*
X132446172Y-98319296D01*
X132439798Y-98323388D01*
X132433274Y-98327159D01*
X132426616Y-98330609D01*
X132419841Y-98333736D01*
X132412967Y-98336539D01*
X132406010Y-98339016D01*
X132398989Y-98341167D01*
X132384819Y-98344486D01*
X132370594Y-98346484D01*
X132363505Y-98346984D01*
X132356453Y-98347152D01*
X132347228Y-98346932D01*
X132338165Y-98346272D01*
X132329273Y-98345174D01*
X132320561Y-98343635D01*
X132312041Y-98341658D01*
X132303720Y-98339241D01*
X132295610Y-98336384D01*
X132287721Y-98333089D01*
X132280061Y-98329355D01*
X132272642Y-98325182D01*
X132265472Y-98320569D01*
X132258561Y-98315518D01*
X132251920Y-98310029D01*
X132245559Y-98304100D01*
X132239486Y-98297733D01*
X132233713Y-98290928D01*
X132231861Y-98290928D01*
X132231861Y-98341569D01*
X132136320Y-98341569D01*
X132136320Y-97866457D01*
X132231861Y-97866457D01*
X132231861Y-98149429D01*
G37*
G36*
X134557786Y-98952308D02*
G01*
X134557606Y-98959980D01*
X134557066Y-98967530D01*
X134556171Y-98974948D01*
X134554923Y-98982227D01*
X134553325Y-98989360D01*
X134551382Y-98996337D01*
X134549096Y-99003152D01*
X134546470Y-99009796D01*
X134543509Y-99016262D01*
X134540214Y-99022541D01*
X134536589Y-99028627D01*
X134532638Y-99034510D01*
X134528364Y-99040183D01*
X134523770Y-99045638D01*
X134518858Y-99050867D01*
X134513634Y-99055862D01*
X134508099Y-99060616D01*
X134502258Y-99065120D01*
X134496112Y-99069367D01*
X134489666Y-99073349D01*
X134482923Y-99077057D01*
X134475887Y-99080485D01*
X134468559Y-99083623D01*
X134460944Y-99086465D01*
X134453045Y-99089002D01*
X134444865Y-99091226D01*
X134436407Y-99093130D01*
X134427675Y-99094705D01*
X134418671Y-99095944D01*
X134409400Y-99096838D01*
X134399864Y-99097381D01*
X134390067Y-99097564D01*
X134378311Y-99097387D01*
X134367275Y-99096856D01*
X134356930Y-99095965D01*
X134347250Y-99094711D01*
X134338206Y-99093088D01*
X134329772Y-99091094D01*
X134321921Y-99088723D01*
X134314624Y-99085972D01*
X134307855Y-99082836D01*
X134301586Y-99079310D01*
X134295789Y-99075392D01*
X134290438Y-99071076D01*
X134285504Y-99066359D01*
X134280961Y-99061235D01*
X134276781Y-99055701D01*
X134272936Y-99049753D01*
X134271057Y-99049753D01*
X134271057Y-99091928D01*
X134175464Y-99091928D01*
X134175464Y-98890421D01*
X134271057Y-98890421D01*
X134271057Y-98925108D01*
X134271138Y-98931860D01*
X134271382Y-98938238D01*
X134271795Y-98944253D01*
X134272381Y-98949914D01*
X134273144Y-98955232D01*
X134274090Y-98960219D01*
X134275223Y-98964883D01*
X134276547Y-98969237D01*
X134278068Y-98973289D01*
X134279790Y-98977051D01*
X134281717Y-98980534D01*
X134283855Y-98983747D01*
X134286207Y-98986701D01*
X134288779Y-98989406D01*
X134291574Y-98991874D01*
X134294599Y-98994115D01*
X134297856Y-98996138D01*
X134301352Y-98997955D01*
X134305090Y-98999576D01*
X134309076Y-99001011D01*
X134313313Y-99002271D01*
X134317807Y-99003367D01*
X134322562Y-99004309D01*
X134327582Y-99005107D01*
X134338439Y-99006314D01*
X134350415Y-99007073D01*
X134363546Y-99007466D01*
X134377870Y-99007579D01*
X134389537Y-99007255D01*
X134400302Y-99006308D01*
X134410186Y-99004773D01*
X134419210Y-99002687D01*
X134423406Y-99001448D01*
X134427394Y-99000084D01*
X134431177Y-98998601D01*
X134434758Y-98997001D01*
X134438140Y-98995291D01*
X134441324Y-98993474D01*
X134444314Y-98991554D01*
X134447111Y-98989537D01*
X134449719Y-98987427D01*
X134452141Y-98985228D01*
X134454378Y-98982945D01*
X134456433Y-98980582D01*
X134458309Y-98978143D01*
X134460008Y-98975634D01*
X134461534Y-98973058D01*
X134462888Y-98970420D01*
X134465092Y-98964976D01*
X134466640Y-98959339D01*
X134467554Y-98953543D01*
X134467854Y-98947624D01*
X134467777Y-98944408D01*
X134467546Y-98941265D01*
X134467159Y-98938198D01*
X134466617Y-98935207D01*
X134465918Y-98932295D01*
X134465062Y-98929464D01*
X134464047Y-98926716D01*
X134462875Y-98924052D01*
X134461542Y-98921475D01*
X134460050Y-98918986D01*
X134458398Y-98916588D01*
X134456584Y-98914281D01*
X134454607Y-98912069D01*
X134452469Y-98909952D01*
X134450166Y-98907934D01*
X134447700Y-98906015D01*
X134445069Y-98904198D01*
X134442272Y-98902484D01*
X134439309Y-98900875D01*
X134436179Y-98899374D01*
X134432882Y-98897983D01*
X134429417Y-98896702D01*
X134425782Y-98895534D01*
X134421978Y-98894481D01*
X134418004Y-98893545D01*
X134413859Y-98892728D01*
X134409542Y-98892031D01*
X134405052Y-98891456D01*
X134400390Y-98891006D01*
X134395554Y-98890682D01*
X134390543Y-98890487D01*
X134385357Y-98890421D01*
X134271057Y-98890421D01*
X134175464Y-98890421D01*
X134175464Y-98767708D01*
X134175698Y-98756956D01*
X134176397Y-98746652D01*
X134177552Y-98736790D01*
X134179155Y-98727362D01*
X134181198Y-98718362D01*
X134183673Y-98709782D01*
X134186572Y-98701615D01*
X134189886Y-98693855D01*
X134193608Y-98686494D01*
X134197730Y-98679525D01*
X134202243Y-98672942D01*
X134207140Y-98666736D01*
X134212412Y-98660902D01*
X134218052Y-98655432D01*
X134224051Y-98650319D01*
X134230401Y-98645556D01*
X134237094Y-98641136D01*
X134244123Y-98637053D01*
X134251478Y-98633298D01*
X134259152Y-98629865D01*
X134267137Y-98626748D01*
X134275425Y-98623938D01*
X134284008Y-98621429D01*
X134292878Y-98619214D01*
X134302026Y-98617286D01*
X134311445Y-98615638D01*
X134331061Y-98613153D01*
X134351664Y-98611704D01*
X134373187Y-98611233D01*
X134386322Y-98611455D01*
X134399023Y-98612136D01*
X134411291Y-98613293D01*
X134423133Y-98614947D01*
X134434551Y-98617117D01*
X134445551Y-98619822D01*
X134456136Y-98623082D01*
X134466310Y-98626916D01*
X134476078Y-98631344D01*
X134485443Y-98636384D01*
X134494410Y-98642056D01*
X134502983Y-98648380D01*
X134511167Y-98655376D01*
X134518964Y-98663061D01*
X134526380Y-98671456D01*
X134533418Y-98680580D01*
X134458462Y-98737731D01*
X134456862Y-98735235D01*
X134455220Y-98732842D01*
X134453532Y-98730549D01*
X134451794Y-98728357D01*
X134450004Y-98726262D01*
X134448157Y-98724263D01*
X134446250Y-98722360D01*
X134444279Y-98720549D01*
X134442241Y-98718831D01*
X134440132Y-98717203D01*
X134437948Y-98715663D01*
X134435686Y-98714211D01*
X134433343Y-98712845D01*
X134430914Y-98711563D01*
X134428396Y-98710363D01*
X134425786Y-98709245D01*
X134423079Y-98708206D01*
X134420273Y-98707245D01*
X134417364Y-98706361D01*
X134414347Y-98705552D01*
X134411220Y-98704816D01*
X134407979Y-98704152D01*
X134404621Y-98703559D01*
X134401141Y-98703035D01*
X134393802Y-98702187D01*
X134385936Y-98701596D01*
X134377513Y-98701251D01*
X134368503Y-98701138D01*
X134356138Y-98701329D01*
X134344680Y-98701913D01*
X134334113Y-98702910D01*
X134324423Y-98704338D01*
X134315596Y-98706217D01*
X134307615Y-98708566D01*
X134300465Y-98711403D01*
X134297198Y-98713011D01*
X134294132Y-98714748D01*
X134291267Y-98716617D01*
X134288601Y-98718620D01*
X134286131Y-98720760D01*
X134283856Y-98723038D01*
X134281774Y-98725457D01*
X134279883Y-98728020D01*
X134278180Y-98730730D01*
X134276665Y-98733587D01*
X134275336Y-98736595D01*
X134274189Y-98739756D01*
X134273224Y-98743073D01*
X134272439Y-98746548D01*
X134271832Y-98750182D01*
X134271400Y-98753980D01*
X134271057Y-98762072D01*
X134271057Y-98811734D01*
X134403190Y-98811734D01*
X134412619Y-98811922D01*
X134421757Y-98812479D01*
X134430602Y-98813396D01*
X134439155Y-98814662D01*
X134447415Y-98816268D01*
X134455382Y-98818204D01*
X134463054Y-98820461D01*
X134470432Y-98823028D01*
X134477514Y-98825895D01*
X134484301Y-98829054D01*
X134490792Y-98832493D01*
X134496986Y-98836204D01*
X134502884Y-98840177D01*
X134508483Y-98844401D01*
X134513784Y-98848867D01*
X134518787Y-98853565D01*
X134523490Y-98858485D01*
X134527894Y-98863618D01*
X134531997Y-98868954D01*
X134535800Y-98874482D01*
X134539301Y-98880194D01*
X134542501Y-98886079D01*
X134545398Y-98892128D01*
X134547993Y-98898330D01*
X134550284Y-98904676D01*
X134552271Y-98911157D01*
X134553954Y-98917761D01*
X134555332Y-98924481D01*
X134556405Y-98931305D01*
X134557172Y-98938224D01*
X134557633Y-98945228D01*
X134557685Y-98947624D01*
X134557786Y-98952308D01*
G37*
G36*
X135004588Y-99091928D02*
G01*
X134908994Y-99091928D01*
X134908994Y-98808956D01*
X134908877Y-98802971D01*
X134908529Y-98797148D01*
X134907954Y-98791488D01*
X134907158Y-98785993D01*
X134906145Y-98780665D01*
X134904920Y-98775506D01*
X134903488Y-98770518D01*
X134901853Y-98765703D01*
X134900021Y-98761062D01*
X134897996Y-98756597D01*
X134895783Y-98752311D01*
X134893387Y-98748205D01*
X134890812Y-98744281D01*
X134888064Y-98740541D01*
X134885147Y-98736986D01*
X134882066Y-98733619D01*
X134878826Y-98730442D01*
X134875432Y-98727456D01*
X134871887Y-98724664D01*
X134868198Y-98722066D01*
X134864369Y-98719666D01*
X134860405Y-98717464D01*
X134856310Y-98715463D01*
X134852090Y-98713665D01*
X134847749Y-98712072D01*
X134843291Y-98710684D01*
X134838723Y-98709506D01*
X134834048Y-98708537D01*
X134829271Y-98707780D01*
X134824398Y-98707237D01*
X134819432Y-98706910D01*
X134814379Y-98706801D01*
X134809411Y-98706910D01*
X134804524Y-98707237D01*
X134799724Y-98707780D01*
X134795015Y-98708537D01*
X134790404Y-98709506D01*
X134785894Y-98710684D01*
X134781491Y-98712072D01*
X134777200Y-98713665D01*
X134773026Y-98715463D01*
X134768973Y-98717464D01*
X134765046Y-98719666D01*
X134761252Y-98722066D01*
X134757594Y-98724663D01*
X134754078Y-98727456D01*
X134750708Y-98730442D01*
X134747489Y-98733619D01*
X134744428Y-98736986D01*
X134741527Y-98740540D01*
X134738793Y-98744281D01*
X134736231Y-98748205D01*
X134733845Y-98752311D01*
X134731640Y-98756597D01*
X134729622Y-98761062D01*
X134727795Y-98765703D01*
X134726164Y-98770518D01*
X134724735Y-98775506D01*
X134723512Y-98780665D01*
X134722500Y-98785993D01*
X134721704Y-98791488D01*
X134721130Y-98797148D01*
X134720781Y-98802971D01*
X134720664Y-98808956D01*
X134720664Y-99091927D01*
X134625096Y-99091927D01*
X134625096Y-98776121D01*
X134625341Y-98766169D01*
X134626062Y-98756514D01*
X134627242Y-98747159D01*
X134628864Y-98738103D01*
X134630912Y-98729349D01*
X134633366Y-98720897D01*
X134636211Y-98712749D01*
X134639429Y-98704905D01*
X134643002Y-98697368D01*
X134646913Y-98690137D01*
X134651145Y-98683215D01*
X134655681Y-98676603D01*
X134660502Y-98670302D01*
X134665593Y-98664313D01*
X134670935Y-98658637D01*
X134676512Y-98653275D01*
X134682305Y-98648229D01*
X134688298Y-98643500D01*
X134694473Y-98639089D01*
X134700813Y-98634997D01*
X134707300Y-98631225D01*
X134713918Y-98627775D01*
X134720649Y-98624649D01*
X134727475Y-98621846D01*
X134734380Y-98619368D01*
X134741346Y-98617217D01*
X134748355Y-98615393D01*
X134755391Y-98613899D01*
X134762435Y-98612734D01*
X134769471Y-98611901D01*
X134776482Y-98611400D01*
X134783450Y-98611232D01*
X134792846Y-98611452D01*
X134802062Y-98612112D01*
X134811091Y-98613211D01*
X134819928Y-98614749D01*
X134828568Y-98616727D01*
X134837004Y-98619144D01*
X134845233Y-98622000D01*
X134853247Y-98625295D01*
X134861041Y-98629029D01*
X134868611Y-98633203D01*
X134875950Y-98637815D01*
X134883053Y-98642866D01*
X134889914Y-98648356D01*
X134896529Y-98654284D01*
X134902891Y-98660651D01*
X134908994Y-98667457D01*
X134908650Y-98290954D01*
X134901938Y-98297145D01*
X134895149Y-98303056D01*
X134888273Y-98308670D01*
X134881297Y-98313971D01*
X134874212Y-98318943D01*
X134867006Y-98323569D01*
X134859669Y-98327832D01*
X134852188Y-98331717D01*
X134844554Y-98335206D01*
X134836755Y-98338284D01*
X134828780Y-98340933D01*
X134820619Y-98343137D01*
X134812259Y-98344881D01*
X134803691Y-98346146D01*
X134794903Y-98346918D01*
X134785884Y-98347178D01*
X134780486Y-98347102D01*
X134775180Y-98346875D01*
X134769968Y-98346500D01*
X134764848Y-98345981D01*
X134759820Y-98345320D01*
X134754885Y-98344521D01*
X134750041Y-98343587D01*
X134745290Y-98342521D01*
X134740630Y-98341325D01*
X134736063Y-98340004D01*
X134731586Y-98338560D01*
X134727201Y-98336996D01*
X134722907Y-98335315D01*
X134718704Y-98333521D01*
X134710570Y-98329603D01*
X134702799Y-98325269D01*
X134695388Y-98320542D01*
X134688337Y-98315447D01*
X134681645Y-98310009D01*
X134675309Y-98304252D01*
X134669330Y-98298202D01*
X134663705Y-98291882D01*
X134658434Y-98285319D01*
X134653734Y-98279014D01*
X134649458Y-98272644D01*
X134645587Y-98266081D01*
X134642106Y-98259195D01*
X134638997Y-98251857D01*
X134636246Y-98243939D01*
X134633835Y-98235312D01*
X134631747Y-98225847D01*
X134629967Y-98215416D01*
X134628478Y-98203888D01*
X134627263Y-98191137D01*
X134626306Y-98177032D01*
X134625099Y-98144247D01*
X134624726Y-98104503D01*
X134624726Y-98104476D01*
X134720293Y-98104476D01*
X134720368Y-98118171D01*
X134720670Y-98131780D01*
X134721319Y-98145191D01*
X134722431Y-98158296D01*
X134724125Y-98170984D01*
X134725227Y-98177137D01*
X134726519Y-98183145D01*
X134728016Y-98188994D01*
X134729731Y-98194670D01*
X134731681Y-98200159D01*
X134733880Y-98205448D01*
X134736342Y-98210523D01*
X134739082Y-98215370D01*
X134742116Y-98219975D01*
X134745457Y-98224325D01*
X134749121Y-98228406D01*
X134753122Y-98232205D01*
X134757476Y-98235706D01*
X134762196Y-98238898D01*
X134767298Y-98241765D01*
X134772796Y-98244295D01*
X134778705Y-98246473D01*
X134785040Y-98248286D01*
X134791816Y-98249720D01*
X134799047Y-98250762D01*
X134806749Y-98251396D01*
X134814935Y-98251611D01*
X134823037Y-98251383D01*
X134830659Y-98250710D01*
X134837817Y-98249609D01*
X134844524Y-98248095D01*
X134850795Y-98246185D01*
X134856644Y-98243896D01*
X134862088Y-98241243D01*
X134867138Y-98238243D01*
X134871812Y-98234912D01*
X134876122Y-98231267D01*
X134880084Y-98227323D01*
X134883713Y-98223098D01*
X134887022Y-98218606D01*
X134890026Y-98213866D01*
X134892741Y-98208892D01*
X134895180Y-98203702D01*
X134897358Y-98198311D01*
X134899290Y-98192736D01*
X134902473Y-98181099D01*
X134904847Y-98168920D01*
X134906527Y-98156331D01*
X134907631Y-98143462D01*
X134908275Y-98130443D01*
X134908650Y-98104476D01*
X134908576Y-98091385D01*
X134908274Y-98078204D01*
X134907629Y-98065061D01*
X134906524Y-98052086D01*
X134904842Y-98039407D01*
X134903748Y-98033219D01*
X134902467Y-98027154D01*
X134900982Y-98021227D01*
X134899281Y-98015455D01*
X134897349Y-98009855D01*
X134895170Y-98004441D01*
X134892730Y-97999230D01*
X134890015Y-97994238D01*
X134887010Y-97989482D01*
X134883701Y-97984978D01*
X134880073Y-97980741D01*
X134876110Y-97976788D01*
X134871800Y-97973135D01*
X134867127Y-97969798D01*
X134862077Y-97966793D01*
X134856635Y-97964137D01*
X134850786Y-97961844D01*
X134844516Y-97959933D01*
X134837811Y-97958418D01*
X134830655Y-97957316D01*
X134823035Y-97956643D01*
X134814935Y-97956415D01*
X134806749Y-97956630D01*
X134799047Y-97957264D01*
X134791816Y-97958306D01*
X134785040Y-97959740D01*
X134778705Y-97961553D01*
X134772796Y-97963733D01*
X134767298Y-97966265D01*
X134762196Y-97969136D01*
X134757476Y-97972332D01*
X134753122Y-97975839D01*
X134749121Y-97979645D01*
X134745457Y-97983736D01*
X134742116Y-97988098D01*
X134739082Y-97992717D01*
X134736342Y-97997580D01*
X134733880Y-98002674D01*
X134731681Y-98007985D01*
X134729731Y-98013500D01*
X134726519Y-98025084D01*
X134724125Y-98037320D01*
X134722431Y-98050099D01*
X134721319Y-98063312D01*
X134720670Y-98076852D01*
X134720293Y-98104476D01*
X134624726Y-98104476D01*
X134624817Y-98083525D01*
X134625099Y-98064438D01*
X134625590Y-98047111D01*
X134626306Y-98031415D01*
X134627263Y-98017218D01*
X134628478Y-98004391D01*
X134629967Y-97992802D01*
X134631747Y-97982321D01*
X134633835Y-97972818D01*
X134634999Y-97968392D01*
X134636246Y-97964162D01*
X134637578Y-97960111D01*
X134638997Y-97956223D01*
X134640506Y-97952481D01*
X134642105Y-97948869D01*
X134645587Y-97941972D01*
X134649458Y-97935399D01*
X134653734Y-97929021D01*
X134658434Y-97922707D01*
X134663705Y-97916144D01*
X134669330Y-97909825D01*
X134675309Y-97903774D01*
X134681645Y-97898018D01*
X134688337Y-97892580D01*
X134695388Y-97887485D01*
X134702799Y-97882757D01*
X134710570Y-97878423D01*
X134718704Y-97874506D01*
X134727201Y-97871031D01*
X134736062Y-97868022D01*
X134745290Y-97865505D01*
X134754885Y-97863505D01*
X134764848Y-97862045D01*
X134775180Y-97861151D01*
X134785884Y-97860848D01*
X134794964Y-97861109D01*
X134803921Y-97861878D01*
X134812740Y-97863140D01*
X134821407Y-97864875D01*
X134829910Y-97867065D01*
X134838234Y-97869694D01*
X134846366Y-97872743D01*
X134854292Y-97876194D01*
X134861998Y-97880029D01*
X134869471Y-97884231D01*
X134876698Y-97888782D01*
X134883664Y-97893664D01*
X134890356Y-97898860D01*
X134896760Y-97904350D01*
X134902863Y-97910118D01*
X134908650Y-97916146D01*
X134908650Y-97866483D01*
X135004588Y-97866483D01*
X135004588Y-98104476D01*
X135004588Y-99091928D01*
G37*
G36*
X131938151Y-98611453D02*
G01*
X131947363Y-98612112D01*
X131956383Y-98613211D01*
X131965204Y-98614749D01*
X131973815Y-98616727D01*
X131982210Y-98619144D01*
X131990380Y-98622000D01*
X131998317Y-98625296D01*
X132006012Y-98629030D01*
X132013457Y-98633203D01*
X132020644Y-98637815D01*
X132027565Y-98642866D01*
X132034211Y-98648356D01*
X132040575Y-98654285D01*
X132046647Y-98660651D01*
X132052420Y-98667457D01*
X132054325Y-98667457D01*
X132054325Y-98616868D01*
X132149866Y-98616868D01*
X132149866Y-99091928D01*
X132054325Y-99091928D01*
X132054325Y-98806099D01*
X132054192Y-98799717D01*
X132053799Y-98793564D01*
X132053153Y-98787637D01*
X132052263Y-98781936D01*
X132051136Y-98776458D01*
X132049782Y-98771201D01*
X132048209Y-98766164D01*
X132046424Y-98761346D01*
X132044437Y-98756744D01*
X132042254Y-98752357D01*
X132039885Y-98748183D01*
X132037337Y-98744220D01*
X132034619Y-98740467D01*
X132031739Y-98736923D01*
X132028705Y-98733585D01*
X132025526Y-98730451D01*
X132022209Y-98727521D01*
X132018763Y-98724791D01*
X132015196Y-98722262D01*
X132011517Y-98719930D01*
X132007733Y-98717795D01*
X132003853Y-98715854D01*
X131999884Y-98714106D01*
X131995836Y-98712549D01*
X131987533Y-98710002D01*
X131979009Y-98708200D01*
X131970331Y-98707128D01*
X131961563Y-98706774D01*
X131957085Y-98706852D01*
X131952783Y-98707089D01*
X131948637Y-98707491D01*
X131944624Y-98708064D01*
X131940721Y-98708812D01*
X131936907Y-98709742D01*
X131933159Y-98710859D01*
X131929456Y-98712168D01*
X131925775Y-98713676D01*
X131922094Y-98715387D01*
X131918391Y-98717308D01*
X131914645Y-98719443D01*
X131910832Y-98721799D01*
X131906931Y-98724380D01*
X131902920Y-98727193D01*
X131898777Y-98730243D01*
X131829430Y-98647772D01*
X131834911Y-98643655D01*
X131840464Y-98639745D01*
X131846094Y-98636049D01*
X131851806Y-98632575D01*
X131857607Y-98629332D01*
X131863501Y-98626327D01*
X131869493Y-98623570D01*
X131875590Y-98621069D01*
X131881795Y-98618831D01*
X131888116Y-98616864D01*
X131894557Y-98615178D01*
X131901124Y-98613779D01*
X131907822Y-98612678D01*
X131914656Y-98611880D01*
X131921631Y-98611396D01*
X131928754Y-98611233D01*
X131938151Y-98611453D01*
G37*
G36*
X134559083Y-98072239D02*
G01*
X134559972Y-98088461D01*
X134560273Y-98105402D01*
X134559945Y-98123240D01*
X134558976Y-98140230D01*
X134557391Y-98156390D01*
X134555212Y-98171738D01*
X134552463Y-98186293D01*
X134549168Y-98200073D01*
X134545352Y-98213098D01*
X134541036Y-98225384D01*
X134536246Y-98236952D01*
X134531004Y-98247820D01*
X134525335Y-98258005D01*
X134519262Y-98267528D01*
X134512809Y-98276405D01*
X134506000Y-98284655D01*
X134498857Y-98292298D01*
X134491406Y-98299352D01*
X134483669Y-98305834D01*
X134475670Y-98311764D01*
X134467433Y-98317160D01*
X134458981Y-98322041D01*
X134450339Y-98326425D01*
X134441530Y-98330331D01*
X134423504Y-98336781D01*
X134405094Y-98341540D01*
X134386490Y-98344757D01*
X134367880Y-98346578D01*
X134349454Y-98347152D01*
X134337539Y-98346886D01*
X134325707Y-98346079D01*
X134313976Y-98344718D01*
X134302360Y-98342789D01*
X134290877Y-98340277D01*
X134279542Y-98337170D01*
X134268373Y-98333453D01*
X134257385Y-98329114D01*
X134246595Y-98324137D01*
X134236019Y-98318510D01*
X134225674Y-98312219D01*
X134215575Y-98305249D01*
X134205740Y-98297588D01*
X134196184Y-98289221D01*
X134186924Y-98280136D01*
X134177977Y-98270317D01*
X134247324Y-98211315D01*
X134252721Y-98216618D01*
X134258361Y-98221629D01*
X134264223Y-98226341D01*
X134270287Y-98230747D01*
X134276533Y-98234841D01*
X134282938Y-98238614D01*
X134289484Y-98242061D01*
X134296150Y-98245175D01*
X134302914Y-98247948D01*
X134309757Y-98250373D01*
X134316657Y-98252445D01*
X134323595Y-98254155D01*
X134330549Y-98255497D01*
X134337499Y-98256464D01*
X134344425Y-98257049D01*
X134351306Y-98257246D01*
X134357404Y-98257131D01*
X134363392Y-98256785D01*
X134369265Y-98256209D01*
X134375017Y-98255403D01*
X134380643Y-98254366D01*
X134386137Y-98253100D01*
X134391493Y-98251604D01*
X134396706Y-98249879D01*
X134401771Y-98247925D01*
X134406683Y-98245741D01*
X134411435Y-98243328D01*
X134416022Y-98240687D01*
X134420438Y-98237817D01*
X134424679Y-98234719D01*
X134428739Y-98231392D01*
X134432612Y-98227838D01*
X134436293Y-98224055D01*
X134439776Y-98220045D01*
X134443056Y-98215807D01*
X134446127Y-98211342D01*
X134448984Y-98206649D01*
X134451621Y-98201730D01*
X134454033Y-98196584D01*
X134456215Y-98191211D01*
X134458160Y-98185612D01*
X134459864Y-98179786D01*
X134461320Y-98173734D01*
X134462525Y-98167456D01*
X134463471Y-98160953D01*
X134464153Y-98154223D01*
X134464567Y-98147269D01*
X134464706Y-98140089D01*
X134168611Y-98140089D01*
X134168611Y-98061402D01*
X134264178Y-98061402D01*
X134464706Y-98061402D01*
X134464413Y-98054732D01*
X134463888Y-98048261D01*
X134463137Y-98041990D01*
X134462164Y-98035919D01*
X134460974Y-98030050D01*
X134459572Y-98024383D01*
X134457963Y-98018920D01*
X134456152Y-98013660D01*
X134454142Y-98008605D01*
X134451940Y-98003756D01*
X134449550Y-97999114D01*
X134446977Y-97994678D01*
X134444225Y-97990451D01*
X134441300Y-97986433D01*
X134438205Y-97982625D01*
X134434947Y-97979028D01*
X134431529Y-97975642D01*
X134427958Y-97972468D01*
X134424236Y-97969508D01*
X134420370Y-97966761D01*
X134416363Y-97964230D01*
X134412222Y-97961914D01*
X134407950Y-97959815D01*
X134403552Y-97957933D01*
X134399034Y-97956270D01*
X134394400Y-97954825D01*
X134389655Y-97953601D01*
X134384803Y-97952597D01*
X134379850Y-97951815D01*
X134374800Y-97951255D01*
X134369658Y-97950919D01*
X134364429Y-97950807D01*
X134359203Y-97950919D01*
X134354068Y-97951255D01*
X134349031Y-97951815D01*
X134344094Y-97952597D01*
X134339262Y-97953601D01*
X134334539Y-97954825D01*
X134329931Y-97956270D01*
X134325440Y-97957933D01*
X134321071Y-97959815D01*
X134316829Y-97961914D01*
X134312717Y-97964230D01*
X134308741Y-97966761D01*
X134304904Y-97969508D01*
X134301210Y-97972468D01*
X134297665Y-97975642D01*
X134294271Y-97979028D01*
X134291035Y-97982625D01*
X134287959Y-97986433D01*
X134285048Y-97990451D01*
X134282306Y-97994679D01*
X134279738Y-97999114D01*
X134277348Y-98003756D01*
X134275140Y-98008606D01*
X134273119Y-98013660D01*
X134271289Y-98018920D01*
X134269653Y-98024384D01*
X134268217Y-98030050D01*
X134266985Y-98035919D01*
X134265961Y-98041990D01*
X134265149Y-98048261D01*
X134264553Y-98054732D01*
X134264178Y-98061402D01*
X134168611Y-98061402D01*
X134168611Y-98061376D01*
X134168875Y-98049997D01*
X134169657Y-98038888D01*
X134170944Y-98028054D01*
X134172721Y-98017503D01*
X134174974Y-98007239D01*
X134177690Y-97997270D01*
X134180853Y-97987600D01*
X134184451Y-97978236D01*
X134188469Y-97969183D01*
X134192892Y-97960449D01*
X134197708Y-97952038D01*
X134202901Y-97943957D01*
X134208458Y-97936212D01*
X134214364Y-97928808D01*
X134220606Y-97921753D01*
X134227170Y-97915051D01*
X134234041Y-97908709D01*
X134241205Y-97902732D01*
X134248649Y-97897128D01*
X134256357Y-97891901D01*
X134264317Y-97887058D01*
X134272514Y-97882604D01*
X134280934Y-97878546D01*
X134289563Y-97874890D01*
X134298387Y-97871642D01*
X134307392Y-97868807D01*
X134316563Y-97866392D01*
X134325887Y-97864402D01*
X134335350Y-97862845D01*
X134344937Y-97861725D01*
X134354635Y-97861048D01*
X134364429Y-97860821D01*
X134381767Y-97861540D01*
X134399219Y-97863760D01*
X134407934Y-97865463D01*
X134416615Y-97867576D01*
X134425239Y-97870111D01*
X134433784Y-97873081D01*
X134442231Y-97876498D01*
X134450558Y-97880372D01*
X134458743Y-97884716D01*
X134466765Y-97889541D01*
X134474603Y-97894861D01*
X134482236Y-97900685D01*
X134489642Y-97907026D01*
X134496800Y-97913897D01*
X134503689Y-97921308D01*
X134510288Y-97929272D01*
X134516575Y-97937800D01*
X134522529Y-97946904D01*
X134528129Y-97956596D01*
X134533353Y-97966888D01*
X134538181Y-97977792D01*
X134542591Y-97989320D01*
X134546562Y-98001482D01*
X134550072Y-98014292D01*
X134553101Y-98027761D01*
X134555626Y-98041900D01*
X134557627Y-98056722D01*
X134558067Y-98061402D01*
X134559083Y-98072239D01*
G37*
G36*
X133747683Y-98894009D02*
G01*
X133746476Y-98927018D01*
X133745518Y-98941210D01*
X133744302Y-98954033D01*
X133742812Y-98965618D01*
X133741031Y-98976096D01*
X133738942Y-98985597D01*
X133736529Y-98994252D01*
X133733776Y-99002190D01*
X133730665Y-99009543D01*
X133727181Y-99016440D01*
X133723306Y-99023012D01*
X133719025Y-99029390D01*
X133714321Y-99035704D01*
X133709051Y-99042267D01*
X133703428Y-99048587D01*
X133697451Y-99054637D01*
X133691118Y-99060394D01*
X133684430Y-99065832D01*
X133677382Y-99070927D01*
X133669976Y-99075654D01*
X133662208Y-99079988D01*
X133654078Y-99083906D01*
X133649877Y-99085700D01*
X133645584Y-99087381D01*
X133641200Y-99088945D01*
X133636725Y-99090389D01*
X133632158Y-99091710D01*
X133627499Y-99092906D01*
X133622747Y-99093972D01*
X133617904Y-99094906D01*
X133612969Y-99095705D01*
X133607940Y-99096366D01*
X133602819Y-99096885D01*
X133597605Y-99097260D01*
X133592298Y-99097487D01*
X133586898Y-99097563D01*
X133577817Y-99097302D01*
X133568860Y-99096531D01*
X133560039Y-99095267D01*
X133551370Y-99093529D01*
X133542866Y-99091335D01*
X133534540Y-99088703D01*
X133526407Y-99085651D01*
X133518480Y-99082198D01*
X133510772Y-99078360D01*
X133503298Y-99074156D01*
X133496072Y-99069605D01*
X133489107Y-99064724D01*
X133482416Y-99059532D01*
X133476014Y-99054046D01*
X133469915Y-99048284D01*
X133464131Y-99042265D01*
X133464131Y-99091928D01*
X133368564Y-99091928D01*
X133368564Y-98853962D01*
X133464131Y-98853962D01*
X133464506Y-98880232D01*
X133465150Y-98893372D01*
X133466254Y-98906344D01*
X133467934Y-98919018D01*
X133470308Y-98931267D01*
X133473492Y-98942961D01*
X133475424Y-98948559D01*
X133477602Y-98953971D01*
X133480041Y-98959179D01*
X133482755Y-98964168D01*
X133485760Y-98968922D01*
X133489069Y-98973424D01*
X133492697Y-98977658D01*
X133496659Y-98981609D01*
X133500970Y-98985260D01*
X133505643Y-98988595D01*
X133510694Y-98991598D01*
X133516137Y-98994253D01*
X133521987Y-98996544D01*
X133528258Y-98998454D01*
X133534965Y-98999968D01*
X133542122Y-99001069D01*
X133549745Y-99001741D01*
X133557847Y-99001969D01*
X133566033Y-99001755D01*
X133573734Y-99001120D01*
X133580965Y-99000079D01*
X133587741Y-98998645D01*
X133594076Y-98996831D01*
X133599986Y-98994652D01*
X133605484Y-98992120D01*
X133610586Y-98989250D01*
X133615306Y-98986054D01*
X133619659Y-98982547D01*
X133623660Y-98978741D01*
X133627324Y-98974651D01*
X133630666Y-98970290D01*
X133633699Y-98965672D01*
X133636440Y-98960810D01*
X133638902Y-98955717D01*
X133641100Y-98950407D01*
X133643050Y-98944894D01*
X133644766Y-98939192D01*
X133646262Y-98933313D01*
X133647554Y-98927272D01*
X133648657Y-98921082D01*
X133650351Y-98908308D01*
X133651463Y-98895101D01*
X133652111Y-98881569D01*
X133652414Y-98867819D01*
X133652488Y-98853962D01*
X133652111Y-98826641D01*
X133651463Y-98813222D01*
X133650351Y-98800111D01*
X133648657Y-98787418D01*
X133646262Y-98775253D01*
X133643050Y-98763725D01*
X133641100Y-98758234D01*
X133638902Y-98752944D01*
X133636440Y-98747868D01*
X133633699Y-98743020D01*
X133630666Y-98738413D01*
X133627324Y-98734062D01*
X133623660Y-98729981D01*
X133619659Y-98726182D01*
X133615306Y-98722680D01*
X133610586Y-98719488D01*
X133605484Y-98716620D01*
X133599986Y-98714090D01*
X133594076Y-98711912D01*
X133587741Y-98710099D01*
X133580965Y-98708665D01*
X133573734Y-98707623D01*
X133566033Y-98706989D01*
X133557847Y-98706774D01*
X133549745Y-98707002D01*
X133542122Y-98707675D01*
X133534965Y-98708777D01*
X133528258Y-98710292D01*
X133521987Y-98712203D01*
X133516137Y-98714494D01*
X133510694Y-98717148D01*
X133505643Y-98720150D01*
X133500970Y-98723483D01*
X133496659Y-98727131D01*
X133492697Y-98731076D01*
X133489069Y-98735304D01*
X133485760Y-98739798D01*
X133482755Y-98744541D01*
X133480041Y-98749517D01*
X133477602Y-98754710D01*
X133475424Y-98760103D01*
X133473492Y-98765681D01*
X133471791Y-98771426D01*
X133470308Y-98777323D01*
X133469027Y-98783355D01*
X133467934Y-98789505D01*
X133466254Y-98802098D01*
X133465150Y-98814971D01*
X133464506Y-98827993D01*
X133464205Y-98841033D01*
X133464131Y-98853962D01*
X133368564Y-98853962D01*
X133368564Y-98424728D01*
X133464131Y-98424728D01*
X133464131Y-98667457D01*
X133470843Y-98661266D01*
X133477632Y-98655356D01*
X133484509Y-98649742D01*
X133491484Y-98644440D01*
X133498569Y-98639469D01*
X133505775Y-98634843D01*
X133513113Y-98630579D01*
X133520593Y-98626695D01*
X133528227Y-98623205D01*
X133536026Y-98620128D01*
X133544001Y-98617479D01*
X133552163Y-98615274D01*
X133560522Y-98613531D01*
X133569091Y-98612265D01*
X133577879Y-98611494D01*
X133586898Y-98611233D01*
X133597605Y-98611536D01*
X133607940Y-98612428D01*
X133617904Y-98613885D01*
X133627499Y-98615883D01*
X133636725Y-98618397D01*
X133645584Y-98621402D01*
X133654078Y-98624874D01*
X133662208Y-98628788D01*
X133669976Y-98633120D01*
X133677382Y-98637846D01*
X133684430Y-98642941D01*
X133691118Y-98648380D01*
X133697451Y-98654140D01*
X133703428Y-98660194D01*
X133709051Y-98666520D01*
X133714321Y-98673092D01*
X133719025Y-98679397D01*
X133723306Y-98685765D01*
X133727181Y-98692326D01*
X133730665Y-98699210D01*
X133732266Y-98702813D01*
X133733776Y-98706545D01*
X133735196Y-98710422D01*
X133736529Y-98714461D01*
X133737777Y-98718677D01*
X133738942Y-98723087D01*
X133741031Y-98732551D01*
X133742812Y-98742983D01*
X133744302Y-98754513D01*
X133745518Y-98767269D01*
X133746476Y-98781380D01*
X133747192Y-98796976D01*
X133747683Y-98814185D01*
X133747965Y-98833137D01*
X133748056Y-98853962D01*
X133747683Y-98894009D01*
G37*
G36*
X132836698Y-98949502D02*
G01*
X132838630Y-98949502D01*
X132946368Y-98616868D01*
X133015715Y-98616868D01*
X133123454Y-98949502D01*
X133125332Y-98949502D01*
X133216243Y-98616868D01*
X133317420Y-98616868D01*
X133165628Y-99091928D01*
X133081305Y-99091928D01*
X132981981Y-98759267D01*
X132980103Y-98759267D01*
X132880778Y-99091928D01*
X132796402Y-99091928D01*
X132644637Y-98616868D01*
X132745867Y-98616868D01*
X132836698Y-98949502D01*
G37*
D11*
X130730656Y-96947550D02*
X130444942Y-96947550D01*
X130587799Y-97447550D02*
X130587799Y-96947550D01*
X130278276Y-97447550D02*
X130278276Y-96947550D01*
X130063990Y-97447550D02*
X130063990Y-97185645D01*
X130063990Y-97185645D02*
X130087800Y-97138026D01*
X130087800Y-97138026D02*
X130135419Y-97114217D01*
X130135419Y-97114217D02*
X130206847Y-97114217D01*
X130206847Y-97114217D02*
X130254466Y-97138026D01*
X130254466Y-97138026D02*
X130278276Y-97161836D01*
X129635419Y-97423741D02*
X129683038Y-97447550D01*
X129683038Y-97447550D02*
X129778276Y-97447550D01*
X129778276Y-97447550D02*
X129825895Y-97423741D01*
X129825895Y-97423741D02*
X129849704Y-97376121D01*
X129849704Y-97376121D02*
X129849704Y-97185645D01*
X129849704Y-97185645D02*
X129825895Y-97138026D01*
X129825895Y-97138026D02*
X129778276Y-97114217D01*
X129778276Y-97114217D02*
X129683038Y-97114217D01*
X129683038Y-97114217D02*
X129635419Y-97138026D01*
X129635419Y-97138026D02*
X129611609Y-97185645D01*
X129611609Y-97185645D02*
X129611609Y-97233264D01*
X129611609Y-97233264D02*
X129849704Y-97280883D01*
X129087800Y-96947550D02*
X128802086Y-96947550D01*
X128944943Y-97447550D02*
X128944943Y-96947550D01*
X128659229Y-97304693D02*
X128421134Y-97304693D01*
X128706848Y-97447550D02*
X128540182Y-96947550D01*
X128540182Y-96947550D02*
X128373515Y-97447550D01*
X128206849Y-97447550D02*
X128206849Y-96947550D01*
X128206849Y-96947550D02*
X128016373Y-96947550D01*
X128016373Y-96947550D02*
X127968754Y-96971360D01*
X127968754Y-96971360D02*
X127944944Y-96995169D01*
X127944944Y-96995169D02*
X127921135Y-97042788D01*
X127921135Y-97042788D02*
X127921135Y-97114217D01*
X127921135Y-97114217D02*
X127944944Y-97161836D01*
X127944944Y-97161836D02*
X127968754Y-97185645D01*
X127968754Y-97185645D02*
X128016373Y-97209455D01*
X128016373Y-97209455D02*
X128206849Y-97209455D01*
X127421135Y-97447550D02*
X127587801Y-97209455D01*
X127706849Y-97447550D02*
X127706849Y-96947550D01*
X127706849Y-96947550D02*
X127516373Y-96947550D01*
X127516373Y-96947550D02*
X127468754Y-96971360D01*
X127468754Y-96971360D02*
X127444944Y-96995169D01*
X127444944Y-96995169D02*
X127421135Y-97042788D01*
X127421135Y-97042788D02*
X127421135Y-97114217D01*
X127421135Y-97114217D02*
X127444944Y-97161836D01*
X127444944Y-97161836D02*
X127468754Y-97185645D01*
X127468754Y-97185645D02*
X127516373Y-97209455D01*
X127516373Y-97209455D02*
X127706849Y-97209455D01*
X126730659Y-96947550D02*
X126635421Y-96947550D01*
X126635421Y-96947550D02*
X126587802Y-96971360D01*
X126587802Y-96971360D02*
X126540183Y-97018979D01*
X126540183Y-97018979D02*
X126516373Y-97114217D01*
X126516373Y-97114217D02*
X126516373Y-97280883D01*
X126516373Y-97280883D02*
X126540183Y-97376121D01*
X126540183Y-97376121D02*
X126587802Y-97423741D01*
X126587802Y-97423741D02*
X126635421Y-97447550D01*
X126635421Y-97447550D02*
X126730659Y-97447550D01*
X126730659Y-97447550D02*
X126778278Y-97423741D01*
X126778278Y-97423741D02*
X126825897Y-97376121D01*
X126825897Y-97376121D02*
X126849706Y-97280883D01*
X126849706Y-97280883D02*
X126849706Y-97114217D01*
X126849706Y-97114217D02*
X126825897Y-97018979D01*
X126825897Y-97018979D02*
X126778278Y-96971360D01*
X126778278Y-96971360D02*
X126730659Y-96947550D01*
X126302087Y-97114217D02*
X126302087Y-97614217D01*
X126302087Y-97138026D02*
X126254468Y-97114217D01*
X126254468Y-97114217D02*
X126159230Y-97114217D01*
X126159230Y-97114217D02*
X126111611Y-97138026D01*
X126111611Y-97138026D02*
X126087801Y-97161836D01*
X126087801Y-97161836D02*
X126063992Y-97209455D01*
X126063992Y-97209455D02*
X126063992Y-97352312D01*
X126063992Y-97352312D02*
X126087801Y-97399931D01*
X126087801Y-97399931D02*
X126111611Y-97423741D01*
X126111611Y-97423741D02*
X126159230Y-97447550D01*
X126159230Y-97447550D02*
X126254468Y-97447550D01*
X126254468Y-97447550D02*
X126302087Y-97423741D01*
X125659230Y-97423741D02*
X125706849Y-97447550D01*
X125706849Y-97447550D02*
X125802087Y-97447550D01*
X125802087Y-97447550D02*
X125849706Y-97423741D01*
X125849706Y-97423741D02*
X125873515Y-97376121D01*
X125873515Y-97376121D02*
X125873515Y-97185645D01*
X125873515Y-97185645D02*
X125849706Y-97138026D01*
X125849706Y-97138026D02*
X125802087Y-97114217D01*
X125802087Y-97114217D02*
X125706849Y-97114217D01*
X125706849Y-97114217D02*
X125659230Y-97138026D01*
X125659230Y-97138026D02*
X125635420Y-97185645D01*
X125635420Y-97185645D02*
X125635420Y-97233264D01*
X125635420Y-97233264D02*
X125873515Y-97280883D01*
X125421135Y-97114217D02*
X125421135Y-97447550D01*
X125421135Y-97161836D02*
X125397325Y-97138026D01*
X125397325Y-97138026D02*
X125349706Y-97114217D01*
X125349706Y-97114217D02*
X125278278Y-97114217D01*
X125278278Y-97114217D02*
X125230659Y-97138026D01*
X125230659Y-97138026D02*
X125206849Y-97185645D01*
X125206849Y-97185645D02*
X125206849Y-97447550D01*
X130659228Y-98252522D02*
X130659228Y-97752522D01*
X130659228Y-97990617D02*
X130373514Y-97990617D01*
X130373514Y-98252522D02*
X130373514Y-97752522D01*
X129921132Y-98252522D02*
X129921132Y-97990617D01*
X129921132Y-97990617D02*
X129944942Y-97942998D01*
X129944942Y-97942998D02*
X129992561Y-97919189D01*
X129992561Y-97919189D02*
X130087799Y-97919189D01*
X130087799Y-97919189D02*
X130135418Y-97942998D01*
X129921132Y-98228713D02*
X129968751Y-98252522D01*
X129968751Y-98252522D02*
X130087799Y-98252522D01*
X130087799Y-98252522D02*
X130135418Y-98228713D01*
X130135418Y-98228713D02*
X130159227Y-98181093D01*
X130159227Y-98181093D02*
X130159227Y-98133474D01*
X130159227Y-98133474D02*
X130135418Y-98085855D01*
X130135418Y-98085855D02*
X130087799Y-98062046D01*
X130087799Y-98062046D02*
X129968751Y-98062046D01*
X129968751Y-98062046D02*
X129921132Y-98038236D01*
X129683037Y-98252522D02*
X129683037Y-97919189D01*
X129683037Y-98014427D02*
X129659227Y-97966808D01*
X129659227Y-97966808D02*
X129635418Y-97942998D01*
X129635418Y-97942998D02*
X129587799Y-97919189D01*
X129587799Y-97919189D02*
X129540180Y-97919189D01*
X129159227Y-98252522D02*
X129159227Y-97752522D01*
X129159227Y-98228713D02*
X129206846Y-98252522D01*
X129206846Y-98252522D02*
X129302084Y-98252522D01*
X129302084Y-98252522D02*
X129349703Y-98228713D01*
X129349703Y-98228713D02*
X129373513Y-98204903D01*
X129373513Y-98204903D02*
X129397322Y-98157284D01*
X129397322Y-98157284D02*
X129397322Y-98014427D01*
X129397322Y-98014427D02*
X129373513Y-97966808D01*
X129373513Y-97966808D02*
X129349703Y-97942998D01*
X129349703Y-97942998D02*
X129302084Y-97919189D01*
X129302084Y-97919189D02*
X129206846Y-97919189D01*
X129206846Y-97919189D02*
X129159227Y-97942998D01*
X128968751Y-97919189D02*
X128873513Y-98252522D01*
X128873513Y-98252522D02*
X128778275Y-98014427D01*
X128778275Y-98014427D02*
X128683037Y-98252522D01*
X128683037Y-98252522D02*
X128587799Y-97919189D01*
X128183036Y-98252522D02*
X128183036Y-97990617D01*
X128183036Y-97990617D02*
X128206846Y-97942998D01*
X128206846Y-97942998D02*
X128254465Y-97919189D01*
X128254465Y-97919189D02*
X128349703Y-97919189D01*
X128349703Y-97919189D02*
X128397322Y-97942998D01*
X128183036Y-98228713D02*
X128230655Y-98252522D01*
X128230655Y-98252522D02*
X128349703Y-98252522D01*
X128349703Y-98252522D02*
X128397322Y-98228713D01*
X128397322Y-98228713D02*
X128421131Y-98181093D01*
X128421131Y-98181093D02*
X128421131Y-98133474D01*
X128421131Y-98133474D02*
X128397322Y-98085855D01*
X128397322Y-98085855D02*
X128349703Y-98062046D01*
X128349703Y-98062046D02*
X128230655Y-98062046D01*
X128230655Y-98062046D02*
X128183036Y-98038236D01*
X127944941Y-98252522D02*
X127944941Y-97919189D01*
X127944941Y-98014427D02*
X127921131Y-97966808D01*
X127921131Y-97966808D02*
X127897322Y-97942998D01*
X127897322Y-97942998D02*
X127849703Y-97919189D01*
X127849703Y-97919189D02*
X127802084Y-97919189D01*
X127444941Y-98228713D02*
X127492560Y-98252522D01*
X127492560Y-98252522D02*
X127587798Y-98252522D01*
X127587798Y-98252522D02*
X127635417Y-98228713D01*
X127635417Y-98228713D02*
X127659226Y-98181093D01*
X127659226Y-98181093D02*
X127659226Y-97990617D01*
X127659226Y-97990617D02*
X127635417Y-97942998D01*
X127635417Y-97942998D02*
X127587798Y-97919189D01*
X127587798Y-97919189D02*
X127492560Y-97919189D01*
X127492560Y-97919189D02*
X127444941Y-97942998D01*
X127444941Y-97942998D02*
X127421131Y-97990617D01*
X127421131Y-97990617D02*
X127421131Y-98038236D01*
X127421131Y-98038236D02*
X127659226Y-98085855D01*
X126587799Y-98252522D02*
X126825894Y-98252522D01*
X126825894Y-98252522D02*
X126825894Y-97752522D01*
X126421132Y-98252522D02*
X126421132Y-97919189D01*
X126421132Y-97752522D02*
X126444941Y-97776332D01*
X126444941Y-97776332D02*
X126421132Y-97800141D01*
X126421132Y-97800141D02*
X126397322Y-97776332D01*
X126397322Y-97776332D02*
X126421132Y-97752522D01*
X126421132Y-97752522D02*
X126421132Y-97800141D01*
X125968751Y-98228713D02*
X126016370Y-98252522D01*
X126016370Y-98252522D02*
X126111608Y-98252522D01*
X126111608Y-98252522D02*
X126159227Y-98228713D01*
X126159227Y-98228713D02*
X126183037Y-98204903D01*
X126183037Y-98204903D02*
X126206846Y-98157284D01*
X126206846Y-98157284D02*
X126206846Y-98014427D01*
X126206846Y-98014427D02*
X126183037Y-97966808D01*
X126183037Y-97966808D02*
X126159227Y-97942998D01*
X126159227Y-97942998D02*
X126111608Y-97919189D01*
X126111608Y-97919189D02*
X126016370Y-97919189D01*
X126016370Y-97919189D02*
X125968751Y-97942998D01*
X125563990Y-98228713D02*
X125611609Y-98252522D01*
X125611609Y-98252522D02*
X125706847Y-98252522D01*
X125706847Y-98252522D02*
X125754466Y-98228713D01*
X125754466Y-98228713D02*
X125778275Y-98181093D01*
X125778275Y-98181093D02*
X125778275Y-97990617D01*
X125778275Y-97990617D02*
X125754466Y-97942998D01*
X125754466Y-97942998D02*
X125706847Y-97919189D01*
X125706847Y-97919189D02*
X125611609Y-97919189D01*
X125611609Y-97919189D02*
X125563990Y-97942998D01*
X125563990Y-97942998D02*
X125540180Y-97990617D01*
X125540180Y-97990617D02*
X125540180Y-98038236D01*
X125540180Y-98038236D02*
X125778275Y-98085855D01*
X125325895Y-97919189D02*
X125325895Y-98252522D01*
X125325895Y-97966808D02*
X125302085Y-97942998D01*
X125302085Y-97942998D02*
X125254466Y-97919189D01*
X125254466Y-97919189D02*
X125183038Y-97919189D01*
X125183038Y-97919189D02*
X125135419Y-97942998D01*
X125135419Y-97942998D02*
X125111609Y-97990617D01*
X125111609Y-97990617D02*
X125111609Y-98252522D01*
X124897323Y-98228713D02*
X124849704Y-98252522D01*
X124849704Y-98252522D02*
X124754466Y-98252522D01*
X124754466Y-98252522D02*
X124706847Y-98228713D01*
X124706847Y-98228713D02*
X124683038Y-98181093D01*
X124683038Y-98181093D02*
X124683038Y-98157284D01*
X124683038Y-98157284D02*
X124706847Y-98109665D01*
X124706847Y-98109665D02*
X124754466Y-98085855D01*
X124754466Y-98085855D02*
X124825895Y-98085855D01*
X124825895Y-98085855D02*
X124873514Y-98062046D01*
X124873514Y-98062046D02*
X124897323Y-98014427D01*
X124897323Y-98014427D02*
X124897323Y-97990617D01*
X124897323Y-97990617D02*
X124873514Y-97942998D01*
X124873514Y-97942998D02*
X124825895Y-97919189D01*
X124825895Y-97919189D02*
X124754466Y-97919189D01*
X124754466Y-97919189D02*
X124706847Y-97942998D01*
X124278276Y-98228713D02*
X124325895Y-98252522D01*
X124325895Y-98252522D02*
X124421133Y-98252522D01*
X124421133Y-98252522D02*
X124468752Y-98228713D01*
X124468752Y-98228713D02*
X124492561Y-98181093D01*
X124492561Y-98181093D02*
X124492561Y-97990617D01*
X124492561Y-97990617D02*
X124468752Y-97942998D01*
X124468752Y-97942998D02*
X124421133Y-97919189D01*
X124421133Y-97919189D02*
X124325895Y-97919189D01*
X124325895Y-97919189D02*
X124278276Y-97942998D01*
X124278276Y-97942998D02*
X124254466Y-97990617D01*
X124254466Y-97990617D02*
X124254466Y-98038236D01*
X124254466Y-98038236D02*
X124492561Y-98085855D01*
X130659228Y-99057494D02*
X130659228Y-98557494D01*
X130444942Y-99057494D02*
X130444942Y-98795589D01*
X130444942Y-98795589D02*
X130468752Y-98747970D01*
X130468752Y-98747970D02*
X130516371Y-98724161D01*
X130516371Y-98724161D02*
X130587799Y-98724161D01*
X130587799Y-98724161D02*
X130635418Y-98747970D01*
X130635418Y-98747970D02*
X130659228Y-98771780D01*
X130278275Y-98724161D02*
X130087799Y-98724161D01*
X130206847Y-98557494D02*
X130206847Y-98986065D01*
X130206847Y-98986065D02*
X130183037Y-99033685D01*
X130183037Y-99033685D02*
X130135418Y-99057494D01*
X130135418Y-99057494D02*
X130087799Y-99057494D01*
X129992561Y-98724161D02*
X129802085Y-98724161D01*
X129921133Y-98557494D02*
X129921133Y-98986065D01*
X129921133Y-98986065D02*
X129897323Y-99033685D01*
X129897323Y-99033685D02*
X129849704Y-99057494D01*
X129849704Y-99057494D02*
X129802085Y-99057494D01*
X129635419Y-98724161D02*
X129635419Y-99224161D01*
X129635419Y-98747970D02*
X129587800Y-98724161D01*
X129587800Y-98724161D02*
X129492562Y-98724161D01*
X129492562Y-98724161D02*
X129444943Y-98747970D01*
X129444943Y-98747970D02*
X129421133Y-98771780D01*
X129421133Y-98771780D02*
X129397324Y-98819399D01*
X129397324Y-98819399D02*
X129397324Y-98962256D01*
X129397324Y-98962256D02*
X129421133Y-99009875D01*
X129421133Y-99009875D02*
X129444943Y-99033685D01*
X129444943Y-99033685D02*
X129492562Y-99057494D01*
X129492562Y-99057494D02*
X129587800Y-99057494D01*
X129587800Y-99057494D02*
X129635419Y-99033685D01*
X129183038Y-99009875D02*
X129159228Y-99033685D01*
X129159228Y-99033685D02*
X129183038Y-99057494D01*
X129183038Y-99057494D02*
X129206847Y-99033685D01*
X129206847Y-99033685D02*
X129183038Y-99009875D01*
X129183038Y-99009875D02*
X129183038Y-99057494D01*
X129183038Y-98747970D02*
X129159228Y-98771780D01*
X129159228Y-98771780D02*
X129183038Y-98795589D01*
X129183038Y-98795589D02*
X129206847Y-98771780D01*
X129206847Y-98771780D02*
X129183038Y-98747970D01*
X129183038Y-98747970D02*
X129183038Y-98795589D01*
X128587800Y-98533685D02*
X129016371Y-99176542D01*
X128063990Y-98533685D02*
X128492561Y-99176542D01*
X127944942Y-98724161D02*
X127849704Y-99057494D01*
X127849704Y-99057494D02*
X127754466Y-98819399D01*
X127754466Y-98819399D02*
X127659228Y-99057494D01*
X127659228Y-99057494D02*
X127563990Y-98724161D01*
X127421132Y-98724161D02*
X127325894Y-99057494D01*
X127325894Y-99057494D02*
X127230656Y-98819399D01*
X127230656Y-98819399D02*
X127135418Y-99057494D01*
X127135418Y-99057494D02*
X127040180Y-98724161D01*
X126897322Y-98724161D02*
X126802084Y-99057494D01*
X126802084Y-99057494D02*
X126706846Y-98819399D01*
X126706846Y-98819399D02*
X126611608Y-99057494D01*
X126611608Y-99057494D02*
X126516370Y-98724161D01*
X126325893Y-99009875D02*
X126302083Y-99033685D01*
X126302083Y-99033685D02*
X126325893Y-99057494D01*
X126325893Y-99057494D02*
X126349702Y-99033685D01*
X126349702Y-99033685D02*
X126325893Y-99009875D01*
X126325893Y-99009875D02*
X126325893Y-99057494D01*
X126159226Y-98724161D02*
X125968750Y-98724161D01*
X126087798Y-98557494D02*
X126087798Y-98986065D01*
X126087798Y-98986065D02*
X126063988Y-99033685D01*
X126063988Y-99033685D02*
X126016369Y-99057494D01*
X126016369Y-99057494D02*
X125968750Y-99057494D01*
X125587798Y-99057494D02*
X125587798Y-98795589D01*
X125587798Y-98795589D02*
X125611608Y-98747970D01*
X125611608Y-98747970D02*
X125659227Y-98724161D01*
X125659227Y-98724161D02*
X125754465Y-98724161D01*
X125754465Y-98724161D02*
X125802084Y-98747970D01*
X125587798Y-99033685D02*
X125635417Y-99057494D01*
X125635417Y-99057494D02*
X125754465Y-99057494D01*
X125754465Y-99057494D02*
X125802084Y-99033685D01*
X125802084Y-99033685D02*
X125825893Y-98986065D01*
X125825893Y-98986065D02*
X125825893Y-98938446D01*
X125825893Y-98938446D02*
X125802084Y-98890827D01*
X125802084Y-98890827D02*
X125754465Y-98867018D01*
X125754465Y-98867018D02*
X125635417Y-98867018D01*
X125635417Y-98867018D02*
X125587798Y-98843208D01*
X125349703Y-98724161D02*
X125349703Y-99224161D01*
X125349703Y-98747970D02*
X125302084Y-98724161D01*
X125302084Y-98724161D02*
X125206846Y-98724161D01*
X125206846Y-98724161D02*
X125159227Y-98747970D01*
X125159227Y-98747970D02*
X125135417Y-98771780D01*
X125135417Y-98771780D02*
X125111608Y-98819399D01*
X125111608Y-98819399D02*
X125111608Y-98962256D01*
X125111608Y-98962256D02*
X125135417Y-99009875D01*
X125135417Y-99009875D02*
X125159227Y-99033685D01*
X125159227Y-99033685D02*
X125206846Y-99057494D01*
X125206846Y-99057494D02*
X125302084Y-99057494D01*
X125302084Y-99057494D02*
X125349703Y-99033685D01*
X124897322Y-99057494D02*
X124897322Y-98724161D01*
X124897322Y-98819399D02*
X124873512Y-98771780D01*
X124873512Y-98771780D02*
X124849703Y-98747970D01*
X124849703Y-98747970D02*
X124802084Y-98724161D01*
X124802084Y-98724161D02*
X124754465Y-98724161D01*
X124587798Y-99009875D02*
X124563988Y-99033685D01*
X124563988Y-99033685D02*
X124587798Y-99057494D01*
X124587798Y-99057494D02*
X124611607Y-99033685D01*
X124611607Y-99033685D02*
X124587798Y-99009875D01*
X124587798Y-99009875D02*
X124587798Y-99057494D01*
X124278274Y-99057494D02*
X124325893Y-99033685D01*
X124325893Y-99033685D02*
X124349703Y-99009875D01*
X124349703Y-99009875D02*
X124373512Y-98962256D01*
X124373512Y-98962256D02*
X124373512Y-98819399D01*
X124373512Y-98819399D02*
X124349703Y-98771780D01*
X124349703Y-98771780D02*
X124325893Y-98747970D01*
X124325893Y-98747970D02*
X124278274Y-98724161D01*
X124278274Y-98724161D02*
X124206846Y-98724161D01*
X124206846Y-98724161D02*
X124159227Y-98747970D01*
X124159227Y-98747970D02*
X124135417Y-98771780D01*
X124135417Y-98771780D02*
X124111608Y-98819399D01*
X124111608Y-98819399D02*
X124111608Y-98962256D01*
X124111608Y-98962256D02*
X124135417Y-99009875D01*
X124135417Y-99009875D02*
X124159227Y-99033685D01*
X124159227Y-99033685D02*
X124206846Y-99057494D01*
X124206846Y-99057494D02*
X124278274Y-99057494D01*
X123897322Y-99057494D02*
X123897322Y-98724161D01*
X123897322Y-98819399D02*
X123873512Y-98771780D01*
X123873512Y-98771780D02*
X123849703Y-98747970D01*
X123849703Y-98747970D02*
X123802084Y-98724161D01*
X123802084Y-98724161D02*
X123754465Y-98724161D01*
X123373512Y-98724161D02*
X123373512Y-99128923D01*
X123373512Y-99128923D02*
X123397322Y-99176542D01*
X123397322Y-99176542D02*
X123421131Y-99200351D01*
X123421131Y-99200351D02*
X123468750Y-99224161D01*
X123468750Y-99224161D02*
X123540179Y-99224161D01*
X123540179Y-99224161D02*
X123587798Y-99200351D01*
X123373512Y-99033685D02*
X123421131Y-99057494D01*
X123421131Y-99057494D02*
X123516369Y-99057494D01*
X123516369Y-99057494D02*
X123563988Y-99033685D01*
X123563988Y-99033685D02*
X123587798Y-99009875D01*
X123587798Y-99009875D02*
X123611607Y-98962256D01*
X123611607Y-98962256D02*
X123611607Y-98819399D01*
X123611607Y-98819399D02*
X123587798Y-98771780D01*
X123587798Y-98771780D02*
X123563988Y-98747970D01*
X123563988Y-98747970D02*
X123516369Y-98724161D01*
X123516369Y-98724161D02*
X123421131Y-98724161D01*
X123421131Y-98724161D02*
X123373512Y-98747970D01*
X122778274Y-98533685D02*
X123206845Y-99176542D01*
X122516369Y-98557494D02*
X122421131Y-98557494D01*
X122421131Y-98557494D02*
X122373512Y-98581304D01*
X122373512Y-98581304D02*
X122325893Y-98628923D01*
X122325893Y-98628923D02*
X122302083Y-98724161D01*
X122302083Y-98724161D02*
X122302083Y-98890827D01*
X122302083Y-98890827D02*
X122325893Y-98986065D01*
X122325893Y-98986065D02*
X122373512Y-99033685D01*
X122373512Y-99033685D02*
X122421131Y-99057494D01*
X122421131Y-99057494D02*
X122516369Y-99057494D01*
X122516369Y-99057494D02*
X122563988Y-99033685D01*
X122563988Y-99033685D02*
X122611607Y-98986065D01*
X122611607Y-98986065D02*
X122635416Y-98890827D01*
X122635416Y-98890827D02*
X122635416Y-98724161D01*
X122635416Y-98724161D02*
X122611607Y-98628923D01*
X122611607Y-98628923D02*
X122563988Y-98581304D01*
X122563988Y-98581304D02*
X122516369Y-98557494D01*
X122087797Y-99057494D02*
X122087797Y-98557494D01*
X122087797Y-98795589D02*
X121802083Y-98795589D01*
X121802083Y-99057494D02*
X121802083Y-98557494D01*
X121325892Y-99057494D02*
X121563987Y-99057494D01*
X121563987Y-99057494D02*
X121563987Y-98557494D01*
D12*
G36*
X159060956Y-68229000D02*
G01*
X158744050Y-68229000D01*
X158744050Y-67689711D01*
X158607397Y-67689711D01*
X158567257Y-67689106D01*
X158491789Y-67684263D01*
X158411850Y-67672492D01*
X158331181Y-67650968D01*
X158261915Y-67620835D01*
X158238716Y-67607534D01*
X158176770Y-67562995D01*
X158121400Y-67505350D01*
X158080198Y-67439118D01*
X158073588Y-67424896D01*
X158046934Y-67351637D01*
X158030941Y-67274801D01*
X158026290Y-67204645D01*
X158346912Y-67204645D01*
X158350681Y-67255097D01*
X158374680Y-67326495D01*
X158425680Y-67382332D01*
X158486413Y-67413411D01*
X158560307Y-67431589D01*
X158638904Y-67436920D01*
X158744050Y-67436920D01*
X158744050Y-66981163D01*
X158598970Y-66981163D01*
X158526356Y-66986619D01*
X158445372Y-67012590D01*
X158388511Y-67059949D01*
X158355773Y-67128696D01*
X158346912Y-67204645D01*
X158026290Y-67204645D01*
X158025610Y-67194387D01*
X158028866Y-67128767D01*
X158041368Y-67056021D01*
X158067805Y-66979420D01*
X158107005Y-66911725D01*
X158158967Y-66852935D01*
X158185346Y-66830674D01*
X158257592Y-66787247D01*
X158331433Y-66759512D01*
X158416273Y-66740536D01*
X158495376Y-66731413D01*
X158582117Y-66728371D01*
X159060956Y-66728371D01*
X159060956Y-68229000D01*
G37*
G36*
X157609787Y-66634582D02*
G01*
X157534277Y-66646077D01*
X157490352Y-66667189D01*
X157446903Y-66729098D01*
X157439794Y-66786990D01*
X157452433Y-66859621D01*
X157490352Y-66906058D01*
X157560534Y-66934709D01*
X157609787Y-66939397D01*
X157683203Y-66928849D01*
X157730687Y-66906058D01*
X157772876Y-66843919D01*
X157779780Y-66786990D01*
X157767506Y-66713259D01*
X157730687Y-66667189D01*
X157660276Y-66639167D01*
X157609787Y-66634582D01*
G37*
G36*
X157454448Y-67080081D02*
G01*
X157454448Y-68229000D01*
X157767323Y-68229000D01*
X157767323Y-67080081D01*
X157454448Y-67080081D01*
G37*
G36*
X156660537Y-68252447D02*
G01*
X156737826Y-68248994D01*
X156823040Y-68235736D01*
X156900036Y-68212535D01*
X156968816Y-68179391D01*
X157029377Y-68136303D01*
X157056577Y-68111030D01*
X157104014Y-68052001D01*
X157141636Y-67981251D01*
X157169444Y-67898781D01*
X157185120Y-67821102D01*
X157193980Y-67735284D01*
X157196161Y-67660769D01*
X157193650Y-67584377D01*
X157184371Y-67502189D01*
X157168255Y-67427469D01*
X157141464Y-67351219D01*
X157124720Y-67316752D01*
X157085542Y-67254448D01*
X157033201Y-67194810D01*
X156972108Y-67146243D01*
X156926517Y-67120015D01*
X156851936Y-67089377D01*
X156780483Y-67070560D01*
X156704176Y-67059667D01*
X156633426Y-67056634D01*
X156556167Y-67059361D01*
X156480081Y-67068557D01*
X156428628Y-67079715D01*
X156356540Y-67101523D01*
X156284458Y-67130398D01*
X156276221Y-67134303D01*
X156368911Y-67381599D01*
X156439894Y-67352931D01*
X156506297Y-67329942D01*
X156578078Y-67313352D01*
X156633426Y-67309425D01*
X156716223Y-67321738D01*
X156781889Y-67358678D01*
X156830425Y-67420245D01*
X156857786Y-67490362D01*
X156873251Y-67577581D01*
X156877058Y-67659669D01*
X156873051Y-67741140D01*
X156858964Y-67819109D01*
X156831415Y-67888747D01*
X156812944Y-67916857D01*
X156757646Y-67967312D01*
X156687923Y-67994481D01*
X156633426Y-67999655D01*
X156556924Y-67995302D01*
X156483194Y-67980876D01*
X156459036Y-67973277D01*
X156389168Y-67944120D01*
X156321070Y-67906108D01*
X156312124Y-67900371D01*
X156312124Y-68168183D01*
X156380710Y-68204794D01*
X156452516Y-68230136D01*
X156462334Y-68232663D01*
X156539040Y-68246187D01*
X156617178Y-68251751D01*
X156660537Y-68252447D01*
G37*
G36*
X155606742Y-67057989D02*
G01*
X155682161Y-67066274D01*
X155765486Y-67086156D01*
X155840980Y-67116884D01*
X155908643Y-67158456D01*
X155968475Y-67210873D01*
X156011431Y-67262320D01*
X156053369Y-67332627D01*
X156084822Y-67412286D01*
X156103023Y-67485811D01*
X156113945Y-67565830D01*
X156117585Y-67652342D01*
X156117306Y-67676157D01*
X156111934Y-67755926D01*
X156099725Y-67830120D01*
X156077399Y-67908087D01*
X156046144Y-67978773D01*
X156022513Y-68019110D01*
X155973395Y-68083829D01*
X155915815Y-68138405D01*
X155849773Y-68182838D01*
X155793468Y-68209961D01*
X155716233Y-68235045D01*
X155643006Y-68248096D01*
X155565474Y-68252447D01*
X155517995Y-68251075D01*
X155443085Y-68242692D01*
X155360160Y-68222574D01*
X155284833Y-68191482D01*
X155217106Y-68149415D01*
X155156978Y-68096376D01*
X155113705Y-68044287D01*
X155071458Y-67973327D01*
X155039774Y-67893144D01*
X155021437Y-67819281D01*
X155010436Y-67739014D01*
X155006769Y-67652342D01*
X155325872Y-67652342D01*
X155326742Y-67693902D01*
X155333703Y-67769189D01*
X155349854Y-67841408D01*
X155381559Y-67911728D01*
X155418274Y-67954232D01*
X155483996Y-67989266D01*
X155561078Y-67999655D01*
X155619696Y-67994160D01*
X155691137Y-67965309D01*
X155742794Y-67911728D01*
X155758837Y-67882211D01*
X155782765Y-67810942D01*
X155795001Y-67732851D01*
X155798482Y-67652342D01*
X155797612Y-67610817D01*
X155790651Y-67535804D01*
X155774499Y-67464223D01*
X155742794Y-67395154D01*
X155706080Y-67353713D01*
X155640358Y-67319555D01*
X155563276Y-67309425D01*
X155504658Y-67314783D01*
X155433217Y-67342913D01*
X155381559Y-67395154D01*
X155365516Y-67424038D01*
X155341588Y-67494363D01*
X155329352Y-67571971D01*
X155325872Y-67652342D01*
X155006769Y-67652342D01*
X155007048Y-67628798D01*
X155012420Y-67549908D01*
X155024629Y-67476487D01*
X155046954Y-67399276D01*
X155078210Y-67329209D01*
X155101814Y-67289197D01*
X155150748Y-67224974D01*
X155207971Y-67170778D01*
X155273482Y-67126609D01*
X155329464Y-67099344D01*
X155406747Y-67074128D01*
X155480455Y-67061007D01*
X155558879Y-67056634D01*
X155606742Y-67057989D01*
G37*
G36*
X154723203Y-68229000D02*
G01*
X154298953Y-68229000D01*
X154228044Y-68227309D01*
X154138147Y-68219796D01*
X154053563Y-68206272D01*
X153974291Y-68186737D01*
X153900331Y-68161192D01*
X153831684Y-68129636D01*
X153768349Y-68092069D01*
X153696650Y-68036658D01*
X153670431Y-68011881D01*
X153612283Y-67943516D01*
X153564707Y-67865973D01*
X153534259Y-67797331D01*
X153510577Y-67722816D01*
X153493661Y-67642427D01*
X153483512Y-67556166D01*
X153480465Y-67473190D01*
X153809856Y-67473190D01*
X153813898Y-67563085D01*
X153826021Y-67644138D01*
X153854758Y-67738453D01*
X153897863Y-67817050D01*
X153955336Y-67879927D01*
X154027178Y-67927085D01*
X154113388Y-67958524D01*
X154187475Y-67971787D01*
X154269644Y-67976208D01*
X154406297Y-67976208D01*
X154406297Y-66981163D01*
X154235938Y-66981163D01*
X154210357Y-66981631D01*
X154126886Y-66990639D01*
X154052848Y-67011113D01*
X153979781Y-67048551D01*
X153919033Y-67100964D01*
X153871268Y-67169153D01*
X153840669Y-67242418D01*
X153822757Y-67315319D01*
X153812522Y-67397545D01*
X153809856Y-67473190D01*
X153480465Y-67473190D01*
X153480129Y-67464031D01*
X153480222Y-67449130D01*
X153484704Y-67362834D01*
X153495910Y-67281870D01*
X153513839Y-67206239D01*
X153538491Y-67135940D01*
X153575750Y-67060664D01*
X153600783Y-67020885D01*
X153650458Y-66957304D01*
X153707602Y-66901403D01*
X153772214Y-66853180D01*
X153844295Y-66812635D01*
X153866198Y-66802431D01*
X153934810Y-66775770D01*
X154007775Y-66755033D01*
X154085093Y-66740221D01*
X154166765Y-66731334D01*
X154252791Y-66728371D01*
X154723203Y-66728371D01*
X154723203Y-68229000D01*
G37*
G36*
X152739858Y-67056748D02*
G01*
X152814777Y-67060755D01*
X152888121Y-67070487D01*
X152959891Y-67085943D01*
X153021773Y-67103701D01*
X153092527Y-67129420D01*
X153163590Y-67162513D01*
X153060642Y-67375737D01*
X153040680Y-67366944D01*
X152970907Y-67339055D01*
X152901273Y-67315653D01*
X152891272Y-67312681D01*
X152815173Y-67296500D01*
X152737142Y-67291107D01*
X152670744Y-67299522D01*
X152605983Y-67335071D01*
X152569107Y-67395662D01*
X152558722Y-67472824D01*
X152558722Y-67525580D01*
X152758391Y-67525580D01*
X152835297Y-67527709D01*
X152919343Y-67535883D01*
X152994399Y-67550189D01*
X153070602Y-67574627D01*
X153142707Y-67612775D01*
X153150574Y-67618320D01*
X153204515Y-67669530D01*
X153242474Y-67732923D01*
X153264450Y-67808497D01*
X153270568Y-67884617D01*
X153267026Y-67952130D01*
X153251284Y-68031207D01*
X153218521Y-68105225D01*
X153169818Y-68163420D01*
X153130195Y-68193675D01*
X153063853Y-68227321D01*
X152989223Y-68246883D01*
X152915928Y-68252447D01*
X152840396Y-68249085D01*
X152761225Y-68235846D01*
X152691346Y-68209949D01*
X152645851Y-68181809D01*
X152587264Y-68131757D01*
X152535642Y-68073295D01*
X152527215Y-68073295D01*
X152466399Y-68229000D01*
X152248046Y-68229000D01*
X152248046Y-67802185D01*
X152558722Y-67802185D01*
X152559804Y-67827195D01*
X152580631Y-67903280D01*
X152627965Y-67961554D01*
X152650382Y-67977807D01*
X152721428Y-68008662D01*
X152798325Y-68017974D01*
X152837795Y-68015111D01*
X152907501Y-67988665D01*
X152931280Y-67963630D01*
X152949267Y-67890113D01*
X152936387Y-67822342D01*
X152890648Y-67761885D01*
X152833478Y-67732192D01*
X152758353Y-67717013D01*
X152680722Y-67713159D01*
X152558722Y-67713159D01*
X152558722Y-67802185D01*
X152248046Y-67802185D01*
X152248046Y-67462932D01*
X152248525Y-67437564D01*
X152257754Y-67355313D01*
X152278729Y-67283230D01*
X152317082Y-67213300D01*
X152370778Y-67156651D01*
X152420615Y-67122661D01*
X152488395Y-67091894D01*
X152566553Y-67070699D01*
X152641807Y-67060150D01*
X152724685Y-67056634D01*
X152739858Y-67056748D01*
G37*
G36*
X151769940Y-66634582D02*
G01*
X151694431Y-66646077D01*
X151650505Y-66667189D01*
X151607057Y-66729098D01*
X151599947Y-66786990D01*
X151612587Y-66859621D01*
X151650505Y-66906058D01*
X151720687Y-66934709D01*
X151769940Y-66939397D01*
X151843356Y-66928849D01*
X151890840Y-66906058D01*
X151933030Y-66843919D01*
X151939933Y-66786990D01*
X151927660Y-66713259D01*
X151890840Y-66667189D01*
X151820430Y-66639167D01*
X151769940Y-66634582D01*
G37*
G36*
X151614602Y-67080081D02*
G01*
X151614602Y-68229000D01*
X151927477Y-68229000D01*
X151927477Y-67080081D01*
X151614602Y-67080081D01*
G37*
G36*
X150486933Y-67889746D02*
G01*
X150494626Y-67972224D01*
X150517707Y-68044535D01*
X150562066Y-68113733D01*
X150610031Y-68158658D01*
X150678953Y-68199690D01*
X150751657Y-68225977D01*
X150835932Y-68243288D01*
X150917376Y-68250981D01*
X150976395Y-68252447D01*
X151054567Y-68250542D01*
X151130860Y-68244119D01*
X151181926Y-68236327D01*
X151257259Y-68218685D01*
X151327212Y-68195397D01*
X151354117Y-68184669D01*
X151354117Y-67922353D01*
X151282813Y-67951393D01*
X151207388Y-67976414D01*
X151154815Y-67990863D01*
X151077912Y-68007383D01*
X151002741Y-68016676D01*
X150965771Y-68017974D01*
X150892124Y-68012017D01*
X150835711Y-67990863D01*
X150796129Y-67927219D01*
X150795778Y-67919055D01*
X150811531Y-67866665D01*
X150870174Y-67819353D01*
X150879675Y-67813909D01*
X150946811Y-67780295D01*
X151016518Y-67749434D01*
X151043440Y-67738071D01*
X151113693Y-67706465D01*
X151179373Y-67672281D01*
X151221127Y-67646847D01*
X151280661Y-67596746D01*
X151322976Y-67537304D01*
X151347980Y-67465038D01*
X151356185Y-67388432D01*
X151356315Y-67376470D01*
X151348575Y-67301434D01*
X151321366Y-67229006D01*
X151274567Y-67169272D01*
X151232484Y-67136501D01*
X151165439Y-67101559D01*
X151088136Y-67076601D01*
X151012081Y-67062951D01*
X150928172Y-67056946D01*
X150902756Y-67056634D01*
X150823965Y-67059674D01*
X150748059Y-67068793D01*
X150699057Y-67078249D01*
X150625641Y-67098428D01*
X150556805Y-67123895D01*
X150499389Y-67149690D01*
X150593911Y-67380866D01*
X150665959Y-67349911D01*
X150734641Y-67323725D01*
X150753646Y-67317119D01*
X150824883Y-67298448D01*
X150901934Y-67291132D01*
X150906786Y-67291107D01*
X150980009Y-67298513D01*
X151040757Y-67341172D01*
X151045638Y-67366944D01*
X151027686Y-67416770D01*
X150967767Y-67459320D01*
X150958443Y-67464031D01*
X150889702Y-67495646D01*
X150818438Y-67526241D01*
X150806036Y-67531442D01*
X150735934Y-67561856D01*
X150668596Y-67595851D01*
X150636043Y-67614607D01*
X150576231Y-67660046D01*
X150528226Y-67719340D01*
X150525767Y-67723417D01*
X150497893Y-67792443D01*
X150487539Y-67865028D01*
X150486933Y-67889746D01*
G37*
G36*
X150407431Y-67080081D02*
G01*
X150065247Y-67080081D01*
X149848726Y-67734041D01*
X149828393Y-67807337D01*
X149823813Y-67831861D01*
X149813782Y-67905649D01*
X149810990Y-67936274D01*
X149804762Y-67936274D01*
X149794120Y-67863152D01*
X149787909Y-67831861D01*
X149768675Y-67758427D01*
X149760799Y-67734041D01*
X149548674Y-67080081D01*
X149212351Y-67080081D01*
X149697784Y-68384704D01*
X149729833Y-68459234D01*
X149767317Y-68525103D01*
X149816811Y-68589778D01*
X149873403Y-68643141D01*
X149888660Y-68654715D01*
X149953071Y-68694145D01*
X150022474Y-68722309D01*
X150096869Y-68739208D01*
X150176256Y-68744840D01*
X150251613Y-68741710D01*
X150268946Y-68739711D01*
X150335990Y-68728720D01*
X150335990Y-68479593D01*
X150281402Y-68487653D01*
X150212159Y-68492049D01*
X150138979Y-68482133D01*
X150071670Y-68446047D01*
X150056821Y-68431965D01*
X150009621Y-68370587D01*
X149976462Y-68303568D01*
X149970725Y-68287984D01*
X149951674Y-68231198D01*
X150407431Y-67080081D01*
G37*
G36*
X148584036Y-67651243D02*
G01*
X148582221Y-67571663D01*
X148576774Y-67492977D01*
X148567695Y-67415185D01*
X148554985Y-67338288D01*
X148538643Y-67262285D01*
X148518671Y-67187177D01*
X148509665Y-67157384D01*
X148484234Y-67084120D01*
X148454653Y-67013164D01*
X148420921Y-66944515D01*
X148383040Y-66878174D01*
X148341008Y-66814141D01*
X148294826Y-66752416D01*
X148275191Y-66728371D01*
X148019103Y-66728371D01*
X148062090Y-66790941D01*
X148101749Y-66855461D01*
X148138082Y-66921931D01*
X148171087Y-66990351D01*
X148200764Y-67060720D01*
X148227115Y-67133039D01*
X148236723Y-67162513D01*
X148258149Y-67236891D01*
X148275943Y-67311878D01*
X148290105Y-67387473D01*
X148300637Y-67463676D01*
X148307536Y-67540487D01*
X148310805Y-67617907D01*
X148311095Y-67649045D01*
X148309297Y-67724887D01*
X148303904Y-67800370D01*
X148294915Y-67875497D01*
X148282330Y-67950265D01*
X148266149Y-68024676D01*
X148246373Y-68098728D01*
X148237456Y-68128249D01*
X148212762Y-68200934D01*
X148184705Y-68271525D01*
X148153285Y-68340023D01*
X148118502Y-68406429D01*
X148080356Y-68470741D01*
X148038846Y-68532960D01*
X148021301Y-68557262D01*
X148275191Y-68557262D01*
X148323033Y-68498361D01*
X148366725Y-68437063D01*
X148406267Y-68373368D01*
X148441658Y-68307276D01*
X148472899Y-68238786D01*
X148499990Y-68167900D01*
X148509665Y-68138874D01*
X148531090Y-68065338D01*
X148548884Y-67990818D01*
X148563047Y-67915315D01*
X148573578Y-67838827D01*
X148580478Y-67761356D01*
X148583746Y-67682901D01*
X148584036Y-67651243D01*
G37*
G36*
X147520481Y-68229000D02*
G01*
X147957187Y-67080081D01*
X147629658Y-67080081D01*
X147409106Y-67737339D01*
X147389583Y-67809062D01*
X147379797Y-67860071D01*
X147369092Y-67934288D01*
X147365143Y-67974010D01*
X147356716Y-67974010D01*
X147348286Y-67894638D01*
X147333861Y-67820678D01*
X147312995Y-67745001D01*
X147310554Y-67737339D01*
X147090003Y-67080081D01*
X146762107Y-67080081D01*
X147199180Y-68229000D01*
X147520481Y-68229000D01*
G37*
G36*
X145895655Y-68229000D02*
G01*
X146212561Y-68229000D01*
X146212561Y-67372073D01*
X146211915Y-67297815D01*
X146210729Y-67232122D01*
X146208185Y-67154177D01*
X146204134Y-67077517D01*
X146249563Y-67122213D01*
X146305903Y-67172663D01*
X146313311Y-67179000D01*
X146485502Y-67316020D01*
X146639009Y-67126976D01*
X146155774Y-66728371D01*
X145895655Y-66728371D01*
X145895655Y-68229000D01*
G37*
G36*
X145442829Y-68076592D02*
G01*
X145432801Y-68002470D01*
X145390439Y-67939938D01*
X145324081Y-67908240D01*
X145262212Y-67900737D01*
X145186387Y-67913141D01*
X145136549Y-67939938D01*
X145093890Y-68002470D01*
X145083792Y-68076592D01*
X145095384Y-68152482D01*
X145136549Y-68211048D01*
X145202095Y-68244523D01*
X145262212Y-68252447D01*
X145336171Y-68240763D01*
X145390439Y-68211048D01*
X145432801Y-68148129D01*
X145442829Y-68076592D01*
G37*
G36*
X144097540Y-68229000D02*
G01*
X144414445Y-68229000D01*
X144414445Y-67372073D01*
X144413799Y-67297815D01*
X144412613Y-67232122D01*
X144410069Y-67154177D01*
X144406018Y-67077517D01*
X144451448Y-67122213D01*
X144507787Y-67172663D01*
X144515195Y-67179000D01*
X144687386Y-67316020D01*
X144840893Y-67126976D01*
X144357658Y-66728371D01*
X144097540Y-66728371D01*
X144097540Y-68229000D01*
G37*
G36*
X143136566Y-67651243D02*
G01*
X143138391Y-67730092D01*
X143143865Y-67807957D01*
X143152988Y-67884838D01*
X143165761Y-67960735D01*
X143182183Y-68035648D01*
X143202254Y-68109578D01*
X143211304Y-68138874D01*
X143236630Y-68210719D01*
X143266123Y-68280167D01*
X143299785Y-68347219D01*
X143337614Y-68411873D01*
X143379612Y-68474129D01*
X143425778Y-68533989D01*
X143445411Y-68557262D01*
X143699302Y-68557262D01*
X143656957Y-68495880D01*
X143617850Y-68432405D01*
X143581981Y-68366837D01*
X143549350Y-68299175D01*
X143519957Y-68229421D01*
X143493801Y-68157574D01*
X143484246Y-68128249D01*
X143462715Y-68054340D01*
X143444833Y-67980072D01*
X143430601Y-67905447D01*
X143420018Y-67830464D01*
X143413084Y-67755123D01*
X143409799Y-67679424D01*
X143409508Y-67649045D01*
X143411332Y-67571382D01*
X143416806Y-67494328D01*
X143425930Y-67417881D01*
X143438702Y-67342043D01*
X143455124Y-67266813D01*
X143475195Y-67192191D01*
X143484246Y-67162513D01*
X143509160Y-67089414D01*
X143537419Y-67018264D01*
X143569023Y-66949065D01*
X143603973Y-66881815D01*
X143642267Y-66816515D01*
X143683907Y-66753165D01*
X143701500Y-66728371D01*
X143445411Y-66728371D01*
X143397578Y-66789174D01*
X143353913Y-66852284D01*
X143314416Y-66917702D01*
X143279088Y-66985428D01*
X143247927Y-67055461D01*
X143220934Y-67127802D01*
X143211304Y-67157384D01*
X143189773Y-67232134D01*
X143171892Y-67307779D01*
X143157659Y-67384319D01*
X143147076Y-67461753D01*
X143140142Y-67540081D01*
X143136858Y-67619304D01*
X143136566Y-67651243D01*
G37*
D13*
X158795465Y-68653339D02*
X158795465Y-69189053D01*
X158795465Y-69189053D02*
X158831180Y-69296196D01*
X158831180Y-69296196D02*
X158902608Y-69367625D01*
X158902608Y-69367625D02*
X159009751Y-69403339D01*
X159009751Y-69403339D02*
X159081180Y-69403339D01*
X158116894Y-69403339D02*
X158116894Y-69010482D01*
X158116894Y-69010482D02*
X158152608Y-68939053D01*
X158152608Y-68939053D02*
X158224036Y-68903339D01*
X158224036Y-68903339D02*
X158366894Y-68903339D01*
X158366894Y-68903339D02*
X158438322Y-68939053D01*
X158116894Y-69367625D02*
X158188322Y-69403339D01*
X158188322Y-69403339D02*
X158366894Y-69403339D01*
X158366894Y-69403339D02*
X158438322Y-69367625D01*
X158438322Y-69367625D02*
X158474036Y-69296196D01*
X158474036Y-69296196D02*
X158474036Y-69224767D01*
X158474036Y-69224767D02*
X158438322Y-69153339D01*
X158438322Y-69153339D02*
X158366894Y-69117625D01*
X158366894Y-69117625D02*
X158188322Y-69117625D01*
X158188322Y-69117625D02*
X158116894Y-69081910D01*
X157795465Y-69367625D02*
X157724037Y-69403339D01*
X157724037Y-69403339D02*
X157581180Y-69403339D01*
X157581180Y-69403339D02*
X157509751Y-69367625D01*
X157509751Y-69367625D02*
X157474037Y-69296196D01*
X157474037Y-69296196D02*
X157474037Y-69260482D01*
X157474037Y-69260482D02*
X157509751Y-69189053D01*
X157509751Y-69189053D02*
X157581180Y-69153339D01*
X157581180Y-69153339D02*
X157688323Y-69153339D01*
X157688323Y-69153339D02*
X157759751Y-69117625D01*
X157759751Y-69117625D02*
X157795465Y-69046196D01*
X157795465Y-69046196D02*
X157795465Y-69010482D01*
X157795465Y-69010482D02*
X157759751Y-68939053D01*
X157759751Y-68939053D02*
X157688323Y-68903339D01*
X157688323Y-68903339D02*
X157581180Y-68903339D01*
X157581180Y-68903339D02*
X157509751Y-68939053D01*
X157045465Y-69403339D02*
X157116894Y-69367625D01*
X157116894Y-69367625D02*
X157152608Y-69331910D01*
X157152608Y-69331910D02*
X157188322Y-69260482D01*
X157188322Y-69260482D02*
X157188322Y-69046196D01*
X157188322Y-69046196D02*
X157152608Y-68974767D01*
X157152608Y-68974767D02*
X157116894Y-68939053D01*
X157116894Y-68939053D02*
X157045465Y-68903339D01*
X157045465Y-68903339D02*
X156938322Y-68903339D01*
X156938322Y-68903339D02*
X156866894Y-68939053D01*
X156866894Y-68939053D02*
X156831180Y-68974767D01*
X156831180Y-68974767D02*
X156795465Y-69046196D01*
X156795465Y-69046196D02*
X156795465Y-69260482D01*
X156795465Y-69260482D02*
X156831180Y-69331910D01*
X156831180Y-69331910D02*
X156866894Y-69367625D01*
X156866894Y-69367625D02*
X156938322Y-69403339D01*
X156938322Y-69403339D02*
X157045465Y-69403339D01*
X156474037Y-68903339D02*
X156474037Y-69403339D01*
X156474037Y-68974767D02*
X156438323Y-68939053D01*
X156438323Y-68939053D02*
X156366894Y-68903339D01*
X156366894Y-68903339D02*
X156259751Y-68903339D01*
X156259751Y-68903339D02*
X156188323Y-68939053D01*
X156188323Y-68939053D02*
X156152609Y-69010482D01*
X156152609Y-69010482D02*
X156152609Y-69403339D01*
X155259751Y-69189053D02*
X154902609Y-69189053D01*
X155331180Y-69403339D02*
X155081180Y-68653339D01*
X155081180Y-68653339D02*
X154831180Y-69403339D01*
X154474037Y-69403339D02*
X154545466Y-69367625D01*
X154545466Y-69367625D02*
X154581180Y-69296196D01*
X154581180Y-69296196D02*
X154581180Y-68653339D01*
X153902609Y-69367625D02*
X153974037Y-69403339D01*
X153974037Y-69403339D02*
X154116895Y-69403339D01*
X154116895Y-69403339D02*
X154188323Y-69367625D01*
X154188323Y-69367625D02*
X154224037Y-69296196D01*
X154224037Y-69296196D02*
X154224037Y-69010482D01*
X154224037Y-69010482D02*
X154188323Y-68939053D01*
X154188323Y-68939053D02*
X154116895Y-68903339D01*
X154116895Y-68903339D02*
X153974037Y-68903339D01*
X153974037Y-68903339D02*
X153902609Y-68939053D01*
X153902609Y-68939053D02*
X153866895Y-69010482D01*
X153866895Y-69010482D02*
X153866895Y-69081910D01*
X153866895Y-69081910D02*
X154224037Y-69153339D01*
X153616895Y-69403339D02*
X153224038Y-68903339D01*
X153616895Y-68903339D02*
X153224038Y-69403339D01*
X152616895Y-69403339D02*
X152616895Y-69010482D01*
X152616895Y-69010482D02*
X152652609Y-68939053D01*
X152652609Y-68939053D02*
X152724037Y-68903339D01*
X152724037Y-68903339D02*
X152866895Y-68903339D01*
X152866895Y-68903339D02*
X152938323Y-68939053D01*
X152616895Y-69367625D02*
X152688323Y-69403339D01*
X152688323Y-69403339D02*
X152866895Y-69403339D01*
X152866895Y-69403339D02*
X152938323Y-69367625D01*
X152938323Y-69367625D02*
X152974037Y-69296196D01*
X152974037Y-69296196D02*
X152974037Y-69224767D01*
X152974037Y-69224767D02*
X152938323Y-69153339D01*
X152938323Y-69153339D02*
X152866895Y-69117625D01*
X152866895Y-69117625D02*
X152688323Y-69117625D01*
X152688323Y-69117625D02*
X152616895Y-69081910D01*
X152259752Y-68903339D02*
X152259752Y-69403339D01*
X152259752Y-68974767D02*
X152224038Y-68939053D01*
X152224038Y-68939053D02*
X152152609Y-68903339D01*
X152152609Y-68903339D02*
X152045466Y-68903339D01*
X152045466Y-68903339D02*
X151974038Y-68939053D01*
X151974038Y-68939053D02*
X151938324Y-69010482D01*
X151938324Y-69010482D02*
X151938324Y-69403339D01*
X151259753Y-69403339D02*
X151259753Y-68653339D01*
X151259753Y-69367625D02*
X151331181Y-69403339D01*
X151331181Y-69403339D02*
X151474038Y-69403339D01*
X151474038Y-69403339D02*
X151545467Y-69367625D01*
X151545467Y-69367625D02*
X151581181Y-69331910D01*
X151581181Y-69331910D02*
X151616895Y-69260482D01*
X151616895Y-69260482D02*
X151616895Y-69046196D01*
X151616895Y-69046196D02*
X151581181Y-68974767D01*
X151581181Y-68974767D02*
X151545467Y-68939053D01*
X151545467Y-68939053D02*
X151474038Y-68903339D01*
X151474038Y-68903339D02*
X151331181Y-68903339D01*
X151331181Y-68903339D02*
X151259753Y-68939053D01*
X150616896Y-69367625D02*
X150688324Y-69403339D01*
X150688324Y-69403339D02*
X150831182Y-69403339D01*
X150831182Y-69403339D02*
X150902610Y-69367625D01*
X150902610Y-69367625D02*
X150938324Y-69296196D01*
X150938324Y-69296196D02*
X150938324Y-69010482D01*
X150938324Y-69010482D02*
X150902610Y-68939053D01*
X150902610Y-68939053D02*
X150831182Y-68903339D01*
X150831182Y-68903339D02*
X150688324Y-68903339D01*
X150688324Y-68903339D02*
X150616896Y-68939053D01*
X150616896Y-68939053D02*
X150581182Y-69010482D01*
X150581182Y-69010482D02*
X150581182Y-69081910D01*
X150581182Y-69081910D02*
X150938324Y-69153339D01*
X150259753Y-69403339D02*
X150259753Y-68903339D01*
X150259753Y-69046196D02*
X150224039Y-68974767D01*
X150224039Y-68974767D02*
X150188325Y-68939053D01*
X150188325Y-68939053D02*
X150116896Y-68903339D01*
X150116896Y-68903339D02*
X150045467Y-68903339D01*
M02*
