%TF.GenerationSoftware,KiCad,Pcbnew,8.0.4*%
%TF.CreationDate,2024-08-22T06:11:56+01:00*%
%TF.ProjectId,PicoChainReference,5069636f-4368-4616-996e-526566657265,rev?*%
%TF.SameCoordinates,Original*%
%TF.FileFunction,Copper,L2,Bot*%
%TF.FilePolarity,Positive*%
%FSLAX46Y46*%
G04 Gerber Fmt 4.6, Leading zero omitted, Abs format (unit mm)*
G04 Created by KiCad (PCBNEW 8.0.4) date 2024-08-22 06:11:56*
%MOMM*%
%LPD*%
G01*
G04 APERTURE LIST*
%TA.AperFunction,ComponentPad*%
%ADD10R,1.700000X1.700000*%
%TD*%
%TA.AperFunction,ComponentPad*%
%ADD11O,1.700000X1.700000*%
%TD*%
%TA.AperFunction,ComponentPad*%
%ADD12R,1.500000X1.500000*%
%TD*%
%TA.AperFunction,ComponentPad*%
%ADD13C,1.500000*%
%TD*%
%TA.AperFunction,ViaPad*%
%ADD14C,0.600000*%
%TD*%
%TA.AperFunction,Conductor*%
%ADD15C,0.762000*%
%TD*%
%TA.AperFunction,Conductor*%
%ADD16C,0.508000*%
%TD*%
G04 APERTURE END LIST*
D10*
%TO.P,J3,1,Pin_1*%
%TO.N,/+12V(R)*%
X102651000Y-88165000D03*
D11*
%TO.P,J3,2,Pin_2*%
%TO.N,GND*%
X102651000Y-90705000D03*
%TD*%
D12*
%TO.P,J1,1*%
%TO.N,GND*%
X117744500Y-81396000D03*
D13*
%TO.P,J1,2*%
%TO.N,+24V*%
X116474500Y-83936000D03*
%TO.P,J1,3*%
%TO.N,Net-(U2-DSCLM)*%
X115204500Y-81396000D03*
%TO.P,J1,4*%
%TO.N,Net-(U2-DSCLP)*%
X113934500Y-83936000D03*
%TO.P,J1,5*%
%TO.N,Net-(U2-DSDAP)*%
X112664500Y-81396000D03*
%TO.P,J1,6*%
%TO.N,Net-(U2-DSDAM)*%
X111394500Y-83936000D03*
%TO.P,J1,7*%
%TO.N,GND*%
X110124500Y-81396000D03*
%TO.P,J1,8*%
%TO.N,+12V*%
X108854500Y-83936000D03*
%TD*%
D10*
%TO.P,J6,1,Pin_1*%
%TO.N,+5V*%
X102651000Y-78894000D03*
D11*
%TO.P,J6,2,Pin_2*%
%TO.N,GND*%
X102651000Y-81434000D03*
%TD*%
D10*
%TO.P,J5,1,Pin_1*%
%TO.N,Net-(J5-Pin_1)*%
X129951000Y-89186000D03*
D11*
%TO.P,J5,2,Pin_2*%
%TO.N,Net-(J5-Pin_2)*%
X132491000Y-89186000D03*
%TD*%
D12*
%TO.P,J2,1*%
%TO.N,GND*%
X155844500Y-81396000D03*
D13*
%TO.P,J2,2*%
%TO.N,+24V*%
X154574500Y-83936000D03*
%TO.P,J2,3*%
%TO.N,Net-(U2-DSCLM)*%
X153304500Y-81396000D03*
%TO.P,J2,4*%
%TO.N,Net-(U2-DSCLP)*%
X152034500Y-83936000D03*
%TO.P,J2,5*%
%TO.N,Net-(U2-DSDAP)*%
X150764500Y-81396000D03*
%TO.P,J2,6*%
%TO.N,Net-(U2-DSDAM)*%
X149494500Y-83936000D03*
%TO.P,J2,7*%
%TO.N,GND*%
X148224500Y-81396000D03*
%TO.P,J2,8*%
%TO.N,+12V*%
X146954500Y-83936000D03*
%TD*%
D10*
%TO.P,J4,1,Pin_1*%
%TO.N,/+5V(M)*%
X102651000Y-70131000D03*
D11*
%TO.P,J4,2,Pin_2*%
%TO.N,GND*%
X102651000Y-72671000D03*
%TD*%
D14*
%TO.N,/+5V(M)*%
X126319000Y-75865000D03*
%TO.N,+5V*%
X137785000Y-76700000D03*
%TO.N,+12V*%
X143894750Y-86995750D03*
%TO.N,Net-(U2-DSDAP)*%
X121031000Y-78486000D03*
X147870500Y-78502000D03*
X133020000Y-78582000D03*
%TO.N,Net-(U2-DSDAM)*%
X121031000Y-77470000D03*
X142330500Y-77486000D03*
X133020000Y-77566000D03*
%TO.N,Net-(U2-DSCLM)*%
X133258000Y-82709000D03*
%TO.N,Net-(U2-DSCLP)*%
X121031000Y-79502000D03*
X153578000Y-79534000D03*
X133020000Y-79492000D03*
%TO.N,/+12V(R)*%
X136560000Y-93758000D03*
%TD*%
D15*
%TO.N,/+5V(M)*%
X120590000Y-70136000D02*
X102656000Y-70136000D01*
X126319000Y-75865000D02*
X120590000Y-70136000D01*
X102656000Y-70136000D02*
X102651000Y-70131000D01*
D16*
%TO.N,+5V*%
X108558000Y-78894000D02*
X102651000Y-78894000D01*
X120904000Y-72644000D02*
X114808000Y-72644000D01*
X114808000Y-72644000D02*
X108558000Y-78894000D01*
X137785000Y-76700000D02*
X124960000Y-76700000D01*
X124960000Y-76700000D02*
X120904000Y-72644000D01*
D15*
%TO.N,+12V*%
X143863500Y-87027000D02*
X111945500Y-87027000D01*
X111945500Y-87027000D02*
X108854500Y-83936000D01*
X143894750Y-86995750D02*
X143863500Y-87027000D01*
D16*
%TO.N,Net-(U2-DSDAP)*%
X112664500Y-80823500D02*
X112664500Y-81316000D01*
X147870500Y-78502000D02*
X121047000Y-78502000D01*
X121047000Y-78502000D02*
X121031000Y-78486000D01*
X121031000Y-78486000D02*
X121015000Y-78502000D01*
%TO.N,Net-(U2-DSDAM)*%
X121047000Y-77486000D02*
X121031000Y-77470000D01*
X142330500Y-77486000D02*
X121047000Y-77486000D01*
X121031000Y-77470000D02*
X121015000Y-77486000D01*
X149494500Y-83856000D02*
X149042000Y-83856000D01*
%TO.N,Net-(U2-DSCLM)*%
X133258000Y-82709000D02*
X151911500Y-82709000D01*
X151911500Y-82709000D02*
X153304500Y-81316000D01*
X133258000Y-82709000D02*
X133235000Y-82732000D01*
X133235000Y-82732000D02*
X116540500Y-82732000D01*
X116540500Y-82732000D02*
X115204500Y-81396000D01*
%TO.N,Net-(U2-DSCLP)*%
X153578000Y-79534000D02*
X121063000Y-79534000D01*
X121063000Y-79534000D02*
X121031000Y-79502000D01*
X121031000Y-79502000D02*
X120999000Y-79534000D01*
D15*
%TO.N,+24V*%
X116474500Y-83856000D02*
X118375500Y-85757000D01*
X118375500Y-85757000D02*
X152673500Y-85757000D01*
X152673500Y-85757000D02*
X154574500Y-83856000D01*
%TO.N,/+12V(R)*%
X108244000Y-93758000D02*
X102651000Y-88165000D01*
X136560000Y-93758000D02*
X108244000Y-93758000D01*
%TD*%
%TA.AperFunction,Conductor*%
%TO.N,GND*%
G36*
X159441621Y-66520502D02*
G01*
X159488114Y-66574158D01*
X159499500Y-66626500D01*
X159499500Y-99373500D01*
X159479498Y-99441621D01*
X159425842Y-99488114D01*
X159373500Y-99499500D01*
X100626500Y-99499500D01*
X100558379Y-99479498D01*
X100511886Y-99425842D01*
X100500500Y-99373500D01*
X100500500Y-90450999D01*
X101314455Y-90450999D01*
X101314456Y-90451000D01*
X102220297Y-90451000D01*
X102185075Y-90512007D01*
X102151000Y-90639174D01*
X102151000Y-90770826D01*
X102185075Y-90897993D01*
X102220297Y-90959000D01*
X101314455Y-90959000D01*
X101362176Y-91147449D01*
X101362179Y-91147456D01*
X101452580Y-91353548D01*
X101575674Y-91541958D01*
X101728097Y-91707534D01*
X101905698Y-91845767D01*
X101905699Y-91845768D01*
X102103628Y-91952882D01*
X102103630Y-91952883D01*
X102316483Y-92025955D01*
X102316492Y-92025957D01*
X102397000Y-92039391D01*
X102397000Y-91135702D01*
X102458007Y-91170925D01*
X102585174Y-91205000D01*
X102716826Y-91205000D01*
X102843993Y-91170925D01*
X102905000Y-91135702D01*
X102905000Y-92039390D01*
X102985507Y-92025957D01*
X102985516Y-92025955D01*
X103198369Y-91952883D01*
X103198371Y-91952882D01*
X103396300Y-91845768D01*
X103396301Y-91845767D01*
X103573902Y-91707534D01*
X103726325Y-91541958D01*
X103849419Y-91353548D01*
X103939820Y-91147456D01*
X103939823Y-91147449D01*
X103987544Y-90959000D01*
X103081703Y-90959000D01*
X103116925Y-90897993D01*
X103151000Y-90770826D01*
X103151000Y-90639174D01*
X103116925Y-90512007D01*
X103081703Y-90451000D01*
X103986077Y-90451000D01*
X104054198Y-90471002D01*
X104075172Y-90487905D01*
X107750375Y-94163108D01*
X107838892Y-94251625D01*
X107942978Y-94321173D01*
X108058631Y-94369078D01*
X108181409Y-94393500D01*
X108181410Y-94393500D01*
X136622590Y-94393500D01*
X136622591Y-94393500D01*
X136745369Y-94369078D01*
X136861022Y-94321173D01*
X136965108Y-94251625D01*
X137053625Y-94163108D01*
X137123173Y-94059022D01*
X137171078Y-93943369D01*
X137195500Y-93820591D01*
X137195500Y-93695409D01*
X137171078Y-93572631D01*
X137123173Y-93456978D01*
X137053625Y-93352892D01*
X136965108Y-93264375D01*
X136861022Y-93194827D01*
X136745369Y-93146922D01*
X136622593Y-93122500D01*
X136622591Y-93122500D01*
X108559423Y-93122500D01*
X108491302Y-93102498D01*
X108470328Y-93085595D01*
X103792404Y-88407671D01*
X103758378Y-88345359D01*
X103755499Y-88318576D01*
X103755499Y-88310930D01*
X128846500Y-88310930D01*
X128846500Y-90061063D01*
X128846501Y-90061073D01*
X128861265Y-90135300D01*
X128917516Y-90219484D01*
X129001697Y-90275733D01*
X129001699Y-90275734D01*
X129075933Y-90290500D01*
X130826066Y-90290499D01*
X130826069Y-90290498D01*
X130826073Y-90290498D01*
X130875326Y-90280701D01*
X130900301Y-90275734D01*
X130984484Y-90219484D01*
X131040734Y-90135301D01*
X131055500Y-90061067D01*
X131055499Y-89185995D01*
X131381768Y-89185995D01*
X131381768Y-89186004D01*
X131400654Y-89389819D01*
X131400655Y-89389821D01*
X131456672Y-89586701D01*
X131547912Y-89769935D01*
X131547913Y-89769936D01*
X131671266Y-89933284D01*
X131822536Y-90071185D01*
X131996566Y-90178940D01*
X131996568Y-90178940D01*
X131996573Y-90178944D01*
X132187444Y-90252888D01*
X132388653Y-90290500D01*
X132388655Y-90290500D01*
X132593345Y-90290500D01*
X132593347Y-90290500D01*
X132794556Y-90252888D01*
X132985427Y-90178944D01*
X133159462Y-90071186D01*
X133310732Y-89933285D01*
X133434088Y-89769935D01*
X133525328Y-89586701D01*
X133581345Y-89389821D01*
X133593863Y-89254733D01*
X133600232Y-89186004D01*
X133600232Y-89185995D01*
X133581345Y-88982180D01*
X133581345Y-88982179D01*
X133525328Y-88785299D01*
X133434088Y-88602065D01*
X133393538Y-88548368D01*
X133310733Y-88438715D01*
X133159463Y-88300814D01*
X132985433Y-88193059D01*
X132985428Y-88193057D01*
X132985427Y-88193056D01*
X132985422Y-88193054D01*
X132794559Y-88119113D01*
X132794560Y-88119113D01*
X132794557Y-88119112D01*
X132794556Y-88119112D01*
X132593347Y-88081500D01*
X132388653Y-88081500D01*
X132187444Y-88119112D01*
X132187439Y-88119113D01*
X131996577Y-88193054D01*
X131996566Y-88193059D01*
X131822536Y-88300814D01*
X131671266Y-88438715D01*
X131547913Y-88602063D01*
X131456671Y-88785301D01*
X131400654Y-88982180D01*
X131381768Y-89185995D01*
X131055499Y-89185995D01*
X131055499Y-88310934D01*
X131055498Y-88310930D01*
X131055498Y-88310926D01*
X131040734Y-88236699D01*
X130984483Y-88152515D01*
X130900302Y-88096266D01*
X130826067Y-88081500D01*
X129075936Y-88081500D01*
X129075926Y-88081501D01*
X129001699Y-88096265D01*
X128917515Y-88152516D01*
X128861266Y-88236697D01*
X128846500Y-88310930D01*
X103755499Y-88310930D01*
X103755499Y-87289936D01*
X103755498Y-87289927D01*
X103740734Y-87215699D01*
X103684483Y-87131515D01*
X103600302Y-87075266D01*
X103526067Y-87060500D01*
X101775936Y-87060500D01*
X101775926Y-87060501D01*
X101701699Y-87075265D01*
X101617515Y-87131516D01*
X101561266Y-87215697D01*
X101546500Y-87289930D01*
X101546500Y-89040063D01*
X101546501Y-89040073D01*
X101561265Y-89114300D01*
X101617516Y-89198484D01*
X101701697Y-89254733D01*
X101701699Y-89254734D01*
X101775933Y-89269500D01*
X101952754Y-89269499D01*
X102020873Y-89289501D01*
X102067366Y-89343156D01*
X102077471Y-89413430D01*
X102047978Y-89478011D01*
X102012723Y-89506312D01*
X101905704Y-89564228D01*
X101905698Y-89564232D01*
X101728097Y-89702465D01*
X101575674Y-89868041D01*
X101452580Y-90056451D01*
X101362179Y-90262543D01*
X101362176Y-90262550D01*
X101314455Y-90450999D01*
X100500500Y-90450999D01*
X100500500Y-74924709D01*
X105734000Y-74924709D01*
X105734000Y-75167290D01*
X105765660Y-75407782D01*
X105828444Y-75642095D01*
X105828445Y-75642097D01*
X105828446Y-75642100D01*
X105921276Y-75866212D01*
X105921277Y-75866213D01*
X105921282Y-75866224D01*
X106042561Y-76076285D01*
X106042563Y-76076288D01*
X106042564Y-76076289D01*
X106190235Y-76268738D01*
X106190239Y-76268742D01*
X106190244Y-76268748D01*
X106361751Y-76440255D01*
X106361756Y-76440259D01*
X106361762Y-76440265D01*
X106511610Y-76555247D01*
X106554214Y-76587938D01*
X106764275Y-76709217D01*
X106764279Y-76709218D01*
X106764288Y-76709224D01*
X106988400Y-76802054D01*
X107222711Y-76864838D01*
X107222715Y-76864838D01*
X107222717Y-76864839D01*
X107284702Y-76872999D01*
X107463212Y-76896500D01*
X107463219Y-76896500D01*
X107705781Y-76896500D01*
X107705788Y-76896500D01*
X107923137Y-76867885D01*
X107946282Y-76864839D01*
X107946282Y-76864838D01*
X107946289Y-76864838D01*
X108180600Y-76802054D01*
X108404712Y-76709224D01*
X108614789Y-76587936D01*
X108807238Y-76440265D01*
X108978765Y-76268738D01*
X109126436Y-76076289D01*
X109247724Y-75866212D01*
X109340554Y-75642100D01*
X109403338Y-75407789D01*
X109435000Y-75167288D01*
X109435000Y-74924712D01*
X109403338Y-74684211D01*
X109340554Y-74449900D01*
X109247724Y-74225788D01*
X109247718Y-74225779D01*
X109247717Y-74225775D01*
X109126438Y-74015714D01*
X109052137Y-73918883D01*
X108978765Y-73823262D01*
X108978759Y-73823256D01*
X108978755Y-73823251D01*
X108807248Y-73651744D01*
X108807242Y-73651739D01*
X108807238Y-73651735D01*
X108614789Y-73504064D01*
X108614788Y-73504063D01*
X108614785Y-73504061D01*
X108404724Y-73382782D01*
X108404716Y-73382778D01*
X108404712Y-73382776D01*
X108180600Y-73289946D01*
X108180597Y-73289945D01*
X108180595Y-73289944D01*
X107946282Y-73227160D01*
X107705790Y-73195500D01*
X107705788Y-73195500D01*
X107463212Y-73195500D01*
X107463209Y-73195500D01*
X107222717Y-73227160D01*
X106988404Y-73289944D01*
X106988400Y-73289946D01*
X106764286Y-73382777D01*
X106764275Y-73382782D01*
X106554214Y-73504061D01*
X106361762Y-73651735D01*
X106361751Y-73651744D01*
X106190244Y-73823251D01*
X106190235Y-73823262D01*
X106042561Y-74015714D01*
X105921282Y-74225775D01*
X105921277Y-74225786D01*
X105828446Y-74449900D01*
X105828444Y-74449904D01*
X105765660Y-74684217D01*
X105734000Y-74924709D01*
X100500500Y-74924709D01*
X100500500Y-72416999D01*
X101314455Y-72416999D01*
X101314456Y-72417000D01*
X102220297Y-72417000D01*
X102185075Y-72478007D01*
X102151000Y-72605174D01*
X102151000Y-72736826D01*
X102185075Y-72863993D01*
X102220297Y-72925000D01*
X101314455Y-72925000D01*
X101362176Y-73113449D01*
X101362179Y-73113456D01*
X101452580Y-73319548D01*
X101575674Y-73507958D01*
X101728097Y-73673534D01*
X101905698Y-73811767D01*
X101905699Y-73811768D01*
X102103628Y-73918882D01*
X102103630Y-73918883D01*
X102316483Y-73991955D01*
X102316492Y-73991957D01*
X102397000Y-74005391D01*
X102397000Y-73101702D01*
X102458007Y-73136925D01*
X102585174Y-73171000D01*
X102716826Y-73171000D01*
X102843993Y-73136925D01*
X102905000Y-73101702D01*
X102905000Y-74005390D01*
X102985507Y-73991957D01*
X102985516Y-73991955D01*
X103198369Y-73918883D01*
X103198371Y-73918882D01*
X103396300Y-73811768D01*
X103396301Y-73811767D01*
X103573902Y-73673534D01*
X103726325Y-73507958D01*
X103849419Y-73319548D01*
X103939820Y-73113456D01*
X103939823Y-73113449D01*
X103987544Y-72925000D01*
X103081703Y-72925000D01*
X103116925Y-72863993D01*
X103151000Y-72736826D01*
X103151000Y-72605174D01*
X103116925Y-72478007D01*
X103081703Y-72417000D01*
X103987544Y-72417000D01*
X103987544Y-72416999D01*
X103939823Y-72228550D01*
X103939820Y-72228543D01*
X103849419Y-72022451D01*
X103726325Y-71834041D01*
X103573902Y-71668465D01*
X103396303Y-71530233D01*
X103289275Y-71472313D01*
X103238885Y-71422299D01*
X103223533Y-71352982D01*
X103248094Y-71286369D01*
X103304769Y-71243610D01*
X103349244Y-71235499D01*
X103526066Y-71235499D01*
X103526069Y-71235498D01*
X103526073Y-71235498D01*
X103575326Y-71225701D01*
X103600301Y-71220734D01*
X103684484Y-71164484D01*
X103740734Y-71080301D01*
X103755500Y-71006067D01*
X103755500Y-70897500D01*
X103775502Y-70829379D01*
X103829158Y-70782886D01*
X103881500Y-70771500D01*
X120274577Y-70771500D01*
X120342698Y-70791502D01*
X120363672Y-70808405D01*
X125531672Y-75976405D01*
X125565698Y-76038717D01*
X125560633Y-76109532D01*
X125518086Y-76166368D01*
X125451566Y-76191179D01*
X125442577Y-76191500D01*
X125222818Y-76191500D01*
X125154697Y-76171498D01*
X125133723Y-76154595D01*
X121216233Y-72237104D01*
X121216223Y-72237096D01*
X121100278Y-72170155D01*
X121100276Y-72170154D01*
X121100274Y-72170153D01*
X120970945Y-72135500D01*
X114874946Y-72135500D01*
X114741055Y-72135500D01*
X114611726Y-72170153D01*
X114611724Y-72170154D01*
X114611721Y-72170155D01*
X114495775Y-72237097D01*
X114495772Y-72237099D01*
X108384277Y-78348595D01*
X108321965Y-78382621D01*
X108295182Y-78385500D01*
X103881499Y-78385500D01*
X103813378Y-78365498D01*
X103766885Y-78311842D01*
X103755499Y-78259500D01*
X103755499Y-78018936D01*
X103755498Y-78018927D01*
X103740734Y-77944699D01*
X103698488Y-77881474D01*
X103684484Y-77860516D01*
X103684483Y-77860515D01*
X103600302Y-77804266D01*
X103526067Y-77789500D01*
X101775936Y-77789500D01*
X101775926Y-77789501D01*
X101701699Y-77804265D01*
X101617515Y-77860516D01*
X101561266Y-77944697D01*
X101546500Y-78018930D01*
X101546500Y-79769063D01*
X101546501Y-79769073D01*
X101561265Y-79843300D01*
X101617516Y-79927484D01*
X101701697Y-79983733D01*
X101701699Y-79983734D01*
X101775933Y-79998500D01*
X101952755Y-79998499D01*
X102020873Y-80018501D01*
X102067366Y-80072156D01*
X102077471Y-80142430D01*
X102047978Y-80207011D01*
X102012723Y-80235312D01*
X101905704Y-80293228D01*
X101905698Y-80293232D01*
X101728097Y-80431465D01*
X101575674Y-80597041D01*
X101452580Y-80785451D01*
X101362179Y-80991543D01*
X101362176Y-80991550D01*
X101314455Y-81179999D01*
X101314456Y-81180000D01*
X102220297Y-81180000D01*
X102185075Y-81241007D01*
X102151000Y-81368174D01*
X102151000Y-81499826D01*
X102185075Y-81626993D01*
X102220297Y-81688000D01*
X101314455Y-81688000D01*
X101362176Y-81876449D01*
X101362179Y-81876456D01*
X101452580Y-82082548D01*
X101575674Y-82270958D01*
X101728097Y-82436534D01*
X101905698Y-82574767D01*
X101905699Y-82574768D01*
X102103628Y-82681882D01*
X102103630Y-82681883D01*
X102316483Y-82754955D01*
X102316492Y-82754957D01*
X102397000Y-82768391D01*
X102397000Y-81864702D01*
X102458007Y-81899925D01*
X102585174Y-81934000D01*
X102716826Y-81934000D01*
X102843993Y-81899925D01*
X102905000Y-81864702D01*
X102905000Y-82768390D01*
X102985507Y-82754957D01*
X102985516Y-82754955D01*
X103198369Y-82681883D01*
X103198371Y-82681882D01*
X103396300Y-82574768D01*
X103396301Y-82574767D01*
X103573902Y-82436534D01*
X103726325Y-82270958D01*
X103849419Y-82082548D01*
X103939820Y-81876456D01*
X103939823Y-81876449D01*
X103987544Y-81688000D01*
X103081703Y-81688000D01*
X103116925Y-81626993D01*
X103151000Y-81499826D01*
X103151000Y-81396000D01*
X108861695Y-81396000D01*
X108880880Y-81615287D01*
X108937850Y-81827903D01*
X108937852Y-81827907D01*
X109030879Y-82027403D01*
X109073300Y-82087987D01*
X109744500Y-81416788D01*
X109744500Y-81446028D01*
X109770396Y-81542675D01*
X109820424Y-81629325D01*
X109891175Y-81700076D01*
X109977825Y-81750104D01*
X110074472Y-81776000D01*
X110103710Y-81776000D01*
X109432511Y-82447197D01*
X109432511Y-82447198D01*
X109493097Y-82489621D01*
X109692592Y-82582647D01*
X109692596Y-82582649D01*
X109905212Y-82639619D01*
X110124500Y-82658804D01*
X110343787Y-82639619D01*
X110556403Y-82582649D01*
X110556407Y-82582647D01*
X110755899Y-82489622D01*
X110816487Y-82447197D01*
X110816487Y-82447196D01*
X110145291Y-81776000D01*
X110174528Y-81776000D01*
X110271175Y-81750104D01*
X110357825Y-81700076D01*
X110428576Y-81629325D01*
X110478604Y-81542675D01*
X110504500Y-81446028D01*
X110504500Y-81416791D01*
X111175696Y-82087987D01*
X111175697Y-82087987D01*
X111218122Y-82027399D01*
X111311147Y-81827907D01*
X111311149Y-81827903D01*
X111368119Y-81615287D01*
X111387304Y-81396000D01*
X111387304Y-81395997D01*
X111655140Y-81395997D01*
X111655140Y-81396002D01*
X111674533Y-81592909D01*
X111674534Y-81592915D01*
X111674535Y-81592916D01*
X111731973Y-81782265D01*
X111825248Y-81956770D01*
X111950775Y-82109725D01*
X112103730Y-82235252D01*
X112278235Y-82328527D01*
X112467584Y-82385965D01*
X112467588Y-82385965D01*
X112467590Y-82385966D01*
X112664497Y-82405360D01*
X112664500Y-82405360D01*
X112664503Y-82405360D01*
X112861409Y-82385966D01*
X112861410Y-82385965D01*
X112861416Y-82385965D01*
X113050765Y-82328527D01*
X113225270Y-82235252D01*
X113378225Y-82109725D01*
X113503752Y-81956770D01*
X113597027Y-81782265D01*
X113654465Y-81592916D01*
X113659414Y-81542675D01*
X113673860Y-81396002D01*
X113673860Y-81395997D01*
X113654466Y-81199090D01*
X113654465Y-81199088D01*
X113654465Y-81199084D01*
X113597027Y-81009735D01*
X113503752Y-80835230D01*
X113378225Y-80682275D01*
X113225270Y-80556748D01*
X113188148Y-80536906D01*
X113050766Y-80463473D01*
X113050761Y-80463471D01*
X113041966Y-80460803D01*
X112989454Y-80429326D01*
X112976727Y-80416599D01*
X112976724Y-80416597D01*
X112860778Y-80349655D01*
X112860776Y-80349654D01*
X112860774Y-80349653D01*
X112731445Y-80315000D01*
X112597555Y-80315000D01*
X112468226Y-80349653D01*
X112468224Y-80349654D01*
X112468221Y-80349655D01*
X112352278Y-80416596D01*
X112352268Y-80416603D01*
X112339540Y-80429331D01*
X112287034Y-80460803D01*
X112278240Y-80463471D01*
X112278230Y-80463475D01*
X112103729Y-80556748D01*
X111950775Y-80682275D01*
X111825248Y-80835229D01*
X111731973Y-81009734D01*
X111674533Y-81199090D01*
X111655140Y-81395997D01*
X111387304Y-81395997D01*
X111368119Y-81176712D01*
X111311149Y-80964096D01*
X111311147Y-80964092D01*
X111218119Y-80764594D01*
X111175699Y-80704011D01*
X111175697Y-80704011D01*
X110504500Y-81375208D01*
X110504500Y-81345972D01*
X110478604Y-81249325D01*
X110428576Y-81162675D01*
X110357825Y-81091924D01*
X110271175Y-81041896D01*
X110174528Y-81016000D01*
X110145290Y-81016000D01*
X110816487Y-80344800D01*
X110755903Y-80302379D01*
X110556407Y-80209352D01*
X110556403Y-80209350D01*
X110343787Y-80152380D01*
X110124500Y-80133195D01*
X109905212Y-80152380D01*
X109692596Y-80209350D01*
X109692592Y-80209352D01*
X109493098Y-80302378D01*
X109432510Y-80344801D01*
X110103709Y-81016000D01*
X110074472Y-81016000D01*
X109977825Y-81041896D01*
X109891175Y-81091924D01*
X109820424Y-81162675D01*
X109770396Y-81249325D01*
X109744500Y-81345972D01*
X109744500Y-81375209D01*
X109073301Y-80704010D01*
X109030878Y-80764598D01*
X108937852Y-80964092D01*
X108937850Y-80964096D01*
X108880880Y-81176712D01*
X108861695Y-81396000D01*
X103151000Y-81396000D01*
X103151000Y-81368174D01*
X103116925Y-81241007D01*
X103081703Y-81180000D01*
X103987544Y-81180000D01*
X103987544Y-81179999D01*
X103939823Y-80991550D01*
X103939820Y-80991543D01*
X103849419Y-80785451D01*
X103726325Y-80597041D01*
X103573902Y-80431465D01*
X103396303Y-80293233D01*
X103289275Y-80235313D01*
X103238885Y-80185299D01*
X103223533Y-80115982D01*
X103248094Y-80049369D01*
X103304769Y-80006610D01*
X103349244Y-79998499D01*
X103526066Y-79998499D01*
X103526069Y-79998498D01*
X103526073Y-79998498D01*
X103587128Y-79986354D01*
X103600301Y-79983734D01*
X103684484Y-79927484D01*
X103740734Y-79843301D01*
X103755500Y-79769067D01*
X103755500Y-79528500D01*
X103775502Y-79460379D01*
X103829158Y-79413886D01*
X103881500Y-79402500D01*
X108624943Y-79402500D01*
X108624945Y-79402500D01*
X108754274Y-79367847D01*
X108870227Y-79300901D01*
X114981722Y-73189404D01*
X115044034Y-73155379D01*
X115070817Y-73152500D01*
X118122898Y-73152500D01*
X118191019Y-73172502D01*
X118237512Y-73226158D01*
X118247616Y-73296432D01*
X118218122Y-73361012D01*
X118185898Y-73387619D01*
X117984215Y-73504061D01*
X117791762Y-73651735D01*
X117791751Y-73651744D01*
X117620244Y-73823251D01*
X117620235Y-73823262D01*
X117472561Y-74015714D01*
X117351282Y-74225775D01*
X117351277Y-74225786D01*
X117258446Y-74449900D01*
X117258444Y-74449904D01*
X117195660Y-74684217D01*
X117164000Y-74924709D01*
X117164000Y-75167290D01*
X117195660Y-75407782D01*
X117258444Y-75642095D01*
X117258445Y-75642097D01*
X117258446Y-75642100D01*
X117351276Y-75866212D01*
X117351277Y-75866213D01*
X117351282Y-75866224D01*
X117472561Y-76076285D01*
X117472563Y-76076288D01*
X117472564Y-76076289D01*
X117620235Y-76268738D01*
X117620239Y-76268742D01*
X117620244Y-76268748D01*
X117791751Y-76440255D01*
X117791756Y-76440259D01*
X117791762Y-76440265D01*
X117941610Y-76555247D01*
X117984214Y-76587938D01*
X118194275Y-76709217D01*
X118194279Y-76709218D01*
X118194288Y-76709224D01*
X118418400Y-76802054D01*
X118652711Y-76864838D01*
X118652715Y-76864838D01*
X118652717Y-76864839D01*
X118714702Y-76872999D01*
X118893212Y-76896500D01*
X118893219Y-76896500D01*
X119135781Y-76896500D01*
X119135788Y-76896500D01*
X119353137Y-76867885D01*
X119376282Y-76864839D01*
X119376282Y-76864838D01*
X119376289Y-76864838D01*
X119610600Y-76802054D01*
X119834712Y-76709224D01*
X120044789Y-76587936D01*
X120237238Y-76440265D01*
X120408765Y-76268738D01*
X120556436Y-76076289D01*
X120677724Y-75866212D01*
X120770554Y-75642100D01*
X120833338Y-75407789D01*
X120865000Y-75167288D01*
X120865000Y-74924712D01*
X120833338Y-74684211D01*
X120770554Y-74449900D01*
X120677724Y-74225788D01*
X120677718Y-74225779D01*
X120677717Y-74225775D01*
X120556438Y-74015714D01*
X120482137Y-73918883D01*
X120408765Y-73823262D01*
X120408759Y-73823256D01*
X120408755Y-73823251D01*
X120237248Y-73651744D01*
X120237242Y-73651739D01*
X120237238Y-73651735D01*
X120044789Y-73504064D01*
X120044784Y-73504061D01*
X119843102Y-73387619D01*
X119794109Y-73336236D01*
X119780673Y-73266523D01*
X119807059Y-73200612D01*
X119864892Y-73159430D01*
X119906102Y-73152500D01*
X120641182Y-73152500D01*
X120709303Y-73172502D01*
X120730277Y-73189405D01*
X124303277Y-76762405D01*
X124337303Y-76824717D01*
X124332238Y-76895532D01*
X124289691Y-76952368D01*
X124223171Y-76977179D01*
X124214182Y-76977500D01*
X121316042Y-76977500D01*
X121267824Y-76967909D01*
X121175752Y-76929771D01*
X121031000Y-76910715D01*
X120886247Y-76929771D01*
X120831695Y-76952368D01*
X120751358Y-76985645D01*
X120751357Y-76985646D01*
X120751356Y-76985646D01*
X120635526Y-77074526D01*
X120546646Y-77190356D01*
X120546645Y-77190358D01*
X120540018Y-77206357D01*
X120490771Y-77325247D01*
X120471715Y-77469999D01*
X120471715Y-77470000D01*
X120490771Y-77614752D01*
X120546644Y-77749641D01*
X120546649Y-77749649D01*
X120635525Y-77865473D01*
X120651900Y-77878039D01*
X120693766Y-77935378D01*
X120697986Y-78006249D01*
X120663221Y-78068151D01*
X120651900Y-78077961D01*
X120635527Y-78090524D01*
X120546646Y-78206356D01*
X120546645Y-78206358D01*
X120540018Y-78222357D01*
X120490771Y-78341247D01*
X120471715Y-78485999D01*
X120471715Y-78486000D01*
X120490771Y-78630752D01*
X120546644Y-78765641D01*
X120546649Y-78765649D01*
X120635525Y-78881473D01*
X120651900Y-78894039D01*
X120693766Y-78951378D01*
X120697986Y-79022249D01*
X120663221Y-79084151D01*
X120651900Y-79093961D01*
X120635527Y-79106524D01*
X120546646Y-79222356D01*
X120546645Y-79222358D01*
X120533390Y-79254358D01*
X120490771Y-79357247D01*
X120471715Y-79501999D01*
X120471715Y-79502000D01*
X120490772Y-79646754D01*
X120521607Y-79721198D01*
X120522584Y-79724075D01*
X120527734Y-79736504D01*
X120529068Y-79739210D01*
X120546644Y-79781641D01*
X120546649Y-79781649D01*
X120574597Y-79818071D01*
X120583753Y-79831774D01*
X120592095Y-79846223D01*
X120592099Y-79846228D01*
X120603891Y-79858020D01*
X120614757Y-79870409D01*
X120635525Y-79897473D01*
X120635526Y-79897474D01*
X120662588Y-79918239D01*
X120674970Y-79929098D01*
X120686773Y-79940901D01*
X120701229Y-79949247D01*
X120714917Y-79958393D01*
X120751357Y-79986355D01*
X120793778Y-80003926D01*
X120796486Y-80005262D01*
X120802723Y-80007845D01*
X120802726Y-80007847D01*
X120802728Y-80007847D01*
X120808963Y-80010430D01*
X120811817Y-80011398D01*
X120886246Y-80042228D01*
X121031000Y-80061285D01*
X121165500Y-80043578D01*
X121181946Y-80042500D01*
X132945013Y-80042500D01*
X132961459Y-80043578D01*
X133020000Y-80051285D01*
X133078541Y-80043578D01*
X133094987Y-80042500D01*
X147582060Y-80042500D01*
X147650181Y-80062502D01*
X147696674Y-80116158D01*
X147706778Y-80186432D01*
X147677284Y-80251012D01*
X147635310Y-80282695D01*
X147593098Y-80302378D01*
X147532510Y-80344801D01*
X148203709Y-81016000D01*
X148174472Y-81016000D01*
X148077825Y-81041896D01*
X147991175Y-81091924D01*
X147920424Y-81162675D01*
X147870396Y-81249325D01*
X147844500Y-81345972D01*
X147844500Y-81375209D01*
X147173301Y-80704010D01*
X147130878Y-80764598D01*
X147037852Y-80964092D01*
X147037850Y-80964096D01*
X146980880Y-81176712D01*
X146961695Y-81396000D01*
X146980880Y-81615287D01*
X147037850Y-81827903D01*
X147037852Y-81827907D01*
X147128010Y-82021250D01*
X147138671Y-82091441D01*
X147109691Y-82156254D01*
X147050272Y-82195111D01*
X147013815Y-82200500D01*
X133504415Y-82200500D01*
X133456197Y-82190909D01*
X133402752Y-82168771D01*
X133258000Y-82149715D01*
X133113247Y-82168771D01*
X133004277Y-82213909D01*
X132956059Y-82223500D01*
X119128500Y-82223500D01*
X119060379Y-82203498D01*
X119013886Y-82149842D01*
X119002500Y-82097500D01*
X119002500Y-81650000D01*
X118027901Y-81650000D01*
X118048576Y-81629325D01*
X118098604Y-81542675D01*
X118124500Y-81446028D01*
X118124500Y-81345972D01*
X118098604Y-81249325D01*
X118048576Y-81162675D01*
X118027901Y-81142000D01*
X119002500Y-81142000D01*
X119002500Y-80597414D01*
X119002499Y-80597402D01*
X118995994Y-80536906D01*
X118944944Y-80400035D01*
X118944944Y-80400034D01*
X118857404Y-80283095D01*
X118740465Y-80195555D01*
X118603593Y-80144505D01*
X118543097Y-80138000D01*
X117998500Y-80138000D01*
X117998500Y-81112599D01*
X117977825Y-81091924D01*
X117891175Y-81041896D01*
X117794528Y-81016000D01*
X117694472Y-81016000D01*
X117597825Y-81041896D01*
X117511175Y-81091924D01*
X117490500Y-81112599D01*
X117490500Y-80138000D01*
X116945902Y-80138000D01*
X116885406Y-80144505D01*
X116748535Y-80195555D01*
X116748534Y-80195555D01*
X116631595Y-80283095D01*
X116544055Y-80400034D01*
X116544055Y-80400035D01*
X116493005Y-80536906D01*
X116486500Y-80597402D01*
X116486500Y-81142000D01*
X117461099Y-81142000D01*
X117440424Y-81162675D01*
X117390396Y-81249325D01*
X117364500Y-81345972D01*
X117364500Y-81446028D01*
X117390396Y-81542675D01*
X117440424Y-81629325D01*
X117461099Y-81650000D01*
X116486500Y-81650000D01*
X116486500Y-81654682D01*
X116466498Y-81722803D01*
X116412842Y-81769296D01*
X116342568Y-81779400D01*
X116277988Y-81749906D01*
X116271405Y-81743777D01*
X116229823Y-81702195D01*
X116195797Y-81639883D01*
X116195437Y-81599231D01*
X116193858Y-81599076D01*
X116194466Y-81592909D01*
X116213860Y-81396000D01*
X116213860Y-81395997D01*
X116194466Y-81199090D01*
X116194465Y-81199088D01*
X116194465Y-81199084D01*
X116137027Y-81009735D01*
X116043752Y-80835230D01*
X115918225Y-80682275D01*
X115765270Y-80556748D01*
X115590765Y-80463473D01*
X115401416Y-80406035D01*
X115401415Y-80406034D01*
X115401409Y-80406033D01*
X115204503Y-80386640D01*
X115204497Y-80386640D01*
X115007590Y-80406033D01*
X114818234Y-80463473D01*
X114643729Y-80556748D01*
X114490775Y-80682275D01*
X114365248Y-80835229D01*
X114271973Y-81009734D01*
X114214533Y-81199090D01*
X114195140Y-81395997D01*
X114195140Y-81396002D01*
X114214533Y-81592909D01*
X114214534Y-81592915D01*
X114214535Y-81592916D01*
X114271973Y-81782265D01*
X114365248Y-81956770D01*
X114490775Y-82109725D01*
X114643730Y-82235252D01*
X114818235Y-82328527D01*
X115007584Y-82385965D01*
X115007588Y-82385965D01*
X115007590Y-82385966D01*
X115204497Y-82405360D01*
X115204500Y-82405360D01*
X115204502Y-82405360D01*
X115288658Y-82397070D01*
X115401416Y-82385965D01*
X115401417Y-82385964D01*
X115407576Y-82385358D01*
X115407817Y-82387808D01*
X115467718Y-82393161D01*
X115510695Y-82421323D01*
X115971108Y-82881736D01*
X116005134Y-82944048D01*
X116000069Y-83014863D01*
X115957522Y-83071699D01*
X115941412Y-83081951D01*
X115932435Y-83086749D01*
X115913727Y-83096749D01*
X115760775Y-83222275D01*
X115635248Y-83375229D01*
X115541973Y-83549734D01*
X115484533Y-83739090D01*
X115465140Y-83935997D01*
X115465140Y-83936002D01*
X115484533Y-84132909D01*
X115484534Y-84132915D01*
X115484535Y-84132916D01*
X115541973Y-84322265D01*
X115635248Y-84496770D01*
X115760775Y-84649725D01*
X115913730Y-84775252D01*
X116088235Y-84868527D01*
X116277584Y-84925965D01*
X116277588Y-84925965D01*
X116277590Y-84925966D01*
X116474497Y-84945360D01*
X116474500Y-84945360D01*
X116474501Y-84945360D01*
X116486965Y-84944132D01*
X116588728Y-84934108D01*
X116658479Y-84947336D01*
X116690173Y-84970406D01*
X117896172Y-86176405D01*
X117930198Y-86238717D01*
X117925133Y-86309532D01*
X117882586Y-86366368D01*
X117816066Y-86391179D01*
X117807077Y-86391500D01*
X112260923Y-86391500D01*
X112192802Y-86371498D01*
X112171828Y-86354595D01*
X110901031Y-85083798D01*
X110867005Y-85021486D01*
X110872070Y-84950671D01*
X110914617Y-84893835D01*
X110981137Y-84869024D01*
X111026697Y-84874127D01*
X111197584Y-84925965D01*
X111197590Y-84925965D01*
X111197592Y-84925966D01*
X111394497Y-84945360D01*
X111394500Y-84945360D01*
X111394503Y-84945360D01*
X111591409Y-84925966D01*
X111591410Y-84925965D01*
X111591416Y-84925965D01*
X111780765Y-84868527D01*
X111955270Y-84775252D01*
X112108225Y-84649725D01*
X112233752Y-84496770D01*
X112327027Y-84322265D01*
X112384465Y-84132916D01*
X112389791Y-84078847D01*
X112403860Y-83936002D01*
X112403860Y-83935997D01*
X112925140Y-83935997D01*
X112925140Y-83936002D01*
X112944533Y-84132909D01*
X112944534Y-84132915D01*
X112944535Y-84132916D01*
X113001973Y-84322265D01*
X113095248Y-84496770D01*
X113220775Y-84649725D01*
X113373730Y-84775252D01*
X113548235Y-84868527D01*
X113737584Y-84925965D01*
X113737588Y-84925965D01*
X113737590Y-84925966D01*
X113934497Y-84945360D01*
X113934500Y-84945360D01*
X113934503Y-84945360D01*
X114131409Y-84925966D01*
X114131410Y-84925965D01*
X114131416Y-84925965D01*
X114320765Y-84868527D01*
X114495270Y-84775252D01*
X114648225Y-84649725D01*
X114773752Y-84496770D01*
X114867027Y-84322265D01*
X114924465Y-84132916D01*
X114929791Y-84078847D01*
X114943860Y-83936002D01*
X114943860Y-83935997D01*
X114924466Y-83739090D01*
X114924465Y-83739088D01*
X114924465Y-83739084D01*
X114867027Y-83549735D01*
X114773752Y-83375230D01*
X114648225Y-83222275D01*
X114495270Y-83096748D01*
X114320765Y-83003473D01*
X114131416Y-82946035D01*
X114131415Y-82946034D01*
X114131409Y-82946033D01*
X113934503Y-82926640D01*
X113934497Y-82926640D01*
X113737590Y-82946033D01*
X113548234Y-83003473D01*
X113373729Y-83096748D01*
X113220775Y-83222275D01*
X113095248Y-83375229D01*
X113001973Y-83549734D01*
X112944533Y-83739090D01*
X112925140Y-83935997D01*
X112403860Y-83935997D01*
X112384466Y-83739090D01*
X112384465Y-83739088D01*
X112384465Y-83739084D01*
X112327027Y-83549735D01*
X112233752Y-83375230D01*
X112108225Y-83222275D01*
X111955270Y-83096748D01*
X111780765Y-83003473D01*
X111591416Y-82946035D01*
X111591415Y-82946034D01*
X111591409Y-82946033D01*
X111394503Y-82926640D01*
X111394497Y-82926640D01*
X111197590Y-82946033D01*
X111008234Y-83003473D01*
X110833729Y-83096748D01*
X110680775Y-83222275D01*
X110555248Y-83375229D01*
X110461973Y-83549734D01*
X110404533Y-83739090D01*
X110385140Y-83935997D01*
X110385140Y-83936002D01*
X110404533Y-84132909D01*
X110456371Y-84303798D01*
X110457004Y-84374792D01*
X110419154Y-84434858D01*
X110354839Y-84464926D01*
X110284478Y-84455449D01*
X110246701Y-84429468D01*
X109896080Y-84078847D01*
X109862054Y-84016535D01*
X109859782Y-83977400D01*
X109863860Y-83936001D01*
X109863860Y-83935997D01*
X109844466Y-83739090D01*
X109844465Y-83739088D01*
X109844465Y-83739084D01*
X109787027Y-83549735D01*
X109693752Y-83375230D01*
X109568225Y-83222275D01*
X109415270Y-83096748D01*
X109240765Y-83003473D01*
X109051416Y-82946035D01*
X109051415Y-82946034D01*
X109051409Y-82946033D01*
X108854503Y-82926640D01*
X108854497Y-82926640D01*
X108657590Y-82946033D01*
X108468234Y-83003473D01*
X108293729Y-83096748D01*
X108140775Y-83222275D01*
X108015248Y-83375229D01*
X107921973Y-83549734D01*
X107864533Y-83739090D01*
X107845140Y-83935997D01*
X107845140Y-83936002D01*
X107864533Y-84132909D01*
X107864534Y-84132915D01*
X107864535Y-84132916D01*
X107921973Y-84322265D01*
X108015248Y-84496770D01*
X108140775Y-84649725D01*
X108293730Y-84775252D01*
X108468235Y-84868527D01*
X108657584Y-84925965D01*
X108657588Y-84925965D01*
X108657590Y-84925966D01*
X108854497Y-84945360D01*
X108854500Y-84945360D01*
X108854501Y-84945360D01*
X108895900Y-84941282D01*
X108965654Y-84954510D01*
X108997347Y-84977580D01*
X111540392Y-87520625D01*
X111644478Y-87590173D01*
X111760131Y-87638078D01*
X111882909Y-87662500D01*
X111882910Y-87662500D01*
X143926090Y-87662500D01*
X143926091Y-87662500D01*
X144048869Y-87638078D01*
X144164522Y-87590173D01*
X144268608Y-87520625D01*
X144388375Y-87400858D01*
X144457923Y-87296772D01*
X144505828Y-87181119D01*
X144530250Y-87058341D01*
X144530250Y-86933159D01*
X144505828Y-86810381D01*
X144457923Y-86694728D01*
X144388375Y-86590642D01*
X144388374Y-86590641D01*
X144386945Y-86588502D01*
X144365730Y-86520749D01*
X144384513Y-86452282D01*
X144437330Y-86404839D01*
X144491710Y-86392500D01*
X152736090Y-86392500D01*
X152736091Y-86392500D01*
X152858869Y-86368078D01*
X152974522Y-86320173D01*
X153078608Y-86250625D01*
X154358828Y-84970403D01*
X154421137Y-84936381D01*
X154460267Y-84934108D01*
X154559896Y-84943921D01*
X154574499Y-84945360D01*
X154574500Y-84945360D01*
X154574503Y-84945360D01*
X154771409Y-84925966D01*
X154771410Y-84925965D01*
X154771416Y-84925965D01*
X154960765Y-84868527D01*
X155135270Y-84775252D01*
X155288225Y-84649725D01*
X155413752Y-84496770D01*
X155507027Y-84322265D01*
X155564465Y-84132916D01*
X155569791Y-84078847D01*
X155583860Y-83936002D01*
X155583860Y-83935997D01*
X155564466Y-83739090D01*
X155564465Y-83739088D01*
X155564465Y-83739084D01*
X155507027Y-83549735D01*
X155413752Y-83375230D01*
X155288225Y-83222275D01*
X155135270Y-83096748D01*
X154960765Y-83003473D01*
X154771416Y-82946035D01*
X154771415Y-82946034D01*
X154771409Y-82946033D01*
X154574503Y-82926640D01*
X154574497Y-82926640D01*
X154377590Y-82946033D01*
X154188234Y-83003473D01*
X154013729Y-83096748D01*
X153860775Y-83222275D01*
X153735248Y-83375229D01*
X153641973Y-83549734D01*
X153584533Y-83739090D01*
X153566212Y-83925107D01*
X153539629Y-83990939D01*
X153529914Y-84001851D01*
X153217132Y-84314633D01*
X153154820Y-84348659D01*
X153084005Y-84343594D01*
X153027169Y-84301047D01*
X153002358Y-84234527D01*
X153007462Y-84188966D01*
X153024465Y-84132916D01*
X153029791Y-84078847D01*
X153043860Y-83936002D01*
X153043860Y-83935997D01*
X153024466Y-83739090D01*
X153024465Y-83739088D01*
X153024465Y-83739084D01*
X152967027Y-83549735D01*
X152873752Y-83375230D01*
X152748225Y-83222275D01*
X152662368Y-83151814D01*
X152595272Y-83096749D01*
X152515455Y-83054086D01*
X152464807Y-83004333D01*
X152449098Y-82935097D01*
X152473314Y-82868358D01*
X152485750Y-82853876D01*
X152936086Y-82403540D01*
X152998396Y-82369516D01*
X153061755Y-82372063D01*
X153082796Y-82378445D01*
X153107581Y-82385964D01*
X153107584Y-82385965D01*
X153256191Y-82400601D01*
X153304498Y-82405360D01*
X153304500Y-82405360D01*
X153304503Y-82405360D01*
X153501409Y-82385966D01*
X153501410Y-82385965D01*
X153501416Y-82385965D01*
X153690765Y-82328527D01*
X153865270Y-82235252D01*
X154018225Y-82109725D01*
X154143752Y-81956770D01*
X154237027Y-81782265D01*
X154294465Y-81592916D01*
X154299414Y-81542675D01*
X154313860Y-81396002D01*
X154313860Y-81395997D01*
X154294466Y-81199090D01*
X154294465Y-81199088D01*
X154294465Y-81199084D01*
X154237027Y-81009735D01*
X154143752Y-80835230D01*
X154018225Y-80682275D01*
X153914807Y-80597402D01*
X154586500Y-80597402D01*
X154586500Y-81142000D01*
X155561099Y-81142000D01*
X155540424Y-81162675D01*
X155490396Y-81249325D01*
X155464500Y-81345972D01*
X155464500Y-81446028D01*
X155490396Y-81542675D01*
X155540424Y-81629325D01*
X155561099Y-81650000D01*
X154586500Y-81650000D01*
X154586500Y-82194597D01*
X154593005Y-82255093D01*
X154644055Y-82391964D01*
X154644055Y-82391965D01*
X154731595Y-82508904D01*
X154848534Y-82596444D01*
X154985406Y-82647494D01*
X155045902Y-82653999D01*
X155045915Y-82654000D01*
X155590500Y-82654000D01*
X155590500Y-81679401D01*
X155611175Y-81700076D01*
X155697825Y-81750104D01*
X155794472Y-81776000D01*
X155894528Y-81776000D01*
X155991175Y-81750104D01*
X156077825Y-81700076D01*
X156098500Y-81679401D01*
X156098500Y-82654000D01*
X156643085Y-82654000D01*
X156643097Y-82653999D01*
X156703593Y-82647494D01*
X156840464Y-82596444D01*
X156840465Y-82596444D01*
X156957404Y-82508904D01*
X157044944Y-82391965D01*
X157044944Y-82391964D01*
X157095994Y-82255093D01*
X157102499Y-82194597D01*
X157102500Y-82194585D01*
X157102500Y-81650000D01*
X156127901Y-81650000D01*
X156148576Y-81629325D01*
X156198604Y-81542675D01*
X156224500Y-81446028D01*
X156224500Y-81345972D01*
X156198604Y-81249325D01*
X156148576Y-81162675D01*
X156127901Y-81142000D01*
X157102500Y-81142000D01*
X157102500Y-80597414D01*
X157102499Y-80597402D01*
X157095994Y-80536906D01*
X157044944Y-80400035D01*
X157044944Y-80400034D01*
X156957404Y-80283095D01*
X156840465Y-80195555D01*
X156703593Y-80144505D01*
X156643097Y-80138000D01*
X156098500Y-80138000D01*
X156098500Y-81112599D01*
X156077825Y-81091924D01*
X155991175Y-81041896D01*
X155894528Y-81016000D01*
X155794472Y-81016000D01*
X155697825Y-81041896D01*
X155611175Y-81091924D01*
X155590500Y-81112599D01*
X155590500Y-80138000D01*
X155045902Y-80138000D01*
X154985406Y-80144505D01*
X154848535Y-80195555D01*
X154848534Y-80195555D01*
X154731595Y-80283095D01*
X154644055Y-80400034D01*
X154644055Y-80400035D01*
X154593005Y-80536906D01*
X154586500Y-80597402D01*
X153914807Y-80597402D01*
X153865270Y-80556748D01*
X153690765Y-80463473D01*
X153501416Y-80406035D01*
X153501415Y-80406034D01*
X153501409Y-80406033D01*
X153304503Y-80386640D01*
X153304497Y-80386640D01*
X153107590Y-80406033D01*
X152918234Y-80463473D01*
X152743729Y-80556748D01*
X152590775Y-80682275D01*
X152465248Y-80835229D01*
X152371973Y-81009734D01*
X152314533Y-81199090D01*
X152295140Y-81395997D01*
X152295140Y-81396004D01*
X152308147Y-81528076D01*
X152294918Y-81597829D01*
X152271850Y-81629520D01*
X151812994Y-82088377D01*
X151750681Y-82122402D01*
X151679866Y-82117338D01*
X151623030Y-82074791D01*
X151598219Y-82008271D01*
X151612775Y-81939888D01*
X151697027Y-81782265D01*
X151754465Y-81592916D01*
X151759414Y-81542675D01*
X151773860Y-81396002D01*
X151773860Y-81395997D01*
X151754466Y-81199090D01*
X151754465Y-81199088D01*
X151754465Y-81199084D01*
X151697027Y-81009735D01*
X151603752Y-80835230D01*
X151478225Y-80682275D01*
X151325270Y-80556748D01*
X151150765Y-80463473D01*
X150961416Y-80406035D01*
X150961415Y-80406034D01*
X150961409Y-80406033D01*
X150764503Y-80386640D01*
X150764497Y-80386640D01*
X150567590Y-80406033D01*
X150378234Y-80463473D01*
X150203729Y-80556748D01*
X150050775Y-80682275D01*
X149925248Y-80835229D01*
X149831973Y-81009734D01*
X149774533Y-81199090D01*
X149755140Y-81395997D01*
X149755140Y-81396002D01*
X149774533Y-81592909D01*
X149774534Y-81592915D01*
X149774535Y-81592916D01*
X149791851Y-81650000D01*
X149831973Y-81782265D01*
X149925248Y-81956770D01*
X149956267Y-81994567D01*
X149984020Y-82059914D01*
X149972038Y-82129892D01*
X149924125Y-82182284D01*
X149858867Y-82200500D01*
X149435185Y-82200500D01*
X149367064Y-82180498D01*
X149320571Y-82126842D01*
X149310467Y-82056568D01*
X149320990Y-82021250D01*
X149411147Y-81827907D01*
X149411149Y-81827903D01*
X149468119Y-81615287D01*
X149487304Y-81396000D01*
X149468119Y-81176712D01*
X149411149Y-80964096D01*
X149411147Y-80964092D01*
X149318119Y-80764594D01*
X149275699Y-80704011D01*
X149275697Y-80704011D01*
X148604500Y-81375208D01*
X148604500Y-81345972D01*
X148578604Y-81249325D01*
X148528576Y-81162675D01*
X148457825Y-81091924D01*
X148371175Y-81041896D01*
X148274528Y-81016000D01*
X148245290Y-81016000D01*
X148916487Y-80344800D01*
X148855903Y-80302379D01*
X148813691Y-80282695D01*
X148760406Y-80235777D01*
X148740945Y-80167500D01*
X148761487Y-80099540D01*
X148815510Y-80053475D01*
X148866941Y-80042500D01*
X153331585Y-80042500D01*
X153379802Y-80052090D01*
X153433246Y-80074228D01*
X153578000Y-80093285D01*
X153722754Y-80074228D01*
X153857643Y-80018355D01*
X153973474Y-79929474D01*
X154062355Y-79813643D01*
X154118228Y-79678754D01*
X154137285Y-79534000D01*
X154118228Y-79389246D01*
X154062355Y-79254358D01*
X153973474Y-79138526D01*
X153973472Y-79138524D01*
X153973471Y-79138523D01*
X153857649Y-79049649D01*
X153857641Y-79049644D01*
X153722752Y-78993771D01*
X153578000Y-78974715D01*
X153433246Y-78993771D01*
X153433245Y-78993772D01*
X153379803Y-79015909D01*
X153331585Y-79025500D01*
X148423239Y-79025500D01*
X148355118Y-79005498D01*
X148308625Y-78951842D01*
X148298521Y-78881568D01*
X148323276Y-78822797D01*
X148354855Y-78781643D01*
X148410728Y-78646754D01*
X148429785Y-78502000D01*
X148427678Y-78485999D01*
X148410728Y-78357247D01*
X148410728Y-78357246D01*
X148354855Y-78222358D01*
X148265974Y-78106526D01*
X148265972Y-78106524D01*
X148265971Y-78106523D01*
X148150149Y-78017649D01*
X148150141Y-78017644D01*
X148015252Y-77961771D01*
X147870500Y-77942715D01*
X147725746Y-77961771D01*
X147725745Y-77961772D01*
X147672303Y-77983909D01*
X147624085Y-77993500D01*
X142895517Y-77993500D01*
X142827396Y-77973498D01*
X142780903Y-77919842D01*
X142770799Y-77849568D01*
X142795554Y-77790796D01*
X142796548Y-77789501D01*
X142814855Y-77765643D01*
X142870728Y-77630754D01*
X142889785Y-77486000D01*
X142887678Y-77469999D01*
X142870728Y-77341247D01*
X142870728Y-77341246D01*
X142814855Y-77206358D01*
X142725974Y-77090526D01*
X142725972Y-77090524D01*
X142725971Y-77090523D01*
X142610149Y-77001649D01*
X142610141Y-77001644D01*
X142475252Y-76945771D01*
X142330500Y-76926715D01*
X142185746Y-76945771D01*
X142185745Y-76945772D01*
X142132303Y-76967909D01*
X142084085Y-76977500D01*
X138451427Y-76977500D01*
X138383306Y-76957498D01*
X138336813Y-76903842D01*
X138326505Y-76835054D01*
X138344285Y-76700000D01*
X138344285Y-76699999D01*
X138325228Y-76555247D01*
X138325228Y-76555246D01*
X138269355Y-76420358D01*
X138180474Y-76304526D01*
X138180472Y-76304524D01*
X138180471Y-76304523D01*
X138064649Y-76215649D01*
X138064641Y-76215644D01*
X137929752Y-76159771D01*
X137785000Y-76140715D01*
X137640246Y-76159771D01*
X137640245Y-76159772D01*
X137586803Y-76181909D01*
X137538585Y-76191500D01*
X127055536Y-76191500D01*
X126987415Y-76171498D01*
X126940922Y-76117842D01*
X126930818Y-76047568D01*
X126931952Y-76040944D01*
X126954500Y-75927591D01*
X126954500Y-75802409D01*
X126930078Y-75679631D01*
X126882173Y-75563978D01*
X126812625Y-75459892D01*
X126277442Y-74924709D01*
X143834000Y-74924709D01*
X143834000Y-75167290D01*
X143865660Y-75407782D01*
X143928444Y-75642095D01*
X143928445Y-75642097D01*
X143928446Y-75642100D01*
X144021276Y-75866212D01*
X144021277Y-75866213D01*
X144021282Y-75866224D01*
X144142561Y-76076285D01*
X144142563Y-76076288D01*
X144142564Y-76076289D01*
X144290235Y-76268738D01*
X144290239Y-76268742D01*
X144290244Y-76268748D01*
X144461751Y-76440255D01*
X144461756Y-76440259D01*
X144461762Y-76440265D01*
X144611610Y-76555247D01*
X144654214Y-76587938D01*
X144864275Y-76709217D01*
X144864279Y-76709218D01*
X144864288Y-76709224D01*
X145088400Y-76802054D01*
X145322711Y-76864838D01*
X145322715Y-76864838D01*
X145322717Y-76864839D01*
X145384702Y-76872999D01*
X145563212Y-76896500D01*
X145563219Y-76896500D01*
X145805781Y-76896500D01*
X145805788Y-76896500D01*
X146023137Y-76867885D01*
X146046282Y-76864839D01*
X146046282Y-76864838D01*
X146046289Y-76864838D01*
X146280600Y-76802054D01*
X146504712Y-76709224D01*
X146714789Y-76587936D01*
X146907238Y-76440265D01*
X147078765Y-76268738D01*
X147226436Y-76076289D01*
X147347724Y-75866212D01*
X147440554Y-75642100D01*
X147503338Y-75407789D01*
X147535000Y-75167288D01*
X147535000Y-74924712D01*
X147535000Y-74924709D01*
X155264000Y-74924709D01*
X155264000Y-75167290D01*
X155295660Y-75407782D01*
X155358444Y-75642095D01*
X155358445Y-75642097D01*
X155358446Y-75642100D01*
X155451276Y-75866212D01*
X155451277Y-75866213D01*
X155451282Y-75866224D01*
X155572561Y-76076285D01*
X155572563Y-76076288D01*
X155572564Y-76076289D01*
X155720235Y-76268738D01*
X155720239Y-76268742D01*
X155720244Y-76268748D01*
X155891751Y-76440255D01*
X155891756Y-76440259D01*
X155891762Y-76440265D01*
X156041610Y-76555247D01*
X156084214Y-76587938D01*
X156294275Y-76709217D01*
X156294279Y-76709218D01*
X156294288Y-76709224D01*
X156518400Y-76802054D01*
X156752711Y-76864838D01*
X156752715Y-76864838D01*
X156752717Y-76864839D01*
X156814702Y-76872999D01*
X156993212Y-76896500D01*
X156993219Y-76896500D01*
X157235781Y-76896500D01*
X157235788Y-76896500D01*
X157453137Y-76867885D01*
X157476282Y-76864839D01*
X157476282Y-76864838D01*
X157476289Y-76864838D01*
X157710600Y-76802054D01*
X157934712Y-76709224D01*
X158144789Y-76587936D01*
X158337238Y-76440265D01*
X158508765Y-76268738D01*
X158656436Y-76076289D01*
X158777724Y-75866212D01*
X158870554Y-75642100D01*
X158933338Y-75407789D01*
X158965000Y-75167288D01*
X158965000Y-74924712D01*
X158933338Y-74684211D01*
X158870554Y-74449900D01*
X158777724Y-74225788D01*
X158777718Y-74225779D01*
X158777717Y-74225775D01*
X158656438Y-74015714D01*
X158582137Y-73918883D01*
X158508765Y-73823262D01*
X158508759Y-73823256D01*
X158508755Y-73823251D01*
X158337248Y-73651744D01*
X158337242Y-73651739D01*
X158337238Y-73651735D01*
X158144789Y-73504064D01*
X158144788Y-73504063D01*
X158144785Y-73504061D01*
X157934724Y-73382782D01*
X157934716Y-73382778D01*
X157934712Y-73382776D01*
X157710600Y-73289946D01*
X157710597Y-73289945D01*
X157710595Y-73289944D01*
X157476282Y-73227160D01*
X157235790Y-73195500D01*
X157235788Y-73195500D01*
X156993212Y-73195500D01*
X156993209Y-73195500D01*
X156752717Y-73227160D01*
X156518404Y-73289944D01*
X156518400Y-73289946D01*
X156294286Y-73382777D01*
X156294275Y-73382782D01*
X156084214Y-73504061D01*
X155891762Y-73651735D01*
X155891751Y-73651744D01*
X155720244Y-73823251D01*
X155720235Y-73823262D01*
X155572561Y-74015714D01*
X155451282Y-74225775D01*
X155451277Y-74225786D01*
X155358446Y-74449900D01*
X155358444Y-74449904D01*
X155295660Y-74684217D01*
X155264000Y-74924709D01*
X147535000Y-74924709D01*
X147503338Y-74684211D01*
X147440554Y-74449900D01*
X147347724Y-74225788D01*
X147347718Y-74225779D01*
X147347717Y-74225775D01*
X147226438Y-74015714D01*
X147152137Y-73918883D01*
X147078765Y-73823262D01*
X147078759Y-73823256D01*
X147078755Y-73823251D01*
X146907248Y-73651744D01*
X146907242Y-73651739D01*
X146907238Y-73651735D01*
X146714789Y-73504064D01*
X146714788Y-73504063D01*
X146714785Y-73504061D01*
X146504724Y-73382782D01*
X146504716Y-73382778D01*
X146504712Y-73382776D01*
X146280600Y-73289946D01*
X146280597Y-73289945D01*
X146280595Y-73289944D01*
X146046282Y-73227160D01*
X145805790Y-73195500D01*
X145805788Y-73195500D01*
X145563212Y-73195500D01*
X145563209Y-73195500D01*
X145322717Y-73227160D01*
X145088404Y-73289944D01*
X145088400Y-73289946D01*
X144864286Y-73382777D01*
X144864275Y-73382782D01*
X144654214Y-73504061D01*
X144461762Y-73651735D01*
X144461751Y-73651744D01*
X144290244Y-73823251D01*
X144290235Y-73823262D01*
X144142561Y-74015714D01*
X144021282Y-74225775D01*
X144021277Y-74225786D01*
X143928446Y-74449900D01*
X143928444Y-74449904D01*
X143865660Y-74684217D01*
X143834000Y-74924709D01*
X126277442Y-74924709D01*
X120995108Y-69642375D01*
X120891022Y-69572827D01*
X120775369Y-69524922D01*
X120652593Y-69500500D01*
X120652591Y-69500500D01*
X103881499Y-69500500D01*
X103813378Y-69480498D01*
X103766885Y-69426842D01*
X103755499Y-69374500D01*
X103755499Y-69255936D01*
X103755498Y-69255927D01*
X103740734Y-69181699D01*
X103684483Y-69097515D01*
X103600302Y-69041266D01*
X103526067Y-69026500D01*
X101775936Y-69026500D01*
X101775926Y-69026501D01*
X101701699Y-69041265D01*
X101617515Y-69097516D01*
X101561266Y-69181697D01*
X101546500Y-69255930D01*
X101546500Y-71006063D01*
X101546501Y-71006073D01*
X101561265Y-71080300D01*
X101617516Y-71164484D01*
X101701697Y-71220733D01*
X101701699Y-71220734D01*
X101775933Y-71235500D01*
X101952755Y-71235499D01*
X102020873Y-71255501D01*
X102067366Y-71309156D01*
X102077471Y-71379430D01*
X102047978Y-71444011D01*
X102012723Y-71472312D01*
X101905704Y-71530228D01*
X101905698Y-71530232D01*
X101728097Y-71668465D01*
X101575674Y-71834041D01*
X101452580Y-72022451D01*
X101362179Y-72228543D01*
X101362176Y-72228550D01*
X101314455Y-72416999D01*
X100500500Y-72416999D01*
X100500500Y-66626500D01*
X100520502Y-66558379D01*
X100574158Y-66511886D01*
X100626500Y-66500500D01*
X159373500Y-66500500D01*
X159441621Y-66520502D01*
G37*
%TD.AperFunction*%
%TD*%
M02*
