%TF.GenerationSoftware,KiCad,Pcbnew,8.0.4*%
%TF.CreationDate,2024-08-22T06:11:57+01:00*%
%TF.ProjectId,PicoChainReference,5069636f-4368-4616-996e-526566657265,rev?*%
%TF.SameCoordinates,Original*%
%TF.FileFunction,Soldermask,Top*%
%TF.FilePolarity,Negative*%
%FSLAX46Y46*%
G04 Gerber Fmt 4.6, Leading zero omitted, Abs format (unit mm)*
G04 Created by KiCad (PCBNEW 8.0.4) date 2024-08-22 06:11:57*
%MOMM*%
%LPD*%
G01*
G04 APERTURE LIST*
G04 Aperture macros list*
%AMRoundRect*
0 Rectangle with rounded corners*
0 $1 Rounding radius*
0 $2 $3 $4 $5 $6 $7 $8 $9 X,Y pos of 4 corners*
0 Add a 4 corners polygon primitive as box body*
4,1,4,$2,$3,$4,$5,$6,$7,$8,$9,$2,$3,0*
0 Add four circle primitives for the rounded corners*
1,1,$1+$1,$2,$3*
1,1,$1+$1,$4,$5*
1,1,$1+$1,$6,$7*
1,1,$1+$1,$8,$9*
0 Add four rect primitives between the rounded corners*
20,1,$1+$1,$2,$3,$4,$5,0*
20,1,$1+$1,$4,$5,$6,$7,0*
20,1,$1+$1,$6,$7,$8,$9,0*
20,1,$1+$1,$8,$9,$2,$3,0*%
G04 Aperture macros list end*
%ADD10RoundRect,0.250000X0.412500X0.925000X-0.412500X0.925000X-0.412500X-0.925000X0.412500X-0.925000X0*%
%ADD11RoundRect,0.149250X-1.847750X-0.447750X1.847750X-0.447750X1.847750X0.447750X-1.847750X0.447750X0*%
%ADD12RoundRect,0.102000X-3.810000X-5.420000X3.810000X-5.420000X3.810000X5.420000X-3.810000X5.420000X0*%
%ADD13RoundRect,0.250000X-0.425000X0.450000X-0.425000X-0.450000X0.425000X-0.450000X0.425000X0.450000X0*%
%ADD14R,0.250000X1.100000*%
%ADD15R,1.700000X1.700000*%
%ADD16O,1.700000X1.700000*%
%ADD17C,3.200000*%
%ADD18R,1.500000X1.500000*%
%ADD19C,1.500000*%
%ADD20RoundRect,0.250000X0.350000X-0.850000X0.350000X0.850000X-0.350000X0.850000X-0.350000X-0.850000X0*%
%ADD21RoundRect,0.249997X2.650003X-2.950003X2.650003X2.950003X-2.650003X2.950003X-2.650003X-2.950003X0*%
G04 APERTURE END LIST*
D10*
%TO.C,C6*%
X141145500Y-91599000D03*
X138070500Y-91599000D03*
%TD*%
D11*
%TO.C,U5*%
X144638000Y-90075000D03*
X144638000Y-92615000D03*
X144638000Y-95155000D03*
D12*
X155518000Y-92615000D03*
%TD*%
D13*
%TO.C,C4*%
X127940000Y-79264000D03*
X127940000Y-81964000D03*
%TD*%
D14*
%TO.C,U2*%
X131258000Y-85304000D03*
X131758000Y-85304000D03*
X132258000Y-85304000D03*
X132758000Y-85304000D03*
X133258000Y-85304000D03*
X133258000Y-81004000D03*
X132758000Y-81004000D03*
X132258000Y-81004000D03*
X131758000Y-81004000D03*
X131258000Y-81004000D03*
%TD*%
D15*
%TO.C,J3*%
X102651000Y-88165000D03*
D16*
X102651000Y-90705000D03*
%TD*%
D17*
%TO.C,J1*%
X119014500Y-75046000D03*
X107584500Y-75046000D03*
D18*
X117744500Y-81396000D03*
D19*
X116474500Y-83936000D03*
X115204500Y-81396000D03*
X113934500Y-83936000D03*
X112664500Y-81396000D03*
X111394500Y-83936000D03*
X110124500Y-81396000D03*
X108854500Y-83936000D03*
%TD*%
D13*
%TO.C,C1*%
X124384000Y-79264000D03*
X124384000Y-81964000D03*
%TD*%
D15*
%TO.C,J6*%
X102651000Y-78894000D03*
D16*
X102651000Y-81434000D03*
%TD*%
D13*
%TO.C,C3*%
X136068000Y-79518000D03*
X136068000Y-82218000D03*
%TD*%
%TO.C,C2*%
X139624000Y-79518000D03*
X139624000Y-82218000D03*
%TD*%
D20*
%TO.C,U3*%
X135059000Y-76857000D03*
D21*
X137339000Y-70557000D03*
D20*
X139619000Y-76857000D03*
%TD*%
D10*
%TO.C,C5*%
X141145500Y-96425000D03*
X138070500Y-96425000D03*
%TD*%
D15*
%TO.C,J5*%
X129951000Y-89186000D03*
D16*
X132491000Y-89186000D03*
%TD*%
D17*
%TO.C,J2*%
X157114500Y-75046000D03*
X145684500Y-75046000D03*
D18*
X155844500Y-81396000D03*
D19*
X154574500Y-83936000D03*
X153304500Y-81396000D03*
X152034500Y-83936000D03*
X150764500Y-81396000D03*
X149494500Y-83936000D03*
X148224500Y-81396000D03*
X146954500Y-83936000D03*
%TD*%
D20*
%TO.C,U4*%
X124390000Y-76754000D03*
D21*
X126670000Y-70454000D03*
D20*
X128950000Y-76754000D03*
%TD*%
D15*
%TO.C,J4*%
X102651000Y-70131000D03*
D16*
X102651000Y-72671000D03*
%TD*%
M02*
