%TF.GenerationSoftware,KiCad,Pcbnew,8.0.4*%
%TF.CreationDate,2024-08-22T06:16:07+01:00*%
%TF.ProjectId,PicoChainBase,5069636f-4368-4616-996e-426173652e6b,rev?*%
%TF.SameCoordinates,Original*%
%TF.FileFunction,Legend,Top*%
%TF.FilePolarity,Positive*%
%FSLAX46Y46*%
G04 Gerber Fmt 4.6, Leading zero omitted, Abs format (unit mm)*
G04 Created by KiCad (PCBNEW 8.0.4) date 2024-08-22 06:16:07*
%MOMM*%
%LPD*%
G01*
G04 APERTURE LIST*
%ADD10C,0.150000*%
%ADD11C,0.300000*%
%ADD12C,0.120000*%
G04 APERTURE END LIST*
D10*
X105154760Y-67167438D02*
X104488093Y-66215057D01*
X104011903Y-67167438D02*
X104011903Y-65167438D01*
X104011903Y-65167438D02*
X104773808Y-65167438D01*
X104773808Y-65167438D02*
X104964284Y-65262676D01*
X104964284Y-65262676D02*
X105059522Y-65357914D01*
X105059522Y-65357914D02*
X105154760Y-65548390D01*
X105154760Y-65548390D02*
X105154760Y-65834104D01*
X105154760Y-65834104D02*
X105059522Y-66024580D01*
X105059522Y-66024580D02*
X104964284Y-66119819D01*
X104964284Y-66119819D02*
X104773808Y-66215057D01*
X104773808Y-66215057D02*
X104011903Y-66215057D01*
X106869046Y-67167438D02*
X106869046Y-66119819D01*
X106869046Y-66119819D02*
X106773808Y-65929342D01*
X106773808Y-65929342D02*
X106583332Y-65834104D01*
X106583332Y-65834104D02*
X106202379Y-65834104D01*
X106202379Y-65834104D02*
X106011903Y-65929342D01*
X106869046Y-67072200D02*
X106678570Y-67167438D01*
X106678570Y-67167438D02*
X106202379Y-67167438D01*
X106202379Y-67167438D02*
X106011903Y-67072200D01*
X106011903Y-67072200D02*
X105916665Y-66881723D01*
X105916665Y-66881723D02*
X105916665Y-66691247D01*
X105916665Y-66691247D02*
X106011903Y-66500771D01*
X106011903Y-66500771D02*
X106202379Y-66405533D01*
X106202379Y-66405533D02*
X106678570Y-66405533D01*
X106678570Y-66405533D02*
X106869046Y-66310295D01*
X107726189Y-67072200D02*
X107916665Y-67167438D01*
X107916665Y-67167438D02*
X108297617Y-67167438D01*
X108297617Y-67167438D02*
X108488094Y-67072200D01*
X108488094Y-67072200D02*
X108583332Y-66881723D01*
X108583332Y-66881723D02*
X108583332Y-66786485D01*
X108583332Y-66786485D02*
X108488094Y-66596009D01*
X108488094Y-66596009D02*
X108297617Y-66500771D01*
X108297617Y-66500771D02*
X108011903Y-66500771D01*
X108011903Y-66500771D02*
X107821427Y-66405533D01*
X107821427Y-66405533D02*
X107726189Y-66215057D01*
X107726189Y-66215057D02*
X107726189Y-66119819D01*
X107726189Y-66119819D02*
X107821427Y-65929342D01*
X107821427Y-65929342D02*
X108011903Y-65834104D01*
X108011903Y-65834104D02*
X108297617Y-65834104D01*
X108297617Y-65834104D02*
X108488094Y-65929342D01*
X109440475Y-65834104D02*
X109440475Y-67834104D01*
X109440475Y-65929342D02*
X109630951Y-65834104D01*
X109630951Y-65834104D02*
X110011904Y-65834104D01*
X110011904Y-65834104D02*
X110202380Y-65929342D01*
X110202380Y-65929342D02*
X110297618Y-66024580D01*
X110297618Y-66024580D02*
X110392856Y-66215057D01*
X110392856Y-66215057D02*
X110392856Y-66786485D01*
X110392856Y-66786485D02*
X110297618Y-66976961D01*
X110297618Y-66976961D02*
X110202380Y-67072200D01*
X110202380Y-67072200D02*
X110011904Y-67167438D01*
X110011904Y-67167438D02*
X109630951Y-67167438D01*
X109630951Y-67167438D02*
X109440475Y-67072200D01*
X111249999Y-67167438D02*
X111249999Y-65167438D01*
X111249999Y-65929342D02*
X111440475Y-65834104D01*
X111440475Y-65834104D02*
X111821428Y-65834104D01*
X111821428Y-65834104D02*
X112011904Y-65929342D01*
X112011904Y-65929342D02*
X112107142Y-66024580D01*
X112107142Y-66024580D02*
X112202380Y-66215057D01*
X112202380Y-66215057D02*
X112202380Y-66786485D01*
X112202380Y-66786485D02*
X112107142Y-66976961D01*
X112107142Y-66976961D02*
X112011904Y-67072200D01*
X112011904Y-67072200D02*
X111821428Y-67167438D01*
X111821428Y-67167438D02*
X111440475Y-67167438D01*
X111440475Y-67167438D02*
X111249999Y-67072200D01*
X113821428Y-67072200D02*
X113630952Y-67167438D01*
X113630952Y-67167438D02*
X113249999Y-67167438D01*
X113249999Y-67167438D02*
X113059523Y-67072200D01*
X113059523Y-67072200D02*
X112964285Y-66881723D01*
X112964285Y-66881723D02*
X112964285Y-66119819D01*
X112964285Y-66119819D02*
X113059523Y-65929342D01*
X113059523Y-65929342D02*
X113249999Y-65834104D01*
X113249999Y-65834104D02*
X113630952Y-65834104D01*
X113630952Y-65834104D02*
X113821428Y-65929342D01*
X113821428Y-65929342D02*
X113916666Y-66119819D01*
X113916666Y-66119819D02*
X113916666Y-66310295D01*
X113916666Y-66310295D02*
X112964285Y-66500771D01*
X114773809Y-67167438D02*
X114773809Y-65834104D01*
X114773809Y-66215057D02*
X114869047Y-66024580D01*
X114869047Y-66024580D02*
X114964285Y-65929342D01*
X114964285Y-65929342D02*
X115154761Y-65834104D01*
X115154761Y-65834104D02*
X115345238Y-65834104D01*
X116011904Y-67167438D02*
X116011904Y-65834104D01*
X116011904Y-66215057D02*
X116107142Y-66024580D01*
X116107142Y-66024580D02*
X116202380Y-65929342D01*
X116202380Y-65929342D02*
X116392856Y-65834104D01*
X116392856Y-65834104D02*
X116583333Y-65834104D01*
X117059523Y-65834104D02*
X117535713Y-67167438D01*
X118011904Y-65834104D02*
X117535713Y-67167438D01*
X117535713Y-67167438D02*
X117345237Y-67643628D01*
X117345237Y-67643628D02*
X117249999Y-67738866D01*
X117249999Y-67738866D02*
X117059523Y-67834104D01*
X120297619Y-67167438D02*
X120297619Y-65167438D01*
X120297619Y-65167438D02*
X121059524Y-65167438D01*
X121059524Y-65167438D02*
X121250000Y-65262676D01*
X121250000Y-65262676D02*
X121345238Y-65357914D01*
X121345238Y-65357914D02*
X121440476Y-65548390D01*
X121440476Y-65548390D02*
X121440476Y-65834104D01*
X121440476Y-65834104D02*
X121345238Y-66024580D01*
X121345238Y-66024580D02*
X121250000Y-66119819D01*
X121250000Y-66119819D02*
X121059524Y-66215057D01*
X121059524Y-66215057D02*
X120297619Y-66215057D01*
X122297619Y-67167438D02*
X122297619Y-65834104D01*
X122297619Y-65167438D02*
X122202381Y-65262676D01*
X122202381Y-65262676D02*
X122297619Y-65357914D01*
X122297619Y-65357914D02*
X122392857Y-65262676D01*
X122392857Y-65262676D02*
X122297619Y-65167438D01*
X122297619Y-65167438D02*
X122297619Y-65357914D01*
X124583334Y-65167438D02*
X125916667Y-65167438D01*
X125916667Y-65167438D02*
X124583334Y-67167438D01*
X124583334Y-67167438D02*
X125916667Y-67167438D01*
X127440477Y-67072200D02*
X127250001Y-67167438D01*
X127250001Y-67167438D02*
X126869048Y-67167438D01*
X126869048Y-67167438D02*
X126678572Y-67072200D01*
X126678572Y-67072200D02*
X126583334Y-66881723D01*
X126583334Y-66881723D02*
X126583334Y-66119819D01*
X126583334Y-66119819D02*
X126678572Y-65929342D01*
X126678572Y-65929342D02*
X126869048Y-65834104D01*
X126869048Y-65834104D02*
X127250001Y-65834104D01*
X127250001Y-65834104D02*
X127440477Y-65929342D01*
X127440477Y-65929342D02*
X127535715Y-66119819D01*
X127535715Y-66119819D02*
X127535715Y-66310295D01*
X127535715Y-66310295D02*
X126583334Y-66500771D01*
X128392858Y-67167438D02*
X128392858Y-65834104D01*
X128392858Y-66215057D02*
X128488096Y-66024580D01*
X128488096Y-66024580D02*
X128583334Y-65929342D01*
X128583334Y-65929342D02*
X128773810Y-65834104D01*
X128773810Y-65834104D02*
X128964287Y-65834104D01*
X129916667Y-67167438D02*
X129726191Y-67072200D01*
X129726191Y-67072200D02*
X129630953Y-66976961D01*
X129630953Y-66976961D02*
X129535715Y-66786485D01*
X129535715Y-66786485D02*
X129535715Y-66215057D01*
X129535715Y-66215057D02*
X129630953Y-66024580D01*
X129630953Y-66024580D02*
X129726191Y-65929342D01*
X129726191Y-65929342D02*
X129916667Y-65834104D01*
X129916667Y-65834104D02*
X130202382Y-65834104D01*
X130202382Y-65834104D02*
X130392858Y-65929342D01*
X130392858Y-65929342D02*
X130488096Y-66024580D01*
X130488096Y-66024580D02*
X130583334Y-66215057D01*
X130583334Y-66215057D02*
X130583334Y-66786485D01*
X130583334Y-66786485D02*
X130488096Y-66976961D01*
X130488096Y-66976961D02*
X130392858Y-67072200D01*
X130392858Y-67072200D02*
X130202382Y-67167438D01*
X130202382Y-67167438D02*
X129916667Y-67167438D01*
D11*
G36*
X104254623Y-56247413D02*
G01*
X104333726Y-56256536D01*
X104418566Y-56275512D01*
X104492407Y-56303247D01*
X104564653Y-56346674D01*
X104591032Y-56368935D01*
X104642994Y-56427725D01*
X104682194Y-56495420D01*
X104708631Y-56572021D01*
X104721133Y-56644767D01*
X104724389Y-56710387D01*
X104719058Y-56790801D01*
X104703065Y-56867637D01*
X104676411Y-56940896D01*
X104669801Y-56955118D01*
X104628599Y-57021350D01*
X104573229Y-57078995D01*
X104511283Y-57123534D01*
X104488084Y-57136835D01*
X104418818Y-57166968D01*
X104338149Y-57188492D01*
X104258210Y-57200263D01*
X104182742Y-57205106D01*
X104142602Y-57205711D01*
X104005949Y-57205711D01*
X104005949Y-57745000D01*
X103689043Y-57745000D01*
X103689043Y-56952920D01*
X104005949Y-56952920D01*
X104111095Y-56952920D01*
X104189692Y-56947589D01*
X104263586Y-56929411D01*
X104324319Y-56898332D01*
X104375319Y-56842495D01*
X104399318Y-56771097D01*
X104403087Y-56720645D01*
X104394226Y-56644696D01*
X104361488Y-56575949D01*
X104304627Y-56528590D01*
X104223643Y-56502619D01*
X104151029Y-56497163D01*
X104005949Y-56497163D01*
X104005949Y-56952920D01*
X103689043Y-56952920D01*
X103689043Y-56244371D01*
X104167882Y-56244371D01*
X104254623Y-56247413D01*
G37*
G36*
X105140212Y-56150582D02*
G01*
X105215722Y-56162077D01*
X105259647Y-56183189D01*
X105303096Y-56245098D01*
X105310205Y-56302990D01*
X105297566Y-56375621D01*
X105259647Y-56422058D01*
X105189465Y-56450709D01*
X105140212Y-56455397D01*
X105066796Y-56444849D01*
X105019312Y-56422058D01*
X104977123Y-56359919D01*
X104970219Y-56302990D01*
X104982493Y-56229259D01*
X105019312Y-56183189D01*
X105089723Y-56155167D01*
X105140212Y-56150582D01*
G37*
G36*
X105295551Y-56596081D02*
G01*
X105295551Y-57745000D01*
X104982676Y-57745000D01*
X104982676Y-56596081D01*
X105295551Y-56596081D01*
G37*
G36*
X106089462Y-57768447D02*
G01*
X106012173Y-57764994D01*
X105926959Y-57751736D01*
X105849963Y-57728535D01*
X105781183Y-57695391D01*
X105720622Y-57652303D01*
X105693422Y-57627030D01*
X105645985Y-57568001D01*
X105608363Y-57497251D01*
X105580555Y-57414781D01*
X105564879Y-57337102D01*
X105556019Y-57251284D01*
X105553838Y-57176769D01*
X105556349Y-57100377D01*
X105565628Y-57018189D01*
X105581744Y-56943469D01*
X105608535Y-56867219D01*
X105625279Y-56832752D01*
X105664457Y-56770448D01*
X105716798Y-56710810D01*
X105777891Y-56662243D01*
X105823482Y-56636015D01*
X105898063Y-56605377D01*
X105969516Y-56586560D01*
X106045823Y-56575667D01*
X106116573Y-56572634D01*
X106193832Y-56575361D01*
X106269918Y-56584557D01*
X106321371Y-56595715D01*
X106393459Y-56617523D01*
X106465541Y-56646398D01*
X106473778Y-56650303D01*
X106381088Y-56897599D01*
X106310105Y-56868931D01*
X106243702Y-56845942D01*
X106171921Y-56829352D01*
X106116573Y-56825425D01*
X106033776Y-56837738D01*
X105968110Y-56874678D01*
X105919574Y-56936245D01*
X105892213Y-57006362D01*
X105876748Y-57093581D01*
X105872941Y-57175669D01*
X105876948Y-57257140D01*
X105891035Y-57335109D01*
X105918584Y-57404747D01*
X105937055Y-57432857D01*
X105992353Y-57483312D01*
X106062076Y-57510481D01*
X106116573Y-57515655D01*
X106193075Y-57511302D01*
X106266805Y-57496876D01*
X106290963Y-57489277D01*
X106360831Y-57460120D01*
X106428929Y-57422108D01*
X106437875Y-57416371D01*
X106437875Y-57684183D01*
X106369289Y-57720794D01*
X106297483Y-57746136D01*
X106287665Y-57748663D01*
X106210959Y-57762187D01*
X106132821Y-57767751D01*
X106089462Y-57768447D01*
G37*
G36*
X107269544Y-56577007D02*
G01*
X107343252Y-56590128D01*
X107420535Y-56615344D01*
X107476517Y-56642609D01*
X107542028Y-56686778D01*
X107599251Y-56740974D01*
X107648185Y-56805197D01*
X107671789Y-56845209D01*
X107703045Y-56915276D01*
X107725370Y-56992487D01*
X107737579Y-57065908D01*
X107742951Y-57144798D01*
X107743230Y-57168342D01*
X107739563Y-57255014D01*
X107728562Y-57335281D01*
X107710225Y-57409144D01*
X107678541Y-57489327D01*
X107636294Y-57560287D01*
X107593021Y-57612376D01*
X107532893Y-57665415D01*
X107465166Y-57707482D01*
X107389839Y-57738574D01*
X107306914Y-57758692D01*
X107232004Y-57767075D01*
X107184525Y-57768447D01*
X107106993Y-57764096D01*
X107033766Y-57751045D01*
X106956531Y-57725961D01*
X106900226Y-57698838D01*
X106834184Y-57654405D01*
X106776604Y-57599829D01*
X106727486Y-57535110D01*
X106703855Y-57494773D01*
X106672600Y-57424087D01*
X106650274Y-57346120D01*
X106638065Y-57271926D01*
X106632693Y-57192157D01*
X106632414Y-57168342D01*
X106951517Y-57168342D01*
X106954998Y-57248851D01*
X106967234Y-57326942D01*
X106991162Y-57398211D01*
X107007205Y-57427728D01*
X107058862Y-57481309D01*
X107130303Y-57510160D01*
X107188921Y-57515655D01*
X107266003Y-57505266D01*
X107331725Y-57470232D01*
X107368440Y-57427728D01*
X107400145Y-57357408D01*
X107416296Y-57285189D01*
X107423257Y-57209902D01*
X107424127Y-57168342D01*
X107420647Y-57087971D01*
X107408411Y-57010363D01*
X107384483Y-56940038D01*
X107368440Y-56911154D01*
X107316782Y-56858913D01*
X107245341Y-56830783D01*
X107186723Y-56825425D01*
X107109641Y-56835555D01*
X107043919Y-56869713D01*
X107007205Y-56911154D01*
X106975500Y-56980223D01*
X106959348Y-57051804D01*
X106952387Y-57126817D01*
X106951517Y-57168342D01*
X106632414Y-57168342D01*
X106636054Y-57081830D01*
X106646976Y-57001811D01*
X106665177Y-56928286D01*
X106696630Y-56848627D01*
X106738568Y-56778320D01*
X106781524Y-56726873D01*
X106841356Y-56674456D01*
X106909019Y-56632884D01*
X106984513Y-56602156D01*
X107067838Y-56582274D01*
X107143257Y-56573989D01*
X107191120Y-56572634D01*
X107269544Y-56577007D01*
G37*
G36*
X108583234Y-56247334D02*
G01*
X108664906Y-56256221D01*
X108742224Y-56271033D01*
X108815189Y-56291770D01*
X108883801Y-56318431D01*
X108905704Y-56328635D01*
X108977785Y-56369180D01*
X109042397Y-56417403D01*
X109099541Y-56473304D01*
X109149216Y-56536885D01*
X109174249Y-56576664D01*
X109211508Y-56651940D01*
X109236160Y-56722239D01*
X109254089Y-56797870D01*
X109265295Y-56878834D01*
X109269777Y-56965130D01*
X109269870Y-56980031D01*
X109266487Y-57072166D01*
X109256338Y-57158427D01*
X109239422Y-57238816D01*
X109215740Y-57313331D01*
X109185292Y-57381973D01*
X109137716Y-57459516D01*
X109079568Y-57527881D01*
X109053349Y-57552658D01*
X108981650Y-57608069D01*
X108918315Y-57645636D01*
X108849668Y-57677192D01*
X108775708Y-57702737D01*
X108696436Y-57722272D01*
X108611852Y-57735796D01*
X108521955Y-57743309D01*
X108451046Y-57745000D01*
X108026796Y-57745000D01*
X108026796Y-57492208D01*
X108343702Y-57492208D01*
X108480355Y-57492208D01*
X108562524Y-57487787D01*
X108636611Y-57474524D01*
X108722821Y-57443085D01*
X108794663Y-57395927D01*
X108852136Y-57333050D01*
X108895241Y-57254453D01*
X108923978Y-57160138D01*
X108936101Y-57079085D01*
X108940143Y-56989190D01*
X108937477Y-56913545D01*
X108927242Y-56831319D01*
X108909330Y-56758418D01*
X108878731Y-56685153D01*
X108830966Y-56616964D01*
X108770218Y-56564551D01*
X108697151Y-56527113D01*
X108623113Y-56506639D01*
X108539642Y-56497631D01*
X108514061Y-56497163D01*
X108343702Y-56497163D01*
X108343702Y-57492208D01*
X108026796Y-57492208D01*
X108026796Y-56244371D01*
X108497208Y-56244371D01*
X108583234Y-56247334D01*
G37*
G36*
X110108192Y-56576150D02*
G01*
X110183446Y-56586699D01*
X110261604Y-56607894D01*
X110329384Y-56638661D01*
X110379221Y-56672651D01*
X110432917Y-56729300D01*
X110471270Y-56799230D01*
X110492245Y-56871313D01*
X110501474Y-56953564D01*
X110501953Y-56978932D01*
X110501953Y-57745000D01*
X110283600Y-57745000D01*
X110222784Y-57589295D01*
X110214357Y-57589295D01*
X110162735Y-57647757D01*
X110104148Y-57697809D01*
X110058653Y-57725949D01*
X109988774Y-57751846D01*
X109909603Y-57765085D01*
X109834071Y-57768447D01*
X109760776Y-57762883D01*
X109686146Y-57743321D01*
X109619804Y-57709675D01*
X109580181Y-57679420D01*
X109531478Y-57621225D01*
X109498715Y-57547207D01*
X109482973Y-57468130D01*
X109479719Y-57406113D01*
X109800732Y-57406113D01*
X109818719Y-57479630D01*
X109842498Y-57504665D01*
X109912204Y-57531111D01*
X109951674Y-57533974D01*
X110028571Y-57524662D01*
X110099617Y-57493807D01*
X110122034Y-57477554D01*
X110169368Y-57419280D01*
X110190195Y-57343195D01*
X110191277Y-57318185D01*
X110191277Y-57229159D01*
X110069277Y-57229159D01*
X109991646Y-57233013D01*
X109916521Y-57248192D01*
X109859351Y-57277885D01*
X109813612Y-57338342D01*
X109800732Y-57406113D01*
X109479719Y-57406113D01*
X109479431Y-57400617D01*
X109485549Y-57324497D01*
X109507525Y-57248923D01*
X109545484Y-57185530D01*
X109599425Y-57134320D01*
X109607292Y-57128775D01*
X109679397Y-57090627D01*
X109755600Y-57066189D01*
X109830656Y-57051883D01*
X109914702Y-57043709D01*
X109991608Y-57041580D01*
X110191277Y-57041580D01*
X110191277Y-56988824D01*
X110180892Y-56911662D01*
X110144016Y-56851071D01*
X110079255Y-56815522D01*
X110012857Y-56807107D01*
X109934826Y-56812500D01*
X109858727Y-56828681D01*
X109848726Y-56831653D01*
X109779092Y-56855055D01*
X109709319Y-56882944D01*
X109689357Y-56891737D01*
X109586409Y-56678513D01*
X109657472Y-56645420D01*
X109728226Y-56619701D01*
X109790108Y-56601943D01*
X109861878Y-56586487D01*
X109935222Y-56576755D01*
X110010141Y-56572748D01*
X110025314Y-56572634D01*
X110108192Y-56576150D01*
G37*
G36*
X110980059Y-56150582D02*
G01*
X111055568Y-56162077D01*
X111099494Y-56183189D01*
X111142942Y-56245098D01*
X111150052Y-56302990D01*
X111137412Y-56375621D01*
X111099494Y-56422058D01*
X111029312Y-56450709D01*
X110980059Y-56455397D01*
X110906643Y-56444849D01*
X110859159Y-56422058D01*
X110816969Y-56359919D01*
X110810066Y-56302990D01*
X110822339Y-56229259D01*
X110859159Y-56183189D01*
X110929569Y-56155167D01*
X110980059Y-56150582D01*
G37*
G36*
X111135397Y-56596081D02*
G01*
X111135397Y-57745000D01*
X110822522Y-57745000D01*
X110822522Y-56596081D01*
X111135397Y-56596081D01*
G37*
G36*
X112263066Y-57405746D02*
G01*
X112255373Y-57488224D01*
X112232292Y-57560535D01*
X112187933Y-57629733D01*
X112139968Y-57674658D01*
X112071046Y-57715690D01*
X111998342Y-57741977D01*
X111914067Y-57759288D01*
X111832623Y-57766981D01*
X111773604Y-57768447D01*
X111695432Y-57766542D01*
X111619139Y-57760119D01*
X111568073Y-57752327D01*
X111492740Y-57734685D01*
X111422787Y-57711397D01*
X111395882Y-57700669D01*
X111395882Y-57438353D01*
X111467186Y-57467393D01*
X111542611Y-57492414D01*
X111595184Y-57506863D01*
X111672087Y-57523383D01*
X111747258Y-57532676D01*
X111784228Y-57533974D01*
X111857875Y-57528017D01*
X111914288Y-57506863D01*
X111953870Y-57443219D01*
X111954221Y-57435055D01*
X111938468Y-57382665D01*
X111879825Y-57335353D01*
X111870324Y-57329909D01*
X111803188Y-57296295D01*
X111733481Y-57265434D01*
X111706559Y-57254071D01*
X111636306Y-57222465D01*
X111570626Y-57188281D01*
X111528872Y-57162847D01*
X111469338Y-57112746D01*
X111427023Y-57053304D01*
X111402019Y-56981038D01*
X111393814Y-56904432D01*
X111393684Y-56892470D01*
X111401424Y-56817434D01*
X111428633Y-56745006D01*
X111475432Y-56685272D01*
X111517515Y-56652501D01*
X111584560Y-56617559D01*
X111661863Y-56592601D01*
X111737918Y-56578951D01*
X111821827Y-56572946D01*
X111847243Y-56572634D01*
X111926034Y-56575674D01*
X112001940Y-56584793D01*
X112050942Y-56594249D01*
X112124358Y-56614428D01*
X112193194Y-56639895D01*
X112250610Y-56665690D01*
X112156088Y-56896866D01*
X112084040Y-56865911D01*
X112015358Y-56839725D01*
X111996353Y-56833119D01*
X111925116Y-56814448D01*
X111848065Y-56807132D01*
X111843213Y-56807107D01*
X111769990Y-56814513D01*
X111709242Y-56857172D01*
X111704361Y-56882944D01*
X111722313Y-56932770D01*
X111782232Y-56975320D01*
X111791556Y-56980031D01*
X111860297Y-57011646D01*
X111931561Y-57042241D01*
X111943963Y-57047442D01*
X112014065Y-57077856D01*
X112081403Y-57111851D01*
X112113956Y-57130607D01*
X112173768Y-57176046D01*
X112221773Y-57235340D01*
X112224232Y-57239417D01*
X112252106Y-57308443D01*
X112262460Y-57381028D01*
X112263066Y-57405746D01*
G37*
G36*
X112342568Y-56596081D02*
G01*
X112684752Y-56596081D01*
X112901273Y-57250041D01*
X112921606Y-57323337D01*
X112926186Y-57347861D01*
X112936217Y-57421649D01*
X112939009Y-57452274D01*
X112945237Y-57452274D01*
X112955879Y-57379152D01*
X112962090Y-57347861D01*
X112981324Y-57274427D01*
X112989200Y-57250041D01*
X113201325Y-56596081D01*
X113537648Y-56596081D01*
X113052215Y-57900704D01*
X113020166Y-57975234D01*
X112982682Y-58041103D01*
X112933188Y-58105778D01*
X112876596Y-58159141D01*
X112861339Y-58170715D01*
X112796928Y-58210145D01*
X112727525Y-58238309D01*
X112653130Y-58255208D01*
X112573743Y-58260840D01*
X112498386Y-58257710D01*
X112481053Y-58255711D01*
X112414009Y-58244720D01*
X112414009Y-57995593D01*
X112468597Y-58003653D01*
X112537840Y-58008049D01*
X112611020Y-57998133D01*
X112678329Y-57962047D01*
X112693178Y-57947965D01*
X112740378Y-57886587D01*
X112773537Y-57819568D01*
X112779274Y-57803984D01*
X112798325Y-57747198D01*
X112342568Y-56596081D01*
G37*
G36*
X114165963Y-57167243D02*
G01*
X114167778Y-57087663D01*
X114173225Y-57008977D01*
X114182304Y-56931185D01*
X114195014Y-56854288D01*
X114211356Y-56778285D01*
X114231328Y-56703177D01*
X114240334Y-56673384D01*
X114265765Y-56600120D01*
X114295346Y-56529164D01*
X114329078Y-56460515D01*
X114366959Y-56394174D01*
X114408991Y-56330141D01*
X114455173Y-56268416D01*
X114474808Y-56244371D01*
X114730896Y-56244371D01*
X114687909Y-56306941D01*
X114648250Y-56371461D01*
X114611917Y-56437931D01*
X114578912Y-56506351D01*
X114549235Y-56576720D01*
X114522884Y-56649039D01*
X114513276Y-56678513D01*
X114491850Y-56752891D01*
X114474056Y-56827878D01*
X114459894Y-56903473D01*
X114449362Y-56979676D01*
X114442463Y-57056487D01*
X114439194Y-57133907D01*
X114438904Y-57165045D01*
X114440702Y-57240887D01*
X114446095Y-57316370D01*
X114455084Y-57391497D01*
X114467669Y-57466265D01*
X114483850Y-57540676D01*
X114503626Y-57614728D01*
X114512543Y-57644249D01*
X114537237Y-57716934D01*
X114565294Y-57787525D01*
X114596714Y-57856023D01*
X114631497Y-57922429D01*
X114669643Y-57986741D01*
X114711153Y-58048960D01*
X114728698Y-58073262D01*
X114474808Y-58073262D01*
X114426966Y-58014361D01*
X114383274Y-57953063D01*
X114343732Y-57889368D01*
X114308341Y-57823276D01*
X114277100Y-57754786D01*
X114250009Y-57683900D01*
X114240334Y-57654874D01*
X114218909Y-57581338D01*
X114201115Y-57506818D01*
X114186952Y-57431315D01*
X114176421Y-57354827D01*
X114169521Y-57277356D01*
X114166253Y-57198901D01*
X114165963Y-57167243D01*
G37*
G36*
X115229518Y-57745000D02*
G01*
X114792812Y-56596081D01*
X115120341Y-56596081D01*
X115340893Y-57253339D01*
X115360416Y-57325062D01*
X115370202Y-57376071D01*
X115380907Y-57450288D01*
X115384856Y-57490010D01*
X115393283Y-57490010D01*
X115401713Y-57410638D01*
X115416138Y-57336678D01*
X115437004Y-57261001D01*
X115439445Y-57253339D01*
X115659996Y-56596081D01*
X115987892Y-56596081D01*
X115550819Y-57745000D01*
X115229518Y-57745000D01*
G37*
G36*
X116854344Y-57745000D02*
G01*
X116537438Y-57745000D01*
X116537438Y-56888073D01*
X116538084Y-56813815D01*
X116539270Y-56748122D01*
X116541814Y-56670177D01*
X116545865Y-56593517D01*
X116500436Y-56638213D01*
X116444096Y-56688663D01*
X116436688Y-56695000D01*
X116264497Y-56832020D01*
X116110990Y-56642976D01*
X116594225Y-56244371D01*
X116854344Y-56244371D01*
X116854344Y-57745000D01*
G37*
G36*
X117307170Y-57592592D02*
G01*
X117317198Y-57518470D01*
X117359560Y-57455938D01*
X117425918Y-57424240D01*
X117487787Y-57416737D01*
X117563612Y-57429141D01*
X117613450Y-57455938D01*
X117656109Y-57518470D01*
X117666207Y-57592592D01*
X117654615Y-57668482D01*
X117613450Y-57727048D01*
X117547904Y-57760523D01*
X117487787Y-57768447D01*
X117413828Y-57756763D01*
X117359560Y-57727048D01*
X117317198Y-57664129D01*
X117307170Y-57592592D01*
G37*
G36*
X118652459Y-57745000D02*
G01*
X118335554Y-57745000D01*
X118335554Y-56888073D01*
X118336200Y-56813815D01*
X118337386Y-56748122D01*
X118339930Y-56670177D01*
X118343981Y-56593517D01*
X118298551Y-56638213D01*
X118242212Y-56688663D01*
X118234804Y-56695000D01*
X118062613Y-56832020D01*
X117909106Y-56642976D01*
X118392341Y-56244371D01*
X118652459Y-56244371D01*
X118652459Y-57745000D01*
G37*
G36*
X119613433Y-57167243D02*
G01*
X119611608Y-57246092D01*
X119606134Y-57323957D01*
X119597011Y-57400838D01*
X119584238Y-57476735D01*
X119567816Y-57551648D01*
X119547745Y-57625578D01*
X119538695Y-57654874D01*
X119513369Y-57726719D01*
X119483876Y-57796167D01*
X119450214Y-57863219D01*
X119412385Y-57927873D01*
X119370387Y-57990129D01*
X119324221Y-58049989D01*
X119304588Y-58073262D01*
X119050697Y-58073262D01*
X119093042Y-58011880D01*
X119132149Y-57948405D01*
X119168018Y-57882837D01*
X119200649Y-57815175D01*
X119230042Y-57745421D01*
X119256198Y-57673574D01*
X119265753Y-57644249D01*
X119287284Y-57570340D01*
X119305166Y-57496072D01*
X119319398Y-57421447D01*
X119329981Y-57346464D01*
X119336915Y-57271123D01*
X119340200Y-57195424D01*
X119340491Y-57165045D01*
X119338667Y-57087382D01*
X119333193Y-57010328D01*
X119324069Y-56933881D01*
X119311297Y-56858043D01*
X119294875Y-56782813D01*
X119274804Y-56708191D01*
X119265753Y-56678513D01*
X119240839Y-56605414D01*
X119212580Y-56534264D01*
X119180976Y-56465065D01*
X119146026Y-56397815D01*
X119107732Y-56332515D01*
X119066092Y-56269165D01*
X119048499Y-56244371D01*
X119304588Y-56244371D01*
X119352421Y-56305174D01*
X119396086Y-56368284D01*
X119435583Y-56433702D01*
X119470911Y-56501428D01*
X119502072Y-56571461D01*
X119529065Y-56643802D01*
X119538695Y-56673384D01*
X119560226Y-56748134D01*
X119578107Y-56823779D01*
X119592340Y-56900319D01*
X119602923Y-56977753D01*
X119609857Y-57056081D01*
X119613141Y-57135304D01*
X119613433Y-57167243D01*
G37*
G36*
X158290801Y-50280941D02*
G01*
X158367637Y-50296934D01*
X158440896Y-50323588D01*
X158455118Y-50330198D01*
X158521350Y-50371400D01*
X158578995Y-50426770D01*
X158623534Y-50488716D01*
X158636835Y-50511915D01*
X158666968Y-50581181D01*
X158688492Y-50661850D01*
X158700263Y-50741789D01*
X158705106Y-50817257D01*
X158705711Y-50857397D01*
X158705711Y-50994050D01*
X159245000Y-50994050D01*
X159245000Y-51310956D01*
X157744371Y-51310956D01*
X157744371Y-50848970D01*
X157997163Y-50848970D01*
X157997163Y-50994050D01*
X158452920Y-50994050D01*
X158452920Y-50888904D01*
X158447589Y-50810307D01*
X158429411Y-50736413D01*
X158398332Y-50675680D01*
X158342495Y-50624680D01*
X158271097Y-50600681D01*
X158220645Y-50596912D01*
X158144696Y-50605773D01*
X158075949Y-50638511D01*
X158028590Y-50695372D01*
X158002619Y-50776356D01*
X157997163Y-50848970D01*
X157744371Y-50848970D01*
X157744371Y-50832117D01*
X157747413Y-50745376D01*
X157756536Y-50666273D01*
X157775512Y-50581433D01*
X157803247Y-50507592D01*
X157846674Y-50435346D01*
X157868935Y-50408967D01*
X157927725Y-50357005D01*
X157995420Y-50317805D01*
X158072021Y-50291368D01*
X158144767Y-50278866D01*
X158210387Y-50275610D01*
X158290801Y-50280941D01*
G37*
G36*
X157650582Y-49859787D02*
G01*
X157662077Y-49784277D01*
X157683189Y-49740352D01*
X157745098Y-49696903D01*
X157802990Y-49689794D01*
X157875621Y-49702433D01*
X157922058Y-49740352D01*
X157950709Y-49810534D01*
X157955397Y-49859787D01*
X157944849Y-49933203D01*
X157922058Y-49980687D01*
X157859919Y-50022876D01*
X157802990Y-50029780D01*
X157729259Y-50017506D01*
X157683189Y-49980687D01*
X157655167Y-49910276D01*
X157650582Y-49859787D01*
G37*
G36*
X158096081Y-49704448D02*
G01*
X159245000Y-49704448D01*
X159245000Y-50017323D01*
X158096081Y-50017323D01*
X158096081Y-49704448D01*
G37*
G36*
X159268447Y-48910537D02*
G01*
X159264994Y-48987826D01*
X159251736Y-49073040D01*
X159228535Y-49150036D01*
X159195391Y-49218816D01*
X159152303Y-49279377D01*
X159127030Y-49306577D01*
X159068001Y-49354014D01*
X158997251Y-49391636D01*
X158914781Y-49419444D01*
X158837102Y-49435120D01*
X158751284Y-49443980D01*
X158676769Y-49446161D01*
X158600377Y-49443650D01*
X158518189Y-49434371D01*
X158443469Y-49418255D01*
X158367219Y-49391464D01*
X158332752Y-49374720D01*
X158270448Y-49335542D01*
X158210810Y-49283201D01*
X158162243Y-49222108D01*
X158136015Y-49176517D01*
X158105377Y-49101936D01*
X158086560Y-49030483D01*
X158075667Y-48954176D01*
X158072634Y-48883426D01*
X158075361Y-48806167D01*
X158084557Y-48730081D01*
X158095715Y-48678628D01*
X158117523Y-48606540D01*
X158146398Y-48534458D01*
X158150303Y-48526221D01*
X158397599Y-48618911D01*
X158368931Y-48689894D01*
X158345942Y-48756297D01*
X158329352Y-48828078D01*
X158325425Y-48883426D01*
X158337738Y-48966223D01*
X158374678Y-49031889D01*
X158436245Y-49080425D01*
X158506362Y-49107786D01*
X158593581Y-49123251D01*
X158675669Y-49127058D01*
X158757140Y-49123051D01*
X158835109Y-49108964D01*
X158904747Y-49081415D01*
X158932857Y-49062944D01*
X158983312Y-49007646D01*
X159010481Y-48937923D01*
X159015655Y-48883426D01*
X159011302Y-48806924D01*
X158996876Y-48733194D01*
X158989277Y-48709036D01*
X158960120Y-48639168D01*
X158922108Y-48571070D01*
X158916371Y-48562124D01*
X159184183Y-48562124D01*
X159220794Y-48630710D01*
X159246136Y-48702516D01*
X159248663Y-48712334D01*
X159262187Y-48789040D01*
X159267751Y-48867178D01*
X159268447Y-48910537D01*
G37*
G36*
X158755014Y-47260436D02*
G01*
X158835281Y-47271437D01*
X158909144Y-47289774D01*
X158989327Y-47321458D01*
X159060287Y-47363705D01*
X159112376Y-47406978D01*
X159165415Y-47467106D01*
X159207482Y-47534833D01*
X159238574Y-47610160D01*
X159258692Y-47693085D01*
X159267075Y-47767995D01*
X159268447Y-47815474D01*
X159264096Y-47893006D01*
X159251045Y-47966233D01*
X159225961Y-48043468D01*
X159198838Y-48099773D01*
X159154405Y-48165815D01*
X159099829Y-48223395D01*
X159035110Y-48272513D01*
X158994773Y-48296144D01*
X158924087Y-48327399D01*
X158846120Y-48349725D01*
X158771926Y-48361934D01*
X158692157Y-48367306D01*
X158668342Y-48367585D01*
X158581830Y-48363945D01*
X158501811Y-48353023D01*
X158428286Y-48334822D01*
X158348627Y-48303369D01*
X158278320Y-48261431D01*
X158226873Y-48218475D01*
X158174456Y-48158643D01*
X158132884Y-48090980D01*
X158102156Y-48015486D01*
X158082274Y-47932161D01*
X158073989Y-47856742D01*
X158072758Y-47813276D01*
X158325425Y-47813276D01*
X158335555Y-47890358D01*
X158369713Y-47956080D01*
X158411154Y-47992794D01*
X158480223Y-48024499D01*
X158551804Y-48040651D01*
X158626817Y-48047612D01*
X158668342Y-48048482D01*
X158748851Y-48045001D01*
X158826942Y-48032765D01*
X158898211Y-48008837D01*
X158927728Y-47992794D01*
X158981309Y-47941137D01*
X159010160Y-47869696D01*
X159015655Y-47811078D01*
X159005266Y-47733996D01*
X158970232Y-47668274D01*
X158927728Y-47631559D01*
X158857408Y-47599854D01*
X158785189Y-47583703D01*
X158709902Y-47576742D01*
X158668342Y-47575872D01*
X158587971Y-47579352D01*
X158510363Y-47591588D01*
X158440038Y-47615516D01*
X158411154Y-47631559D01*
X158358913Y-47683217D01*
X158330783Y-47754658D01*
X158325425Y-47813276D01*
X158072758Y-47813276D01*
X158072634Y-47808879D01*
X158077007Y-47730455D01*
X158090128Y-47656747D01*
X158115344Y-47579464D01*
X158142609Y-47523482D01*
X158186778Y-47457971D01*
X158240974Y-47400748D01*
X158305197Y-47351814D01*
X158345209Y-47328210D01*
X158415276Y-47296954D01*
X158492487Y-47274629D01*
X158565908Y-47262420D01*
X158644798Y-47257048D01*
X158668342Y-47256769D01*
X158755014Y-47260436D01*
G37*
G36*
X158572166Y-45733512D02*
G01*
X158658427Y-45743661D01*
X158738816Y-45760577D01*
X158813331Y-45784259D01*
X158881973Y-45814707D01*
X158959516Y-45862283D01*
X159027881Y-45920431D01*
X159052658Y-45946650D01*
X159108069Y-46018349D01*
X159145636Y-46081684D01*
X159177192Y-46150331D01*
X159202737Y-46224291D01*
X159222272Y-46303563D01*
X159235796Y-46388147D01*
X159243309Y-46478044D01*
X159245000Y-46548953D01*
X159245000Y-46973203D01*
X157744371Y-46973203D01*
X157744371Y-46502791D01*
X157744951Y-46485938D01*
X157997163Y-46485938D01*
X157997163Y-46656297D01*
X158992208Y-46656297D01*
X158992208Y-46519644D01*
X158987787Y-46437475D01*
X158974524Y-46363388D01*
X158943085Y-46277178D01*
X158895927Y-46205336D01*
X158833050Y-46147863D01*
X158754453Y-46104758D01*
X158660138Y-46076021D01*
X158579085Y-46063898D01*
X158489190Y-46059856D01*
X158413545Y-46062522D01*
X158331319Y-46072757D01*
X158258418Y-46090669D01*
X158185153Y-46121268D01*
X158116964Y-46169033D01*
X158064551Y-46229781D01*
X158027113Y-46302848D01*
X158006639Y-46376886D01*
X157997631Y-46460357D01*
X157997163Y-46485938D01*
X157744951Y-46485938D01*
X157747334Y-46416765D01*
X157756221Y-46335093D01*
X157771033Y-46257775D01*
X157791770Y-46184810D01*
X157818431Y-46116198D01*
X157828635Y-46094295D01*
X157869180Y-46022214D01*
X157917403Y-45957602D01*
X157973304Y-45900458D01*
X158036885Y-45850783D01*
X158076664Y-45825750D01*
X158151940Y-45788491D01*
X158222239Y-45763839D01*
X158297870Y-45745910D01*
X158378834Y-45734704D01*
X158465130Y-45730222D01*
X158480031Y-45730129D01*
X158572166Y-45733512D01*
G37*
G36*
X159245000Y-44716399D02*
G01*
X159089295Y-44777215D01*
X159089295Y-44785642D01*
X159147757Y-44837264D01*
X159197809Y-44895851D01*
X159225949Y-44941346D01*
X159251846Y-45011225D01*
X159265085Y-45090396D01*
X159268447Y-45165928D01*
X159262883Y-45239223D01*
X159243321Y-45313853D01*
X159209675Y-45380195D01*
X159179420Y-45419818D01*
X159121225Y-45468521D01*
X159047207Y-45501284D01*
X158968130Y-45517026D01*
X158900617Y-45520568D01*
X158824497Y-45514450D01*
X158748923Y-45492474D01*
X158685530Y-45454515D01*
X158634320Y-45400574D01*
X158628775Y-45392707D01*
X158590627Y-45320602D01*
X158566189Y-45244399D01*
X158551883Y-45169343D01*
X158543709Y-45085297D01*
X158541580Y-45008391D01*
X158541580Y-44930722D01*
X158729159Y-44930722D01*
X158733013Y-45008353D01*
X158748192Y-45083478D01*
X158777885Y-45140648D01*
X158838342Y-45186387D01*
X158906113Y-45199267D01*
X158979630Y-45181280D01*
X159004665Y-45157501D01*
X159031111Y-45087795D01*
X159033974Y-45048325D01*
X159024662Y-44971428D01*
X158993807Y-44900382D01*
X158977554Y-44877965D01*
X158919280Y-44830631D01*
X158843195Y-44809804D01*
X158818185Y-44808722D01*
X158729159Y-44808722D01*
X158729159Y-44930722D01*
X158541580Y-44930722D01*
X158541580Y-44808722D01*
X158488824Y-44808722D01*
X158411662Y-44819107D01*
X158351071Y-44855983D01*
X158315522Y-44920744D01*
X158307107Y-44987142D01*
X158312500Y-45065173D01*
X158328681Y-45141272D01*
X158331653Y-45151273D01*
X158355055Y-45220907D01*
X158382944Y-45290680D01*
X158391737Y-45310642D01*
X158178513Y-45413590D01*
X158145420Y-45342527D01*
X158119701Y-45271773D01*
X158101943Y-45209891D01*
X158086487Y-45138121D01*
X158076755Y-45064777D01*
X158072748Y-44989858D01*
X158072634Y-44974685D01*
X158076150Y-44891807D01*
X158086699Y-44816553D01*
X158107894Y-44738395D01*
X158138661Y-44670615D01*
X158172651Y-44620778D01*
X158229300Y-44567082D01*
X158299230Y-44528729D01*
X158371313Y-44507754D01*
X158453564Y-44498525D01*
X158478932Y-44498046D01*
X159245000Y-44498046D01*
X159245000Y-44716399D01*
G37*
G36*
X157650582Y-44019940D02*
G01*
X157662077Y-43944431D01*
X157683189Y-43900505D01*
X157745098Y-43857057D01*
X157802990Y-43849947D01*
X157875621Y-43862587D01*
X157922058Y-43900505D01*
X157950709Y-43970687D01*
X157955397Y-44019940D01*
X157944849Y-44093356D01*
X157922058Y-44140840D01*
X157859919Y-44183030D01*
X157802990Y-44189933D01*
X157729259Y-44177660D01*
X157683189Y-44140840D01*
X157655167Y-44070430D01*
X157650582Y-44019940D01*
G37*
G36*
X158096081Y-43864602D02*
G01*
X159245000Y-43864602D01*
X159245000Y-44177477D01*
X158096081Y-44177477D01*
X158096081Y-43864602D01*
G37*
G36*
X158905746Y-42736933D02*
G01*
X158988224Y-42744626D01*
X159060535Y-42767707D01*
X159129733Y-42812066D01*
X159174658Y-42860031D01*
X159215690Y-42928953D01*
X159241977Y-43001657D01*
X159259288Y-43085932D01*
X159266981Y-43167376D01*
X159268447Y-43226395D01*
X159266542Y-43304567D01*
X159260119Y-43380860D01*
X159252327Y-43431926D01*
X159234685Y-43507259D01*
X159211397Y-43577212D01*
X159200669Y-43604117D01*
X158938353Y-43604117D01*
X158967393Y-43532813D01*
X158992414Y-43457388D01*
X159006863Y-43404815D01*
X159023383Y-43327912D01*
X159032676Y-43252741D01*
X159033974Y-43215771D01*
X159028017Y-43142124D01*
X159006863Y-43085711D01*
X158943219Y-43046129D01*
X158935055Y-43045778D01*
X158882665Y-43061531D01*
X158835353Y-43120174D01*
X158829909Y-43129675D01*
X158796295Y-43196811D01*
X158765434Y-43266518D01*
X158754071Y-43293440D01*
X158722465Y-43363693D01*
X158688281Y-43429373D01*
X158662847Y-43471127D01*
X158612746Y-43530661D01*
X158553304Y-43572976D01*
X158481038Y-43597980D01*
X158404432Y-43606185D01*
X158392470Y-43606315D01*
X158317434Y-43598575D01*
X158245006Y-43571366D01*
X158185272Y-43524567D01*
X158152501Y-43482484D01*
X158117559Y-43415439D01*
X158092601Y-43338136D01*
X158078951Y-43262081D01*
X158072946Y-43178172D01*
X158072634Y-43152756D01*
X158075674Y-43073965D01*
X158084793Y-42998059D01*
X158094249Y-42949057D01*
X158114428Y-42875641D01*
X158139895Y-42806805D01*
X158165690Y-42749389D01*
X158396866Y-42843911D01*
X158365911Y-42915959D01*
X158339725Y-42984641D01*
X158333119Y-43003646D01*
X158314448Y-43074883D01*
X158307132Y-43151934D01*
X158307107Y-43156786D01*
X158314513Y-43230009D01*
X158357172Y-43290757D01*
X158382944Y-43295638D01*
X158432770Y-43277686D01*
X158475320Y-43217767D01*
X158480031Y-43208443D01*
X158511646Y-43139702D01*
X158542241Y-43068438D01*
X158547442Y-43056036D01*
X158577856Y-42985934D01*
X158611851Y-42918596D01*
X158630607Y-42886043D01*
X158676046Y-42826231D01*
X158735340Y-42778226D01*
X158739417Y-42775767D01*
X158808443Y-42747893D01*
X158881028Y-42737539D01*
X158905746Y-42736933D01*
G37*
G36*
X158096081Y-42657431D02*
G01*
X158096081Y-42315247D01*
X158750041Y-42098726D01*
X158823337Y-42078393D01*
X158847861Y-42073813D01*
X158921649Y-42063782D01*
X158952274Y-42060990D01*
X158952274Y-42054762D01*
X158879152Y-42044120D01*
X158847861Y-42037909D01*
X158774427Y-42018675D01*
X158750041Y-42010799D01*
X158096081Y-41798674D01*
X158096081Y-41462351D01*
X159400704Y-41947784D01*
X159475234Y-41979833D01*
X159541103Y-42017317D01*
X159605778Y-42066811D01*
X159659141Y-42123403D01*
X159670715Y-42138660D01*
X159710145Y-42203071D01*
X159738309Y-42272474D01*
X159755208Y-42346869D01*
X159760840Y-42426256D01*
X159757710Y-42501613D01*
X159755711Y-42518946D01*
X159744720Y-42585990D01*
X159495593Y-42585990D01*
X159503653Y-42531402D01*
X159508049Y-42462159D01*
X159498133Y-42388979D01*
X159462047Y-42321670D01*
X159447965Y-42306821D01*
X159386587Y-42259621D01*
X159319568Y-42226462D01*
X159303984Y-42220725D01*
X159247198Y-42201674D01*
X158096081Y-42657431D01*
G37*
D10*
X103991541Y-58166414D02*
X103991541Y-58702128D01*
X103991541Y-58702128D02*
X103955826Y-58809271D01*
X103955826Y-58809271D02*
X103884398Y-58880700D01*
X103884398Y-58880700D02*
X103777255Y-58916414D01*
X103777255Y-58916414D02*
X103705826Y-58916414D01*
X104670113Y-58916414D02*
X104670113Y-58523557D01*
X104670113Y-58523557D02*
X104634398Y-58452128D01*
X104634398Y-58452128D02*
X104562970Y-58416414D01*
X104562970Y-58416414D02*
X104420113Y-58416414D01*
X104420113Y-58416414D02*
X104348684Y-58452128D01*
X104670113Y-58880700D02*
X104598684Y-58916414D01*
X104598684Y-58916414D02*
X104420113Y-58916414D01*
X104420113Y-58916414D02*
X104348684Y-58880700D01*
X104348684Y-58880700D02*
X104312970Y-58809271D01*
X104312970Y-58809271D02*
X104312970Y-58737842D01*
X104312970Y-58737842D02*
X104348684Y-58666414D01*
X104348684Y-58666414D02*
X104420113Y-58630700D01*
X104420113Y-58630700D02*
X104598684Y-58630700D01*
X104598684Y-58630700D02*
X104670113Y-58594985D01*
X104991541Y-58880700D02*
X105062969Y-58916414D01*
X105062969Y-58916414D02*
X105205826Y-58916414D01*
X105205826Y-58916414D02*
X105277255Y-58880700D01*
X105277255Y-58880700D02*
X105312969Y-58809271D01*
X105312969Y-58809271D02*
X105312969Y-58773557D01*
X105312969Y-58773557D02*
X105277255Y-58702128D01*
X105277255Y-58702128D02*
X105205826Y-58666414D01*
X105205826Y-58666414D02*
X105098684Y-58666414D01*
X105098684Y-58666414D02*
X105027255Y-58630700D01*
X105027255Y-58630700D02*
X104991541Y-58559271D01*
X104991541Y-58559271D02*
X104991541Y-58523557D01*
X104991541Y-58523557D02*
X105027255Y-58452128D01*
X105027255Y-58452128D02*
X105098684Y-58416414D01*
X105098684Y-58416414D02*
X105205826Y-58416414D01*
X105205826Y-58416414D02*
X105277255Y-58452128D01*
X105741541Y-58916414D02*
X105670112Y-58880700D01*
X105670112Y-58880700D02*
X105634398Y-58844985D01*
X105634398Y-58844985D02*
X105598684Y-58773557D01*
X105598684Y-58773557D02*
X105598684Y-58559271D01*
X105598684Y-58559271D02*
X105634398Y-58487842D01*
X105634398Y-58487842D02*
X105670112Y-58452128D01*
X105670112Y-58452128D02*
X105741541Y-58416414D01*
X105741541Y-58416414D02*
X105848684Y-58416414D01*
X105848684Y-58416414D02*
X105920112Y-58452128D01*
X105920112Y-58452128D02*
X105955827Y-58487842D01*
X105955827Y-58487842D02*
X105991541Y-58559271D01*
X105991541Y-58559271D02*
X105991541Y-58773557D01*
X105991541Y-58773557D02*
X105955827Y-58844985D01*
X105955827Y-58844985D02*
X105920112Y-58880700D01*
X105920112Y-58880700D02*
X105848684Y-58916414D01*
X105848684Y-58916414D02*
X105741541Y-58916414D01*
X106312969Y-58416414D02*
X106312969Y-58916414D01*
X106312969Y-58487842D02*
X106348683Y-58452128D01*
X106348683Y-58452128D02*
X106420112Y-58416414D01*
X106420112Y-58416414D02*
X106527255Y-58416414D01*
X106527255Y-58416414D02*
X106598683Y-58452128D01*
X106598683Y-58452128D02*
X106634398Y-58523557D01*
X106634398Y-58523557D02*
X106634398Y-58916414D01*
X107527255Y-58702128D02*
X107884398Y-58702128D01*
X107455826Y-58916414D02*
X107705826Y-58166414D01*
X107705826Y-58166414D02*
X107955826Y-58916414D01*
X108312969Y-58916414D02*
X108241540Y-58880700D01*
X108241540Y-58880700D02*
X108205826Y-58809271D01*
X108205826Y-58809271D02*
X108205826Y-58166414D01*
X108884397Y-58880700D02*
X108812969Y-58916414D01*
X108812969Y-58916414D02*
X108670112Y-58916414D01*
X108670112Y-58916414D02*
X108598683Y-58880700D01*
X108598683Y-58880700D02*
X108562969Y-58809271D01*
X108562969Y-58809271D02*
X108562969Y-58523557D01*
X108562969Y-58523557D02*
X108598683Y-58452128D01*
X108598683Y-58452128D02*
X108670112Y-58416414D01*
X108670112Y-58416414D02*
X108812969Y-58416414D01*
X108812969Y-58416414D02*
X108884397Y-58452128D01*
X108884397Y-58452128D02*
X108920112Y-58523557D01*
X108920112Y-58523557D02*
X108920112Y-58594985D01*
X108920112Y-58594985D02*
X108562969Y-58666414D01*
X109170111Y-58916414D02*
X109562969Y-58416414D01*
X109170111Y-58416414D02*
X109562969Y-58916414D01*
X110170112Y-58916414D02*
X110170112Y-58523557D01*
X110170112Y-58523557D02*
X110134397Y-58452128D01*
X110134397Y-58452128D02*
X110062969Y-58416414D01*
X110062969Y-58416414D02*
X109920112Y-58416414D01*
X109920112Y-58416414D02*
X109848683Y-58452128D01*
X110170112Y-58880700D02*
X110098683Y-58916414D01*
X110098683Y-58916414D02*
X109920112Y-58916414D01*
X109920112Y-58916414D02*
X109848683Y-58880700D01*
X109848683Y-58880700D02*
X109812969Y-58809271D01*
X109812969Y-58809271D02*
X109812969Y-58737842D01*
X109812969Y-58737842D02*
X109848683Y-58666414D01*
X109848683Y-58666414D02*
X109920112Y-58630700D01*
X109920112Y-58630700D02*
X110098683Y-58630700D01*
X110098683Y-58630700D02*
X110170112Y-58594985D01*
X110527254Y-58416414D02*
X110527254Y-58916414D01*
X110527254Y-58487842D02*
X110562968Y-58452128D01*
X110562968Y-58452128D02*
X110634397Y-58416414D01*
X110634397Y-58416414D02*
X110741540Y-58416414D01*
X110741540Y-58416414D02*
X110812968Y-58452128D01*
X110812968Y-58452128D02*
X110848683Y-58523557D01*
X110848683Y-58523557D02*
X110848683Y-58916414D01*
X111527254Y-58916414D02*
X111527254Y-58166414D01*
X111527254Y-58880700D02*
X111455825Y-58916414D01*
X111455825Y-58916414D02*
X111312968Y-58916414D01*
X111312968Y-58916414D02*
X111241539Y-58880700D01*
X111241539Y-58880700D02*
X111205825Y-58844985D01*
X111205825Y-58844985D02*
X111170111Y-58773557D01*
X111170111Y-58773557D02*
X111170111Y-58559271D01*
X111170111Y-58559271D02*
X111205825Y-58487842D01*
X111205825Y-58487842D02*
X111241539Y-58452128D01*
X111241539Y-58452128D02*
X111312968Y-58416414D01*
X111312968Y-58416414D02*
X111455825Y-58416414D01*
X111455825Y-58416414D02*
X111527254Y-58452128D01*
X112170110Y-58880700D02*
X112098682Y-58916414D01*
X112098682Y-58916414D02*
X111955825Y-58916414D01*
X111955825Y-58916414D02*
X111884396Y-58880700D01*
X111884396Y-58880700D02*
X111848682Y-58809271D01*
X111848682Y-58809271D02*
X111848682Y-58523557D01*
X111848682Y-58523557D02*
X111884396Y-58452128D01*
X111884396Y-58452128D02*
X111955825Y-58416414D01*
X111955825Y-58416414D02*
X112098682Y-58416414D01*
X112098682Y-58416414D02*
X112170110Y-58452128D01*
X112170110Y-58452128D02*
X112205825Y-58523557D01*
X112205825Y-58523557D02*
X112205825Y-58594985D01*
X112205825Y-58594985D02*
X111848682Y-58666414D01*
X112527253Y-58916414D02*
X112527253Y-58416414D01*
X112527253Y-58559271D02*
X112562967Y-58487842D01*
X112562967Y-58487842D02*
X112598682Y-58452128D01*
X112598682Y-58452128D02*
X112670110Y-58416414D01*
X112670110Y-58416414D02*
X112741539Y-58416414D01*
X153521580Y-57951666D02*
X153569200Y-57999285D01*
X153569200Y-57999285D02*
X153616819Y-58142142D01*
X153616819Y-58142142D02*
X153616819Y-58237380D01*
X153616819Y-58237380D02*
X153569200Y-58380237D01*
X153569200Y-58380237D02*
X153473961Y-58475475D01*
X153473961Y-58475475D02*
X153378723Y-58523094D01*
X153378723Y-58523094D02*
X153188247Y-58570713D01*
X153188247Y-58570713D02*
X153045390Y-58570713D01*
X153045390Y-58570713D02*
X152854914Y-58523094D01*
X152854914Y-58523094D02*
X152759676Y-58475475D01*
X152759676Y-58475475D02*
X152664438Y-58380237D01*
X152664438Y-58380237D02*
X152616819Y-58237380D01*
X152616819Y-58237380D02*
X152616819Y-58142142D01*
X152616819Y-58142142D02*
X152664438Y-57999285D01*
X152664438Y-57999285D02*
X152712057Y-57951666D01*
X152950152Y-57094523D02*
X153616819Y-57094523D01*
X152569200Y-57332618D02*
X153283485Y-57570713D01*
X153283485Y-57570713D02*
X153283485Y-56951666D01*
X149561714Y-55823295D02*
X149637904Y-55823295D01*
X149637904Y-55823295D02*
X149714095Y-55861390D01*
X149714095Y-55861390D02*
X149752190Y-55899485D01*
X149752190Y-55899485D02*
X149790285Y-55975676D01*
X149790285Y-55975676D02*
X149828380Y-56128057D01*
X149828380Y-56128057D02*
X149828380Y-56318533D01*
X149828380Y-56318533D02*
X149790285Y-56470914D01*
X149790285Y-56470914D02*
X149752190Y-56547104D01*
X149752190Y-56547104D02*
X149714095Y-56585200D01*
X149714095Y-56585200D02*
X149637904Y-56623295D01*
X149637904Y-56623295D02*
X149561714Y-56623295D01*
X149561714Y-56623295D02*
X149485523Y-56585200D01*
X149485523Y-56585200D02*
X149447428Y-56547104D01*
X149447428Y-56547104D02*
X149409333Y-56470914D01*
X149409333Y-56470914D02*
X149371237Y-56318533D01*
X149371237Y-56318533D02*
X149371237Y-56128057D01*
X149371237Y-56128057D02*
X149409333Y-55975676D01*
X149409333Y-55975676D02*
X149447428Y-55899485D01*
X149447428Y-55899485D02*
X149485523Y-55861390D01*
X149485523Y-55861390D02*
X149561714Y-55823295D01*
X150171238Y-56547104D02*
X150209333Y-56585200D01*
X150209333Y-56585200D02*
X150171238Y-56623295D01*
X150171238Y-56623295D02*
X150133142Y-56585200D01*
X150133142Y-56585200D02*
X150171238Y-56547104D01*
X150171238Y-56547104D02*
X150171238Y-56623295D01*
X150971237Y-56623295D02*
X150514094Y-56623295D01*
X150742666Y-56623295D02*
X150742666Y-55823295D01*
X150742666Y-55823295D02*
X150666475Y-55937580D01*
X150666475Y-55937580D02*
X150590285Y-56013771D01*
X150590285Y-56013771D02*
X150514094Y-56051866D01*
X151656952Y-56089961D02*
X151656952Y-56623295D01*
X151314095Y-56089961D02*
X151314095Y-56509009D01*
X151314095Y-56509009D02*
X151352190Y-56585200D01*
X151352190Y-56585200D02*
X151428380Y-56623295D01*
X151428380Y-56623295D02*
X151542666Y-56623295D01*
X151542666Y-56623295D02*
X151618857Y-56585200D01*
X151618857Y-56585200D02*
X151656952Y-56547104D01*
X152304571Y-56204247D02*
X152037905Y-56204247D01*
X152037905Y-56623295D02*
X152037905Y-55823295D01*
X152037905Y-55823295D02*
X152418857Y-55823295D01*
X119009819Y-55470904D02*
X119819342Y-55470904D01*
X119819342Y-55470904D02*
X119914580Y-55423285D01*
X119914580Y-55423285D02*
X119962200Y-55375666D01*
X119962200Y-55375666D02*
X120009819Y-55280428D01*
X120009819Y-55280428D02*
X120009819Y-55089952D01*
X120009819Y-55089952D02*
X119962200Y-54994714D01*
X119962200Y-54994714D02*
X119914580Y-54947095D01*
X119914580Y-54947095D02*
X119819342Y-54899476D01*
X119819342Y-54899476D02*
X119009819Y-54899476D01*
X119105057Y-54470904D02*
X119057438Y-54423285D01*
X119057438Y-54423285D02*
X119009819Y-54328047D01*
X119009819Y-54328047D02*
X119009819Y-54089952D01*
X119009819Y-54089952D02*
X119057438Y-53994714D01*
X119057438Y-53994714D02*
X119105057Y-53947095D01*
X119105057Y-53947095D02*
X119200295Y-53899476D01*
X119200295Y-53899476D02*
X119295533Y-53899476D01*
X119295533Y-53899476D02*
X119438390Y-53947095D01*
X119438390Y-53947095D02*
X120009819Y-54518523D01*
X120009819Y-54518523D02*
X120009819Y-53899476D01*
X124949295Y-56489190D02*
X124149295Y-56489190D01*
X124149295Y-56489190D02*
X124149295Y-56184428D01*
X124149295Y-56184428D02*
X124187390Y-56108238D01*
X124187390Y-56108238D02*
X124225485Y-56070143D01*
X124225485Y-56070143D02*
X124301676Y-56032047D01*
X124301676Y-56032047D02*
X124415961Y-56032047D01*
X124415961Y-56032047D02*
X124492152Y-56070143D01*
X124492152Y-56070143D02*
X124530247Y-56108238D01*
X124530247Y-56108238D02*
X124568342Y-56184428D01*
X124568342Y-56184428D02*
X124568342Y-56489190D01*
X124873104Y-55232047D02*
X124911200Y-55270143D01*
X124911200Y-55270143D02*
X124949295Y-55384428D01*
X124949295Y-55384428D02*
X124949295Y-55460619D01*
X124949295Y-55460619D02*
X124911200Y-55574905D01*
X124911200Y-55574905D02*
X124835009Y-55651095D01*
X124835009Y-55651095D02*
X124758819Y-55689190D01*
X124758819Y-55689190D02*
X124606438Y-55727286D01*
X124606438Y-55727286D02*
X124492152Y-55727286D01*
X124492152Y-55727286D02*
X124339771Y-55689190D01*
X124339771Y-55689190D02*
X124263580Y-55651095D01*
X124263580Y-55651095D02*
X124187390Y-55574905D01*
X124187390Y-55574905D02*
X124149295Y-55460619D01*
X124149295Y-55460619D02*
X124149295Y-55384428D01*
X124149295Y-55384428D02*
X124187390Y-55270143D01*
X124187390Y-55270143D02*
X124225485Y-55232047D01*
X124720723Y-54927286D02*
X124720723Y-54546333D01*
X124949295Y-55003476D02*
X124149295Y-54736809D01*
X124149295Y-54736809D02*
X124949295Y-54470143D01*
X124949295Y-54165381D02*
X124949295Y-54013000D01*
X124949295Y-54013000D02*
X124911200Y-53936810D01*
X124911200Y-53936810D02*
X124873104Y-53898714D01*
X124873104Y-53898714D02*
X124758819Y-53822524D01*
X124758819Y-53822524D02*
X124606438Y-53784429D01*
X124606438Y-53784429D02*
X124301676Y-53784429D01*
X124301676Y-53784429D02*
X124225485Y-53822524D01*
X124225485Y-53822524D02*
X124187390Y-53860619D01*
X124187390Y-53860619D02*
X124149295Y-53936810D01*
X124149295Y-53936810D02*
X124149295Y-54089191D01*
X124149295Y-54089191D02*
X124187390Y-54165381D01*
X124187390Y-54165381D02*
X124225485Y-54203476D01*
X124225485Y-54203476D02*
X124301676Y-54241572D01*
X124301676Y-54241572D02*
X124492152Y-54241572D01*
X124492152Y-54241572D02*
X124568342Y-54203476D01*
X124568342Y-54203476D02*
X124606438Y-54165381D01*
X124606438Y-54165381D02*
X124644533Y-54089191D01*
X124644533Y-54089191D02*
X124644533Y-53936810D01*
X124644533Y-53936810D02*
X124606438Y-53860619D01*
X124606438Y-53860619D02*
X124568342Y-53822524D01*
X124568342Y-53822524D02*
X124492152Y-53784429D01*
X124149295Y-53098714D02*
X124149295Y-53251095D01*
X124149295Y-53251095D02*
X124187390Y-53327286D01*
X124187390Y-53327286D02*
X124225485Y-53365381D01*
X124225485Y-53365381D02*
X124339771Y-53441571D01*
X124339771Y-53441571D02*
X124492152Y-53479667D01*
X124492152Y-53479667D02*
X124796914Y-53479667D01*
X124796914Y-53479667D02*
X124873104Y-53441571D01*
X124873104Y-53441571D02*
X124911200Y-53403476D01*
X124911200Y-53403476D02*
X124949295Y-53327286D01*
X124949295Y-53327286D02*
X124949295Y-53174905D01*
X124949295Y-53174905D02*
X124911200Y-53098714D01*
X124911200Y-53098714D02*
X124873104Y-53060619D01*
X124873104Y-53060619D02*
X124796914Y-53022524D01*
X124796914Y-53022524D02*
X124606438Y-53022524D01*
X124606438Y-53022524D02*
X124530247Y-53060619D01*
X124530247Y-53060619D02*
X124492152Y-53098714D01*
X124492152Y-53098714D02*
X124454057Y-53174905D01*
X124454057Y-53174905D02*
X124454057Y-53327286D01*
X124454057Y-53327286D02*
X124492152Y-53403476D01*
X124492152Y-53403476D02*
X124530247Y-53441571D01*
X124530247Y-53441571D02*
X124606438Y-53479667D01*
X124949295Y-52260619D02*
X124949295Y-52717762D01*
X124949295Y-52489190D02*
X124149295Y-52489190D01*
X124149295Y-52489190D02*
X124263580Y-52565381D01*
X124263580Y-52565381D02*
X124339771Y-52641571D01*
X124339771Y-52641571D02*
X124377866Y-52717762D01*
X124149295Y-51536809D02*
X124149295Y-51917761D01*
X124149295Y-51917761D02*
X124530247Y-51955857D01*
X124530247Y-51955857D02*
X124492152Y-51917761D01*
X124492152Y-51917761D02*
X124454057Y-51841571D01*
X124454057Y-51841571D02*
X124454057Y-51651095D01*
X124454057Y-51651095D02*
X124492152Y-51574904D01*
X124492152Y-51574904D02*
X124530247Y-51536809D01*
X124530247Y-51536809D02*
X124606438Y-51498714D01*
X124606438Y-51498714D02*
X124796914Y-51498714D01*
X124796914Y-51498714D02*
X124873104Y-51536809D01*
X124873104Y-51536809D02*
X124911200Y-51574904D01*
X124911200Y-51574904D02*
X124949295Y-51651095D01*
X124949295Y-51651095D02*
X124949295Y-51841571D01*
X124949295Y-51841571D02*
X124911200Y-51917761D01*
X124911200Y-51917761D02*
X124873104Y-51955857D01*
X124949295Y-51155856D02*
X124149295Y-51155856D01*
X124149295Y-51155856D02*
X124149295Y-50965380D01*
X124149295Y-50965380D02*
X124187390Y-50851094D01*
X124187390Y-50851094D02*
X124263580Y-50774904D01*
X124263580Y-50774904D02*
X124339771Y-50736809D01*
X124339771Y-50736809D02*
X124492152Y-50698713D01*
X124492152Y-50698713D02*
X124606438Y-50698713D01*
X124606438Y-50698713D02*
X124758819Y-50736809D01*
X124758819Y-50736809D02*
X124835009Y-50774904D01*
X124835009Y-50774904D02*
X124911200Y-50851094D01*
X124911200Y-50851094D02*
X124949295Y-50965380D01*
X124949295Y-50965380D02*
X124949295Y-51155856D01*
X124949295Y-50355856D02*
X124149295Y-50355856D01*
X124149295Y-50355856D02*
X124149295Y-50051094D01*
X124149295Y-50051094D02*
X124187390Y-49974904D01*
X124187390Y-49974904D02*
X124225485Y-49936809D01*
X124225485Y-49936809D02*
X124301676Y-49898713D01*
X124301676Y-49898713D02*
X124415961Y-49898713D01*
X124415961Y-49898713D02*
X124492152Y-49936809D01*
X124492152Y-49936809D02*
X124530247Y-49974904D01*
X124530247Y-49974904D02*
X124568342Y-50051094D01*
X124568342Y-50051094D02*
X124568342Y-50355856D01*
X119661666Y-90358819D02*
X119661666Y-91073104D01*
X119661666Y-91073104D02*
X119614047Y-91215961D01*
X119614047Y-91215961D02*
X119518809Y-91311200D01*
X119518809Y-91311200D02*
X119375952Y-91358819D01*
X119375952Y-91358819D02*
X119280714Y-91358819D01*
X120566428Y-90358819D02*
X120375952Y-90358819D01*
X120375952Y-90358819D02*
X120280714Y-90406438D01*
X120280714Y-90406438D02*
X120233095Y-90454057D01*
X120233095Y-90454057D02*
X120137857Y-90596914D01*
X120137857Y-90596914D02*
X120090238Y-90787390D01*
X120090238Y-90787390D02*
X120090238Y-91168342D01*
X120090238Y-91168342D02*
X120137857Y-91263580D01*
X120137857Y-91263580D02*
X120185476Y-91311200D01*
X120185476Y-91311200D02*
X120280714Y-91358819D01*
X120280714Y-91358819D02*
X120471190Y-91358819D01*
X120471190Y-91358819D02*
X120566428Y-91311200D01*
X120566428Y-91311200D02*
X120614047Y-91263580D01*
X120614047Y-91263580D02*
X120661666Y-91168342D01*
X120661666Y-91168342D02*
X120661666Y-90930247D01*
X120661666Y-90930247D02*
X120614047Y-90835009D01*
X120614047Y-90835009D02*
X120566428Y-90787390D01*
X120566428Y-90787390D02*
X120471190Y-90739771D01*
X120471190Y-90739771D02*
X120280714Y-90739771D01*
X120280714Y-90739771D02*
X120185476Y-90787390D01*
X120185476Y-90787390D02*
X120137857Y-90835009D01*
X120137857Y-90835009D02*
X120090238Y-90930247D01*
X126423866Y-96475904D02*
X126423866Y-95714000D01*
X126804819Y-96094952D02*
X126042914Y-96094952D01*
X126804819Y-94714000D02*
X126804819Y-95285428D01*
X126804819Y-94999714D02*
X125804819Y-94999714D01*
X125804819Y-94999714D02*
X125947676Y-95094952D01*
X125947676Y-95094952D02*
X126042914Y-95190190D01*
X126042914Y-95190190D02*
X126090533Y-95285428D01*
X125900057Y-94333047D02*
X125852438Y-94285428D01*
X125852438Y-94285428D02*
X125804819Y-94190190D01*
X125804819Y-94190190D02*
X125804819Y-93952095D01*
X125804819Y-93952095D02*
X125852438Y-93856857D01*
X125852438Y-93856857D02*
X125900057Y-93809238D01*
X125900057Y-93809238D02*
X125995295Y-93761619D01*
X125995295Y-93761619D02*
X126090533Y-93761619D01*
X126090533Y-93761619D02*
X126233390Y-93809238D01*
X126233390Y-93809238D02*
X126804819Y-94380666D01*
X126804819Y-94380666D02*
X126804819Y-93761619D01*
X125804819Y-93475904D02*
X126804819Y-93142571D01*
X126804819Y-93142571D02*
X125804819Y-92809238D01*
X113152438Y-95475904D02*
X113104819Y-95571142D01*
X113104819Y-95571142D02*
X113104819Y-95713999D01*
X113104819Y-95713999D02*
X113152438Y-95856856D01*
X113152438Y-95856856D02*
X113247676Y-95952094D01*
X113247676Y-95952094D02*
X113342914Y-95999713D01*
X113342914Y-95999713D02*
X113533390Y-96047332D01*
X113533390Y-96047332D02*
X113676247Y-96047332D01*
X113676247Y-96047332D02*
X113866723Y-95999713D01*
X113866723Y-95999713D02*
X113961961Y-95952094D01*
X113961961Y-95952094D02*
X114057200Y-95856856D01*
X114057200Y-95856856D02*
X114104819Y-95713999D01*
X114104819Y-95713999D02*
X114104819Y-95618761D01*
X114104819Y-95618761D02*
X114057200Y-95475904D01*
X114057200Y-95475904D02*
X114009580Y-95428285D01*
X114009580Y-95428285D02*
X113676247Y-95428285D01*
X113676247Y-95428285D02*
X113676247Y-95618761D01*
X114104819Y-94999713D02*
X113104819Y-94999713D01*
X113104819Y-94999713D02*
X114104819Y-94428285D01*
X114104819Y-94428285D02*
X113104819Y-94428285D01*
X114104819Y-93952094D02*
X113104819Y-93952094D01*
X113104819Y-93952094D02*
X113104819Y-93713999D01*
X113104819Y-93713999D02*
X113152438Y-93571142D01*
X113152438Y-93571142D02*
X113247676Y-93475904D01*
X113247676Y-93475904D02*
X113342914Y-93428285D01*
X113342914Y-93428285D02*
X113533390Y-93380666D01*
X113533390Y-93380666D02*
X113676247Y-93380666D01*
X113676247Y-93380666D02*
X113866723Y-93428285D01*
X113866723Y-93428285D02*
X113961961Y-93475904D01*
X113961961Y-93475904D02*
X114057200Y-93571142D01*
X114057200Y-93571142D02*
X114104819Y-93713999D01*
X114104819Y-93713999D02*
X114104819Y-93952094D01*
X137755333Y-49095819D02*
X137422000Y-48619628D01*
X137183905Y-49095819D02*
X137183905Y-48095819D01*
X137183905Y-48095819D02*
X137564857Y-48095819D01*
X137564857Y-48095819D02*
X137660095Y-48143438D01*
X137660095Y-48143438D02*
X137707714Y-48191057D01*
X137707714Y-48191057D02*
X137755333Y-48286295D01*
X137755333Y-48286295D02*
X137755333Y-48429152D01*
X137755333Y-48429152D02*
X137707714Y-48524390D01*
X137707714Y-48524390D02*
X137660095Y-48572009D01*
X137660095Y-48572009D02*
X137564857Y-48619628D01*
X137564857Y-48619628D02*
X137183905Y-48619628D01*
X138136286Y-48191057D02*
X138183905Y-48143438D01*
X138183905Y-48143438D02*
X138279143Y-48095819D01*
X138279143Y-48095819D02*
X138517238Y-48095819D01*
X138517238Y-48095819D02*
X138612476Y-48143438D01*
X138612476Y-48143438D02*
X138660095Y-48191057D01*
X138660095Y-48191057D02*
X138707714Y-48286295D01*
X138707714Y-48286295D02*
X138707714Y-48381533D01*
X138707714Y-48381533D02*
X138660095Y-48524390D01*
X138660095Y-48524390D02*
X138088667Y-49095819D01*
X138088667Y-49095819D02*
X138707714Y-49095819D01*
X139008295Y-51504761D02*
X139008295Y-51885713D01*
X139008295Y-51885713D02*
X139389247Y-51923809D01*
X139389247Y-51923809D02*
X139351152Y-51885713D01*
X139351152Y-51885713D02*
X139313057Y-51809523D01*
X139313057Y-51809523D02*
X139313057Y-51619047D01*
X139313057Y-51619047D02*
X139351152Y-51542856D01*
X139351152Y-51542856D02*
X139389247Y-51504761D01*
X139389247Y-51504761D02*
X139465438Y-51466666D01*
X139465438Y-51466666D02*
X139655914Y-51466666D01*
X139655914Y-51466666D02*
X139732104Y-51504761D01*
X139732104Y-51504761D02*
X139770200Y-51542856D01*
X139770200Y-51542856D02*
X139808295Y-51619047D01*
X139808295Y-51619047D02*
X139808295Y-51809523D01*
X139808295Y-51809523D02*
X139770200Y-51885713D01*
X139770200Y-51885713D02*
X139732104Y-51923809D01*
X139732104Y-51123808D02*
X139770200Y-51085713D01*
X139770200Y-51085713D02*
X139808295Y-51123808D01*
X139808295Y-51123808D02*
X139770200Y-51161904D01*
X139770200Y-51161904D02*
X139732104Y-51123808D01*
X139732104Y-51123808D02*
X139808295Y-51123808D01*
X139808295Y-50323809D02*
X139808295Y-50780952D01*
X139808295Y-50552380D02*
X139008295Y-50552380D01*
X139008295Y-50552380D02*
X139122580Y-50628571D01*
X139122580Y-50628571D02*
X139198771Y-50704761D01*
X139198771Y-50704761D02*
X139236866Y-50780952D01*
X139808295Y-49980951D02*
X139008295Y-49980951D01*
X139503533Y-49904761D02*
X139808295Y-49676189D01*
X139274961Y-49676189D02*
X139579723Y-49980951D01*
X148568580Y-57951666D02*
X148616200Y-57999285D01*
X148616200Y-57999285D02*
X148663819Y-58142142D01*
X148663819Y-58142142D02*
X148663819Y-58237380D01*
X148663819Y-58237380D02*
X148616200Y-58380237D01*
X148616200Y-58380237D02*
X148520961Y-58475475D01*
X148520961Y-58475475D02*
X148425723Y-58523094D01*
X148425723Y-58523094D02*
X148235247Y-58570713D01*
X148235247Y-58570713D02*
X148092390Y-58570713D01*
X148092390Y-58570713D02*
X147901914Y-58523094D01*
X147901914Y-58523094D02*
X147806676Y-58475475D01*
X147806676Y-58475475D02*
X147711438Y-58380237D01*
X147711438Y-58380237D02*
X147663819Y-58237380D01*
X147663819Y-58237380D02*
X147663819Y-58142142D01*
X147663819Y-58142142D02*
X147711438Y-57999285D01*
X147711438Y-57999285D02*
X147759057Y-57951666D01*
X147663819Y-57046904D02*
X147663819Y-57523094D01*
X147663819Y-57523094D02*
X148140009Y-57570713D01*
X148140009Y-57570713D02*
X148092390Y-57523094D01*
X148092390Y-57523094D02*
X148044771Y-57427856D01*
X148044771Y-57427856D02*
X148044771Y-57189761D01*
X148044771Y-57189761D02*
X148092390Y-57094523D01*
X148092390Y-57094523D02*
X148140009Y-57046904D01*
X148140009Y-57046904D02*
X148235247Y-56999285D01*
X148235247Y-56999285D02*
X148473342Y-56999285D01*
X148473342Y-56999285D02*
X148568580Y-57046904D01*
X148568580Y-57046904D02*
X148616200Y-57094523D01*
X148616200Y-57094523D02*
X148663819Y-57189761D01*
X148663819Y-57189761D02*
X148663819Y-57427856D01*
X148663819Y-57427856D02*
X148616200Y-57523094D01*
X148616200Y-57523094D02*
X148568580Y-57570713D01*
X144303856Y-56623295D02*
X143846713Y-56623295D01*
X144075285Y-56623295D02*
X144075285Y-55823295D01*
X144075285Y-55823295D02*
X143999094Y-55937580D01*
X143999094Y-55937580D02*
X143922904Y-56013771D01*
X143922904Y-56013771D02*
X143846713Y-56051866D01*
X144799095Y-55823295D02*
X144875285Y-55823295D01*
X144875285Y-55823295D02*
X144951476Y-55861390D01*
X144951476Y-55861390D02*
X144989571Y-55899485D01*
X144989571Y-55899485D02*
X145027666Y-55975676D01*
X145027666Y-55975676D02*
X145065761Y-56128057D01*
X145065761Y-56128057D02*
X145065761Y-56318533D01*
X145065761Y-56318533D02*
X145027666Y-56470914D01*
X145027666Y-56470914D02*
X144989571Y-56547104D01*
X144989571Y-56547104D02*
X144951476Y-56585200D01*
X144951476Y-56585200D02*
X144875285Y-56623295D01*
X144875285Y-56623295D02*
X144799095Y-56623295D01*
X144799095Y-56623295D02*
X144722904Y-56585200D01*
X144722904Y-56585200D02*
X144684809Y-56547104D01*
X144684809Y-56547104D02*
X144646714Y-56470914D01*
X144646714Y-56470914D02*
X144608618Y-56318533D01*
X144608618Y-56318533D02*
X144608618Y-56128057D01*
X144608618Y-56128057D02*
X144646714Y-55975676D01*
X144646714Y-55975676D02*
X144684809Y-55899485D01*
X144684809Y-55899485D02*
X144722904Y-55861390D01*
X144722904Y-55861390D02*
X144799095Y-55823295D01*
X145751476Y-56089961D02*
X145751476Y-56623295D01*
X145408619Y-56089961D02*
X145408619Y-56509009D01*
X145408619Y-56509009D02*
X145446714Y-56585200D01*
X145446714Y-56585200D02*
X145522904Y-56623295D01*
X145522904Y-56623295D02*
X145637190Y-56623295D01*
X145637190Y-56623295D02*
X145713381Y-56585200D01*
X145713381Y-56585200D02*
X145751476Y-56547104D01*
X146399095Y-56204247D02*
X146132429Y-56204247D01*
X146132429Y-56623295D02*
X146132429Y-55823295D01*
X146132429Y-55823295D02*
X146513381Y-55823295D01*
X101166666Y-54204819D02*
X101166666Y-54919104D01*
X101166666Y-54919104D02*
X101119047Y-55061961D01*
X101119047Y-55061961D02*
X101023809Y-55157200D01*
X101023809Y-55157200D02*
X100880952Y-55204819D01*
X100880952Y-55204819D02*
X100785714Y-55204819D01*
X102166666Y-55204819D02*
X101595238Y-55204819D01*
X101880952Y-55204819D02*
X101880952Y-54204819D01*
X101880952Y-54204819D02*
X101785714Y-54347676D01*
X101785714Y-54347676D02*
X101690476Y-54442914D01*
X101690476Y-54442914D02*
X101595238Y-54490533D01*
X109275690Y-47850819D02*
X108942357Y-47374628D01*
X108704262Y-47850819D02*
X108704262Y-46850819D01*
X108704262Y-46850819D02*
X109085214Y-46850819D01*
X109085214Y-46850819D02*
X109180452Y-46898438D01*
X109180452Y-46898438D02*
X109228071Y-46946057D01*
X109228071Y-46946057D02*
X109275690Y-47041295D01*
X109275690Y-47041295D02*
X109275690Y-47184152D01*
X109275690Y-47184152D02*
X109228071Y-47279390D01*
X109228071Y-47279390D02*
X109180452Y-47327009D01*
X109180452Y-47327009D02*
X109085214Y-47374628D01*
X109085214Y-47374628D02*
X108704262Y-47374628D01*
X109989976Y-46850819D02*
X109989976Y-47565104D01*
X109989976Y-47565104D02*
X109942357Y-47707961D01*
X109942357Y-47707961D02*
X109847119Y-47803200D01*
X109847119Y-47803200D02*
X109704262Y-47850819D01*
X109704262Y-47850819D02*
X109609024Y-47850819D01*
X110894738Y-47184152D02*
X110894738Y-47850819D01*
X110656643Y-46803200D02*
X110418548Y-47517485D01*
X110418548Y-47517485D02*
X111037595Y-47517485D01*
X111894738Y-46850819D02*
X111418548Y-46850819D01*
X111418548Y-46850819D02*
X111370929Y-47327009D01*
X111370929Y-47327009D02*
X111418548Y-47279390D01*
X111418548Y-47279390D02*
X111513786Y-47231771D01*
X111513786Y-47231771D02*
X111751881Y-47231771D01*
X111751881Y-47231771D02*
X111847119Y-47279390D01*
X111847119Y-47279390D02*
X111894738Y-47327009D01*
X111894738Y-47327009D02*
X111942357Y-47422247D01*
X111942357Y-47422247D02*
X111942357Y-47660342D01*
X111942357Y-47660342D02*
X111894738Y-47755580D01*
X111894738Y-47755580D02*
X111847119Y-47803200D01*
X111847119Y-47803200D02*
X111751881Y-47850819D01*
X111751881Y-47850819D02*
X111513786Y-47850819D01*
X111513786Y-47850819D02*
X111418548Y-47803200D01*
X111418548Y-47803200D02*
X111370929Y-47755580D01*
X126536333Y-81258580D02*
X126488714Y-81306200D01*
X126488714Y-81306200D02*
X126345857Y-81353819D01*
X126345857Y-81353819D02*
X126250619Y-81353819D01*
X126250619Y-81353819D02*
X126107762Y-81306200D01*
X126107762Y-81306200D02*
X126012524Y-81210961D01*
X126012524Y-81210961D02*
X125964905Y-81115723D01*
X125964905Y-81115723D02*
X125917286Y-80925247D01*
X125917286Y-80925247D02*
X125917286Y-80782390D01*
X125917286Y-80782390D02*
X125964905Y-80591914D01*
X125964905Y-80591914D02*
X126012524Y-80496676D01*
X126012524Y-80496676D02*
X126107762Y-80401438D01*
X126107762Y-80401438D02*
X126250619Y-80353819D01*
X126250619Y-80353819D02*
X126345857Y-80353819D01*
X126345857Y-80353819D02*
X126488714Y-80401438D01*
X126488714Y-80401438D02*
X126536333Y-80449057D01*
X127488714Y-81353819D02*
X126917286Y-81353819D01*
X127203000Y-81353819D02*
X127203000Y-80353819D01*
X127203000Y-80353819D02*
X127107762Y-80496676D01*
X127107762Y-80496676D02*
X127012524Y-80591914D01*
X127012524Y-80591914D02*
X126917286Y-80639533D01*
X124969666Y-83837295D02*
X125464904Y-83837295D01*
X125464904Y-83837295D02*
X125198238Y-84142057D01*
X125198238Y-84142057D02*
X125312523Y-84142057D01*
X125312523Y-84142057D02*
X125388714Y-84180152D01*
X125388714Y-84180152D02*
X125426809Y-84218247D01*
X125426809Y-84218247D02*
X125464904Y-84294438D01*
X125464904Y-84294438D02*
X125464904Y-84484914D01*
X125464904Y-84484914D02*
X125426809Y-84561104D01*
X125426809Y-84561104D02*
X125388714Y-84599200D01*
X125388714Y-84599200D02*
X125312523Y-84637295D01*
X125312523Y-84637295D02*
X125083952Y-84637295D01*
X125083952Y-84637295D02*
X125007761Y-84599200D01*
X125007761Y-84599200D02*
X124969666Y-84561104D01*
X125731571Y-83837295D02*
X126226809Y-83837295D01*
X126226809Y-83837295D02*
X125960143Y-84142057D01*
X125960143Y-84142057D02*
X126074428Y-84142057D01*
X126074428Y-84142057D02*
X126150619Y-84180152D01*
X126150619Y-84180152D02*
X126188714Y-84218247D01*
X126188714Y-84218247D02*
X126226809Y-84294438D01*
X126226809Y-84294438D02*
X126226809Y-84484914D01*
X126226809Y-84484914D02*
X126188714Y-84561104D01*
X126188714Y-84561104D02*
X126150619Y-84599200D01*
X126150619Y-84599200D02*
X126074428Y-84637295D01*
X126074428Y-84637295D02*
X125845857Y-84637295D01*
X125845857Y-84637295D02*
X125769666Y-84599200D01*
X125769666Y-84599200D02*
X125731571Y-84561104D01*
X126722048Y-83837295D02*
X126798238Y-83837295D01*
X126798238Y-83837295D02*
X126874429Y-83875390D01*
X126874429Y-83875390D02*
X126912524Y-83913485D01*
X126912524Y-83913485D02*
X126950619Y-83989676D01*
X126950619Y-83989676D02*
X126988714Y-84142057D01*
X126988714Y-84142057D02*
X126988714Y-84332533D01*
X126988714Y-84332533D02*
X126950619Y-84484914D01*
X126950619Y-84484914D02*
X126912524Y-84561104D01*
X126912524Y-84561104D02*
X126874429Y-84599200D01*
X126874429Y-84599200D02*
X126798238Y-84637295D01*
X126798238Y-84637295D02*
X126722048Y-84637295D01*
X126722048Y-84637295D02*
X126645857Y-84599200D01*
X126645857Y-84599200D02*
X126607762Y-84561104D01*
X126607762Y-84561104D02*
X126569667Y-84484914D01*
X126569667Y-84484914D02*
X126531571Y-84332533D01*
X126531571Y-84332533D02*
X126531571Y-84142057D01*
X126531571Y-84142057D02*
X126569667Y-83989676D01*
X126569667Y-83989676D02*
X126607762Y-83913485D01*
X126607762Y-83913485D02*
X126645857Y-83875390D01*
X126645857Y-83875390D02*
X126722048Y-83837295D01*
X127331572Y-84103961D02*
X127331572Y-84637295D01*
X127331572Y-84180152D02*
X127369667Y-84142057D01*
X127369667Y-84142057D02*
X127445857Y-84103961D01*
X127445857Y-84103961D02*
X127560143Y-84103961D01*
X127560143Y-84103961D02*
X127636334Y-84142057D01*
X127636334Y-84142057D02*
X127674429Y-84218247D01*
X127674429Y-84218247D02*
X127674429Y-84637295D01*
X128322048Y-84218247D02*
X128055382Y-84218247D01*
X128055382Y-84637295D02*
X128055382Y-83837295D01*
X128055382Y-83837295D02*
X128436334Y-83837295D01*
X124314819Y-42076666D02*
X123838628Y-42409999D01*
X124314819Y-42648094D02*
X123314819Y-42648094D01*
X123314819Y-42648094D02*
X123314819Y-42267142D01*
X123314819Y-42267142D02*
X123362438Y-42171904D01*
X123362438Y-42171904D02*
X123410057Y-42124285D01*
X123410057Y-42124285D02*
X123505295Y-42076666D01*
X123505295Y-42076666D02*
X123648152Y-42076666D01*
X123648152Y-42076666D02*
X123743390Y-42124285D01*
X123743390Y-42124285D02*
X123791009Y-42171904D01*
X123791009Y-42171904D02*
X123838628Y-42267142D01*
X123838628Y-42267142D02*
X123838628Y-42648094D01*
X124314819Y-41124285D02*
X124314819Y-41695713D01*
X124314819Y-41409999D02*
X123314819Y-41409999D01*
X123314819Y-41409999D02*
X123457676Y-41505237D01*
X123457676Y-41505237D02*
X123552914Y-41600475D01*
X123552914Y-41600475D02*
X123600533Y-41695713D01*
X125568238Y-43123295D02*
X125187286Y-43123295D01*
X125187286Y-43123295D02*
X125149190Y-43504247D01*
X125149190Y-43504247D02*
X125187286Y-43466152D01*
X125187286Y-43466152D02*
X125263476Y-43428057D01*
X125263476Y-43428057D02*
X125453952Y-43428057D01*
X125453952Y-43428057D02*
X125530143Y-43466152D01*
X125530143Y-43466152D02*
X125568238Y-43504247D01*
X125568238Y-43504247D02*
X125606333Y-43580438D01*
X125606333Y-43580438D02*
X125606333Y-43770914D01*
X125606333Y-43770914D02*
X125568238Y-43847104D01*
X125568238Y-43847104D02*
X125530143Y-43885200D01*
X125530143Y-43885200D02*
X125453952Y-43923295D01*
X125453952Y-43923295D02*
X125263476Y-43923295D01*
X125263476Y-43923295D02*
X125187286Y-43885200D01*
X125187286Y-43885200D02*
X125149190Y-43847104D01*
X125949191Y-43847104D02*
X125987286Y-43885200D01*
X125987286Y-43885200D02*
X125949191Y-43923295D01*
X125949191Y-43923295D02*
X125911095Y-43885200D01*
X125911095Y-43885200D02*
X125949191Y-43847104D01*
X125949191Y-43847104D02*
X125949191Y-43923295D01*
X126749190Y-43923295D02*
X126292047Y-43923295D01*
X126520619Y-43923295D02*
X126520619Y-43123295D01*
X126520619Y-43123295D02*
X126444428Y-43237580D01*
X126444428Y-43237580D02*
X126368238Y-43313771D01*
X126368238Y-43313771D02*
X126292047Y-43351866D01*
X127092048Y-43923295D02*
X127092048Y-43123295D01*
X127168238Y-43618533D02*
X127396810Y-43923295D01*
X127396810Y-43389961D02*
X127092048Y-43694723D01*
X126536333Y-76686580D02*
X126488714Y-76734200D01*
X126488714Y-76734200D02*
X126345857Y-76781819D01*
X126345857Y-76781819D02*
X126250619Y-76781819D01*
X126250619Y-76781819D02*
X126107762Y-76734200D01*
X126107762Y-76734200D02*
X126012524Y-76638961D01*
X126012524Y-76638961D02*
X125964905Y-76543723D01*
X125964905Y-76543723D02*
X125917286Y-76353247D01*
X125917286Y-76353247D02*
X125917286Y-76210390D01*
X125917286Y-76210390D02*
X125964905Y-76019914D01*
X125964905Y-76019914D02*
X126012524Y-75924676D01*
X126012524Y-75924676D02*
X126107762Y-75829438D01*
X126107762Y-75829438D02*
X126250619Y-75781819D01*
X126250619Y-75781819D02*
X126345857Y-75781819D01*
X126345857Y-75781819D02*
X126488714Y-75829438D01*
X126488714Y-75829438D02*
X126536333Y-75877057D01*
X126917286Y-75877057D02*
X126964905Y-75829438D01*
X126964905Y-75829438D02*
X127060143Y-75781819D01*
X127060143Y-75781819D02*
X127298238Y-75781819D01*
X127298238Y-75781819D02*
X127393476Y-75829438D01*
X127393476Y-75829438D02*
X127441095Y-75877057D01*
X127441095Y-75877057D02*
X127488714Y-75972295D01*
X127488714Y-75972295D02*
X127488714Y-76067533D01*
X127488714Y-76067533D02*
X127441095Y-76210390D01*
X127441095Y-76210390D02*
X126869667Y-76781819D01*
X126869667Y-76781819D02*
X127488714Y-76781819D01*
X124969666Y-79271295D02*
X125464904Y-79271295D01*
X125464904Y-79271295D02*
X125198238Y-79576057D01*
X125198238Y-79576057D02*
X125312523Y-79576057D01*
X125312523Y-79576057D02*
X125388714Y-79614152D01*
X125388714Y-79614152D02*
X125426809Y-79652247D01*
X125426809Y-79652247D02*
X125464904Y-79728438D01*
X125464904Y-79728438D02*
X125464904Y-79918914D01*
X125464904Y-79918914D02*
X125426809Y-79995104D01*
X125426809Y-79995104D02*
X125388714Y-80033200D01*
X125388714Y-80033200D02*
X125312523Y-80071295D01*
X125312523Y-80071295D02*
X125083952Y-80071295D01*
X125083952Y-80071295D02*
X125007761Y-80033200D01*
X125007761Y-80033200D02*
X124969666Y-79995104D01*
X125731571Y-79271295D02*
X126226809Y-79271295D01*
X126226809Y-79271295D02*
X125960143Y-79576057D01*
X125960143Y-79576057D02*
X126074428Y-79576057D01*
X126074428Y-79576057D02*
X126150619Y-79614152D01*
X126150619Y-79614152D02*
X126188714Y-79652247D01*
X126188714Y-79652247D02*
X126226809Y-79728438D01*
X126226809Y-79728438D02*
X126226809Y-79918914D01*
X126226809Y-79918914D02*
X126188714Y-79995104D01*
X126188714Y-79995104D02*
X126150619Y-80033200D01*
X126150619Y-80033200D02*
X126074428Y-80071295D01*
X126074428Y-80071295D02*
X125845857Y-80071295D01*
X125845857Y-80071295D02*
X125769666Y-80033200D01*
X125769666Y-80033200D02*
X125731571Y-79995104D01*
X126722048Y-79271295D02*
X126798238Y-79271295D01*
X126798238Y-79271295D02*
X126874429Y-79309390D01*
X126874429Y-79309390D02*
X126912524Y-79347485D01*
X126912524Y-79347485D02*
X126950619Y-79423676D01*
X126950619Y-79423676D02*
X126988714Y-79576057D01*
X126988714Y-79576057D02*
X126988714Y-79766533D01*
X126988714Y-79766533D02*
X126950619Y-79918914D01*
X126950619Y-79918914D02*
X126912524Y-79995104D01*
X126912524Y-79995104D02*
X126874429Y-80033200D01*
X126874429Y-80033200D02*
X126798238Y-80071295D01*
X126798238Y-80071295D02*
X126722048Y-80071295D01*
X126722048Y-80071295D02*
X126645857Y-80033200D01*
X126645857Y-80033200D02*
X126607762Y-79995104D01*
X126607762Y-79995104D02*
X126569667Y-79918914D01*
X126569667Y-79918914D02*
X126531571Y-79766533D01*
X126531571Y-79766533D02*
X126531571Y-79576057D01*
X126531571Y-79576057D02*
X126569667Y-79423676D01*
X126569667Y-79423676D02*
X126607762Y-79347485D01*
X126607762Y-79347485D02*
X126645857Y-79309390D01*
X126645857Y-79309390D02*
X126722048Y-79271295D01*
X127331572Y-79537961D02*
X127331572Y-80071295D01*
X127331572Y-79614152D02*
X127369667Y-79576057D01*
X127369667Y-79576057D02*
X127445857Y-79537961D01*
X127445857Y-79537961D02*
X127560143Y-79537961D01*
X127560143Y-79537961D02*
X127636334Y-79576057D01*
X127636334Y-79576057D02*
X127674429Y-79652247D01*
X127674429Y-79652247D02*
X127674429Y-80071295D01*
X128322048Y-79652247D02*
X128055382Y-79652247D01*
X128055382Y-80071295D02*
X128055382Y-79271295D01*
X128055382Y-79271295D02*
X128436334Y-79271295D01*
X126873095Y-58128819D02*
X126873095Y-58938342D01*
X126873095Y-58938342D02*
X126920714Y-59033580D01*
X126920714Y-59033580D02*
X126968333Y-59081200D01*
X126968333Y-59081200D02*
X127063571Y-59128819D01*
X127063571Y-59128819D02*
X127254047Y-59128819D01*
X127254047Y-59128819D02*
X127349285Y-59081200D01*
X127349285Y-59081200D02*
X127396904Y-59033580D01*
X127396904Y-59033580D02*
X127444523Y-58938342D01*
X127444523Y-58938342D02*
X127444523Y-58128819D01*
X127825476Y-58128819D02*
X128444523Y-58128819D01*
X128444523Y-58128819D02*
X128111190Y-58509771D01*
X128111190Y-58509771D02*
X128254047Y-58509771D01*
X128254047Y-58509771D02*
X128349285Y-58557390D01*
X128349285Y-58557390D02*
X128396904Y-58605009D01*
X128396904Y-58605009D02*
X128444523Y-58700247D01*
X128444523Y-58700247D02*
X128444523Y-58938342D01*
X128444523Y-58938342D02*
X128396904Y-59033580D01*
X128396904Y-59033580D02*
X128349285Y-59081200D01*
X128349285Y-59081200D02*
X128254047Y-59128819D01*
X128254047Y-59128819D02*
X127968333Y-59128819D01*
X127968333Y-59128819D02*
X127873095Y-59081200D01*
X127873095Y-59081200D02*
X127825476Y-59033580D01*
X127228856Y-48076247D02*
X126962190Y-48076247D01*
X126962190Y-48495295D02*
X126962190Y-47695295D01*
X126962190Y-47695295D02*
X127343142Y-47695295D01*
X127533618Y-47695295D02*
X127990761Y-47695295D01*
X127762189Y-48495295D02*
X127762189Y-47695295D01*
X128219332Y-47771485D02*
X128257428Y-47733390D01*
X128257428Y-47733390D02*
X128333618Y-47695295D01*
X128333618Y-47695295D02*
X128524094Y-47695295D01*
X128524094Y-47695295D02*
X128600285Y-47733390D01*
X128600285Y-47733390D02*
X128638380Y-47771485D01*
X128638380Y-47771485D02*
X128676475Y-47847676D01*
X128676475Y-47847676D02*
X128676475Y-47923866D01*
X128676475Y-47923866D02*
X128638380Y-48038152D01*
X128638380Y-48038152D02*
X128181237Y-48495295D01*
X128181237Y-48495295D02*
X128676475Y-48495295D01*
X128943142Y-47695295D02*
X129438380Y-47695295D01*
X129438380Y-47695295D02*
X129171714Y-48000057D01*
X129171714Y-48000057D02*
X129285999Y-48000057D01*
X129285999Y-48000057D02*
X129362190Y-48038152D01*
X129362190Y-48038152D02*
X129400285Y-48076247D01*
X129400285Y-48076247D02*
X129438380Y-48152438D01*
X129438380Y-48152438D02*
X129438380Y-48342914D01*
X129438380Y-48342914D02*
X129400285Y-48419104D01*
X129400285Y-48419104D02*
X129362190Y-48457200D01*
X129362190Y-48457200D02*
X129285999Y-48495295D01*
X129285999Y-48495295D02*
X129057428Y-48495295D01*
X129057428Y-48495295D02*
X128981237Y-48457200D01*
X128981237Y-48457200D02*
X128943142Y-48419104D01*
X129743142Y-47771485D02*
X129781238Y-47733390D01*
X129781238Y-47733390D02*
X129857428Y-47695295D01*
X129857428Y-47695295D02*
X130047904Y-47695295D01*
X130047904Y-47695295D02*
X130124095Y-47733390D01*
X130124095Y-47733390D02*
X130162190Y-47771485D01*
X130162190Y-47771485D02*
X130200285Y-47847676D01*
X130200285Y-47847676D02*
X130200285Y-47923866D01*
X130200285Y-47923866D02*
X130162190Y-48038152D01*
X130162190Y-48038152D02*
X129705047Y-48495295D01*
X129705047Y-48495295D02*
X130200285Y-48495295D01*
X131000286Y-48495295D02*
X130733619Y-48114342D01*
X130543143Y-48495295D02*
X130543143Y-47695295D01*
X130543143Y-47695295D02*
X130847905Y-47695295D01*
X130847905Y-47695295D02*
X130924095Y-47733390D01*
X130924095Y-47733390D02*
X130962190Y-47771485D01*
X130962190Y-47771485D02*
X131000286Y-47847676D01*
X131000286Y-47847676D02*
X131000286Y-47961961D01*
X131000286Y-47961961D02*
X130962190Y-48038152D01*
X130962190Y-48038152D02*
X130924095Y-48076247D01*
X130924095Y-48076247D02*
X130847905Y-48114342D01*
X130847905Y-48114342D02*
X130543143Y-48114342D01*
X131724095Y-48495295D02*
X131343143Y-48495295D01*
X131343143Y-48495295D02*
X131343143Y-47695295D01*
X137755333Y-53953580D02*
X137707714Y-54001200D01*
X137707714Y-54001200D02*
X137564857Y-54048819D01*
X137564857Y-54048819D02*
X137469619Y-54048819D01*
X137469619Y-54048819D02*
X137326762Y-54001200D01*
X137326762Y-54001200D02*
X137231524Y-53905961D01*
X137231524Y-53905961D02*
X137183905Y-53810723D01*
X137183905Y-53810723D02*
X137136286Y-53620247D01*
X137136286Y-53620247D02*
X137136286Y-53477390D01*
X137136286Y-53477390D02*
X137183905Y-53286914D01*
X137183905Y-53286914D02*
X137231524Y-53191676D01*
X137231524Y-53191676D02*
X137326762Y-53096438D01*
X137326762Y-53096438D02*
X137469619Y-53048819D01*
X137469619Y-53048819D02*
X137564857Y-53048819D01*
X137564857Y-53048819D02*
X137707714Y-53096438D01*
X137707714Y-53096438D02*
X137755333Y-53144057D01*
X138088667Y-53048819D02*
X138707714Y-53048819D01*
X138707714Y-53048819D02*
X138374381Y-53429771D01*
X138374381Y-53429771D02*
X138517238Y-53429771D01*
X138517238Y-53429771D02*
X138612476Y-53477390D01*
X138612476Y-53477390D02*
X138660095Y-53525009D01*
X138660095Y-53525009D02*
X138707714Y-53620247D01*
X138707714Y-53620247D02*
X138707714Y-53858342D01*
X138707714Y-53858342D02*
X138660095Y-53953580D01*
X138660095Y-53953580D02*
X138612476Y-54001200D01*
X138612476Y-54001200D02*
X138517238Y-54048819D01*
X138517238Y-54048819D02*
X138231524Y-54048819D01*
X138231524Y-54048819D02*
X138136286Y-54001200D01*
X138136286Y-54001200D02*
X138088667Y-53953580D01*
X139008295Y-57194285D02*
X139008295Y-57118095D01*
X139008295Y-57118095D02*
X139046390Y-57041904D01*
X139046390Y-57041904D02*
X139084485Y-57003809D01*
X139084485Y-57003809D02*
X139160676Y-56965714D01*
X139160676Y-56965714D02*
X139313057Y-56927619D01*
X139313057Y-56927619D02*
X139503533Y-56927619D01*
X139503533Y-56927619D02*
X139655914Y-56965714D01*
X139655914Y-56965714D02*
X139732104Y-57003809D01*
X139732104Y-57003809D02*
X139770200Y-57041904D01*
X139770200Y-57041904D02*
X139808295Y-57118095D01*
X139808295Y-57118095D02*
X139808295Y-57194285D01*
X139808295Y-57194285D02*
X139770200Y-57270476D01*
X139770200Y-57270476D02*
X139732104Y-57308571D01*
X139732104Y-57308571D02*
X139655914Y-57346666D01*
X139655914Y-57346666D02*
X139503533Y-57384762D01*
X139503533Y-57384762D02*
X139313057Y-57384762D01*
X139313057Y-57384762D02*
X139160676Y-57346666D01*
X139160676Y-57346666D02*
X139084485Y-57308571D01*
X139084485Y-57308571D02*
X139046390Y-57270476D01*
X139046390Y-57270476D02*
X139008295Y-57194285D01*
X139732104Y-56584761D02*
X139770200Y-56546666D01*
X139770200Y-56546666D02*
X139808295Y-56584761D01*
X139808295Y-56584761D02*
X139770200Y-56622857D01*
X139770200Y-56622857D02*
X139732104Y-56584761D01*
X139732104Y-56584761D02*
X139808295Y-56584761D01*
X139808295Y-55784762D02*
X139808295Y-56241905D01*
X139808295Y-56013333D02*
X139008295Y-56013333D01*
X139008295Y-56013333D02*
X139122580Y-56089524D01*
X139122580Y-56089524D02*
X139198771Y-56165714D01*
X139198771Y-56165714D02*
X139236866Y-56241905D01*
X139274961Y-55099047D02*
X139808295Y-55099047D01*
X139274961Y-55441904D02*
X139694009Y-55441904D01*
X139694009Y-55441904D02*
X139770200Y-55403809D01*
X139770200Y-55403809D02*
X139808295Y-55327619D01*
X139808295Y-55327619D02*
X139808295Y-55213333D01*
X139808295Y-55213333D02*
X139770200Y-55137142D01*
X139770200Y-55137142D02*
X139732104Y-55099047D01*
X139389247Y-54451428D02*
X139389247Y-54718094D01*
X139808295Y-54718094D02*
X139008295Y-54718094D01*
X139008295Y-54718094D02*
X139008295Y-54337142D01*
X102201819Y-62535333D02*
X102916104Y-62535333D01*
X102916104Y-62535333D02*
X103058961Y-62582952D01*
X103058961Y-62582952D02*
X103154200Y-62678190D01*
X103154200Y-62678190D02*
X103201819Y-62821047D01*
X103201819Y-62821047D02*
X103201819Y-62916285D01*
X102201819Y-61582952D02*
X102201819Y-62059142D01*
X102201819Y-62059142D02*
X102678009Y-62106761D01*
X102678009Y-62106761D02*
X102630390Y-62059142D01*
X102630390Y-62059142D02*
X102582771Y-61963904D01*
X102582771Y-61963904D02*
X102582771Y-61725809D01*
X102582771Y-61725809D02*
X102630390Y-61630571D01*
X102630390Y-61630571D02*
X102678009Y-61582952D01*
X102678009Y-61582952D02*
X102773247Y-61535333D01*
X102773247Y-61535333D02*
X103011342Y-61535333D01*
X103011342Y-61535333D02*
X103106580Y-61582952D01*
X103106580Y-61582952D02*
X103154200Y-61630571D01*
X103154200Y-61630571D02*
X103201819Y-61725809D01*
X103201819Y-61725809D02*
X103201819Y-61963904D01*
X103201819Y-61963904D02*
X103154200Y-62059142D01*
X103154200Y-62059142D02*
X103106580Y-62106761D01*
X140661666Y-90409819D02*
X140661666Y-91124104D01*
X140661666Y-91124104D02*
X140614047Y-91266961D01*
X140614047Y-91266961D02*
X140518809Y-91362200D01*
X140518809Y-91362200D02*
X140375952Y-91409819D01*
X140375952Y-91409819D02*
X140280714Y-91409819D01*
X141566428Y-90743152D02*
X141566428Y-91409819D01*
X141328333Y-90362200D02*
X141090238Y-91076485D01*
X141090238Y-91076485D02*
X141709285Y-91076485D01*
X147423866Y-96475904D02*
X147423866Y-95714000D01*
X147804819Y-96094952D02*
X147042914Y-96094952D01*
X146900057Y-95285428D02*
X146852438Y-95237809D01*
X146852438Y-95237809D02*
X146804819Y-95142571D01*
X146804819Y-95142571D02*
X146804819Y-94904476D01*
X146804819Y-94904476D02*
X146852438Y-94809238D01*
X146852438Y-94809238D02*
X146900057Y-94761619D01*
X146900057Y-94761619D02*
X146995295Y-94714000D01*
X146995295Y-94714000D02*
X147090533Y-94714000D01*
X147090533Y-94714000D02*
X147233390Y-94761619D01*
X147233390Y-94761619D02*
X147804819Y-95333047D01*
X147804819Y-95333047D02*
X147804819Y-94714000D01*
X147138152Y-93856857D02*
X147804819Y-93856857D01*
X146757200Y-94094952D02*
X147471485Y-94333047D01*
X147471485Y-94333047D02*
X147471485Y-93714000D01*
X146804819Y-93475904D02*
X147804819Y-93142571D01*
X147804819Y-93142571D02*
X146804819Y-92809238D01*
X134152438Y-95475904D02*
X134104819Y-95571142D01*
X134104819Y-95571142D02*
X134104819Y-95713999D01*
X134104819Y-95713999D02*
X134152438Y-95856856D01*
X134152438Y-95856856D02*
X134247676Y-95952094D01*
X134247676Y-95952094D02*
X134342914Y-95999713D01*
X134342914Y-95999713D02*
X134533390Y-96047332D01*
X134533390Y-96047332D02*
X134676247Y-96047332D01*
X134676247Y-96047332D02*
X134866723Y-95999713D01*
X134866723Y-95999713D02*
X134961961Y-95952094D01*
X134961961Y-95952094D02*
X135057200Y-95856856D01*
X135057200Y-95856856D02*
X135104819Y-95713999D01*
X135104819Y-95713999D02*
X135104819Y-95618761D01*
X135104819Y-95618761D02*
X135057200Y-95475904D01*
X135057200Y-95475904D02*
X135009580Y-95428285D01*
X135009580Y-95428285D02*
X134676247Y-95428285D01*
X134676247Y-95428285D02*
X134676247Y-95618761D01*
X135104819Y-94999713D02*
X134104819Y-94999713D01*
X134104819Y-94999713D02*
X135104819Y-94428285D01*
X135104819Y-94428285D02*
X134104819Y-94428285D01*
X135104819Y-93952094D02*
X134104819Y-93952094D01*
X134104819Y-93952094D02*
X134104819Y-93713999D01*
X134104819Y-93713999D02*
X134152438Y-93571142D01*
X134152438Y-93571142D02*
X134247676Y-93475904D01*
X134247676Y-93475904D02*
X134342914Y-93428285D01*
X134342914Y-93428285D02*
X134533390Y-93380666D01*
X134533390Y-93380666D02*
X134676247Y-93380666D01*
X134676247Y-93380666D02*
X134866723Y-93428285D01*
X134866723Y-93428285D02*
X134961961Y-93475904D01*
X134961961Y-93475904D02*
X135057200Y-93571142D01*
X135057200Y-93571142D02*
X135104819Y-93713999D01*
X135104819Y-93713999D02*
X135104819Y-93952094D01*
X127378819Y-46589333D02*
X128093104Y-46589333D01*
X128093104Y-46589333D02*
X128235961Y-46636952D01*
X128235961Y-46636952D02*
X128331200Y-46732190D01*
X128331200Y-46732190D02*
X128378819Y-46875047D01*
X128378819Y-46875047D02*
X128378819Y-46970285D01*
X127378819Y-46208380D02*
X127378819Y-45541714D01*
X127378819Y-45541714D02*
X128378819Y-45970285D01*
X156916666Y-54204819D02*
X156916666Y-54919104D01*
X156916666Y-54919104D02*
X156869047Y-55061961D01*
X156869047Y-55061961D02*
X156773809Y-55157200D01*
X156773809Y-55157200D02*
X156630952Y-55204819D01*
X156630952Y-55204819D02*
X156535714Y-55204819D01*
X157345238Y-54300057D02*
X157392857Y-54252438D01*
X157392857Y-54252438D02*
X157488095Y-54204819D01*
X157488095Y-54204819D02*
X157726190Y-54204819D01*
X157726190Y-54204819D02*
X157821428Y-54252438D01*
X157821428Y-54252438D02*
X157869047Y-54300057D01*
X157869047Y-54300057D02*
X157916666Y-54395295D01*
X157916666Y-54395295D02*
X157916666Y-54490533D01*
X157916666Y-54490533D02*
X157869047Y-54633390D01*
X157869047Y-54633390D02*
X157297619Y-55204819D01*
X157297619Y-55204819D02*
X157916666Y-55204819D01*
X147375690Y-47850819D02*
X147042357Y-47374628D01*
X146804262Y-47850819D02*
X146804262Y-46850819D01*
X146804262Y-46850819D02*
X147185214Y-46850819D01*
X147185214Y-46850819D02*
X147280452Y-46898438D01*
X147280452Y-46898438D02*
X147328071Y-46946057D01*
X147328071Y-46946057D02*
X147375690Y-47041295D01*
X147375690Y-47041295D02*
X147375690Y-47184152D01*
X147375690Y-47184152D02*
X147328071Y-47279390D01*
X147328071Y-47279390D02*
X147280452Y-47327009D01*
X147280452Y-47327009D02*
X147185214Y-47374628D01*
X147185214Y-47374628D02*
X146804262Y-47374628D01*
X148089976Y-46850819D02*
X148089976Y-47565104D01*
X148089976Y-47565104D02*
X148042357Y-47707961D01*
X148042357Y-47707961D02*
X147947119Y-47803200D01*
X147947119Y-47803200D02*
X147804262Y-47850819D01*
X147804262Y-47850819D02*
X147709024Y-47850819D01*
X148994738Y-47184152D02*
X148994738Y-47850819D01*
X148756643Y-46803200D02*
X148518548Y-47517485D01*
X148518548Y-47517485D02*
X149137595Y-47517485D01*
X149994738Y-46850819D02*
X149518548Y-46850819D01*
X149518548Y-46850819D02*
X149470929Y-47327009D01*
X149470929Y-47327009D02*
X149518548Y-47279390D01*
X149518548Y-47279390D02*
X149613786Y-47231771D01*
X149613786Y-47231771D02*
X149851881Y-47231771D01*
X149851881Y-47231771D02*
X149947119Y-47279390D01*
X149947119Y-47279390D02*
X149994738Y-47327009D01*
X149994738Y-47327009D02*
X150042357Y-47422247D01*
X150042357Y-47422247D02*
X150042357Y-47660342D01*
X150042357Y-47660342D02*
X149994738Y-47755580D01*
X149994738Y-47755580D02*
X149947119Y-47803200D01*
X149947119Y-47803200D02*
X149851881Y-47850819D01*
X149851881Y-47850819D02*
X149613786Y-47850819D01*
X149613786Y-47850819D02*
X149518548Y-47803200D01*
X149518548Y-47803200D02*
X149470929Y-47755580D01*
X116840095Y-84218819D02*
X116840095Y-85028342D01*
X116840095Y-85028342D02*
X116887714Y-85123580D01*
X116887714Y-85123580D02*
X116935333Y-85171200D01*
X116935333Y-85171200D02*
X117030571Y-85218819D01*
X117030571Y-85218819D02*
X117221047Y-85218819D01*
X117221047Y-85218819D02*
X117316285Y-85171200D01*
X117316285Y-85171200D02*
X117363904Y-85123580D01*
X117363904Y-85123580D02*
X117411523Y-85028342D01*
X117411523Y-85028342D02*
X117411523Y-84218819D01*
X118411523Y-85218819D02*
X117840095Y-85218819D01*
X118125809Y-85218819D02*
X118125809Y-84218819D01*
X118125809Y-84218819D02*
X118030571Y-84361676D01*
X118030571Y-84361676D02*
X117935333Y-84456914D01*
X117935333Y-84456914D02*
X117840095Y-84504533D01*
X115421523Y-76435295D02*
X115040571Y-76435295D01*
X115040571Y-76435295D02*
X115040571Y-75635295D01*
X115688190Y-76435295D02*
X115688190Y-75635295D01*
X115688190Y-75635295D02*
X115954856Y-76206723D01*
X115954856Y-76206723D02*
X116221523Y-75635295D01*
X116221523Y-75635295D02*
X116221523Y-76435295D01*
X116526285Y-75635295D02*
X117059619Y-75635295D01*
X117059619Y-75635295D02*
X116716761Y-76435295D01*
X117478666Y-75978152D02*
X117402476Y-75940057D01*
X117402476Y-75940057D02*
X117364381Y-75901961D01*
X117364381Y-75901961D02*
X117326285Y-75825771D01*
X117326285Y-75825771D02*
X117326285Y-75787676D01*
X117326285Y-75787676D02*
X117364381Y-75711485D01*
X117364381Y-75711485D02*
X117402476Y-75673390D01*
X117402476Y-75673390D02*
X117478666Y-75635295D01*
X117478666Y-75635295D02*
X117631047Y-75635295D01*
X117631047Y-75635295D02*
X117707238Y-75673390D01*
X117707238Y-75673390D02*
X117745333Y-75711485D01*
X117745333Y-75711485D02*
X117783428Y-75787676D01*
X117783428Y-75787676D02*
X117783428Y-75825771D01*
X117783428Y-75825771D02*
X117745333Y-75901961D01*
X117745333Y-75901961D02*
X117707238Y-75940057D01*
X117707238Y-75940057D02*
X117631047Y-75978152D01*
X117631047Y-75978152D02*
X117478666Y-75978152D01*
X117478666Y-75978152D02*
X117402476Y-76016247D01*
X117402476Y-76016247D02*
X117364381Y-76054342D01*
X117364381Y-76054342D02*
X117326285Y-76130533D01*
X117326285Y-76130533D02*
X117326285Y-76282914D01*
X117326285Y-76282914D02*
X117364381Y-76359104D01*
X117364381Y-76359104D02*
X117402476Y-76397200D01*
X117402476Y-76397200D02*
X117478666Y-76435295D01*
X117478666Y-76435295D02*
X117631047Y-76435295D01*
X117631047Y-76435295D02*
X117707238Y-76397200D01*
X117707238Y-76397200D02*
X117745333Y-76359104D01*
X117745333Y-76359104D02*
X117783428Y-76282914D01*
X117783428Y-76282914D02*
X117783428Y-76130533D01*
X117783428Y-76130533D02*
X117745333Y-76054342D01*
X117745333Y-76054342D02*
X117707238Y-76016247D01*
X117707238Y-76016247D02*
X117631047Y-75978152D01*
X118126286Y-76435295D02*
X118126286Y-75635295D01*
X118126286Y-75635295D02*
X118392952Y-76206723D01*
X118392952Y-76206723D02*
X118659619Y-75635295D01*
X118659619Y-75635295D02*
X118659619Y-76435295D01*
X119192953Y-75635295D02*
X119269143Y-75635295D01*
X119269143Y-75635295D02*
X119345334Y-75673390D01*
X119345334Y-75673390D02*
X119383429Y-75711485D01*
X119383429Y-75711485D02*
X119421524Y-75787676D01*
X119421524Y-75787676D02*
X119459619Y-75940057D01*
X119459619Y-75940057D02*
X119459619Y-76130533D01*
X119459619Y-76130533D02*
X119421524Y-76282914D01*
X119421524Y-76282914D02*
X119383429Y-76359104D01*
X119383429Y-76359104D02*
X119345334Y-76397200D01*
X119345334Y-76397200D02*
X119269143Y-76435295D01*
X119269143Y-76435295D02*
X119192953Y-76435295D01*
X119192953Y-76435295D02*
X119116762Y-76397200D01*
X119116762Y-76397200D02*
X119078667Y-76359104D01*
X119078667Y-76359104D02*
X119040572Y-76282914D01*
X119040572Y-76282914D02*
X119002476Y-76130533D01*
X119002476Y-76130533D02*
X119002476Y-75940057D01*
X119002476Y-75940057D02*
X119040572Y-75787676D01*
X119040572Y-75787676D02*
X119078667Y-75711485D01*
X119078667Y-75711485D02*
X119116762Y-75673390D01*
X119116762Y-75673390D02*
X119192953Y-75635295D01*
X120183429Y-75635295D02*
X119802477Y-75635295D01*
X119802477Y-75635295D02*
X119764381Y-76016247D01*
X119764381Y-76016247D02*
X119802477Y-75978152D01*
X119802477Y-75978152D02*
X119878667Y-75940057D01*
X119878667Y-75940057D02*
X120069143Y-75940057D01*
X120069143Y-75940057D02*
X120145334Y-75978152D01*
X120145334Y-75978152D02*
X120183429Y-76016247D01*
X120183429Y-76016247D02*
X120221524Y-76092438D01*
X120221524Y-76092438D02*
X120221524Y-76282914D01*
X120221524Y-76282914D02*
X120183429Y-76359104D01*
X120183429Y-76359104D02*
X120145334Y-76397200D01*
X120145334Y-76397200D02*
X120069143Y-76435295D01*
X120069143Y-76435295D02*
X119878667Y-76435295D01*
X119878667Y-76435295D02*
X119802477Y-76397200D01*
X119802477Y-76397200D02*
X119764381Y-76359104D01*
D12*
%TO.C,C4*%
X150553748Y-57050000D02*
X151076252Y-57050000D01*
X150553748Y-58520000D02*
X151076252Y-58520000D01*
D10*
%TO.C,U2*%
X120470000Y-51560000D02*
X120695000Y-51560000D01*
X120470000Y-54810000D02*
X120470000Y-51560000D01*
X120470000Y-54810000D02*
X120695000Y-54810000D01*
X123720000Y-51560000D02*
X123495000Y-51560000D01*
X123720000Y-54810000D02*
X123495000Y-54810000D01*
X123720000Y-54810000D02*
X123720000Y-51560000D01*
D12*
X120695000Y-55285000D02*
X120365000Y-55525000D01*
X120365000Y-55045000D01*
X120695000Y-55285000D01*
G36*
X120695000Y-55285000D02*
G01*
X120365000Y-55525000D01*
X120365000Y-55045000D01*
X120695000Y-55285000D01*
G37*
%TO.C,J6*%
X114615000Y-98925000D02*
X114615000Y-99665000D01*
X114615000Y-99665000D02*
X115115000Y-99665000D01*
X114855000Y-89504000D02*
X114855000Y-99425000D01*
X114855000Y-89504000D02*
X125135000Y-89504000D01*
X114855000Y-92464000D02*
X125135000Y-92464000D01*
X114855000Y-97365000D02*
X125135000Y-97365000D01*
X114855000Y-98865000D02*
X125135000Y-98865000D01*
X114855000Y-99425000D02*
X125135000Y-99425000D01*
X121308000Y-95788000D02*
X121261000Y-95834000D01*
X121501000Y-96004000D02*
X121466000Y-96039000D01*
X123605000Y-93490000D02*
X123570000Y-93526000D01*
X123810000Y-93696000D02*
X123763000Y-93742000D01*
X125135000Y-89504000D02*
X125135000Y-99425000D01*
X115919573Y-95448042D02*
G75*
G02*
X115920000Y-94081000I1535420J683041D01*
G01*
X116771958Y-93229573D02*
G75*
G02*
X118139000Y-93230000I683041J-1535420D01*
G01*
X117483805Y-96445253D02*
G75*
G02*
X116771000Y-96300000I-28806J1680254D01*
G01*
X118138318Y-96299756D02*
G75*
G02*
X117455000Y-96445000I-683318J1534756D01*
G01*
X118990427Y-94081958D02*
G75*
G02*
X118990000Y-95449000I-1535427J-683042D01*
G01*
X124215000Y-94765000D02*
G75*
G02*
X120855000Y-94765000I-1680000J0D01*
G01*
X120855000Y-94765000D02*
G75*
G02*
X124215000Y-94765000I1680000J0D01*
G01*
%TO.C,R2*%
X137187000Y-50572936D02*
X137187000Y-51027064D01*
X138657000Y-50572936D02*
X138657000Y-51027064D01*
%TO.C,C5*%
X143561000Y-58720000D02*
X147471000Y-58720000D01*
X147471000Y-56850000D02*
X143561000Y-56850000D01*
X147471000Y-58720000D02*
X147471000Y-56850000D01*
%TO.C,J1*%
X102539500Y-55276000D02*
X102539500Y-37316000D01*
X102539500Y-55276000D02*
X118059500Y-55276000D01*
X118059500Y-37316000D02*
X102539500Y-37316000D01*
X118059500Y-55276000D02*
X118059500Y-37316000D01*
X118244500Y-51396000D02*
X118744500Y-51896000D01*
X118744500Y-50896000D02*
X118244500Y-51396000D01*
X118744500Y-51896000D02*
X118744500Y-50896000D01*
%TO.C,C1*%
X124393000Y-81596000D02*
X124393000Y-83466000D01*
X124393000Y-83466000D02*
X128303000Y-83466000D01*
X128303000Y-81596000D02*
X124393000Y-81596000D01*
%TO.C,R1*%
X126500064Y-41175000D02*
X126045936Y-41175000D01*
X126500064Y-42645000D02*
X126045936Y-42645000D01*
%TO.C,C2*%
X124393000Y-77024000D02*
X124393000Y-78894000D01*
X124393000Y-78894000D02*
X128303000Y-78894000D01*
X128303000Y-77024000D02*
X124393000Y-77024000D01*
D10*
%TO.C,U3*%
X125993000Y-50592000D02*
X126568000Y-50592000D01*
X125993000Y-56342000D02*
X125993000Y-50592000D01*
X125993000Y-56342000D02*
X126568000Y-56342000D01*
X136068000Y-50592000D02*
X136643000Y-50592000D01*
X136068000Y-56342000D02*
X136643000Y-56342000D01*
X136643000Y-56342000D02*
X136643000Y-50592000D01*
D12*
X126568000Y-56842000D02*
X126238000Y-57082000D01*
X126238000Y-56602000D01*
X126568000Y-56842000D01*
G36*
X126568000Y-56842000D02*
G01*
X126238000Y-57082000D01*
X126238000Y-56602000D01*
X126568000Y-56842000D01*
G37*
%TO.C,C3*%
X137187000Y-56141252D02*
X137187000Y-55618748D01*
X138657000Y-56141252D02*
X138657000Y-55618748D01*
%TO.C,J5*%
X103747000Y-59602000D02*
X154667000Y-59602000D01*
X103747000Y-62202000D02*
X103747000Y-59602000D01*
X103747000Y-64802000D02*
X103747000Y-63472000D01*
X105077000Y-64802000D02*
X103747000Y-64802000D01*
X106347000Y-62202000D02*
X103747000Y-62202000D01*
X106347000Y-64802000D02*
X106347000Y-62202000D01*
X106347000Y-64802000D02*
X154667000Y-64802000D01*
X154667000Y-64802000D02*
X154667000Y-59602000D01*
%TO.C,J4*%
X135615000Y-98925000D02*
X135615000Y-99665000D01*
X135615000Y-99665000D02*
X136115000Y-99665000D01*
X135855000Y-89504000D02*
X135855000Y-99425000D01*
X135855000Y-89504000D02*
X146135000Y-89504000D01*
X135855000Y-92464000D02*
X146135000Y-92464000D01*
X135855000Y-97365000D02*
X146135000Y-97365000D01*
X135855000Y-98865000D02*
X146135000Y-98865000D01*
X135855000Y-99425000D02*
X146135000Y-99425000D01*
X142308000Y-95788000D02*
X142261000Y-95834000D01*
X142501000Y-96004000D02*
X142466000Y-96039000D01*
X144605000Y-93490000D02*
X144570000Y-93526000D01*
X144810000Y-93696000D02*
X144763000Y-93742000D01*
X146135000Y-89504000D02*
X146135000Y-99425000D01*
X136919573Y-95448042D02*
G75*
G02*
X136920000Y-94081000I1535420J683041D01*
G01*
X137771958Y-93229573D02*
G75*
G02*
X139139000Y-93230000I683041J-1535420D01*
G01*
X138483805Y-96445253D02*
G75*
G02*
X137771000Y-96300000I-28806J1680254D01*
G01*
X139138318Y-96299756D02*
G75*
G02*
X138455000Y-96445000I-683318J1534756D01*
G01*
X139990427Y-94081958D02*
G75*
G02*
X139990000Y-95449000I-1535427J-683042D01*
G01*
X145215000Y-94765000D02*
G75*
G02*
X141855000Y-94765000I-1680000J0D01*
G01*
X141855000Y-94765000D02*
G75*
G02*
X145215000Y-94765000I1680000J0D01*
G01*
%TO.C,J7*%
X129219000Y-40189000D02*
X129219000Y-37459000D01*
X129219000Y-43789000D02*
X129219000Y-42889000D01*
X138289000Y-46869000D02*
X129339000Y-46869000D01*
X138409000Y-37459000D02*
X129219000Y-37459000D01*
X138409000Y-40189000D02*
X138409000Y-37459000D01*
X138409000Y-43789000D02*
X138409000Y-42889000D01*
%TO.C,J2*%
X140639500Y-55276000D02*
X140639500Y-37316000D01*
X140639500Y-55276000D02*
X156159500Y-55276000D01*
X156159500Y-37316000D02*
X140639500Y-37316000D01*
X156159500Y-55276000D02*
X156159500Y-37316000D01*
X156344500Y-51396000D02*
X156844500Y-51896000D01*
X156844500Y-50896000D02*
X156344500Y-51396000D01*
X156844500Y-51896000D02*
X156844500Y-50896000D01*
%TO.C,U1*%
X114492000Y-76814000D02*
X120912000Y-76814000D01*
X114492000Y-83714000D02*
X120912000Y-83714000D01*
X120912000Y-76814000D02*
X120912000Y-77084000D01*
X120912000Y-83714000D02*
X120912000Y-83444000D01*
X122572000Y-83734000D02*
X122092000Y-83734000D01*
X122332000Y-83404000D01*
X122572000Y-83734000D01*
G36*
X122572000Y-83734000D02*
G01*
X122092000Y-83734000D01*
X122332000Y-83404000D01*
X122572000Y-83734000D01*
G37*
%TD*%
M02*
