%TF.GenerationSoftware,KiCad,Pcbnew,8.0.4*%
%TF.CreationDate,2024-08-22T06:16:07+01:00*%
%TF.ProjectId,PicoChainBase,5069636f-4368-4616-996e-426173652e6b,rev?*%
%TF.SameCoordinates,Original*%
%TF.FileFunction,Soldermask,Bot*%
%TF.FilePolarity,Negative*%
%FSLAX46Y46*%
G04 Gerber Fmt 4.6, Leading zero omitted, Abs format (unit mm)*
G04 Created by KiCad (PCBNEW 8.0.4) date 2024-08-22 06:16:07*
%MOMM*%
%LPD*%
G01*
G04 APERTURE LIST*
%ADD10R,2.600000X2.600000*%
%ADD11C,2.600000*%
%ADD12C,3.200000*%
%ADD13R,1.500000X1.500000*%
%ADD14C,1.500000*%
%ADD15R,1.700000X1.700000*%
%ADD16O,1.700000X1.700000*%
%ADD17C,0.700000*%
%ADD18O,0.900000X2.400000*%
%ADD19O,0.900000X1.700000*%
G04 APERTURE END LIST*
D10*
%TO.C,J6*%
X117455000Y-94765000D03*
D11*
X122535000Y-94765000D03*
%TD*%
D12*
%TO.C,J1*%
X116014500Y-45046000D03*
X104584500Y-45046000D03*
D13*
X114744500Y-51396000D03*
D14*
X113474500Y-53936000D03*
X112204500Y-51396000D03*
X110934500Y-53936000D03*
X109664500Y-51396000D03*
X108394500Y-53936000D03*
X107124500Y-51396000D03*
X105854500Y-53936000D03*
%TD*%
D15*
%TO.C,J5*%
X105077000Y-63472000D03*
D16*
X105077000Y-60932000D03*
X107617000Y-63472000D03*
X107617000Y-60932000D03*
X110157000Y-63472000D03*
X110157000Y-60932000D03*
X112697000Y-63472000D03*
X112697000Y-60932000D03*
X115237000Y-63472000D03*
X115237000Y-60932000D03*
X117777000Y-63472000D03*
X117777000Y-60932000D03*
X120317000Y-63472000D03*
X120317000Y-60932000D03*
X122857000Y-63472000D03*
X122857000Y-60932000D03*
X125397000Y-63472000D03*
X125397000Y-60932000D03*
X127937000Y-63472000D03*
X127937000Y-60932000D03*
X130477000Y-63472000D03*
X130477000Y-60932000D03*
X133017000Y-63472000D03*
X133017000Y-60932000D03*
X135557000Y-63472000D03*
X135557000Y-60932000D03*
X138097000Y-63472000D03*
X138097000Y-60932000D03*
X140637000Y-63472000D03*
X140637000Y-60932000D03*
X143177000Y-63472000D03*
X143177000Y-60932000D03*
X145717000Y-63472000D03*
X145717000Y-60932000D03*
X148257000Y-63472000D03*
X148257000Y-60932000D03*
X150797000Y-63472000D03*
X150797000Y-60932000D03*
X153337000Y-63472000D03*
X153337000Y-60932000D03*
%TD*%
D10*
%TO.C,J4*%
X138455000Y-94765000D03*
D11*
X143535000Y-94765000D03*
%TD*%
D17*
%TO.C,J7*%
X136789000Y-46189000D03*
X135939000Y-46189000D03*
X135089000Y-46189000D03*
X134239000Y-46189000D03*
X133389000Y-46189000D03*
X132539000Y-46189000D03*
X131689000Y-46189000D03*
X130839000Y-46189000D03*
X130839000Y-44839000D03*
X131689000Y-44839000D03*
X132539000Y-44839000D03*
X133389000Y-44839000D03*
X134239000Y-44839000D03*
X135089000Y-44839000D03*
X135939000Y-44839000D03*
X136789000Y-44839000D03*
D18*
X138139000Y-45209000D03*
D19*
X138139000Y-41829000D03*
D18*
X129489000Y-45209000D03*
D19*
X129489000Y-41829000D03*
%TD*%
D12*
%TO.C,J2*%
X154114500Y-45046000D03*
X142684500Y-45046000D03*
D13*
X152844500Y-51396000D03*
D14*
X151574500Y-53936000D03*
X150304500Y-51396000D03*
X149034500Y-53936000D03*
X147764500Y-51396000D03*
X146494500Y-53936000D03*
X145224500Y-51396000D03*
X143954500Y-53936000D03*
%TD*%
M02*
