%TF.GenerationSoftware,KiCad,Pcbnew,8.0.4*%
%TF.CreationDate,2024-08-22T23:27:10+01:00*%
%TF.ProjectId,PicoChainZero,5069636f-4368-4616-996e-5a65726f2e6b,v1.1*%
%TF.SameCoordinates,Original*%
%TF.FileFunction,Copper,L1,Top*%
%TF.FilePolarity,Positive*%
%FSLAX46Y46*%
G04 Gerber Fmt 4.6, Leading zero omitted, Abs format (unit mm)*
G04 Created by KiCad (PCBNEW 8.0.4) date 2024-08-22 23:27:10*
%MOMM*%
%LPD*%
G01*
G04 APERTURE LIST*
G04 Aperture macros list*
%AMRoundRect*
0 Rectangle with rounded corners*
0 $1 Rounding radius*
0 $2 $3 $4 $5 $6 $7 $8 $9 X,Y pos of 4 corners*
0 Add a 4 corners polygon primitive as box body*
4,1,4,$2,$3,$4,$5,$6,$7,$8,$9,$2,$3,0*
0 Add four circle primitives for the rounded corners*
1,1,$1+$1,$2,$3*
1,1,$1+$1,$4,$5*
1,1,$1+$1,$6,$7*
1,1,$1+$1,$8,$9*
0 Add four rect primitives between the rounded corners*
20,1,$1+$1,$2,$3,$4,$5,0*
20,1,$1+$1,$4,$5,$6,$7,0*
20,1,$1+$1,$6,$7,$8,$9,0*
20,1,$1+$1,$8,$9,$2,$3,0*%
G04 Aperture macros list end*
%TA.AperFunction,SMDPad,CuDef*%
%ADD10RoundRect,0.250000X-0.250000X-0.475000X0.250000X-0.475000X0.250000X0.475000X-0.250000X0.475000X0*%
%TD*%
%TA.AperFunction,SMDPad,CuDef*%
%ADD11R,0.250000X1.100000*%
%TD*%
%TA.AperFunction,ComponentPad*%
%ADD12R,2.600000X2.600000*%
%TD*%
%TA.AperFunction,ComponentPad*%
%ADD13C,2.600000*%
%TD*%
%TA.AperFunction,SMDPad,CuDef*%
%ADD14RoundRect,0.250000X-0.450000X0.262500X-0.450000X-0.262500X0.450000X-0.262500X0.450000X0.262500X0*%
%TD*%
%TA.AperFunction,SMDPad,CuDef*%
%ADD15RoundRect,0.250000X0.450000X0.425000X-0.450000X0.425000X-0.450000X-0.425000X0.450000X-0.425000X0*%
%TD*%
%TA.AperFunction,ComponentPad*%
%ADD16R,1.500000X1.500000*%
%TD*%
%TA.AperFunction,ComponentPad*%
%ADD17C,1.500000*%
%TD*%
%TA.AperFunction,SMDPad,CuDef*%
%ADD18RoundRect,0.250000X-0.450000X-0.425000X0.450000X-0.425000X0.450000X0.425000X-0.450000X0.425000X0*%
%TD*%
%TA.AperFunction,SMDPad,CuDef*%
%ADD19RoundRect,0.250000X0.262500X0.450000X-0.262500X0.450000X-0.262500X-0.450000X0.262500X-0.450000X0*%
%TD*%
%TA.AperFunction,SMDPad,CuDef*%
%ADD20R,0.450000X1.750000*%
%TD*%
%TA.AperFunction,SMDPad,CuDef*%
%ADD21RoundRect,0.250000X0.475000X-0.250000X0.475000X0.250000X-0.475000X0.250000X-0.475000X-0.250000X0*%
%TD*%
%TA.AperFunction,ComponentPad*%
%ADD22R,1.700000X1.700000*%
%TD*%
%TA.AperFunction,ComponentPad*%
%ADD23O,1.700000X1.700000*%
%TD*%
%TA.AperFunction,ComponentPad*%
%ADD24C,0.700000*%
%TD*%
%TA.AperFunction,ComponentPad*%
%ADD25O,0.900000X2.400000*%
%TD*%
%TA.AperFunction,ComponentPad*%
%ADD26O,0.900000X1.700000*%
%TD*%
%TA.AperFunction,SMDPad,CuDef*%
%ADD27RoundRect,0.250000X0.850000X0.350000X-0.850000X0.350000X-0.850000X-0.350000X0.850000X-0.350000X0*%
%TD*%
%TA.AperFunction,SMDPad,CuDef*%
%ADD28RoundRect,0.250000X1.275000X1.125000X-1.275000X1.125000X-1.275000X-1.125000X1.275000X-1.125000X0*%
%TD*%
%TA.AperFunction,SMDPad,CuDef*%
%ADD29RoundRect,0.249997X2.950003X2.650003X-2.950003X2.650003X-2.950003X-2.650003X2.950003X-2.650003X0*%
%TD*%
%TA.AperFunction,ViaPad*%
%ADD30C,0.600000*%
%TD*%
%TA.AperFunction,Conductor*%
%ADD31C,0.200000*%
%TD*%
%TA.AperFunction,Conductor*%
%ADD32C,0.254000*%
%TD*%
%TA.AperFunction,Conductor*%
%ADD33C,0.508000*%
%TD*%
%TA.AperFunction,Conductor*%
%ADD34C,0.762000*%
%TD*%
%TA.AperFunction,Conductor*%
%ADD35C,0.381000*%
%TD*%
G04 APERTURE END LIST*
D10*
%TO.P,C4,1*%
%TO.N,Net-(U3-VCC)*%
X149865000Y-57785000D03*
%TO.P,C4,2*%
%TO.N,GND*%
X151765000Y-57785000D03*
%TD*%
D11*
%TO.P,U2,1,V_{DD(A)}*%
%TO.N,+5V*%
X121095000Y-55335000D03*
%TO.P,U2,2,SDA*%
%TO.N,Net-(J5-Pin_3)*%
X121595000Y-55335000D03*
%TO.P,U2,3,EN*%
%TO.N,unconnected-(U2-EN-Pad3)*%
X122095000Y-55335000D03*
%TO.P,U2,4,SCL*%
%TO.N,Net-(J5-Pin_5)*%
X122595000Y-55335000D03*
%TO.P,U2,5,V_{SS}*%
%TO.N,GND*%
X123095000Y-55335000D03*
%TO.P,U2,6,DSCLM*%
%TO.N,Net-(U2-DSCLM)*%
X123095000Y-51035000D03*
%TO.P,U2,7,DSCLP*%
%TO.N,Net-(U2-DSCLP)*%
X122595000Y-51035000D03*
%TO.P,U2,8,DSDAP*%
%TO.N,Net-(U2-DSDAP)*%
X122095000Y-51035000D03*
%TO.P,U2,9,DSDAM*%
%TO.N,Net-(U2-DSDAM)*%
X121595000Y-51035000D03*
%TO.P,U2,10,V_{DD(B)}*%
%TO.N,+5V*%
X121095000Y-51035000D03*
%TD*%
D12*
%TO.P,J6,1,Pin_1*%
%TO.N,GND*%
X117455000Y-94765000D03*
D13*
%TO.P,J6,2,Pin_2*%
%TO.N,+12V*%
X122535000Y-94765000D03*
%TD*%
D14*
%TO.P,R2,1*%
%TO.N,Net-(J7-CC1)*%
X137922000Y-49887500D03*
%TO.P,R2,2*%
%TO.N,GND*%
X137922000Y-51712500D03*
%TD*%
D15*
%TO.P,C5,1*%
%TO.N,Net-(U3-VCC)*%
X146511000Y-57785000D03*
%TO.P,C5,2*%
%TO.N,GND*%
X143811000Y-57785000D03*
%TD*%
D16*
%TO.P,J1,1*%
%TO.N,GND*%
X114744500Y-51396000D03*
D17*
%TO.P,J1,2*%
%TO.N,+24V*%
X113474500Y-53936000D03*
%TO.P,J1,3*%
%TO.N,Net-(U2-DSCLM)*%
X112204500Y-51396000D03*
%TO.P,J1,4*%
%TO.N,Net-(U2-DSCLP)*%
X110934500Y-53936000D03*
%TO.P,J1,5*%
%TO.N,Net-(U2-DSDAP)*%
X109664500Y-51396000D03*
%TO.P,J1,6*%
%TO.N,Net-(U2-DSDAM)*%
X108394500Y-53936000D03*
%TO.P,J1,7*%
%TO.N,GND*%
X107124500Y-51396000D03*
%TO.P,J1,8*%
%TO.N,+12V*%
X105854500Y-53936000D03*
%TD*%
D18*
%TO.P,C1,1*%
%TO.N,+12V*%
X125353000Y-82531000D03*
%TO.P,C1,2*%
%TO.N,GND*%
X128053000Y-82531000D03*
%TD*%
D19*
%TO.P,R1,1*%
%TO.N,Net-(J7-CC2)*%
X127185500Y-41910000D03*
%TO.P,R1,2*%
%TO.N,GND*%
X125360500Y-41910000D03*
%TD*%
D18*
%TO.P,C2,1*%
%TO.N,+5V*%
X125353000Y-77959000D03*
%TO.P,C2,2*%
%TO.N,GND*%
X128053000Y-77959000D03*
%TD*%
D20*
%TO.P,U3,1,TXD*%
%TO.N,Net-(J5-Pin_10)*%
X127093000Y-57067000D03*
%TO.P,U3,2,DTR*%
%TO.N,unconnected-(U3-DTR-Pad2)*%
X127743000Y-57067000D03*
%TO.P,U3,3,RTS*%
%TO.N,unconnected-(U3-RTS-Pad3)*%
X128393000Y-57067000D03*
%TO.P,U3,4,VCCIO*%
%TO.N,+5V*%
X129043000Y-57067000D03*
%TO.P,U3,5,RXD*%
%TO.N,Net-(J5-Pin_8)*%
X129693000Y-57067000D03*
%TO.P,U3,6,RI*%
%TO.N,unconnected-(U3-RI-Pad6)*%
X130343000Y-57067000D03*
%TO.P,U3,7,GND*%
%TO.N,GND*%
X130993000Y-57067000D03*
%TO.P,U3,8*%
%TO.N,N/C*%
X131643000Y-57067000D03*
%TO.P,U3,9,DCR*%
%TO.N,unconnected-(U3-DCR-Pad9)*%
X132293000Y-57067000D03*
%TO.P,U3,10,DCD*%
%TO.N,unconnected-(U3-DCD-Pad10)*%
X132943000Y-57067000D03*
%TO.P,U3,11,CTS*%
%TO.N,unconnected-(U3-CTS-Pad11)*%
X133593000Y-57067000D03*
%TO.P,U3,12,CBUS4*%
%TO.N,unconnected-(U3-CBUS4-Pad12)*%
X134243000Y-57067000D03*
%TO.P,U3,13,CBUS2*%
%TO.N,unconnected-(U3-CBUS2-Pad13)*%
X134893000Y-57067000D03*
%TO.P,U3,14,CBUS3*%
%TO.N,unconnected-(U3-CBUS3-Pad14)*%
X135543000Y-57067000D03*
%TO.P,U3,15,USBD+*%
%TO.N,Net-(U3-USBD+)*%
X135543000Y-49867000D03*
%TO.P,U3,16,USBD-*%
%TO.N,Net-(U3-USBD-)*%
X134893000Y-49867000D03*
%TO.P,U3,17,3V3OUT*%
%TO.N,Net-(U3-3V3OUT)*%
X134243000Y-49867000D03*
%TO.P,U3,18,GND*%
%TO.N,GND*%
X133593000Y-49867000D03*
%TO.P,U3,19,~{RESET}*%
%TO.N,unconnected-(U3-~{RESET}-Pad19)*%
X132943000Y-49867000D03*
%TO.P,U3,20,VCC*%
%TO.N,Net-(U3-VCC)*%
X132293000Y-49867000D03*
%TO.P,U3,21,GND*%
%TO.N,GND*%
X131643000Y-49867000D03*
%TO.P,U3,22,CBUS1*%
%TO.N,unconnected-(U3-CBUS1-Pad22)*%
X130993000Y-49867000D03*
%TO.P,U3,23,CBUS0*%
%TO.N,unconnected-(U3-CBUS0-Pad23)*%
X130343000Y-49867000D03*
%TO.P,U3,24*%
%TO.N,N/C*%
X129693000Y-49867000D03*
%TO.P,U3,25,AGND*%
%TO.N,GND*%
X129043000Y-49867000D03*
%TO.P,U3,26,TEST*%
X128393000Y-49867000D03*
%TO.P,U3,27,OSCI*%
%TO.N,unconnected-(U3-OSCI-Pad27)*%
X127743000Y-49867000D03*
%TO.P,U3,28,OSCO*%
%TO.N,unconnected-(U3-OSCO-Pad28)*%
X127093000Y-49867000D03*
%TD*%
D21*
%TO.P,C3,1*%
%TO.N,GND*%
X137922000Y-56830000D03*
%TO.P,C3,2*%
%TO.N,Net-(U3-3V3OUT)*%
X137922000Y-54930000D03*
%TD*%
D22*
%TO.P,J5,1,Pin_1*%
%TO.N,unconnected-(J5-Pin_1-Pad1)*%
X105077000Y-63472000D03*
D23*
%TO.P,J5,2,Pin_2*%
%TO.N,+5V*%
X105077000Y-60932000D03*
%TO.P,J5,3,Pin_3*%
%TO.N,Net-(J5-Pin_3)*%
X107617000Y-63472000D03*
%TO.P,J5,4,Pin_4*%
%TO.N,unconnected-(J5-Pin_4-Pad4)*%
X107617000Y-60932000D03*
%TO.P,J5,5,Pin_5*%
%TO.N,Net-(J5-Pin_5)*%
X110157000Y-63472000D03*
%TO.P,J5,6,Pin_6*%
%TO.N,unconnected-(J5-Pin_6-Pad6)*%
X110157000Y-60932000D03*
%TO.P,J5,7,Pin_7*%
%TO.N,unconnected-(J5-Pin_7-Pad7)*%
X112697000Y-63472000D03*
%TO.P,J5,8,Pin_8*%
%TO.N,Net-(J5-Pin_8)*%
X112697000Y-60932000D03*
%TO.P,J5,9,Pin_9*%
%TO.N,unconnected-(J5-Pin_9-Pad9)*%
X115237000Y-63472000D03*
%TO.P,J5,10,Pin_10*%
%TO.N,Net-(J5-Pin_10)*%
X115237000Y-60932000D03*
%TO.P,J5,11,Pin_11*%
%TO.N,unconnected-(J5-Pin_11-Pad11)*%
X117777000Y-63472000D03*
%TO.P,J5,12,Pin_12*%
%TO.N,unconnected-(J5-Pin_12-Pad12)*%
X117777000Y-60932000D03*
%TO.P,J5,13,Pin_13*%
%TO.N,unconnected-(J5-Pin_13-Pad13)*%
X120317000Y-63472000D03*
%TO.P,J5,14,Pin_14*%
%TO.N,unconnected-(J5-Pin_14-Pad14)*%
X120317000Y-60932000D03*
%TO.P,J5,15,Pin_15*%
%TO.N,unconnected-(J5-Pin_15-Pad15)*%
X122857000Y-63472000D03*
%TO.P,J5,16,Pin_16*%
%TO.N,unconnected-(J5-Pin_16-Pad16)*%
X122857000Y-60932000D03*
%TO.P,J5,17,Pin_17*%
%TO.N,unconnected-(J5-Pin_17-Pad17)*%
X125397000Y-63472000D03*
%TO.P,J5,18,Pin_18*%
%TO.N,unconnected-(J5-Pin_18-Pad18)*%
X125397000Y-60932000D03*
%TO.P,J5,19,Pin_19*%
%TO.N,unconnected-(J5-Pin_19-Pad19)*%
X127937000Y-63472000D03*
%TO.P,J5,20,Pin_20*%
%TO.N,unconnected-(J5-Pin_20-Pad20)*%
X127937000Y-60932000D03*
%TO.P,J5,21,Pin_21*%
%TO.N,unconnected-(J5-Pin_21-Pad21)*%
X130477000Y-63472000D03*
%TO.P,J5,22,Pin_22*%
%TO.N,unconnected-(J5-Pin_22-Pad22)*%
X130477000Y-60932000D03*
%TO.P,J5,23,Pin_23*%
%TO.N,unconnected-(J5-Pin_23-Pad23)*%
X133017000Y-63472000D03*
%TO.P,J5,24,Pin_24*%
%TO.N,unconnected-(J5-Pin_24-Pad24)*%
X133017000Y-60932000D03*
%TO.P,J5,25,Pin_25*%
%TO.N,unconnected-(J5-Pin_25-Pad25)*%
X135557000Y-63472000D03*
%TO.P,J5,26,Pin_26*%
%TO.N,unconnected-(J5-Pin_26-Pad26)*%
X135557000Y-60932000D03*
%TO.P,J5,27,Pin_27*%
%TO.N,unconnected-(J5-Pin_27-Pad27)*%
X138097000Y-63472000D03*
%TO.P,J5,28,Pin_28*%
%TO.N,unconnected-(J5-Pin_28-Pad28)*%
X138097000Y-60932000D03*
%TO.P,J5,29,Pin_29*%
%TO.N,unconnected-(J5-Pin_29-Pad29)*%
X140637000Y-63472000D03*
%TO.P,J5,30,Pin_30*%
%TO.N,unconnected-(J5-Pin_30-Pad30)*%
X140637000Y-60932000D03*
%TO.P,J5,31,Pin_31*%
%TO.N,unconnected-(J5-Pin_31-Pad31)*%
X143177000Y-63472000D03*
%TO.P,J5,32,Pin_32*%
%TO.N,unconnected-(J5-Pin_32-Pad32)*%
X143177000Y-60932000D03*
%TO.P,J5,33,Pin_33*%
%TO.N,unconnected-(J5-Pin_33-Pad33)*%
X145717000Y-63472000D03*
%TO.P,J5,34,Pin_34*%
%TO.N,unconnected-(J5-Pin_34-Pad34)*%
X145717000Y-60932000D03*
%TO.P,J5,35,Pin_35*%
%TO.N,unconnected-(J5-Pin_35-Pad35)*%
X148257000Y-63472000D03*
%TO.P,J5,36,Pin_36*%
%TO.N,unconnected-(J5-Pin_36-Pad36)*%
X148257000Y-60932000D03*
%TO.P,J5,37,Pin_37*%
%TO.N,unconnected-(J5-Pin_37-Pad37)*%
X150797000Y-63472000D03*
%TO.P,J5,38,Pin_38*%
%TO.N,unconnected-(J5-Pin_38-Pad38)*%
X150797000Y-60932000D03*
%TO.P,J5,39,Pin_39*%
%TO.N,GND*%
X153337000Y-63472000D03*
%TO.P,J5,40,Pin_40*%
%TO.N,unconnected-(J5-Pin_40-Pad40)*%
X153337000Y-60932000D03*
%TD*%
D12*
%TO.P,J4,1,Pin_1*%
%TO.N,GND*%
X138455000Y-94765000D03*
D13*
%TO.P,J4,2,Pin_2*%
%TO.N,+24V*%
X143535000Y-94765000D03*
%TD*%
D24*
%TO.P,J7,A1,GND*%
%TO.N,GND*%
X136789000Y-46189000D03*
%TO.P,J7,A4,VBUS*%
%TO.N,Net-(U3-VCC)*%
X135939000Y-46189000D03*
%TO.P,J7,A5,CC1*%
%TO.N,Net-(J7-CC1)*%
X135089000Y-46189000D03*
%TO.P,J7,A6,D+*%
%TO.N,Net-(U3-USBD+)*%
X134239000Y-46189000D03*
%TO.P,J7,A7,D-*%
%TO.N,Net-(U3-USBD-)*%
X133389000Y-46189000D03*
%TO.P,J7,A8*%
%TO.N,N/C*%
X132539000Y-46189000D03*
%TO.P,J7,A9,VBUS*%
%TO.N,Net-(U3-VCC)*%
X131689000Y-46189000D03*
%TO.P,J7,A12,GND*%
%TO.N,GND*%
X130839000Y-46189000D03*
%TO.P,J7,B1,GND*%
X130839000Y-44839000D03*
%TO.P,J7,B4,VBUS*%
%TO.N,Net-(U3-VCC)*%
X131689000Y-44839000D03*
%TO.P,J7,B5,CC2*%
%TO.N,Net-(J7-CC2)*%
X132539000Y-44839000D03*
%TO.P,J7,B6,D+*%
%TO.N,Net-(U3-USBD+)*%
X133389000Y-44839000D03*
%TO.P,J7,B7,D-*%
%TO.N,Net-(U3-USBD-)*%
X134239000Y-44839000D03*
%TO.P,J7,B8*%
%TO.N,N/C*%
X135089000Y-44839000D03*
%TO.P,J7,B9,VBUS*%
%TO.N,Net-(U3-VCC)*%
X135939000Y-44839000D03*
%TO.P,J7,B12,GND*%
%TO.N,GND*%
X136789000Y-44839000D03*
D25*
%TO.P,J7,S1,SHIELD*%
X138139000Y-45209000D03*
D26*
X138139000Y-41829000D03*
D25*
X129489000Y-45209000D03*
D26*
X129489000Y-41829000D03*
%TD*%
D16*
%TO.P,J2,1*%
%TO.N,GND*%
X152844500Y-51396000D03*
D17*
%TO.P,J2,2*%
%TO.N,+24V*%
X151574500Y-53936000D03*
%TO.P,J2,3*%
%TO.N,Net-(U2-DSCLM)*%
X150304500Y-51396000D03*
%TO.P,J2,4*%
%TO.N,Net-(U2-DSCLP)*%
X149034500Y-53936000D03*
%TO.P,J2,5*%
%TO.N,Net-(U2-DSDAP)*%
X147764500Y-51396000D03*
%TO.P,J2,6*%
%TO.N,Net-(U2-DSDAM)*%
X146494500Y-53936000D03*
%TO.P,J2,7*%
%TO.N,GND*%
X145224500Y-51396000D03*
%TO.P,J2,8*%
%TO.N,+12V*%
X143954500Y-53936000D03*
%TD*%
D27*
%TO.P,U1,1,VI*%
%TO.N,+12V*%
X122642000Y-82544000D03*
D28*
%TO.P,U1,2,GND*%
%TO.N,GND*%
X118017000Y-81789000D03*
X118017000Y-78739000D03*
D29*
X116342000Y-80264000D03*
D28*
X114667000Y-81789000D03*
X114667000Y-78739000D03*
D27*
%TO.P,U1,3,VO*%
%TO.N,+5V*%
X122642000Y-77984000D03*
%TD*%
D30*
%TO.N,+5V*%
X128397000Y-65532000D03*
X125349000Y-72771000D03*
%TO.N,+12V*%
X142299000Y-56701000D03*
%TO.N,Net-(U2-DSDAP)*%
X118031000Y-48486000D03*
X144755500Y-48387000D03*
X123018318Y-48536318D03*
%TO.N,Net-(U2-DSDAM)*%
X118059200Y-47498000D03*
X142875000Y-47625000D03*
X123046318Y-47498000D03*
%TO.N,Net-(U2-DSCLM)*%
X123056000Y-52732000D03*
%TO.N,Net-(U2-DSCLP)*%
X118031000Y-49502000D03*
X150193000Y-49149000D03*
X122984000Y-49534000D03*
%TO.N,Net-(U3-VCC)*%
X132293000Y-48514000D03*
%TD*%
D31*
%TO.N,+5V*%
X125353000Y-72775000D02*
X125353000Y-77959000D01*
X125349000Y-72771000D02*
X125353000Y-72775000D01*
X125353000Y-72767000D02*
X125349000Y-72771000D01*
X129159000Y-64770000D02*
X128397000Y-65532000D01*
X129159000Y-57183000D02*
X129159000Y-64770000D01*
X129043000Y-57067000D02*
X129159000Y-57183000D01*
D32*
%TO.N,GND*%
X130839000Y-46034000D02*
X130839000Y-44684000D01*
X128393000Y-50996000D02*
X128393000Y-49867000D01*
X124054000Y-55335000D02*
X128393000Y-50996000D01*
X123095000Y-55335000D02*
X124054000Y-55335000D01*
X128314000Y-50116000D02*
X128314000Y-48823000D01*
D33*
%TO.N,+5V*%
X105077000Y-58499000D02*
X105077000Y-60932000D01*
D32*
X119380000Y-57150000D02*
X119380000Y-57050000D01*
D33*
X106426000Y-57150000D02*
X105077000Y-58499000D01*
X102870000Y-63139000D02*
X102870000Y-66548000D01*
X119380000Y-57150000D02*
X106426000Y-57150000D01*
X102870000Y-66548000D02*
X108204000Y-71882000D01*
X122667000Y-77959000D02*
X122642000Y-77984000D01*
X105077000Y-60932000D02*
X102870000Y-63139000D01*
X108204000Y-71882000D02*
X116540000Y-71882000D01*
D32*
X121095000Y-55335000D02*
X121095000Y-51035000D01*
D33*
X125353000Y-77959000D02*
X122667000Y-77959000D01*
X116540000Y-71882000D02*
X122642000Y-77984000D01*
D32*
X119380000Y-57050000D02*
X121095000Y-55335000D01*
D34*
%TO.N,+12V*%
X105854500Y-53936000D02*
X101394000Y-58396500D01*
X142299000Y-56701000D02*
X143891000Y-55109000D01*
X143891000Y-55109000D02*
X143891000Y-53999500D01*
X125353000Y-82531000D02*
X122655000Y-82531000D01*
X122535000Y-82651000D02*
X122642000Y-82544000D01*
X143891000Y-53999500D02*
X143954500Y-53936000D01*
X122535000Y-94765000D02*
X122535000Y-82651000D01*
X101394000Y-73624000D02*
X122535000Y-94765000D01*
X122655000Y-82531000D02*
X122642000Y-82544000D01*
X101394000Y-58396500D02*
X101394000Y-73624000D01*
D32*
%TO.N,Net-(U3-3V3OUT)*%
X134243000Y-54360000D02*
X134874000Y-54991000D01*
X134874000Y-54991000D02*
X137734000Y-54991000D01*
X134243000Y-49867000D02*
X134243000Y-54360000D01*
D33*
%TO.N,Net-(U2-DSDAP)*%
X144755500Y-48387000D02*
X147764500Y-51396000D01*
D32*
X123018318Y-48536318D02*
X122095000Y-49459636D01*
D33*
X118015000Y-48502000D02*
X111986000Y-48502000D01*
X111986000Y-48502000D02*
X109664500Y-50823500D01*
D32*
X122095000Y-49459636D02*
X122095000Y-51035000D01*
D33*
%TO.N,Net-(U2-DSDAM)*%
X111523814Y-47498000D02*
X108394500Y-50627314D01*
X142875000Y-47625000D02*
X142875000Y-50749214D01*
X146494500Y-53936000D02*
X146494500Y-53856000D01*
D32*
X121595000Y-48949318D02*
X121595000Y-51035000D01*
D33*
X146061786Y-53936000D02*
X146494500Y-53936000D01*
X108394500Y-50627314D02*
X108394500Y-53856000D01*
D32*
X123046318Y-47498000D02*
X121595000Y-48949318D01*
D33*
X118059200Y-47498000D02*
X111523814Y-47498000D01*
X142875000Y-50749214D02*
X146061786Y-53936000D01*
D32*
%TO.N,Net-(U2-DSCLM)*%
X123095000Y-51035000D02*
X123095000Y-52693000D01*
X123095000Y-52693000D02*
X123056000Y-52732000D01*
D33*
%TO.N,Net-(U2-DSCLP)*%
X110934500Y-50883286D02*
X110934500Y-53856000D01*
D32*
X122595000Y-49923000D02*
X122984000Y-49534000D01*
X122595000Y-51035000D02*
X122595000Y-49923000D01*
D33*
X112283786Y-49534000D02*
X110934500Y-50883286D01*
X151508500Y-52159500D02*
X149812000Y-53856000D01*
X117999000Y-49534000D02*
X112283786Y-49534000D01*
X149812000Y-53856000D02*
X149467214Y-53856000D01*
X150193000Y-49149000D02*
X151508500Y-50464500D01*
X151508500Y-50464500D02*
X151508500Y-52159500D01*
D32*
%TO.N,Net-(U3-VCC)*%
X137541000Y-48133000D02*
X135939000Y-46531000D01*
X131689000Y-46034000D02*
X131689000Y-44684000D01*
X145114000Y-59182000D02*
X142478000Y-59182000D01*
X140589000Y-57293000D02*
X140589000Y-49784000D01*
X140589000Y-49784000D02*
X138938000Y-48133000D01*
X146511000Y-57785000D02*
X149865000Y-57785000D01*
X138938000Y-48133000D02*
X137541000Y-48133000D01*
X132293000Y-48514000D02*
X132293000Y-49867000D01*
X142478000Y-59182000D02*
X140589000Y-57293000D01*
X135939000Y-46531000D02*
X135939000Y-44684000D01*
X146511000Y-57785000D02*
X145114000Y-59182000D01*
%TO.N,Net-(U3-USBD+)*%
X133389000Y-44871922D02*
X133389000Y-44839000D01*
X135543000Y-48421000D02*
X135543000Y-49867000D01*
X134239000Y-47117000D02*
X135543000Y-48421000D01*
X134239000Y-45721922D02*
X133389000Y-44871922D01*
X134239000Y-46189000D02*
X134239000Y-45721922D01*
X134239000Y-46189000D02*
X134239000Y-47117000D01*
X133389000Y-44684000D02*
X133389000Y-44791423D01*
%TO.N,Net-(J7-CC1)*%
X135089000Y-47205000D02*
X137560000Y-49676000D01*
X135089000Y-46034000D02*
X135089000Y-47205000D01*
X137560000Y-49676000D02*
X137703000Y-49676000D01*
D35*
%TO.N,Net-(J5-Pin_3)*%
X108916500Y-60418168D02*
X108916500Y-62172500D01*
D32*
X121595000Y-56164000D02*
X121595000Y-55335000D01*
D35*
X111422668Y-57912000D02*
X108916500Y-60418168D01*
X108916500Y-62172500D02*
X107617000Y-63472000D01*
X121117000Y-56642000D02*
X119847000Y-57912000D01*
D32*
X121117000Y-56642000D02*
X121595000Y-56164000D01*
D35*
X119847000Y-57912000D02*
X111422668Y-57912000D01*
%TO.N,Net-(J5-Pin_5)*%
X111397500Y-62231500D02*
X110157000Y-63472000D01*
D32*
X121355000Y-57404000D02*
X122595000Y-56164000D01*
D35*
X121355000Y-57404000D02*
X120085000Y-58674000D01*
X120085000Y-58674000D02*
X113030000Y-58674000D01*
X111397500Y-60306500D02*
X111397500Y-62231500D01*
X113030000Y-58674000D02*
X111397500Y-60306500D01*
D32*
X122595000Y-56164000D02*
X122595000Y-55335000D01*
D35*
%TO.N,Net-(J5-Pin_8)*%
X126493500Y-54328000D02*
X128185000Y-54328000D01*
X128185000Y-54328000D02*
X129693000Y-55836000D01*
X114193000Y-59436000D02*
X121385500Y-59436000D01*
X129693000Y-55836000D02*
X129693000Y-57067000D01*
X121385500Y-59436000D02*
X126493500Y-54328000D01*
X112697000Y-60932000D02*
X114193000Y-59436000D01*
%TO.N,Net-(J5-Pin_10)*%
X125813000Y-57067000D02*
X127093000Y-57067000D01*
X123311832Y-62231500D02*
X116536500Y-62231500D01*
X124097500Y-61445832D02*
X123311832Y-62231500D01*
X124097500Y-58782500D02*
X124097500Y-61445832D01*
X116536500Y-62231500D02*
X115237000Y-60932000D01*
X124097500Y-58782500D02*
X125813000Y-57067000D01*
D32*
%TO.N,Net-(J7-CC2)*%
X132539000Y-42640329D02*
X130538671Y-40640000D01*
X132539000Y-44684000D02*
X132539000Y-42640329D01*
X130538671Y-40640000D02*
X128455500Y-40640000D01*
X128455500Y-40640000D02*
X127185500Y-41910000D01*
%TO.N,Net-(U3-USBD-)*%
X134239000Y-44684000D02*
X134239000Y-44791423D01*
X134893000Y-48688500D02*
X134893000Y-49867000D01*
X133389000Y-46189000D02*
X133389000Y-47184500D01*
X133389000Y-47184500D02*
X134893000Y-48688500D01*
%TD*%
%TA.AperFunction,Conductor*%
%TO.N,GND*%
G36*
X124871072Y-40520502D02*
G01*
X124917565Y-40574158D01*
X124927669Y-40644432D01*
X124898175Y-40709012D01*
X124842584Y-40746104D01*
X124775478Y-40768340D01*
X124624660Y-40861365D01*
X124624654Y-40861370D01*
X124499370Y-40986654D01*
X124499365Y-40986660D01*
X124406342Y-41137474D01*
X124350606Y-41305678D01*
X124350605Y-41305681D01*
X124340000Y-41409483D01*
X124340000Y-41656000D01*
X125488500Y-41656000D01*
X125556621Y-41676002D01*
X125603114Y-41729658D01*
X125614500Y-41782000D01*
X125614500Y-43118000D01*
X125673517Y-43118000D01*
X125673516Y-43117999D01*
X125777318Y-43107394D01*
X125777321Y-43107393D01*
X125945525Y-43051657D01*
X126096339Y-42958634D01*
X126096345Y-42958629D01*
X126221629Y-42833345D01*
X126221636Y-42833336D01*
X126316674Y-42679255D01*
X126369459Y-42631776D01*
X126439534Y-42620373D01*
X126504650Y-42648665D01*
X126524783Y-42669892D01*
X126562595Y-42720403D01*
X126562596Y-42720404D01*
X126678733Y-42807342D01*
X126814658Y-42858040D01*
X126874745Y-42864500D01*
X127496254Y-42864499D01*
X127556342Y-42858040D01*
X127692267Y-42807342D01*
X127808404Y-42720404D01*
X127895342Y-42604267D01*
X127946040Y-42468342D01*
X127952500Y-42408255D01*
X127952499Y-41734712D01*
X127972501Y-41666592D01*
X127989399Y-41645622D01*
X128315906Y-41319116D01*
X128378217Y-41285092D01*
X128449033Y-41290157D01*
X128505868Y-41332704D01*
X128530679Y-41399224D01*
X128531000Y-41408213D01*
X128531000Y-41575000D01*
X129189000Y-41575000D01*
X129189000Y-42083000D01*
X128531000Y-42083000D01*
X128531000Y-42323358D01*
X128567816Y-42508438D01*
X128567817Y-42508441D01*
X128640032Y-42682783D01*
X128744870Y-42839684D01*
X128744875Y-42839691D01*
X128878308Y-42973124D01*
X128878315Y-42973129D01*
X129035216Y-43077967D01*
X129209558Y-43150182D01*
X129209561Y-43150183D01*
X129235000Y-43155243D01*
X129235000Y-42389060D01*
X129248940Y-42413205D01*
X129304795Y-42469060D01*
X129373204Y-42508556D01*
X129449504Y-42529000D01*
X129528496Y-42529000D01*
X129604796Y-42508556D01*
X129673205Y-42469060D01*
X129729060Y-42413205D01*
X129743000Y-42389060D01*
X129743000Y-43155242D01*
X129768438Y-43150183D01*
X129768441Y-43150182D01*
X129942783Y-43077967D01*
X130099684Y-42973129D01*
X130099691Y-42973124D01*
X130233124Y-42839691D01*
X130233129Y-42839684D01*
X130337967Y-42682783D01*
X130410182Y-42508441D01*
X130410183Y-42508438D01*
X130446999Y-42323358D01*
X130447000Y-42323355D01*
X130447000Y-42083000D01*
X129789000Y-42083000D01*
X129789000Y-41575000D01*
X130447000Y-41575000D01*
X130447000Y-41392041D01*
X130467002Y-41323920D01*
X130520658Y-41277427D01*
X130590932Y-41267323D01*
X130655512Y-41296817D01*
X130662082Y-41302934D01*
X131442149Y-42083000D01*
X132120595Y-42761446D01*
X132154621Y-42823758D01*
X132157500Y-42850541D01*
X132157500Y-44190180D01*
X132137498Y-44258301D01*
X132083842Y-44304794D01*
X132013568Y-44314898D01*
X131983283Y-44306589D01*
X131846806Y-44250060D01*
X131689000Y-44229284D01*
X131531193Y-44250060D01*
X131384145Y-44310967D01*
X131291883Y-44381763D01*
X131248246Y-44398632D01*
X131242388Y-44425565D01*
X131231762Y-44441884D01*
X131160968Y-44534142D01*
X131100060Y-44681193D01*
X131079284Y-44839000D01*
X131079284Y-44839003D01*
X131085008Y-44882487D01*
X131074068Y-44952635D01*
X131049182Y-44988026D01*
X130928095Y-45109114D01*
X130865783Y-45143139D01*
X130794967Y-45138075D01*
X130749904Y-45109114D01*
X130568885Y-44928095D01*
X130534859Y-44865783D01*
X130539620Y-44799218D01*
X130639000Y-44799218D01*
X130639000Y-44878782D01*
X130669448Y-44952291D01*
X130725709Y-45008552D01*
X130799218Y-45039000D01*
X130878782Y-45039000D01*
X130952291Y-45008552D01*
X131008552Y-44952291D01*
X131039000Y-44878782D01*
X131039000Y-44799218D01*
X131008552Y-44725709D01*
X130952291Y-44669448D01*
X130878782Y-44639000D01*
X130799218Y-44639000D01*
X130725709Y-44669448D01*
X130669448Y-44725709D01*
X130639000Y-44799218D01*
X130539620Y-44799218D01*
X130539924Y-44794968D01*
X130568885Y-44749905D01*
X131042705Y-44276085D01*
X131100012Y-44244791D01*
X131113420Y-44207496D01*
X131126084Y-44192704D01*
X131240311Y-44078476D01*
X131105599Y-44018499D01*
X130929179Y-43981000D01*
X130748821Y-43981000D01*
X130572400Y-44018499D01*
X130495573Y-44052705D01*
X130425206Y-44062139D01*
X130360909Y-44032032D01*
X130339560Y-44007600D01*
X130233129Y-43848314D01*
X130233124Y-43848308D01*
X130099691Y-43714875D01*
X130099684Y-43714870D01*
X129942783Y-43610032D01*
X129768438Y-43537816D01*
X129743000Y-43532755D01*
X129743000Y-44298939D01*
X129729060Y-44274795D01*
X129673205Y-44218940D01*
X129604796Y-44179444D01*
X129528496Y-44159000D01*
X129449504Y-44159000D01*
X129373204Y-44179444D01*
X129304795Y-44218940D01*
X129248940Y-44274795D01*
X129235000Y-44298939D01*
X129235000Y-43532755D01*
X129234999Y-43532755D01*
X129209561Y-43537816D01*
X129035216Y-43610032D01*
X128878315Y-43714870D01*
X128878308Y-43714875D01*
X128744875Y-43848308D01*
X128744870Y-43848315D01*
X128640032Y-44005216D01*
X128567817Y-44179558D01*
X128567816Y-44179561D01*
X128531000Y-44364641D01*
X128531000Y-44955000D01*
X129189000Y-44955000D01*
X129189000Y-45463000D01*
X128531000Y-45463000D01*
X128531000Y-46053358D01*
X128567816Y-46238438D01*
X128567817Y-46238441D01*
X128640032Y-46412783D01*
X128744870Y-46569684D01*
X128744875Y-46569691D01*
X128878308Y-46703124D01*
X128878315Y-46703129D01*
X129035216Y-46807967D01*
X129209558Y-46880182D01*
X129209561Y-46880183D01*
X129235000Y-46885243D01*
X129235000Y-46119060D01*
X129248940Y-46143205D01*
X129304795Y-46199060D01*
X129373204Y-46238556D01*
X129449504Y-46259000D01*
X129528496Y-46259000D01*
X129604796Y-46238556D01*
X129673205Y-46199060D01*
X129729060Y-46143205D01*
X129743000Y-46119060D01*
X129743000Y-46885242D01*
X129768438Y-46880183D01*
X129768441Y-46880182D01*
X129942782Y-46807967D01*
X130087238Y-46711444D01*
X130088914Y-46694437D01*
X130077361Y-46673280D01*
X130082426Y-46602465D01*
X130111387Y-46557401D01*
X130519571Y-46149218D01*
X130639000Y-46149218D01*
X130639000Y-46228782D01*
X130669448Y-46302291D01*
X130725709Y-46358552D01*
X130799218Y-46389000D01*
X130878782Y-46389000D01*
X130952291Y-46358552D01*
X131008552Y-46302291D01*
X131039000Y-46228782D01*
X131039000Y-46149218D01*
X131008552Y-46075709D01*
X130952291Y-46019448D01*
X130878782Y-45989000D01*
X130799218Y-45989000D01*
X130725709Y-46019448D01*
X130669448Y-46075709D01*
X130639000Y-46149218D01*
X130519571Y-46149218D01*
X130749905Y-45918884D01*
X130812217Y-45884859D01*
X130883033Y-45889924D01*
X130928095Y-45918885D01*
X131049181Y-46039971D01*
X131083207Y-46102283D01*
X131085008Y-46145509D01*
X131079284Y-46188995D01*
X131079284Y-46188999D01*
X131079284Y-46189000D01*
X131094199Y-46302291D01*
X131100060Y-46346806D01*
X131160968Y-46493857D01*
X131231759Y-46586112D01*
X131248631Y-46629754D01*
X131275568Y-46635614D01*
X131291887Y-46646240D01*
X131384142Y-46717031D01*
X131468353Y-46751911D01*
X131531194Y-46777940D01*
X131689000Y-46798716D01*
X131846806Y-46777940D01*
X131993858Y-46717030D01*
X131993860Y-46717029D01*
X132037295Y-46683700D01*
X132103515Y-46658098D01*
X132173064Y-46672362D01*
X132190705Y-46683700D01*
X132234139Y-46717029D01*
X132234141Y-46717030D01*
X132244716Y-46721410D01*
X132381194Y-46777940D01*
X132539000Y-46798716D01*
X132696806Y-46777940D01*
X132833284Y-46721409D01*
X132903872Y-46713821D01*
X132967359Y-46745601D01*
X133003586Y-46806659D01*
X133007500Y-46837819D01*
X133007500Y-47234723D01*
X133007499Y-47234723D01*
X133007500Y-47234725D01*
X133033499Y-47331754D01*
X133063822Y-47384275D01*
X133063822Y-47384277D01*
X133083721Y-47418743D01*
X133083723Y-47418745D01*
X133083724Y-47418747D01*
X133933883Y-48268906D01*
X133967907Y-48331217D01*
X133962843Y-48402032D01*
X133920296Y-48458868D01*
X133853776Y-48483679D01*
X133844787Y-48484000D01*
X133818000Y-48484000D01*
X133818000Y-48795011D01*
X133797998Y-48863132D01*
X133796765Y-48865013D01*
X133778266Y-48892698D01*
X133763500Y-48966930D01*
X133763500Y-50767063D01*
X133763501Y-50767073D01*
X133778266Y-50841301D01*
X133778266Y-50841303D01*
X133796764Y-50868986D01*
X133817980Y-50936739D01*
X133818000Y-50938989D01*
X133818000Y-51250001D01*
X133824595Y-51256596D01*
X133858621Y-51318908D01*
X133861500Y-51345691D01*
X133861500Y-54410223D01*
X133861499Y-54410223D01*
X133887500Y-54507257D01*
X133898578Y-54526443D01*
X133900920Y-54530500D01*
X133937724Y-54594247D01*
X133937726Y-54594249D01*
X133937729Y-54594253D01*
X134639746Y-55296270D01*
X134639751Y-55296274D01*
X134639753Y-55296276D01*
X134726747Y-55346502D01*
X134823775Y-55372501D01*
X134823777Y-55372501D01*
X134931943Y-55372501D01*
X134931959Y-55372500D01*
X136897835Y-55372500D01*
X136965956Y-55392502D01*
X136998704Y-55422992D01*
X136999657Y-55424265D01*
X136999658Y-55424267D01*
X137086596Y-55540404D01*
X137202733Y-55627342D01*
X137202736Y-55627343D01*
X137210641Y-55631660D01*
X137209785Y-55633227D01*
X137257953Y-55669280D01*
X137282768Y-55735798D01*
X137267682Y-55805173D01*
X137217484Y-55855379D01*
X137196724Y-55864400D01*
X137124477Y-55888341D01*
X136973660Y-55981365D01*
X136973654Y-55981370D01*
X136848370Y-56106654D01*
X136848365Y-56106660D01*
X136755342Y-56257474D01*
X136699606Y-56425678D01*
X136699605Y-56425681D01*
X136689000Y-56529483D01*
X136689000Y-56576000D01*
X139155000Y-56576000D01*
X139155000Y-56529483D01*
X139144394Y-56425681D01*
X139144393Y-56425678D01*
X139088657Y-56257474D01*
X138995634Y-56106660D01*
X138995629Y-56106654D01*
X138870345Y-55981370D01*
X138870339Y-55981365D01*
X138719522Y-55888341D01*
X138647275Y-55864400D01*
X138588904Y-55823986D01*
X138561649Y-55758429D01*
X138574163Y-55688544D01*
X138622473Y-55636519D01*
X138638706Y-55628740D01*
X138641260Y-55627344D01*
X138641267Y-55627342D01*
X138757404Y-55540404D01*
X138844342Y-55424267D01*
X138895040Y-55288342D01*
X138901500Y-55228255D01*
X138901499Y-54631746D01*
X138895040Y-54571658D01*
X138844342Y-54435733D01*
X138757404Y-54319596D01*
X138641267Y-54232658D01*
X138641265Y-54232657D01*
X138641266Y-54232657D01*
X138505349Y-54181962D01*
X138505344Y-54181960D01*
X138505342Y-54181960D01*
X138475298Y-54178730D01*
X138445256Y-54175500D01*
X137398753Y-54175500D01*
X137398729Y-54175502D01*
X137338660Y-54181959D01*
X137338658Y-54181959D01*
X137202733Y-54232657D01*
X137086596Y-54319596D01*
X137009868Y-54422094D01*
X136999658Y-54435733D01*
X136965416Y-54527535D01*
X136922872Y-54584368D01*
X136856351Y-54609179D01*
X136847363Y-54609500D01*
X135084213Y-54609500D01*
X135016092Y-54589498D01*
X134995118Y-54572595D01*
X134661405Y-54238882D01*
X134627379Y-54176570D01*
X134624500Y-54149787D01*
X134624500Y-52025516D01*
X136714000Y-52025516D01*
X136724605Y-52129318D01*
X136724606Y-52129321D01*
X136780342Y-52297525D01*
X136873365Y-52448339D01*
X136873370Y-52448345D01*
X136998654Y-52573629D01*
X136998660Y-52573634D01*
X137149474Y-52666657D01*
X137317678Y-52722393D01*
X137317681Y-52722394D01*
X137421483Y-52732999D01*
X137421483Y-52733000D01*
X137668000Y-52733000D01*
X138176000Y-52733000D01*
X138422517Y-52733000D01*
X138422516Y-52732999D01*
X138526318Y-52722394D01*
X138526321Y-52722393D01*
X138694525Y-52666657D01*
X138845339Y-52573634D01*
X138845345Y-52573629D01*
X138970629Y-52448345D01*
X138970634Y-52448339D01*
X139063657Y-52297525D01*
X139119393Y-52129321D01*
X139119394Y-52129318D01*
X139129999Y-52025516D01*
X139130000Y-52025516D01*
X139130000Y-51966500D01*
X138176000Y-51966500D01*
X138176000Y-52733000D01*
X137668000Y-52733000D01*
X137668000Y-51966500D01*
X136714000Y-51966500D01*
X136714000Y-52025516D01*
X134624500Y-52025516D01*
X134624500Y-51122499D01*
X134644502Y-51054378D01*
X134698158Y-51007885D01*
X134750496Y-50996499D01*
X135143066Y-50996499D01*
X135143069Y-50996498D01*
X135143073Y-50996498D01*
X135193419Y-50986484D01*
X135242579Y-50986484D01*
X135292933Y-50996500D01*
X135793066Y-50996499D01*
X135793069Y-50996498D01*
X135793073Y-50996498D01*
X135851991Y-50984779D01*
X135867301Y-50981734D01*
X135951484Y-50925484D01*
X136007734Y-50841301D01*
X136022500Y-50767067D01*
X136022499Y-48982211D01*
X136042501Y-48914091D01*
X136096157Y-48867598D01*
X136166431Y-48857494D01*
X136231011Y-48886988D01*
X136237594Y-48893117D01*
X136930595Y-49586118D01*
X136964621Y-49648430D01*
X136967500Y-49675213D01*
X136967500Y-50198246D01*
X136967502Y-50198270D01*
X136973959Y-50258339D01*
X136973959Y-50258341D01*
X137024657Y-50394266D01*
X137111594Y-50510402D01*
X137111595Y-50510402D01*
X137111596Y-50510404D01*
X137162108Y-50548216D01*
X137204653Y-50605051D01*
X137209719Y-50675867D01*
X137175694Y-50738179D01*
X137152745Y-50756325D01*
X136998660Y-50851365D01*
X136998654Y-50851370D01*
X136873370Y-50976654D01*
X136873365Y-50976660D01*
X136780342Y-51127474D01*
X136724606Y-51295678D01*
X136724605Y-51295681D01*
X136714000Y-51399483D01*
X136714000Y-51458500D01*
X139130000Y-51458500D01*
X139130000Y-51399483D01*
X139119394Y-51295681D01*
X139119393Y-51295678D01*
X139063657Y-51127474D01*
X138970634Y-50976660D01*
X138970629Y-50976654D01*
X138845345Y-50851370D01*
X138845339Y-50851365D01*
X138691254Y-50756325D01*
X138643776Y-50703539D01*
X138632373Y-50633464D01*
X138660665Y-50568349D01*
X138681890Y-50548217D01*
X138732404Y-50510404D01*
X138819342Y-50394267D01*
X138870040Y-50258342D01*
X138876500Y-50198255D01*
X138876499Y-49576746D01*
X138870040Y-49516658D01*
X138819342Y-49380733D01*
X138732404Y-49264596D01*
X138616267Y-49177658D01*
X138616265Y-49177657D01*
X138616266Y-49177657D01*
X138480349Y-49126962D01*
X138480344Y-49126960D01*
X138480342Y-49126960D01*
X138472831Y-49126152D01*
X138420262Y-49120500D01*
X138420255Y-49120500D01*
X137596213Y-49120500D01*
X137528092Y-49100498D01*
X137507118Y-49083595D01*
X135507405Y-47083882D01*
X135473379Y-47021570D01*
X135470500Y-46994787D01*
X135470500Y-46906213D01*
X135490502Y-46838092D01*
X135544158Y-46791599D01*
X135614432Y-46781495D01*
X135679012Y-46810989D01*
X135685595Y-46817118D01*
X137235724Y-48367247D01*
X137306753Y-48438276D01*
X137306754Y-48438277D01*
X137306756Y-48438278D01*
X137393741Y-48488499D01*
X137393743Y-48488499D01*
X137393746Y-48488501D01*
X137490775Y-48514500D01*
X138727787Y-48514500D01*
X138795908Y-48534502D01*
X138816882Y-48551405D01*
X140170595Y-49905118D01*
X140204621Y-49967430D01*
X140207500Y-49994213D01*
X140207500Y-57343223D01*
X140207499Y-57343223D01*
X140233500Y-57440258D01*
X140283721Y-57527243D01*
X140283723Y-57527245D01*
X140283724Y-57527247D01*
X142168323Y-59411845D01*
X142168344Y-59411868D01*
X142243746Y-59487270D01*
X142243751Y-59487274D01*
X142243753Y-59487276D01*
X142243754Y-59487277D01*
X142243756Y-59487278D01*
X142330741Y-59537499D01*
X142330743Y-59537499D01*
X142330746Y-59537501D01*
X142427775Y-59563500D01*
X142427777Y-59563500D01*
X145164223Y-59563500D01*
X145164225Y-59563500D01*
X145261254Y-59537501D01*
X145261257Y-59537499D01*
X145261258Y-59537499D01*
X145304750Y-59512388D01*
X145348247Y-59487276D01*
X145419276Y-59416247D01*
X145436990Y-59398533D01*
X145436999Y-59398523D01*
X146084118Y-58751404D01*
X146146430Y-58717378D01*
X146173213Y-58714499D01*
X147009247Y-58714499D01*
X147009254Y-58714499D01*
X147069342Y-58708040D01*
X147205267Y-58657342D01*
X147321404Y-58570404D01*
X147408342Y-58454267D01*
X147459040Y-58318342D01*
X147463266Y-58279029D01*
X147490435Y-58213439D01*
X147548753Y-58172948D01*
X147588544Y-58166500D01*
X148984501Y-58166500D01*
X149052622Y-58186502D01*
X149099115Y-58240158D01*
X149110501Y-58292500D01*
X149110501Y-58308246D01*
X149110502Y-58308270D01*
X149116959Y-58368339D01*
X149116959Y-58368341D01*
X149167657Y-58504266D01*
X149171401Y-58509267D01*
X149254596Y-58620404D01*
X149370733Y-58707342D01*
X149506658Y-58758040D01*
X149566745Y-58764500D01*
X150163254Y-58764499D01*
X150223342Y-58758040D01*
X150359267Y-58707342D01*
X150475404Y-58620404D01*
X150562342Y-58504267D01*
X150562344Y-58504260D01*
X150566660Y-58496359D01*
X150568228Y-58497215D01*
X150604275Y-58449050D01*
X150670792Y-58424231D01*
X150740168Y-58439314D01*
X150790376Y-58489510D01*
X150799400Y-58510275D01*
X150823341Y-58582522D01*
X150916365Y-58733339D01*
X150916370Y-58733345D01*
X151041654Y-58858629D01*
X151041660Y-58858634D01*
X151192474Y-58951657D01*
X151360678Y-59007393D01*
X151360681Y-59007394D01*
X151464483Y-59017999D01*
X151464483Y-59018000D01*
X151511000Y-59018000D01*
X152019000Y-59018000D01*
X152065517Y-59018000D01*
X152065516Y-59017999D01*
X152169318Y-59007394D01*
X152169321Y-59007393D01*
X152337525Y-58951657D01*
X152488339Y-58858634D01*
X152488345Y-58858629D01*
X152613629Y-58733345D01*
X152613634Y-58733339D01*
X152706657Y-58582525D01*
X152762393Y-58414321D01*
X152762394Y-58414318D01*
X152772999Y-58310516D01*
X152773000Y-58310516D01*
X152773000Y-58039000D01*
X152019000Y-58039000D01*
X152019000Y-59018000D01*
X151511000Y-59018000D01*
X151511000Y-57531000D01*
X152019000Y-57531000D01*
X152773000Y-57531000D01*
X152773000Y-57259483D01*
X152762394Y-57155681D01*
X152762393Y-57155678D01*
X152706657Y-56987474D01*
X152613634Y-56836660D01*
X152613629Y-56836654D01*
X152488345Y-56711370D01*
X152488339Y-56711365D01*
X152337525Y-56618342D01*
X152169321Y-56562606D01*
X152169318Y-56562605D01*
X152065516Y-56552000D01*
X152019000Y-56552000D01*
X152019000Y-57531000D01*
X151511000Y-57531000D01*
X151511000Y-56552000D01*
X151464483Y-56552000D01*
X151360681Y-56562605D01*
X151360678Y-56562606D01*
X151192474Y-56618342D01*
X151041660Y-56711365D01*
X151041654Y-56711370D01*
X150916370Y-56836654D01*
X150916365Y-56836660D01*
X150823341Y-56987477D01*
X150799400Y-57059724D01*
X150758985Y-57118095D01*
X150693429Y-57145350D01*
X150623544Y-57132836D01*
X150571518Y-57084526D01*
X150563736Y-57068287D01*
X150562342Y-57065734D01*
X150562342Y-57065733D01*
X150475404Y-56949596D01*
X150359267Y-56862658D01*
X150359265Y-56862657D01*
X150359266Y-56862657D01*
X150223349Y-56811962D01*
X150223344Y-56811960D01*
X150223342Y-56811960D01*
X150193298Y-56808730D01*
X150163256Y-56805500D01*
X149566753Y-56805500D01*
X149566729Y-56805502D01*
X149506660Y-56811959D01*
X149506658Y-56811959D01*
X149370733Y-56862657D01*
X149254596Y-56949596D01*
X149167657Y-57065734D01*
X149116962Y-57201650D01*
X149116960Y-57201658D01*
X149110500Y-57261737D01*
X149110500Y-57277500D01*
X149090498Y-57345621D01*
X149036842Y-57392114D01*
X148984500Y-57403500D01*
X147588544Y-57403500D01*
X147520423Y-57383498D01*
X147473930Y-57329842D01*
X147463266Y-57290967D01*
X147459040Y-57251660D01*
X147459040Y-57251658D01*
X147408342Y-57115733D01*
X147382680Y-57081452D01*
X147321404Y-56999596D01*
X147205267Y-56912658D01*
X147205265Y-56912657D01*
X147205266Y-56912657D01*
X147069349Y-56861962D01*
X147069344Y-56861960D01*
X147069342Y-56861960D01*
X147039298Y-56858730D01*
X147009256Y-56855500D01*
X146012753Y-56855500D01*
X146012729Y-56855502D01*
X145952660Y-56861959D01*
X145952658Y-56861959D01*
X145816733Y-56912657D01*
X145700596Y-56999596D01*
X145613657Y-57115734D01*
X145562962Y-57251650D01*
X145562960Y-57251658D01*
X145556500Y-57311737D01*
X145556500Y-58147785D01*
X145536498Y-58215906D01*
X145519595Y-58236880D01*
X145194132Y-58562343D01*
X145131820Y-58596369D01*
X145061005Y-58591304D01*
X145004169Y-58548757D01*
X144979358Y-58482237D01*
X144985433Y-58433614D01*
X145008392Y-58364327D01*
X145008394Y-58364318D01*
X145018999Y-58260516D01*
X145019000Y-58260516D01*
X145019000Y-58039000D01*
X142603000Y-58039000D01*
X142603000Y-58260516D01*
X142613605Y-58364318D01*
X142613607Y-58364330D01*
X142651435Y-58478485D01*
X142653876Y-58549440D01*
X142617568Y-58610450D01*
X142554039Y-58642145D01*
X142483459Y-58634463D01*
X142442736Y-58607213D01*
X141007405Y-57171882D01*
X140973379Y-57109570D01*
X140970500Y-57082787D01*
X140970500Y-49844388D01*
X140970501Y-49844375D01*
X140970501Y-49733776D01*
X140954809Y-49675213D01*
X140944502Y-49636747D01*
X140942541Y-49633350D01*
X140894278Y-49549756D01*
X140894270Y-49549746D01*
X139172254Y-47827730D01*
X139172247Y-47827724D01*
X139141937Y-47810225D01*
X139085258Y-47777501D01*
X139085255Y-47777500D01*
X139085254Y-47777499D01*
X139085252Y-47777498D01*
X139085251Y-47777498D01*
X139056346Y-47769753D01*
X138988225Y-47751500D01*
X138988223Y-47751500D01*
X137751213Y-47751500D01*
X137683092Y-47731498D01*
X137662118Y-47714595D01*
X137117025Y-47169502D01*
X137082999Y-47107190D01*
X137088064Y-47036375D01*
X137130611Y-46979539D01*
X137154872Y-46965300D01*
X137190311Y-46949521D01*
X136578817Y-46338028D01*
X136544792Y-46275715D01*
X136542990Y-46232490D01*
X136548716Y-46189000D01*
X136543478Y-46149218D01*
X136589000Y-46149218D01*
X136589000Y-46228782D01*
X136619448Y-46302291D01*
X136675709Y-46358552D01*
X136749218Y-46389000D01*
X136828782Y-46389000D01*
X136902291Y-46358552D01*
X136958552Y-46302291D01*
X136989000Y-46228782D01*
X136989000Y-46149218D01*
X136958552Y-46075709D01*
X136902291Y-46019448D01*
X136828782Y-45989000D01*
X136749218Y-45989000D01*
X136675709Y-46019448D01*
X136619448Y-46075709D01*
X136589000Y-46149218D01*
X136543478Y-46149218D01*
X136542990Y-46145512D01*
X136553928Y-46075367D01*
X136578817Y-46039971D01*
X136699905Y-45918884D01*
X136762217Y-45884859D01*
X136833033Y-45889925D01*
X136878095Y-45918885D01*
X137516612Y-46557402D01*
X137550638Y-46619714D01*
X137545573Y-46690529D01*
X137539613Y-46699802D01*
X137540760Y-46711445D01*
X137685216Y-46807967D01*
X137859558Y-46880182D01*
X137859561Y-46880183D01*
X137885000Y-46885243D01*
X137885000Y-46119060D01*
X137898940Y-46143205D01*
X137954795Y-46199060D01*
X138023204Y-46238556D01*
X138099504Y-46259000D01*
X138178496Y-46259000D01*
X138254796Y-46238556D01*
X138323205Y-46199060D01*
X138379060Y-46143205D01*
X138393000Y-46119060D01*
X138393000Y-46885242D01*
X138418438Y-46880183D01*
X138418441Y-46880182D01*
X138592783Y-46807967D01*
X138749684Y-46703129D01*
X138749691Y-46703124D01*
X138883124Y-46569691D01*
X138883129Y-46569684D01*
X138987967Y-46412783D01*
X139060182Y-46238441D01*
X139060183Y-46238438D01*
X139096999Y-46053358D01*
X139097000Y-46053355D01*
X139097000Y-45463000D01*
X138439000Y-45463000D01*
X138439000Y-44955000D01*
X139097000Y-44955000D01*
X139097000Y-44924709D01*
X140834000Y-44924709D01*
X140834000Y-45167290D01*
X140865660Y-45407782D01*
X140928444Y-45642095D01*
X140928445Y-45642097D01*
X140928446Y-45642100D01*
X141021276Y-45866212D01*
X141021277Y-45866213D01*
X141021282Y-45866224D01*
X141142561Y-46076285D01*
X141142563Y-46076288D01*
X141142564Y-46076289D01*
X141290235Y-46268738D01*
X141290239Y-46268742D01*
X141290244Y-46268748D01*
X141461751Y-46440255D01*
X141461756Y-46440259D01*
X141461762Y-46440265D01*
X141630434Y-46569691D01*
X141654214Y-46587938D01*
X141864275Y-46709217D01*
X141864279Y-46709218D01*
X141864288Y-46709224D01*
X142088400Y-46802054D01*
X142322711Y-46864838D01*
X142322715Y-46864838D01*
X142322717Y-46864839D01*
X142420098Y-46877659D01*
X142563212Y-46896500D01*
X142563214Y-46896500D01*
X142567301Y-46897038D01*
X142567081Y-46898706D01*
X142627251Y-46920708D01*
X142670162Y-46977269D01*
X142675682Y-47048051D01*
X142642058Y-47110581D01*
X142600619Y-47138465D01*
X142595365Y-47140641D01*
X142595356Y-47140646D01*
X142479526Y-47229526D01*
X142390646Y-47345356D01*
X142390645Y-47345358D01*
X142374524Y-47384277D01*
X142334771Y-47480247D01*
X142315715Y-47624999D01*
X142315715Y-47625000D01*
X142334771Y-47769753D01*
X142334772Y-47769754D01*
X142356909Y-47823197D01*
X142366500Y-47871415D01*
X142366500Y-50682269D01*
X142366500Y-50816159D01*
X142401153Y-50945488D01*
X142401154Y-50945490D01*
X142401155Y-50945492D01*
X142468096Y-51061437D01*
X142468104Y-51061447D01*
X144125677Y-52719019D01*
X144159702Y-52781331D01*
X144154638Y-52852146D01*
X144112091Y-52908982D01*
X144045571Y-52933793D01*
X144024233Y-52933507D01*
X143954505Y-52926640D01*
X143954497Y-52926640D01*
X143757590Y-52946033D01*
X143568234Y-53003473D01*
X143393729Y-53096748D01*
X143240775Y-53222275D01*
X143115248Y-53375229D01*
X143021973Y-53549734D01*
X142964533Y-53739090D01*
X142945140Y-53935997D01*
X142945140Y-53936002D01*
X142964533Y-54132909D01*
X143021973Y-54322265D01*
X143115248Y-54496770D01*
X143226899Y-54632817D01*
X143254653Y-54698165D01*
X143255500Y-54712751D01*
X143255500Y-54793577D01*
X143235498Y-54861698D01*
X143218595Y-54882672D01*
X141805377Y-56295889D01*
X141805372Y-56295896D01*
X141735827Y-56399977D01*
X141687924Y-56515625D01*
X141687922Y-56515630D01*
X141663500Y-56638406D01*
X141663500Y-56763593D01*
X141687922Y-56886369D01*
X141687924Y-56886374D01*
X141698811Y-56912657D01*
X141735827Y-57002022D01*
X141805375Y-57106108D01*
X141893892Y-57194625D01*
X141997978Y-57264173D01*
X142113631Y-57312078D01*
X142236409Y-57336500D01*
X142236410Y-57336500D01*
X142361590Y-57336500D01*
X142361591Y-57336500D01*
X142452419Y-57318433D01*
X142523132Y-57324761D01*
X142579199Y-57368315D01*
X142602819Y-57435267D01*
X142603000Y-57442012D01*
X142603000Y-57531000D01*
X143557000Y-57531000D01*
X144065000Y-57531000D01*
X145019000Y-57531000D01*
X145019000Y-57309483D01*
X145008394Y-57205681D01*
X145008393Y-57205678D01*
X144952657Y-57037474D01*
X144859634Y-56886660D01*
X144859629Y-56886654D01*
X144734345Y-56761370D01*
X144734339Y-56761365D01*
X144583525Y-56668342D01*
X144415321Y-56612606D01*
X144415318Y-56612605D01*
X144311516Y-56602000D01*
X144065000Y-56602000D01*
X144065000Y-57531000D01*
X143557000Y-57531000D01*
X143557000Y-56601999D01*
X143538744Y-56583743D01*
X143532801Y-56581998D01*
X143486308Y-56528342D01*
X143476204Y-56458068D01*
X143505698Y-56393488D01*
X143511800Y-56386932D01*
X144384625Y-55514108D01*
X144454173Y-55410022D01*
X144502078Y-55294369D01*
X144526500Y-55171591D01*
X144526500Y-55046409D01*
X144526500Y-54825628D01*
X144546502Y-54757507D01*
X144572563Y-54728231D01*
X144668225Y-54649725D01*
X144793752Y-54496770D01*
X144887027Y-54322265D01*
X144944465Y-54132916D01*
X144948294Y-54094048D01*
X144963860Y-53936002D01*
X144963860Y-53935997D01*
X144956992Y-53866267D01*
X144970220Y-53796514D01*
X145019060Y-53744986D01*
X145088006Y-53728042D01*
X145155166Y-53751063D01*
X145171480Y-53764822D01*
X145468827Y-54062169D01*
X145502853Y-54124481D01*
X145503234Y-54126865D01*
X145503328Y-54126847D01*
X145504534Y-54132914D01*
X145517453Y-54175501D01*
X145561973Y-54322265D01*
X145655248Y-54496770D01*
X145780775Y-54649725D01*
X145933730Y-54775252D01*
X146108235Y-54868527D01*
X146297584Y-54925965D01*
X146297588Y-54925965D01*
X146297590Y-54925966D01*
X146494497Y-54945360D01*
X146494500Y-54945360D01*
X146494503Y-54945360D01*
X146691409Y-54925966D01*
X146691410Y-54925965D01*
X146691416Y-54925965D01*
X146880765Y-54868527D01*
X147055270Y-54775252D01*
X147208225Y-54649725D01*
X147333752Y-54496770D01*
X147427027Y-54322265D01*
X147484465Y-54132916D01*
X147488294Y-54094048D01*
X147503860Y-53936002D01*
X147503860Y-53935997D01*
X148025140Y-53935997D01*
X148025140Y-53936002D01*
X148044533Y-54132909D01*
X148044535Y-54132914D01*
X148044535Y-54132916D01*
X148101973Y-54322265D01*
X148195248Y-54496770D01*
X148320775Y-54649725D01*
X148473730Y-54775252D01*
X148648235Y-54868527D01*
X148837584Y-54925965D01*
X148837588Y-54925965D01*
X148837590Y-54925966D01*
X149034497Y-54945360D01*
X149034500Y-54945360D01*
X149034503Y-54945360D01*
X149231409Y-54925966D01*
X149231410Y-54925965D01*
X149231416Y-54925965D01*
X149420765Y-54868527D01*
X149595270Y-54775252D01*
X149748225Y-54649725D01*
X149873752Y-54496770D01*
X149929652Y-54392187D01*
X149979404Y-54341539D01*
X150008174Y-54329873D01*
X150008274Y-54329847D01*
X150124227Y-54262901D01*
X150366543Y-54020584D01*
X150428852Y-53986561D01*
X150499668Y-53991625D01*
X150556504Y-54034172D01*
X150581029Y-54097329D01*
X150584533Y-54132909D01*
X150584535Y-54132914D01*
X150584535Y-54132916D01*
X150641973Y-54322265D01*
X150735248Y-54496770D01*
X150860775Y-54649725D01*
X151013730Y-54775252D01*
X151188235Y-54868527D01*
X151377584Y-54925965D01*
X151377588Y-54925965D01*
X151377590Y-54925966D01*
X151574497Y-54945360D01*
X151574500Y-54945360D01*
X151574503Y-54945360D01*
X151771409Y-54925966D01*
X151771410Y-54925965D01*
X151771416Y-54925965D01*
X151960765Y-54868527D01*
X152135270Y-54775252D01*
X152288225Y-54649725D01*
X152413752Y-54496770D01*
X152507027Y-54322265D01*
X152564465Y-54132916D01*
X152568294Y-54094048D01*
X152583860Y-53936002D01*
X152583860Y-53935997D01*
X152564466Y-53739090D01*
X152564465Y-53739088D01*
X152564465Y-53739084D01*
X152507027Y-53549735D01*
X152413752Y-53375230D01*
X152288225Y-53222275D01*
X152135270Y-53096748D01*
X151960765Y-53003473D01*
X151771416Y-52946035D01*
X151771415Y-52946034D01*
X151771409Y-52946033D01*
X151735829Y-52942529D01*
X151669997Y-52915946D01*
X151628987Y-52857991D01*
X151625821Y-52787065D01*
X151659083Y-52728044D01*
X151749142Y-52637985D01*
X151811451Y-52603961D01*
X151882266Y-52609026D01*
X151985405Y-52647494D01*
X152045902Y-52653999D01*
X152045915Y-52654000D01*
X152590500Y-52654000D01*
X152590500Y-51679401D01*
X152611175Y-51700076D01*
X152697825Y-51750104D01*
X152794472Y-51776000D01*
X152894528Y-51776000D01*
X152991175Y-51750104D01*
X153077825Y-51700076D01*
X153098500Y-51679401D01*
X153098500Y-52654000D01*
X153643085Y-52654000D01*
X153643097Y-52653999D01*
X153703593Y-52647494D01*
X153840464Y-52596444D01*
X153840465Y-52596444D01*
X153957404Y-52508904D01*
X154044944Y-52391965D01*
X154044944Y-52391964D01*
X154095994Y-52255093D01*
X154102499Y-52194597D01*
X154102500Y-52194585D01*
X154102500Y-51650000D01*
X153127901Y-51650000D01*
X153148576Y-51629325D01*
X153198604Y-51542675D01*
X153224500Y-51446028D01*
X153224500Y-51345972D01*
X153198604Y-51249325D01*
X153148576Y-51162675D01*
X153127901Y-51142000D01*
X154102500Y-51142000D01*
X154102500Y-50597414D01*
X154102499Y-50597402D01*
X154095994Y-50536906D01*
X154044944Y-50400035D01*
X154044944Y-50400034D01*
X153957404Y-50283095D01*
X153840465Y-50195555D01*
X153703593Y-50144505D01*
X153643097Y-50138000D01*
X153098500Y-50138000D01*
X153098500Y-51112599D01*
X153077825Y-51091924D01*
X152991175Y-51041896D01*
X152894528Y-51016000D01*
X152794472Y-51016000D01*
X152697825Y-51041896D01*
X152611175Y-51091924D01*
X152590500Y-51112599D01*
X152590500Y-50138000D01*
X152045902Y-50138000D01*
X151977570Y-50145348D01*
X151977262Y-50142486D01*
X151919951Y-50139398D01*
X151872810Y-50109683D01*
X151820726Y-50057599D01*
X150726805Y-48963677D01*
X150699491Y-48922800D01*
X150689672Y-48899094D01*
X150677355Y-48869358D01*
X150588474Y-48753526D01*
X150588472Y-48753524D01*
X150588471Y-48753523D01*
X150472649Y-48664649D01*
X150472641Y-48664644D01*
X150337752Y-48608771D01*
X150193000Y-48589715D01*
X150048247Y-48608771D01*
X149995182Y-48630752D01*
X149913358Y-48664645D01*
X149913357Y-48664646D01*
X149913356Y-48664646D01*
X149797526Y-48753526D01*
X149708646Y-48869356D01*
X149708645Y-48869358D01*
X149690116Y-48914091D01*
X149652771Y-49004247D01*
X149633715Y-49148999D01*
X149633715Y-49149000D01*
X149652771Y-49293752D01*
X149708644Y-49428641D01*
X149708649Y-49428649D01*
X149797525Y-49544474D01*
X149899892Y-49623023D01*
X149913357Y-49633355D01*
X149966800Y-49655492D01*
X150007676Y-49682804D01*
X150470220Y-50145348D01*
X150506974Y-50182101D01*
X150540999Y-50244414D01*
X150535935Y-50315229D01*
X150493388Y-50372065D01*
X150426868Y-50396876D01*
X150405529Y-50396590D01*
X150304503Y-50386640D01*
X150304497Y-50386640D01*
X150107590Y-50406033D01*
X149918234Y-50463473D01*
X149743729Y-50556748D01*
X149590775Y-50682275D01*
X149465248Y-50835229D01*
X149371973Y-51009734D01*
X149314533Y-51199090D01*
X149295140Y-51395997D01*
X149295140Y-51396002D01*
X149314533Y-51592909D01*
X149314534Y-51592915D01*
X149314535Y-51592916D01*
X149371973Y-51782265D01*
X149465248Y-51956770D01*
X149590775Y-52109725D01*
X149743730Y-52235252D01*
X149918235Y-52328527D01*
X150107584Y-52385965D01*
X150107589Y-52385965D01*
X150107591Y-52385966D01*
X150164294Y-52391550D01*
X150256960Y-52400677D01*
X150322792Y-52427259D01*
X150363802Y-52485213D01*
X150366970Y-52556139D01*
X150333705Y-52615165D01*
X149817096Y-53131774D01*
X149754784Y-53165800D01*
X149683969Y-53160735D01*
X149648067Y-53140078D01*
X149632709Y-53127474D01*
X149595270Y-53096748D01*
X149420765Y-53003473D01*
X149231416Y-52946035D01*
X149231415Y-52946034D01*
X149231409Y-52946033D01*
X149034503Y-52926640D01*
X149034497Y-52926640D01*
X148837590Y-52946033D01*
X148648234Y-53003473D01*
X148473729Y-53096748D01*
X148320775Y-53222275D01*
X148195248Y-53375229D01*
X148101973Y-53549734D01*
X148044533Y-53739090D01*
X148025140Y-53935997D01*
X147503860Y-53935997D01*
X147484466Y-53739090D01*
X147484465Y-53739088D01*
X147484465Y-53739084D01*
X147427027Y-53549735D01*
X147333752Y-53375230D01*
X147208225Y-53222275D01*
X147055270Y-53096748D01*
X146880765Y-53003473D01*
X146691416Y-52946035D01*
X146691415Y-52946034D01*
X146691409Y-52946033D01*
X146494503Y-52926640D01*
X146494497Y-52926640D01*
X146297590Y-52946033D01*
X146108234Y-53003473D01*
X146021312Y-53049934D01*
X145951806Y-53064406D01*
X145885510Y-53039002D01*
X145872821Y-53027907D01*
X145627579Y-52782665D01*
X145593553Y-52720353D01*
X145598618Y-52649538D01*
X145641165Y-52592702D01*
X145663424Y-52579375D01*
X145855899Y-52489622D01*
X145916487Y-52447197D01*
X145245289Y-51776000D01*
X145274528Y-51776000D01*
X145371175Y-51750104D01*
X145457825Y-51700076D01*
X145528576Y-51629325D01*
X145578604Y-51542675D01*
X145604500Y-51446028D01*
X145604500Y-51416790D01*
X146275696Y-52087987D01*
X146275697Y-52087987D01*
X146318122Y-52027399D01*
X146411147Y-51827907D01*
X146411149Y-51827903D01*
X146468119Y-51615287D01*
X146487304Y-51396000D01*
X146468119Y-51176713D01*
X146458801Y-51141938D01*
X146460491Y-51070961D01*
X146500285Y-51012165D01*
X146565549Y-50984217D01*
X146635563Y-50995990D01*
X146669603Y-51020231D01*
X146739176Y-51089804D01*
X146773202Y-51152116D01*
X146773566Y-51192768D01*
X146775141Y-51192924D01*
X146755140Y-51395997D01*
X146755140Y-51396002D01*
X146774533Y-51592909D01*
X146774534Y-51592915D01*
X146774535Y-51592916D01*
X146831973Y-51782265D01*
X146925248Y-51956770D01*
X147050775Y-52109725D01*
X147203730Y-52235252D01*
X147378235Y-52328527D01*
X147567584Y-52385965D01*
X147567588Y-52385965D01*
X147567590Y-52385966D01*
X147764497Y-52405360D01*
X147764500Y-52405360D01*
X147764503Y-52405360D01*
X147961409Y-52385966D01*
X147961410Y-52385965D01*
X147961416Y-52385965D01*
X148150765Y-52328527D01*
X148325270Y-52235252D01*
X148478225Y-52109725D01*
X148603752Y-51956770D01*
X148697027Y-51782265D01*
X148754465Y-51592916D01*
X148759414Y-51542675D01*
X148773860Y-51396002D01*
X148773860Y-51395997D01*
X148754466Y-51199090D01*
X148754465Y-51199088D01*
X148754465Y-51199084D01*
X148697027Y-51009735D01*
X148603752Y-50835230D01*
X148478225Y-50682275D01*
X148325270Y-50556748D01*
X148150765Y-50463473D01*
X147961416Y-50406035D01*
X147961415Y-50406034D01*
X147961409Y-50406033D01*
X147764503Y-50386640D01*
X147764497Y-50386640D01*
X147561424Y-50406641D01*
X147561183Y-50404195D01*
X147501254Y-50398827D01*
X147458304Y-50370676D01*
X145289305Y-48201677D01*
X145261991Y-48160800D01*
X145244481Y-48118526D01*
X145239855Y-48107358D01*
X145150974Y-47991526D01*
X145150972Y-47991524D01*
X145150971Y-47991523D01*
X145035149Y-47902649D01*
X145035141Y-47902644D01*
X144900252Y-47846771D01*
X144755500Y-47827715D01*
X144610747Y-47846771D01*
X144551253Y-47871415D01*
X144475858Y-47902645D01*
X144475857Y-47902646D01*
X144475856Y-47902646D01*
X144360026Y-47991526D01*
X144271146Y-48107356D01*
X144271145Y-48107358D01*
X144257275Y-48140843D01*
X144215271Y-48242247D01*
X144196215Y-48386999D01*
X144196215Y-48387000D01*
X144215271Y-48531752D01*
X144271144Y-48666641D01*
X144271149Y-48666649D01*
X144360025Y-48782474D01*
X144475850Y-48871350D01*
X144475857Y-48871355D01*
X144529304Y-48893493D01*
X144570178Y-48920806D01*
X145600268Y-49950896D01*
X145634294Y-50013208D01*
X145629229Y-50084023D01*
X145586682Y-50140859D01*
X145520162Y-50165670D01*
X145478564Y-50161698D01*
X145443791Y-50152381D01*
X145224500Y-50133195D01*
X145005212Y-50152380D01*
X144792596Y-50209350D01*
X144792592Y-50209352D01*
X144593098Y-50302378D01*
X144532511Y-50344801D01*
X145203711Y-51016000D01*
X145174472Y-51016000D01*
X145077825Y-51041896D01*
X144991175Y-51091924D01*
X144920424Y-51162675D01*
X144870396Y-51249325D01*
X144844500Y-51345972D01*
X144844500Y-51375209D01*
X144173301Y-50704010D01*
X144130877Y-50764600D01*
X144041123Y-50957076D01*
X143994206Y-51010360D01*
X143925929Y-51029821D01*
X143857969Y-51009279D01*
X143837834Y-50992920D01*
X143420405Y-50575491D01*
X143386379Y-50513179D01*
X143383500Y-50486396D01*
X143383500Y-47871415D01*
X143393091Y-47823197D01*
X143398464Y-47810225D01*
X143415228Y-47769754D01*
X143434285Y-47625000D01*
X143415228Y-47480246D01*
X143359355Y-47345358D01*
X143270474Y-47229526D01*
X143270472Y-47229524D01*
X143270471Y-47229523D01*
X143154649Y-47140649D01*
X143154641Y-47140644D01*
X143129643Y-47130289D01*
X143050696Y-47097588D01*
X142995417Y-47053042D01*
X142972996Y-46985678D01*
X142990554Y-46916887D01*
X143042516Y-46868509D01*
X143066298Y-46859476D01*
X143280600Y-46802054D01*
X143504712Y-46709224D01*
X143714789Y-46587936D01*
X143907238Y-46440265D01*
X144078765Y-46268738D01*
X144226436Y-46076289D01*
X144347724Y-45866212D01*
X144440554Y-45642100D01*
X144503338Y-45407789D01*
X144535000Y-45167288D01*
X144535000Y-44924712D01*
X144535000Y-44924709D01*
X152264000Y-44924709D01*
X152264000Y-45167290D01*
X152295660Y-45407782D01*
X152358444Y-45642095D01*
X152358445Y-45642097D01*
X152358446Y-45642100D01*
X152451276Y-45866212D01*
X152451277Y-45866213D01*
X152451282Y-45866224D01*
X152572561Y-46076285D01*
X152572563Y-46076288D01*
X152572564Y-46076289D01*
X152720235Y-46268738D01*
X152720239Y-46268742D01*
X152720244Y-46268748D01*
X152891751Y-46440255D01*
X152891756Y-46440259D01*
X152891762Y-46440265D01*
X153060434Y-46569691D01*
X153084214Y-46587938D01*
X153294275Y-46709217D01*
X153294279Y-46709218D01*
X153294288Y-46709224D01*
X153518400Y-46802054D01*
X153752711Y-46864838D01*
X153752715Y-46864838D01*
X153752717Y-46864839D01*
X153814702Y-46872999D01*
X153993212Y-46896500D01*
X153993219Y-46896500D01*
X154235781Y-46896500D01*
X154235788Y-46896500D01*
X154453137Y-46867885D01*
X154476282Y-46864839D01*
X154476282Y-46864838D01*
X154476289Y-46864838D01*
X154710600Y-46802054D01*
X154934712Y-46709224D01*
X155144789Y-46587936D01*
X155337238Y-46440265D01*
X155508765Y-46268738D01*
X155656436Y-46076289D01*
X155777724Y-45866212D01*
X155870554Y-45642100D01*
X155933338Y-45407789D01*
X155965000Y-45167288D01*
X155965000Y-44924712D01*
X155933338Y-44684211D01*
X155870554Y-44449900D01*
X155777724Y-44225788D01*
X155777718Y-44225779D01*
X155777717Y-44225775D01*
X155656438Y-44015714D01*
X155629801Y-43981000D01*
X155508765Y-43823262D01*
X155508759Y-43823256D01*
X155508755Y-43823251D01*
X155337248Y-43651744D01*
X155337242Y-43651739D01*
X155337238Y-43651735D01*
X155144789Y-43504064D01*
X155144788Y-43504063D01*
X155144785Y-43504061D01*
X154934724Y-43382782D01*
X154934716Y-43382778D01*
X154934712Y-43382776D01*
X154710600Y-43289946D01*
X154710597Y-43289945D01*
X154710595Y-43289944D01*
X154476282Y-43227160D01*
X154235790Y-43195500D01*
X154235788Y-43195500D01*
X153993212Y-43195500D01*
X153993209Y-43195500D01*
X153752717Y-43227160D01*
X153518404Y-43289944D01*
X153518400Y-43289946D01*
X153294286Y-43382777D01*
X153294275Y-43382782D01*
X153084214Y-43504061D01*
X152891762Y-43651735D01*
X152891751Y-43651744D01*
X152720244Y-43823251D01*
X152720235Y-43823262D01*
X152572561Y-44015714D01*
X152451282Y-44225775D01*
X152451277Y-44225786D01*
X152451276Y-44225788D01*
X152397491Y-44355638D01*
X152358446Y-44449900D01*
X152358444Y-44449904D01*
X152295660Y-44684217D01*
X152264000Y-44924709D01*
X144535000Y-44924709D01*
X144503338Y-44684211D01*
X144440554Y-44449900D01*
X144347724Y-44225788D01*
X144347718Y-44225779D01*
X144347717Y-44225775D01*
X144226438Y-44015714D01*
X144199801Y-43981000D01*
X144078765Y-43823262D01*
X144078759Y-43823256D01*
X144078755Y-43823251D01*
X143907248Y-43651744D01*
X143907242Y-43651739D01*
X143907238Y-43651735D01*
X143714789Y-43504064D01*
X143714788Y-43504063D01*
X143714785Y-43504061D01*
X143504724Y-43382782D01*
X143504716Y-43382778D01*
X143504712Y-43382776D01*
X143280600Y-43289946D01*
X143280597Y-43289945D01*
X143280595Y-43289944D01*
X143046282Y-43227160D01*
X142805790Y-43195500D01*
X142805788Y-43195500D01*
X142563212Y-43195500D01*
X142563209Y-43195500D01*
X142322717Y-43227160D01*
X142088404Y-43289944D01*
X142088400Y-43289946D01*
X141864286Y-43382777D01*
X141864275Y-43382782D01*
X141654214Y-43504061D01*
X141461762Y-43651735D01*
X141461751Y-43651744D01*
X141290244Y-43823251D01*
X141290235Y-43823262D01*
X141142561Y-44015714D01*
X141021282Y-44225775D01*
X141021277Y-44225786D01*
X141021276Y-44225788D01*
X140967491Y-44355638D01*
X140928446Y-44449900D01*
X140928444Y-44449904D01*
X140865660Y-44684217D01*
X140834000Y-44924709D01*
X139097000Y-44924709D01*
X139097000Y-44364644D01*
X139096999Y-44364641D01*
X139060183Y-44179561D01*
X139060182Y-44179558D01*
X138987967Y-44005216D01*
X138883129Y-43848315D01*
X138883124Y-43848308D01*
X138749691Y-43714875D01*
X138749684Y-43714870D01*
X138592783Y-43610032D01*
X138418438Y-43537816D01*
X138393000Y-43532755D01*
X138393000Y-44298939D01*
X138379060Y-44274795D01*
X138323205Y-44218940D01*
X138254796Y-44179444D01*
X138178496Y-44159000D01*
X138099504Y-44159000D01*
X138023204Y-44179444D01*
X137954795Y-44218940D01*
X137898940Y-44274795D01*
X137885000Y-44298939D01*
X137885000Y-43532755D01*
X137884999Y-43532755D01*
X137859561Y-43537816D01*
X137685216Y-43610032D01*
X137528315Y-43714870D01*
X137528308Y-43714875D01*
X137394875Y-43848308D01*
X137394870Y-43848315D01*
X137288439Y-44007600D01*
X137233962Y-44053128D01*
X137163519Y-44061976D01*
X137132425Y-44052705D01*
X137055597Y-44018499D01*
X136879179Y-43981000D01*
X136698821Y-43981000D01*
X136522400Y-44018499D01*
X136387687Y-44078476D01*
X136387686Y-44078477D01*
X136501912Y-44192703D01*
X136533206Y-44250013D01*
X136570504Y-44263421D01*
X136585297Y-44276086D01*
X137059115Y-44749905D01*
X137093140Y-44812217D01*
X137088075Y-44883033D01*
X137059115Y-44928095D01*
X136878096Y-45109115D01*
X136815784Y-45143140D01*
X136744968Y-45138076D01*
X136699905Y-45109115D01*
X136578817Y-44988027D01*
X136544791Y-44925715D01*
X136542990Y-44882490D01*
X136548716Y-44839000D01*
X136543478Y-44799218D01*
X136589000Y-44799218D01*
X136589000Y-44878782D01*
X136619448Y-44952291D01*
X136675709Y-45008552D01*
X136749218Y-45039000D01*
X136828782Y-45039000D01*
X136902291Y-45008552D01*
X136958552Y-44952291D01*
X136989000Y-44878782D01*
X136989000Y-44799218D01*
X136958552Y-44725709D01*
X136902291Y-44669448D01*
X136828782Y-44639000D01*
X136749218Y-44639000D01*
X136675709Y-44669448D01*
X136619448Y-44725709D01*
X136589000Y-44799218D01*
X136543478Y-44799218D01*
X136527940Y-44681194D01*
X136505439Y-44626872D01*
X136467031Y-44534142D01*
X136396239Y-44441885D01*
X136379367Y-44398245D01*
X136352432Y-44392386D01*
X136336113Y-44381760D01*
X136243857Y-44310968D01*
X136096806Y-44250060D01*
X135939000Y-44229284D01*
X135781193Y-44250060D01*
X135634142Y-44310968D01*
X135590704Y-44344301D01*
X135524484Y-44369902D01*
X135454935Y-44355638D01*
X135437296Y-44344301D01*
X135393857Y-44310968D01*
X135246806Y-44250060D01*
X135089000Y-44229284D01*
X134931193Y-44250060D01*
X134784142Y-44310968D01*
X134740704Y-44344301D01*
X134674484Y-44369902D01*
X134604935Y-44355638D01*
X134587296Y-44344301D01*
X134543857Y-44310968D01*
X134396806Y-44250060D01*
X134239000Y-44229284D01*
X134081193Y-44250060D01*
X133934142Y-44310968D01*
X133890704Y-44344301D01*
X133824484Y-44369902D01*
X133754935Y-44355638D01*
X133737296Y-44344301D01*
X133693857Y-44310968D01*
X133546806Y-44250060D01*
X133389000Y-44229284D01*
X133231193Y-44250060D01*
X133094717Y-44306589D01*
X133024127Y-44314178D01*
X132960640Y-44282398D01*
X132924414Y-44221339D01*
X132920500Y-44190180D01*
X132920500Y-42590105D01*
X132904127Y-42529000D01*
X132894501Y-42493075D01*
X132894499Y-42493072D01*
X132894499Y-42493070D01*
X132844278Y-42406085D01*
X132844270Y-42406075D01*
X132768858Y-42330663D01*
X132768835Y-42330642D01*
X131153789Y-40715595D01*
X131119763Y-40653283D01*
X131124828Y-40582467D01*
X131167375Y-40525632D01*
X131233895Y-40500821D01*
X131242884Y-40500500D01*
X137408494Y-40500500D01*
X137476615Y-40520502D01*
X137523108Y-40574158D01*
X137533212Y-40644432D01*
X137503718Y-40709012D01*
X137497589Y-40715595D01*
X137394875Y-40818308D01*
X137394870Y-40818315D01*
X137290032Y-40975216D01*
X137217817Y-41149558D01*
X137217816Y-41149561D01*
X137181000Y-41334641D01*
X137181000Y-41575000D01*
X137839000Y-41575000D01*
X137839000Y-42083000D01*
X137181000Y-42083000D01*
X137181000Y-42323358D01*
X137217816Y-42508438D01*
X137217817Y-42508441D01*
X137290032Y-42682783D01*
X137394870Y-42839684D01*
X137394875Y-42839691D01*
X137528308Y-42973124D01*
X137528315Y-42973129D01*
X137685216Y-43077967D01*
X137859558Y-43150182D01*
X137859561Y-43150183D01*
X137885000Y-43155243D01*
X137885000Y-42389060D01*
X137898940Y-42413205D01*
X137954795Y-42469060D01*
X138023204Y-42508556D01*
X138099504Y-42529000D01*
X138178496Y-42529000D01*
X138254796Y-42508556D01*
X138323205Y-42469060D01*
X138379060Y-42413205D01*
X138393000Y-42389060D01*
X138393000Y-43155242D01*
X138418438Y-43150183D01*
X138418441Y-43150182D01*
X138592783Y-43077967D01*
X138749684Y-42973129D01*
X138749691Y-42973124D01*
X138883124Y-42839691D01*
X138883129Y-42839684D01*
X138987967Y-42682783D01*
X139060182Y-42508441D01*
X139060183Y-42508438D01*
X139096999Y-42323358D01*
X139097000Y-42323355D01*
X139097000Y-42083000D01*
X138439000Y-42083000D01*
X138439000Y-41575000D01*
X139097000Y-41575000D01*
X139097000Y-41334644D01*
X139096999Y-41334641D01*
X139060183Y-41149561D01*
X139060182Y-41149558D01*
X138987967Y-40975216D01*
X138883129Y-40818315D01*
X138883124Y-40818308D01*
X138780411Y-40715595D01*
X138746385Y-40653283D01*
X138751450Y-40582468D01*
X138793997Y-40525632D01*
X138860517Y-40500821D01*
X138869506Y-40500500D01*
X159373500Y-40500500D01*
X159441621Y-40520502D01*
X159488114Y-40574158D01*
X159499500Y-40626500D01*
X159499500Y-99373500D01*
X159479498Y-99441621D01*
X159425842Y-99488114D01*
X159373500Y-99499500D01*
X100626500Y-99499500D01*
X100558379Y-99479498D01*
X100511886Y-99425842D01*
X100500500Y-99373500D01*
X100500500Y-94999993D01*
X101494696Y-94999993D01*
X101494696Y-95000006D01*
X101513896Y-95366395D01*
X101571294Y-95728792D01*
X101666259Y-96083205D01*
X101797740Y-96425726D01*
X101797744Y-96425734D01*
X101964318Y-96752652D01*
X102164143Y-97060358D01*
X102164155Y-97060375D01*
X102395038Y-97345492D01*
X102395052Y-97345507D01*
X102654492Y-97604947D01*
X102654507Y-97604961D01*
X102939624Y-97835844D01*
X102939641Y-97835856D01*
X103113294Y-97948626D01*
X103247348Y-98035682D01*
X103574264Y-98202255D01*
X103574268Y-98202256D01*
X103574273Y-98202259D01*
X103916794Y-98333740D01*
X103916799Y-98333741D01*
X103916801Y-98333742D01*
X104271206Y-98428705D01*
X104633596Y-98486102D01*
X104633598Y-98486102D01*
X104633604Y-98486103D01*
X104999994Y-98505304D01*
X105000000Y-98505304D01*
X105000006Y-98505304D01*
X105366395Y-98486103D01*
X105366399Y-98486102D01*
X105366404Y-98486102D01*
X105728794Y-98428705D01*
X106083199Y-98333742D01*
X106083202Y-98333740D01*
X106083205Y-98333740D01*
X106425726Y-98202259D01*
X106425727Y-98202258D01*
X106425736Y-98202255D01*
X106752652Y-98035682D01*
X107060366Y-97835851D01*
X107060375Y-97835844D01*
X107345492Y-97604961D01*
X107345497Y-97604955D01*
X107345506Y-97604949D01*
X107604949Y-97345506D01*
X107604955Y-97345497D01*
X107604961Y-97345492D01*
X107835844Y-97060375D01*
X107835845Y-97060372D01*
X107835851Y-97060366D01*
X108035682Y-96752652D01*
X108202255Y-96425736D01*
X108248560Y-96305108D01*
X108333740Y-96083205D01*
X108348933Y-96026504D01*
X108428705Y-95728794D01*
X108486102Y-95366404D01*
X108486102Y-95366399D01*
X108486103Y-95366395D01*
X108505304Y-95000006D01*
X108505304Y-94999993D01*
X108486103Y-94633604D01*
X108466684Y-94511000D01*
X108428705Y-94271206D01*
X108333742Y-93916801D01*
X108333741Y-93916799D01*
X108333740Y-93916794D01*
X108202259Y-93574273D01*
X108202255Y-93574265D01*
X108202255Y-93574264D01*
X108121820Y-93416402D01*
X115647000Y-93416402D01*
X115647000Y-94511000D01*
X116856656Y-94511000D01*
X116829979Y-94575402D01*
X116805000Y-94700981D01*
X116805000Y-94829019D01*
X116829979Y-94954598D01*
X116856656Y-95019000D01*
X115647000Y-95019000D01*
X115647000Y-96113597D01*
X115653505Y-96174093D01*
X115704555Y-96310964D01*
X115704555Y-96310965D01*
X115792095Y-96427904D01*
X115909034Y-96515444D01*
X116045906Y-96566494D01*
X116106402Y-96572999D01*
X116106415Y-96573000D01*
X117201000Y-96573000D01*
X117201000Y-95363344D01*
X117265402Y-95390021D01*
X117390981Y-95415000D01*
X117519019Y-95415000D01*
X117644598Y-95390021D01*
X117709000Y-95363344D01*
X117709000Y-96573000D01*
X118803585Y-96573000D01*
X118803597Y-96572999D01*
X118864093Y-96566494D01*
X119000964Y-96515444D01*
X119000965Y-96515444D01*
X119117904Y-96427904D01*
X119205444Y-96310965D01*
X119205444Y-96310964D01*
X119256494Y-96174093D01*
X119262999Y-96113597D01*
X119263000Y-96113585D01*
X119263000Y-95019000D01*
X118053344Y-95019000D01*
X118080021Y-94954598D01*
X118105000Y-94829019D01*
X118105000Y-94700981D01*
X118080021Y-94575402D01*
X118053344Y-94511000D01*
X119263000Y-94511000D01*
X119263000Y-93416414D01*
X119262999Y-93416402D01*
X119256494Y-93355906D01*
X119205444Y-93219035D01*
X119205444Y-93219034D01*
X119117904Y-93102095D01*
X119000965Y-93014555D01*
X118864093Y-92963505D01*
X118803597Y-92957000D01*
X117709000Y-92957000D01*
X117709000Y-94166655D01*
X117644598Y-94139979D01*
X117519019Y-94115000D01*
X117390981Y-94115000D01*
X117265402Y-94139979D01*
X117201000Y-94166655D01*
X117201000Y-92957000D01*
X116106402Y-92957000D01*
X116045906Y-92963505D01*
X115909035Y-93014555D01*
X115909034Y-93014555D01*
X115792095Y-93102095D01*
X115704555Y-93219034D01*
X115704555Y-93219035D01*
X115653505Y-93355906D01*
X115647000Y-93416402D01*
X108121820Y-93416402D01*
X108035682Y-93247348D01*
X107889211Y-93021801D01*
X107835856Y-92939641D01*
X107835844Y-92939624D01*
X107604961Y-92654507D01*
X107604947Y-92654492D01*
X107345507Y-92395052D01*
X107345492Y-92395038D01*
X107060375Y-92164155D01*
X107060358Y-92164143D01*
X106752652Y-91964318D01*
X106425734Y-91797744D01*
X106425726Y-91797740D01*
X106083205Y-91666259D01*
X105728792Y-91571294D01*
X105366395Y-91513896D01*
X105000006Y-91494696D01*
X104999994Y-91494696D01*
X104633604Y-91513896D01*
X104271207Y-91571294D01*
X103916794Y-91666259D01*
X103574273Y-91797740D01*
X103574265Y-91797744D01*
X103247347Y-91964318D01*
X102939641Y-92164143D01*
X102939624Y-92164155D01*
X102654507Y-92395038D01*
X102654492Y-92395052D01*
X102395052Y-92654492D01*
X102395038Y-92654507D01*
X102164155Y-92939624D01*
X102164143Y-92939641D01*
X101964318Y-93247347D01*
X101797744Y-93574265D01*
X101797740Y-93574273D01*
X101666259Y-93916794D01*
X101571294Y-94271207D01*
X101513896Y-94633604D01*
X101494696Y-94999993D01*
X100500500Y-94999993D01*
X100500500Y-58333906D01*
X100758500Y-58333906D01*
X100758500Y-58333909D01*
X100758500Y-73561409D01*
X100758500Y-73686591D01*
X100782922Y-73809369D01*
X100830827Y-73925022D01*
X100900375Y-74029108D01*
X100900377Y-74029110D01*
X121022525Y-94151258D01*
X121056551Y-94213570D01*
X121053270Y-94279269D01*
X121052013Y-94283137D01*
X120994891Y-94521071D01*
X120975693Y-94765000D01*
X120994891Y-95008928D01*
X121052010Y-95246850D01*
X121145646Y-95472909D01*
X121273495Y-95681539D01*
X121273496Y-95681541D01*
X121432402Y-95867597D01*
X121618458Y-96026503D01*
X121618462Y-96026506D01*
X121827089Y-96154353D01*
X122053148Y-96247989D01*
X122291071Y-96305109D01*
X122535000Y-96324307D01*
X122778929Y-96305109D01*
X123016852Y-96247989D01*
X123242911Y-96154353D01*
X123451538Y-96026506D01*
X123637597Y-95867597D01*
X123796506Y-95681538D01*
X123924353Y-95472911D01*
X124017989Y-95246852D01*
X124075109Y-95008929D01*
X124094307Y-94765000D01*
X124075109Y-94521071D01*
X124017989Y-94283148D01*
X123924353Y-94057089D01*
X123796506Y-93848462D01*
X123796503Y-93848458D01*
X123637597Y-93662402D01*
X123451541Y-93503496D01*
X123451539Y-93503495D01*
X123451538Y-93503494D01*
X123309417Y-93416402D01*
X136647000Y-93416402D01*
X136647000Y-94511000D01*
X137856656Y-94511000D01*
X137829979Y-94575402D01*
X137805000Y-94700981D01*
X137805000Y-94829019D01*
X137829979Y-94954598D01*
X137856656Y-95019000D01*
X136647000Y-95019000D01*
X136647000Y-96113597D01*
X136653505Y-96174093D01*
X136704555Y-96310964D01*
X136704555Y-96310965D01*
X136792095Y-96427904D01*
X136909034Y-96515444D01*
X137045906Y-96566494D01*
X137106402Y-96572999D01*
X137106415Y-96573000D01*
X138201000Y-96573000D01*
X138201000Y-95363344D01*
X138265402Y-95390021D01*
X138390981Y-95415000D01*
X138519019Y-95415000D01*
X138644598Y-95390021D01*
X138709000Y-95363344D01*
X138709000Y-96573000D01*
X139803585Y-96573000D01*
X139803597Y-96572999D01*
X139864093Y-96566494D01*
X140000964Y-96515444D01*
X140000965Y-96515444D01*
X140117904Y-96427904D01*
X140205444Y-96310965D01*
X140205444Y-96310964D01*
X140256494Y-96174093D01*
X140262999Y-96113597D01*
X140263000Y-96113585D01*
X140263000Y-95019000D01*
X139053344Y-95019000D01*
X139080021Y-94954598D01*
X139105000Y-94829019D01*
X139105000Y-94765000D01*
X141975693Y-94765000D01*
X141994891Y-95008928D01*
X142052010Y-95246850D01*
X142145646Y-95472909D01*
X142273495Y-95681539D01*
X142273496Y-95681541D01*
X142432402Y-95867597D01*
X142618458Y-96026503D01*
X142618462Y-96026506D01*
X142827089Y-96154353D01*
X143053148Y-96247989D01*
X143291071Y-96305109D01*
X143535000Y-96324307D01*
X143778929Y-96305109D01*
X144016852Y-96247989D01*
X144242911Y-96154353D01*
X144451538Y-96026506D01*
X144637597Y-95867597D01*
X144796506Y-95681538D01*
X144924353Y-95472911D01*
X145017989Y-95246852D01*
X145075109Y-95008929D01*
X145075812Y-94999993D01*
X151494696Y-94999993D01*
X151494696Y-95000006D01*
X151513896Y-95366395D01*
X151571294Y-95728792D01*
X151666259Y-96083205D01*
X151797740Y-96425726D01*
X151797744Y-96425734D01*
X151964318Y-96752652D01*
X152164143Y-97060358D01*
X152164155Y-97060375D01*
X152395038Y-97345492D01*
X152395052Y-97345507D01*
X152654492Y-97604947D01*
X152654507Y-97604961D01*
X152939624Y-97835844D01*
X152939641Y-97835856D01*
X153113294Y-97948626D01*
X153247348Y-98035682D01*
X153574264Y-98202255D01*
X153574268Y-98202256D01*
X153574273Y-98202259D01*
X153916794Y-98333740D01*
X153916799Y-98333741D01*
X153916801Y-98333742D01*
X154271206Y-98428705D01*
X154633596Y-98486102D01*
X154633598Y-98486102D01*
X154633604Y-98486103D01*
X154999994Y-98505304D01*
X155000000Y-98505304D01*
X155000006Y-98505304D01*
X155366395Y-98486103D01*
X155366399Y-98486102D01*
X155366404Y-98486102D01*
X155728794Y-98428705D01*
X156083199Y-98333742D01*
X156083202Y-98333740D01*
X156083205Y-98333740D01*
X156425726Y-98202259D01*
X156425727Y-98202258D01*
X156425736Y-98202255D01*
X156752652Y-98035682D01*
X157060366Y-97835851D01*
X157060375Y-97835844D01*
X157345492Y-97604961D01*
X157345497Y-97604955D01*
X157345506Y-97604949D01*
X157604949Y-97345506D01*
X157604955Y-97345497D01*
X157604961Y-97345492D01*
X157835844Y-97060375D01*
X157835845Y-97060372D01*
X157835851Y-97060366D01*
X158035682Y-96752652D01*
X158202255Y-96425736D01*
X158248560Y-96305108D01*
X158333740Y-96083205D01*
X158348933Y-96026504D01*
X158428705Y-95728794D01*
X158486102Y-95366404D01*
X158486102Y-95366399D01*
X158486103Y-95366395D01*
X158505304Y-95000006D01*
X158505304Y-94999993D01*
X158486103Y-94633604D01*
X158466684Y-94511000D01*
X158428705Y-94271206D01*
X158333742Y-93916801D01*
X158333741Y-93916799D01*
X158333740Y-93916794D01*
X158202259Y-93574273D01*
X158202255Y-93574265D01*
X158202255Y-93574264D01*
X158035682Y-93247348D01*
X157889211Y-93021801D01*
X157835856Y-92939641D01*
X157835844Y-92939624D01*
X157604961Y-92654507D01*
X157604947Y-92654492D01*
X157345507Y-92395052D01*
X157345492Y-92395038D01*
X157060375Y-92164155D01*
X157060358Y-92164143D01*
X156752652Y-91964318D01*
X156425734Y-91797744D01*
X156425726Y-91797740D01*
X156083205Y-91666259D01*
X155728792Y-91571294D01*
X155366395Y-91513896D01*
X155000006Y-91494696D01*
X154999994Y-91494696D01*
X154633604Y-91513896D01*
X154271207Y-91571294D01*
X153916794Y-91666259D01*
X153574273Y-91797740D01*
X153574265Y-91797744D01*
X153247347Y-91964318D01*
X152939641Y-92164143D01*
X152939624Y-92164155D01*
X152654507Y-92395038D01*
X152654492Y-92395052D01*
X152395052Y-92654492D01*
X152395038Y-92654507D01*
X152164155Y-92939624D01*
X152164143Y-92939641D01*
X151964318Y-93247347D01*
X151797744Y-93574265D01*
X151797740Y-93574273D01*
X151666259Y-93916794D01*
X151571294Y-94271207D01*
X151513896Y-94633604D01*
X151494696Y-94999993D01*
X145075812Y-94999993D01*
X145094307Y-94765000D01*
X145075109Y-94521071D01*
X145017989Y-94283148D01*
X144924353Y-94057089D01*
X144796506Y-93848462D01*
X144796503Y-93848458D01*
X144637597Y-93662402D01*
X144451541Y-93503496D01*
X144451539Y-93503495D01*
X144451538Y-93503494D01*
X144242911Y-93375647D01*
X144242895Y-93375640D01*
X144016850Y-93282010D01*
X143803404Y-93230767D01*
X143778929Y-93224891D01*
X143535000Y-93205693D01*
X143291071Y-93224891D01*
X143053149Y-93282010D01*
X142827090Y-93375646D01*
X142618460Y-93503495D01*
X142618458Y-93503496D01*
X142432402Y-93662402D01*
X142273496Y-93848458D01*
X142273495Y-93848460D01*
X142145646Y-94057090D01*
X142052010Y-94283149D01*
X141994891Y-94521071D01*
X141975693Y-94765000D01*
X139105000Y-94765000D01*
X139105000Y-94700981D01*
X139080021Y-94575402D01*
X139053344Y-94511000D01*
X140263000Y-94511000D01*
X140263000Y-93416414D01*
X140262999Y-93416402D01*
X140256494Y-93355906D01*
X140205444Y-93219035D01*
X140205444Y-93219034D01*
X140117904Y-93102095D01*
X140000965Y-93014555D01*
X139864093Y-92963505D01*
X139803597Y-92957000D01*
X138709000Y-92957000D01*
X138709000Y-94166655D01*
X138644598Y-94139979D01*
X138519019Y-94115000D01*
X138390981Y-94115000D01*
X138265402Y-94139979D01*
X138201000Y-94166655D01*
X138201000Y-92957000D01*
X137106402Y-92957000D01*
X137045906Y-92963505D01*
X136909035Y-93014555D01*
X136909034Y-93014555D01*
X136792095Y-93102095D01*
X136704555Y-93219034D01*
X136704555Y-93219035D01*
X136653505Y-93355906D01*
X136647000Y-93416402D01*
X123309417Y-93416402D01*
X123242911Y-93375647D01*
X123242909Y-93375646D01*
X123242899Y-93375640D01*
X123239297Y-93373805D01*
X123187682Y-93325057D01*
X123170500Y-93261539D01*
X123170500Y-83524499D01*
X123190502Y-83456378D01*
X123244158Y-83409885D01*
X123296500Y-83398499D01*
X123540247Y-83398499D01*
X123540254Y-83398499D01*
X123600342Y-83392040D01*
X123736267Y-83341342D01*
X123852404Y-83254404D01*
X123880410Y-83216992D01*
X123937246Y-83174445D01*
X123981279Y-83166500D01*
X124367309Y-83166500D01*
X124435430Y-83186502D01*
X124468178Y-83216992D01*
X124482798Y-83236523D01*
X124542596Y-83316404D01*
X124658733Y-83403342D01*
X124794658Y-83454040D01*
X124854745Y-83460500D01*
X125851254Y-83460499D01*
X125911342Y-83454040D01*
X126047267Y-83403342D01*
X126163404Y-83316404D01*
X126250342Y-83200267D01*
X126301040Y-83064342D01*
X126307257Y-83006516D01*
X126845000Y-83006516D01*
X126855605Y-83110318D01*
X126855606Y-83110321D01*
X126911342Y-83278525D01*
X127004365Y-83429339D01*
X127004370Y-83429345D01*
X127129654Y-83554629D01*
X127129660Y-83554634D01*
X127280474Y-83647657D01*
X127448678Y-83703393D01*
X127448681Y-83703394D01*
X127552483Y-83713999D01*
X127552483Y-83714000D01*
X127799000Y-83714000D01*
X128307000Y-83714000D01*
X128553517Y-83714000D01*
X128553516Y-83713999D01*
X128657318Y-83703394D01*
X128657321Y-83703393D01*
X128825525Y-83647657D01*
X128976339Y-83554634D01*
X128976345Y-83554629D01*
X129101629Y-83429345D01*
X129101634Y-83429339D01*
X129194657Y-83278525D01*
X129250393Y-83110321D01*
X129250394Y-83110318D01*
X129260999Y-83006516D01*
X129261000Y-83006508D01*
X129261000Y-82785000D01*
X128307000Y-82785000D01*
X128307000Y-83714000D01*
X127799000Y-83714000D01*
X127799000Y-82785000D01*
X126845000Y-82785000D01*
X126845000Y-83006516D01*
X126307257Y-83006516D01*
X126307500Y-83004255D01*
X126307499Y-82057746D01*
X126307256Y-82055483D01*
X126845000Y-82055483D01*
X126845000Y-82277000D01*
X127799000Y-82277000D01*
X128307000Y-82277000D01*
X129261000Y-82277000D01*
X129261000Y-82055483D01*
X129250394Y-81951681D01*
X129250393Y-81951678D01*
X129194657Y-81783474D01*
X129101634Y-81632660D01*
X129101629Y-81632654D01*
X128976345Y-81507370D01*
X128976339Y-81507365D01*
X128825525Y-81414342D01*
X128657321Y-81358606D01*
X128657318Y-81358605D01*
X128553516Y-81348000D01*
X128307000Y-81348000D01*
X128307000Y-82277000D01*
X127799000Y-82277000D01*
X127799000Y-81348000D01*
X127552483Y-81348000D01*
X127448681Y-81358605D01*
X127448678Y-81358606D01*
X127280474Y-81414342D01*
X127129660Y-81507365D01*
X127129654Y-81507370D01*
X127004370Y-81632654D01*
X127004365Y-81632660D01*
X126911342Y-81783474D01*
X126855606Y-81951678D01*
X126855605Y-81951681D01*
X126845000Y-82055483D01*
X126307256Y-82055483D01*
X126301040Y-81997658D01*
X126250342Y-81861733D01*
X126163404Y-81745596D01*
X126047267Y-81658658D01*
X126047265Y-81658657D01*
X126047266Y-81658657D01*
X125911349Y-81607962D01*
X125911344Y-81607960D01*
X125911342Y-81607960D01*
X125881298Y-81604730D01*
X125851256Y-81601500D01*
X124854753Y-81601500D01*
X124854729Y-81601502D01*
X124794660Y-81607959D01*
X124794658Y-81607959D01*
X124658733Y-81658657D01*
X124542595Y-81745596D01*
X124468178Y-81845008D01*
X124411342Y-81887555D01*
X124367309Y-81895500D01*
X123961816Y-81895500D01*
X123893695Y-81875498D01*
X123860948Y-81845009D01*
X123852404Y-81833596D01*
X123785448Y-81783474D01*
X123736267Y-81746658D01*
X123736265Y-81746657D01*
X123736266Y-81746657D01*
X123600349Y-81695962D01*
X123600344Y-81695960D01*
X123600342Y-81695960D01*
X123570298Y-81692730D01*
X123540256Y-81689500D01*
X121743753Y-81689500D01*
X121743729Y-81689502D01*
X121683660Y-81695959D01*
X121683658Y-81695959D01*
X121547733Y-81746657D01*
X121431596Y-81833596D01*
X121344657Y-81949734D01*
X121293962Y-82085650D01*
X121293960Y-82085658D01*
X121287500Y-82145737D01*
X121287500Y-82942246D01*
X121287502Y-82942270D01*
X121293959Y-83002339D01*
X121293959Y-83002341D01*
X121344657Y-83138266D01*
X121344658Y-83138267D01*
X121431596Y-83254404D01*
X121547733Y-83341342D01*
X121683658Y-83392040D01*
X121743745Y-83398500D01*
X121773498Y-83398499D01*
X121841618Y-83418499D01*
X121888112Y-83472153D01*
X121899500Y-83524499D01*
X121899500Y-92926577D01*
X121879498Y-92994698D01*
X121825842Y-93041191D01*
X121755568Y-93051295D01*
X121690988Y-93021801D01*
X121684405Y-93015672D01*
X111633240Y-82964507D01*
X112634000Y-82964507D01*
X112638291Y-83006508D01*
X112638291Y-83006509D01*
X112644605Y-83068325D01*
X112644606Y-83068328D01*
X112700340Y-83236523D01*
X112793365Y-83387340D01*
X112793370Y-83387346D01*
X112918653Y-83512629D01*
X112918659Y-83512634D01*
X113069476Y-83605659D01*
X113237668Y-83661392D01*
X113323131Y-83670124D01*
X113330563Y-83672000D01*
X113335070Y-83672000D01*
X113346502Y-83672582D01*
X113352918Y-83672000D01*
X114413000Y-83672000D01*
X114921000Y-83672000D01*
X116000226Y-83672000D01*
X116000242Y-83671999D01*
X116088000Y-83671999D01*
X116596000Y-83671999D01*
X116686275Y-83671999D01*
X116686299Y-83672000D01*
X117763000Y-83672000D01*
X118271000Y-83672000D01*
X119342505Y-83672000D01*
X119417447Y-83664342D01*
X119417457Y-83664343D01*
X119417457Y-83664342D01*
X119446326Y-83661393D01*
X119446334Y-83661392D01*
X119614523Y-83605659D01*
X119765340Y-83512634D01*
X119765346Y-83512629D01*
X119890629Y-83387346D01*
X119890634Y-83387340D01*
X119983659Y-83236523D01*
X120039392Y-83068333D01*
X120039394Y-83068321D01*
X120049999Y-82964519D01*
X120050000Y-82964519D01*
X120050000Y-82043000D01*
X118271000Y-82043000D01*
X118271000Y-83672000D01*
X117763000Y-83672000D01*
X117763000Y-82043000D01*
X116596000Y-82043000D01*
X116596000Y-83671999D01*
X116088000Y-83671999D01*
X116088000Y-82043000D01*
X114921000Y-82043000D01*
X114921000Y-83672000D01*
X114413000Y-83672000D01*
X114413000Y-82043000D01*
X112634000Y-82043000D01*
X112634000Y-82964507D01*
X111633240Y-82964507D01*
X110203733Y-81535000D01*
X112634000Y-81535000D01*
X114413000Y-81535000D01*
X114921000Y-81535000D01*
X116088000Y-81535000D01*
X116596000Y-81535000D01*
X117763000Y-81535000D01*
X118271000Y-81535000D01*
X120050000Y-81535000D01*
X120049999Y-80518000D01*
X118271000Y-80518000D01*
X118271000Y-81535000D01*
X117763000Y-81535000D01*
X117763000Y-80518000D01*
X116596000Y-80518000D01*
X116596000Y-81535000D01*
X116088000Y-81535000D01*
X116088000Y-80518000D01*
X114921000Y-80518000D01*
X114921000Y-81535000D01*
X114413000Y-81535000D01*
X114413000Y-80518000D01*
X112634000Y-80518000D01*
X112634000Y-81535000D01*
X110203733Y-81535000D01*
X108678733Y-80010000D01*
X112634000Y-80010000D01*
X114413000Y-80010000D01*
X114921000Y-80010000D01*
X116088000Y-80010000D01*
X116596000Y-80010000D01*
X117763000Y-80010000D01*
X118271000Y-80010000D01*
X120049999Y-80010000D01*
X120049999Y-79920741D01*
X120050000Y-79920720D01*
X120050000Y-78993000D01*
X118271000Y-78993000D01*
X118271000Y-80010000D01*
X117763000Y-80010000D01*
X117763000Y-78993000D01*
X116596000Y-78993000D01*
X116596000Y-80010000D01*
X116088000Y-80010000D01*
X116088000Y-78993000D01*
X114921000Y-78993000D01*
X114921000Y-80010000D01*
X114413000Y-80010000D01*
X114413000Y-78993000D01*
X112634000Y-78993000D01*
X112634000Y-80010000D01*
X108678733Y-80010000D01*
X106232213Y-77563480D01*
X112634000Y-77563480D01*
X112634000Y-78485000D01*
X114413000Y-78485000D01*
X114921000Y-78485000D01*
X116088000Y-78485000D01*
X116596000Y-78485000D01*
X117763000Y-78485000D01*
X118271000Y-78485000D01*
X120050000Y-78485000D01*
X120050000Y-77563491D01*
X120040046Y-77466058D01*
X120039871Y-77462630D01*
X120039393Y-77459670D01*
X119983659Y-77291476D01*
X119890634Y-77140659D01*
X119890629Y-77140653D01*
X119765346Y-77015370D01*
X119765340Y-77015365D01*
X119614523Y-76922340D01*
X119446333Y-76866607D01*
X119446321Y-76866605D01*
X119342519Y-76856000D01*
X118271000Y-76856000D01*
X118271000Y-78485000D01*
X117763000Y-78485000D01*
X117763000Y-76856000D01*
X116596000Y-76856000D01*
X116596000Y-78485000D01*
X116088000Y-78485000D01*
X116088000Y-76856000D01*
X114921000Y-76856000D01*
X114921000Y-78485000D01*
X114413000Y-78485000D01*
X114413000Y-76856000D01*
X113341492Y-76856000D01*
X113266542Y-76863657D01*
X113266541Y-76863657D01*
X113237672Y-76866606D01*
X113069476Y-76922340D01*
X112918659Y-77015365D01*
X112918653Y-77015370D01*
X112793370Y-77140653D01*
X112793365Y-77140659D01*
X112700340Y-77291476D01*
X112644607Y-77459666D01*
X112644605Y-77459678D01*
X112634000Y-77563480D01*
X106232213Y-77563480D01*
X102066405Y-73397672D01*
X102032379Y-73335360D01*
X102029500Y-73308577D01*
X102029500Y-63072055D01*
X102361500Y-63072055D01*
X102361500Y-66481055D01*
X102361500Y-66614945D01*
X102396153Y-66744274D01*
X102396154Y-66744276D01*
X102396155Y-66744278D01*
X102463096Y-66860223D01*
X102463104Y-66860233D01*
X107891766Y-72288895D01*
X107891771Y-72288899D01*
X107891773Y-72288901D01*
X108007726Y-72355847D01*
X108137055Y-72390500D01*
X116277182Y-72390500D01*
X116345303Y-72410502D01*
X116366277Y-72427405D01*
X121283038Y-77344166D01*
X121317064Y-77406478D01*
X121311999Y-77477293D01*
X121293961Y-77525654D01*
X121293960Y-77525658D01*
X121287500Y-77585737D01*
X121287500Y-78382246D01*
X121287502Y-78382270D01*
X121293959Y-78442339D01*
X121293959Y-78442341D01*
X121344657Y-78578266D01*
X121366515Y-78607465D01*
X121431596Y-78694404D01*
X121547733Y-78781342D01*
X121683658Y-78832040D01*
X121743745Y-78838500D01*
X123540254Y-78838499D01*
X123600342Y-78832040D01*
X123736267Y-78781342D01*
X123852404Y-78694404D01*
X123939342Y-78578267D01*
X123950084Y-78549464D01*
X123992630Y-78492632D01*
X124059150Y-78467821D01*
X124068139Y-78467500D01*
X124308212Y-78467500D01*
X124376333Y-78487502D01*
X124422826Y-78541158D01*
X124426255Y-78549437D01*
X124455658Y-78628267D01*
X124542596Y-78744404D01*
X124658733Y-78831342D01*
X124794658Y-78882040D01*
X124854745Y-78888500D01*
X125851254Y-78888499D01*
X125911342Y-78882040D01*
X126047267Y-78831342D01*
X126163404Y-78744404D01*
X126250342Y-78628267D01*
X126301040Y-78492342D01*
X126307257Y-78434516D01*
X126845000Y-78434516D01*
X126855605Y-78538318D01*
X126855606Y-78538321D01*
X126911342Y-78706525D01*
X127004365Y-78857339D01*
X127004370Y-78857345D01*
X127129654Y-78982629D01*
X127129660Y-78982634D01*
X127280474Y-79075657D01*
X127448678Y-79131393D01*
X127448681Y-79131394D01*
X127552483Y-79141999D01*
X127552483Y-79142000D01*
X127799000Y-79142000D01*
X128307000Y-79142000D01*
X128553517Y-79142000D01*
X128553516Y-79141999D01*
X128657318Y-79131394D01*
X128657321Y-79131393D01*
X128825525Y-79075657D01*
X128976339Y-78982634D01*
X128976345Y-78982629D01*
X129101629Y-78857345D01*
X129101634Y-78857339D01*
X129194657Y-78706525D01*
X129250393Y-78538321D01*
X129250394Y-78538318D01*
X129260999Y-78434516D01*
X129261000Y-78434516D01*
X129261000Y-78213000D01*
X128307000Y-78213000D01*
X128307000Y-79142000D01*
X127799000Y-79142000D01*
X127799000Y-78213000D01*
X126845000Y-78213000D01*
X126845000Y-78434516D01*
X126307257Y-78434516D01*
X126307500Y-78432255D01*
X126307499Y-77485746D01*
X126307256Y-77483483D01*
X126845000Y-77483483D01*
X126845000Y-77705000D01*
X127799000Y-77705000D01*
X128307000Y-77705000D01*
X129261000Y-77705000D01*
X129261000Y-77483483D01*
X129250394Y-77379681D01*
X129250393Y-77379678D01*
X129194657Y-77211474D01*
X129101634Y-77060660D01*
X129101629Y-77060654D01*
X128976345Y-76935370D01*
X128976339Y-76935365D01*
X128825525Y-76842342D01*
X128657321Y-76786606D01*
X128657318Y-76786605D01*
X128553516Y-76776000D01*
X128307000Y-76776000D01*
X128307000Y-77705000D01*
X127799000Y-77705000D01*
X127799000Y-76776000D01*
X127552483Y-76776000D01*
X127448681Y-76786605D01*
X127448678Y-76786606D01*
X127280474Y-76842342D01*
X127129660Y-76935365D01*
X127129654Y-76935370D01*
X127004370Y-77060654D01*
X127004365Y-77060660D01*
X126911342Y-77211474D01*
X126855606Y-77379678D01*
X126855605Y-77379681D01*
X126845000Y-77483483D01*
X126307256Y-77483483D01*
X126301040Y-77425658D01*
X126250342Y-77289733D01*
X126163404Y-77173596D01*
X126047267Y-77086658D01*
X126047265Y-77086657D01*
X126047266Y-77086657D01*
X125911349Y-77035962D01*
X125911344Y-77035960D01*
X125911342Y-77035960D01*
X125903831Y-77035152D01*
X125851262Y-77029500D01*
X125851255Y-77029500D01*
X125833500Y-77029500D01*
X125765379Y-77009498D01*
X125718886Y-76955842D01*
X125707500Y-76903500D01*
X125707500Y-73255639D01*
X125727502Y-73187518D01*
X125744405Y-73166544D01*
X125744473Y-73166475D01*
X125833350Y-73050649D01*
X125833355Y-73050643D01*
X125889228Y-72915754D01*
X125908285Y-72771000D01*
X125905869Y-72752652D01*
X125889228Y-72626247D01*
X125889228Y-72626246D01*
X125833355Y-72491358D01*
X125744474Y-72375526D01*
X125744472Y-72375524D01*
X125744471Y-72375523D01*
X125628649Y-72286649D01*
X125628641Y-72286644D01*
X125493752Y-72230771D01*
X125349000Y-72211715D01*
X125204247Y-72230771D01*
X125136802Y-72258708D01*
X125069358Y-72286645D01*
X125069357Y-72286646D01*
X125069356Y-72286646D01*
X124953526Y-72375526D01*
X124864646Y-72491356D01*
X124864645Y-72491358D01*
X124836708Y-72558802D01*
X124808771Y-72626247D01*
X124789715Y-72770999D01*
X124789715Y-72771000D01*
X124808771Y-72915752D01*
X124864644Y-73050641D01*
X124864649Y-73050649D01*
X124953526Y-73166475D01*
X124959365Y-73172314D01*
X124957356Y-73174322D01*
X124991070Y-73220491D01*
X124998500Y-73263120D01*
X124998500Y-76903500D01*
X124978498Y-76971621D01*
X124924842Y-77018114D01*
X124872506Y-77029500D01*
X124854743Y-77029500D01*
X124794660Y-77035959D01*
X124794658Y-77035959D01*
X124658733Y-77086657D01*
X124542596Y-77173596D01*
X124455658Y-77289733D01*
X124426266Y-77368534D01*
X124383719Y-77425369D01*
X124317198Y-77450179D01*
X124308211Y-77450500D01*
X124047282Y-77450500D01*
X123979161Y-77430498D01*
X123946619Y-77395541D01*
X123944742Y-77396947D01*
X123931815Y-77379678D01*
X123852404Y-77273596D01*
X123736267Y-77186658D01*
X123736265Y-77186657D01*
X123736266Y-77186657D01*
X123600349Y-77135962D01*
X123600344Y-77135960D01*
X123600342Y-77135960D01*
X123592831Y-77135152D01*
X123540262Y-77129500D01*
X123540255Y-77129500D01*
X122558818Y-77129500D01*
X122490697Y-77109498D01*
X122469723Y-77092595D01*
X116852233Y-71475104D01*
X116852223Y-71475096D01*
X116736278Y-71408155D01*
X116736276Y-71408154D01*
X116736274Y-71408153D01*
X116606945Y-71373500D01*
X116606943Y-71373500D01*
X108466818Y-71373500D01*
X108398697Y-71353498D01*
X108377723Y-71336595D01*
X108041121Y-70999993D01*
X126494696Y-70999993D01*
X126494696Y-71000006D01*
X126513896Y-71366395D01*
X126571294Y-71728792D01*
X126666259Y-72083205D01*
X126797740Y-72425726D01*
X126797744Y-72425734D01*
X126964318Y-72752652D01*
X127164143Y-73060358D01*
X127164155Y-73060375D01*
X127395038Y-73345492D01*
X127395052Y-73345507D01*
X127654492Y-73604947D01*
X127654507Y-73604961D01*
X127939624Y-73835844D01*
X127939641Y-73835856D01*
X128076946Y-73925022D01*
X128247348Y-74035682D01*
X128574264Y-74202255D01*
X128574268Y-74202256D01*
X128574273Y-74202259D01*
X128916794Y-74333740D01*
X128916799Y-74333741D01*
X128916801Y-74333742D01*
X129271206Y-74428705D01*
X129633596Y-74486102D01*
X129633598Y-74486102D01*
X129633604Y-74486103D01*
X129999994Y-74505304D01*
X130000000Y-74505304D01*
X130000006Y-74505304D01*
X130366395Y-74486103D01*
X130366399Y-74486102D01*
X130366404Y-74486102D01*
X130728794Y-74428705D01*
X131083199Y-74333742D01*
X131083202Y-74333740D01*
X131083205Y-74333740D01*
X131425726Y-74202259D01*
X131425727Y-74202258D01*
X131425736Y-74202255D01*
X131752652Y-74035682D01*
X132060366Y-73835851D01*
X132060375Y-73835844D01*
X132345492Y-73604961D01*
X132345497Y-73604955D01*
X132345506Y-73604949D01*
X132604949Y-73345506D01*
X132604955Y-73345497D01*
X132604961Y-73345492D01*
X132835844Y-73060375D01*
X132835845Y-73060372D01*
X132835851Y-73060366D01*
X133035682Y-72752652D01*
X133202255Y-72425736D01*
X133255645Y-72286649D01*
X133333740Y-72083205D01*
X133377437Y-71920127D01*
X133428705Y-71728794D01*
X133486102Y-71366404D01*
X133486102Y-71366399D01*
X133486103Y-71366395D01*
X133505304Y-71000006D01*
X133505304Y-70999993D01*
X133486103Y-70633604D01*
X133428705Y-70271207D01*
X133333740Y-69916794D01*
X133202259Y-69574273D01*
X133202255Y-69574265D01*
X133202255Y-69574264D01*
X133035682Y-69247348D01*
X132835851Y-68939634D01*
X132835844Y-68939624D01*
X132604961Y-68654507D01*
X132604947Y-68654492D01*
X132345507Y-68395052D01*
X132345492Y-68395038D01*
X132060375Y-68164155D01*
X132060358Y-68164143D01*
X131752652Y-67964318D01*
X131425734Y-67797744D01*
X131425726Y-67797740D01*
X131083205Y-67666259D01*
X130728792Y-67571294D01*
X130366395Y-67513896D01*
X130000006Y-67494696D01*
X129999994Y-67494696D01*
X129633604Y-67513896D01*
X129271207Y-67571294D01*
X128916794Y-67666259D01*
X128574273Y-67797740D01*
X128574265Y-67797744D01*
X128247347Y-67964318D01*
X127939641Y-68164143D01*
X127939624Y-68164155D01*
X127654507Y-68395038D01*
X127654492Y-68395052D01*
X127395052Y-68654492D01*
X127395038Y-68654507D01*
X127164155Y-68939624D01*
X127164143Y-68939641D01*
X126964318Y-69247347D01*
X126797744Y-69574265D01*
X126797740Y-69574273D01*
X126666259Y-69916794D01*
X126571294Y-70271207D01*
X126513896Y-70633604D01*
X126494696Y-70999993D01*
X108041121Y-70999993D01*
X103415405Y-66374277D01*
X103381379Y-66311965D01*
X103378500Y-66285182D01*
X103378500Y-63401818D01*
X103398502Y-63333697D01*
X103415405Y-63312723D01*
X103757405Y-62970723D01*
X103819717Y-62936697D01*
X103890532Y-62941762D01*
X103947368Y-62984309D01*
X103972179Y-63050829D01*
X103972500Y-63059818D01*
X103972500Y-64347063D01*
X103972501Y-64347073D01*
X103987265Y-64421300D01*
X104043516Y-64505484D01*
X104127697Y-64561733D01*
X104127699Y-64561734D01*
X104201933Y-64576500D01*
X105952066Y-64576499D01*
X105952069Y-64576498D01*
X105952073Y-64576498D01*
X106001326Y-64566701D01*
X106026301Y-64561734D01*
X106110484Y-64505484D01*
X106166734Y-64421301D01*
X106181500Y-64347067D01*
X106181499Y-62596934D01*
X106181498Y-62596931D01*
X106181498Y-62596926D01*
X106166734Y-62522699D01*
X106154729Y-62504733D01*
X106110484Y-62438516D01*
X106072950Y-62413436D01*
X106026302Y-62382266D01*
X105952069Y-62367500D01*
X105952067Y-62367500D01*
X104664817Y-62367500D01*
X104596696Y-62347498D01*
X104550203Y-62293842D01*
X104540099Y-62223568D01*
X104569593Y-62158988D01*
X104575707Y-62152419D01*
X104689240Y-62038886D01*
X104751548Y-62004864D01*
X104801481Y-62004129D01*
X104974653Y-62036500D01*
X104974655Y-62036500D01*
X105179345Y-62036500D01*
X105179347Y-62036500D01*
X105380556Y-61998888D01*
X105571427Y-61924944D01*
X105745462Y-61817186D01*
X105896732Y-61679285D01*
X106020088Y-61515935D01*
X106111328Y-61332701D01*
X106167345Y-61135821D01*
X106186232Y-60932000D01*
X106167345Y-60728179D01*
X106111328Y-60531299D01*
X106020088Y-60348065D01*
X105944500Y-60247970D01*
X105896733Y-60184715D01*
X105745462Y-60046814D01*
X105745458Y-60046811D01*
X105645169Y-59984714D01*
X105597782Y-59931847D01*
X105585500Y-59877587D01*
X105585500Y-58761818D01*
X105605502Y-58693697D01*
X105622405Y-58672723D01*
X106599723Y-57695405D01*
X106662035Y-57661379D01*
X106688818Y-57658500D01*
X110742652Y-57658500D01*
X110810773Y-57678502D01*
X110857266Y-57732158D01*
X110867370Y-57802432D01*
X110837876Y-57867012D01*
X110831747Y-57873595D01*
X109734345Y-58970998D01*
X108643264Y-60062079D01*
X108620828Y-60084515D01*
X108565689Y-60139653D01*
X108503377Y-60173677D01*
X108432561Y-60168611D01*
X108391709Y-60143671D01*
X108285463Y-60046814D01*
X108111433Y-59939059D01*
X108111428Y-59939057D01*
X108111427Y-59939056D01*
X108102997Y-59935790D01*
X107920559Y-59865113D01*
X107920560Y-59865113D01*
X107920557Y-59865112D01*
X107920556Y-59865112D01*
X107719347Y-59827500D01*
X107514653Y-59827500D01*
X107313444Y-59865112D01*
X107313439Y-59865113D01*
X107122577Y-59939054D01*
X107122566Y-59939059D01*
X106948536Y-60046814D01*
X106797266Y-60184715D01*
X106673913Y-60348063D01*
X106582671Y-60531301D01*
X106526654Y-60728180D01*
X106507768Y-60931995D01*
X106507768Y-60932004D01*
X106526654Y-61135819D01*
X106563361Y-61264831D01*
X106582672Y-61332701D01*
X106673912Y-61515935D01*
X106673913Y-61515936D01*
X106797266Y-61679284D01*
X106948536Y-61817185D01*
X107122566Y-61924940D01*
X107122568Y-61924940D01*
X107122573Y-61924944D01*
X107313444Y-61998888D01*
X107514653Y-62036500D01*
X107514655Y-62036500D01*
X107719345Y-62036500D01*
X107719347Y-62036500D01*
X107920556Y-61998888D01*
X108111427Y-61924944D01*
X108279170Y-61821081D01*
X108347616Y-61802227D01*
X108415391Y-61823370D01*
X108460977Y-61877799D01*
X108471500Y-61928209D01*
X108471500Y-61935983D01*
X108451498Y-62004104D01*
X108434595Y-62025079D01*
X108075197Y-62384476D01*
X108012885Y-62418501D01*
X107942069Y-62413436D01*
X107940644Y-62412894D01*
X107930195Y-62408846D01*
X107920557Y-62405112D01*
X107853486Y-62392574D01*
X107719347Y-62367500D01*
X107514653Y-62367500D01*
X107323330Y-62403264D01*
X107313439Y-62405113D01*
X107122577Y-62479054D01*
X107122566Y-62479059D01*
X106948536Y-62586814D01*
X106797266Y-62724715D01*
X106673913Y-62888063D01*
X106582671Y-63071301D01*
X106526654Y-63268180D01*
X106507768Y-63471995D01*
X106507768Y-63472004D01*
X106526654Y-63675819D01*
X106576047Y-63849418D01*
X106582672Y-63872701D01*
X106673912Y-64055935D01*
X106673913Y-64055936D01*
X106797266Y-64219284D01*
X106948536Y-64357185D01*
X107122566Y-64464940D01*
X107122568Y-64464940D01*
X107122573Y-64464944D01*
X107313444Y-64538888D01*
X107514653Y-64576500D01*
X107514655Y-64576500D01*
X107719345Y-64576500D01*
X107719347Y-64576500D01*
X107920556Y-64538888D01*
X108111427Y-64464944D01*
X108285462Y-64357186D01*
X108436732Y-64219285D01*
X108560088Y-64055935D01*
X108651328Y-63872701D01*
X108707345Y-63675821D01*
X108726232Y-63472000D01*
X108707345Y-63268179D01*
X108670638Y-63139166D01*
X108671234Y-63068173D01*
X108702731Y-63015592D01*
X109113648Y-62604676D01*
X109175959Y-62570652D01*
X109246775Y-62575717D01*
X109278197Y-62599239D01*
X109269297Y-62591912D01*
X109247586Y-62524316D01*
X109265866Y-62455713D01*
X109272011Y-62446736D01*
X109272587Y-62445737D01*
X109272589Y-62445736D01*
X109331175Y-62344263D01*
X109361500Y-62231086D01*
X109361500Y-62113914D01*
X109361500Y-61964740D01*
X109381502Y-61896619D01*
X109435158Y-61850126D01*
X109505432Y-61840022D01*
X109553828Y-61857611D01*
X109662573Y-61924944D01*
X109853444Y-61998888D01*
X110054653Y-62036500D01*
X110054655Y-62036500D01*
X110259345Y-62036500D01*
X110259347Y-62036500D01*
X110460556Y-61998888D01*
X110651427Y-61924944D01*
X110760171Y-61857612D01*
X110828616Y-61838758D01*
X110896391Y-61859901D01*
X110941976Y-61914330D01*
X110952500Y-61964740D01*
X110952500Y-61994983D01*
X110932498Y-62063104D01*
X110915595Y-62084079D01*
X110615197Y-62384476D01*
X110552885Y-62418501D01*
X110482069Y-62413436D01*
X110480644Y-62412894D01*
X110470195Y-62408846D01*
X110460557Y-62405112D01*
X110393486Y-62392574D01*
X110259347Y-62367500D01*
X110054653Y-62367500D01*
X109863330Y-62403264D01*
X109853439Y-62405113D01*
X109662577Y-62479054D01*
X109662566Y-62479059D01*
X109488536Y-62586814D01*
X109458431Y-62614259D01*
X109394613Y-62645369D01*
X109324107Y-62637039D01*
X109304632Y-62621004D01*
X109328421Y-62684784D01*
X109313329Y-62754159D01*
X109303293Y-62769704D01*
X109213912Y-62888063D01*
X109122671Y-63071301D01*
X109066654Y-63268180D01*
X109047768Y-63471995D01*
X109047768Y-63472004D01*
X109066654Y-63675819D01*
X109116047Y-63849418D01*
X109122672Y-63872701D01*
X109213912Y-64055935D01*
X109213913Y-64055936D01*
X109337266Y-64219284D01*
X109488536Y-64357185D01*
X109662566Y-64464940D01*
X109662568Y-64464940D01*
X109662573Y-64464944D01*
X109853444Y-64538888D01*
X110054653Y-64576500D01*
X110054655Y-64576500D01*
X110259345Y-64576500D01*
X110259347Y-64576500D01*
X110460556Y-64538888D01*
X110651427Y-64464944D01*
X110825462Y-64357186D01*
X110976732Y-64219285D01*
X111100088Y-64055935D01*
X111191328Y-63872701D01*
X111247345Y-63675821D01*
X111266232Y-63472000D01*
X111266232Y-63471995D01*
X111587768Y-63471995D01*
X111587768Y-63472004D01*
X111606654Y-63675819D01*
X111656047Y-63849418D01*
X111662672Y-63872701D01*
X111753912Y-64055935D01*
X111753913Y-64055936D01*
X111877266Y-64219284D01*
X112028536Y-64357185D01*
X112202566Y-64464940D01*
X112202568Y-64464940D01*
X112202573Y-64464944D01*
X112393444Y-64538888D01*
X112594653Y-64576500D01*
X112594655Y-64576500D01*
X112799345Y-64576500D01*
X112799347Y-64576500D01*
X113000556Y-64538888D01*
X113191427Y-64464944D01*
X113365462Y-64357186D01*
X113516732Y-64219285D01*
X113640088Y-64055935D01*
X113731328Y-63872701D01*
X113787345Y-63675821D01*
X113806232Y-63472000D01*
X113800132Y-63406174D01*
X113788348Y-63279007D01*
X113787345Y-63268179D01*
X113731328Y-63071299D01*
X113640088Y-62888065D01*
X113564500Y-62787970D01*
X113516733Y-62724715D01*
X113365463Y-62586814D01*
X113191433Y-62479059D01*
X113191428Y-62479057D01*
X113191427Y-62479056D01*
X113108000Y-62446736D01*
X113000559Y-62405113D01*
X113000560Y-62405113D01*
X113000557Y-62405112D01*
X113000556Y-62405112D01*
X112799347Y-62367500D01*
X112594653Y-62367500D01*
X112403330Y-62403264D01*
X112393439Y-62405113D01*
X112202577Y-62479054D01*
X112202566Y-62479059D01*
X112028536Y-62586814D01*
X111947893Y-62660330D01*
X111884076Y-62691440D01*
X111867400Y-62689469D01*
X111853329Y-62754158D01*
X111843292Y-62769704D01*
X111753912Y-62888063D01*
X111662671Y-63071301D01*
X111606654Y-63268180D01*
X111587768Y-63471995D01*
X111266232Y-63471995D01*
X111247345Y-63268179D01*
X111210638Y-63139166D01*
X111211234Y-63068173D01*
X111242733Y-63015591D01*
X111470354Y-62787970D01*
X111653647Y-62604677D01*
X111715958Y-62570652D01*
X111737630Y-62572202D01*
X111737048Y-62570388D01*
X111753888Y-62504216D01*
X111768415Y-62479056D01*
X111812174Y-62403264D01*
X111842500Y-62290085D01*
X111842500Y-61928209D01*
X111862502Y-61860088D01*
X111916158Y-61813595D01*
X111986432Y-61803491D01*
X112034829Y-61821081D01*
X112202573Y-61924944D01*
X112393444Y-61998888D01*
X112594653Y-62036500D01*
X112594655Y-62036500D01*
X112799345Y-62036500D01*
X112799347Y-62036500D01*
X113000556Y-61998888D01*
X113191427Y-61924944D01*
X113365462Y-61817186D01*
X113516732Y-61679285D01*
X113640088Y-61515935D01*
X113731328Y-61332701D01*
X113787345Y-61135821D01*
X113806232Y-60932000D01*
X113787345Y-60728179D01*
X113750638Y-60599166D01*
X113751234Y-60528173D01*
X113782731Y-60475592D01*
X114193648Y-60064676D01*
X114255959Y-60030652D01*
X114326775Y-60035717D01*
X114383610Y-60078264D01*
X114408421Y-60144784D01*
X114393329Y-60214159D01*
X114383293Y-60229704D01*
X114293912Y-60348063D01*
X114202671Y-60531301D01*
X114146654Y-60728180D01*
X114127768Y-60931995D01*
X114127768Y-60932004D01*
X114146654Y-61135819D01*
X114183361Y-61264831D01*
X114202672Y-61332701D01*
X114293912Y-61515935D01*
X114293913Y-61515936D01*
X114417266Y-61679284D01*
X114568536Y-61817185D01*
X114742566Y-61924940D01*
X114742568Y-61924940D01*
X114742573Y-61924944D01*
X114933444Y-61998888D01*
X115134653Y-62036500D01*
X115134655Y-62036500D01*
X115339345Y-62036500D01*
X115339347Y-62036500D01*
X115540556Y-61998888D01*
X115560586Y-61991127D01*
X115631331Y-61985170D01*
X115694068Y-62018406D01*
X115695119Y-62019444D01*
X115899243Y-62223568D01*
X116088889Y-62413214D01*
X116122914Y-62475526D01*
X116117849Y-62546342D01*
X116075302Y-62603177D01*
X116008782Y-62627988D01*
X115939407Y-62612896D01*
X115914907Y-62595423D01*
X115905467Y-62586817D01*
X115905464Y-62586815D01*
X115731433Y-62479059D01*
X115731428Y-62479057D01*
X115731427Y-62479056D01*
X115648000Y-62446736D01*
X115540559Y-62405113D01*
X115540560Y-62405113D01*
X115540557Y-62405112D01*
X115540556Y-62405112D01*
X115339347Y-62367500D01*
X115134653Y-62367500D01*
X114943330Y-62403264D01*
X114933439Y-62405113D01*
X114742577Y-62479054D01*
X114742566Y-62479059D01*
X114568536Y-62586814D01*
X114417266Y-62724715D01*
X114293913Y-62888063D01*
X114202671Y-63071301D01*
X114146654Y-63268180D01*
X114127768Y-63471995D01*
X114127768Y-63472004D01*
X114146654Y-63675819D01*
X114196047Y-63849418D01*
X114202672Y-63872701D01*
X114293912Y-64055935D01*
X114293913Y-64055936D01*
X114417266Y-64219284D01*
X114568536Y-64357185D01*
X114742566Y-64464940D01*
X114742568Y-64464940D01*
X114742573Y-64464944D01*
X114933444Y-64538888D01*
X115134653Y-64576500D01*
X115134655Y-64576500D01*
X115339345Y-64576500D01*
X115339347Y-64576500D01*
X115540556Y-64538888D01*
X115731427Y-64464944D01*
X115905462Y-64357186D01*
X116056732Y-64219285D01*
X116180088Y-64055935D01*
X116271328Y-63872701D01*
X116327345Y-63675821D01*
X116346232Y-63472000D01*
X116340132Y-63406174D01*
X116328348Y-63279007D01*
X116327345Y-63268179D01*
X116271328Y-63071299D01*
X116180088Y-62888065D01*
X116104500Y-62787970D01*
X116086008Y-62763482D01*
X116060918Y-62697066D01*
X116075718Y-62627629D01*
X116125709Y-62577217D01*
X116195019Y-62561834D01*
X116255698Y-62584176D01*
X116256112Y-62583460D01*
X116260269Y-62585860D01*
X116261643Y-62586366D01*
X116263261Y-62587587D01*
X116263263Y-62587588D01*
X116263264Y-62587589D01*
X116364737Y-62646175D01*
X116477914Y-62676500D01*
X116477915Y-62676500D01*
X116740636Y-62676500D01*
X116808757Y-62696502D01*
X116855250Y-62750158D01*
X116865354Y-62820432D01*
X116841187Y-62878431D01*
X116833912Y-62888063D01*
X116742671Y-63071301D01*
X116686654Y-63268180D01*
X116667768Y-63471995D01*
X116667768Y-63472004D01*
X116686654Y-63675819D01*
X116736047Y-63849418D01*
X116742672Y-63872701D01*
X116833912Y-64055935D01*
X116833913Y-64055936D01*
X116957266Y-64219284D01*
X117108536Y-64357185D01*
X117282566Y-64464940D01*
X117282568Y-64464940D01*
X117282573Y-64464944D01*
X117473444Y-64538888D01*
X117674653Y-64576500D01*
X117674655Y-64576500D01*
X117879345Y-64576500D01*
X117879347Y-64576500D01*
X118080556Y-64538888D01*
X118271427Y-64464944D01*
X118445462Y-64357186D01*
X118596732Y-64219285D01*
X118720088Y-64055935D01*
X118811328Y-63872701D01*
X118867345Y-63675821D01*
X118886232Y-63472000D01*
X118880132Y-63406174D01*
X118868348Y-63279007D01*
X118867345Y-63268179D01*
X118811328Y-63071299D01*
X118720088Y-62888065D01*
X118720087Y-62888064D01*
X118720087Y-62888063D01*
X118712813Y-62878431D01*
X118687724Y-62812015D01*
X118702525Y-62742578D01*
X118752516Y-62692166D01*
X118813364Y-62676500D01*
X119280636Y-62676500D01*
X119348757Y-62696502D01*
X119395250Y-62750158D01*
X119405354Y-62820432D01*
X119381187Y-62878431D01*
X119373912Y-62888063D01*
X119282671Y-63071301D01*
X119226654Y-63268180D01*
X119207768Y-63471995D01*
X119207768Y-63472004D01*
X119226654Y-63675819D01*
X119276047Y-63849418D01*
X119282672Y-63872701D01*
X119373912Y-64055935D01*
X119373913Y-64055936D01*
X119497266Y-64219284D01*
X119648536Y-64357185D01*
X119822566Y-64464940D01*
X119822568Y-64464940D01*
X119822573Y-64464944D01*
X120013444Y-64538888D01*
X120214653Y-64576500D01*
X120214655Y-64576500D01*
X120419345Y-64576500D01*
X120419347Y-64576500D01*
X120620556Y-64538888D01*
X120811427Y-64464944D01*
X120985462Y-64357186D01*
X121136732Y-64219285D01*
X121260088Y-64055935D01*
X121351328Y-63872701D01*
X121407345Y-63675821D01*
X121426232Y-63472000D01*
X121420132Y-63406174D01*
X121408348Y-63279007D01*
X121407345Y-63268179D01*
X121351328Y-63071299D01*
X121260088Y-62888065D01*
X121260087Y-62888064D01*
X121260087Y-62888063D01*
X121252813Y-62878431D01*
X121227724Y-62812015D01*
X121242525Y-62742578D01*
X121292516Y-62692166D01*
X121353364Y-62676500D01*
X121820636Y-62676500D01*
X121888757Y-62696502D01*
X121935250Y-62750158D01*
X121945354Y-62820432D01*
X121921187Y-62878431D01*
X121913912Y-62888063D01*
X121822671Y-63071301D01*
X121766654Y-63268180D01*
X121747768Y-63471995D01*
X121747768Y-63472004D01*
X121766654Y-63675819D01*
X121816047Y-63849418D01*
X121822672Y-63872701D01*
X121913912Y-64055935D01*
X121913913Y-64055936D01*
X122037266Y-64219284D01*
X122188536Y-64357185D01*
X122362566Y-64464940D01*
X122362568Y-64464940D01*
X122362573Y-64464944D01*
X122553444Y-64538888D01*
X122754653Y-64576500D01*
X122754655Y-64576500D01*
X122959345Y-64576500D01*
X122959347Y-64576500D01*
X123160556Y-64538888D01*
X123351427Y-64464944D01*
X123525462Y-64357186D01*
X123676732Y-64219285D01*
X123800088Y-64055935D01*
X123891328Y-63872701D01*
X123947345Y-63675821D01*
X123966232Y-63472000D01*
X123966232Y-63471995D01*
X124287768Y-63471995D01*
X124287768Y-63472004D01*
X124306654Y-63675819D01*
X124356047Y-63849418D01*
X124362672Y-63872701D01*
X124453912Y-64055935D01*
X124453913Y-64055936D01*
X124577266Y-64219284D01*
X124728536Y-64357185D01*
X124902566Y-64464940D01*
X124902568Y-64464940D01*
X124902573Y-64464944D01*
X125093444Y-64538888D01*
X125294653Y-64576500D01*
X125294655Y-64576500D01*
X125499345Y-64576500D01*
X125499347Y-64576500D01*
X125700556Y-64538888D01*
X125891427Y-64464944D01*
X126065462Y-64357186D01*
X126216732Y-64219285D01*
X126340088Y-64055935D01*
X126431328Y-63872701D01*
X126487345Y-63675821D01*
X126506232Y-63472000D01*
X126500132Y-63406174D01*
X126488348Y-63279007D01*
X126487345Y-63268179D01*
X126431328Y-63071299D01*
X126340088Y-62888065D01*
X126264500Y-62787970D01*
X126216733Y-62724715D01*
X126065463Y-62586814D01*
X125891433Y-62479059D01*
X125891428Y-62479057D01*
X125891427Y-62479056D01*
X125808000Y-62446736D01*
X125700559Y-62405113D01*
X125700560Y-62405113D01*
X125700557Y-62405112D01*
X125700556Y-62405112D01*
X125499347Y-62367500D01*
X125294653Y-62367500D01*
X125103330Y-62403264D01*
X125093439Y-62405113D01*
X124902577Y-62479054D01*
X124902566Y-62479059D01*
X124728536Y-62586814D01*
X124577266Y-62724715D01*
X124453913Y-62888063D01*
X124362671Y-63071301D01*
X124306654Y-63268180D01*
X124287768Y-63471995D01*
X123966232Y-63471995D01*
X123960132Y-63406174D01*
X123948348Y-63279007D01*
X123947345Y-63268179D01*
X123891328Y-63071299D01*
X123800088Y-62888065D01*
X123710706Y-62769704D01*
X123676730Y-62724712D01*
X123654567Y-62704507D01*
X123617701Y-62643833D01*
X123619490Y-62572859D01*
X123650356Y-62522300D01*
X123667921Y-62504736D01*
X124448309Y-61724348D01*
X124510621Y-61690322D01*
X124581436Y-61695387D01*
X124622290Y-61720328D01*
X124728536Y-61817185D01*
X124902566Y-61924940D01*
X124902568Y-61924940D01*
X124902573Y-61924944D01*
X125093444Y-61998888D01*
X125294653Y-62036500D01*
X125294655Y-62036500D01*
X125499345Y-62036500D01*
X125499347Y-62036500D01*
X125700556Y-61998888D01*
X125891427Y-61924944D01*
X126065462Y-61817186D01*
X126216732Y-61679285D01*
X126340088Y-61515935D01*
X126431328Y-61332701D01*
X126487345Y-61135821D01*
X126506232Y-60932000D01*
X126487345Y-60728179D01*
X126431328Y-60531299D01*
X126340088Y-60348065D01*
X126264500Y-60247970D01*
X126216733Y-60184715D01*
X126065463Y-60046814D01*
X125891433Y-59939059D01*
X125891428Y-59939057D01*
X125891427Y-59939056D01*
X125882997Y-59935790D01*
X125700559Y-59865113D01*
X125700560Y-59865113D01*
X125700557Y-59865112D01*
X125700556Y-59865112D01*
X125499347Y-59827500D01*
X125294653Y-59827500D01*
X125093444Y-59865112D01*
X125093439Y-59865113D01*
X124902577Y-59939054D01*
X124902561Y-59939062D01*
X124734830Y-60042917D01*
X124666383Y-60061772D01*
X124598608Y-60040629D01*
X124553023Y-59986199D01*
X124542500Y-59935790D01*
X124542500Y-59019015D01*
X124562502Y-58950894D01*
X124579405Y-58929920D01*
X125960420Y-57548905D01*
X126022732Y-57514879D01*
X126049515Y-57512000D01*
X126487501Y-57512000D01*
X126555622Y-57532002D01*
X126602115Y-57585658D01*
X126613501Y-57638000D01*
X126613501Y-57967072D01*
X126628265Y-58041300D01*
X126684516Y-58125484D01*
X126768697Y-58181733D01*
X126768699Y-58181734D01*
X126842933Y-58196500D01*
X127343066Y-58196499D01*
X127343069Y-58196498D01*
X127343073Y-58196498D01*
X127393419Y-58186484D01*
X127442579Y-58186484D01*
X127492933Y-58196500D01*
X127993066Y-58196499D01*
X127993069Y-58196498D01*
X127993073Y-58196498D01*
X128043419Y-58186484D01*
X128092579Y-58186484D01*
X128142933Y-58196500D01*
X128643066Y-58196499D01*
X128643069Y-58196498D01*
X128643073Y-58196498D01*
X128653916Y-58194341D01*
X128724630Y-58200667D01*
X128780698Y-58244220D01*
X128804319Y-58311172D01*
X128804500Y-58317919D01*
X128804500Y-59944078D01*
X128784498Y-60012199D01*
X128730842Y-60058692D01*
X128660568Y-60068796D01*
X128611388Y-60048306D01*
X128610414Y-60049880D01*
X128431433Y-59939059D01*
X128431428Y-59939057D01*
X128431427Y-59939056D01*
X128422997Y-59935790D01*
X128240559Y-59865113D01*
X128240560Y-59865113D01*
X128240557Y-59865112D01*
X128240556Y-59865112D01*
X128039347Y-59827500D01*
X127834653Y-59827500D01*
X127633444Y-59865112D01*
X127633439Y-59865113D01*
X127442577Y-59939054D01*
X127442566Y-59939059D01*
X127268536Y-60046814D01*
X127117266Y-60184715D01*
X126993913Y-60348063D01*
X126902671Y-60531301D01*
X126846654Y-60728180D01*
X126827768Y-60931995D01*
X126827768Y-60932004D01*
X126846654Y-61135819D01*
X126883361Y-61264831D01*
X126902672Y-61332701D01*
X126993912Y-61515935D01*
X126993913Y-61515936D01*
X127117266Y-61679284D01*
X127268536Y-61817185D01*
X127442566Y-61924940D01*
X127442568Y-61924940D01*
X127442573Y-61924944D01*
X127633444Y-61998888D01*
X127834653Y-62036500D01*
X127834655Y-62036500D01*
X128039345Y-62036500D01*
X128039347Y-62036500D01*
X128240556Y-61998888D01*
X128431427Y-61924944D01*
X128605462Y-61817186D01*
X128605461Y-61817186D01*
X128610414Y-61814120D01*
X128611565Y-61815979D01*
X128668952Y-61794283D01*
X128738393Y-61809066D01*
X128788818Y-61859044D01*
X128804500Y-61919921D01*
X128804500Y-62484078D01*
X128784498Y-62552199D01*
X128730842Y-62598692D01*
X128660568Y-62608796D01*
X128611388Y-62588306D01*
X128610414Y-62589880D01*
X128431433Y-62479059D01*
X128431428Y-62479057D01*
X128431427Y-62479056D01*
X128348000Y-62446736D01*
X128240559Y-62405113D01*
X128240560Y-62405113D01*
X128240557Y-62405112D01*
X128240556Y-62405112D01*
X128039347Y-62367500D01*
X127834653Y-62367500D01*
X127643330Y-62403264D01*
X127633439Y-62405113D01*
X127442577Y-62479054D01*
X127442566Y-62479059D01*
X127268536Y-62586814D01*
X127117266Y-62724715D01*
X126993913Y-62888063D01*
X126902671Y-63071301D01*
X126846654Y-63268180D01*
X126827768Y-63471995D01*
X126827768Y-63472004D01*
X126846654Y-63675819D01*
X126896047Y-63849418D01*
X126902672Y-63872701D01*
X126993912Y-64055935D01*
X126993913Y-64055936D01*
X127117266Y-64219284D01*
X127268536Y-64357185D01*
X127442566Y-64464940D01*
X127442568Y-64464940D01*
X127442573Y-64464944D01*
X127633444Y-64538888D01*
X127834653Y-64576500D01*
X127834655Y-64576500D01*
X128039345Y-64576500D01*
X128039347Y-64576500D01*
X128240556Y-64538888D01*
X128431427Y-64464944D01*
X128605462Y-64357186D01*
X128605461Y-64357186D01*
X128610414Y-64354120D01*
X128611565Y-64355979D01*
X128668952Y-64334283D01*
X128738393Y-64349066D01*
X128788818Y-64399044D01*
X128804500Y-64459921D01*
X128804500Y-64570969D01*
X128784498Y-64639090D01*
X128767595Y-64660064D01*
X128491849Y-64935810D01*
X128429537Y-64969836D01*
X128402754Y-64972715D01*
X128397000Y-64972715D01*
X128252247Y-64991771D01*
X128184802Y-65019708D01*
X128117358Y-65047645D01*
X128117357Y-65047646D01*
X128117356Y-65047646D01*
X128001526Y-65136526D01*
X127912646Y-65252356D01*
X127912645Y-65252358D01*
X127884708Y-65319802D01*
X127856771Y-65387247D01*
X127837715Y-65531999D01*
X127837715Y-65532000D01*
X127856771Y-65676752D01*
X127912644Y-65811641D01*
X127912649Y-65811649D01*
X128001525Y-65927474D01*
X128117350Y-66016350D01*
X128117357Y-66016355D01*
X128252246Y-66072228D01*
X128397000Y-66091285D01*
X128541754Y-66072228D01*
X128676643Y-66016355D01*
X128792474Y-65927474D01*
X128881355Y-65811643D01*
X128937228Y-65676754D01*
X128956285Y-65532000D01*
X128956285Y-65531999D01*
X128956285Y-65526244D01*
X128976287Y-65458123D01*
X128993190Y-65437148D01*
X129177982Y-65252356D01*
X129442671Y-64987668D01*
X129451304Y-64972715D01*
X129452967Y-64969836D01*
X129489340Y-64906833D01*
X129489341Y-64906832D01*
X129513500Y-64816671D01*
X129513500Y-64373586D01*
X129533502Y-64305465D01*
X129587158Y-64258972D01*
X129657432Y-64248868D01*
X129722012Y-64278362D01*
X129724376Y-64280462D01*
X129808538Y-64357186D01*
X129835025Y-64373586D01*
X129982566Y-64464940D01*
X129982568Y-64464940D01*
X129982573Y-64464944D01*
X130173444Y-64538888D01*
X130374653Y-64576500D01*
X130374655Y-64576500D01*
X130579345Y-64576500D01*
X130579347Y-64576500D01*
X130780556Y-64538888D01*
X130971427Y-64464944D01*
X131145462Y-64357186D01*
X131296732Y-64219285D01*
X131420088Y-64055935D01*
X131511328Y-63872701D01*
X131567345Y-63675821D01*
X131586232Y-63472000D01*
X131586232Y-63471995D01*
X131907768Y-63471995D01*
X131907768Y-63472004D01*
X131926654Y-63675819D01*
X131976047Y-63849418D01*
X131982672Y-63872701D01*
X132073912Y-64055935D01*
X132073913Y-64055936D01*
X132197266Y-64219284D01*
X132348536Y-64357185D01*
X132522566Y-64464940D01*
X132522568Y-64464940D01*
X132522573Y-64464944D01*
X132713444Y-64538888D01*
X132914653Y-64576500D01*
X132914655Y-64576500D01*
X133119345Y-64576500D01*
X133119347Y-64576500D01*
X133320556Y-64538888D01*
X133511427Y-64464944D01*
X133685462Y-64357186D01*
X133836732Y-64219285D01*
X133960088Y-64055935D01*
X134051328Y-63872701D01*
X134107345Y-63675821D01*
X134126232Y-63472000D01*
X134126232Y-63471995D01*
X134447768Y-63471995D01*
X134447768Y-63472004D01*
X134466654Y-63675819D01*
X134516047Y-63849418D01*
X134522672Y-63872701D01*
X134613912Y-64055935D01*
X134613913Y-64055936D01*
X134737266Y-64219284D01*
X134888536Y-64357185D01*
X135062566Y-64464940D01*
X135062568Y-64464940D01*
X135062573Y-64464944D01*
X135253444Y-64538888D01*
X135454653Y-64576500D01*
X135454655Y-64576500D01*
X135659345Y-64576500D01*
X135659347Y-64576500D01*
X135860556Y-64538888D01*
X136051427Y-64464944D01*
X136225462Y-64357186D01*
X136376732Y-64219285D01*
X136500088Y-64055935D01*
X136591328Y-63872701D01*
X136647345Y-63675821D01*
X136666232Y-63472000D01*
X136666232Y-63471995D01*
X136987768Y-63471995D01*
X136987768Y-63472004D01*
X137006654Y-63675819D01*
X137056047Y-63849418D01*
X137062672Y-63872701D01*
X137153912Y-64055935D01*
X137153913Y-64055936D01*
X137277266Y-64219284D01*
X137428536Y-64357185D01*
X137602566Y-64464940D01*
X137602568Y-64464940D01*
X137602573Y-64464944D01*
X137793444Y-64538888D01*
X137994653Y-64576500D01*
X137994655Y-64576500D01*
X138199345Y-64576500D01*
X138199347Y-64576500D01*
X138400556Y-64538888D01*
X138591427Y-64464944D01*
X138765462Y-64357186D01*
X138916732Y-64219285D01*
X139040088Y-64055935D01*
X139131328Y-63872701D01*
X139187345Y-63675821D01*
X139206232Y-63472000D01*
X139206232Y-63471995D01*
X139527768Y-63471995D01*
X139527768Y-63472004D01*
X139546654Y-63675819D01*
X139596047Y-63849418D01*
X139602672Y-63872701D01*
X139693912Y-64055935D01*
X139693913Y-64055936D01*
X139817266Y-64219284D01*
X139968536Y-64357185D01*
X140142566Y-64464940D01*
X140142568Y-64464940D01*
X140142573Y-64464944D01*
X140333444Y-64538888D01*
X140534653Y-64576500D01*
X140534655Y-64576500D01*
X140739345Y-64576500D01*
X140739347Y-64576500D01*
X140940556Y-64538888D01*
X141131427Y-64464944D01*
X141305462Y-64357186D01*
X141456732Y-64219285D01*
X141580088Y-64055935D01*
X141671328Y-63872701D01*
X141727345Y-63675821D01*
X141746232Y-63472000D01*
X141746232Y-63471995D01*
X142067768Y-63471995D01*
X142067768Y-63472004D01*
X142086654Y-63675819D01*
X142136047Y-63849418D01*
X142142672Y-63872701D01*
X142233912Y-64055935D01*
X142233913Y-64055936D01*
X142357266Y-64219284D01*
X142508536Y-64357185D01*
X142682566Y-64464940D01*
X142682568Y-64464940D01*
X142682573Y-64464944D01*
X142873444Y-64538888D01*
X143074653Y-64576500D01*
X143074655Y-64576500D01*
X143279345Y-64576500D01*
X143279347Y-64576500D01*
X143480556Y-64538888D01*
X143671427Y-64464944D01*
X143845462Y-64357186D01*
X143996732Y-64219285D01*
X144120088Y-64055935D01*
X144211328Y-63872701D01*
X144267345Y-63675821D01*
X144286232Y-63472000D01*
X144286232Y-63471995D01*
X144607768Y-63471995D01*
X144607768Y-63472004D01*
X144626654Y-63675819D01*
X144676047Y-63849418D01*
X144682672Y-63872701D01*
X144773912Y-64055935D01*
X144773913Y-64055936D01*
X144897266Y-64219284D01*
X145048536Y-64357185D01*
X145222566Y-64464940D01*
X145222568Y-64464940D01*
X145222573Y-64464944D01*
X145413444Y-64538888D01*
X145614653Y-64576500D01*
X145614655Y-64576500D01*
X145819345Y-64576500D01*
X145819347Y-64576500D01*
X146020556Y-64538888D01*
X146211427Y-64464944D01*
X146385462Y-64357186D01*
X146536732Y-64219285D01*
X146660088Y-64055935D01*
X146751328Y-63872701D01*
X146807345Y-63675821D01*
X146826232Y-63472000D01*
X146826232Y-63471995D01*
X147147768Y-63471995D01*
X147147768Y-63472004D01*
X147166654Y-63675819D01*
X147216047Y-63849418D01*
X147222672Y-63872701D01*
X147313912Y-64055935D01*
X147313913Y-64055936D01*
X147437266Y-64219284D01*
X147588536Y-64357185D01*
X147762566Y-64464940D01*
X147762568Y-64464940D01*
X147762573Y-64464944D01*
X147953444Y-64538888D01*
X148154653Y-64576500D01*
X148154655Y-64576500D01*
X148359345Y-64576500D01*
X148359347Y-64576500D01*
X148560556Y-64538888D01*
X148751427Y-64464944D01*
X148925462Y-64357186D01*
X149076732Y-64219285D01*
X149200088Y-64055935D01*
X149291328Y-63872701D01*
X149347345Y-63675821D01*
X149366232Y-63472000D01*
X149366232Y-63471995D01*
X149687768Y-63471995D01*
X149687768Y-63472004D01*
X149706654Y-63675819D01*
X149756047Y-63849418D01*
X149762672Y-63872701D01*
X149853912Y-64055935D01*
X149853913Y-64055936D01*
X149977266Y-64219284D01*
X150128536Y-64357185D01*
X150302566Y-64464940D01*
X150302568Y-64464940D01*
X150302573Y-64464944D01*
X150493444Y-64538888D01*
X150694653Y-64576500D01*
X150694655Y-64576500D01*
X150899345Y-64576500D01*
X150899347Y-64576500D01*
X151100556Y-64538888D01*
X151291427Y-64464944D01*
X151465462Y-64357186D01*
X151616732Y-64219285D01*
X151740088Y-64055935D01*
X151816998Y-63901478D01*
X151865265Y-63849418D01*
X151934019Y-63831715D01*
X152001430Y-63853994D01*
X152046094Y-63909181D01*
X152047563Y-63913052D01*
X152138580Y-64120548D01*
X152261674Y-64308958D01*
X152414097Y-64474534D01*
X152591698Y-64612767D01*
X152591699Y-64612768D01*
X152789628Y-64719882D01*
X152789630Y-64719883D01*
X153002483Y-64792955D01*
X153002492Y-64792957D01*
X153083000Y-64806391D01*
X153083000Y-63902702D01*
X153144007Y-63937925D01*
X153271174Y-63972000D01*
X153402826Y-63972000D01*
X153529993Y-63937925D01*
X153591000Y-63902702D01*
X153591000Y-64806390D01*
X153671507Y-64792957D01*
X153671516Y-64792955D01*
X153884369Y-64719883D01*
X153884371Y-64719882D01*
X154082300Y-64612768D01*
X154082301Y-64612767D01*
X154259902Y-64474534D01*
X154412325Y-64308958D01*
X154535419Y-64120548D01*
X154625820Y-63914456D01*
X154625823Y-63914449D01*
X154673544Y-63726000D01*
X153767703Y-63726000D01*
X153802925Y-63664993D01*
X153837000Y-63537826D01*
X153837000Y-63406174D01*
X153802925Y-63279007D01*
X153767703Y-63218000D01*
X154673544Y-63218000D01*
X154673544Y-63217999D01*
X154625823Y-63029550D01*
X154625820Y-63029543D01*
X154535419Y-62823451D01*
X154412325Y-62635041D01*
X154259902Y-62469465D01*
X154082301Y-62331232D01*
X154082300Y-62331231D01*
X153884371Y-62224117D01*
X153884369Y-62224116D01*
X153773195Y-62185951D01*
X153715260Y-62144914D01*
X153688708Y-62079069D01*
X153701969Y-62009322D01*
X153750834Y-61957817D01*
X153768581Y-61949290D01*
X153831427Y-61924944D01*
X154005462Y-61817186D01*
X154156732Y-61679285D01*
X154280088Y-61515935D01*
X154371328Y-61332701D01*
X154427345Y-61135821D01*
X154446232Y-60932000D01*
X154427345Y-60728179D01*
X154371328Y-60531299D01*
X154280088Y-60348065D01*
X154204500Y-60247970D01*
X154156733Y-60184715D01*
X154005463Y-60046814D01*
X153831433Y-59939059D01*
X153831428Y-59939057D01*
X153831427Y-59939056D01*
X153822997Y-59935790D01*
X153640559Y-59865113D01*
X153640560Y-59865113D01*
X153640557Y-59865112D01*
X153640556Y-59865112D01*
X153439347Y-59827500D01*
X153234653Y-59827500D01*
X153033444Y-59865112D01*
X153033439Y-59865113D01*
X152842577Y-59939054D01*
X152842566Y-59939059D01*
X152668536Y-60046814D01*
X152517266Y-60184715D01*
X152393913Y-60348063D01*
X152302671Y-60531301D01*
X152246654Y-60728180D01*
X152227768Y-60931995D01*
X152227768Y-60932004D01*
X152246654Y-61135819D01*
X152283361Y-61264831D01*
X152302672Y-61332701D01*
X152393912Y-61515935D01*
X152393913Y-61515936D01*
X152517266Y-61679284D01*
X152668536Y-61817185D01*
X152842566Y-61924940D01*
X152842568Y-61924940D01*
X152842573Y-61924944D01*
X152871068Y-61935983D01*
X152905409Y-61949287D01*
X152961704Y-61992546D01*
X152985674Y-62059374D01*
X152969710Y-62128552D01*
X152918879Y-62178118D01*
X152900804Y-62185951D01*
X152789631Y-62224116D01*
X152789628Y-62224117D01*
X152591699Y-62331231D01*
X152591698Y-62331232D01*
X152414097Y-62469465D01*
X152261674Y-62635041D01*
X152138580Y-62823451D01*
X152046084Y-63034320D01*
X152044472Y-63033612D01*
X152007903Y-63085218D01*
X151942053Y-63111757D01*
X151872309Y-63098481D01*
X151820813Y-63049606D01*
X151817005Y-63042535D01*
X151740088Y-62888065D01*
X151664500Y-62787970D01*
X151616733Y-62724715D01*
X151465463Y-62586814D01*
X151291433Y-62479059D01*
X151291428Y-62479057D01*
X151291427Y-62479056D01*
X151208000Y-62446736D01*
X151100559Y-62405113D01*
X151100560Y-62405113D01*
X151100557Y-62405112D01*
X151100556Y-62405112D01*
X150899347Y-62367500D01*
X150694653Y-62367500D01*
X150503330Y-62403264D01*
X150493439Y-62405113D01*
X150302577Y-62479054D01*
X150302566Y-62479059D01*
X150128536Y-62586814D01*
X149977266Y-62724715D01*
X149853913Y-62888063D01*
X149762671Y-63071301D01*
X149706654Y-63268180D01*
X149687768Y-63471995D01*
X149366232Y-63471995D01*
X149360132Y-63406174D01*
X149348348Y-63279007D01*
X149347345Y-63268179D01*
X149291328Y-63071299D01*
X149200088Y-62888065D01*
X149124500Y-62787970D01*
X149076733Y-62724715D01*
X148925463Y-62586814D01*
X148751433Y-62479059D01*
X148751428Y-62479057D01*
X148751427Y-62479056D01*
X148668000Y-62446736D01*
X148560559Y-62405113D01*
X148560560Y-62405113D01*
X148560557Y-62405112D01*
X148560556Y-62405112D01*
X148359347Y-62367500D01*
X148154653Y-62367500D01*
X147963330Y-62403264D01*
X147953439Y-62405113D01*
X147762577Y-62479054D01*
X147762566Y-62479059D01*
X147588536Y-62586814D01*
X147437266Y-62724715D01*
X147313913Y-62888063D01*
X147222671Y-63071301D01*
X147166654Y-63268180D01*
X147147768Y-63471995D01*
X146826232Y-63471995D01*
X146820132Y-63406174D01*
X146808348Y-63279007D01*
X146807345Y-63268179D01*
X146751328Y-63071299D01*
X146660088Y-62888065D01*
X146584500Y-62787970D01*
X146536733Y-62724715D01*
X146385463Y-62586814D01*
X146211433Y-62479059D01*
X146211428Y-62479057D01*
X146211427Y-62479056D01*
X146128000Y-62446736D01*
X146020559Y-62405113D01*
X146020560Y-62405113D01*
X146020557Y-62405112D01*
X146020556Y-62405112D01*
X145819347Y-62367500D01*
X145614653Y-62367500D01*
X145423330Y-62403264D01*
X145413439Y-62405113D01*
X145222577Y-62479054D01*
X145222566Y-62479059D01*
X145048536Y-62586814D01*
X144897266Y-62724715D01*
X144773913Y-62888063D01*
X144682671Y-63071301D01*
X144626654Y-63268180D01*
X144607768Y-63471995D01*
X144286232Y-63471995D01*
X144280132Y-63406174D01*
X144268348Y-63279007D01*
X144267345Y-63268179D01*
X144211328Y-63071299D01*
X144120088Y-62888065D01*
X144044500Y-62787970D01*
X143996733Y-62724715D01*
X143845463Y-62586814D01*
X143671433Y-62479059D01*
X143671428Y-62479057D01*
X143671427Y-62479056D01*
X143588000Y-62446736D01*
X143480559Y-62405113D01*
X143480560Y-62405113D01*
X143480557Y-62405112D01*
X143480556Y-62405112D01*
X143279347Y-62367500D01*
X143074653Y-62367500D01*
X142883330Y-62403264D01*
X142873439Y-62405113D01*
X142682577Y-62479054D01*
X142682566Y-62479059D01*
X142508536Y-62586814D01*
X142357266Y-62724715D01*
X142233913Y-62888063D01*
X142142671Y-63071301D01*
X142086654Y-63268180D01*
X142067768Y-63471995D01*
X141746232Y-63471995D01*
X141740132Y-63406174D01*
X141728348Y-63279007D01*
X141727345Y-63268179D01*
X141671328Y-63071299D01*
X141580088Y-62888065D01*
X141504500Y-62787970D01*
X141456733Y-62724715D01*
X141305463Y-62586814D01*
X141131433Y-62479059D01*
X141131428Y-62479057D01*
X141131427Y-62479056D01*
X141048000Y-62446736D01*
X140940559Y-62405113D01*
X140940560Y-62405113D01*
X140940557Y-62405112D01*
X140940556Y-62405112D01*
X140739347Y-62367500D01*
X140534653Y-62367500D01*
X140343330Y-62403264D01*
X140333439Y-62405113D01*
X140142577Y-62479054D01*
X140142566Y-62479059D01*
X139968536Y-62586814D01*
X139817266Y-62724715D01*
X139693913Y-62888063D01*
X139602671Y-63071301D01*
X139546654Y-63268180D01*
X139527768Y-63471995D01*
X139206232Y-63471995D01*
X139200132Y-63406174D01*
X139188348Y-63279007D01*
X139187345Y-63268179D01*
X139131328Y-63071299D01*
X139040088Y-62888065D01*
X138964500Y-62787970D01*
X138916733Y-62724715D01*
X138765463Y-62586814D01*
X138591433Y-62479059D01*
X138591428Y-62479057D01*
X138591427Y-62479056D01*
X138508000Y-62446736D01*
X138400559Y-62405113D01*
X138400560Y-62405113D01*
X138400557Y-62405112D01*
X138400556Y-62405112D01*
X138199347Y-62367500D01*
X137994653Y-62367500D01*
X137803330Y-62403264D01*
X137793439Y-62405113D01*
X137602577Y-62479054D01*
X137602566Y-62479059D01*
X137428536Y-62586814D01*
X137277266Y-62724715D01*
X137153913Y-62888063D01*
X137062671Y-63071301D01*
X137006654Y-63268180D01*
X136987768Y-63471995D01*
X136666232Y-63471995D01*
X136660132Y-63406174D01*
X136648348Y-63279007D01*
X136647345Y-63268179D01*
X136591328Y-63071299D01*
X136500088Y-62888065D01*
X136424500Y-62787970D01*
X136376733Y-62724715D01*
X136225463Y-62586814D01*
X136051433Y-62479059D01*
X136051428Y-62479057D01*
X136051427Y-62479056D01*
X135968000Y-62446736D01*
X135860559Y-62405113D01*
X135860560Y-62405113D01*
X135860557Y-62405112D01*
X135860556Y-62405112D01*
X135659347Y-62367500D01*
X135454653Y-62367500D01*
X135263330Y-62403264D01*
X135253439Y-62405113D01*
X135062577Y-62479054D01*
X135062566Y-62479059D01*
X134888536Y-62586814D01*
X134737266Y-62724715D01*
X134613913Y-62888063D01*
X134522671Y-63071301D01*
X134466654Y-63268180D01*
X134447768Y-63471995D01*
X134126232Y-63471995D01*
X134120132Y-63406174D01*
X134108348Y-63279007D01*
X134107345Y-63268179D01*
X134051328Y-63071299D01*
X133960088Y-62888065D01*
X133884500Y-62787970D01*
X133836733Y-62724715D01*
X133685463Y-62586814D01*
X133511433Y-62479059D01*
X133511428Y-62479057D01*
X133511427Y-62479056D01*
X133428000Y-62446736D01*
X133320559Y-62405113D01*
X133320560Y-62405113D01*
X133320557Y-62405112D01*
X133320556Y-62405112D01*
X133119347Y-62367500D01*
X132914653Y-62367500D01*
X132723330Y-62403264D01*
X132713439Y-62405113D01*
X132522577Y-62479054D01*
X132522566Y-62479059D01*
X132348536Y-62586814D01*
X132197266Y-62724715D01*
X132073913Y-62888063D01*
X131982671Y-63071301D01*
X131926654Y-63268180D01*
X131907768Y-63471995D01*
X131586232Y-63471995D01*
X131580132Y-63406174D01*
X131568348Y-63279007D01*
X131567345Y-63268179D01*
X131511328Y-63071299D01*
X131420088Y-62888065D01*
X131344500Y-62787970D01*
X131296733Y-62724715D01*
X131145463Y-62586814D01*
X130971433Y-62479059D01*
X130971428Y-62479057D01*
X130971427Y-62479056D01*
X130888000Y-62446736D01*
X130780559Y-62405113D01*
X130780560Y-62405113D01*
X130780557Y-62405112D01*
X130780556Y-62405112D01*
X130579347Y-62367500D01*
X130374653Y-62367500D01*
X130183330Y-62403264D01*
X130173439Y-62405113D01*
X129982577Y-62479054D01*
X129982566Y-62479059D01*
X129808536Y-62586814D01*
X129724386Y-62663528D01*
X129660568Y-62694639D01*
X129590062Y-62686309D01*
X129535252Y-62641183D01*
X129513540Y-62573588D01*
X129513500Y-62570413D01*
X129513500Y-61833586D01*
X129533502Y-61765465D01*
X129587158Y-61718972D01*
X129657432Y-61708868D01*
X129722012Y-61738362D01*
X129724376Y-61740462D01*
X129808538Y-61817186D01*
X129861738Y-61850126D01*
X129982566Y-61924940D01*
X129982568Y-61924940D01*
X129982573Y-61924944D01*
X130173444Y-61998888D01*
X130374653Y-62036500D01*
X130374655Y-62036500D01*
X130579345Y-62036500D01*
X130579347Y-62036500D01*
X130780556Y-61998888D01*
X130971427Y-61924944D01*
X131145462Y-61817186D01*
X131296732Y-61679285D01*
X131420088Y-61515935D01*
X131511328Y-61332701D01*
X131567345Y-61135821D01*
X131586232Y-60932000D01*
X131586232Y-60931995D01*
X131907768Y-60931995D01*
X131907768Y-60932004D01*
X131926654Y-61135819D01*
X131963361Y-61264831D01*
X131982672Y-61332701D01*
X132073912Y-61515935D01*
X132073913Y-61515936D01*
X132197266Y-61679284D01*
X132348536Y-61817185D01*
X132522566Y-61924940D01*
X132522568Y-61924940D01*
X132522573Y-61924944D01*
X132713444Y-61998888D01*
X132914653Y-62036500D01*
X132914655Y-62036500D01*
X133119345Y-62036500D01*
X133119347Y-62036500D01*
X133320556Y-61998888D01*
X133511427Y-61924944D01*
X133685462Y-61817186D01*
X133836732Y-61679285D01*
X133960088Y-61515935D01*
X134051328Y-61332701D01*
X134107345Y-61135821D01*
X134126232Y-60932000D01*
X134126232Y-60931995D01*
X134447768Y-60931995D01*
X134447768Y-60932004D01*
X134466654Y-61135819D01*
X134503361Y-61264831D01*
X134522672Y-61332701D01*
X134613912Y-61515935D01*
X134613913Y-61515936D01*
X134737266Y-61679284D01*
X134888536Y-61817185D01*
X135062566Y-61924940D01*
X135062568Y-61924940D01*
X135062573Y-61924944D01*
X135253444Y-61998888D01*
X135454653Y-62036500D01*
X135454655Y-62036500D01*
X135659345Y-62036500D01*
X135659347Y-62036500D01*
X135860556Y-61998888D01*
X136051427Y-61924944D01*
X136225462Y-61817186D01*
X136376732Y-61679285D01*
X136500088Y-61515935D01*
X136591328Y-61332701D01*
X136647345Y-61135821D01*
X136666232Y-60932000D01*
X136666232Y-60931995D01*
X136987768Y-60931995D01*
X136987768Y-60932004D01*
X137006654Y-61135819D01*
X137043361Y-61264831D01*
X137062672Y-61332701D01*
X137153912Y-61515935D01*
X137153913Y-61515936D01*
X137277266Y-61679284D01*
X137428536Y-61817185D01*
X137602566Y-61924940D01*
X137602568Y-61924940D01*
X137602573Y-61924944D01*
X137793444Y-61998888D01*
X137994653Y-62036500D01*
X137994655Y-62036500D01*
X138199345Y-62036500D01*
X138199347Y-62036500D01*
X138400556Y-61998888D01*
X138591427Y-61924944D01*
X138765462Y-61817186D01*
X138916732Y-61679285D01*
X139040088Y-61515935D01*
X139131328Y-61332701D01*
X139187345Y-61135821D01*
X139206232Y-60932000D01*
X139206232Y-60931995D01*
X139527768Y-60931995D01*
X139527768Y-60932004D01*
X139546654Y-61135819D01*
X139583361Y-61264831D01*
X139602672Y-61332701D01*
X139693912Y-61515935D01*
X139693913Y-61515936D01*
X139817266Y-61679284D01*
X139968536Y-61817185D01*
X140142566Y-61924940D01*
X140142568Y-61924940D01*
X140142573Y-61924944D01*
X140333444Y-61998888D01*
X140534653Y-62036500D01*
X140534655Y-62036500D01*
X140739345Y-62036500D01*
X140739347Y-62036500D01*
X140940556Y-61998888D01*
X141131427Y-61924944D01*
X141305462Y-61817186D01*
X141456732Y-61679285D01*
X141580088Y-61515935D01*
X141671328Y-61332701D01*
X141727345Y-61135821D01*
X141746232Y-60932000D01*
X141746232Y-60931995D01*
X142067768Y-60931995D01*
X142067768Y-60932004D01*
X142086654Y-61135819D01*
X142123361Y-61264831D01*
X142142672Y-61332701D01*
X142233912Y-61515935D01*
X142233913Y-61515936D01*
X142357266Y-61679284D01*
X142508536Y-61817185D01*
X142682566Y-61924940D01*
X142682568Y-61924940D01*
X142682573Y-61924944D01*
X142873444Y-61998888D01*
X143074653Y-62036500D01*
X143074655Y-62036500D01*
X143279345Y-62036500D01*
X143279347Y-62036500D01*
X143480556Y-61998888D01*
X143671427Y-61924944D01*
X143845462Y-61817186D01*
X143996732Y-61679285D01*
X144120088Y-61515935D01*
X144211328Y-61332701D01*
X144267345Y-61135821D01*
X144286232Y-60932000D01*
X144286232Y-60931995D01*
X144607768Y-60931995D01*
X144607768Y-60932004D01*
X144626654Y-61135819D01*
X144663361Y-61264831D01*
X144682672Y-61332701D01*
X144773912Y-61515935D01*
X144773913Y-61515936D01*
X144897266Y-61679284D01*
X145048536Y-61817185D01*
X145222566Y-61924940D01*
X145222568Y-61924940D01*
X145222573Y-61924944D01*
X145413444Y-61998888D01*
X145614653Y-62036500D01*
X145614655Y-62036500D01*
X145819345Y-62036500D01*
X145819347Y-62036500D01*
X146020556Y-61998888D01*
X146211427Y-61924944D01*
X146385462Y-61817186D01*
X146536732Y-61679285D01*
X146660088Y-61515935D01*
X146751328Y-61332701D01*
X146807345Y-61135821D01*
X146826232Y-60932000D01*
X146826232Y-60931995D01*
X147147768Y-60931995D01*
X147147768Y-60932004D01*
X147166654Y-61135819D01*
X147203361Y-61264831D01*
X147222672Y-61332701D01*
X147313912Y-61515935D01*
X147313913Y-61515936D01*
X147437266Y-61679284D01*
X147588536Y-61817185D01*
X147762566Y-61924940D01*
X147762568Y-61924940D01*
X147762573Y-61924944D01*
X147953444Y-61998888D01*
X148154653Y-62036500D01*
X148154655Y-62036500D01*
X148359345Y-62036500D01*
X148359347Y-62036500D01*
X148560556Y-61998888D01*
X148751427Y-61924944D01*
X148925462Y-61817186D01*
X149076732Y-61679285D01*
X149200088Y-61515935D01*
X149291328Y-61332701D01*
X149347345Y-61135821D01*
X149366232Y-60932000D01*
X149366232Y-60931995D01*
X149687768Y-60931995D01*
X149687768Y-60932004D01*
X149706654Y-61135819D01*
X149743361Y-61264831D01*
X149762672Y-61332701D01*
X149853912Y-61515935D01*
X149853913Y-61515936D01*
X149977266Y-61679284D01*
X150128536Y-61817185D01*
X150302566Y-61924940D01*
X150302568Y-61924940D01*
X150302573Y-61924944D01*
X150493444Y-61998888D01*
X150694653Y-62036500D01*
X150694655Y-62036500D01*
X150899345Y-62036500D01*
X150899347Y-62036500D01*
X151100556Y-61998888D01*
X151291427Y-61924944D01*
X151465462Y-61817186D01*
X151616732Y-61679285D01*
X151740088Y-61515935D01*
X151831328Y-61332701D01*
X151887345Y-61135821D01*
X151906232Y-60932000D01*
X151887345Y-60728179D01*
X151831328Y-60531299D01*
X151740088Y-60348065D01*
X151664500Y-60247970D01*
X151616733Y-60184715D01*
X151465463Y-60046814D01*
X151291433Y-59939059D01*
X151291428Y-59939057D01*
X151291427Y-59939056D01*
X151282997Y-59935790D01*
X151100559Y-59865113D01*
X151100560Y-59865113D01*
X151100557Y-59865112D01*
X151100556Y-59865112D01*
X150899347Y-59827500D01*
X150694653Y-59827500D01*
X150493444Y-59865112D01*
X150493439Y-59865113D01*
X150302577Y-59939054D01*
X150302566Y-59939059D01*
X150128536Y-60046814D01*
X149977266Y-60184715D01*
X149853913Y-60348063D01*
X149762671Y-60531301D01*
X149706654Y-60728180D01*
X149687768Y-60931995D01*
X149366232Y-60931995D01*
X149347345Y-60728179D01*
X149291328Y-60531299D01*
X149200088Y-60348065D01*
X149124500Y-60247970D01*
X149076733Y-60184715D01*
X148925463Y-60046814D01*
X148751433Y-59939059D01*
X148751428Y-59939057D01*
X148751427Y-59939056D01*
X148742997Y-59935790D01*
X148560559Y-59865113D01*
X148560560Y-59865113D01*
X148560557Y-59865112D01*
X148560556Y-59865112D01*
X148359347Y-59827500D01*
X148154653Y-59827500D01*
X147953444Y-59865112D01*
X147953439Y-59865113D01*
X147762577Y-59939054D01*
X147762566Y-59939059D01*
X147588536Y-60046814D01*
X147437266Y-60184715D01*
X147313913Y-60348063D01*
X147222671Y-60531301D01*
X147166654Y-60728180D01*
X147147768Y-60931995D01*
X146826232Y-60931995D01*
X146807345Y-60728179D01*
X146751328Y-60531299D01*
X146660088Y-60348065D01*
X146584500Y-60247970D01*
X146536733Y-60184715D01*
X146385463Y-60046814D01*
X146211433Y-59939059D01*
X146211428Y-59939057D01*
X146211427Y-59939056D01*
X146202997Y-59935790D01*
X146020559Y-59865113D01*
X146020560Y-59865113D01*
X146020557Y-59865112D01*
X146020556Y-59865112D01*
X145819347Y-59827500D01*
X145614653Y-59827500D01*
X145413444Y-59865112D01*
X145413439Y-59865113D01*
X145222577Y-59939054D01*
X145222566Y-59939059D01*
X145048536Y-60046814D01*
X144897266Y-60184715D01*
X144773913Y-60348063D01*
X144682671Y-60531301D01*
X144626654Y-60728180D01*
X144607768Y-60931995D01*
X144286232Y-60931995D01*
X144267345Y-60728179D01*
X144211328Y-60531299D01*
X144120088Y-60348065D01*
X144044500Y-60247970D01*
X143996733Y-60184715D01*
X143845463Y-60046814D01*
X143671433Y-59939059D01*
X143671428Y-59939057D01*
X143671427Y-59939056D01*
X143662997Y-59935790D01*
X143480559Y-59865113D01*
X143480560Y-59865113D01*
X143480557Y-59865112D01*
X143480556Y-59865112D01*
X143279347Y-59827500D01*
X143074653Y-59827500D01*
X142873444Y-59865112D01*
X142873439Y-59865113D01*
X142682577Y-59939054D01*
X142682566Y-59939059D01*
X142508536Y-60046814D01*
X142357266Y-60184715D01*
X142233913Y-60348063D01*
X142142671Y-60531301D01*
X142086654Y-60728180D01*
X142067768Y-60931995D01*
X141746232Y-60931995D01*
X141727345Y-60728179D01*
X141671328Y-60531299D01*
X141580088Y-60348065D01*
X141504500Y-60247970D01*
X141456733Y-60184715D01*
X141305463Y-60046814D01*
X141131433Y-59939059D01*
X141131428Y-59939057D01*
X141131427Y-59939056D01*
X141122997Y-59935790D01*
X140940559Y-59865113D01*
X140940560Y-59865113D01*
X140940557Y-59865112D01*
X140940556Y-59865112D01*
X140739347Y-59827500D01*
X140534653Y-59827500D01*
X140333444Y-59865112D01*
X140333439Y-59865113D01*
X140142577Y-59939054D01*
X140142566Y-59939059D01*
X139968536Y-60046814D01*
X139817266Y-60184715D01*
X139693913Y-60348063D01*
X139602671Y-60531301D01*
X139546654Y-60728180D01*
X139527768Y-60931995D01*
X139206232Y-60931995D01*
X139187345Y-60728179D01*
X139131328Y-60531299D01*
X139040088Y-60348065D01*
X138964500Y-60247970D01*
X138916733Y-60184715D01*
X138765463Y-60046814D01*
X138591433Y-59939059D01*
X138591428Y-59939057D01*
X138591427Y-59939056D01*
X138582997Y-59935790D01*
X138400559Y-59865113D01*
X138400560Y-59865113D01*
X138400557Y-59865112D01*
X138400556Y-59865112D01*
X138199347Y-59827500D01*
X137994653Y-59827500D01*
X137793444Y-59865112D01*
X137793439Y-59865113D01*
X137602577Y-59939054D01*
X137602566Y-59939059D01*
X137428536Y-60046814D01*
X137277266Y-60184715D01*
X137153913Y-60348063D01*
X137062671Y-60531301D01*
X137006654Y-60728180D01*
X136987768Y-60931995D01*
X136666232Y-60931995D01*
X136647345Y-60728179D01*
X136591328Y-60531299D01*
X136500088Y-60348065D01*
X136424500Y-60247970D01*
X136376733Y-60184715D01*
X136225463Y-60046814D01*
X136051433Y-59939059D01*
X136051428Y-59939057D01*
X136051427Y-59939056D01*
X136042997Y-59935790D01*
X135860559Y-59865113D01*
X135860560Y-59865113D01*
X135860557Y-59865112D01*
X135860556Y-59865112D01*
X135659347Y-59827500D01*
X135454653Y-59827500D01*
X135253444Y-59865112D01*
X135253439Y-59865113D01*
X135062577Y-59939054D01*
X135062566Y-59939059D01*
X134888536Y-60046814D01*
X134737266Y-60184715D01*
X134613913Y-60348063D01*
X134522671Y-60531301D01*
X134466654Y-60728180D01*
X134447768Y-60931995D01*
X134126232Y-60931995D01*
X134107345Y-60728179D01*
X134051328Y-60531299D01*
X133960088Y-60348065D01*
X133884500Y-60247970D01*
X133836733Y-60184715D01*
X133685463Y-60046814D01*
X133511433Y-59939059D01*
X133511428Y-59939057D01*
X133511427Y-59939056D01*
X133502997Y-59935790D01*
X133320559Y-59865113D01*
X133320560Y-59865113D01*
X133320557Y-59865112D01*
X133320556Y-59865112D01*
X133119347Y-59827500D01*
X132914653Y-59827500D01*
X132713444Y-59865112D01*
X132713439Y-59865113D01*
X132522577Y-59939054D01*
X132522566Y-59939059D01*
X132348536Y-60046814D01*
X132197266Y-60184715D01*
X132073913Y-60348063D01*
X131982671Y-60531301D01*
X131926654Y-60728180D01*
X131907768Y-60931995D01*
X131586232Y-60931995D01*
X131567345Y-60728179D01*
X131511328Y-60531299D01*
X131420088Y-60348065D01*
X131344500Y-60247970D01*
X131296733Y-60184715D01*
X131145463Y-60046814D01*
X130971433Y-59939059D01*
X130971428Y-59939057D01*
X130971427Y-59939056D01*
X130962997Y-59935790D01*
X130780559Y-59865113D01*
X130780560Y-59865113D01*
X130780557Y-59865112D01*
X130780556Y-59865112D01*
X130579347Y-59827500D01*
X130374653Y-59827500D01*
X130173444Y-59865112D01*
X130173439Y-59865113D01*
X129982577Y-59939054D01*
X129982566Y-59939059D01*
X129808536Y-60046814D01*
X129724386Y-60123528D01*
X129660568Y-60154639D01*
X129590062Y-60146309D01*
X129535252Y-60101183D01*
X129513540Y-60033588D01*
X129513500Y-60030413D01*
X129513500Y-58322499D01*
X129533502Y-58254378D01*
X129587158Y-58207885D01*
X129639500Y-58196499D01*
X129943064Y-58196499D01*
X129943066Y-58196499D01*
X129943069Y-58196498D01*
X129943072Y-58196498D01*
X129993419Y-58186484D01*
X130042579Y-58186484D01*
X130092933Y-58196500D01*
X130260875Y-58196499D01*
X130328994Y-58216501D01*
X130361742Y-58246990D01*
X130405095Y-58304904D01*
X130522034Y-58392444D01*
X130658906Y-58443494D01*
X130719402Y-58449999D01*
X130719415Y-58450000D01*
X130768000Y-58450000D01*
X130768000Y-58138988D01*
X130788002Y-58070867D01*
X130789235Y-58068986D01*
X130807734Y-58041301D01*
X130822500Y-57967067D01*
X130822499Y-56166934D01*
X130822498Y-56166930D01*
X131163500Y-56166930D01*
X131163500Y-57967063D01*
X131163501Y-57967073D01*
X131178266Y-58041301D01*
X131178266Y-58041303D01*
X131196764Y-58068986D01*
X131217980Y-58136739D01*
X131218000Y-58138989D01*
X131218000Y-58450000D01*
X131266585Y-58450000D01*
X131266597Y-58449999D01*
X131327093Y-58443494D01*
X131463963Y-58392445D01*
X131580907Y-58304900D01*
X131580906Y-58304900D01*
X131624258Y-58246990D01*
X131681093Y-58204443D01*
X131725124Y-58196499D01*
X131893066Y-58196499D01*
X131893069Y-58196498D01*
X131893072Y-58196498D01*
X131943419Y-58186484D01*
X131992579Y-58186484D01*
X132042933Y-58196500D01*
X132543066Y-58196499D01*
X132543069Y-58196498D01*
X132543073Y-58196498D01*
X132593419Y-58186484D01*
X132642579Y-58186484D01*
X132692933Y-58196500D01*
X133193066Y-58196499D01*
X133193069Y-58196498D01*
X133193073Y-58196498D01*
X133243419Y-58186484D01*
X133292579Y-58186484D01*
X133342933Y-58196500D01*
X133843066Y-58196499D01*
X133843069Y-58196498D01*
X133843073Y-58196498D01*
X133893419Y-58186484D01*
X133942579Y-58186484D01*
X133992933Y-58196500D01*
X134493066Y-58196499D01*
X134493069Y-58196498D01*
X134493073Y-58196498D01*
X134543419Y-58186484D01*
X134592579Y-58186484D01*
X134642933Y-58196500D01*
X135143066Y-58196499D01*
X135143069Y-58196498D01*
X135143073Y-58196498D01*
X135193419Y-58186484D01*
X135242579Y-58186484D01*
X135292933Y-58196500D01*
X135793066Y-58196499D01*
X135793069Y-58196498D01*
X135793073Y-58196498D01*
X135843419Y-58186484D01*
X135867301Y-58181734D01*
X135951484Y-58125484D01*
X136007734Y-58041301D01*
X136022500Y-57967067D01*
X136022500Y-57130516D01*
X136689000Y-57130516D01*
X136699605Y-57234318D01*
X136699606Y-57234321D01*
X136755342Y-57402525D01*
X136848365Y-57553339D01*
X136848370Y-57553345D01*
X136973654Y-57678629D01*
X136973660Y-57678634D01*
X137124474Y-57771657D01*
X137292678Y-57827393D01*
X137292681Y-57827394D01*
X137396483Y-57837999D01*
X137396483Y-57838000D01*
X137668000Y-57838000D01*
X138176000Y-57838000D01*
X138447517Y-57838000D01*
X138447516Y-57837999D01*
X138551318Y-57827394D01*
X138551321Y-57827393D01*
X138719525Y-57771657D01*
X138870339Y-57678634D01*
X138870345Y-57678629D01*
X138995629Y-57553345D01*
X138995634Y-57553339D01*
X139088657Y-57402525D01*
X139144393Y-57234321D01*
X139144394Y-57234318D01*
X139154999Y-57130516D01*
X139155000Y-57130516D01*
X139155000Y-57084000D01*
X138176000Y-57084000D01*
X138176000Y-57838000D01*
X137668000Y-57838000D01*
X137668000Y-57084000D01*
X136689000Y-57084000D01*
X136689000Y-57130516D01*
X136022500Y-57130516D01*
X136022499Y-56166934D01*
X136022498Y-56166930D01*
X136022498Y-56166926D01*
X136007734Y-56092699D01*
X136007733Y-56092697D01*
X135951484Y-56008516D01*
X135951483Y-56008515D01*
X135867302Y-55952266D01*
X135793068Y-55937500D01*
X135292936Y-55937500D01*
X135292931Y-55937501D01*
X135242578Y-55947516D01*
X135193419Y-55947515D01*
X135143069Y-55937500D01*
X134642936Y-55937500D01*
X134642931Y-55937501D01*
X134592578Y-55947516D01*
X134543419Y-55947515D01*
X134493069Y-55937500D01*
X133992936Y-55937500D01*
X133992931Y-55937501D01*
X133942578Y-55947516D01*
X133893419Y-55947515D01*
X133843069Y-55937500D01*
X133342936Y-55937500D01*
X133342931Y-55937501D01*
X133292578Y-55947516D01*
X133243419Y-55947515D01*
X133193069Y-55937500D01*
X132692936Y-55937500D01*
X132692931Y-55937501D01*
X132642578Y-55947516D01*
X132593419Y-55947515D01*
X132543069Y-55937500D01*
X132042936Y-55937500D01*
X132042931Y-55937501D01*
X131992578Y-55947516D01*
X131943419Y-55947515D01*
X131893072Y-55937500D01*
X131725125Y-55937500D01*
X131657004Y-55917498D01*
X131624256Y-55887009D01*
X131580901Y-55829093D01*
X131463965Y-55741555D01*
X131327093Y-55690505D01*
X131266597Y-55684000D01*
X131218000Y-55684000D01*
X131218000Y-55995011D01*
X131197998Y-56063132D01*
X131196765Y-56065013D01*
X131178266Y-56092698D01*
X131163500Y-56166930D01*
X130822498Y-56166930D01*
X130822498Y-56166926D01*
X130815345Y-56130964D01*
X130807734Y-56092699D01*
X130789235Y-56065013D01*
X130768020Y-55997260D01*
X130768000Y-55995011D01*
X130768000Y-55684000D01*
X130719402Y-55684000D01*
X130658906Y-55690505D01*
X130522035Y-55741555D01*
X130522034Y-55741555D01*
X130405095Y-55829095D01*
X130364867Y-55882834D01*
X130308031Y-55925380D01*
X130237216Y-55930444D01*
X130174904Y-55896419D01*
X130140879Y-55834106D01*
X130138000Y-55807324D01*
X130138000Y-55777416D01*
X130138000Y-55777415D01*
X130107674Y-55664236D01*
X130049089Y-55562764D01*
X129966236Y-55479911D01*
X128458237Y-53971912D01*
X128458236Y-53971911D01*
X128458235Y-53971910D01*
X128458232Y-53971908D01*
X128356768Y-53913328D01*
X128356766Y-53913327D01*
X128356764Y-53913326D01*
X128300174Y-53898163D01*
X128300173Y-53898162D01*
X128300172Y-53898162D01*
X128243589Y-53883000D01*
X128243586Y-53883000D01*
X128243585Y-53883000D01*
X126552086Y-53883000D01*
X126434914Y-53883000D01*
X126434913Y-53883000D01*
X126378324Y-53898163D01*
X126378323Y-53898162D01*
X126321743Y-53913323D01*
X126321731Y-53913328D01*
X126220267Y-53971908D01*
X121238080Y-58954095D01*
X121175768Y-58988121D01*
X121148985Y-58991000D01*
X120701515Y-58991000D01*
X120633394Y-58970998D01*
X120586901Y-58917342D01*
X120576797Y-58847068D01*
X120606291Y-58782488D01*
X120612420Y-58775905D01*
X121711082Y-57677243D01*
X121711088Y-57677237D01*
X121769674Y-57575763D01*
X121778107Y-57544287D01*
X121810716Y-57487805D01*
X122868619Y-56429904D01*
X122930931Y-56395879D01*
X122957714Y-56393000D01*
X123268585Y-56393000D01*
X123268597Y-56392999D01*
X123329093Y-56386494D01*
X123465964Y-56335444D01*
X123465965Y-56335444D01*
X123582904Y-56247904D01*
X123670444Y-56130965D01*
X123670444Y-56130964D01*
X123721494Y-55994093D01*
X123727999Y-55933597D01*
X123728000Y-55933585D01*
X123728000Y-54736414D01*
X123727999Y-54736402D01*
X123721494Y-54675906D01*
X123670444Y-54539035D01*
X123670444Y-54539034D01*
X123582904Y-54422095D01*
X123465965Y-54334555D01*
X123329093Y-54283505D01*
X123268597Y-54277000D01*
X122921402Y-54277000D01*
X122860906Y-54283505D01*
X122724035Y-54334555D01*
X122724034Y-54334555D01*
X122607097Y-54422094D01*
X122563740Y-54480011D01*
X122506903Y-54522556D01*
X122462878Y-54530500D01*
X122444931Y-54530500D01*
X122369579Y-54545488D01*
X122320419Y-54545488D01*
X122245069Y-54530500D01*
X121944936Y-54530500D01*
X121944924Y-54530502D01*
X121869579Y-54545488D01*
X121820419Y-54545488D01*
X121745072Y-54530500D01*
X121745067Y-54530500D01*
X121602500Y-54530500D01*
X121534379Y-54510498D01*
X121487886Y-54456842D01*
X121476500Y-54404500D01*
X121476500Y-51965499D01*
X121496502Y-51897378D01*
X121550158Y-51850885D01*
X121602500Y-51839499D01*
X121745064Y-51839499D01*
X121745066Y-51839499D01*
X121819301Y-51824734D01*
X121819302Y-51824732D01*
X121820418Y-51824511D01*
X121869581Y-51824511D01*
X121870697Y-51824733D01*
X121870699Y-51824734D01*
X121944933Y-51839500D01*
X122245066Y-51839499D01*
X122319301Y-51824734D01*
X122319302Y-51824732D01*
X122320418Y-51824511D01*
X122369581Y-51824511D01*
X122370697Y-51824733D01*
X122370699Y-51824734D01*
X122444933Y-51839500D01*
X122587500Y-51839499D01*
X122655620Y-51859501D01*
X122702113Y-51913156D01*
X122713500Y-51965499D01*
X122713500Y-52233741D01*
X122693498Y-52301862D01*
X122664205Y-52333702D01*
X122660528Y-52336522D01*
X122571646Y-52452356D01*
X122571645Y-52452358D01*
X122563622Y-52471727D01*
X122515771Y-52587247D01*
X122496715Y-52731999D01*
X122496715Y-52732000D01*
X122515771Y-52876752D01*
X122571644Y-53011641D01*
X122571649Y-53011649D01*
X122660525Y-53127474D01*
X122776350Y-53216350D01*
X122776357Y-53216355D01*
X122911246Y-53272228D01*
X123056000Y-53291285D01*
X123200754Y-53272228D01*
X123335643Y-53216355D01*
X123451474Y-53127474D01*
X123540355Y-53011643D01*
X123596228Y-52876754D01*
X123615285Y-52732000D01*
X123596228Y-52587246D01*
X123540355Y-52452358D01*
X123537276Y-52448345D01*
X123502537Y-52403071D01*
X123476937Y-52336850D01*
X123476500Y-52326368D01*
X123476500Y-50984770D01*
X123475577Y-50977759D01*
X123474499Y-50961315D01*
X123474499Y-50459936D01*
X123474498Y-50459927D01*
X123459734Y-50385699D01*
X123431316Y-50343169D01*
X123403484Y-50301516D01*
X123403483Y-50301515D01*
X123319301Y-50245265D01*
X123313001Y-50244012D01*
X123250093Y-50211102D01*
X123214963Y-50149406D01*
X123218766Y-50078511D01*
X123260293Y-50020927D01*
X123260883Y-50020471D01*
X123263637Y-50018357D01*
X123263643Y-50018355D01*
X123379474Y-49929474D01*
X123468355Y-49813643D01*
X123524228Y-49678754D01*
X123543285Y-49534000D01*
X123524228Y-49389246D01*
X123468355Y-49254358D01*
X123379474Y-49138526D01*
X123379472Y-49138524D01*
X123379468Y-49138519D01*
X123378992Y-49138043D01*
X123378718Y-49137541D01*
X123374446Y-49131974D01*
X123375314Y-49131307D01*
X123344966Y-49075731D01*
X123350031Y-49004916D01*
X123378116Y-48966930D01*
X126613500Y-48966930D01*
X126613500Y-50767063D01*
X126613501Y-50767073D01*
X126628265Y-50841300D01*
X126684516Y-50925484D01*
X126768697Y-50981733D01*
X126768699Y-50981734D01*
X126842933Y-50996500D01*
X127343066Y-50996499D01*
X127343069Y-50996498D01*
X127343073Y-50996498D01*
X127393419Y-50986484D01*
X127442579Y-50986484D01*
X127492933Y-50996500D01*
X127660875Y-50996499D01*
X127728994Y-51016501D01*
X127761742Y-51046990D01*
X127805095Y-51104904D01*
X127922034Y-51192444D01*
X128058906Y-51243494D01*
X128119402Y-51249999D01*
X128119415Y-51250000D01*
X128168000Y-51250000D01*
X128618000Y-51250000D01*
X128666587Y-51250000D01*
X128666590Y-51249999D01*
X128704527Y-51245920D01*
X128731473Y-51245920D01*
X128769409Y-51249999D01*
X128769413Y-51250000D01*
X128818000Y-51250000D01*
X128818000Y-50092000D01*
X128618000Y-50092000D01*
X128618000Y-51250000D01*
X128168000Y-51250000D01*
X128168000Y-50938988D01*
X128188002Y-50870867D01*
X128189235Y-50868986D01*
X128207734Y-50841301D01*
X128222500Y-50767067D01*
X128222499Y-49642000D01*
X128618000Y-49642000D01*
X128818000Y-49642000D01*
X128818000Y-48966930D01*
X129213500Y-48966930D01*
X129213500Y-50767063D01*
X129213501Y-50767073D01*
X129228266Y-50841301D01*
X129228266Y-50841303D01*
X129246764Y-50868986D01*
X129267980Y-50936739D01*
X129268000Y-50938989D01*
X129268000Y-51250000D01*
X129316585Y-51250000D01*
X129316597Y-51249999D01*
X129377093Y-51243494D01*
X129513963Y-51192445D01*
X129630906Y-51104900D01*
X129674258Y-51046990D01*
X129731093Y-51004443D01*
X129775124Y-50996499D01*
X129943066Y-50996499D01*
X129943069Y-50996498D01*
X129943072Y-50996498D01*
X129993419Y-50986484D01*
X130042579Y-50986484D01*
X130092933Y-50996500D01*
X130593066Y-50996499D01*
X130593069Y-50996498D01*
X130593073Y-50996498D01*
X130643419Y-50986484D01*
X130692579Y-50986484D01*
X130742933Y-50996500D01*
X130910875Y-50996499D01*
X130978994Y-51016501D01*
X131011742Y-51046990D01*
X131055095Y-51104904D01*
X131172034Y-51192444D01*
X131308906Y-51243494D01*
X131369402Y-51249999D01*
X131369415Y-51250000D01*
X131418000Y-51250000D01*
X131418000Y-50938988D01*
X131438002Y-50870867D01*
X131439235Y-50868986D01*
X131457734Y-50841301D01*
X131472500Y-50767067D01*
X131472499Y-48966934D01*
X131472498Y-48966927D01*
X131472498Y-48966926D01*
X131463324Y-48920806D01*
X131457734Y-48892699D01*
X131450234Y-48881474D01*
X131439235Y-48865013D01*
X131418020Y-48797260D01*
X131418000Y-48795011D01*
X131418000Y-48513999D01*
X131733715Y-48513999D01*
X131733715Y-48514000D01*
X131752771Y-48658752D01*
X131808644Y-48793641D01*
X131812776Y-48800797D01*
X131810227Y-48802268D01*
X131830719Y-48855255D01*
X131828736Y-48890333D01*
X131813500Y-48966927D01*
X131813500Y-50767063D01*
X131813501Y-50767073D01*
X131828266Y-50841301D01*
X131828266Y-50841303D01*
X131846764Y-50868986D01*
X131867980Y-50936739D01*
X131868000Y-50938989D01*
X131868000Y-51250000D01*
X131916585Y-51250000D01*
X131916597Y-51249999D01*
X131977093Y-51243494D01*
X132113963Y-51192445D01*
X132230906Y-51104900D01*
X132274258Y-51046990D01*
X132331093Y-51004443D01*
X132375124Y-50996499D01*
X132543066Y-50996499D01*
X132543069Y-50996498D01*
X132543072Y-50996498D01*
X132593419Y-50986484D01*
X132642579Y-50986484D01*
X132692933Y-50996500D01*
X132860875Y-50996499D01*
X132928994Y-51016501D01*
X132961742Y-51046990D01*
X133005095Y-51104904D01*
X133122034Y-51192444D01*
X133258906Y-51243494D01*
X133319402Y-51249999D01*
X133319415Y-51250000D01*
X133368000Y-51250000D01*
X133368000Y-50938988D01*
X133388002Y-50870867D01*
X133389235Y-50868986D01*
X133407734Y-50841301D01*
X133422500Y-50767067D01*
X133422499Y-48966934D01*
X133422498Y-48966927D01*
X133422498Y-48966926D01*
X133413324Y-48920806D01*
X133407734Y-48892699D01*
X133400234Y-48881474D01*
X133389235Y-48865013D01*
X133368020Y-48797260D01*
X133368000Y-48795011D01*
X133368000Y-48484000D01*
X133319402Y-48484000D01*
X133258906Y-48490505D01*
X133122035Y-48541555D01*
X133052118Y-48593894D01*
X132985598Y-48618704D01*
X132916224Y-48603612D01*
X132866022Y-48553409D01*
X132851689Y-48509474D01*
X132833228Y-48369246D01*
X132777355Y-48234358D01*
X132688474Y-48118526D01*
X132688472Y-48118524D01*
X132688471Y-48118523D01*
X132572649Y-48029649D01*
X132572641Y-48029644D01*
X132437752Y-47973771D01*
X132293000Y-47954715D01*
X132148247Y-47973771D01*
X132105384Y-47991526D01*
X132013358Y-48029645D01*
X132013357Y-48029646D01*
X132013356Y-48029646D01*
X131897526Y-48118526D01*
X131808646Y-48234356D01*
X131808645Y-48234358D01*
X131780708Y-48301802D01*
X131752771Y-48369247D01*
X131733715Y-48513999D01*
X131418000Y-48513999D01*
X131418000Y-48484000D01*
X131369402Y-48484000D01*
X131308906Y-48490505D01*
X131172035Y-48541555D01*
X131172034Y-48541555D01*
X131055097Y-48629094D01*
X131011742Y-48687010D01*
X130954906Y-48729556D01*
X130910875Y-48737500D01*
X130742936Y-48737500D01*
X130742931Y-48737501D01*
X130692578Y-48747516D01*
X130643419Y-48747515D01*
X130593069Y-48737500D01*
X130092936Y-48737500D01*
X130092931Y-48737501D01*
X130042578Y-48747516D01*
X129993419Y-48747515D01*
X129943072Y-48737500D01*
X129775125Y-48737500D01*
X129707004Y-48717498D01*
X129674256Y-48687009D01*
X129630901Y-48629093D01*
X129513965Y-48541555D01*
X129377093Y-48490505D01*
X129316597Y-48484000D01*
X129268000Y-48484000D01*
X129268000Y-48795011D01*
X129247998Y-48863132D01*
X129246765Y-48865013D01*
X129228266Y-48892698D01*
X129213500Y-48966930D01*
X128818000Y-48966930D01*
X128818000Y-48484000D01*
X128769400Y-48484000D01*
X128731469Y-48488079D01*
X128704531Y-48488079D01*
X128666599Y-48484000D01*
X128618000Y-48484000D01*
X128618000Y-49642000D01*
X128222499Y-49642000D01*
X128222499Y-48966934D01*
X128222498Y-48966927D01*
X128222498Y-48966926D01*
X128213324Y-48920806D01*
X128207734Y-48892699D01*
X128200234Y-48881474D01*
X128189235Y-48865013D01*
X128168020Y-48797260D01*
X128168000Y-48795011D01*
X128168000Y-48484000D01*
X128119402Y-48484000D01*
X128058906Y-48490505D01*
X127922035Y-48541555D01*
X127922034Y-48541555D01*
X127805097Y-48629094D01*
X127761742Y-48687010D01*
X127704906Y-48729556D01*
X127660875Y-48737500D01*
X127492936Y-48737500D01*
X127492931Y-48737501D01*
X127442578Y-48747516D01*
X127393419Y-48747515D01*
X127343069Y-48737500D01*
X126842936Y-48737500D01*
X126842926Y-48737501D01*
X126768699Y-48752265D01*
X126684515Y-48808516D01*
X126628266Y-48892697D01*
X126613500Y-48966930D01*
X123378116Y-48966930D01*
X123391382Y-48948987D01*
X123413792Y-48931792D01*
X123502673Y-48815961D01*
X123558546Y-48681072D01*
X123577603Y-48536318D01*
X123558546Y-48391564D01*
X123502673Y-48256676D01*
X123413792Y-48140844D01*
X123396875Y-48127863D01*
X123355008Y-48070524D01*
X123350787Y-47999653D01*
X123385552Y-47937751D01*
X123396869Y-47927944D01*
X123441792Y-47893474D01*
X123530673Y-47777643D01*
X123586546Y-47642754D01*
X123605603Y-47498000D01*
X123603016Y-47478353D01*
X123586546Y-47353247D01*
X123586546Y-47353246D01*
X123530673Y-47218358D01*
X123441792Y-47102526D01*
X123441790Y-47102524D01*
X123441789Y-47102523D01*
X123325967Y-47013649D01*
X123325959Y-47013644D01*
X123191070Y-46957771D01*
X123128402Y-46949521D01*
X130437687Y-46949521D01*
X130572402Y-47009500D01*
X130748821Y-47047000D01*
X130929179Y-47047000D01*
X131105596Y-47009500D01*
X131240312Y-46949521D01*
X131126088Y-46835297D01*
X131094791Y-46777983D01*
X131057494Y-46764576D01*
X131042702Y-46751911D01*
X130839001Y-46548210D01*
X130839000Y-46548210D01*
X130437687Y-46949521D01*
X123128402Y-46949521D01*
X123046318Y-46938715D01*
X122901565Y-46957771D01*
X122849014Y-46979539D01*
X122766676Y-47013645D01*
X122766675Y-47013646D01*
X122766674Y-47013646D01*
X122650844Y-47102526D01*
X122561964Y-47218356D01*
X122561963Y-47218358D01*
X122534026Y-47285802D01*
X122506089Y-47353247D01*
X122489619Y-47478353D01*
X122460896Y-47543280D01*
X122453792Y-47551001D01*
X121360753Y-48644042D01*
X121340151Y-48664644D01*
X121289725Y-48715069D01*
X121289721Y-48715074D01*
X121239500Y-48802059D01*
X121225739Y-48853418D01*
X121214855Y-48894038D01*
X121213500Y-48899094D01*
X121213500Y-50104500D01*
X121193498Y-50172621D01*
X121139842Y-50219114D01*
X121087501Y-50230500D01*
X120944937Y-50230500D01*
X120944926Y-50230501D01*
X120870699Y-50245265D01*
X120786515Y-50301516D01*
X120730266Y-50385697D01*
X120715500Y-50459930D01*
X120715500Y-50961324D01*
X120714423Y-50977767D01*
X120713501Y-50984770D01*
X120713500Y-50984775D01*
X120713500Y-50984779D01*
X120713500Y-55124787D01*
X120693498Y-55192908D01*
X120676595Y-55213882D01*
X119285882Y-56604595D01*
X119223570Y-56638621D01*
X119196787Y-56641500D01*
X106492945Y-56641500D01*
X106359055Y-56641500D01*
X106229726Y-56676153D01*
X106229724Y-56676154D01*
X106229721Y-56676155D01*
X106113776Y-56743096D01*
X106113766Y-56743104D01*
X104670104Y-58186766D01*
X104670098Y-58186773D01*
X104623151Y-58268089D01*
X104603154Y-58302723D01*
X104603153Y-58302724D01*
X104603153Y-58302726D01*
X104568500Y-58432055D01*
X104568500Y-58432056D01*
X104568500Y-59877587D01*
X104548498Y-59945708D01*
X104508831Y-59984714D01*
X104408541Y-60046811D01*
X104408537Y-60046814D01*
X104257266Y-60184715D01*
X104133913Y-60348063D01*
X104042671Y-60531301D01*
X103986654Y-60728180D01*
X103967768Y-60931995D01*
X103967768Y-60932004D01*
X103986654Y-61135815D01*
X103986654Y-61135819D01*
X104003470Y-61194919D01*
X104002874Y-61265913D01*
X103971375Y-61318495D01*
X102463104Y-62826766D01*
X102463096Y-62826776D01*
X102428938Y-62885941D01*
X102396155Y-62942721D01*
X102396154Y-62942724D01*
X102396153Y-62942726D01*
X102361500Y-63072055D01*
X102029500Y-63072055D01*
X102029500Y-58711922D01*
X102049502Y-58643801D01*
X102066400Y-58622832D01*
X105711654Y-54977577D01*
X105773964Y-54943553D01*
X105813094Y-54941281D01*
X105854500Y-54945360D01*
X105854501Y-54945359D01*
X105854502Y-54945360D01*
X105854503Y-54945360D01*
X106051409Y-54925966D01*
X106051410Y-54925965D01*
X106051416Y-54925965D01*
X106240765Y-54868527D01*
X106415270Y-54775252D01*
X106568225Y-54649725D01*
X106693752Y-54496770D01*
X106787027Y-54322265D01*
X106844465Y-54132916D01*
X106848294Y-54094048D01*
X106863860Y-53936002D01*
X106863860Y-53935997D01*
X106844466Y-53739090D01*
X106844465Y-53739088D01*
X106844465Y-53739084D01*
X106787027Y-53549735D01*
X106693752Y-53375230D01*
X106568225Y-53222275D01*
X106415270Y-53096748D01*
X106240765Y-53003473D01*
X106051416Y-52946035D01*
X106051415Y-52946034D01*
X106051409Y-52946033D01*
X105854503Y-52926640D01*
X105854497Y-52926640D01*
X105657590Y-52946033D01*
X105468234Y-53003473D01*
X105293729Y-53096748D01*
X105140775Y-53222275D01*
X105015248Y-53375229D01*
X104921973Y-53549734D01*
X104864533Y-53739090D01*
X104845140Y-53935997D01*
X104845140Y-53936004D01*
X104849217Y-53977402D01*
X104835988Y-54047155D01*
X104812919Y-54078846D01*
X100988892Y-57902875D01*
X100900377Y-57991389D01*
X100900372Y-57991396D01*
X100830827Y-58095477D01*
X100782924Y-58211125D01*
X100782922Y-58211130D01*
X100758500Y-58333906D01*
X100500500Y-58333906D01*
X100500500Y-51396000D01*
X105861695Y-51396000D01*
X105880880Y-51615287D01*
X105937850Y-51827903D01*
X105937852Y-51827907D01*
X106030879Y-52027403D01*
X106073300Y-52087987D01*
X106744500Y-51416788D01*
X106744500Y-51446028D01*
X106770396Y-51542675D01*
X106820424Y-51629325D01*
X106891175Y-51700076D01*
X106977825Y-51750104D01*
X107074472Y-51776000D01*
X107103708Y-51776000D01*
X106432511Y-52447196D01*
X106432511Y-52447198D01*
X106493097Y-52489621D01*
X106692592Y-52582647D01*
X106692596Y-52582649D01*
X106905212Y-52639619D01*
X107124500Y-52658804D01*
X107343787Y-52639619D01*
X107556403Y-52582649D01*
X107556407Y-52582647D01*
X107706750Y-52512541D01*
X107776941Y-52501880D01*
X107841754Y-52530860D01*
X107880611Y-52590279D01*
X107886000Y-52626736D01*
X107886000Y-52994473D01*
X107865998Y-53062594D01*
X107837514Y-53091601D01*
X107838515Y-53092821D01*
X107680775Y-53222275D01*
X107555248Y-53375229D01*
X107461973Y-53549734D01*
X107404533Y-53739090D01*
X107385140Y-53935997D01*
X107385140Y-53936002D01*
X107404533Y-54132909D01*
X107404535Y-54132914D01*
X107404535Y-54132916D01*
X107461973Y-54322265D01*
X107555248Y-54496770D01*
X107680775Y-54649725D01*
X107833730Y-54775252D01*
X108008235Y-54868527D01*
X108197584Y-54925965D01*
X108197588Y-54925965D01*
X108197590Y-54925966D01*
X108394497Y-54945360D01*
X108394500Y-54945360D01*
X108394503Y-54945360D01*
X108591409Y-54925966D01*
X108591410Y-54925965D01*
X108591416Y-54925965D01*
X108780765Y-54868527D01*
X108955270Y-54775252D01*
X109108225Y-54649725D01*
X109233752Y-54496770D01*
X109327027Y-54322265D01*
X109384465Y-54132916D01*
X109388294Y-54094048D01*
X109403860Y-53936002D01*
X109403860Y-53935997D01*
X109384466Y-53739090D01*
X109384465Y-53739088D01*
X109384465Y-53739084D01*
X109327027Y-53549735D01*
X109233752Y-53375230D01*
X109108225Y-53222275D01*
X108955270Y-53096748D01*
X108950485Y-53092821D01*
X108952039Y-53090927D01*
X108913449Y-53044713D01*
X108903000Y-52994473D01*
X108903000Y-52336857D01*
X108923002Y-52268736D01*
X108976658Y-52222243D01*
X109046932Y-52212139D01*
X109099007Y-52232095D01*
X109103721Y-52235244D01*
X109103730Y-52235252D01*
X109278235Y-52328527D01*
X109467584Y-52385965D01*
X109467588Y-52385965D01*
X109467590Y-52385966D01*
X109664497Y-52405360D01*
X109664500Y-52405360D01*
X109664503Y-52405360D01*
X109861409Y-52385966D01*
X109861410Y-52385965D01*
X109861416Y-52385965D01*
X110050765Y-52328527D01*
X110225270Y-52235252D01*
X110225283Y-52235241D01*
X110229993Y-52232095D01*
X110297745Y-52210877D01*
X110366212Y-52229657D01*
X110413658Y-52282471D01*
X110426000Y-52336857D01*
X110426000Y-52994473D01*
X110405998Y-53062594D01*
X110377514Y-53091601D01*
X110378515Y-53092821D01*
X110220775Y-53222275D01*
X110095248Y-53375229D01*
X110001973Y-53549734D01*
X109944533Y-53739090D01*
X109925140Y-53935997D01*
X109925140Y-53936002D01*
X109944533Y-54132909D01*
X109944535Y-54132914D01*
X109944535Y-54132916D01*
X110001973Y-54322265D01*
X110095248Y-54496770D01*
X110220775Y-54649725D01*
X110373730Y-54775252D01*
X110548235Y-54868527D01*
X110737584Y-54925965D01*
X110737588Y-54925965D01*
X110737590Y-54925966D01*
X110934497Y-54945360D01*
X110934500Y-54945360D01*
X110934503Y-54945360D01*
X111131409Y-54925966D01*
X111131410Y-54925965D01*
X111131416Y-54925965D01*
X111320765Y-54868527D01*
X111495270Y-54775252D01*
X111648225Y-54649725D01*
X111773752Y-54496770D01*
X111867027Y-54322265D01*
X111924465Y-54132916D01*
X111928294Y-54094048D01*
X111943860Y-53936002D01*
X111943860Y-53935997D01*
X112465140Y-53935997D01*
X112465140Y-53936002D01*
X112484533Y-54132909D01*
X112484535Y-54132914D01*
X112484535Y-54132916D01*
X112541973Y-54322265D01*
X112635248Y-54496770D01*
X112760775Y-54649725D01*
X112913730Y-54775252D01*
X113088235Y-54868527D01*
X113277584Y-54925965D01*
X113277588Y-54925965D01*
X113277590Y-54925966D01*
X113474497Y-54945360D01*
X113474500Y-54945360D01*
X113474503Y-54945360D01*
X113671409Y-54925966D01*
X113671410Y-54925965D01*
X113671416Y-54925965D01*
X113860765Y-54868527D01*
X114035270Y-54775252D01*
X114188225Y-54649725D01*
X114313752Y-54496770D01*
X114407027Y-54322265D01*
X114464465Y-54132916D01*
X114468294Y-54094048D01*
X114483860Y-53936002D01*
X114483860Y-53935997D01*
X114464466Y-53739090D01*
X114464465Y-53739088D01*
X114464465Y-53739084D01*
X114407027Y-53549735D01*
X114313752Y-53375230D01*
X114188225Y-53222275D01*
X114035270Y-53096748D01*
X113860765Y-53003473D01*
X113671416Y-52946035D01*
X113671415Y-52946034D01*
X113671409Y-52946033D01*
X113474503Y-52926640D01*
X113474497Y-52926640D01*
X113277590Y-52946033D01*
X113088234Y-53003473D01*
X112913729Y-53096748D01*
X112760775Y-53222275D01*
X112635248Y-53375229D01*
X112541973Y-53549734D01*
X112484533Y-53739090D01*
X112465140Y-53935997D01*
X111943860Y-53935997D01*
X111924466Y-53739090D01*
X111924465Y-53739088D01*
X111924465Y-53739084D01*
X111867027Y-53549735D01*
X111773752Y-53375230D01*
X111648225Y-53222275D01*
X111495270Y-53096748D01*
X111490485Y-53092821D01*
X111492039Y-53090927D01*
X111453449Y-53044713D01*
X111443000Y-52994473D01*
X111443000Y-52336857D01*
X111463002Y-52268736D01*
X111516658Y-52222243D01*
X111586932Y-52212139D01*
X111639007Y-52232095D01*
X111643721Y-52235244D01*
X111643730Y-52235252D01*
X111818235Y-52328527D01*
X112007584Y-52385965D01*
X112007588Y-52385965D01*
X112007590Y-52385966D01*
X112204497Y-52405360D01*
X112204500Y-52405360D01*
X112204503Y-52405360D01*
X112401409Y-52385966D01*
X112401410Y-52385965D01*
X112401416Y-52385965D01*
X112590765Y-52328527D01*
X112765270Y-52235252D01*
X112918225Y-52109725D01*
X113043752Y-51956770D01*
X113137027Y-51782265D01*
X113194465Y-51592916D01*
X113199414Y-51542675D01*
X113213860Y-51396002D01*
X113213860Y-51395997D01*
X113194466Y-51199090D01*
X113194465Y-51199088D01*
X113194465Y-51199084D01*
X113137027Y-51009735D01*
X113043752Y-50835230D01*
X112918225Y-50682275D01*
X112765270Y-50556748D01*
X112590765Y-50463473D01*
X112401416Y-50406035D01*
X112401412Y-50406034D01*
X112395493Y-50404239D01*
X112396297Y-50401587D01*
X112343957Y-50374139D01*
X112308890Y-50312407D01*
X112312764Y-50241516D01*
X112342445Y-50194467D01*
X112457509Y-50079404D01*
X112519822Y-50045379D01*
X112546604Y-50042500D01*
X113574425Y-50042500D01*
X113642546Y-50062502D01*
X113689039Y-50116158D01*
X113699143Y-50186432D01*
X113669649Y-50251012D01*
X113649934Y-50269368D01*
X113631595Y-50283095D01*
X113544055Y-50400034D01*
X113544055Y-50400035D01*
X113493005Y-50536906D01*
X113486500Y-50597402D01*
X113486500Y-51142000D01*
X114461099Y-51142000D01*
X114440424Y-51162675D01*
X114390396Y-51249325D01*
X114364500Y-51345972D01*
X114364500Y-51446028D01*
X114390396Y-51542675D01*
X114440424Y-51629325D01*
X114461099Y-51650000D01*
X113486500Y-51650000D01*
X113486500Y-52194597D01*
X113493005Y-52255093D01*
X113544055Y-52391964D01*
X113544055Y-52391965D01*
X113631595Y-52508904D01*
X113748534Y-52596444D01*
X113885406Y-52647494D01*
X113945902Y-52653999D01*
X113945915Y-52654000D01*
X114490500Y-52654000D01*
X114490500Y-51679401D01*
X114511175Y-51700076D01*
X114597825Y-51750104D01*
X114694472Y-51776000D01*
X114794528Y-51776000D01*
X114891175Y-51750104D01*
X114977825Y-51700076D01*
X114998500Y-51679401D01*
X114998500Y-52654000D01*
X115543085Y-52654000D01*
X115543097Y-52653999D01*
X115603593Y-52647494D01*
X115740464Y-52596444D01*
X115740465Y-52596444D01*
X115857404Y-52508904D01*
X115944944Y-52391965D01*
X115944944Y-52391964D01*
X115995994Y-52255093D01*
X116002499Y-52194597D01*
X116002500Y-52194585D01*
X116002500Y-51650000D01*
X115027901Y-51650000D01*
X115048576Y-51629325D01*
X115098604Y-51542675D01*
X115124500Y-51446028D01*
X115124500Y-51345972D01*
X115098604Y-51249325D01*
X115048576Y-51162675D01*
X115027901Y-51142000D01*
X116002500Y-51142000D01*
X116002500Y-50597414D01*
X116002499Y-50597402D01*
X115995994Y-50536906D01*
X115944944Y-50400035D01*
X115944944Y-50400034D01*
X115857404Y-50283095D01*
X115839066Y-50269368D01*
X115796519Y-50212532D01*
X115791455Y-50141717D01*
X115825480Y-50079405D01*
X115887792Y-50045379D01*
X115914575Y-50042500D01*
X117880054Y-50042500D01*
X117896500Y-50043578D01*
X118030999Y-50061285D01*
X118030999Y-50061284D01*
X118031000Y-50061285D01*
X118175754Y-50042228D01*
X118310643Y-49986355D01*
X118426474Y-49897474D01*
X118515355Y-49781643D01*
X118571228Y-49646754D01*
X118590285Y-49502000D01*
X118571228Y-49357246D01*
X118515355Y-49222358D01*
X118426474Y-49106526D01*
X118426472Y-49106524D01*
X118426471Y-49106523D01*
X118410101Y-49093962D01*
X118368234Y-49036624D01*
X118364012Y-48965753D01*
X118398776Y-48903851D01*
X118410101Y-48894038D01*
X118426474Y-48881474D01*
X118435773Y-48869356D01*
X118515355Y-48765643D01*
X118571228Y-48630754D01*
X118590285Y-48486000D01*
X118589979Y-48483679D01*
X118571228Y-48341247D01*
X118571228Y-48341246D01*
X118515355Y-48206358D01*
X118426474Y-48090526D01*
X118426472Y-48090525D01*
X118421446Y-48083974D01*
X118423216Y-48082615D01*
X118394788Y-48030553D01*
X118399853Y-47959738D01*
X118441205Y-47903808D01*
X118454674Y-47893474D01*
X118543555Y-47777643D01*
X118599428Y-47642754D01*
X118618485Y-47498000D01*
X118615898Y-47478353D01*
X118599428Y-47353247D01*
X118599428Y-47353246D01*
X118543555Y-47218358D01*
X118454674Y-47102526D01*
X118454672Y-47102524D01*
X118454671Y-47102523D01*
X118338849Y-47013649D01*
X118338841Y-47013644D01*
X118203952Y-46957771D01*
X118059200Y-46938715D01*
X117914446Y-46957771D01*
X117914445Y-46957772D01*
X117861003Y-46979909D01*
X117812785Y-46989500D01*
X116791510Y-46989500D01*
X116723389Y-46969498D01*
X116676896Y-46915842D01*
X116666792Y-46845568D01*
X116696286Y-46780988D01*
X116743290Y-46747091D01*
X116834712Y-46709224D01*
X117044789Y-46587936D01*
X117237238Y-46440265D01*
X117408765Y-46268738D01*
X117556436Y-46076289D01*
X117677724Y-45866212D01*
X117770554Y-45642100D01*
X117833338Y-45407789D01*
X117865000Y-45167288D01*
X117865000Y-44924712D01*
X117833338Y-44684211D01*
X117770554Y-44449900D01*
X117677724Y-44225788D01*
X117677718Y-44225779D01*
X117677717Y-44225775D01*
X117556438Y-44015714D01*
X117529801Y-43981000D01*
X117408765Y-43823262D01*
X117408759Y-43823256D01*
X117408755Y-43823251D01*
X117237248Y-43651744D01*
X117237242Y-43651739D01*
X117237238Y-43651735D01*
X117044789Y-43504064D01*
X117044788Y-43504063D01*
X117044785Y-43504061D01*
X116834724Y-43382782D01*
X116834716Y-43382778D01*
X116834712Y-43382776D01*
X116610600Y-43289946D01*
X116610597Y-43289945D01*
X116610595Y-43289944D01*
X116376282Y-43227160D01*
X116135790Y-43195500D01*
X116135788Y-43195500D01*
X115893212Y-43195500D01*
X115893209Y-43195500D01*
X115652717Y-43227160D01*
X115418404Y-43289944D01*
X115418400Y-43289946D01*
X115194286Y-43382777D01*
X115194275Y-43382782D01*
X114984214Y-43504061D01*
X114791762Y-43651735D01*
X114791751Y-43651744D01*
X114620244Y-43823251D01*
X114620235Y-43823262D01*
X114472561Y-44015714D01*
X114351282Y-44225775D01*
X114351277Y-44225786D01*
X114351276Y-44225788D01*
X114297491Y-44355638D01*
X114258446Y-44449900D01*
X114258444Y-44449904D01*
X114195660Y-44684217D01*
X114164000Y-44924709D01*
X114164000Y-45167290D01*
X114195660Y-45407782D01*
X114258444Y-45642095D01*
X114258445Y-45642097D01*
X114258446Y-45642100D01*
X114351276Y-45866212D01*
X114351277Y-45866213D01*
X114351282Y-45866224D01*
X114472561Y-46076285D01*
X114472563Y-46076288D01*
X114472564Y-46076289D01*
X114620235Y-46268738D01*
X114620239Y-46268742D01*
X114620244Y-46268748D01*
X114791751Y-46440255D01*
X114791756Y-46440259D01*
X114791762Y-46440265D01*
X114960434Y-46569691D01*
X114984214Y-46587938D01*
X115194275Y-46709217D01*
X115194279Y-46709218D01*
X115194288Y-46709224D01*
X115285708Y-46747091D01*
X115340989Y-46791639D01*
X115363410Y-46859003D01*
X115345852Y-46927794D01*
X115293890Y-46976172D01*
X115237490Y-46989500D01*
X111456869Y-46989500D01*
X111327540Y-47024153D01*
X111327538Y-47024154D01*
X111327535Y-47024155D01*
X111211590Y-47091096D01*
X111211580Y-47091104D01*
X107987603Y-50315081D01*
X107986389Y-50316664D01*
X107985025Y-50317659D01*
X107981759Y-50320926D01*
X107981249Y-50320416D01*
X107929049Y-50358529D01*
X107858178Y-50362748D01*
X107814159Y-50343169D01*
X107755906Y-50302380D01*
X107755907Y-50302380D01*
X107556407Y-50209352D01*
X107556403Y-50209350D01*
X107343787Y-50152380D01*
X107124500Y-50133195D01*
X106905212Y-50152380D01*
X106692596Y-50209350D01*
X106692592Y-50209352D01*
X106493098Y-50302378D01*
X106432511Y-50344801D01*
X107103711Y-51016000D01*
X107074472Y-51016000D01*
X106977825Y-51041896D01*
X106891175Y-51091924D01*
X106820424Y-51162675D01*
X106770396Y-51249325D01*
X106744500Y-51345972D01*
X106744500Y-51375209D01*
X106073301Y-50704010D01*
X106030878Y-50764598D01*
X105937852Y-50964092D01*
X105937850Y-50964096D01*
X105880880Y-51176712D01*
X105861695Y-51396000D01*
X100500500Y-51396000D01*
X100500500Y-44924709D01*
X102734000Y-44924709D01*
X102734000Y-45167290D01*
X102765660Y-45407782D01*
X102828444Y-45642095D01*
X102828445Y-45642097D01*
X102828446Y-45642100D01*
X102921276Y-45866212D01*
X102921277Y-45866213D01*
X102921282Y-45866224D01*
X103042561Y-46076285D01*
X103042563Y-46076288D01*
X103042564Y-46076289D01*
X103190235Y-46268738D01*
X103190239Y-46268742D01*
X103190244Y-46268748D01*
X103361751Y-46440255D01*
X103361756Y-46440259D01*
X103361762Y-46440265D01*
X103530434Y-46569691D01*
X103554214Y-46587938D01*
X103764275Y-46709217D01*
X103764279Y-46709218D01*
X103764288Y-46709224D01*
X103988400Y-46802054D01*
X104222711Y-46864838D01*
X104222715Y-46864838D01*
X104222717Y-46864839D01*
X104284702Y-46872999D01*
X104463212Y-46896500D01*
X104463219Y-46896500D01*
X104705781Y-46896500D01*
X104705788Y-46896500D01*
X104923137Y-46867885D01*
X104946282Y-46864839D01*
X104946282Y-46864838D01*
X104946289Y-46864838D01*
X105180600Y-46802054D01*
X105404712Y-46709224D01*
X105614789Y-46587936D01*
X105807238Y-46440265D01*
X105978765Y-46268738D01*
X106126436Y-46076289D01*
X106247724Y-45866212D01*
X106340554Y-45642100D01*
X106403338Y-45407789D01*
X106435000Y-45167288D01*
X106435000Y-44924712D01*
X106403338Y-44684211D01*
X106340554Y-44449900D01*
X106247724Y-44225788D01*
X106247718Y-44225779D01*
X106247717Y-44225775D01*
X106126438Y-44015714D01*
X106099801Y-43981000D01*
X105978765Y-43823262D01*
X105978759Y-43823256D01*
X105978755Y-43823251D01*
X105807248Y-43651744D01*
X105807242Y-43651739D01*
X105807238Y-43651735D01*
X105614789Y-43504064D01*
X105614788Y-43504063D01*
X105614785Y-43504061D01*
X105404724Y-43382782D01*
X105404716Y-43382778D01*
X105404712Y-43382776D01*
X105180600Y-43289946D01*
X105180597Y-43289945D01*
X105180595Y-43289944D01*
X104946282Y-43227160D01*
X104705790Y-43195500D01*
X104705788Y-43195500D01*
X104463212Y-43195500D01*
X104463209Y-43195500D01*
X104222717Y-43227160D01*
X103988404Y-43289944D01*
X103988400Y-43289946D01*
X103764286Y-43382777D01*
X103764275Y-43382782D01*
X103554214Y-43504061D01*
X103361762Y-43651735D01*
X103361751Y-43651744D01*
X103190244Y-43823251D01*
X103190235Y-43823262D01*
X103042561Y-44015714D01*
X102921282Y-44225775D01*
X102921277Y-44225786D01*
X102921276Y-44225788D01*
X102867491Y-44355638D01*
X102828446Y-44449900D01*
X102828444Y-44449904D01*
X102765660Y-44684217D01*
X102734000Y-44924709D01*
X100500500Y-44924709D01*
X100500500Y-42410516D01*
X124340000Y-42410516D01*
X124350605Y-42514318D01*
X124350606Y-42514321D01*
X124406342Y-42682525D01*
X124499365Y-42833339D01*
X124499370Y-42833345D01*
X124624654Y-42958629D01*
X124624660Y-42958634D01*
X124775474Y-43051657D01*
X124943678Y-43107393D01*
X124943681Y-43107394D01*
X125047483Y-43117999D01*
X125047483Y-43118000D01*
X125106500Y-43118000D01*
X125106500Y-42164000D01*
X124340000Y-42164000D01*
X124340000Y-42410516D01*
X100500500Y-42410516D01*
X100500500Y-40626500D01*
X100520502Y-40558379D01*
X100574158Y-40511886D01*
X100626500Y-40500500D01*
X124802951Y-40500500D01*
X124871072Y-40520502D01*
G37*
%TD.AperFunction*%
%TD*%
M02*
