%TF.GenerationSoftware,KiCad,Pcbnew,8.0.4*%
%TF.CreationDate,2024-08-23T02:19:47+01:00*%
%TF.ProjectId,PicoChainZero,5069636f-4368-4616-996e-5a65726f2e6b,v1.1*%
%TF.SameCoordinates,Original*%
%TF.FileFunction,Copper,L2,Bot*%
%TF.FilePolarity,Positive*%
%FSLAX46Y46*%
G04 Gerber Fmt 4.6, Leading zero omitted, Abs format (unit mm)*
G04 Created by KiCad (PCBNEW 8.0.4) date 2024-08-23 02:19:47*
%MOMM*%
%LPD*%
G01*
G04 APERTURE LIST*
%TA.AperFunction,ComponentPad*%
%ADD10R,2.600000X2.600000*%
%TD*%
%TA.AperFunction,ComponentPad*%
%ADD11C,2.600000*%
%TD*%
%TA.AperFunction,ComponentPad*%
%ADD12R,1.500000X1.500000*%
%TD*%
%TA.AperFunction,ComponentPad*%
%ADD13C,1.500000*%
%TD*%
%TA.AperFunction,ComponentPad*%
%ADD14R,1.700000X1.700000*%
%TD*%
%TA.AperFunction,ComponentPad*%
%ADD15O,1.700000X1.700000*%
%TD*%
%TA.AperFunction,ComponentPad*%
%ADD16C,0.700000*%
%TD*%
%TA.AperFunction,ComponentPad*%
%ADD17O,0.900000X2.400000*%
%TD*%
%TA.AperFunction,ComponentPad*%
%ADD18O,0.900000X1.700000*%
%TD*%
%TA.AperFunction,ViaPad*%
%ADD19C,0.600000*%
%TD*%
%TA.AperFunction,Conductor*%
%ADD20C,0.254000*%
%TD*%
%TA.AperFunction,Conductor*%
%ADD21C,0.381000*%
%TD*%
%TA.AperFunction,Conductor*%
%ADD22C,1.016000*%
%TD*%
%TA.AperFunction,Conductor*%
%ADD23C,0.508000*%
%TD*%
G04 APERTURE END LIST*
D10*
%TO.P,J6,1,Pin_1*%
%TO.N,GND*%
X117455000Y-94765000D03*
D11*
%TO.P,J6,2,Pin_2*%
%TO.N,+12V*%
X122535000Y-94765000D03*
%TD*%
D12*
%TO.P,J1,1*%
%TO.N,GND*%
X114744500Y-51396000D03*
D13*
%TO.P,J1,2*%
%TO.N,+24V*%
X113474500Y-53936000D03*
%TO.P,J1,3*%
%TO.N,Net-(U2-DSCLM)*%
X112204500Y-51396000D03*
%TO.P,J1,4*%
%TO.N,Net-(U2-DSCLP)*%
X110934500Y-53936000D03*
%TO.P,J1,5*%
%TO.N,Net-(U2-DSDAP)*%
X109664500Y-51396000D03*
%TO.P,J1,6*%
%TO.N,Net-(U2-DSDAM)*%
X108394500Y-53936000D03*
%TO.P,J1,7*%
%TO.N,GND*%
X107124500Y-51396000D03*
%TO.P,J1,8*%
%TO.N,+12V*%
X105854500Y-53936000D03*
%TD*%
D14*
%TO.P,J5,1,Pin_1*%
%TO.N,unconnected-(J5-Pin_1-Pad1)*%
X105077000Y-63472000D03*
D15*
%TO.P,J5,2,Pin_2*%
%TO.N,+5V*%
X105077000Y-60932000D03*
%TO.P,J5,3,Pin_3*%
%TO.N,Net-(J5-Pin_3)*%
X107617000Y-63472000D03*
%TO.P,J5,4,Pin_4*%
%TO.N,unconnected-(J5-Pin_4-Pad4)*%
X107617000Y-60932000D03*
%TO.P,J5,5,Pin_5*%
%TO.N,Net-(J5-Pin_5)*%
X110157000Y-63472000D03*
%TO.P,J5,6,Pin_6*%
%TO.N,unconnected-(J5-Pin_6-Pad6)*%
X110157000Y-60932000D03*
%TO.P,J5,7,Pin_7*%
%TO.N,unconnected-(J5-Pin_7-Pad7)*%
X112697000Y-63472000D03*
%TO.P,J5,8,Pin_8*%
%TO.N,Net-(J5-Pin_8)*%
X112697000Y-60932000D03*
%TO.P,J5,9,Pin_9*%
%TO.N,unconnected-(J5-Pin_9-Pad9)*%
X115237000Y-63472000D03*
%TO.P,J5,10,Pin_10*%
%TO.N,Net-(J5-Pin_10)*%
X115237000Y-60932000D03*
%TO.P,J5,11,Pin_11*%
%TO.N,unconnected-(J5-Pin_11-Pad11)*%
X117777000Y-63472000D03*
%TO.P,J5,12,Pin_12*%
%TO.N,unconnected-(J5-Pin_12-Pad12)*%
X117777000Y-60932000D03*
%TO.P,J5,13,Pin_13*%
%TO.N,unconnected-(J5-Pin_13-Pad13)*%
X120317000Y-63472000D03*
%TO.P,J5,14,Pin_14*%
%TO.N,unconnected-(J5-Pin_14-Pad14)*%
X120317000Y-60932000D03*
%TO.P,J5,15,Pin_15*%
%TO.N,unconnected-(J5-Pin_15-Pad15)*%
X122857000Y-63472000D03*
%TO.P,J5,16,Pin_16*%
%TO.N,unconnected-(J5-Pin_16-Pad16)*%
X122857000Y-60932000D03*
%TO.P,J5,17,Pin_17*%
%TO.N,unconnected-(J5-Pin_17-Pad17)*%
X125397000Y-63472000D03*
%TO.P,J5,18,Pin_18*%
%TO.N,unconnected-(J5-Pin_18-Pad18)*%
X125397000Y-60932000D03*
%TO.P,J5,19,Pin_19*%
%TO.N,unconnected-(J5-Pin_19-Pad19)*%
X127937000Y-63472000D03*
%TO.P,J5,20,Pin_20*%
%TO.N,unconnected-(J5-Pin_20-Pad20)*%
X127937000Y-60932000D03*
%TO.P,J5,21,Pin_21*%
%TO.N,unconnected-(J5-Pin_21-Pad21)*%
X130477000Y-63472000D03*
%TO.P,J5,22,Pin_22*%
%TO.N,unconnected-(J5-Pin_22-Pad22)*%
X130477000Y-60932000D03*
%TO.P,J5,23,Pin_23*%
%TO.N,unconnected-(J5-Pin_23-Pad23)*%
X133017000Y-63472000D03*
%TO.P,J5,24,Pin_24*%
%TO.N,unconnected-(J5-Pin_24-Pad24)*%
X133017000Y-60932000D03*
%TO.P,J5,25,Pin_25*%
%TO.N,unconnected-(J5-Pin_25-Pad25)*%
X135557000Y-63472000D03*
%TO.P,J5,26,Pin_26*%
%TO.N,unconnected-(J5-Pin_26-Pad26)*%
X135557000Y-60932000D03*
%TO.P,J5,27,Pin_27*%
%TO.N,unconnected-(J5-Pin_27-Pad27)*%
X138097000Y-63472000D03*
%TO.P,J5,28,Pin_28*%
%TO.N,unconnected-(J5-Pin_28-Pad28)*%
X138097000Y-60932000D03*
%TO.P,J5,29,Pin_29*%
%TO.N,unconnected-(J5-Pin_29-Pad29)*%
X140637000Y-63472000D03*
%TO.P,J5,30,Pin_30*%
%TO.N,unconnected-(J5-Pin_30-Pad30)*%
X140637000Y-60932000D03*
%TO.P,J5,31,Pin_31*%
%TO.N,unconnected-(J5-Pin_31-Pad31)*%
X143177000Y-63472000D03*
%TO.P,J5,32,Pin_32*%
%TO.N,unconnected-(J5-Pin_32-Pad32)*%
X143177000Y-60932000D03*
%TO.P,J5,33,Pin_33*%
%TO.N,unconnected-(J5-Pin_33-Pad33)*%
X145717000Y-63472000D03*
%TO.P,J5,34,Pin_34*%
%TO.N,unconnected-(J5-Pin_34-Pad34)*%
X145717000Y-60932000D03*
%TO.P,J5,35,Pin_35*%
%TO.N,unconnected-(J5-Pin_35-Pad35)*%
X148257000Y-63472000D03*
%TO.P,J5,36,Pin_36*%
%TO.N,unconnected-(J5-Pin_36-Pad36)*%
X148257000Y-60932000D03*
%TO.P,J5,37,Pin_37*%
%TO.N,unconnected-(J5-Pin_37-Pad37)*%
X150797000Y-63472000D03*
%TO.P,J5,38,Pin_38*%
%TO.N,unconnected-(J5-Pin_38-Pad38)*%
X150797000Y-60932000D03*
%TO.P,J5,39,Pin_39*%
%TO.N,GND*%
X153337000Y-63472000D03*
%TO.P,J5,40,Pin_40*%
%TO.N,unconnected-(J5-Pin_40-Pad40)*%
X153337000Y-60932000D03*
%TD*%
D10*
%TO.P,J4,1,Pin_1*%
%TO.N,GND*%
X138455000Y-94765000D03*
D11*
%TO.P,J4,2,Pin_2*%
%TO.N,+24V*%
X143535000Y-94765000D03*
%TD*%
D16*
%TO.P,J7,A1,GND*%
%TO.N,GND*%
X136789000Y-46189000D03*
%TO.P,J7,A4,VBUS*%
%TO.N,Net-(U3-VCC)*%
X135939000Y-46189000D03*
%TO.P,J7,A5,CC1*%
%TO.N,Net-(J7-CC1)*%
X135089000Y-46189000D03*
%TO.P,J7,A6,D+*%
%TO.N,Net-(U3-USBD+)*%
X134239000Y-46189000D03*
%TO.P,J7,A7,D-*%
%TO.N,Net-(U3-USBD-)*%
X133389000Y-46189000D03*
%TO.P,J7,A8*%
%TO.N,N/C*%
X132539000Y-46189000D03*
%TO.P,J7,A9,VBUS*%
%TO.N,Net-(U3-VCC)*%
X131689000Y-46189000D03*
%TO.P,J7,A12,GND*%
%TO.N,GND*%
X130839000Y-46189000D03*
%TO.P,J7,B1,GND*%
X130839000Y-44839000D03*
%TO.P,J7,B4,VBUS*%
%TO.N,Net-(U3-VCC)*%
X131689000Y-44839000D03*
%TO.P,J7,B5,CC2*%
%TO.N,Net-(J7-CC2)*%
X132539000Y-44839000D03*
%TO.P,J7,B6,D+*%
%TO.N,Net-(U3-USBD+)*%
X133389000Y-44839000D03*
%TO.P,J7,B7,D-*%
%TO.N,Net-(U3-USBD-)*%
X134239000Y-44839000D03*
%TO.P,J7,B8*%
%TO.N,N/C*%
X135089000Y-44839000D03*
%TO.P,J7,B9,VBUS*%
%TO.N,Net-(U3-VCC)*%
X135939000Y-44839000D03*
%TO.P,J7,B12,GND*%
%TO.N,GND*%
X136789000Y-44839000D03*
D17*
%TO.P,J7,S1,SHIELD*%
X138139000Y-45209000D03*
D18*
X138139000Y-41829000D03*
D17*
X129489000Y-45209000D03*
D18*
X129489000Y-41829000D03*
%TD*%
D12*
%TO.P,J2,1*%
%TO.N,GND*%
X152844500Y-51396000D03*
D13*
%TO.P,J2,2*%
%TO.N,+24V*%
X151574500Y-53936000D03*
%TO.P,J2,3*%
%TO.N,Net-(U2-DSCLM)*%
X150304500Y-51396000D03*
%TO.P,J2,4*%
%TO.N,Net-(U2-DSCLP)*%
X149034500Y-53936000D03*
%TO.P,J2,5*%
%TO.N,Net-(U2-DSDAP)*%
X147764500Y-51396000D03*
%TO.P,J2,6*%
%TO.N,Net-(U2-DSDAM)*%
X146494500Y-53936000D03*
%TO.P,J2,7*%
%TO.N,GND*%
X145224500Y-51396000D03*
%TO.P,J2,8*%
%TO.N,+12V*%
X143954500Y-53936000D03*
%TD*%
D19*
%TO.N,+5V*%
X128397000Y-65532000D03*
X125349000Y-72771000D03*
%TO.N,+12V*%
X141973000Y-57027000D03*
%TO.N,Net-(U2-DSDAP)*%
X118031000Y-48486000D03*
X144755500Y-48387000D03*
X123018318Y-48536318D03*
%TO.N,Net-(U2-DSDAM)*%
X118059200Y-47498000D03*
X142875000Y-47625000D03*
X123046318Y-47498000D03*
%TO.N,Net-(U2-DSCLM)*%
X123056000Y-52732000D03*
%TO.N,Net-(U2-DSCLP)*%
X118031000Y-49502000D03*
X150193000Y-49149000D03*
X122984000Y-49534000D03*
%TO.N,Net-(U3-VCC)*%
X132293000Y-48514000D03*
%TD*%
D20*
%TO.N,GND*%
X136789000Y-44684000D02*
X137769000Y-44684000D01*
X130839000Y-46034000D02*
X130469000Y-46034000D01*
X137769000Y-44684000D02*
X138139000Y-45054000D01*
X137159000Y-46034000D02*
X138139000Y-45054000D01*
X129859000Y-44684000D02*
X129489000Y-45054000D01*
X130839000Y-44684000D02*
X129859000Y-44684000D01*
X136789000Y-46034000D02*
X137159000Y-46034000D01*
X130469000Y-46034000D02*
X129489000Y-45054000D01*
D21*
%TO.N,+5V*%
X128397000Y-65532000D02*
X125353000Y-68576000D01*
X125353000Y-68576000D02*
X125353000Y-72767000D01*
D22*
%TO.N,+12V*%
X108945500Y-57027000D02*
X105854500Y-53936000D01*
X141973000Y-57027000D02*
X108945500Y-57027000D01*
D23*
%TO.N,Net-(U2-DSDAP)*%
X137287000Y-51181000D02*
X140081000Y-48387000D01*
X109664500Y-50823500D02*
X109664500Y-51316000D01*
X123018318Y-48536318D02*
X123052636Y-48536318D01*
X122984000Y-48502000D02*
X118047000Y-48502000D01*
X140081000Y-48387000D02*
X144755500Y-48387000D01*
X118047000Y-48502000D02*
X118031000Y-48486000D01*
X123052636Y-48536318D02*
X125697318Y-51181000D01*
X125697318Y-51181000D02*
X137287000Y-51181000D01*
X118031000Y-48486000D02*
X118015000Y-48502000D01*
X123018318Y-48536318D02*
X122984000Y-48502000D01*
%TO.N,Net-(U2-DSDAM)*%
X137029000Y-50419000D02*
X125967318Y-50419000D01*
X125967318Y-50419000D02*
X123046318Y-47498000D01*
X142875000Y-47625000D02*
X139823000Y-47625000D01*
X139823000Y-47625000D02*
X137029000Y-50419000D01*
X123046318Y-47498000D02*
X118059200Y-47498000D01*
X146494500Y-53856000D02*
X146042000Y-53856000D01*
%TO.N,Net-(U2-DSCLM)*%
X148911500Y-52709000D02*
X150304500Y-51316000D01*
X130258000Y-52709000D02*
X148911500Y-52709000D01*
X130235000Y-52732000D02*
X130258000Y-52709000D01*
X123056000Y-52732000D02*
X130235000Y-52732000D01*
X113540500Y-52732000D02*
X112204500Y-51396000D01*
X123056000Y-52732000D02*
X113540500Y-52732000D01*
%TO.N,Net-(U2-DSCLP)*%
X118031000Y-49502000D02*
X122952000Y-49502000D01*
X150193000Y-49149000D02*
X140335000Y-49149000D01*
X129964736Y-52001000D02*
X129941736Y-52024000D01*
X125474000Y-52024000D02*
X122984000Y-49534000D01*
X140335000Y-49149000D02*
X137483000Y-52001000D01*
X129941736Y-52024000D02*
X125474000Y-52024000D01*
X118063000Y-49534000D02*
X118031000Y-49502000D01*
X137483000Y-52001000D02*
X129964736Y-52001000D01*
X118031000Y-49502000D02*
X117999000Y-49534000D01*
X122952000Y-49502000D02*
X122984000Y-49534000D01*
D20*
%TO.N,Net-(U3-VCC)*%
X132280398Y-48501398D02*
X132293000Y-48514000D01*
X135939000Y-46433000D02*
X135939000Y-46034000D01*
X132280398Y-46813320D02*
X135558680Y-46813320D01*
X131689000Y-46221922D02*
X132280398Y-46813320D01*
X131689000Y-46189000D02*
X131689000Y-46221922D01*
X132280398Y-46813320D02*
X132280398Y-48501398D01*
X135558680Y-46813320D02*
X135939000Y-46433000D01*
D22*
%TO.N,+24V*%
X113474500Y-53856000D02*
X115375500Y-55757000D01*
X115375500Y-55757000D02*
X149673500Y-55757000D01*
X149673500Y-55757000D02*
X151574500Y-53856000D01*
D20*
%TO.N,Net-(U3-USBD-)*%
X134239000Y-44839000D02*
X134239000Y-45306078D01*
X134239000Y-45306078D02*
X133389000Y-46156078D01*
X134239000Y-44791423D02*
X134239000Y-44684000D01*
X133389000Y-46156078D02*
X133389000Y-46189000D01*
%TD*%
%TA.AperFunction,Conductor*%
%TO.N,GND*%
G36*
X128826615Y-40520502D02*
G01*
X128873108Y-40574158D01*
X128883212Y-40644432D01*
X128853718Y-40709012D01*
X128847589Y-40715595D01*
X128744875Y-40818308D01*
X128744870Y-40818315D01*
X128640032Y-40975216D01*
X128567817Y-41149558D01*
X128567816Y-41149561D01*
X128531000Y-41334641D01*
X128531000Y-41575000D01*
X129189000Y-41575000D01*
X129189000Y-42083000D01*
X128531000Y-42083000D01*
X128531000Y-42323358D01*
X128567816Y-42508438D01*
X128567817Y-42508441D01*
X128640032Y-42682783D01*
X128744870Y-42839684D01*
X128744875Y-42839691D01*
X128878308Y-42973124D01*
X128878315Y-42973129D01*
X129035216Y-43077967D01*
X129209558Y-43150182D01*
X129209561Y-43150183D01*
X129235000Y-43155243D01*
X129235000Y-42389060D01*
X129248940Y-42413205D01*
X129304795Y-42469060D01*
X129373204Y-42508556D01*
X129449504Y-42529000D01*
X129528496Y-42529000D01*
X129604796Y-42508556D01*
X129673205Y-42469060D01*
X129729060Y-42413205D01*
X129743000Y-42389060D01*
X129743000Y-43155242D01*
X129768438Y-43150183D01*
X129768441Y-43150182D01*
X129942783Y-43077967D01*
X130099684Y-42973129D01*
X130099691Y-42973124D01*
X130233124Y-42839691D01*
X130233129Y-42839684D01*
X130337967Y-42682783D01*
X130410182Y-42508441D01*
X130410183Y-42508438D01*
X130446999Y-42323358D01*
X130447000Y-42323355D01*
X130447000Y-42083000D01*
X129789000Y-42083000D01*
X129789000Y-41575000D01*
X130447000Y-41575000D01*
X130447000Y-41334644D01*
X130446999Y-41334641D01*
X130410183Y-41149561D01*
X130410182Y-41149558D01*
X130337967Y-40975216D01*
X130233129Y-40818315D01*
X130233124Y-40818308D01*
X130130411Y-40715595D01*
X130096385Y-40653283D01*
X130101450Y-40582468D01*
X130143997Y-40525632D01*
X130210517Y-40500821D01*
X130219506Y-40500500D01*
X137408494Y-40500500D01*
X137476615Y-40520502D01*
X137523108Y-40574158D01*
X137533212Y-40644432D01*
X137503718Y-40709012D01*
X137497589Y-40715595D01*
X137394875Y-40818308D01*
X137394870Y-40818315D01*
X137290032Y-40975216D01*
X137217817Y-41149558D01*
X137217816Y-41149561D01*
X137181000Y-41334641D01*
X137181000Y-41575000D01*
X137839000Y-41575000D01*
X137839000Y-42083000D01*
X137181000Y-42083000D01*
X137181000Y-42323358D01*
X137217816Y-42508438D01*
X137217817Y-42508441D01*
X137290032Y-42682783D01*
X137394870Y-42839684D01*
X137394875Y-42839691D01*
X137528308Y-42973124D01*
X137528315Y-42973129D01*
X137685216Y-43077967D01*
X137859558Y-43150182D01*
X137859561Y-43150183D01*
X137885000Y-43155243D01*
X137885000Y-42389060D01*
X137898940Y-42413205D01*
X137954795Y-42469060D01*
X138023204Y-42508556D01*
X138099504Y-42529000D01*
X138178496Y-42529000D01*
X138254796Y-42508556D01*
X138323205Y-42469060D01*
X138379060Y-42413205D01*
X138393000Y-42389060D01*
X138393000Y-43155242D01*
X138418438Y-43150183D01*
X138418441Y-43150182D01*
X138592783Y-43077967D01*
X138749684Y-42973129D01*
X138749691Y-42973124D01*
X138883124Y-42839691D01*
X138883129Y-42839684D01*
X138987967Y-42682783D01*
X139060182Y-42508441D01*
X139060183Y-42508438D01*
X139096999Y-42323358D01*
X139097000Y-42323355D01*
X139097000Y-42083000D01*
X138439000Y-42083000D01*
X138439000Y-41575000D01*
X139097000Y-41575000D01*
X139097000Y-41334644D01*
X139096999Y-41334641D01*
X139060183Y-41149561D01*
X139060182Y-41149558D01*
X138987967Y-40975216D01*
X138883129Y-40818315D01*
X138883124Y-40818308D01*
X138780411Y-40715595D01*
X138746385Y-40653283D01*
X138751450Y-40582468D01*
X138793997Y-40525632D01*
X138860517Y-40500821D01*
X138869506Y-40500500D01*
X159373500Y-40500500D01*
X159441621Y-40520502D01*
X159488114Y-40574158D01*
X159499500Y-40626500D01*
X159499500Y-99373500D01*
X159479498Y-99441621D01*
X159425842Y-99488114D01*
X159373500Y-99499500D01*
X100626500Y-99499500D01*
X100558379Y-99479498D01*
X100511886Y-99425842D01*
X100500500Y-99373500D01*
X100500500Y-94999993D01*
X101494696Y-94999993D01*
X101494696Y-95000006D01*
X101513896Y-95366395D01*
X101571294Y-95728792D01*
X101666259Y-96083205D01*
X101797740Y-96425726D01*
X101797744Y-96425734D01*
X101964318Y-96752652D01*
X102164143Y-97060358D01*
X102164155Y-97060375D01*
X102395038Y-97345492D01*
X102395052Y-97345507D01*
X102654492Y-97604947D01*
X102654507Y-97604961D01*
X102939624Y-97835844D01*
X102939641Y-97835856D01*
X103113294Y-97948626D01*
X103247348Y-98035682D01*
X103574264Y-98202255D01*
X103574268Y-98202256D01*
X103574273Y-98202259D01*
X103916794Y-98333740D01*
X103916799Y-98333741D01*
X103916801Y-98333742D01*
X104271206Y-98428705D01*
X104633596Y-98486102D01*
X104633598Y-98486102D01*
X104633604Y-98486103D01*
X104999994Y-98505304D01*
X105000000Y-98505304D01*
X105000006Y-98505304D01*
X105366395Y-98486103D01*
X105366399Y-98486102D01*
X105366404Y-98486102D01*
X105728794Y-98428705D01*
X106083199Y-98333742D01*
X106083202Y-98333740D01*
X106083205Y-98333740D01*
X106425726Y-98202259D01*
X106425727Y-98202258D01*
X106425736Y-98202255D01*
X106752652Y-98035682D01*
X107060366Y-97835851D01*
X107060375Y-97835844D01*
X107345492Y-97604961D01*
X107345497Y-97604955D01*
X107345506Y-97604949D01*
X107604949Y-97345506D01*
X107604955Y-97345497D01*
X107604961Y-97345492D01*
X107835844Y-97060375D01*
X107835845Y-97060372D01*
X107835851Y-97060366D01*
X108035682Y-96752652D01*
X108202255Y-96425736D01*
X108248560Y-96305108D01*
X108333740Y-96083205D01*
X108348933Y-96026504D01*
X108428705Y-95728794D01*
X108486102Y-95366404D01*
X108486102Y-95366399D01*
X108486103Y-95366395D01*
X108505304Y-95000006D01*
X108505304Y-94999993D01*
X108486103Y-94633604D01*
X108466684Y-94511000D01*
X108428705Y-94271206D01*
X108333742Y-93916801D01*
X108333741Y-93916799D01*
X108333740Y-93916794D01*
X108202259Y-93574273D01*
X108202255Y-93574265D01*
X108202255Y-93574264D01*
X108121820Y-93416402D01*
X115647000Y-93416402D01*
X115647000Y-94511000D01*
X116856656Y-94511000D01*
X116829979Y-94575402D01*
X116805000Y-94700981D01*
X116805000Y-94829019D01*
X116829979Y-94954598D01*
X116856656Y-95019000D01*
X115647000Y-95019000D01*
X115647000Y-96113597D01*
X115653505Y-96174093D01*
X115704555Y-96310964D01*
X115704555Y-96310965D01*
X115792095Y-96427904D01*
X115909034Y-96515444D01*
X116045906Y-96566494D01*
X116106402Y-96572999D01*
X116106415Y-96573000D01*
X117201000Y-96573000D01*
X117201000Y-95363344D01*
X117265402Y-95390021D01*
X117390981Y-95415000D01*
X117519019Y-95415000D01*
X117644598Y-95390021D01*
X117709000Y-95363344D01*
X117709000Y-96573000D01*
X118803585Y-96573000D01*
X118803597Y-96572999D01*
X118864093Y-96566494D01*
X119000964Y-96515444D01*
X119000965Y-96515444D01*
X119117904Y-96427904D01*
X119205444Y-96310965D01*
X119205444Y-96310964D01*
X119256494Y-96174093D01*
X119262999Y-96113597D01*
X119263000Y-96113585D01*
X119263000Y-95019000D01*
X118053344Y-95019000D01*
X118080021Y-94954598D01*
X118105000Y-94829019D01*
X118105000Y-94765000D01*
X120975693Y-94765000D01*
X120994891Y-95008928D01*
X121052010Y-95246850D01*
X121145646Y-95472909D01*
X121273495Y-95681539D01*
X121273496Y-95681541D01*
X121432402Y-95867597D01*
X121618458Y-96026503D01*
X121618462Y-96026506D01*
X121827089Y-96154353D01*
X122053148Y-96247989D01*
X122291071Y-96305109D01*
X122535000Y-96324307D01*
X122778929Y-96305109D01*
X123016852Y-96247989D01*
X123242911Y-96154353D01*
X123451538Y-96026506D01*
X123637597Y-95867597D01*
X123796506Y-95681538D01*
X123924353Y-95472911D01*
X124017989Y-95246852D01*
X124075109Y-95008929D01*
X124094307Y-94765000D01*
X124075109Y-94521071D01*
X124017989Y-94283148D01*
X123924353Y-94057089D01*
X123796506Y-93848462D01*
X123796503Y-93848458D01*
X123637597Y-93662402D01*
X123451541Y-93503496D01*
X123451539Y-93503495D01*
X123451538Y-93503494D01*
X123309417Y-93416402D01*
X136647000Y-93416402D01*
X136647000Y-94511000D01*
X137856656Y-94511000D01*
X137829979Y-94575402D01*
X137805000Y-94700981D01*
X137805000Y-94829019D01*
X137829979Y-94954598D01*
X137856656Y-95019000D01*
X136647000Y-95019000D01*
X136647000Y-96113597D01*
X136653505Y-96174093D01*
X136704555Y-96310964D01*
X136704555Y-96310965D01*
X136792095Y-96427904D01*
X136909034Y-96515444D01*
X137045906Y-96566494D01*
X137106402Y-96572999D01*
X137106415Y-96573000D01*
X138201000Y-96573000D01*
X138201000Y-95363344D01*
X138265402Y-95390021D01*
X138390981Y-95415000D01*
X138519019Y-95415000D01*
X138644598Y-95390021D01*
X138709000Y-95363344D01*
X138709000Y-96573000D01*
X139803585Y-96573000D01*
X139803597Y-96572999D01*
X139864093Y-96566494D01*
X140000964Y-96515444D01*
X140000965Y-96515444D01*
X140117904Y-96427904D01*
X140205444Y-96310965D01*
X140205444Y-96310964D01*
X140256494Y-96174093D01*
X140262999Y-96113597D01*
X140263000Y-96113585D01*
X140263000Y-95019000D01*
X139053344Y-95019000D01*
X139080021Y-94954598D01*
X139105000Y-94829019D01*
X139105000Y-94765000D01*
X141975693Y-94765000D01*
X141994891Y-95008928D01*
X142052010Y-95246850D01*
X142145646Y-95472909D01*
X142273495Y-95681539D01*
X142273496Y-95681541D01*
X142432402Y-95867597D01*
X142618458Y-96026503D01*
X142618462Y-96026506D01*
X142827089Y-96154353D01*
X143053148Y-96247989D01*
X143291071Y-96305109D01*
X143535000Y-96324307D01*
X143778929Y-96305109D01*
X144016852Y-96247989D01*
X144242911Y-96154353D01*
X144451538Y-96026506D01*
X144637597Y-95867597D01*
X144796506Y-95681538D01*
X144924353Y-95472911D01*
X145017989Y-95246852D01*
X145075109Y-95008929D01*
X145075812Y-94999993D01*
X151494696Y-94999993D01*
X151494696Y-95000006D01*
X151513896Y-95366395D01*
X151571294Y-95728792D01*
X151666259Y-96083205D01*
X151797740Y-96425726D01*
X151797744Y-96425734D01*
X151964318Y-96752652D01*
X152164143Y-97060358D01*
X152164155Y-97060375D01*
X152395038Y-97345492D01*
X152395052Y-97345507D01*
X152654492Y-97604947D01*
X152654507Y-97604961D01*
X152939624Y-97835844D01*
X152939641Y-97835856D01*
X153113294Y-97948626D01*
X153247348Y-98035682D01*
X153574264Y-98202255D01*
X153574268Y-98202256D01*
X153574273Y-98202259D01*
X153916794Y-98333740D01*
X153916799Y-98333741D01*
X153916801Y-98333742D01*
X154271206Y-98428705D01*
X154633596Y-98486102D01*
X154633598Y-98486102D01*
X154633604Y-98486103D01*
X154999994Y-98505304D01*
X155000000Y-98505304D01*
X155000006Y-98505304D01*
X155366395Y-98486103D01*
X155366399Y-98486102D01*
X155366404Y-98486102D01*
X155728794Y-98428705D01*
X156083199Y-98333742D01*
X156083202Y-98333740D01*
X156083205Y-98333740D01*
X156425726Y-98202259D01*
X156425727Y-98202258D01*
X156425736Y-98202255D01*
X156752652Y-98035682D01*
X157060366Y-97835851D01*
X157060375Y-97835844D01*
X157345492Y-97604961D01*
X157345497Y-97604955D01*
X157345506Y-97604949D01*
X157604949Y-97345506D01*
X157604955Y-97345497D01*
X157604961Y-97345492D01*
X157835844Y-97060375D01*
X157835845Y-97060372D01*
X157835851Y-97060366D01*
X158035682Y-96752652D01*
X158202255Y-96425736D01*
X158248560Y-96305108D01*
X158333740Y-96083205D01*
X158348933Y-96026504D01*
X158428705Y-95728794D01*
X158486102Y-95366404D01*
X158486102Y-95366399D01*
X158486103Y-95366395D01*
X158505304Y-95000006D01*
X158505304Y-94999993D01*
X158486103Y-94633604D01*
X158466684Y-94511000D01*
X158428705Y-94271206D01*
X158333742Y-93916801D01*
X158333741Y-93916799D01*
X158333740Y-93916794D01*
X158202259Y-93574273D01*
X158202255Y-93574265D01*
X158202255Y-93574264D01*
X158035682Y-93247348D01*
X157835851Y-92939634D01*
X157835844Y-92939624D01*
X157604961Y-92654507D01*
X157604947Y-92654492D01*
X157345507Y-92395052D01*
X157345492Y-92395038D01*
X157060375Y-92164155D01*
X157060358Y-92164143D01*
X156752652Y-91964318D01*
X156425734Y-91797744D01*
X156425726Y-91797740D01*
X156083205Y-91666259D01*
X155728792Y-91571294D01*
X155366395Y-91513896D01*
X155000006Y-91494696D01*
X154999994Y-91494696D01*
X154633604Y-91513896D01*
X154271207Y-91571294D01*
X153916794Y-91666259D01*
X153574273Y-91797740D01*
X153574265Y-91797744D01*
X153247347Y-91964318D01*
X152939641Y-92164143D01*
X152939624Y-92164155D01*
X152654507Y-92395038D01*
X152654492Y-92395052D01*
X152395052Y-92654492D01*
X152395038Y-92654507D01*
X152164155Y-92939624D01*
X152164143Y-92939641D01*
X151964318Y-93247347D01*
X151797744Y-93574265D01*
X151797740Y-93574273D01*
X151666259Y-93916794D01*
X151571294Y-94271207D01*
X151513896Y-94633604D01*
X151494696Y-94999993D01*
X145075812Y-94999993D01*
X145094307Y-94765000D01*
X145075109Y-94521071D01*
X145017989Y-94283148D01*
X144924353Y-94057089D01*
X144796506Y-93848462D01*
X144796503Y-93848458D01*
X144637597Y-93662402D01*
X144451541Y-93503496D01*
X144451539Y-93503495D01*
X144451538Y-93503494D01*
X144242911Y-93375647D01*
X144016852Y-93282011D01*
X144016850Y-93282010D01*
X143854093Y-93242936D01*
X143778929Y-93224891D01*
X143535000Y-93205693D01*
X143291071Y-93224891D01*
X143053149Y-93282010D01*
X142827090Y-93375646D01*
X142618460Y-93503495D01*
X142618458Y-93503496D01*
X142432402Y-93662402D01*
X142273496Y-93848458D01*
X142273495Y-93848460D01*
X142145646Y-94057090D01*
X142052010Y-94283149D01*
X141994891Y-94521071D01*
X141975693Y-94765000D01*
X139105000Y-94765000D01*
X139105000Y-94700981D01*
X139080021Y-94575402D01*
X139053344Y-94511000D01*
X140263000Y-94511000D01*
X140263000Y-93416414D01*
X140262999Y-93416402D01*
X140256494Y-93355906D01*
X140205444Y-93219035D01*
X140205444Y-93219034D01*
X140117904Y-93102095D01*
X140000965Y-93014555D01*
X139864093Y-92963505D01*
X139803597Y-92957000D01*
X138709000Y-92957000D01*
X138709000Y-94166655D01*
X138644598Y-94139979D01*
X138519019Y-94115000D01*
X138390981Y-94115000D01*
X138265402Y-94139979D01*
X138201000Y-94166655D01*
X138201000Y-92957000D01*
X137106402Y-92957000D01*
X137045906Y-92963505D01*
X136909035Y-93014555D01*
X136909034Y-93014555D01*
X136792095Y-93102095D01*
X136704555Y-93219034D01*
X136704555Y-93219035D01*
X136653505Y-93355906D01*
X136647000Y-93416402D01*
X123309417Y-93416402D01*
X123242911Y-93375647D01*
X123016852Y-93282011D01*
X123016850Y-93282010D01*
X122854093Y-93242936D01*
X122778929Y-93224891D01*
X122535000Y-93205693D01*
X122291071Y-93224891D01*
X122053149Y-93282010D01*
X121827090Y-93375646D01*
X121618460Y-93503495D01*
X121618458Y-93503496D01*
X121432402Y-93662402D01*
X121273496Y-93848458D01*
X121273495Y-93848460D01*
X121145646Y-94057090D01*
X121052010Y-94283149D01*
X120994891Y-94521071D01*
X120975693Y-94765000D01*
X118105000Y-94765000D01*
X118105000Y-94700981D01*
X118080021Y-94575402D01*
X118053344Y-94511000D01*
X119263000Y-94511000D01*
X119263000Y-93416414D01*
X119262999Y-93416402D01*
X119256494Y-93355906D01*
X119205444Y-93219035D01*
X119205444Y-93219034D01*
X119117904Y-93102095D01*
X119000965Y-93014555D01*
X118864093Y-92963505D01*
X118803597Y-92957000D01*
X117709000Y-92957000D01*
X117709000Y-94166655D01*
X117644598Y-94139979D01*
X117519019Y-94115000D01*
X117390981Y-94115000D01*
X117265402Y-94139979D01*
X117201000Y-94166655D01*
X117201000Y-92957000D01*
X116106402Y-92957000D01*
X116045906Y-92963505D01*
X115909035Y-93014555D01*
X115909034Y-93014555D01*
X115792095Y-93102095D01*
X115704555Y-93219034D01*
X115704555Y-93219035D01*
X115653505Y-93355906D01*
X115647000Y-93416402D01*
X108121820Y-93416402D01*
X108035682Y-93247348D01*
X107835851Y-92939634D01*
X107835844Y-92939624D01*
X107604961Y-92654507D01*
X107604947Y-92654492D01*
X107345507Y-92395052D01*
X107345492Y-92395038D01*
X107060375Y-92164155D01*
X107060358Y-92164143D01*
X106752652Y-91964318D01*
X106425734Y-91797744D01*
X106425726Y-91797740D01*
X106083205Y-91666259D01*
X105728792Y-91571294D01*
X105366395Y-91513896D01*
X105000006Y-91494696D01*
X104999994Y-91494696D01*
X104633604Y-91513896D01*
X104271207Y-91571294D01*
X103916794Y-91666259D01*
X103574273Y-91797740D01*
X103574265Y-91797744D01*
X103247347Y-91964318D01*
X102939641Y-92164143D01*
X102939624Y-92164155D01*
X102654507Y-92395038D01*
X102654492Y-92395052D01*
X102395052Y-92654492D01*
X102395038Y-92654507D01*
X102164155Y-92939624D01*
X102164143Y-92939641D01*
X101964318Y-93247347D01*
X101797744Y-93574265D01*
X101797740Y-93574273D01*
X101666259Y-93916794D01*
X101571294Y-94271207D01*
X101513896Y-94633604D01*
X101494696Y-94999993D01*
X100500500Y-94999993D01*
X100500500Y-72770999D01*
X124789715Y-72770999D01*
X124789715Y-72771000D01*
X124808771Y-72915752D01*
X124864644Y-73050641D01*
X124864649Y-73050649D01*
X124953525Y-73166474D01*
X125069350Y-73255350D01*
X125069357Y-73255355D01*
X125204246Y-73311228D01*
X125349000Y-73330285D01*
X125493754Y-73311228D01*
X125628643Y-73255355D01*
X125744474Y-73166474D01*
X125833355Y-73050643D01*
X125889228Y-72915754D01*
X125908285Y-72771000D01*
X125905869Y-72752652D01*
X125889228Y-72626247D01*
X125889228Y-72626246D01*
X125833355Y-72491358D01*
X125824037Y-72479214D01*
X125798437Y-72412994D01*
X125798000Y-72402511D01*
X125798000Y-70999993D01*
X126494696Y-70999993D01*
X126494696Y-71000006D01*
X126513896Y-71366395D01*
X126571294Y-71728792D01*
X126666259Y-72083205D01*
X126797740Y-72425726D01*
X126797744Y-72425734D01*
X126964318Y-72752652D01*
X127164143Y-73060358D01*
X127164155Y-73060375D01*
X127395038Y-73345492D01*
X127395052Y-73345507D01*
X127654492Y-73604947D01*
X127654507Y-73604961D01*
X127939624Y-73835844D01*
X127939641Y-73835856D01*
X128113294Y-73948626D01*
X128247348Y-74035682D01*
X128574264Y-74202255D01*
X128574268Y-74202256D01*
X128574273Y-74202259D01*
X128916794Y-74333740D01*
X128916799Y-74333741D01*
X128916801Y-74333742D01*
X129271206Y-74428705D01*
X129633596Y-74486102D01*
X129633598Y-74486102D01*
X129633604Y-74486103D01*
X129999994Y-74505304D01*
X130000000Y-74505304D01*
X130000006Y-74505304D01*
X130366395Y-74486103D01*
X130366399Y-74486102D01*
X130366404Y-74486102D01*
X130728794Y-74428705D01*
X131083199Y-74333742D01*
X131083202Y-74333740D01*
X131083205Y-74333740D01*
X131425726Y-74202259D01*
X131425727Y-74202258D01*
X131425736Y-74202255D01*
X131752652Y-74035682D01*
X132060366Y-73835851D01*
X132060375Y-73835844D01*
X132345492Y-73604961D01*
X132345497Y-73604955D01*
X132345506Y-73604949D01*
X132604949Y-73345506D01*
X132604955Y-73345497D01*
X132604961Y-73345492D01*
X132835844Y-73060375D01*
X132835845Y-73060372D01*
X132835851Y-73060366D01*
X133035682Y-72752652D01*
X133202255Y-72425736D01*
X133211170Y-72402511D01*
X133333740Y-72083205D01*
X133377437Y-71920127D01*
X133428705Y-71728794D01*
X133486102Y-71366404D01*
X133486102Y-71366399D01*
X133486103Y-71366395D01*
X133505304Y-71000006D01*
X133505304Y-70999993D01*
X133486103Y-70633604D01*
X133428705Y-70271207D01*
X133333740Y-69916794D01*
X133202259Y-69574273D01*
X133202255Y-69574265D01*
X133202255Y-69574264D01*
X133035682Y-69247348D01*
X132835851Y-68939634D01*
X132835844Y-68939624D01*
X132604961Y-68654507D01*
X132604947Y-68654492D01*
X132345507Y-68395052D01*
X132345492Y-68395038D01*
X132060375Y-68164155D01*
X132060358Y-68164143D01*
X131752652Y-67964318D01*
X131425734Y-67797744D01*
X131425726Y-67797740D01*
X131083205Y-67666259D01*
X130728792Y-67571294D01*
X130366395Y-67513896D01*
X130000006Y-67494696D01*
X129999994Y-67494696D01*
X129633604Y-67513896D01*
X129271207Y-67571294D01*
X128916794Y-67666259D01*
X128574273Y-67797740D01*
X128574265Y-67797744D01*
X128247347Y-67964318D01*
X127939641Y-68164143D01*
X127939624Y-68164155D01*
X127654507Y-68395038D01*
X127654492Y-68395052D01*
X127395052Y-68654492D01*
X127395038Y-68654507D01*
X127164155Y-68939624D01*
X127164143Y-68939641D01*
X126964318Y-69247347D01*
X126797744Y-69574265D01*
X126797740Y-69574273D01*
X126666259Y-69916794D01*
X126571294Y-70271207D01*
X126513896Y-70633604D01*
X126494696Y-70999993D01*
X125798000Y-70999993D01*
X125798000Y-68812514D01*
X125818002Y-68744393D01*
X125834900Y-68723424D01*
X128447415Y-66110908D01*
X128509725Y-66076885D01*
X128520058Y-66075084D01*
X128541754Y-66072228D01*
X128676643Y-66016355D01*
X128792474Y-65927474D01*
X128881355Y-65811643D01*
X128937228Y-65676754D01*
X128956285Y-65532000D01*
X128937228Y-65387246D01*
X128881355Y-65252358D01*
X128792474Y-65136526D01*
X128792472Y-65136524D01*
X128792471Y-65136523D01*
X128676649Y-65047649D01*
X128676641Y-65047644D01*
X128541752Y-64991771D01*
X128397000Y-64972715D01*
X128252247Y-64991771D01*
X128184802Y-65019708D01*
X128117358Y-65047645D01*
X128117357Y-65047646D01*
X128117356Y-65047646D01*
X128001526Y-65136526D01*
X127912646Y-65252356D01*
X127912645Y-65252358D01*
X127877409Y-65337422D01*
X127856770Y-65387250D01*
X127853914Y-65408942D01*
X127825189Y-65473868D01*
X127818088Y-65481585D01*
X125728381Y-67571294D01*
X125079764Y-68219911D01*
X125038338Y-68261337D01*
X124996912Y-68302762D01*
X124996908Y-68302767D01*
X124938328Y-68404231D01*
X124938325Y-68404238D01*
X124908000Y-68517416D01*
X124908000Y-72392085D01*
X124887998Y-72460206D01*
X124881963Y-72468788D01*
X124864649Y-72491351D01*
X124864646Y-72491356D01*
X124864645Y-72491358D01*
X124836708Y-72558802D01*
X124808771Y-72626247D01*
X124789715Y-72770999D01*
X100500500Y-72770999D01*
X100500500Y-62596930D01*
X103972500Y-62596930D01*
X103972500Y-64347063D01*
X103972501Y-64347073D01*
X103987265Y-64421300D01*
X104043516Y-64505484D01*
X104127697Y-64561733D01*
X104127699Y-64561734D01*
X104201933Y-64576500D01*
X105952066Y-64576499D01*
X105952069Y-64576498D01*
X105952073Y-64576498D01*
X106001326Y-64566701D01*
X106026301Y-64561734D01*
X106110484Y-64505484D01*
X106166734Y-64421301D01*
X106181500Y-64347067D01*
X106181499Y-63471995D01*
X106507768Y-63471995D01*
X106507768Y-63472004D01*
X106526654Y-63675819D01*
X106576047Y-63849418D01*
X106582672Y-63872701D01*
X106673912Y-64055935D01*
X106673913Y-64055936D01*
X106797266Y-64219284D01*
X106948536Y-64357185D01*
X107122566Y-64464940D01*
X107122568Y-64464940D01*
X107122573Y-64464944D01*
X107313444Y-64538888D01*
X107514653Y-64576500D01*
X107514655Y-64576500D01*
X107719345Y-64576500D01*
X107719347Y-64576500D01*
X107920556Y-64538888D01*
X108111427Y-64464944D01*
X108285462Y-64357186D01*
X108436732Y-64219285D01*
X108560088Y-64055935D01*
X108651328Y-63872701D01*
X108707345Y-63675821D01*
X108726232Y-63472000D01*
X108726232Y-63471995D01*
X109047768Y-63471995D01*
X109047768Y-63472004D01*
X109066654Y-63675819D01*
X109116047Y-63849418D01*
X109122672Y-63872701D01*
X109213912Y-64055935D01*
X109213913Y-64055936D01*
X109337266Y-64219284D01*
X109488536Y-64357185D01*
X109662566Y-64464940D01*
X109662568Y-64464940D01*
X109662573Y-64464944D01*
X109853444Y-64538888D01*
X110054653Y-64576500D01*
X110054655Y-64576500D01*
X110259345Y-64576500D01*
X110259347Y-64576500D01*
X110460556Y-64538888D01*
X110651427Y-64464944D01*
X110825462Y-64357186D01*
X110976732Y-64219285D01*
X111100088Y-64055935D01*
X111191328Y-63872701D01*
X111247345Y-63675821D01*
X111266232Y-63472000D01*
X111266232Y-63471995D01*
X111587768Y-63471995D01*
X111587768Y-63472004D01*
X111606654Y-63675819D01*
X111656047Y-63849418D01*
X111662672Y-63872701D01*
X111753912Y-64055935D01*
X111753913Y-64055936D01*
X111877266Y-64219284D01*
X112028536Y-64357185D01*
X112202566Y-64464940D01*
X112202568Y-64464940D01*
X112202573Y-64464944D01*
X112393444Y-64538888D01*
X112594653Y-64576500D01*
X112594655Y-64576500D01*
X112799345Y-64576500D01*
X112799347Y-64576500D01*
X113000556Y-64538888D01*
X113191427Y-64464944D01*
X113365462Y-64357186D01*
X113516732Y-64219285D01*
X113640088Y-64055935D01*
X113731328Y-63872701D01*
X113787345Y-63675821D01*
X113806232Y-63472000D01*
X113806232Y-63471995D01*
X114127768Y-63471995D01*
X114127768Y-63472004D01*
X114146654Y-63675819D01*
X114196047Y-63849418D01*
X114202672Y-63872701D01*
X114293912Y-64055935D01*
X114293913Y-64055936D01*
X114417266Y-64219284D01*
X114568536Y-64357185D01*
X114742566Y-64464940D01*
X114742568Y-64464940D01*
X114742573Y-64464944D01*
X114933444Y-64538888D01*
X115134653Y-64576500D01*
X115134655Y-64576500D01*
X115339345Y-64576500D01*
X115339347Y-64576500D01*
X115540556Y-64538888D01*
X115731427Y-64464944D01*
X115905462Y-64357186D01*
X116056732Y-64219285D01*
X116180088Y-64055935D01*
X116271328Y-63872701D01*
X116327345Y-63675821D01*
X116346232Y-63472000D01*
X116346232Y-63471995D01*
X116667768Y-63471995D01*
X116667768Y-63472004D01*
X116686654Y-63675819D01*
X116736047Y-63849418D01*
X116742672Y-63872701D01*
X116833912Y-64055935D01*
X116833913Y-64055936D01*
X116957266Y-64219284D01*
X117108536Y-64357185D01*
X117282566Y-64464940D01*
X117282568Y-64464940D01*
X117282573Y-64464944D01*
X117473444Y-64538888D01*
X117674653Y-64576500D01*
X117674655Y-64576500D01*
X117879345Y-64576500D01*
X117879347Y-64576500D01*
X118080556Y-64538888D01*
X118271427Y-64464944D01*
X118445462Y-64357186D01*
X118596732Y-64219285D01*
X118720088Y-64055935D01*
X118811328Y-63872701D01*
X118867345Y-63675821D01*
X118886232Y-63472000D01*
X118886232Y-63471995D01*
X119207768Y-63471995D01*
X119207768Y-63472004D01*
X119226654Y-63675819D01*
X119276047Y-63849418D01*
X119282672Y-63872701D01*
X119373912Y-64055935D01*
X119373913Y-64055936D01*
X119497266Y-64219284D01*
X119648536Y-64357185D01*
X119822566Y-64464940D01*
X119822568Y-64464940D01*
X119822573Y-64464944D01*
X120013444Y-64538888D01*
X120214653Y-64576500D01*
X120214655Y-64576500D01*
X120419345Y-64576500D01*
X120419347Y-64576500D01*
X120620556Y-64538888D01*
X120811427Y-64464944D01*
X120985462Y-64357186D01*
X121136732Y-64219285D01*
X121260088Y-64055935D01*
X121351328Y-63872701D01*
X121407345Y-63675821D01*
X121426232Y-63472000D01*
X121426232Y-63471995D01*
X121747768Y-63471995D01*
X121747768Y-63472004D01*
X121766654Y-63675819D01*
X121816047Y-63849418D01*
X121822672Y-63872701D01*
X121913912Y-64055935D01*
X121913913Y-64055936D01*
X122037266Y-64219284D01*
X122188536Y-64357185D01*
X122362566Y-64464940D01*
X122362568Y-64464940D01*
X122362573Y-64464944D01*
X122553444Y-64538888D01*
X122754653Y-64576500D01*
X122754655Y-64576500D01*
X122959345Y-64576500D01*
X122959347Y-64576500D01*
X123160556Y-64538888D01*
X123351427Y-64464944D01*
X123525462Y-64357186D01*
X123676732Y-64219285D01*
X123800088Y-64055935D01*
X123891328Y-63872701D01*
X123947345Y-63675821D01*
X123966232Y-63472000D01*
X123966232Y-63471995D01*
X124287768Y-63471995D01*
X124287768Y-63472004D01*
X124306654Y-63675819D01*
X124356047Y-63849418D01*
X124362672Y-63872701D01*
X124453912Y-64055935D01*
X124453913Y-64055936D01*
X124577266Y-64219284D01*
X124728536Y-64357185D01*
X124902566Y-64464940D01*
X124902568Y-64464940D01*
X124902573Y-64464944D01*
X125093444Y-64538888D01*
X125294653Y-64576500D01*
X125294655Y-64576500D01*
X125499345Y-64576500D01*
X125499347Y-64576500D01*
X125700556Y-64538888D01*
X125891427Y-64464944D01*
X126065462Y-64357186D01*
X126216732Y-64219285D01*
X126340088Y-64055935D01*
X126431328Y-63872701D01*
X126487345Y-63675821D01*
X126506232Y-63472000D01*
X126506232Y-63471995D01*
X126827768Y-63471995D01*
X126827768Y-63472004D01*
X126846654Y-63675819D01*
X126896047Y-63849418D01*
X126902672Y-63872701D01*
X126993912Y-64055935D01*
X126993913Y-64055936D01*
X127117266Y-64219284D01*
X127268536Y-64357185D01*
X127442566Y-64464940D01*
X127442568Y-64464940D01*
X127442573Y-64464944D01*
X127633444Y-64538888D01*
X127834653Y-64576500D01*
X127834655Y-64576500D01*
X128039345Y-64576500D01*
X128039347Y-64576500D01*
X128240556Y-64538888D01*
X128431427Y-64464944D01*
X128605462Y-64357186D01*
X128756732Y-64219285D01*
X128880088Y-64055935D01*
X128971328Y-63872701D01*
X129027345Y-63675821D01*
X129046232Y-63472000D01*
X129046232Y-63471995D01*
X129367768Y-63471995D01*
X129367768Y-63472004D01*
X129386654Y-63675819D01*
X129436047Y-63849418D01*
X129442672Y-63872701D01*
X129533912Y-64055935D01*
X129533913Y-64055936D01*
X129657266Y-64219284D01*
X129808536Y-64357185D01*
X129982566Y-64464940D01*
X129982568Y-64464940D01*
X129982573Y-64464944D01*
X130173444Y-64538888D01*
X130374653Y-64576500D01*
X130374655Y-64576500D01*
X130579345Y-64576500D01*
X130579347Y-64576500D01*
X130780556Y-64538888D01*
X130971427Y-64464944D01*
X131145462Y-64357186D01*
X131296732Y-64219285D01*
X131420088Y-64055935D01*
X131511328Y-63872701D01*
X131567345Y-63675821D01*
X131586232Y-63472000D01*
X131586232Y-63471995D01*
X131907768Y-63471995D01*
X131907768Y-63472004D01*
X131926654Y-63675819D01*
X131976047Y-63849418D01*
X131982672Y-63872701D01*
X132073912Y-64055935D01*
X132073913Y-64055936D01*
X132197266Y-64219284D01*
X132348536Y-64357185D01*
X132522566Y-64464940D01*
X132522568Y-64464940D01*
X132522573Y-64464944D01*
X132713444Y-64538888D01*
X132914653Y-64576500D01*
X132914655Y-64576500D01*
X133119345Y-64576500D01*
X133119347Y-64576500D01*
X133320556Y-64538888D01*
X133511427Y-64464944D01*
X133685462Y-64357186D01*
X133836732Y-64219285D01*
X133960088Y-64055935D01*
X134051328Y-63872701D01*
X134107345Y-63675821D01*
X134126232Y-63472000D01*
X134126232Y-63471995D01*
X134447768Y-63471995D01*
X134447768Y-63472004D01*
X134466654Y-63675819D01*
X134516047Y-63849418D01*
X134522672Y-63872701D01*
X134613912Y-64055935D01*
X134613913Y-64055936D01*
X134737266Y-64219284D01*
X134888536Y-64357185D01*
X135062566Y-64464940D01*
X135062568Y-64464940D01*
X135062573Y-64464944D01*
X135253444Y-64538888D01*
X135454653Y-64576500D01*
X135454655Y-64576500D01*
X135659345Y-64576500D01*
X135659347Y-64576500D01*
X135860556Y-64538888D01*
X136051427Y-64464944D01*
X136225462Y-64357186D01*
X136376732Y-64219285D01*
X136500088Y-64055935D01*
X136591328Y-63872701D01*
X136647345Y-63675821D01*
X136666232Y-63472000D01*
X136666232Y-63471995D01*
X136987768Y-63471995D01*
X136987768Y-63472004D01*
X137006654Y-63675819D01*
X137056047Y-63849418D01*
X137062672Y-63872701D01*
X137153912Y-64055935D01*
X137153913Y-64055936D01*
X137277266Y-64219284D01*
X137428536Y-64357185D01*
X137602566Y-64464940D01*
X137602568Y-64464940D01*
X137602573Y-64464944D01*
X137793444Y-64538888D01*
X137994653Y-64576500D01*
X137994655Y-64576500D01*
X138199345Y-64576500D01*
X138199347Y-64576500D01*
X138400556Y-64538888D01*
X138591427Y-64464944D01*
X138765462Y-64357186D01*
X138916732Y-64219285D01*
X139040088Y-64055935D01*
X139131328Y-63872701D01*
X139187345Y-63675821D01*
X139206232Y-63472000D01*
X139206232Y-63471995D01*
X139527768Y-63471995D01*
X139527768Y-63472004D01*
X139546654Y-63675819D01*
X139596047Y-63849418D01*
X139602672Y-63872701D01*
X139693912Y-64055935D01*
X139693913Y-64055936D01*
X139817266Y-64219284D01*
X139968536Y-64357185D01*
X140142566Y-64464940D01*
X140142568Y-64464940D01*
X140142573Y-64464944D01*
X140333444Y-64538888D01*
X140534653Y-64576500D01*
X140534655Y-64576500D01*
X140739345Y-64576500D01*
X140739347Y-64576500D01*
X140940556Y-64538888D01*
X141131427Y-64464944D01*
X141305462Y-64357186D01*
X141456732Y-64219285D01*
X141580088Y-64055935D01*
X141671328Y-63872701D01*
X141727345Y-63675821D01*
X141746232Y-63472000D01*
X141746232Y-63471995D01*
X142067768Y-63471995D01*
X142067768Y-63472004D01*
X142086654Y-63675819D01*
X142136047Y-63849418D01*
X142142672Y-63872701D01*
X142233912Y-64055935D01*
X142233913Y-64055936D01*
X142357266Y-64219284D01*
X142508536Y-64357185D01*
X142682566Y-64464940D01*
X142682568Y-64464940D01*
X142682573Y-64464944D01*
X142873444Y-64538888D01*
X143074653Y-64576500D01*
X143074655Y-64576500D01*
X143279345Y-64576500D01*
X143279347Y-64576500D01*
X143480556Y-64538888D01*
X143671427Y-64464944D01*
X143845462Y-64357186D01*
X143996732Y-64219285D01*
X144120088Y-64055935D01*
X144211328Y-63872701D01*
X144267345Y-63675821D01*
X144286232Y-63472000D01*
X144286232Y-63471995D01*
X144607768Y-63471995D01*
X144607768Y-63472004D01*
X144626654Y-63675819D01*
X144676047Y-63849418D01*
X144682672Y-63872701D01*
X144773912Y-64055935D01*
X144773913Y-64055936D01*
X144897266Y-64219284D01*
X145048536Y-64357185D01*
X145222566Y-64464940D01*
X145222568Y-64464940D01*
X145222573Y-64464944D01*
X145413444Y-64538888D01*
X145614653Y-64576500D01*
X145614655Y-64576500D01*
X145819345Y-64576500D01*
X145819347Y-64576500D01*
X146020556Y-64538888D01*
X146211427Y-64464944D01*
X146385462Y-64357186D01*
X146536732Y-64219285D01*
X146660088Y-64055935D01*
X146751328Y-63872701D01*
X146807345Y-63675821D01*
X146826232Y-63472000D01*
X146826232Y-63471995D01*
X147147768Y-63471995D01*
X147147768Y-63472004D01*
X147166654Y-63675819D01*
X147216047Y-63849418D01*
X147222672Y-63872701D01*
X147313912Y-64055935D01*
X147313913Y-64055936D01*
X147437266Y-64219284D01*
X147588536Y-64357185D01*
X147762566Y-64464940D01*
X147762568Y-64464940D01*
X147762573Y-64464944D01*
X147953444Y-64538888D01*
X148154653Y-64576500D01*
X148154655Y-64576500D01*
X148359345Y-64576500D01*
X148359347Y-64576500D01*
X148560556Y-64538888D01*
X148751427Y-64464944D01*
X148925462Y-64357186D01*
X149076732Y-64219285D01*
X149200088Y-64055935D01*
X149291328Y-63872701D01*
X149347345Y-63675821D01*
X149366232Y-63472000D01*
X149366232Y-63471995D01*
X149687768Y-63471995D01*
X149687768Y-63472004D01*
X149706654Y-63675819D01*
X149756047Y-63849418D01*
X149762672Y-63872701D01*
X149853912Y-64055935D01*
X149853913Y-64055936D01*
X149977266Y-64219284D01*
X150128536Y-64357185D01*
X150302566Y-64464940D01*
X150302568Y-64464940D01*
X150302573Y-64464944D01*
X150493444Y-64538888D01*
X150694653Y-64576500D01*
X150694655Y-64576500D01*
X150899345Y-64576500D01*
X150899347Y-64576500D01*
X151100556Y-64538888D01*
X151291427Y-64464944D01*
X151465462Y-64357186D01*
X151616732Y-64219285D01*
X151740088Y-64055935D01*
X151816998Y-63901478D01*
X151865265Y-63849418D01*
X151934019Y-63831715D01*
X152001430Y-63853994D01*
X152046094Y-63909181D01*
X152047563Y-63913052D01*
X152138580Y-64120548D01*
X152261674Y-64308958D01*
X152414097Y-64474534D01*
X152591698Y-64612767D01*
X152591699Y-64612768D01*
X152789628Y-64719882D01*
X152789630Y-64719883D01*
X153002483Y-64792955D01*
X153002492Y-64792957D01*
X153083000Y-64806391D01*
X153083000Y-63902702D01*
X153144007Y-63937925D01*
X153271174Y-63972000D01*
X153402826Y-63972000D01*
X153529993Y-63937925D01*
X153591000Y-63902702D01*
X153591000Y-64806390D01*
X153671507Y-64792957D01*
X153671516Y-64792955D01*
X153884369Y-64719883D01*
X153884371Y-64719882D01*
X154082300Y-64612768D01*
X154082301Y-64612767D01*
X154259902Y-64474534D01*
X154412325Y-64308958D01*
X154535419Y-64120548D01*
X154625820Y-63914456D01*
X154625823Y-63914449D01*
X154673544Y-63726000D01*
X153767703Y-63726000D01*
X153802925Y-63664993D01*
X153837000Y-63537826D01*
X153837000Y-63406174D01*
X153802925Y-63279007D01*
X153767703Y-63218000D01*
X154673544Y-63218000D01*
X154673544Y-63217999D01*
X154625823Y-63029550D01*
X154625820Y-63029543D01*
X154535419Y-62823451D01*
X154412325Y-62635041D01*
X154259902Y-62469465D01*
X154082301Y-62331232D01*
X154082300Y-62331231D01*
X153884371Y-62224117D01*
X153884369Y-62224116D01*
X153773195Y-62185951D01*
X153715260Y-62144914D01*
X153688708Y-62079069D01*
X153701969Y-62009322D01*
X153750834Y-61957817D01*
X153768581Y-61949290D01*
X153831427Y-61924944D01*
X154005462Y-61817186D01*
X154156732Y-61679285D01*
X154280088Y-61515935D01*
X154371328Y-61332701D01*
X154427345Y-61135821D01*
X154446232Y-60932000D01*
X154427345Y-60728179D01*
X154371328Y-60531299D01*
X154280088Y-60348065D01*
X154239538Y-60294368D01*
X154156733Y-60184715D01*
X154005463Y-60046814D01*
X153831433Y-59939059D01*
X153831428Y-59939057D01*
X153831427Y-59939056D01*
X153640559Y-59865113D01*
X153640560Y-59865113D01*
X153640557Y-59865112D01*
X153640556Y-59865112D01*
X153439347Y-59827500D01*
X153234653Y-59827500D01*
X153033444Y-59865112D01*
X153033439Y-59865113D01*
X152842577Y-59939054D01*
X152842566Y-59939059D01*
X152668536Y-60046814D01*
X152517266Y-60184715D01*
X152393913Y-60348063D01*
X152302671Y-60531301D01*
X152246654Y-60728180D01*
X152227768Y-60931995D01*
X152227768Y-60932004D01*
X152246654Y-61135819D01*
X152246655Y-61135821D01*
X152302672Y-61332701D01*
X152393912Y-61515935D01*
X152393913Y-61515936D01*
X152517266Y-61679284D01*
X152668536Y-61817185D01*
X152842566Y-61924940D01*
X152842568Y-61924940D01*
X152842573Y-61924944D01*
X152892333Y-61944221D01*
X152905409Y-61949287D01*
X152961704Y-61992546D01*
X152985674Y-62059374D01*
X152969710Y-62128552D01*
X152918879Y-62178118D01*
X152900804Y-62185951D01*
X152789631Y-62224116D01*
X152789628Y-62224117D01*
X152591699Y-62331231D01*
X152591698Y-62331232D01*
X152414097Y-62469465D01*
X152261674Y-62635041D01*
X152138580Y-62823451D01*
X152046084Y-63034320D01*
X152044472Y-63033612D01*
X152007903Y-63085218D01*
X151942053Y-63111757D01*
X151872309Y-63098481D01*
X151820813Y-63049606D01*
X151817005Y-63042535D01*
X151740088Y-62888065D01*
X151691294Y-62823451D01*
X151616733Y-62724715D01*
X151465463Y-62586814D01*
X151291433Y-62479059D01*
X151291428Y-62479057D01*
X151291427Y-62479056D01*
X151266670Y-62469465D01*
X151100559Y-62405113D01*
X151100560Y-62405113D01*
X151100557Y-62405112D01*
X151100556Y-62405112D01*
X150899347Y-62367500D01*
X150694653Y-62367500D01*
X150493444Y-62405112D01*
X150493439Y-62405113D01*
X150302577Y-62479054D01*
X150302566Y-62479059D01*
X150128536Y-62586814D01*
X149977266Y-62724715D01*
X149853913Y-62888063D01*
X149762671Y-63071301D01*
X149706654Y-63268180D01*
X149687768Y-63471995D01*
X149366232Y-63471995D01*
X149360132Y-63406174D01*
X149348348Y-63279007D01*
X149347345Y-63268179D01*
X149291328Y-63071299D01*
X149200088Y-62888065D01*
X149151294Y-62823451D01*
X149076733Y-62724715D01*
X148925463Y-62586814D01*
X148751433Y-62479059D01*
X148751428Y-62479057D01*
X148751427Y-62479056D01*
X148726670Y-62469465D01*
X148560559Y-62405113D01*
X148560560Y-62405113D01*
X148560557Y-62405112D01*
X148560556Y-62405112D01*
X148359347Y-62367500D01*
X148154653Y-62367500D01*
X147953444Y-62405112D01*
X147953439Y-62405113D01*
X147762577Y-62479054D01*
X147762566Y-62479059D01*
X147588536Y-62586814D01*
X147437266Y-62724715D01*
X147313913Y-62888063D01*
X147222671Y-63071301D01*
X147166654Y-63268180D01*
X147147768Y-63471995D01*
X146826232Y-63471995D01*
X146820132Y-63406174D01*
X146808348Y-63279007D01*
X146807345Y-63268179D01*
X146751328Y-63071299D01*
X146660088Y-62888065D01*
X146611294Y-62823451D01*
X146536733Y-62724715D01*
X146385463Y-62586814D01*
X146211433Y-62479059D01*
X146211428Y-62479057D01*
X146211427Y-62479056D01*
X146186670Y-62469465D01*
X146020559Y-62405113D01*
X146020560Y-62405113D01*
X146020557Y-62405112D01*
X146020556Y-62405112D01*
X145819347Y-62367500D01*
X145614653Y-62367500D01*
X145413444Y-62405112D01*
X145413439Y-62405113D01*
X145222577Y-62479054D01*
X145222566Y-62479059D01*
X145048536Y-62586814D01*
X144897266Y-62724715D01*
X144773913Y-62888063D01*
X144682671Y-63071301D01*
X144626654Y-63268180D01*
X144607768Y-63471995D01*
X144286232Y-63471995D01*
X144280132Y-63406174D01*
X144268348Y-63279007D01*
X144267345Y-63268179D01*
X144211328Y-63071299D01*
X144120088Y-62888065D01*
X144071294Y-62823451D01*
X143996733Y-62724715D01*
X143845463Y-62586814D01*
X143671433Y-62479059D01*
X143671428Y-62479057D01*
X143671427Y-62479056D01*
X143646670Y-62469465D01*
X143480559Y-62405113D01*
X143480560Y-62405113D01*
X143480557Y-62405112D01*
X143480556Y-62405112D01*
X143279347Y-62367500D01*
X143074653Y-62367500D01*
X142873444Y-62405112D01*
X142873439Y-62405113D01*
X142682577Y-62479054D01*
X142682566Y-62479059D01*
X142508536Y-62586814D01*
X142357266Y-62724715D01*
X142233913Y-62888063D01*
X142142671Y-63071301D01*
X142086654Y-63268180D01*
X142067768Y-63471995D01*
X141746232Y-63471995D01*
X141740132Y-63406174D01*
X141728348Y-63279007D01*
X141727345Y-63268179D01*
X141671328Y-63071299D01*
X141580088Y-62888065D01*
X141531294Y-62823451D01*
X141456733Y-62724715D01*
X141305463Y-62586814D01*
X141131433Y-62479059D01*
X141131428Y-62479057D01*
X141131427Y-62479056D01*
X141106670Y-62469465D01*
X140940559Y-62405113D01*
X140940560Y-62405113D01*
X140940557Y-62405112D01*
X140940556Y-62405112D01*
X140739347Y-62367500D01*
X140534653Y-62367500D01*
X140333444Y-62405112D01*
X140333439Y-62405113D01*
X140142577Y-62479054D01*
X140142566Y-62479059D01*
X139968536Y-62586814D01*
X139817266Y-62724715D01*
X139693913Y-62888063D01*
X139602671Y-63071301D01*
X139546654Y-63268180D01*
X139527768Y-63471995D01*
X139206232Y-63471995D01*
X139200132Y-63406174D01*
X139188348Y-63279007D01*
X139187345Y-63268179D01*
X139131328Y-63071299D01*
X139040088Y-62888065D01*
X138991294Y-62823451D01*
X138916733Y-62724715D01*
X138765463Y-62586814D01*
X138591433Y-62479059D01*
X138591428Y-62479057D01*
X138591427Y-62479056D01*
X138566670Y-62469465D01*
X138400559Y-62405113D01*
X138400560Y-62405113D01*
X138400557Y-62405112D01*
X138400556Y-62405112D01*
X138199347Y-62367500D01*
X137994653Y-62367500D01*
X137793444Y-62405112D01*
X137793439Y-62405113D01*
X137602577Y-62479054D01*
X137602566Y-62479059D01*
X137428536Y-62586814D01*
X137277266Y-62724715D01*
X137153913Y-62888063D01*
X137062671Y-63071301D01*
X137006654Y-63268180D01*
X136987768Y-63471995D01*
X136666232Y-63471995D01*
X136660132Y-63406174D01*
X136648348Y-63279007D01*
X136647345Y-63268179D01*
X136591328Y-63071299D01*
X136500088Y-62888065D01*
X136451294Y-62823451D01*
X136376733Y-62724715D01*
X136225463Y-62586814D01*
X136051433Y-62479059D01*
X136051428Y-62479057D01*
X136051427Y-62479056D01*
X136026670Y-62469465D01*
X135860559Y-62405113D01*
X135860560Y-62405113D01*
X135860557Y-62405112D01*
X135860556Y-62405112D01*
X135659347Y-62367500D01*
X135454653Y-62367500D01*
X135253444Y-62405112D01*
X135253439Y-62405113D01*
X135062577Y-62479054D01*
X135062566Y-62479059D01*
X134888536Y-62586814D01*
X134737266Y-62724715D01*
X134613913Y-62888063D01*
X134522671Y-63071301D01*
X134466654Y-63268180D01*
X134447768Y-63471995D01*
X134126232Y-63471995D01*
X134120132Y-63406174D01*
X134108348Y-63279007D01*
X134107345Y-63268179D01*
X134051328Y-63071299D01*
X133960088Y-62888065D01*
X133911294Y-62823451D01*
X133836733Y-62724715D01*
X133685463Y-62586814D01*
X133511433Y-62479059D01*
X133511428Y-62479057D01*
X133511427Y-62479056D01*
X133486670Y-62469465D01*
X133320559Y-62405113D01*
X133320560Y-62405113D01*
X133320557Y-62405112D01*
X133320556Y-62405112D01*
X133119347Y-62367500D01*
X132914653Y-62367500D01*
X132713444Y-62405112D01*
X132713439Y-62405113D01*
X132522577Y-62479054D01*
X132522566Y-62479059D01*
X132348536Y-62586814D01*
X132197266Y-62724715D01*
X132073913Y-62888063D01*
X131982671Y-63071301D01*
X131926654Y-63268180D01*
X131907768Y-63471995D01*
X131586232Y-63471995D01*
X131580132Y-63406174D01*
X131568348Y-63279007D01*
X131567345Y-63268179D01*
X131511328Y-63071299D01*
X131420088Y-62888065D01*
X131371294Y-62823451D01*
X131296733Y-62724715D01*
X131145463Y-62586814D01*
X130971433Y-62479059D01*
X130971428Y-62479057D01*
X130971427Y-62479056D01*
X130946670Y-62469465D01*
X130780559Y-62405113D01*
X130780560Y-62405113D01*
X130780557Y-62405112D01*
X130780556Y-62405112D01*
X130579347Y-62367500D01*
X130374653Y-62367500D01*
X130173444Y-62405112D01*
X130173439Y-62405113D01*
X129982577Y-62479054D01*
X129982566Y-62479059D01*
X129808536Y-62586814D01*
X129657266Y-62724715D01*
X129533913Y-62888063D01*
X129442671Y-63071301D01*
X129386654Y-63268180D01*
X129367768Y-63471995D01*
X129046232Y-63471995D01*
X129040132Y-63406174D01*
X129028348Y-63279007D01*
X129027345Y-63268179D01*
X128971328Y-63071299D01*
X128880088Y-62888065D01*
X128831294Y-62823451D01*
X128756733Y-62724715D01*
X128605463Y-62586814D01*
X128431433Y-62479059D01*
X128431428Y-62479057D01*
X128431427Y-62479056D01*
X128406670Y-62469465D01*
X128240559Y-62405113D01*
X128240560Y-62405113D01*
X128240557Y-62405112D01*
X128240556Y-62405112D01*
X128039347Y-62367500D01*
X127834653Y-62367500D01*
X127633444Y-62405112D01*
X127633439Y-62405113D01*
X127442577Y-62479054D01*
X127442566Y-62479059D01*
X127268536Y-62586814D01*
X127117266Y-62724715D01*
X126993913Y-62888063D01*
X126902671Y-63071301D01*
X126846654Y-63268180D01*
X126827768Y-63471995D01*
X126506232Y-63471995D01*
X126500132Y-63406174D01*
X126488348Y-63279007D01*
X126487345Y-63268179D01*
X126431328Y-63071299D01*
X126340088Y-62888065D01*
X126291294Y-62823451D01*
X126216733Y-62724715D01*
X126065463Y-62586814D01*
X125891433Y-62479059D01*
X125891428Y-62479057D01*
X125891427Y-62479056D01*
X125866670Y-62469465D01*
X125700559Y-62405113D01*
X125700560Y-62405113D01*
X125700557Y-62405112D01*
X125700556Y-62405112D01*
X125499347Y-62367500D01*
X125294653Y-62367500D01*
X125093444Y-62405112D01*
X125093439Y-62405113D01*
X124902577Y-62479054D01*
X124902566Y-62479059D01*
X124728536Y-62586814D01*
X124577266Y-62724715D01*
X124453913Y-62888063D01*
X124362671Y-63071301D01*
X124306654Y-63268180D01*
X124287768Y-63471995D01*
X123966232Y-63471995D01*
X123960132Y-63406174D01*
X123948348Y-63279007D01*
X123947345Y-63268179D01*
X123891328Y-63071299D01*
X123800088Y-62888065D01*
X123751294Y-62823451D01*
X123676733Y-62724715D01*
X123525463Y-62586814D01*
X123351433Y-62479059D01*
X123351428Y-62479057D01*
X123351427Y-62479056D01*
X123326670Y-62469465D01*
X123160559Y-62405113D01*
X123160560Y-62405113D01*
X123160557Y-62405112D01*
X123160556Y-62405112D01*
X122959347Y-62367500D01*
X122754653Y-62367500D01*
X122553444Y-62405112D01*
X122553439Y-62405113D01*
X122362577Y-62479054D01*
X122362566Y-62479059D01*
X122188536Y-62586814D01*
X122037266Y-62724715D01*
X121913913Y-62888063D01*
X121822671Y-63071301D01*
X121766654Y-63268180D01*
X121747768Y-63471995D01*
X121426232Y-63471995D01*
X121420132Y-63406174D01*
X121408348Y-63279007D01*
X121407345Y-63268179D01*
X121351328Y-63071299D01*
X121260088Y-62888065D01*
X121211294Y-62823451D01*
X121136733Y-62724715D01*
X120985463Y-62586814D01*
X120811433Y-62479059D01*
X120811428Y-62479057D01*
X120811427Y-62479056D01*
X120786670Y-62469465D01*
X120620559Y-62405113D01*
X120620560Y-62405113D01*
X120620557Y-62405112D01*
X120620556Y-62405112D01*
X120419347Y-62367500D01*
X120214653Y-62367500D01*
X120013444Y-62405112D01*
X120013439Y-62405113D01*
X119822577Y-62479054D01*
X119822566Y-62479059D01*
X119648536Y-62586814D01*
X119497266Y-62724715D01*
X119373913Y-62888063D01*
X119282671Y-63071301D01*
X119226654Y-63268180D01*
X119207768Y-63471995D01*
X118886232Y-63471995D01*
X118880132Y-63406174D01*
X118868348Y-63279007D01*
X118867345Y-63268179D01*
X118811328Y-63071299D01*
X118720088Y-62888065D01*
X118671294Y-62823451D01*
X118596733Y-62724715D01*
X118445463Y-62586814D01*
X118271433Y-62479059D01*
X118271428Y-62479057D01*
X118271427Y-62479056D01*
X118246670Y-62469465D01*
X118080559Y-62405113D01*
X118080560Y-62405113D01*
X118080557Y-62405112D01*
X118080556Y-62405112D01*
X117879347Y-62367500D01*
X117674653Y-62367500D01*
X117473444Y-62405112D01*
X117473439Y-62405113D01*
X117282577Y-62479054D01*
X117282566Y-62479059D01*
X117108536Y-62586814D01*
X116957266Y-62724715D01*
X116833913Y-62888063D01*
X116742671Y-63071301D01*
X116686654Y-63268180D01*
X116667768Y-63471995D01*
X116346232Y-63471995D01*
X116340132Y-63406174D01*
X116328348Y-63279007D01*
X116327345Y-63268179D01*
X116271328Y-63071299D01*
X116180088Y-62888065D01*
X116131294Y-62823451D01*
X116056733Y-62724715D01*
X115905463Y-62586814D01*
X115731433Y-62479059D01*
X115731428Y-62479057D01*
X115731427Y-62479056D01*
X115706670Y-62469465D01*
X115540559Y-62405113D01*
X115540560Y-62405113D01*
X115540557Y-62405112D01*
X115540556Y-62405112D01*
X115339347Y-62367500D01*
X115134653Y-62367500D01*
X114933444Y-62405112D01*
X114933439Y-62405113D01*
X114742577Y-62479054D01*
X114742566Y-62479059D01*
X114568536Y-62586814D01*
X114417266Y-62724715D01*
X114293913Y-62888063D01*
X114202671Y-63071301D01*
X114146654Y-63268180D01*
X114127768Y-63471995D01*
X113806232Y-63471995D01*
X113800132Y-63406174D01*
X113788348Y-63279007D01*
X113787345Y-63268179D01*
X113731328Y-63071299D01*
X113640088Y-62888065D01*
X113591294Y-62823451D01*
X113516733Y-62724715D01*
X113365463Y-62586814D01*
X113191433Y-62479059D01*
X113191428Y-62479057D01*
X113191427Y-62479056D01*
X113166670Y-62469465D01*
X113000559Y-62405113D01*
X113000560Y-62405113D01*
X113000557Y-62405112D01*
X113000556Y-62405112D01*
X112799347Y-62367500D01*
X112594653Y-62367500D01*
X112393444Y-62405112D01*
X112393439Y-62405113D01*
X112202577Y-62479054D01*
X112202566Y-62479059D01*
X112028536Y-62586814D01*
X111877266Y-62724715D01*
X111753913Y-62888063D01*
X111662671Y-63071301D01*
X111606654Y-63268180D01*
X111587768Y-63471995D01*
X111266232Y-63471995D01*
X111260132Y-63406174D01*
X111248348Y-63279007D01*
X111247345Y-63268179D01*
X111191328Y-63071299D01*
X111100088Y-62888065D01*
X111051294Y-62823451D01*
X110976733Y-62724715D01*
X110825463Y-62586814D01*
X110651433Y-62479059D01*
X110651428Y-62479057D01*
X110651427Y-62479056D01*
X110626670Y-62469465D01*
X110460559Y-62405113D01*
X110460560Y-62405113D01*
X110460557Y-62405112D01*
X110460556Y-62405112D01*
X110259347Y-62367500D01*
X110054653Y-62367500D01*
X109853444Y-62405112D01*
X109853439Y-62405113D01*
X109662577Y-62479054D01*
X109662566Y-62479059D01*
X109488536Y-62586814D01*
X109337266Y-62724715D01*
X109213913Y-62888063D01*
X109122671Y-63071301D01*
X109066654Y-63268180D01*
X109047768Y-63471995D01*
X108726232Y-63471995D01*
X108720132Y-63406174D01*
X108708348Y-63279007D01*
X108707345Y-63268179D01*
X108651328Y-63071299D01*
X108560088Y-62888065D01*
X108511294Y-62823451D01*
X108436733Y-62724715D01*
X108285463Y-62586814D01*
X108111433Y-62479059D01*
X108111428Y-62479057D01*
X108111427Y-62479056D01*
X108086670Y-62469465D01*
X107920559Y-62405113D01*
X107920560Y-62405113D01*
X107920557Y-62405112D01*
X107920556Y-62405112D01*
X107719347Y-62367500D01*
X107514653Y-62367500D01*
X107313444Y-62405112D01*
X107313439Y-62405113D01*
X107122577Y-62479054D01*
X107122566Y-62479059D01*
X106948536Y-62586814D01*
X106797266Y-62724715D01*
X106673913Y-62888063D01*
X106582671Y-63071301D01*
X106526654Y-63268180D01*
X106507768Y-63471995D01*
X106181499Y-63471995D01*
X106181499Y-62596934D01*
X106181498Y-62596930D01*
X106181498Y-62596926D01*
X106166734Y-62522699D01*
X106110483Y-62438515D01*
X106026302Y-62382266D01*
X105952067Y-62367500D01*
X104201936Y-62367500D01*
X104201926Y-62367501D01*
X104127699Y-62382265D01*
X104043515Y-62438516D01*
X103987266Y-62522697D01*
X103972500Y-62596930D01*
X100500500Y-62596930D01*
X100500500Y-60931995D01*
X103967768Y-60931995D01*
X103967768Y-60932004D01*
X103986654Y-61135819D01*
X103986655Y-61135821D01*
X104042672Y-61332701D01*
X104133912Y-61515935D01*
X104133913Y-61515936D01*
X104257266Y-61679284D01*
X104408536Y-61817185D01*
X104582566Y-61924940D01*
X104582568Y-61924940D01*
X104582573Y-61924944D01*
X104773444Y-61998888D01*
X104974653Y-62036500D01*
X104974655Y-62036500D01*
X105179345Y-62036500D01*
X105179347Y-62036500D01*
X105380556Y-61998888D01*
X105571427Y-61924944D01*
X105745462Y-61817186D01*
X105896732Y-61679285D01*
X106020088Y-61515935D01*
X106111328Y-61332701D01*
X106167345Y-61135821D01*
X106186232Y-60932000D01*
X106186232Y-60931995D01*
X106507768Y-60931995D01*
X106507768Y-60932004D01*
X106526654Y-61135819D01*
X106526655Y-61135821D01*
X106582672Y-61332701D01*
X106673912Y-61515935D01*
X106673913Y-61515936D01*
X106797266Y-61679284D01*
X106948536Y-61817185D01*
X107122566Y-61924940D01*
X107122568Y-61924940D01*
X107122573Y-61924944D01*
X107313444Y-61998888D01*
X107514653Y-62036500D01*
X107514655Y-62036500D01*
X107719345Y-62036500D01*
X107719347Y-62036500D01*
X107920556Y-61998888D01*
X108111427Y-61924944D01*
X108285462Y-61817186D01*
X108436732Y-61679285D01*
X108560088Y-61515935D01*
X108651328Y-61332701D01*
X108707345Y-61135821D01*
X108726232Y-60932000D01*
X108726232Y-60931995D01*
X109047768Y-60931995D01*
X109047768Y-60932004D01*
X109066654Y-61135819D01*
X109066655Y-61135821D01*
X109122672Y-61332701D01*
X109213912Y-61515935D01*
X109213913Y-61515936D01*
X109337266Y-61679284D01*
X109488536Y-61817185D01*
X109662566Y-61924940D01*
X109662568Y-61924940D01*
X109662573Y-61924944D01*
X109853444Y-61998888D01*
X110054653Y-62036500D01*
X110054655Y-62036500D01*
X110259345Y-62036500D01*
X110259347Y-62036500D01*
X110460556Y-61998888D01*
X110651427Y-61924944D01*
X110825462Y-61817186D01*
X110976732Y-61679285D01*
X111100088Y-61515935D01*
X111191328Y-61332701D01*
X111247345Y-61135821D01*
X111266232Y-60932000D01*
X111266232Y-60931995D01*
X111587768Y-60931995D01*
X111587768Y-60932004D01*
X111606654Y-61135819D01*
X111606655Y-61135821D01*
X111662672Y-61332701D01*
X111753912Y-61515935D01*
X111753913Y-61515936D01*
X111877266Y-61679284D01*
X112028536Y-61817185D01*
X112202566Y-61924940D01*
X112202568Y-61924940D01*
X112202573Y-61924944D01*
X112393444Y-61998888D01*
X112594653Y-62036500D01*
X112594655Y-62036500D01*
X112799345Y-62036500D01*
X112799347Y-62036500D01*
X113000556Y-61998888D01*
X113191427Y-61924944D01*
X113365462Y-61817186D01*
X113516732Y-61679285D01*
X113640088Y-61515935D01*
X113731328Y-61332701D01*
X113787345Y-61135821D01*
X113806232Y-60932000D01*
X113806232Y-60931995D01*
X114127768Y-60931995D01*
X114127768Y-60932004D01*
X114146654Y-61135819D01*
X114146655Y-61135821D01*
X114202672Y-61332701D01*
X114293912Y-61515935D01*
X114293913Y-61515936D01*
X114417266Y-61679284D01*
X114568536Y-61817185D01*
X114742566Y-61924940D01*
X114742568Y-61924940D01*
X114742573Y-61924944D01*
X114933444Y-61998888D01*
X115134653Y-62036500D01*
X115134655Y-62036500D01*
X115339345Y-62036500D01*
X115339347Y-62036500D01*
X115540556Y-61998888D01*
X115731427Y-61924944D01*
X115905462Y-61817186D01*
X116056732Y-61679285D01*
X116180088Y-61515935D01*
X116271328Y-61332701D01*
X116327345Y-61135821D01*
X116346232Y-60932000D01*
X116346232Y-60931995D01*
X116667768Y-60931995D01*
X116667768Y-60932004D01*
X116686654Y-61135819D01*
X116686655Y-61135821D01*
X116742672Y-61332701D01*
X116833912Y-61515935D01*
X116833913Y-61515936D01*
X116957266Y-61679284D01*
X117108536Y-61817185D01*
X117282566Y-61924940D01*
X117282568Y-61924940D01*
X117282573Y-61924944D01*
X117473444Y-61998888D01*
X117674653Y-62036500D01*
X117674655Y-62036500D01*
X117879345Y-62036500D01*
X117879347Y-62036500D01*
X118080556Y-61998888D01*
X118271427Y-61924944D01*
X118445462Y-61817186D01*
X118596732Y-61679285D01*
X118720088Y-61515935D01*
X118811328Y-61332701D01*
X118867345Y-61135821D01*
X118886232Y-60932000D01*
X118886232Y-60931995D01*
X119207768Y-60931995D01*
X119207768Y-60932004D01*
X119226654Y-61135819D01*
X119226655Y-61135821D01*
X119282672Y-61332701D01*
X119373912Y-61515935D01*
X119373913Y-61515936D01*
X119497266Y-61679284D01*
X119648536Y-61817185D01*
X119822566Y-61924940D01*
X119822568Y-61924940D01*
X119822573Y-61924944D01*
X120013444Y-61998888D01*
X120214653Y-62036500D01*
X120214655Y-62036500D01*
X120419345Y-62036500D01*
X120419347Y-62036500D01*
X120620556Y-61998888D01*
X120811427Y-61924944D01*
X120985462Y-61817186D01*
X121136732Y-61679285D01*
X121260088Y-61515935D01*
X121351328Y-61332701D01*
X121407345Y-61135821D01*
X121426232Y-60932000D01*
X121426232Y-60931995D01*
X121747768Y-60931995D01*
X121747768Y-60932004D01*
X121766654Y-61135819D01*
X121766655Y-61135821D01*
X121822672Y-61332701D01*
X121913912Y-61515935D01*
X121913913Y-61515936D01*
X122037266Y-61679284D01*
X122188536Y-61817185D01*
X122362566Y-61924940D01*
X122362568Y-61924940D01*
X122362573Y-61924944D01*
X122553444Y-61998888D01*
X122754653Y-62036500D01*
X122754655Y-62036500D01*
X122959345Y-62036500D01*
X122959347Y-62036500D01*
X123160556Y-61998888D01*
X123351427Y-61924944D01*
X123525462Y-61817186D01*
X123676732Y-61679285D01*
X123800088Y-61515935D01*
X123891328Y-61332701D01*
X123947345Y-61135821D01*
X123966232Y-60932000D01*
X123966232Y-60931995D01*
X124287768Y-60931995D01*
X124287768Y-60932004D01*
X124306654Y-61135819D01*
X124306655Y-61135821D01*
X124362672Y-61332701D01*
X124453912Y-61515935D01*
X124453913Y-61515936D01*
X124577266Y-61679284D01*
X124728536Y-61817185D01*
X124902566Y-61924940D01*
X124902568Y-61924940D01*
X124902573Y-61924944D01*
X125093444Y-61998888D01*
X125294653Y-62036500D01*
X125294655Y-62036500D01*
X125499345Y-62036500D01*
X125499347Y-62036500D01*
X125700556Y-61998888D01*
X125891427Y-61924944D01*
X126065462Y-61817186D01*
X126216732Y-61679285D01*
X126340088Y-61515935D01*
X126431328Y-61332701D01*
X126487345Y-61135821D01*
X126506232Y-60932000D01*
X126506232Y-60931995D01*
X126827768Y-60931995D01*
X126827768Y-60932004D01*
X126846654Y-61135819D01*
X126846655Y-61135821D01*
X126902672Y-61332701D01*
X126993912Y-61515935D01*
X126993913Y-61515936D01*
X127117266Y-61679284D01*
X127268536Y-61817185D01*
X127442566Y-61924940D01*
X127442568Y-61924940D01*
X127442573Y-61924944D01*
X127633444Y-61998888D01*
X127834653Y-62036500D01*
X127834655Y-62036500D01*
X128039345Y-62036500D01*
X128039347Y-62036500D01*
X128240556Y-61998888D01*
X128431427Y-61924944D01*
X128605462Y-61817186D01*
X128756732Y-61679285D01*
X128880088Y-61515935D01*
X128971328Y-61332701D01*
X129027345Y-61135821D01*
X129046232Y-60932000D01*
X129046232Y-60931995D01*
X129367768Y-60931995D01*
X129367768Y-60932004D01*
X129386654Y-61135819D01*
X129386655Y-61135821D01*
X129442672Y-61332701D01*
X129533912Y-61515935D01*
X129533913Y-61515936D01*
X129657266Y-61679284D01*
X129808536Y-61817185D01*
X129982566Y-61924940D01*
X129982568Y-61924940D01*
X129982573Y-61924944D01*
X130173444Y-61998888D01*
X130374653Y-62036500D01*
X130374655Y-62036500D01*
X130579345Y-62036500D01*
X130579347Y-62036500D01*
X130780556Y-61998888D01*
X130971427Y-61924944D01*
X131145462Y-61817186D01*
X131296732Y-61679285D01*
X131420088Y-61515935D01*
X131511328Y-61332701D01*
X131567345Y-61135821D01*
X131586232Y-60932000D01*
X131586232Y-60931995D01*
X131907768Y-60931995D01*
X131907768Y-60932004D01*
X131926654Y-61135819D01*
X131926655Y-61135821D01*
X131982672Y-61332701D01*
X132073912Y-61515935D01*
X132073913Y-61515936D01*
X132197266Y-61679284D01*
X132348536Y-61817185D01*
X132522566Y-61924940D01*
X132522568Y-61924940D01*
X132522573Y-61924944D01*
X132713444Y-61998888D01*
X132914653Y-62036500D01*
X132914655Y-62036500D01*
X133119345Y-62036500D01*
X133119347Y-62036500D01*
X133320556Y-61998888D01*
X133511427Y-61924944D01*
X133685462Y-61817186D01*
X133836732Y-61679285D01*
X133960088Y-61515935D01*
X134051328Y-61332701D01*
X134107345Y-61135821D01*
X134126232Y-60932000D01*
X134126232Y-60931995D01*
X134447768Y-60931995D01*
X134447768Y-60932004D01*
X134466654Y-61135819D01*
X134466655Y-61135821D01*
X134522672Y-61332701D01*
X134613912Y-61515935D01*
X134613913Y-61515936D01*
X134737266Y-61679284D01*
X134888536Y-61817185D01*
X135062566Y-61924940D01*
X135062568Y-61924940D01*
X135062573Y-61924944D01*
X135253444Y-61998888D01*
X135454653Y-62036500D01*
X135454655Y-62036500D01*
X135659345Y-62036500D01*
X135659347Y-62036500D01*
X135860556Y-61998888D01*
X136051427Y-61924944D01*
X136225462Y-61817186D01*
X136376732Y-61679285D01*
X136500088Y-61515935D01*
X136591328Y-61332701D01*
X136647345Y-61135821D01*
X136666232Y-60932000D01*
X136666232Y-60931995D01*
X136987768Y-60931995D01*
X136987768Y-60932004D01*
X137006654Y-61135819D01*
X137006655Y-61135821D01*
X137062672Y-61332701D01*
X137153912Y-61515935D01*
X137153913Y-61515936D01*
X137277266Y-61679284D01*
X137428536Y-61817185D01*
X137602566Y-61924940D01*
X137602568Y-61924940D01*
X137602573Y-61924944D01*
X137793444Y-61998888D01*
X137994653Y-62036500D01*
X137994655Y-62036500D01*
X138199345Y-62036500D01*
X138199347Y-62036500D01*
X138400556Y-61998888D01*
X138591427Y-61924944D01*
X138765462Y-61817186D01*
X138916732Y-61679285D01*
X139040088Y-61515935D01*
X139131328Y-61332701D01*
X139187345Y-61135821D01*
X139206232Y-60932000D01*
X139206232Y-60931995D01*
X139527768Y-60931995D01*
X139527768Y-60932004D01*
X139546654Y-61135819D01*
X139546655Y-61135821D01*
X139602672Y-61332701D01*
X139693912Y-61515935D01*
X139693913Y-61515936D01*
X139817266Y-61679284D01*
X139968536Y-61817185D01*
X140142566Y-61924940D01*
X140142568Y-61924940D01*
X140142573Y-61924944D01*
X140333444Y-61998888D01*
X140534653Y-62036500D01*
X140534655Y-62036500D01*
X140739345Y-62036500D01*
X140739347Y-62036500D01*
X140940556Y-61998888D01*
X141131427Y-61924944D01*
X141305462Y-61817186D01*
X141456732Y-61679285D01*
X141580088Y-61515935D01*
X141671328Y-61332701D01*
X141727345Y-61135821D01*
X141746232Y-60932000D01*
X141746232Y-60931995D01*
X142067768Y-60931995D01*
X142067768Y-60932004D01*
X142086654Y-61135819D01*
X142086655Y-61135821D01*
X142142672Y-61332701D01*
X142233912Y-61515935D01*
X142233913Y-61515936D01*
X142357266Y-61679284D01*
X142508536Y-61817185D01*
X142682566Y-61924940D01*
X142682568Y-61924940D01*
X142682573Y-61924944D01*
X142873444Y-61998888D01*
X143074653Y-62036500D01*
X143074655Y-62036500D01*
X143279345Y-62036500D01*
X143279347Y-62036500D01*
X143480556Y-61998888D01*
X143671427Y-61924944D01*
X143845462Y-61817186D01*
X143996732Y-61679285D01*
X144120088Y-61515935D01*
X144211328Y-61332701D01*
X144267345Y-61135821D01*
X144286232Y-60932000D01*
X144286232Y-60931995D01*
X144607768Y-60931995D01*
X144607768Y-60932004D01*
X144626654Y-61135819D01*
X144626655Y-61135821D01*
X144682672Y-61332701D01*
X144773912Y-61515935D01*
X144773913Y-61515936D01*
X144897266Y-61679284D01*
X145048536Y-61817185D01*
X145222566Y-61924940D01*
X145222568Y-61924940D01*
X145222573Y-61924944D01*
X145413444Y-61998888D01*
X145614653Y-62036500D01*
X145614655Y-62036500D01*
X145819345Y-62036500D01*
X145819347Y-62036500D01*
X146020556Y-61998888D01*
X146211427Y-61924944D01*
X146385462Y-61817186D01*
X146536732Y-61679285D01*
X146660088Y-61515935D01*
X146751328Y-61332701D01*
X146807345Y-61135821D01*
X146826232Y-60932000D01*
X146826232Y-60931995D01*
X147147768Y-60931995D01*
X147147768Y-60932004D01*
X147166654Y-61135819D01*
X147166655Y-61135821D01*
X147222672Y-61332701D01*
X147313912Y-61515935D01*
X147313913Y-61515936D01*
X147437266Y-61679284D01*
X147588536Y-61817185D01*
X147762566Y-61924940D01*
X147762568Y-61924940D01*
X147762573Y-61924944D01*
X147953444Y-61998888D01*
X148154653Y-62036500D01*
X148154655Y-62036500D01*
X148359345Y-62036500D01*
X148359347Y-62036500D01*
X148560556Y-61998888D01*
X148751427Y-61924944D01*
X148925462Y-61817186D01*
X149076732Y-61679285D01*
X149200088Y-61515935D01*
X149291328Y-61332701D01*
X149347345Y-61135821D01*
X149366232Y-60932000D01*
X149366232Y-60931995D01*
X149687768Y-60931995D01*
X149687768Y-60932004D01*
X149706654Y-61135819D01*
X149706655Y-61135821D01*
X149762672Y-61332701D01*
X149853912Y-61515935D01*
X149853913Y-61515936D01*
X149977266Y-61679284D01*
X150128536Y-61817185D01*
X150302566Y-61924940D01*
X150302568Y-61924940D01*
X150302573Y-61924944D01*
X150493444Y-61998888D01*
X150694653Y-62036500D01*
X150694655Y-62036500D01*
X150899345Y-62036500D01*
X150899347Y-62036500D01*
X151100556Y-61998888D01*
X151291427Y-61924944D01*
X151465462Y-61817186D01*
X151616732Y-61679285D01*
X151740088Y-61515935D01*
X151831328Y-61332701D01*
X151887345Y-61135821D01*
X151906232Y-60932000D01*
X151887345Y-60728179D01*
X151831328Y-60531299D01*
X151740088Y-60348065D01*
X151699538Y-60294368D01*
X151616733Y-60184715D01*
X151465463Y-60046814D01*
X151291433Y-59939059D01*
X151291428Y-59939057D01*
X151291427Y-59939056D01*
X151100559Y-59865113D01*
X151100560Y-59865113D01*
X151100557Y-59865112D01*
X151100556Y-59865112D01*
X150899347Y-59827500D01*
X150694653Y-59827500D01*
X150493444Y-59865112D01*
X150493439Y-59865113D01*
X150302577Y-59939054D01*
X150302566Y-59939059D01*
X150128536Y-60046814D01*
X149977266Y-60184715D01*
X149853913Y-60348063D01*
X149762671Y-60531301D01*
X149706654Y-60728180D01*
X149687768Y-60931995D01*
X149366232Y-60931995D01*
X149347345Y-60728179D01*
X149291328Y-60531299D01*
X149200088Y-60348065D01*
X149159538Y-60294368D01*
X149076733Y-60184715D01*
X148925463Y-60046814D01*
X148751433Y-59939059D01*
X148751428Y-59939057D01*
X148751427Y-59939056D01*
X148560559Y-59865113D01*
X148560560Y-59865113D01*
X148560557Y-59865112D01*
X148560556Y-59865112D01*
X148359347Y-59827500D01*
X148154653Y-59827500D01*
X147953444Y-59865112D01*
X147953439Y-59865113D01*
X147762577Y-59939054D01*
X147762566Y-59939059D01*
X147588536Y-60046814D01*
X147437266Y-60184715D01*
X147313913Y-60348063D01*
X147222671Y-60531301D01*
X147166654Y-60728180D01*
X147147768Y-60931995D01*
X146826232Y-60931995D01*
X146807345Y-60728179D01*
X146751328Y-60531299D01*
X146660088Y-60348065D01*
X146619538Y-60294368D01*
X146536733Y-60184715D01*
X146385463Y-60046814D01*
X146211433Y-59939059D01*
X146211428Y-59939057D01*
X146211427Y-59939056D01*
X146020559Y-59865113D01*
X146020560Y-59865113D01*
X146020557Y-59865112D01*
X146020556Y-59865112D01*
X145819347Y-59827500D01*
X145614653Y-59827500D01*
X145413444Y-59865112D01*
X145413439Y-59865113D01*
X145222577Y-59939054D01*
X145222566Y-59939059D01*
X145048536Y-60046814D01*
X144897266Y-60184715D01*
X144773913Y-60348063D01*
X144682671Y-60531301D01*
X144626654Y-60728180D01*
X144607768Y-60931995D01*
X144286232Y-60931995D01*
X144267345Y-60728179D01*
X144211328Y-60531299D01*
X144120088Y-60348065D01*
X144079538Y-60294368D01*
X143996733Y-60184715D01*
X143845463Y-60046814D01*
X143671433Y-59939059D01*
X143671428Y-59939057D01*
X143671427Y-59939056D01*
X143480559Y-59865113D01*
X143480560Y-59865113D01*
X143480557Y-59865112D01*
X143480556Y-59865112D01*
X143279347Y-59827500D01*
X143074653Y-59827500D01*
X142873444Y-59865112D01*
X142873439Y-59865113D01*
X142682577Y-59939054D01*
X142682566Y-59939059D01*
X142508536Y-60046814D01*
X142357266Y-60184715D01*
X142233913Y-60348063D01*
X142142671Y-60531301D01*
X142086654Y-60728180D01*
X142067768Y-60931995D01*
X141746232Y-60931995D01*
X141727345Y-60728179D01*
X141671328Y-60531299D01*
X141580088Y-60348065D01*
X141539538Y-60294368D01*
X141456733Y-60184715D01*
X141305463Y-60046814D01*
X141131433Y-59939059D01*
X141131428Y-59939057D01*
X141131427Y-59939056D01*
X140940559Y-59865113D01*
X140940560Y-59865113D01*
X140940557Y-59865112D01*
X140940556Y-59865112D01*
X140739347Y-59827500D01*
X140534653Y-59827500D01*
X140333444Y-59865112D01*
X140333439Y-59865113D01*
X140142577Y-59939054D01*
X140142566Y-59939059D01*
X139968536Y-60046814D01*
X139817266Y-60184715D01*
X139693913Y-60348063D01*
X139602671Y-60531301D01*
X139546654Y-60728180D01*
X139527768Y-60931995D01*
X139206232Y-60931995D01*
X139187345Y-60728179D01*
X139131328Y-60531299D01*
X139040088Y-60348065D01*
X138999538Y-60294368D01*
X138916733Y-60184715D01*
X138765463Y-60046814D01*
X138591433Y-59939059D01*
X138591428Y-59939057D01*
X138591427Y-59939056D01*
X138400559Y-59865113D01*
X138400560Y-59865113D01*
X138400557Y-59865112D01*
X138400556Y-59865112D01*
X138199347Y-59827500D01*
X137994653Y-59827500D01*
X137793444Y-59865112D01*
X137793439Y-59865113D01*
X137602577Y-59939054D01*
X137602566Y-59939059D01*
X137428536Y-60046814D01*
X137277266Y-60184715D01*
X137153913Y-60348063D01*
X137062671Y-60531301D01*
X137006654Y-60728180D01*
X136987768Y-60931995D01*
X136666232Y-60931995D01*
X136647345Y-60728179D01*
X136591328Y-60531299D01*
X136500088Y-60348065D01*
X136459538Y-60294368D01*
X136376733Y-60184715D01*
X136225463Y-60046814D01*
X136051433Y-59939059D01*
X136051428Y-59939057D01*
X136051427Y-59939056D01*
X135860559Y-59865113D01*
X135860560Y-59865113D01*
X135860557Y-59865112D01*
X135860556Y-59865112D01*
X135659347Y-59827500D01*
X135454653Y-59827500D01*
X135253444Y-59865112D01*
X135253439Y-59865113D01*
X135062577Y-59939054D01*
X135062566Y-59939059D01*
X134888536Y-60046814D01*
X134737266Y-60184715D01*
X134613913Y-60348063D01*
X134522671Y-60531301D01*
X134466654Y-60728180D01*
X134447768Y-60931995D01*
X134126232Y-60931995D01*
X134107345Y-60728179D01*
X134051328Y-60531299D01*
X133960088Y-60348065D01*
X133919538Y-60294368D01*
X133836733Y-60184715D01*
X133685463Y-60046814D01*
X133511433Y-59939059D01*
X133511428Y-59939057D01*
X133511427Y-59939056D01*
X133320559Y-59865113D01*
X133320560Y-59865113D01*
X133320557Y-59865112D01*
X133320556Y-59865112D01*
X133119347Y-59827500D01*
X132914653Y-59827500D01*
X132713444Y-59865112D01*
X132713439Y-59865113D01*
X132522577Y-59939054D01*
X132522566Y-59939059D01*
X132348536Y-60046814D01*
X132197266Y-60184715D01*
X132073913Y-60348063D01*
X131982671Y-60531301D01*
X131926654Y-60728180D01*
X131907768Y-60931995D01*
X131586232Y-60931995D01*
X131567345Y-60728179D01*
X131511328Y-60531299D01*
X131420088Y-60348065D01*
X131379538Y-60294368D01*
X131296733Y-60184715D01*
X131145463Y-60046814D01*
X130971433Y-59939059D01*
X130971428Y-59939057D01*
X130971427Y-59939056D01*
X130780559Y-59865113D01*
X130780560Y-59865113D01*
X130780557Y-59865112D01*
X130780556Y-59865112D01*
X130579347Y-59827500D01*
X130374653Y-59827500D01*
X130173444Y-59865112D01*
X130173439Y-59865113D01*
X129982577Y-59939054D01*
X129982566Y-59939059D01*
X129808536Y-60046814D01*
X129657266Y-60184715D01*
X129533913Y-60348063D01*
X129442671Y-60531301D01*
X129386654Y-60728180D01*
X129367768Y-60931995D01*
X129046232Y-60931995D01*
X129027345Y-60728179D01*
X128971328Y-60531299D01*
X128880088Y-60348065D01*
X128839538Y-60294368D01*
X128756733Y-60184715D01*
X128605463Y-60046814D01*
X128431433Y-59939059D01*
X128431428Y-59939057D01*
X128431427Y-59939056D01*
X128240559Y-59865113D01*
X128240560Y-59865113D01*
X128240557Y-59865112D01*
X128240556Y-59865112D01*
X128039347Y-59827500D01*
X127834653Y-59827500D01*
X127633444Y-59865112D01*
X127633439Y-59865113D01*
X127442577Y-59939054D01*
X127442566Y-59939059D01*
X127268536Y-60046814D01*
X127117266Y-60184715D01*
X126993913Y-60348063D01*
X126902671Y-60531301D01*
X126846654Y-60728180D01*
X126827768Y-60931995D01*
X126506232Y-60931995D01*
X126487345Y-60728179D01*
X126431328Y-60531299D01*
X126340088Y-60348065D01*
X126299538Y-60294368D01*
X126216733Y-60184715D01*
X126065463Y-60046814D01*
X125891433Y-59939059D01*
X125891428Y-59939057D01*
X125891427Y-59939056D01*
X125700559Y-59865113D01*
X125700560Y-59865113D01*
X125700557Y-59865112D01*
X125700556Y-59865112D01*
X125499347Y-59827500D01*
X125294653Y-59827500D01*
X125093444Y-59865112D01*
X125093439Y-59865113D01*
X124902577Y-59939054D01*
X124902566Y-59939059D01*
X124728536Y-60046814D01*
X124577266Y-60184715D01*
X124453913Y-60348063D01*
X124362671Y-60531301D01*
X124306654Y-60728180D01*
X124287768Y-60931995D01*
X123966232Y-60931995D01*
X123947345Y-60728179D01*
X123891328Y-60531299D01*
X123800088Y-60348065D01*
X123759538Y-60294368D01*
X123676733Y-60184715D01*
X123525463Y-60046814D01*
X123351433Y-59939059D01*
X123351428Y-59939057D01*
X123351427Y-59939056D01*
X123160559Y-59865113D01*
X123160560Y-59865113D01*
X123160557Y-59865112D01*
X123160556Y-59865112D01*
X122959347Y-59827500D01*
X122754653Y-59827500D01*
X122553444Y-59865112D01*
X122553439Y-59865113D01*
X122362577Y-59939054D01*
X122362566Y-59939059D01*
X122188536Y-60046814D01*
X122037266Y-60184715D01*
X121913913Y-60348063D01*
X121822671Y-60531301D01*
X121766654Y-60728180D01*
X121747768Y-60931995D01*
X121426232Y-60931995D01*
X121407345Y-60728179D01*
X121351328Y-60531299D01*
X121260088Y-60348065D01*
X121219538Y-60294368D01*
X121136733Y-60184715D01*
X120985463Y-60046814D01*
X120811433Y-59939059D01*
X120811428Y-59939057D01*
X120811427Y-59939056D01*
X120620559Y-59865113D01*
X120620560Y-59865113D01*
X120620557Y-59865112D01*
X120620556Y-59865112D01*
X120419347Y-59827500D01*
X120214653Y-59827500D01*
X120013444Y-59865112D01*
X120013439Y-59865113D01*
X119822577Y-59939054D01*
X119822566Y-59939059D01*
X119648536Y-60046814D01*
X119497266Y-60184715D01*
X119373913Y-60348063D01*
X119282671Y-60531301D01*
X119226654Y-60728180D01*
X119207768Y-60931995D01*
X118886232Y-60931995D01*
X118867345Y-60728179D01*
X118811328Y-60531299D01*
X118720088Y-60348065D01*
X118679538Y-60294368D01*
X118596733Y-60184715D01*
X118445463Y-60046814D01*
X118271433Y-59939059D01*
X118271428Y-59939057D01*
X118271427Y-59939056D01*
X118080559Y-59865113D01*
X118080560Y-59865113D01*
X118080557Y-59865112D01*
X118080556Y-59865112D01*
X117879347Y-59827500D01*
X117674653Y-59827500D01*
X117473444Y-59865112D01*
X117473439Y-59865113D01*
X117282577Y-59939054D01*
X117282566Y-59939059D01*
X117108536Y-60046814D01*
X116957266Y-60184715D01*
X116833913Y-60348063D01*
X116742671Y-60531301D01*
X116686654Y-60728180D01*
X116667768Y-60931995D01*
X116346232Y-60931995D01*
X116327345Y-60728179D01*
X116271328Y-60531299D01*
X116180088Y-60348065D01*
X116139538Y-60294368D01*
X116056733Y-60184715D01*
X115905463Y-60046814D01*
X115731433Y-59939059D01*
X115731428Y-59939057D01*
X115731427Y-59939056D01*
X115540559Y-59865113D01*
X115540560Y-59865113D01*
X115540557Y-59865112D01*
X115540556Y-59865112D01*
X115339347Y-59827500D01*
X115134653Y-59827500D01*
X114933444Y-59865112D01*
X114933439Y-59865113D01*
X114742577Y-59939054D01*
X114742566Y-59939059D01*
X114568536Y-60046814D01*
X114417266Y-60184715D01*
X114293913Y-60348063D01*
X114202671Y-60531301D01*
X114146654Y-60728180D01*
X114127768Y-60931995D01*
X113806232Y-60931995D01*
X113787345Y-60728179D01*
X113731328Y-60531299D01*
X113640088Y-60348065D01*
X113599538Y-60294368D01*
X113516733Y-60184715D01*
X113365463Y-60046814D01*
X113191433Y-59939059D01*
X113191428Y-59939057D01*
X113191427Y-59939056D01*
X113000559Y-59865113D01*
X113000560Y-59865113D01*
X113000557Y-59865112D01*
X113000556Y-59865112D01*
X112799347Y-59827500D01*
X112594653Y-59827500D01*
X112393444Y-59865112D01*
X112393439Y-59865113D01*
X112202577Y-59939054D01*
X112202566Y-59939059D01*
X112028536Y-60046814D01*
X111877266Y-60184715D01*
X111753913Y-60348063D01*
X111662671Y-60531301D01*
X111606654Y-60728180D01*
X111587768Y-60931995D01*
X111266232Y-60931995D01*
X111247345Y-60728179D01*
X111191328Y-60531299D01*
X111100088Y-60348065D01*
X111059538Y-60294368D01*
X110976733Y-60184715D01*
X110825463Y-60046814D01*
X110651433Y-59939059D01*
X110651428Y-59939057D01*
X110651427Y-59939056D01*
X110460559Y-59865113D01*
X110460560Y-59865113D01*
X110460557Y-59865112D01*
X110460556Y-59865112D01*
X110259347Y-59827500D01*
X110054653Y-59827500D01*
X109853444Y-59865112D01*
X109853439Y-59865113D01*
X109662577Y-59939054D01*
X109662566Y-59939059D01*
X109488536Y-60046814D01*
X109337266Y-60184715D01*
X109213913Y-60348063D01*
X109122671Y-60531301D01*
X109066654Y-60728180D01*
X109047768Y-60931995D01*
X108726232Y-60931995D01*
X108707345Y-60728179D01*
X108651328Y-60531299D01*
X108560088Y-60348065D01*
X108519538Y-60294368D01*
X108436733Y-60184715D01*
X108285463Y-60046814D01*
X108111433Y-59939059D01*
X108111428Y-59939057D01*
X108111427Y-59939056D01*
X107920559Y-59865113D01*
X107920560Y-59865113D01*
X107920557Y-59865112D01*
X107920556Y-59865112D01*
X107719347Y-59827500D01*
X107514653Y-59827500D01*
X107313444Y-59865112D01*
X107313439Y-59865113D01*
X107122577Y-59939054D01*
X107122566Y-59939059D01*
X106948536Y-60046814D01*
X106797266Y-60184715D01*
X106673913Y-60348063D01*
X106582671Y-60531301D01*
X106526654Y-60728180D01*
X106507768Y-60931995D01*
X106186232Y-60931995D01*
X106167345Y-60728179D01*
X106111328Y-60531299D01*
X106020088Y-60348065D01*
X105979538Y-60294368D01*
X105896733Y-60184715D01*
X105745463Y-60046814D01*
X105571433Y-59939059D01*
X105571428Y-59939057D01*
X105571427Y-59939056D01*
X105380559Y-59865113D01*
X105380560Y-59865113D01*
X105380557Y-59865112D01*
X105380556Y-59865112D01*
X105179347Y-59827500D01*
X104974653Y-59827500D01*
X104773444Y-59865112D01*
X104773439Y-59865113D01*
X104582577Y-59939054D01*
X104582566Y-59939059D01*
X104408536Y-60046814D01*
X104257266Y-60184715D01*
X104133913Y-60348063D01*
X104042671Y-60531301D01*
X103986654Y-60728180D01*
X103967768Y-60931995D01*
X100500500Y-60931995D01*
X100500500Y-53935997D01*
X104845140Y-53935997D01*
X104845140Y-53936002D01*
X104864533Y-54132909D01*
X104864534Y-54132915D01*
X104864535Y-54132916D01*
X104921973Y-54322265D01*
X105015248Y-54496770D01*
X105140775Y-54649725D01*
X105293730Y-54775252D01*
X105468235Y-54868527D01*
X105657584Y-54925965D01*
X105657589Y-54925965D01*
X105657591Y-54925966D01*
X105703234Y-54930461D01*
X105733117Y-54933404D01*
X105798950Y-54959985D01*
X105809864Y-54969702D01*
X108459430Y-57619269D01*
X108459434Y-57619272D01*
X108459435Y-57619273D01*
X108584321Y-57702718D01*
X108723087Y-57760197D01*
X108870400Y-57789500D01*
X142048100Y-57789500D01*
X142195413Y-57760197D01*
X142334179Y-57702718D01*
X142459065Y-57619272D01*
X142565272Y-57513065D01*
X142648718Y-57388179D01*
X142706197Y-57249413D01*
X142735500Y-57102100D01*
X142735500Y-56951900D01*
X142706197Y-56804587D01*
X142706195Y-56804583D01*
X142706193Y-56804575D01*
X142660274Y-56693719D01*
X142652684Y-56623129D01*
X142684463Y-56559642D01*
X142745520Y-56523414D01*
X142776682Y-56519500D01*
X149748600Y-56519500D01*
X149895913Y-56490197D01*
X150034679Y-56432718D01*
X150159565Y-56349273D01*
X151530396Y-54978440D01*
X151592705Y-54944418D01*
X151607131Y-54942145D01*
X151695888Y-54933404D01*
X151771409Y-54925966D01*
X151771410Y-54925965D01*
X151771416Y-54925965D01*
X151960765Y-54868527D01*
X152135270Y-54775252D01*
X152288225Y-54649725D01*
X152413752Y-54496770D01*
X152507027Y-54322265D01*
X152564465Y-54132916D01*
X152564858Y-54128931D01*
X152583860Y-53936002D01*
X152583860Y-53935997D01*
X152564466Y-53739090D01*
X152564465Y-53739088D01*
X152564465Y-53739084D01*
X152507027Y-53549735D01*
X152413752Y-53375230D01*
X152288225Y-53222275D01*
X152135270Y-53096748D01*
X151960765Y-53003473D01*
X151771416Y-52946035D01*
X151771415Y-52946034D01*
X151771409Y-52946033D01*
X151574503Y-52926640D01*
X151574497Y-52926640D01*
X151377590Y-52946033D01*
X151188234Y-53003473D01*
X151013729Y-53096748D01*
X150860775Y-53222275D01*
X150735248Y-53375229D01*
X150641973Y-53549734D01*
X150582739Y-53745006D01*
X150581100Y-53744508D01*
X150551981Y-53800152D01*
X150550420Y-53801740D01*
X150252190Y-54099970D01*
X150189878Y-54133996D01*
X150119063Y-54128931D01*
X150062227Y-54086384D01*
X150037416Y-54019864D01*
X150037702Y-53998525D01*
X150043860Y-53936002D01*
X150043860Y-53935997D01*
X150024466Y-53739090D01*
X150024465Y-53739088D01*
X150024465Y-53739084D01*
X149967027Y-53549735D01*
X149873752Y-53375230D01*
X149748225Y-53222275D01*
X149662368Y-53151814D01*
X149595272Y-53096749D01*
X149515455Y-53054086D01*
X149464807Y-53004333D01*
X149449098Y-52935097D01*
X149473314Y-52868358D01*
X149485750Y-52853876D01*
X149936086Y-52403540D01*
X149998396Y-52369516D01*
X150061755Y-52372063D01*
X150082796Y-52378445D01*
X150107581Y-52385964D01*
X150107584Y-52385965D01*
X150256191Y-52400601D01*
X150304498Y-52405360D01*
X150304500Y-52405360D01*
X150304503Y-52405360D01*
X150501409Y-52385966D01*
X150501410Y-52385965D01*
X150501416Y-52385965D01*
X150690765Y-52328527D01*
X150865270Y-52235252D01*
X151018225Y-52109725D01*
X151143752Y-51956770D01*
X151237027Y-51782265D01*
X151294465Y-51592916D01*
X151299414Y-51542675D01*
X151313860Y-51396002D01*
X151313860Y-51395997D01*
X151294466Y-51199090D01*
X151294465Y-51199088D01*
X151294465Y-51199084D01*
X151237027Y-51009735D01*
X151143752Y-50835230D01*
X151018225Y-50682275D01*
X150914807Y-50597402D01*
X151586500Y-50597402D01*
X151586500Y-51142000D01*
X152561099Y-51142000D01*
X152540424Y-51162675D01*
X152490396Y-51249325D01*
X152464500Y-51345972D01*
X152464500Y-51446028D01*
X152490396Y-51542675D01*
X152540424Y-51629325D01*
X152561099Y-51650000D01*
X151586500Y-51650000D01*
X151586500Y-52194597D01*
X151593005Y-52255093D01*
X151644055Y-52391964D01*
X151644055Y-52391965D01*
X151731595Y-52508904D01*
X151848534Y-52596444D01*
X151985406Y-52647494D01*
X152045902Y-52653999D01*
X152045915Y-52654000D01*
X152590500Y-52654000D01*
X152590500Y-51679401D01*
X152611175Y-51700076D01*
X152697825Y-51750104D01*
X152794472Y-51776000D01*
X152894528Y-51776000D01*
X152991175Y-51750104D01*
X153077825Y-51700076D01*
X153098500Y-51679401D01*
X153098500Y-52654000D01*
X153643085Y-52654000D01*
X153643097Y-52653999D01*
X153703593Y-52647494D01*
X153840464Y-52596444D01*
X153840465Y-52596444D01*
X153957404Y-52508904D01*
X154044944Y-52391965D01*
X154044944Y-52391964D01*
X154095994Y-52255093D01*
X154102499Y-52194597D01*
X154102500Y-52194585D01*
X154102500Y-51650000D01*
X153127901Y-51650000D01*
X153148576Y-51629325D01*
X153198604Y-51542675D01*
X153224500Y-51446028D01*
X153224500Y-51345972D01*
X153198604Y-51249325D01*
X153148576Y-51162675D01*
X153127901Y-51142000D01*
X154102500Y-51142000D01*
X154102500Y-50597414D01*
X154102499Y-50597402D01*
X154095994Y-50536906D01*
X154044944Y-50400035D01*
X154044944Y-50400034D01*
X153957404Y-50283095D01*
X153840465Y-50195555D01*
X153703593Y-50144505D01*
X153643097Y-50138000D01*
X153098500Y-50138000D01*
X153098500Y-51112599D01*
X153077825Y-51091924D01*
X152991175Y-51041896D01*
X152894528Y-51016000D01*
X152794472Y-51016000D01*
X152697825Y-51041896D01*
X152611175Y-51091924D01*
X152590500Y-51112599D01*
X152590500Y-50138000D01*
X152045902Y-50138000D01*
X151985406Y-50144505D01*
X151848535Y-50195555D01*
X151848534Y-50195555D01*
X151731595Y-50283095D01*
X151644055Y-50400034D01*
X151644055Y-50400035D01*
X151593005Y-50536906D01*
X151586500Y-50597402D01*
X150914807Y-50597402D01*
X150865270Y-50556748D01*
X150690765Y-50463473D01*
X150501416Y-50406035D01*
X150501415Y-50406034D01*
X150501409Y-50406033D01*
X150304503Y-50386640D01*
X150304497Y-50386640D01*
X150107590Y-50406033D01*
X149918234Y-50463473D01*
X149743729Y-50556748D01*
X149590775Y-50682275D01*
X149465248Y-50835229D01*
X149371973Y-51009734D01*
X149314533Y-51199090D01*
X149295140Y-51395997D01*
X149295140Y-51396004D01*
X149308147Y-51528076D01*
X149294918Y-51597829D01*
X149271850Y-51629520D01*
X148812994Y-52088377D01*
X148750681Y-52122402D01*
X148679866Y-52117338D01*
X148623030Y-52074791D01*
X148598219Y-52008271D01*
X148612775Y-51939888D01*
X148697027Y-51782265D01*
X148754465Y-51592916D01*
X148759414Y-51542675D01*
X148773860Y-51396002D01*
X148773860Y-51395997D01*
X148754466Y-51199090D01*
X148754465Y-51199088D01*
X148754465Y-51199084D01*
X148697027Y-51009735D01*
X148603752Y-50835230D01*
X148478225Y-50682275D01*
X148325270Y-50556748D01*
X148150765Y-50463473D01*
X147961416Y-50406035D01*
X147961415Y-50406034D01*
X147961409Y-50406033D01*
X147764503Y-50386640D01*
X147764497Y-50386640D01*
X147567590Y-50406033D01*
X147378234Y-50463473D01*
X147203729Y-50556748D01*
X147050775Y-50682275D01*
X146925248Y-50835229D01*
X146831973Y-51009734D01*
X146774533Y-51199090D01*
X146755140Y-51395997D01*
X146755140Y-51396002D01*
X146774533Y-51592909D01*
X146774534Y-51592915D01*
X146774535Y-51592916D01*
X146791851Y-51650000D01*
X146831973Y-51782265D01*
X146925248Y-51956770D01*
X146956267Y-51994567D01*
X146984020Y-52059914D01*
X146972038Y-52129892D01*
X146924125Y-52182284D01*
X146858867Y-52200500D01*
X146435185Y-52200500D01*
X146367064Y-52180498D01*
X146320571Y-52126842D01*
X146310467Y-52056568D01*
X146320990Y-52021250D01*
X146411147Y-51827907D01*
X146411149Y-51827903D01*
X146468119Y-51615287D01*
X146487304Y-51396000D01*
X146468119Y-51176712D01*
X146411149Y-50964096D01*
X146411147Y-50964092D01*
X146318119Y-50764594D01*
X146275699Y-50704011D01*
X146275697Y-50704011D01*
X145604500Y-51375208D01*
X145604500Y-51345972D01*
X145578604Y-51249325D01*
X145528576Y-51162675D01*
X145457825Y-51091924D01*
X145371175Y-51041896D01*
X145274528Y-51016000D01*
X145245290Y-51016000D01*
X145916487Y-50344800D01*
X145855903Y-50302379D01*
X145656407Y-50209352D01*
X145656403Y-50209350D01*
X145443787Y-50152380D01*
X145224500Y-50133195D01*
X145005212Y-50152380D01*
X144792596Y-50209350D01*
X144792592Y-50209352D01*
X144593098Y-50302378D01*
X144532510Y-50344801D01*
X145203709Y-51016000D01*
X145174472Y-51016000D01*
X145077825Y-51041896D01*
X144991175Y-51091924D01*
X144920424Y-51162675D01*
X144870396Y-51249325D01*
X144844500Y-51345972D01*
X144844500Y-51375209D01*
X144173301Y-50704010D01*
X144130878Y-50764598D01*
X144037852Y-50964092D01*
X144037850Y-50964096D01*
X143980880Y-51176712D01*
X143961695Y-51396000D01*
X143980880Y-51615287D01*
X144037850Y-51827903D01*
X144037852Y-51827907D01*
X144128010Y-52021250D01*
X144138671Y-52091441D01*
X144109691Y-52156254D01*
X144050272Y-52195111D01*
X144013815Y-52200500D01*
X138306818Y-52200500D01*
X138238697Y-52180498D01*
X138192204Y-52126842D01*
X138182100Y-52056568D01*
X138211594Y-51991988D01*
X138217723Y-51985405D01*
X140508723Y-49694405D01*
X140571035Y-49660379D01*
X140597818Y-49657500D01*
X149946585Y-49657500D01*
X149994802Y-49667090D01*
X150048246Y-49689228D01*
X150193000Y-49708285D01*
X150337754Y-49689228D01*
X150472643Y-49633355D01*
X150588474Y-49544474D01*
X150677355Y-49428643D01*
X150733228Y-49293754D01*
X150752285Y-49149000D01*
X150733228Y-49004246D01*
X150677355Y-48869358D01*
X150588474Y-48753526D01*
X150588472Y-48753524D01*
X150588471Y-48753523D01*
X150472649Y-48664649D01*
X150472641Y-48664644D01*
X150337752Y-48608771D01*
X150193000Y-48589715D01*
X150048246Y-48608771D01*
X150048245Y-48608772D01*
X149994803Y-48630909D01*
X149946585Y-48640500D01*
X145425087Y-48640500D01*
X145356966Y-48620498D01*
X145310473Y-48566842D01*
X145300165Y-48498054D01*
X145314785Y-48387000D01*
X145314785Y-48386999D01*
X145295728Y-48242247D01*
X145295728Y-48242246D01*
X145239855Y-48107358D01*
X145150974Y-47991526D01*
X145150972Y-47991524D01*
X145150971Y-47991523D01*
X145035149Y-47902649D01*
X145035141Y-47902644D01*
X144900252Y-47846771D01*
X144755500Y-47827715D01*
X144610746Y-47846771D01*
X144610745Y-47846772D01*
X144557303Y-47868909D01*
X144509085Y-47878500D01*
X143544587Y-47878500D01*
X143476466Y-47858498D01*
X143429973Y-47804842D01*
X143419665Y-47736054D01*
X143434285Y-47625000D01*
X143434285Y-47624999D01*
X143415228Y-47480247D01*
X143415228Y-47480246D01*
X143359355Y-47345358D01*
X143270474Y-47229526D01*
X143270472Y-47229524D01*
X143270471Y-47229523D01*
X143154649Y-47140649D01*
X143154641Y-47140644D01*
X143101412Y-47118596D01*
X143050696Y-47097588D01*
X142995417Y-47053042D01*
X142972996Y-46985678D01*
X142990554Y-46916887D01*
X143042516Y-46868509D01*
X143066298Y-46859476D01*
X143280600Y-46802054D01*
X143504712Y-46709224D01*
X143714789Y-46587936D01*
X143907238Y-46440265D01*
X144078765Y-46268738D01*
X144226436Y-46076289D01*
X144347724Y-45866212D01*
X144440554Y-45642100D01*
X144503338Y-45407789D01*
X144535000Y-45167288D01*
X144535000Y-44924712D01*
X144535000Y-44924709D01*
X152264000Y-44924709D01*
X152264000Y-45167290D01*
X152295660Y-45407782D01*
X152358444Y-45642095D01*
X152358445Y-45642097D01*
X152358446Y-45642100D01*
X152451276Y-45866212D01*
X152451277Y-45866213D01*
X152451282Y-45866224D01*
X152572561Y-46076285D01*
X152572563Y-46076288D01*
X152572564Y-46076289D01*
X152720235Y-46268738D01*
X152720239Y-46268742D01*
X152720244Y-46268748D01*
X152891751Y-46440255D01*
X152891756Y-46440259D01*
X152891762Y-46440265D01*
X153060434Y-46569691D01*
X153084214Y-46587938D01*
X153294275Y-46709217D01*
X153294279Y-46709218D01*
X153294288Y-46709224D01*
X153518400Y-46802054D01*
X153752711Y-46864838D01*
X153752715Y-46864838D01*
X153752717Y-46864839D01*
X153814702Y-46872999D01*
X153993212Y-46896500D01*
X153993219Y-46896500D01*
X154235781Y-46896500D01*
X154235788Y-46896500D01*
X154470668Y-46865578D01*
X154476282Y-46864839D01*
X154476282Y-46864838D01*
X154476289Y-46864838D01*
X154710600Y-46802054D01*
X154934712Y-46709224D01*
X155144789Y-46587936D01*
X155337238Y-46440265D01*
X155508765Y-46268738D01*
X155656436Y-46076289D01*
X155777724Y-45866212D01*
X155870554Y-45642100D01*
X155933338Y-45407789D01*
X155965000Y-45167288D01*
X155965000Y-44924712D01*
X155933338Y-44684211D01*
X155870554Y-44449900D01*
X155777724Y-44225788D01*
X155777718Y-44225779D01*
X155777717Y-44225775D01*
X155656438Y-44015714D01*
X155629801Y-43981000D01*
X155508765Y-43823262D01*
X155508759Y-43823256D01*
X155508755Y-43823251D01*
X155337248Y-43651744D01*
X155337242Y-43651739D01*
X155337238Y-43651735D01*
X155144789Y-43504064D01*
X155144788Y-43504063D01*
X155144785Y-43504061D01*
X154934724Y-43382782D01*
X154934716Y-43382778D01*
X154934712Y-43382776D01*
X154710600Y-43289946D01*
X154710597Y-43289945D01*
X154710595Y-43289944D01*
X154476282Y-43227160D01*
X154235790Y-43195500D01*
X154235788Y-43195500D01*
X153993212Y-43195500D01*
X153993209Y-43195500D01*
X153752717Y-43227160D01*
X153518404Y-43289944D01*
X153518400Y-43289946D01*
X153294286Y-43382777D01*
X153294275Y-43382782D01*
X153084214Y-43504061D01*
X152891762Y-43651735D01*
X152891751Y-43651744D01*
X152720244Y-43823251D01*
X152720235Y-43823262D01*
X152572561Y-44015714D01*
X152451282Y-44225775D01*
X152451277Y-44225786D01*
X152451276Y-44225788D01*
X152397491Y-44355638D01*
X152358446Y-44449900D01*
X152358444Y-44449904D01*
X152295660Y-44684217D01*
X152264000Y-44924709D01*
X144535000Y-44924709D01*
X144503338Y-44684211D01*
X144440554Y-44449900D01*
X144347724Y-44225788D01*
X144347718Y-44225779D01*
X144347717Y-44225775D01*
X144226438Y-44015714D01*
X144199801Y-43981000D01*
X144078765Y-43823262D01*
X144078759Y-43823256D01*
X144078755Y-43823251D01*
X143907248Y-43651744D01*
X143907242Y-43651739D01*
X143907238Y-43651735D01*
X143714789Y-43504064D01*
X143714788Y-43504063D01*
X143714785Y-43504061D01*
X143504724Y-43382782D01*
X143504716Y-43382778D01*
X143504712Y-43382776D01*
X143280600Y-43289946D01*
X143280597Y-43289945D01*
X143280595Y-43289944D01*
X143046282Y-43227160D01*
X142805790Y-43195500D01*
X142805788Y-43195500D01*
X142563212Y-43195500D01*
X142563209Y-43195500D01*
X142322717Y-43227160D01*
X142088404Y-43289944D01*
X142088400Y-43289946D01*
X141864286Y-43382777D01*
X141864275Y-43382782D01*
X141654214Y-43504061D01*
X141461762Y-43651735D01*
X141461751Y-43651744D01*
X141290244Y-43823251D01*
X141290235Y-43823262D01*
X141142561Y-44015714D01*
X141021282Y-44225775D01*
X141021277Y-44225786D01*
X141021276Y-44225788D01*
X140967491Y-44355638D01*
X140928446Y-44449900D01*
X140928444Y-44449904D01*
X140865660Y-44684217D01*
X140834000Y-44924709D01*
X140834000Y-45167290D01*
X140865660Y-45407782D01*
X140928444Y-45642095D01*
X140928445Y-45642097D01*
X140928446Y-45642100D01*
X141021276Y-45866212D01*
X141021277Y-45866213D01*
X141021282Y-45866224D01*
X141142561Y-46076285D01*
X141142563Y-46076288D01*
X141142564Y-46076289D01*
X141290235Y-46268738D01*
X141290239Y-46268742D01*
X141290244Y-46268748D01*
X141461751Y-46440255D01*
X141461756Y-46440259D01*
X141461762Y-46440265D01*
X141630434Y-46569691D01*
X141654214Y-46587938D01*
X141864275Y-46709217D01*
X141864279Y-46709218D01*
X141864288Y-46709224D01*
X142088400Y-46802054D01*
X142322711Y-46864838D01*
X142322717Y-46864838D01*
X142322718Y-46864839D01*
X142328328Y-46865578D01*
X142393256Y-46894300D01*
X142432348Y-46953565D01*
X142433193Y-47024556D01*
X142395524Y-47084735D01*
X142331299Y-47114995D01*
X142311883Y-47116500D01*
X139889946Y-47116500D01*
X139756055Y-47116500D01*
X139626726Y-47151153D01*
X139626724Y-47151154D01*
X139626721Y-47151155D01*
X139510775Y-47218097D01*
X139510772Y-47218099D01*
X136855277Y-49873595D01*
X136792965Y-49907621D01*
X136766182Y-49910500D01*
X126230135Y-49910500D01*
X126162014Y-49890498D01*
X126141040Y-49873595D01*
X123580123Y-47312677D01*
X123552809Y-47271800D01*
X123535299Y-47229526D01*
X123530673Y-47218358D01*
X123441792Y-47102526D01*
X123441790Y-47102524D01*
X123441789Y-47102523D01*
X123325967Y-47013649D01*
X123325959Y-47013644D01*
X123191070Y-46957771D01*
X123128402Y-46949521D01*
X130437687Y-46949521D01*
X130572402Y-47009500D01*
X130748821Y-47047000D01*
X130929179Y-47047000D01*
X131105596Y-47009500D01*
X131240312Y-46949521D01*
X131126088Y-46835297D01*
X131094791Y-46777983D01*
X131057494Y-46764576D01*
X131042702Y-46751911D01*
X130839001Y-46548210D01*
X130839000Y-46548210D01*
X130437687Y-46949521D01*
X123128402Y-46949521D01*
X123046318Y-46938715D01*
X122901564Y-46957771D01*
X122901563Y-46957772D01*
X122848121Y-46979909D01*
X122799903Y-46989500D01*
X118305615Y-46989500D01*
X118257397Y-46979909D01*
X118203952Y-46957771D01*
X118059200Y-46938715D01*
X117914447Y-46957771D01*
X117861003Y-46979909D01*
X117779558Y-47013645D01*
X117779557Y-47013646D01*
X117779556Y-47013646D01*
X117663726Y-47102526D01*
X117574846Y-47218356D01*
X117574845Y-47218358D01*
X117552708Y-47271800D01*
X117518971Y-47353247D01*
X117499915Y-47497999D01*
X117499915Y-47498000D01*
X117518971Y-47642752D01*
X117574844Y-47777641D01*
X117574849Y-47777649D01*
X117668753Y-47900026D01*
X117666982Y-47901384D01*
X117695411Y-47953446D01*
X117690346Y-48024261D01*
X117648994Y-48080191D01*
X117635528Y-48090523D01*
X117546646Y-48206356D01*
X117546645Y-48206358D01*
X117535047Y-48234358D01*
X117490771Y-48341247D01*
X117471715Y-48485999D01*
X117471715Y-48486000D01*
X117490771Y-48630752D01*
X117546644Y-48765641D01*
X117546649Y-48765649D01*
X117635525Y-48881473D01*
X117651900Y-48894039D01*
X117693766Y-48951378D01*
X117697986Y-49022249D01*
X117663221Y-49084151D01*
X117651900Y-49093961D01*
X117635527Y-49106524D01*
X117546646Y-49222356D01*
X117546645Y-49222358D01*
X117518708Y-49289802D01*
X117490771Y-49357247D01*
X117471715Y-49501999D01*
X117471715Y-49502000D01*
X117490772Y-49646754D01*
X117521607Y-49721198D01*
X117522584Y-49724075D01*
X117527734Y-49736504D01*
X117529068Y-49739210D01*
X117546644Y-49781641D01*
X117546649Y-49781649D01*
X117574597Y-49818071D01*
X117583753Y-49831774D01*
X117592095Y-49846223D01*
X117592099Y-49846228D01*
X117603891Y-49858020D01*
X117614757Y-49870409D01*
X117630173Y-49890498D01*
X117635526Y-49897474D01*
X117662588Y-49918239D01*
X117674970Y-49929098D01*
X117686773Y-49940901D01*
X117701229Y-49949247D01*
X117714917Y-49958393D01*
X117751357Y-49986355D01*
X117793778Y-50003926D01*
X117796486Y-50005262D01*
X117802723Y-50007845D01*
X117802726Y-50007847D01*
X117802728Y-50007847D01*
X117808963Y-50010430D01*
X117811817Y-50011398D01*
X117886246Y-50042228D01*
X118031000Y-50061285D01*
X118175754Y-50042228D01*
X118229197Y-50020090D01*
X118277415Y-50010500D01*
X122660331Y-50010500D01*
X122708547Y-50020090D01*
X122757802Y-50040492D01*
X122798678Y-50067806D01*
X123822796Y-51091924D01*
X124739278Y-52008405D01*
X124773303Y-52070717D01*
X124768239Y-52141532D01*
X124725692Y-52198368D01*
X124659172Y-52223179D01*
X124650183Y-52223500D01*
X123302415Y-52223500D01*
X123254197Y-52213909D01*
X123200752Y-52191771D01*
X123056000Y-52172715D01*
X122911246Y-52191771D01*
X122911245Y-52191772D01*
X122857803Y-52213909D01*
X122809585Y-52223500D01*
X116128500Y-52223500D01*
X116060379Y-52203498D01*
X116013886Y-52149842D01*
X116002500Y-52097500D01*
X116002500Y-51650000D01*
X115027901Y-51650000D01*
X115048576Y-51629325D01*
X115098604Y-51542675D01*
X115124500Y-51446028D01*
X115124500Y-51345972D01*
X115098604Y-51249325D01*
X115048576Y-51162675D01*
X115027901Y-51142000D01*
X116002500Y-51142000D01*
X116002500Y-50597414D01*
X116002499Y-50597402D01*
X115995994Y-50536906D01*
X115944944Y-50400035D01*
X115944944Y-50400034D01*
X115857404Y-50283095D01*
X115740465Y-50195555D01*
X115603593Y-50144505D01*
X115543097Y-50138000D01*
X114998500Y-50138000D01*
X114998500Y-51112599D01*
X114977825Y-51091924D01*
X114891175Y-51041896D01*
X114794528Y-51016000D01*
X114694472Y-51016000D01*
X114597825Y-51041896D01*
X114511175Y-51091924D01*
X114490500Y-51112599D01*
X114490500Y-50138000D01*
X113945902Y-50138000D01*
X113885406Y-50144505D01*
X113748535Y-50195555D01*
X113748534Y-50195555D01*
X113631595Y-50283095D01*
X113544055Y-50400034D01*
X113544055Y-50400035D01*
X113493005Y-50536906D01*
X113486500Y-50597402D01*
X113486500Y-51142000D01*
X114461099Y-51142000D01*
X114440424Y-51162675D01*
X114390396Y-51249325D01*
X114364500Y-51345972D01*
X114364500Y-51446028D01*
X114390396Y-51542675D01*
X114440424Y-51629325D01*
X114461099Y-51650000D01*
X113486500Y-51650000D01*
X113486500Y-51654682D01*
X113466498Y-51722803D01*
X113412842Y-51769296D01*
X113342568Y-51779400D01*
X113277988Y-51749906D01*
X113271405Y-51743777D01*
X113229823Y-51702195D01*
X113195797Y-51639883D01*
X113195437Y-51599231D01*
X113193858Y-51599076D01*
X113194466Y-51592909D01*
X113213860Y-51396000D01*
X113208933Y-51345972D01*
X113194466Y-51199090D01*
X113194465Y-51199088D01*
X113194465Y-51199084D01*
X113137027Y-51009735D01*
X113043752Y-50835230D01*
X112918225Y-50682275D01*
X112765270Y-50556748D01*
X112590765Y-50463473D01*
X112401416Y-50406035D01*
X112401415Y-50406034D01*
X112401409Y-50406033D01*
X112204503Y-50386640D01*
X112204497Y-50386640D01*
X112007590Y-50406033D01*
X111818234Y-50463473D01*
X111643729Y-50556748D01*
X111490775Y-50682275D01*
X111365248Y-50835229D01*
X111271973Y-51009734D01*
X111214533Y-51199090D01*
X111195140Y-51395997D01*
X111195140Y-51396002D01*
X111214533Y-51592909D01*
X111214534Y-51592915D01*
X111214535Y-51592916D01*
X111271973Y-51782265D01*
X111365248Y-51956770D01*
X111490775Y-52109725D01*
X111643730Y-52235252D01*
X111818235Y-52328527D01*
X112007584Y-52385965D01*
X112007588Y-52385965D01*
X112007590Y-52385966D01*
X112204497Y-52405360D01*
X112204500Y-52405360D01*
X112204502Y-52405360D01*
X112288658Y-52397070D01*
X112401416Y-52385965D01*
X112401417Y-52385964D01*
X112407576Y-52385358D01*
X112407817Y-52387808D01*
X112467718Y-52393161D01*
X112510695Y-52421323D01*
X112971108Y-52881736D01*
X113005134Y-52944048D01*
X113000069Y-53014863D01*
X112957522Y-53071699D01*
X112941412Y-53081951D01*
X112932435Y-53086749D01*
X112913727Y-53096749D01*
X112760775Y-53222275D01*
X112635248Y-53375229D01*
X112541973Y-53549734D01*
X112484533Y-53739090D01*
X112465140Y-53935997D01*
X112465140Y-53936002D01*
X112484533Y-54132909D01*
X112484534Y-54132915D01*
X112484535Y-54132916D01*
X112541973Y-54322265D01*
X112635248Y-54496770D01*
X112760775Y-54649725D01*
X112913730Y-54775252D01*
X113088235Y-54868527D01*
X113277584Y-54925965D01*
X113277588Y-54925965D01*
X113277590Y-54925966D01*
X113395007Y-54937530D01*
X113441860Y-54942145D01*
X113507692Y-54968727D01*
X113518605Y-54978443D01*
X114589567Y-56049405D01*
X114623593Y-56111717D01*
X114618528Y-56182532D01*
X114575981Y-56239368D01*
X114509461Y-56264179D01*
X114500472Y-56264500D01*
X109313528Y-56264500D01*
X109245407Y-56244498D01*
X109224433Y-56227595D01*
X108141787Y-55144949D01*
X108107761Y-55082637D01*
X108112826Y-55011822D01*
X108155373Y-54954986D01*
X108221893Y-54930175D01*
X108243231Y-54930460D01*
X108273112Y-54933404D01*
X108394498Y-54945360D01*
X108394500Y-54945360D01*
X108394503Y-54945360D01*
X108591409Y-54925966D01*
X108591410Y-54925965D01*
X108591416Y-54925965D01*
X108780765Y-54868527D01*
X108955270Y-54775252D01*
X109108225Y-54649725D01*
X109233752Y-54496770D01*
X109327027Y-54322265D01*
X109384465Y-54132916D01*
X109384858Y-54128931D01*
X109403860Y-53936002D01*
X109403860Y-53935997D01*
X109925140Y-53935997D01*
X109925140Y-53936002D01*
X109944533Y-54132909D01*
X109944534Y-54132915D01*
X109944535Y-54132916D01*
X110001973Y-54322265D01*
X110095248Y-54496770D01*
X110220775Y-54649725D01*
X110373730Y-54775252D01*
X110548235Y-54868527D01*
X110737584Y-54925965D01*
X110737588Y-54925965D01*
X110737590Y-54925966D01*
X110934497Y-54945360D01*
X110934500Y-54945360D01*
X110934503Y-54945360D01*
X111131409Y-54925966D01*
X111131410Y-54925965D01*
X111131416Y-54925965D01*
X111320765Y-54868527D01*
X111495270Y-54775252D01*
X111648225Y-54649725D01*
X111773752Y-54496770D01*
X111867027Y-54322265D01*
X111924465Y-54132916D01*
X111924858Y-54128931D01*
X111943860Y-53936002D01*
X111943860Y-53935997D01*
X111924466Y-53739090D01*
X111924465Y-53739088D01*
X111924465Y-53739084D01*
X111867027Y-53549735D01*
X111773752Y-53375230D01*
X111648225Y-53222275D01*
X111495270Y-53096748D01*
X111320765Y-53003473D01*
X111131416Y-52946035D01*
X111131415Y-52946034D01*
X111131409Y-52946033D01*
X110934503Y-52926640D01*
X110934497Y-52926640D01*
X110737590Y-52946033D01*
X110548234Y-53003473D01*
X110373729Y-53096748D01*
X110220775Y-53222275D01*
X110095248Y-53375229D01*
X110001973Y-53549734D01*
X109944533Y-53739090D01*
X109925140Y-53935997D01*
X109403860Y-53935997D01*
X109384466Y-53739090D01*
X109384465Y-53739088D01*
X109384465Y-53739084D01*
X109327027Y-53549735D01*
X109233752Y-53375230D01*
X109108225Y-53222275D01*
X108955270Y-53096748D01*
X108780765Y-53003473D01*
X108591416Y-52946035D01*
X108591415Y-52946034D01*
X108591409Y-52946033D01*
X108394503Y-52926640D01*
X108394497Y-52926640D01*
X108197590Y-52946033D01*
X108008234Y-53003473D01*
X107833729Y-53096748D01*
X107680775Y-53222275D01*
X107555248Y-53375229D01*
X107461973Y-53549734D01*
X107404533Y-53739090D01*
X107385140Y-53935997D01*
X107385140Y-53936003D01*
X107400038Y-54087267D01*
X107386809Y-54157020D01*
X107337969Y-54208548D01*
X107269024Y-54225492D01*
X107201863Y-54202470D01*
X107185550Y-54188712D01*
X106888202Y-53891364D01*
X106854176Y-53829052D01*
X106851904Y-53814617D01*
X106844466Y-53739091D01*
X106844465Y-53739089D01*
X106844465Y-53739084D01*
X106787027Y-53549735D01*
X106693752Y-53375230D01*
X106568225Y-53222275D01*
X106415270Y-53096748D01*
X106240765Y-53003473D01*
X106051416Y-52946035D01*
X106051415Y-52946034D01*
X106051409Y-52946033D01*
X105854503Y-52926640D01*
X105854497Y-52926640D01*
X105657590Y-52946033D01*
X105468234Y-53003473D01*
X105293729Y-53096748D01*
X105140775Y-53222275D01*
X105015248Y-53375229D01*
X104921973Y-53549734D01*
X104864533Y-53739090D01*
X104845140Y-53935997D01*
X100500500Y-53935997D01*
X100500500Y-51396000D01*
X105861695Y-51396000D01*
X105880880Y-51615287D01*
X105937850Y-51827903D01*
X105937852Y-51827907D01*
X106030879Y-52027403D01*
X106073300Y-52087987D01*
X106744500Y-51416788D01*
X106744500Y-51446028D01*
X106770396Y-51542675D01*
X106820424Y-51629325D01*
X106891175Y-51700076D01*
X106977825Y-51750104D01*
X107074472Y-51776000D01*
X107103710Y-51776000D01*
X106432511Y-52447197D01*
X106432511Y-52447198D01*
X106493097Y-52489621D01*
X106692592Y-52582647D01*
X106692596Y-52582649D01*
X106905212Y-52639619D01*
X107124500Y-52658804D01*
X107343787Y-52639619D01*
X107556403Y-52582649D01*
X107556407Y-52582647D01*
X107755899Y-52489622D01*
X107816487Y-52447197D01*
X107816487Y-52447196D01*
X107145291Y-51776000D01*
X107174528Y-51776000D01*
X107271175Y-51750104D01*
X107357825Y-51700076D01*
X107428576Y-51629325D01*
X107478604Y-51542675D01*
X107504500Y-51446028D01*
X107504500Y-51416791D01*
X108175696Y-52087987D01*
X108175697Y-52087987D01*
X108218122Y-52027399D01*
X108311147Y-51827907D01*
X108311149Y-51827903D01*
X108368119Y-51615287D01*
X108387304Y-51396000D01*
X108387304Y-51395997D01*
X108655140Y-51395997D01*
X108655140Y-51396002D01*
X108674533Y-51592909D01*
X108674534Y-51592915D01*
X108674535Y-51592916D01*
X108731973Y-51782265D01*
X108825248Y-51956770D01*
X108950775Y-52109725D01*
X109103730Y-52235252D01*
X109278235Y-52328527D01*
X109467584Y-52385965D01*
X109467588Y-52385965D01*
X109467590Y-52385966D01*
X109664497Y-52405360D01*
X109664500Y-52405360D01*
X109664503Y-52405360D01*
X109861409Y-52385966D01*
X109861410Y-52385965D01*
X109861416Y-52385965D01*
X110050765Y-52328527D01*
X110225270Y-52235252D01*
X110378225Y-52109725D01*
X110503752Y-51956770D01*
X110597027Y-51782265D01*
X110654465Y-51592916D01*
X110659414Y-51542675D01*
X110673860Y-51396002D01*
X110673860Y-51395997D01*
X110654466Y-51199090D01*
X110654465Y-51199088D01*
X110654465Y-51199084D01*
X110597027Y-51009735D01*
X110503752Y-50835230D01*
X110378225Y-50682275D01*
X110225270Y-50556748D01*
X110188148Y-50536906D01*
X110050766Y-50463473D01*
X110050761Y-50463471D01*
X110041966Y-50460803D01*
X109989454Y-50429326D01*
X109976727Y-50416599D01*
X109976724Y-50416597D01*
X109860778Y-50349655D01*
X109860776Y-50349654D01*
X109860774Y-50349653D01*
X109731445Y-50315000D01*
X109597555Y-50315000D01*
X109468226Y-50349653D01*
X109468224Y-50349654D01*
X109468221Y-50349655D01*
X109352278Y-50416596D01*
X109352268Y-50416603D01*
X109339540Y-50429331D01*
X109287034Y-50460803D01*
X109278240Y-50463471D01*
X109278230Y-50463475D01*
X109103729Y-50556748D01*
X108950775Y-50682275D01*
X108825248Y-50835229D01*
X108731973Y-51009734D01*
X108674533Y-51199090D01*
X108655140Y-51395997D01*
X108387304Y-51395997D01*
X108368119Y-51176712D01*
X108311149Y-50964096D01*
X108311147Y-50964092D01*
X108218119Y-50764594D01*
X108175699Y-50704011D01*
X108175697Y-50704011D01*
X107504500Y-51375208D01*
X107504500Y-51345972D01*
X107478604Y-51249325D01*
X107428576Y-51162675D01*
X107357825Y-51091924D01*
X107271175Y-51041896D01*
X107174528Y-51016000D01*
X107145290Y-51016000D01*
X107816487Y-50344800D01*
X107755903Y-50302379D01*
X107556407Y-50209352D01*
X107556403Y-50209350D01*
X107343787Y-50152380D01*
X107124500Y-50133195D01*
X106905212Y-50152380D01*
X106692596Y-50209350D01*
X106692592Y-50209352D01*
X106493098Y-50302378D01*
X106432510Y-50344801D01*
X107103709Y-51016000D01*
X107074472Y-51016000D01*
X106977825Y-51041896D01*
X106891175Y-51091924D01*
X106820424Y-51162675D01*
X106770396Y-51249325D01*
X106744500Y-51345972D01*
X106744500Y-51375209D01*
X106073301Y-50704010D01*
X106030878Y-50764598D01*
X105937852Y-50964092D01*
X105937850Y-50964096D01*
X105880880Y-51176712D01*
X105861695Y-51396000D01*
X100500500Y-51396000D01*
X100500500Y-44924709D01*
X102734000Y-44924709D01*
X102734000Y-45167290D01*
X102765660Y-45407782D01*
X102828444Y-45642095D01*
X102828445Y-45642097D01*
X102828446Y-45642100D01*
X102921276Y-45866212D01*
X102921277Y-45866213D01*
X102921282Y-45866224D01*
X103042561Y-46076285D01*
X103042563Y-46076288D01*
X103042564Y-46076289D01*
X103190235Y-46268738D01*
X103190239Y-46268742D01*
X103190244Y-46268748D01*
X103361751Y-46440255D01*
X103361756Y-46440259D01*
X103361762Y-46440265D01*
X103530434Y-46569691D01*
X103554214Y-46587938D01*
X103764275Y-46709217D01*
X103764279Y-46709218D01*
X103764288Y-46709224D01*
X103988400Y-46802054D01*
X104222711Y-46864838D01*
X104222715Y-46864838D01*
X104222717Y-46864839D01*
X104284702Y-46872999D01*
X104463212Y-46896500D01*
X104463219Y-46896500D01*
X104705781Y-46896500D01*
X104705788Y-46896500D01*
X104940668Y-46865578D01*
X104946282Y-46864839D01*
X104946282Y-46864838D01*
X104946289Y-46864838D01*
X105180600Y-46802054D01*
X105404712Y-46709224D01*
X105614789Y-46587936D01*
X105807238Y-46440265D01*
X105978765Y-46268738D01*
X106126436Y-46076289D01*
X106247724Y-45866212D01*
X106340554Y-45642100D01*
X106403338Y-45407789D01*
X106435000Y-45167288D01*
X106435000Y-44924712D01*
X106435000Y-44924709D01*
X114164000Y-44924709D01*
X114164000Y-45167290D01*
X114195660Y-45407782D01*
X114258444Y-45642095D01*
X114258445Y-45642097D01*
X114258446Y-45642100D01*
X114351276Y-45866212D01*
X114351277Y-45866213D01*
X114351282Y-45866224D01*
X114472561Y-46076285D01*
X114472563Y-46076288D01*
X114472564Y-46076289D01*
X114620235Y-46268738D01*
X114620239Y-46268742D01*
X114620244Y-46268748D01*
X114791751Y-46440255D01*
X114791756Y-46440259D01*
X114791762Y-46440265D01*
X114960434Y-46569691D01*
X114984214Y-46587938D01*
X115194275Y-46709217D01*
X115194279Y-46709218D01*
X115194288Y-46709224D01*
X115418400Y-46802054D01*
X115652711Y-46864838D01*
X115652715Y-46864838D01*
X115652717Y-46864839D01*
X115714702Y-46872999D01*
X115893212Y-46896500D01*
X115893219Y-46896500D01*
X116135781Y-46896500D01*
X116135788Y-46896500D01*
X116370668Y-46865578D01*
X116376282Y-46864839D01*
X116376282Y-46864838D01*
X116376289Y-46864838D01*
X116610600Y-46802054D01*
X116834712Y-46709224D01*
X117044789Y-46587936D01*
X117237238Y-46440265D01*
X117408765Y-46268738D01*
X117556436Y-46076289D01*
X117677724Y-45866212D01*
X117770554Y-45642100D01*
X117833338Y-45407789D01*
X117865000Y-45167288D01*
X117865000Y-44924712D01*
X117833338Y-44684211D01*
X117770554Y-44449900D01*
X117735239Y-44364641D01*
X128531000Y-44364641D01*
X128531000Y-44955000D01*
X129189000Y-44955000D01*
X129189000Y-45463000D01*
X128531000Y-45463000D01*
X128531000Y-46053358D01*
X128567816Y-46238438D01*
X128567817Y-46238441D01*
X128640032Y-46412783D01*
X128744870Y-46569684D01*
X128744875Y-46569691D01*
X128878308Y-46703124D01*
X128878315Y-46703129D01*
X129035216Y-46807967D01*
X129209558Y-46880182D01*
X129209561Y-46880183D01*
X129235000Y-46885243D01*
X129235000Y-46119060D01*
X129248940Y-46143205D01*
X129304795Y-46199060D01*
X129373204Y-46238556D01*
X129449504Y-46259000D01*
X129528496Y-46259000D01*
X129604796Y-46238556D01*
X129673205Y-46199060D01*
X129729060Y-46143205D01*
X129743000Y-46119060D01*
X129743000Y-46885242D01*
X129768438Y-46880183D01*
X129768441Y-46880182D01*
X129942782Y-46807967D01*
X130087238Y-46711444D01*
X130088914Y-46694437D01*
X130077361Y-46673280D01*
X130082426Y-46602465D01*
X130111387Y-46557401D01*
X130519571Y-46149218D01*
X130639000Y-46149218D01*
X130639000Y-46228782D01*
X130669448Y-46302291D01*
X130725709Y-46358552D01*
X130799218Y-46389000D01*
X130878782Y-46389000D01*
X130952291Y-46358552D01*
X131008552Y-46302291D01*
X131039000Y-46228782D01*
X131039000Y-46149218D01*
X131008552Y-46075709D01*
X130952291Y-46019448D01*
X130878782Y-45989000D01*
X130799218Y-45989000D01*
X130725709Y-46019448D01*
X130669448Y-46075709D01*
X130639000Y-46149218D01*
X130519571Y-46149218D01*
X130749905Y-45918884D01*
X130812217Y-45884859D01*
X130883033Y-45889924D01*
X130928095Y-45918885D01*
X131049181Y-46039971D01*
X131083207Y-46102283D01*
X131085008Y-46145509D01*
X131079284Y-46188995D01*
X131079284Y-46188999D01*
X131079284Y-46189000D01*
X131084522Y-46228782D01*
X131100060Y-46346806D01*
X131160968Y-46493857D01*
X131231759Y-46586112D01*
X131248631Y-46629754D01*
X131275568Y-46635614D01*
X131291887Y-46646240D01*
X131384142Y-46717031D01*
X131468351Y-46751910D01*
X131531194Y-46777940D01*
X131689000Y-46798716D01*
X131689000Y-46798715D01*
X131689518Y-46798784D01*
X131754445Y-46827507D01*
X131762166Y-46834611D01*
X131861993Y-46934438D01*
X131896019Y-46996750D01*
X131898898Y-47023533D01*
X131898898Y-48073966D01*
X131878896Y-48142087D01*
X131872861Y-48150670D01*
X131808646Y-48234356D01*
X131808645Y-48234358D01*
X131780708Y-48301802D01*
X131752771Y-48369247D01*
X131733715Y-48513999D01*
X131733715Y-48514000D01*
X131752771Y-48658752D01*
X131808644Y-48793641D01*
X131808649Y-48793649D01*
X131897525Y-48909474D01*
X132013350Y-48998350D01*
X132013357Y-48998355D01*
X132148246Y-49054228D01*
X132293000Y-49073285D01*
X132437754Y-49054228D01*
X132572643Y-48998355D01*
X132688474Y-48909474D01*
X132777355Y-48793643D01*
X132833228Y-48658754D01*
X132852285Y-48514000D01*
X132833228Y-48369246D01*
X132777355Y-48234358D01*
X132688474Y-48118526D01*
X132688473Y-48118525D01*
X132687935Y-48117824D01*
X132662335Y-48051604D01*
X132661898Y-48041120D01*
X132661898Y-47320820D01*
X132681900Y-47252699D01*
X132735556Y-47206206D01*
X132787898Y-47194820D01*
X135608903Y-47194820D01*
X135608905Y-47194820D01*
X135705934Y-47168821D01*
X135705937Y-47168819D01*
X135705938Y-47168819D01*
X135754738Y-47140644D01*
X135792927Y-47118596D01*
X135863956Y-47047567D01*
X135962001Y-46949521D01*
X136387686Y-46949521D01*
X136522402Y-47009500D01*
X136698821Y-47047000D01*
X136879179Y-47047000D01*
X137055596Y-47009500D01*
X137190312Y-46949521D01*
X136789001Y-46548210D01*
X136789000Y-46548210D01*
X136585298Y-46751910D01*
X136527980Y-46783207D01*
X136514573Y-46820506D01*
X136501909Y-46835299D01*
X136387686Y-46949521D01*
X135962001Y-46949521D01*
X136141867Y-46769654D01*
X136182741Y-46742344D01*
X136243858Y-46717030D01*
X136336111Y-46646240D01*
X136379755Y-46629367D01*
X136385616Y-46602428D01*
X136396232Y-46586122D01*
X136467030Y-46493858D01*
X136527940Y-46346806D01*
X136548716Y-46189000D01*
X136543478Y-46149218D01*
X136589000Y-46149218D01*
X136589000Y-46228782D01*
X136619448Y-46302291D01*
X136675709Y-46358552D01*
X136749218Y-46389000D01*
X136828782Y-46389000D01*
X136902291Y-46358552D01*
X136958552Y-46302291D01*
X136989000Y-46228782D01*
X136989000Y-46149218D01*
X136958552Y-46075709D01*
X136902291Y-46019448D01*
X136828782Y-45989000D01*
X136749218Y-45989000D01*
X136675709Y-46019448D01*
X136619448Y-46075709D01*
X136589000Y-46149218D01*
X136543478Y-46149218D01*
X136542990Y-46145512D01*
X136553928Y-46075367D01*
X136578817Y-46039971D01*
X136699905Y-45918884D01*
X136762217Y-45884859D01*
X136833033Y-45889925D01*
X136878095Y-45918885D01*
X137516612Y-46557402D01*
X137550638Y-46619714D01*
X137545573Y-46690529D01*
X137539613Y-46699802D01*
X137540760Y-46711445D01*
X137685216Y-46807967D01*
X137859558Y-46880182D01*
X137859561Y-46880183D01*
X137885000Y-46885243D01*
X137885000Y-46119060D01*
X137898940Y-46143205D01*
X137954795Y-46199060D01*
X138023204Y-46238556D01*
X138099504Y-46259000D01*
X138178496Y-46259000D01*
X138254796Y-46238556D01*
X138323205Y-46199060D01*
X138379060Y-46143205D01*
X138393000Y-46119060D01*
X138393000Y-46885242D01*
X138418438Y-46880183D01*
X138418441Y-46880182D01*
X138592783Y-46807967D01*
X138749684Y-46703129D01*
X138749691Y-46703124D01*
X138883124Y-46569691D01*
X138883129Y-46569684D01*
X138987967Y-46412783D01*
X139060182Y-46238441D01*
X139060183Y-46238438D01*
X139096999Y-46053358D01*
X139097000Y-46053355D01*
X139097000Y-45463000D01*
X138439000Y-45463000D01*
X138439000Y-44955000D01*
X139097000Y-44955000D01*
X139097000Y-44364644D01*
X139096999Y-44364641D01*
X139060183Y-44179561D01*
X139060182Y-44179558D01*
X138987967Y-44005216D01*
X138883129Y-43848315D01*
X138883124Y-43848308D01*
X138749691Y-43714875D01*
X138749684Y-43714870D01*
X138592783Y-43610032D01*
X138418438Y-43537816D01*
X138393000Y-43532755D01*
X138393000Y-44298939D01*
X138379060Y-44274795D01*
X138323205Y-44218940D01*
X138254796Y-44179444D01*
X138178496Y-44159000D01*
X138099504Y-44159000D01*
X138023204Y-44179444D01*
X137954795Y-44218940D01*
X137898940Y-44274795D01*
X137885000Y-44298939D01*
X137885000Y-43532755D01*
X137884999Y-43532755D01*
X137859561Y-43537816D01*
X137685216Y-43610032D01*
X137528315Y-43714870D01*
X137528308Y-43714875D01*
X137394875Y-43848308D01*
X137394870Y-43848315D01*
X137288439Y-44007600D01*
X137233962Y-44053128D01*
X137163519Y-44061976D01*
X137132425Y-44052705D01*
X137055597Y-44018499D01*
X136879179Y-43981000D01*
X136698821Y-43981000D01*
X136522400Y-44018499D01*
X136387687Y-44078476D01*
X136387686Y-44078477D01*
X136501912Y-44192703D01*
X136533206Y-44250013D01*
X136570504Y-44263421D01*
X136585297Y-44276086D01*
X137059115Y-44749905D01*
X137093140Y-44812217D01*
X137088075Y-44883033D01*
X137059115Y-44928095D01*
X136878096Y-45109115D01*
X136815784Y-45143140D01*
X136744968Y-45138076D01*
X136699905Y-45109115D01*
X136578817Y-44988027D01*
X136544791Y-44925715D01*
X136542990Y-44882490D01*
X136548716Y-44839000D01*
X136543478Y-44799218D01*
X136589000Y-44799218D01*
X136589000Y-44878782D01*
X136619448Y-44952291D01*
X136675709Y-45008552D01*
X136749218Y-45039000D01*
X136828782Y-45039000D01*
X136902291Y-45008552D01*
X136958552Y-44952291D01*
X136989000Y-44878782D01*
X136989000Y-44799218D01*
X136958552Y-44725709D01*
X136902291Y-44669448D01*
X136828782Y-44639000D01*
X136749218Y-44639000D01*
X136675709Y-44669448D01*
X136619448Y-44725709D01*
X136589000Y-44799218D01*
X136543478Y-44799218D01*
X136527940Y-44681194D01*
X136505439Y-44626872D01*
X136467031Y-44534142D01*
X136396239Y-44441885D01*
X136379367Y-44398245D01*
X136352432Y-44392386D01*
X136336113Y-44381760D01*
X136243857Y-44310968D01*
X136096806Y-44250060D01*
X135939000Y-44229284D01*
X135781193Y-44250060D01*
X135634142Y-44310968D01*
X135590704Y-44344301D01*
X135524484Y-44369902D01*
X135454935Y-44355638D01*
X135437296Y-44344301D01*
X135393857Y-44310968D01*
X135246806Y-44250060D01*
X135089000Y-44229284D01*
X134931193Y-44250060D01*
X134784142Y-44310968D01*
X134740704Y-44344301D01*
X134674484Y-44369902D01*
X134604935Y-44355638D01*
X134587296Y-44344301D01*
X134543857Y-44310968D01*
X134396806Y-44250060D01*
X134239000Y-44229284D01*
X134081193Y-44250060D01*
X133934142Y-44310968D01*
X133890704Y-44344301D01*
X133824484Y-44369902D01*
X133754935Y-44355638D01*
X133737296Y-44344301D01*
X133693857Y-44310968D01*
X133546806Y-44250060D01*
X133389000Y-44229284D01*
X133231193Y-44250060D01*
X133084142Y-44310968D01*
X133040704Y-44344301D01*
X132974484Y-44369902D01*
X132904935Y-44355638D01*
X132887296Y-44344301D01*
X132843857Y-44310968D01*
X132696806Y-44250060D01*
X132539000Y-44229284D01*
X132381193Y-44250060D01*
X132234142Y-44310968D01*
X132190704Y-44344301D01*
X132124484Y-44369902D01*
X132054935Y-44355638D01*
X132037296Y-44344301D01*
X131993857Y-44310968D01*
X131846806Y-44250060D01*
X131689000Y-44229284D01*
X131531193Y-44250060D01*
X131384145Y-44310967D01*
X131291883Y-44381763D01*
X131248246Y-44398632D01*
X131242388Y-44425565D01*
X131231762Y-44441884D01*
X131160968Y-44534142D01*
X131100060Y-44681193D01*
X131079284Y-44839000D01*
X131079284Y-44839003D01*
X131085008Y-44882487D01*
X131074068Y-44952635D01*
X131049182Y-44988026D01*
X130928095Y-45109114D01*
X130865783Y-45143139D01*
X130794967Y-45138075D01*
X130749904Y-45109114D01*
X130568885Y-44928095D01*
X130534859Y-44865783D01*
X130539620Y-44799218D01*
X130639000Y-44799218D01*
X130639000Y-44878782D01*
X130669448Y-44952291D01*
X130725709Y-45008552D01*
X130799218Y-45039000D01*
X130878782Y-45039000D01*
X130952291Y-45008552D01*
X131008552Y-44952291D01*
X131039000Y-44878782D01*
X131039000Y-44799218D01*
X131008552Y-44725709D01*
X130952291Y-44669448D01*
X130878782Y-44639000D01*
X130799218Y-44639000D01*
X130725709Y-44669448D01*
X130669448Y-44725709D01*
X130639000Y-44799218D01*
X130539620Y-44799218D01*
X130539924Y-44794968D01*
X130568885Y-44749905D01*
X131042705Y-44276085D01*
X131100012Y-44244791D01*
X131113420Y-44207496D01*
X131126084Y-44192704D01*
X131240311Y-44078476D01*
X131105599Y-44018499D01*
X130929179Y-43981000D01*
X130748821Y-43981000D01*
X130572400Y-44018499D01*
X130495573Y-44052705D01*
X130425206Y-44062139D01*
X130360909Y-44032032D01*
X130339560Y-44007600D01*
X130233129Y-43848314D01*
X130233124Y-43848308D01*
X130099691Y-43714875D01*
X130099684Y-43714870D01*
X129942783Y-43610032D01*
X129768438Y-43537816D01*
X129743000Y-43532755D01*
X129743000Y-44298939D01*
X129729060Y-44274795D01*
X129673205Y-44218940D01*
X129604796Y-44179444D01*
X129528496Y-44159000D01*
X129449504Y-44159000D01*
X129373204Y-44179444D01*
X129304795Y-44218940D01*
X129248940Y-44274795D01*
X129235000Y-44298939D01*
X129235000Y-43532755D01*
X129234999Y-43532755D01*
X129209561Y-43537816D01*
X129035216Y-43610032D01*
X128878315Y-43714870D01*
X128878308Y-43714875D01*
X128744875Y-43848308D01*
X128744870Y-43848315D01*
X128640032Y-44005216D01*
X128567817Y-44179558D01*
X128567816Y-44179561D01*
X128531000Y-44364641D01*
X117735239Y-44364641D01*
X117677724Y-44225788D01*
X117677718Y-44225779D01*
X117677717Y-44225775D01*
X117556438Y-44015714D01*
X117529801Y-43981000D01*
X117408765Y-43823262D01*
X117408759Y-43823256D01*
X117408755Y-43823251D01*
X117237248Y-43651744D01*
X117237242Y-43651739D01*
X117237238Y-43651735D01*
X117044789Y-43504064D01*
X117044788Y-43504063D01*
X117044785Y-43504061D01*
X116834724Y-43382782D01*
X116834716Y-43382778D01*
X116834712Y-43382776D01*
X116610600Y-43289946D01*
X116610597Y-43289945D01*
X116610595Y-43289944D01*
X116376282Y-43227160D01*
X116135790Y-43195500D01*
X116135788Y-43195500D01*
X115893212Y-43195500D01*
X115893209Y-43195500D01*
X115652717Y-43227160D01*
X115418404Y-43289944D01*
X115418400Y-43289946D01*
X115194286Y-43382777D01*
X115194275Y-43382782D01*
X114984214Y-43504061D01*
X114791762Y-43651735D01*
X114791751Y-43651744D01*
X114620244Y-43823251D01*
X114620235Y-43823262D01*
X114472561Y-44015714D01*
X114351282Y-44225775D01*
X114351277Y-44225786D01*
X114351276Y-44225788D01*
X114297491Y-44355638D01*
X114258446Y-44449900D01*
X114258444Y-44449904D01*
X114195660Y-44684217D01*
X114164000Y-44924709D01*
X106435000Y-44924709D01*
X106403338Y-44684211D01*
X106340554Y-44449900D01*
X106247724Y-44225788D01*
X106247718Y-44225779D01*
X106247717Y-44225775D01*
X106126438Y-44015714D01*
X106099801Y-43981000D01*
X105978765Y-43823262D01*
X105978759Y-43823256D01*
X105978755Y-43823251D01*
X105807248Y-43651744D01*
X105807242Y-43651739D01*
X105807238Y-43651735D01*
X105614789Y-43504064D01*
X105614788Y-43504063D01*
X105614785Y-43504061D01*
X105404724Y-43382782D01*
X105404716Y-43382778D01*
X105404712Y-43382776D01*
X105180600Y-43289946D01*
X105180597Y-43289945D01*
X105180595Y-43289944D01*
X104946282Y-43227160D01*
X104705790Y-43195500D01*
X104705788Y-43195500D01*
X104463212Y-43195500D01*
X104463209Y-43195500D01*
X104222717Y-43227160D01*
X103988404Y-43289944D01*
X103988400Y-43289946D01*
X103764286Y-43382777D01*
X103764275Y-43382782D01*
X103554214Y-43504061D01*
X103361762Y-43651735D01*
X103361751Y-43651744D01*
X103190244Y-43823251D01*
X103190235Y-43823262D01*
X103042561Y-44015714D01*
X102921282Y-44225775D01*
X102921277Y-44225786D01*
X102921276Y-44225788D01*
X102867491Y-44355638D01*
X102828446Y-44449900D01*
X102828444Y-44449904D01*
X102765660Y-44684217D01*
X102734000Y-44924709D01*
X100500500Y-44924709D01*
X100500500Y-40626500D01*
X100520502Y-40558379D01*
X100574158Y-40511886D01*
X100626500Y-40500500D01*
X128758494Y-40500500D01*
X128826615Y-40520502D01*
G37*
%TD.AperFunction*%
%TD*%
M02*
