%TF.GenerationSoftware,KiCad,Pcbnew,8.0.4*%
%TF.CreationDate,2024-08-22T06:16:07+01:00*%
%TF.ProjectId,PicoChainBase,5069636f-4368-4616-996e-426173652e6b,rev?*%
%TF.SameCoordinates,Original*%
%TF.FileFunction,Legend,Bot*%
%TF.FilePolarity,Positive*%
%FSLAX46Y46*%
G04 Gerber Fmt 4.6, Leading zero omitted, Abs format (unit mm)*
G04 Created by KiCad (PCBNEW 8.0.4) date 2024-08-22 06:16:07*
%MOMM*%
%LPD*%
G01*
G04 APERTURE LIST*
%ADD10C,0.093750*%
%ADD11C,0.300000*%
G04 APERTURE END LIST*
D10*
X158545465Y-42403339D02*
X158545465Y-42939053D01*
X158545465Y-42939053D02*
X158581180Y-43046196D01*
X158581180Y-43046196D02*
X158652608Y-43117625D01*
X158652608Y-43117625D02*
X158759751Y-43153339D01*
X158759751Y-43153339D02*
X158831180Y-43153339D01*
X157866894Y-43153339D02*
X157866894Y-42760482D01*
X157866894Y-42760482D02*
X157902608Y-42689053D01*
X157902608Y-42689053D02*
X157974036Y-42653339D01*
X157974036Y-42653339D02*
X158116894Y-42653339D01*
X158116894Y-42653339D02*
X158188322Y-42689053D01*
X157866894Y-43117625D02*
X157938322Y-43153339D01*
X157938322Y-43153339D02*
X158116894Y-43153339D01*
X158116894Y-43153339D02*
X158188322Y-43117625D01*
X158188322Y-43117625D02*
X158224036Y-43046196D01*
X158224036Y-43046196D02*
X158224036Y-42974767D01*
X158224036Y-42974767D02*
X158188322Y-42903339D01*
X158188322Y-42903339D02*
X158116894Y-42867625D01*
X158116894Y-42867625D02*
X157938322Y-42867625D01*
X157938322Y-42867625D02*
X157866894Y-42831910D01*
X157545465Y-43117625D02*
X157474037Y-43153339D01*
X157474037Y-43153339D02*
X157331180Y-43153339D01*
X157331180Y-43153339D02*
X157259751Y-43117625D01*
X157259751Y-43117625D02*
X157224037Y-43046196D01*
X157224037Y-43046196D02*
X157224037Y-43010482D01*
X157224037Y-43010482D02*
X157259751Y-42939053D01*
X157259751Y-42939053D02*
X157331180Y-42903339D01*
X157331180Y-42903339D02*
X157438323Y-42903339D01*
X157438323Y-42903339D02*
X157509751Y-42867625D01*
X157509751Y-42867625D02*
X157545465Y-42796196D01*
X157545465Y-42796196D02*
X157545465Y-42760482D01*
X157545465Y-42760482D02*
X157509751Y-42689053D01*
X157509751Y-42689053D02*
X157438323Y-42653339D01*
X157438323Y-42653339D02*
X157331180Y-42653339D01*
X157331180Y-42653339D02*
X157259751Y-42689053D01*
X156795465Y-43153339D02*
X156866894Y-43117625D01*
X156866894Y-43117625D02*
X156902608Y-43081910D01*
X156902608Y-43081910D02*
X156938322Y-43010482D01*
X156938322Y-43010482D02*
X156938322Y-42796196D01*
X156938322Y-42796196D02*
X156902608Y-42724767D01*
X156902608Y-42724767D02*
X156866894Y-42689053D01*
X156866894Y-42689053D02*
X156795465Y-42653339D01*
X156795465Y-42653339D02*
X156688322Y-42653339D01*
X156688322Y-42653339D02*
X156616894Y-42689053D01*
X156616894Y-42689053D02*
X156581180Y-42724767D01*
X156581180Y-42724767D02*
X156545465Y-42796196D01*
X156545465Y-42796196D02*
X156545465Y-43010482D01*
X156545465Y-43010482D02*
X156581180Y-43081910D01*
X156581180Y-43081910D02*
X156616894Y-43117625D01*
X156616894Y-43117625D02*
X156688322Y-43153339D01*
X156688322Y-43153339D02*
X156795465Y-43153339D01*
X156224037Y-42653339D02*
X156224037Y-43153339D01*
X156224037Y-42724767D02*
X156188323Y-42689053D01*
X156188323Y-42689053D02*
X156116894Y-42653339D01*
X156116894Y-42653339D02*
X156009751Y-42653339D01*
X156009751Y-42653339D02*
X155938323Y-42689053D01*
X155938323Y-42689053D02*
X155902609Y-42760482D01*
X155902609Y-42760482D02*
X155902609Y-43153339D01*
X155009751Y-42939053D02*
X154652609Y-42939053D01*
X155081180Y-43153339D02*
X154831180Y-42403339D01*
X154831180Y-42403339D02*
X154581180Y-43153339D01*
X154224037Y-43153339D02*
X154295466Y-43117625D01*
X154295466Y-43117625D02*
X154331180Y-43046196D01*
X154331180Y-43046196D02*
X154331180Y-42403339D01*
X153652609Y-43117625D02*
X153724037Y-43153339D01*
X153724037Y-43153339D02*
X153866895Y-43153339D01*
X153866895Y-43153339D02*
X153938323Y-43117625D01*
X153938323Y-43117625D02*
X153974037Y-43046196D01*
X153974037Y-43046196D02*
X153974037Y-42760482D01*
X153974037Y-42760482D02*
X153938323Y-42689053D01*
X153938323Y-42689053D02*
X153866895Y-42653339D01*
X153866895Y-42653339D02*
X153724037Y-42653339D01*
X153724037Y-42653339D02*
X153652609Y-42689053D01*
X153652609Y-42689053D02*
X153616895Y-42760482D01*
X153616895Y-42760482D02*
X153616895Y-42831910D01*
X153616895Y-42831910D02*
X153974037Y-42903339D01*
X153366895Y-43153339D02*
X152974038Y-42653339D01*
X153366895Y-42653339D02*
X152974038Y-43153339D01*
X152366895Y-43153339D02*
X152366895Y-42760482D01*
X152366895Y-42760482D02*
X152402609Y-42689053D01*
X152402609Y-42689053D02*
X152474037Y-42653339D01*
X152474037Y-42653339D02*
X152616895Y-42653339D01*
X152616895Y-42653339D02*
X152688323Y-42689053D01*
X152366895Y-43117625D02*
X152438323Y-43153339D01*
X152438323Y-43153339D02*
X152616895Y-43153339D01*
X152616895Y-43153339D02*
X152688323Y-43117625D01*
X152688323Y-43117625D02*
X152724037Y-43046196D01*
X152724037Y-43046196D02*
X152724037Y-42974767D01*
X152724037Y-42974767D02*
X152688323Y-42903339D01*
X152688323Y-42903339D02*
X152616895Y-42867625D01*
X152616895Y-42867625D02*
X152438323Y-42867625D01*
X152438323Y-42867625D02*
X152366895Y-42831910D01*
X152009752Y-42653339D02*
X152009752Y-43153339D01*
X152009752Y-42724767D02*
X151974038Y-42689053D01*
X151974038Y-42689053D02*
X151902609Y-42653339D01*
X151902609Y-42653339D02*
X151795466Y-42653339D01*
X151795466Y-42653339D02*
X151724038Y-42689053D01*
X151724038Y-42689053D02*
X151688324Y-42760482D01*
X151688324Y-42760482D02*
X151688324Y-43153339D01*
X151009753Y-43153339D02*
X151009753Y-42403339D01*
X151009753Y-43117625D02*
X151081181Y-43153339D01*
X151081181Y-43153339D02*
X151224038Y-43153339D01*
X151224038Y-43153339D02*
X151295467Y-43117625D01*
X151295467Y-43117625D02*
X151331181Y-43081910D01*
X151331181Y-43081910D02*
X151366895Y-43010482D01*
X151366895Y-43010482D02*
X151366895Y-42796196D01*
X151366895Y-42796196D02*
X151331181Y-42724767D01*
X151331181Y-42724767D02*
X151295467Y-42689053D01*
X151295467Y-42689053D02*
X151224038Y-42653339D01*
X151224038Y-42653339D02*
X151081181Y-42653339D01*
X151081181Y-42653339D02*
X151009753Y-42689053D01*
X150366896Y-43117625D02*
X150438324Y-43153339D01*
X150438324Y-43153339D02*
X150581182Y-43153339D01*
X150581182Y-43153339D02*
X150652610Y-43117625D01*
X150652610Y-43117625D02*
X150688324Y-43046196D01*
X150688324Y-43046196D02*
X150688324Y-42760482D01*
X150688324Y-42760482D02*
X150652610Y-42689053D01*
X150652610Y-42689053D02*
X150581182Y-42653339D01*
X150581182Y-42653339D02*
X150438324Y-42653339D01*
X150438324Y-42653339D02*
X150366896Y-42689053D01*
X150366896Y-42689053D02*
X150331182Y-42760482D01*
X150331182Y-42760482D02*
X150331182Y-42831910D01*
X150331182Y-42831910D02*
X150688324Y-42903339D01*
X150009753Y-43153339D02*
X150009753Y-42653339D01*
X150009753Y-42796196D02*
X149974039Y-42724767D01*
X149974039Y-42724767D02*
X149938325Y-42689053D01*
X149938325Y-42689053D02*
X149866896Y-42653339D01*
X149866896Y-42653339D02*
X149795467Y-42653339D01*
D11*
G36*
X158810956Y-41979000D02*
G01*
X158494050Y-41979000D01*
X158494050Y-41439711D01*
X158357397Y-41439711D01*
X158317257Y-41439106D01*
X158241789Y-41434263D01*
X158161850Y-41422492D01*
X158081181Y-41400968D01*
X158011915Y-41370835D01*
X157988716Y-41357534D01*
X157926770Y-41312995D01*
X157871400Y-41255350D01*
X157830198Y-41189118D01*
X157823588Y-41174896D01*
X157796934Y-41101637D01*
X157780941Y-41024801D01*
X157776290Y-40954645D01*
X158096912Y-40954645D01*
X158100681Y-41005097D01*
X158124680Y-41076495D01*
X158175680Y-41132332D01*
X158236413Y-41163411D01*
X158310307Y-41181589D01*
X158388904Y-41186920D01*
X158494050Y-41186920D01*
X158494050Y-40731163D01*
X158348970Y-40731163D01*
X158276356Y-40736619D01*
X158195372Y-40762590D01*
X158138511Y-40809949D01*
X158105773Y-40878696D01*
X158096912Y-40954645D01*
X157776290Y-40954645D01*
X157775610Y-40944387D01*
X157778866Y-40878767D01*
X157791368Y-40806021D01*
X157817805Y-40729420D01*
X157857005Y-40661725D01*
X157908967Y-40602935D01*
X157935346Y-40580674D01*
X158007592Y-40537247D01*
X158081433Y-40509512D01*
X158166273Y-40490536D01*
X158245376Y-40481413D01*
X158332117Y-40478371D01*
X158810956Y-40478371D01*
X158810956Y-41979000D01*
G37*
G36*
X157359787Y-40384582D02*
G01*
X157284277Y-40396077D01*
X157240352Y-40417189D01*
X157196903Y-40479098D01*
X157189794Y-40536990D01*
X157202433Y-40609621D01*
X157240352Y-40656058D01*
X157310534Y-40684709D01*
X157359787Y-40689397D01*
X157433203Y-40678849D01*
X157480687Y-40656058D01*
X157522876Y-40593919D01*
X157529780Y-40536990D01*
X157517506Y-40463259D01*
X157480687Y-40417189D01*
X157410276Y-40389167D01*
X157359787Y-40384582D01*
G37*
G36*
X157204448Y-40830081D02*
G01*
X157204448Y-41979000D01*
X157517323Y-41979000D01*
X157517323Y-40830081D01*
X157204448Y-40830081D01*
G37*
G36*
X156410537Y-42002447D02*
G01*
X156487826Y-41998994D01*
X156573040Y-41985736D01*
X156650036Y-41962535D01*
X156718816Y-41929391D01*
X156779377Y-41886303D01*
X156806577Y-41861030D01*
X156854014Y-41802001D01*
X156891636Y-41731251D01*
X156919444Y-41648781D01*
X156935120Y-41571102D01*
X156943980Y-41485284D01*
X156946161Y-41410769D01*
X156943650Y-41334377D01*
X156934371Y-41252189D01*
X156918255Y-41177469D01*
X156891464Y-41101219D01*
X156874720Y-41066752D01*
X156835542Y-41004448D01*
X156783201Y-40944810D01*
X156722108Y-40896243D01*
X156676517Y-40870015D01*
X156601936Y-40839377D01*
X156530483Y-40820560D01*
X156454176Y-40809667D01*
X156383426Y-40806634D01*
X156306167Y-40809361D01*
X156230081Y-40818557D01*
X156178628Y-40829715D01*
X156106540Y-40851523D01*
X156034458Y-40880398D01*
X156026221Y-40884303D01*
X156118911Y-41131599D01*
X156189894Y-41102931D01*
X156256297Y-41079942D01*
X156328078Y-41063352D01*
X156383426Y-41059425D01*
X156466223Y-41071738D01*
X156531889Y-41108678D01*
X156580425Y-41170245D01*
X156607786Y-41240362D01*
X156623251Y-41327581D01*
X156627058Y-41409669D01*
X156623051Y-41491140D01*
X156608964Y-41569109D01*
X156581415Y-41638747D01*
X156562944Y-41666857D01*
X156507646Y-41717312D01*
X156437923Y-41744481D01*
X156383426Y-41749655D01*
X156306924Y-41745302D01*
X156233194Y-41730876D01*
X156209036Y-41723277D01*
X156139168Y-41694120D01*
X156071070Y-41656108D01*
X156062124Y-41650371D01*
X156062124Y-41918183D01*
X156130710Y-41954794D01*
X156202516Y-41980136D01*
X156212334Y-41982663D01*
X156289040Y-41996187D01*
X156367178Y-42001751D01*
X156410537Y-42002447D01*
G37*
G36*
X155356742Y-40807989D02*
G01*
X155432161Y-40816274D01*
X155515486Y-40836156D01*
X155590980Y-40866884D01*
X155658643Y-40908456D01*
X155718475Y-40960873D01*
X155761431Y-41012320D01*
X155803369Y-41082627D01*
X155834822Y-41162286D01*
X155853023Y-41235811D01*
X155863945Y-41315830D01*
X155867585Y-41402342D01*
X155867306Y-41426157D01*
X155861934Y-41505926D01*
X155849725Y-41580120D01*
X155827399Y-41658087D01*
X155796144Y-41728773D01*
X155772513Y-41769110D01*
X155723395Y-41833829D01*
X155665815Y-41888405D01*
X155599773Y-41932838D01*
X155543468Y-41959961D01*
X155466233Y-41985045D01*
X155393006Y-41998096D01*
X155315474Y-42002447D01*
X155267995Y-42001075D01*
X155193085Y-41992692D01*
X155110160Y-41972574D01*
X155034833Y-41941482D01*
X154967106Y-41899415D01*
X154906978Y-41846376D01*
X154863705Y-41794287D01*
X154821458Y-41723327D01*
X154789774Y-41643144D01*
X154771437Y-41569281D01*
X154760436Y-41489014D01*
X154756769Y-41402342D01*
X155075872Y-41402342D01*
X155076742Y-41443902D01*
X155083703Y-41519189D01*
X155099854Y-41591408D01*
X155131559Y-41661728D01*
X155168274Y-41704232D01*
X155233996Y-41739266D01*
X155311078Y-41749655D01*
X155369696Y-41744160D01*
X155441137Y-41715309D01*
X155492794Y-41661728D01*
X155508837Y-41632211D01*
X155532765Y-41560942D01*
X155545001Y-41482851D01*
X155548482Y-41402342D01*
X155547612Y-41360817D01*
X155540651Y-41285804D01*
X155524499Y-41214223D01*
X155492794Y-41145154D01*
X155456080Y-41103713D01*
X155390358Y-41069555D01*
X155313276Y-41059425D01*
X155254658Y-41064783D01*
X155183217Y-41092913D01*
X155131559Y-41145154D01*
X155115516Y-41174038D01*
X155091588Y-41244363D01*
X155079352Y-41321971D01*
X155075872Y-41402342D01*
X154756769Y-41402342D01*
X154757048Y-41378798D01*
X154762420Y-41299908D01*
X154774629Y-41226487D01*
X154796954Y-41149276D01*
X154828210Y-41079209D01*
X154851814Y-41039197D01*
X154900748Y-40974974D01*
X154957971Y-40920778D01*
X155023482Y-40876609D01*
X155079464Y-40849344D01*
X155156747Y-40824128D01*
X155230455Y-40811007D01*
X155308879Y-40806634D01*
X155356742Y-40807989D01*
G37*
G36*
X154473203Y-41979000D02*
G01*
X154048953Y-41979000D01*
X153978044Y-41977309D01*
X153888147Y-41969796D01*
X153803563Y-41956272D01*
X153724291Y-41936737D01*
X153650331Y-41911192D01*
X153581684Y-41879636D01*
X153518349Y-41842069D01*
X153446650Y-41786658D01*
X153420431Y-41761881D01*
X153362283Y-41693516D01*
X153314707Y-41615973D01*
X153284259Y-41547331D01*
X153260577Y-41472816D01*
X153243661Y-41392427D01*
X153233512Y-41306166D01*
X153230465Y-41223190D01*
X153559856Y-41223190D01*
X153563898Y-41313085D01*
X153576021Y-41394138D01*
X153604758Y-41488453D01*
X153647863Y-41567050D01*
X153705336Y-41629927D01*
X153777178Y-41677085D01*
X153863388Y-41708524D01*
X153937475Y-41721787D01*
X154019644Y-41726208D01*
X154156297Y-41726208D01*
X154156297Y-40731163D01*
X153985938Y-40731163D01*
X153960357Y-40731631D01*
X153876886Y-40740639D01*
X153802848Y-40761113D01*
X153729781Y-40798551D01*
X153669033Y-40850964D01*
X153621268Y-40919153D01*
X153590669Y-40992418D01*
X153572757Y-41065319D01*
X153562522Y-41147545D01*
X153559856Y-41223190D01*
X153230465Y-41223190D01*
X153230129Y-41214031D01*
X153230222Y-41199130D01*
X153234704Y-41112834D01*
X153245910Y-41031870D01*
X153263839Y-40956239D01*
X153288491Y-40885940D01*
X153325750Y-40810664D01*
X153350783Y-40770885D01*
X153400458Y-40707304D01*
X153457602Y-40651403D01*
X153522214Y-40603180D01*
X153594295Y-40562635D01*
X153616198Y-40552431D01*
X153684810Y-40525770D01*
X153757775Y-40505033D01*
X153835093Y-40490221D01*
X153916765Y-40481334D01*
X154002791Y-40478371D01*
X154473203Y-40478371D01*
X154473203Y-41979000D01*
G37*
G36*
X152489858Y-40806748D02*
G01*
X152564777Y-40810755D01*
X152638121Y-40820487D01*
X152709891Y-40835943D01*
X152771773Y-40853701D01*
X152842527Y-40879420D01*
X152913590Y-40912513D01*
X152810642Y-41125737D01*
X152790680Y-41116944D01*
X152720907Y-41089055D01*
X152651273Y-41065653D01*
X152641272Y-41062681D01*
X152565173Y-41046500D01*
X152487142Y-41041107D01*
X152420744Y-41049522D01*
X152355983Y-41085071D01*
X152319107Y-41145662D01*
X152308722Y-41222824D01*
X152308722Y-41275580D01*
X152508391Y-41275580D01*
X152585297Y-41277709D01*
X152669343Y-41285883D01*
X152744399Y-41300189D01*
X152820602Y-41324627D01*
X152892707Y-41362775D01*
X152900574Y-41368320D01*
X152954515Y-41419530D01*
X152992474Y-41482923D01*
X153014450Y-41558497D01*
X153020568Y-41634617D01*
X153017026Y-41702130D01*
X153001284Y-41781207D01*
X152968521Y-41855225D01*
X152919818Y-41913420D01*
X152880195Y-41943675D01*
X152813853Y-41977321D01*
X152739223Y-41996883D01*
X152665928Y-42002447D01*
X152590396Y-41999085D01*
X152511225Y-41985846D01*
X152441346Y-41959949D01*
X152395851Y-41931809D01*
X152337264Y-41881757D01*
X152285642Y-41823295D01*
X152277215Y-41823295D01*
X152216399Y-41979000D01*
X151998046Y-41979000D01*
X151998046Y-41552185D01*
X152308722Y-41552185D01*
X152309804Y-41577195D01*
X152330631Y-41653280D01*
X152377965Y-41711554D01*
X152400382Y-41727807D01*
X152471428Y-41758662D01*
X152548325Y-41767974D01*
X152587795Y-41765111D01*
X152657501Y-41738665D01*
X152681280Y-41713630D01*
X152699267Y-41640113D01*
X152686387Y-41572342D01*
X152640648Y-41511885D01*
X152583478Y-41482192D01*
X152508353Y-41467013D01*
X152430722Y-41463159D01*
X152308722Y-41463159D01*
X152308722Y-41552185D01*
X151998046Y-41552185D01*
X151998046Y-41212932D01*
X151998525Y-41187564D01*
X152007754Y-41105313D01*
X152028729Y-41033230D01*
X152067082Y-40963300D01*
X152120778Y-40906651D01*
X152170615Y-40872661D01*
X152238395Y-40841894D01*
X152316553Y-40820699D01*
X152391807Y-40810150D01*
X152474685Y-40806634D01*
X152489858Y-40806748D01*
G37*
G36*
X151519940Y-40384582D02*
G01*
X151444431Y-40396077D01*
X151400505Y-40417189D01*
X151357057Y-40479098D01*
X151349947Y-40536990D01*
X151362587Y-40609621D01*
X151400505Y-40656058D01*
X151470687Y-40684709D01*
X151519940Y-40689397D01*
X151593356Y-40678849D01*
X151640840Y-40656058D01*
X151683030Y-40593919D01*
X151689933Y-40536990D01*
X151677660Y-40463259D01*
X151640840Y-40417189D01*
X151570430Y-40389167D01*
X151519940Y-40384582D01*
G37*
G36*
X151364602Y-40830081D02*
G01*
X151364602Y-41979000D01*
X151677477Y-41979000D01*
X151677477Y-40830081D01*
X151364602Y-40830081D01*
G37*
G36*
X150236933Y-41639746D02*
G01*
X150244626Y-41722224D01*
X150267707Y-41794535D01*
X150312066Y-41863733D01*
X150360031Y-41908658D01*
X150428953Y-41949690D01*
X150501657Y-41975977D01*
X150585932Y-41993288D01*
X150667376Y-42000981D01*
X150726395Y-42002447D01*
X150804567Y-42000542D01*
X150880860Y-41994119D01*
X150931926Y-41986327D01*
X151007259Y-41968685D01*
X151077212Y-41945397D01*
X151104117Y-41934669D01*
X151104117Y-41672353D01*
X151032813Y-41701393D01*
X150957388Y-41726414D01*
X150904815Y-41740863D01*
X150827912Y-41757383D01*
X150752741Y-41766676D01*
X150715771Y-41767974D01*
X150642124Y-41762017D01*
X150585711Y-41740863D01*
X150546129Y-41677219D01*
X150545778Y-41669055D01*
X150561531Y-41616665D01*
X150620174Y-41569353D01*
X150629675Y-41563909D01*
X150696811Y-41530295D01*
X150766518Y-41499434D01*
X150793440Y-41488071D01*
X150863693Y-41456465D01*
X150929373Y-41422281D01*
X150971127Y-41396847D01*
X151030661Y-41346746D01*
X151072976Y-41287304D01*
X151097980Y-41215038D01*
X151106185Y-41138432D01*
X151106315Y-41126470D01*
X151098575Y-41051434D01*
X151071366Y-40979006D01*
X151024567Y-40919272D01*
X150982484Y-40886501D01*
X150915439Y-40851559D01*
X150838136Y-40826601D01*
X150762081Y-40812951D01*
X150678172Y-40806946D01*
X150652756Y-40806634D01*
X150573965Y-40809674D01*
X150498059Y-40818793D01*
X150449057Y-40828249D01*
X150375641Y-40848428D01*
X150306805Y-40873895D01*
X150249389Y-40899690D01*
X150343911Y-41130866D01*
X150415959Y-41099911D01*
X150484641Y-41073725D01*
X150503646Y-41067119D01*
X150574883Y-41048448D01*
X150651934Y-41041132D01*
X150656786Y-41041107D01*
X150730009Y-41048513D01*
X150790757Y-41091172D01*
X150795638Y-41116944D01*
X150777686Y-41166770D01*
X150717767Y-41209320D01*
X150708443Y-41214031D01*
X150639702Y-41245646D01*
X150568438Y-41276241D01*
X150556036Y-41281442D01*
X150485934Y-41311856D01*
X150418596Y-41345851D01*
X150386043Y-41364607D01*
X150326231Y-41410046D01*
X150278226Y-41469340D01*
X150275767Y-41473417D01*
X150247893Y-41542443D01*
X150237539Y-41615028D01*
X150236933Y-41639746D01*
G37*
G36*
X150157431Y-40830081D02*
G01*
X149815247Y-40830081D01*
X149598726Y-41484041D01*
X149578393Y-41557337D01*
X149573813Y-41581861D01*
X149563782Y-41655649D01*
X149560990Y-41686274D01*
X149554762Y-41686274D01*
X149544120Y-41613152D01*
X149537909Y-41581861D01*
X149518675Y-41508427D01*
X149510799Y-41484041D01*
X149298674Y-40830081D01*
X148962351Y-40830081D01*
X149447784Y-42134704D01*
X149479833Y-42209234D01*
X149517317Y-42275103D01*
X149566811Y-42339778D01*
X149623403Y-42393141D01*
X149638660Y-42404715D01*
X149703071Y-42444145D01*
X149772474Y-42472309D01*
X149846869Y-42489208D01*
X149926256Y-42494840D01*
X150001613Y-42491710D01*
X150018946Y-42489711D01*
X150085990Y-42478720D01*
X150085990Y-42229593D01*
X150031402Y-42237653D01*
X149962159Y-42242049D01*
X149888979Y-42232133D01*
X149821670Y-42196047D01*
X149806821Y-42181965D01*
X149759621Y-42120587D01*
X149726462Y-42053568D01*
X149720725Y-42037984D01*
X149701674Y-41981198D01*
X150157431Y-40830081D01*
G37*
G36*
X148334036Y-41401243D02*
G01*
X148332221Y-41321663D01*
X148326774Y-41242977D01*
X148317695Y-41165185D01*
X148304985Y-41088288D01*
X148288643Y-41012285D01*
X148268671Y-40937177D01*
X148259665Y-40907384D01*
X148234234Y-40834120D01*
X148204653Y-40763164D01*
X148170921Y-40694515D01*
X148133040Y-40628174D01*
X148091008Y-40564141D01*
X148044826Y-40502416D01*
X148025191Y-40478371D01*
X147769103Y-40478371D01*
X147812090Y-40540941D01*
X147851749Y-40605461D01*
X147888082Y-40671931D01*
X147921087Y-40740351D01*
X147950764Y-40810720D01*
X147977115Y-40883039D01*
X147986723Y-40912513D01*
X148008149Y-40986891D01*
X148025943Y-41061878D01*
X148040105Y-41137473D01*
X148050637Y-41213676D01*
X148057536Y-41290487D01*
X148060805Y-41367907D01*
X148061095Y-41399045D01*
X148059297Y-41474887D01*
X148053904Y-41550370D01*
X148044915Y-41625497D01*
X148032330Y-41700265D01*
X148016149Y-41774676D01*
X147996373Y-41848728D01*
X147987456Y-41878249D01*
X147962762Y-41950934D01*
X147934705Y-42021525D01*
X147903285Y-42090023D01*
X147868502Y-42156429D01*
X147830356Y-42220741D01*
X147788846Y-42282960D01*
X147771301Y-42307262D01*
X148025191Y-42307262D01*
X148073033Y-42248361D01*
X148116725Y-42187063D01*
X148156267Y-42123368D01*
X148191658Y-42057276D01*
X148222899Y-41988786D01*
X148249990Y-41917900D01*
X148259665Y-41888874D01*
X148281090Y-41815338D01*
X148298884Y-41740818D01*
X148313047Y-41665315D01*
X148323578Y-41588827D01*
X148330478Y-41511356D01*
X148333746Y-41432901D01*
X148334036Y-41401243D01*
G37*
G36*
X147270481Y-41979000D02*
G01*
X147707187Y-40830081D01*
X147379658Y-40830081D01*
X147159106Y-41487339D01*
X147139583Y-41559062D01*
X147129797Y-41610071D01*
X147119092Y-41684288D01*
X147115143Y-41724010D01*
X147106716Y-41724010D01*
X147098286Y-41644638D01*
X147083861Y-41570678D01*
X147062995Y-41495001D01*
X147060554Y-41487339D01*
X146840003Y-40830081D01*
X146512107Y-40830081D01*
X146949180Y-41979000D01*
X147270481Y-41979000D01*
G37*
G36*
X145645655Y-41979000D02*
G01*
X145962561Y-41979000D01*
X145962561Y-41122073D01*
X145961915Y-41047815D01*
X145960729Y-40982122D01*
X145958185Y-40904177D01*
X145954134Y-40827517D01*
X145999563Y-40872213D01*
X146055903Y-40922663D01*
X146063311Y-40929000D01*
X146235502Y-41066020D01*
X146389009Y-40876976D01*
X145905774Y-40478371D01*
X145645655Y-40478371D01*
X145645655Y-41979000D01*
G37*
G36*
X145192829Y-41826592D02*
G01*
X145182801Y-41752470D01*
X145140439Y-41689938D01*
X145074081Y-41658240D01*
X145012212Y-41650737D01*
X144936387Y-41663141D01*
X144886549Y-41689938D01*
X144843890Y-41752470D01*
X144833792Y-41826592D01*
X144845384Y-41902482D01*
X144886549Y-41961048D01*
X144952095Y-41994523D01*
X145012212Y-42002447D01*
X145086171Y-41990763D01*
X145140439Y-41961048D01*
X145182801Y-41898129D01*
X145192829Y-41826592D01*
G37*
G36*
X143847540Y-41979000D02*
G01*
X144164445Y-41979000D01*
X144164445Y-41122073D01*
X144163799Y-41047815D01*
X144162613Y-40982122D01*
X144160069Y-40904177D01*
X144156018Y-40827517D01*
X144201448Y-40872213D01*
X144257787Y-40922663D01*
X144265195Y-40929000D01*
X144437386Y-41066020D01*
X144590893Y-40876976D01*
X144107658Y-40478371D01*
X143847540Y-40478371D01*
X143847540Y-41979000D01*
G37*
G36*
X142886566Y-41401243D02*
G01*
X142888391Y-41480092D01*
X142893865Y-41557957D01*
X142902988Y-41634838D01*
X142915761Y-41710735D01*
X142932183Y-41785648D01*
X142952254Y-41859578D01*
X142961304Y-41888874D01*
X142986630Y-41960719D01*
X143016123Y-42030167D01*
X143049785Y-42097219D01*
X143087614Y-42161873D01*
X143129612Y-42224129D01*
X143175778Y-42283989D01*
X143195411Y-42307262D01*
X143449302Y-42307262D01*
X143406957Y-42245880D01*
X143367850Y-42182405D01*
X143331981Y-42116837D01*
X143299350Y-42049175D01*
X143269957Y-41979421D01*
X143243801Y-41907574D01*
X143234246Y-41878249D01*
X143212715Y-41804340D01*
X143194833Y-41730072D01*
X143180601Y-41655447D01*
X143170018Y-41580464D01*
X143163084Y-41505123D01*
X143159799Y-41429424D01*
X143159508Y-41399045D01*
X143161332Y-41321382D01*
X143166806Y-41244328D01*
X143175930Y-41167881D01*
X143188702Y-41092043D01*
X143205124Y-41016813D01*
X143225195Y-40942191D01*
X143234246Y-40912513D01*
X143259160Y-40839414D01*
X143287419Y-40768264D01*
X143319023Y-40699065D01*
X143353973Y-40631815D01*
X143392267Y-40566515D01*
X143433907Y-40503165D01*
X143451500Y-40478371D01*
X143195411Y-40478371D01*
X143147578Y-40539174D01*
X143103913Y-40602284D01*
X143064416Y-40667702D01*
X143029088Y-40735428D01*
X142997927Y-40805461D01*
X142970934Y-40877802D01*
X142961304Y-40907384D01*
X142939773Y-40982134D01*
X142921892Y-41057779D01*
X142907659Y-41134319D01*
X142897076Y-41211753D01*
X142890142Y-41290081D01*
X142886858Y-41369304D01*
X142886566Y-41401243D01*
G37*
M02*
