%TF.GenerationSoftware,KiCad,Pcbnew,8.0.4*%
%TF.CreationDate,2024-08-22T23:27:10+01:00*%
%TF.ProjectId,PicoChainZero,5069636f-4368-4616-996e-5a65726f2e6b,v1.1*%
%TF.SameCoordinates,Original*%
%TF.FileFunction,Legend,Bot*%
%TF.FilePolarity,Positive*%
%FSLAX46Y46*%
G04 Gerber Fmt 4.6, Leading zero omitted, Abs format (unit mm)*
G04 Created by KiCad (PCBNEW 8.0.4) date 2024-08-22 23:27:10*
%MOMM*%
%LPD*%
G01*
G04 APERTURE LIST*
%ADD10C,0.000000*%
%ADD11C,0.062500*%
%ADD12C,0.093750*%
%ADD13C,0.300000*%
G04 APERTURE END LIST*
D10*
G36*
X157239018Y-79251784D02*
G01*
X157239018Y-79336107D01*
X156906357Y-79435431D01*
X156906357Y-79437309D01*
X157239018Y-79536634D01*
X157239018Y-79621010D01*
X156763958Y-79772775D01*
X156763958Y-79671545D01*
X157096592Y-79580714D01*
X157096592Y-79578782D01*
X156763958Y-79471044D01*
X156763958Y-79401697D01*
X157096592Y-79293958D01*
X157096592Y-79292080D01*
X156763958Y-79201169D01*
X156763958Y-79099992D01*
X157239018Y-79251784D01*
G37*
G36*
X156269233Y-79428544D02*
G01*
X156286427Y-79429084D01*
X156302318Y-79429994D01*
X156317000Y-79431286D01*
X156330569Y-79432967D01*
X156343118Y-79435049D01*
X156354742Y-79437539D01*
X156365536Y-79440448D01*
X156375594Y-79443786D01*
X156385012Y-79447561D01*
X156393884Y-79451783D01*
X156402304Y-79456462D01*
X156410367Y-79461607D01*
X156418168Y-79467227D01*
X156425801Y-79473333D01*
X156433362Y-79479934D01*
X156438833Y-79485066D01*
X156444319Y-79490634D01*
X156449768Y-79496653D01*
X156455130Y-79503143D01*
X156460355Y-79510121D01*
X156465391Y-79517605D01*
X156470189Y-79525614D01*
X156474696Y-79534163D01*
X156476825Y-79538647D01*
X156478863Y-79543273D01*
X156480803Y-79548043D01*
X156482639Y-79552960D01*
X156484365Y-79558026D01*
X156485973Y-79563243D01*
X156487459Y-79568613D01*
X156488815Y-79574138D01*
X156490035Y-79579822D01*
X156491113Y-79585665D01*
X156492043Y-79591671D01*
X156492818Y-79597841D01*
X156493431Y-79604178D01*
X156493878Y-79610684D01*
X156494150Y-79617361D01*
X156494242Y-79624211D01*
X156493878Y-79637748D01*
X156492818Y-79650599D01*
X156491113Y-79662782D01*
X156488815Y-79674315D01*
X156485973Y-79685215D01*
X156482639Y-79695502D01*
X156478863Y-79705193D01*
X156474696Y-79714305D01*
X156470188Y-79722857D01*
X156465391Y-79730867D01*
X156460355Y-79738352D01*
X156455130Y-79745331D01*
X156449768Y-79751822D01*
X156444318Y-79757842D01*
X156438833Y-79763409D01*
X156433362Y-79768542D01*
X156425801Y-79775141D01*
X156418167Y-79781246D01*
X156410365Y-79786864D01*
X156402300Y-79792005D01*
X156393879Y-79796680D01*
X156385005Y-79800898D01*
X156375586Y-79804668D01*
X156365526Y-79808001D01*
X156354731Y-79810905D01*
X156343106Y-79813391D01*
X156330557Y-79815467D01*
X156316989Y-79817145D01*
X156302308Y-79818433D01*
X156286420Y-79819341D01*
X156269228Y-79819879D01*
X156250640Y-79820056D01*
X156232207Y-79819879D01*
X156215152Y-79819341D01*
X156199382Y-79818433D01*
X156184804Y-79817145D01*
X156171325Y-79815467D01*
X156158851Y-79813391D01*
X156147289Y-79810905D01*
X156136545Y-79808001D01*
X156126526Y-79804668D01*
X156117139Y-79800898D01*
X156108289Y-79796680D01*
X156099885Y-79792005D01*
X156091831Y-79786864D01*
X156084036Y-79781246D01*
X156076405Y-79775141D01*
X156068845Y-79768542D01*
X156063373Y-79763409D01*
X156057886Y-79757842D01*
X156052434Y-79751822D01*
X156047068Y-79745331D01*
X156041839Y-79738352D01*
X156036799Y-79730867D01*
X156031997Y-79722857D01*
X156027484Y-79714305D01*
X156025352Y-79709820D01*
X156023312Y-79705193D01*
X156021370Y-79700421D01*
X156019531Y-79695502D01*
X156017804Y-79690435D01*
X156016193Y-79685216D01*
X156014705Y-79679843D01*
X156013347Y-79674315D01*
X156012125Y-79668628D01*
X156011045Y-79662782D01*
X156010114Y-79656773D01*
X156009338Y-79650599D01*
X156008724Y-79644258D01*
X156008277Y-79637748D01*
X156008004Y-79631066D01*
X156007912Y-79624211D01*
X156103505Y-79624211D01*
X156103678Y-79630326D01*
X156104187Y-79636356D01*
X156105017Y-79642281D01*
X156106153Y-79648082D01*
X156107580Y-79653740D01*
X156109283Y-79659235D01*
X156111247Y-79664550D01*
X156113457Y-79669663D01*
X156115898Y-79674557D01*
X156118555Y-79679212D01*
X156121413Y-79683608D01*
X156124457Y-79687727D01*
X156127672Y-79691550D01*
X156131042Y-79695056D01*
X156134554Y-79698228D01*
X156138192Y-79701046D01*
X156142868Y-79704248D01*
X156147474Y-79707172D01*
X156152095Y-79709829D01*
X156156815Y-79712228D01*
X156161717Y-79714379D01*
X156166884Y-79716292D01*
X156172400Y-79717976D01*
X156178350Y-79719441D01*
X156184816Y-79720698D01*
X156191882Y-79721755D01*
X156199632Y-79722623D01*
X156208149Y-79723311D01*
X156217518Y-79723829D01*
X156227821Y-79724187D01*
X156239143Y-79724395D01*
X156251567Y-79724462D01*
X156275004Y-79724187D01*
X156285181Y-79723829D01*
X156294441Y-79723311D01*
X156302866Y-79722623D01*
X156310537Y-79721755D01*
X156317539Y-79720698D01*
X156323953Y-79719441D01*
X156329862Y-79717976D01*
X156335349Y-79716292D01*
X156340495Y-79714379D01*
X156345384Y-79712228D01*
X156350098Y-79709829D01*
X156354719Y-79707172D01*
X156359331Y-79704248D01*
X156364014Y-79701046D01*
X156365846Y-79699683D01*
X156367648Y-79698228D01*
X156371157Y-79695056D01*
X156374525Y-79691550D01*
X156377739Y-79687727D01*
X156380782Y-79683608D01*
X156383640Y-79679212D01*
X156386298Y-79674557D01*
X156388740Y-79669663D01*
X156390951Y-79664550D01*
X156392917Y-79659235D01*
X156394621Y-79653740D01*
X156396050Y-79648082D01*
X156397187Y-79642281D01*
X156398018Y-79636356D01*
X156398528Y-79630326D01*
X156398701Y-79624211D01*
X156398528Y-79618105D01*
X156398019Y-79612081D01*
X156397190Y-79606161D01*
X156396054Y-79600363D01*
X156394627Y-79594707D01*
X156392924Y-79589213D01*
X156390960Y-79583899D01*
X156388750Y-79578785D01*
X156386309Y-79573892D01*
X156383652Y-79569237D01*
X156380794Y-79564842D01*
X156377750Y-79560725D01*
X156374535Y-79556905D01*
X156371164Y-79553403D01*
X156367652Y-79550238D01*
X156364014Y-79547429D01*
X156359330Y-79544227D01*
X156354717Y-79541301D01*
X156350092Y-79538641D01*
X156345369Y-79536239D01*
X156340467Y-79534084D01*
X156335300Y-79532167D01*
X156329785Y-79530478D01*
X156323837Y-79529007D01*
X156317374Y-79527746D01*
X156310311Y-79526684D01*
X156302565Y-79525812D01*
X156294050Y-79525120D01*
X156284685Y-79524598D01*
X156274384Y-79524237D01*
X156263064Y-79524028D01*
X156250640Y-79523960D01*
X156227201Y-79524237D01*
X156217021Y-79524598D01*
X156207759Y-79525120D01*
X156199331Y-79525812D01*
X156191656Y-79526684D01*
X156184651Y-79527746D01*
X156178234Y-79529007D01*
X156172323Y-79530478D01*
X156166835Y-79532167D01*
X156161688Y-79534084D01*
X156156800Y-79536239D01*
X156152089Y-79538641D01*
X156147472Y-79541301D01*
X156142867Y-79544227D01*
X156138192Y-79547429D01*
X156136361Y-79548788D01*
X156134559Y-79550238D01*
X156131050Y-79553403D01*
X156127681Y-79556905D01*
X156124468Y-79560725D01*
X156121425Y-79564842D01*
X156118567Y-79569237D01*
X156115909Y-79573892D01*
X156113467Y-79578785D01*
X156111256Y-79583899D01*
X156109290Y-79589213D01*
X156107586Y-79594707D01*
X156106157Y-79600363D01*
X156105020Y-79606161D01*
X156104188Y-79612081D01*
X156103679Y-79618105D01*
X156103505Y-79624211D01*
X156007912Y-79624211D01*
X156008277Y-79610684D01*
X156009338Y-79597841D01*
X156011045Y-79585665D01*
X156013347Y-79574138D01*
X156016193Y-79563243D01*
X156019531Y-79552960D01*
X156023312Y-79543273D01*
X156027484Y-79534164D01*
X156031997Y-79525614D01*
X156036799Y-79517606D01*
X156041840Y-79510121D01*
X156047068Y-79503143D01*
X156052434Y-79496653D01*
X156057886Y-79490634D01*
X156063373Y-79485066D01*
X156068845Y-79479934D01*
X156076409Y-79473333D01*
X156084043Y-79467227D01*
X156091841Y-79461607D01*
X156099896Y-79456462D01*
X156108301Y-79451783D01*
X156117150Y-79447561D01*
X156126537Y-79443786D01*
X156136555Y-79440448D01*
X156147298Y-79437539D01*
X156158858Y-79435049D01*
X156171331Y-79432967D01*
X156184808Y-79431286D01*
X156199384Y-79429994D01*
X156215153Y-79429084D01*
X156232207Y-79428544D01*
X156250640Y-79428367D01*
X156269233Y-79428544D01*
G37*
G36*
X156251566Y-77412824D02*
G01*
X157239018Y-77412824D01*
X157239018Y-77508418D01*
X156956046Y-77508418D01*
X156950061Y-77508535D01*
X156944238Y-77508883D01*
X156938578Y-77509458D01*
X156933083Y-77510254D01*
X156927755Y-77511267D01*
X156922596Y-77512492D01*
X156917608Y-77513924D01*
X156912793Y-77515559D01*
X156908152Y-77517391D01*
X156903687Y-77519416D01*
X156899401Y-77521629D01*
X156895295Y-77524025D01*
X156891371Y-77526600D01*
X156887631Y-77529348D01*
X156884076Y-77532265D01*
X156880709Y-77535346D01*
X156877532Y-77538586D01*
X156874546Y-77541980D01*
X156871754Y-77545525D01*
X156869156Y-77549214D01*
X156866756Y-77553043D01*
X156864554Y-77557007D01*
X156862553Y-77561102D01*
X156860755Y-77565322D01*
X156859162Y-77569663D01*
X156857774Y-77574121D01*
X156856596Y-77578689D01*
X156855627Y-77583364D01*
X156854870Y-77588141D01*
X156854327Y-77593014D01*
X156854000Y-77597980D01*
X156853891Y-77603033D01*
X156854000Y-77608001D01*
X156854327Y-77612888D01*
X156854870Y-77617688D01*
X156855627Y-77622397D01*
X156856596Y-77627008D01*
X156857774Y-77631518D01*
X156859162Y-77635921D01*
X156860755Y-77640212D01*
X156862553Y-77644386D01*
X156864554Y-77648439D01*
X156866756Y-77652366D01*
X156869156Y-77656160D01*
X156871753Y-77659818D01*
X156874546Y-77663334D01*
X156877532Y-77666704D01*
X156880709Y-77669923D01*
X156884076Y-77672984D01*
X156887630Y-77675885D01*
X156891371Y-77678619D01*
X156895295Y-77681181D01*
X156899401Y-77683567D01*
X156903687Y-77685772D01*
X156908152Y-77687790D01*
X156912793Y-77689617D01*
X156917608Y-77691248D01*
X156922596Y-77692677D01*
X156927755Y-77693900D01*
X156933083Y-77694912D01*
X156938578Y-77695708D01*
X156944238Y-77696282D01*
X156950061Y-77696631D01*
X156956046Y-77696748D01*
X157239017Y-77696748D01*
X157239017Y-77792316D01*
X156923211Y-77792316D01*
X156913259Y-77792071D01*
X156903604Y-77791350D01*
X156894249Y-77790170D01*
X156885193Y-77788548D01*
X156876439Y-77786500D01*
X156867987Y-77784046D01*
X156859839Y-77781201D01*
X156851995Y-77777983D01*
X156844458Y-77774410D01*
X156837227Y-77770499D01*
X156830305Y-77766267D01*
X156823693Y-77761731D01*
X156817392Y-77756910D01*
X156811403Y-77751819D01*
X156805727Y-77746477D01*
X156800365Y-77740900D01*
X156795319Y-77735107D01*
X156790590Y-77729114D01*
X156786179Y-77722939D01*
X156782087Y-77716599D01*
X156778315Y-77710112D01*
X156774865Y-77703494D01*
X156771739Y-77696763D01*
X156768936Y-77689937D01*
X156766458Y-77683032D01*
X156764307Y-77676066D01*
X156762483Y-77669057D01*
X156760989Y-77662021D01*
X156759824Y-77654977D01*
X156758991Y-77647941D01*
X156758490Y-77640930D01*
X156758322Y-77633962D01*
X156758542Y-77624566D01*
X156759202Y-77615350D01*
X156760301Y-77606321D01*
X156761839Y-77597484D01*
X156763817Y-77588844D01*
X156766234Y-77580408D01*
X156769090Y-77572179D01*
X156772385Y-77564165D01*
X156776119Y-77556371D01*
X156780293Y-77548801D01*
X156784905Y-77541462D01*
X156789956Y-77534359D01*
X156795446Y-77527498D01*
X156801374Y-77520883D01*
X156807741Y-77514521D01*
X156814547Y-77508418D01*
X156438044Y-77508762D01*
X156444235Y-77515474D01*
X156450146Y-77522263D01*
X156455760Y-77529139D01*
X156461061Y-77536115D01*
X156466033Y-77543200D01*
X156470659Y-77550406D01*
X156474922Y-77557743D01*
X156478807Y-77565224D01*
X156482296Y-77572858D01*
X156485374Y-77580657D01*
X156488023Y-77588632D01*
X156490227Y-77596793D01*
X156491971Y-77605153D01*
X156493236Y-77613721D01*
X156494008Y-77622509D01*
X156494268Y-77631528D01*
X156494192Y-77636926D01*
X156493965Y-77642232D01*
X156493590Y-77647444D01*
X156493071Y-77652564D01*
X156492410Y-77657592D01*
X156491611Y-77662527D01*
X156490677Y-77667371D01*
X156489611Y-77672122D01*
X156488415Y-77676782D01*
X156487094Y-77681349D01*
X156485650Y-77685826D01*
X156484086Y-77690211D01*
X156482405Y-77694505D01*
X156480611Y-77698708D01*
X156476693Y-77706842D01*
X156472359Y-77714613D01*
X156467632Y-77722024D01*
X156462537Y-77729075D01*
X156457099Y-77735767D01*
X156451342Y-77742103D01*
X156445292Y-77748082D01*
X156438972Y-77753707D01*
X156432409Y-77758978D01*
X156426104Y-77763678D01*
X156419734Y-77767954D01*
X156413171Y-77771825D01*
X156406285Y-77775306D01*
X156398947Y-77778415D01*
X156391029Y-77781166D01*
X156382402Y-77783577D01*
X156372937Y-77785665D01*
X156362506Y-77787445D01*
X156350978Y-77788934D01*
X156338227Y-77790149D01*
X156324122Y-77791106D01*
X156291337Y-77792313D01*
X156251593Y-77792686D01*
X156230615Y-77792595D01*
X156211528Y-77792313D01*
X156194201Y-77791822D01*
X156178505Y-77791106D01*
X156164308Y-77790149D01*
X156151481Y-77788934D01*
X156139892Y-77787445D01*
X156129411Y-77785665D01*
X156119908Y-77783577D01*
X156115482Y-77782413D01*
X156111252Y-77781166D01*
X156107201Y-77779834D01*
X156103313Y-77778415D01*
X156099571Y-77776906D01*
X156095959Y-77775307D01*
X156089062Y-77771825D01*
X156082489Y-77767954D01*
X156076111Y-77763678D01*
X156069797Y-77758978D01*
X156063234Y-77753707D01*
X156056915Y-77748082D01*
X156050864Y-77742103D01*
X156045108Y-77735767D01*
X156039670Y-77729075D01*
X156034575Y-77722024D01*
X156029847Y-77714613D01*
X156025513Y-77706842D01*
X156021596Y-77698708D01*
X156018121Y-77690211D01*
X156015112Y-77681350D01*
X156012595Y-77672122D01*
X156010595Y-77662527D01*
X156009135Y-77652564D01*
X156008241Y-77642232D01*
X156007938Y-77631528D01*
X156008199Y-77622448D01*
X156008968Y-77613491D01*
X156010230Y-77604672D01*
X156010669Y-77602477D01*
X156103505Y-77602477D01*
X156103720Y-77610663D01*
X156104354Y-77618365D01*
X156105396Y-77625596D01*
X156106830Y-77632372D01*
X156108643Y-77638707D01*
X156110823Y-77644616D01*
X156113355Y-77650114D01*
X156116226Y-77655216D01*
X156119422Y-77659936D01*
X156122929Y-77664290D01*
X156126735Y-77668291D01*
X156130826Y-77671955D01*
X156135188Y-77675296D01*
X156139807Y-77678330D01*
X156144670Y-77681070D01*
X156149764Y-77683532D01*
X156155075Y-77685731D01*
X156160590Y-77687681D01*
X156172174Y-77690893D01*
X156184410Y-77693287D01*
X156197189Y-77694981D01*
X156210402Y-77696093D01*
X156223942Y-77696742D01*
X156251566Y-77697119D01*
X156265261Y-77697044D01*
X156278870Y-77696742D01*
X156292281Y-77696093D01*
X156305386Y-77694981D01*
X156318074Y-77693287D01*
X156324227Y-77692185D01*
X156330235Y-77690893D01*
X156336084Y-77689396D01*
X156341760Y-77687681D01*
X156347249Y-77685731D01*
X156352538Y-77683532D01*
X156357613Y-77681070D01*
X156362460Y-77678330D01*
X156367065Y-77675296D01*
X156371415Y-77671955D01*
X156375496Y-77668291D01*
X156379295Y-77664290D01*
X156382796Y-77659936D01*
X156385988Y-77655216D01*
X156388855Y-77650114D01*
X156391385Y-77644616D01*
X156393563Y-77638707D01*
X156395376Y-77632372D01*
X156396810Y-77625596D01*
X156397852Y-77618365D01*
X156398486Y-77610663D01*
X156398701Y-77602477D01*
X156398473Y-77594375D01*
X156397800Y-77586753D01*
X156396699Y-77579595D01*
X156395185Y-77572888D01*
X156393275Y-77566617D01*
X156390986Y-77560768D01*
X156388333Y-77555324D01*
X156385333Y-77550274D01*
X156382002Y-77545600D01*
X156378357Y-77541290D01*
X156374413Y-77537328D01*
X156370188Y-77533699D01*
X156365696Y-77530390D01*
X156360956Y-77527386D01*
X156355982Y-77524671D01*
X156350792Y-77522232D01*
X156345401Y-77520054D01*
X156339826Y-77518122D01*
X156328189Y-77514939D01*
X156316010Y-77512565D01*
X156303421Y-77510885D01*
X156290552Y-77509781D01*
X156277533Y-77509137D01*
X156251566Y-77508762D01*
X156238475Y-77508836D01*
X156225294Y-77509138D01*
X156212151Y-77509783D01*
X156199176Y-77510888D01*
X156186497Y-77512570D01*
X156180309Y-77513664D01*
X156174244Y-77514945D01*
X156168317Y-77516430D01*
X156162545Y-77518131D01*
X156156945Y-77520063D01*
X156151531Y-77522242D01*
X156146320Y-77524682D01*
X156141328Y-77527397D01*
X156136572Y-77530402D01*
X156132068Y-77533711D01*
X156127831Y-77537339D01*
X156123878Y-77541302D01*
X156120225Y-77545612D01*
X156116888Y-77550285D01*
X156113883Y-77555335D01*
X156111227Y-77560777D01*
X156108934Y-77566626D01*
X156107023Y-77572896D01*
X156105508Y-77579601D01*
X156104406Y-77586757D01*
X156103733Y-77594377D01*
X156103505Y-77602477D01*
X156010669Y-77602477D01*
X156011965Y-77596005D01*
X156014155Y-77587502D01*
X156016784Y-77579178D01*
X156019833Y-77571046D01*
X156023284Y-77563120D01*
X156027119Y-77555414D01*
X156031321Y-77547941D01*
X156035872Y-77540714D01*
X156040754Y-77533748D01*
X156045950Y-77527056D01*
X156051440Y-77520652D01*
X156057208Y-77514549D01*
X156063236Y-77508762D01*
X156013573Y-77508762D01*
X156013573Y-77412824D01*
X156251566Y-77412824D01*
G37*
G36*
X156339306Y-79901898D02*
G01*
X156348960Y-79902619D01*
X156358316Y-79903800D01*
X156367371Y-79905424D01*
X156376126Y-79907474D01*
X156384578Y-79909932D01*
X156392726Y-79912781D01*
X156400570Y-79916004D01*
X156408107Y-79919584D01*
X156415337Y-79923504D01*
X156422259Y-79927747D01*
X156428871Y-79932295D01*
X156435173Y-79937131D01*
X156441162Y-79942238D01*
X156446838Y-79947600D01*
X156452200Y-79953198D01*
X156457246Y-79959015D01*
X156461975Y-79965035D01*
X156466386Y-79971240D01*
X156470478Y-79977614D01*
X156474249Y-79984138D01*
X156477699Y-79990796D01*
X156480826Y-79997571D01*
X156483629Y-80004445D01*
X156486106Y-80011402D01*
X156488257Y-80018423D01*
X156491576Y-80032593D01*
X156493574Y-80046818D01*
X156494074Y-80053907D01*
X156494242Y-80060959D01*
X156494022Y-80070184D01*
X156493362Y-80079247D01*
X156492264Y-80088139D01*
X156490725Y-80096851D01*
X156488748Y-80105371D01*
X156486331Y-80113692D01*
X156483474Y-80121802D01*
X156480179Y-80129691D01*
X156476445Y-80137351D01*
X156472272Y-80144770D01*
X156467659Y-80151940D01*
X156462608Y-80158851D01*
X156457119Y-80165492D01*
X156451190Y-80171853D01*
X156444823Y-80177926D01*
X156438018Y-80183699D01*
X156438018Y-80185551D01*
X156488659Y-80185551D01*
X156488659Y-80281092D01*
X156013547Y-80281092D01*
X156013547Y-80185551D01*
X156296519Y-80185551D01*
X156302499Y-80185434D01*
X156308318Y-80185086D01*
X156313975Y-80184511D01*
X156319467Y-80183715D01*
X156324792Y-80182703D01*
X156329949Y-80181480D01*
X156334935Y-80180051D01*
X156339750Y-80178420D01*
X156344390Y-80176593D01*
X156348854Y-80174574D01*
X156353140Y-80172369D01*
X156357247Y-80169983D01*
X156361171Y-80167420D01*
X156364912Y-80164686D01*
X156368468Y-80161785D01*
X156371836Y-80158723D01*
X156375014Y-80155504D01*
X156378002Y-80152133D01*
X156380796Y-80148616D01*
X156383395Y-80144957D01*
X156385797Y-80141161D01*
X156388000Y-80137234D01*
X156390003Y-80133180D01*
X156391802Y-80129004D01*
X156393397Y-80124711D01*
X156394786Y-80120307D01*
X156395966Y-80115795D01*
X156396936Y-80111182D01*
X156397694Y-80106472D01*
X156398237Y-80101670D01*
X156398565Y-80096781D01*
X156398674Y-80091809D01*
X156398565Y-80086759D01*
X156398237Y-80081795D01*
X156397694Y-80076924D01*
X156396936Y-80072149D01*
X156395966Y-80067475D01*
X156394786Y-80062907D01*
X156393397Y-80058451D01*
X156391802Y-80054110D01*
X156390003Y-80049890D01*
X156388000Y-80045796D01*
X156385797Y-80041831D01*
X156383395Y-80038002D01*
X156380796Y-80034313D01*
X156378002Y-80030768D01*
X156375014Y-80027373D01*
X156371836Y-80024132D01*
X156368468Y-80021051D01*
X156364912Y-80018133D01*
X156361171Y-80015384D01*
X156357247Y-80012809D01*
X156353140Y-80010412D01*
X156348854Y-80008198D01*
X156344390Y-80006172D01*
X156339750Y-80004339D01*
X156334935Y-80002704D01*
X156329949Y-80001271D01*
X156324792Y-80000046D01*
X156319467Y-79999032D01*
X156313975Y-79998235D01*
X156308318Y-79997660D01*
X156302499Y-79997312D01*
X156296519Y-79997195D01*
X156013547Y-79997195D01*
X156013547Y-79901654D01*
X156329354Y-79901654D01*
X156329354Y-79901653D01*
X156339306Y-79901898D01*
G37*
G36*
X156269233Y-76940111D02*
G01*
X156286427Y-76940649D01*
X156302318Y-76941557D01*
X156317000Y-76942845D01*
X156330569Y-76944522D01*
X156343118Y-76946599D01*
X156354742Y-76949085D01*
X156365536Y-76951989D01*
X156375594Y-76955321D01*
X156385012Y-76959092D01*
X156393884Y-76963309D01*
X156402304Y-76967984D01*
X156410367Y-76973126D01*
X156418168Y-76978744D01*
X156425801Y-76984848D01*
X156433362Y-76991448D01*
X156438833Y-76996581D01*
X156444319Y-77002149D01*
X156449768Y-77008170D01*
X156455130Y-77014662D01*
X156460355Y-77021643D01*
X156465391Y-77029130D01*
X156470189Y-77037141D01*
X156474696Y-77045695D01*
X156476825Y-77050180D01*
X156478863Y-77054808D01*
X156480803Y-77059580D01*
X156482639Y-77064499D01*
X156484365Y-77069567D01*
X156485973Y-77074786D01*
X156487459Y-77080158D01*
X156488815Y-77085686D01*
X156490035Y-77091372D01*
X156491113Y-77097218D01*
X156492043Y-77103226D01*
X156492818Y-77109399D01*
X156493431Y-77115738D01*
X156493878Y-77122246D01*
X156494150Y-77128926D01*
X156494242Y-77135779D01*
X156493878Y-77149306D01*
X156492818Y-77162150D01*
X156491113Y-77174327D01*
X156488815Y-77185856D01*
X156485973Y-77196753D01*
X156482639Y-77207038D01*
X156478863Y-77216727D01*
X156474696Y-77225839D01*
X156470188Y-77234392D01*
X156465391Y-77242402D01*
X156460355Y-77249889D01*
X156455130Y-77256869D01*
X156449768Y-77263360D01*
X156444318Y-77269381D01*
X156438833Y-77274949D01*
X156433362Y-77280082D01*
X156425801Y-77286683D01*
X156418167Y-77292788D01*
X156410365Y-77298407D01*
X156402300Y-77303550D01*
X156393879Y-77308227D01*
X156385005Y-77312447D01*
X156375586Y-77316220D01*
X156365526Y-77319555D01*
X156354731Y-77322462D01*
X156343106Y-77324950D01*
X156330557Y-77327029D01*
X156316989Y-77328708D01*
X156302308Y-77329998D01*
X156286420Y-77330907D01*
X156269228Y-77331446D01*
X156250640Y-77331623D01*
X156232207Y-77331446D01*
X156215152Y-77330907D01*
X156199382Y-77329998D01*
X156184804Y-77328708D01*
X156171325Y-77327029D01*
X156158851Y-77324950D01*
X156147289Y-77322462D01*
X156136545Y-77319555D01*
X156126526Y-77316220D01*
X156117139Y-77312447D01*
X156108289Y-77308227D01*
X156099885Y-77303550D01*
X156091831Y-77298407D01*
X156084036Y-77292788D01*
X156076405Y-77286683D01*
X156068845Y-77280082D01*
X156063373Y-77274949D01*
X156057886Y-77269381D01*
X156052434Y-77263360D01*
X156047068Y-77256869D01*
X156041839Y-77249889D01*
X156036799Y-77242402D01*
X156031997Y-77234392D01*
X156027484Y-77225839D01*
X156025352Y-77221354D01*
X156023312Y-77216727D01*
X156021370Y-77211956D01*
X156019531Y-77207038D01*
X156017804Y-77201971D01*
X156016193Y-77196753D01*
X156014705Y-77191382D01*
X156013347Y-77185856D01*
X156012125Y-77180171D01*
X156011045Y-77174327D01*
X156010114Y-77168321D01*
X156009338Y-77162150D01*
X156008724Y-77155812D01*
X156008277Y-77149306D01*
X156008004Y-77142629D01*
X156007912Y-77135779D01*
X156103505Y-77135779D01*
X156103678Y-77141889D01*
X156104187Y-77147915D01*
X156105017Y-77153836D01*
X156106153Y-77159634D01*
X156107580Y-77165290D01*
X156109283Y-77170784D01*
X156111247Y-77176098D01*
X156113457Y-77181211D01*
X156115898Y-77186105D01*
X156118555Y-77190760D01*
X156121413Y-77195159D01*
X156124457Y-77199280D01*
X156127672Y-77203105D01*
X156131042Y-77206615D01*
X156134554Y-77209791D01*
X156138192Y-77212614D01*
X156142868Y-77215811D01*
X156147474Y-77218732D01*
X156152095Y-77221387D01*
X156156815Y-77223784D01*
X156161717Y-77225935D01*
X156166884Y-77227848D01*
X156172400Y-77229532D01*
X156178350Y-77230999D01*
X156184816Y-77232257D01*
X156191882Y-77233315D01*
X156199632Y-77234185D01*
X156208149Y-77234875D01*
X156217518Y-77235394D01*
X156227821Y-77235753D01*
X156239143Y-77235962D01*
X156251567Y-77236029D01*
X156275004Y-77235753D01*
X156285181Y-77235394D01*
X156294441Y-77234875D01*
X156302866Y-77234185D01*
X156310537Y-77233315D01*
X156317539Y-77232257D01*
X156323953Y-77230999D01*
X156329862Y-77229532D01*
X156335349Y-77227848D01*
X156340495Y-77225935D01*
X156345384Y-77223784D01*
X156350098Y-77221387D01*
X156354719Y-77218732D01*
X156359331Y-77215811D01*
X156364014Y-77212614D01*
X156365846Y-77211248D01*
X156367648Y-77209791D01*
X156371157Y-77206615D01*
X156374525Y-77203105D01*
X156377739Y-77199280D01*
X156380782Y-77195159D01*
X156383640Y-77190760D01*
X156386298Y-77186105D01*
X156388740Y-77181211D01*
X156390951Y-77176098D01*
X156392917Y-77170784D01*
X156394621Y-77165290D01*
X156396050Y-77159634D01*
X156397187Y-77153836D01*
X156398018Y-77147915D01*
X156398528Y-77141889D01*
X156398701Y-77135779D01*
X156398528Y-77129663D01*
X156398019Y-77123634D01*
X156397190Y-77117709D01*
X156396054Y-77111908D01*
X156394627Y-77106250D01*
X156392924Y-77100754D01*
X156390960Y-77095440D01*
X156388750Y-77090326D01*
X156386309Y-77085433D01*
X156383652Y-77080778D01*
X156380794Y-77076382D01*
X156377750Y-77072262D01*
X156374535Y-77068440D01*
X156371164Y-77064933D01*
X156367652Y-77061761D01*
X156364014Y-77058944D01*
X156359330Y-77055746D01*
X156354717Y-77052824D01*
X156350092Y-77050168D01*
X156345369Y-77047769D01*
X156340467Y-77045616D01*
X156335300Y-77043701D01*
X156329785Y-77042014D01*
X156323837Y-77040545D01*
X156317374Y-77039285D01*
X156310311Y-77038224D01*
X156302565Y-77037352D01*
X156294050Y-77036660D01*
X156284685Y-77036139D01*
X156274384Y-77035778D01*
X156263064Y-77035569D01*
X156250640Y-77035501D01*
X156227201Y-77035778D01*
X156217021Y-77036139D01*
X156207759Y-77036660D01*
X156199331Y-77037352D01*
X156191656Y-77038224D01*
X156184651Y-77039285D01*
X156178234Y-77040545D01*
X156172323Y-77042014D01*
X156166835Y-77043701D01*
X156161688Y-77045616D01*
X156156800Y-77047769D01*
X156152089Y-77050168D01*
X156147472Y-77052824D01*
X156142867Y-77055746D01*
X156138192Y-77058944D01*
X156136361Y-77060307D01*
X156134559Y-77061761D01*
X156131050Y-77064933D01*
X156127681Y-77068440D01*
X156124468Y-77072262D01*
X156121425Y-77076382D01*
X156118567Y-77080778D01*
X156115909Y-77085433D01*
X156113467Y-77090326D01*
X156111256Y-77095440D01*
X156109290Y-77100754D01*
X156107586Y-77106250D01*
X156106157Y-77111908D01*
X156105020Y-77117709D01*
X156104188Y-77123634D01*
X156103679Y-77129663D01*
X156103505Y-77135779D01*
X156007912Y-77135779D01*
X156008277Y-77122246D01*
X156009338Y-77109399D01*
X156011045Y-77097218D01*
X156013347Y-77085686D01*
X156016193Y-77074786D01*
X156019531Y-77064499D01*
X156023312Y-77054808D01*
X156027484Y-77045695D01*
X156031997Y-77037141D01*
X156036799Y-77029130D01*
X156041840Y-77021643D01*
X156047068Y-77014662D01*
X156052434Y-77008170D01*
X156057886Y-77002149D01*
X156063373Y-76996581D01*
X156068845Y-76991448D01*
X156076409Y-76984848D01*
X156084043Y-76978744D01*
X156091841Y-76973126D01*
X156099896Y-76967984D01*
X156108301Y-76963309D01*
X156117150Y-76959092D01*
X156126537Y-76955321D01*
X156136555Y-76951989D01*
X156147298Y-76949085D01*
X156158858Y-76946599D01*
X156171331Y-76944522D01*
X156184808Y-76942845D01*
X156199384Y-76941557D01*
X156215153Y-76940649D01*
X156232207Y-76940111D01*
X156250640Y-76939934D01*
X156269233Y-76940111D01*
G37*
G36*
X157107070Y-77859806D02*
G01*
X157114620Y-77860346D01*
X157122038Y-77861241D01*
X157129317Y-77862489D01*
X157136450Y-77864087D01*
X157143427Y-77866030D01*
X157150242Y-77868316D01*
X157156886Y-77870942D01*
X157163352Y-77873903D01*
X157169631Y-77877198D01*
X157175717Y-77880823D01*
X157181600Y-77884774D01*
X157187273Y-77889048D01*
X157192728Y-77893642D01*
X157197957Y-77898554D01*
X157202952Y-77903778D01*
X157207706Y-77909313D01*
X157212210Y-77915154D01*
X157216457Y-77921300D01*
X157220439Y-77927746D01*
X157224147Y-77934489D01*
X157227575Y-77941525D01*
X157230713Y-77948853D01*
X157233555Y-77956468D01*
X157236092Y-77964367D01*
X157238316Y-77972547D01*
X157240220Y-77981005D01*
X157241795Y-77989737D01*
X157243034Y-77998741D01*
X157243928Y-78008012D01*
X157244471Y-78017548D01*
X157244654Y-78027345D01*
X157244477Y-78039101D01*
X157243946Y-78050137D01*
X157243055Y-78060482D01*
X157241801Y-78070162D01*
X157240178Y-78079206D01*
X157238184Y-78087640D01*
X157235813Y-78095491D01*
X157233062Y-78102788D01*
X157229926Y-78109557D01*
X157226400Y-78115826D01*
X157222482Y-78121623D01*
X157218166Y-78126974D01*
X157213449Y-78131908D01*
X157208325Y-78136451D01*
X157202791Y-78140631D01*
X157196843Y-78144476D01*
X157196843Y-78146355D01*
X157239018Y-78146355D01*
X157239018Y-78241948D01*
X156914798Y-78241948D01*
X156904046Y-78241714D01*
X156893742Y-78241015D01*
X156883880Y-78239860D01*
X156874452Y-78238257D01*
X156865452Y-78236214D01*
X156856872Y-78233739D01*
X156848705Y-78230840D01*
X156840945Y-78227526D01*
X156833584Y-78223804D01*
X156826615Y-78219682D01*
X156820032Y-78215169D01*
X156813826Y-78210272D01*
X156807992Y-78205000D01*
X156802522Y-78199360D01*
X156797409Y-78193361D01*
X156792646Y-78187011D01*
X156788226Y-78180318D01*
X156784143Y-78173289D01*
X156780388Y-78165934D01*
X156776955Y-78158260D01*
X156773838Y-78150275D01*
X156771028Y-78141987D01*
X156768519Y-78133404D01*
X156766304Y-78124534D01*
X156764376Y-78115386D01*
X156762728Y-78105967D01*
X156760243Y-78086351D01*
X156758794Y-78065748D01*
X156758323Y-78044225D01*
X156758545Y-78031090D01*
X156759226Y-78018389D01*
X156760383Y-78006121D01*
X156762037Y-77994279D01*
X156764207Y-77982861D01*
X156766912Y-77971861D01*
X156770172Y-77961276D01*
X156774006Y-77951102D01*
X156778434Y-77941334D01*
X156783474Y-77931969D01*
X156789146Y-77923002D01*
X156795470Y-77914429D01*
X156802466Y-77906245D01*
X156810151Y-77898448D01*
X156818546Y-77891032D01*
X156827670Y-77883994D01*
X156884821Y-77958950D01*
X156882325Y-77960550D01*
X156879932Y-77962192D01*
X156877639Y-77963880D01*
X156875447Y-77965618D01*
X156873352Y-77967408D01*
X156871353Y-77969255D01*
X156869450Y-77971162D01*
X156867639Y-77973133D01*
X156865921Y-77975171D01*
X156864293Y-77977280D01*
X156862753Y-77979464D01*
X156861301Y-77981726D01*
X156859935Y-77984069D01*
X156858653Y-77986498D01*
X156857453Y-77989016D01*
X156856335Y-77991626D01*
X156855296Y-77994333D01*
X156854335Y-77997139D01*
X156853451Y-78000048D01*
X156852642Y-78003065D01*
X156851906Y-78006192D01*
X156851242Y-78009433D01*
X156850649Y-78012791D01*
X156850125Y-78016271D01*
X156849277Y-78023610D01*
X156848686Y-78031476D01*
X156848341Y-78039899D01*
X156848228Y-78048909D01*
X156848419Y-78061274D01*
X156849003Y-78072732D01*
X156850000Y-78083299D01*
X156851428Y-78092989D01*
X156853307Y-78101816D01*
X156855656Y-78109797D01*
X156858493Y-78116947D01*
X156860101Y-78120214D01*
X156861838Y-78123280D01*
X156863707Y-78126145D01*
X156865710Y-78128811D01*
X156867850Y-78131281D01*
X156870128Y-78133556D01*
X156872547Y-78135638D01*
X156875110Y-78137529D01*
X156877820Y-78139232D01*
X156880677Y-78140747D01*
X156883685Y-78142076D01*
X156886846Y-78143223D01*
X156890163Y-78144188D01*
X156893638Y-78144973D01*
X156897272Y-78145580D01*
X156901070Y-78146012D01*
X156909162Y-78146355D01*
X156958824Y-78146355D01*
X156958824Y-78032055D01*
X157037511Y-78032055D01*
X157037511Y-78146355D01*
X157072198Y-78146355D01*
X157078950Y-78146274D01*
X157085328Y-78146030D01*
X157091343Y-78145617D01*
X157097004Y-78145031D01*
X157102322Y-78144268D01*
X157107309Y-78143322D01*
X157111973Y-78142189D01*
X157116327Y-78140865D01*
X157120379Y-78139344D01*
X157124141Y-78137622D01*
X157127624Y-78135695D01*
X157130837Y-78133557D01*
X157133791Y-78131205D01*
X157136496Y-78128633D01*
X157138964Y-78125838D01*
X157141205Y-78122813D01*
X157143228Y-78119556D01*
X157145045Y-78116060D01*
X157146666Y-78112322D01*
X157148101Y-78108336D01*
X157149361Y-78104099D01*
X157150457Y-78099605D01*
X157151399Y-78094850D01*
X157152197Y-78089830D01*
X157153404Y-78078973D01*
X157154163Y-78066997D01*
X157154556Y-78053866D01*
X157154669Y-78039542D01*
X157154345Y-78027875D01*
X157153398Y-78017110D01*
X157151863Y-78007226D01*
X157149777Y-77998202D01*
X157148538Y-77994006D01*
X157147174Y-77990018D01*
X157145691Y-77986235D01*
X157144091Y-77982654D01*
X157142381Y-77979272D01*
X157140564Y-77976088D01*
X157138644Y-77973098D01*
X157136627Y-77970301D01*
X157134517Y-77967693D01*
X157132318Y-77965271D01*
X157130035Y-77963034D01*
X157127672Y-77960979D01*
X157125233Y-77959103D01*
X157122724Y-77957404D01*
X157120148Y-77955878D01*
X157117510Y-77954524D01*
X157112066Y-77952320D01*
X157106429Y-77950772D01*
X157100633Y-77949858D01*
X157094714Y-77949558D01*
X157091498Y-77949635D01*
X157088355Y-77949866D01*
X157085288Y-77950253D01*
X157082297Y-77950795D01*
X157079385Y-77951494D01*
X157076554Y-77952350D01*
X157073806Y-77953365D01*
X157071142Y-77954537D01*
X157068565Y-77955870D01*
X157066076Y-77957362D01*
X157063678Y-77959014D01*
X157061371Y-77960828D01*
X157059159Y-77962805D01*
X157057042Y-77964943D01*
X157055024Y-77967246D01*
X157053105Y-77969712D01*
X157051288Y-77972343D01*
X157049574Y-77975140D01*
X157047965Y-77978103D01*
X157046464Y-77981233D01*
X157045073Y-77984530D01*
X157043792Y-77987995D01*
X157042624Y-77991630D01*
X157041571Y-77995434D01*
X157040635Y-77999408D01*
X157039818Y-78003553D01*
X157039121Y-78007870D01*
X157038546Y-78012360D01*
X157038096Y-78017022D01*
X157037772Y-78021858D01*
X157037577Y-78026869D01*
X157037511Y-78032055D01*
X156958824Y-78032055D01*
X156958824Y-78014222D01*
X156959012Y-78004793D01*
X156959569Y-77995655D01*
X156960486Y-77986810D01*
X156961752Y-77978257D01*
X156963358Y-77969997D01*
X156965294Y-77962030D01*
X156967551Y-77954358D01*
X156970118Y-77946980D01*
X156972985Y-77939898D01*
X156976144Y-77933111D01*
X156979583Y-77926620D01*
X156983294Y-77920426D01*
X156987267Y-77914528D01*
X156991491Y-77908929D01*
X156995957Y-77903628D01*
X157000655Y-77898625D01*
X157005575Y-77893922D01*
X157010708Y-77889518D01*
X157016044Y-77885415D01*
X157021572Y-77881612D01*
X157027284Y-77878111D01*
X157033169Y-77874911D01*
X157039218Y-77872014D01*
X157045420Y-77869419D01*
X157051766Y-77867128D01*
X157058247Y-77865141D01*
X157064851Y-77863458D01*
X157071571Y-77862080D01*
X157078395Y-77861007D01*
X157085314Y-77860240D01*
X157092318Y-77859779D01*
X157094714Y-77859727D01*
X157099398Y-77859626D01*
X157107070Y-77859806D01*
G37*
G36*
X156270330Y-81105704D02*
G01*
X156287320Y-81106673D01*
X156303480Y-81108258D01*
X156318828Y-81110437D01*
X156333383Y-81113186D01*
X156347163Y-81116481D01*
X156360188Y-81120298D01*
X156372474Y-81124613D01*
X156384042Y-81129404D01*
X156394910Y-81134645D01*
X156405095Y-81140315D01*
X156414618Y-81146388D01*
X156423495Y-81152841D01*
X156431745Y-81159651D01*
X156439388Y-81166794D01*
X156446442Y-81174247D01*
X156452924Y-81181984D01*
X156458854Y-81189984D01*
X156464250Y-81198222D01*
X156469131Y-81206674D01*
X156473515Y-81215317D01*
X156477421Y-81224128D01*
X156483871Y-81242156D01*
X156488630Y-81260569D01*
X156491847Y-81279177D01*
X156493668Y-81297791D01*
X156494242Y-81316222D01*
X156493976Y-81328132D01*
X156493169Y-81339961D01*
X156491808Y-81351692D01*
X156489879Y-81363307D01*
X156487367Y-81374791D01*
X156484260Y-81386127D01*
X156480543Y-81397298D01*
X156476204Y-81408287D01*
X156471227Y-81419078D01*
X156465600Y-81429655D01*
X156459309Y-81440000D01*
X156452339Y-81450097D01*
X156444678Y-81459929D01*
X156436311Y-81469480D01*
X156427226Y-81478733D01*
X156417407Y-81487672D01*
X156358405Y-81418325D01*
X156363708Y-81412923D01*
X156368719Y-81407280D01*
X156373431Y-81401416D01*
X156377837Y-81395350D01*
X156381931Y-81389105D01*
X156385704Y-81382699D01*
X156389151Y-81376153D01*
X156392265Y-81369489D01*
X156395038Y-81362726D01*
X156397463Y-81355885D01*
X156399535Y-81348986D01*
X156401245Y-81342050D01*
X156402587Y-81335097D01*
X156403554Y-81328148D01*
X156404139Y-81321224D01*
X156404336Y-81314343D01*
X156404221Y-81308245D01*
X156403875Y-81302257D01*
X156403299Y-81296384D01*
X156402493Y-81290633D01*
X156401456Y-81285008D01*
X156400190Y-81279515D01*
X156398694Y-81274159D01*
X156396969Y-81268947D01*
X156395015Y-81263883D01*
X156392831Y-81258972D01*
X156390418Y-81254222D01*
X156387777Y-81249636D01*
X156384907Y-81245220D01*
X156381809Y-81240980D01*
X156378482Y-81236922D01*
X156374928Y-81233050D01*
X156371145Y-81229371D01*
X156367135Y-81225889D01*
X156362897Y-81222610D01*
X156358432Y-81219540D01*
X156353739Y-81216684D01*
X156348820Y-81214048D01*
X156343674Y-81211637D01*
X156338301Y-81209457D01*
X156332702Y-81207512D01*
X156326876Y-81205809D01*
X156320824Y-81204353D01*
X156314546Y-81203149D01*
X156308043Y-81202204D01*
X156301313Y-81201522D01*
X156294359Y-81201108D01*
X156287179Y-81200969D01*
X156287179Y-81497064D01*
X156208466Y-81497064D01*
X156197087Y-81496800D01*
X156185978Y-81496017D01*
X156175144Y-81494729D01*
X156164593Y-81492951D01*
X156154329Y-81490696D01*
X156144360Y-81487978D01*
X156134690Y-81484813D01*
X156125326Y-81481213D01*
X156116273Y-81477192D01*
X156107539Y-81472766D01*
X156099128Y-81467948D01*
X156091047Y-81462752D01*
X156083302Y-81457192D01*
X156075898Y-81451283D01*
X156068843Y-81445039D01*
X156062141Y-81438472D01*
X156055799Y-81431599D01*
X156049822Y-81424433D01*
X156044218Y-81416987D01*
X156038991Y-81409276D01*
X156034148Y-81401315D01*
X156029694Y-81393117D01*
X156025636Y-81384696D01*
X156021980Y-81376067D01*
X156018732Y-81367244D01*
X156015897Y-81358240D01*
X156013482Y-81349069D01*
X156011492Y-81339747D01*
X156009935Y-81330287D01*
X156008815Y-81320703D01*
X156008138Y-81311009D01*
X156007911Y-81301220D01*
X156007911Y-81301219D01*
X156097897Y-81301219D01*
X156098009Y-81306446D01*
X156098345Y-81311580D01*
X156098905Y-81316617D01*
X156099687Y-81321553D01*
X156100691Y-81326385D01*
X156101915Y-81331107D01*
X156103360Y-81335715D01*
X156105023Y-81340205D01*
X156106905Y-81344573D01*
X156109004Y-81348814D01*
X156111320Y-81352925D01*
X156113851Y-81356901D01*
X156116598Y-81360737D01*
X156119558Y-81364430D01*
X156122732Y-81367975D01*
X156126118Y-81371367D01*
X156129715Y-81374603D01*
X156133523Y-81377679D01*
X156137541Y-81380590D01*
X156141769Y-81383331D01*
X156146204Y-81385899D01*
X156150846Y-81388289D01*
X156155696Y-81390497D01*
X156160750Y-81392518D01*
X156166010Y-81394349D01*
X156171474Y-81395985D01*
X156177140Y-81397422D01*
X156183009Y-81398656D01*
X156189080Y-81399682D01*
X156195351Y-81400496D01*
X156201822Y-81401093D01*
X156208492Y-81401470D01*
X156208492Y-81200969D01*
X156201822Y-81201260D01*
X156195351Y-81201782D01*
X156189080Y-81202531D01*
X156183009Y-81203502D01*
X156177140Y-81204690D01*
X156171473Y-81206090D01*
X156166010Y-81207698D01*
X156160750Y-81209508D01*
X156155695Y-81211516D01*
X156150846Y-81213717D01*
X156146204Y-81216106D01*
X156141768Y-81218678D01*
X156137541Y-81221429D01*
X156133523Y-81224354D01*
X156129715Y-81227447D01*
X156126118Y-81230705D01*
X156122732Y-81234122D01*
X156119558Y-81237693D01*
X156116598Y-81241414D01*
X156113851Y-81245280D01*
X156111320Y-81249286D01*
X156109004Y-81253427D01*
X156106905Y-81257699D01*
X156105023Y-81262096D01*
X156103360Y-81266614D01*
X156101915Y-81271249D01*
X156100691Y-81275994D01*
X156099687Y-81280845D01*
X156098905Y-81285799D01*
X156098345Y-81290849D01*
X156098009Y-81295990D01*
X156097897Y-81301219D01*
X156007911Y-81301219D01*
X156008630Y-81283877D01*
X156010850Y-81266422D01*
X156012553Y-81257705D01*
X156014666Y-81249024D01*
X156017201Y-81240400D01*
X156020171Y-81231853D01*
X156023588Y-81223406D01*
X156027462Y-81215079D01*
X156031806Y-81206894D01*
X156036631Y-81198872D01*
X156041951Y-81191034D01*
X156047775Y-81183402D01*
X156054116Y-81175997D01*
X156060987Y-81168839D01*
X156068398Y-81161951D01*
X156076362Y-81155353D01*
X156084890Y-81149066D01*
X156093994Y-81143113D01*
X156103686Y-81137514D01*
X156113978Y-81132290D01*
X156124882Y-81127463D01*
X156136410Y-81123054D01*
X156148572Y-81119084D01*
X156161382Y-81115575D01*
X156174851Y-81112547D01*
X156188990Y-81110022D01*
X156203812Y-81108021D01*
X156208492Y-81107582D01*
X156219329Y-81106565D01*
X156235551Y-81105677D01*
X156252492Y-81105376D01*
X156270330Y-81105704D01*
G37*
G36*
X157239018Y-78442503D02*
G01*
X156953189Y-78442503D01*
X156946807Y-78442636D01*
X156940654Y-78443030D01*
X156934727Y-78443677D01*
X156929026Y-78444568D01*
X156923548Y-78445695D01*
X156918291Y-78447050D01*
X156913254Y-78448625D01*
X156908436Y-78450412D01*
X156903834Y-78452401D01*
X156899447Y-78454586D01*
X156895273Y-78456957D01*
X156891310Y-78459507D01*
X156887557Y-78462227D01*
X156884013Y-78465109D01*
X156880675Y-78468144D01*
X156877541Y-78471326D01*
X156874611Y-78474644D01*
X156871881Y-78478092D01*
X156869352Y-78481660D01*
X156867020Y-78485341D01*
X156864885Y-78489126D01*
X156862944Y-78493008D01*
X156861196Y-78496977D01*
X156859639Y-78501026D01*
X156857092Y-78509329D01*
X156855290Y-78517852D01*
X156854218Y-78526528D01*
X156853864Y-78535292D01*
X156853942Y-78539766D01*
X156854179Y-78544064D01*
X156854581Y-78548208D01*
X156855154Y-78552220D01*
X156855902Y-78556122D01*
X156856832Y-78559937D01*
X156857949Y-78563685D01*
X156859258Y-78567389D01*
X156860766Y-78571072D01*
X156862477Y-78574754D01*
X156864398Y-78578458D01*
X156866533Y-78582206D01*
X156868889Y-78586021D01*
X156871470Y-78589922D01*
X156874283Y-78593934D01*
X156877333Y-78598078D01*
X156794862Y-78667398D01*
X156790745Y-78661918D01*
X156786835Y-78656367D01*
X156783139Y-78650739D01*
X156779665Y-78645029D01*
X156776422Y-78639232D01*
X156773417Y-78633342D01*
X156770660Y-78627352D01*
X156768159Y-78621259D01*
X156765921Y-78615055D01*
X156763954Y-78608735D01*
X156762268Y-78602294D01*
X156760869Y-78595727D01*
X156759768Y-78589026D01*
X156758970Y-78582188D01*
X156758486Y-78575206D01*
X156758323Y-78568074D01*
X156758543Y-78558677D01*
X156759202Y-78549464D01*
X156760301Y-78540442D01*
X156761839Y-78531621D01*
X156763817Y-78523007D01*
X156766234Y-78514610D01*
X156769090Y-78506437D01*
X156772386Y-78498498D01*
X156776120Y-78490801D01*
X156780293Y-78483353D01*
X156784905Y-78476164D01*
X156789956Y-78469241D01*
X156795446Y-78462593D01*
X156801375Y-78456228D01*
X156807741Y-78450155D01*
X156814547Y-78444381D01*
X156814547Y-78442503D01*
X156763958Y-78442503D01*
X156763958Y-78346935D01*
X157239018Y-78346935D01*
X157239018Y-78442503D01*
G37*
G36*
X154450839Y-77447299D02*
G01*
X154451850Y-77447324D01*
X154452857Y-77447399D01*
X154453860Y-77447522D01*
X154454857Y-77447693D01*
X154455846Y-77447909D01*
X154456826Y-77448170D01*
X154457794Y-77448474D01*
X154458751Y-77448821D01*
X154460621Y-77449636D01*
X154462424Y-77450604D01*
X154464146Y-77451717D01*
X154465778Y-77452964D01*
X154467305Y-77454336D01*
X154468716Y-77455822D01*
X154470000Y-77457412D01*
X154470589Y-77458243D01*
X154471143Y-77459097D01*
X154471658Y-77459972D01*
X154472133Y-77460867D01*
X154472567Y-77461781D01*
X154472959Y-77462712D01*
X154473307Y-77463660D01*
X154473609Y-77464622D01*
X154473863Y-77465598D01*
X154474069Y-77466587D01*
X154553021Y-77890846D01*
X154553226Y-77891843D01*
X154553477Y-77892842D01*
X154554112Y-77894842D01*
X154554914Y-77896834D01*
X154555873Y-77898804D01*
X154556977Y-77900740D01*
X154558213Y-77902628D01*
X154559571Y-77904455D01*
X154561038Y-77906209D01*
X154562603Y-77907876D01*
X154564254Y-77909444D01*
X154565980Y-77910899D01*
X154567770Y-77912229D01*
X154569610Y-77913421D01*
X154571491Y-77914461D01*
X154573400Y-77915336D01*
X154574361Y-77915709D01*
X154575325Y-77916035D01*
X154906187Y-78048485D01*
X154908069Y-78049305D01*
X154910062Y-78049989D01*
X154912149Y-78050538D01*
X154914312Y-78050954D01*
X154916535Y-78051237D01*
X154918800Y-78051390D01*
X154921090Y-78051412D01*
X154923388Y-78051306D01*
X154925676Y-78051073D01*
X154927937Y-78050713D01*
X154930154Y-78050229D01*
X154932310Y-78049620D01*
X154934387Y-78048889D01*
X154936368Y-78048036D01*
X154938236Y-78047063D01*
X154939974Y-78045972D01*
X155291155Y-77804989D01*
X155292002Y-77804440D01*
X155292874Y-77803934D01*
X155293770Y-77803470D01*
X155294687Y-77803049D01*
X155295623Y-77802670D01*
X155296578Y-77802333D01*
X155298531Y-77801784D01*
X155300532Y-77801402D01*
X155302564Y-77801185D01*
X155304613Y-77801131D01*
X155306663Y-77801239D01*
X155308699Y-77801507D01*
X155310704Y-77801935D01*
X155312664Y-77802521D01*
X155314562Y-77803263D01*
X155316385Y-77804160D01*
X155317262Y-77804666D01*
X155318115Y-77805211D01*
X155318941Y-77805793D01*
X155319738Y-77806413D01*
X155320505Y-77807072D01*
X155321238Y-77807767D01*
X155637760Y-78124341D01*
X155638453Y-78125073D01*
X155639109Y-78125837D01*
X155639727Y-78126631D01*
X155640308Y-78127455D01*
X155640850Y-78128305D01*
X155641355Y-78129181D01*
X155641821Y-78130079D01*
X155642249Y-78130998D01*
X155642639Y-78131937D01*
X155642989Y-78132893D01*
X155643573Y-78134849D01*
X155644000Y-78136851D01*
X155644268Y-78138883D01*
X155644377Y-78140931D01*
X155644323Y-78142979D01*
X155644108Y-78145011D01*
X155643938Y-78146016D01*
X155643728Y-78147011D01*
X155643476Y-78147996D01*
X155643182Y-78148966D01*
X155642847Y-78149921D01*
X155642469Y-78150859D01*
X155642050Y-78151777D01*
X155641588Y-78152675D01*
X155641084Y-78153549D01*
X155640538Y-78154398D01*
X155403762Y-78499362D01*
X155402687Y-78501096D01*
X155401744Y-78502954D01*
X155400933Y-78504919D01*
X155400254Y-78506974D01*
X155399709Y-78509101D01*
X155399298Y-78511284D01*
X155399020Y-78513506D01*
X155398877Y-78515749D01*
X155398869Y-78517997D01*
X155398996Y-78520233D01*
X155399259Y-78522439D01*
X155399658Y-78524599D01*
X155400194Y-78526696D01*
X155400867Y-78528712D01*
X155401677Y-78530630D01*
X155402624Y-78532435D01*
X155483852Y-78684570D01*
X155484286Y-78685477D01*
X155484669Y-78686393D01*
X155484999Y-78687314D01*
X155485278Y-78688240D01*
X155485506Y-78689169D01*
X155485684Y-78690100D01*
X155485812Y-78691030D01*
X155485892Y-78691959D01*
X155485923Y-78692885D01*
X155485906Y-78693805D01*
X155485842Y-78694719D01*
X155485731Y-78695625D01*
X155485574Y-78696521D01*
X155485372Y-78697406D01*
X155485125Y-78698278D01*
X155484834Y-78699135D01*
X155484499Y-78699977D01*
X155484121Y-78700800D01*
X155483701Y-78701604D01*
X155483238Y-78702388D01*
X155482735Y-78703148D01*
X155482191Y-78703885D01*
X155481607Y-78704596D01*
X155480983Y-78705279D01*
X155480320Y-78705934D01*
X155479620Y-78706558D01*
X155478881Y-78707150D01*
X155478105Y-78707709D01*
X155477293Y-78708232D01*
X155476445Y-78708718D01*
X155475562Y-78709166D01*
X155474644Y-78709573D01*
X154716692Y-79023263D01*
X154715749Y-79023628D01*
X154714792Y-79023945D01*
X154713822Y-79024215D01*
X154712842Y-79024438D01*
X154711852Y-79024614D01*
X154710856Y-79024745D01*
X154708849Y-79024872D01*
X154706835Y-79024823D01*
X154704829Y-79024603D01*
X154702844Y-79024217D01*
X154700896Y-79023670D01*
X154698999Y-79022966D01*
X154697168Y-79022110D01*
X154695415Y-79021108D01*
X154693758Y-79019963D01*
X154692208Y-79018680D01*
X154691479Y-79017989D01*
X154690782Y-79017265D01*
X154690119Y-79016509D01*
X154689492Y-79015722D01*
X154688904Y-79014904D01*
X154688355Y-79014055D01*
X154665045Y-78975982D01*
X154663300Y-78973234D01*
X154661308Y-78970304D01*
X154659113Y-78967245D01*
X154656757Y-78964112D01*
X154654285Y-78960958D01*
X154651740Y-78957836D01*
X154649165Y-78954800D01*
X154646604Y-78951905D01*
X154629352Y-78926705D01*
X154610621Y-78902655D01*
X154590476Y-78879819D01*
X154568982Y-78858264D01*
X154546204Y-78838056D01*
X154522208Y-78819259D01*
X154497059Y-78801941D01*
X154470821Y-78786166D01*
X154443562Y-78772001D01*
X154429569Y-78765543D01*
X154415345Y-78759511D01*
X154400898Y-78753915D01*
X154386236Y-78748763D01*
X154371367Y-78744062D01*
X154356300Y-78739821D01*
X154341042Y-78736048D01*
X154325603Y-78732752D01*
X154309989Y-78729940D01*
X154294209Y-78727621D01*
X154278272Y-78725803D01*
X154262184Y-78724494D01*
X154245956Y-78723703D01*
X154229594Y-78723437D01*
X154204118Y-78724081D01*
X154178976Y-78725993D01*
X154154200Y-78729142D01*
X154129820Y-78733496D01*
X154105869Y-78739024D01*
X154082376Y-78745696D01*
X154059373Y-78753480D01*
X154036892Y-78762344D01*
X154014962Y-78772259D01*
X153993616Y-78783193D01*
X153972884Y-78795114D01*
X153952798Y-78807991D01*
X153933389Y-78821794D01*
X153914687Y-78836492D01*
X153896724Y-78852052D01*
X153879531Y-78868445D01*
X153863139Y-78885639D01*
X153847579Y-78903602D01*
X153832882Y-78922304D01*
X153819080Y-78941714D01*
X153806203Y-78961801D01*
X153794283Y-78982532D01*
X153783350Y-79003878D01*
X153773436Y-79025807D01*
X153764572Y-79048288D01*
X153756789Y-79071290D01*
X153750118Y-79094782D01*
X153744590Y-79118733D01*
X153740236Y-79143111D01*
X153737088Y-79167885D01*
X153735176Y-79193025D01*
X153734532Y-79218499D01*
X153735176Y-79243973D01*
X153737088Y-79269112D01*
X153740236Y-79293886D01*
X153744590Y-79318264D01*
X153750118Y-79342214D01*
X153756789Y-79365705D01*
X153764572Y-79388706D01*
X153773436Y-79411186D01*
X153783350Y-79433114D01*
X153794283Y-79454459D01*
X153806203Y-79475190D01*
X153819080Y-79495275D01*
X153832882Y-79514684D01*
X153847579Y-79533385D01*
X153863139Y-79551347D01*
X153879531Y-79568539D01*
X153896724Y-79584931D01*
X153914687Y-79600490D01*
X153933389Y-79615186D01*
X153952798Y-79628988D01*
X153972884Y-79641865D01*
X153993616Y-79653785D01*
X154014962Y-79664717D01*
X154036892Y-79674631D01*
X154059373Y-79683495D01*
X154082376Y-79691278D01*
X154105869Y-79697949D01*
X154129820Y-79703477D01*
X154154200Y-79707830D01*
X154178976Y-79710978D01*
X154204118Y-79712890D01*
X154229594Y-79713534D01*
X154262184Y-79712478D01*
X154294209Y-79709352D01*
X154325603Y-79704222D01*
X154356300Y-79697154D01*
X154386236Y-79688214D01*
X154415345Y-79677467D01*
X154443562Y-79664978D01*
X154470821Y-79650815D01*
X154497058Y-79635041D01*
X154522208Y-79617723D01*
X154546204Y-79598927D01*
X154568982Y-79578718D01*
X154590476Y-79557162D01*
X154610621Y-79534324D01*
X154629352Y-79510270D01*
X154646604Y-79485066D01*
X154649165Y-79482187D01*
X154651740Y-79479162D01*
X154654285Y-79476046D01*
X154656757Y-79472896D01*
X154659113Y-79469764D01*
X154661308Y-79466708D01*
X154663300Y-79463783D01*
X154665045Y-79461042D01*
X154688355Y-79422969D01*
X154688904Y-79422125D01*
X154689492Y-79421311D01*
X154690119Y-79420528D01*
X154690782Y-79419775D01*
X154691479Y-79419054D01*
X154692208Y-79418366D01*
X154692968Y-79417710D01*
X154693758Y-79417087D01*
X154694574Y-79416499D01*
X154695415Y-79415945D01*
X154696281Y-79415427D01*
X154697168Y-79414944D01*
X154698074Y-79414498D01*
X154698999Y-79414089D01*
X154699941Y-79413717D01*
X154700896Y-79413384D01*
X154701865Y-79413090D01*
X154702844Y-79412835D01*
X154703833Y-79412621D01*
X154704829Y-79412447D01*
X154705830Y-79412314D01*
X154706835Y-79412224D01*
X154707842Y-79412176D01*
X154708849Y-79412171D01*
X154709854Y-79412210D01*
X154710856Y-79412294D01*
X154711852Y-79412422D01*
X154712842Y-79412596D01*
X154713822Y-79412817D01*
X154714792Y-79413084D01*
X154715749Y-79413398D01*
X154716692Y-79413761D01*
X155474670Y-79727425D01*
X155475588Y-79727832D01*
X155476471Y-79728280D01*
X155477319Y-79728766D01*
X155478131Y-79729288D01*
X155478906Y-79729846D01*
X155479644Y-79730437D01*
X155480344Y-79731061D01*
X155481005Y-79731715D01*
X155481628Y-79732398D01*
X155482212Y-79733108D01*
X155482755Y-79733844D01*
X155483258Y-79734603D01*
X155483719Y-79735386D01*
X155484139Y-79736189D01*
X155484516Y-79737012D01*
X155484850Y-79737853D01*
X155485141Y-79738709D01*
X155485387Y-79739581D01*
X155485589Y-79740465D01*
X155485746Y-79741361D01*
X155485856Y-79742267D01*
X155485920Y-79743181D01*
X155485937Y-79744102D01*
X155485907Y-79745027D01*
X155485828Y-79745957D01*
X155485700Y-79746888D01*
X155485523Y-79747820D01*
X155485297Y-79748750D01*
X155485019Y-79749678D01*
X155484691Y-79750601D01*
X155484310Y-79751518D01*
X155483878Y-79752428D01*
X155402651Y-79904563D01*
X155401703Y-79906372D01*
X155400892Y-79908294D01*
X155400218Y-79910312D01*
X155399681Y-79912410D01*
X155399280Y-79914570D01*
X155399016Y-79916777D01*
X155398887Y-79919012D01*
X155398894Y-79921259D01*
X155399036Y-79923501D01*
X155399312Y-79925721D01*
X155399724Y-79927902D01*
X155400269Y-79930028D01*
X155400949Y-79932081D01*
X155401762Y-79934045D01*
X155402709Y-79935902D01*
X155403788Y-79937636D01*
X155640564Y-80282627D01*
X155641111Y-80283473D01*
X155641615Y-80284345D01*
X155642076Y-80285241D01*
X155642496Y-80286158D01*
X155642873Y-80287094D01*
X155643208Y-80288048D01*
X155643754Y-80290001D01*
X155644134Y-80292001D01*
X155644350Y-80294033D01*
X155644403Y-80296080D01*
X155644295Y-80298128D01*
X155644026Y-80300160D01*
X155643599Y-80302162D01*
X155643015Y-80304117D01*
X155642275Y-80306011D01*
X155641381Y-80307827D01*
X155640877Y-80308702D01*
X155640334Y-80309551D01*
X155639753Y-80310373D01*
X155639135Y-80311166D01*
X155638479Y-80311928D01*
X155637786Y-80312657D01*
X155321265Y-80629231D01*
X155320531Y-80629929D01*
X155319765Y-80630589D01*
X155318967Y-80631212D01*
X155318141Y-80631796D01*
X155317289Y-80632342D01*
X155316411Y-80632850D01*
X155315510Y-80633319D01*
X155314589Y-80633750D01*
X155313648Y-80634142D01*
X155312690Y-80634494D01*
X155310730Y-80635081D01*
X155308725Y-80635510D01*
X155306690Y-80635779D01*
X155304640Y-80635887D01*
X155302591Y-80635832D01*
X155300558Y-80635613D01*
X155299553Y-80635441D01*
X155298557Y-80635228D01*
X155297574Y-80634974D01*
X155296604Y-80634677D01*
X155295650Y-80634338D01*
X155294713Y-80633958D01*
X155293796Y-80633534D01*
X155292901Y-80633069D01*
X155292028Y-80632560D01*
X155291182Y-80632009D01*
X154940000Y-80391000D01*
X154938262Y-80389917D01*
X154936394Y-80388952D01*
X154934413Y-80388105D01*
X154932336Y-80387378D01*
X154930180Y-80386773D01*
X154927963Y-80386290D01*
X154925702Y-80385931D01*
X154923414Y-80385698D01*
X154921116Y-80385592D01*
X154918826Y-80385614D01*
X154916561Y-80385765D01*
X154914338Y-80386048D01*
X154912175Y-80386462D01*
X154910088Y-80387010D01*
X154908095Y-80387694D01*
X154906213Y-80388513D01*
X154575351Y-80520963D01*
X154574387Y-80521291D01*
X154573426Y-80521665D01*
X154571517Y-80522542D01*
X154569637Y-80523582D01*
X154567796Y-80524772D01*
X154566007Y-80526099D01*
X154564281Y-80527550D01*
X154562629Y-80529113D01*
X154561064Y-80530776D01*
X154559597Y-80532525D01*
X154558239Y-80534348D01*
X154557003Y-80536232D01*
X154555900Y-80538164D01*
X154554941Y-80540132D01*
X154554138Y-80542124D01*
X154553799Y-80543124D01*
X154553503Y-80544126D01*
X154553252Y-80545126D01*
X154553047Y-80546125D01*
X154474095Y-80970385D01*
X154473889Y-80971371D01*
X154473635Y-80972345D01*
X154473333Y-80973306D01*
X154472985Y-80974252D01*
X154472594Y-80975182D01*
X154472159Y-80976095D01*
X154471684Y-80976989D01*
X154471169Y-80977863D01*
X154470616Y-80978717D01*
X154470026Y-80979548D01*
X154469401Y-80980356D01*
X154468743Y-80981138D01*
X154468052Y-80981895D01*
X154467331Y-80982625D01*
X154466581Y-80983326D01*
X154465804Y-80983997D01*
X154465001Y-80984638D01*
X154464173Y-80985246D01*
X154463322Y-80985821D01*
X154462450Y-80986360D01*
X154461558Y-80986864D01*
X154460647Y-80987331D01*
X154459720Y-80987759D01*
X154458777Y-80988147D01*
X154457821Y-80988495D01*
X154456852Y-80988800D01*
X154455872Y-80989061D01*
X154454883Y-80989278D01*
X154453887Y-80989449D01*
X154452884Y-80989572D01*
X154451876Y-80989647D01*
X154450865Y-80989673D01*
X154003216Y-80989726D01*
X154002203Y-80989703D01*
X154001194Y-80989630D01*
X154000190Y-80989509D01*
X153999193Y-80989341D01*
X153998204Y-80989126D01*
X153997224Y-80988867D01*
X153996256Y-80988565D01*
X153995300Y-80988220D01*
X153994358Y-80987834D01*
X153993432Y-80987408D01*
X153991633Y-80986442D01*
X153989913Y-80985331D01*
X153988284Y-80984087D01*
X153986759Y-80982718D01*
X153985349Y-80981234D01*
X153984065Y-80979647D01*
X153982920Y-80977964D01*
X153982403Y-80977091D01*
X153981925Y-80976198D01*
X153981488Y-80975286D01*
X153981093Y-80974357D01*
X153980741Y-80973411D01*
X153980433Y-80972451D01*
X153980173Y-80971477D01*
X153979960Y-80970490D01*
X153899077Y-80535542D01*
X153898613Y-80533548D01*
X153897974Y-80531544D01*
X153897171Y-80529543D01*
X153896215Y-80527557D01*
X153895118Y-80525601D01*
X153893890Y-80523688D01*
X153892544Y-80521830D01*
X153891090Y-80520041D01*
X153889539Y-80518334D01*
X153887903Y-80516723D01*
X153886193Y-80515220D01*
X153884421Y-80513839D01*
X153882597Y-80512593D01*
X153880733Y-80511496D01*
X153878841Y-80510559D01*
X153876931Y-80509798D01*
X153565887Y-80376474D01*
X153564025Y-80375611D01*
X153562051Y-80374885D01*
X153559983Y-80374296D01*
X153557838Y-80373843D01*
X153555633Y-80373525D01*
X153553384Y-80373340D01*
X153551109Y-80373287D01*
X153548825Y-80373365D01*
X153546548Y-80373574D01*
X153544296Y-80373912D01*
X153542086Y-80374378D01*
X153539935Y-80374971D01*
X153537860Y-80375690D01*
X153535877Y-80376534D01*
X153534004Y-80377501D01*
X153532258Y-80378591D01*
X153162900Y-80632009D01*
X153162053Y-80632556D01*
X153161181Y-80633060D01*
X153160286Y-80633523D01*
X153159370Y-80633943D01*
X153158434Y-80634321D01*
X153157480Y-80634658D01*
X153155528Y-80635206D01*
X153153530Y-80635590D01*
X153151499Y-80635809D01*
X153149453Y-80635865D01*
X153147405Y-80635760D01*
X153145373Y-80635494D01*
X153143370Y-80635068D01*
X153141412Y-80634484D01*
X153139515Y-80633743D01*
X153137695Y-80632846D01*
X153136818Y-80632340D01*
X153135966Y-80631794D01*
X153135140Y-80631211D01*
X153134343Y-80630589D01*
X153133577Y-80629929D01*
X153132843Y-80629231D01*
X152816322Y-80312710D01*
X152815624Y-80311976D01*
X152814964Y-80311210D01*
X152814341Y-80310414D01*
X152813757Y-80309589D01*
X152813211Y-80308737D01*
X152812703Y-80307861D01*
X152812233Y-80306962D01*
X152811803Y-80306042D01*
X152811411Y-80305103D01*
X152811059Y-80304147D01*
X152810471Y-80302192D01*
X152810043Y-80300192D01*
X152809774Y-80298161D01*
X152809666Y-80296116D01*
X152809721Y-80294072D01*
X152809940Y-80292044D01*
X152810112Y-80291041D01*
X152810325Y-80290047D01*
X152810579Y-80289065D01*
X152810876Y-80288097D01*
X152811214Y-80287144D01*
X152811595Y-80286209D01*
X152812018Y-80285293D01*
X152812484Y-80284398D01*
X152812993Y-80283526D01*
X152813544Y-80282680D01*
X153071460Y-79906839D01*
X153072547Y-79905101D01*
X153073515Y-79903231D01*
X153074362Y-79901247D01*
X153075089Y-79899167D01*
X153075692Y-79897008D01*
X153076172Y-79894788D01*
X153076527Y-79892524D01*
X153076755Y-79890233D01*
X153076856Y-79887933D01*
X153076828Y-79885642D01*
X153076671Y-79883377D01*
X153076382Y-79881155D01*
X153075962Y-79878994D01*
X153075408Y-79876912D01*
X153074719Y-79874925D01*
X153073894Y-79873052D01*
X152950466Y-79571533D01*
X152950125Y-79570574D01*
X152949739Y-79569618D01*
X152949308Y-79568666D01*
X152948835Y-79567721D01*
X152947769Y-79565852D01*
X152946552Y-79564023D01*
X152945199Y-79562246D01*
X152943722Y-79560531D01*
X152942134Y-79558890D01*
X152940448Y-79557335D01*
X152938678Y-79555875D01*
X152936836Y-79554524D01*
X152934936Y-79553291D01*
X152932990Y-79552189D01*
X152931012Y-79551228D01*
X152929014Y-79550420D01*
X152927010Y-79549776D01*
X152926010Y-79549519D01*
X152925013Y-79549308D01*
X152475142Y-79465567D01*
X152474153Y-79465359D01*
X152473177Y-79465102D01*
X152472215Y-79464799D01*
X152471267Y-79464451D01*
X152470336Y-79464058D01*
X152469422Y-79463624D01*
X152468527Y-79463148D01*
X152467652Y-79462633D01*
X152466799Y-79462081D01*
X152465967Y-79461492D01*
X152465160Y-79460868D01*
X152464377Y-79460211D01*
X152463620Y-79459522D01*
X152462891Y-79458803D01*
X152462190Y-79458055D01*
X152461519Y-79457279D01*
X152460880Y-79456477D01*
X152460272Y-79455652D01*
X152459698Y-79454803D01*
X152459159Y-79453933D01*
X152458656Y-79453042D01*
X152458191Y-79452134D01*
X152457763Y-79451208D01*
X152457376Y-79450267D01*
X152457029Y-79449313D01*
X152456725Y-79448345D01*
X152456464Y-79447367D01*
X152456248Y-79446379D01*
X152456077Y-79445383D01*
X152455954Y-79444381D01*
X152455879Y-79443374D01*
X152455854Y-79442363D01*
X152455854Y-78994688D01*
X152455879Y-78993680D01*
X152455954Y-78992675D01*
X152456077Y-78991675D01*
X152456248Y-78990681D01*
X152456464Y-78989695D01*
X152456725Y-78988718D01*
X152457029Y-78987752D01*
X152457376Y-78986799D01*
X152457763Y-78985859D01*
X152458191Y-78984935D01*
X152459159Y-78983139D01*
X152460272Y-78981421D01*
X152461519Y-78979795D01*
X152462891Y-78978273D01*
X152464377Y-78976865D01*
X152465967Y-78975585D01*
X152466799Y-78974996D01*
X152467652Y-78974444D01*
X152468527Y-78973929D01*
X152469422Y-78973454D01*
X152470336Y-78973019D01*
X152471267Y-78972627D01*
X152472215Y-78972279D01*
X152473177Y-78971975D01*
X152474153Y-78971719D01*
X152475142Y-78971511D01*
X152925013Y-78887796D01*
X152927010Y-78887328D01*
X152929014Y-78886685D01*
X152931012Y-78885878D01*
X152932990Y-78884919D01*
X152934936Y-78883818D01*
X152936836Y-78882587D01*
X152938678Y-78881237D01*
X152940448Y-78879780D01*
X152942134Y-78878225D01*
X152943722Y-78876585D01*
X152945199Y-78874870D01*
X152946552Y-78873092D01*
X152947769Y-78871262D01*
X152948835Y-78869391D01*
X152949739Y-78867491D01*
X152950466Y-78865572D01*
X153073894Y-78564026D01*
X153074719Y-78562148D01*
X153075408Y-78560157D01*
X153075962Y-78558071D01*
X153076383Y-78555908D01*
X153076671Y-78553684D01*
X153076828Y-78551417D01*
X153076856Y-78549125D01*
X153076755Y-78546825D01*
X153076527Y-78544534D01*
X153076172Y-78542271D01*
X153075692Y-78540052D01*
X153075089Y-78537895D01*
X153074362Y-78535818D01*
X153073515Y-78533838D01*
X153072547Y-78531972D01*
X153071460Y-78530239D01*
X152813544Y-78154425D01*
X152812993Y-78153576D01*
X152812484Y-78152701D01*
X152812018Y-78151804D01*
X152811595Y-78150886D01*
X152811214Y-78149948D01*
X152810876Y-78148993D01*
X152810325Y-78147038D01*
X152809940Y-78145037D01*
X152809721Y-78143005D01*
X152809666Y-78140958D01*
X152809774Y-78138910D01*
X152810043Y-78136878D01*
X152810472Y-78134876D01*
X152811059Y-78132920D01*
X152811803Y-78131025D01*
X152812703Y-78129207D01*
X152813211Y-78128332D01*
X152813757Y-78127481D01*
X152814341Y-78126658D01*
X152814964Y-78125863D01*
X152815624Y-78125099D01*
X152816322Y-78124368D01*
X153132843Y-77807820D01*
X153133577Y-77807124D01*
X153134343Y-77806466D01*
X153135140Y-77805845D01*
X153135966Y-77805262D01*
X153136818Y-77804717D01*
X153137695Y-77804210D01*
X153138595Y-77803742D01*
X153139515Y-77803312D01*
X153140455Y-77802921D01*
X153141412Y-77802568D01*
X153143370Y-77801981D01*
X153145373Y-77801552D01*
X153147405Y-77801282D01*
X153149453Y-77801173D01*
X153151499Y-77801226D01*
X153153530Y-77801443D01*
X153154534Y-77801614D01*
X153155528Y-77801826D01*
X153156511Y-77802080D01*
X153157480Y-77802376D01*
X153158434Y-77802714D01*
X153159370Y-77803094D01*
X153160286Y-77803517D01*
X153161181Y-77803982D01*
X153162053Y-77804491D01*
X153162900Y-77805042D01*
X153532258Y-78058486D01*
X153534004Y-78059567D01*
X153535877Y-78060526D01*
X153537860Y-78061363D01*
X153539935Y-78062076D01*
X153542086Y-78062664D01*
X153544296Y-78063127D01*
X153546548Y-78063462D01*
X153548825Y-78063669D01*
X153551109Y-78063747D01*
X153553384Y-78063694D01*
X153555633Y-78063510D01*
X153557838Y-78063193D01*
X153559983Y-78062743D01*
X153562051Y-78062157D01*
X153564025Y-78061435D01*
X153565887Y-78060577D01*
X153876931Y-77927227D01*
X153877887Y-77926871D01*
X153878841Y-77926470D01*
X153880733Y-77925539D01*
X153882597Y-77924446D01*
X153884421Y-77923204D01*
X153886193Y-77921827D01*
X153887903Y-77920328D01*
X153889539Y-77918719D01*
X153891090Y-77917014D01*
X153892544Y-77915226D01*
X153893890Y-77913368D01*
X153895118Y-77911453D01*
X153896215Y-77909494D01*
X153897171Y-77907504D01*
X153897974Y-77905497D01*
X153898613Y-77903486D01*
X153898867Y-77902482D01*
X153899077Y-77901483D01*
X153979960Y-77466561D01*
X153980173Y-77465569D01*
X153980433Y-77464591D01*
X153980741Y-77463627D01*
X153981092Y-77462678D01*
X153981488Y-77461746D01*
X153981925Y-77460831D01*
X153982403Y-77459935D01*
X153982920Y-77459060D01*
X153983474Y-77458206D01*
X153984064Y-77457374D01*
X153984689Y-77456566D01*
X153985347Y-77455784D01*
X153986037Y-77455027D01*
X153986757Y-77454298D01*
X153987505Y-77453598D01*
X153988281Y-77452928D01*
X153989082Y-77452289D01*
X153989908Y-77451682D01*
X153990756Y-77451109D01*
X153991626Y-77450571D01*
X153992516Y-77450069D01*
X153993424Y-77449604D01*
X153994349Y-77449177D01*
X153995289Y-77448791D01*
X153996243Y-77448445D01*
X153997210Y-77448141D01*
X153998188Y-77447881D01*
X153999175Y-77447665D01*
X154000170Y-77447495D01*
X154001172Y-77447372D01*
X154002179Y-77447298D01*
X154003190Y-77447272D01*
X154450839Y-77447299D01*
G37*
G36*
X157107070Y-79780337D02*
G01*
X157114620Y-79780877D01*
X157122038Y-79781773D01*
X157129317Y-79783021D01*
X157136450Y-79784619D01*
X157143427Y-79786563D01*
X157150242Y-79788850D01*
X157156886Y-79791476D01*
X157163352Y-79794439D01*
X157169631Y-79797735D01*
X157175717Y-79801361D01*
X157181600Y-79805313D01*
X157187273Y-79809588D01*
X157192728Y-79814184D01*
X157197957Y-79819096D01*
X157202952Y-79824322D01*
X157207706Y-79829858D01*
X157212210Y-79835701D01*
X157216457Y-79841847D01*
X157220439Y-79848294D01*
X157224147Y-79855038D01*
X157227575Y-79862077D01*
X157230713Y-79869405D01*
X157233555Y-79877021D01*
X157236092Y-79884921D01*
X157238316Y-79893102D01*
X157240220Y-79901561D01*
X157241795Y-79910294D01*
X157243034Y-79919297D01*
X157243928Y-79928569D01*
X157244471Y-79938105D01*
X157244654Y-79947902D01*
X157244477Y-79959654D01*
X157243946Y-79970687D01*
X157243055Y-79981030D01*
X157241801Y-79990709D01*
X157240178Y-79999752D01*
X157238184Y-80008187D01*
X157235813Y-80016039D01*
X157233062Y-80023338D01*
X157229926Y-80030110D01*
X157226400Y-80036383D01*
X157222482Y-80042183D01*
X157218166Y-80047539D01*
X157213449Y-80052477D01*
X157208325Y-80057025D01*
X157202791Y-80061210D01*
X157196843Y-80065060D01*
X157196843Y-80066912D01*
X157239018Y-80066912D01*
X157239018Y-80162532D01*
X156914798Y-80162532D01*
X156904046Y-80162297D01*
X156893742Y-80161598D01*
X156883880Y-80160443D01*
X156874452Y-80158839D01*
X156865452Y-80156796D01*
X156856872Y-80154320D01*
X156848705Y-80151421D01*
X156840945Y-80148106D01*
X156833584Y-80144383D01*
X156826615Y-80140260D01*
X156820032Y-80135746D01*
X156813826Y-80130849D01*
X156807992Y-80125576D01*
X156802522Y-80119935D01*
X156797409Y-80113936D01*
X156792646Y-80107585D01*
X156788226Y-80100891D01*
X156784143Y-80093862D01*
X156780388Y-80086507D01*
X156776955Y-80078832D01*
X156773838Y-80070847D01*
X156771028Y-80062559D01*
X156768519Y-80053976D01*
X156766304Y-80045107D01*
X156764376Y-80035959D01*
X156762728Y-80026541D01*
X156760243Y-80006927D01*
X156758794Y-79986328D01*
X156758323Y-79964809D01*
X156758545Y-79951677D01*
X156759226Y-79938980D01*
X156760383Y-79926712D01*
X156762037Y-79914870D01*
X156764207Y-79903450D01*
X156766912Y-79892448D01*
X156770172Y-79881860D01*
X156774006Y-79871682D01*
X156778434Y-79861911D01*
X156783474Y-79852542D01*
X156789146Y-79843571D01*
X156795470Y-79834994D01*
X156802466Y-79826807D01*
X156810151Y-79819008D01*
X156818546Y-79811590D01*
X156827670Y-79804551D01*
X156884821Y-79879534D01*
X156882325Y-79881134D01*
X156879932Y-79882776D01*
X156877639Y-79884463D01*
X156875447Y-79886199D01*
X156873352Y-79887988D01*
X156871353Y-79889834D01*
X156869450Y-79891739D01*
X156867639Y-79893708D01*
X156865921Y-79895744D01*
X156864293Y-79897852D01*
X156862753Y-79900033D01*
X156861301Y-79902293D01*
X156859935Y-79904634D01*
X156858653Y-79907060D01*
X156857453Y-79909576D01*
X156856335Y-79912184D01*
X156855296Y-79914888D01*
X156854335Y-79917691D01*
X156853451Y-79920598D01*
X156852642Y-79923612D01*
X156851906Y-79926737D01*
X156851242Y-79929976D01*
X156850649Y-79933333D01*
X156850125Y-79936811D01*
X156849277Y-79944145D01*
X156848686Y-79952009D01*
X156848341Y-79960431D01*
X156848228Y-79969440D01*
X156848419Y-79981810D01*
X156849003Y-79993272D01*
X156850000Y-80003842D01*
X156851428Y-80013535D01*
X156853307Y-80022365D01*
X156855656Y-80030348D01*
X156858493Y-80037499D01*
X156860101Y-80040768D01*
X156861838Y-80043834D01*
X156863707Y-80046699D01*
X156865710Y-80049366D01*
X156867850Y-80051836D01*
X156870128Y-80054112D01*
X156872547Y-80056194D01*
X156875110Y-80058086D01*
X156877820Y-80059788D01*
X156880677Y-80061304D01*
X156883685Y-80062633D01*
X156886846Y-80063780D01*
X156890163Y-80064745D01*
X156893638Y-80065530D01*
X156897272Y-80066137D01*
X156901070Y-80066569D01*
X156909162Y-80066912D01*
X156958824Y-80066912D01*
X156958824Y-79952638D01*
X157037511Y-79952638D01*
X157037511Y-80066938D01*
X157072198Y-80066938D01*
X157078950Y-80066858D01*
X157085328Y-80066614D01*
X157091343Y-80066201D01*
X157097004Y-80065615D01*
X157102322Y-80064852D01*
X157107309Y-80063906D01*
X157111973Y-80062773D01*
X157116327Y-80061448D01*
X157120379Y-80059927D01*
X157124141Y-80058206D01*
X157127624Y-80056278D01*
X157130837Y-80054141D01*
X157133791Y-80051789D01*
X157136496Y-80049217D01*
X157138964Y-80046421D01*
X157141205Y-80043397D01*
X157143228Y-80040139D01*
X157145045Y-80036644D01*
X157146666Y-80032905D01*
X157148101Y-80028920D01*
X157149361Y-80024683D01*
X157150457Y-80020189D01*
X157151399Y-80015434D01*
X157152197Y-80010413D01*
X157153404Y-79999556D01*
X157154163Y-79987581D01*
X157154556Y-79974450D01*
X157154669Y-79960126D01*
X157154345Y-79948464D01*
X157153398Y-79937702D01*
X157151863Y-79927822D01*
X157149777Y-79918801D01*
X157148538Y-79914607D01*
X157147174Y-79910620D01*
X157145691Y-79906837D01*
X157144091Y-79903257D01*
X157142381Y-79899877D01*
X157140564Y-79896693D01*
X157138644Y-79893705D01*
X157136627Y-79890908D01*
X157134517Y-79888300D01*
X157132318Y-79885879D01*
X157130035Y-79883643D01*
X157127672Y-79881588D01*
X157125233Y-79879712D01*
X157122724Y-79878013D01*
X157120148Y-79876488D01*
X157117510Y-79875134D01*
X157112066Y-79872930D01*
X157106429Y-79871382D01*
X157100633Y-79870468D01*
X157094714Y-79870168D01*
X157091498Y-79870245D01*
X157088355Y-79870476D01*
X157085288Y-79870863D01*
X157082297Y-79871405D01*
X157079385Y-79872104D01*
X157076554Y-79872960D01*
X157073806Y-79873974D01*
X157071142Y-79875147D01*
X157068565Y-79876479D01*
X157066076Y-79877971D01*
X157063678Y-79879623D01*
X157061371Y-79881437D01*
X157059159Y-79883413D01*
X157057042Y-79885551D01*
X157055024Y-79887853D01*
X157053105Y-79890319D01*
X157051288Y-79892949D01*
X157049574Y-79895745D01*
X157047965Y-79898707D01*
X157046464Y-79901836D01*
X157045073Y-79905132D01*
X157043792Y-79908597D01*
X157042624Y-79912230D01*
X157041571Y-79916033D01*
X157040635Y-79920005D01*
X157039818Y-79924149D01*
X157039121Y-79928465D01*
X157038546Y-79932952D01*
X157038096Y-79937612D01*
X157037772Y-79942446D01*
X157037577Y-79947455D01*
X157037511Y-79952638D01*
X156958824Y-79952638D01*
X156958824Y-79934779D01*
X156959012Y-79925352D01*
X156959569Y-79916216D01*
X156960486Y-79907372D01*
X156961752Y-79898820D01*
X156963358Y-79890561D01*
X156965294Y-79882595D01*
X156967551Y-79874923D01*
X156970118Y-79867544D01*
X156972985Y-79860461D01*
X156976144Y-79853673D01*
X156979583Y-79847181D01*
X156983294Y-79840986D01*
X156987267Y-79835087D01*
X156991491Y-79829486D01*
X156995957Y-79824183D01*
X157000655Y-79819179D01*
X157005575Y-79814474D01*
X157010708Y-79810068D01*
X157016044Y-79805963D01*
X157021572Y-79802158D01*
X157027284Y-79798655D01*
X157033169Y-79795453D01*
X157039218Y-79792554D01*
X157045420Y-79789958D01*
X157051766Y-79787665D01*
X157058247Y-79785676D01*
X157064851Y-79783992D01*
X157071571Y-79782612D01*
X157078395Y-79781539D01*
X157085314Y-79780771D01*
X157092318Y-79780310D01*
X157094714Y-79780258D01*
X157099398Y-79780156D01*
X157107070Y-79780337D01*
G37*
G36*
X157041099Y-78669729D02*
G01*
X157074108Y-78670936D01*
X157088300Y-78671894D01*
X157101123Y-78673110D01*
X157112708Y-78674600D01*
X157123186Y-78676381D01*
X157132687Y-78678470D01*
X157141342Y-78680883D01*
X157149280Y-78683636D01*
X157156633Y-78686747D01*
X157163530Y-78690231D01*
X157170102Y-78694106D01*
X157176480Y-78698387D01*
X157182794Y-78703091D01*
X157189357Y-78708361D01*
X157195677Y-78713984D01*
X157201727Y-78719961D01*
X157207484Y-78726294D01*
X157212922Y-78732982D01*
X157218017Y-78740030D01*
X157222744Y-78747436D01*
X157227078Y-78755204D01*
X157230996Y-78763334D01*
X157232790Y-78767535D01*
X157234471Y-78771828D01*
X157236035Y-78776212D01*
X157237479Y-78780687D01*
X157238800Y-78785254D01*
X157239996Y-78789913D01*
X157241062Y-78794665D01*
X157241996Y-78799508D01*
X157242795Y-78804443D01*
X157243456Y-78809472D01*
X157243975Y-78814593D01*
X157244350Y-78819807D01*
X157244577Y-78825114D01*
X157244653Y-78830514D01*
X157244392Y-78839595D01*
X157243621Y-78848552D01*
X157242357Y-78857373D01*
X157240619Y-78866042D01*
X157238425Y-78874546D01*
X157235793Y-78882872D01*
X157232741Y-78891005D01*
X157229288Y-78898932D01*
X157225450Y-78906640D01*
X157221246Y-78914114D01*
X157216695Y-78921340D01*
X157211814Y-78928305D01*
X157206622Y-78934996D01*
X157201136Y-78941398D01*
X157195374Y-78947497D01*
X157189355Y-78953281D01*
X157239018Y-78953281D01*
X157239018Y-79048848D01*
X156571818Y-79048848D01*
X156571818Y-78953281D01*
X156814547Y-78953281D01*
X156808356Y-78946569D01*
X156802446Y-78939780D01*
X156796832Y-78932903D01*
X156791530Y-78925928D01*
X156786559Y-78918843D01*
X156781933Y-78911637D01*
X156777669Y-78904299D01*
X156773785Y-78896819D01*
X156770295Y-78889185D01*
X156767218Y-78881386D01*
X156764569Y-78873411D01*
X156762364Y-78865249D01*
X156761179Y-78859565D01*
X156853864Y-78859565D01*
X156854092Y-78867667D01*
X156854765Y-78875290D01*
X156855867Y-78882447D01*
X156857382Y-78889154D01*
X156859293Y-78895425D01*
X156861584Y-78901275D01*
X156864238Y-78906718D01*
X156867240Y-78911769D01*
X156870573Y-78916442D01*
X156874221Y-78920753D01*
X156878166Y-78924715D01*
X156882394Y-78928343D01*
X156886888Y-78931652D01*
X156891631Y-78934657D01*
X156896607Y-78937371D01*
X156901800Y-78939810D01*
X156907193Y-78941988D01*
X156912771Y-78943920D01*
X156918516Y-78945621D01*
X156924413Y-78947104D01*
X156930445Y-78948385D01*
X156936595Y-78949478D01*
X156949188Y-78951158D01*
X156962061Y-78952262D01*
X156975083Y-78952906D01*
X156988123Y-78953207D01*
X157001052Y-78953281D01*
X157027322Y-78952906D01*
X157040462Y-78952262D01*
X157053434Y-78951158D01*
X157066108Y-78949478D01*
X157078357Y-78947104D01*
X157090051Y-78943920D01*
X157095649Y-78941988D01*
X157101061Y-78939810D01*
X157106269Y-78937371D01*
X157111258Y-78934657D01*
X157116012Y-78931652D01*
X157120514Y-78928343D01*
X157124748Y-78924715D01*
X157128699Y-78920753D01*
X157132350Y-78916442D01*
X157135685Y-78911769D01*
X157138688Y-78906718D01*
X157141343Y-78901275D01*
X157143634Y-78895425D01*
X157145544Y-78889154D01*
X157147058Y-78882447D01*
X157148159Y-78875290D01*
X157148831Y-78867667D01*
X157149059Y-78859565D01*
X157148845Y-78851379D01*
X157148210Y-78843678D01*
X157147169Y-78836447D01*
X157145735Y-78829671D01*
X157143921Y-78823336D01*
X157141742Y-78817426D01*
X157139210Y-78811928D01*
X157136340Y-78806826D01*
X157133144Y-78802106D01*
X157129637Y-78797753D01*
X157125831Y-78793752D01*
X157121741Y-78790088D01*
X157117380Y-78786746D01*
X157112762Y-78783713D01*
X157107900Y-78780972D01*
X157102807Y-78778510D01*
X157097497Y-78776312D01*
X157091984Y-78774362D01*
X157086282Y-78772646D01*
X157080403Y-78771150D01*
X157074362Y-78769858D01*
X157068172Y-78768755D01*
X157055398Y-78767061D01*
X157042191Y-78765949D01*
X157028659Y-78765301D01*
X157014909Y-78764998D01*
X157001052Y-78764924D01*
X156973731Y-78765301D01*
X156960312Y-78765949D01*
X156947201Y-78767061D01*
X156934508Y-78768755D01*
X156922343Y-78771150D01*
X156910815Y-78774362D01*
X156905324Y-78776312D01*
X156900034Y-78778510D01*
X156894958Y-78780972D01*
X156890110Y-78783713D01*
X156885503Y-78786746D01*
X156881152Y-78790088D01*
X156877071Y-78793752D01*
X156873272Y-78797753D01*
X156869770Y-78802106D01*
X156866578Y-78806826D01*
X156863710Y-78811928D01*
X156861180Y-78817426D01*
X156859002Y-78823336D01*
X156857189Y-78829671D01*
X156855755Y-78836447D01*
X156854713Y-78843678D01*
X156854079Y-78851379D01*
X156853864Y-78859565D01*
X156761179Y-78859565D01*
X156760621Y-78856890D01*
X156759355Y-78848321D01*
X156758584Y-78839533D01*
X156758323Y-78830514D01*
X156758626Y-78819807D01*
X156759518Y-78809472D01*
X156760975Y-78799508D01*
X156762973Y-78789913D01*
X156765487Y-78780687D01*
X156768492Y-78771828D01*
X156771964Y-78763334D01*
X156775878Y-78755204D01*
X156780210Y-78747436D01*
X156784936Y-78740030D01*
X156790031Y-78732982D01*
X156795470Y-78726294D01*
X156801230Y-78719961D01*
X156807284Y-78713984D01*
X156813610Y-78708361D01*
X156820182Y-78703091D01*
X156826487Y-78698387D01*
X156832855Y-78694106D01*
X156839416Y-78690231D01*
X156846300Y-78686747D01*
X156849903Y-78685146D01*
X156853635Y-78683636D01*
X156857512Y-78682216D01*
X156861551Y-78680883D01*
X156865767Y-78679635D01*
X156870177Y-78678470D01*
X156879641Y-78676381D01*
X156890073Y-78674600D01*
X156901603Y-78673110D01*
X156914359Y-78671894D01*
X156928470Y-78670936D01*
X156944066Y-78670220D01*
X156961275Y-78669729D01*
X156980227Y-78669447D01*
X157001052Y-78669356D01*
X157041099Y-78669729D01*
G37*
G36*
X156270330Y-77857467D02*
G01*
X156287320Y-77858436D01*
X156303480Y-77860021D01*
X156318828Y-77862200D01*
X156333383Y-77864949D01*
X156347163Y-77868244D01*
X156360188Y-77872060D01*
X156372474Y-77876376D01*
X156384042Y-77881166D01*
X156394910Y-77886408D01*
X156405095Y-77892077D01*
X156414618Y-77898150D01*
X156423495Y-77904603D01*
X156431745Y-77911412D01*
X156439388Y-77918555D01*
X156446442Y-77926006D01*
X156452924Y-77933743D01*
X156458854Y-77941742D01*
X156464250Y-77949979D01*
X156469131Y-77958431D01*
X156473515Y-77967073D01*
X156477421Y-77975882D01*
X156483871Y-77993908D01*
X156488630Y-78012318D01*
X156491847Y-78030922D01*
X156493668Y-78049532D01*
X156494242Y-78067958D01*
X156493976Y-78079873D01*
X156493169Y-78091705D01*
X156491808Y-78103436D01*
X156489879Y-78115052D01*
X156487367Y-78126535D01*
X156484260Y-78137870D01*
X156480543Y-78149039D01*
X156476204Y-78160027D01*
X156471227Y-78170817D01*
X156465600Y-78181393D01*
X156459309Y-78191738D01*
X156452339Y-78201837D01*
X156444678Y-78211672D01*
X156436311Y-78221228D01*
X156427226Y-78230488D01*
X156417407Y-78239435D01*
X156358405Y-78170088D01*
X156363708Y-78164691D01*
X156368719Y-78159051D01*
X156373431Y-78153189D01*
X156377837Y-78147125D01*
X156381931Y-78140879D01*
X156385704Y-78134474D01*
X156389151Y-78127928D01*
X156392265Y-78121262D01*
X156395038Y-78114498D01*
X156397463Y-78107655D01*
X156399535Y-78100755D01*
X156401245Y-78093817D01*
X156402587Y-78086863D01*
X156403554Y-78079913D01*
X156404139Y-78072987D01*
X156404336Y-78066106D01*
X156404221Y-78060008D01*
X156403875Y-78054020D01*
X156403299Y-78048147D01*
X156402493Y-78042395D01*
X156401456Y-78036769D01*
X156400190Y-78031275D01*
X156398694Y-78025919D01*
X156396969Y-78020706D01*
X156395015Y-78015641D01*
X156392831Y-78010729D01*
X156390418Y-78005977D01*
X156387777Y-78001390D01*
X156384907Y-77996974D01*
X156381809Y-77992733D01*
X156378482Y-77988673D01*
X156374928Y-77984800D01*
X156371145Y-77981119D01*
X156367135Y-77977636D01*
X156362897Y-77974356D01*
X156358432Y-77971285D01*
X156353739Y-77968428D01*
X156348820Y-77965791D01*
X156343674Y-77963379D01*
X156338301Y-77961197D01*
X156332702Y-77959252D01*
X156326876Y-77957548D01*
X156320824Y-77956092D01*
X156314546Y-77954887D01*
X156308043Y-77953941D01*
X156301313Y-77953259D01*
X156294359Y-77952845D01*
X156287179Y-77952706D01*
X156287179Y-78248801D01*
X156208466Y-78248801D01*
X156197087Y-78248537D01*
X156185978Y-78247755D01*
X156175144Y-78246468D01*
X156164593Y-78244691D01*
X156154329Y-78242438D01*
X156144360Y-78239722D01*
X156134690Y-78236559D01*
X156125326Y-78232961D01*
X156116273Y-78228943D01*
X156107539Y-78224520D01*
X156099128Y-78219704D01*
X156091047Y-78214511D01*
X156083302Y-78208954D01*
X156075898Y-78203048D01*
X156068843Y-78196806D01*
X156062141Y-78190242D01*
X156055799Y-78183371D01*
X156049822Y-78176207D01*
X156044218Y-78168763D01*
X156038991Y-78161055D01*
X156034148Y-78153095D01*
X156029694Y-78144898D01*
X156025636Y-78136478D01*
X156021980Y-78127849D01*
X156018732Y-78119025D01*
X156015897Y-78110020D01*
X156013482Y-78100849D01*
X156011492Y-78091525D01*
X156009935Y-78082062D01*
X156008815Y-78072475D01*
X156008138Y-78062777D01*
X156007911Y-78052983D01*
X156097897Y-78052983D01*
X156098009Y-78058209D01*
X156098345Y-78063344D01*
X156098905Y-78068381D01*
X156099687Y-78073318D01*
X156100691Y-78078150D01*
X156101915Y-78082873D01*
X156103360Y-78087481D01*
X156105023Y-78091972D01*
X156106905Y-78096341D01*
X156109004Y-78100583D01*
X156111320Y-78104695D01*
X156113851Y-78108671D01*
X156116598Y-78112508D01*
X156119558Y-78116202D01*
X156122732Y-78119747D01*
X156126118Y-78123141D01*
X156129715Y-78126377D01*
X156133523Y-78129453D01*
X156137541Y-78132364D01*
X156141769Y-78135106D01*
X156146204Y-78137674D01*
X156150846Y-78140064D01*
X156155696Y-78142272D01*
X156160750Y-78144293D01*
X156166010Y-78146123D01*
X156171474Y-78147759D01*
X156177140Y-78149195D01*
X156183009Y-78150427D01*
X156189080Y-78151451D01*
X156195351Y-78152263D01*
X156201822Y-78152859D01*
X156208492Y-78153234D01*
X156208492Y-77952706D01*
X156201822Y-77952999D01*
X156195351Y-77953524D01*
X156189080Y-77954275D01*
X156183009Y-77955248D01*
X156177140Y-77956438D01*
X156171473Y-77957840D01*
X156166010Y-77959449D01*
X156160750Y-77961260D01*
X156155695Y-77963270D01*
X156150846Y-77965472D01*
X156146204Y-77967862D01*
X156141768Y-77970435D01*
X156137541Y-77973187D01*
X156133523Y-77976112D01*
X156129715Y-77979207D01*
X156126118Y-77982465D01*
X156122732Y-77985883D01*
X156119558Y-77989454D01*
X156116598Y-77993176D01*
X156113851Y-77997042D01*
X156111320Y-78001049D01*
X156109004Y-78005190D01*
X156106905Y-78009462D01*
X156105023Y-78013860D01*
X156103360Y-78018378D01*
X156101915Y-78023012D01*
X156100691Y-78027757D01*
X156099687Y-78032609D01*
X156098905Y-78037562D01*
X156098345Y-78042612D01*
X156098009Y-78047754D01*
X156097897Y-78052983D01*
X156007911Y-78052983D01*
X156008630Y-78035645D01*
X156010850Y-78018193D01*
X156012553Y-78009478D01*
X156014666Y-78000797D01*
X156017201Y-77992173D01*
X156020171Y-77983628D01*
X156023588Y-77975181D01*
X156027462Y-77966854D01*
X156031806Y-77958669D01*
X156036631Y-77950647D01*
X156041951Y-77942809D01*
X156047775Y-77935176D01*
X156054116Y-77927770D01*
X156060987Y-77920612D01*
X156068398Y-77913723D01*
X156076362Y-77907124D01*
X156084890Y-77900837D01*
X156093994Y-77894883D01*
X156103686Y-77889283D01*
X156113978Y-77884059D01*
X156124882Y-77879231D01*
X156136410Y-77874821D01*
X156148572Y-77870850D01*
X156161382Y-77867340D01*
X156174851Y-77864311D01*
X156188990Y-77861786D01*
X156203812Y-77859785D01*
X156208492Y-77859345D01*
X156219329Y-77858329D01*
X156235551Y-77857440D01*
X156252492Y-77857139D01*
X156270330Y-77857467D01*
G37*
G36*
X156488607Y-80481514D02*
G01*
X156202830Y-80481514D01*
X156196444Y-80481647D01*
X156190287Y-80482041D01*
X156184357Y-80482687D01*
X156178652Y-80483577D01*
X156173172Y-80484703D01*
X156167913Y-80486057D01*
X156162875Y-80487631D01*
X156158055Y-80489415D01*
X156153452Y-80491403D01*
X156149065Y-80493586D01*
X156144891Y-80495955D01*
X156140929Y-80498503D01*
X156137176Y-80501221D01*
X156133632Y-80504101D01*
X156130295Y-80507135D01*
X156127163Y-80510314D01*
X156124234Y-80513631D01*
X156121506Y-80517077D01*
X156118978Y-80520643D01*
X156116648Y-80524323D01*
X156114514Y-80528107D01*
X156112575Y-80531987D01*
X156110828Y-80535955D01*
X156109273Y-80540004D01*
X156106729Y-80548306D01*
X156104929Y-80556830D01*
X156103859Y-80565509D01*
X156103506Y-80574277D01*
X156103583Y-80578755D01*
X156103821Y-80583056D01*
X156104222Y-80587203D01*
X156104794Y-80591216D01*
X156105542Y-80595119D01*
X156106471Y-80598933D01*
X156107586Y-80602681D01*
X156108893Y-80606384D01*
X156110398Y-80610065D01*
X156112106Y-80613746D01*
X156114022Y-80617449D01*
X156116153Y-80621195D01*
X156118502Y-80625008D01*
X156121076Y-80628908D01*
X156123881Y-80632919D01*
X156126921Y-80637063D01*
X156044451Y-80706410D01*
X156040334Y-80700921D01*
X156036424Y-80695363D01*
X156032727Y-80689731D01*
X156029254Y-80684018D01*
X156026010Y-80678220D01*
X156023006Y-80672330D01*
X156020249Y-80666342D01*
X156017747Y-80660250D01*
X156015509Y-80654049D01*
X156013543Y-80647733D01*
X156011856Y-80641295D01*
X156010458Y-80634731D01*
X156009356Y-80628034D01*
X156008559Y-80621197D01*
X156008075Y-80614217D01*
X156007912Y-80607086D01*
X156008131Y-80597689D01*
X156008791Y-80588475D01*
X156009890Y-80579452D01*
X156011428Y-80570628D01*
X156013406Y-80562012D01*
X156015823Y-80553613D01*
X156018679Y-80545438D01*
X156021974Y-80537497D01*
X156025709Y-80529797D01*
X156029882Y-80522347D01*
X156034494Y-80515155D01*
X156039545Y-80508230D01*
X156045035Y-80501581D01*
X156050963Y-80495214D01*
X156057330Y-80489140D01*
X156064136Y-80483367D01*
X156064136Y-80481514D01*
X156013547Y-80481514D01*
X156013547Y-80385920D01*
X156488607Y-80385920D01*
X156488607Y-80481514D01*
G37*
G36*
X157239018Y-80363087D02*
G01*
X156953189Y-80363087D01*
X156946807Y-80363220D01*
X156940654Y-80363613D01*
X156934727Y-80364259D01*
X156929026Y-80365149D01*
X156923548Y-80366276D01*
X156918291Y-80367630D01*
X156913254Y-80369203D01*
X156908436Y-80370988D01*
X156903834Y-80372975D01*
X156899447Y-80375158D01*
X156895273Y-80377527D01*
X156891310Y-80380075D01*
X156887557Y-80382793D01*
X156884013Y-80385673D01*
X156880675Y-80388707D01*
X156877541Y-80391886D01*
X156874611Y-80395203D01*
X156871881Y-80398649D01*
X156869352Y-80402216D01*
X156867020Y-80405895D01*
X156864885Y-80409679D01*
X156862944Y-80413559D01*
X156861196Y-80417528D01*
X156859639Y-80421576D01*
X156857092Y-80429879D01*
X156855290Y-80438403D01*
X156854218Y-80447081D01*
X156853864Y-80455849D01*
X156853942Y-80460327D01*
X156854179Y-80464629D01*
X156854581Y-80468775D01*
X156855154Y-80472788D01*
X156855902Y-80476691D01*
X156856832Y-80480505D01*
X156857949Y-80484253D01*
X156859258Y-80487956D01*
X156860766Y-80491637D01*
X156862477Y-80495318D01*
X156864398Y-80499021D01*
X156866533Y-80502767D01*
X156868889Y-80506580D01*
X156871470Y-80510481D01*
X156874283Y-80514492D01*
X156877333Y-80518635D01*
X156794862Y-80587982D01*
X156790745Y-80582501D01*
X156786835Y-80576948D01*
X156783139Y-80571318D01*
X156779665Y-80565606D01*
X156776422Y-80559805D01*
X156773417Y-80553911D01*
X156770660Y-80547919D01*
X156768159Y-80541822D01*
X156765921Y-80535617D01*
X156763954Y-80529296D01*
X156762268Y-80522855D01*
X156760869Y-80516288D01*
X156759768Y-80509590D01*
X156758970Y-80502756D01*
X156758486Y-80495781D01*
X156758323Y-80488658D01*
X156758543Y-80479261D01*
X156759202Y-80470049D01*
X156760301Y-80461029D01*
X156761839Y-80452208D01*
X156763817Y-80443597D01*
X156766234Y-80435202D01*
X156769090Y-80427032D01*
X156772386Y-80419095D01*
X156776120Y-80411400D01*
X156780293Y-80403955D01*
X156784905Y-80396768D01*
X156789956Y-80389847D01*
X156795446Y-80383201D01*
X156801375Y-80376837D01*
X156807741Y-80370765D01*
X156814547Y-80364992D01*
X156814547Y-80363087D01*
X156763958Y-80363087D01*
X156763958Y-80267546D01*
X157239018Y-80267546D01*
X157239018Y-80363087D01*
G37*
G36*
X156488607Y-78425940D02*
G01*
X156205688Y-78425940D01*
X156199703Y-78426057D01*
X156193880Y-78426405D01*
X156188220Y-78426981D01*
X156182725Y-78427777D01*
X156177397Y-78428791D01*
X156172238Y-78430017D01*
X156167250Y-78431450D01*
X156162435Y-78433085D01*
X156157794Y-78434918D01*
X156153329Y-78436944D01*
X156149043Y-78439158D01*
X156144937Y-78441555D01*
X156141013Y-78444131D01*
X156137272Y-78446881D01*
X156133718Y-78449799D01*
X156130351Y-78452881D01*
X156127174Y-78456122D01*
X156124188Y-78459518D01*
X156121395Y-78463064D01*
X156118798Y-78466754D01*
X156116397Y-78470584D01*
X156114196Y-78474549D01*
X156112195Y-78478645D01*
X156110397Y-78482866D01*
X156108803Y-78487209D01*
X156107416Y-78491667D01*
X156106237Y-78496236D01*
X156105269Y-78500911D01*
X156104512Y-78505689D01*
X156103969Y-78510562D01*
X156103642Y-78515528D01*
X156103532Y-78520581D01*
X156103642Y-78525550D01*
X156103969Y-78530437D01*
X156104512Y-78535237D01*
X156105269Y-78539945D01*
X156106237Y-78544557D01*
X156107416Y-78549066D01*
X156108804Y-78553469D01*
X156110397Y-78557761D01*
X156112195Y-78561935D01*
X156114196Y-78565988D01*
X156116398Y-78569914D01*
X156118798Y-78573709D01*
X156121396Y-78577367D01*
X156124188Y-78580883D01*
X156127174Y-78584253D01*
X156130351Y-78587471D01*
X156133718Y-78590533D01*
X156137273Y-78593433D01*
X156141013Y-78596167D01*
X156144937Y-78598730D01*
X156149043Y-78601116D01*
X156153329Y-78603320D01*
X156157794Y-78605339D01*
X156162435Y-78607166D01*
X156167250Y-78608796D01*
X156172239Y-78610226D01*
X156177398Y-78611449D01*
X156182725Y-78612461D01*
X156188220Y-78613256D01*
X156193880Y-78613831D01*
X156199703Y-78614179D01*
X156205688Y-78614297D01*
X156488607Y-78614297D01*
X156488607Y-78709864D01*
X156172853Y-78709864D01*
X156162896Y-78709620D01*
X156153237Y-78708899D01*
X156143877Y-78707719D01*
X156134818Y-78706096D01*
X156126059Y-78704049D01*
X156117604Y-78701594D01*
X156109453Y-78698750D01*
X156101606Y-78695532D01*
X156094066Y-78691959D01*
X156086833Y-78688048D01*
X156079909Y-78683815D01*
X156073295Y-78679280D01*
X156066992Y-78674458D01*
X156061001Y-78669367D01*
X156055323Y-78664025D01*
X156049960Y-78658449D01*
X156044913Y-78652656D01*
X156040183Y-78646663D01*
X156035771Y-78640488D01*
X156031679Y-78634148D01*
X156027906Y-78627660D01*
X156024456Y-78621042D01*
X156021329Y-78614312D01*
X156018526Y-78607485D01*
X156013896Y-78593615D01*
X156010578Y-78579570D01*
X156008580Y-78565489D01*
X156008079Y-78558478D01*
X156007912Y-78551511D01*
X156008131Y-78542114D01*
X156008791Y-78532901D01*
X156009890Y-78523880D01*
X156011428Y-78515058D01*
X156013406Y-78506445D01*
X156015823Y-78498048D01*
X156018679Y-78489877D01*
X156021974Y-78481939D01*
X156025709Y-78474243D01*
X156029882Y-78466797D01*
X156034494Y-78459609D01*
X156039545Y-78452689D01*
X156045035Y-78446044D01*
X156050963Y-78439683D01*
X156057330Y-78433613D01*
X156064136Y-78427845D01*
X156064136Y-78425940D01*
X156013547Y-78425940D01*
X156013547Y-78330372D01*
X156488607Y-78330372D01*
X156488607Y-78425940D01*
G37*
G36*
X156267469Y-80695339D02*
G01*
X156282820Y-80696248D01*
X156297574Y-80697740D01*
X156311738Y-80699796D01*
X156325316Y-80702398D01*
X156338316Y-80705527D01*
X156350744Y-80709164D01*
X156362607Y-80713290D01*
X156373911Y-80717887D01*
X156384661Y-80722936D01*
X156394866Y-80728419D01*
X156404530Y-80734316D01*
X156413661Y-80740609D01*
X156422264Y-80747280D01*
X156430347Y-80754309D01*
X156437915Y-80761678D01*
X156444975Y-80769368D01*
X156451534Y-80777360D01*
X156457597Y-80785636D01*
X156463171Y-80794178D01*
X156468262Y-80802965D01*
X156472877Y-80811980D01*
X156477023Y-80821204D01*
X156480705Y-80830619D01*
X156486704Y-80849943D01*
X156490925Y-80869804D01*
X156493421Y-80890051D01*
X156494242Y-80910536D01*
X156493840Y-80923889D01*
X156492658Y-80936890D01*
X156490726Y-80949537D01*
X156488076Y-80961830D01*
X156484740Y-80973765D01*
X156480749Y-80985343D01*
X156476136Y-80996560D01*
X156470932Y-81007416D01*
X156465168Y-81017909D01*
X156458877Y-81028037D01*
X156452090Y-81037799D01*
X156444838Y-81047193D01*
X156437154Y-81056218D01*
X156429069Y-81064872D01*
X156420615Y-81073153D01*
X156411824Y-81081060D01*
X156349039Y-81010786D01*
X156354384Y-81006276D01*
X156359514Y-81001531D01*
X156364410Y-80996558D01*
X156369055Y-80991364D01*
X156373430Y-80985956D01*
X156377519Y-80980340D01*
X156381303Y-80974525D01*
X156384764Y-80968516D01*
X156387885Y-80962321D01*
X156390648Y-80955946D01*
X156393034Y-80949399D01*
X156395027Y-80942686D01*
X156396607Y-80935815D01*
X156397759Y-80928792D01*
X156398168Y-80925226D01*
X156398462Y-80921625D01*
X156398641Y-80917989D01*
X156398701Y-80914319D01*
X156398571Y-80907123D01*
X156398181Y-80900115D01*
X156397526Y-80893299D01*
X156396606Y-80886677D01*
X156395416Y-80880252D01*
X156393954Y-80874026D01*
X156392217Y-80868002D01*
X156390203Y-80862183D01*
X156387908Y-80856570D01*
X156385331Y-80851168D01*
X156382468Y-80845977D01*
X156379317Y-80841002D01*
X156375874Y-80836243D01*
X156372138Y-80831705D01*
X156368105Y-80827390D01*
X156363773Y-80823300D01*
X156359138Y-80819437D01*
X156354199Y-80815805D01*
X156348953Y-80812406D01*
X156343396Y-80809242D01*
X156337526Y-80806317D01*
X156331340Y-80803633D01*
X156324836Y-80801192D01*
X156318010Y-80798996D01*
X156310861Y-80797050D01*
X156303384Y-80795354D01*
X156295579Y-80793912D01*
X156287441Y-80792727D01*
X156278968Y-80791801D01*
X156270158Y-80791136D01*
X156261007Y-80790735D01*
X156251513Y-80790600D01*
X156232716Y-80791135D01*
X156215300Y-80792726D01*
X156207103Y-80793911D01*
X156199242Y-80795352D01*
X156191716Y-80797047D01*
X156184520Y-80798993D01*
X156177652Y-80801187D01*
X156171110Y-80803627D01*
X156164889Y-80806311D01*
X156158988Y-80809235D01*
X156153403Y-80812398D01*
X156148131Y-80815796D01*
X156143170Y-80819428D01*
X156138516Y-80823290D01*
X156134167Y-80827379D01*
X156130120Y-80831694D01*
X156126372Y-80836232D01*
X156122919Y-80840990D01*
X156119759Y-80845965D01*
X156116890Y-80851156D01*
X156114307Y-80856559D01*
X156112009Y-80862172D01*
X156109992Y-80867992D01*
X156108254Y-80874016D01*
X156106791Y-80880243D01*
X156105600Y-80886670D01*
X156104025Y-80900111D01*
X156103505Y-80914319D01*
X156103744Y-80921625D01*
X156104448Y-80928793D01*
X156105599Y-80935817D01*
X156107180Y-80942690D01*
X156109172Y-80949404D01*
X156111559Y-80955953D01*
X156114321Y-80962329D01*
X156117442Y-80968526D01*
X156120904Y-80974536D01*
X156124688Y-80980352D01*
X156128776Y-80985967D01*
X156133152Y-80991375D01*
X156137797Y-80996568D01*
X156142693Y-81001539D01*
X156147822Y-81006280D01*
X156153168Y-81010786D01*
X156090382Y-81081060D01*
X156081577Y-81073148D01*
X156073112Y-81064863D01*
X156065017Y-81056206D01*
X156057326Y-81047179D01*
X156050069Y-81037782D01*
X156043277Y-81028019D01*
X156036983Y-81017890D01*
X156031218Y-81007396D01*
X156026013Y-80996541D01*
X156021399Y-80985324D01*
X156017409Y-80973748D01*
X156014074Y-80961815D01*
X156011425Y-80949525D01*
X156009494Y-80936881D01*
X156008807Y-80930427D01*
X156008312Y-80923884D01*
X156008012Y-80917254D01*
X156007911Y-80910536D01*
X156008733Y-80890051D01*
X156009769Y-80879888D01*
X156011231Y-80869804D01*
X156013126Y-80859816D01*
X156015460Y-80849943D01*
X156018239Y-80840204D01*
X156021470Y-80830619D01*
X156025159Y-80821204D01*
X156029313Y-80811980D01*
X156033939Y-80802965D01*
X156039042Y-80794178D01*
X156044631Y-80785636D01*
X156050710Y-80777360D01*
X156057286Y-80769368D01*
X156064367Y-80761678D01*
X156071958Y-80754309D01*
X156080066Y-80747280D01*
X156088698Y-80740609D01*
X156097859Y-80734316D01*
X156107558Y-80728419D01*
X156117799Y-80722936D01*
X156128590Y-80717887D01*
X156139937Y-80713290D01*
X156151846Y-80709164D01*
X156164325Y-80705527D01*
X156177379Y-80702398D01*
X156191016Y-80699796D01*
X156205241Y-80697740D01*
X156220061Y-80696248D01*
X156235483Y-80695339D01*
X156251513Y-80695032D01*
X156267469Y-80695339D01*
G37*
G36*
X156419369Y-78979823D02*
G01*
X156429066Y-78991597D01*
X156438085Y-79003600D01*
X156446428Y-79015824D01*
X156454096Y-79028263D01*
X156461090Y-79040908D01*
X156467412Y-79053754D01*
X156473062Y-79066794D01*
X156478043Y-79080020D01*
X156482356Y-79093426D01*
X156486001Y-79107005D01*
X156488981Y-79120750D01*
X156491296Y-79134654D01*
X156492949Y-79148710D01*
X156493939Y-79162911D01*
X156494269Y-79177251D01*
X156493646Y-79197682D01*
X156491793Y-79217451D01*
X156488730Y-79236468D01*
X156484476Y-79254643D01*
X156479053Y-79271883D01*
X156472482Y-79288100D01*
X156464782Y-79303202D01*
X156460515Y-79310307D01*
X156455974Y-79317099D01*
X156451161Y-79323568D01*
X156446078Y-79329701D01*
X156440729Y-79335487D01*
X156435116Y-79340916D01*
X156429241Y-79345975D01*
X156423108Y-79350654D01*
X156416717Y-79354941D01*
X156410073Y-79358825D01*
X156403178Y-79362294D01*
X156396033Y-79365337D01*
X156388643Y-79367943D01*
X156381009Y-79370101D01*
X156373134Y-79371799D01*
X156365020Y-79373026D01*
X156356670Y-79373771D01*
X156348087Y-79374021D01*
X156334059Y-79373556D01*
X156320457Y-79372140D01*
X156307337Y-79369744D01*
X156300975Y-79368170D01*
X156294754Y-79366340D01*
X156288681Y-79364251D01*
X156282762Y-79361899D01*
X156277006Y-79359280D01*
X156271417Y-79356391D01*
X156266005Y-79353228D01*
X156260775Y-79349787D01*
X156255734Y-79346066D01*
X156250889Y-79342060D01*
X156246247Y-79337765D01*
X156241815Y-79333178D01*
X156237600Y-79328296D01*
X156233608Y-79323115D01*
X156229847Y-79317630D01*
X156226324Y-79311840D01*
X156223045Y-79305739D01*
X156220017Y-79299324D01*
X156217247Y-79292592D01*
X156214742Y-79285540D01*
X156212509Y-79278162D01*
X156210554Y-79270456D01*
X156208885Y-79262419D01*
X156207509Y-79254046D01*
X156206432Y-79245334D01*
X156205662Y-79236279D01*
X156200079Y-79157566D01*
X156199176Y-79148986D01*
X156197904Y-79141150D01*
X156196287Y-79134030D01*
X156194349Y-79127601D01*
X156192115Y-79121836D01*
X156190895Y-79119195D01*
X156189611Y-79116709D01*
X156188264Y-79114377D01*
X156186859Y-79112195D01*
X156185399Y-79110160D01*
X156183886Y-79108267D01*
X156182324Y-79106515D01*
X156180716Y-79104899D01*
X156177373Y-79102065D01*
X156173883Y-79099738D01*
X156170269Y-79097893D01*
X156166556Y-79096503D01*
X156162769Y-79095543D01*
X156158934Y-79094986D01*
X156155073Y-79094806D01*
X156152027Y-79094867D01*
X156149033Y-79095053D01*
X156146094Y-79095366D01*
X156143213Y-79095811D01*
X156140393Y-79096391D01*
X156137636Y-79097110D01*
X156134946Y-79097971D01*
X156132325Y-79098978D01*
X156129777Y-79100135D01*
X156127304Y-79101445D01*
X156124909Y-79102911D01*
X156122596Y-79104538D01*
X156120367Y-79106329D01*
X156118225Y-79108288D01*
X156116174Y-79110417D01*
X156114215Y-79112722D01*
X156112352Y-79115205D01*
X156110588Y-79117870D01*
X156108926Y-79120720D01*
X156107369Y-79123759D01*
X156105920Y-79126992D01*
X156104581Y-79130420D01*
X156103355Y-79134049D01*
X156102247Y-79137881D01*
X156101257Y-79141920D01*
X156100390Y-79146170D01*
X156099649Y-79150635D01*
X156099035Y-79155317D01*
X156098553Y-79160221D01*
X156098205Y-79165350D01*
X156097994Y-79170708D01*
X156097923Y-79176298D01*
X156098130Y-79185816D01*
X156098741Y-79195044D01*
X156099742Y-79204001D01*
X156101119Y-79212703D01*
X156102859Y-79221168D01*
X156104947Y-79229415D01*
X156107370Y-79237461D01*
X156110114Y-79245325D01*
X156113165Y-79253022D01*
X156116508Y-79260573D01*
X156120132Y-79267993D01*
X156124020Y-79275302D01*
X156128160Y-79282517D01*
X156132538Y-79289655D01*
X156137139Y-79296735D01*
X156141950Y-79303774D01*
X156072655Y-79362777D01*
X156065441Y-79353877D01*
X156058572Y-79344732D01*
X156052066Y-79335316D01*
X156045938Y-79325602D01*
X156040206Y-79315565D01*
X156034885Y-79305177D01*
X156029993Y-79294413D01*
X156025546Y-79283246D01*
X156021560Y-79271651D01*
X156018052Y-79259600D01*
X156015039Y-79247068D01*
X156012536Y-79234029D01*
X156010561Y-79220456D01*
X156009130Y-79206323D01*
X156008259Y-79191604D01*
X156007965Y-79176272D01*
X156008546Y-79157762D01*
X156010287Y-79139880D01*
X156013184Y-79122703D01*
X156017232Y-79106309D01*
X156022429Y-79090777D01*
X156025456Y-79083359D01*
X156028768Y-79076185D01*
X156032365Y-79069266D01*
X156036247Y-79062612D01*
X156040412Y-79056232D01*
X156044861Y-79050135D01*
X156049592Y-79044332D01*
X156054606Y-79038833D01*
X156059901Y-79033647D01*
X156065478Y-79028784D01*
X156071335Y-79024254D01*
X156077473Y-79020066D01*
X156083890Y-79016231D01*
X156090586Y-79012758D01*
X156097561Y-79009657D01*
X156104815Y-79006938D01*
X156112346Y-79004610D01*
X156120154Y-79002683D01*
X156128238Y-79001168D01*
X156136599Y-79000074D01*
X156145235Y-78999410D01*
X156154147Y-78999186D01*
X156161685Y-78999355D01*
X156169019Y-78999858D01*
X156176149Y-79000687D01*
X156183073Y-79001836D01*
X156189789Y-79003299D01*
X156196298Y-79005067D01*
X156202598Y-79007134D01*
X156208687Y-79009494D01*
X156214566Y-79012140D01*
X156220232Y-79015063D01*
X156225685Y-79018259D01*
X156230923Y-79021720D01*
X156235947Y-79025438D01*
X156240754Y-79029408D01*
X156245343Y-79033622D01*
X156249714Y-79038073D01*
X156253866Y-79042755D01*
X156257797Y-79047661D01*
X156261506Y-79052783D01*
X156264993Y-79058115D01*
X156268256Y-79063651D01*
X156271294Y-79069382D01*
X156274106Y-79075303D01*
X156276692Y-79081406D01*
X156279049Y-79087685D01*
X156281178Y-79094133D01*
X156283077Y-79100742D01*
X156284745Y-79107506D01*
X156287383Y-79121472D01*
X156289084Y-79135976D01*
X156296572Y-79220325D01*
X156297186Y-79226388D01*
X156298000Y-79232249D01*
X156299037Y-79237880D01*
X156300322Y-79243256D01*
X156301876Y-79248350D01*
X156303724Y-79253138D01*
X156305889Y-79257593D01*
X156307097Y-79259688D01*
X156308393Y-79261689D01*
X156309779Y-79263595D01*
X156311259Y-79265401D01*
X156312836Y-79267104D01*
X156314512Y-79268701D01*
X156316290Y-79270189D01*
X156318173Y-79271565D01*
X156320165Y-79272825D01*
X156322267Y-79273966D01*
X156324484Y-79274986D01*
X156326817Y-79275879D01*
X156329270Y-79276644D01*
X156331845Y-79277278D01*
X156334546Y-79277776D01*
X156337375Y-79278136D01*
X156340335Y-79278354D01*
X156343430Y-79278428D01*
X156347150Y-79278313D01*
X156350754Y-79277972D01*
X156354243Y-79277409D01*
X156357615Y-79276629D01*
X156360872Y-79275635D01*
X156364012Y-79274434D01*
X156367035Y-79273028D01*
X156369942Y-79271423D01*
X156372732Y-79269623D01*
X156375406Y-79267632D01*
X156377962Y-79265456D01*
X156380401Y-79263098D01*
X156382722Y-79260563D01*
X156384926Y-79257855D01*
X156387013Y-79254979D01*
X156388981Y-79251939D01*
X156390831Y-79248741D01*
X156392563Y-79245388D01*
X156394177Y-79241884D01*
X156395672Y-79238235D01*
X156397049Y-79234445D01*
X156398306Y-79230517D01*
X156399445Y-79226458D01*
X156400464Y-79222271D01*
X156401364Y-79217961D01*
X156402145Y-79213531D01*
X156402806Y-79208988D01*
X156403347Y-79204334D01*
X156403768Y-79199576D01*
X156404069Y-79194716D01*
X156404250Y-79189760D01*
X156404310Y-79184712D01*
X156404069Y-79172982D01*
X156403348Y-79161669D01*
X156402147Y-79150751D01*
X156400468Y-79140207D01*
X156398312Y-79130013D01*
X156395679Y-79120150D01*
X156392572Y-79110593D01*
X156388991Y-79101322D01*
X156384938Y-79092315D01*
X156380413Y-79083549D01*
X156375418Y-79075003D01*
X156369954Y-79066654D01*
X156364022Y-79058482D01*
X156357623Y-79050463D01*
X156350759Y-79042576D01*
X156343430Y-79034799D01*
X156408993Y-78968283D01*
X156419369Y-78979823D01*
G37*
G36*
X157020667Y-80590084D02*
G01*
X157037661Y-80591053D01*
X157053825Y-80592638D01*
X157069177Y-80594817D01*
X157083736Y-80597566D01*
X157097520Y-80600861D01*
X157110547Y-80604678D01*
X157122837Y-80608993D01*
X157134408Y-80613784D01*
X157145278Y-80619025D01*
X157155466Y-80624695D01*
X157164990Y-80630768D01*
X157173869Y-80637221D01*
X157182121Y-80644031D01*
X157189766Y-80651174D01*
X157196820Y-80658626D01*
X157203304Y-80666364D01*
X157209235Y-80674364D01*
X157214632Y-80682602D01*
X157219514Y-80691054D01*
X157223899Y-80699697D01*
X157227805Y-80708508D01*
X157234256Y-80726536D01*
X157239016Y-80744949D01*
X157242232Y-80763557D01*
X157244053Y-80782171D01*
X157244627Y-80800602D01*
X157244362Y-80812512D01*
X157243555Y-80824339D01*
X157242194Y-80836067D01*
X157240264Y-80847680D01*
X157237753Y-80859160D01*
X157234646Y-80870493D01*
X157230929Y-80881660D01*
X157226589Y-80892647D01*
X157221613Y-80903436D01*
X157215985Y-80914011D01*
X157209694Y-80924356D01*
X157202725Y-80934454D01*
X157195063Y-80944289D01*
X157186697Y-80953844D01*
X157177611Y-80963104D01*
X157167792Y-80972051D01*
X157108737Y-80902704D01*
X157114049Y-80897302D01*
X157119067Y-80891658D01*
X157123783Y-80885791D01*
X157128192Y-80879723D01*
X157132287Y-80873474D01*
X157136060Y-80867065D01*
X157139506Y-80860516D01*
X157142617Y-80853849D01*
X157145387Y-80847084D01*
X157147810Y-80840241D01*
X157149878Y-80833342D01*
X157151585Y-80826408D01*
X157152924Y-80819457D01*
X157153889Y-80812513D01*
X157154473Y-80805595D01*
X157154669Y-80798723D01*
X157154553Y-80792625D01*
X157154208Y-80786637D01*
X157153632Y-80780764D01*
X157152825Y-80775012D01*
X157151789Y-80769388D01*
X157150523Y-80763895D01*
X157149028Y-80758539D01*
X157147303Y-80753327D01*
X157145348Y-80748262D01*
X157143165Y-80743352D01*
X157140753Y-80738602D01*
X157138112Y-80734016D01*
X157135243Y-80729600D01*
X157132146Y-80725360D01*
X157128820Y-80721302D01*
X157125267Y-80717430D01*
X157121486Y-80713751D01*
X157117477Y-80710269D01*
X157113241Y-80706990D01*
X157108777Y-80703920D01*
X157104087Y-80701064D01*
X157099170Y-80698428D01*
X157094026Y-80696017D01*
X157088656Y-80693837D01*
X157083059Y-80691892D01*
X157077237Y-80690189D01*
X157071188Y-80688733D01*
X157064914Y-80687529D01*
X157058414Y-80686584D01*
X157051689Y-80685901D01*
X157044739Y-80685488D01*
X157037564Y-80685349D01*
X157037564Y-80981391D01*
X156958797Y-80981391D01*
X156947423Y-80981128D01*
X156936319Y-80980345D01*
X156925490Y-80979059D01*
X156914942Y-80977282D01*
X156904682Y-80975030D01*
X156894716Y-80972315D01*
X156885049Y-80969152D01*
X156875688Y-80965555D01*
X156866638Y-80961539D01*
X156857906Y-80957116D01*
X156849498Y-80952302D01*
X156841419Y-80947110D01*
X156833676Y-80941554D01*
X156826274Y-80935649D01*
X156819220Y-80929408D01*
X156812519Y-80922846D01*
X156806178Y-80915976D01*
X156800203Y-80908813D01*
X156794599Y-80901370D01*
X156789373Y-80893663D01*
X156784530Y-80885704D01*
X156780077Y-80877508D01*
X156776020Y-80869089D01*
X156772364Y-80860461D01*
X156769116Y-80851638D01*
X156766281Y-80842634D01*
X156763867Y-80833464D01*
X156761877Y-80824140D01*
X156760319Y-80814678D01*
X156759199Y-80805091D01*
X156758523Y-80795394D01*
X156758296Y-80785600D01*
X156848228Y-80785600D01*
X156848341Y-80790826D01*
X156848677Y-80795961D01*
X156849238Y-80800999D01*
X156850021Y-80805936D01*
X156851026Y-80810768D01*
X156852251Y-80815491D01*
X156853697Y-80820101D01*
X156855362Y-80824593D01*
X156857246Y-80828962D01*
X156859346Y-80833205D01*
X156861664Y-80837318D01*
X156864197Y-80841295D01*
X156866945Y-80845133D01*
X156869907Y-80848827D01*
X156873082Y-80852373D01*
X156876469Y-80855767D01*
X156880068Y-80859005D01*
X156883877Y-80862081D01*
X156887896Y-80864993D01*
X156892123Y-80867734D01*
X156896559Y-80870302D01*
X156901201Y-80872692D01*
X156906050Y-80874900D01*
X156911104Y-80876921D01*
X156916363Y-80878751D01*
X156921825Y-80880385D01*
X156927490Y-80881820D01*
X156933356Y-80883051D01*
X156939424Y-80884074D01*
X156945691Y-80884884D01*
X156952158Y-80885478D01*
X156958824Y-80885850D01*
X156958824Y-80685349D01*
X156952158Y-80685640D01*
X156945691Y-80686163D01*
X156939424Y-80686912D01*
X156933356Y-80687883D01*
X156927489Y-80689070D01*
X156921825Y-80690471D01*
X156916363Y-80692078D01*
X156911104Y-80693888D01*
X156906050Y-80695896D01*
X156901201Y-80698097D01*
X156896559Y-80700486D01*
X156892123Y-80703058D01*
X156887896Y-80705809D01*
X156883877Y-80708734D01*
X156880068Y-80711827D01*
X156876469Y-80715085D01*
X156873082Y-80718502D01*
X156869907Y-80722073D01*
X156866945Y-80725794D01*
X156864197Y-80729660D01*
X156861664Y-80733666D01*
X156859346Y-80737808D01*
X156857246Y-80742079D01*
X156855362Y-80746477D01*
X156853697Y-80750995D01*
X156852251Y-80755629D01*
X156851026Y-80760374D01*
X156850021Y-80765226D01*
X156849238Y-80770179D01*
X156848677Y-80775229D01*
X156848341Y-80780371D01*
X156848228Y-80785600D01*
X156758296Y-80785600D01*
X156759015Y-80768266D01*
X156761233Y-80750817D01*
X156762934Y-80742103D01*
X156765046Y-80733424D01*
X156767580Y-80724801D01*
X156770548Y-80716256D01*
X156773962Y-80707809D01*
X156777834Y-80699483D01*
X156782176Y-80691298D01*
X156787000Y-80683276D01*
X156792316Y-80675437D01*
X156798138Y-80667804D01*
X156804477Y-80660398D01*
X156811345Y-80653239D01*
X156818754Y-80646349D01*
X156826715Y-80639750D01*
X156835241Y-80633462D01*
X156844343Y-80627507D01*
X156854033Y-80621906D01*
X156864323Y-80616681D01*
X156875225Y-80611852D01*
X156886750Y-80607442D01*
X156898911Y-80603470D01*
X156911719Y-80599959D01*
X156925186Y-80596930D01*
X156939325Y-80594404D01*
X156954146Y-80592402D01*
X156958824Y-80591963D01*
X156969661Y-80590946D01*
X156985884Y-80590057D01*
X157002824Y-80589755D01*
X157020667Y-80590084D01*
G37*
D11*
X155094640Y-81686755D02*
X155094640Y-81972469D01*
X155594640Y-81829612D02*
X155094640Y-81829612D01*
X155594640Y-82139135D02*
X155094640Y-82139135D01*
X155594640Y-82353421D02*
X155332735Y-82353421D01*
X155332735Y-82353421D02*
X155285116Y-82329611D01*
X155285116Y-82329611D02*
X155261307Y-82281992D01*
X155261307Y-82281992D02*
X155261307Y-82210564D01*
X155261307Y-82210564D02*
X155285116Y-82162945D01*
X155285116Y-82162945D02*
X155308926Y-82139135D01*
X155570831Y-82781992D02*
X155594640Y-82734373D01*
X155594640Y-82734373D02*
X155594640Y-82639135D01*
X155594640Y-82639135D02*
X155570831Y-82591516D01*
X155570831Y-82591516D02*
X155523211Y-82567707D01*
X155523211Y-82567707D02*
X155332735Y-82567707D01*
X155332735Y-82567707D02*
X155285116Y-82591516D01*
X155285116Y-82591516D02*
X155261307Y-82639135D01*
X155261307Y-82639135D02*
X155261307Y-82734373D01*
X155261307Y-82734373D02*
X155285116Y-82781992D01*
X155285116Y-82781992D02*
X155332735Y-82805802D01*
X155332735Y-82805802D02*
X155380354Y-82805802D01*
X155380354Y-82805802D02*
X155427973Y-82567707D01*
X155094640Y-83329611D02*
X155094640Y-83615325D01*
X155594640Y-83472468D02*
X155094640Y-83472468D01*
X155451783Y-83758182D02*
X155451783Y-83996277D01*
X155594640Y-83710563D02*
X155094640Y-83877229D01*
X155094640Y-83877229D02*
X155594640Y-84043896D01*
X155594640Y-84210562D02*
X155094640Y-84210562D01*
X155094640Y-84210562D02*
X155094640Y-84401038D01*
X155094640Y-84401038D02*
X155118450Y-84448657D01*
X155118450Y-84448657D02*
X155142259Y-84472467D01*
X155142259Y-84472467D02*
X155189878Y-84496276D01*
X155189878Y-84496276D02*
X155261307Y-84496276D01*
X155261307Y-84496276D02*
X155308926Y-84472467D01*
X155308926Y-84472467D02*
X155332735Y-84448657D01*
X155332735Y-84448657D02*
X155356545Y-84401038D01*
X155356545Y-84401038D02*
X155356545Y-84210562D01*
X155594640Y-84996276D02*
X155356545Y-84829610D01*
X155594640Y-84710562D02*
X155094640Y-84710562D01*
X155094640Y-84710562D02*
X155094640Y-84901038D01*
X155094640Y-84901038D02*
X155118450Y-84948657D01*
X155118450Y-84948657D02*
X155142259Y-84972467D01*
X155142259Y-84972467D02*
X155189878Y-84996276D01*
X155189878Y-84996276D02*
X155261307Y-84996276D01*
X155261307Y-84996276D02*
X155308926Y-84972467D01*
X155308926Y-84972467D02*
X155332735Y-84948657D01*
X155332735Y-84948657D02*
X155356545Y-84901038D01*
X155356545Y-84901038D02*
X155356545Y-84710562D01*
X155094640Y-85686752D02*
X155094640Y-85781990D01*
X155094640Y-85781990D02*
X155118450Y-85829609D01*
X155118450Y-85829609D02*
X155166069Y-85877228D01*
X155166069Y-85877228D02*
X155261307Y-85901038D01*
X155261307Y-85901038D02*
X155427973Y-85901038D01*
X155427973Y-85901038D02*
X155523211Y-85877228D01*
X155523211Y-85877228D02*
X155570831Y-85829609D01*
X155570831Y-85829609D02*
X155594640Y-85781990D01*
X155594640Y-85781990D02*
X155594640Y-85686752D01*
X155594640Y-85686752D02*
X155570831Y-85639133D01*
X155570831Y-85639133D02*
X155523211Y-85591514D01*
X155523211Y-85591514D02*
X155427973Y-85567705D01*
X155427973Y-85567705D02*
X155261307Y-85567705D01*
X155261307Y-85567705D02*
X155166069Y-85591514D01*
X155166069Y-85591514D02*
X155118450Y-85639133D01*
X155118450Y-85639133D02*
X155094640Y-85686752D01*
X155261307Y-86115324D02*
X155761307Y-86115324D01*
X155285116Y-86115324D02*
X155261307Y-86162943D01*
X155261307Y-86162943D02*
X155261307Y-86258181D01*
X155261307Y-86258181D02*
X155285116Y-86305800D01*
X155285116Y-86305800D02*
X155308926Y-86329610D01*
X155308926Y-86329610D02*
X155356545Y-86353419D01*
X155356545Y-86353419D02*
X155499402Y-86353419D01*
X155499402Y-86353419D02*
X155547021Y-86329610D01*
X155547021Y-86329610D02*
X155570831Y-86305800D01*
X155570831Y-86305800D02*
X155594640Y-86258181D01*
X155594640Y-86258181D02*
X155594640Y-86162943D01*
X155594640Y-86162943D02*
X155570831Y-86115324D01*
X155570831Y-86758181D02*
X155594640Y-86710562D01*
X155594640Y-86710562D02*
X155594640Y-86615324D01*
X155594640Y-86615324D02*
X155570831Y-86567705D01*
X155570831Y-86567705D02*
X155523211Y-86543896D01*
X155523211Y-86543896D02*
X155332735Y-86543896D01*
X155332735Y-86543896D02*
X155285116Y-86567705D01*
X155285116Y-86567705D02*
X155261307Y-86615324D01*
X155261307Y-86615324D02*
X155261307Y-86710562D01*
X155261307Y-86710562D02*
X155285116Y-86758181D01*
X155285116Y-86758181D02*
X155332735Y-86781991D01*
X155332735Y-86781991D02*
X155380354Y-86781991D01*
X155380354Y-86781991D02*
X155427973Y-86543896D01*
X155261307Y-86996276D02*
X155594640Y-86996276D01*
X155308926Y-86996276D02*
X155285116Y-87020086D01*
X155285116Y-87020086D02*
X155261307Y-87067705D01*
X155261307Y-87067705D02*
X155261307Y-87139133D01*
X155261307Y-87139133D02*
X155285116Y-87186752D01*
X155285116Y-87186752D02*
X155332735Y-87210562D01*
X155332735Y-87210562D02*
X155594640Y-87210562D01*
X156399612Y-81758183D02*
X155899612Y-81758183D01*
X156137707Y-81758183D02*
X156137707Y-82043897D01*
X156399612Y-82043897D02*
X155899612Y-82043897D01*
X156399612Y-82496279D02*
X156137707Y-82496279D01*
X156137707Y-82496279D02*
X156090088Y-82472469D01*
X156090088Y-82472469D02*
X156066279Y-82424850D01*
X156066279Y-82424850D02*
X156066279Y-82329612D01*
X156066279Y-82329612D02*
X156090088Y-82281993D01*
X156375803Y-82496279D02*
X156399612Y-82448660D01*
X156399612Y-82448660D02*
X156399612Y-82329612D01*
X156399612Y-82329612D02*
X156375803Y-82281993D01*
X156375803Y-82281993D02*
X156328183Y-82258184D01*
X156328183Y-82258184D02*
X156280564Y-82258184D01*
X156280564Y-82258184D02*
X156232945Y-82281993D01*
X156232945Y-82281993D02*
X156209136Y-82329612D01*
X156209136Y-82329612D02*
X156209136Y-82448660D01*
X156209136Y-82448660D02*
X156185326Y-82496279D01*
X156399612Y-82734374D02*
X156066279Y-82734374D01*
X156161517Y-82734374D02*
X156113898Y-82758184D01*
X156113898Y-82758184D02*
X156090088Y-82781993D01*
X156090088Y-82781993D02*
X156066279Y-82829612D01*
X156066279Y-82829612D02*
X156066279Y-82877231D01*
X156399612Y-83258184D02*
X155899612Y-83258184D01*
X156375803Y-83258184D02*
X156399612Y-83210565D01*
X156399612Y-83210565D02*
X156399612Y-83115327D01*
X156399612Y-83115327D02*
X156375803Y-83067708D01*
X156375803Y-83067708D02*
X156351993Y-83043898D01*
X156351993Y-83043898D02*
X156304374Y-83020089D01*
X156304374Y-83020089D02*
X156161517Y-83020089D01*
X156161517Y-83020089D02*
X156113898Y-83043898D01*
X156113898Y-83043898D02*
X156090088Y-83067708D01*
X156090088Y-83067708D02*
X156066279Y-83115327D01*
X156066279Y-83115327D02*
X156066279Y-83210565D01*
X156066279Y-83210565D02*
X156090088Y-83258184D01*
X156066279Y-83448660D02*
X156399612Y-83543898D01*
X156399612Y-83543898D02*
X156161517Y-83639136D01*
X156161517Y-83639136D02*
X156399612Y-83734374D01*
X156399612Y-83734374D02*
X156066279Y-83829612D01*
X156399612Y-84234375D02*
X156137707Y-84234375D01*
X156137707Y-84234375D02*
X156090088Y-84210565D01*
X156090088Y-84210565D02*
X156066279Y-84162946D01*
X156066279Y-84162946D02*
X156066279Y-84067708D01*
X156066279Y-84067708D02*
X156090088Y-84020089D01*
X156375803Y-84234375D02*
X156399612Y-84186756D01*
X156399612Y-84186756D02*
X156399612Y-84067708D01*
X156399612Y-84067708D02*
X156375803Y-84020089D01*
X156375803Y-84020089D02*
X156328183Y-83996280D01*
X156328183Y-83996280D02*
X156280564Y-83996280D01*
X156280564Y-83996280D02*
X156232945Y-84020089D01*
X156232945Y-84020089D02*
X156209136Y-84067708D01*
X156209136Y-84067708D02*
X156209136Y-84186756D01*
X156209136Y-84186756D02*
X156185326Y-84234375D01*
X156399612Y-84472470D02*
X156066279Y-84472470D01*
X156161517Y-84472470D02*
X156113898Y-84496280D01*
X156113898Y-84496280D02*
X156090088Y-84520089D01*
X156090088Y-84520089D02*
X156066279Y-84567708D01*
X156066279Y-84567708D02*
X156066279Y-84615327D01*
X156375803Y-84972470D02*
X156399612Y-84924851D01*
X156399612Y-84924851D02*
X156399612Y-84829613D01*
X156399612Y-84829613D02*
X156375803Y-84781994D01*
X156375803Y-84781994D02*
X156328183Y-84758185D01*
X156328183Y-84758185D02*
X156137707Y-84758185D01*
X156137707Y-84758185D02*
X156090088Y-84781994D01*
X156090088Y-84781994D02*
X156066279Y-84829613D01*
X156066279Y-84829613D02*
X156066279Y-84924851D01*
X156066279Y-84924851D02*
X156090088Y-84972470D01*
X156090088Y-84972470D02*
X156137707Y-84996280D01*
X156137707Y-84996280D02*
X156185326Y-84996280D01*
X156185326Y-84996280D02*
X156232945Y-84758185D01*
X156399612Y-85829612D02*
X156399612Y-85591517D01*
X156399612Y-85591517D02*
X155899612Y-85591517D01*
X156399612Y-85996279D02*
X156066279Y-85996279D01*
X155899612Y-85996279D02*
X155923422Y-85972470D01*
X155923422Y-85972470D02*
X155947231Y-85996279D01*
X155947231Y-85996279D02*
X155923422Y-86020089D01*
X155923422Y-86020089D02*
X155899612Y-85996279D01*
X155899612Y-85996279D02*
X155947231Y-85996279D01*
X156375803Y-86448660D02*
X156399612Y-86401041D01*
X156399612Y-86401041D02*
X156399612Y-86305803D01*
X156399612Y-86305803D02*
X156375803Y-86258184D01*
X156375803Y-86258184D02*
X156351993Y-86234374D01*
X156351993Y-86234374D02*
X156304374Y-86210565D01*
X156304374Y-86210565D02*
X156161517Y-86210565D01*
X156161517Y-86210565D02*
X156113898Y-86234374D01*
X156113898Y-86234374D02*
X156090088Y-86258184D01*
X156090088Y-86258184D02*
X156066279Y-86305803D01*
X156066279Y-86305803D02*
X156066279Y-86401041D01*
X156066279Y-86401041D02*
X156090088Y-86448660D01*
X156375803Y-86853421D02*
X156399612Y-86805802D01*
X156399612Y-86805802D02*
X156399612Y-86710564D01*
X156399612Y-86710564D02*
X156375803Y-86662945D01*
X156375803Y-86662945D02*
X156328183Y-86639136D01*
X156328183Y-86639136D02*
X156137707Y-86639136D01*
X156137707Y-86639136D02*
X156090088Y-86662945D01*
X156090088Y-86662945D02*
X156066279Y-86710564D01*
X156066279Y-86710564D02*
X156066279Y-86805802D01*
X156066279Y-86805802D02*
X156090088Y-86853421D01*
X156090088Y-86853421D02*
X156137707Y-86877231D01*
X156137707Y-86877231D02*
X156185326Y-86877231D01*
X156185326Y-86877231D02*
X156232945Y-86639136D01*
X156066279Y-87091516D02*
X156399612Y-87091516D01*
X156113898Y-87091516D02*
X156090088Y-87115326D01*
X156090088Y-87115326D02*
X156066279Y-87162945D01*
X156066279Y-87162945D02*
X156066279Y-87234373D01*
X156066279Y-87234373D02*
X156090088Y-87281992D01*
X156090088Y-87281992D02*
X156137707Y-87305802D01*
X156137707Y-87305802D02*
X156399612Y-87305802D01*
X156375803Y-87520088D02*
X156399612Y-87567707D01*
X156399612Y-87567707D02*
X156399612Y-87662945D01*
X156399612Y-87662945D02*
X156375803Y-87710564D01*
X156375803Y-87710564D02*
X156328183Y-87734373D01*
X156328183Y-87734373D02*
X156304374Y-87734373D01*
X156304374Y-87734373D02*
X156256755Y-87710564D01*
X156256755Y-87710564D02*
X156232945Y-87662945D01*
X156232945Y-87662945D02*
X156232945Y-87591516D01*
X156232945Y-87591516D02*
X156209136Y-87543897D01*
X156209136Y-87543897D02*
X156161517Y-87520088D01*
X156161517Y-87520088D02*
X156137707Y-87520088D01*
X156137707Y-87520088D02*
X156090088Y-87543897D01*
X156090088Y-87543897D02*
X156066279Y-87591516D01*
X156066279Y-87591516D02*
X156066279Y-87662945D01*
X156066279Y-87662945D02*
X156090088Y-87710564D01*
X156375803Y-88139135D02*
X156399612Y-88091516D01*
X156399612Y-88091516D02*
X156399612Y-87996278D01*
X156399612Y-87996278D02*
X156375803Y-87948659D01*
X156375803Y-87948659D02*
X156328183Y-87924850D01*
X156328183Y-87924850D02*
X156137707Y-87924850D01*
X156137707Y-87924850D02*
X156090088Y-87948659D01*
X156090088Y-87948659D02*
X156066279Y-87996278D01*
X156066279Y-87996278D02*
X156066279Y-88091516D01*
X156066279Y-88091516D02*
X156090088Y-88139135D01*
X156090088Y-88139135D02*
X156137707Y-88162945D01*
X156137707Y-88162945D02*
X156185326Y-88162945D01*
X156185326Y-88162945D02*
X156232945Y-87924850D01*
X157204584Y-81758183D02*
X156704584Y-81758183D01*
X157204584Y-81972469D02*
X156942679Y-81972469D01*
X156942679Y-81972469D02*
X156895060Y-81948659D01*
X156895060Y-81948659D02*
X156871251Y-81901040D01*
X156871251Y-81901040D02*
X156871251Y-81829612D01*
X156871251Y-81829612D02*
X156895060Y-81781993D01*
X156895060Y-81781993D02*
X156918870Y-81758183D01*
X156871251Y-82139136D02*
X156871251Y-82329612D01*
X156704584Y-82210564D02*
X157133155Y-82210564D01*
X157133155Y-82210564D02*
X157180775Y-82234374D01*
X157180775Y-82234374D02*
X157204584Y-82281993D01*
X157204584Y-82281993D02*
X157204584Y-82329612D01*
X156871251Y-82424850D02*
X156871251Y-82615326D01*
X156704584Y-82496278D02*
X157133155Y-82496278D01*
X157133155Y-82496278D02*
X157180775Y-82520088D01*
X157180775Y-82520088D02*
X157204584Y-82567707D01*
X157204584Y-82567707D02*
X157204584Y-82615326D01*
X156871251Y-82781992D02*
X157371251Y-82781992D01*
X156895060Y-82781992D02*
X156871251Y-82829611D01*
X156871251Y-82829611D02*
X156871251Y-82924849D01*
X156871251Y-82924849D02*
X156895060Y-82972468D01*
X156895060Y-82972468D02*
X156918870Y-82996278D01*
X156918870Y-82996278D02*
X156966489Y-83020087D01*
X156966489Y-83020087D02*
X157109346Y-83020087D01*
X157109346Y-83020087D02*
X157156965Y-82996278D01*
X157156965Y-82996278D02*
X157180775Y-82972468D01*
X157180775Y-82972468D02*
X157204584Y-82924849D01*
X157204584Y-82924849D02*
X157204584Y-82829611D01*
X157204584Y-82829611D02*
X157180775Y-82781992D01*
X157156965Y-83234373D02*
X157180775Y-83258183D01*
X157180775Y-83258183D02*
X157204584Y-83234373D01*
X157204584Y-83234373D02*
X157180775Y-83210564D01*
X157180775Y-83210564D02*
X157156965Y-83234373D01*
X157156965Y-83234373D02*
X157204584Y-83234373D01*
X156895060Y-83234373D02*
X156918870Y-83258183D01*
X156918870Y-83258183D02*
X156942679Y-83234373D01*
X156942679Y-83234373D02*
X156918870Y-83210564D01*
X156918870Y-83210564D02*
X156895060Y-83234373D01*
X156895060Y-83234373D02*
X156942679Y-83234373D01*
X156680775Y-83829611D02*
X157323632Y-83401040D01*
X156680775Y-84353421D02*
X157323632Y-83924850D01*
X156871251Y-84472469D02*
X157204584Y-84567707D01*
X157204584Y-84567707D02*
X156966489Y-84662945D01*
X156966489Y-84662945D02*
X157204584Y-84758183D01*
X157204584Y-84758183D02*
X156871251Y-84853421D01*
X156871251Y-84996279D02*
X157204584Y-85091517D01*
X157204584Y-85091517D02*
X156966489Y-85186755D01*
X156966489Y-85186755D02*
X157204584Y-85281993D01*
X157204584Y-85281993D02*
X156871251Y-85377231D01*
X156871251Y-85520089D02*
X157204584Y-85615327D01*
X157204584Y-85615327D02*
X156966489Y-85710565D01*
X156966489Y-85710565D02*
X157204584Y-85805803D01*
X157204584Y-85805803D02*
X156871251Y-85901041D01*
X157156965Y-86091518D02*
X157180775Y-86115328D01*
X157180775Y-86115328D02*
X157204584Y-86091518D01*
X157204584Y-86091518D02*
X157180775Y-86067709D01*
X157180775Y-86067709D02*
X157156965Y-86091518D01*
X157156965Y-86091518D02*
X157204584Y-86091518D01*
X156871251Y-86258185D02*
X156871251Y-86448661D01*
X156704584Y-86329613D02*
X157133155Y-86329613D01*
X157133155Y-86329613D02*
X157180775Y-86353423D01*
X157180775Y-86353423D02*
X157204584Y-86401042D01*
X157204584Y-86401042D02*
X157204584Y-86448661D01*
X157204584Y-86829613D02*
X156942679Y-86829613D01*
X156942679Y-86829613D02*
X156895060Y-86805803D01*
X156895060Y-86805803D02*
X156871251Y-86758184D01*
X156871251Y-86758184D02*
X156871251Y-86662946D01*
X156871251Y-86662946D02*
X156895060Y-86615327D01*
X157180775Y-86829613D02*
X157204584Y-86781994D01*
X157204584Y-86781994D02*
X157204584Y-86662946D01*
X157204584Y-86662946D02*
X157180775Y-86615327D01*
X157180775Y-86615327D02*
X157133155Y-86591518D01*
X157133155Y-86591518D02*
X157085536Y-86591518D01*
X157085536Y-86591518D02*
X157037917Y-86615327D01*
X157037917Y-86615327D02*
X157014108Y-86662946D01*
X157014108Y-86662946D02*
X157014108Y-86781994D01*
X157014108Y-86781994D02*
X156990298Y-86829613D01*
X156871251Y-87067708D02*
X157371251Y-87067708D01*
X156895060Y-87067708D02*
X156871251Y-87115327D01*
X156871251Y-87115327D02*
X156871251Y-87210565D01*
X156871251Y-87210565D02*
X156895060Y-87258184D01*
X156895060Y-87258184D02*
X156918870Y-87281994D01*
X156918870Y-87281994D02*
X156966489Y-87305803D01*
X156966489Y-87305803D02*
X157109346Y-87305803D01*
X157109346Y-87305803D02*
X157156965Y-87281994D01*
X157156965Y-87281994D02*
X157180775Y-87258184D01*
X157180775Y-87258184D02*
X157204584Y-87210565D01*
X157204584Y-87210565D02*
X157204584Y-87115327D01*
X157204584Y-87115327D02*
X157180775Y-87067708D01*
X157204584Y-87520089D02*
X156871251Y-87520089D01*
X156966489Y-87520089D02*
X156918870Y-87543899D01*
X156918870Y-87543899D02*
X156895060Y-87567708D01*
X156895060Y-87567708D02*
X156871251Y-87615327D01*
X156871251Y-87615327D02*
X156871251Y-87662946D01*
X157156965Y-87829613D02*
X157180775Y-87853423D01*
X157180775Y-87853423D02*
X157204584Y-87829613D01*
X157204584Y-87829613D02*
X157180775Y-87805804D01*
X157180775Y-87805804D02*
X157156965Y-87829613D01*
X157156965Y-87829613D02*
X157204584Y-87829613D01*
X157204584Y-88139137D02*
X157180775Y-88091518D01*
X157180775Y-88091518D02*
X157156965Y-88067708D01*
X157156965Y-88067708D02*
X157109346Y-88043899D01*
X157109346Y-88043899D02*
X156966489Y-88043899D01*
X156966489Y-88043899D02*
X156918870Y-88067708D01*
X156918870Y-88067708D02*
X156895060Y-88091518D01*
X156895060Y-88091518D02*
X156871251Y-88139137D01*
X156871251Y-88139137D02*
X156871251Y-88210565D01*
X156871251Y-88210565D02*
X156895060Y-88258184D01*
X156895060Y-88258184D02*
X156918870Y-88281994D01*
X156918870Y-88281994D02*
X156966489Y-88305803D01*
X156966489Y-88305803D02*
X157109346Y-88305803D01*
X157109346Y-88305803D02*
X157156965Y-88281994D01*
X157156965Y-88281994D02*
X157180775Y-88258184D01*
X157180775Y-88258184D02*
X157204584Y-88210565D01*
X157204584Y-88210565D02*
X157204584Y-88139137D01*
X157204584Y-88520089D02*
X156871251Y-88520089D01*
X156966489Y-88520089D02*
X156918870Y-88543899D01*
X156918870Y-88543899D02*
X156895060Y-88567708D01*
X156895060Y-88567708D02*
X156871251Y-88615327D01*
X156871251Y-88615327D02*
X156871251Y-88662946D01*
X156871251Y-89043899D02*
X157276013Y-89043899D01*
X157276013Y-89043899D02*
X157323632Y-89020089D01*
X157323632Y-89020089D02*
X157347441Y-88996280D01*
X157347441Y-88996280D02*
X157371251Y-88948661D01*
X157371251Y-88948661D02*
X157371251Y-88877232D01*
X157371251Y-88877232D02*
X157347441Y-88829613D01*
X157180775Y-89043899D02*
X157204584Y-88996280D01*
X157204584Y-88996280D02*
X157204584Y-88901042D01*
X157204584Y-88901042D02*
X157180775Y-88853423D01*
X157180775Y-88853423D02*
X157156965Y-88829613D01*
X157156965Y-88829613D02*
X157109346Y-88805804D01*
X157109346Y-88805804D02*
X156966489Y-88805804D01*
X156966489Y-88805804D02*
X156918870Y-88829613D01*
X156918870Y-88829613D02*
X156895060Y-88853423D01*
X156895060Y-88853423D02*
X156871251Y-88901042D01*
X156871251Y-88901042D02*
X156871251Y-88996280D01*
X156871251Y-88996280D02*
X156895060Y-89043899D01*
X156680775Y-89639137D02*
X157323632Y-89210566D01*
X156704584Y-89901042D02*
X156704584Y-89996280D01*
X156704584Y-89996280D02*
X156728394Y-90043899D01*
X156728394Y-90043899D02*
X156776013Y-90091518D01*
X156776013Y-90091518D02*
X156871251Y-90115328D01*
X156871251Y-90115328D02*
X157037917Y-90115328D01*
X157037917Y-90115328D02*
X157133155Y-90091518D01*
X157133155Y-90091518D02*
X157180775Y-90043899D01*
X157180775Y-90043899D02*
X157204584Y-89996280D01*
X157204584Y-89996280D02*
X157204584Y-89901042D01*
X157204584Y-89901042D02*
X157180775Y-89853423D01*
X157180775Y-89853423D02*
X157133155Y-89805804D01*
X157133155Y-89805804D02*
X157037917Y-89781995D01*
X157037917Y-89781995D02*
X156871251Y-89781995D01*
X156871251Y-89781995D02*
X156776013Y-89805804D01*
X156776013Y-89805804D02*
X156728394Y-89853423D01*
X156728394Y-89853423D02*
X156704584Y-89901042D01*
X157204584Y-90329614D02*
X156704584Y-90329614D01*
X156942679Y-90329614D02*
X156942679Y-90615328D01*
X157204584Y-90615328D02*
X156704584Y-90615328D01*
X157204584Y-91091519D02*
X157204584Y-90853424D01*
X157204584Y-90853424D02*
X156704584Y-90853424D01*
D12*
X158545465Y-42403339D02*
X158545465Y-42939053D01*
X158545465Y-42939053D02*
X158581180Y-43046196D01*
X158581180Y-43046196D02*
X158652608Y-43117625D01*
X158652608Y-43117625D02*
X158759751Y-43153339D01*
X158759751Y-43153339D02*
X158831180Y-43153339D01*
X157866894Y-43153339D02*
X157866894Y-42760482D01*
X157866894Y-42760482D02*
X157902608Y-42689053D01*
X157902608Y-42689053D02*
X157974036Y-42653339D01*
X157974036Y-42653339D02*
X158116894Y-42653339D01*
X158116894Y-42653339D02*
X158188322Y-42689053D01*
X157866894Y-43117625D02*
X157938322Y-43153339D01*
X157938322Y-43153339D02*
X158116894Y-43153339D01*
X158116894Y-43153339D02*
X158188322Y-43117625D01*
X158188322Y-43117625D02*
X158224036Y-43046196D01*
X158224036Y-43046196D02*
X158224036Y-42974767D01*
X158224036Y-42974767D02*
X158188322Y-42903339D01*
X158188322Y-42903339D02*
X158116894Y-42867625D01*
X158116894Y-42867625D02*
X157938322Y-42867625D01*
X157938322Y-42867625D02*
X157866894Y-42831910D01*
X157545465Y-43117625D02*
X157474037Y-43153339D01*
X157474037Y-43153339D02*
X157331180Y-43153339D01*
X157331180Y-43153339D02*
X157259751Y-43117625D01*
X157259751Y-43117625D02*
X157224037Y-43046196D01*
X157224037Y-43046196D02*
X157224037Y-43010482D01*
X157224037Y-43010482D02*
X157259751Y-42939053D01*
X157259751Y-42939053D02*
X157331180Y-42903339D01*
X157331180Y-42903339D02*
X157438323Y-42903339D01*
X157438323Y-42903339D02*
X157509751Y-42867625D01*
X157509751Y-42867625D02*
X157545465Y-42796196D01*
X157545465Y-42796196D02*
X157545465Y-42760482D01*
X157545465Y-42760482D02*
X157509751Y-42689053D01*
X157509751Y-42689053D02*
X157438323Y-42653339D01*
X157438323Y-42653339D02*
X157331180Y-42653339D01*
X157331180Y-42653339D02*
X157259751Y-42689053D01*
X156795465Y-43153339D02*
X156866894Y-43117625D01*
X156866894Y-43117625D02*
X156902608Y-43081910D01*
X156902608Y-43081910D02*
X156938322Y-43010482D01*
X156938322Y-43010482D02*
X156938322Y-42796196D01*
X156938322Y-42796196D02*
X156902608Y-42724767D01*
X156902608Y-42724767D02*
X156866894Y-42689053D01*
X156866894Y-42689053D02*
X156795465Y-42653339D01*
X156795465Y-42653339D02*
X156688322Y-42653339D01*
X156688322Y-42653339D02*
X156616894Y-42689053D01*
X156616894Y-42689053D02*
X156581180Y-42724767D01*
X156581180Y-42724767D02*
X156545465Y-42796196D01*
X156545465Y-42796196D02*
X156545465Y-43010482D01*
X156545465Y-43010482D02*
X156581180Y-43081910D01*
X156581180Y-43081910D02*
X156616894Y-43117625D01*
X156616894Y-43117625D02*
X156688322Y-43153339D01*
X156688322Y-43153339D02*
X156795465Y-43153339D01*
X156224037Y-42653339D02*
X156224037Y-43153339D01*
X156224037Y-42724767D02*
X156188323Y-42689053D01*
X156188323Y-42689053D02*
X156116894Y-42653339D01*
X156116894Y-42653339D02*
X156009751Y-42653339D01*
X156009751Y-42653339D02*
X155938323Y-42689053D01*
X155938323Y-42689053D02*
X155902609Y-42760482D01*
X155902609Y-42760482D02*
X155902609Y-43153339D01*
X155009751Y-42939053D02*
X154652609Y-42939053D01*
X155081180Y-43153339D02*
X154831180Y-42403339D01*
X154831180Y-42403339D02*
X154581180Y-43153339D01*
X154224037Y-43153339D02*
X154295466Y-43117625D01*
X154295466Y-43117625D02*
X154331180Y-43046196D01*
X154331180Y-43046196D02*
X154331180Y-42403339D01*
X153652609Y-43117625D02*
X153724037Y-43153339D01*
X153724037Y-43153339D02*
X153866895Y-43153339D01*
X153866895Y-43153339D02*
X153938323Y-43117625D01*
X153938323Y-43117625D02*
X153974037Y-43046196D01*
X153974037Y-43046196D02*
X153974037Y-42760482D01*
X153974037Y-42760482D02*
X153938323Y-42689053D01*
X153938323Y-42689053D02*
X153866895Y-42653339D01*
X153866895Y-42653339D02*
X153724037Y-42653339D01*
X153724037Y-42653339D02*
X153652609Y-42689053D01*
X153652609Y-42689053D02*
X153616895Y-42760482D01*
X153616895Y-42760482D02*
X153616895Y-42831910D01*
X153616895Y-42831910D02*
X153974037Y-42903339D01*
X153366895Y-43153339D02*
X152974038Y-42653339D01*
X153366895Y-42653339D02*
X152974038Y-43153339D01*
X152366895Y-43153339D02*
X152366895Y-42760482D01*
X152366895Y-42760482D02*
X152402609Y-42689053D01*
X152402609Y-42689053D02*
X152474037Y-42653339D01*
X152474037Y-42653339D02*
X152616895Y-42653339D01*
X152616895Y-42653339D02*
X152688323Y-42689053D01*
X152366895Y-43117625D02*
X152438323Y-43153339D01*
X152438323Y-43153339D02*
X152616895Y-43153339D01*
X152616895Y-43153339D02*
X152688323Y-43117625D01*
X152688323Y-43117625D02*
X152724037Y-43046196D01*
X152724037Y-43046196D02*
X152724037Y-42974767D01*
X152724037Y-42974767D02*
X152688323Y-42903339D01*
X152688323Y-42903339D02*
X152616895Y-42867625D01*
X152616895Y-42867625D02*
X152438323Y-42867625D01*
X152438323Y-42867625D02*
X152366895Y-42831910D01*
X152009752Y-42653339D02*
X152009752Y-43153339D01*
X152009752Y-42724767D02*
X151974038Y-42689053D01*
X151974038Y-42689053D02*
X151902609Y-42653339D01*
X151902609Y-42653339D02*
X151795466Y-42653339D01*
X151795466Y-42653339D02*
X151724038Y-42689053D01*
X151724038Y-42689053D02*
X151688324Y-42760482D01*
X151688324Y-42760482D02*
X151688324Y-43153339D01*
X151009753Y-43153339D02*
X151009753Y-42403339D01*
X151009753Y-43117625D02*
X151081181Y-43153339D01*
X151081181Y-43153339D02*
X151224038Y-43153339D01*
X151224038Y-43153339D02*
X151295467Y-43117625D01*
X151295467Y-43117625D02*
X151331181Y-43081910D01*
X151331181Y-43081910D02*
X151366895Y-43010482D01*
X151366895Y-43010482D02*
X151366895Y-42796196D01*
X151366895Y-42796196D02*
X151331181Y-42724767D01*
X151331181Y-42724767D02*
X151295467Y-42689053D01*
X151295467Y-42689053D02*
X151224038Y-42653339D01*
X151224038Y-42653339D02*
X151081181Y-42653339D01*
X151081181Y-42653339D02*
X151009753Y-42689053D01*
X150366896Y-43117625D02*
X150438324Y-43153339D01*
X150438324Y-43153339D02*
X150581182Y-43153339D01*
X150581182Y-43153339D02*
X150652610Y-43117625D01*
X150652610Y-43117625D02*
X150688324Y-43046196D01*
X150688324Y-43046196D02*
X150688324Y-42760482D01*
X150688324Y-42760482D02*
X150652610Y-42689053D01*
X150652610Y-42689053D02*
X150581182Y-42653339D01*
X150581182Y-42653339D02*
X150438324Y-42653339D01*
X150438324Y-42653339D02*
X150366896Y-42689053D01*
X150366896Y-42689053D02*
X150331182Y-42760482D01*
X150331182Y-42760482D02*
X150331182Y-42831910D01*
X150331182Y-42831910D02*
X150688324Y-42903339D01*
X150009753Y-43153339D02*
X150009753Y-42653339D01*
X150009753Y-42796196D02*
X149974039Y-42724767D01*
X149974039Y-42724767D02*
X149938325Y-42689053D01*
X149938325Y-42689053D02*
X149866896Y-42653339D01*
X149866896Y-42653339D02*
X149795467Y-42653339D01*
D13*
G36*
X158810956Y-41979000D02*
G01*
X158494050Y-41979000D01*
X158494050Y-41439711D01*
X158357397Y-41439711D01*
X158317257Y-41439106D01*
X158241789Y-41434263D01*
X158161850Y-41422492D01*
X158081181Y-41400968D01*
X158011915Y-41370835D01*
X157988716Y-41357534D01*
X157926770Y-41312995D01*
X157871400Y-41255350D01*
X157830198Y-41189118D01*
X157823588Y-41174896D01*
X157796934Y-41101637D01*
X157780941Y-41024801D01*
X157776290Y-40954645D01*
X158096912Y-40954645D01*
X158100681Y-41005097D01*
X158124680Y-41076495D01*
X158175680Y-41132332D01*
X158236413Y-41163411D01*
X158310307Y-41181589D01*
X158388904Y-41186920D01*
X158494050Y-41186920D01*
X158494050Y-40731163D01*
X158348970Y-40731163D01*
X158276356Y-40736619D01*
X158195372Y-40762590D01*
X158138511Y-40809949D01*
X158105773Y-40878696D01*
X158096912Y-40954645D01*
X157776290Y-40954645D01*
X157775610Y-40944387D01*
X157778866Y-40878767D01*
X157791368Y-40806021D01*
X157817805Y-40729420D01*
X157857005Y-40661725D01*
X157908967Y-40602935D01*
X157935346Y-40580674D01*
X158007592Y-40537247D01*
X158081433Y-40509512D01*
X158166273Y-40490536D01*
X158245376Y-40481413D01*
X158332117Y-40478371D01*
X158810956Y-40478371D01*
X158810956Y-41979000D01*
G37*
G36*
X157359787Y-40384582D02*
G01*
X157284277Y-40396077D01*
X157240352Y-40417189D01*
X157196903Y-40479098D01*
X157189794Y-40536990D01*
X157202433Y-40609621D01*
X157240352Y-40656058D01*
X157310534Y-40684709D01*
X157359787Y-40689397D01*
X157433203Y-40678849D01*
X157480687Y-40656058D01*
X157522876Y-40593919D01*
X157529780Y-40536990D01*
X157517506Y-40463259D01*
X157480687Y-40417189D01*
X157410276Y-40389167D01*
X157359787Y-40384582D01*
G37*
G36*
X157204448Y-40830081D02*
G01*
X157204448Y-41979000D01*
X157517323Y-41979000D01*
X157517323Y-40830081D01*
X157204448Y-40830081D01*
G37*
G36*
X156410537Y-42002447D02*
G01*
X156487826Y-41998994D01*
X156573040Y-41985736D01*
X156650036Y-41962535D01*
X156718816Y-41929391D01*
X156779377Y-41886303D01*
X156806577Y-41861030D01*
X156854014Y-41802001D01*
X156891636Y-41731251D01*
X156919444Y-41648781D01*
X156935120Y-41571102D01*
X156943980Y-41485284D01*
X156946161Y-41410769D01*
X156943650Y-41334377D01*
X156934371Y-41252189D01*
X156918255Y-41177469D01*
X156891464Y-41101219D01*
X156874720Y-41066752D01*
X156835542Y-41004448D01*
X156783201Y-40944810D01*
X156722108Y-40896243D01*
X156676517Y-40870015D01*
X156601936Y-40839377D01*
X156530483Y-40820560D01*
X156454176Y-40809667D01*
X156383426Y-40806634D01*
X156306167Y-40809361D01*
X156230081Y-40818557D01*
X156178628Y-40829715D01*
X156106540Y-40851523D01*
X156034458Y-40880398D01*
X156026221Y-40884303D01*
X156118911Y-41131599D01*
X156189894Y-41102931D01*
X156256297Y-41079942D01*
X156328078Y-41063352D01*
X156383426Y-41059425D01*
X156466223Y-41071738D01*
X156531889Y-41108678D01*
X156580425Y-41170245D01*
X156607786Y-41240362D01*
X156623251Y-41327581D01*
X156627058Y-41409669D01*
X156623051Y-41491140D01*
X156608964Y-41569109D01*
X156581415Y-41638747D01*
X156562944Y-41666857D01*
X156507646Y-41717312D01*
X156437923Y-41744481D01*
X156383426Y-41749655D01*
X156306924Y-41745302D01*
X156233194Y-41730876D01*
X156209036Y-41723277D01*
X156139168Y-41694120D01*
X156071070Y-41656108D01*
X156062124Y-41650371D01*
X156062124Y-41918183D01*
X156130710Y-41954794D01*
X156202516Y-41980136D01*
X156212334Y-41982663D01*
X156289040Y-41996187D01*
X156367178Y-42001751D01*
X156410537Y-42002447D01*
G37*
G36*
X155356742Y-40807989D02*
G01*
X155432161Y-40816274D01*
X155515486Y-40836156D01*
X155590980Y-40866884D01*
X155658643Y-40908456D01*
X155718475Y-40960873D01*
X155761431Y-41012320D01*
X155803369Y-41082627D01*
X155834822Y-41162286D01*
X155853023Y-41235811D01*
X155863945Y-41315830D01*
X155867585Y-41402342D01*
X155867306Y-41426157D01*
X155861934Y-41505926D01*
X155849725Y-41580120D01*
X155827399Y-41658087D01*
X155796144Y-41728773D01*
X155772513Y-41769110D01*
X155723395Y-41833829D01*
X155665815Y-41888405D01*
X155599773Y-41932838D01*
X155543468Y-41959961D01*
X155466233Y-41985045D01*
X155393006Y-41998096D01*
X155315474Y-42002447D01*
X155267995Y-42001075D01*
X155193085Y-41992692D01*
X155110160Y-41972574D01*
X155034833Y-41941482D01*
X154967106Y-41899415D01*
X154906978Y-41846376D01*
X154863705Y-41794287D01*
X154821458Y-41723327D01*
X154789774Y-41643144D01*
X154771437Y-41569281D01*
X154760436Y-41489014D01*
X154756769Y-41402342D01*
X155075872Y-41402342D01*
X155076742Y-41443902D01*
X155083703Y-41519189D01*
X155099854Y-41591408D01*
X155131559Y-41661728D01*
X155168274Y-41704232D01*
X155233996Y-41739266D01*
X155311078Y-41749655D01*
X155369696Y-41744160D01*
X155441137Y-41715309D01*
X155492794Y-41661728D01*
X155508837Y-41632211D01*
X155532765Y-41560942D01*
X155545001Y-41482851D01*
X155548482Y-41402342D01*
X155547612Y-41360817D01*
X155540651Y-41285804D01*
X155524499Y-41214223D01*
X155492794Y-41145154D01*
X155456080Y-41103713D01*
X155390358Y-41069555D01*
X155313276Y-41059425D01*
X155254658Y-41064783D01*
X155183217Y-41092913D01*
X155131559Y-41145154D01*
X155115516Y-41174038D01*
X155091588Y-41244363D01*
X155079352Y-41321971D01*
X155075872Y-41402342D01*
X154756769Y-41402342D01*
X154757048Y-41378798D01*
X154762420Y-41299908D01*
X154774629Y-41226487D01*
X154796954Y-41149276D01*
X154828210Y-41079209D01*
X154851814Y-41039197D01*
X154900748Y-40974974D01*
X154957971Y-40920778D01*
X155023482Y-40876609D01*
X155079464Y-40849344D01*
X155156747Y-40824128D01*
X155230455Y-40811007D01*
X155308879Y-40806634D01*
X155356742Y-40807989D01*
G37*
G36*
X154473203Y-41979000D02*
G01*
X154048953Y-41979000D01*
X153978044Y-41977309D01*
X153888147Y-41969796D01*
X153803563Y-41956272D01*
X153724291Y-41936737D01*
X153650331Y-41911192D01*
X153581684Y-41879636D01*
X153518349Y-41842069D01*
X153446650Y-41786658D01*
X153420431Y-41761881D01*
X153362283Y-41693516D01*
X153314707Y-41615973D01*
X153284259Y-41547331D01*
X153260577Y-41472816D01*
X153243661Y-41392427D01*
X153233512Y-41306166D01*
X153230465Y-41223190D01*
X153559856Y-41223190D01*
X153563898Y-41313085D01*
X153576021Y-41394138D01*
X153604758Y-41488453D01*
X153647863Y-41567050D01*
X153705336Y-41629927D01*
X153777178Y-41677085D01*
X153863388Y-41708524D01*
X153937475Y-41721787D01*
X154019644Y-41726208D01*
X154156297Y-41726208D01*
X154156297Y-40731163D01*
X153985938Y-40731163D01*
X153960357Y-40731631D01*
X153876886Y-40740639D01*
X153802848Y-40761113D01*
X153729781Y-40798551D01*
X153669033Y-40850964D01*
X153621268Y-40919153D01*
X153590669Y-40992418D01*
X153572757Y-41065319D01*
X153562522Y-41147545D01*
X153559856Y-41223190D01*
X153230465Y-41223190D01*
X153230129Y-41214031D01*
X153230222Y-41199130D01*
X153234704Y-41112834D01*
X153245910Y-41031870D01*
X153263839Y-40956239D01*
X153288491Y-40885940D01*
X153325750Y-40810664D01*
X153350783Y-40770885D01*
X153400458Y-40707304D01*
X153457602Y-40651403D01*
X153522214Y-40603180D01*
X153594295Y-40562635D01*
X153616198Y-40552431D01*
X153684810Y-40525770D01*
X153757775Y-40505033D01*
X153835093Y-40490221D01*
X153916765Y-40481334D01*
X154002791Y-40478371D01*
X154473203Y-40478371D01*
X154473203Y-41979000D01*
G37*
G36*
X152489858Y-40806748D02*
G01*
X152564777Y-40810755D01*
X152638121Y-40820487D01*
X152709891Y-40835943D01*
X152771773Y-40853701D01*
X152842527Y-40879420D01*
X152913590Y-40912513D01*
X152810642Y-41125737D01*
X152790680Y-41116944D01*
X152720907Y-41089055D01*
X152651273Y-41065653D01*
X152641272Y-41062681D01*
X152565173Y-41046500D01*
X152487142Y-41041107D01*
X152420744Y-41049522D01*
X152355983Y-41085071D01*
X152319107Y-41145662D01*
X152308722Y-41222824D01*
X152308722Y-41275580D01*
X152508391Y-41275580D01*
X152585297Y-41277709D01*
X152669343Y-41285883D01*
X152744399Y-41300189D01*
X152820602Y-41324627D01*
X152892707Y-41362775D01*
X152900574Y-41368320D01*
X152954515Y-41419530D01*
X152992474Y-41482923D01*
X153014450Y-41558497D01*
X153020568Y-41634617D01*
X153017026Y-41702130D01*
X153001284Y-41781207D01*
X152968521Y-41855225D01*
X152919818Y-41913420D01*
X152880195Y-41943675D01*
X152813853Y-41977321D01*
X152739223Y-41996883D01*
X152665928Y-42002447D01*
X152590396Y-41999085D01*
X152511225Y-41985846D01*
X152441346Y-41959949D01*
X152395851Y-41931809D01*
X152337264Y-41881757D01*
X152285642Y-41823295D01*
X152277215Y-41823295D01*
X152216399Y-41979000D01*
X151998046Y-41979000D01*
X151998046Y-41552185D01*
X152308722Y-41552185D01*
X152309804Y-41577195D01*
X152330631Y-41653280D01*
X152377965Y-41711554D01*
X152400382Y-41727807D01*
X152471428Y-41758662D01*
X152548325Y-41767974D01*
X152587795Y-41765111D01*
X152657501Y-41738665D01*
X152681280Y-41713630D01*
X152699267Y-41640113D01*
X152686387Y-41572342D01*
X152640648Y-41511885D01*
X152583478Y-41482192D01*
X152508353Y-41467013D01*
X152430722Y-41463159D01*
X152308722Y-41463159D01*
X152308722Y-41552185D01*
X151998046Y-41552185D01*
X151998046Y-41212932D01*
X151998525Y-41187564D01*
X152007754Y-41105313D01*
X152028729Y-41033230D01*
X152067082Y-40963300D01*
X152120778Y-40906651D01*
X152170615Y-40872661D01*
X152238395Y-40841894D01*
X152316553Y-40820699D01*
X152391807Y-40810150D01*
X152474685Y-40806634D01*
X152489858Y-40806748D01*
G37*
G36*
X151519940Y-40384582D02*
G01*
X151444431Y-40396077D01*
X151400505Y-40417189D01*
X151357057Y-40479098D01*
X151349947Y-40536990D01*
X151362587Y-40609621D01*
X151400505Y-40656058D01*
X151470687Y-40684709D01*
X151519940Y-40689397D01*
X151593356Y-40678849D01*
X151640840Y-40656058D01*
X151683030Y-40593919D01*
X151689933Y-40536990D01*
X151677660Y-40463259D01*
X151640840Y-40417189D01*
X151570430Y-40389167D01*
X151519940Y-40384582D01*
G37*
G36*
X151364602Y-40830081D02*
G01*
X151364602Y-41979000D01*
X151677477Y-41979000D01*
X151677477Y-40830081D01*
X151364602Y-40830081D01*
G37*
G36*
X150236933Y-41639746D02*
G01*
X150244626Y-41722224D01*
X150267707Y-41794535D01*
X150312066Y-41863733D01*
X150360031Y-41908658D01*
X150428953Y-41949690D01*
X150501657Y-41975977D01*
X150585932Y-41993288D01*
X150667376Y-42000981D01*
X150726395Y-42002447D01*
X150804567Y-42000542D01*
X150880860Y-41994119D01*
X150931926Y-41986327D01*
X151007259Y-41968685D01*
X151077212Y-41945397D01*
X151104117Y-41934669D01*
X151104117Y-41672353D01*
X151032813Y-41701393D01*
X150957388Y-41726414D01*
X150904815Y-41740863D01*
X150827912Y-41757383D01*
X150752741Y-41766676D01*
X150715771Y-41767974D01*
X150642124Y-41762017D01*
X150585711Y-41740863D01*
X150546129Y-41677219D01*
X150545778Y-41669055D01*
X150561531Y-41616665D01*
X150620174Y-41569353D01*
X150629675Y-41563909D01*
X150696811Y-41530295D01*
X150766518Y-41499434D01*
X150793440Y-41488071D01*
X150863693Y-41456465D01*
X150929373Y-41422281D01*
X150971127Y-41396847D01*
X151030661Y-41346746D01*
X151072976Y-41287304D01*
X151097980Y-41215038D01*
X151106185Y-41138432D01*
X151106315Y-41126470D01*
X151098575Y-41051434D01*
X151071366Y-40979006D01*
X151024567Y-40919272D01*
X150982484Y-40886501D01*
X150915439Y-40851559D01*
X150838136Y-40826601D01*
X150762081Y-40812951D01*
X150678172Y-40806946D01*
X150652756Y-40806634D01*
X150573965Y-40809674D01*
X150498059Y-40818793D01*
X150449057Y-40828249D01*
X150375641Y-40848428D01*
X150306805Y-40873895D01*
X150249389Y-40899690D01*
X150343911Y-41130866D01*
X150415959Y-41099911D01*
X150484641Y-41073725D01*
X150503646Y-41067119D01*
X150574883Y-41048448D01*
X150651934Y-41041132D01*
X150656786Y-41041107D01*
X150730009Y-41048513D01*
X150790757Y-41091172D01*
X150795638Y-41116944D01*
X150777686Y-41166770D01*
X150717767Y-41209320D01*
X150708443Y-41214031D01*
X150639702Y-41245646D01*
X150568438Y-41276241D01*
X150556036Y-41281442D01*
X150485934Y-41311856D01*
X150418596Y-41345851D01*
X150386043Y-41364607D01*
X150326231Y-41410046D01*
X150278226Y-41469340D01*
X150275767Y-41473417D01*
X150247893Y-41542443D01*
X150237539Y-41615028D01*
X150236933Y-41639746D01*
G37*
G36*
X150157431Y-40830081D02*
G01*
X149815247Y-40830081D01*
X149598726Y-41484041D01*
X149578393Y-41557337D01*
X149573813Y-41581861D01*
X149563782Y-41655649D01*
X149560990Y-41686274D01*
X149554762Y-41686274D01*
X149544120Y-41613152D01*
X149537909Y-41581861D01*
X149518675Y-41508427D01*
X149510799Y-41484041D01*
X149298674Y-40830081D01*
X148962351Y-40830081D01*
X149447784Y-42134704D01*
X149479833Y-42209234D01*
X149517317Y-42275103D01*
X149566811Y-42339778D01*
X149623403Y-42393141D01*
X149638660Y-42404715D01*
X149703071Y-42444145D01*
X149772474Y-42472309D01*
X149846869Y-42489208D01*
X149926256Y-42494840D01*
X150001613Y-42491710D01*
X150018946Y-42489711D01*
X150085990Y-42478720D01*
X150085990Y-42229593D01*
X150031402Y-42237653D01*
X149962159Y-42242049D01*
X149888979Y-42232133D01*
X149821670Y-42196047D01*
X149806821Y-42181965D01*
X149759621Y-42120587D01*
X149726462Y-42053568D01*
X149720725Y-42037984D01*
X149701674Y-41981198D01*
X150157431Y-40830081D01*
G37*
G36*
X148334036Y-41401243D02*
G01*
X148332221Y-41321663D01*
X148326774Y-41242977D01*
X148317695Y-41165185D01*
X148304985Y-41088288D01*
X148288643Y-41012285D01*
X148268671Y-40937177D01*
X148259665Y-40907384D01*
X148234234Y-40834120D01*
X148204653Y-40763164D01*
X148170921Y-40694515D01*
X148133040Y-40628174D01*
X148091008Y-40564141D01*
X148044826Y-40502416D01*
X148025191Y-40478371D01*
X147769103Y-40478371D01*
X147812090Y-40540941D01*
X147851749Y-40605461D01*
X147888082Y-40671931D01*
X147921087Y-40740351D01*
X147950764Y-40810720D01*
X147977115Y-40883039D01*
X147986723Y-40912513D01*
X148008149Y-40986891D01*
X148025943Y-41061878D01*
X148040105Y-41137473D01*
X148050637Y-41213676D01*
X148057536Y-41290487D01*
X148060805Y-41367907D01*
X148061095Y-41399045D01*
X148059297Y-41474887D01*
X148053904Y-41550370D01*
X148044915Y-41625497D01*
X148032330Y-41700265D01*
X148016149Y-41774676D01*
X147996373Y-41848728D01*
X147987456Y-41878249D01*
X147962762Y-41950934D01*
X147934705Y-42021525D01*
X147903285Y-42090023D01*
X147868502Y-42156429D01*
X147830356Y-42220741D01*
X147788846Y-42282960D01*
X147771301Y-42307262D01*
X148025191Y-42307262D01*
X148073033Y-42248361D01*
X148116725Y-42187063D01*
X148156267Y-42123368D01*
X148191658Y-42057276D01*
X148222899Y-41988786D01*
X148249990Y-41917900D01*
X148259665Y-41888874D01*
X148281090Y-41815338D01*
X148298884Y-41740818D01*
X148313047Y-41665315D01*
X148323578Y-41588827D01*
X148330478Y-41511356D01*
X148333746Y-41432901D01*
X148334036Y-41401243D01*
G37*
G36*
X147270481Y-41979000D02*
G01*
X147707187Y-40830081D01*
X147379658Y-40830081D01*
X147159106Y-41487339D01*
X147139583Y-41559062D01*
X147129797Y-41610071D01*
X147119092Y-41684288D01*
X147115143Y-41724010D01*
X147106716Y-41724010D01*
X147098286Y-41644638D01*
X147083861Y-41570678D01*
X147062995Y-41495001D01*
X147060554Y-41487339D01*
X146840003Y-40830081D01*
X146512107Y-40830081D01*
X146949180Y-41979000D01*
X147270481Y-41979000D01*
G37*
G36*
X145645655Y-41979000D02*
G01*
X145962561Y-41979000D01*
X145962561Y-41122073D01*
X145961915Y-41047815D01*
X145960729Y-40982122D01*
X145958185Y-40904177D01*
X145954134Y-40827517D01*
X145999563Y-40872213D01*
X146055903Y-40922663D01*
X146063311Y-40929000D01*
X146235502Y-41066020D01*
X146389009Y-40876976D01*
X145905774Y-40478371D01*
X145645655Y-40478371D01*
X145645655Y-41979000D01*
G37*
G36*
X145192829Y-41826592D02*
G01*
X145182801Y-41752470D01*
X145140439Y-41689938D01*
X145074081Y-41658240D01*
X145012212Y-41650737D01*
X144936387Y-41663141D01*
X144886549Y-41689938D01*
X144843890Y-41752470D01*
X144833792Y-41826592D01*
X144845384Y-41902482D01*
X144886549Y-41961048D01*
X144952095Y-41994523D01*
X145012212Y-42002447D01*
X145086171Y-41990763D01*
X145140439Y-41961048D01*
X145182801Y-41898129D01*
X145192829Y-41826592D01*
G37*
G36*
X143847540Y-41979000D02*
G01*
X144164445Y-41979000D01*
X144164445Y-41122073D01*
X144163799Y-41047815D01*
X144162613Y-40982122D01*
X144160069Y-40904177D01*
X144156018Y-40827517D01*
X144201448Y-40872213D01*
X144257787Y-40922663D01*
X144265195Y-40929000D01*
X144437386Y-41066020D01*
X144590893Y-40876976D01*
X144107658Y-40478371D01*
X143847540Y-40478371D01*
X143847540Y-41979000D01*
G37*
G36*
X142886566Y-41401243D02*
G01*
X142888391Y-41480092D01*
X142893865Y-41557957D01*
X142902988Y-41634838D01*
X142915761Y-41710735D01*
X142932183Y-41785648D01*
X142952254Y-41859578D01*
X142961304Y-41888874D01*
X142986630Y-41960719D01*
X143016123Y-42030167D01*
X143049785Y-42097219D01*
X143087614Y-42161873D01*
X143129612Y-42224129D01*
X143175778Y-42283989D01*
X143195411Y-42307262D01*
X143449302Y-42307262D01*
X143406957Y-42245880D01*
X143367850Y-42182405D01*
X143331981Y-42116837D01*
X143299350Y-42049175D01*
X143269957Y-41979421D01*
X143243801Y-41907574D01*
X143234246Y-41878249D01*
X143212715Y-41804340D01*
X143194833Y-41730072D01*
X143180601Y-41655447D01*
X143170018Y-41580464D01*
X143163084Y-41505123D01*
X143159799Y-41429424D01*
X143159508Y-41399045D01*
X143161332Y-41321382D01*
X143166806Y-41244328D01*
X143175930Y-41167881D01*
X143188702Y-41092043D01*
X143205124Y-41016813D01*
X143225195Y-40942191D01*
X143234246Y-40912513D01*
X143259160Y-40839414D01*
X143287419Y-40768264D01*
X143319023Y-40699065D01*
X143353973Y-40631815D01*
X143392267Y-40566515D01*
X143433907Y-40503165D01*
X143451500Y-40478371D01*
X143195411Y-40478371D01*
X143147578Y-40539174D01*
X143103913Y-40602284D01*
X143064416Y-40667702D01*
X143029088Y-40735428D01*
X142997927Y-40805461D01*
X142970934Y-40877802D01*
X142961304Y-40907384D01*
X142939773Y-40982134D01*
X142921892Y-41057779D01*
X142907659Y-41134319D01*
X142897076Y-41211753D01*
X142890142Y-41290081D01*
X142886858Y-41369304D01*
X142886566Y-41401243D01*
G37*
M02*
