M48
; DRILL file {KiCad 8.0.4} date 2024-08-23T02:19:50+0100
; FORMAT={-:-/ absolute / inch / decimal}
; #@! TF.CreationDate,2024-08-23T02:19:50+01:00
; #@! TF.GenerationSoftware,Kicad,Pcbnew,8.0.4
; #@! TF.FileFunction,Plated,1,2,PTH
FMAT,2
INCH
; #@! TA.AperFunction,Plated,PTH,ViaDrill
T1C0.0118
; #@! TA.AperFunction,Plated,PTH,ComponentDrill
T2C0.0157
; #@! TA.AperFunction,Plated,PTH,ComponentDrill
T3C0.0236
; #@! TA.AperFunction,Plated,PTH,ComponentDrill
T4C0.0299
; #@! TA.AperFunction,Plated,PTH,ComponentDrill
T5C0.0394
; #@! TA.AperFunction,Plated,PTH,ComponentDrill
T6C0.0512
%
G90
G05
T1
X4.6469Y-1.9089
X4.6469Y-1.9489
X4.648Y-1.87
X4.8419Y-1.9502
X4.8432Y-1.9109
X4.8443Y-1.87
X4.8447Y-2.0761
X4.935Y-2.865
X5.055Y-2.58
X5.2084Y-1.91
X5.5895Y-2.2452
X5.625Y-1.875
X5.699Y-1.905
X5.9131Y-1.935
T2
X5.1511Y-1.7653
X5.1511Y-1.8185
X5.1846Y-1.7653
X5.1846Y-1.8185
X5.2181Y-1.7653
X5.2181Y-1.8185
X5.2515Y-1.7653
X5.2515Y-1.8185
X5.285Y-1.7653
X5.285Y-1.8185
X5.3185Y-1.7653
X5.3185Y-1.8185
X5.3519Y-1.7653
X5.3519Y-1.8185
X5.3854Y-1.7653
X5.3854Y-1.8185
T4
X4.1675Y-2.1235
X4.2175Y-2.0235
X4.2675Y-2.1235
X4.3175Y-2.0235
X4.3675Y-2.1235
X4.4175Y-2.0235
X4.4675Y-2.1235
X4.5175Y-2.0235
X5.6675Y-2.1235
X5.7175Y-2.0235
X5.7675Y-2.1235
X5.8175Y-2.0235
X5.8675Y-2.1235
X5.9175Y-2.0235
X5.9675Y-2.1235
X6.0175Y-2.0235
T5
X4.1369Y-2.3989
X4.1369Y-2.4989
X4.2369Y-2.3989
X4.2369Y-2.4989
X4.3369Y-2.3989
X4.3369Y-2.4989
X4.4369Y-2.3989
X4.4369Y-2.4989
X4.5369Y-2.3989
X4.5369Y-2.4989
X4.6369Y-2.3989
X4.6369Y-2.4989
X4.7369Y-2.3989
X4.7369Y-2.4989
X4.8369Y-2.3989
X4.8369Y-2.4989
X4.9369Y-2.3989
X4.9369Y-2.4989
X5.0369Y-2.3989
X5.0369Y-2.4989
X5.1369Y-2.3989
X5.1369Y-2.4989
X5.2369Y-2.3989
X5.2369Y-2.4989
X5.3369Y-2.3989
X5.3369Y-2.4989
X5.4369Y-2.3989
X5.4369Y-2.4989
X5.5369Y-2.3989
X5.5369Y-2.4989
X5.6369Y-2.3989
X5.6369Y-2.4989
X5.7369Y-2.3989
X5.7369Y-2.4989
X5.8369Y-2.3989
X5.8369Y-2.4989
X5.9369Y-2.3989
X5.9369Y-2.4989
X6.0369Y-2.3989
X6.0369Y-2.4989
T6
X4.6242Y-3.7309
X4.8242Y-3.7309
X5.451Y-3.7309
X5.651Y-3.7309
T3
X5.098Y-1.6626G85X5.098Y-1.6311
G05
X5.098Y-1.8094G85X5.098Y-1.7504
G05
X5.4385Y-1.6626G85X5.4385Y-1.6311
G05
X5.4385Y-1.8094G85X5.4385Y-1.7504
G05
M30
