%TF.GenerationSoftware,KiCad,Pcbnew,8.0.4*%
%TF.CreationDate,2024-08-22T22:44:09+01:00*%
%TF.ProjectId,PicoChainTerminator,5069636f-4368-4616-996e-5465726d696e,v1.1*%
%TF.SameCoordinates,Original*%
%TF.FileFunction,Copper,L2,Bot*%
%TF.FilePolarity,Positive*%
%FSLAX46Y46*%
G04 Gerber Fmt 4.6, Leading zero omitted, Abs format (unit mm)*
G04 Created by KiCad (PCBNEW 8.0.4) date 2024-08-22 22:44:09*
%MOMM*%
%LPD*%
G01*
G04 APERTURE LIST*
%TA.AperFunction,ComponentPad*%
%ADD10R,1.500000X1.500000*%
%TD*%
%TA.AperFunction,ComponentPad*%
%ADD11C,1.500000*%
%TD*%
%TA.AperFunction,ViaPad*%
%ADD12C,0.600000*%
%TD*%
%TA.AperFunction,Conductor*%
%ADD13C,0.508000*%
%TD*%
G04 APERTURE END LIST*
D10*
%TO.P,J1,1*%
%TO.N,GND*%
X102984500Y-78877000D03*
D11*
%TO.P,J1,2*%
%TO.N,unconnected-(J1-Pad2)*%
X101714500Y-81417000D03*
%TO.P,J1,3*%
%TO.N,Net-(J1-Pad3)*%
X100444500Y-78877000D03*
%TO.P,J1,4*%
%TO.N,Net-(J1-Pad4)*%
X99174500Y-81417000D03*
%TO.P,J1,5*%
%TO.N,Net-(J1-Pad5)*%
X97904500Y-78877000D03*
%TO.P,J1,6*%
%TO.N,Net-(J1-Pad6)*%
X96634500Y-81417000D03*
%TO.P,J1,7*%
%TO.N,GND*%
X95364500Y-78877000D03*
%TO.P,J1,8*%
%TO.N,+12V*%
X94094500Y-81417000D03*
%TD*%
D12*
%TO.N,Net-(J1-Pad3)*%
X100444500Y-90250000D03*
%TO.N,Net-(J1-Pad4)*%
X99501000Y-93499000D03*
%TD*%
D13*
%TO.N,Net-(J1-Pad3)*%
X100444500Y-90250000D02*
X100444500Y-78877000D01*
%TO.N,Net-(J1-Pad4)*%
X99501000Y-93499000D02*
X99083000Y-93081000D01*
X99083000Y-81508500D02*
X99174500Y-81417000D01*
X99083000Y-93081000D02*
X99083000Y-81508500D01*
%TD*%
%TA.AperFunction,Conductor*%
%TO.N,GND*%
G36*
X106441621Y-68520502D02*
G01*
X106488114Y-68574158D01*
X106499500Y-68626500D01*
X106499500Y-99373500D01*
X106479498Y-99441621D01*
X106425842Y-99488114D01*
X106373500Y-99499500D01*
X90626500Y-99499500D01*
X90558379Y-99479498D01*
X90511886Y-99425842D01*
X90500500Y-99373500D01*
X90500500Y-81416997D01*
X93085140Y-81416997D01*
X93085140Y-81417002D01*
X93104533Y-81613909D01*
X93104534Y-81613915D01*
X93104535Y-81613916D01*
X93161973Y-81803265D01*
X93255248Y-81977770D01*
X93380775Y-82130725D01*
X93533730Y-82256252D01*
X93708235Y-82349527D01*
X93897584Y-82406965D01*
X93897588Y-82406965D01*
X93897590Y-82406966D01*
X94094497Y-82426360D01*
X94094500Y-82426360D01*
X94094503Y-82426360D01*
X94291409Y-82406966D01*
X94291410Y-82406965D01*
X94291416Y-82406965D01*
X94480765Y-82349527D01*
X94655270Y-82256252D01*
X94808225Y-82130725D01*
X94933752Y-81977770D01*
X95027027Y-81803265D01*
X95084465Y-81613916D01*
X95103860Y-81417000D01*
X95103860Y-81416997D01*
X95625140Y-81416997D01*
X95625140Y-81417002D01*
X95644533Y-81613909D01*
X95644534Y-81613915D01*
X95644535Y-81613916D01*
X95701973Y-81803265D01*
X95795248Y-81977770D01*
X95920775Y-82130725D01*
X96073730Y-82256252D01*
X96248235Y-82349527D01*
X96437584Y-82406965D01*
X96437588Y-82406965D01*
X96437590Y-82406966D01*
X96634497Y-82426360D01*
X96634500Y-82426360D01*
X96634503Y-82426360D01*
X96831409Y-82406966D01*
X96831410Y-82406965D01*
X96831416Y-82406965D01*
X97020765Y-82349527D01*
X97195270Y-82256252D01*
X97348225Y-82130725D01*
X97473752Y-81977770D01*
X97567027Y-81803265D01*
X97624465Y-81613916D01*
X97643860Y-81417000D01*
X97643860Y-81416997D01*
X98165140Y-81416997D01*
X98165140Y-81417002D01*
X98184533Y-81613909D01*
X98241973Y-81803265D01*
X98335248Y-81977770D01*
X98460774Y-82130724D01*
X98528433Y-82186250D01*
X98568402Y-82244927D01*
X98574500Y-82283650D01*
X98574500Y-93014055D01*
X98574500Y-93147945D01*
X98609153Y-93277274D01*
X98609154Y-93277276D01*
X98609155Y-93277278D01*
X98676096Y-93393223D01*
X98676098Y-93393225D01*
X98676099Y-93393227D01*
X98967195Y-93684323D01*
X98994506Y-93725197D01*
X99016642Y-93778638D01*
X99016647Y-93778646D01*
X99066849Y-93844070D01*
X99105526Y-93894474D01*
X99221357Y-93983355D01*
X99356246Y-94039228D01*
X99501000Y-94058285D01*
X99645754Y-94039228D01*
X99780643Y-93983355D01*
X99896474Y-93894474D01*
X99985355Y-93778643D01*
X100041228Y-93643754D01*
X100060285Y-93499000D01*
X100041228Y-93354246D01*
X99985355Y-93219358D01*
X99896474Y-93103526D01*
X99780643Y-93014645D01*
X99780642Y-93014644D01*
X99780638Y-93014642D01*
X99727197Y-92992506D01*
X99686321Y-92965193D01*
X99628405Y-92907277D01*
X99594379Y-92844965D01*
X99591500Y-92818182D01*
X99591500Y-82408619D01*
X99611502Y-82340498D01*
X99658101Y-82297498D01*
X99735270Y-82256252D01*
X99735278Y-82256244D01*
X99739993Y-82253095D01*
X99807745Y-82231877D01*
X99876212Y-82250657D01*
X99923658Y-82303471D01*
X99936000Y-82357857D01*
X99936000Y-90003584D01*
X99926409Y-90051801D01*
X99904272Y-90105245D01*
X99885215Y-90249999D01*
X99885215Y-90250000D01*
X99904271Y-90394752D01*
X99960144Y-90529641D01*
X99960149Y-90529649D01*
X100049025Y-90645474D01*
X100164850Y-90734350D01*
X100164857Y-90734355D01*
X100299746Y-90790228D01*
X100444500Y-90809285D01*
X100589254Y-90790228D01*
X100724143Y-90734355D01*
X100839974Y-90645474D01*
X100928855Y-90529643D01*
X100984728Y-90394754D01*
X101003785Y-90250000D01*
X100984728Y-90105246D01*
X100974581Y-90080751D01*
X100962591Y-90051801D01*
X100953000Y-90003584D01*
X100953000Y-82357857D01*
X100973002Y-82289736D01*
X101026658Y-82243243D01*
X101096932Y-82233139D01*
X101149007Y-82253095D01*
X101153721Y-82256244D01*
X101153730Y-82256252D01*
X101328235Y-82349527D01*
X101517584Y-82406965D01*
X101517588Y-82406965D01*
X101517590Y-82406966D01*
X101714497Y-82426360D01*
X101714500Y-82426360D01*
X101714503Y-82426360D01*
X101911409Y-82406966D01*
X101911410Y-82406965D01*
X101911416Y-82406965D01*
X102100765Y-82349527D01*
X102275270Y-82256252D01*
X102428225Y-82130725D01*
X102553752Y-81977770D01*
X102647027Y-81803265D01*
X102704465Y-81613916D01*
X102723860Y-81417000D01*
X102704465Y-81220084D01*
X102647027Y-81030735D01*
X102553752Y-80856230D01*
X102428225Y-80703275D01*
X102275270Y-80577748D01*
X102100765Y-80484473D01*
X101911416Y-80427035D01*
X101911415Y-80427034D01*
X101911409Y-80427033D01*
X101714503Y-80407640D01*
X101714497Y-80407640D01*
X101517590Y-80427033D01*
X101328234Y-80484473D01*
X101153726Y-80577749D01*
X101149000Y-80580908D01*
X101081247Y-80602122D01*
X101012780Y-80583338D01*
X100965338Y-80530520D01*
X100953000Y-80476142D01*
X100953000Y-79818525D01*
X100973002Y-79750404D01*
X101001492Y-79721407D01*
X101000484Y-79720179D01*
X101005267Y-79716253D01*
X101005270Y-79716252D01*
X101158225Y-79590725D01*
X101283752Y-79437770D01*
X101377027Y-79263265D01*
X101434465Y-79073916D01*
X101439414Y-79023675D01*
X101453860Y-78877002D01*
X101453860Y-78876997D01*
X101434466Y-78680090D01*
X101434465Y-78680088D01*
X101434465Y-78680084D01*
X101377027Y-78490735D01*
X101283752Y-78316230D01*
X101158225Y-78163275D01*
X101054807Y-78078402D01*
X101726500Y-78078402D01*
X101726500Y-78623000D01*
X102701099Y-78623000D01*
X102680424Y-78643675D01*
X102630396Y-78730325D01*
X102604500Y-78826972D01*
X102604500Y-78927028D01*
X102630396Y-79023675D01*
X102680424Y-79110325D01*
X102701099Y-79131000D01*
X101726500Y-79131000D01*
X101726500Y-79675597D01*
X101733005Y-79736093D01*
X101784055Y-79872964D01*
X101784055Y-79872965D01*
X101871595Y-79989904D01*
X101988534Y-80077444D01*
X102125406Y-80128494D01*
X102185902Y-80134999D01*
X102185915Y-80135000D01*
X102730500Y-80135000D01*
X102730500Y-79160401D01*
X102751175Y-79181076D01*
X102837825Y-79231104D01*
X102934472Y-79257000D01*
X103034528Y-79257000D01*
X103131175Y-79231104D01*
X103217825Y-79181076D01*
X103238500Y-79160401D01*
X103238500Y-80135000D01*
X103783085Y-80135000D01*
X103783097Y-80134999D01*
X103843593Y-80128494D01*
X103980464Y-80077444D01*
X103980465Y-80077444D01*
X104097404Y-79989904D01*
X104184944Y-79872965D01*
X104184944Y-79872964D01*
X104235994Y-79736093D01*
X104242499Y-79675597D01*
X104242500Y-79675585D01*
X104242500Y-79131000D01*
X103267901Y-79131000D01*
X103288576Y-79110325D01*
X103338604Y-79023675D01*
X103364500Y-78927028D01*
X103364500Y-78826972D01*
X103338604Y-78730325D01*
X103288576Y-78643675D01*
X103267901Y-78623000D01*
X104242500Y-78623000D01*
X104242500Y-78078414D01*
X104242499Y-78078402D01*
X104235994Y-78017906D01*
X104184944Y-77881035D01*
X104184944Y-77881034D01*
X104097404Y-77764095D01*
X103980465Y-77676555D01*
X103843593Y-77625505D01*
X103783097Y-77619000D01*
X103238500Y-77619000D01*
X103238500Y-78593599D01*
X103217825Y-78572924D01*
X103131175Y-78522896D01*
X103034528Y-78497000D01*
X102934472Y-78497000D01*
X102837825Y-78522896D01*
X102751175Y-78572924D01*
X102730500Y-78593599D01*
X102730500Y-77619000D01*
X102185902Y-77619000D01*
X102125406Y-77625505D01*
X101988535Y-77676555D01*
X101988534Y-77676555D01*
X101871595Y-77764095D01*
X101784055Y-77881034D01*
X101784055Y-77881035D01*
X101733005Y-78017906D01*
X101726500Y-78078402D01*
X101054807Y-78078402D01*
X101005270Y-78037748D01*
X100830765Y-77944473D01*
X100641416Y-77887035D01*
X100641415Y-77887034D01*
X100641409Y-77887033D01*
X100444503Y-77867640D01*
X100444497Y-77867640D01*
X100247590Y-77887033D01*
X100058234Y-77944473D01*
X99883729Y-78037748D01*
X99730775Y-78163275D01*
X99605248Y-78316229D01*
X99511973Y-78490734D01*
X99454533Y-78680090D01*
X99435140Y-78876997D01*
X99435140Y-78877002D01*
X99454533Y-79073909D01*
X99454534Y-79073915D01*
X99454535Y-79073916D01*
X99511973Y-79263265D01*
X99605248Y-79437770D01*
X99730775Y-79590725D01*
X99883730Y-79716252D01*
X99883732Y-79716253D01*
X99888516Y-79720179D01*
X99886951Y-79722085D01*
X99925518Y-79768210D01*
X99936000Y-79818525D01*
X99936000Y-80476142D01*
X99915998Y-80544263D01*
X99862342Y-80590756D01*
X99792068Y-80600860D01*
X99740000Y-80580908D01*
X99735273Y-80577749D01*
X99560765Y-80484473D01*
X99371409Y-80427033D01*
X99174503Y-80407640D01*
X99174497Y-80407640D01*
X98977590Y-80427033D01*
X98788234Y-80484473D01*
X98613729Y-80577748D01*
X98460775Y-80703275D01*
X98335248Y-80856229D01*
X98241973Y-81030734D01*
X98184533Y-81220090D01*
X98165140Y-81416997D01*
X97643860Y-81416997D01*
X97624465Y-81220084D01*
X97567027Y-81030735D01*
X97473752Y-80856230D01*
X97348225Y-80703275D01*
X97195270Y-80577748D01*
X97020765Y-80484473D01*
X96831416Y-80427035D01*
X96831415Y-80427034D01*
X96831409Y-80427033D01*
X96634503Y-80407640D01*
X96634497Y-80407640D01*
X96437590Y-80427033D01*
X96248234Y-80484473D01*
X96073729Y-80577748D01*
X95920775Y-80703275D01*
X95795248Y-80856229D01*
X95701973Y-81030734D01*
X95644533Y-81220090D01*
X95625140Y-81416997D01*
X95103860Y-81416997D01*
X95084465Y-81220084D01*
X95027027Y-81030735D01*
X94933752Y-80856230D01*
X94808225Y-80703275D01*
X94655270Y-80577748D01*
X94480765Y-80484473D01*
X94291416Y-80427035D01*
X94291415Y-80427034D01*
X94291409Y-80427033D01*
X94094503Y-80407640D01*
X94094497Y-80407640D01*
X93897590Y-80427033D01*
X93708234Y-80484473D01*
X93533729Y-80577748D01*
X93380775Y-80703275D01*
X93255248Y-80856229D01*
X93161973Y-81030734D01*
X93104533Y-81220090D01*
X93085140Y-81416997D01*
X90500500Y-81416997D01*
X90500500Y-78877000D01*
X94101695Y-78877000D01*
X94120880Y-79096287D01*
X94177850Y-79308903D01*
X94177852Y-79308907D01*
X94270879Y-79508403D01*
X94313300Y-79568987D01*
X94984500Y-78897788D01*
X94984500Y-78927028D01*
X95010396Y-79023675D01*
X95060424Y-79110325D01*
X95131175Y-79181076D01*
X95217825Y-79231104D01*
X95314472Y-79257000D01*
X95343710Y-79257000D01*
X94672511Y-79928197D01*
X94672511Y-79928198D01*
X94733097Y-79970621D01*
X94932592Y-80063647D01*
X94932596Y-80063649D01*
X95145212Y-80120619D01*
X95364500Y-80139804D01*
X95583787Y-80120619D01*
X95796403Y-80063649D01*
X95796407Y-80063647D01*
X95995899Y-79970622D01*
X96056487Y-79928197D01*
X96056487Y-79928196D01*
X95385291Y-79257000D01*
X95414528Y-79257000D01*
X95511175Y-79231104D01*
X95597825Y-79181076D01*
X95668576Y-79110325D01*
X95718604Y-79023675D01*
X95744500Y-78927028D01*
X95744500Y-78897791D01*
X96415696Y-79568987D01*
X96415697Y-79568987D01*
X96458122Y-79508399D01*
X96551147Y-79308907D01*
X96551149Y-79308903D01*
X96608119Y-79096287D01*
X96627304Y-78877000D01*
X96627304Y-78876997D01*
X96895140Y-78876997D01*
X96895140Y-78877002D01*
X96914533Y-79073909D01*
X96914534Y-79073915D01*
X96914535Y-79073916D01*
X96971973Y-79263265D01*
X97065248Y-79437770D01*
X97190775Y-79590725D01*
X97343730Y-79716252D01*
X97518235Y-79809527D01*
X97707584Y-79866965D01*
X97707588Y-79866965D01*
X97707590Y-79866966D01*
X97904497Y-79886360D01*
X97904500Y-79886360D01*
X97904503Y-79886360D01*
X98101409Y-79866966D01*
X98101410Y-79866965D01*
X98101416Y-79866965D01*
X98290765Y-79809527D01*
X98465270Y-79716252D01*
X98618225Y-79590725D01*
X98743752Y-79437770D01*
X98837027Y-79263265D01*
X98894465Y-79073916D01*
X98899414Y-79023675D01*
X98913860Y-78877002D01*
X98913860Y-78876997D01*
X98894466Y-78680090D01*
X98894465Y-78680088D01*
X98894465Y-78680084D01*
X98837027Y-78490735D01*
X98743752Y-78316230D01*
X98618225Y-78163275D01*
X98465270Y-78037748D01*
X98290765Y-77944473D01*
X98101416Y-77887035D01*
X98101415Y-77887034D01*
X98101409Y-77887033D01*
X97904503Y-77867640D01*
X97904497Y-77867640D01*
X97707590Y-77887033D01*
X97518234Y-77944473D01*
X97343729Y-78037748D01*
X97190775Y-78163275D01*
X97065248Y-78316229D01*
X96971973Y-78490734D01*
X96914533Y-78680090D01*
X96895140Y-78876997D01*
X96627304Y-78876997D01*
X96608119Y-78657712D01*
X96551149Y-78445096D01*
X96551147Y-78445092D01*
X96458119Y-78245594D01*
X96415699Y-78185011D01*
X96415697Y-78185011D01*
X95744500Y-78856208D01*
X95744500Y-78826972D01*
X95718604Y-78730325D01*
X95668576Y-78643675D01*
X95597825Y-78572924D01*
X95511175Y-78522896D01*
X95414528Y-78497000D01*
X95385290Y-78497000D01*
X96056487Y-77825800D01*
X95995903Y-77783379D01*
X95796407Y-77690352D01*
X95796403Y-77690350D01*
X95583787Y-77633380D01*
X95364500Y-77614195D01*
X95145212Y-77633380D01*
X94932596Y-77690350D01*
X94932592Y-77690352D01*
X94733098Y-77783378D01*
X94672510Y-77825801D01*
X95343709Y-78497000D01*
X95314472Y-78497000D01*
X95217825Y-78522896D01*
X95131175Y-78572924D01*
X95060424Y-78643675D01*
X95010396Y-78730325D01*
X94984500Y-78826972D01*
X94984500Y-78856209D01*
X94313301Y-78185010D01*
X94270878Y-78245598D01*
X94177852Y-78445092D01*
X94177850Y-78445096D01*
X94120880Y-78657712D01*
X94101695Y-78877000D01*
X90500500Y-78877000D01*
X90500500Y-72405709D01*
X90974000Y-72405709D01*
X90974000Y-72648290D01*
X91005660Y-72888782D01*
X91068444Y-73123095D01*
X91068445Y-73123097D01*
X91068446Y-73123100D01*
X91161276Y-73347212D01*
X91161277Y-73347213D01*
X91161282Y-73347224D01*
X91282561Y-73557285D01*
X91282563Y-73557288D01*
X91282564Y-73557289D01*
X91430235Y-73749738D01*
X91430239Y-73749742D01*
X91430244Y-73749748D01*
X91601751Y-73921255D01*
X91601756Y-73921259D01*
X91601762Y-73921265D01*
X91794211Y-74068936D01*
X91794214Y-74068938D01*
X92004275Y-74190217D01*
X92004279Y-74190218D01*
X92004288Y-74190224D01*
X92228400Y-74283054D01*
X92462711Y-74345838D01*
X92462715Y-74345838D01*
X92462717Y-74345839D01*
X92524702Y-74353999D01*
X92703212Y-74377500D01*
X92703219Y-74377500D01*
X92945781Y-74377500D01*
X92945788Y-74377500D01*
X93163137Y-74348885D01*
X93186282Y-74345839D01*
X93186282Y-74345838D01*
X93186289Y-74345838D01*
X93420600Y-74283054D01*
X93644712Y-74190224D01*
X93854789Y-74068936D01*
X94047238Y-73921265D01*
X94218765Y-73749738D01*
X94366436Y-73557289D01*
X94487724Y-73347212D01*
X94580554Y-73123100D01*
X94643338Y-72888789D01*
X94675000Y-72648288D01*
X94675000Y-72405712D01*
X94675000Y-72405709D01*
X102404000Y-72405709D01*
X102404000Y-72648290D01*
X102435660Y-72888782D01*
X102498444Y-73123095D01*
X102498445Y-73123097D01*
X102498446Y-73123100D01*
X102591276Y-73347212D01*
X102591277Y-73347213D01*
X102591282Y-73347224D01*
X102712561Y-73557285D01*
X102712563Y-73557288D01*
X102712564Y-73557289D01*
X102860235Y-73749738D01*
X102860239Y-73749742D01*
X102860244Y-73749748D01*
X103031751Y-73921255D01*
X103031756Y-73921259D01*
X103031762Y-73921265D01*
X103224211Y-74068936D01*
X103224214Y-74068938D01*
X103434275Y-74190217D01*
X103434279Y-74190218D01*
X103434288Y-74190224D01*
X103658400Y-74283054D01*
X103892711Y-74345838D01*
X103892715Y-74345838D01*
X103892717Y-74345839D01*
X103954702Y-74353999D01*
X104133212Y-74377500D01*
X104133219Y-74377500D01*
X104375781Y-74377500D01*
X104375788Y-74377500D01*
X104593137Y-74348885D01*
X104616282Y-74345839D01*
X104616282Y-74345838D01*
X104616289Y-74345838D01*
X104850600Y-74283054D01*
X105074712Y-74190224D01*
X105284789Y-74068936D01*
X105477238Y-73921265D01*
X105648765Y-73749738D01*
X105796436Y-73557289D01*
X105917724Y-73347212D01*
X106010554Y-73123100D01*
X106073338Y-72888789D01*
X106105000Y-72648288D01*
X106105000Y-72405712D01*
X106073338Y-72165211D01*
X106010554Y-71930900D01*
X105917724Y-71706788D01*
X105917718Y-71706779D01*
X105917717Y-71706775D01*
X105796438Y-71496714D01*
X105796436Y-71496711D01*
X105648765Y-71304262D01*
X105648759Y-71304256D01*
X105648755Y-71304251D01*
X105477248Y-71132744D01*
X105477242Y-71132739D01*
X105477238Y-71132735D01*
X105284789Y-70985064D01*
X105284788Y-70985063D01*
X105284785Y-70985061D01*
X105074724Y-70863782D01*
X105074716Y-70863778D01*
X105074712Y-70863776D01*
X104850600Y-70770946D01*
X104850597Y-70770945D01*
X104850595Y-70770944D01*
X104616282Y-70708160D01*
X104375790Y-70676500D01*
X104375788Y-70676500D01*
X104133212Y-70676500D01*
X104133209Y-70676500D01*
X103892717Y-70708160D01*
X103658404Y-70770944D01*
X103658400Y-70770946D01*
X103434286Y-70863777D01*
X103434275Y-70863782D01*
X103224214Y-70985061D01*
X103031762Y-71132735D01*
X103031751Y-71132744D01*
X102860244Y-71304251D01*
X102860235Y-71304262D01*
X102712561Y-71496714D01*
X102591282Y-71706775D01*
X102591277Y-71706786D01*
X102498446Y-71930900D01*
X102498444Y-71930904D01*
X102435660Y-72165217D01*
X102404000Y-72405709D01*
X94675000Y-72405709D01*
X94643338Y-72165211D01*
X94580554Y-71930900D01*
X94487724Y-71706788D01*
X94487718Y-71706779D01*
X94487717Y-71706775D01*
X94366438Y-71496714D01*
X94366436Y-71496711D01*
X94218765Y-71304262D01*
X94218759Y-71304256D01*
X94218755Y-71304251D01*
X94047248Y-71132744D01*
X94047242Y-71132739D01*
X94047238Y-71132735D01*
X93854789Y-70985064D01*
X93854788Y-70985063D01*
X93854785Y-70985061D01*
X93644724Y-70863782D01*
X93644716Y-70863778D01*
X93644712Y-70863776D01*
X93420600Y-70770946D01*
X93420597Y-70770945D01*
X93420595Y-70770944D01*
X93186282Y-70708160D01*
X92945790Y-70676500D01*
X92945788Y-70676500D01*
X92703212Y-70676500D01*
X92703209Y-70676500D01*
X92462717Y-70708160D01*
X92228404Y-70770944D01*
X92228400Y-70770946D01*
X92004286Y-70863777D01*
X92004275Y-70863782D01*
X91794214Y-70985061D01*
X91601762Y-71132735D01*
X91601751Y-71132744D01*
X91430244Y-71304251D01*
X91430235Y-71304262D01*
X91282561Y-71496714D01*
X91161282Y-71706775D01*
X91161277Y-71706786D01*
X91068446Y-71930900D01*
X91068444Y-71930904D01*
X91005660Y-72165217D01*
X90974000Y-72405709D01*
X90500500Y-72405709D01*
X90500500Y-68626500D01*
X90520502Y-68558379D01*
X90574158Y-68511886D01*
X90626500Y-68500500D01*
X106373500Y-68500500D01*
X106441621Y-68520502D01*
G37*
%TD.AperFunction*%
%TD*%
M02*
