%TF.GenerationSoftware,KiCad,Pcbnew,9.0.0*%
%TF.CreationDate,2025-04-21T00:33:36+01:00*%
%TF.ProjectId,PicoChainTerminator,5069636f-4368-4616-996e-5465726d696e,v1.2*%
%TF.SameCoordinates,Original*%
%TF.FileFunction,Legend,Top*%
%TF.FilePolarity,Positive*%
%FSLAX46Y46*%
G04 Gerber Fmt 4.6, Leading zero omitted, Abs format (unit mm)*
G04 Created by KiCad (PCBNEW 9.0.0) date 2025-04-21 00:33:36*
%MOMM*%
%LPD*%
G01*
G04 APERTURE LIST*
%ADD10C,0.150000*%
%ADD11C,0.120000*%
G04 APERTURE END LIST*
D10*
X101626333Y-90178819D02*
X101293000Y-89702628D01*
X101054905Y-90178819D02*
X101054905Y-89178819D01*
X101054905Y-89178819D02*
X101435857Y-89178819D01*
X101435857Y-89178819D02*
X101531095Y-89226438D01*
X101531095Y-89226438D02*
X101578714Y-89274057D01*
X101578714Y-89274057D02*
X101626333Y-89369295D01*
X101626333Y-89369295D02*
X101626333Y-89512152D01*
X101626333Y-89512152D02*
X101578714Y-89607390D01*
X101578714Y-89607390D02*
X101531095Y-89655009D01*
X101531095Y-89655009D02*
X101435857Y-89702628D01*
X101435857Y-89702628D02*
X101054905Y-89702628D01*
X102483476Y-89178819D02*
X102293000Y-89178819D01*
X102293000Y-89178819D02*
X102197762Y-89226438D01*
X102197762Y-89226438D02*
X102150143Y-89274057D01*
X102150143Y-89274057D02*
X102054905Y-89416914D01*
X102054905Y-89416914D02*
X102007286Y-89607390D01*
X102007286Y-89607390D02*
X102007286Y-89988342D01*
X102007286Y-89988342D02*
X102054905Y-90083580D01*
X102054905Y-90083580D02*
X102102524Y-90131200D01*
X102102524Y-90131200D02*
X102197762Y-90178819D01*
X102197762Y-90178819D02*
X102388238Y-90178819D01*
X102388238Y-90178819D02*
X102483476Y-90131200D01*
X102483476Y-90131200D02*
X102531095Y-90083580D01*
X102531095Y-90083580D02*
X102578714Y-89988342D01*
X102578714Y-89988342D02*
X102578714Y-89750247D01*
X102578714Y-89750247D02*
X102531095Y-89655009D01*
X102531095Y-89655009D02*
X102483476Y-89607390D01*
X102483476Y-89607390D02*
X102388238Y-89559771D01*
X102388238Y-89559771D02*
X102197762Y-89559771D01*
X102197762Y-89559771D02*
X102102524Y-89607390D01*
X102102524Y-89607390D02*
X102054905Y-89655009D01*
X102054905Y-89655009D02*
X102007286Y-89750247D01*
X103738571Y-88049164D02*
X103738571Y-88549164D01*
X103559999Y-87763450D02*
X103381428Y-88299164D01*
X103381428Y-88299164D02*
X103845713Y-88299164D01*
X104059999Y-87799164D02*
X104559999Y-87799164D01*
X104559999Y-87799164D02*
X104238571Y-88549164D01*
X104988571Y-87799164D02*
X105060000Y-87799164D01*
X105060000Y-87799164D02*
X105131428Y-87834878D01*
X105131428Y-87834878D02*
X105167143Y-87870592D01*
X105167143Y-87870592D02*
X105202857Y-87942021D01*
X105202857Y-87942021D02*
X105238571Y-88084878D01*
X105238571Y-88084878D02*
X105238571Y-88263450D01*
X105238571Y-88263450D02*
X105202857Y-88406307D01*
X105202857Y-88406307D02*
X105167143Y-88477735D01*
X105167143Y-88477735D02*
X105131428Y-88513450D01*
X105131428Y-88513450D02*
X105060000Y-88549164D01*
X105060000Y-88549164D02*
X104988571Y-88549164D01*
X104988571Y-88549164D02*
X104917143Y-88513450D01*
X104917143Y-88513450D02*
X104881428Y-88477735D01*
X104881428Y-88477735D02*
X104845714Y-88406307D01*
X104845714Y-88406307D02*
X104810000Y-88263450D01*
X104810000Y-88263450D02*
X104810000Y-88084878D01*
X104810000Y-88084878D02*
X104845714Y-87942021D01*
X104845714Y-87942021D02*
X104881428Y-87870592D01*
X104881428Y-87870592D02*
X104917143Y-87834878D01*
X104917143Y-87834878D02*
X104988571Y-87799164D01*
X95017580Y-86344666D02*
X95065200Y-86392285D01*
X95065200Y-86392285D02*
X95112819Y-86535142D01*
X95112819Y-86535142D02*
X95112819Y-86630380D01*
X95112819Y-86630380D02*
X95065200Y-86773237D01*
X95065200Y-86773237D02*
X94969961Y-86868475D01*
X94969961Y-86868475D02*
X94874723Y-86916094D01*
X94874723Y-86916094D02*
X94684247Y-86963713D01*
X94684247Y-86963713D02*
X94541390Y-86963713D01*
X94541390Y-86963713D02*
X94350914Y-86916094D01*
X94350914Y-86916094D02*
X94255676Y-86868475D01*
X94255676Y-86868475D02*
X94160438Y-86773237D01*
X94160438Y-86773237D02*
X94112819Y-86630380D01*
X94112819Y-86630380D02*
X94112819Y-86535142D01*
X94112819Y-86535142D02*
X94160438Y-86392285D01*
X94160438Y-86392285D02*
X94208057Y-86344666D01*
X95112819Y-85392285D02*
X95112819Y-85963713D01*
X95112819Y-85677999D02*
X94112819Y-85677999D01*
X94112819Y-85677999D02*
X94255676Y-85773237D01*
X94255676Y-85773237D02*
X94350914Y-85868475D01*
X94350914Y-85868475D02*
X94398533Y-85963713D01*
X97302964Y-87680200D02*
X97302964Y-87215914D01*
X97302964Y-87215914D02*
X97588678Y-87465914D01*
X97588678Y-87465914D02*
X97588678Y-87358771D01*
X97588678Y-87358771D02*
X97624392Y-87287343D01*
X97624392Y-87287343D02*
X97660107Y-87251628D01*
X97660107Y-87251628D02*
X97731535Y-87215914D01*
X97731535Y-87215914D02*
X97910107Y-87215914D01*
X97910107Y-87215914D02*
X97981535Y-87251628D01*
X97981535Y-87251628D02*
X98017250Y-87287343D01*
X98017250Y-87287343D02*
X98052964Y-87358771D01*
X98052964Y-87358771D02*
X98052964Y-87573057D01*
X98052964Y-87573057D02*
X98017250Y-87644485D01*
X98017250Y-87644485D02*
X97981535Y-87680200D01*
X97302964Y-86965914D02*
X97302964Y-86501628D01*
X97302964Y-86501628D02*
X97588678Y-86751628D01*
X97588678Y-86751628D02*
X97588678Y-86644485D01*
X97588678Y-86644485D02*
X97624392Y-86573057D01*
X97624392Y-86573057D02*
X97660107Y-86537342D01*
X97660107Y-86537342D02*
X97731535Y-86501628D01*
X97731535Y-86501628D02*
X97910107Y-86501628D01*
X97910107Y-86501628D02*
X97981535Y-86537342D01*
X97981535Y-86537342D02*
X98017250Y-86573057D01*
X98017250Y-86573057D02*
X98052964Y-86644485D01*
X98052964Y-86644485D02*
X98052964Y-86858771D01*
X98052964Y-86858771D02*
X98017250Y-86930199D01*
X98017250Y-86930199D02*
X97981535Y-86965914D01*
X97302964Y-86037342D02*
X97302964Y-85965913D01*
X97302964Y-85965913D02*
X97338678Y-85894485D01*
X97338678Y-85894485D02*
X97374392Y-85858771D01*
X97374392Y-85858771D02*
X97445821Y-85823056D01*
X97445821Y-85823056D02*
X97588678Y-85787342D01*
X97588678Y-85787342D02*
X97767250Y-85787342D01*
X97767250Y-85787342D02*
X97910107Y-85823056D01*
X97910107Y-85823056D02*
X97981535Y-85858771D01*
X97981535Y-85858771D02*
X98017250Y-85894485D01*
X98017250Y-85894485D02*
X98052964Y-85965913D01*
X98052964Y-85965913D02*
X98052964Y-86037342D01*
X98052964Y-86037342D02*
X98017250Y-86108771D01*
X98017250Y-86108771D02*
X97981535Y-86144485D01*
X97981535Y-86144485D02*
X97910107Y-86180199D01*
X97910107Y-86180199D02*
X97767250Y-86215913D01*
X97767250Y-86215913D02*
X97588678Y-86215913D01*
X97588678Y-86215913D02*
X97445821Y-86180199D01*
X97445821Y-86180199D02*
X97374392Y-86144485D01*
X97374392Y-86144485D02*
X97338678Y-86108771D01*
X97338678Y-86108771D02*
X97302964Y-86037342D01*
X97552964Y-85465913D02*
X98052964Y-85465913D01*
X97624392Y-85465913D02*
X97588678Y-85430199D01*
X97588678Y-85430199D02*
X97552964Y-85358770D01*
X97552964Y-85358770D02*
X97552964Y-85251627D01*
X97552964Y-85251627D02*
X97588678Y-85180199D01*
X97588678Y-85180199D02*
X97660107Y-85144485D01*
X97660107Y-85144485D02*
X98052964Y-85144485D01*
X97660107Y-84537342D02*
X97660107Y-84787342D01*
X98052964Y-84787342D02*
X97302964Y-84787342D01*
X97302964Y-84787342D02*
X97302964Y-84430199D01*
X90445580Y-86344666D02*
X90493200Y-86392285D01*
X90493200Y-86392285D02*
X90540819Y-86535142D01*
X90540819Y-86535142D02*
X90540819Y-86630380D01*
X90540819Y-86630380D02*
X90493200Y-86773237D01*
X90493200Y-86773237D02*
X90397961Y-86868475D01*
X90397961Y-86868475D02*
X90302723Y-86916094D01*
X90302723Y-86916094D02*
X90112247Y-86963713D01*
X90112247Y-86963713D02*
X89969390Y-86963713D01*
X89969390Y-86963713D02*
X89778914Y-86916094D01*
X89778914Y-86916094D02*
X89683676Y-86868475D01*
X89683676Y-86868475D02*
X89588438Y-86773237D01*
X89588438Y-86773237D02*
X89540819Y-86630380D01*
X89540819Y-86630380D02*
X89540819Y-86535142D01*
X89540819Y-86535142D02*
X89588438Y-86392285D01*
X89588438Y-86392285D02*
X89636057Y-86344666D01*
X89636057Y-85963713D02*
X89588438Y-85916094D01*
X89588438Y-85916094D02*
X89540819Y-85820856D01*
X89540819Y-85820856D02*
X89540819Y-85582761D01*
X89540819Y-85582761D02*
X89588438Y-85487523D01*
X89588438Y-85487523D02*
X89636057Y-85439904D01*
X89636057Y-85439904D02*
X89731295Y-85392285D01*
X89731295Y-85392285D02*
X89826533Y-85392285D01*
X89826533Y-85392285D02*
X89969390Y-85439904D01*
X89969390Y-85439904D02*
X90540819Y-86011332D01*
X90540819Y-86011332D02*
X90540819Y-85392285D01*
X92730964Y-87705600D02*
X92730964Y-87241314D01*
X92730964Y-87241314D02*
X93016678Y-87491314D01*
X93016678Y-87491314D02*
X93016678Y-87384171D01*
X93016678Y-87384171D02*
X93052392Y-87312743D01*
X93052392Y-87312743D02*
X93088107Y-87277028D01*
X93088107Y-87277028D02*
X93159535Y-87241314D01*
X93159535Y-87241314D02*
X93338107Y-87241314D01*
X93338107Y-87241314D02*
X93409535Y-87277028D01*
X93409535Y-87277028D02*
X93445250Y-87312743D01*
X93445250Y-87312743D02*
X93480964Y-87384171D01*
X93480964Y-87384171D02*
X93480964Y-87598457D01*
X93480964Y-87598457D02*
X93445250Y-87669885D01*
X93445250Y-87669885D02*
X93409535Y-87705600D01*
X92730964Y-86991314D02*
X92730964Y-86527028D01*
X92730964Y-86527028D02*
X93016678Y-86777028D01*
X93016678Y-86777028D02*
X93016678Y-86669885D01*
X93016678Y-86669885D02*
X93052392Y-86598457D01*
X93052392Y-86598457D02*
X93088107Y-86562742D01*
X93088107Y-86562742D02*
X93159535Y-86527028D01*
X93159535Y-86527028D02*
X93338107Y-86527028D01*
X93338107Y-86527028D02*
X93409535Y-86562742D01*
X93409535Y-86562742D02*
X93445250Y-86598457D01*
X93445250Y-86598457D02*
X93480964Y-86669885D01*
X93480964Y-86669885D02*
X93480964Y-86884171D01*
X93480964Y-86884171D02*
X93445250Y-86955599D01*
X93445250Y-86955599D02*
X93409535Y-86991314D01*
X92730964Y-86062742D02*
X92730964Y-85991313D01*
X92730964Y-85991313D02*
X92766678Y-85919885D01*
X92766678Y-85919885D02*
X92802392Y-85884171D01*
X92802392Y-85884171D02*
X92873821Y-85848456D01*
X92873821Y-85848456D02*
X93016678Y-85812742D01*
X93016678Y-85812742D02*
X93195250Y-85812742D01*
X93195250Y-85812742D02*
X93338107Y-85848456D01*
X93338107Y-85848456D02*
X93409535Y-85884171D01*
X93409535Y-85884171D02*
X93445250Y-85919885D01*
X93445250Y-85919885D02*
X93480964Y-85991313D01*
X93480964Y-85991313D02*
X93480964Y-86062742D01*
X93480964Y-86062742D02*
X93445250Y-86134171D01*
X93445250Y-86134171D02*
X93409535Y-86169885D01*
X93409535Y-86169885D02*
X93338107Y-86205599D01*
X93338107Y-86205599D02*
X93195250Y-86241313D01*
X93195250Y-86241313D02*
X93016678Y-86241313D01*
X93016678Y-86241313D02*
X92873821Y-86205599D01*
X92873821Y-86205599D02*
X92802392Y-86169885D01*
X92802392Y-86169885D02*
X92766678Y-86134171D01*
X92766678Y-86134171D02*
X92730964Y-86062742D01*
X92980964Y-85491313D02*
X93480964Y-85491313D01*
X93052392Y-85491313D02*
X93016678Y-85455599D01*
X93016678Y-85455599D02*
X92980964Y-85384170D01*
X92980964Y-85384170D02*
X92980964Y-85277027D01*
X92980964Y-85277027D02*
X93016678Y-85205599D01*
X93016678Y-85205599D02*
X93088107Y-85169885D01*
X93088107Y-85169885D02*
X93480964Y-85169885D01*
X93088107Y-84562742D02*
X93088107Y-84812742D01*
X93480964Y-84812742D02*
X92730964Y-84812742D01*
X92730964Y-84812742D02*
X92730964Y-84455599D01*
X98994933Y-89939019D02*
X98661600Y-89462828D01*
X98423505Y-89939019D02*
X98423505Y-88939019D01*
X98423505Y-88939019D02*
X98804457Y-88939019D01*
X98804457Y-88939019D02*
X98899695Y-88986638D01*
X98899695Y-88986638D02*
X98947314Y-89034257D01*
X98947314Y-89034257D02*
X98994933Y-89129495D01*
X98994933Y-89129495D02*
X98994933Y-89272352D01*
X98994933Y-89272352D02*
X98947314Y-89367590D01*
X98947314Y-89367590D02*
X98899695Y-89415209D01*
X98899695Y-89415209D02*
X98804457Y-89462828D01*
X98804457Y-89462828D02*
X98423505Y-89462828D01*
X99852076Y-89272352D02*
X99852076Y-89939019D01*
X99613981Y-88891400D02*
X99375886Y-89605685D01*
X99375886Y-89605685D02*
X99994933Y-89605685D01*
X98661599Y-85505364D02*
X98233028Y-85505364D01*
X98447313Y-85505364D02*
X98447313Y-84755364D01*
X98447313Y-84755364D02*
X98375885Y-84862507D01*
X98375885Y-84862507D02*
X98304456Y-84933935D01*
X98304456Y-84933935D02*
X98233028Y-84969650D01*
X99304457Y-85005364D02*
X99304457Y-85505364D01*
X99125885Y-84719650D02*
X98947314Y-85255364D01*
X98947314Y-85255364D02*
X99411599Y-85255364D01*
X99840171Y-84755364D02*
X99911600Y-84755364D01*
X99911600Y-84755364D02*
X99983028Y-84791078D01*
X99983028Y-84791078D02*
X100018743Y-84826792D01*
X100018743Y-84826792D02*
X100054457Y-84898221D01*
X100054457Y-84898221D02*
X100090171Y-85041078D01*
X100090171Y-85041078D02*
X100090171Y-85219650D01*
X100090171Y-85219650D02*
X100054457Y-85362507D01*
X100054457Y-85362507D02*
X100018743Y-85433935D01*
X100018743Y-85433935D02*
X99983028Y-85469650D01*
X99983028Y-85469650D02*
X99911600Y-85505364D01*
X99911600Y-85505364D02*
X99840171Y-85505364D01*
X99840171Y-85505364D02*
X99768743Y-85469650D01*
X99768743Y-85469650D02*
X99733028Y-85433935D01*
X99733028Y-85433935D02*
X99697314Y-85362507D01*
X99697314Y-85362507D02*
X99661600Y-85219650D01*
X99661600Y-85219650D02*
X99661600Y-85041078D01*
X99661600Y-85041078D02*
X99697314Y-84898221D01*
X99697314Y-84898221D02*
X99733028Y-84826792D01*
X99733028Y-84826792D02*
X99768743Y-84791078D01*
X99768743Y-84791078D02*
X99840171Y-84755364D01*
X97183819Y-99481904D02*
X97993342Y-99481904D01*
X97993342Y-99481904D02*
X98088580Y-99434285D01*
X98088580Y-99434285D02*
X98136200Y-99386666D01*
X98136200Y-99386666D02*
X98183819Y-99291428D01*
X98183819Y-99291428D02*
X98183819Y-99100952D01*
X98183819Y-99100952D02*
X98136200Y-99005714D01*
X98136200Y-99005714D02*
X98088580Y-98958095D01*
X98088580Y-98958095D02*
X97993342Y-98910476D01*
X97993342Y-98910476D02*
X97183819Y-98910476D01*
X98183819Y-97910476D02*
X98183819Y-98481904D01*
X98183819Y-98196190D02*
X97183819Y-98196190D01*
X97183819Y-98196190D02*
X97326676Y-98291428D01*
X97326676Y-98291428D02*
X97421914Y-98386666D01*
X97421914Y-98386666D02*
X97469533Y-98481904D01*
X90171164Y-96867571D02*
X90171164Y-97224714D01*
X90171164Y-97224714D02*
X89421164Y-97224714D01*
X90171164Y-96617571D02*
X89421164Y-96617571D01*
X89421164Y-96617571D02*
X89956878Y-96367571D01*
X89956878Y-96367571D02*
X89421164Y-96117571D01*
X89421164Y-96117571D02*
X90171164Y-96117571D01*
X89421164Y-95831857D02*
X89421164Y-95331857D01*
X89421164Y-95331857D02*
X90171164Y-95653285D01*
X89742592Y-94938999D02*
X89706878Y-95010428D01*
X89706878Y-95010428D02*
X89671164Y-95046142D01*
X89671164Y-95046142D02*
X89599735Y-95081856D01*
X89599735Y-95081856D02*
X89564021Y-95081856D01*
X89564021Y-95081856D02*
X89492592Y-95046142D01*
X89492592Y-95046142D02*
X89456878Y-95010428D01*
X89456878Y-95010428D02*
X89421164Y-94938999D01*
X89421164Y-94938999D02*
X89421164Y-94796142D01*
X89421164Y-94796142D02*
X89456878Y-94724714D01*
X89456878Y-94724714D02*
X89492592Y-94688999D01*
X89492592Y-94688999D02*
X89564021Y-94653285D01*
X89564021Y-94653285D02*
X89599735Y-94653285D01*
X89599735Y-94653285D02*
X89671164Y-94688999D01*
X89671164Y-94688999D02*
X89706878Y-94724714D01*
X89706878Y-94724714D02*
X89742592Y-94796142D01*
X89742592Y-94796142D02*
X89742592Y-94938999D01*
X89742592Y-94938999D02*
X89778307Y-95010428D01*
X89778307Y-95010428D02*
X89814021Y-95046142D01*
X89814021Y-95046142D02*
X89885450Y-95081856D01*
X89885450Y-95081856D02*
X90028307Y-95081856D01*
X90028307Y-95081856D02*
X90099735Y-95046142D01*
X90099735Y-95046142D02*
X90135450Y-95010428D01*
X90135450Y-95010428D02*
X90171164Y-94938999D01*
X90171164Y-94938999D02*
X90171164Y-94796142D01*
X90171164Y-94796142D02*
X90135450Y-94724714D01*
X90135450Y-94724714D02*
X90099735Y-94688999D01*
X90099735Y-94688999D02*
X90028307Y-94653285D01*
X90028307Y-94653285D02*
X89885450Y-94653285D01*
X89885450Y-94653285D02*
X89814021Y-94688999D01*
X89814021Y-94688999D02*
X89778307Y-94724714D01*
X89778307Y-94724714D02*
X89742592Y-94796142D01*
X90171164Y-94331856D02*
X89421164Y-94331856D01*
X89421164Y-94331856D02*
X89956878Y-94081856D01*
X89956878Y-94081856D02*
X89421164Y-93831856D01*
X89421164Y-93831856D02*
X90171164Y-93831856D01*
X89421164Y-93331856D02*
X89421164Y-93260427D01*
X89421164Y-93260427D02*
X89456878Y-93188999D01*
X89456878Y-93188999D02*
X89492592Y-93153285D01*
X89492592Y-93153285D02*
X89564021Y-93117570D01*
X89564021Y-93117570D02*
X89706878Y-93081856D01*
X89706878Y-93081856D02*
X89885450Y-93081856D01*
X89885450Y-93081856D02*
X90028307Y-93117570D01*
X90028307Y-93117570D02*
X90099735Y-93153285D01*
X90099735Y-93153285D02*
X90135450Y-93188999D01*
X90135450Y-93188999D02*
X90171164Y-93260427D01*
X90171164Y-93260427D02*
X90171164Y-93331856D01*
X90171164Y-93331856D02*
X90135450Y-93403285D01*
X90135450Y-93403285D02*
X90099735Y-93438999D01*
X90099735Y-93438999D02*
X90028307Y-93474713D01*
X90028307Y-93474713D02*
X89885450Y-93510427D01*
X89885450Y-93510427D02*
X89706878Y-93510427D01*
X89706878Y-93510427D02*
X89564021Y-93474713D01*
X89564021Y-93474713D02*
X89492592Y-93438999D01*
X89492592Y-93438999D02*
X89456878Y-93403285D01*
X89456878Y-93403285D02*
X89421164Y-93331856D01*
X89421164Y-92403284D02*
X89421164Y-92760427D01*
X89421164Y-92760427D02*
X89778307Y-92796141D01*
X89778307Y-92796141D02*
X89742592Y-92760427D01*
X89742592Y-92760427D02*
X89706878Y-92688999D01*
X89706878Y-92688999D02*
X89706878Y-92510427D01*
X89706878Y-92510427D02*
X89742592Y-92438999D01*
X89742592Y-92438999D02*
X89778307Y-92403284D01*
X89778307Y-92403284D02*
X89849735Y-92367570D01*
X89849735Y-92367570D02*
X90028307Y-92367570D01*
X90028307Y-92367570D02*
X90099735Y-92403284D01*
X90099735Y-92403284D02*
X90135450Y-92438999D01*
X90135450Y-92438999D02*
X90171164Y-92510427D01*
X90171164Y-92510427D02*
X90171164Y-92688999D01*
X90171164Y-92688999D02*
X90135450Y-92760427D01*
X90135450Y-92760427D02*
X90099735Y-92796141D01*
X101776833Y-97036819D02*
X101443500Y-96560628D01*
X101205405Y-97036819D02*
X101205405Y-96036819D01*
X101205405Y-96036819D02*
X101586357Y-96036819D01*
X101586357Y-96036819D02*
X101681595Y-96084438D01*
X101681595Y-96084438D02*
X101729214Y-96132057D01*
X101729214Y-96132057D02*
X101776833Y-96227295D01*
X101776833Y-96227295D02*
X101776833Y-96370152D01*
X101776833Y-96370152D02*
X101729214Y-96465390D01*
X101729214Y-96465390D02*
X101681595Y-96513009D01*
X101681595Y-96513009D02*
X101586357Y-96560628D01*
X101586357Y-96560628D02*
X101205405Y-96560628D01*
X102157786Y-96132057D02*
X102205405Y-96084438D01*
X102205405Y-96084438D02*
X102300643Y-96036819D01*
X102300643Y-96036819D02*
X102538738Y-96036819D01*
X102538738Y-96036819D02*
X102633976Y-96084438D01*
X102633976Y-96084438D02*
X102681595Y-96132057D01*
X102681595Y-96132057D02*
X102729214Y-96227295D01*
X102729214Y-96227295D02*
X102729214Y-96322533D01*
X102729214Y-96322533D02*
X102681595Y-96465390D01*
X102681595Y-96465390D02*
X102110167Y-97036819D01*
X102110167Y-97036819D02*
X102729214Y-97036819D01*
X103865571Y-94907164D02*
X103865571Y-95407164D01*
X103686999Y-94621450D02*
X103508428Y-95157164D01*
X103508428Y-95157164D02*
X103972713Y-95157164D01*
X104186999Y-94657164D02*
X104686999Y-94657164D01*
X104686999Y-94657164D02*
X104365571Y-95407164D01*
X105115571Y-94657164D02*
X105187000Y-94657164D01*
X105187000Y-94657164D02*
X105258428Y-94692878D01*
X105258428Y-94692878D02*
X105294143Y-94728592D01*
X105294143Y-94728592D02*
X105329857Y-94800021D01*
X105329857Y-94800021D02*
X105365571Y-94942878D01*
X105365571Y-94942878D02*
X105365571Y-95121450D01*
X105365571Y-95121450D02*
X105329857Y-95264307D01*
X105329857Y-95264307D02*
X105294143Y-95335735D01*
X105294143Y-95335735D02*
X105258428Y-95371450D01*
X105258428Y-95371450D02*
X105187000Y-95407164D01*
X105187000Y-95407164D02*
X105115571Y-95407164D01*
X105115571Y-95407164D02*
X105044143Y-95371450D01*
X105044143Y-95371450D02*
X105008428Y-95335735D01*
X105008428Y-95335735D02*
X104972714Y-95264307D01*
X104972714Y-95264307D02*
X104937000Y-95121450D01*
X104937000Y-95121450D02*
X104937000Y-94942878D01*
X104937000Y-94942878D02*
X104972714Y-94800021D01*
X104972714Y-94800021D02*
X105008428Y-94728592D01*
X105008428Y-94728592D02*
X105044143Y-94692878D01*
X105044143Y-94692878D02*
X105115571Y-94657164D01*
X101776833Y-92083819D02*
X101443500Y-91607628D01*
X101205405Y-92083819D02*
X101205405Y-91083819D01*
X101205405Y-91083819D02*
X101586357Y-91083819D01*
X101586357Y-91083819D02*
X101681595Y-91131438D01*
X101681595Y-91131438D02*
X101729214Y-91179057D01*
X101729214Y-91179057D02*
X101776833Y-91274295D01*
X101776833Y-91274295D02*
X101776833Y-91417152D01*
X101776833Y-91417152D02*
X101729214Y-91512390D01*
X101729214Y-91512390D02*
X101681595Y-91560009D01*
X101681595Y-91560009D02*
X101586357Y-91607628D01*
X101586357Y-91607628D02*
X101205405Y-91607628D01*
X102110167Y-91083819D02*
X102729214Y-91083819D01*
X102729214Y-91083819D02*
X102395881Y-91464771D01*
X102395881Y-91464771D02*
X102538738Y-91464771D01*
X102538738Y-91464771D02*
X102633976Y-91512390D01*
X102633976Y-91512390D02*
X102681595Y-91560009D01*
X102681595Y-91560009D02*
X102729214Y-91655247D01*
X102729214Y-91655247D02*
X102729214Y-91893342D01*
X102729214Y-91893342D02*
X102681595Y-91988580D01*
X102681595Y-91988580D02*
X102633976Y-92036200D01*
X102633976Y-92036200D02*
X102538738Y-92083819D01*
X102538738Y-92083819D02*
X102253024Y-92083819D01*
X102253024Y-92083819D02*
X102157786Y-92036200D01*
X102157786Y-92036200D02*
X102110167Y-91988580D01*
X103865571Y-92992164D02*
X103865571Y-93492164D01*
X103686999Y-92706450D02*
X103508428Y-93242164D01*
X103508428Y-93242164D02*
X103972713Y-93242164D01*
X104186999Y-92742164D02*
X104686999Y-92742164D01*
X104686999Y-92742164D02*
X104365571Y-93492164D01*
X105115571Y-92742164D02*
X105187000Y-92742164D01*
X105187000Y-92742164D02*
X105258428Y-92777878D01*
X105258428Y-92777878D02*
X105294143Y-92813592D01*
X105294143Y-92813592D02*
X105329857Y-92885021D01*
X105329857Y-92885021D02*
X105365571Y-93027878D01*
X105365571Y-93027878D02*
X105365571Y-93206450D01*
X105365571Y-93206450D02*
X105329857Y-93349307D01*
X105329857Y-93349307D02*
X105294143Y-93420735D01*
X105294143Y-93420735D02*
X105258428Y-93456450D01*
X105258428Y-93456450D02*
X105187000Y-93492164D01*
X105187000Y-93492164D02*
X105115571Y-93492164D01*
X105115571Y-93492164D02*
X105044143Y-93456450D01*
X105044143Y-93456450D02*
X105008428Y-93420735D01*
X105008428Y-93420735D02*
X104972714Y-93349307D01*
X104972714Y-93349307D02*
X104937000Y-93206450D01*
X104937000Y-93206450D02*
X104937000Y-93027878D01*
X104937000Y-93027878D02*
X104972714Y-92885021D01*
X104972714Y-92885021D02*
X105008428Y-92813592D01*
X105008428Y-92813592D02*
X105044143Y-92777878D01*
X105044143Y-92777878D02*
X105115571Y-92742164D01*
X99109833Y-96782819D02*
X98776500Y-96306628D01*
X98538405Y-96782819D02*
X98538405Y-95782819D01*
X98538405Y-95782819D02*
X98919357Y-95782819D01*
X98919357Y-95782819D02*
X99014595Y-95830438D01*
X99014595Y-95830438D02*
X99062214Y-95878057D01*
X99062214Y-95878057D02*
X99109833Y-95973295D01*
X99109833Y-95973295D02*
X99109833Y-96116152D01*
X99109833Y-96116152D02*
X99062214Y-96211390D01*
X99062214Y-96211390D02*
X99014595Y-96259009D01*
X99014595Y-96259009D02*
X98919357Y-96306628D01*
X98919357Y-96306628D02*
X98538405Y-96306628D01*
X100062214Y-96782819D02*
X99490786Y-96782819D01*
X99776500Y-96782819D02*
X99776500Y-95782819D01*
X99776500Y-95782819D02*
X99681262Y-95925676D01*
X99681262Y-95925676D02*
X99586024Y-96020914D01*
X99586024Y-96020914D02*
X99490786Y-96068533D01*
X98776499Y-92222164D02*
X98347928Y-92222164D01*
X98562213Y-92222164D02*
X98562213Y-91472164D01*
X98562213Y-91472164D02*
X98490785Y-91579307D01*
X98490785Y-91579307D02*
X98419356Y-91650735D01*
X98419356Y-91650735D02*
X98347928Y-91686450D01*
X99419357Y-91722164D02*
X99419357Y-92222164D01*
X99240785Y-91436450D02*
X99062214Y-91972164D01*
X99062214Y-91972164D02*
X99526499Y-91972164D01*
X99955071Y-91472164D02*
X100026500Y-91472164D01*
X100026500Y-91472164D02*
X100097928Y-91507878D01*
X100097928Y-91507878D02*
X100133643Y-91543592D01*
X100133643Y-91543592D02*
X100169357Y-91615021D01*
X100169357Y-91615021D02*
X100205071Y-91757878D01*
X100205071Y-91757878D02*
X100205071Y-91936450D01*
X100205071Y-91936450D02*
X100169357Y-92079307D01*
X100169357Y-92079307D02*
X100133643Y-92150735D01*
X100133643Y-92150735D02*
X100097928Y-92186450D01*
X100097928Y-92186450D02*
X100026500Y-92222164D01*
X100026500Y-92222164D02*
X99955071Y-92222164D01*
X99955071Y-92222164D02*
X99883643Y-92186450D01*
X99883643Y-92186450D02*
X99847928Y-92150735D01*
X99847928Y-92150735D02*
X99812214Y-92079307D01*
X99812214Y-92079307D02*
X99776500Y-91936450D01*
X99776500Y-91936450D02*
X99776500Y-91757878D01*
X99776500Y-91757878D02*
X99812214Y-91615021D01*
X99812214Y-91615021D02*
X99847928Y-91543592D01*
X99847928Y-91543592D02*
X99883643Y-91507878D01*
X99883643Y-91507878D02*
X99955071Y-91472164D01*
X104253666Y-83717819D02*
X104253666Y-84432104D01*
X104253666Y-84432104D02*
X104206047Y-84574961D01*
X104206047Y-84574961D02*
X104110809Y-84670200D01*
X104110809Y-84670200D02*
X103967952Y-84717819D01*
X103967952Y-84717819D02*
X103872714Y-84717819D01*
X105253666Y-84717819D02*
X104682238Y-84717819D01*
X104967952Y-84717819D02*
X104967952Y-83717819D01*
X104967952Y-83717819D02*
X104872714Y-83860676D01*
X104872714Y-83860676D02*
X104777476Y-83955914D01*
X104777476Y-83955914D02*
X104682238Y-84003533D01*
X96415690Y-75911819D02*
X96082357Y-75435628D01*
X95844262Y-75911819D02*
X95844262Y-74911819D01*
X95844262Y-74911819D02*
X96225214Y-74911819D01*
X96225214Y-74911819D02*
X96320452Y-74959438D01*
X96320452Y-74959438D02*
X96368071Y-75007057D01*
X96368071Y-75007057D02*
X96415690Y-75102295D01*
X96415690Y-75102295D02*
X96415690Y-75245152D01*
X96415690Y-75245152D02*
X96368071Y-75340390D01*
X96368071Y-75340390D02*
X96320452Y-75388009D01*
X96320452Y-75388009D02*
X96225214Y-75435628D01*
X96225214Y-75435628D02*
X95844262Y-75435628D01*
X97129976Y-74911819D02*
X97129976Y-75626104D01*
X97129976Y-75626104D02*
X97082357Y-75768961D01*
X97082357Y-75768961D02*
X96987119Y-75864200D01*
X96987119Y-75864200D02*
X96844262Y-75911819D01*
X96844262Y-75911819D02*
X96749024Y-75911819D01*
X98034738Y-75245152D02*
X98034738Y-75911819D01*
X97796643Y-74864200D02*
X97558548Y-75578485D01*
X97558548Y-75578485D02*
X98177595Y-75578485D01*
X99034738Y-74911819D02*
X98558548Y-74911819D01*
X98558548Y-74911819D02*
X98510929Y-75388009D01*
X98510929Y-75388009D02*
X98558548Y-75340390D01*
X98558548Y-75340390D02*
X98653786Y-75292771D01*
X98653786Y-75292771D02*
X98891881Y-75292771D01*
X98891881Y-75292771D02*
X98987119Y-75340390D01*
X98987119Y-75340390D02*
X99034738Y-75388009D01*
X99034738Y-75388009D02*
X99082357Y-75483247D01*
X99082357Y-75483247D02*
X99082357Y-75721342D01*
X99082357Y-75721342D02*
X99034738Y-75816580D01*
X99034738Y-75816580D02*
X98987119Y-75864200D01*
X98987119Y-75864200D02*
X98891881Y-75911819D01*
X98891881Y-75911819D02*
X98653786Y-75911819D01*
X98653786Y-75911819D02*
X98558548Y-75864200D01*
X98558548Y-75864200D02*
X98510929Y-75816580D01*
X101626333Y-85352819D02*
X101293000Y-84876628D01*
X101054905Y-85352819D02*
X101054905Y-84352819D01*
X101054905Y-84352819D02*
X101435857Y-84352819D01*
X101435857Y-84352819D02*
X101531095Y-84400438D01*
X101531095Y-84400438D02*
X101578714Y-84448057D01*
X101578714Y-84448057D02*
X101626333Y-84543295D01*
X101626333Y-84543295D02*
X101626333Y-84686152D01*
X101626333Y-84686152D02*
X101578714Y-84781390D01*
X101578714Y-84781390D02*
X101531095Y-84829009D01*
X101531095Y-84829009D02*
X101435857Y-84876628D01*
X101435857Y-84876628D02*
X101054905Y-84876628D01*
X102531095Y-84352819D02*
X102054905Y-84352819D01*
X102054905Y-84352819D02*
X102007286Y-84829009D01*
X102007286Y-84829009D02*
X102054905Y-84781390D01*
X102054905Y-84781390D02*
X102150143Y-84733771D01*
X102150143Y-84733771D02*
X102388238Y-84733771D01*
X102388238Y-84733771D02*
X102483476Y-84781390D01*
X102483476Y-84781390D02*
X102531095Y-84829009D01*
X102531095Y-84829009D02*
X102578714Y-84924247D01*
X102578714Y-84924247D02*
X102578714Y-85162342D01*
X102578714Y-85162342D02*
X102531095Y-85257580D01*
X102531095Y-85257580D02*
X102483476Y-85305200D01*
X102483476Y-85305200D02*
X102388238Y-85352819D01*
X102388238Y-85352819D02*
X102150143Y-85352819D01*
X102150143Y-85352819D02*
X102054905Y-85305200D01*
X102054905Y-85305200D02*
X102007286Y-85257580D01*
X103738571Y-86144164D02*
X103738571Y-86644164D01*
X103559999Y-85858450D02*
X103381428Y-86394164D01*
X103381428Y-86394164D02*
X103845713Y-86394164D01*
X104059999Y-85894164D02*
X104559999Y-85894164D01*
X104559999Y-85894164D02*
X104238571Y-86644164D01*
X104988571Y-85894164D02*
X105060000Y-85894164D01*
X105060000Y-85894164D02*
X105131428Y-85929878D01*
X105131428Y-85929878D02*
X105167143Y-85965592D01*
X105167143Y-85965592D02*
X105202857Y-86037021D01*
X105202857Y-86037021D02*
X105238571Y-86179878D01*
X105238571Y-86179878D02*
X105238571Y-86358450D01*
X105238571Y-86358450D02*
X105202857Y-86501307D01*
X105202857Y-86501307D02*
X105167143Y-86572735D01*
X105167143Y-86572735D02*
X105131428Y-86608450D01*
X105131428Y-86608450D02*
X105060000Y-86644164D01*
X105060000Y-86644164D02*
X104988571Y-86644164D01*
X104988571Y-86644164D02*
X104917143Y-86608450D01*
X104917143Y-86608450D02*
X104881428Y-86572735D01*
X104881428Y-86572735D02*
X104845714Y-86501307D01*
X104845714Y-86501307D02*
X104810000Y-86358450D01*
X104810000Y-86358450D02*
X104810000Y-86179878D01*
X104810000Y-86179878D02*
X104845714Y-86037021D01*
X104845714Y-86037021D02*
X104881428Y-85965592D01*
X104881428Y-85965592D02*
X104917143Y-85929878D01*
X104917143Y-85929878D02*
X104988571Y-85894164D01*
D11*
%TO.C,R6*%
X101565936Y-87465000D02*
X102020064Y-87465000D01*
X101565936Y-88935000D02*
X102020064Y-88935000D01*
%TO.C,C1*%
X95278500Y-84480000D02*
X95278500Y-88390000D01*
X95278500Y-88390000D02*
X97148500Y-88390000D01*
X97148500Y-88390000D02*
X97148500Y-84480000D01*
%TO.C,C2*%
X90706500Y-84480000D02*
X90706500Y-88390000D01*
X90706500Y-88390000D02*
X92576500Y-88390000D01*
X92576500Y-88390000D02*
X92576500Y-84480000D01*
%TO.C,R4*%
X98426600Y-86971136D02*
X98426600Y-87425264D01*
X99896600Y-86971136D02*
X99896600Y-87425264D01*
%TO.C,U1*%
X90475000Y-91560000D02*
X90745000Y-91560000D01*
X90475000Y-97980000D02*
X90475000Y-91560000D01*
X97375000Y-91560000D02*
X97105000Y-91560000D01*
X97375000Y-97980000D02*
X97375000Y-91560000D01*
X97395000Y-90380000D02*
X97065000Y-90140000D01*
X97395000Y-89900000D01*
X97395000Y-90380000D01*
G36*
X97395000Y-90380000D02*
G01*
X97065000Y-90140000D01*
X97395000Y-89900000D01*
X97395000Y-90380000D01*
G37*
%TO.C,R2*%
X101716436Y-94323000D02*
X102170564Y-94323000D01*
X101716436Y-95793000D02*
X102170564Y-95793000D01*
%TO.C,R3*%
X101716436Y-92418000D02*
X102170564Y-92418000D01*
X101716436Y-93888000D02*
X102170564Y-93888000D01*
%TO.C,R1*%
X98541500Y-94269064D02*
X98541500Y-93814936D01*
X100011500Y-94269064D02*
X100011500Y-93814936D01*
%TO.C,J1*%
X89679500Y-83337000D02*
X89679500Y-65377000D01*
X89679500Y-83337000D02*
X105199500Y-83337000D01*
X105199500Y-65377000D02*
X89679500Y-65377000D01*
X105199500Y-83337000D02*
X105199500Y-65377000D01*
X105384500Y-79457000D02*
X105884500Y-79957000D01*
X105884500Y-78957000D02*
X105384500Y-79457000D01*
X105884500Y-79957000D02*
X105884500Y-78957000D01*
%TO.C,R5*%
X101565936Y-85560000D02*
X102020064Y-85560000D01*
X101565936Y-87030000D02*
X102020064Y-87030000D01*
%TD*%
M02*
