G04 #@! TF.GenerationSoftware,KiCad,Pcbnew,9.0.3*
G04 #@! TF.CreationDate,2025-07-20T21:10:14+01:00*
G04 #@! TF.ProjectId,PicoChainZero,5069636f-4368-4616-996e-5a65726f2e6b,v1.2*
G04 #@! TF.SameCoordinates,Original*
G04 #@! TF.FileFunction,Paste,Top*
G04 #@! TF.FilePolarity,Positive*
%FSLAX46Y46*%
G04 Gerber Fmt 4.6, Leading zero omitted, Abs format (unit mm)*
G04 Created by KiCad (PCBNEW 9.0.3) date 2025-07-20 21:10:14*
%MOMM*%
%LPD*%
G01*
G04 APERTURE LIST*
G04 Aperture macros list*
%AMRoundRect*
0 Rectangle with rounded corners*
0 $1 Rounding radius*
0 $2 $3 $4 $5 $6 $7 $8 $9 X,Y pos of 4 corners*
0 Add a 4 corners polygon primitive as box body*
4,1,4,$2,$3,$4,$5,$6,$7,$8,$9,$2,$3,0*
0 Add four circle primitives for the rounded corners*
1,1,$1+$1,$2,$3*
1,1,$1+$1,$4,$5*
1,1,$1+$1,$6,$7*
1,1,$1+$1,$8,$9*
0 Add four rect primitives between the rounded corners*
20,1,$1+$1,$2,$3,$4,$5,0*
20,1,$1+$1,$4,$5,$6,$7,0*
20,1,$1+$1,$6,$7,$8,$9,0*
20,1,$1+$1,$8,$9,$2,$3,0*%
G04 Aperture macros list end*
%ADD10R,0.450000X1.750000*%
%ADD11RoundRect,0.250000X0.262500X0.450000X-0.262500X0.450000X-0.262500X-0.450000X0.262500X-0.450000X0*%
%ADD12RoundRect,0.250000X-0.262500X-0.450000X0.262500X-0.450000X0.262500X0.450000X-0.262500X0.450000X0*%
%ADD13RoundRect,0.243750X0.456250X-0.243750X0.456250X0.243750X-0.456250X0.243750X-0.456250X-0.243750X0*%
%ADD14RoundRect,0.250000X-0.325000X-0.650000X0.325000X-0.650000X0.325000X0.650000X-0.325000X0.650000X0*%
%ADD15RoundRect,0.250000X-0.475000X0.250000X-0.475000X-0.250000X0.475000X-0.250000X0.475000X0.250000X0*%
%ADD16RoundRect,0.250000X0.457500X0.445000X-0.457500X0.445000X-0.457500X-0.445000X0.457500X-0.445000X0*%
%ADD17RoundRect,0.250000X0.475000X-0.250000X0.475000X0.250000X-0.475000X0.250000X-0.475000X-0.250000X0*%
%ADD18RoundRect,0.167500X0.312500X-0.167500X0.312500X0.167500X-0.312500X0.167500X-0.312500X-0.167500X0*%
%ADD19RoundRect,0.062500X0.062500X-0.362500X0.062500X0.362500X-0.062500X0.362500X-0.062500X-0.362500X0*%
%ADD20RoundRect,0.250000X-0.445000X0.457500X-0.445000X-0.457500X0.445000X-0.457500X0.445000X0.457500X0*%
%ADD21RoundRect,0.150000X-0.150000X0.512500X-0.150000X-0.512500X0.150000X-0.512500X0.150000X0.512500X0*%
%ADD22RoundRect,0.250000X0.425000X-0.450000X0.425000X0.450000X-0.425000X0.450000X-0.425000X-0.450000X0*%
%ADD23RoundRect,0.250000X0.350000X-0.850000X0.350000X0.850000X-0.350000X0.850000X-0.350000X-0.850000X0*%
%ADD24RoundRect,0.250000X1.125000X-1.275000X1.125000X1.275000X-1.125000X1.275000X-1.125000X-1.275000X0*%
%ADD25RoundRect,0.250000X0.450000X0.425000X-0.450000X0.425000X-0.450000X-0.425000X0.450000X-0.425000X0*%
%ADD26RoundRect,0.250000X-0.650000X1.000000X-0.650000X-1.000000X0.650000X-1.000000X0.650000X1.000000X0*%
%ADD27R,1.100000X0.250000*%
G04 APERTURE END LIST*
D10*
X130617000Y-66975000D03*
X131267000Y-66975000D03*
X131917000Y-66975000D03*
X132567000Y-66975000D03*
X133217000Y-66975000D03*
X133867000Y-66975000D03*
X134517000Y-66975000D03*
X135167000Y-66975000D03*
X135817000Y-66975000D03*
X136467000Y-66975000D03*
X137117000Y-66975000D03*
X137767000Y-66975000D03*
X138417000Y-66975000D03*
X139067000Y-66975000D03*
X139067000Y-59775000D03*
X138417000Y-59775000D03*
X137767000Y-59775000D03*
X137117000Y-59775000D03*
X136467000Y-59775000D03*
X135817000Y-59775000D03*
X135167000Y-59775000D03*
X134517000Y-59775000D03*
X133867000Y-59775000D03*
X133217000Y-59775000D03*
X132567000Y-59775000D03*
X131917000Y-59775000D03*
X131267000Y-59775000D03*
X130617000Y-59775000D03*
D11*
X158257000Y-88693000D03*
X156432000Y-88693000D03*
D12*
X156432000Y-95043000D03*
X158257000Y-95043000D03*
X124506300Y-53505200D03*
X126331300Y-53505200D03*
D13*
X104454077Y-87462158D03*
X104454077Y-85587158D03*
D14*
X140479000Y-51574800D03*
X143429000Y-51574800D03*
D15*
X153788500Y-95236000D03*
X153788500Y-97136000D03*
D16*
X128052500Y-67600000D03*
X125347500Y-67600000D03*
D11*
X158257000Y-86661000D03*
X156432000Y-86661000D03*
D12*
X126182700Y-51574800D03*
X128007700Y-51574800D03*
D17*
X104962077Y-97244000D03*
X104962077Y-95344000D03*
D18*
X106442000Y-92413000D03*
X107632000Y-92413000D03*
X106442000Y-91593000D03*
X107632000Y-91593000D03*
D19*
X106037000Y-93453000D03*
X106537000Y-93453000D03*
X107037000Y-93453000D03*
X107537000Y-93453000D03*
X108037000Y-93453000D03*
X108037000Y-90553000D03*
X107537000Y-90553000D03*
X107037000Y-90553000D03*
X106537000Y-90553000D03*
X106037000Y-90553000D03*
D20*
X104400000Y-72247500D03*
X104400000Y-74952500D03*
D11*
X111589577Y-88810658D03*
X109764577Y-88810658D03*
X128058500Y-55486400D03*
X126233500Y-55486400D03*
D21*
X159541000Y-71127500D03*
X158591000Y-71127500D03*
X157641000Y-71127500D03*
X157641000Y-73402500D03*
X158591000Y-73402500D03*
X159541000Y-73402500D03*
D15*
X106486077Y-85574658D03*
X106486077Y-87474658D03*
D11*
X111589577Y-93128658D03*
X109764577Y-93128658D03*
X158257000Y-93011000D03*
X156432000Y-93011000D03*
D22*
X127277500Y-94257000D03*
X127277500Y-91557000D03*
D11*
X111589577Y-86778658D03*
X109764577Y-86778658D03*
D21*
X142396000Y-54196500D03*
X141446000Y-54196500D03*
X140496000Y-54196500D03*
X140496000Y-56471500D03*
X141446000Y-56471500D03*
X142396000Y-56471500D03*
D23*
X129769000Y-94363800D03*
D24*
X130524000Y-89738800D03*
X133574000Y-89738800D03*
X130524000Y-86388800D03*
X133574000Y-86388800D03*
D23*
X134329000Y-94363800D03*
D17*
X151629500Y-97136000D03*
X151629500Y-95236000D03*
D25*
X127146000Y-57518400D03*
X124446000Y-57518400D03*
D22*
X136802500Y-94257000D03*
X136802500Y-91557000D03*
D18*
X153106500Y-92307000D03*
X154296500Y-92307000D03*
X153106500Y-91487000D03*
X154296500Y-91487000D03*
D19*
X152701500Y-93347000D03*
X153201500Y-93347000D03*
X153701500Y-93347000D03*
X154201500Y-93347000D03*
X154701500Y-93347000D03*
X154701500Y-90447000D03*
X154201500Y-90447000D03*
X153701500Y-90447000D03*
X153201500Y-90447000D03*
X152701500Y-90447000D03*
D15*
X107121077Y-95344000D03*
X107121077Y-97244000D03*
X153153500Y-85457000D03*
X153153500Y-87357000D03*
D13*
X151121500Y-87344500D03*
X151121500Y-85469500D03*
D26*
X127095000Y-60105000D03*
X127095000Y-64105000D03*
D12*
X109764577Y-95160658D03*
X111589577Y-95160658D03*
D27*
X107283000Y-71654000D03*
X107283000Y-72154000D03*
X107283000Y-72654000D03*
X107283000Y-73154000D03*
X107283000Y-73654000D03*
X111583000Y-73654000D03*
X111583000Y-73154000D03*
X111583000Y-72654000D03*
X111583000Y-72154000D03*
X111583000Y-71654000D03*
M02*
