G04 #@! TF.GenerationSoftware,KiCad,Pcbnew,9.0.0*
G04 #@! TF.CreationDate,2025-04-21T00:35:21+01:00*
G04 #@! TF.ProjectId,PicoChainZero,5069636f-4368-4616-996e-5a65726f2e6b,v1.2*
G04 #@! TF.SameCoordinates,Original*
G04 #@! TF.FileFunction,Legend,Bot*
G04 #@! TF.FilePolarity,Positive*
%FSLAX46Y46*%
G04 Gerber Fmt 4.6, Leading zero omitted, Abs format (unit mm)*
G04 Created by KiCad (PCBNEW 9.0.0) date 2025-04-21 00:35:21*
%MOMM*%
%LPD*%
G01*
G04 APERTURE LIST*
%ADD10C,0.000000*%
%ADD11C,0.062500*%
%ADD12C,0.300000*%
%ADD13C,0.093750*%
%ADD14C,3.200000*%
%ADD15R,1.500000X1.500000*%
%ADD16C,1.500000*%
%ADD17R,2.600000X2.600000*%
%ADD18C,2.600000*%
%ADD19R,1.700000X1.700000*%
%ADD20O,1.700000X1.700000*%
%ADD21C,0.700000*%
%ADD22O,0.900000X2.400000*%
%ADD23O,0.900000X1.700000*%
G04 APERTURE END LIST*
D10*
G36*
X135877301Y-97322143D02*
G01*
X135876763Y-97339337D01*
X135875855Y-97355228D01*
X135874567Y-97369910D01*
X135872890Y-97383479D01*
X135870813Y-97396028D01*
X135868327Y-97407652D01*
X135865423Y-97418446D01*
X135862091Y-97428504D01*
X135858320Y-97437922D01*
X135854103Y-97446794D01*
X135849428Y-97455214D01*
X135844286Y-97463277D01*
X135838668Y-97471078D01*
X135832564Y-97478711D01*
X135825964Y-97486272D01*
X135820831Y-97491743D01*
X135815263Y-97497229D01*
X135809242Y-97502678D01*
X135802750Y-97508040D01*
X135795769Y-97513265D01*
X135788282Y-97518301D01*
X135780271Y-97523099D01*
X135771717Y-97527606D01*
X135767232Y-97529735D01*
X135762604Y-97531773D01*
X135757832Y-97533713D01*
X135752913Y-97535549D01*
X135747845Y-97537275D01*
X135742626Y-97538883D01*
X135737254Y-97540369D01*
X135731726Y-97541725D01*
X135726040Y-97542945D01*
X135720194Y-97544023D01*
X135714186Y-97544953D01*
X135708013Y-97545728D01*
X135701674Y-97546341D01*
X135695166Y-97546788D01*
X135688486Y-97547060D01*
X135681633Y-97547152D01*
X135668106Y-97546788D01*
X135655262Y-97545728D01*
X135643085Y-97544023D01*
X135631556Y-97541725D01*
X135620659Y-97538883D01*
X135610374Y-97535549D01*
X135600685Y-97531773D01*
X135591573Y-97527606D01*
X135583020Y-97523098D01*
X135575010Y-97518301D01*
X135567523Y-97513265D01*
X135560543Y-97508040D01*
X135554052Y-97502678D01*
X135548031Y-97497228D01*
X135542463Y-97491743D01*
X135537330Y-97486272D01*
X135530729Y-97478711D01*
X135524624Y-97471077D01*
X135519005Y-97463275D01*
X135513862Y-97455210D01*
X135509185Y-97446789D01*
X135504965Y-97437915D01*
X135501192Y-97428496D01*
X135497857Y-97418436D01*
X135494950Y-97407641D01*
X135492462Y-97396016D01*
X135490383Y-97383467D01*
X135488704Y-97369899D01*
X135487414Y-97355218D01*
X135486505Y-97339330D01*
X135485966Y-97322138D01*
X135485798Y-97304477D01*
X135581383Y-97304477D01*
X135581659Y-97327914D01*
X135582018Y-97338091D01*
X135582537Y-97347351D01*
X135583227Y-97355776D01*
X135584097Y-97363447D01*
X135585155Y-97370449D01*
X135586413Y-97376863D01*
X135587880Y-97382772D01*
X135589564Y-97388259D01*
X135591477Y-97393405D01*
X135593628Y-97398294D01*
X135596025Y-97403008D01*
X135598680Y-97407629D01*
X135601601Y-97412241D01*
X135604798Y-97416924D01*
X135606164Y-97418756D01*
X135607621Y-97420558D01*
X135610797Y-97424067D01*
X135614307Y-97427435D01*
X135618132Y-97430649D01*
X135622253Y-97433692D01*
X135626652Y-97436550D01*
X135631307Y-97439208D01*
X135636201Y-97441650D01*
X135641314Y-97443861D01*
X135646628Y-97445827D01*
X135652122Y-97447531D01*
X135657778Y-97448960D01*
X135663576Y-97450097D01*
X135669497Y-97450928D01*
X135675523Y-97451438D01*
X135681633Y-97451611D01*
X135687749Y-97451438D01*
X135693778Y-97450929D01*
X135699703Y-97450100D01*
X135705504Y-97448964D01*
X135711162Y-97447537D01*
X135716658Y-97445834D01*
X135721972Y-97443870D01*
X135727086Y-97441660D01*
X135731979Y-97439219D01*
X135736634Y-97436562D01*
X135741030Y-97433704D01*
X135745150Y-97430660D01*
X135748972Y-97427445D01*
X135752479Y-97424074D01*
X135755651Y-97420562D01*
X135758468Y-97416924D01*
X135761666Y-97412240D01*
X135764588Y-97407627D01*
X135767244Y-97403002D01*
X135769643Y-97398279D01*
X135771796Y-97393377D01*
X135773711Y-97388210D01*
X135775398Y-97382695D01*
X135776867Y-97376747D01*
X135778127Y-97370284D01*
X135779188Y-97363221D01*
X135780060Y-97355475D01*
X135780752Y-97346960D01*
X135781273Y-97337595D01*
X135781634Y-97327294D01*
X135781843Y-97315974D01*
X135781911Y-97303550D01*
X135781634Y-97280111D01*
X135781273Y-97269931D01*
X135780752Y-97260669D01*
X135780060Y-97252241D01*
X135779188Y-97244566D01*
X135778127Y-97237561D01*
X135776867Y-97231144D01*
X135775398Y-97225233D01*
X135773711Y-97219745D01*
X135771796Y-97214598D01*
X135769643Y-97209710D01*
X135767244Y-97204999D01*
X135764588Y-97200382D01*
X135761666Y-97195777D01*
X135758468Y-97191102D01*
X135757105Y-97189271D01*
X135755651Y-97187469D01*
X135752479Y-97183960D01*
X135748972Y-97180591D01*
X135745150Y-97177378D01*
X135741030Y-97174335D01*
X135736634Y-97171477D01*
X135731979Y-97168819D01*
X135727086Y-97166377D01*
X135721972Y-97164166D01*
X135716658Y-97162200D01*
X135711162Y-97160496D01*
X135705504Y-97159067D01*
X135699703Y-97157930D01*
X135693778Y-97157098D01*
X135687749Y-97156589D01*
X135681633Y-97156415D01*
X135675523Y-97156588D01*
X135669497Y-97157097D01*
X135663576Y-97157927D01*
X135657778Y-97159063D01*
X135652122Y-97160490D01*
X135646628Y-97162193D01*
X135641314Y-97164157D01*
X135636201Y-97166367D01*
X135631307Y-97168808D01*
X135626652Y-97171465D01*
X135622253Y-97174323D01*
X135618132Y-97177367D01*
X135614307Y-97180582D01*
X135610797Y-97183952D01*
X135607621Y-97187464D01*
X135604798Y-97191102D01*
X135601601Y-97195778D01*
X135598680Y-97200384D01*
X135596025Y-97205005D01*
X135593628Y-97209725D01*
X135591477Y-97214627D01*
X135589564Y-97219794D01*
X135587880Y-97225310D01*
X135586413Y-97231260D01*
X135585155Y-97237726D01*
X135584097Y-97244792D01*
X135583227Y-97252542D01*
X135582537Y-97261059D01*
X135582018Y-97270428D01*
X135581659Y-97280731D01*
X135581450Y-97292053D01*
X135581383Y-97304477D01*
X135485798Y-97304477D01*
X135485789Y-97303550D01*
X135485966Y-97285117D01*
X135486505Y-97268062D01*
X135487414Y-97252292D01*
X135488704Y-97237714D01*
X135490383Y-97224235D01*
X135492462Y-97211761D01*
X135494950Y-97200199D01*
X135497857Y-97189455D01*
X135501192Y-97179436D01*
X135504965Y-97170049D01*
X135509185Y-97161199D01*
X135513862Y-97152795D01*
X135519005Y-97144741D01*
X135524624Y-97136946D01*
X135530729Y-97129315D01*
X135537330Y-97121755D01*
X135542463Y-97116283D01*
X135548031Y-97110796D01*
X135554052Y-97105344D01*
X135560543Y-97099978D01*
X135567523Y-97094749D01*
X135575010Y-97089709D01*
X135583020Y-97084907D01*
X135591573Y-97080394D01*
X135596058Y-97078262D01*
X135600685Y-97076222D01*
X135605456Y-97074280D01*
X135610374Y-97072441D01*
X135615441Y-97070714D01*
X135620659Y-97069103D01*
X135626030Y-97067615D01*
X135631556Y-97066257D01*
X135637241Y-97065035D01*
X135643085Y-97063955D01*
X135649091Y-97063024D01*
X135655262Y-97062248D01*
X135661600Y-97061634D01*
X135668106Y-97061187D01*
X135674783Y-97060914D01*
X135681633Y-97060822D01*
X135695166Y-97061187D01*
X135708013Y-97062248D01*
X135720194Y-97063955D01*
X135731726Y-97066257D01*
X135742626Y-97069103D01*
X135752913Y-97072441D01*
X135762604Y-97076222D01*
X135771717Y-97080394D01*
X135780271Y-97084907D01*
X135788282Y-97089709D01*
X135795769Y-97094750D01*
X135802750Y-97099978D01*
X135809242Y-97105344D01*
X135815263Y-97110796D01*
X135820831Y-97116283D01*
X135825964Y-97121755D01*
X135832564Y-97129319D01*
X135838668Y-97136953D01*
X135844286Y-97144751D01*
X135849428Y-97152806D01*
X135854103Y-97161211D01*
X135858320Y-97170060D01*
X135862091Y-97179447D01*
X135865423Y-97189465D01*
X135868327Y-97200208D01*
X135870813Y-97211768D01*
X135872890Y-97224241D01*
X135874567Y-97237718D01*
X135875855Y-97252294D01*
X135876763Y-97268063D01*
X135877301Y-97285117D01*
X135877478Y-97303550D01*
X135877301Y-97322143D01*
G37*
G36*
X134258735Y-97811453D02*
G01*
X134267948Y-97812112D01*
X134276970Y-97813211D01*
X134285791Y-97814749D01*
X134294405Y-97816727D01*
X134302802Y-97819144D01*
X134310975Y-97822000D01*
X134318914Y-97825296D01*
X134326611Y-97829030D01*
X134334059Y-97833203D01*
X134341248Y-97837815D01*
X134348171Y-97842866D01*
X134354819Y-97848356D01*
X134361184Y-97854285D01*
X134367257Y-97860651D01*
X134373031Y-97867457D01*
X134374909Y-97867457D01*
X134374909Y-97816868D01*
X134470477Y-97816868D01*
X134470477Y-98291928D01*
X134374909Y-98291928D01*
X134374909Y-98006099D01*
X134374776Y-97999717D01*
X134374382Y-97993564D01*
X134373735Y-97987637D01*
X134372844Y-97981936D01*
X134371717Y-97976458D01*
X134370362Y-97971201D01*
X134368787Y-97966164D01*
X134367000Y-97961346D01*
X134365011Y-97956744D01*
X134362826Y-97952357D01*
X134360455Y-97948183D01*
X134357905Y-97944220D01*
X134355185Y-97940467D01*
X134352303Y-97936923D01*
X134349268Y-97933585D01*
X134346086Y-97930451D01*
X134342768Y-97927521D01*
X134339320Y-97924791D01*
X134335752Y-97922262D01*
X134332071Y-97919930D01*
X134328286Y-97917795D01*
X134324404Y-97915854D01*
X134320435Y-97914106D01*
X134316386Y-97912549D01*
X134308083Y-97910002D01*
X134299560Y-97908200D01*
X134290884Y-97907128D01*
X134282120Y-97906774D01*
X134277646Y-97906852D01*
X134273348Y-97907089D01*
X134269204Y-97907491D01*
X134265192Y-97908064D01*
X134261290Y-97908812D01*
X134257475Y-97909742D01*
X134253727Y-97910859D01*
X134250023Y-97912168D01*
X134246340Y-97913676D01*
X134242658Y-97915387D01*
X134238954Y-97917308D01*
X134235206Y-97919443D01*
X134231391Y-97921799D01*
X134227490Y-97924380D01*
X134223478Y-97927193D01*
X134219334Y-97930243D01*
X134150014Y-97847772D01*
X134155494Y-97843655D01*
X134161045Y-97839745D01*
X134166673Y-97836049D01*
X134172383Y-97832575D01*
X134178180Y-97829332D01*
X134184070Y-97826327D01*
X134190060Y-97823570D01*
X134196153Y-97821069D01*
X134202357Y-97818831D01*
X134208677Y-97816864D01*
X134215118Y-97815178D01*
X134221685Y-97813779D01*
X134228386Y-97812678D01*
X134235224Y-97811880D01*
X134242206Y-97811396D01*
X134249338Y-97811233D01*
X134258735Y-97811453D01*
G37*
G36*
X132219723Y-97061041D02*
G01*
X132228937Y-97061701D01*
X132237960Y-97062800D01*
X132246784Y-97064338D01*
X132255400Y-97066316D01*
X132263799Y-97068733D01*
X132271974Y-97071589D01*
X132279915Y-97074884D01*
X132287615Y-97078619D01*
X132295065Y-97082792D01*
X132302257Y-97087404D01*
X132309182Y-97092455D01*
X132315831Y-97097945D01*
X132322198Y-97103873D01*
X132328272Y-97110240D01*
X132334045Y-97117046D01*
X132335898Y-97117046D01*
X132335898Y-97066457D01*
X132431492Y-97066457D01*
X132431492Y-97541517D01*
X132335898Y-97541517D01*
X132335898Y-97255740D01*
X132335765Y-97249354D01*
X132335371Y-97243197D01*
X132334725Y-97237267D01*
X132333835Y-97231562D01*
X132332709Y-97226082D01*
X132331355Y-97220823D01*
X132329781Y-97215785D01*
X132327997Y-97210965D01*
X132326009Y-97206362D01*
X132323826Y-97201975D01*
X132321457Y-97197801D01*
X132318909Y-97193839D01*
X132316191Y-97190086D01*
X132313311Y-97186542D01*
X132310277Y-97183205D01*
X132307098Y-97180073D01*
X132303781Y-97177144D01*
X132300335Y-97174416D01*
X132296769Y-97171888D01*
X132293089Y-97169558D01*
X132289305Y-97167424D01*
X132285425Y-97165485D01*
X132281457Y-97163738D01*
X132277408Y-97162183D01*
X132269106Y-97159639D01*
X132260582Y-97157839D01*
X132251903Y-97156769D01*
X132243135Y-97156416D01*
X132238657Y-97156493D01*
X132234356Y-97156731D01*
X132230209Y-97157132D01*
X132226196Y-97157704D01*
X132222293Y-97158452D01*
X132218479Y-97159381D01*
X132214731Y-97160496D01*
X132211028Y-97161803D01*
X132207347Y-97163308D01*
X132203666Y-97165016D01*
X132199963Y-97166932D01*
X132196217Y-97169063D01*
X132192404Y-97171412D01*
X132188504Y-97173986D01*
X132184493Y-97176791D01*
X132180349Y-97179831D01*
X132111002Y-97097361D01*
X132116491Y-97093244D01*
X132122049Y-97089334D01*
X132127681Y-97085637D01*
X132133394Y-97082164D01*
X132139192Y-97078920D01*
X132145082Y-97075916D01*
X132151070Y-97073159D01*
X132157162Y-97070657D01*
X132163363Y-97068419D01*
X132169679Y-97066453D01*
X132176117Y-97064766D01*
X132182681Y-97063368D01*
X132189378Y-97062266D01*
X132196215Y-97061469D01*
X132203195Y-97060985D01*
X132210326Y-97060822D01*
X132219723Y-97061041D01*
G37*
G36*
X131710847Y-97272239D02*
G01*
X131711735Y-97288461D01*
X131712036Y-97305402D01*
X131711708Y-97323240D01*
X131710739Y-97340230D01*
X131709154Y-97356390D01*
X131706975Y-97371738D01*
X131704226Y-97386293D01*
X131700931Y-97400073D01*
X131697114Y-97413098D01*
X131692799Y-97425384D01*
X131688008Y-97436952D01*
X131682767Y-97447820D01*
X131677097Y-97458005D01*
X131671024Y-97467528D01*
X131664571Y-97476405D01*
X131657761Y-97484655D01*
X131650618Y-97492298D01*
X131643165Y-97499352D01*
X131635428Y-97505834D01*
X131627428Y-97511764D01*
X131619190Y-97517160D01*
X131610738Y-97522041D01*
X131602095Y-97526425D01*
X131593284Y-97530331D01*
X131575256Y-97536781D01*
X131556843Y-97541540D01*
X131538235Y-97544757D01*
X131519621Y-97546578D01*
X131501190Y-97547152D01*
X131489280Y-97546886D01*
X131477451Y-97546079D01*
X131465720Y-97544718D01*
X131454105Y-97542789D01*
X131442621Y-97540277D01*
X131431285Y-97537170D01*
X131420114Y-97533453D01*
X131409125Y-97529114D01*
X131398334Y-97524137D01*
X131387757Y-97518510D01*
X131377412Y-97512219D01*
X131367315Y-97505249D01*
X131357483Y-97497588D01*
X131347932Y-97489221D01*
X131338679Y-97480136D01*
X131329740Y-97470317D01*
X131399087Y-97411315D01*
X131404489Y-97416618D01*
X131410132Y-97421629D01*
X131415996Y-97426341D01*
X131422062Y-97430747D01*
X131428307Y-97434841D01*
X131434713Y-97438614D01*
X131441259Y-97442061D01*
X131447923Y-97445175D01*
X131454686Y-97447948D01*
X131461527Y-97450373D01*
X131468426Y-97452445D01*
X131475362Y-97454155D01*
X131482315Y-97455497D01*
X131489264Y-97456464D01*
X131496188Y-97457049D01*
X131503069Y-97457246D01*
X131509167Y-97457131D01*
X131515155Y-97456785D01*
X131521028Y-97456209D01*
X131526779Y-97455403D01*
X131532404Y-97454366D01*
X131537897Y-97453100D01*
X131543253Y-97451604D01*
X131548465Y-97449879D01*
X131553529Y-97447925D01*
X131558440Y-97445741D01*
X131563190Y-97443328D01*
X131567776Y-97440687D01*
X131572192Y-97437817D01*
X131576432Y-97434719D01*
X131580490Y-97431392D01*
X131584362Y-97427838D01*
X131588041Y-97424055D01*
X131591523Y-97420045D01*
X131594802Y-97415807D01*
X131597872Y-97411342D01*
X131600728Y-97406649D01*
X131603364Y-97401730D01*
X131605775Y-97396584D01*
X131607955Y-97391211D01*
X131609900Y-97385612D01*
X131611603Y-97379786D01*
X131613059Y-97373734D01*
X131614263Y-97367456D01*
X131615208Y-97360953D01*
X131615890Y-97354223D01*
X131616304Y-97347269D01*
X131616443Y-97340089D01*
X131320348Y-97340089D01*
X131320348Y-97261402D01*
X131415942Y-97261402D01*
X131616443Y-97261402D01*
X131616152Y-97254732D01*
X131615630Y-97248261D01*
X131614881Y-97241990D01*
X131613910Y-97235919D01*
X131612722Y-97230050D01*
X131611322Y-97224383D01*
X131609714Y-97218920D01*
X131607904Y-97213660D01*
X131605896Y-97208605D01*
X131603695Y-97203756D01*
X131601306Y-97199114D01*
X131598734Y-97194678D01*
X131595983Y-97190451D01*
X131593058Y-97186433D01*
X131589965Y-97182625D01*
X131586707Y-97179028D01*
X131583290Y-97175642D01*
X131579719Y-97172468D01*
X131575998Y-97169508D01*
X131572132Y-97166761D01*
X131568126Y-97164230D01*
X131563985Y-97161914D01*
X131559713Y-97159815D01*
X131555316Y-97157933D01*
X131550798Y-97156270D01*
X131546163Y-97154825D01*
X131541418Y-97153601D01*
X131536567Y-97152597D01*
X131531613Y-97151815D01*
X131526563Y-97151255D01*
X131521422Y-97150919D01*
X131516193Y-97150807D01*
X131510966Y-97150919D01*
X131505832Y-97151255D01*
X131500795Y-97151815D01*
X131495859Y-97152597D01*
X131491027Y-97153601D01*
X131486305Y-97154825D01*
X131481697Y-97156270D01*
X131477207Y-97157933D01*
X131472839Y-97159815D01*
X131468598Y-97161914D01*
X131464487Y-97164230D01*
X131460511Y-97166761D01*
X131456675Y-97169508D01*
X131452982Y-97172468D01*
X131449437Y-97175642D01*
X131446045Y-97179028D01*
X131442809Y-97182625D01*
X131439733Y-97186433D01*
X131436822Y-97190451D01*
X131434081Y-97194679D01*
X131431513Y-97199114D01*
X131429123Y-97203756D01*
X131426915Y-97208606D01*
X131424894Y-97213660D01*
X131423063Y-97218920D01*
X131421427Y-97224384D01*
X131419990Y-97230050D01*
X131418756Y-97235919D01*
X131417730Y-97241990D01*
X131416916Y-97248261D01*
X131416319Y-97254732D01*
X131415942Y-97261402D01*
X131320348Y-97261402D01*
X131320348Y-97261376D01*
X131320612Y-97249997D01*
X131321395Y-97238888D01*
X131322683Y-97228054D01*
X131324461Y-97217503D01*
X131326716Y-97207239D01*
X131329434Y-97197270D01*
X131332599Y-97187600D01*
X131336199Y-97178236D01*
X131340220Y-97169183D01*
X131344646Y-97160449D01*
X131349464Y-97152038D01*
X131354660Y-97143957D01*
X131360220Y-97136212D01*
X131366129Y-97128808D01*
X131372373Y-97121753D01*
X131378940Y-97115051D01*
X131385813Y-97108709D01*
X131392979Y-97102732D01*
X131400425Y-97097128D01*
X131408136Y-97091901D01*
X131416097Y-97087058D01*
X131424295Y-97082604D01*
X131432716Y-97078546D01*
X131441345Y-97074890D01*
X131450168Y-97071642D01*
X131459172Y-97068807D01*
X131468343Y-97066392D01*
X131477665Y-97064402D01*
X131487125Y-97062845D01*
X131496709Y-97061725D01*
X131506403Y-97061048D01*
X131516192Y-97060821D01*
X131533535Y-97061540D01*
X131550990Y-97063760D01*
X131559707Y-97065463D01*
X131568388Y-97067576D01*
X131577012Y-97070111D01*
X131585559Y-97073081D01*
X131594006Y-97076498D01*
X131602333Y-97080372D01*
X131610518Y-97084716D01*
X131618540Y-97089541D01*
X131626378Y-97094861D01*
X131634010Y-97100685D01*
X131641415Y-97107026D01*
X131648573Y-97113897D01*
X131655461Y-97121308D01*
X131662059Y-97129272D01*
X131668346Y-97137800D01*
X131674299Y-97146904D01*
X131679898Y-97156596D01*
X131685122Y-97166888D01*
X131689949Y-97177792D01*
X131694358Y-97189320D01*
X131698328Y-97201482D01*
X131701837Y-97214292D01*
X131704865Y-97227761D01*
X131707390Y-97241900D01*
X131709391Y-97256722D01*
X131709830Y-97261402D01*
X131710847Y-97272239D01*
G37*
G36*
X133037256Y-98152308D02*
G01*
X133037075Y-98159980D01*
X133036535Y-98167530D01*
X133035639Y-98174948D01*
X133034391Y-98182227D01*
X133032793Y-98189360D01*
X133030849Y-98196337D01*
X133028562Y-98203152D01*
X133025936Y-98209796D01*
X133022973Y-98216262D01*
X133019677Y-98222541D01*
X133016051Y-98228627D01*
X133012099Y-98234510D01*
X133007824Y-98240183D01*
X133003228Y-98245638D01*
X132998316Y-98250867D01*
X132993090Y-98255862D01*
X132987554Y-98260616D01*
X132981711Y-98265120D01*
X132975565Y-98269367D01*
X132969118Y-98273349D01*
X132962374Y-98277057D01*
X132955335Y-98280485D01*
X132948007Y-98283623D01*
X132940391Y-98286465D01*
X132932491Y-98289002D01*
X132924310Y-98291226D01*
X132915851Y-98293130D01*
X132907118Y-98294705D01*
X132898115Y-98295944D01*
X132888843Y-98296838D01*
X132879307Y-98297381D01*
X132869510Y-98297564D01*
X132857758Y-98297387D01*
X132846725Y-98296856D01*
X132836382Y-98295965D01*
X132826703Y-98294711D01*
X132817660Y-98293088D01*
X132809225Y-98291094D01*
X132801373Y-98288723D01*
X132794074Y-98285972D01*
X132787302Y-98282836D01*
X132781029Y-98279310D01*
X132775229Y-98275392D01*
X132769873Y-98271076D01*
X132764935Y-98266359D01*
X132760387Y-98261235D01*
X132756202Y-98255701D01*
X132752352Y-98249753D01*
X132750500Y-98249753D01*
X132750500Y-98291928D01*
X132654880Y-98291928D01*
X132654880Y-98090421D01*
X132750474Y-98090421D01*
X132750474Y-98125108D01*
X132750554Y-98131860D01*
X132750798Y-98138238D01*
X132751211Y-98144253D01*
X132751797Y-98149914D01*
X132752560Y-98155232D01*
X132753506Y-98160219D01*
X132754639Y-98164883D01*
X132755964Y-98169237D01*
X132757485Y-98173289D01*
X132759206Y-98177051D01*
X132761134Y-98180534D01*
X132763271Y-98183747D01*
X132765623Y-98186701D01*
X132768195Y-98189406D01*
X132770991Y-98191874D01*
X132774015Y-98194115D01*
X132777273Y-98196138D01*
X132780768Y-98197955D01*
X132784507Y-98199576D01*
X132788492Y-98201011D01*
X132792729Y-98202271D01*
X132797223Y-98203367D01*
X132801978Y-98204309D01*
X132806999Y-98205107D01*
X132817856Y-98206314D01*
X132829831Y-98207073D01*
X132842962Y-98207466D01*
X132857286Y-98207579D01*
X132868948Y-98207255D01*
X132879710Y-98206308D01*
X132889590Y-98204773D01*
X132898611Y-98202687D01*
X132902805Y-98201448D01*
X132906792Y-98200084D01*
X132910575Y-98198601D01*
X132914155Y-98197001D01*
X132917535Y-98195291D01*
X132920719Y-98193474D01*
X132923707Y-98191554D01*
X132926504Y-98189537D01*
X132929112Y-98187427D01*
X132931533Y-98185228D01*
X132933769Y-98182945D01*
X132935824Y-98180582D01*
X132937700Y-98178143D01*
X132939399Y-98175634D01*
X132940924Y-98173058D01*
X132942278Y-98170420D01*
X132944482Y-98164976D01*
X132946030Y-98159339D01*
X132946944Y-98153543D01*
X132947244Y-98147624D01*
X132947167Y-98144408D01*
X132946936Y-98141265D01*
X132946549Y-98138198D01*
X132946007Y-98135207D01*
X132945308Y-98132295D01*
X132944452Y-98129464D01*
X132943438Y-98126716D01*
X132942265Y-98124052D01*
X132940933Y-98121475D01*
X132939441Y-98118986D01*
X132937789Y-98116588D01*
X132935975Y-98114281D01*
X132933999Y-98112069D01*
X132931861Y-98109952D01*
X132929559Y-98107934D01*
X132927093Y-98106015D01*
X132924463Y-98104198D01*
X132921667Y-98102484D01*
X132918705Y-98100875D01*
X132915576Y-98099374D01*
X132912280Y-98097983D01*
X132908815Y-98096702D01*
X132905182Y-98095534D01*
X132901379Y-98094481D01*
X132897407Y-98093545D01*
X132893263Y-98092728D01*
X132888947Y-98092031D01*
X132884460Y-98091456D01*
X132879800Y-98091006D01*
X132874966Y-98090682D01*
X132869957Y-98090487D01*
X132864774Y-98090421D01*
X132750474Y-98090421D01*
X132654880Y-98090421D01*
X132654880Y-97967708D01*
X132655115Y-97956956D01*
X132655814Y-97946652D01*
X132656969Y-97936790D01*
X132658573Y-97927362D01*
X132660616Y-97918362D01*
X132663092Y-97909782D01*
X132665991Y-97901615D01*
X132669306Y-97893855D01*
X132673029Y-97886494D01*
X132677152Y-97879525D01*
X132681666Y-97872942D01*
X132686563Y-97866736D01*
X132691836Y-97860902D01*
X132697477Y-97855432D01*
X132703476Y-97850319D01*
X132709827Y-97845556D01*
X132716521Y-97841136D01*
X132723550Y-97837053D01*
X132730905Y-97833298D01*
X132738580Y-97829865D01*
X132746565Y-97826748D01*
X132754853Y-97823938D01*
X132763436Y-97821429D01*
X132772305Y-97819214D01*
X132781453Y-97817286D01*
X132790871Y-97815638D01*
X132810485Y-97813153D01*
X132831084Y-97811704D01*
X132852603Y-97811233D01*
X132865735Y-97811455D01*
X132878432Y-97812136D01*
X132890700Y-97813293D01*
X132902542Y-97814947D01*
X132913962Y-97817117D01*
X132924964Y-97819822D01*
X132935552Y-97823082D01*
X132945730Y-97826916D01*
X132955501Y-97831344D01*
X132964870Y-97836384D01*
X132973841Y-97842056D01*
X132982418Y-97848380D01*
X132990605Y-97855376D01*
X132998404Y-97863061D01*
X133005822Y-97871456D01*
X133012861Y-97880580D01*
X132937878Y-97937731D01*
X132936278Y-97935235D01*
X132934636Y-97932842D01*
X132932949Y-97930549D01*
X132931213Y-97928357D01*
X132929424Y-97926262D01*
X132927578Y-97924263D01*
X132925673Y-97922360D01*
X132923704Y-97920549D01*
X132921668Y-97918831D01*
X132919560Y-97917203D01*
X132917379Y-97915663D01*
X132915119Y-97914211D01*
X132912778Y-97912845D01*
X132910352Y-97911563D01*
X132907836Y-97910363D01*
X132905228Y-97909245D01*
X132902524Y-97908206D01*
X132899721Y-97907245D01*
X132896814Y-97906361D01*
X132893800Y-97905552D01*
X132890675Y-97904816D01*
X132887436Y-97904152D01*
X132884079Y-97903559D01*
X132880601Y-97903035D01*
X132873267Y-97902187D01*
X132865403Y-97901596D01*
X132856981Y-97901251D01*
X132847972Y-97901138D01*
X132835602Y-97901329D01*
X132824140Y-97901913D01*
X132813570Y-97902910D01*
X132803877Y-97904338D01*
X132795047Y-97906217D01*
X132787064Y-97908566D01*
X132779913Y-97911403D01*
X132776644Y-97913011D01*
X132773578Y-97914748D01*
X132770713Y-97916617D01*
X132768046Y-97918620D01*
X132765576Y-97920760D01*
X132763300Y-97923038D01*
X132761218Y-97925457D01*
X132759326Y-97928020D01*
X132757624Y-97930730D01*
X132756108Y-97933587D01*
X132754779Y-97936595D01*
X132753632Y-97939756D01*
X132752667Y-97943073D01*
X132751882Y-97946548D01*
X132751275Y-97950182D01*
X132750843Y-97953980D01*
X132750500Y-97962072D01*
X132750500Y-98011734D01*
X132882633Y-98011734D01*
X132892060Y-98011922D01*
X132901196Y-98012479D01*
X132910040Y-98013396D01*
X132918592Y-98014662D01*
X132926851Y-98016268D01*
X132934817Y-98018204D01*
X132942489Y-98020461D01*
X132949868Y-98023028D01*
X132956951Y-98025895D01*
X132963739Y-98029054D01*
X132970231Y-98032493D01*
X132976426Y-98036204D01*
X132982325Y-98040177D01*
X132987926Y-98044401D01*
X132993229Y-98048867D01*
X132998233Y-98053565D01*
X133002938Y-98058485D01*
X133007344Y-98063618D01*
X133011449Y-98068954D01*
X133015254Y-98074482D01*
X133018757Y-98080194D01*
X133021959Y-98086079D01*
X133024858Y-98092128D01*
X133027454Y-98098330D01*
X133029747Y-98104676D01*
X133031736Y-98111157D01*
X133033420Y-98117761D01*
X133034800Y-98124481D01*
X133035873Y-98131305D01*
X133036641Y-98138224D01*
X133037102Y-98145228D01*
X133037154Y-98147624D01*
X133037256Y-98152308D01*
G37*
G36*
X132226466Y-98022571D02*
G01*
X132227355Y-98038794D01*
X132227657Y-98055734D01*
X132227328Y-98073577D01*
X132226359Y-98090571D01*
X132224774Y-98106735D01*
X132222595Y-98122087D01*
X132219846Y-98136646D01*
X132216551Y-98150430D01*
X132212734Y-98163457D01*
X132208419Y-98175747D01*
X132203628Y-98187318D01*
X132198387Y-98198188D01*
X132192717Y-98208376D01*
X132186644Y-98217900D01*
X132180191Y-98226779D01*
X132173381Y-98235031D01*
X132166238Y-98242676D01*
X132158786Y-98249730D01*
X132151048Y-98256214D01*
X132143048Y-98262145D01*
X132134810Y-98267542D01*
X132126358Y-98272424D01*
X132117715Y-98276809D01*
X132108904Y-98280715D01*
X132090876Y-98287166D01*
X132072463Y-98291926D01*
X132053855Y-98295142D01*
X132035241Y-98296963D01*
X132016810Y-98297537D01*
X132004900Y-98297272D01*
X131993073Y-98296465D01*
X131981345Y-98295104D01*
X131969732Y-98293174D01*
X131958252Y-98290663D01*
X131946919Y-98287556D01*
X131935752Y-98283839D01*
X131924765Y-98279499D01*
X131913976Y-98274523D01*
X131903401Y-98268895D01*
X131893056Y-98262604D01*
X131882958Y-98255635D01*
X131873123Y-98247973D01*
X131863568Y-98239607D01*
X131854308Y-98230521D01*
X131845361Y-98220702D01*
X131914708Y-98161647D01*
X131920110Y-98166959D01*
X131925754Y-98171977D01*
X131931621Y-98176693D01*
X131937689Y-98181102D01*
X131943938Y-98185197D01*
X131950347Y-98188970D01*
X131956896Y-98192416D01*
X131963563Y-98195527D01*
X131970328Y-98198297D01*
X131977171Y-98200720D01*
X131984070Y-98202788D01*
X131991004Y-98204495D01*
X131997955Y-98205834D01*
X132004899Y-98206799D01*
X132011817Y-98207383D01*
X132018689Y-98207579D01*
X132024787Y-98207463D01*
X132030775Y-98207118D01*
X132036648Y-98206542D01*
X132042400Y-98205735D01*
X132048024Y-98204699D01*
X132053517Y-98203433D01*
X132058873Y-98201938D01*
X132064085Y-98200213D01*
X132069150Y-98198258D01*
X132074060Y-98196075D01*
X132078810Y-98193663D01*
X132083396Y-98191022D01*
X132087812Y-98188153D01*
X132092052Y-98185056D01*
X132096110Y-98181730D01*
X132099982Y-98178177D01*
X132103661Y-98174396D01*
X132107143Y-98170387D01*
X132110422Y-98166151D01*
X132113492Y-98161687D01*
X132116348Y-98156997D01*
X132118984Y-98152080D01*
X132121395Y-98146936D01*
X132123575Y-98141566D01*
X132125520Y-98135969D01*
X132127223Y-98130147D01*
X132128679Y-98124098D01*
X132129883Y-98117824D01*
X132130828Y-98111324D01*
X132131511Y-98104599D01*
X132131924Y-98097649D01*
X132132063Y-98090474D01*
X131836021Y-98090474D01*
X131836021Y-98011734D01*
X131931562Y-98011734D01*
X132132063Y-98011734D01*
X132131772Y-98005068D01*
X132131249Y-97998601D01*
X132130500Y-97992334D01*
X132129529Y-97986266D01*
X132128342Y-97980399D01*
X132126941Y-97974735D01*
X132125334Y-97969273D01*
X132123524Y-97964014D01*
X132121516Y-97958960D01*
X132119315Y-97954111D01*
X132116926Y-97949469D01*
X132114354Y-97945033D01*
X132111603Y-97940806D01*
X132108678Y-97936787D01*
X132105585Y-97932978D01*
X132102327Y-97929379D01*
X132098910Y-97925992D01*
X132095339Y-97922817D01*
X132091618Y-97919855D01*
X132087752Y-97917107D01*
X132083746Y-97914574D01*
X132079604Y-97912256D01*
X132075333Y-97910156D01*
X132070935Y-97908272D01*
X132066417Y-97906607D01*
X132061783Y-97905161D01*
X132057038Y-97903936D01*
X132052186Y-97902931D01*
X132047233Y-97902148D01*
X132042183Y-97901587D01*
X132037041Y-97901251D01*
X132031812Y-97901138D01*
X132026586Y-97901251D01*
X132021451Y-97901587D01*
X132016413Y-97902148D01*
X132011476Y-97902931D01*
X132006644Y-97903936D01*
X132001921Y-97905161D01*
X131997311Y-97906607D01*
X131992819Y-97908272D01*
X131988450Y-97910156D01*
X131984207Y-97912256D01*
X131980094Y-97914574D01*
X131976117Y-97917107D01*
X131972279Y-97919855D01*
X131968585Y-97922817D01*
X131965039Y-97925992D01*
X131961645Y-97929379D01*
X131958407Y-97932978D01*
X131955331Y-97936787D01*
X131952419Y-97940806D01*
X131949678Y-97945033D01*
X131947110Y-97949469D01*
X131944720Y-97954111D01*
X131942512Y-97958960D01*
X131940491Y-97964014D01*
X131938661Y-97969273D01*
X131937027Y-97974735D01*
X131935592Y-97980400D01*
X131934361Y-97986266D01*
X131933338Y-97992334D01*
X131932528Y-97998601D01*
X131931934Y-98005068D01*
X131931562Y-98011734D01*
X131836021Y-98011734D01*
X131836021Y-98011707D01*
X131836284Y-98000333D01*
X131837067Y-97989229D01*
X131838353Y-97978400D01*
X131840130Y-97967852D01*
X131842382Y-97957592D01*
X131845097Y-97947626D01*
X131848260Y-97937959D01*
X131851857Y-97928598D01*
X131855873Y-97919548D01*
X131860296Y-97910816D01*
X131865110Y-97902408D01*
X131870302Y-97894329D01*
X131875858Y-97886586D01*
X131881763Y-97879184D01*
X131888004Y-97872130D01*
X131894566Y-97865429D01*
X131901436Y-97859088D01*
X131908599Y-97853113D01*
X131916042Y-97847509D01*
X131923749Y-97842283D01*
X131931708Y-97837440D01*
X131939904Y-97832987D01*
X131948323Y-97828930D01*
X131956951Y-97825274D01*
X131965774Y-97822026D01*
X131974778Y-97819191D01*
X131983948Y-97816777D01*
X131993272Y-97814787D01*
X132002734Y-97813229D01*
X132012321Y-97812109D01*
X132022018Y-97811433D01*
X132031812Y-97811206D01*
X132049146Y-97811925D01*
X132066595Y-97814143D01*
X132075309Y-97815844D01*
X132083988Y-97817956D01*
X132092611Y-97820490D01*
X132101156Y-97823458D01*
X132109603Y-97826872D01*
X132117929Y-97830744D01*
X132126114Y-97835086D01*
X132134136Y-97839910D01*
X132141975Y-97845226D01*
X132149608Y-97851048D01*
X132157014Y-97857387D01*
X132164173Y-97864255D01*
X132171063Y-97871664D01*
X132177662Y-97879625D01*
X132183950Y-97888151D01*
X132189905Y-97897253D01*
X132195506Y-97906943D01*
X132200731Y-97917233D01*
X132205560Y-97928135D01*
X132209970Y-97939660D01*
X132213942Y-97951821D01*
X132217453Y-97964629D01*
X132220482Y-97978096D01*
X132223008Y-97992235D01*
X132225010Y-98007056D01*
X132225449Y-98011734D01*
X132226466Y-98022571D01*
G37*
G36*
X133823732Y-93508789D02*
G01*
X133824737Y-93508864D01*
X133825737Y-93508987D01*
X133826731Y-93509158D01*
X133827717Y-93509374D01*
X133828694Y-93509635D01*
X133829660Y-93509939D01*
X133830613Y-93510286D01*
X133831553Y-93510673D01*
X133832477Y-93511101D01*
X133834273Y-93512069D01*
X133835991Y-93513182D01*
X133837617Y-93514429D01*
X133839139Y-93515801D01*
X133840547Y-93517287D01*
X133841827Y-93518877D01*
X133842416Y-93519709D01*
X133842968Y-93520562D01*
X133843483Y-93521437D01*
X133843958Y-93522332D01*
X133844393Y-93523246D01*
X133844785Y-93524177D01*
X133845133Y-93525125D01*
X133845437Y-93526087D01*
X133845693Y-93527063D01*
X133845901Y-93528052D01*
X133929616Y-93977923D01*
X133930084Y-93979920D01*
X133930727Y-93981924D01*
X133931534Y-93983922D01*
X133932493Y-93985900D01*
X133933594Y-93987846D01*
X133934825Y-93989746D01*
X133936175Y-93991588D01*
X133937632Y-93993358D01*
X133939187Y-93995044D01*
X133940827Y-93996632D01*
X133942542Y-93998109D01*
X133944320Y-93999462D01*
X133946150Y-94000679D01*
X133948021Y-94001745D01*
X133949921Y-94002649D01*
X133951840Y-94003376D01*
X134253386Y-94126804D01*
X134255264Y-94127629D01*
X134257255Y-94128318D01*
X134259341Y-94128872D01*
X134261504Y-94129293D01*
X134263728Y-94129581D01*
X134265995Y-94129738D01*
X134268287Y-94129766D01*
X134270587Y-94129665D01*
X134272878Y-94129437D01*
X134275141Y-94129082D01*
X134277360Y-94128602D01*
X134279517Y-94127999D01*
X134281594Y-94127272D01*
X134283574Y-94126425D01*
X134285440Y-94125457D01*
X134287173Y-94124370D01*
X134662987Y-93866454D01*
X134663836Y-93865903D01*
X134664711Y-93865394D01*
X134665608Y-93864928D01*
X134666526Y-93864505D01*
X134667464Y-93864124D01*
X134668419Y-93863786D01*
X134670374Y-93863235D01*
X134672375Y-93862850D01*
X134674407Y-93862631D01*
X134676454Y-93862576D01*
X134678502Y-93862684D01*
X134680534Y-93862953D01*
X134682536Y-93863382D01*
X134684492Y-93863969D01*
X134686387Y-93864713D01*
X134688205Y-93865613D01*
X134689080Y-93866121D01*
X134689931Y-93866667D01*
X134690754Y-93867251D01*
X134691549Y-93867874D01*
X134692313Y-93868534D01*
X134693044Y-93869232D01*
X135009592Y-94185753D01*
X135010288Y-94186487D01*
X135010946Y-94187253D01*
X135011567Y-94188050D01*
X135012150Y-94188876D01*
X135012695Y-94189728D01*
X135013202Y-94190605D01*
X135013670Y-94191505D01*
X135014100Y-94192425D01*
X135014491Y-94193365D01*
X135014844Y-94194322D01*
X135015431Y-94196280D01*
X135015860Y-94198283D01*
X135016130Y-94200315D01*
X135016239Y-94202363D01*
X135016186Y-94204409D01*
X135015969Y-94206440D01*
X135015798Y-94207444D01*
X135015586Y-94208438D01*
X135015332Y-94209421D01*
X135015036Y-94210390D01*
X135014698Y-94211344D01*
X135014318Y-94212280D01*
X135013895Y-94213196D01*
X135013430Y-94214091D01*
X135012921Y-94214963D01*
X135012370Y-94215810D01*
X134758926Y-94585168D01*
X134757845Y-94586914D01*
X134756886Y-94588787D01*
X134756049Y-94590770D01*
X134755336Y-94592845D01*
X134754748Y-94594996D01*
X134754285Y-94597206D01*
X134753950Y-94599458D01*
X134753743Y-94601735D01*
X134753665Y-94604019D01*
X134753718Y-94606294D01*
X134753902Y-94608543D01*
X134754219Y-94610748D01*
X134754669Y-94612893D01*
X134755255Y-94614961D01*
X134755977Y-94616935D01*
X134756835Y-94618797D01*
X134890185Y-94929841D01*
X134890541Y-94930797D01*
X134890942Y-94931751D01*
X134891873Y-94933643D01*
X134892966Y-94935507D01*
X134894208Y-94937331D01*
X134895585Y-94939103D01*
X134897084Y-94940813D01*
X134898693Y-94942449D01*
X134900398Y-94944000D01*
X134902186Y-94945454D01*
X134904044Y-94946800D01*
X134905959Y-94948028D01*
X134907918Y-94949125D01*
X134909908Y-94950081D01*
X134911915Y-94950884D01*
X134913926Y-94951523D01*
X134914930Y-94951777D01*
X134915929Y-94951987D01*
X135350851Y-95032870D01*
X135351843Y-95033083D01*
X135352821Y-95033343D01*
X135353785Y-95033651D01*
X135354734Y-95034002D01*
X135355666Y-95034398D01*
X135356581Y-95034835D01*
X135357477Y-95035313D01*
X135358352Y-95035830D01*
X135359206Y-95036384D01*
X135360038Y-95036974D01*
X135360846Y-95037599D01*
X135361628Y-95038257D01*
X135362385Y-95038947D01*
X135363114Y-95039667D01*
X135363814Y-95040415D01*
X135364484Y-95041191D01*
X135365123Y-95041992D01*
X135365730Y-95042818D01*
X135366303Y-95043666D01*
X135366841Y-95044536D01*
X135367343Y-95045426D01*
X135367808Y-95046334D01*
X135368235Y-95047259D01*
X135368621Y-95048199D01*
X135368967Y-95049153D01*
X135369271Y-95050120D01*
X135369531Y-95051098D01*
X135369747Y-95052085D01*
X135369917Y-95053080D01*
X135370040Y-95054082D01*
X135370114Y-95055089D01*
X135370140Y-95056100D01*
X135370113Y-95503749D01*
X135370088Y-95504760D01*
X135370013Y-95505767D01*
X135369890Y-95506770D01*
X135369719Y-95507767D01*
X135369503Y-95508756D01*
X135369242Y-95509736D01*
X135368938Y-95510704D01*
X135368591Y-95511661D01*
X135367776Y-95513531D01*
X135366808Y-95515334D01*
X135365695Y-95517056D01*
X135364448Y-95518688D01*
X135363076Y-95520215D01*
X135361590Y-95521626D01*
X135360000Y-95522910D01*
X135359169Y-95523499D01*
X135358315Y-95524053D01*
X135357440Y-95524568D01*
X135356545Y-95525043D01*
X135355631Y-95525477D01*
X135354700Y-95525869D01*
X135353752Y-95526217D01*
X135352790Y-95526519D01*
X135351814Y-95526773D01*
X135350825Y-95526979D01*
X134926566Y-95605931D01*
X134925569Y-95606136D01*
X134924570Y-95606387D01*
X134922570Y-95607022D01*
X134920578Y-95607824D01*
X134918608Y-95608783D01*
X134916672Y-95609887D01*
X134914784Y-95611123D01*
X134912957Y-95612481D01*
X134911203Y-95613948D01*
X134909536Y-95615513D01*
X134907968Y-95617164D01*
X134906513Y-95618890D01*
X134905183Y-95620680D01*
X134903991Y-95622520D01*
X134902951Y-95624401D01*
X134902076Y-95626310D01*
X134901703Y-95627271D01*
X134901377Y-95628235D01*
X134768927Y-95959097D01*
X134768107Y-95960979D01*
X134767423Y-95962972D01*
X134766874Y-95965059D01*
X134766458Y-95967222D01*
X134766175Y-95969445D01*
X134766022Y-95971710D01*
X134766000Y-95974000D01*
X134766106Y-95976298D01*
X134766339Y-95978586D01*
X134766699Y-95980847D01*
X134767183Y-95983064D01*
X134767792Y-95985220D01*
X134768523Y-95987297D01*
X134769376Y-95989278D01*
X134770349Y-95991146D01*
X134771440Y-95992884D01*
X135012423Y-96344065D01*
X135012972Y-96344912D01*
X135013478Y-96345784D01*
X135013942Y-96346680D01*
X135014363Y-96347597D01*
X135014742Y-96348533D01*
X135015079Y-96349488D01*
X135015628Y-96351441D01*
X135016010Y-96353442D01*
X135016227Y-96355474D01*
X135016281Y-96357523D01*
X135016173Y-96359573D01*
X135015905Y-96361609D01*
X135015477Y-96363614D01*
X135014891Y-96365574D01*
X135014149Y-96367472D01*
X135013252Y-96369295D01*
X135012746Y-96370172D01*
X135012201Y-96371025D01*
X135011619Y-96371851D01*
X135010999Y-96372648D01*
X135010340Y-96373415D01*
X135009645Y-96374148D01*
X134693071Y-96690670D01*
X134692339Y-96691363D01*
X134691575Y-96692019D01*
X134690781Y-96692637D01*
X134689957Y-96693218D01*
X134689107Y-96693760D01*
X134688231Y-96694265D01*
X134687333Y-96694731D01*
X134686414Y-96695159D01*
X134685475Y-96695549D01*
X134684519Y-96695899D01*
X134682563Y-96696483D01*
X134680561Y-96696910D01*
X134678529Y-96697178D01*
X134676481Y-96697287D01*
X134674433Y-96697233D01*
X134672401Y-96697018D01*
X134671396Y-96696848D01*
X134670401Y-96696638D01*
X134669416Y-96696386D01*
X134668446Y-96696092D01*
X134667491Y-96695757D01*
X134666553Y-96695379D01*
X134665635Y-96694960D01*
X134664737Y-96694498D01*
X134663863Y-96693994D01*
X134663014Y-96693448D01*
X134318050Y-96456672D01*
X134316316Y-96455597D01*
X134314458Y-96454654D01*
X134312493Y-96453843D01*
X134310438Y-96453164D01*
X134308311Y-96452619D01*
X134306128Y-96452208D01*
X134303906Y-96451930D01*
X134301663Y-96451787D01*
X134299415Y-96451779D01*
X134297179Y-96451906D01*
X134294973Y-96452169D01*
X134292813Y-96452568D01*
X134290716Y-96453104D01*
X134288700Y-96453777D01*
X134286782Y-96454587D01*
X134284977Y-96455534D01*
X134132842Y-96536762D01*
X134131935Y-96537196D01*
X134131019Y-96537579D01*
X134130098Y-96537909D01*
X134129172Y-96538188D01*
X134128243Y-96538416D01*
X134127312Y-96538594D01*
X134126382Y-96538722D01*
X134125453Y-96538802D01*
X134124527Y-96538833D01*
X134123607Y-96538816D01*
X134122693Y-96538752D01*
X134121787Y-96538641D01*
X134120891Y-96538484D01*
X134120006Y-96538282D01*
X134119134Y-96538035D01*
X134118277Y-96537744D01*
X134117435Y-96537409D01*
X134116612Y-96537031D01*
X134115808Y-96536611D01*
X134115024Y-96536148D01*
X134114264Y-96535645D01*
X134113527Y-96535101D01*
X134112816Y-96534517D01*
X134112133Y-96533893D01*
X134111478Y-96533230D01*
X134110854Y-96532530D01*
X134110262Y-96531791D01*
X134109703Y-96531015D01*
X134109180Y-96530203D01*
X134108694Y-96529355D01*
X134108246Y-96528472D01*
X134107839Y-96527554D01*
X133794149Y-95769602D01*
X133793784Y-95768659D01*
X133793467Y-95767702D01*
X133793197Y-95766732D01*
X133792974Y-95765752D01*
X133792798Y-95764762D01*
X133792667Y-95763766D01*
X133792540Y-95761759D01*
X133792589Y-95759745D01*
X133792809Y-95757739D01*
X133793195Y-95755754D01*
X133793742Y-95753806D01*
X133794446Y-95751909D01*
X133795302Y-95750078D01*
X133796304Y-95748325D01*
X133797449Y-95746668D01*
X133798732Y-95745118D01*
X133799423Y-95744389D01*
X133800147Y-95743692D01*
X133800903Y-95743029D01*
X133801690Y-95742402D01*
X133802508Y-95741814D01*
X133803357Y-95741265D01*
X133841430Y-95717955D01*
X133844178Y-95716210D01*
X133847108Y-95714218D01*
X133850167Y-95712023D01*
X133853300Y-95709667D01*
X133856454Y-95707195D01*
X133859576Y-95704650D01*
X133862612Y-95702075D01*
X133865507Y-95699514D01*
X133890707Y-95682262D01*
X133914757Y-95663531D01*
X133937593Y-95643386D01*
X133959148Y-95621892D01*
X133979356Y-95599114D01*
X133998153Y-95575118D01*
X134015471Y-95549969D01*
X134031246Y-95523731D01*
X134045411Y-95496472D01*
X134051869Y-95482479D01*
X134057901Y-95468255D01*
X134063497Y-95453808D01*
X134068649Y-95439146D01*
X134073350Y-95424277D01*
X134077591Y-95409210D01*
X134081364Y-95393952D01*
X134084660Y-95378513D01*
X134087472Y-95362899D01*
X134089791Y-95347119D01*
X134091609Y-95331182D01*
X134092918Y-95315094D01*
X134093709Y-95298866D01*
X134093975Y-95282504D01*
X134093331Y-95257028D01*
X134091419Y-95231886D01*
X134088270Y-95207110D01*
X134083916Y-95182730D01*
X134078388Y-95158779D01*
X134071716Y-95135286D01*
X134063932Y-95112283D01*
X134055068Y-95089802D01*
X134045153Y-95067872D01*
X134034219Y-95046526D01*
X134022298Y-95025794D01*
X134009421Y-95005708D01*
X133995618Y-94986299D01*
X133980920Y-94967597D01*
X133965360Y-94949634D01*
X133948967Y-94932441D01*
X133931773Y-94916049D01*
X133913810Y-94900489D01*
X133895108Y-94885792D01*
X133875698Y-94871990D01*
X133855611Y-94859113D01*
X133834880Y-94847193D01*
X133813534Y-94836260D01*
X133791605Y-94826346D01*
X133769124Y-94817482D01*
X133746122Y-94809699D01*
X133722630Y-94803028D01*
X133698679Y-94797500D01*
X133674301Y-94793146D01*
X133649527Y-94789998D01*
X133624387Y-94788086D01*
X133598913Y-94787442D01*
X133573439Y-94788086D01*
X133548300Y-94789998D01*
X133523526Y-94793146D01*
X133499148Y-94797500D01*
X133475198Y-94803028D01*
X133451707Y-94809699D01*
X133428706Y-94817482D01*
X133406226Y-94826346D01*
X133384298Y-94836260D01*
X133362953Y-94847193D01*
X133342222Y-94859113D01*
X133322137Y-94871990D01*
X133302728Y-94885792D01*
X133284027Y-94900489D01*
X133266065Y-94916049D01*
X133248873Y-94932441D01*
X133232481Y-94949634D01*
X133216922Y-94967597D01*
X133202226Y-94986299D01*
X133188424Y-95005708D01*
X133175547Y-95025794D01*
X133163627Y-95046526D01*
X133152695Y-95067872D01*
X133142781Y-95089802D01*
X133133917Y-95112283D01*
X133126134Y-95135286D01*
X133119463Y-95158779D01*
X133113935Y-95182730D01*
X133109582Y-95207110D01*
X133106434Y-95231886D01*
X133104522Y-95257028D01*
X133103878Y-95282504D01*
X133104934Y-95315094D01*
X133108060Y-95347119D01*
X133113190Y-95378513D01*
X133120258Y-95409210D01*
X133129198Y-95439146D01*
X133139945Y-95468255D01*
X133152434Y-95496472D01*
X133166597Y-95523731D01*
X133182371Y-95549968D01*
X133199689Y-95575118D01*
X133218485Y-95599114D01*
X133238694Y-95621892D01*
X133260250Y-95643386D01*
X133283088Y-95663531D01*
X133307142Y-95682262D01*
X133332346Y-95699514D01*
X133335225Y-95702075D01*
X133338250Y-95704650D01*
X133341366Y-95707195D01*
X133344516Y-95709667D01*
X133347648Y-95712023D01*
X133350704Y-95714218D01*
X133353629Y-95716210D01*
X133356370Y-95717955D01*
X133394443Y-95741265D01*
X133395287Y-95741814D01*
X133396101Y-95742402D01*
X133396884Y-95743029D01*
X133397637Y-95743692D01*
X133398358Y-95744389D01*
X133399046Y-95745118D01*
X133399702Y-95745878D01*
X133400325Y-95746668D01*
X133400913Y-95747484D01*
X133401467Y-95748325D01*
X133401985Y-95749191D01*
X133402468Y-95750078D01*
X133402914Y-95750984D01*
X133403323Y-95751909D01*
X133403695Y-95752851D01*
X133404028Y-95753806D01*
X133404322Y-95754775D01*
X133404577Y-95755754D01*
X133404791Y-95756743D01*
X133404965Y-95757739D01*
X133405098Y-95758740D01*
X133405188Y-95759745D01*
X133405236Y-95760752D01*
X133405241Y-95761759D01*
X133405202Y-95762764D01*
X133405118Y-95763766D01*
X133404990Y-95764762D01*
X133404816Y-95765752D01*
X133404595Y-95766732D01*
X133404328Y-95767702D01*
X133404014Y-95768659D01*
X133403651Y-95769602D01*
X133089987Y-96527580D01*
X133089580Y-96528498D01*
X133089132Y-96529381D01*
X133088646Y-96530229D01*
X133088124Y-96531041D01*
X133087566Y-96531816D01*
X133086975Y-96532554D01*
X133086351Y-96533254D01*
X133085697Y-96533915D01*
X133085014Y-96534538D01*
X133084304Y-96535122D01*
X133083568Y-96535665D01*
X133082809Y-96536168D01*
X133082026Y-96536629D01*
X133081223Y-96537049D01*
X133080400Y-96537426D01*
X133079559Y-96537760D01*
X133078703Y-96538051D01*
X133077831Y-96538297D01*
X133076947Y-96538499D01*
X133076051Y-96538656D01*
X133075145Y-96538766D01*
X133074231Y-96538830D01*
X133073310Y-96538847D01*
X133072385Y-96538817D01*
X133071455Y-96538738D01*
X133070524Y-96538610D01*
X133069592Y-96538433D01*
X133068662Y-96538207D01*
X133067734Y-96537929D01*
X133066811Y-96537601D01*
X133065894Y-96537220D01*
X133064984Y-96536788D01*
X132912849Y-96455561D01*
X132911040Y-96454613D01*
X132909118Y-96453802D01*
X132907100Y-96453128D01*
X132905002Y-96452591D01*
X132902842Y-96452190D01*
X132900635Y-96451926D01*
X132898400Y-96451797D01*
X132896153Y-96451804D01*
X132893911Y-96451946D01*
X132891691Y-96452222D01*
X132889510Y-96452634D01*
X132887384Y-96453179D01*
X132885331Y-96453859D01*
X132883367Y-96454672D01*
X132881510Y-96455619D01*
X132879776Y-96456698D01*
X132534785Y-96693474D01*
X132533939Y-96694021D01*
X132533067Y-96694525D01*
X132532171Y-96694986D01*
X132531254Y-96695406D01*
X132530318Y-96695783D01*
X132529364Y-96696118D01*
X132527411Y-96696664D01*
X132525411Y-96697044D01*
X132523379Y-96697260D01*
X132521332Y-96697313D01*
X132519284Y-96697205D01*
X132517252Y-96696936D01*
X132515250Y-96696509D01*
X132513295Y-96695925D01*
X132511401Y-96695185D01*
X132509585Y-96694291D01*
X132508710Y-96693787D01*
X132507861Y-96693244D01*
X132507039Y-96692663D01*
X132506246Y-96692045D01*
X132505484Y-96691389D01*
X132504755Y-96690696D01*
X132188181Y-96374175D01*
X132187483Y-96373441D01*
X132186823Y-96372675D01*
X132186200Y-96371877D01*
X132185616Y-96371051D01*
X132185070Y-96370199D01*
X132184562Y-96369321D01*
X132184093Y-96368420D01*
X132183662Y-96367499D01*
X132183270Y-96366558D01*
X132182918Y-96365600D01*
X132182331Y-96363640D01*
X132181902Y-96361635D01*
X132181633Y-96359600D01*
X132181525Y-96357550D01*
X132181580Y-96355501D01*
X132181799Y-96353468D01*
X132181971Y-96352463D01*
X132182184Y-96351467D01*
X132182438Y-96350484D01*
X132182735Y-96349514D01*
X132183074Y-96348560D01*
X132183454Y-96347623D01*
X132183878Y-96346706D01*
X132184343Y-96345811D01*
X132184852Y-96344938D01*
X132185403Y-96344092D01*
X132426412Y-95992910D01*
X132427495Y-95991172D01*
X132428460Y-95989304D01*
X132429307Y-95987323D01*
X132430034Y-95985246D01*
X132430639Y-95983090D01*
X132431122Y-95980873D01*
X132431481Y-95978612D01*
X132431714Y-95976324D01*
X132431820Y-95974026D01*
X132431798Y-95971736D01*
X132431647Y-95969471D01*
X132431364Y-95967248D01*
X132430950Y-95965085D01*
X132430402Y-95962998D01*
X132429718Y-95961005D01*
X132428899Y-95959123D01*
X132296449Y-95628261D01*
X132296121Y-95627297D01*
X132295747Y-95626336D01*
X132294870Y-95624427D01*
X132293830Y-95622547D01*
X132292640Y-95620706D01*
X132291313Y-95618917D01*
X132289862Y-95617191D01*
X132288299Y-95615539D01*
X132286636Y-95613974D01*
X132284887Y-95612507D01*
X132283064Y-95611149D01*
X132281180Y-95609913D01*
X132279248Y-95608810D01*
X132277280Y-95607851D01*
X132275288Y-95607048D01*
X132274288Y-95606709D01*
X132273286Y-95606413D01*
X132272286Y-95606162D01*
X132271287Y-95605957D01*
X131847027Y-95527005D01*
X131846041Y-95526799D01*
X131845067Y-95526545D01*
X131844106Y-95526243D01*
X131843160Y-95525895D01*
X131842230Y-95525504D01*
X131841317Y-95525069D01*
X131840423Y-95524594D01*
X131839549Y-95524079D01*
X131838695Y-95523526D01*
X131837864Y-95522936D01*
X131837056Y-95522311D01*
X131836274Y-95521653D01*
X131835517Y-95520962D01*
X131834787Y-95520241D01*
X131834086Y-95519491D01*
X131833415Y-95518714D01*
X131832774Y-95517911D01*
X131832166Y-95517083D01*
X131831591Y-95516232D01*
X131831052Y-95515360D01*
X131830548Y-95514468D01*
X131830081Y-95513557D01*
X131829653Y-95512630D01*
X131829265Y-95511687D01*
X131828917Y-95510731D01*
X131828612Y-95509762D01*
X131828351Y-95508782D01*
X131828134Y-95507793D01*
X131827963Y-95506797D01*
X131827840Y-95505794D01*
X131827765Y-95504786D01*
X131827739Y-95503775D01*
X131827686Y-95056126D01*
X131827709Y-95055113D01*
X131827782Y-95054104D01*
X131827903Y-95053100D01*
X131828071Y-95052103D01*
X131828286Y-95051114D01*
X131828545Y-95050134D01*
X131828847Y-95049166D01*
X131829192Y-95048210D01*
X131829578Y-95047268D01*
X131830004Y-95046342D01*
X131830970Y-95044543D01*
X131832081Y-95042823D01*
X131833325Y-95041194D01*
X131834694Y-95039669D01*
X131836178Y-95038259D01*
X131837765Y-95036975D01*
X131839448Y-95035830D01*
X131840321Y-95035313D01*
X131841214Y-95034835D01*
X131842126Y-95034398D01*
X131843055Y-95034003D01*
X131844001Y-95033651D01*
X131844961Y-95033343D01*
X131845935Y-95033083D01*
X131846922Y-95032870D01*
X132281870Y-94951987D01*
X132283864Y-94951523D01*
X132285868Y-94950884D01*
X132287869Y-94950081D01*
X132289855Y-94949125D01*
X132291811Y-94948028D01*
X132293724Y-94946800D01*
X132295582Y-94945454D01*
X132297371Y-94944000D01*
X132299078Y-94942449D01*
X132300689Y-94940813D01*
X132302192Y-94939103D01*
X132303573Y-94937331D01*
X132304819Y-94935507D01*
X132305916Y-94933643D01*
X132306853Y-94931751D01*
X132307614Y-94929841D01*
X132440938Y-94618797D01*
X132441801Y-94616935D01*
X132442527Y-94614961D01*
X132443116Y-94612893D01*
X132443569Y-94610748D01*
X132443887Y-94608543D01*
X132444072Y-94606294D01*
X132444125Y-94604019D01*
X132444047Y-94601735D01*
X132443838Y-94599458D01*
X132443500Y-94597206D01*
X132443034Y-94594996D01*
X132442441Y-94592845D01*
X132441722Y-94590770D01*
X132440878Y-94588787D01*
X132439911Y-94586914D01*
X132438821Y-94585168D01*
X132185403Y-94215810D01*
X132184856Y-94214963D01*
X132184352Y-94214091D01*
X132183889Y-94213196D01*
X132183469Y-94212280D01*
X132183091Y-94211344D01*
X132182754Y-94210390D01*
X132182206Y-94208438D01*
X132181822Y-94206440D01*
X132181603Y-94204409D01*
X132181547Y-94202363D01*
X132181652Y-94200315D01*
X132181918Y-94198283D01*
X132182344Y-94196280D01*
X132182928Y-94194322D01*
X132183669Y-94192425D01*
X132184566Y-94190605D01*
X132185072Y-94189728D01*
X132185618Y-94188876D01*
X132186201Y-94188050D01*
X132186823Y-94187253D01*
X132187483Y-94186487D01*
X132188181Y-94185753D01*
X132504702Y-93869232D01*
X132505436Y-93868534D01*
X132506202Y-93867874D01*
X132506998Y-93867251D01*
X132507823Y-93866667D01*
X132508675Y-93866121D01*
X132509551Y-93865613D01*
X132510450Y-93865143D01*
X132511370Y-93864713D01*
X132512309Y-93864321D01*
X132513265Y-93863969D01*
X132515220Y-93863381D01*
X132517220Y-93862953D01*
X132519251Y-93862684D01*
X132521296Y-93862576D01*
X132523340Y-93862631D01*
X132525368Y-93862850D01*
X132526371Y-93863022D01*
X132527365Y-93863235D01*
X132528347Y-93863489D01*
X132529315Y-93863786D01*
X132530268Y-93864124D01*
X132531203Y-93864505D01*
X132532119Y-93864928D01*
X132533014Y-93865394D01*
X132533886Y-93865903D01*
X132534732Y-93866454D01*
X132910573Y-94124370D01*
X132912311Y-94125457D01*
X132914181Y-94126425D01*
X132916165Y-94127272D01*
X132918245Y-94127999D01*
X132920404Y-94128602D01*
X132922624Y-94129082D01*
X132924888Y-94129437D01*
X132927179Y-94129665D01*
X132929479Y-94129766D01*
X132931770Y-94129738D01*
X132934035Y-94129581D01*
X132936257Y-94129292D01*
X132938418Y-94128872D01*
X132940500Y-94128318D01*
X132942487Y-94127629D01*
X132944360Y-94126804D01*
X133245879Y-94003376D01*
X133246838Y-94003035D01*
X133247794Y-94002649D01*
X133248746Y-94002218D01*
X133249691Y-94001745D01*
X133251560Y-94000679D01*
X133253389Y-93999462D01*
X133255166Y-93998109D01*
X133256881Y-93996632D01*
X133258522Y-93995044D01*
X133260077Y-93993358D01*
X133261537Y-93991588D01*
X133262888Y-93989746D01*
X133264121Y-93987846D01*
X133265223Y-93985900D01*
X133266184Y-93983922D01*
X133266992Y-93981924D01*
X133267636Y-93979920D01*
X133267893Y-93978920D01*
X133268104Y-93977923D01*
X133351845Y-93528052D01*
X133352053Y-93527063D01*
X133352310Y-93526087D01*
X133352613Y-93525125D01*
X133352961Y-93524177D01*
X133353354Y-93523246D01*
X133353788Y-93522332D01*
X133354264Y-93521437D01*
X133354779Y-93520562D01*
X133355331Y-93519709D01*
X133355920Y-93518877D01*
X133356544Y-93518070D01*
X133357201Y-93517287D01*
X133357890Y-93516530D01*
X133358609Y-93515801D01*
X133359357Y-93515100D01*
X133360133Y-93514429D01*
X133360935Y-93513790D01*
X133361760Y-93513182D01*
X133362609Y-93512608D01*
X133363479Y-93512069D01*
X133364370Y-93511566D01*
X133365278Y-93511101D01*
X133366204Y-93510673D01*
X133367145Y-93510286D01*
X133368099Y-93509939D01*
X133369067Y-93509635D01*
X133370045Y-93509374D01*
X133371033Y-93509158D01*
X133372029Y-93508987D01*
X133373031Y-93508864D01*
X133374038Y-93508789D01*
X133375049Y-93508764D01*
X133822724Y-93508764D01*
X133823732Y-93508789D01*
G37*
G36*
X133659650Y-97061456D02*
G01*
X133677532Y-97063197D01*
X133694709Y-97066094D01*
X133711103Y-97070142D01*
X133726635Y-97075339D01*
X133734053Y-97078366D01*
X133741227Y-97081678D01*
X133748146Y-97085275D01*
X133754800Y-97089157D01*
X133761180Y-97093322D01*
X133767277Y-97097771D01*
X133773080Y-97102502D01*
X133778579Y-97107516D01*
X133783765Y-97112811D01*
X133788628Y-97118388D01*
X133793158Y-97124245D01*
X133797346Y-97130383D01*
X133801181Y-97136800D01*
X133804654Y-97143496D01*
X133807755Y-97150471D01*
X133810474Y-97157725D01*
X133812802Y-97165256D01*
X133814729Y-97173064D01*
X133816244Y-97181148D01*
X133817338Y-97189509D01*
X133818002Y-97198145D01*
X133818226Y-97207057D01*
X133818057Y-97214595D01*
X133817554Y-97221929D01*
X133816725Y-97229059D01*
X133815576Y-97235983D01*
X133814113Y-97242699D01*
X133812345Y-97249208D01*
X133810278Y-97255508D01*
X133807918Y-97261597D01*
X133805272Y-97267476D01*
X133802349Y-97273142D01*
X133799153Y-97278595D01*
X133795692Y-97283833D01*
X133791974Y-97288857D01*
X133788004Y-97293664D01*
X133783790Y-97298253D01*
X133779339Y-97302624D01*
X133774657Y-97306776D01*
X133769751Y-97310707D01*
X133764629Y-97314416D01*
X133759297Y-97317903D01*
X133753761Y-97321166D01*
X133748030Y-97324204D01*
X133742109Y-97327016D01*
X133736006Y-97329602D01*
X133729727Y-97331959D01*
X133723279Y-97334088D01*
X133716670Y-97335987D01*
X133709906Y-97337655D01*
X133695940Y-97340293D01*
X133681436Y-97341994D01*
X133597087Y-97349482D01*
X133591024Y-97350096D01*
X133585163Y-97350910D01*
X133579532Y-97351947D01*
X133574156Y-97353232D01*
X133569062Y-97354786D01*
X133564274Y-97356634D01*
X133559819Y-97358799D01*
X133557724Y-97360007D01*
X133555723Y-97361303D01*
X133553817Y-97362689D01*
X133552011Y-97364169D01*
X133550308Y-97365746D01*
X133548711Y-97367422D01*
X133547223Y-97369200D01*
X133545847Y-97371083D01*
X133544587Y-97373075D01*
X133543446Y-97375177D01*
X133542426Y-97377394D01*
X133541533Y-97379727D01*
X133540768Y-97382180D01*
X133540134Y-97384755D01*
X133539636Y-97387456D01*
X133539276Y-97390285D01*
X133539058Y-97393245D01*
X133538984Y-97396340D01*
X133539099Y-97400060D01*
X133539440Y-97403664D01*
X133540003Y-97407153D01*
X133540783Y-97410525D01*
X133541777Y-97413782D01*
X133542978Y-97416922D01*
X133544384Y-97419945D01*
X133545989Y-97422852D01*
X133547789Y-97425642D01*
X133549780Y-97428316D01*
X133551956Y-97430872D01*
X133554314Y-97433311D01*
X133556849Y-97435632D01*
X133559557Y-97437836D01*
X133562433Y-97439923D01*
X133565473Y-97441891D01*
X133568671Y-97443741D01*
X133572024Y-97445473D01*
X133575528Y-97447087D01*
X133579177Y-97448582D01*
X133582967Y-97449959D01*
X133586895Y-97451216D01*
X133590954Y-97452355D01*
X133595141Y-97453374D01*
X133599451Y-97454274D01*
X133603881Y-97455055D01*
X133608424Y-97455716D01*
X133613078Y-97456257D01*
X133617836Y-97456678D01*
X133622696Y-97456979D01*
X133627652Y-97457160D01*
X133632700Y-97457220D01*
X133644430Y-97456979D01*
X133655743Y-97456258D01*
X133666661Y-97455057D01*
X133677205Y-97453378D01*
X133687399Y-97451222D01*
X133697262Y-97448589D01*
X133706819Y-97445482D01*
X133716090Y-97441901D01*
X133725097Y-97437848D01*
X133733863Y-97433323D01*
X133742409Y-97428328D01*
X133750758Y-97422864D01*
X133758930Y-97416932D01*
X133766949Y-97410533D01*
X133774836Y-97403669D01*
X133782613Y-97396340D01*
X133849129Y-97461903D01*
X133837589Y-97472279D01*
X133825815Y-97481976D01*
X133813812Y-97490995D01*
X133801588Y-97499338D01*
X133789149Y-97507006D01*
X133776504Y-97514000D01*
X133763658Y-97520322D01*
X133750618Y-97525972D01*
X133737392Y-97530953D01*
X133723986Y-97535266D01*
X133710407Y-97538911D01*
X133696662Y-97541891D01*
X133682758Y-97544206D01*
X133668702Y-97545859D01*
X133654501Y-97546849D01*
X133640161Y-97547179D01*
X133619730Y-97546556D01*
X133599961Y-97544703D01*
X133580944Y-97541640D01*
X133562769Y-97537386D01*
X133545529Y-97531963D01*
X133529312Y-97525392D01*
X133514210Y-97517692D01*
X133507105Y-97513425D01*
X133500313Y-97508884D01*
X133493844Y-97504071D01*
X133487711Y-97498988D01*
X133481925Y-97493639D01*
X133476496Y-97488026D01*
X133471437Y-97482151D01*
X133466758Y-97476018D01*
X133462471Y-97469627D01*
X133458587Y-97462983D01*
X133455118Y-97456088D01*
X133452075Y-97448943D01*
X133449469Y-97441553D01*
X133447311Y-97433919D01*
X133445613Y-97426044D01*
X133444386Y-97417930D01*
X133443641Y-97409580D01*
X133443391Y-97400997D01*
X133443856Y-97386969D01*
X133445272Y-97373367D01*
X133447668Y-97360247D01*
X133449242Y-97353885D01*
X133451072Y-97347664D01*
X133453161Y-97341591D01*
X133455513Y-97335672D01*
X133458132Y-97329916D01*
X133461021Y-97324327D01*
X133464184Y-97318915D01*
X133467625Y-97313685D01*
X133471346Y-97308644D01*
X133475352Y-97303799D01*
X133479647Y-97299157D01*
X133484234Y-97294725D01*
X133489116Y-97290510D01*
X133494297Y-97286518D01*
X133499782Y-97282757D01*
X133505572Y-97279234D01*
X133511673Y-97275955D01*
X133518088Y-97272927D01*
X133524820Y-97270157D01*
X133531872Y-97267652D01*
X133539250Y-97265419D01*
X133546956Y-97263464D01*
X133554993Y-97261795D01*
X133563366Y-97260419D01*
X133572078Y-97259342D01*
X133581133Y-97258572D01*
X133659846Y-97252989D01*
X133668426Y-97252086D01*
X133676262Y-97250814D01*
X133683382Y-97249197D01*
X133689811Y-97247259D01*
X133695576Y-97245025D01*
X133698217Y-97243805D01*
X133700703Y-97242521D01*
X133703035Y-97241174D01*
X133705217Y-97239769D01*
X133707252Y-97238309D01*
X133709145Y-97236796D01*
X133710897Y-97235234D01*
X133712513Y-97233626D01*
X133715347Y-97230283D01*
X133717674Y-97226793D01*
X133719519Y-97223179D01*
X133720909Y-97219466D01*
X133721869Y-97215679D01*
X133722426Y-97211844D01*
X133722606Y-97207983D01*
X133722545Y-97204937D01*
X133722359Y-97201943D01*
X133722046Y-97199004D01*
X133721601Y-97196123D01*
X133721021Y-97193303D01*
X133720302Y-97190546D01*
X133719441Y-97187856D01*
X133718434Y-97185235D01*
X133717277Y-97182687D01*
X133715967Y-97180214D01*
X133714501Y-97177819D01*
X133712874Y-97175506D01*
X133711083Y-97173277D01*
X133709124Y-97171135D01*
X133706995Y-97169084D01*
X133704690Y-97167125D01*
X133702207Y-97165262D01*
X133699542Y-97163498D01*
X133696692Y-97161836D01*
X133693653Y-97160279D01*
X133690420Y-97158830D01*
X133686992Y-97157491D01*
X133683363Y-97156265D01*
X133679531Y-97155157D01*
X133675492Y-97154167D01*
X133671242Y-97153300D01*
X133666777Y-97152559D01*
X133662095Y-97151945D01*
X133657191Y-97151463D01*
X133652062Y-97151115D01*
X133646704Y-97150904D01*
X133641114Y-97150833D01*
X133631596Y-97151040D01*
X133622368Y-97151651D01*
X133613411Y-97152652D01*
X133604709Y-97154029D01*
X133596244Y-97155769D01*
X133587997Y-97157857D01*
X133579951Y-97160280D01*
X133572087Y-97163024D01*
X133564390Y-97166075D01*
X133556839Y-97169418D01*
X133549419Y-97173042D01*
X133542110Y-97176930D01*
X133534895Y-97181070D01*
X133527757Y-97185448D01*
X133520677Y-97190049D01*
X133513638Y-97194860D01*
X133454635Y-97125565D01*
X133463535Y-97118351D01*
X133472680Y-97111482D01*
X133482096Y-97104976D01*
X133491810Y-97098848D01*
X133501847Y-97093116D01*
X133512235Y-97087795D01*
X133522999Y-97082903D01*
X133534166Y-97078456D01*
X133545761Y-97074470D01*
X133557812Y-97070962D01*
X133570344Y-97067949D01*
X133583383Y-97065446D01*
X133596956Y-97063471D01*
X133611089Y-97062040D01*
X133625808Y-97061169D01*
X133641140Y-97060875D01*
X133659650Y-97061456D01*
G37*
G36*
X133388868Y-97322143D02*
G01*
X133388328Y-97339337D01*
X133387418Y-97355228D01*
X133386126Y-97369910D01*
X133384445Y-97383479D01*
X133382363Y-97396028D01*
X133379873Y-97407652D01*
X133376964Y-97418446D01*
X133373626Y-97428504D01*
X133369851Y-97437922D01*
X133365629Y-97446794D01*
X133360950Y-97455214D01*
X133355805Y-97463277D01*
X133350185Y-97471078D01*
X133344079Y-97478711D01*
X133337478Y-97486272D01*
X133332346Y-97491743D01*
X133326778Y-97497229D01*
X133320759Y-97502678D01*
X133314269Y-97508040D01*
X133307291Y-97513265D01*
X133299807Y-97518301D01*
X133291798Y-97523099D01*
X133283249Y-97527606D01*
X133278765Y-97529735D01*
X133274139Y-97531773D01*
X133269369Y-97533713D01*
X133264452Y-97535549D01*
X133259386Y-97537275D01*
X133254169Y-97538883D01*
X133248799Y-97540369D01*
X133243274Y-97541725D01*
X133237590Y-97542945D01*
X133231747Y-97544023D01*
X133225741Y-97544953D01*
X133219571Y-97545728D01*
X133213234Y-97546341D01*
X133206728Y-97546788D01*
X133200051Y-97547060D01*
X133193201Y-97547152D01*
X133179664Y-97546788D01*
X133166813Y-97545728D01*
X133154630Y-97544023D01*
X133143097Y-97541725D01*
X133132197Y-97538883D01*
X133121910Y-97535549D01*
X133112219Y-97531773D01*
X133103107Y-97527606D01*
X133094555Y-97523098D01*
X133086545Y-97518301D01*
X133079060Y-97513265D01*
X133072081Y-97508040D01*
X133065590Y-97502678D01*
X133059570Y-97497228D01*
X133054003Y-97491743D01*
X133048870Y-97486272D01*
X133042271Y-97478711D01*
X133036166Y-97471077D01*
X133030548Y-97463275D01*
X133025407Y-97455210D01*
X133020732Y-97446789D01*
X133016514Y-97437915D01*
X133012744Y-97428496D01*
X133009411Y-97418436D01*
X133006507Y-97407641D01*
X133004021Y-97396016D01*
X133001945Y-97383467D01*
X133000267Y-97369899D01*
X132998979Y-97355218D01*
X132998071Y-97339330D01*
X132997533Y-97322138D01*
X132997365Y-97304477D01*
X133092950Y-97304477D01*
X133093225Y-97327914D01*
X133093583Y-97338091D01*
X133094101Y-97347351D01*
X133094789Y-97355776D01*
X133095657Y-97363447D01*
X133096714Y-97370449D01*
X133097971Y-97376863D01*
X133099436Y-97382772D01*
X133101120Y-97388259D01*
X133103033Y-97393405D01*
X133105184Y-97398294D01*
X133107583Y-97403008D01*
X133110240Y-97407629D01*
X133113164Y-97412241D01*
X133116366Y-97416924D01*
X133117729Y-97418756D01*
X133119184Y-97420558D01*
X133122356Y-97424067D01*
X133125862Y-97427435D01*
X133129685Y-97430649D01*
X133133804Y-97433692D01*
X133138200Y-97436550D01*
X133142855Y-97439208D01*
X133147749Y-97441650D01*
X133152862Y-97443861D01*
X133158177Y-97445827D01*
X133163672Y-97447531D01*
X133169330Y-97448960D01*
X133175131Y-97450097D01*
X133181056Y-97450928D01*
X133187086Y-97451438D01*
X133193201Y-97451611D01*
X133199307Y-97451438D01*
X133205331Y-97450929D01*
X133211251Y-97450100D01*
X133217049Y-97448964D01*
X133222705Y-97447537D01*
X133228199Y-97445834D01*
X133233513Y-97443870D01*
X133238627Y-97441660D01*
X133243520Y-97439219D01*
X133248175Y-97436562D01*
X133252570Y-97433704D01*
X133256687Y-97430660D01*
X133260507Y-97427445D01*
X133264009Y-97424074D01*
X133267174Y-97420562D01*
X133269983Y-97416924D01*
X133273185Y-97412240D01*
X133276111Y-97407627D01*
X133278771Y-97403002D01*
X133281173Y-97398279D01*
X133283328Y-97393377D01*
X133285245Y-97388210D01*
X133286934Y-97382695D01*
X133288405Y-97376747D01*
X133289666Y-97370284D01*
X133290728Y-97363221D01*
X133291600Y-97355475D01*
X133292292Y-97346960D01*
X133292814Y-97337595D01*
X133293175Y-97327294D01*
X133293384Y-97315974D01*
X133293452Y-97303550D01*
X133293175Y-97280111D01*
X133292814Y-97269931D01*
X133292292Y-97260669D01*
X133291600Y-97252241D01*
X133290728Y-97244566D01*
X133289666Y-97237561D01*
X133288405Y-97231144D01*
X133286934Y-97225233D01*
X133285245Y-97219745D01*
X133283328Y-97214598D01*
X133281173Y-97209710D01*
X133278771Y-97204999D01*
X133276111Y-97200382D01*
X133273185Y-97195777D01*
X133269983Y-97191102D01*
X133268624Y-97189271D01*
X133267174Y-97187469D01*
X133264009Y-97183960D01*
X133260507Y-97180591D01*
X133256687Y-97177378D01*
X133252570Y-97174335D01*
X133248175Y-97171477D01*
X133243520Y-97168819D01*
X133238627Y-97166377D01*
X133233513Y-97164166D01*
X133228199Y-97162200D01*
X133222705Y-97160496D01*
X133217049Y-97159067D01*
X133211251Y-97157930D01*
X133205331Y-97157098D01*
X133199307Y-97156589D01*
X133193201Y-97156415D01*
X133187086Y-97156588D01*
X133181056Y-97157097D01*
X133175131Y-97157927D01*
X133169330Y-97159063D01*
X133163672Y-97160490D01*
X133158177Y-97162193D01*
X133152862Y-97164157D01*
X133147749Y-97166367D01*
X133142855Y-97168808D01*
X133138200Y-97171465D01*
X133133804Y-97174323D01*
X133129685Y-97177367D01*
X133125862Y-97180582D01*
X133122356Y-97183952D01*
X133119184Y-97187464D01*
X133116366Y-97191102D01*
X133113164Y-97195778D01*
X133110240Y-97200384D01*
X133107583Y-97205005D01*
X133105184Y-97209725D01*
X133103033Y-97214627D01*
X133101120Y-97219794D01*
X133099436Y-97225310D01*
X133097971Y-97231260D01*
X133096714Y-97237726D01*
X133095657Y-97244792D01*
X133094789Y-97252542D01*
X133094101Y-97261059D01*
X133093583Y-97270428D01*
X133093225Y-97280731D01*
X133093017Y-97292053D01*
X133092950Y-97304477D01*
X132997365Y-97304477D01*
X132997356Y-97303550D01*
X132997533Y-97285117D01*
X132998071Y-97268062D01*
X132998979Y-97252292D01*
X133000267Y-97237714D01*
X133001945Y-97224235D01*
X133004021Y-97211761D01*
X133006507Y-97200199D01*
X133009411Y-97189455D01*
X133012744Y-97179436D01*
X133016514Y-97170049D01*
X133020732Y-97161199D01*
X133025407Y-97152795D01*
X133030548Y-97144741D01*
X133036166Y-97136946D01*
X133042271Y-97129315D01*
X133048870Y-97121755D01*
X133054003Y-97116283D01*
X133059570Y-97110796D01*
X133065590Y-97105344D01*
X133072081Y-97099978D01*
X133079060Y-97094749D01*
X133086545Y-97089709D01*
X133094555Y-97084907D01*
X133103107Y-97080394D01*
X133107592Y-97078262D01*
X133112219Y-97076222D01*
X133116991Y-97074280D01*
X133121910Y-97072441D01*
X133126977Y-97070714D01*
X133132196Y-97069103D01*
X133137569Y-97067615D01*
X133143097Y-97066257D01*
X133148784Y-97065035D01*
X133154630Y-97063955D01*
X133160639Y-97063024D01*
X133166813Y-97062248D01*
X133173154Y-97061634D01*
X133179664Y-97061187D01*
X133186346Y-97060914D01*
X133193201Y-97060822D01*
X133206728Y-97061187D01*
X133219571Y-97062248D01*
X133231747Y-97063955D01*
X133243274Y-97066257D01*
X133254169Y-97069103D01*
X133264452Y-97072441D01*
X133274139Y-97076222D01*
X133283248Y-97080394D01*
X133291798Y-97084907D01*
X133299806Y-97089709D01*
X133307291Y-97094750D01*
X133314269Y-97099978D01*
X133320759Y-97105344D01*
X133326778Y-97110796D01*
X133332346Y-97116283D01*
X133337478Y-97121755D01*
X133344079Y-97129319D01*
X133350185Y-97136953D01*
X133355805Y-97144751D01*
X133360950Y-97152806D01*
X133365629Y-97161211D01*
X133369851Y-97170060D01*
X133373626Y-97179447D01*
X133376964Y-97189465D01*
X133379873Y-97200208D01*
X133382363Y-97211768D01*
X133384445Y-97224241D01*
X133386126Y-97237718D01*
X133387418Y-97252294D01*
X133388328Y-97268063D01*
X133388868Y-97285117D01*
X133389045Y-97303550D01*
X133388868Y-97322143D01*
G37*
G36*
X134275298Y-97061041D02*
G01*
X134284511Y-97061701D01*
X134293532Y-97062800D01*
X134302354Y-97064338D01*
X134310967Y-97066316D01*
X134319364Y-97068733D01*
X134327535Y-97071589D01*
X134335473Y-97074884D01*
X134343169Y-97078619D01*
X134350615Y-97082792D01*
X134357803Y-97087404D01*
X134364723Y-97092455D01*
X134371368Y-97097945D01*
X134377729Y-97103873D01*
X134383799Y-97110240D01*
X134389567Y-97117046D01*
X134391472Y-97117046D01*
X134391472Y-97066457D01*
X134487040Y-97066457D01*
X134487040Y-97541517D01*
X134391472Y-97541517D01*
X134391472Y-97258598D01*
X134391355Y-97252613D01*
X134391007Y-97246790D01*
X134390431Y-97241130D01*
X134389635Y-97235635D01*
X134388621Y-97230307D01*
X134387395Y-97225148D01*
X134385962Y-97220160D01*
X134384327Y-97215345D01*
X134382494Y-97210704D01*
X134380468Y-97206239D01*
X134378254Y-97201953D01*
X134375857Y-97197847D01*
X134373281Y-97193923D01*
X134370531Y-97190182D01*
X134367613Y-97186628D01*
X134364531Y-97183261D01*
X134361290Y-97180084D01*
X134357894Y-97177098D01*
X134354348Y-97174305D01*
X134350658Y-97171708D01*
X134346828Y-97169307D01*
X134342863Y-97167106D01*
X134338767Y-97165105D01*
X134334546Y-97163307D01*
X134330203Y-97161713D01*
X134325745Y-97160326D01*
X134321176Y-97159147D01*
X134316501Y-97158179D01*
X134311723Y-97157422D01*
X134306850Y-97156879D01*
X134301884Y-97156552D01*
X134296831Y-97156442D01*
X134291862Y-97156552D01*
X134286975Y-97156879D01*
X134282175Y-97157422D01*
X134277467Y-97158179D01*
X134272855Y-97159147D01*
X134268346Y-97160326D01*
X134263943Y-97161714D01*
X134259651Y-97163307D01*
X134255477Y-97165105D01*
X134251424Y-97167106D01*
X134247498Y-97169308D01*
X134243703Y-97171708D01*
X134240045Y-97174306D01*
X134236529Y-97177098D01*
X134233159Y-97180084D01*
X134229941Y-97183261D01*
X134226879Y-97186628D01*
X134223979Y-97190183D01*
X134221245Y-97193923D01*
X134218682Y-97197847D01*
X134216296Y-97201953D01*
X134214092Y-97206239D01*
X134212073Y-97210704D01*
X134210246Y-97215345D01*
X134208616Y-97220160D01*
X134207186Y-97225149D01*
X134205963Y-97230308D01*
X134204951Y-97235635D01*
X134204156Y-97241130D01*
X134203581Y-97246790D01*
X134203233Y-97252613D01*
X134203115Y-97258598D01*
X134203115Y-97541517D01*
X134107548Y-97541517D01*
X134107548Y-97225763D01*
X134107792Y-97215806D01*
X134108513Y-97206147D01*
X134109693Y-97196787D01*
X134111316Y-97187728D01*
X134113363Y-97178969D01*
X134115818Y-97170514D01*
X134118662Y-97162363D01*
X134121880Y-97154516D01*
X134125453Y-97146976D01*
X134129364Y-97139743D01*
X134133597Y-97132819D01*
X134138132Y-97126205D01*
X134142954Y-97119902D01*
X134148045Y-97113911D01*
X134153387Y-97108233D01*
X134158963Y-97102870D01*
X134164756Y-97097823D01*
X134170749Y-97093093D01*
X134176924Y-97088681D01*
X134183264Y-97084589D01*
X134189752Y-97080816D01*
X134196370Y-97077366D01*
X134203100Y-97074239D01*
X134209927Y-97071436D01*
X134223797Y-97066806D01*
X134237842Y-97063488D01*
X134251923Y-97061490D01*
X134258934Y-97060989D01*
X134265901Y-97060822D01*
X134275298Y-97061041D01*
G37*
G36*
X131927361Y-97061643D02*
G01*
X131937524Y-97062679D01*
X131947608Y-97064141D01*
X131957596Y-97066036D01*
X131967469Y-97068370D01*
X131977208Y-97071149D01*
X131986793Y-97074380D01*
X131996208Y-97078069D01*
X132005432Y-97082223D01*
X132014447Y-97086849D01*
X132023234Y-97091952D01*
X132031776Y-97097541D01*
X132040052Y-97103620D01*
X132048044Y-97110196D01*
X132055734Y-97117277D01*
X132063103Y-97124868D01*
X132070132Y-97132976D01*
X132076803Y-97141608D01*
X132083096Y-97150769D01*
X132088993Y-97160468D01*
X132094476Y-97170709D01*
X132099525Y-97181500D01*
X132104122Y-97192847D01*
X132108248Y-97204756D01*
X132111885Y-97217235D01*
X132115014Y-97230289D01*
X132117616Y-97243926D01*
X132119672Y-97258151D01*
X132121164Y-97272971D01*
X132122073Y-97288393D01*
X132122380Y-97304423D01*
X132122073Y-97320379D01*
X132121164Y-97335730D01*
X132119672Y-97350484D01*
X132117616Y-97364648D01*
X132115014Y-97378226D01*
X132111885Y-97391226D01*
X132108248Y-97403654D01*
X132104122Y-97415517D01*
X132099525Y-97426821D01*
X132094476Y-97437571D01*
X132088993Y-97447776D01*
X132083096Y-97457440D01*
X132076803Y-97466571D01*
X132070132Y-97475174D01*
X132063103Y-97483257D01*
X132055734Y-97490825D01*
X132048044Y-97497885D01*
X132040052Y-97504444D01*
X132031776Y-97510507D01*
X132023234Y-97516081D01*
X132014447Y-97521172D01*
X132005432Y-97525787D01*
X131996208Y-97529933D01*
X131986793Y-97533615D01*
X131967469Y-97539614D01*
X131947608Y-97543835D01*
X131927361Y-97546331D01*
X131906876Y-97547152D01*
X131893523Y-97546750D01*
X131880522Y-97545568D01*
X131867875Y-97543636D01*
X131855582Y-97540986D01*
X131843647Y-97537650D01*
X131832069Y-97533659D01*
X131820852Y-97529046D01*
X131809996Y-97523842D01*
X131799503Y-97518078D01*
X131789375Y-97511787D01*
X131779613Y-97505000D01*
X131770219Y-97497748D01*
X131761194Y-97490064D01*
X131752540Y-97481979D01*
X131744259Y-97473525D01*
X131736352Y-97464734D01*
X131806626Y-97401949D01*
X131811136Y-97407294D01*
X131815881Y-97412424D01*
X131820854Y-97417320D01*
X131826048Y-97421965D01*
X131831456Y-97426340D01*
X131837072Y-97430429D01*
X131842887Y-97434213D01*
X131848896Y-97437674D01*
X131855091Y-97440795D01*
X131861466Y-97443558D01*
X131868013Y-97445944D01*
X131874726Y-97447937D01*
X131881597Y-97449517D01*
X131888620Y-97450669D01*
X131892186Y-97451078D01*
X131895787Y-97451372D01*
X131899423Y-97451551D01*
X131903093Y-97451611D01*
X131910289Y-97451481D01*
X131917297Y-97451091D01*
X131924113Y-97450436D01*
X131930735Y-97449516D01*
X131937160Y-97448326D01*
X131943386Y-97446864D01*
X131949410Y-97445127D01*
X131955229Y-97443113D01*
X131960842Y-97440818D01*
X131966244Y-97438241D01*
X131971435Y-97435378D01*
X131976410Y-97432227D01*
X131981169Y-97428784D01*
X131985707Y-97425048D01*
X131990022Y-97421015D01*
X131994112Y-97416683D01*
X131997975Y-97412048D01*
X132001607Y-97407109D01*
X132005006Y-97401863D01*
X132008170Y-97396306D01*
X132011095Y-97390436D01*
X132013779Y-97384250D01*
X132016220Y-97377746D01*
X132018416Y-97370920D01*
X132020362Y-97363771D01*
X132022058Y-97356294D01*
X132023500Y-97348489D01*
X132024685Y-97340351D01*
X132025611Y-97331878D01*
X132026276Y-97323068D01*
X132026677Y-97313917D01*
X132026812Y-97304423D01*
X132026277Y-97285626D01*
X132024686Y-97268210D01*
X132023501Y-97260013D01*
X132022060Y-97252152D01*
X132020365Y-97244626D01*
X132018419Y-97237430D01*
X132016225Y-97230562D01*
X132013785Y-97224020D01*
X132011101Y-97217799D01*
X132008177Y-97211898D01*
X132005014Y-97206313D01*
X132001616Y-97201041D01*
X131997984Y-97196080D01*
X131994122Y-97191426D01*
X131990033Y-97187077D01*
X131985718Y-97183030D01*
X131981180Y-97179282D01*
X131976422Y-97175829D01*
X131971447Y-97172669D01*
X131966256Y-97169800D01*
X131960853Y-97167217D01*
X131955240Y-97164919D01*
X131949420Y-97162902D01*
X131943396Y-97161164D01*
X131937169Y-97159701D01*
X131930742Y-97158510D01*
X131917301Y-97156935D01*
X131903093Y-97156415D01*
X131895787Y-97156654D01*
X131888619Y-97157358D01*
X131881595Y-97158509D01*
X131874722Y-97160090D01*
X131868008Y-97162082D01*
X131861459Y-97164469D01*
X131855083Y-97167231D01*
X131848886Y-97170352D01*
X131842876Y-97173814D01*
X131837060Y-97177598D01*
X131831445Y-97181686D01*
X131826037Y-97186062D01*
X131820844Y-97190707D01*
X131815873Y-97195603D01*
X131811132Y-97200732D01*
X131806626Y-97206078D01*
X131736352Y-97143292D01*
X131744264Y-97134487D01*
X131752549Y-97126022D01*
X131761206Y-97117927D01*
X131770233Y-97110236D01*
X131779630Y-97102979D01*
X131789393Y-97096187D01*
X131799522Y-97089893D01*
X131810016Y-97084128D01*
X131820871Y-97078923D01*
X131832088Y-97074309D01*
X131843664Y-97070319D01*
X131855597Y-97066984D01*
X131867887Y-97064335D01*
X131880531Y-97062404D01*
X131886985Y-97061717D01*
X131893528Y-97061222D01*
X131900158Y-97060922D01*
X131906876Y-97060821D01*
X131927361Y-97061643D01*
G37*
G36*
X132631861Y-97349429D02*
G01*
X132631978Y-97355409D01*
X132632326Y-97361228D01*
X132632901Y-97366885D01*
X132633697Y-97372377D01*
X132634709Y-97377702D01*
X132635932Y-97382859D01*
X132637361Y-97387845D01*
X132638992Y-97392660D01*
X132640819Y-97397300D01*
X132642838Y-97401764D01*
X132645043Y-97406050D01*
X132647429Y-97410157D01*
X132649992Y-97414081D01*
X132652726Y-97417822D01*
X132655627Y-97421378D01*
X132658689Y-97424746D01*
X132661908Y-97427924D01*
X132665279Y-97430912D01*
X132668796Y-97433706D01*
X132672455Y-97436305D01*
X132676251Y-97438707D01*
X132680178Y-97440910D01*
X132684232Y-97442913D01*
X132688408Y-97444712D01*
X132692701Y-97446307D01*
X132697105Y-97447696D01*
X132701617Y-97448876D01*
X132706230Y-97449846D01*
X132710940Y-97450604D01*
X132715742Y-97451147D01*
X132720631Y-97451475D01*
X132725603Y-97451584D01*
X132730653Y-97451475D01*
X132735617Y-97451147D01*
X132740488Y-97450604D01*
X132745263Y-97449846D01*
X132749937Y-97448876D01*
X132754505Y-97447696D01*
X132758961Y-97446307D01*
X132763302Y-97444712D01*
X132767522Y-97442913D01*
X132771616Y-97440910D01*
X132775581Y-97438707D01*
X132779410Y-97436305D01*
X132783099Y-97433706D01*
X132786644Y-97430912D01*
X132790039Y-97427924D01*
X132793280Y-97424746D01*
X132796361Y-97421378D01*
X132799279Y-97417822D01*
X132802028Y-97414081D01*
X132804603Y-97410157D01*
X132807000Y-97406050D01*
X132809214Y-97401764D01*
X132811240Y-97397300D01*
X132813073Y-97392660D01*
X132814708Y-97387845D01*
X132816141Y-97382859D01*
X132817366Y-97377702D01*
X132818380Y-97372377D01*
X132819177Y-97366885D01*
X132819752Y-97361228D01*
X132820100Y-97355409D01*
X132820217Y-97349429D01*
X132820217Y-97066457D01*
X132915758Y-97066457D01*
X132915758Y-97382264D01*
X132915759Y-97382264D01*
X132915514Y-97392216D01*
X132914793Y-97401870D01*
X132913612Y-97411226D01*
X132911988Y-97420281D01*
X132909938Y-97429036D01*
X132907480Y-97437488D01*
X132904631Y-97445636D01*
X132901408Y-97453480D01*
X132897828Y-97461017D01*
X132893908Y-97468247D01*
X132889665Y-97475169D01*
X132885117Y-97481781D01*
X132880281Y-97488083D01*
X132875174Y-97494072D01*
X132869812Y-97499748D01*
X132864214Y-97505110D01*
X132858397Y-97510156D01*
X132852377Y-97514885D01*
X132846172Y-97519296D01*
X132839798Y-97523388D01*
X132833274Y-97527159D01*
X132826616Y-97530609D01*
X132819841Y-97533736D01*
X132812967Y-97536539D01*
X132806010Y-97539016D01*
X132798989Y-97541167D01*
X132784819Y-97544486D01*
X132770594Y-97546484D01*
X132763505Y-97546984D01*
X132756453Y-97547152D01*
X132747228Y-97546932D01*
X132738165Y-97546272D01*
X132729273Y-97545174D01*
X132720561Y-97543635D01*
X132712041Y-97541658D01*
X132703720Y-97539241D01*
X132695610Y-97536384D01*
X132687721Y-97533089D01*
X132680061Y-97529355D01*
X132672642Y-97525182D01*
X132665472Y-97520569D01*
X132658561Y-97515518D01*
X132651920Y-97510029D01*
X132645559Y-97504100D01*
X132639486Y-97497733D01*
X132633713Y-97490928D01*
X132631861Y-97490928D01*
X132631861Y-97541569D01*
X132536320Y-97541569D01*
X132536320Y-97066457D01*
X132631861Y-97066457D01*
X132631861Y-97349429D01*
G37*
G36*
X134957786Y-98152308D02*
G01*
X134957606Y-98159980D01*
X134957066Y-98167530D01*
X134956171Y-98174948D01*
X134954923Y-98182227D01*
X134953325Y-98189360D01*
X134951382Y-98196337D01*
X134949096Y-98203152D01*
X134946470Y-98209796D01*
X134943509Y-98216262D01*
X134940214Y-98222541D01*
X134936589Y-98228627D01*
X134932638Y-98234510D01*
X134928364Y-98240183D01*
X134923770Y-98245638D01*
X134918858Y-98250867D01*
X134913634Y-98255862D01*
X134908099Y-98260616D01*
X134902258Y-98265120D01*
X134896112Y-98269367D01*
X134889666Y-98273349D01*
X134882923Y-98277057D01*
X134875887Y-98280485D01*
X134868559Y-98283623D01*
X134860944Y-98286465D01*
X134853045Y-98289002D01*
X134844865Y-98291226D01*
X134836407Y-98293130D01*
X134827675Y-98294705D01*
X134818671Y-98295944D01*
X134809400Y-98296838D01*
X134799864Y-98297381D01*
X134790067Y-98297564D01*
X134778311Y-98297387D01*
X134767275Y-98296856D01*
X134756930Y-98295965D01*
X134747250Y-98294711D01*
X134738206Y-98293088D01*
X134729772Y-98291094D01*
X134721921Y-98288723D01*
X134714624Y-98285972D01*
X134707855Y-98282836D01*
X134701586Y-98279310D01*
X134695789Y-98275392D01*
X134690438Y-98271076D01*
X134685504Y-98266359D01*
X134680961Y-98261235D01*
X134676781Y-98255701D01*
X134672936Y-98249753D01*
X134671057Y-98249753D01*
X134671057Y-98291928D01*
X134575464Y-98291928D01*
X134575464Y-98090421D01*
X134671057Y-98090421D01*
X134671057Y-98125108D01*
X134671138Y-98131860D01*
X134671382Y-98138238D01*
X134671795Y-98144253D01*
X134672381Y-98149914D01*
X134673144Y-98155232D01*
X134674090Y-98160219D01*
X134675223Y-98164883D01*
X134676547Y-98169237D01*
X134678068Y-98173289D01*
X134679790Y-98177051D01*
X134681717Y-98180534D01*
X134683855Y-98183747D01*
X134686207Y-98186701D01*
X134688779Y-98189406D01*
X134691574Y-98191874D01*
X134694599Y-98194115D01*
X134697856Y-98196138D01*
X134701352Y-98197955D01*
X134705090Y-98199576D01*
X134709076Y-98201011D01*
X134713313Y-98202271D01*
X134717807Y-98203367D01*
X134722562Y-98204309D01*
X134727582Y-98205107D01*
X134738439Y-98206314D01*
X134750415Y-98207073D01*
X134763546Y-98207466D01*
X134777870Y-98207579D01*
X134789537Y-98207255D01*
X134800302Y-98206308D01*
X134810186Y-98204773D01*
X134819210Y-98202687D01*
X134823406Y-98201448D01*
X134827394Y-98200084D01*
X134831177Y-98198601D01*
X134834758Y-98197001D01*
X134838140Y-98195291D01*
X134841324Y-98193474D01*
X134844314Y-98191554D01*
X134847111Y-98189537D01*
X134849719Y-98187427D01*
X134852141Y-98185228D01*
X134854378Y-98182945D01*
X134856433Y-98180582D01*
X134858309Y-98178143D01*
X134860008Y-98175634D01*
X134861534Y-98173058D01*
X134862888Y-98170420D01*
X134865092Y-98164976D01*
X134866640Y-98159339D01*
X134867554Y-98153543D01*
X134867854Y-98147624D01*
X134867777Y-98144408D01*
X134867546Y-98141265D01*
X134867159Y-98138198D01*
X134866617Y-98135207D01*
X134865918Y-98132295D01*
X134865062Y-98129464D01*
X134864047Y-98126716D01*
X134862875Y-98124052D01*
X134861542Y-98121475D01*
X134860050Y-98118986D01*
X134858398Y-98116588D01*
X134856584Y-98114281D01*
X134854607Y-98112069D01*
X134852469Y-98109952D01*
X134850166Y-98107934D01*
X134847700Y-98106015D01*
X134845069Y-98104198D01*
X134842272Y-98102484D01*
X134839309Y-98100875D01*
X134836179Y-98099374D01*
X134832882Y-98097983D01*
X134829417Y-98096702D01*
X134825782Y-98095534D01*
X134821978Y-98094481D01*
X134818004Y-98093545D01*
X134813859Y-98092728D01*
X134809542Y-98092031D01*
X134805052Y-98091456D01*
X134800390Y-98091006D01*
X134795554Y-98090682D01*
X134790543Y-98090487D01*
X134785357Y-98090421D01*
X134671057Y-98090421D01*
X134575464Y-98090421D01*
X134575464Y-97967708D01*
X134575698Y-97956956D01*
X134576397Y-97946652D01*
X134577552Y-97936790D01*
X134579155Y-97927362D01*
X134581198Y-97918362D01*
X134583673Y-97909782D01*
X134586572Y-97901615D01*
X134589886Y-97893855D01*
X134593608Y-97886494D01*
X134597730Y-97879525D01*
X134602243Y-97872942D01*
X134607140Y-97866736D01*
X134612412Y-97860902D01*
X134618052Y-97855432D01*
X134624051Y-97850319D01*
X134630401Y-97845556D01*
X134637094Y-97841136D01*
X134644123Y-97837053D01*
X134651478Y-97833298D01*
X134659152Y-97829865D01*
X134667137Y-97826748D01*
X134675425Y-97823938D01*
X134684008Y-97821429D01*
X134692878Y-97819214D01*
X134702026Y-97817286D01*
X134711445Y-97815638D01*
X134731061Y-97813153D01*
X134751664Y-97811704D01*
X134773187Y-97811233D01*
X134786322Y-97811455D01*
X134799023Y-97812136D01*
X134811291Y-97813293D01*
X134823133Y-97814947D01*
X134834551Y-97817117D01*
X134845551Y-97819822D01*
X134856136Y-97823082D01*
X134866310Y-97826916D01*
X134876078Y-97831344D01*
X134885443Y-97836384D01*
X134894410Y-97842056D01*
X134902983Y-97848380D01*
X134911167Y-97855376D01*
X134918964Y-97863061D01*
X134926380Y-97871456D01*
X134933418Y-97880580D01*
X134858462Y-97937731D01*
X134856862Y-97935235D01*
X134855220Y-97932842D01*
X134853532Y-97930549D01*
X134851794Y-97928357D01*
X134850004Y-97926262D01*
X134848157Y-97924263D01*
X134846250Y-97922360D01*
X134844279Y-97920549D01*
X134842241Y-97918831D01*
X134840132Y-97917203D01*
X134837948Y-97915663D01*
X134835686Y-97914211D01*
X134833343Y-97912845D01*
X134830914Y-97911563D01*
X134828396Y-97910363D01*
X134825786Y-97909245D01*
X134823079Y-97908206D01*
X134820273Y-97907245D01*
X134817364Y-97906361D01*
X134814347Y-97905552D01*
X134811220Y-97904816D01*
X134807979Y-97904152D01*
X134804621Y-97903559D01*
X134801141Y-97903035D01*
X134793802Y-97902187D01*
X134785936Y-97901596D01*
X134777513Y-97901251D01*
X134768503Y-97901138D01*
X134756138Y-97901329D01*
X134744680Y-97901913D01*
X134734113Y-97902910D01*
X134724423Y-97904338D01*
X134715596Y-97906217D01*
X134707615Y-97908566D01*
X134700465Y-97911403D01*
X134697198Y-97913011D01*
X134694132Y-97914748D01*
X134691267Y-97916617D01*
X134688601Y-97918620D01*
X134686131Y-97920760D01*
X134683856Y-97923038D01*
X134681774Y-97925457D01*
X134679883Y-97928020D01*
X134678180Y-97930730D01*
X134676665Y-97933587D01*
X134675336Y-97936595D01*
X134674189Y-97939756D01*
X134673224Y-97943073D01*
X134672439Y-97946548D01*
X134671832Y-97950182D01*
X134671400Y-97953980D01*
X134671057Y-97962072D01*
X134671057Y-98011734D01*
X134803190Y-98011734D01*
X134812619Y-98011922D01*
X134821757Y-98012479D01*
X134830602Y-98013396D01*
X134839155Y-98014662D01*
X134847415Y-98016268D01*
X134855382Y-98018204D01*
X134863054Y-98020461D01*
X134870432Y-98023028D01*
X134877514Y-98025895D01*
X134884301Y-98029054D01*
X134890792Y-98032493D01*
X134896986Y-98036204D01*
X134902884Y-98040177D01*
X134908483Y-98044401D01*
X134913784Y-98048867D01*
X134918787Y-98053565D01*
X134923490Y-98058485D01*
X134927894Y-98063618D01*
X134931997Y-98068954D01*
X134935800Y-98074482D01*
X134939301Y-98080194D01*
X134942501Y-98086079D01*
X134945398Y-98092128D01*
X134947993Y-98098330D01*
X134950284Y-98104676D01*
X134952271Y-98111157D01*
X134953954Y-98117761D01*
X134955332Y-98124481D01*
X134956405Y-98131305D01*
X134957172Y-98138224D01*
X134957633Y-98145228D01*
X134957685Y-98147624D01*
X134957786Y-98152308D01*
G37*
G36*
X135404588Y-98291928D02*
G01*
X135308994Y-98291928D01*
X135308994Y-98008956D01*
X135308877Y-98002971D01*
X135308529Y-97997148D01*
X135307954Y-97991488D01*
X135307158Y-97985993D01*
X135306145Y-97980665D01*
X135304920Y-97975506D01*
X135303488Y-97970518D01*
X135301853Y-97965703D01*
X135300021Y-97961062D01*
X135297996Y-97956597D01*
X135295783Y-97952311D01*
X135293387Y-97948205D01*
X135290812Y-97944281D01*
X135288064Y-97940541D01*
X135285147Y-97936986D01*
X135282066Y-97933619D01*
X135278826Y-97930442D01*
X135275432Y-97927456D01*
X135271887Y-97924664D01*
X135268198Y-97922066D01*
X135264369Y-97919666D01*
X135260405Y-97917464D01*
X135256310Y-97915463D01*
X135252090Y-97913665D01*
X135247749Y-97912072D01*
X135243291Y-97910684D01*
X135238723Y-97909506D01*
X135234048Y-97908537D01*
X135229271Y-97907780D01*
X135224398Y-97907237D01*
X135219432Y-97906910D01*
X135214379Y-97906801D01*
X135209411Y-97906910D01*
X135204524Y-97907237D01*
X135199724Y-97907780D01*
X135195015Y-97908537D01*
X135190404Y-97909506D01*
X135185894Y-97910684D01*
X135181491Y-97912072D01*
X135177200Y-97913665D01*
X135173026Y-97915463D01*
X135168973Y-97917464D01*
X135165046Y-97919666D01*
X135161252Y-97922066D01*
X135157594Y-97924663D01*
X135154078Y-97927456D01*
X135150708Y-97930442D01*
X135147489Y-97933619D01*
X135144428Y-97936986D01*
X135141527Y-97940540D01*
X135138793Y-97944281D01*
X135136231Y-97948205D01*
X135133845Y-97952311D01*
X135131640Y-97956597D01*
X135129622Y-97961062D01*
X135127795Y-97965703D01*
X135126164Y-97970518D01*
X135124735Y-97975506D01*
X135123512Y-97980665D01*
X135122500Y-97985993D01*
X135121704Y-97991488D01*
X135121130Y-97997148D01*
X135120781Y-98002971D01*
X135120664Y-98008956D01*
X135120664Y-98291927D01*
X135025096Y-98291927D01*
X135025096Y-97976121D01*
X135025341Y-97966169D01*
X135026062Y-97956514D01*
X135027242Y-97947159D01*
X135028864Y-97938103D01*
X135030912Y-97929349D01*
X135033366Y-97920897D01*
X135036211Y-97912749D01*
X135039429Y-97904905D01*
X135043002Y-97897368D01*
X135046913Y-97890137D01*
X135051145Y-97883215D01*
X135055681Y-97876603D01*
X135060502Y-97870302D01*
X135065593Y-97864313D01*
X135070935Y-97858637D01*
X135076512Y-97853275D01*
X135082305Y-97848229D01*
X135088298Y-97843500D01*
X135094473Y-97839089D01*
X135100813Y-97834997D01*
X135107300Y-97831225D01*
X135113918Y-97827775D01*
X135120649Y-97824649D01*
X135127475Y-97821846D01*
X135134380Y-97819368D01*
X135141346Y-97817217D01*
X135148355Y-97815393D01*
X135155391Y-97813899D01*
X135162435Y-97812734D01*
X135169471Y-97811901D01*
X135176482Y-97811400D01*
X135183450Y-97811232D01*
X135192846Y-97811452D01*
X135202062Y-97812112D01*
X135211091Y-97813211D01*
X135219928Y-97814749D01*
X135228568Y-97816727D01*
X135237004Y-97819144D01*
X135245233Y-97822000D01*
X135253247Y-97825295D01*
X135261041Y-97829029D01*
X135268611Y-97833203D01*
X135275950Y-97837815D01*
X135283053Y-97842866D01*
X135289914Y-97848356D01*
X135296529Y-97854284D01*
X135302891Y-97860651D01*
X135308994Y-97867457D01*
X135308650Y-97490954D01*
X135301938Y-97497145D01*
X135295149Y-97503056D01*
X135288273Y-97508670D01*
X135281297Y-97513971D01*
X135274212Y-97518943D01*
X135267006Y-97523569D01*
X135259669Y-97527832D01*
X135252188Y-97531717D01*
X135244554Y-97535206D01*
X135236755Y-97538284D01*
X135228780Y-97540933D01*
X135220619Y-97543137D01*
X135212259Y-97544881D01*
X135203691Y-97546146D01*
X135194903Y-97546918D01*
X135185884Y-97547178D01*
X135180486Y-97547102D01*
X135175180Y-97546875D01*
X135169968Y-97546500D01*
X135164848Y-97545981D01*
X135159820Y-97545320D01*
X135154885Y-97544521D01*
X135150041Y-97543587D01*
X135145290Y-97542521D01*
X135140630Y-97541325D01*
X135136063Y-97540004D01*
X135131586Y-97538560D01*
X135127201Y-97536996D01*
X135122907Y-97535315D01*
X135118704Y-97533521D01*
X135110570Y-97529603D01*
X135102799Y-97525269D01*
X135095388Y-97520542D01*
X135088337Y-97515447D01*
X135081645Y-97510009D01*
X135075309Y-97504252D01*
X135069330Y-97498202D01*
X135063705Y-97491882D01*
X135058434Y-97485319D01*
X135053734Y-97479014D01*
X135049458Y-97472644D01*
X135045587Y-97466081D01*
X135042106Y-97459195D01*
X135038997Y-97451857D01*
X135036246Y-97443939D01*
X135033835Y-97435312D01*
X135031747Y-97425847D01*
X135029967Y-97415416D01*
X135028478Y-97403888D01*
X135027263Y-97391137D01*
X135026306Y-97377032D01*
X135025099Y-97344247D01*
X135024726Y-97304503D01*
X135024726Y-97304476D01*
X135120293Y-97304476D01*
X135120368Y-97318171D01*
X135120670Y-97331780D01*
X135121319Y-97345191D01*
X135122431Y-97358296D01*
X135124125Y-97370984D01*
X135125227Y-97377137D01*
X135126519Y-97383145D01*
X135128016Y-97388994D01*
X135129731Y-97394670D01*
X135131681Y-97400159D01*
X135133880Y-97405448D01*
X135136342Y-97410523D01*
X135139082Y-97415370D01*
X135142116Y-97419975D01*
X135145457Y-97424325D01*
X135149121Y-97428406D01*
X135153122Y-97432205D01*
X135157476Y-97435706D01*
X135162196Y-97438898D01*
X135167298Y-97441765D01*
X135172796Y-97444295D01*
X135178705Y-97446473D01*
X135185040Y-97448286D01*
X135191816Y-97449720D01*
X135199047Y-97450762D01*
X135206749Y-97451396D01*
X135214935Y-97451611D01*
X135223037Y-97451383D01*
X135230659Y-97450710D01*
X135237817Y-97449609D01*
X135244524Y-97448095D01*
X135250795Y-97446185D01*
X135256644Y-97443896D01*
X135262088Y-97441243D01*
X135267138Y-97438243D01*
X135271812Y-97434912D01*
X135276122Y-97431267D01*
X135280084Y-97427323D01*
X135283713Y-97423098D01*
X135287022Y-97418606D01*
X135290026Y-97413866D01*
X135292741Y-97408892D01*
X135295180Y-97403702D01*
X135297358Y-97398311D01*
X135299290Y-97392736D01*
X135302473Y-97381099D01*
X135304847Y-97368920D01*
X135306527Y-97356331D01*
X135307631Y-97343462D01*
X135308275Y-97330443D01*
X135308650Y-97304476D01*
X135308576Y-97291385D01*
X135308274Y-97278204D01*
X135307629Y-97265061D01*
X135306524Y-97252086D01*
X135304842Y-97239407D01*
X135303748Y-97233219D01*
X135302467Y-97227154D01*
X135300982Y-97221227D01*
X135299281Y-97215455D01*
X135297349Y-97209855D01*
X135295170Y-97204441D01*
X135292730Y-97199230D01*
X135290015Y-97194238D01*
X135287010Y-97189482D01*
X135283701Y-97184978D01*
X135280073Y-97180741D01*
X135276110Y-97176788D01*
X135271800Y-97173135D01*
X135267127Y-97169798D01*
X135262077Y-97166793D01*
X135256635Y-97164137D01*
X135250786Y-97161844D01*
X135244516Y-97159933D01*
X135237811Y-97158418D01*
X135230655Y-97157316D01*
X135223035Y-97156643D01*
X135214935Y-97156415D01*
X135206749Y-97156630D01*
X135199047Y-97157264D01*
X135191816Y-97158306D01*
X135185040Y-97159740D01*
X135178705Y-97161553D01*
X135172796Y-97163733D01*
X135167298Y-97166265D01*
X135162196Y-97169136D01*
X135157476Y-97172332D01*
X135153122Y-97175839D01*
X135149121Y-97179645D01*
X135145457Y-97183736D01*
X135142116Y-97188098D01*
X135139082Y-97192717D01*
X135136342Y-97197580D01*
X135133880Y-97202674D01*
X135131681Y-97207985D01*
X135129731Y-97213500D01*
X135126519Y-97225084D01*
X135124125Y-97237320D01*
X135122431Y-97250099D01*
X135121319Y-97263312D01*
X135120670Y-97276852D01*
X135120293Y-97304476D01*
X135024726Y-97304476D01*
X135024817Y-97283525D01*
X135025099Y-97264438D01*
X135025590Y-97247111D01*
X135026306Y-97231415D01*
X135027263Y-97217218D01*
X135028478Y-97204391D01*
X135029967Y-97192802D01*
X135031747Y-97182321D01*
X135033835Y-97172818D01*
X135034999Y-97168392D01*
X135036246Y-97164162D01*
X135037578Y-97160111D01*
X135038997Y-97156223D01*
X135040506Y-97152481D01*
X135042105Y-97148869D01*
X135045587Y-97141972D01*
X135049458Y-97135399D01*
X135053734Y-97129021D01*
X135058434Y-97122707D01*
X135063705Y-97116144D01*
X135069330Y-97109825D01*
X135075309Y-97103774D01*
X135081645Y-97098018D01*
X135088337Y-97092580D01*
X135095388Y-97087485D01*
X135102799Y-97082757D01*
X135110570Y-97078423D01*
X135118704Y-97074506D01*
X135127201Y-97071031D01*
X135136062Y-97068022D01*
X135145290Y-97065505D01*
X135154885Y-97063505D01*
X135164848Y-97062045D01*
X135175180Y-97061151D01*
X135185884Y-97060848D01*
X135194964Y-97061109D01*
X135203921Y-97061878D01*
X135212740Y-97063140D01*
X135221407Y-97064875D01*
X135229910Y-97067065D01*
X135238234Y-97069694D01*
X135246366Y-97072743D01*
X135254292Y-97076194D01*
X135261998Y-97080029D01*
X135269471Y-97084231D01*
X135276698Y-97088782D01*
X135283664Y-97093664D01*
X135290356Y-97098860D01*
X135296760Y-97104350D01*
X135302863Y-97110118D01*
X135308650Y-97116146D01*
X135308650Y-97066483D01*
X135404588Y-97066483D01*
X135404588Y-97304476D01*
X135404588Y-98291928D01*
G37*
G36*
X132338151Y-97811453D02*
G01*
X132347363Y-97812112D01*
X132356383Y-97813211D01*
X132365204Y-97814749D01*
X132373815Y-97816727D01*
X132382210Y-97819144D01*
X132390380Y-97822000D01*
X132398317Y-97825296D01*
X132406012Y-97829030D01*
X132413457Y-97833203D01*
X132420644Y-97837815D01*
X132427565Y-97842866D01*
X132434211Y-97848356D01*
X132440575Y-97854285D01*
X132446647Y-97860651D01*
X132452420Y-97867457D01*
X132454325Y-97867457D01*
X132454325Y-97816868D01*
X132549866Y-97816868D01*
X132549866Y-98291928D01*
X132454325Y-98291928D01*
X132454325Y-98006099D01*
X132454192Y-97999717D01*
X132453799Y-97993564D01*
X132453153Y-97987637D01*
X132452263Y-97981936D01*
X132451136Y-97976458D01*
X132449782Y-97971201D01*
X132448209Y-97966164D01*
X132446424Y-97961346D01*
X132444437Y-97956744D01*
X132442254Y-97952357D01*
X132439885Y-97948183D01*
X132437337Y-97944220D01*
X132434619Y-97940467D01*
X132431739Y-97936923D01*
X132428705Y-97933585D01*
X132425526Y-97930451D01*
X132422209Y-97927521D01*
X132418763Y-97924791D01*
X132415196Y-97922262D01*
X132411517Y-97919930D01*
X132407733Y-97917795D01*
X132403853Y-97915854D01*
X132399884Y-97914106D01*
X132395836Y-97912549D01*
X132387533Y-97910002D01*
X132379009Y-97908200D01*
X132370331Y-97907128D01*
X132361563Y-97906774D01*
X132357085Y-97906852D01*
X132352783Y-97907089D01*
X132348637Y-97907491D01*
X132344624Y-97908064D01*
X132340721Y-97908812D01*
X132336907Y-97909742D01*
X132333159Y-97910859D01*
X132329456Y-97912168D01*
X132325775Y-97913676D01*
X132322094Y-97915387D01*
X132318391Y-97917308D01*
X132314645Y-97919443D01*
X132310832Y-97921799D01*
X132306931Y-97924380D01*
X132302920Y-97927193D01*
X132298777Y-97930243D01*
X132229430Y-97847772D01*
X132234911Y-97843655D01*
X132240464Y-97839745D01*
X132246094Y-97836049D01*
X132251806Y-97832575D01*
X132257607Y-97829332D01*
X132263501Y-97826327D01*
X132269493Y-97823570D01*
X132275590Y-97821069D01*
X132281795Y-97818831D01*
X132288116Y-97816864D01*
X132294557Y-97815178D01*
X132301124Y-97813779D01*
X132307822Y-97812678D01*
X132314656Y-97811880D01*
X132321631Y-97811396D01*
X132328754Y-97811233D01*
X132338151Y-97811453D01*
G37*
G36*
X134959083Y-97272239D02*
G01*
X134959972Y-97288461D01*
X134960273Y-97305402D01*
X134959945Y-97323240D01*
X134958976Y-97340230D01*
X134957391Y-97356390D01*
X134955212Y-97371738D01*
X134952463Y-97386293D01*
X134949168Y-97400073D01*
X134945352Y-97413098D01*
X134941036Y-97425384D01*
X134936246Y-97436952D01*
X134931004Y-97447820D01*
X134925335Y-97458005D01*
X134919262Y-97467528D01*
X134912809Y-97476405D01*
X134906000Y-97484655D01*
X134898857Y-97492298D01*
X134891406Y-97499352D01*
X134883669Y-97505834D01*
X134875670Y-97511764D01*
X134867433Y-97517160D01*
X134858981Y-97522041D01*
X134850339Y-97526425D01*
X134841530Y-97530331D01*
X134823504Y-97536781D01*
X134805094Y-97541540D01*
X134786490Y-97544757D01*
X134767880Y-97546578D01*
X134749454Y-97547152D01*
X134737539Y-97546886D01*
X134725707Y-97546079D01*
X134713976Y-97544718D01*
X134702360Y-97542789D01*
X134690877Y-97540277D01*
X134679542Y-97537170D01*
X134668373Y-97533453D01*
X134657385Y-97529114D01*
X134646595Y-97524137D01*
X134636019Y-97518510D01*
X134625674Y-97512219D01*
X134615575Y-97505249D01*
X134605740Y-97497588D01*
X134596184Y-97489221D01*
X134586924Y-97480136D01*
X134577977Y-97470317D01*
X134647324Y-97411315D01*
X134652721Y-97416618D01*
X134658361Y-97421629D01*
X134664223Y-97426341D01*
X134670287Y-97430747D01*
X134676533Y-97434841D01*
X134682938Y-97438614D01*
X134689484Y-97442061D01*
X134696150Y-97445175D01*
X134702914Y-97447948D01*
X134709757Y-97450373D01*
X134716657Y-97452445D01*
X134723595Y-97454155D01*
X134730549Y-97455497D01*
X134737499Y-97456464D01*
X134744425Y-97457049D01*
X134751306Y-97457246D01*
X134757404Y-97457131D01*
X134763392Y-97456785D01*
X134769265Y-97456209D01*
X134775017Y-97455403D01*
X134780643Y-97454366D01*
X134786137Y-97453100D01*
X134791493Y-97451604D01*
X134796706Y-97449879D01*
X134801771Y-97447925D01*
X134806683Y-97445741D01*
X134811435Y-97443328D01*
X134816022Y-97440687D01*
X134820438Y-97437817D01*
X134824679Y-97434719D01*
X134828739Y-97431392D01*
X134832612Y-97427838D01*
X134836293Y-97424055D01*
X134839776Y-97420045D01*
X134843056Y-97415807D01*
X134846127Y-97411342D01*
X134848984Y-97406649D01*
X134851621Y-97401730D01*
X134854033Y-97396584D01*
X134856215Y-97391211D01*
X134858160Y-97385612D01*
X134859864Y-97379786D01*
X134861320Y-97373734D01*
X134862525Y-97367456D01*
X134863471Y-97360953D01*
X134864153Y-97354223D01*
X134864567Y-97347269D01*
X134864706Y-97340089D01*
X134568611Y-97340089D01*
X134568611Y-97261402D01*
X134664178Y-97261402D01*
X134864706Y-97261402D01*
X134864413Y-97254732D01*
X134863888Y-97248261D01*
X134863137Y-97241990D01*
X134862164Y-97235919D01*
X134860974Y-97230050D01*
X134859572Y-97224383D01*
X134857963Y-97218920D01*
X134856152Y-97213660D01*
X134854142Y-97208605D01*
X134851940Y-97203756D01*
X134849550Y-97199114D01*
X134846977Y-97194678D01*
X134844225Y-97190451D01*
X134841300Y-97186433D01*
X134838205Y-97182625D01*
X134834947Y-97179028D01*
X134831529Y-97175642D01*
X134827958Y-97172468D01*
X134824236Y-97169508D01*
X134820370Y-97166761D01*
X134816363Y-97164230D01*
X134812222Y-97161914D01*
X134807950Y-97159815D01*
X134803552Y-97157933D01*
X134799034Y-97156270D01*
X134794400Y-97154825D01*
X134789655Y-97153601D01*
X134784803Y-97152597D01*
X134779850Y-97151815D01*
X134774800Y-97151255D01*
X134769658Y-97150919D01*
X134764429Y-97150807D01*
X134759203Y-97150919D01*
X134754068Y-97151255D01*
X134749031Y-97151815D01*
X134744094Y-97152597D01*
X134739262Y-97153601D01*
X134734539Y-97154825D01*
X134729931Y-97156270D01*
X134725440Y-97157933D01*
X134721071Y-97159815D01*
X134716829Y-97161914D01*
X134712717Y-97164230D01*
X134708741Y-97166761D01*
X134704904Y-97169508D01*
X134701210Y-97172468D01*
X134697665Y-97175642D01*
X134694271Y-97179028D01*
X134691035Y-97182625D01*
X134687959Y-97186433D01*
X134685048Y-97190451D01*
X134682306Y-97194679D01*
X134679738Y-97199114D01*
X134677348Y-97203756D01*
X134675140Y-97208606D01*
X134673119Y-97213660D01*
X134671289Y-97218920D01*
X134669653Y-97224384D01*
X134668217Y-97230050D01*
X134666985Y-97235919D01*
X134665961Y-97241990D01*
X134665149Y-97248261D01*
X134664553Y-97254732D01*
X134664178Y-97261402D01*
X134568611Y-97261402D01*
X134568611Y-97261376D01*
X134568875Y-97249997D01*
X134569657Y-97238888D01*
X134570944Y-97228054D01*
X134572721Y-97217503D01*
X134574974Y-97207239D01*
X134577690Y-97197270D01*
X134580853Y-97187600D01*
X134584451Y-97178236D01*
X134588469Y-97169183D01*
X134592892Y-97160449D01*
X134597708Y-97152038D01*
X134602901Y-97143957D01*
X134608458Y-97136212D01*
X134614364Y-97128808D01*
X134620606Y-97121753D01*
X134627170Y-97115051D01*
X134634041Y-97108709D01*
X134641205Y-97102732D01*
X134648649Y-97097128D01*
X134656357Y-97091901D01*
X134664317Y-97087058D01*
X134672514Y-97082604D01*
X134680934Y-97078546D01*
X134689563Y-97074890D01*
X134698387Y-97071642D01*
X134707392Y-97068807D01*
X134716563Y-97066392D01*
X134725887Y-97064402D01*
X134735350Y-97062845D01*
X134744937Y-97061725D01*
X134754635Y-97061048D01*
X134764429Y-97060821D01*
X134781767Y-97061540D01*
X134799219Y-97063760D01*
X134807934Y-97065463D01*
X134816615Y-97067576D01*
X134825239Y-97070111D01*
X134833784Y-97073081D01*
X134842231Y-97076498D01*
X134850558Y-97080372D01*
X134858743Y-97084716D01*
X134866765Y-97089541D01*
X134874603Y-97094861D01*
X134882236Y-97100685D01*
X134889642Y-97107026D01*
X134896800Y-97113897D01*
X134903689Y-97121308D01*
X134910288Y-97129272D01*
X134916575Y-97137800D01*
X134922529Y-97146904D01*
X134928129Y-97156596D01*
X134933353Y-97166888D01*
X134938181Y-97177792D01*
X134942591Y-97189320D01*
X134946562Y-97201482D01*
X134950072Y-97214292D01*
X134953101Y-97227761D01*
X134955626Y-97241900D01*
X134957627Y-97256722D01*
X134958067Y-97261402D01*
X134959083Y-97272239D01*
G37*
G36*
X134147683Y-98094009D02*
G01*
X134146476Y-98127018D01*
X134145518Y-98141210D01*
X134144302Y-98154033D01*
X134142812Y-98165618D01*
X134141031Y-98176096D01*
X134138942Y-98185597D01*
X134136529Y-98194252D01*
X134133776Y-98202190D01*
X134130665Y-98209543D01*
X134127181Y-98216440D01*
X134123306Y-98223012D01*
X134119025Y-98229390D01*
X134114321Y-98235704D01*
X134109051Y-98242267D01*
X134103428Y-98248587D01*
X134097451Y-98254637D01*
X134091118Y-98260394D01*
X134084430Y-98265832D01*
X134077382Y-98270927D01*
X134069976Y-98275654D01*
X134062208Y-98279988D01*
X134054078Y-98283906D01*
X134049877Y-98285700D01*
X134045584Y-98287381D01*
X134041200Y-98288945D01*
X134036725Y-98290389D01*
X134032158Y-98291710D01*
X134027499Y-98292906D01*
X134022747Y-98293972D01*
X134017904Y-98294906D01*
X134012969Y-98295705D01*
X134007940Y-98296366D01*
X134002819Y-98296885D01*
X133997605Y-98297260D01*
X133992298Y-98297487D01*
X133986898Y-98297563D01*
X133977817Y-98297302D01*
X133968860Y-98296531D01*
X133960039Y-98295267D01*
X133951370Y-98293529D01*
X133942866Y-98291335D01*
X133934540Y-98288703D01*
X133926407Y-98285651D01*
X133918480Y-98282198D01*
X133910772Y-98278360D01*
X133903298Y-98274156D01*
X133896072Y-98269605D01*
X133889107Y-98264724D01*
X133882416Y-98259532D01*
X133876014Y-98254046D01*
X133869915Y-98248284D01*
X133864131Y-98242265D01*
X133864131Y-98291928D01*
X133768564Y-98291928D01*
X133768564Y-98053962D01*
X133864131Y-98053962D01*
X133864506Y-98080232D01*
X133865150Y-98093372D01*
X133866254Y-98106344D01*
X133867934Y-98119018D01*
X133870308Y-98131267D01*
X133873492Y-98142961D01*
X133875424Y-98148559D01*
X133877602Y-98153971D01*
X133880041Y-98159179D01*
X133882755Y-98164168D01*
X133885760Y-98168922D01*
X133889069Y-98173424D01*
X133892697Y-98177658D01*
X133896659Y-98181609D01*
X133900970Y-98185260D01*
X133905643Y-98188595D01*
X133910694Y-98191598D01*
X133916137Y-98194253D01*
X133921987Y-98196544D01*
X133928258Y-98198454D01*
X133934965Y-98199968D01*
X133942122Y-98201069D01*
X133949745Y-98201741D01*
X133957847Y-98201969D01*
X133966033Y-98201755D01*
X133973734Y-98201120D01*
X133980965Y-98200079D01*
X133987741Y-98198645D01*
X133994076Y-98196831D01*
X133999986Y-98194652D01*
X134005484Y-98192120D01*
X134010586Y-98189250D01*
X134015306Y-98186054D01*
X134019659Y-98182547D01*
X134023660Y-98178741D01*
X134027324Y-98174651D01*
X134030666Y-98170290D01*
X134033699Y-98165672D01*
X134036440Y-98160810D01*
X134038902Y-98155717D01*
X134041100Y-98150407D01*
X134043050Y-98144894D01*
X134044766Y-98139192D01*
X134046262Y-98133313D01*
X134047554Y-98127272D01*
X134048657Y-98121082D01*
X134050351Y-98108308D01*
X134051463Y-98095101D01*
X134052111Y-98081569D01*
X134052414Y-98067819D01*
X134052488Y-98053962D01*
X134052111Y-98026641D01*
X134051463Y-98013222D01*
X134050351Y-98000111D01*
X134048657Y-97987418D01*
X134046262Y-97975253D01*
X134043050Y-97963725D01*
X134041100Y-97958234D01*
X134038902Y-97952944D01*
X134036440Y-97947868D01*
X134033699Y-97943020D01*
X134030666Y-97938413D01*
X134027324Y-97934062D01*
X134023660Y-97929981D01*
X134019659Y-97926182D01*
X134015306Y-97922680D01*
X134010586Y-97919488D01*
X134005484Y-97916620D01*
X133999986Y-97914090D01*
X133994076Y-97911912D01*
X133987741Y-97910099D01*
X133980965Y-97908665D01*
X133973734Y-97907623D01*
X133966033Y-97906989D01*
X133957847Y-97906774D01*
X133949745Y-97907002D01*
X133942122Y-97907675D01*
X133934965Y-97908777D01*
X133928258Y-97910292D01*
X133921987Y-97912203D01*
X133916137Y-97914494D01*
X133910694Y-97917148D01*
X133905643Y-97920150D01*
X133900970Y-97923483D01*
X133896659Y-97927131D01*
X133892697Y-97931076D01*
X133889069Y-97935304D01*
X133885760Y-97939798D01*
X133882755Y-97944541D01*
X133880041Y-97949517D01*
X133877602Y-97954710D01*
X133875424Y-97960103D01*
X133873492Y-97965681D01*
X133871791Y-97971426D01*
X133870308Y-97977323D01*
X133869027Y-97983355D01*
X133867934Y-97989505D01*
X133866254Y-98002098D01*
X133865150Y-98014971D01*
X133864506Y-98027993D01*
X133864205Y-98041033D01*
X133864131Y-98053962D01*
X133768564Y-98053962D01*
X133768564Y-97624728D01*
X133864131Y-97624728D01*
X133864131Y-97867457D01*
X133870843Y-97861266D01*
X133877632Y-97855356D01*
X133884509Y-97849742D01*
X133891484Y-97844440D01*
X133898569Y-97839469D01*
X133905775Y-97834843D01*
X133913113Y-97830579D01*
X133920593Y-97826695D01*
X133928227Y-97823205D01*
X133936026Y-97820128D01*
X133944001Y-97817479D01*
X133952163Y-97815274D01*
X133960522Y-97813531D01*
X133969091Y-97812265D01*
X133977879Y-97811494D01*
X133986898Y-97811233D01*
X133997605Y-97811536D01*
X134007940Y-97812428D01*
X134017904Y-97813885D01*
X134027499Y-97815883D01*
X134036725Y-97818397D01*
X134045584Y-97821402D01*
X134054078Y-97824874D01*
X134062208Y-97828788D01*
X134069976Y-97833120D01*
X134077382Y-97837846D01*
X134084430Y-97842941D01*
X134091118Y-97848380D01*
X134097451Y-97854140D01*
X134103428Y-97860194D01*
X134109051Y-97866520D01*
X134114321Y-97873092D01*
X134119025Y-97879397D01*
X134123306Y-97885765D01*
X134127181Y-97892326D01*
X134130665Y-97899210D01*
X134132266Y-97902813D01*
X134133776Y-97906545D01*
X134135196Y-97910422D01*
X134136529Y-97914461D01*
X134137777Y-97918677D01*
X134138942Y-97923087D01*
X134141031Y-97932551D01*
X134142812Y-97942983D01*
X134144302Y-97954513D01*
X134145518Y-97967269D01*
X134146476Y-97981380D01*
X134147192Y-97996976D01*
X134147683Y-98014185D01*
X134147965Y-98033137D01*
X134148056Y-98053962D01*
X134147683Y-98094009D01*
G37*
G36*
X133236698Y-98149502D02*
G01*
X133238630Y-98149502D01*
X133346368Y-97816868D01*
X133415715Y-97816868D01*
X133523454Y-98149502D01*
X133525332Y-98149502D01*
X133616243Y-97816868D01*
X133717420Y-97816868D01*
X133565628Y-98291928D01*
X133481305Y-98291928D01*
X133381981Y-97959267D01*
X133380103Y-97959267D01*
X133280778Y-98291928D01*
X133196402Y-98291928D01*
X133044637Y-97816868D01*
X133145867Y-97816868D01*
X133236698Y-98149502D01*
G37*
D11*
X131130656Y-96147550D02*
X130844942Y-96147550D01*
X130987799Y-96647550D02*
X130987799Y-96147550D01*
X130678276Y-96647550D02*
X130678276Y-96147550D01*
X130463990Y-96647550D02*
X130463990Y-96385645D01*
X130463990Y-96385645D02*
X130487800Y-96338026D01*
X130487800Y-96338026D02*
X130535419Y-96314217D01*
X130535419Y-96314217D02*
X130606847Y-96314217D01*
X130606847Y-96314217D02*
X130654466Y-96338026D01*
X130654466Y-96338026D02*
X130678276Y-96361836D01*
X130035419Y-96623741D02*
X130083038Y-96647550D01*
X130083038Y-96647550D02*
X130178276Y-96647550D01*
X130178276Y-96647550D02*
X130225895Y-96623741D01*
X130225895Y-96623741D02*
X130249704Y-96576121D01*
X130249704Y-96576121D02*
X130249704Y-96385645D01*
X130249704Y-96385645D02*
X130225895Y-96338026D01*
X130225895Y-96338026D02*
X130178276Y-96314217D01*
X130178276Y-96314217D02*
X130083038Y-96314217D01*
X130083038Y-96314217D02*
X130035419Y-96338026D01*
X130035419Y-96338026D02*
X130011609Y-96385645D01*
X130011609Y-96385645D02*
X130011609Y-96433264D01*
X130011609Y-96433264D02*
X130249704Y-96480883D01*
X129487800Y-96147550D02*
X129202086Y-96147550D01*
X129344943Y-96647550D02*
X129344943Y-96147550D01*
X129059229Y-96504693D02*
X128821134Y-96504693D01*
X129106848Y-96647550D02*
X128940182Y-96147550D01*
X128940182Y-96147550D02*
X128773515Y-96647550D01*
X128606849Y-96647550D02*
X128606849Y-96147550D01*
X128606849Y-96147550D02*
X128416373Y-96147550D01*
X128416373Y-96147550D02*
X128368754Y-96171360D01*
X128368754Y-96171360D02*
X128344944Y-96195169D01*
X128344944Y-96195169D02*
X128321135Y-96242788D01*
X128321135Y-96242788D02*
X128321135Y-96314217D01*
X128321135Y-96314217D02*
X128344944Y-96361836D01*
X128344944Y-96361836D02*
X128368754Y-96385645D01*
X128368754Y-96385645D02*
X128416373Y-96409455D01*
X128416373Y-96409455D02*
X128606849Y-96409455D01*
X127821135Y-96647550D02*
X127987801Y-96409455D01*
X128106849Y-96647550D02*
X128106849Y-96147550D01*
X128106849Y-96147550D02*
X127916373Y-96147550D01*
X127916373Y-96147550D02*
X127868754Y-96171360D01*
X127868754Y-96171360D02*
X127844944Y-96195169D01*
X127844944Y-96195169D02*
X127821135Y-96242788D01*
X127821135Y-96242788D02*
X127821135Y-96314217D01*
X127821135Y-96314217D02*
X127844944Y-96361836D01*
X127844944Y-96361836D02*
X127868754Y-96385645D01*
X127868754Y-96385645D02*
X127916373Y-96409455D01*
X127916373Y-96409455D02*
X128106849Y-96409455D01*
X127130659Y-96147550D02*
X127035421Y-96147550D01*
X127035421Y-96147550D02*
X126987802Y-96171360D01*
X126987802Y-96171360D02*
X126940183Y-96218979D01*
X126940183Y-96218979D02*
X126916373Y-96314217D01*
X126916373Y-96314217D02*
X126916373Y-96480883D01*
X126916373Y-96480883D02*
X126940183Y-96576121D01*
X126940183Y-96576121D02*
X126987802Y-96623741D01*
X126987802Y-96623741D02*
X127035421Y-96647550D01*
X127035421Y-96647550D02*
X127130659Y-96647550D01*
X127130659Y-96647550D02*
X127178278Y-96623741D01*
X127178278Y-96623741D02*
X127225897Y-96576121D01*
X127225897Y-96576121D02*
X127249706Y-96480883D01*
X127249706Y-96480883D02*
X127249706Y-96314217D01*
X127249706Y-96314217D02*
X127225897Y-96218979D01*
X127225897Y-96218979D02*
X127178278Y-96171360D01*
X127178278Y-96171360D02*
X127130659Y-96147550D01*
X126702087Y-96314217D02*
X126702087Y-96814217D01*
X126702087Y-96338026D02*
X126654468Y-96314217D01*
X126654468Y-96314217D02*
X126559230Y-96314217D01*
X126559230Y-96314217D02*
X126511611Y-96338026D01*
X126511611Y-96338026D02*
X126487801Y-96361836D01*
X126487801Y-96361836D02*
X126463992Y-96409455D01*
X126463992Y-96409455D02*
X126463992Y-96552312D01*
X126463992Y-96552312D02*
X126487801Y-96599931D01*
X126487801Y-96599931D02*
X126511611Y-96623741D01*
X126511611Y-96623741D02*
X126559230Y-96647550D01*
X126559230Y-96647550D02*
X126654468Y-96647550D01*
X126654468Y-96647550D02*
X126702087Y-96623741D01*
X126059230Y-96623741D02*
X126106849Y-96647550D01*
X126106849Y-96647550D02*
X126202087Y-96647550D01*
X126202087Y-96647550D02*
X126249706Y-96623741D01*
X126249706Y-96623741D02*
X126273515Y-96576121D01*
X126273515Y-96576121D02*
X126273515Y-96385645D01*
X126273515Y-96385645D02*
X126249706Y-96338026D01*
X126249706Y-96338026D02*
X126202087Y-96314217D01*
X126202087Y-96314217D02*
X126106849Y-96314217D01*
X126106849Y-96314217D02*
X126059230Y-96338026D01*
X126059230Y-96338026D02*
X126035420Y-96385645D01*
X126035420Y-96385645D02*
X126035420Y-96433264D01*
X126035420Y-96433264D02*
X126273515Y-96480883D01*
X125821135Y-96314217D02*
X125821135Y-96647550D01*
X125821135Y-96361836D02*
X125797325Y-96338026D01*
X125797325Y-96338026D02*
X125749706Y-96314217D01*
X125749706Y-96314217D02*
X125678278Y-96314217D01*
X125678278Y-96314217D02*
X125630659Y-96338026D01*
X125630659Y-96338026D02*
X125606849Y-96385645D01*
X125606849Y-96385645D02*
X125606849Y-96647550D01*
X131059228Y-97452522D02*
X131059228Y-96952522D01*
X131059228Y-97190617D02*
X130773514Y-97190617D01*
X130773514Y-97452522D02*
X130773514Y-96952522D01*
X130321132Y-97452522D02*
X130321132Y-97190617D01*
X130321132Y-97190617D02*
X130344942Y-97142998D01*
X130344942Y-97142998D02*
X130392561Y-97119189D01*
X130392561Y-97119189D02*
X130487799Y-97119189D01*
X130487799Y-97119189D02*
X130535418Y-97142998D01*
X130321132Y-97428713D02*
X130368751Y-97452522D01*
X130368751Y-97452522D02*
X130487799Y-97452522D01*
X130487799Y-97452522D02*
X130535418Y-97428713D01*
X130535418Y-97428713D02*
X130559227Y-97381093D01*
X130559227Y-97381093D02*
X130559227Y-97333474D01*
X130559227Y-97333474D02*
X130535418Y-97285855D01*
X130535418Y-97285855D02*
X130487799Y-97262046D01*
X130487799Y-97262046D02*
X130368751Y-97262046D01*
X130368751Y-97262046D02*
X130321132Y-97238236D01*
X130083037Y-97452522D02*
X130083037Y-97119189D01*
X130083037Y-97214427D02*
X130059227Y-97166808D01*
X130059227Y-97166808D02*
X130035418Y-97142998D01*
X130035418Y-97142998D02*
X129987799Y-97119189D01*
X129987799Y-97119189D02*
X129940180Y-97119189D01*
X129559227Y-97452522D02*
X129559227Y-96952522D01*
X129559227Y-97428713D02*
X129606846Y-97452522D01*
X129606846Y-97452522D02*
X129702084Y-97452522D01*
X129702084Y-97452522D02*
X129749703Y-97428713D01*
X129749703Y-97428713D02*
X129773513Y-97404903D01*
X129773513Y-97404903D02*
X129797322Y-97357284D01*
X129797322Y-97357284D02*
X129797322Y-97214427D01*
X129797322Y-97214427D02*
X129773513Y-97166808D01*
X129773513Y-97166808D02*
X129749703Y-97142998D01*
X129749703Y-97142998D02*
X129702084Y-97119189D01*
X129702084Y-97119189D02*
X129606846Y-97119189D01*
X129606846Y-97119189D02*
X129559227Y-97142998D01*
X129368751Y-97119189D02*
X129273513Y-97452522D01*
X129273513Y-97452522D02*
X129178275Y-97214427D01*
X129178275Y-97214427D02*
X129083037Y-97452522D01*
X129083037Y-97452522D02*
X128987799Y-97119189D01*
X128583036Y-97452522D02*
X128583036Y-97190617D01*
X128583036Y-97190617D02*
X128606846Y-97142998D01*
X128606846Y-97142998D02*
X128654465Y-97119189D01*
X128654465Y-97119189D02*
X128749703Y-97119189D01*
X128749703Y-97119189D02*
X128797322Y-97142998D01*
X128583036Y-97428713D02*
X128630655Y-97452522D01*
X128630655Y-97452522D02*
X128749703Y-97452522D01*
X128749703Y-97452522D02*
X128797322Y-97428713D01*
X128797322Y-97428713D02*
X128821131Y-97381093D01*
X128821131Y-97381093D02*
X128821131Y-97333474D01*
X128821131Y-97333474D02*
X128797322Y-97285855D01*
X128797322Y-97285855D02*
X128749703Y-97262046D01*
X128749703Y-97262046D02*
X128630655Y-97262046D01*
X128630655Y-97262046D02*
X128583036Y-97238236D01*
X128344941Y-97452522D02*
X128344941Y-97119189D01*
X128344941Y-97214427D02*
X128321131Y-97166808D01*
X128321131Y-97166808D02*
X128297322Y-97142998D01*
X128297322Y-97142998D02*
X128249703Y-97119189D01*
X128249703Y-97119189D02*
X128202084Y-97119189D01*
X127844941Y-97428713D02*
X127892560Y-97452522D01*
X127892560Y-97452522D02*
X127987798Y-97452522D01*
X127987798Y-97452522D02*
X128035417Y-97428713D01*
X128035417Y-97428713D02*
X128059226Y-97381093D01*
X128059226Y-97381093D02*
X128059226Y-97190617D01*
X128059226Y-97190617D02*
X128035417Y-97142998D01*
X128035417Y-97142998D02*
X127987798Y-97119189D01*
X127987798Y-97119189D02*
X127892560Y-97119189D01*
X127892560Y-97119189D02*
X127844941Y-97142998D01*
X127844941Y-97142998D02*
X127821131Y-97190617D01*
X127821131Y-97190617D02*
X127821131Y-97238236D01*
X127821131Y-97238236D02*
X128059226Y-97285855D01*
X126987799Y-97452522D02*
X127225894Y-97452522D01*
X127225894Y-97452522D02*
X127225894Y-96952522D01*
X126821132Y-97452522D02*
X126821132Y-97119189D01*
X126821132Y-96952522D02*
X126844941Y-96976332D01*
X126844941Y-96976332D02*
X126821132Y-97000141D01*
X126821132Y-97000141D02*
X126797322Y-96976332D01*
X126797322Y-96976332D02*
X126821132Y-96952522D01*
X126821132Y-96952522D02*
X126821132Y-97000141D01*
X126368751Y-97428713D02*
X126416370Y-97452522D01*
X126416370Y-97452522D02*
X126511608Y-97452522D01*
X126511608Y-97452522D02*
X126559227Y-97428713D01*
X126559227Y-97428713D02*
X126583037Y-97404903D01*
X126583037Y-97404903D02*
X126606846Y-97357284D01*
X126606846Y-97357284D02*
X126606846Y-97214427D01*
X126606846Y-97214427D02*
X126583037Y-97166808D01*
X126583037Y-97166808D02*
X126559227Y-97142998D01*
X126559227Y-97142998D02*
X126511608Y-97119189D01*
X126511608Y-97119189D02*
X126416370Y-97119189D01*
X126416370Y-97119189D02*
X126368751Y-97142998D01*
X125963990Y-97428713D02*
X126011609Y-97452522D01*
X126011609Y-97452522D02*
X126106847Y-97452522D01*
X126106847Y-97452522D02*
X126154466Y-97428713D01*
X126154466Y-97428713D02*
X126178275Y-97381093D01*
X126178275Y-97381093D02*
X126178275Y-97190617D01*
X126178275Y-97190617D02*
X126154466Y-97142998D01*
X126154466Y-97142998D02*
X126106847Y-97119189D01*
X126106847Y-97119189D02*
X126011609Y-97119189D01*
X126011609Y-97119189D02*
X125963990Y-97142998D01*
X125963990Y-97142998D02*
X125940180Y-97190617D01*
X125940180Y-97190617D02*
X125940180Y-97238236D01*
X125940180Y-97238236D02*
X126178275Y-97285855D01*
X125725895Y-97119189D02*
X125725895Y-97452522D01*
X125725895Y-97166808D02*
X125702085Y-97142998D01*
X125702085Y-97142998D02*
X125654466Y-97119189D01*
X125654466Y-97119189D02*
X125583038Y-97119189D01*
X125583038Y-97119189D02*
X125535419Y-97142998D01*
X125535419Y-97142998D02*
X125511609Y-97190617D01*
X125511609Y-97190617D02*
X125511609Y-97452522D01*
X125297323Y-97428713D02*
X125249704Y-97452522D01*
X125249704Y-97452522D02*
X125154466Y-97452522D01*
X125154466Y-97452522D02*
X125106847Y-97428713D01*
X125106847Y-97428713D02*
X125083038Y-97381093D01*
X125083038Y-97381093D02*
X125083038Y-97357284D01*
X125083038Y-97357284D02*
X125106847Y-97309665D01*
X125106847Y-97309665D02*
X125154466Y-97285855D01*
X125154466Y-97285855D02*
X125225895Y-97285855D01*
X125225895Y-97285855D02*
X125273514Y-97262046D01*
X125273514Y-97262046D02*
X125297323Y-97214427D01*
X125297323Y-97214427D02*
X125297323Y-97190617D01*
X125297323Y-97190617D02*
X125273514Y-97142998D01*
X125273514Y-97142998D02*
X125225895Y-97119189D01*
X125225895Y-97119189D02*
X125154466Y-97119189D01*
X125154466Y-97119189D02*
X125106847Y-97142998D01*
X124678276Y-97428713D02*
X124725895Y-97452522D01*
X124725895Y-97452522D02*
X124821133Y-97452522D01*
X124821133Y-97452522D02*
X124868752Y-97428713D01*
X124868752Y-97428713D02*
X124892561Y-97381093D01*
X124892561Y-97381093D02*
X124892561Y-97190617D01*
X124892561Y-97190617D02*
X124868752Y-97142998D01*
X124868752Y-97142998D02*
X124821133Y-97119189D01*
X124821133Y-97119189D02*
X124725895Y-97119189D01*
X124725895Y-97119189D02*
X124678276Y-97142998D01*
X124678276Y-97142998D02*
X124654466Y-97190617D01*
X124654466Y-97190617D02*
X124654466Y-97238236D01*
X124654466Y-97238236D02*
X124892561Y-97285855D01*
X131059228Y-98257494D02*
X131059228Y-97757494D01*
X130844942Y-98257494D02*
X130844942Y-97995589D01*
X130844942Y-97995589D02*
X130868752Y-97947970D01*
X130868752Y-97947970D02*
X130916371Y-97924161D01*
X130916371Y-97924161D02*
X130987799Y-97924161D01*
X130987799Y-97924161D02*
X131035418Y-97947970D01*
X131035418Y-97947970D02*
X131059228Y-97971780D01*
X130678275Y-97924161D02*
X130487799Y-97924161D01*
X130606847Y-97757494D02*
X130606847Y-98186065D01*
X130606847Y-98186065D02*
X130583037Y-98233685D01*
X130583037Y-98233685D02*
X130535418Y-98257494D01*
X130535418Y-98257494D02*
X130487799Y-98257494D01*
X130392561Y-97924161D02*
X130202085Y-97924161D01*
X130321133Y-97757494D02*
X130321133Y-98186065D01*
X130321133Y-98186065D02*
X130297323Y-98233685D01*
X130297323Y-98233685D02*
X130249704Y-98257494D01*
X130249704Y-98257494D02*
X130202085Y-98257494D01*
X130035419Y-97924161D02*
X130035419Y-98424161D01*
X130035419Y-97947970D02*
X129987800Y-97924161D01*
X129987800Y-97924161D02*
X129892562Y-97924161D01*
X129892562Y-97924161D02*
X129844943Y-97947970D01*
X129844943Y-97947970D02*
X129821133Y-97971780D01*
X129821133Y-97971780D02*
X129797324Y-98019399D01*
X129797324Y-98019399D02*
X129797324Y-98162256D01*
X129797324Y-98162256D02*
X129821133Y-98209875D01*
X129821133Y-98209875D02*
X129844943Y-98233685D01*
X129844943Y-98233685D02*
X129892562Y-98257494D01*
X129892562Y-98257494D02*
X129987800Y-98257494D01*
X129987800Y-98257494D02*
X130035419Y-98233685D01*
X129583038Y-98209875D02*
X129559228Y-98233685D01*
X129559228Y-98233685D02*
X129583038Y-98257494D01*
X129583038Y-98257494D02*
X129606847Y-98233685D01*
X129606847Y-98233685D02*
X129583038Y-98209875D01*
X129583038Y-98209875D02*
X129583038Y-98257494D01*
X129583038Y-97947970D02*
X129559228Y-97971780D01*
X129559228Y-97971780D02*
X129583038Y-97995589D01*
X129583038Y-97995589D02*
X129606847Y-97971780D01*
X129606847Y-97971780D02*
X129583038Y-97947970D01*
X129583038Y-97947970D02*
X129583038Y-97995589D01*
X128987800Y-97733685D02*
X129416371Y-98376542D01*
X128463990Y-97733685D02*
X128892561Y-98376542D01*
X128344942Y-97924161D02*
X128249704Y-98257494D01*
X128249704Y-98257494D02*
X128154466Y-98019399D01*
X128154466Y-98019399D02*
X128059228Y-98257494D01*
X128059228Y-98257494D02*
X127963990Y-97924161D01*
X127821132Y-97924161D02*
X127725894Y-98257494D01*
X127725894Y-98257494D02*
X127630656Y-98019399D01*
X127630656Y-98019399D02*
X127535418Y-98257494D01*
X127535418Y-98257494D02*
X127440180Y-97924161D01*
X127297322Y-97924161D02*
X127202084Y-98257494D01*
X127202084Y-98257494D02*
X127106846Y-98019399D01*
X127106846Y-98019399D02*
X127011608Y-98257494D01*
X127011608Y-98257494D02*
X126916370Y-97924161D01*
X126725893Y-98209875D02*
X126702083Y-98233685D01*
X126702083Y-98233685D02*
X126725893Y-98257494D01*
X126725893Y-98257494D02*
X126749702Y-98233685D01*
X126749702Y-98233685D02*
X126725893Y-98209875D01*
X126725893Y-98209875D02*
X126725893Y-98257494D01*
X126559226Y-97924161D02*
X126368750Y-97924161D01*
X126487798Y-97757494D02*
X126487798Y-98186065D01*
X126487798Y-98186065D02*
X126463988Y-98233685D01*
X126463988Y-98233685D02*
X126416369Y-98257494D01*
X126416369Y-98257494D02*
X126368750Y-98257494D01*
X125987798Y-98257494D02*
X125987798Y-97995589D01*
X125987798Y-97995589D02*
X126011608Y-97947970D01*
X126011608Y-97947970D02*
X126059227Y-97924161D01*
X126059227Y-97924161D02*
X126154465Y-97924161D01*
X126154465Y-97924161D02*
X126202084Y-97947970D01*
X125987798Y-98233685D02*
X126035417Y-98257494D01*
X126035417Y-98257494D02*
X126154465Y-98257494D01*
X126154465Y-98257494D02*
X126202084Y-98233685D01*
X126202084Y-98233685D02*
X126225893Y-98186065D01*
X126225893Y-98186065D02*
X126225893Y-98138446D01*
X126225893Y-98138446D02*
X126202084Y-98090827D01*
X126202084Y-98090827D02*
X126154465Y-98067018D01*
X126154465Y-98067018D02*
X126035417Y-98067018D01*
X126035417Y-98067018D02*
X125987798Y-98043208D01*
X125749703Y-97924161D02*
X125749703Y-98424161D01*
X125749703Y-97947970D02*
X125702084Y-97924161D01*
X125702084Y-97924161D02*
X125606846Y-97924161D01*
X125606846Y-97924161D02*
X125559227Y-97947970D01*
X125559227Y-97947970D02*
X125535417Y-97971780D01*
X125535417Y-97971780D02*
X125511608Y-98019399D01*
X125511608Y-98019399D02*
X125511608Y-98162256D01*
X125511608Y-98162256D02*
X125535417Y-98209875D01*
X125535417Y-98209875D02*
X125559227Y-98233685D01*
X125559227Y-98233685D02*
X125606846Y-98257494D01*
X125606846Y-98257494D02*
X125702084Y-98257494D01*
X125702084Y-98257494D02*
X125749703Y-98233685D01*
X125297322Y-98257494D02*
X125297322Y-97924161D01*
X125297322Y-98019399D02*
X125273512Y-97971780D01*
X125273512Y-97971780D02*
X125249703Y-97947970D01*
X125249703Y-97947970D02*
X125202084Y-97924161D01*
X125202084Y-97924161D02*
X125154465Y-97924161D01*
X124987798Y-98209875D02*
X124963988Y-98233685D01*
X124963988Y-98233685D02*
X124987798Y-98257494D01*
X124987798Y-98257494D02*
X125011607Y-98233685D01*
X125011607Y-98233685D02*
X124987798Y-98209875D01*
X124987798Y-98209875D02*
X124987798Y-98257494D01*
X124678274Y-98257494D02*
X124725893Y-98233685D01*
X124725893Y-98233685D02*
X124749703Y-98209875D01*
X124749703Y-98209875D02*
X124773512Y-98162256D01*
X124773512Y-98162256D02*
X124773512Y-98019399D01*
X124773512Y-98019399D02*
X124749703Y-97971780D01*
X124749703Y-97971780D02*
X124725893Y-97947970D01*
X124725893Y-97947970D02*
X124678274Y-97924161D01*
X124678274Y-97924161D02*
X124606846Y-97924161D01*
X124606846Y-97924161D02*
X124559227Y-97947970D01*
X124559227Y-97947970D02*
X124535417Y-97971780D01*
X124535417Y-97971780D02*
X124511608Y-98019399D01*
X124511608Y-98019399D02*
X124511608Y-98162256D01*
X124511608Y-98162256D02*
X124535417Y-98209875D01*
X124535417Y-98209875D02*
X124559227Y-98233685D01*
X124559227Y-98233685D02*
X124606846Y-98257494D01*
X124606846Y-98257494D02*
X124678274Y-98257494D01*
X124297322Y-98257494D02*
X124297322Y-97924161D01*
X124297322Y-98019399D02*
X124273512Y-97971780D01*
X124273512Y-97971780D02*
X124249703Y-97947970D01*
X124249703Y-97947970D02*
X124202084Y-97924161D01*
X124202084Y-97924161D02*
X124154465Y-97924161D01*
X123773512Y-97924161D02*
X123773512Y-98328923D01*
X123773512Y-98328923D02*
X123797322Y-98376542D01*
X123797322Y-98376542D02*
X123821131Y-98400351D01*
X123821131Y-98400351D02*
X123868750Y-98424161D01*
X123868750Y-98424161D02*
X123940179Y-98424161D01*
X123940179Y-98424161D02*
X123987798Y-98400351D01*
X123773512Y-98233685D02*
X123821131Y-98257494D01*
X123821131Y-98257494D02*
X123916369Y-98257494D01*
X123916369Y-98257494D02*
X123963988Y-98233685D01*
X123963988Y-98233685D02*
X123987798Y-98209875D01*
X123987798Y-98209875D02*
X124011607Y-98162256D01*
X124011607Y-98162256D02*
X124011607Y-98019399D01*
X124011607Y-98019399D02*
X123987798Y-97971780D01*
X123987798Y-97971780D02*
X123963988Y-97947970D01*
X123963988Y-97947970D02*
X123916369Y-97924161D01*
X123916369Y-97924161D02*
X123821131Y-97924161D01*
X123821131Y-97924161D02*
X123773512Y-97947970D01*
X123178274Y-97733685D02*
X123606845Y-98376542D01*
X122916369Y-97757494D02*
X122821131Y-97757494D01*
X122821131Y-97757494D02*
X122773512Y-97781304D01*
X122773512Y-97781304D02*
X122725893Y-97828923D01*
X122725893Y-97828923D02*
X122702083Y-97924161D01*
X122702083Y-97924161D02*
X122702083Y-98090827D01*
X122702083Y-98090827D02*
X122725893Y-98186065D01*
X122725893Y-98186065D02*
X122773512Y-98233685D01*
X122773512Y-98233685D02*
X122821131Y-98257494D01*
X122821131Y-98257494D02*
X122916369Y-98257494D01*
X122916369Y-98257494D02*
X122963988Y-98233685D01*
X122963988Y-98233685D02*
X123011607Y-98186065D01*
X123011607Y-98186065D02*
X123035416Y-98090827D01*
X123035416Y-98090827D02*
X123035416Y-97924161D01*
X123035416Y-97924161D02*
X123011607Y-97828923D01*
X123011607Y-97828923D02*
X122963988Y-97781304D01*
X122963988Y-97781304D02*
X122916369Y-97757494D01*
X122487797Y-98257494D02*
X122487797Y-97757494D01*
X122487797Y-97995589D02*
X122202083Y-97995589D01*
X122202083Y-98257494D02*
X122202083Y-97757494D01*
X121725892Y-98257494D02*
X121963987Y-98257494D01*
X121963987Y-98257494D02*
X121963987Y-97757494D01*
D12*
G36*
X161170268Y-52628876D02*
G01*
X160769099Y-52628876D01*
X160769099Y-52101311D01*
X160525101Y-52101311D01*
X160476190Y-52100091D01*
X160399552Y-52092633D01*
X160315639Y-52074734D01*
X160240510Y-52047072D01*
X160174165Y-52009647D01*
X160116605Y-51962459D01*
X160091201Y-51935426D01*
X160047890Y-51875371D01*
X160014574Y-51807330D01*
X159991252Y-51731304D01*
X159977926Y-51647292D01*
X159974455Y-51571182D01*
X159974461Y-51570816D01*
X160396507Y-51570816D01*
X160398552Y-51605910D01*
X160423997Y-51682617D01*
X160478522Y-51734778D01*
X160550087Y-51760283D01*
X160629148Y-51767187D01*
X160769099Y-51767187D01*
X160769099Y-51374445D01*
X160629148Y-51374445D01*
X160600977Y-51375212D01*
X160516690Y-51389978D01*
X160447624Y-51429866D01*
X160407639Y-51494300D01*
X160396507Y-51570816D01*
X159974461Y-51570816D01*
X159975005Y-51540028D01*
X159983248Y-51451908D01*
X160001383Y-51371798D01*
X160029410Y-51299701D01*
X160067329Y-51235614D01*
X160115139Y-51179539D01*
X160152245Y-51146909D01*
X160215160Y-51106123D01*
X160286781Y-51075125D01*
X160367109Y-51053916D01*
X160440700Y-51043719D01*
X160520338Y-51040320D01*
X161170268Y-51040320D01*
X161170268Y-52628876D01*
G37*
G36*
X159419047Y-51562023D02*
G01*
X159419047Y-52640600D01*
X159794204Y-52640600D01*
X159794204Y-51562023D01*
X159419047Y-51562023D01*
G37*
G36*
X159817651Y-51139971D02*
G01*
X159804111Y-51065465D01*
X159801165Y-51058272D01*
X159761053Y-50996372D01*
X159755736Y-50990861D01*
X159695755Y-50948633D01*
X159688691Y-50945432D01*
X159614755Y-50929091D01*
X159606626Y-50928946D01*
X159532119Y-50942486D01*
X159524926Y-50945432D01*
X159463327Y-50985544D01*
X159457882Y-50990861D01*
X159415653Y-51051143D01*
X159412453Y-51058272D01*
X159395748Y-51131845D01*
X159395600Y-51139971D01*
X159409441Y-51214416D01*
X159412453Y-51221671D01*
X159452564Y-51283571D01*
X159457882Y-51289082D01*
X159520156Y-51332358D01*
X159524926Y-51334511D01*
X159598499Y-51350852D01*
X159606626Y-51350997D01*
X159678994Y-51338375D01*
X159688691Y-51334511D01*
X159750229Y-51294337D01*
X159755736Y-51289082D01*
X159797964Y-51228800D01*
X159801165Y-51221671D01*
X159817507Y-51148035D01*
X159817651Y-51139971D01*
G37*
G36*
X158321420Y-51910069D02*
G01*
X158388844Y-51872107D01*
X158462792Y-51848665D01*
X158518524Y-51843391D01*
X158592682Y-51853233D01*
X158619640Y-51862442D01*
X158683044Y-51899330D01*
X158701339Y-51915565D01*
X158745441Y-51974435D01*
X158756294Y-51997264D01*
X158774513Y-52070353D01*
X158776078Y-52102044D01*
X158766727Y-52175293D01*
X158756294Y-52205725D01*
X158718582Y-52269060D01*
X158702439Y-52287058D01*
X158640928Y-52331476D01*
X158620739Y-52340547D01*
X158548531Y-52357754D01*
X158518524Y-52359232D01*
X158441347Y-52348928D01*
X158368085Y-52318016D01*
X158321420Y-52285959D01*
X158321420Y-52604329D01*
X158391006Y-52630456D01*
X158467046Y-52650925D01*
X158540710Y-52661947D01*
X158588499Y-52664047D01*
X158668009Y-52659328D01*
X158744835Y-52645172D01*
X158812348Y-52624113D01*
X158882448Y-52592546D01*
X158946660Y-52552754D01*
X158999926Y-52509441D01*
X159051738Y-52454343D01*
X159095844Y-52392319D01*
X159129253Y-52329923D01*
X159156578Y-52255281D01*
X159171576Y-52182466D01*
X159177200Y-52104928D01*
X159177247Y-52096915D01*
X159172739Y-52018884D01*
X159159215Y-51945074D01*
X159133925Y-51868760D01*
X159131085Y-51862075D01*
X159095366Y-51792286D01*
X159051681Y-51729510D01*
X159005055Y-51678527D01*
X158946345Y-51629616D01*
X158880535Y-51588670D01*
X158814546Y-51558359D01*
X158744085Y-51535562D01*
X158670548Y-51521208D01*
X158593933Y-51515297D01*
X158578241Y-51515128D01*
X158501641Y-51519968D01*
X158428460Y-51534487D01*
X158358698Y-51558685D01*
X158321420Y-51576311D01*
X158321420Y-51910069D01*
G37*
G36*
X157537423Y-51515827D02*
G01*
X157613273Y-51522505D01*
X157685646Y-51536255D01*
X157761981Y-51559825D01*
X157769346Y-51562628D01*
X157839528Y-51594285D01*
X157903412Y-51632524D01*
X157966413Y-51682191D01*
X158016344Y-51733417D01*
X158062839Y-51795965D01*
X158100502Y-51865006D01*
X158127827Y-51939243D01*
X158143809Y-52017375D01*
X158148496Y-52091786D01*
X158148308Y-52108451D01*
X158141747Y-52188901D01*
X158125811Y-52264557D01*
X158100502Y-52335418D01*
X158066699Y-52400720D01*
X158021251Y-52465774D01*
X157967145Y-52523729D01*
X157961802Y-52528617D01*
X157898864Y-52577705D01*
X157835037Y-52614892D01*
X157764912Y-52644996D01*
X157735185Y-52654956D01*
X157658013Y-52674047D01*
X157585070Y-52684132D01*
X157508824Y-52687494D01*
X157473968Y-52686830D01*
X157397844Y-52680480D01*
X157324907Y-52667407D01*
X157247606Y-52644996D01*
X157240107Y-52642305D01*
X157168852Y-52611622D01*
X157104394Y-52574070D01*
X157041343Y-52524828D01*
X156991111Y-52473194D01*
X156944120Y-52409784D01*
X156905788Y-52339448D01*
X156899799Y-52325943D01*
X156875649Y-52255797D01*
X156861159Y-52181286D01*
X156856329Y-52102410D01*
X156856355Y-52100212D01*
X157257498Y-52100212D01*
X157258757Y-52126522D01*
X157277648Y-52200230D01*
X157286917Y-52219864D01*
X157330038Y-52280830D01*
X157344757Y-52295160D01*
X157407341Y-52334319D01*
X157430055Y-52342654D01*
X157502596Y-52353370D01*
X157524309Y-52352458D01*
X157597850Y-52334319D01*
X157616969Y-52325248D01*
X157675520Y-52280830D01*
X157689028Y-52265202D01*
X157727543Y-52200230D01*
X157737107Y-52173333D01*
X157747327Y-52098014D01*
X157746090Y-52072758D01*
X157727543Y-52001660D01*
X157718292Y-51982454D01*
X157675520Y-51922159D01*
X157660658Y-51907829D01*
X157597850Y-51868670D01*
X157577890Y-51861104D01*
X157502596Y-51849253D01*
X157480757Y-51850182D01*
X157407341Y-51868670D01*
X157390893Y-51876355D01*
X157330038Y-51922159D01*
X157316386Y-51937787D01*
X157277648Y-52002759D01*
X157268832Y-52026161D01*
X157257498Y-52100212D01*
X156856355Y-52100212D01*
X156856518Y-52086242D01*
X156863130Y-52008060D01*
X156879187Y-51934315D01*
X156904689Y-51865006D01*
X156938707Y-51800814D01*
X156984886Y-51736897D01*
X157040244Y-51679992D01*
X157045701Y-51675149D01*
X157109796Y-51626360D01*
X157174525Y-51589144D01*
X157245408Y-51558726D01*
X157275312Y-51548508D01*
X157352879Y-51528923D01*
X157426114Y-51518577D01*
X157502596Y-51515128D01*
X157537423Y-51515827D01*
G37*
G36*
X156608300Y-52640600D02*
G01*
X156001601Y-52640600D01*
X155921299Y-52636501D01*
X155843790Y-52624205D01*
X155769074Y-52603711D01*
X155697152Y-52575020D01*
X155628688Y-52539460D01*
X155564712Y-52498359D01*
X155505223Y-52451716D01*
X155450223Y-52399532D01*
X155400168Y-52342402D01*
X155355884Y-52280921D01*
X155317370Y-52215090D01*
X155284626Y-52144909D01*
X155258500Y-52071659D01*
X155239838Y-51996989D01*
X155228641Y-51920900D01*
X155224909Y-51843391D01*
X155646961Y-51843391D01*
X155647730Y-51873346D01*
X155656930Y-51947629D01*
X155678468Y-52021810D01*
X155684555Y-52036867D01*
X155719517Y-52102023D01*
X155768960Y-52162494D01*
X155784130Y-52176845D01*
X155843896Y-52220853D01*
X155914040Y-52255184D01*
X155958576Y-52269930D01*
X156030962Y-52284150D01*
X156110045Y-52288890D01*
X156207132Y-52288890D01*
X156207132Y-51397892D01*
X156110045Y-51397892D01*
X156063956Y-51399522D01*
X155989758Y-51409904D01*
X155916238Y-51431964D01*
X155895132Y-51440785D01*
X155827843Y-51477881D01*
X155770792Y-51524654D01*
X155759902Y-51535920D01*
X155712600Y-51598431D01*
X155679201Y-51666071D01*
X155669913Y-51692135D01*
X155652281Y-51768350D01*
X155646961Y-51843391D01*
X155224909Y-51843391D01*
X155228710Y-51765080D01*
X155240113Y-51688419D01*
X155259118Y-51613406D01*
X155285725Y-51540041D01*
X155318950Y-51469791D01*
X155357808Y-51404120D01*
X155402298Y-51343029D01*
X155452421Y-51286517D01*
X155507422Y-51234814D01*
X155566910Y-51188515D01*
X155630886Y-51147619D01*
X155699351Y-51112128D01*
X155771135Y-51083277D01*
X155845438Y-51062669D01*
X155922260Y-51050304D01*
X156001601Y-51046182D01*
X156608300Y-51046182D01*
X156608300Y-52640600D01*
G37*
G36*
X154564925Y-51513703D02*
G01*
X154639831Y-51528831D01*
X154709801Y-51554696D01*
X154757016Y-51579494D01*
X154821485Y-51624505D01*
X154878328Y-51678893D01*
X154919516Y-51730471D01*
X154957879Y-51793156D01*
X154988970Y-51862075D01*
X155009836Y-51928708D01*
X155023862Y-52004648D01*
X155028538Y-52083359D01*
X155028498Y-52091172D01*
X155023732Y-52167206D01*
X155011024Y-52239449D01*
X154987871Y-52314535D01*
X154959306Y-52378062D01*
X154920612Y-52441826D01*
X154874298Y-52499183D01*
X154836128Y-52536186D01*
X154773119Y-52583447D01*
X154703206Y-52620816D01*
X154640209Y-52643613D01*
X154566614Y-52658938D01*
X154488517Y-52664047D01*
X154426038Y-52660049D01*
X154345600Y-52641017D01*
X154273367Y-52606313D01*
X154209339Y-52555936D01*
X154160987Y-52500282D01*
X154160987Y-52617152D01*
X153785830Y-52617152D01*
X153785830Y-52087756D01*
X154148164Y-52087756D01*
X154149093Y-52109417D01*
X154167582Y-52181911D01*
X154175301Y-52198024D01*
X154218873Y-52259214D01*
X154231250Y-52271201D01*
X154294710Y-52311238D01*
X154314064Y-52318518D01*
X154387767Y-52329923D01*
X154409731Y-52329029D01*
X154483021Y-52311238D01*
X154499083Y-52303716D01*
X154558859Y-52259214D01*
X154572030Y-52244067D01*
X154609051Y-52180812D01*
X154617065Y-52157846D01*
X154627369Y-52083726D01*
X154626492Y-52061992D01*
X154609051Y-51990669D01*
X154601593Y-51974930D01*
X154558859Y-51914466D01*
X154546481Y-51902479D01*
X154483021Y-51862442D01*
X154460444Y-51854107D01*
X154387767Y-51843391D01*
X154366409Y-51844302D01*
X154294710Y-51862442D01*
X154278649Y-51869964D01*
X154218873Y-51914466D01*
X154205524Y-51929612D01*
X154167582Y-51992867D01*
X154160016Y-52012685D01*
X154148164Y-52087756D01*
X153785830Y-52087756D01*
X153785830Y-51538576D01*
X154160987Y-51538576D01*
X154160987Y-51649584D01*
X154194939Y-51616697D01*
X154259506Y-51569696D01*
X154330629Y-51536124D01*
X154408310Y-51515981D01*
X154492547Y-51509267D01*
X154564925Y-51513703D01*
G37*
G36*
X153158614Y-51562023D02*
G01*
X153158614Y-52640600D01*
X153533771Y-52640600D01*
X153533771Y-51562023D01*
X153158614Y-51562023D01*
G37*
G36*
X153557219Y-51139971D02*
G01*
X153543679Y-51065465D01*
X153540732Y-51058272D01*
X153500620Y-50996372D01*
X153495303Y-50990861D01*
X153435322Y-50948633D01*
X153428259Y-50945432D01*
X153354322Y-50929091D01*
X153346193Y-50928946D01*
X153271686Y-50942486D01*
X153264494Y-50945432D01*
X153202894Y-50985544D01*
X153197449Y-50990861D01*
X153155221Y-51051143D01*
X153152020Y-51058272D01*
X153135315Y-51131845D01*
X153135167Y-51139971D01*
X153149008Y-51214416D01*
X153152020Y-51221671D01*
X153192132Y-51283571D01*
X153197449Y-51289082D01*
X153259724Y-51332358D01*
X153264494Y-51334511D01*
X153338067Y-51350852D01*
X153346193Y-51350997D01*
X153418561Y-51338375D01*
X153428259Y-51334511D01*
X153489796Y-51294337D01*
X153495303Y-51289082D01*
X153537532Y-51228800D01*
X153540732Y-51221671D01*
X153557074Y-51148035D01*
X153557219Y-51139971D01*
G37*
G36*
X152165767Y-51828370D02*
G01*
X152238587Y-51796874D01*
X152310454Y-51778451D01*
X152374961Y-51773049D01*
X152448691Y-51787319D01*
X152461790Y-51794664D01*
X152494762Y-51852550D01*
X152489633Y-51884057D01*
X152466186Y-51906406D01*
X152412697Y-51925823D01*
X152340791Y-51942418D01*
X152320007Y-51947072D01*
X152245200Y-51966352D01*
X152173139Y-51995596D01*
X152108095Y-52037470D01*
X152081503Y-52062110D01*
X152036449Y-52124237D01*
X152010097Y-52197273D01*
X152002369Y-52273136D01*
X152008657Y-52348517D01*
X152029494Y-52422528D01*
X152040471Y-52447159D01*
X152079490Y-52510101D01*
X152129869Y-52563646D01*
X152146350Y-52577218D01*
X152210915Y-52618572D01*
X152280286Y-52648934D01*
X152309382Y-52658551D01*
X152383279Y-52676188D01*
X152462637Y-52685685D01*
X152518576Y-52687494D01*
X152600789Y-52683166D01*
X152682564Y-52670183D01*
X152763901Y-52648545D01*
X152844801Y-52618251D01*
X152911882Y-52586395D01*
X152951985Y-52564396D01*
X152813499Y-52292920D01*
X152742195Y-52337031D01*
X152672539Y-52370307D01*
X152594950Y-52395071D01*
X152519513Y-52405684D01*
X152500991Y-52406126D01*
X152428344Y-52391815D01*
X152412330Y-52382679D01*
X152377526Y-52322595D01*
X152383021Y-52287424D01*
X152405369Y-52261779D01*
X152456294Y-52240163D01*
X152530706Y-52222652D01*
X152543855Y-52220013D01*
X152617989Y-52202177D01*
X152689963Y-52177756D01*
X152760803Y-52141177D01*
X152797746Y-52111569D01*
X152841727Y-52050209D01*
X152864210Y-51980294D01*
X152869919Y-51913366D01*
X152863468Y-51836159D01*
X152842237Y-51761375D01*
X152836214Y-51747403D01*
X152797831Y-51683014D01*
X152746569Y-51628607D01*
X152738761Y-51622107D01*
X152673282Y-51579174D01*
X152601856Y-51548399D01*
X152585254Y-51542972D01*
X152508702Y-51524944D01*
X152432134Y-51516461D01*
X152384853Y-51515128D01*
X152306644Y-51518389D01*
X152229417Y-51528172D01*
X152153172Y-51544476D01*
X152077909Y-51567301D01*
X152035342Y-51583272D01*
X152165767Y-51828370D01*
G37*
G36*
X151421315Y-52494420D02*
G01*
X151942285Y-51562023D01*
X151501182Y-51562023D01*
X151213587Y-52115233D01*
X150934417Y-51562023D01*
X150497344Y-51562023D01*
X151362697Y-53179888D01*
X151789145Y-53179888D01*
X151421315Y-52494420D01*
G37*
G36*
X149096734Y-50952027D02*
G01*
X149139881Y-51031201D01*
X149178784Y-51113203D01*
X149213443Y-51198031D01*
X149243858Y-51285687D01*
X149270029Y-51376170D01*
X149291956Y-51469480D01*
X149309639Y-51565618D01*
X149323078Y-51664582D01*
X149332273Y-51766374D01*
X149337225Y-51870993D01*
X149338168Y-51942309D01*
X149336777Y-52021086D01*
X149332604Y-52100385D01*
X149325648Y-52180206D01*
X149320582Y-52224776D01*
X149309412Y-52304220D01*
X149296097Y-52381809D01*
X149280638Y-52457543D01*
X149271123Y-52498817D01*
X149252415Y-52571173D01*
X149229317Y-52648238D01*
X149203786Y-52721797D01*
X149195652Y-52743181D01*
X149166944Y-52811145D01*
X149133051Y-52879458D01*
X149096734Y-52941018D01*
X149325711Y-53072177D01*
X149368418Y-53002882D01*
X149407922Y-52929867D01*
X149444223Y-52853131D01*
X149477323Y-52772674D01*
X149507221Y-52688496D01*
X149528834Y-52618475D01*
X149543698Y-52564396D01*
X149561473Y-52490573D01*
X149576877Y-52415102D01*
X149589912Y-52337983D01*
X149600576Y-52259214D01*
X149608871Y-52178797D01*
X149614796Y-52096732D01*
X149618351Y-52013018D01*
X149619536Y-51927655D01*
X149618345Y-51851451D01*
X149614773Y-51775247D01*
X149608819Y-51699043D01*
X149600485Y-51622840D01*
X149589723Y-51547185D01*
X149576854Y-51472630D01*
X149561879Y-51399174D01*
X149544797Y-51326817D01*
X149525357Y-51255834D01*
X149500805Y-51178387D01*
X149473412Y-51103490D01*
X149453573Y-51054975D01*
X149421241Y-50984615D01*
X149386069Y-50917790D01*
X149348056Y-50854501D01*
X149325711Y-50820868D01*
X149096734Y-50952027D01*
G37*
G36*
X148553782Y-51550299D02*
G01*
X148297327Y-52109371D01*
X148037208Y-51550299D01*
X147612958Y-51550299D01*
X148173496Y-52640600D01*
X148427753Y-52640600D01*
X148982062Y-51550299D01*
X148553782Y-51550299D01*
G37*
G36*
X147050589Y-51397892D02*
G01*
X147285062Y-51397892D01*
X147285062Y-51046182D01*
X146649420Y-51046182D01*
X146649420Y-52640600D01*
X147050589Y-52640600D01*
X147050589Y-51397892D01*
G37*
G36*
X146161057Y-52441664D02*
G01*
X146150547Y-52368574D01*
X146142372Y-52345676D01*
X146103661Y-52282198D01*
X146089616Y-52266908D01*
X146030019Y-52223062D01*
X146010848Y-52214151D01*
X145936734Y-52196012D01*
X145914860Y-52195101D01*
X145842114Y-52205817D01*
X145819239Y-52214151D01*
X145755760Y-52252738D01*
X145740471Y-52266908D01*
X145696625Y-52326505D01*
X145687714Y-52345676D01*
X145669575Y-52419665D01*
X145668663Y-52441664D01*
X145679379Y-52514273D01*
X145687714Y-52537285D01*
X145726301Y-52600763D01*
X145740471Y-52616053D01*
X145800067Y-52659550D01*
X145819239Y-52668443D01*
X145893004Y-52686583D01*
X145914860Y-52687494D01*
X145987812Y-52676778D01*
X146010848Y-52668443D01*
X146074326Y-52630080D01*
X146089616Y-52616053D01*
X146133336Y-52556456D01*
X146142372Y-52537285D01*
X146160163Y-52463395D01*
X146161057Y-52441664D01*
G37*
G36*
X145146961Y-51397892D02*
G01*
X145381434Y-51397892D01*
X145381434Y-51046182D01*
X144745792Y-51046182D01*
X144745792Y-52640600D01*
X145146961Y-52640600D01*
X145146961Y-51397892D01*
G37*
G36*
X144172065Y-52941018D02*
G01*
X144128918Y-52861159D01*
X144090015Y-52778614D01*
X144055356Y-52693384D01*
X144024941Y-52605469D01*
X143998770Y-52514868D01*
X143976843Y-52421581D01*
X143959160Y-52325609D01*
X143945721Y-52226951D01*
X143936526Y-52125608D01*
X143931574Y-52021580D01*
X143930631Y-51950736D01*
X143932051Y-51874084D01*
X143936311Y-51796214D01*
X143943411Y-51717128D01*
X143948583Y-51672665D01*
X143959663Y-51593047D01*
X143973119Y-51514937D01*
X143988952Y-51438333D01*
X143998775Y-51396426D01*
X144018043Y-51322949D01*
X144039167Y-51252544D01*
X144064812Y-51177919D01*
X144075711Y-51149131D01*
X144104012Y-51080766D01*
X144137043Y-51012673D01*
X144172065Y-50952027D01*
X143943088Y-50820868D01*
X143900390Y-50890145D01*
X143860913Y-50963106D01*
X143824656Y-51039753D01*
X143791619Y-51120085D01*
X143761802Y-51204102D01*
X143735204Y-51291804D01*
X143725467Y-51327916D01*
X143707607Y-51401544D01*
X143692128Y-51476981D01*
X143679031Y-51554226D01*
X143668314Y-51633281D01*
X143659980Y-51714144D01*
X143654026Y-51796817D01*
X143650454Y-51881298D01*
X143649263Y-51967588D01*
X143650477Y-52043792D01*
X143654118Y-52119996D01*
X143660186Y-52196200D01*
X143668681Y-52272403D01*
X143679374Y-52347943D01*
X143692403Y-52422155D01*
X143707767Y-52495038D01*
X143725467Y-52566594D01*
X143747878Y-52645333D01*
X143773072Y-52722043D01*
X143801047Y-52796724D01*
X143817791Y-52837337D01*
X143849772Y-52908051D01*
X143884303Y-52975114D01*
X143921385Y-53038526D01*
X143943088Y-53072177D01*
X144172065Y-52941018D01*
G37*
D13*
X160879865Y-53064939D02*
X160879865Y-53600653D01*
X160879865Y-53600653D02*
X160915580Y-53707796D01*
X160915580Y-53707796D02*
X160987008Y-53779225D01*
X160987008Y-53779225D02*
X161094151Y-53814939D01*
X161094151Y-53814939D02*
X161165580Y-53814939D01*
X160201294Y-53814939D02*
X160201294Y-53422082D01*
X160201294Y-53422082D02*
X160237008Y-53350653D01*
X160237008Y-53350653D02*
X160308436Y-53314939D01*
X160308436Y-53314939D02*
X160451294Y-53314939D01*
X160451294Y-53314939D02*
X160522722Y-53350653D01*
X160201294Y-53779225D02*
X160272722Y-53814939D01*
X160272722Y-53814939D02*
X160451294Y-53814939D01*
X160451294Y-53814939D02*
X160522722Y-53779225D01*
X160522722Y-53779225D02*
X160558436Y-53707796D01*
X160558436Y-53707796D02*
X160558436Y-53636367D01*
X160558436Y-53636367D02*
X160522722Y-53564939D01*
X160522722Y-53564939D02*
X160451294Y-53529225D01*
X160451294Y-53529225D02*
X160272722Y-53529225D01*
X160272722Y-53529225D02*
X160201294Y-53493510D01*
X159879865Y-53779225D02*
X159808437Y-53814939D01*
X159808437Y-53814939D02*
X159665580Y-53814939D01*
X159665580Y-53814939D02*
X159594151Y-53779225D01*
X159594151Y-53779225D02*
X159558437Y-53707796D01*
X159558437Y-53707796D02*
X159558437Y-53672082D01*
X159558437Y-53672082D02*
X159594151Y-53600653D01*
X159594151Y-53600653D02*
X159665580Y-53564939D01*
X159665580Y-53564939D02*
X159772723Y-53564939D01*
X159772723Y-53564939D02*
X159844151Y-53529225D01*
X159844151Y-53529225D02*
X159879865Y-53457796D01*
X159879865Y-53457796D02*
X159879865Y-53422082D01*
X159879865Y-53422082D02*
X159844151Y-53350653D01*
X159844151Y-53350653D02*
X159772723Y-53314939D01*
X159772723Y-53314939D02*
X159665580Y-53314939D01*
X159665580Y-53314939D02*
X159594151Y-53350653D01*
X159129865Y-53814939D02*
X159201294Y-53779225D01*
X159201294Y-53779225D02*
X159237008Y-53743510D01*
X159237008Y-53743510D02*
X159272722Y-53672082D01*
X159272722Y-53672082D02*
X159272722Y-53457796D01*
X159272722Y-53457796D02*
X159237008Y-53386367D01*
X159237008Y-53386367D02*
X159201294Y-53350653D01*
X159201294Y-53350653D02*
X159129865Y-53314939D01*
X159129865Y-53314939D02*
X159022722Y-53314939D01*
X159022722Y-53314939D02*
X158951294Y-53350653D01*
X158951294Y-53350653D02*
X158915580Y-53386367D01*
X158915580Y-53386367D02*
X158879865Y-53457796D01*
X158879865Y-53457796D02*
X158879865Y-53672082D01*
X158879865Y-53672082D02*
X158915580Y-53743510D01*
X158915580Y-53743510D02*
X158951294Y-53779225D01*
X158951294Y-53779225D02*
X159022722Y-53814939D01*
X159022722Y-53814939D02*
X159129865Y-53814939D01*
X158558437Y-53314939D02*
X158558437Y-53814939D01*
X158558437Y-53386367D02*
X158522723Y-53350653D01*
X158522723Y-53350653D02*
X158451294Y-53314939D01*
X158451294Y-53314939D02*
X158344151Y-53314939D01*
X158344151Y-53314939D02*
X158272723Y-53350653D01*
X158272723Y-53350653D02*
X158237009Y-53422082D01*
X158237009Y-53422082D02*
X158237009Y-53814939D01*
X157344151Y-53600653D02*
X156987009Y-53600653D01*
X157415580Y-53814939D02*
X157165580Y-53064939D01*
X157165580Y-53064939D02*
X156915580Y-53814939D01*
X156558437Y-53814939D02*
X156629866Y-53779225D01*
X156629866Y-53779225D02*
X156665580Y-53707796D01*
X156665580Y-53707796D02*
X156665580Y-53064939D01*
X155987009Y-53779225D02*
X156058437Y-53814939D01*
X156058437Y-53814939D02*
X156201295Y-53814939D01*
X156201295Y-53814939D02*
X156272723Y-53779225D01*
X156272723Y-53779225D02*
X156308437Y-53707796D01*
X156308437Y-53707796D02*
X156308437Y-53422082D01*
X156308437Y-53422082D02*
X156272723Y-53350653D01*
X156272723Y-53350653D02*
X156201295Y-53314939D01*
X156201295Y-53314939D02*
X156058437Y-53314939D01*
X156058437Y-53314939D02*
X155987009Y-53350653D01*
X155987009Y-53350653D02*
X155951295Y-53422082D01*
X155951295Y-53422082D02*
X155951295Y-53493510D01*
X155951295Y-53493510D02*
X156308437Y-53564939D01*
X155701295Y-53814939D02*
X155308438Y-53314939D01*
X155701295Y-53314939D02*
X155308438Y-53814939D01*
X154701295Y-53814939D02*
X154701295Y-53422082D01*
X154701295Y-53422082D02*
X154737009Y-53350653D01*
X154737009Y-53350653D02*
X154808437Y-53314939D01*
X154808437Y-53314939D02*
X154951295Y-53314939D01*
X154951295Y-53314939D02*
X155022723Y-53350653D01*
X154701295Y-53779225D02*
X154772723Y-53814939D01*
X154772723Y-53814939D02*
X154951295Y-53814939D01*
X154951295Y-53814939D02*
X155022723Y-53779225D01*
X155022723Y-53779225D02*
X155058437Y-53707796D01*
X155058437Y-53707796D02*
X155058437Y-53636367D01*
X155058437Y-53636367D02*
X155022723Y-53564939D01*
X155022723Y-53564939D02*
X154951295Y-53529225D01*
X154951295Y-53529225D02*
X154772723Y-53529225D01*
X154772723Y-53529225D02*
X154701295Y-53493510D01*
X154344152Y-53314939D02*
X154344152Y-53814939D01*
X154344152Y-53386367D02*
X154308438Y-53350653D01*
X154308438Y-53350653D02*
X154237009Y-53314939D01*
X154237009Y-53314939D02*
X154129866Y-53314939D01*
X154129866Y-53314939D02*
X154058438Y-53350653D01*
X154058438Y-53350653D02*
X154022724Y-53422082D01*
X154022724Y-53422082D02*
X154022724Y-53814939D01*
X153344153Y-53814939D02*
X153344153Y-53064939D01*
X153344153Y-53779225D02*
X153415581Y-53814939D01*
X153415581Y-53814939D02*
X153558438Y-53814939D01*
X153558438Y-53814939D02*
X153629867Y-53779225D01*
X153629867Y-53779225D02*
X153665581Y-53743510D01*
X153665581Y-53743510D02*
X153701295Y-53672082D01*
X153701295Y-53672082D02*
X153701295Y-53457796D01*
X153701295Y-53457796D02*
X153665581Y-53386367D01*
X153665581Y-53386367D02*
X153629867Y-53350653D01*
X153629867Y-53350653D02*
X153558438Y-53314939D01*
X153558438Y-53314939D02*
X153415581Y-53314939D01*
X153415581Y-53314939D02*
X153344153Y-53350653D01*
X152701296Y-53779225D02*
X152772724Y-53814939D01*
X152772724Y-53814939D02*
X152915582Y-53814939D01*
X152915582Y-53814939D02*
X152987010Y-53779225D01*
X152987010Y-53779225D02*
X153022724Y-53707796D01*
X153022724Y-53707796D02*
X153022724Y-53422082D01*
X153022724Y-53422082D02*
X152987010Y-53350653D01*
X152987010Y-53350653D02*
X152915582Y-53314939D01*
X152915582Y-53314939D02*
X152772724Y-53314939D01*
X152772724Y-53314939D02*
X152701296Y-53350653D01*
X152701296Y-53350653D02*
X152665582Y-53422082D01*
X152665582Y-53422082D02*
X152665582Y-53493510D01*
X152665582Y-53493510D02*
X153022724Y-53564939D01*
X152344153Y-53814939D02*
X152344153Y-53314939D01*
X152344153Y-53457796D02*
X152308439Y-53386367D01*
X152308439Y-53386367D02*
X152272725Y-53350653D01*
X152272725Y-53350653D02*
X152201296Y-53314939D01*
X152201296Y-53314939D02*
X152129867Y-53314939D01*
%LPC*%
D14*
X119064500Y-59046000D03*
X107634500Y-59046000D03*
D15*
X117794500Y-65396000D03*
D16*
X116524500Y-67936000D03*
X115254500Y-65396000D03*
X113984500Y-67936000D03*
X112714500Y-65396000D03*
X111444500Y-67936000D03*
X110174500Y-65396000D03*
X108904500Y-67936000D03*
D17*
X117692000Y-94247000D03*
D18*
X122772000Y-94247000D03*
D17*
X141187000Y-94247000D03*
D18*
X146267000Y-94247000D03*
D19*
X108807000Y-80520000D03*
D20*
X108807000Y-77980000D03*
X111347000Y-80520000D03*
X111347000Y-77980000D03*
X113887000Y-80520000D03*
X113887000Y-77980000D03*
X116427000Y-80520000D03*
X116427000Y-77980000D03*
X118967000Y-80520000D03*
X118967000Y-77980000D03*
X121507000Y-80520000D03*
X121507000Y-77980000D03*
X124047000Y-80520000D03*
X124047000Y-77980000D03*
X126587000Y-80520000D03*
X126587000Y-77980000D03*
X129127000Y-80520000D03*
X129127000Y-77980000D03*
X131667000Y-80520000D03*
X131667000Y-77980000D03*
X134207000Y-80520000D03*
X134207000Y-77980000D03*
X136747000Y-80520000D03*
X136747000Y-77980000D03*
X139287000Y-80520000D03*
X139287000Y-77980000D03*
X141827000Y-80520000D03*
X141827000Y-77980000D03*
X144367000Y-80520000D03*
X144367000Y-77980000D03*
X146907000Y-80520000D03*
X146907000Y-77980000D03*
X149447000Y-80520000D03*
X149447000Y-77980000D03*
X151987000Y-80520000D03*
X151987000Y-77980000D03*
X154527000Y-80520000D03*
X154527000Y-77980000D03*
X157067000Y-80520000D03*
X157067000Y-77980000D03*
D14*
X159064500Y-59046000D03*
X147634500Y-59046000D03*
D15*
X157794500Y-65396000D03*
D16*
X156524500Y-67936000D03*
X155254500Y-65396000D03*
X153984500Y-67936000D03*
X152714500Y-65396000D03*
X151444500Y-67936000D03*
X150174500Y-65396000D03*
X148904500Y-67936000D03*
D21*
X137182000Y-56097000D03*
X136332000Y-56097000D03*
X135482000Y-56097000D03*
X134632000Y-56097000D03*
X133782000Y-56097000D03*
X132932000Y-56097000D03*
X132082000Y-56097000D03*
X131232000Y-56097000D03*
X131232000Y-54747000D03*
X132082000Y-54747000D03*
X132932000Y-54747000D03*
X133782000Y-54747000D03*
X134632000Y-54747000D03*
X135482000Y-54747000D03*
X136332000Y-54747000D03*
X137182000Y-54747000D03*
D22*
X138532000Y-55117000D03*
D23*
X138532000Y-51737000D03*
D22*
X129882000Y-55117000D03*
D23*
X129882000Y-51737000D03*
%LPD*%
M02*
