M48
; DRILL file {KiCad 9.0.3} date 2025-07-21T03:06:40+0100
; FORMAT={-:-/ absolute / inch / decimal}
; #@! TF.CreationDate,2025-07-21T03:06:40+01:00
; #@! TF.GenerationSoftware,Kicad,Pcbnew,9.0.3
; #@! TF.FileFunction,Plated,1,4,PTH
FMAT,2
INCH
; #@! TA.AperFunction,Plated,PTH,ViaDrill
T1C0.0118
; #@! TA.AperFunction,Plated,PTH,ComponentDrill
T2C0.0157
; #@! TA.AperFunction,Plated,PTH,ComponentDrill
T3C0.0236
; #@! TA.AperFunction,Plated,PTH,ComponentDrill
T4C0.0299
; #@! TA.AperFunction,Plated,PTH,ComponentDrill
T5C0.0394
; #@! TA.AperFunction,Plated,PTH,ComponentDrill
T6C0.0512
%
G90
G05
T1
X4.0236Y-3.7559
X4.0276Y-3.8268
X4.0557Y-2.6801
X4.1107Y-2.6801
X4.1707Y-2.7235
X4.1732Y-2.8661
X4.2237Y-2.7601
X4.2907Y-2.8435
X4.3577Y-3.5335
X4.3577Y-3.6285
X4.3957Y-3.5535
X4.3957Y-3.6085
X4.441Y-3.6988
X4.4957Y-3.6988
X4.6457Y-2.9851
X4.6837Y-2.9851
X5.0387Y-2.0901
X5.0807Y-2.0885
X5.0987Y-2.3985
X5.0987Y-2.4451
X5.2107Y-2.0885
X5.2557Y-2.0885
X5.4387Y-3.7101
X5.4387Y-3.6685
X5.5687Y-2.3201
X5.6407Y-2.3185
X5.8637Y-2.9301
X5.8637Y-2.9835
X5.9637Y-2.8901
X5.9637Y-2.9295
X6.0137Y-2.8601
X6.0137Y-2.9295
X6.0637Y-2.8301
X6.0637Y-2.9295
X6.1137Y-2.8001
X6.1557Y-2.9535
X6.1607Y-2.7535
X6.195Y-3.5285
X6.195Y-3.6235
X6.2307Y-3.5435
X6.2307Y-3.6035
X6.2437Y-2.9351
X6.2755Y-3.7083
X6.2807Y-3.0235
X6.3007Y-3.7385
X6.3257Y-2.953
T2
X5.1666Y-2.1554
X5.1666Y-2.2085
X5.2001Y-2.1554
X5.2001Y-2.2085
X5.2335Y-2.1554
X5.2335Y-2.2085
X5.267Y-2.1554
X5.267Y-2.2085
X5.3005Y-2.1554
X5.3005Y-2.2085
X5.3339Y-2.1554
X5.3339Y-2.2085
X5.3674Y-2.1554
X5.3674Y-2.2085
X5.4009Y-2.1554
X5.4009Y-2.2085
T4
X4.2876Y-2.6746
X4.3376Y-2.5746
X4.3876Y-2.6746
X4.4376Y-2.5746
X4.4876Y-2.6746
X4.5376Y-2.5746
X4.5876Y-2.6746
X4.6376Y-2.5746
X5.8624Y-2.6746
X5.9124Y-2.5746
X5.9624Y-2.6746
X6.0124Y-2.5746
X6.0624Y-2.6746
X6.1124Y-2.5746
X6.1624Y-2.6746
X6.2124Y-2.5746
T5
X4.0236Y-3.5522
X4.0236Y-3.6522
X4.2837Y-3.0701
X4.2837Y-3.1701
X4.3837Y-3.0701
X4.3837Y-3.1701
X4.4837Y-3.0701
X4.4837Y-3.1701
X4.5837Y-3.0701
X4.5837Y-3.1701
X4.6837Y-3.0701
X4.6837Y-3.1701
X4.7837Y-3.0701
X4.7837Y-3.1701
X4.8837Y-3.0701
X4.8837Y-3.1701
X4.9837Y-3.0701
X4.9837Y-3.1701
X5.0837Y-3.0701
X5.0837Y-3.1701
X5.1837Y-3.0701
X5.1837Y-3.1701
X5.2837Y-3.0701
X5.2837Y-3.1701
X5.3837Y-3.0701
X5.3837Y-3.1701
X5.4837Y-3.0701
X5.4837Y-3.1701
X5.5837Y-3.0701
X5.5837Y-3.1701
X5.6837Y-3.0701
X5.6837Y-3.1701
X5.7376Y-3.3661
X5.7837Y-3.0701
X5.7837Y-3.1701
X5.8376Y-3.3661
X5.8837Y-3.0701
X5.8837Y-3.1701
X5.9837Y-3.0701
X5.9837Y-3.1701
X6.0837Y-3.0701
X6.0837Y-3.1701
X6.1837Y-3.0701
X6.1837Y-3.1701
T6
X4.6335Y-3.7105
X4.8335Y-3.7105
X5.5585Y-3.7105
X5.7585Y-3.7105
T3
G00X5.1135Y-2.0526
M15
G01X5.1135Y-2.0211
M16
G05
G00X5.1135Y-2.1995
M15
G01X5.1135Y-2.1404
M16
G05
G00X5.454Y-2.0526
M15
G01X5.454Y-2.0211
M16
G05
G00X5.454Y-2.1995
M15
G01X5.454Y-2.1404
M16
G05
M30
