G04 #@! TF.GenerationSoftware,KiCad,Pcbnew,8.0.8*
G04 #@! TF.CreationDate,2025-02-15T02:38:42+00:00*
G04 #@! TF.ProjectId,PicoChainZero,5069636f-4368-4616-996e-5a65726f2e6b,v1.1*
G04 #@! TF.SameCoordinates,Original*
G04 #@! TF.FileFunction,Soldermask,Bot*
G04 #@! TF.FilePolarity,Negative*
%FSLAX46Y46*%
G04 Gerber Fmt 4.6, Leading zero omitted, Abs format (unit mm)*
G04 Created by KiCad (PCBNEW 8.0.8) date 2025-02-15 02:38:42*
%MOMM*%
%LPD*%
G01*
G04 APERTURE LIST*
%ADD10C,3.200000*%
%ADD11R,1.500000X1.500000*%
%ADD12C,1.500000*%
%ADD13R,2.600000X2.600000*%
%ADD14C,2.600000*%
%ADD15R,1.700000X1.700000*%
%ADD16O,1.700000X1.700000*%
%ADD17C,0.700000*%
%ADD18O,0.900000X2.400000*%
%ADD19O,0.900000X1.700000*%
G04 APERTURE END LIST*
D10*
X120614500Y-59846000D03*
X109184500Y-59846000D03*
D11*
X119344500Y-66196000D03*
D12*
X118074500Y-68736000D03*
X116804500Y-66196000D03*
X115534500Y-68736000D03*
X114264500Y-66196000D03*
X112994500Y-68736000D03*
X111724500Y-66196000D03*
X110454500Y-68736000D03*
D13*
X117292000Y-93258000D03*
D14*
X122372000Y-93258000D03*
D13*
X140787000Y-93258000D03*
D14*
X145867000Y-93258000D03*
D15*
X108407000Y-81320000D03*
D16*
X108407000Y-78780000D03*
X110947000Y-81320000D03*
X110947000Y-78780000D03*
X113487000Y-81320000D03*
X113487000Y-78780000D03*
X116027000Y-81320000D03*
X116027000Y-78780000D03*
X118567000Y-81320000D03*
X118567000Y-78780000D03*
X121107000Y-81320000D03*
X121107000Y-78780000D03*
X123647000Y-81320000D03*
X123647000Y-78780000D03*
X126187000Y-81320000D03*
X126187000Y-78780000D03*
X128727000Y-81320000D03*
X128727000Y-78780000D03*
X131267000Y-81320000D03*
X131267000Y-78780000D03*
X133807000Y-81320000D03*
X133807000Y-78780000D03*
X136347000Y-81320000D03*
X136347000Y-78780000D03*
X138887000Y-81320000D03*
X138887000Y-78780000D03*
X141427000Y-81320000D03*
X141427000Y-78780000D03*
X143967000Y-81320000D03*
X143967000Y-78780000D03*
X146507000Y-81320000D03*
X146507000Y-78780000D03*
X149047000Y-81320000D03*
X149047000Y-78780000D03*
X151587000Y-81320000D03*
X151587000Y-78780000D03*
X154127000Y-81320000D03*
X154127000Y-78780000D03*
X156667000Y-81320000D03*
X156667000Y-78780000D03*
D10*
X158714500Y-59846000D03*
X147284500Y-59846000D03*
D11*
X157444500Y-66196000D03*
D12*
X156174500Y-68736000D03*
X154904500Y-66196000D03*
X153634500Y-68736000D03*
X152364500Y-66196000D03*
X151094500Y-68736000D03*
X149824500Y-66196000D03*
X148554500Y-68736000D03*
D17*
X136782000Y-56897000D03*
X135932000Y-56897000D03*
X135082000Y-56897000D03*
X134232000Y-56897000D03*
X133382000Y-56897000D03*
X132532000Y-56897000D03*
X131682000Y-56897000D03*
X130832000Y-56897000D03*
X130832000Y-55547000D03*
X131682000Y-55547000D03*
X132532000Y-55547000D03*
X133382000Y-55547000D03*
X134232000Y-55547000D03*
X135082000Y-55547000D03*
X135932000Y-55547000D03*
X136782000Y-55547000D03*
D18*
X138132000Y-55917000D03*
D19*
X138132000Y-52537000D03*
D18*
X129482000Y-55917000D03*
D19*
X129482000Y-52537000D03*
M02*
