M48
; DRILL file {KiCad 9.0.0} date 2025-04-21T00:35:18+0100
; FORMAT={-:-/ absolute / metric / decimal}
; #@! TF.CreationDate,2025-04-21T00:35:18+01:00
; #@! TF.GenerationSoftware,Kicad,Pcbnew,9.0.0
; #@! TF.FileFunction,Plated,1,4,PTH
FMAT,2
METRIC
; #@! TA.AperFunction,Plated,PTH,ViaDrill
T1C0.300
; #@! TA.AperFunction,Plated,PTH,ComponentDrill
T2C0.400
; #@! TA.AperFunction,Plated,PTH,ComponentDrill
T3C0.600
; #@! TA.AperFunction,Plated,PTH,ComponentDrill
T4C0.760
; #@! TA.AperFunction,Plated,PTH,ComponentDrill
T5C1.000
; #@! TA.AperFunction,Plated,PTH,ComponentDrill
T6C1.300
%
G90
G05
T1
X102.889Y-95.354
X103.016Y-68.074
X104.159Y-95.354
X104.413Y-68.074
X105.937Y-69.177
X105.937Y-72.225
X107.283Y-70.106
X108.985Y-72.225
X110.687Y-89.751
X110.687Y-92.164
X111.652Y-90.259
X111.652Y-91.656
X112.802Y-93.949
X114.192Y-93.949
X118.002Y-75.821
X118.967Y-75.821
X127.984Y-53.088
X129.051Y-53.048
X129.508Y-60.922
X129.508Y-62.105
X132.353Y-53.048
X133.496Y-53.048
X138.144Y-94.236
X138.144Y-93.18
X141.446Y-58.93
X143.275Y-58.89
X148.939Y-74.424
X148.939Y-75.781
X151.479Y-73.408
X151.479Y-74.409
X152.749Y-72.646
X152.749Y-74.409
X154.019Y-71.884
X154.019Y-74.409
X155.289Y-71.122
X156.356Y-75.019
X156.483Y-69.939
X157.354Y-89.624
X157.354Y-92.037
X158.261Y-90.005
X158.261Y-91.529
X158.591Y-74.551
X159.398Y-94.191
X159.531Y-76.797
X160.039Y-94.958
X160.674Y-75.007
T2
X131.232Y-54.747
X131.232Y-56.097
X132.082Y-54.747
X132.082Y-56.097
X132.932Y-54.747
X132.932Y-56.097
X133.782Y-54.747
X133.782Y-56.097
X134.632Y-54.747
X134.632Y-56.097
X135.482Y-54.747
X135.482Y-56.097
X136.332Y-54.747
X136.332Y-56.097
X137.182Y-54.747
X137.182Y-56.097
T4
X108.904Y-67.936
X110.174Y-65.396
X111.444Y-67.936
X112.715Y-65.396
X113.984Y-67.936
X115.254Y-65.396
X116.524Y-67.936
X117.794Y-65.396
X148.904Y-67.936
X150.174Y-65.396
X151.445Y-67.936
X152.714Y-65.396
X153.984Y-67.936
X155.254Y-65.396
X156.524Y-67.936
X157.794Y-65.396
T5
X108.807Y-77.98
X108.807Y-80.52
X111.347Y-77.98
X111.347Y-80.52
X113.887Y-77.98
X113.887Y-80.52
X116.427Y-77.98
X116.427Y-80.52
X118.967Y-77.98
X118.967Y-80.52
X121.507Y-77.98
X121.507Y-80.52
X124.047Y-77.98
X124.047Y-80.52
X126.587Y-77.98
X126.587Y-80.52
X129.127Y-77.98
X129.127Y-80.52
X131.667Y-77.98
X131.667Y-80.52
X134.207Y-77.98
X134.207Y-80.52
X136.747Y-77.98
X136.747Y-80.52
X139.287Y-77.98
X139.287Y-80.52
X141.827Y-77.98
X141.827Y-80.52
X144.367Y-77.98
X144.367Y-80.52
X146.907Y-77.98
X146.907Y-80.52
X149.447Y-77.98
X149.447Y-80.52
X151.987Y-77.98
X151.987Y-80.52
X154.527Y-77.98
X154.527Y-80.52
X157.067Y-77.98
X157.067Y-80.52
T6
X117.692Y-94.247
X122.772Y-94.247
X141.187Y-94.247
X146.267Y-94.247
T3
X129.882Y-52.137G85X129.882Y-51.337
G05
X129.882Y-55.867G85X129.882Y-54.367
G05
X138.532Y-52.137G85X138.532Y-51.337
G05
X138.532Y-55.867G85X138.532Y-54.367
G05
M30
