G04 #@! TF.GenerationSoftware,KiCad,Pcbnew,8.0.8*
G04 #@! TF.CreationDate,2025-02-15T02:38:42+00:00*
G04 #@! TF.ProjectId,PicoChainZero,5069636f-4368-4616-996e-5a65726f2e6b,v1.1*
G04 #@! TF.SameCoordinates,Original*
G04 #@! TF.FileFunction,Legend,Top*
G04 #@! TF.FilePolarity,Positive*
%FSLAX46Y46*%
G04 Gerber Fmt 4.6, Leading zero omitted, Abs format (unit mm)*
G04 Created by KiCad (PCBNEW 8.0.8) date 2025-02-15 02:38:42*
%MOMM*%
%LPD*%
G01*
G04 APERTURE LIST*
G04 Aperture macros list*
%AMRoundRect*
0 Rectangle with rounded corners*
0 $1 Rounding radius*
0 $2 $3 $4 $5 $6 $7 $8 $9 X,Y pos of 4 corners*
0 Add a 4 corners polygon primitive as box body*
4,1,4,$2,$3,$4,$5,$6,$7,$8,$9,$2,$3,0*
0 Add four circle primitives for the rounded corners*
1,1,$1+$1,$2,$3*
1,1,$1+$1,$4,$5*
1,1,$1+$1,$6,$7*
1,1,$1+$1,$8,$9*
0 Add four rect primitives between the rounded corners*
20,1,$1+$1,$2,$3,$4,$5,0*
20,1,$1+$1,$4,$5,$6,$7,0*
20,1,$1+$1,$6,$7,$8,$9,0*
20,1,$1+$1,$8,$9,$2,$3,0*%
G04 Aperture macros list end*
%ADD10C,0.000000*%
%ADD11C,0.150000*%
%ADD12C,0.300000*%
%ADD13C,0.062500*%
%ADD14C,0.120000*%
%ADD15R,0.450000X1.750000*%
%ADD16RoundRect,0.250000X0.262500X0.450000X-0.262500X0.450000X-0.262500X-0.450000X0.262500X-0.450000X0*%
%ADD17RoundRect,0.250000X-0.262500X-0.450000X0.262500X-0.450000X0.262500X0.450000X-0.262500X0.450000X0*%
%ADD18RoundRect,0.243750X0.456250X-0.243750X0.456250X0.243750X-0.456250X0.243750X-0.456250X-0.243750X0*%
%ADD19RoundRect,0.250000X-0.325000X-0.650000X0.325000X-0.650000X0.325000X0.650000X-0.325000X0.650000X0*%
%ADD20C,3.200000*%
%ADD21R,1.500000X1.500000*%
%ADD22C,1.500000*%
%ADD23RoundRect,0.250000X-0.475000X0.250000X-0.475000X-0.250000X0.475000X-0.250000X0.475000X0.250000X0*%
%ADD24RoundRect,0.250000X0.475000X-0.250000X0.475000X0.250000X-0.475000X0.250000X-0.475000X-0.250000X0*%
%ADD25R,2.600000X2.600000*%
%ADD26C,2.600000*%
%ADD27RoundRect,0.062500X0.062500X-0.362500X0.062500X0.362500X-0.062500X0.362500X-0.062500X-0.362500X0*%
%ADD28R,2.380000X1.650000*%
%ADD29RoundRect,0.150000X-0.150000X0.512500X-0.150000X-0.512500X0.150000X-0.512500X0.150000X0.512500X0*%
%ADD30R,1.700000X1.700000*%
%ADD31O,1.700000X1.700000*%
%ADD32RoundRect,0.250000X0.425000X-0.450000X0.425000X0.450000X-0.425000X0.450000X-0.425000X-0.450000X0*%
%ADD33RoundRect,0.250000X0.350000X-0.850000X0.350000X0.850000X-0.350000X0.850000X-0.350000X-0.850000X0*%
%ADD34RoundRect,0.249997X2.650003X-2.950003X2.650003X2.950003X-2.650003X2.950003X-2.650003X-2.950003X0*%
%ADD35RoundRect,0.250000X0.450000X0.425000X-0.450000X0.425000X-0.450000X-0.425000X0.450000X-0.425000X0*%
%ADD36RoundRect,0.250000X-0.650000X1.000000X-0.650000X-1.000000X0.650000X-1.000000X0.650000X1.000000X0*%
%ADD37C,0.700000*%
%ADD38O,0.900000X2.400000*%
%ADD39O,0.900000X1.700000*%
%ADD40R,1.100000X0.250000*%
G04 APERTURE END LIST*
D10*
G36*
X135560893Y-73517584D02*
G01*
X135567904Y-73518085D01*
X135581985Y-73520083D01*
X135596030Y-73523401D01*
X135609900Y-73528031D01*
X135616727Y-73530834D01*
X135623457Y-73533961D01*
X135630075Y-73537411D01*
X135636563Y-73541184D01*
X135642903Y-73545276D01*
X135649078Y-73549688D01*
X135655071Y-73554418D01*
X135660864Y-73559465D01*
X135666440Y-73564828D01*
X135671782Y-73570506D01*
X135676873Y-73576497D01*
X135681695Y-73582800D01*
X135686230Y-73589414D01*
X135690463Y-73596338D01*
X135694374Y-73603571D01*
X135697947Y-73611111D01*
X135701165Y-73618958D01*
X135704009Y-73627109D01*
X135706464Y-73635564D01*
X135708511Y-73644323D01*
X135710134Y-73653382D01*
X135711314Y-73662742D01*
X135712035Y-73672401D01*
X135712279Y-73682358D01*
X135712279Y-73998112D01*
X135616712Y-73998112D01*
X135616712Y-73715193D01*
X135616594Y-73709208D01*
X135616246Y-73703385D01*
X135615671Y-73697725D01*
X135614876Y-73692230D01*
X135613864Y-73686903D01*
X135612641Y-73681744D01*
X135611211Y-73676755D01*
X135609581Y-73671940D01*
X135607754Y-73667299D01*
X135605735Y-73662834D01*
X135603531Y-73658548D01*
X135601145Y-73654442D01*
X135598582Y-73650518D01*
X135595848Y-73646778D01*
X135592948Y-73643223D01*
X135589886Y-73639856D01*
X135586668Y-73636679D01*
X135583298Y-73633693D01*
X135579782Y-73630901D01*
X135576124Y-73628303D01*
X135572329Y-73625903D01*
X135568403Y-73623701D01*
X135564350Y-73621700D01*
X135560176Y-73619902D01*
X135555884Y-73618309D01*
X135551481Y-73616921D01*
X135546972Y-73615742D01*
X135542360Y-73614774D01*
X135537652Y-73614017D01*
X135532852Y-73613474D01*
X135527965Y-73613147D01*
X135522996Y-73613037D01*
X135517943Y-73613147D01*
X135512977Y-73613474D01*
X135508104Y-73614017D01*
X135503326Y-73614774D01*
X135498651Y-73615742D01*
X135494082Y-73616921D01*
X135489624Y-73618308D01*
X135485281Y-73619902D01*
X135481060Y-73621700D01*
X135476964Y-73623701D01*
X135472999Y-73625902D01*
X135469169Y-73628303D01*
X135465479Y-73630900D01*
X135461933Y-73633693D01*
X135458537Y-73636679D01*
X135455296Y-73639856D01*
X135452214Y-73643223D01*
X135449296Y-73646777D01*
X135446546Y-73650518D01*
X135443970Y-73654442D01*
X135441573Y-73658548D01*
X135439359Y-73662834D01*
X135437333Y-73667299D01*
X135435500Y-73671940D01*
X135433865Y-73676755D01*
X135432432Y-73681743D01*
X135431206Y-73686902D01*
X135430192Y-73692230D01*
X135429396Y-73697725D01*
X135428820Y-73703385D01*
X135428472Y-73709208D01*
X135428355Y-73715193D01*
X135428355Y-73998112D01*
X135332787Y-73998112D01*
X135332787Y-73523052D01*
X135428355Y-73523052D01*
X135428355Y-73573641D01*
X135430260Y-73573641D01*
X135436028Y-73566835D01*
X135442098Y-73560468D01*
X135448459Y-73554540D01*
X135455104Y-73549050D01*
X135462024Y-73543999D01*
X135469212Y-73539387D01*
X135476658Y-73535214D01*
X135484354Y-73531479D01*
X135492292Y-73528184D01*
X135500463Y-73525328D01*
X135508860Y-73522911D01*
X135517473Y-73520933D01*
X135526295Y-73519395D01*
X135535316Y-73518296D01*
X135544529Y-73517636D01*
X135553926Y-73517417D01*
X135560893Y-73517584D01*
G37*
G36*
X136999610Y-73806024D02*
G01*
X136999727Y-73812004D01*
X137000075Y-73817823D01*
X137000650Y-73823480D01*
X137001447Y-73828972D01*
X137002461Y-73834297D01*
X137003686Y-73839454D01*
X137005119Y-73844440D01*
X137006754Y-73849255D01*
X137008587Y-73853895D01*
X137010613Y-73858359D01*
X137012827Y-73862645D01*
X137015224Y-73866752D01*
X137017799Y-73870676D01*
X137020548Y-73874417D01*
X137023466Y-73877973D01*
X137026547Y-73881341D01*
X137029788Y-73884519D01*
X137033183Y-73887507D01*
X137036728Y-73890301D01*
X137040417Y-73892900D01*
X137044246Y-73895302D01*
X137048211Y-73897505D01*
X137052305Y-73899508D01*
X137056525Y-73901307D01*
X137060866Y-73902902D01*
X137065322Y-73904291D01*
X137069890Y-73905471D01*
X137074564Y-73906441D01*
X137079339Y-73907199D01*
X137084210Y-73907742D01*
X137089174Y-73908070D01*
X137094224Y-73908179D01*
X137099196Y-73908070D01*
X137104085Y-73907742D01*
X137108887Y-73907199D01*
X137113597Y-73906441D01*
X137118210Y-73905471D01*
X137122722Y-73904291D01*
X137127126Y-73902902D01*
X137131419Y-73901307D01*
X137135595Y-73899508D01*
X137139649Y-73897505D01*
X137143576Y-73895302D01*
X137147372Y-73892900D01*
X137151031Y-73890301D01*
X137154548Y-73887507D01*
X137157919Y-73884519D01*
X137161138Y-73881341D01*
X137164200Y-73877973D01*
X137167101Y-73874417D01*
X137169835Y-73870676D01*
X137172398Y-73866752D01*
X137174784Y-73862645D01*
X137176989Y-73858359D01*
X137179008Y-73853895D01*
X137180835Y-73849255D01*
X137182466Y-73844440D01*
X137183895Y-73839454D01*
X137185118Y-73834297D01*
X137186130Y-73828972D01*
X137186926Y-73823480D01*
X137187501Y-73817823D01*
X137187849Y-73812004D01*
X137187966Y-73806024D01*
X137187966Y-73523052D01*
X137283507Y-73523052D01*
X137283507Y-73998164D01*
X137187966Y-73998164D01*
X137187966Y-73947523D01*
X137186114Y-73947523D01*
X137180341Y-73954328D01*
X137174268Y-73960695D01*
X137167907Y-73966624D01*
X137161266Y-73972113D01*
X137154355Y-73977164D01*
X137147185Y-73981777D01*
X137139766Y-73985950D01*
X137132106Y-73989684D01*
X137124217Y-73992979D01*
X137116107Y-73995836D01*
X137107786Y-73998253D01*
X137099266Y-74000230D01*
X137090554Y-74001769D01*
X137081662Y-74002867D01*
X137072599Y-74003527D01*
X137063374Y-74003747D01*
X137056322Y-74003579D01*
X137049233Y-74003079D01*
X137035008Y-74001081D01*
X137020838Y-73997762D01*
X137013817Y-73995611D01*
X137006860Y-73993134D01*
X136999986Y-73990331D01*
X136993211Y-73987204D01*
X136986553Y-73983754D01*
X136980029Y-73979983D01*
X136973655Y-73975891D01*
X136967450Y-73971480D01*
X136961430Y-73966751D01*
X136955613Y-73961705D01*
X136950015Y-73956343D01*
X136944653Y-73950667D01*
X136939546Y-73944678D01*
X136934710Y-73938376D01*
X136930162Y-73931764D01*
X136925919Y-73924842D01*
X136921999Y-73917612D01*
X136918419Y-73910075D01*
X136915196Y-73902231D01*
X136912347Y-73894083D01*
X136909889Y-73885631D01*
X136907839Y-73876876D01*
X136906215Y-73867821D01*
X136905034Y-73858465D01*
X136904313Y-73848811D01*
X136904068Y-73838859D01*
X136904069Y-73838859D01*
X136904069Y-73523052D01*
X136999610Y-73523052D01*
X136999610Y-73806024D01*
G37*
G36*
X136988743Y-74268299D02*
G01*
X137009342Y-74269748D01*
X137028956Y-74272233D01*
X137038374Y-74273881D01*
X137047522Y-74275809D01*
X137056391Y-74278024D01*
X137064974Y-74280533D01*
X137073262Y-74283343D01*
X137081247Y-74286460D01*
X137088922Y-74289893D01*
X137096277Y-74293648D01*
X137103306Y-74297731D01*
X137110000Y-74302151D01*
X137116351Y-74306914D01*
X137122350Y-74312027D01*
X137127991Y-74317497D01*
X137133264Y-74323331D01*
X137138161Y-74329537D01*
X137142675Y-74336120D01*
X137146798Y-74343089D01*
X137150521Y-74350450D01*
X137153836Y-74358210D01*
X137156735Y-74366377D01*
X137159211Y-74374957D01*
X137161254Y-74383957D01*
X137162858Y-74393385D01*
X137164013Y-74403247D01*
X137164712Y-74413551D01*
X137164947Y-74424303D01*
X137164947Y-74748523D01*
X137069327Y-74748523D01*
X137069327Y-74706348D01*
X137067475Y-74706348D01*
X137063625Y-74712296D01*
X137059440Y-74717830D01*
X137054892Y-74722954D01*
X137049954Y-74727671D01*
X137044598Y-74731987D01*
X137038798Y-74735905D01*
X137032525Y-74739431D01*
X137025753Y-74742567D01*
X137018454Y-74745318D01*
X137010602Y-74747689D01*
X137002167Y-74749683D01*
X136993124Y-74751306D01*
X136983445Y-74752560D01*
X136973102Y-74753451D01*
X136962069Y-74753982D01*
X136950317Y-74754159D01*
X136940520Y-74753976D01*
X136930984Y-74753433D01*
X136921712Y-74752539D01*
X136912709Y-74751300D01*
X136903976Y-74749725D01*
X136895517Y-74747821D01*
X136887336Y-74745597D01*
X136879436Y-74743060D01*
X136871820Y-74740218D01*
X136864492Y-74737080D01*
X136857453Y-74733652D01*
X136850709Y-74729944D01*
X136844262Y-74725962D01*
X136838116Y-74721715D01*
X136832273Y-74717211D01*
X136826737Y-74712457D01*
X136821511Y-74707462D01*
X136816599Y-74702233D01*
X136812003Y-74696778D01*
X136807728Y-74691105D01*
X136803776Y-74685222D01*
X136800150Y-74679136D01*
X136796854Y-74672857D01*
X136793891Y-74666391D01*
X136791265Y-74659747D01*
X136788978Y-74652932D01*
X136787034Y-74645955D01*
X136785436Y-74638822D01*
X136784188Y-74631543D01*
X136783292Y-74624125D01*
X136782752Y-74616575D01*
X136782571Y-74608903D01*
X136782673Y-74604219D01*
X136872583Y-74604219D01*
X136872883Y-74610138D01*
X136873797Y-74615934D01*
X136875345Y-74621571D01*
X136877549Y-74627015D01*
X136878903Y-74629653D01*
X136880428Y-74632229D01*
X136882127Y-74634738D01*
X136884003Y-74637177D01*
X136886058Y-74639540D01*
X136888294Y-74641823D01*
X136890715Y-74644022D01*
X136893323Y-74646132D01*
X136896120Y-74648149D01*
X136899108Y-74650069D01*
X136902292Y-74651886D01*
X136905672Y-74653596D01*
X136909252Y-74655196D01*
X136913035Y-74656679D01*
X136917022Y-74658043D01*
X136921216Y-74659282D01*
X136930237Y-74661368D01*
X136940117Y-74662903D01*
X136950879Y-74663850D01*
X136962541Y-74664174D01*
X136976865Y-74664061D01*
X136989996Y-74663668D01*
X137001971Y-74662909D01*
X137012828Y-74661702D01*
X137017849Y-74660904D01*
X137022604Y-74659962D01*
X137027098Y-74658866D01*
X137031335Y-74657606D01*
X137035320Y-74656171D01*
X137039059Y-74654550D01*
X137042554Y-74652733D01*
X137045812Y-74650710D01*
X137048836Y-74648469D01*
X137051632Y-74646001D01*
X137054204Y-74643296D01*
X137056556Y-74640342D01*
X137058693Y-74637129D01*
X137060621Y-74633646D01*
X137062342Y-74629884D01*
X137063863Y-74625832D01*
X137065188Y-74621478D01*
X137066321Y-74616814D01*
X137067267Y-74611827D01*
X137068030Y-74606509D01*
X137068616Y-74600848D01*
X137069029Y-74594833D01*
X137069273Y-74588455D01*
X137069353Y-74581703D01*
X137069353Y-74547016D01*
X136955053Y-74547016D01*
X136949870Y-74547082D01*
X136944861Y-74547277D01*
X136940027Y-74547601D01*
X136935367Y-74548051D01*
X136930880Y-74548626D01*
X136926564Y-74549323D01*
X136922420Y-74550140D01*
X136918448Y-74551076D01*
X136914645Y-74552129D01*
X136911012Y-74553297D01*
X136907547Y-74554578D01*
X136904251Y-74555969D01*
X136901122Y-74557470D01*
X136898160Y-74559079D01*
X136895364Y-74560793D01*
X136892734Y-74562610D01*
X136890268Y-74564529D01*
X136887966Y-74566547D01*
X136885828Y-74568664D01*
X136883852Y-74570876D01*
X136882038Y-74573183D01*
X136880386Y-74575581D01*
X136878894Y-74578070D01*
X136877562Y-74580647D01*
X136876389Y-74583311D01*
X136875375Y-74586059D01*
X136874519Y-74588890D01*
X136873820Y-74591802D01*
X136873278Y-74594793D01*
X136872891Y-74597860D01*
X136872660Y-74601003D01*
X136872583Y-74604219D01*
X136782673Y-74604219D01*
X136782725Y-74601823D01*
X136783186Y-74594819D01*
X136783954Y-74587900D01*
X136785027Y-74581076D01*
X136786407Y-74574356D01*
X136788091Y-74567752D01*
X136790080Y-74561271D01*
X136792373Y-74554925D01*
X136794969Y-74548723D01*
X136797868Y-74542674D01*
X136801070Y-74536789D01*
X136804573Y-74531077D01*
X136808378Y-74525549D01*
X136812483Y-74520213D01*
X136816889Y-74515080D01*
X136821594Y-74510160D01*
X136826598Y-74505462D01*
X136831901Y-74500996D01*
X136837502Y-74496772D01*
X136843401Y-74492799D01*
X136849596Y-74489088D01*
X136856088Y-74485649D01*
X136862876Y-74482490D01*
X136869959Y-74479623D01*
X136877338Y-74477056D01*
X136885010Y-74474799D01*
X136892976Y-74472863D01*
X136901235Y-74471257D01*
X136909787Y-74469991D01*
X136918631Y-74469074D01*
X136927767Y-74468517D01*
X136937194Y-74468329D01*
X137069327Y-74468329D01*
X137069327Y-74418667D01*
X137068984Y-74410575D01*
X137068552Y-74406777D01*
X137067945Y-74403143D01*
X137067160Y-74399668D01*
X137066195Y-74396351D01*
X137065048Y-74393190D01*
X137063719Y-74390182D01*
X137062203Y-74387325D01*
X137060501Y-74384615D01*
X137058609Y-74382052D01*
X137056527Y-74379633D01*
X137054251Y-74377355D01*
X137051781Y-74375215D01*
X137049114Y-74373212D01*
X137046249Y-74371343D01*
X137043183Y-74369606D01*
X137039914Y-74367998D01*
X137032763Y-74365161D01*
X137024780Y-74362812D01*
X137015950Y-74360933D01*
X137006257Y-74359505D01*
X136995687Y-74358508D01*
X136984225Y-74357924D01*
X136971855Y-74357733D01*
X136962846Y-74357846D01*
X136954424Y-74358191D01*
X136946560Y-74358782D01*
X136939226Y-74359630D01*
X136935748Y-74360154D01*
X136932391Y-74360747D01*
X136929152Y-74361411D01*
X136926027Y-74362147D01*
X136923013Y-74362956D01*
X136920106Y-74363840D01*
X136917303Y-74364801D01*
X136914599Y-74365840D01*
X136911991Y-74366958D01*
X136909475Y-74368158D01*
X136907049Y-74369440D01*
X136904708Y-74370806D01*
X136902448Y-74372258D01*
X136900267Y-74373798D01*
X136898159Y-74375426D01*
X136896123Y-74377144D01*
X136894154Y-74378955D01*
X136892249Y-74380858D01*
X136890403Y-74382857D01*
X136888614Y-74384952D01*
X136886878Y-74387144D01*
X136885191Y-74389437D01*
X136883549Y-74391830D01*
X136881949Y-74394326D01*
X136806966Y-74337175D01*
X136814005Y-74328051D01*
X136821423Y-74319656D01*
X136829222Y-74311971D01*
X136837409Y-74304975D01*
X136845986Y-74298651D01*
X136854957Y-74292979D01*
X136864326Y-74287939D01*
X136874097Y-74283511D01*
X136884275Y-74279677D01*
X136894863Y-74276417D01*
X136905865Y-74273712D01*
X136917285Y-74271542D01*
X136929127Y-74269888D01*
X136941395Y-74268731D01*
X136954092Y-74268050D01*
X136967224Y-74267828D01*
X136988743Y-74268299D01*
G37*
G36*
X138313424Y-73517643D02*
G01*
X138323118Y-73518320D01*
X138332702Y-73519440D01*
X138342162Y-73520997D01*
X138351484Y-73522987D01*
X138360655Y-73525402D01*
X138369659Y-73528237D01*
X138378482Y-73531485D01*
X138387111Y-73535141D01*
X138395532Y-73539199D01*
X138403730Y-73543653D01*
X138411691Y-73548496D01*
X138419402Y-73553723D01*
X138426848Y-73559327D01*
X138434014Y-73565304D01*
X138440887Y-73571646D01*
X138447454Y-73578348D01*
X138453698Y-73585403D01*
X138459607Y-73592807D01*
X138465167Y-73600552D01*
X138470363Y-73608633D01*
X138475181Y-73617044D01*
X138479607Y-73625778D01*
X138483628Y-73634831D01*
X138487228Y-73644195D01*
X138490393Y-73653865D01*
X138493111Y-73663834D01*
X138495366Y-73674098D01*
X138497144Y-73684649D01*
X138498432Y-73695483D01*
X138499215Y-73706592D01*
X138499479Y-73717971D01*
X138499479Y-73796684D01*
X138203384Y-73796684D01*
X138203523Y-73803864D01*
X138203937Y-73810818D01*
X138204619Y-73817548D01*
X138205564Y-73824051D01*
X138206768Y-73830329D01*
X138208224Y-73836381D01*
X138209927Y-73842207D01*
X138211872Y-73847806D01*
X138214052Y-73853179D01*
X138216463Y-73858325D01*
X138219099Y-73863244D01*
X138221955Y-73867937D01*
X138225025Y-73872402D01*
X138228304Y-73876640D01*
X138231786Y-73880650D01*
X138235465Y-73884433D01*
X138239337Y-73887987D01*
X138243395Y-73891314D01*
X138247635Y-73894412D01*
X138252051Y-73897282D01*
X138256637Y-73899923D01*
X138261387Y-73902336D01*
X138266298Y-73904520D01*
X138271362Y-73906474D01*
X138276574Y-73908199D01*
X138281930Y-73909695D01*
X138287423Y-73910961D01*
X138293048Y-73911998D01*
X138298799Y-73912804D01*
X138304672Y-73913380D01*
X138310660Y-73913726D01*
X138316758Y-73913841D01*
X138323639Y-73913644D01*
X138330563Y-73913059D01*
X138337512Y-73912092D01*
X138344465Y-73910750D01*
X138351401Y-73909040D01*
X138358300Y-73906968D01*
X138365141Y-73904543D01*
X138371904Y-73901770D01*
X138378568Y-73898656D01*
X138385114Y-73895209D01*
X138391520Y-73891436D01*
X138397765Y-73887342D01*
X138403831Y-73882936D01*
X138409695Y-73878224D01*
X138415338Y-73873213D01*
X138420740Y-73867910D01*
X138490087Y-73926912D01*
X138481148Y-73936731D01*
X138471895Y-73945816D01*
X138462344Y-73954183D01*
X138452512Y-73961844D01*
X138442415Y-73968814D01*
X138432070Y-73975105D01*
X138421493Y-73980732D01*
X138410702Y-73985709D01*
X138399713Y-73990048D01*
X138388542Y-73993765D01*
X138377206Y-73996872D01*
X138365722Y-73999384D01*
X138354107Y-74001313D01*
X138342376Y-74002674D01*
X138330547Y-74003481D01*
X138318637Y-74003747D01*
X138300206Y-74003173D01*
X138281592Y-74001352D01*
X138262984Y-73998135D01*
X138244571Y-73993376D01*
X138226543Y-73986926D01*
X138217732Y-73983020D01*
X138209089Y-73978636D01*
X138200637Y-73973755D01*
X138192399Y-73968359D01*
X138184399Y-73962429D01*
X138176662Y-73955947D01*
X138169209Y-73948893D01*
X138162066Y-73941250D01*
X138155256Y-73933000D01*
X138148803Y-73924123D01*
X138142730Y-73914600D01*
X138137060Y-73904415D01*
X138131819Y-73893547D01*
X138127028Y-73881979D01*
X138122713Y-73869693D01*
X138118896Y-73856668D01*
X138115601Y-73842888D01*
X138112852Y-73828333D01*
X138110673Y-73812985D01*
X138109088Y-73796825D01*
X138108119Y-73779835D01*
X138107791Y-73761997D01*
X138108092Y-73745056D01*
X138108980Y-73728834D01*
X138109997Y-73717997D01*
X138203384Y-73717997D01*
X138403885Y-73717997D01*
X138403508Y-73711327D01*
X138402911Y-73704856D01*
X138402097Y-73698585D01*
X138401071Y-73692514D01*
X138399837Y-73686645D01*
X138398400Y-73680979D01*
X138396764Y-73675515D01*
X138394933Y-73670255D01*
X138392912Y-73665201D01*
X138390704Y-73660351D01*
X138388314Y-73655709D01*
X138385746Y-73651274D01*
X138383005Y-73647046D01*
X138380094Y-73643028D01*
X138377018Y-73639220D01*
X138373782Y-73635623D01*
X138370390Y-73632237D01*
X138366845Y-73629063D01*
X138363152Y-73626103D01*
X138359316Y-73623356D01*
X138355340Y-73620825D01*
X138351229Y-73618509D01*
X138346988Y-73616410D01*
X138342620Y-73614528D01*
X138338130Y-73612865D01*
X138333522Y-73611420D01*
X138328800Y-73610196D01*
X138323968Y-73609192D01*
X138319032Y-73608410D01*
X138313995Y-73607850D01*
X138308861Y-73607514D01*
X138303634Y-73607402D01*
X138298405Y-73607514D01*
X138293264Y-73607850D01*
X138288214Y-73608410D01*
X138283260Y-73609192D01*
X138278409Y-73610196D01*
X138273664Y-73611420D01*
X138269029Y-73612865D01*
X138264511Y-73614528D01*
X138260114Y-73616410D01*
X138255842Y-73618509D01*
X138251701Y-73620825D01*
X138247695Y-73623356D01*
X138243829Y-73626103D01*
X138240108Y-73629063D01*
X138236537Y-73632237D01*
X138233120Y-73635623D01*
X138229862Y-73639220D01*
X138226769Y-73643028D01*
X138223844Y-73647046D01*
X138221093Y-73651273D01*
X138218521Y-73655709D01*
X138216132Y-73660351D01*
X138213931Y-73665200D01*
X138211923Y-73670255D01*
X138210113Y-73675515D01*
X138208505Y-73680978D01*
X138207105Y-73686645D01*
X138205917Y-73692514D01*
X138204946Y-73698585D01*
X138204197Y-73704856D01*
X138203675Y-73711327D01*
X138203384Y-73717997D01*
X138109997Y-73717997D01*
X138110436Y-73713317D01*
X138112437Y-73698495D01*
X138114962Y-73684356D01*
X138117990Y-73670887D01*
X138121499Y-73658077D01*
X138125469Y-73645915D01*
X138129878Y-73634387D01*
X138134705Y-73623483D01*
X138139929Y-73613191D01*
X138145528Y-73603499D01*
X138151481Y-73594395D01*
X138157768Y-73585867D01*
X138164366Y-73577903D01*
X138171254Y-73570492D01*
X138178412Y-73563621D01*
X138185817Y-73557280D01*
X138193449Y-73551456D01*
X138201287Y-73546136D01*
X138209309Y-73541311D01*
X138217494Y-73536967D01*
X138225821Y-73533093D01*
X138234268Y-73529676D01*
X138242815Y-73526706D01*
X138251439Y-73524171D01*
X138260120Y-73522058D01*
X138268837Y-73520355D01*
X138286292Y-73518135D01*
X138303635Y-73517416D01*
X138313424Y-73517643D01*
G37*
G36*
X137498196Y-74267991D02*
G01*
X137505171Y-74268475D01*
X137512005Y-74269273D01*
X137518703Y-74270374D01*
X137525270Y-74271773D01*
X137531711Y-74273459D01*
X137538032Y-74275426D01*
X137544237Y-74277664D01*
X137550334Y-74280165D01*
X137556326Y-74282922D01*
X137562220Y-74285927D01*
X137568021Y-74289170D01*
X137573733Y-74292644D01*
X137579363Y-74296340D01*
X137584916Y-74300250D01*
X137590397Y-74304367D01*
X137521050Y-74386838D01*
X137516907Y-74383788D01*
X137512896Y-74380975D01*
X137508995Y-74378394D01*
X137505182Y-74376038D01*
X137501436Y-74373903D01*
X137497733Y-74371982D01*
X137494052Y-74370271D01*
X137490371Y-74368763D01*
X137486668Y-74367454D01*
X137482920Y-74366337D01*
X137479106Y-74365407D01*
X137475203Y-74364659D01*
X137471190Y-74364086D01*
X137467044Y-74363684D01*
X137462742Y-74363447D01*
X137458264Y-74363369D01*
X137449496Y-74363723D01*
X137440818Y-74364795D01*
X137432294Y-74366597D01*
X137423991Y-74369144D01*
X137419943Y-74370701D01*
X137415974Y-74372449D01*
X137412094Y-74374390D01*
X137408310Y-74376525D01*
X137404631Y-74378857D01*
X137401064Y-74381386D01*
X137397618Y-74384116D01*
X137394301Y-74387046D01*
X137391122Y-74390180D01*
X137388088Y-74393518D01*
X137385208Y-74397062D01*
X137382490Y-74400815D01*
X137379942Y-74404778D01*
X137377573Y-74408952D01*
X137375390Y-74413339D01*
X137373403Y-74417941D01*
X137371618Y-74422759D01*
X137370045Y-74427796D01*
X137368691Y-74433053D01*
X137367564Y-74438531D01*
X137366674Y-74444232D01*
X137366028Y-74450159D01*
X137365635Y-74456312D01*
X137365502Y-74462694D01*
X137365502Y-74748523D01*
X137269961Y-74748523D01*
X137269961Y-74273463D01*
X137365502Y-74273463D01*
X137365502Y-74324052D01*
X137367407Y-74324052D01*
X137373180Y-74317246D01*
X137379252Y-74310880D01*
X137385616Y-74304951D01*
X137392262Y-74299461D01*
X137399183Y-74294410D01*
X137406370Y-74289798D01*
X137413815Y-74285625D01*
X137421510Y-74281891D01*
X137429447Y-74278595D01*
X137437617Y-74275739D01*
X137446012Y-74273322D01*
X137454623Y-74271344D01*
X137463444Y-74269806D01*
X137472464Y-74268707D01*
X137481676Y-74268048D01*
X137491073Y-74267828D01*
X137498196Y-74267991D01*
G37*
G36*
X137919669Y-73517517D02*
G01*
X137926299Y-73517817D01*
X137932842Y-73518312D01*
X137939296Y-73518999D01*
X137951940Y-73520930D01*
X137964230Y-73523579D01*
X137976163Y-73526914D01*
X137987739Y-73530904D01*
X137998956Y-73535518D01*
X138009811Y-73540723D01*
X138020305Y-73546488D01*
X138030434Y-73552782D01*
X138040197Y-73559574D01*
X138049594Y-73566831D01*
X138058621Y-73574522D01*
X138067278Y-73582617D01*
X138075563Y-73591082D01*
X138083475Y-73599887D01*
X138013201Y-73662673D01*
X138008695Y-73657327D01*
X138003954Y-73652198D01*
X137998983Y-73647302D01*
X137993790Y-73642657D01*
X137988382Y-73638281D01*
X137982767Y-73634193D01*
X137976951Y-73630409D01*
X137970941Y-73626947D01*
X137964744Y-73623826D01*
X137958368Y-73621064D01*
X137951819Y-73618677D01*
X137945105Y-73616685D01*
X137938232Y-73615104D01*
X137931208Y-73613953D01*
X137924040Y-73613249D01*
X137916734Y-73613010D01*
X137902526Y-73613530D01*
X137889085Y-73615105D01*
X137882658Y-73616296D01*
X137876431Y-73617759D01*
X137870407Y-73619497D01*
X137864587Y-73621514D01*
X137858974Y-73623812D01*
X137853571Y-73626395D01*
X137848380Y-73629264D01*
X137843405Y-73632424D01*
X137838647Y-73635877D01*
X137834109Y-73639625D01*
X137829794Y-73643672D01*
X137825705Y-73648021D01*
X137821843Y-73652675D01*
X137818211Y-73657636D01*
X137814813Y-73662908D01*
X137811650Y-73668493D01*
X137808726Y-73674394D01*
X137806042Y-73680615D01*
X137803602Y-73687157D01*
X137801408Y-73694025D01*
X137799462Y-73701221D01*
X137797767Y-73708747D01*
X137796326Y-73716608D01*
X137795141Y-73724805D01*
X137793550Y-73742221D01*
X137793015Y-73761018D01*
X137793150Y-73770512D01*
X137793551Y-73779663D01*
X137794216Y-73788473D01*
X137795142Y-73796946D01*
X137796327Y-73805084D01*
X137797769Y-73812889D01*
X137799465Y-73820366D01*
X137801411Y-73827515D01*
X137803607Y-73834341D01*
X137806048Y-73840845D01*
X137808732Y-73847031D01*
X137811657Y-73852901D01*
X137814821Y-73858458D01*
X137818220Y-73863704D01*
X137821852Y-73868643D01*
X137825715Y-73873278D01*
X137829805Y-73877610D01*
X137834120Y-73881643D01*
X137838658Y-73885379D01*
X137843417Y-73888822D01*
X137848392Y-73891973D01*
X137853583Y-73894836D01*
X137858985Y-73897413D01*
X137864598Y-73899708D01*
X137870417Y-73901722D01*
X137876441Y-73903459D01*
X137882667Y-73904921D01*
X137889092Y-73906111D01*
X137895714Y-73907031D01*
X137902530Y-73907686D01*
X137909538Y-73908076D01*
X137916734Y-73908206D01*
X137920404Y-73908146D01*
X137924040Y-73907967D01*
X137927641Y-73907673D01*
X137931207Y-73907264D01*
X137938230Y-73906112D01*
X137945101Y-73904532D01*
X137951814Y-73902539D01*
X137958361Y-73900153D01*
X137964736Y-73897390D01*
X137970931Y-73894269D01*
X137976940Y-73890808D01*
X137982755Y-73887024D01*
X137988371Y-73882935D01*
X137993779Y-73878560D01*
X137998973Y-73873915D01*
X138003946Y-73869019D01*
X138008691Y-73863889D01*
X138013201Y-73858544D01*
X138083475Y-73921329D01*
X138075568Y-73930120D01*
X138067287Y-73938574D01*
X138058633Y-73946659D01*
X138049608Y-73954343D01*
X138040214Y-73961595D01*
X138030452Y-73968382D01*
X138020324Y-73974673D01*
X138009831Y-73980437D01*
X137998975Y-73985641D01*
X137987758Y-73990254D01*
X137976180Y-73994245D01*
X137964245Y-73997581D01*
X137951952Y-74000231D01*
X137939305Y-74002163D01*
X137926304Y-74003345D01*
X137912951Y-74003747D01*
X137892466Y-74002926D01*
X137872219Y-74000430D01*
X137852358Y-73996209D01*
X137833034Y-73990210D01*
X137823619Y-73986528D01*
X137814395Y-73982382D01*
X137805380Y-73977767D01*
X137796593Y-73972676D01*
X137788051Y-73967102D01*
X137779775Y-73961039D01*
X137771783Y-73954480D01*
X137764093Y-73947420D01*
X137756724Y-73939852D01*
X137749695Y-73931769D01*
X137743024Y-73923166D01*
X137736731Y-73914035D01*
X137730834Y-73904371D01*
X137725351Y-73894166D01*
X137720302Y-73883416D01*
X137715705Y-73872112D01*
X137711579Y-73860249D01*
X137707942Y-73847821D01*
X137704813Y-73834821D01*
X137702211Y-73821243D01*
X137700155Y-73807079D01*
X137698663Y-73792325D01*
X137697754Y-73776974D01*
X137697447Y-73761018D01*
X137697754Y-73744988D01*
X137698663Y-73729566D01*
X137700155Y-73714746D01*
X137702211Y-73700521D01*
X137704813Y-73686884D01*
X137707942Y-73673830D01*
X137711579Y-73661351D01*
X137715705Y-73649442D01*
X137720302Y-73638095D01*
X137725351Y-73627304D01*
X137730834Y-73617063D01*
X137736731Y-73607364D01*
X137743024Y-73598203D01*
X137749695Y-73589571D01*
X137756724Y-73581463D01*
X137764093Y-73573872D01*
X137771783Y-73566791D01*
X137779775Y-73560215D01*
X137788051Y-73554136D01*
X137796593Y-73548547D01*
X137805380Y-73543444D01*
X137814395Y-73538818D01*
X137823619Y-73534664D01*
X137833034Y-73530975D01*
X137842619Y-73527744D01*
X137852358Y-73524965D01*
X137862231Y-73522631D01*
X137872219Y-73520736D01*
X137882303Y-73519274D01*
X137892466Y-73518238D01*
X137912951Y-73517416D01*
X137919669Y-73517517D01*
G37*
G36*
X137616632Y-73517580D02*
G01*
X137623612Y-73518064D01*
X137630449Y-73518861D01*
X137637146Y-73519963D01*
X137643710Y-73521361D01*
X137650148Y-73523048D01*
X137656464Y-73525014D01*
X137662665Y-73527252D01*
X137668757Y-73529754D01*
X137674745Y-73532511D01*
X137680635Y-73535515D01*
X137686433Y-73538759D01*
X137692146Y-73542232D01*
X137697778Y-73545929D01*
X137703336Y-73549839D01*
X137708825Y-73553956D01*
X137639478Y-73636426D01*
X137635334Y-73633386D01*
X137631323Y-73630581D01*
X137627423Y-73628007D01*
X137623610Y-73625658D01*
X137619864Y-73623527D01*
X137616161Y-73621611D01*
X137612480Y-73619903D01*
X137608799Y-73618398D01*
X137605096Y-73617091D01*
X137601348Y-73615976D01*
X137597534Y-73615047D01*
X137593631Y-73614299D01*
X137589618Y-73613727D01*
X137585471Y-73613326D01*
X137581170Y-73613088D01*
X137576692Y-73613011D01*
X137567924Y-73613364D01*
X137559245Y-73614434D01*
X137550721Y-73616234D01*
X137542419Y-73618778D01*
X137538370Y-73620333D01*
X137534402Y-73622080D01*
X137530522Y-73624019D01*
X137526738Y-73626153D01*
X137523058Y-73628483D01*
X137519492Y-73631011D01*
X137516046Y-73633739D01*
X137512729Y-73636668D01*
X137509550Y-73639800D01*
X137506516Y-73643137D01*
X137503636Y-73646681D01*
X137500918Y-73650434D01*
X137498370Y-73654396D01*
X137496001Y-73658570D01*
X137493818Y-73662957D01*
X137491830Y-73667560D01*
X137490046Y-73672380D01*
X137488472Y-73677418D01*
X137487118Y-73682677D01*
X137485992Y-73688157D01*
X137485102Y-73693862D01*
X137484456Y-73699792D01*
X137484062Y-73705949D01*
X137483929Y-73712335D01*
X137483929Y-73998112D01*
X137388335Y-73998112D01*
X137388335Y-73523052D01*
X137483929Y-73523052D01*
X137483929Y-73573641D01*
X137485782Y-73573641D01*
X137491555Y-73566835D01*
X137497629Y-73560468D01*
X137503996Y-73554540D01*
X137510645Y-73549050D01*
X137517570Y-73543999D01*
X137524762Y-73539387D01*
X137532212Y-73535214D01*
X137539912Y-73531479D01*
X137547853Y-73528184D01*
X137556028Y-73525328D01*
X137564427Y-73522911D01*
X137573043Y-73520933D01*
X137581867Y-73519395D01*
X137590890Y-73518296D01*
X137600104Y-73517636D01*
X137609501Y-73517417D01*
X137616632Y-73517580D01*
G37*
G36*
X136633481Y-73517509D02*
G01*
X136640163Y-73517782D01*
X136646673Y-73518229D01*
X136653014Y-73518843D01*
X136659188Y-73519619D01*
X136665197Y-73520550D01*
X136671043Y-73521630D01*
X136676730Y-73522852D01*
X136682258Y-73524210D01*
X136687631Y-73525698D01*
X136692850Y-73527309D01*
X136697917Y-73529036D01*
X136702836Y-73530875D01*
X136707608Y-73532817D01*
X136712235Y-73534857D01*
X136716720Y-73536989D01*
X136725272Y-73541502D01*
X136733282Y-73546304D01*
X136740767Y-73551344D01*
X136747746Y-73556573D01*
X136754237Y-73561939D01*
X136760257Y-73567391D01*
X136765824Y-73572878D01*
X136770957Y-73578350D01*
X136777556Y-73585910D01*
X136783661Y-73593541D01*
X136789279Y-73601336D01*
X136794420Y-73609390D01*
X136799095Y-73617794D01*
X136803313Y-73626644D01*
X136807083Y-73636031D01*
X136810416Y-73646050D01*
X136813320Y-73656794D01*
X136815806Y-73668356D01*
X136817882Y-73680830D01*
X136819560Y-73694309D01*
X136820848Y-73708887D01*
X136821756Y-73724657D01*
X136822294Y-73741712D01*
X136822471Y-73760145D01*
X136822294Y-73778733D01*
X136821756Y-73795925D01*
X136820848Y-73811813D01*
X136819560Y-73826494D01*
X136817882Y-73840062D01*
X136815806Y-73852611D01*
X136813320Y-73864236D01*
X136810416Y-73875031D01*
X136807083Y-73885091D01*
X136803313Y-73894510D01*
X136799095Y-73903384D01*
X136794420Y-73911805D01*
X136789279Y-73919870D01*
X136783661Y-73927672D01*
X136777556Y-73935306D01*
X136770957Y-73942867D01*
X136765824Y-73948338D01*
X136760257Y-73953823D01*
X136754237Y-73959273D01*
X136747746Y-73964635D01*
X136740767Y-73969860D01*
X136733282Y-73974896D01*
X136725272Y-73979693D01*
X136716720Y-73984201D01*
X136707608Y-73988368D01*
X136697917Y-73992144D01*
X136687630Y-73995478D01*
X136676730Y-73998320D01*
X136665197Y-74000618D01*
X136653014Y-74002323D01*
X136640163Y-74003383D01*
X136626626Y-74003747D01*
X136619776Y-74003655D01*
X136613099Y-74003383D01*
X136606593Y-74002936D01*
X136600256Y-74002323D01*
X136594086Y-74001548D01*
X136588080Y-74000618D01*
X136582237Y-73999540D01*
X136576553Y-73998320D01*
X136571028Y-73996964D01*
X136565658Y-73995478D01*
X136560441Y-73993870D01*
X136555375Y-73992144D01*
X136550458Y-73990308D01*
X136545688Y-73988368D01*
X136541062Y-73986330D01*
X136536578Y-73984201D01*
X136528029Y-73979694D01*
X136520020Y-73974896D01*
X136512536Y-73969860D01*
X136505558Y-73964635D01*
X136499068Y-73959273D01*
X136493049Y-73953824D01*
X136487481Y-73948338D01*
X136482349Y-73942867D01*
X136475748Y-73935306D01*
X136469642Y-73927673D01*
X136464022Y-73919872D01*
X136458877Y-73911809D01*
X136454198Y-73903389D01*
X136449976Y-73894517D01*
X136446201Y-73885099D01*
X136442863Y-73875041D01*
X136439954Y-73864247D01*
X136437464Y-73852623D01*
X136435382Y-73840074D01*
X136433701Y-73826505D01*
X136432409Y-73811823D01*
X136431499Y-73795932D01*
X136430959Y-73778738D01*
X136430782Y-73760145D01*
X136526375Y-73760145D01*
X136526443Y-73772569D01*
X136526652Y-73783889D01*
X136527013Y-73794190D01*
X136527535Y-73803555D01*
X136528227Y-73812070D01*
X136529099Y-73819816D01*
X136530161Y-73826879D01*
X136531422Y-73833342D01*
X136532893Y-73839290D01*
X136534582Y-73844805D01*
X136536499Y-73849972D01*
X136538654Y-73854874D01*
X136541056Y-73859597D01*
X136543716Y-73864222D01*
X136546642Y-73868835D01*
X136549844Y-73873519D01*
X136552653Y-73877157D01*
X136555818Y-73880669D01*
X136559320Y-73884040D01*
X136563140Y-73887255D01*
X136567257Y-73890299D01*
X136571652Y-73893157D01*
X136576307Y-73895814D01*
X136581200Y-73898255D01*
X136586314Y-73900465D01*
X136591628Y-73902429D01*
X136597122Y-73904132D01*
X136602778Y-73905559D01*
X136608576Y-73906695D01*
X136614496Y-73907524D01*
X136620520Y-73908033D01*
X136626626Y-73908206D01*
X136632741Y-73908033D01*
X136638771Y-73907523D01*
X136644696Y-73906692D01*
X136650497Y-73905555D01*
X136656155Y-73904126D01*
X136661650Y-73902422D01*
X136666965Y-73900456D01*
X136672078Y-73898245D01*
X136676972Y-73895803D01*
X136681627Y-73893145D01*
X136686023Y-73890287D01*
X136690142Y-73887244D01*
X136693965Y-73884030D01*
X136697471Y-73880662D01*
X136700643Y-73877153D01*
X136702098Y-73875351D01*
X136703461Y-73873519D01*
X136706663Y-73868836D01*
X136709587Y-73864224D01*
X136712244Y-73859603D01*
X136714643Y-73854889D01*
X136716794Y-73850000D01*
X136718707Y-73844854D01*
X136720391Y-73839367D01*
X136721856Y-73833458D01*
X136723113Y-73827044D01*
X136724170Y-73820042D01*
X136725038Y-73812371D01*
X136725726Y-73803946D01*
X136726244Y-73794686D01*
X136726602Y-73784509D01*
X136726877Y-73761072D01*
X136726810Y-73748648D01*
X136726602Y-73737326D01*
X136726244Y-73727023D01*
X136725726Y-73717654D01*
X136725038Y-73709137D01*
X136724170Y-73701387D01*
X136723113Y-73694321D01*
X136721856Y-73687855D01*
X136720391Y-73681905D01*
X136718707Y-73676389D01*
X136716794Y-73671222D01*
X136714643Y-73666320D01*
X136712244Y-73661600D01*
X136709587Y-73656979D01*
X136706663Y-73652373D01*
X136703461Y-73647697D01*
X136700643Y-73644059D01*
X136697471Y-73640547D01*
X136693965Y-73637177D01*
X136690142Y-73633962D01*
X136686023Y-73630918D01*
X136681627Y-73628060D01*
X136676972Y-73625403D01*
X136672078Y-73622962D01*
X136666965Y-73620752D01*
X136661650Y-73618788D01*
X136656155Y-73617085D01*
X136650497Y-73615658D01*
X136644696Y-73614522D01*
X136638771Y-73613692D01*
X136632741Y-73613183D01*
X136626626Y-73613010D01*
X136620520Y-73613184D01*
X136614496Y-73613693D01*
X136608576Y-73614525D01*
X136602778Y-73615662D01*
X136597122Y-73617091D01*
X136591628Y-73618795D01*
X136586314Y-73620761D01*
X136581200Y-73622972D01*
X136576307Y-73625414D01*
X136571652Y-73628072D01*
X136567257Y-73630930D01*
X136563140Y-73633973D01*
X136559320Y-73637186D01*
X136555818Y-73640555D01*
X136552653Y-73644064D01*
X136551203Y-73645866D01*
X136549844Y-73647697D01*
X136546642Y-73652372D01*
X136543716Y-73656977D01*
X136541056Y-73661594D01*
X136538654Y-73666305D01*
X136536499Y-73671193D01*
X136534582Y-73676340D01*
X136532893Y-73681828D01*
X136531422Y-73687739D01*
X136530161Y-73694156D01*
X136529099Y-73701161D01*
X136528227Y-73708836D01*
X136527535Y-73717264D01*
X136527013Y-73726526D01*
X136526652Y-73736706D01*
X136526375Y-73760145D01*
X136430782Y-73760145D01*
X136430959Y-73741712D01*
X136431499Y-73724658D01*
X136432409Y-73708889D01*
X136433701Y-73694313D01*
X136435382Y-73680836D01*
X136437464Y-73668363D01*
X136439954Y-73656803D01*
X136442863Y-73646060D01*
X136446201Y-73636042D01*
X136449976Y-73626655D01*
X136454198Y-73617806D01*
X136458877Y-73609401D01*
X136464022Y-73601346D01*
X136469642Y-73593548D01*
X136475748Y-73585914D01*
X136482349Y-73578350D01*
X136487481Y-73572878D01*
X136493049Y-73567391D01*
X136499068Y-73561939D01*
X136505558Y-73556573D01*
X136512536Y-73551345D01*
X136520021Y-73546304D01*
X136528029Y-73541502D01*
X136536579Y-73536989D01*
X136545688Y-73532817D01*
X136555375Y-73529036D01*
X136565658Y-73525698D01*
X136576553Y-73522852D01*
X136588080Y-73520550D01*
X136600256Y-73518843D01*
X136613099Y-73517782D01*
X136626626Y-73517417D01*
X136633481Y-73517509D01*
G37*
G36*
X136051263Y-74748523D02*
G01*
X135955696Y-74748523D01*
X135955696Y-74698860D01*
X135949912Y-74704879D01*
X135943813Y-74710641D01*
X135937411Y-74716127D01*
X135930720Y-74721319D01*
X135923755Y-74726200D01*
X135916529Y-74730751D01*
X135909055Y-74734955D01*
X135901347Y-74738793D01*
X135893420Y-74742246D01*
X135885287Y-74745298D01*
X135876961Y-74747930D01*
X135868457Y-74750124D01*
X135859788Y-74751862D01*
X135850967Y-74753126D01*
X135842010Y-74753897D01*
X135832929Y-74754158D01*
X135827529Y-74754082D01*
X135822222Y-74753855D01*
X135817008Y-74753480D01*
X135811887Y-74752961D01*
X135806858Y-74752300D01*
X135801923Y-74751501D01*
X135797080Y-74750567D01*
X135792328Y-74749501D01*
X135787669Y-74748305D01*
X135783102Y-74746984D01*
X135778627Y-74745540D01*
X135774243Y-74743976D01*
X135769950Y-74742295D01*
X135765749Y-74740501D01*
X135757619Y-74736583D01*
X135749851Y-74732249D01*
X135742445Y-74727522D01*
X135735397Y-74722427D01*
X135728709Y-74716989D01*
X135722376Y-74711232D01*
X135716399Y-74705182D01*
X135710776Y-74698862D01*
X135705506Y-74692299D01*
X135700802Y-74685985D01*
X135696521Y-74679607D01*
X135692646Y-74673035D01*
X135689162Y-74666138D01*
X135686051Y-74658785D01*
X135683298Y-74650847D01*
X135680885Y-74642192D01*
X135678796Y-74632691D01*
X135677015Y-74622213D01*
X135675525Y-74610628D01*
X135674309Y-74597805D01*
X135673351Y-74583613D01*
X135672144Y-74550604D01*
X135671771Y-74510557D01*
X135767339Y-74510557D01*
X135767413Y-74524414D01*
X135767716Y-74538164D01*
X135768364Y-74551696D01*
X135769476Y-74564903D01*
X135771170Y-74577677D01*
X135772273Y-74583867D01*
X135773565Y-74589908D01*
X135775061Y-74595787D01*
X135776777Y-74601489D01*
X135778727Y-74607002D01*
X135780925Y-74612312D01*
X135783387Y-74617405D01*
X135786128Y-74622267D01*
X135789161Y-74626885D01*
X135792503Y-74631246D01*
X135796167Y-74635336D01*
X135800168Y-74639142D01*
X135804521Y-74642649D01*
X135809241Y-74645845D01*
X135814343Y-74648715D01*
X135819841Y-74651247D01*
X135825751Y-74653426D01*
X135832086Y-74655240D01*
X135838862Y-74656674D01*
X135846093Y-74657715D01*
X135853794Y-74658350D01*
X135861980Y-74658564D01*
X135870082Y-74658336D01*
X135877705Y-74657664D01*
X135884862Y-74656563D01*
X135891569Y-74655049D01*
X135897840Y-74653139D01*
X135903690Y-74650848D01*
X135909133Y-74648193D01*
X135914184Y-74645190D01*
X135918857Y-74641855D01*
X135923168Y-74638204D01*
X135927130Y-74634253D01*
X135930758Y-74630019D01*
X135934067Y-74625517D01*
X135937072Y-74620763D01*
X135939786Y-74615774D01*
X135942225Y-74610566D01*
X135944403Y-74605154D01*
X135946335Y-74599556D01*
X135949519Y-74587862D01*
X135951893Y-74575613D01*
X135953573Y-74562939D01*
X135954677Y-74549967D01*
X135955321Y-74536827D01*
X135955696Y-74510557D01*
X135955622Y-74497628D01*
X135955321Y-74484588D01*
X135954677Y-74471566D01*
X135953573Y-74458693D01*
X135951893Y-74446100D01*
X135950800Y-74439950D01*
X135949519Y-74433918D01*
X135948036Y-74428021D01*
X135946335Y-74422276D01*
X135944403Y-74416698D01*
X135942225Y-74411305D01*
X135939786Y-74406112D01*
X135937072Y-74401136D01*
X135934067Y-74396393D01*
X135930758Y-74391899D01*
X135927130Y-74387671D01*
X135923168Y-74383726D01*
X135918857Y-74380078D01*
X135914184Y-74376745D01*
X135909133Y-74373743D01*
X135903690Y-74371089D01*
X135897840Y-74368798D01*
X135891569Y-74366887D01*
X135884862Y-74365372D01*
X135877705Y-74364270D01*
X135870082Y-74363597D01*
X135861980Y-74363369D01*
X135853794Y-74363584D01*
X135846093Y-74364218D01*
X135838862Y-74365260D01*
X135832086Y-74366694D01*
X135825751Y-74368507D01*
X135819841Y-74370685D01*
X135814343Y-74373215D01*
X135809241Y-74376083D01*
X135804521Y-74379275D01*
X135800168Y-74382777D01*
X135796167Y-74386576D01*
X135792503Y-74390657D01*
X135789161Y-74395008D01*
X135786128Y-74399615D01*
X135783387Y-74404463D01*
X135780925Y-74409539D01*
X135778727Y-74414829D01*
X135776777Y-74420320D01*
X135773565Y-74431848D01*
X135771170Y-74444013D01*
X135769476Y-74456706D01*
X135768364Y-74469817D01*
X135767716Y-74483236D01*
X135767339Y-74510557D01*
X135671771Y-74510557D01*
X135671862Y-74489732D01*
X135672144Y-74470780D01*
X135672635Y-74453571D01*
X135673351Y-74437975D01*
X135674309Y-74423864D01*
X135675525Y-74411108D01*
X135677015Y-74399578D01*
X135678796Y-74389146D01*
X135680885Y-74379682D01*
X135682050Y-74375272D01*
X135683298Y-74371056D01*
X135684631Y-74367017D01*
X135686051Y-74363140D01*
X135687561Y-74359408D01*
X135689162Y-74355805D01*
X135692646Y-74348921D01*
X135696521Y-74342360D01*
X135700802Y-74335992D01*
X135705506Y-74329687D01*
X135710776Y-74323115D01*
X135716399Y-74316789D01*
X135722376Y-74310735D01*
X135728709Y-74304975D01*
X135735397Y-74299536D01*
X135742445Y-74294441D01*
X135749851Y-74289715D01*
X135757619Y-74285383D01*
X135765749Y-74281469D01*
X135774243Y-74277997D01*
X135783102Y-74274992D01*
X135792328Y-74272478D01*
X135801923Y-74270480D01*
X135811887Y-74269023D01*
X135822222Y-74268131D01*
X135832929Y-74267828D01*
X135841948Y-74268089D01*
X135850736Y-74268860D01*
X135859305Y-74270126D01*
X135867664Y-74271869D01*
X135875826Y-74274074D01*
X135883801Y-74276723D01*
X135891600Y-74279800D01*
X135899234Y-74283290D01*
X135906714Y-74287174D01*
X135914052Y-74291438D01*
X135921258Y-74296064D01*
X135928343Y-74301035D01*
X135935318Y-74306337D01*
X135942195Y-74311951D01*
X135948984Y-74317861D01*
X135955696Y-74324052D01*
X135955696Y-74081323D01*
X136051263Y-74081323D01*
X136051263Y-74748523D01*
G37*
G36*
X135577621Y-74267991D02*
G01*
X135584603Y-74268475D01*
X135591441Y-74269273D01*
X135598142Y-74270374D01*
X135604709Y-74271773D01*
X135611150Y-74273459D01*
X135617470Y-74275426D01*
X135623674Y-74277664D01*
X135629767Y-74280165D01*
X135635757Y-74282922D01*
X135641647Y-74285927D01*
X135647444Y-74289170D01*
X135653154Y-74292644D01*
X135658782Y-74296340D01*
X135664333Y-74300250D01*
X135669813Y-74304367D01*
X135600493Y-74386838D01*
X135596349Y-74383788D01*
X135592337Y-74380975D01*
X135588436Y-74378394D01*
X135584621Y-74376038D01*
X135580873Y-74373903D01*
X135577169Y-74371982D01*
X135573487Y-74370271D01*
X135569804Y-74368763D01*
X135566100Y-74367454D01*
X135562352Y-74366337D01*
X135558537Y-74365407D01*
X135554635Y-74364659D01*
X135550623Y-74364086D01*
X135546479Y-74363684D01*
X135542181Y-74363447D01*
X135537707Y-74363369D01*
X135528943Y-74363723D01*
X135520267Y-74364795D01*
X135511744Y-74366597D01*
X135503441Y-74369144D01*
X135499392Y-74370701D01*
X135495423Y-74372449D01*
X135491541Y-74374390D01*
X135487756Y-74376525D01*
X135484075Y-74378857D01*
X135480507Y-74381386D01*
X135477059Y-74384116D01*
X135473741Y-74387046D01*
X135470559Y-74390180D01*
X135467524Y-74393518D01*
X135464642Y-74397062D01*
X135461922Y-74400815D01*
X135459372Y-74404778D01*
X135457001Y-74408952D01*
X135454816Y-74413339D01*
X135452827Y-74417941D01*
X135451040Y-74422759D01*
X135449465Y-74427796D01*
X135448110Y-74433053D01*
X135446983Y-74438531D01*
X135446092Y-74444232D01*
X135445445Y-74450159D01*
X135445051Y-74456312D01*
X135444918Y-74462694D01*
X135444918Y-74748523D01*
X135349350Y-74748523D01*
X135349350Y-74273463D01*
X135444918Y-74273463D01*
X135444918Y-74324052D01*
X135446796Y-74324052D01*
X135452570Y-74317246D01*
X135458643Y-74310880D01*
X135465008Y-74304951D01*
X135471656Y-74299461D01*
X135478579Y-74294410D01*
X135485768Y-74289798D01*
X135493216Y-74285625D01*
X135500913Y-74281891D01*
X135508852Y-74278595D01*
X135517025Y-74275739D01*
X135525422Y-74273322D01*
X135534036Y-74271344D01*
X135542857Y-74269806D01*
X135551879Y-74268707D01*
X135561092Y-74268048D01*
X135570489Y-74267828D01*
X135577621Y-74267991D01*
G37*
G36*
X134644647Y-73517746D02*
G01*
X134654979Y-73518640D01*
X134664942Y-73520100D01*
X134674537Y-73522100D01*
X134683765Y-73524617D01*
X134692626Y-73527626D01*
X134701123Y-73531101D01*
X134709257Y-73535018D01*
X134717028Y-73539352D01*
X134724439Y-73544080D01*
X134731490Y-73549175D01*
X134738182Y-73554613D01*
X134744518Y-73560369D01*
X134750497Y-73566420D01*
X134756122Y-73572739D01*
X134761393Y-73579302D01*
X134766093Y-73585616D01*
X134770369Y-73591994D01*
X134774240Y-73598567D01*
X134777722Y-73605464D01*
X134779321Y-73609076D01*
X134780830Y-73612818D01*
X134782249Y-73616706D01*
X134783581Y-73620757D01*
X134784828Y-73624987D01*
X134785992Y-73629413D01*
X134788080Y-73638916D01*
X134789860Y-73649397D01*
X134791349Y-73660986D01*
X134792564Y-73673813D01*
X134793521Y-73688010D01*
X134794237Y-73703706D01*
X134794728Y-73721033D01*
X134795010Y-73740120D01*
X134795101Y-73761098D01*
X134794728Y-73800842D01*
X134793521Y-73833627D01*
X134792564Y-73847732D01*
X134791349Y-73860483D01*
X134789860Y-73872011D01*
X134788080Y-73882442D01*
X134785992Y-73891907D01*
X134783581Y-73900534D01*
X134780830Y-73908452D01*
X134777721Y-73915790D01*
X134774240Y-73922676D01*
X134770369Y-73929239D01*
X134766093Y-73935609D01*
X134761393Y-73941914D01*
X134756122Y-73948477D01*
X134750497Y-73954797D01*
X134744518Y-73960847D01*
X134738182Y-73966604D01*
X134731490Y-73972042D01*
X134724439Y-73977137D01*
X134717028Y-73981864D01*
X134709257Y-73986198D01*
X134701123Y-73990116D01*
X134696920Y-73991910D01*
X134692626Y-73993591D01*
X134688241Y-73995155D01*
X134683764Y-73996599D01*
X134679197Y-73997920D01*
X134674537Y-73999116D01*
X134669786Y-74000182D01*
X134664942Y-74001116D01*
X134660007Y-74001915D01*
X134654979Y-74002576D01*
X134649859Y-74003095D01*
X134644647Y-74003470D01*
X134639341Y-74003697D01*
X134633943Y-74003773D01*
X134624924Y-74003513D01*
X134616136Y-74002741D01*
X134607568Y-74001476D01*
X134599208Y-73999732D01*
X134591047Y-73997528D01*
X134583072Y-73994879D01*
X134575273Y-73991801D01*
X134567639Y-73988312D01*
X134560158Y-73984427D01*
X134552821Y-73980164D01*
X134545615Y-73975538D01*
X134538530Y-73970566D01*
X134531554Y-73965265D01*
X134524678Y-73959651D01*
X134517889Y-73953740D01*
X134511177Y-73947549D01*
X134510833Y-74324052D01*
X134516936Y-74317246D01*
X134523298Y-74310879D01*
X134529913Y-74304951D01*
X134536774Y-74299461D01*
X134543877Y-74294410D01*
X134551216Y-74289798D01*
X134558786Y-74285624D01*
X134566580Y-74281890D01*
X134574594Y-74278595D01*
X134582823Y-74275739D01*
X134591259Y-74273322D01*
X134599899Y-74271344D01*
X134608736Y-74269806D01*
X134617765Y-74268707D01*
X134626981Y-74268047D01*
X134636377Y-74267827D01*
X134643345Y-74267995D01*
X134650356Y-74268496D01*
X134657392Y-74269329D01*
X134664436Y-74270494D01*
X134671472Y-74271988D01*
X134678481Y-74273812D01*
X134685447Y-74275963D01*
X134692352Y-74278441D01*
X134699178Y-74281244D01*
X134705909Y-74284370D01*
X134712527Y-74287820D01*
X134719014Y-74291592D01*
X134725354Y-74295684D01*
X134731529Y-74300095D01*
X134737522Y-74304824D01*
X134743315Y-74309870D01*
X134748892Y-74315232D01*
X134754234Y-74320908D01*
X134759325Y-74326897D01*
X134764146Y-74333198D01*
X134768682Y-74339810D01*
X134772914Y-74346732D01*
X134776825Y-74353963D01*
X134780398Y-74361500D01*
X134783616Y-74369344D01*
X134786461Y-74377492D01*
X134788915Y-74385944D01*
X134790963Y-74394698D01*
X134792585Y-74403754D01*
X134793765Y-74413109D01*
X134794486Y-74422764D01*
X134794731Y-74432716D01*
X134794731Y-74748522D01*
X134699163Y-74748522D01*
X134699163Y-74465551D01*
X134699046Y-74459566D01*
X134698697Y-74453743D01*
X134698123Y-74448083D01*
X134697327Y-74442588D01*
X134696315Y-74437260D01*
X134695092Y-74432101D01*
X134693663Y-74427113D01*
X134692032Y-74422298D01*
X134690205Y-74417657D01*
X134688187Y-74413192D01*
X134685982Y-74408906D01*
X134683596Y-74404800D01*
X134681034Y-74400876D01*
X134678300Y-74397135D01*
X134675399Y-74393581D01*
X134672338Y-74390214D01*
X134669119Y-74387037D01*
X134665749Y-74384051D01*
X134662233Y-74381258D01*
X134658575Y-74378661D01*
X134654781Y-74376261D01*
X134650854Y-74374059D01*
X134646801Y-74372058D01*
X134642627Y-74370260D01*
X134638336Y-74368667D01*
X134633933Y-74367279D01*
X134629423Y-74366101D01*
X134624812Y-74365132D01*
X134620103Y-74364375D01*
X134615303Y-74363832D01*
X134610416Y-74363505D01*
X134605448Y-74363396D01*
X134600395Y-74363505D01*
X134595429Y-74363832D01*
X134590556Y-74364375D01*
X134585779Y-74365132D01*
X134581104Y-74366101D01*
X134576536Y-74367279D01*
X134572078Y-74368667D01*
X134567737Y-74370260D01*
X134563517Y-74372058D01*
X134559422Y-74374059D01*
X134555458Y-74376261D01*
X134551629Y-74378661D01*
X134547940Y-74381259D01*
X134544395Y-74384051D01*
X134541001Y-74387037D01*
X134537761Y-74390214D01*
X134534680Y-74393581D01*
X134531763Y-74397136D01*
X134529015Y-74400876D01*
X134526440Y-74404800D01*
X134524044Y-74408906D01*
X134521831Y-74413192D01*
X134519806Y-74417657D01*
X134517974Y-74422298D01*
X134516339Y-74427113D01*
X134514907Y-74432101D01*
X134513682Y-74437260D01*
X134512669Y-74442588D01*
X134511873Y-74448083D01*
X134511298Y-74453743D01*
X134510950Y-74459566D01*
X134510833Y-74465551D01*
X134510833Y-74748523D01*
X134415239Y-74748523D01*
X134415239Y-73761071D01*
X134511177Y-73761071D01*
X134511552Y-73787038D01*
X134512196Y-73800057D01*
X134513300Y-73812926D01*
X134514980Y-73825515D01*
X134517354Y-73837694D01*
X134520537Y-73849331D01*
X134522469Y-73854906D01*
X134524647Y-73860297D01*
X134527086Y-73865487D01*
X134529801Y-73870461D01*
X134532805Y-73875201D01*
X134536114Y-73879693D01*
X134539743Y-73883918D01*
X134543705Y-73887862D01*
X134548015Y-73891507D01*
X134552689Y-73894838D01*
X134557739Y-73897838D01*
X134563183Y-73900491D01*
X134569032Y-73902780D01*
X134575303Y-73904690D01*
X134582010Y-73906204D01*
X134589168Y-73907305D01*
X134596790Y-73907978D01*
X134604892Y-73908206D01*
X134613078Y-73907991D01*
X134620780Y-73907357D01*
X134628011Y-73906315D01*
X134634787Y-73904881D01*
X134641122Y-73903068D01*
X134647031Y-73900890D01*
X134652529Y-73898360D01*
X134657631Y-73895493D01*
X134662351Y-73892301D01*
X134666705Y-73888800D01*
X134670706Y-73885001D01*
X134674370Y-73880920D01*
X134677711Y-73876570D01*
X134680745Y-73871965D01*
X134683485Y-73867118D01*
X134685947Y-73862043D01*
X134688146Y-73856754D01*
X134690096Y-73851265D01*
X134691811Y-73845589D01*
X134693308Y-73839740D01*
X134694600Y-73833732D01*
X134695702Y-73827579D01*
X134697396Y-73814891D01*
X134698508Y-73801786D01*
X134699157Y-73788375D01*
X134699459Y-73774766D01*
X134699534Y-73761071D01*
X134699157Y-73733447D01*
X134698508Y-73719907D01*
X134697396Y-73706694D01*
X134695702Y-73693915D01*
X134693308Y-73681679D01*
X134690096Y-73670095D01*
X134688146Y-73664580D01*
X134685947Y-73659269D01*
X134683485Y-73654175D01*
X134680745Y-73649312D01*
X134677711Y-73644693D01*
X134674370Y-73640331D01*
X134670706Y-73636240D01*
X134666705Y-73632434D01*
X134662351Y-73628927D01*
X134657631Y-73625731D01*
X134652529Y-73622860D01*
X134647031Y-73620328D01*
X134641122Y-73618148D01*
X134634787Y-73616335D01*
X134628011Y-73614901D01*
X134620780Y-73613859D01*
X134613078Y-73613225D01*
X134604892Y-73613010D01*
X134596792Y-73613238D01*
X134589172Y-73613911D01*
X134582016Y-73615013D01*
X134575311Y-73616528D01*
X134569041Y-73618439D01*
X134563192Y-73620732D01*
X134557750Y-73623388D01*
X134552700Y-73626393D01*
X134548027Y-73629730D01*
X134543717Y-73633383D01*
X134539754Y-73637336D01*
X134536126Y-73641573D01*
X134532817Y-73646077D01*
X134529812Y-73650833D01*
X134527097Y-73655825D01*
X134524657Y-73661036D01*
X134522478Y-73666450D01*
X134520546Y-73672050D01*
X134518845Y-73677822D01*
X134517360Y-73683749D01*
X134516079Y-73689814D01*
X134514985Y-73696002D01*
X134513303Y-73708681D01*
X134512198Y-73721656D01*
X134511553Y-73734799D01*
X134511251Y-73747980D01*
X134511177Y-73761071D01*
X134415239Y-73761071D01*
X134415239Y-73523078D01*
X134511177Y-73523078D01*
X134511177Y-73572741D01*
X134516964Y-73566713D01*
X134523067Y-73560945D01*
X134529471Y-73555455D01*
X134536163Y-73550259D01*
X134543129Y-73545377D01*
X134550356Y-73540826D01*
X134557829Y-73536624D01*
X134565535Y-73532789D01*
X134573461Y-73529338D01*
X134581593Y-73526289D01*
X134589917Y-73523660D01*
X134598420Y-73521470D01*
X134607087Y-73519735D01*
X134615906Y-73518473D01*
X134624863Y-73517704D01*
X134633943Y-73517443D01*
X134644647Y-73517746D01*
G37*
G36*
X136294495Y-74606097D02*
G01*
X136296373Y-74606097D01*
X136404112Y-74273463D01*
X136473459Y-74273463D01*
X136581197Y-74606097D01*
X136583129Y-74606097D01*
X136673960Y-74273463D01*
X136775190Y-74273463D01*
X136623425Y-74748523D01*
X136539049Y-74748523D01*
X136439724Y-74415862D01*
X136437846Y-74415862D01*
X136338522Y-74748523D01*
X136254199Y-74748523D01*
X136102407Y-74273463D01*
X136203584Y-74273463D01*
X136294495Y-74606097D01*
G37*
G36*
X135068163Y-74268299D02*
G01*
X135088766Y-74269748D01*
X135108382Y-74272233D01*
X135117801Y-74273881D01*
X135126949Y-74275809D01*
X135135819Y-74278024D01*
X135144402Y-74280533D01*
X135152690Y-74283343D01*
X135160675Y-74286460D01*
X135168349Y-74289893D01*
X135175704Y-74293648D01*
X135182733Y-74297731D01*
X135189426Y-74302151D01*
X135195776Y-74306914D01*
X135201775Y-74312027D01*
X135207415Y-74317497D01*
X135212687Y-74323331D01*
X135217584Y-74329537D01*
X135222097Y-74336120D01*
X135226219Y-74343089D01*
X135229941Y-74350450D01*
X135233255Y-74358210D01*
X135236154Y-74366377D01*
X135238629Y-74374957D01*
X135240672Y-74383957D01*
X135242275Y-74393385D01*
X135243430Y-74403247D01*
X135244129Y-74413551D01*
X135244363Y-74424303D01*
X135244363Y-74748523D01*
X135148770Y-74748523D01*
X135148770Y-74706348D01*
X135146891Y-74706348D01*
X135143046Y-74712296D01*
X135138866Y-74717830D01*
X135134323Y-74722954D01*
X135129389Y-74727671D01*
X135124038Y-74731987D01*
X135118241Y-74735905D01*
X135111972Y-74739431D01*
X135105203Y-74742567D01*
X135097906Y-74745318D01*
X135090055Y-74747689D01*
X135081621Y-74749683D01*
X135072577Y-74751306D01*
X135062897Y-74752560D01*
X135052552Y-74753451D01*
X135041516Y-74753982D01*
X135029760Y-74754159D01*
X135019963Y-74753976D01*
X135010427Y-74753433D01*
X135001156Y-74752539D01*
X134992152Y-74751300D01*
X134983420Y-74749725D01*
X134974962Y-74747821D01*
X134966782Y-74745597D01*
X134958883Y-74743060D01*
X134951268Y-74740218D01*
X134943940Y-74737080D01*
X134936904Y-74733652D01*
X134930161Y-74729944D01*
X134923715Y-74725962D01*
X134917569Y-74721715D01*
X134911728Y-74717211D01*
X134906193Y-74712457D01*
X134900969Y-74707462D01*
X134896057Y-74702233D01*
X134891463Y-74696778D01*
X134887189Y-74691105D01*
X134883238Y-74685222D01*
X134879613Y-74679136D01*
X134876318Y-74672857D01*
X134873357Y-74666391D01*
X134870731Y-74659747D01*
X134868445Y-74652932D01*
X134866502Y-74645955D01*
X134864904Y-74638822D01*
X134863656Y-74631543D01*
X134862761Y-74624125D01*
X134862221Y-74616575D01*
X134862041Y-74608903D01*
X134862142Y-74604219D01*
X134951973Y-74604219D01*
X134952273Y-74610138D01*
X134953187Y-74615934D01*
X134954735Y-74621571D01*
X134956939Y-74627015D01*
X134958293Y-74629653D01*
X134959819Y-74632229D01*
X134961518Y-74634738D01*
X134963394Y-74637177D01*
X134965449Y-74639540D01*
X134967686Y-74641823D01*
X134970108Y-74644022D01*
X134972716Y-74646132D01*
X134975513Y-74648149D01*
X134978503Y-74650069D01*
X134981687Y-74651886D01*
X134985069Y-74653596D01*
X134988650Y-74655196D01*
X134992433Y-74656679D01*
X134996421Y-74658043D01*
X135000617Y-74659282D01*
X135009641Y-74661368D01*
X135019525Y-74662903D01*
X135030290Y-74663850D01*
X135041957Y-74664174D01*
X135056281Y-74664061D01*
X135069412Y-74663668D01*
X135081388Y-74662909D01*
X135092245Y-74661702D01*
X135097265Y-74660904D01*
X135102020Y-74659962D01*
X135106514Y-74658866D01*
X135110751Y-74657606D01*
X135114737Y-74656171D01*
X135118475Y-74654550D01*
X135121971Y-74652733D01*
X135125228Y-74650710D01*
X135128253Y-74648469D01*
X135131048Y-74646001D01*
X135133620Y-74643296D01*
X135135972Y-74640342D01*
X135138110Y-74637129D01*
X135140037Y-74633646D01*
X135141759Y-74629884D01*
X135143280Y-74625832D01*
X135144604Y-74621478D01*
X135145737Y-74616814D01*
X135146683Y-74611827D01*
X135147446Y-74606509D01*
X135148032Y-74600848D01*
X135148445Y-74594833D01*
X135148689Y-74588455D01*
X135148770Y-74581703D01*
X135148770Y-74547016D01*
X135034470Y-74547016D01*
X135029284Y-74547082D01*
X135024273Y-74547277D01*
X135019437Y-74547601D01*
X135014775Y-74548051D01*
X135010285Y-74548626D01*
X135005968Y-74549323D01*
X135001823Y-74550140D01*
X134997849Y-74551076D01*
X134994045Y-74552129D01*
X134990410Y-74553297D01*
X134986945Y-74554578D01*
X134983648Y-74555969D01*
X134980518Y-74557470D01*
X134977555Y-74559079D01*
X134974758Y-74560793D01*
X134972127Y-74562610D01*
X134969661Y-74564529D01*
X134967358Y-74566547D01*
X134965220Y-74568664D01*
X134963243Y-74570876D01*
X134961429Y-74573183D01*
X134959777Y-74575581D01*
X134958285Y-74578070D01*
X134956952Y-74580647D01*
X134955780Y-74583311D01*
X134954765Y-74586059D01*
X134953909Y-74588890D01*
X134953210Y-74591802D01*
X134952668Y-74594793D01*
X134952281Y-74597860D01*
X134952050Y-74601003D01*
X134951973Y-74604219D01*
X134862142Y-74604219D01*
X134862194Y-74601823D01*
X134862655Y-74594819D01*
X134863422Y-74587900D01*
X134864495Y-74581076D01*
X134865873Y-74574356D01*
X134867556Y-74567752D01*
X134869543Y-74561271D01*
X134871834Y-74554925D01*
X134874429Y-74548723D01*
X134877326Y-74542674D01*
X134880526Y-74536789D01*
X134884027Y-74531077D01*
X134887830Y-74525549D01*
X134891933Y-74520213D01*
X134896337Y-74515080D01*
X134901040Y-74510160D01*
X134906043Y-74505462D01*
X134911344Y-74500996D01*
X134916943Y-74496772D01*
X134922841Y-74492799D01*
X134929035Y-74489088D01*
X134935526Y-74485649D01*
X134942313Y-74482490D01*
X134949395Y-74479623D01*
X134956773Y-74477056D01*
X134964445Y-74474799D01*
X134972412Y-74472863D01*
X134980672Y-74471257D01*
X134989225Y-74469991D01*
X134998070Y-74469074D01*
X135007208Y-74468517D01*
X135016637Y-74468329D01*
X135148770Y-74468329D01*
X135148770Y-74418667D01*
X135148427Y-74410575D01*
X135147995Y-74406777D01*
X135147388Y-74403143D01*
X135146603Y-74399668D01*
X135145638Y-74396351D01*
X135144491Y-74393190D01*
X135143162Y-74390182D01*
X135141647Y-74387325D01*
X135139944Y-74384615D01*
X135138053Y-74382052D01*
X135135971Y-74379633D01*
X135133696Y-74377355D01*
X135131226Y-74375215D01*
X135128560Y-74373212D01*
X135125695Y-74371343D01*
X135122629Y-74369606D01*
X135119362Y-74367998D01*
X135112212Y-74365161D01*
X135104231Y-74362812D01*
X135095404Y-74360933D01*
X135085714Y-74359505D01*
X135075147Y-74358508D01*
X135063689Y-74357924D01*
X135051324Y-74357733D01*
X135042314Y-74357846D01*
X135033891Y-74358191D01*
X135026025Y-74358782D01*
X135018686Y-74359630D01*
X135015206Y-74360154D01*
X135011848Y-74360747D01*
X135008607Y-74361411D01*
X135005480Y-74362147D01*
X135002463Y-74362956D01*
X134999554Y-74363840D01*
X134996748Y-74364801D01*
X134994041Y-74365840D01*
X134991431Y-74366958D01*
X134988913Y-74368158D01*
X134986484Y-74369440D01*
X134984141Y-74370806D01*
X134981879Y-74372258D01*
X134979695Y-74373798D01*
X134977586Y-74375426D01*
X134975548Y-74377144D01*
X134973577Y-74378955D01*
X134971670Y-74380858D01*
X134969823Y-74382857D01*
X134968033Y-74384952D01*
X134966295Y-74387144D01*
X134964607Y-74389437D01*
X134962965Y-74391830D01*
X134961365Y-74394326D01*
X134886409Y-74337175D01*
X134893447Y-74328051D01*
X134900863Y-74319656D01*
X134908660Y-74311971D01*
X134916844Y-74304975D01*
X134925417Y-74298651D01*
X134934384Y-74292979D01*
X134943749Y-74287939D01*
X134953517Y-74283511D01*
X134963691Y-74279677D01*
X134974276Y-74276417D01*
X134985276Y-74273712D01*
X134996694Y-74271542D01*
X135008536Y-74269888D01*
X135020804Y-74268731D01*
X135033505Y-74268050D01*
X135046640Y-74267828D01*
X135068163Y-74268299D01*
G37*
G36*
X134145044Y-73517509D02*
G01*
X134151721Y-73517782D01*
X134158227Y-73518229D01*
X134164565Y-73518843D01*
X134170736Y-73519619D01*
X134176742Y-73520550D01*
X134182586Y-73521630D01*
X134188271Y-73522852D01*
X134193797Y-73524210D01*
X134199168Y-73525698D01*
X134204386Y-73527309D01*
X134209453Y-73529036D01*
X134214371Y-73530875D01*
X134219142Y-73532817D01*
X134223769Y-73534857D01*
X134228254Y-73536989D01*
X134236807Y-73541502D01*
X134244817Y-73546304D01*
X134252304Y-73551344D01*
X134259284Y-73556573D01*
X134265775Y-73561939D01*
X134271796Y-73567391D01*
X134277364Y-73572878D01*
X134282497Y-73578350D01*
X134289098Y-73585910D01*
X134295203Y-73593541D01*
X134300822Y-73601336D01*
X134305965Y-73609390D01*
X134310642Y-73617794D01*
X134314862Y-73626644D01*
X134318635Y-73636031D01*
X134321970Y-73646050D01*
X134324877Y-73656794D01*
X134327365Y-73668356D01*
X134329444Y-73680830D01*
X134331123Y-73694309D01*
X134332413Y-73708887D01*
X134333322Y-73724657D01*
X134333861Y-73741712D01*
X134334038Y-73760145D01*
X134333861Y-73778733D01*
X134333322Y-73795925D01*
X134332413Y-73811813D01*
X134331123Y-73826494D01*
X134329444Y-73840062D01*
X134327365Y-73852611D01*
X134324877Y-73864236D01*
X134321970Y-73875031D01*
X134318635Y-73885091D01*
X134314862Y-73894510D01*
X134310642Y-73903384D01*
X134305965Y-73911805D01*
X134300822Y-73919870D01*
X134295203Y-73927672D01*
X134289098Y-73935306D01*
X134282497Y-73942867D01*
X134277364Y-73948338D01*
X134271796Y-73953823D01*
X134265775Y-73959273D01*
X134259284Y-73964635D01*
X134252304Y-73969860D01*
X134244817Y-73974896D01*
X134236807Y-73979693D01*
X134228254Y-73984201D01*
X134219142Y-73988368D01*
X134209453Y-73992144D01*
X134199168Y-73995478D01*
X134188271Y-73998320D01*
X134176742Y-74000618D01*
X134164565Y-74002323D01*
X134151721Y-74003383D01*
X134138194Y-74003747D01*
X134131341Y-74003655D01*
X134124661Y-74003383D01*
X134118153Y-74002936D01*
X134111814Y-74002323D01*
X134105641Y-74001548D01*
X134099633Y-74000618D01*
X134093787Y-73999540D01*
X134088101Y-73998320D01*
X134082573Y-73996964D01*
X134077201Y-73995478D01*
X134071982Y-73993870D01*
X134066914Y-73992144D01*
X134061995Y-73990308D01*
X134057223Y-73988368D01*
X134052595Y-73986330D01*
X134048110Y-73984201D01*
X134039556Y-73979694D01*
X134031545Y-73974896D01*
X134024058Y-73969860D01*
X134017077Y-73964635D01*
X134010585Y-73959273D01*
X134004564Y-73953824D01*
X133998996Y-73948338D01*
X133993863Y-73942867D01*
X133987263Y-73935306D01*
X133981159Y-73927673D01*
X133975541Y-73919872D01*
X133970399Y-73911809D01*
X133965724Y-73903389D01*
X133961507Y-73894517D01*
X133957736Y-73885099D01*
X133954404Y-73875041D01*
X133951500Y-73864247D01*
X133949014Y-73852623D01*
X133946937Y-73840074D01*
X133945260Y-73826505D01*
X133943972Y-73811823D01*
X133943064Y-73795932D01*
X133942526Y-73778738D01*
X133942349Y-73760145D01*
X134037916Y-73760145D01*
X134037984Y-73772569D01*
X134038193Y-73783889D01*
X134038554Y-73794190D01*
X134039075Y-73803555D01*
X134039767Y-73812070D01*
X134040639Y-73819816D01*
X134041700Y-73826879D01*
X134042960Y-73833342D01*
X134044429Y-73839290D01*
X134046116Y-73844805D01*
X134048031Y-73849972D01*
X134050184Y-73854874D01*
X134052583Y-73859597D01*
X134055239Y-73864222D01*
X134058161Y-73868835D01*
X134061359Y-73873519D01*
X134064176Y-73877157D01*
X134067348Y-73880669D01*
X134070855Y-73884040D01*
X134074677Y-73887255D01*
X134078797Y-73890299D01*
X134083193Y-73893157D01*
X134087848Y-73895814D01*
X134092741Y-73898255D01*
X134097855Y-73900465D01*
X134103169Y-73902429D01*
X134108665Y-73904132D01*
X134114323Y-73905559D01*
X134120124Y-73906695D01*
X134126049Y-73907524D01*
X134132078Y-73908033D01*
X134138194Y-73908206D01*
X134144304Y-73908033D01*
X134150330Y-73907523D01*
X134156251Y-73906692D01*
X134162049Y-73905555D01*
X134167705Y-73904126D01*
X134173199Y-73902422D01*
X134178513Y-73900456D01*
X134183626Y-73898245D01*
X134188520Y-73895803D01*
X134193175Y-73893145D01*
X134197574Y-73890287D01*
X134201695Y-73887244D01*
X134205520Y-73884030D01*
X134209030Y-73880662D01*
X134212206Y-73877153D01*
X134213663Y-73875351D01*
X134215029Y-73873519D01*
X134218226Y-73868836D01*
X134221147Y-73864224D01*
X134223802Y-73859603D01*
X134226199Y-73854889D01*
X134228350Y-73850000D01*
X134230263Y-73844854D01*
X134231947Y-73839367D01*
X134233414Y-73833458D01*
X134234672Y-73827044D01*
X134235730Y-73820042D01*
X134236600Y-73812371D01*
X134237290Y-73803946D01*
X134237809Y-73794686D01*
X134238168Y-73784509D01*
X134238444Y-73761072D01*
X134238377Y-73748648D01*
X134238168Y-73737326D01*
X134237809Y-73727023D01*
X134237290Y-73717654D01*
X134236600Y-73709137D01*
X134235730Y-73701387D01*
X134234672Y-73694321D01*
X134233414Y-73687855D01*
X134231947Y-73681905D01*
X134230263Y-73676389D01*
X134228350Y-73671222D01*
X134226199Y-73666320D01*
X134223802Y-73661600D01*
X134221147Y-73656979D01*
X134218226Y-73652373D01*
X134215029Y-73647697D01*
X134212206Y-73644059D01*
X134209030Y-73640547D01*
X134205520Y-73637177D01*
X134201695Y-73633962D01*
X134197574Y-73630918D01*
X134193175Y-73628060D01*
X134188520Y-73625403D01*
X134183626Y-73622962D01*
X134178513Y-73620752D01*
X134173199Y-73618788D01*
X134167705Y-73617085D01*
X134162049Y-73615658D01*
X134156251Y-73614522D01*
X134150330Y-73613692D01*
X134144304Y-73613183D01*
X134138194Y-73613010D01*
X134132078Y-73613184D01*
X134126049Y-73613693D01*
X134120124Y-73614525D01*
X134114323Y-73615662D01*
X134108665Y-73617091D01*
X134103169Y-73618795D01*
X134097855Y-73620761D01*
X134092741Y-73622972D01*
X134087848Y-73625414D01*
X134083193Y-73628072D01*
X134078797Y-73630930D01*
X134074677Y-73633973D01*
X134070855Y-73637186D01*
X134067348Y-73640555D01*
X134064176Y-73644064D01*
X134062722Y-73645866D01*
X134061359Y-73647697D01*
X134058161Y-73652372D01*
X134055239Y-73656977D01*
X134052583Y-73661594D01*
X134050184Y-73666305D01*
X134048031Y-73671193D01*
X134046116Y-73676340D01*
X134044429Y-73681828D01*
X134042960Y-73687739D01*
X134041700Y-73694156D01*
X134040639Y-73701161D01*
X134039767Y-73708836D01*
X134039075Y-73717264D01*
X134038554Y-73726526D01*
X134038193Y-73736706D01*
X134037916Y-73760145D01*
X133942349Y-73760145D01*
X133942526Y-73741712D01*
X133943064Y-73724658D01*
X133943972Y-73708889D01*
X133945260Y-73694313D01*
X133946937Y-73680836D01*
X133949014Y-73668363D01*
X133951500Y-73656803D01*
X133954404Y-73646060D01*
X133957736Y-73636042D01*
X133961507Y-73626655D01*
X133965724Y-73617806D01*
X133970399Y-73609401D01*
X133975541Y-73601346D01*
X133981159Y-73593548D01*
X133987263Y-73585914D01*
X133993863Y-73578350D01*
X133998996Y-73572878D01*
X134004564Y-73567391D01*
X134010585Y-73561939D01*
X134017077Y-73556573D01*
X134024058Y-73551345D01*
X134031545Y-73546304D01*
X134039556Y-73541502D01*
X134048110Y-73536989D01*
X134057223Y-73532817D01*
X134066914Y-73529036D01*
X134077201Y-73525698D01*
X134088101Y-73522852D01*
X134099633Y-73520550D01*
X134111814Y-73518843D01*
X134124661Y-73517782D01*
X134138194Y-73517417D01*
X134145044Y-73517509D01*
G37*
G36*
X136445789Y-69965384D02*
G01*
X136446796Y-69965459D01*
X136447798Y-69965582D01*
X136448794Y-69965753D01*
X136449782Y-69965969D01*
X136450760Y-69966230D01*
X136451728Y-69966534D01*
X136452682Y-69966881D01*
X136453623Y-69967268D01*
X136454549Y-69967696D01*
X136455457Y-69968161D01*
X136456348Y-69968664D01*
X136457218Y-69969203D01*
X136458067Y-69969777D01*
X136458892Y-69970385D01*
X136459694Y-69971024D01*
X136460470Y-69971695D01*
X136461218Y-69972396D01*
X136461937Y-69973125D01*
X136462626Y-69973882D01*
X136463283Y-69974665D01*
X136463907Y-69975472D01*
X136464496Y-69976304D01*
X136465048Y-69977157D01*
X136465563Y-69978032D01*
X136466039Y-69978927D01*
X136466473Y-69979841D01*
X136466866Y-69980772D01*
X136467214Y-69981720D01*
X136467517Y-69982682D01*
X136467774Y-69983658D01*
X136467982Y-69984647D01*
X136551723Y-70434518D01*
X136551934Y-70435515D01*
X136552191Y-70436515D01*
X136552835Y-70438519D01*
X136553643Y-70440517D01*
X136554604Y-70442495D01*
X136555706Y-70444441D01*
X136556939Y-70446341D01*
X136558290Y-70448183D01*
X136559750Y-70449953D01*
X136561305Y-70451639D01*
X136562946Y-70453227D01*
X136564661Y-70454704D01*
X136566438Y-70456057D01*
X136568267Y-70457274D01*
X136570136Y-70458340D01*
X136571081Y-70458813D01*
X136572033Y-70459244D01*
X136572989Y-70459630D01*
X136573948Y-70459971D01*
X136875467Y-70583399D01*
X136877340Y-70584224D01*
X136879327Y-70584913D01*
X136881409Y-70585467D01*
X136883570Y-70585887D01*
X136885792Y-70586176D01*
X136888057Y-70586333D01*
X136890348Y-70586361D01*
X136892648Y-70586260D01*
X136894939Y-70586032D01*
X136897203Y-70585677D01*
X136899423Y-70585197D01*
X136901582Y-70584594D01*
X136903662Y-70583867D01*
X136905646Y-70583020D01*
X136907516Y-70582052D01*
X136909254Y-70580965D01*
X137285095Y-70323049D01*
X137285941Y-70322498D01*
X137286813Y-70321989D01*
X137287708Y-70321523D01*
X137288624Y-70321100D01*
X137289559Y-70320719D01*
X137290512Y-70320381D01*
X137291480Y-70320084D01*
X137292462Y-70319830D01*
X137293456Y-70319617D01*
X137294459Y-70319445D01*
X137296487Y-70319226D01*
X137298531Y-70319171D01*
X137300576Y-70319279D01*
X137302607Y-70319548D01*
X137304607Y-70319976D01*
X137306562Y-70320564D01*
X137307518Y-70320916D01*
X137308457Y-70321308D01*
X137309377Y-70321738D01*
X137310276Y-70322208D01*
X137311152Y-70322716D01*
X137312004Y-70323262D01*
X137312829Y-70323846D01*
X137313625Y-70324469D01*
X137314391Y-70325129D01*
X137315125Y-70325827D01*
X137631646Y-70642348D01*
X137632344Y-70643082D01*
X137633004Y-70643848D01*
X137633626Y-70644645D01*
X137634209Y-70645471D01*
X137634755Y-70646323D01*
X137635261Y-70647200D01*
X137636158Y-70649020D01*
X137636899Y-70650917D01*
X137637483Y-70652875D01*
X137637909Y-70654878D01*
X137638175Y-70656910D01*
X137638280Y-70658958D01*
X137638224Y-70661004D01*
X137638005Y-70663035D01*
X137637621Y-70665033D01*
X137637073Y-70666985D01*
X137636736Y-70667939D01*
X137636358Y-70668875D01*
X137635938Y-70669791D01*
X137635475Y-70670686D01*
X137634971Y-70671558D01*
X137634424Y-70672405D01*
X137381006Y-71041763D01*
X137379916Y-71043509D01*
X137378949Y-71045382D01*
X137378105Y-71047365D01*
X137377386Y-71049440D01*
X137376793Y-71051591D01*
X137376327Y-71053801D01*
X137375989Y-71056053D01*
X137375780Y-71058330D01*
X137375702Y-71060614D01*
X137375755Y-71062889D01*
X137375940Y-71065138D01*
X137376258Y-71067343D01*
X137376711Y-71069488D01*
X137377300Y-71071556D01*
X137378026Y-71073530D01*
X137378889Y-71075392D01*
X137512213Y-71386436D01*
X137512974Y-71388346D01*
X137513911Y-71390238D01*
X137515008Y-71392102D01*
X137516254Y-71393926D01*
X137517635Y-71395698D01*
X137519138Y-71397408D01*
X137520749Y-71399044D01*
X137522456Y-71400595D01*
X137524245Y-71402049D01*
X137526103Y-71403395D01*
X137528016Y-71404623D01*
X137529972Y-71405720D01*
X137531958Y-71406676D01*
X137533959Y-71407479D01*
X137535963Y-71408118D01*
X137537957Y-71408582D01*
X137972905Y-71489465D01*
X137973892Y-71489678D01*
X137974866Y-71489938D01*
X137975826Y-71490246D01*
X137976772Y-71490598D01*
X137977701Y-71490993D01*
X137978613Y-71491430D01*
X137979506Y-71491908D01*
X137980379Y-71492425D01*
X137982062Y-71493570D01*
X137983649Y-71494854D01*
X137985133Y-71496264D01*
X137986502Y-71497789D01*
X137987746Y-71499418D01*
X137988857Y-71501138D01*
X137989823Y-71502937D01*
X137990249Y-71503863D01*
X137990635Y-71504805D01*
X137990980Y-71505761D01*
X137991282Y-71506729D01*
X137991541Y-71507709D01*
X137991756Y-71508698D01*
X137991924Y-71509695D01*
X137992045Y-71510699D01*
X137992118Y-71511708D01*
X137992141Y-71512721D01*
X137992088Y-71960370D01*
X137992062Y-71961381D01*
X137991987Y-71962389D01*
X137991864Y-71963392D01*
X137991693Y-71964388D01*
X137991476Y-71965377D01*
X137991215Y-71966357D01*
X137990910Y-71967326D01*
X137990562Y-71968282D01*
X137990174Y-71969225D01*
X137989746Y-71970152D01*
X137989279Y-71971063D01*
X137988775Y-71971955D01*
X137988236Y-71972827D01*
X137987661Y-71973678D01*
X137987053Y-71974506D01*
X137986412Y-71975309D01*
X137985741Y-71976086D01*
X137985040Y-71976836D01*
X137984310Y-71977557D01*
X137983553Y-71978248D01*
X137982771Y-71978906D01*
X137981963Y-71979531D01*
X137981132Y-71980121D01*
X137980278Y-71980674D01*
X137979404Y-71981189D01*
X137978510Y-71981664D01*
X137977597Y-71982099D01*
X137976667Y-71982490D01*
X137975721Y-71982838D01*
X137974760Y-71983140D01*
X137973786Y-71983394D01*
X137972800Y-71983600D01*
X137548540Y-72062552D01*
X137547541Y-72062757D01*
X137546541Y-72063008D01*
X137545539Y-72063304D01*
X137544539Y-72063643D01*
X137542547Y-72064446D01*
X137540579Y-72065405D01*
X137538647Y-72066508D01*
X137536763Y-72067744D01*
X137534940Y-72069102D01*
X137533191Y-72070569D01*
X137531528Y-72072134D01*
X137529965Y-72073786D01*
X137528514Y-72075512D01*
X137527187Y-72077301D01*
X137525997Y-72079142D01*
X137524957Y-72081022D01*
X137524080Y-72082931D01*
X137523706Y-72083892D01*
X137523378Y-72084856D01*
X137390928Y-72415718D01*
X137390109Y-72417600D01*
X137389425Y-72419593D01*
X137388877Y-72421680D01*
X137388463Y-72423843D01*
X137388180Y-72426066D01*
X137388029Y-72428331D01*
X137388007Y-72430621D01*
X137388113Y-72432919D01*
X137388346Y-72435207D01*
X137388705Y-72437468D01*
X137389188Y-72439685D01*
X137389793Y-72441841D01*
X137390520Y-72443918D01*
X137391367Y-72445899D01*
X137392332Y-72447767D01*
X137393415Y-72449505D01*
X137634424Y-72800687D01*
X137634975Y-72801533D01*
X137635484Y-72802406D01*
X137635949Y-72803301D01*
X137636373Y-72804218D01*
X137636753Y-72805155D01*
X137637092Y-72806109D01*
X137637389Y-72807079D01*
X137637643Y-72808062D01*
X137637856Y-72809058D01*
X137638028Y-72810063D01*
X137638247Y-72812096D01*
X137638302Y-72814145D01*
X137638194Y-72816195D01*
X137637925Y-72818230D01*
X137637496Y-72820235D01*
X137636909Y-72822195D01*
X137636557Y-72823153D01*
X137636165Y-72824094D01*
X137635734Y-72825015D01*
X137635265Y-72825916D01*
X137634757Y-72826794D01*
X137634211Y-72827646D01*
X137633627Y-72828472D01*
X137633004Y-72829270D01*
X137632344Y-72830036D01*
X137631646Y-72830770D01*
X137315072Y-73147291D01*
X137314343Y-73147984D01*
X137313581Y-73148640D01*
X137312788Y-73149258D01*
X137311966Y-73149839D01*
X137311117Y-73150382D01*
X137310242Y-73150886D01*
X137308426Y-73151780D01*
X137306532Y-73152520D01*
X137304577Y-73153104D01*
X137302575Y-73153531D01*
X137300543Y-73153800D01*
X137298495Y-73153908D01*
X137296448Y-73153855D01*
X137294416Y-73153639D01*
X137292416Y-73153259D01*
X137290463Y-73152713D01*
X137289509Y-73152378D01*
X137288573Y-73152001D01*
X137287656Y-73151581D01*
X137286760Y-73151120D01*
X137285888Y-73150616D01*
X137285042Y-73150069D01*
X136940051Y-72913293D01*
X136938317Y-72912214D01*
X136936460Y-72911267D01*
X136934496Y-72910454D01*
X136932443Y-72909774D01*
X136930317Y-72909229D01*
X136928136Y-72908817D01*
X136925916Y-72908541D01*
X136923674Y-72908399D01*
X136921427Y-72908392D01*
X136919192Y-72908521D01*
X136916985Y-72908785D01*
X136914825Y-72909186D01*
X136912727Y-72909723D01*
X136910709Y-72910397D01*
X136908787Y-72911208D01*
X136906978Y-72912156D01*
X136754843Y-72993383D01*
X136753933Y-72993815D01*
X136753016Y-72994196D01*
X136752093Y-72994524D01*
X136751165Y-72994802D01*
X136750235Y-72995028D01*
X136749303Y-72995205D01*
X136748372Y-72995333D01*
X136747442Y-72995412D01*
X136746517Y-72995442D01*
X136745596Y-72995425D01*
X136744682Y-72995361D01*
X136743776Y-72995251D01*
X136742880Y-72995094D01*
X136741996Y-72994892D01*
X136741124Y-72994646D01*
X136740268Y-72994355D01*
X136739427Y-72994021D01*
X136738604Y-72993644D01*
X136737801Y-72993224D01*
X136737018Y-72992763D01*
X136736259Y-72992260D01*
X136735523Y-72991717D01*
X136734813Y-72991133D01*
X136734130Y-72990510D01*
X136733476Y-72989849D01*
X136732852Y-72989149D01*
X136732261Y-72988411D01*
X136731703Y-72987636D01*
X136731181Y-72986824D01*
X136730695Y-72985976D01*
X136730247Y-72985093D01*
X136729840Y-72984175D01*
X136416176Y-72226197D01*
X136415813Y-72225254D01*
X136415499Y-72224297D01*
X136415232Y-72223327D01*
X136415011Y-72222347D01*
X136414837Y-72221357D01*
X136414709Y-72220361D01*
X136414625Y-72219359D01*
X136414586Y-72218354D01*
X136414591Y-72217347D01*
X136414639Y-72216340D01*
X136414729Y-72215335D01*
X136414862Y-72214334D01*
X136415036Y-72213338D01*
X136415250Y-72212349D01*
X136415505Y-72211370D01*
X136415799Y-72210401D01*
X136416132Y-72209446D01*
X136416504Y-72208504D01*
X136416913Y-72207579D01*
X136417359Y-72206673D01*
X136417842Y-72205786D01*
X136418360Y-72204920D01*
X136418914Y-72204079D01*
X136419502Y-72203263D01*
X136420125Y-72202473D01*
X136420781Y-72201713D01*
X136421469Y-72200984D01*
X136422190Y-72200287D01*
X136422943Y-72199624D01*
X136423726Y-72198997D01*
X136424540Y-72198409D01*
X136425384Y-72197860D01*
X136463457Y-72174550D01*
X136466198Y-72172805D01*
X136469123Y-72170813D01*
X136472179Y-72168618D01*
X136475311Y-72166262D01*
X136478461Y-72163790D01*
X136481577Y-72161245D01*
X136484602Y-72158670D01*
X136487481Y-72156109D01*
X136512685Y-72138857D01*
X136536739Y-72120126D01*
X136559577Y-72099981D01*
X136581133Y-72078487D01*
X136601342Y-72055709D01*
X136620138Y-72031713D01*
X136637456Y-72006563D01*
X136653230Y-71980326D01*
X136667393Y-71953067D01*
X136679882Y-71924850D01*
X136690629Y-71895741D01*
X136699569Y-71865805D01*
X136706637Y-71835108D01*
X136711767Y-71803714D01*
X136714893Y-71771689D01*
X136715949Y-71739099D01*
X136715305Y-71713623D01*
X136713393Y-71688481D01*
X136710245Y-71663705D01*
X136705892Y-71639325D01*
X136700364Y-71615374D01*
X136693693Y-71591881D01*
X136685910Y-71568878D01*
X136677046Y-71546397D01*
X136667132Y-71524467D01*
X136656200Y-71503121D01*
X136644280Y-71482389D01*
X136631403Y-71462303D01*
X136617601Y-71442894D01*
X136602905Y-71424192D01*
X136587346Y-71406229D01*
X136570954Y-71389036D01*
X136553762Y-71372644D01*
X136535800Y-71357084D01*
X136517099Y-71342387D01*
X136497690Y-71328585D01*
X136477605Y-71315708D01*
X136456874Y-71303788D01*
X136435529Y-71292855D01*
X136413601Y-71282941D01*
X136391121Y-71274077D01*
X136368120Y-71266294D01*
X136344629Y-71259623D01*
X136320679Y-71254095D01*
X136296301Y-71249741D01*
X136271527Y-71246593D01*
X136246388Y-71244681D01*
X136220914Y-71244037D01*
X136195440Y-71244681D01*
X136170300Y-71246593D01*
X136145526Y-71249741D01*
X136121148Y-71254095D01*
X136097197Y-71259623D01*
X136073705Y-71266294D01*
X136050703Y-71274077D01*
X136028222Y-71282941D01*
X136006293Y-71292855D01*
X135984947Y-71303788D01*
X135964216Y-71315708D01*
X135944129Y-71328585D01*
X135924719Y-71342387D01*
X135906017Y-71357084D01*
X135888054Y-71372644D01*
X135870860Y-71389036D01*
X135854467Y-71406229D01*
X135838907Y-71424192D01*
X135824209Y-71442894D01*
X135810406Y-71462303D01*
X135797529Y-71482389D01*
X135785608Y-71503121D01*
X135774674Y-71524467D01*
X135764759Y-71546397D01*
X135755895Y-71568878D01*
X135748111Y-71591881D01*
X135741439Y-71615374D01*
X135735911Y-71639325D01*
X135731557Y-71663705D01*
X135728408Y-71688481D01*
X135726496Y-71713623D01*
X135725852Y-71739099D01*
X135726118Y-71755461D01*
X135726909Y-71771689D01*
X135728218Y-71787777D01*
X135730036Y-71803714D01*
X135732355Y-71819494D01*
X135735167Y-71835108D01*
X135738463Y-71850547D01*
X135742236Y-71865805D01*
X135746477Y-71880872D01*
X135751178Y-71895741D01*
X135756330Y-71910403D01*
X135761926Y-71924850D01*
X135767958Y-71939074D01*
X135774416Y-71953067D01*
X135788581Y-71980326D01*
X135804356Y-72006564D01*
X135821674Y-72031713D01*
X135840471Y-72055709D01*
X135860679Y-72078487D01*
X135882234Y-72099981D01*
X135905070Y-72120126D01*
X135929120Y-72138857D01*
X135954320Y-72156109D01*
X135957215Y-72158670D01*
X135960251Y-72161245D01*
X135963373Y-72163790D01*
X135966527Y-72166262D01*
X135969660Y-72168618D01*
X135972719Y-72170813D01*
X135975649Y-72172805D01*
X135978397Y-72174550D01*
X136016470Y-72197860D01*
X136017319Y-72198409D01*
X136018137Y-72198997D01*
X136018924Y-72199624D01*
X136019680Y-72200287D01*
X136020404Y-72200984D01*
X136021095Y-72201713D01*
X136022378Y-72203263D01*
X136023523Y-72204920D01*
X136024525Y-72206673D01*
X136025381Y-72208504D01*
X136026085Y-72210401D01*
X136026632Y-72212349D01*
X136027018Y-72214334D01*
X136027238Y-72216340D01*
X136027287Y-72218354D01*
X136027160Y-72220361D01*
X136027029Y-72221357D01*
X136026853Y-72222347D01*
X136026630Y-72223327D01*
X136026360Y-72224297D01*
X136026043Y-72225254D01*
X136025678Y-72226197D01*
X135711988Y-72984149D01*
X135711581Y-72985067D01*
X135711133Y-72985950D01*
X135710647Y-72986798D01*
X135710124Y-72987610D01*
X135709565Y-72988386D01*
X135708973Y-72989125D01*
X135708349Y-72989825D01*
X135707694Y-72990488D01*
X135707011Y-72991112D01*
X135706300Y-72991696D01*
X135705563Y-72992240D01*
X135704803Y-72992743D01*
X135704019Y-72993206D01*
X135703215Y-72993626D01*
X135702392Y-72994004D01*
X135701550Y-72994339D01*
X135700693Y-72994630D01*
X135699821Y-72994877D01*
X135698936Y-72995079D01*
X135698040Y-72995236D01*
X135697134Y-72995347D01*
X135696220Y-72995411D01*
X135695300Y-72995428D01*
X135694374Y-72995397D01*
X135693445Y-72995317D01*
X135692515Y-72995189D01*
X135691584Y-72995011D01*
X135690655Y-72994783D01*
X135689729Y-72994504D01*
X135688808Y-72994174D01*
X135687892Y-72993791D01*
X135686985Y-72993357D01*
X135534850Y-72912129D01*
X135533045Y-72911182D01*
X135531127Y-72910372D01*
X135529111Y-72909699D01*
X135527014Y-72909163D01*
X135524854Y-72908764D01*
X135522648Y-72908501D01*
X135520412Y-72908374D01*
X135518164Y-72908382D01*
X135515921Y-72908525D01*
X135513699Y-72908803D01*
X135511516Y-72909214D01*
X135509389Y-72909759D01*
X135507334Y-72910438D01*
X135505369Y-72911249D01*
X135503511Y-72912192D01*
X135501777Y-72913267D01*
X135156813Y-73150043D01*
X135155964Y-73150589D01*
X135155090Y-73151093D01*
X135154192Y-73151555D01*
X135153274Y-73151974D01*
X135152336Y-73152352D01*
X135151381Y-73152687D01*
X135150411Y-73152981D01*
X135149426Y-73153233D01*
X135148431Y-73153443D01*
X135147426Y-73153613D01*
X135145394Y-73153828D01*
X135143346Y-73153882D01*
X135141298Y-73153773D01*
X135139266Y-73153505D01*
X135137264Y-73153078D01*
X135135308Y-73152494D01*
X135134352Y-73152144D01*
X135133413Y-73151754D01*
X135132494Y-73151326D01*
X135131596Y-73150860D01*
X135130720Y-73150355D01*
X135129870Y-73149813D01*
X135129046Y-73149232D01*
X135128252Y-73148614D01*
X135127488Y-73147958D01*
X135126756Y-73147265D01*
X134810182Y-72830743D01*
X134809487Y-72830010D01*
X134808828Y-72829243D01*
X134808208Y-72828446D01*
X134807626Y-72827620D01*
X134807081Y-72826767D01*
X134806575Y-72825890D01*
X134805678Y-72824067D01*
X134804936Y-72822169D01*
X134804350Y-72820209D01*
X134803922Y-72818204D01*
X134803654Y-72816168D01*
X134803546Y-72814118D01*
X134803600Y-72812069D01*
X134803817Y-72810037D01*
X134804199Y-72808036D01*
X134804748Y-72806083D01*
X134805085Y-72805128D01*
X134805464Y-72804192D01*
X134805885Y-72803275D01*
X134806349Y-72802379D01*
X134806855Y-72801507D01*
X134807404Y-72800660D01*
X135048387Y-72449479D01*
X135049478Y-72447741D01*
X135050451Y-72445873D01*
X135051304Y-72443892D01*
X135052035Y-72441815D01*
X135052644Y-72439659D01*
X135053128Y-72437442D01*
X135053488Y-72435181D01*
X135053721Y-72432893D01*
X135053827Y-72430595D01*
X135053805Y-72428305D01*
X135053652Y-72426040D01*
X135053369Y-72423817D01*
X135052953Y-72421654D01*
X135052404Y-72419567D01*
X135051720Y-72417574D01*
X135050900Y-72415692D01*
X134918450Y-72084830D01*
X134918124Y-72083866D01*
X134917751Y-72082905D01*
X134916876Y-72080996D01*
X134915836Y-72079115D01*
X134914644Y-72077275D01*
X134913314Y-72075485D01*
X134911859Y-72073759D01*
X134910291Y-72072108D01*
X134908624Y-72070543D01*
X134906870Y-72069076D01*
X134905043Y-72067718D01*
X134903155Y-72066482D01*
X134901219Y-72065378D01*
X134899249Y-72064419D01*
X134897257Y-72063617D01*
X134895257Y-72062982D01*
X134894258Y-72062731D01*
X134893261Y-72062526D01*
X134469002Y-71983574D01*
X134468013Y-71983368D01*
X134467037Y-71983114D01*
X134466075Y-71982812D01*
X134465127Y-71982464D01*
X134464196Y-71982072D01*
X134463282Y-71981638D01*
X134462387Y-71981163D01*
X134461512Y-71980648D01*
X134460658Y-71980094D01*
X134459827Y-71979505D01*
X134458237Y-71978221D01*
X134456751Y-71976810D01*
X134455379Y-71975283D01*
X134454132Y-71973651D01*
X134453019Y-71971929D01*
X134452051Y-71970126D01*
X134451236Y-71968256D01*
X134450889Y-71967299D01*
X134450585Y-71966331D01*
X134450324Y-71965351D01*
X134450108Y-71964362D01*
X134449937Y-71963365D01*
X134449814Y-71962362D01*
X134449739Y-71961355D01*
X134449714Y-71960344D01*
X134449687Y-71512695D01*
X134449713Y-71511684D01*
X134449787Y-71510677D01*
X134449910Y-71509675D01*
X134450080Y-71508680D01*
X134450296Y-71507693D01*
X134450556Y-71506715D01*
X134450860Y-71505748D01*
X134451206Y-71504794D01*
X134451592Y-71503854D01*
X134452019Y-71502929D01*
X134452484Y-71502021D01*
X134452986Y-71501131D01*
X134453524Y-71500261D01*
X134454097Y-71499413D01*
X134454704Y-71498587D01*
X134455343Y-71497786D01*
X134456013Y-71497010D01*
X134456713Y-71496262D01*
X134457442Y-71495542D01*
X134458199Y-71494852D01*
X134458981Y-71494194D01*
X134459789Y-71493569D01*
X134460621Y-71492979D01*
X134461475Y-71492425D01*
X134462350Y-71491908D01*
X134463246Y-71491430D01*
X134464161Y-71490993D01*
X134465093Y-71490597D01*
X134466042Y-71490246D01*
X134467006Y-71489938D01*
X134467984Y-71489678D01*
X134468976Y-71489465D01*
X134903898Y-71408582D01*
X134904897Y-71408372D01*
X134905901Y-71408118D01*
X134907912Y-71407479D01*
X134909919Y-71406676D01*
X134911909Y-71405720D01*
X134913868Y-71404623D01*
X134915783Y-71403395D01*
X134917641Y-71402049D01*
X134919429Y-71400595D01*
X134921134Y-71399044D01*
X134922743Y-71397408D01*
X134924242Y-71395698D01*
X134925619Y-71393926D01*
X134926861Y-71392102D01*
X134927954Y-71390238D01*
X134928885Y-71388346D01*
X134929286Y-71387392D01*
X134929642Y-71386436D01*
X135062992Y-71075392D01*
X135063850Y-71073530D01*
X135064572Y-71071556D01*
X135065158Y-71069488D01*
X135065608Y-71067343D01*
X135065925Y-71065138D01*
X135066109Y-71062889D01*
X135066162Y-71060614D01*
X135066084Y-71058330D01*
X135065877Y-71056053D01*
X135065542Y-71053801D01*
X135065079Y-71051591D01*
X135064491Y-71049440D01*
X135063778Y-71047365D01*
X135062941Y-71045382D01*
X135061982Y-71043509D01*
X135060901Y-71041763D01*
X134807457Y-70672405D01*
X134806906Y-70671558D01*
X134806397Y-70670686D01*
X134805932Y-70669791D01*
X134805509Y-70668875D01*
X134805129Y-70667939D01*
X134804791Y-70666985D01*
X134804495Y-70666016D01*
X134804241Y-70665033D01*
X134804029Y-70664039D01*
X134803858Y-70663035D01*
X134803641Y-70661004D01*
X134803588Y-70658958D01*
X134803697Y-70656910D01*
X134803967Y-70654878D01*
X134804396Y-70652875D01*
X134804983Y-70650917D01*
X134805336Y-70649960D01*
X134805727Y-70649020D01*
X134806157Y-70648100D01*
X134806625Y-70647200D01*
X134807132Y-70646323D01*
X134807677Y-70645471D01*
X134808260Y-70644645D01*
X134808881Y-70643848D01*
X134809539Y-70643082D01*
X134810235Y-70642348D01*
X135126783Y-70325827D01*
X135127514Y-70325129D01*
X135128278Y-70324469D01*
X135129073Y-70323846D01*
X135129896Y-70323262D01*
X135130747Y-70322716D01*
X135131622Y-70322208D01*
X135133440Y-70321308D01*
X135135335Y-70320564D01*
X135137291Y-70319977D01*
X135139293Y-70319548D01*
X135141325Y-70319279D01*
X135143373Y-70319171D01*
X135145420Y-70319226D01*
X135147452Y-70319445D01*
X135149453Y-70319830D01*
X135151408Y-70320381D01*
X135152363Y-70320719D01*
X135153301Y-70321100D01*
X135154219Y-70321523D01*
X135155116Y-70321989D01*
X135155991Y-70322498D01*
X135156840Y-70323049D01*
X135532654Y-70580965D01*
X135534387Y-70582052D01*
X135536253Y-70583020D01*
X135538233Y-70583867D01*
X135540310Y-70584594D01*
X135542467Y-70585197D01*
X135544686Y-70585677D01*
X135546949Y-70586032D01*
X135549240Y-70586260D01*
X135551540Y-70586361D01*
X135553832Y-70586333D01*
X135556099Y-70586176D01*
X135558323Y-70585888D01*
X135560486Y-70585467D01*
X135562572Y-70584913D01*
X135564563Y-70584224D01*
X135566441Y-70583399D01*
X135867987Y-70459971D01*
X135869906Y-70459244D01*
X135871806Y-70458340D01*
X135873677Y-70457274D01*
X135875507Y-70456057D01*
X135877285Y-70454704D01*
X135879000Y-70453227D01*
X135880640Y-70451639D01*
X135882195Y-70449953D01*
X135883652Y-70448183D01*
X135885002Y-70446341D01*
X135886233Y-70444441D01*
X135887334Y-70442495D01*
X135888293Y-70440517D01*
X135889100Y-70438519D01*
X135889743Y-70436515D01*
X135890211Y-70434518D01*
X135973926Y-69984647D01*
X135974134Y-69983658D01*
X135974390Y-69982682D01*
X135974694Y-69981720D01*
X135975042Y-69980772D01*
X135975434Y-69979841D01*
X135975869Y-69978927D01*
X135976344Y-69978032D01*
X135976859Y-69977157D01*
X135977411Y-69976304D01*
X135978000Y-69975472D01*
X135979280Y-69973882D01*
X135980688Y-69972396D01*
X135982210Y-69971024D01*
X135983836Y-69969777D01*
X135985554Y-69968664D01*
X135987350Y-69967696D01*
X135988274Y-69967268D01*
X135989214Y-69966881D01*
X135990167Y-69966534D01*
X135991133Y-69966230D01*
X135992110Y-69965969D01*
X135993096Y-69965753D01*
X135994090Y-69965582D01*
X135995090Y-69965459D01*
X135996095Y-69965384D01*
X135997103Y-69965359D01*
X136444778Y-69965359D01*
X136445789Y-69965384D01*
G37*
G36*
X136194019Y-73517764D02*
G01*
X136208738Y-73518635D01*
X136222871Y-73520066D01*
X136236444Y-73522041D01*
X136249483Y-73524544D01*
X136262015Y-73527557D01*
X136274066Y-73531065D01*
X136285661Y-73535051D01*
X136296828Y-73539498D01*
X136307592Y-73544390D01*
X136317980Y-73549711D01*
X136328017Y-73555443D01*
X136337731Y-73561571D01*
X136347147Y-73568077D01*
X136356292Y-73574946D01*
X136365192Y-73582160D01*
X136306189Y-73651455D01*
X136299150Y-73646644D01*
X136292070Y-73642043D01*
X136284932Y-73637665D01*
X136277717Y-73633525D01*
X136270408Y-73629637D01*
X136262988Y-73626013D01*
X136255437Y-73622670D01*
X136247740Y-73619619D01*
X136239876Y-73616875D01*
X136231830Y-73614452D01*
X136223583Y-73612364D01*
X136215118Y-73610624D01*
X136206416Y-73609247D01*
X136197459Y-73608246D01*
X136188231Y-73607635D01*
X136178713Y-73607428D01*
X136173123Y-73607499D01*
X136167765Y-73607710D01*
X136162636Y-73608058D01*
X136157732Y-73608540D01*
X136153050Y-73609154D01*
X136148585Y-73609895D01*
X136144335Y-73610762D01*
X136140296Y-73611752D01*
X136136464Y-73612860D01*
X136132835Y-73614086D01*
X136129407Y-73615425D01*
X136126174Y-73616874D01*
X136123135Y-73618431D01*
X136120285Y-73620093D01*
X136117620Y-73621857D01*
X136115137Y-73623720D01*
X136112832Y-73625679D01*
X136110703Y-73627730D01*
X136108744Y-73629872D01*
X136106953Y-73632101D01*
X136105326Y-73634414D01*
X136103860Y-73636809D01*
X136102550Y-73639282D01*
X136101393Y-73641830D01*
X136100386Y-73644451D01*
X136099525Y-73647141D01*
X136098806Y-73649898D01*
X136098226Y-73652718D01*
X136097781Y-73655599D01*
X136097468Y-73658538D01*
X136097282Y-73661532D01*
X136097221Y-73664578D01*
X136097401Y-73668439D01*
X136097958Y-73672274D01*
X136098918Y-73676061D01*
X136100308Y-73679774D01*
X136102153Y-73683388D01*
X136104480Y-73686878D01*
X136107314Y-73690221D01*
X136108930Y-73691829D01*
X136110682Y-73693391D01*
X136112575Y-73694904D01*
X136114610Y-73696364D01*
X136116792Y-73697769D01*
X136119124Y-73699116D01*
X136121610Y-73700400D01*
X136124251Y-73701620D01*
X136130016Y-73703854D01*
X136136445Y-73705792D01*
X136143565Y-73707409D01*
X136151401Y-73708681D01*
X136159981Y-73709584D01*
X136238694Y-73715167D01*
X136247749Y-73715937D01*
X136256461Y-73717014D01*
X136264834Y-73718390D01*
X136272871Y-73720059D01*
X136280577Y-73722014D01*
X136287955Y-73724247D01*
X136295007Y-73726752D01*
X136301739Y-73729522D01*
X136308154Y-73732550D01*
X136314255Y-73735829D01*
X136320045Y-73739352D01*
X136325530Y-73743113D01*
X136330711Y-73747105D01*
X136335593Y-73751320D01*
X136340180Y-73755752D01*
X136344475Y-73760394D01*
X136348481Y-73765239D01*
X136352202Y-73770280D01*
X136355643Y-73775510D01*
X136358806Y-73780922D01*
X136361695Y-73786511D01*
X136364314Y-73792267D01*
X136366666Y-73798186D01*
X136368755Y-73804259D01*
X136370585Y-73810480D01*
X136372159Y-73816842D01*
X136374555Y-73829962D01*
X136375971Y-73843564D01*
X136376436Y-73857592D01*
X136376186Y-73866175D01*
X136375441Y-73874525D01*
X136374214Y-73882639D01*
X136372516Y-73890514D01*
X136370358Y-73898148D01*
X136367752Y-73905538D01*
X136364709Y-73912683D01*
X136361240Y-73919578D01*
X136357356Y-73926222D01*
X136353069Y-73932613D01*
X136348390Y-73938746D01*
X136343331Y-73944621D01*
X136337902Y-73950234D01*
X136332116Y-73955583D01*
X136325983Y-73960666D01*
X136319514Y-73965479D01*
X136312722Y-73970020D01*
X136305617Y-73974287D01*
X136290515Y-73981987D01*
X136274298Y-73988558D01*
X136257058Y-73993981D01*
X136238883Y-73998235D01*
X136219866Y-74001298D01*
X136200097Y-74003151D01*
X136179666Y-74003774D01*
X136165326Y-74003444D01*
X136151125Y-74002454D01*
X136137069Y-74000801D01*
X136123165Y-73998486D01*
X136109420Y-73995506D01*
X136095841Y-73991861D01*
X136082435Y-73987548D01*
X136069209Y-73982567D01*
X136056169Y-73976917D01*
X136043323Y-73970595D01*
X136030678Y-73963601D01*
X136018239Y-73955933D01*
X136006015Y-73947590D01*
X135994012Y-73938571D01*
X135982238Y-73928874D01*
X135970698Y-73918498D01*
X136037214Y-73852935D01*
X136044991Y-73860264D01*
X136052878Y-73867128D01*
X136060897Y-73873527D01*
X136069069Y-73879459D01*
X136077418Y-73884923D01*
X136085964Y-73889918D01*
X136094730Y-73894443D01*
X136103737Y-73898496D01*
X136113008Y-73902077D01*
X136122565Y-73905184D01*
X136132428Y-73907817D01*
X136142622Y-73909973D01*
X136153166Y-73911652D01*
X136164084Y-73912853D01*
X136175397Y-73913574D01*
X136187127Y-73913815D01*
X136192175Y-73913755D01*
X136197131Y-73913574D01*
X136201991Y-73913273D01*
X136206749Y-73912852D01*
X136211403Y-73912311D01*
X136215946Y-73911650D01*
X136220376Y-73910869D01*
X136224686Y-73909969D01*
X136228873Y-73908950D01*
X136232932Y-73907811D01*
X136236860Y-73906554D01*
X136240650Y-73905177D01*
X136244299Y-73903682D01*
X136247803Y-73902068D01*
X136251156Y-73900336D01*
X136254354Y-73898486D01*
X136257394Y-73896518D01*
X136260270Y-73894431D01*
X136262978Y-73892227D01*
X136265513Y-73889906D01*
X136267871Y-73887467D01*
X136270047Y-73884911D01*
X136272038Y-73882237D01*
X136273838Y-73879447D01*
X136275443Y-73876540D01*
X136276849Y-73873517D01*
X136278050Y-73870377D01*
X136279044Y-73867120D01*
X136279824Y-73863748D01*
X136280387Y-73860259D01*
X136280728Y-73856655D01*
X136280843Y-73852935D01*
X136280769Y-73849840D01*
X136280551Y-73846880D01*
X136280191Y-73844051D01*
X136279693Y-73841350D01*
X136279059Y-73838775D01*
X136278294Y-73836322D01*
X136277401Y-73833989D01*
X136276381Y-73831772D01*
X136275240Y-73829670D01*
X136273980Y-73827678D01*
X136272604Y-73825795D01*
X136271116Y-73824017D01*
X136269519Y-73822341D01*
X136267816Y-73820764D01*
X136266010Y-73819284D01*
X136264104Y-73817898D01*
X136262103Y-73816602D01*
X136260008Y-73815394D01*
X136255553Y-73813229D01*
X136250765Y-73811381D01*
X136245671Y-73809827D01*
X136240295Y-73808542D01*
X136234664Y-73807505D01*
X136228803Y-73806691D01*
X136222740Y-73806077D01*
X136138391Y-73798589D01*
X136123887Y-73796888D01*
X136109921Y-73794250D01*
X136103157Y-73792582D01*
X136096548Y-73790683D01*
X136090100Y-73788554D01*
X136083821Y-73786197D01*
X136077718Y-73783611D01*
X136071797Y-73780799D01*
X136066066Y-73777761D01*
X136060530Y-73774498D01*
X136055198Y-73771011D01*
X136050076Y-73767302D01*
X136045170Y-73763371D01*
X136040488Y-73759219D01*
X136036037Y-73754848D01*
X136031823Y-73750259D01*
X136027853Y-73745452D01*
X136024135Y-73740428D01*
X136020674Y-73735190D01*
X136017478Y-73729737D01*
X136014555Y-73724071D01*
X136011909Y-73718192D01*
X136009549Y-73712103D01*
X136007482Y-73705803D01*
X136005714Y-73699294D01*
X136004251Y-73692578D01*
X136003102Y-73685654D01*
X136002273Y-73678524D01*
X136001770Y-73671190D01*
X136001601Y-73663652D01*
X136001825Y-73654740D01*
X136002489Y-73646104D01*
X136003583Y-73637743D01*
X136005098Y-73629659D01*
X136007025Y-73621851D01*
X136009353Y-73614320D01*
X136012072Y-73607066D01*
X136015173Y-73600091D01*
X136018646Y-73593395D01*
X136022481Y-73586978D01*
X136026669Y-73580840D01*
X136031199Y-73574983D01*
X136036062Y-73569406D01*
X136041248Y-73564111D01*
X136046747Y-73559097D01*
X136052550Y-73554366D01*
X136058647Y-73549917D01*
X136065027Y-73545752D01*
X136071681Y-73541870D01*
X136078600Y-73538273D01*
X136085774Y-73534961D01*
X136093192Y-73531934D01*
X136108724Y-73526737D01*
X136125118Y-73522689D01*
X136142295Y-73519792D01*
X136160177Y-73518051D01*
X136178687Y-73517470D01*
X136194019Y-73517764D01*
G37*
G36*
X135065192Y-73517643D02*
G01*
X135074890Y-73518320D01*
X135084477Y-73519440D01*
X135093940Y-73520997D01*
X135103264Y-73522987D01*
X135112435Y-73525402D01*
X135121440Y-73528237D01*
X135130264Y-73531485D01*
X135138893Y-73535141D01*
X135147313Y-73539199D01*
X135155510Y-73543653D01*
X135163470Y-73548496D01*
X135171178Y-73553723D01*
X135178622Y-73559327D01*
X135185786Y-73565304D01*
X135192657Y-73571646D01*
X135199221Y-73578348D01*
X135205463Y-73585403D01*
X135211369Y-73592807D01*
X135216926Y-73600552D01*
X135222119Y-73608633D01*
X135226935Y-73617044D01*
X135231358Y-73625778D01*
X135235376Y-73634831D01*
X135238974Y-73644195D01*
X135242137Y-73653865D01*
X135244853Y-73663834D01*
X135247106Y-73674098D01*
X135248883Y-73684649D01*
X135250170Y-73695483D01*
X135250952Y-73706592D01*
X135251216Y-73717971D01*
X135251216Y-73796684D01*
X134955121Y-73796684D01*
X134955260Y-73803864D01*
X134955674Y-73810818D01*
X134956356Y-73817548D01*
X134957302Y-73824051D01*
X134958507Y-73830329D01*
X134959963Y-73836381D01*
X134961667Y-73842207D01*
X134963612Y-73847806D01*
X134965794Y-73853179D01*
X134968206Y-73858325D01*
X134970843Y-73863244D01*
X134973700Y-73867937D01*
X134976771Y-73872402D01*
X134980051Y-73876640D01*
X134983534Y-73880650D01*
X134987215Y-73884433D01*
X134991088Y-73887987D01*
X134995148Y-73891314D01*
X134999389Y-73894412D01*
X135003805Y-73897282D01*
X135008392Y-73899923D01*
X135013144Y-73902336D01*
X135018056Y-73904520D01*
X135023121Y-73906474D01*
X135028334Y-73908199D01*
X135033690Y-73909695D01*
X135039184Y-73910961D01*
X135044810Y-73911998D01*
X135050562Y-73912804D01*
X135056435Y-73913380D01*
X135062423Y-73913726D01*
X135068521Y-73913841D01*
X135075402Y-73913644D01*
X135082328Y-73913059D01*
X135089278Y-73912092D01*
X135096232Y-73910750D01*
X135103170Y-73909040D01*
X135110070Y-73906968D01*
X135116913Y-73904543D01*
X135123677Y-73901770D01*
X135130343Y-73898656D01*
X135136889Y-73895209D01*
X135143294Y-73891436D01*
X135149540Y-73887342D01*
X135155604Y-73882936D01*
X135161466Y-73878224D01*
X135167106Y-73873213D01*
X135172503Y-73867910D01*
X135241850Y-73926912D01*
X135232903Y-73936731D01*
X135223643Y-73945816D01*
X135214087Y-73954183D01*
X135204252Y-73961844D01*
X135194153Y-73968814D01*
X135183808Y-73975105D01*
X135173232Y-73980732D01*
X135162442Y-73985709D01*
X135151454Y-73990048D01*
X135140285Y-73993765D01*
X135128950Y-73996872D01*
X135117467Y-73999384D01*
X135105851Y-74001313D01*
X135094120Y-74002674D01*
X135082288Y-74003481D01*
X135070373Y-74003747D01*
X135051947Y-74003173D01*
X135033337Y-74001352D01*
X135014733Y-73998135D01*
X134996323Y-73993376D01*
X134978297Y-73986926D01*
X134969488Y-73983020D01*
X134960846Y-73978636D01*
X134952394Y-73973755D01*
X134944157Y-73968359D01*
X134936158Y-73962429D01*
X134928421Y-73955947D01*
X134920970Y-73948893D01*
X134913827Y-73941250D01*
X134907018Y-73933000D01*
X134900565Y-73924123D01*
X134894492Y-73914600D01*
X134888823Y-73904415D01*
X134883581Y-73893547D01*
X134878791Y-73881979D01*
X134874475Y-73869693D01*
X134870659Y-73856668D01*
X134867364Y-73842888D01*
X134864615Y-73828333D01*
X134862436Y-73812985D01*
X134860851Y-73796825D01*
X134859882Y-73779835D01*
X134859554Y-73761997D01*
X134859855Y-73745056D01*
X134860744Y-73728834D01*
X134861760Y-73717997D01*
X134955121Y-73717997D01*
X135155649Y-73717997D01*
X135155274Y-73711327D01*
X135154678Y-73704856D01*
X135153866Y-73698585D01*
X135152842Y-73692514D01*
X135151610Y-73686645D01*
X135150174Y-73680979D01*
X135148538Y-73675515D01*
X135146708Y-73670255D01*
X135144687Y-73665201D01*
X135142479Y-73660351D01*
X135140089Y-73655709D01*
X135137521Y-73651274D01*
X135134779Y-73647046D01*
X135131868Y-73643028D01*
X135128792Y-73639220D01*
X135125556Y-73635623D01*
X135122162Y-73632237D01*
X135118617Y-73629063D01*
X135114923Y-73626103D01*
X135111086Y-73623356D01*
X135107110Y-73620825D01*
X135102998Y-73618509D01*
X135098756Y-73616410D01*
X135094387Y-73614528D01*
X135089896Y-73612865D01*
X135085288Y-73611420D01*
X135080565Y-73610196D01*
X135075733Y-73609192D01*
X135070796Y-73608410D01*
X135065759Y-73607850D01*
X135060624Y-73607514D01*
X135055398Y-73607402D01*
X135050169Y-73607514D01*
X135045027Y-73607850D01*
X135039977Y-73608410D01*
X135035024Y-73609192D01*
X135030172Y-73610196D01*
X135025427Y-73611420D01*
X135020793Y-73612865D01*
X135016275Y-73614528D01*
X135011877Y-73616410D01*
X135007605Y-73618509D01*
X135003464Y-73620825D01*
X134999457Y-73623356D01*
X134995591Y-73626103D01*
X134991869Y-73629063D01*
X134988298Y-73632237D01*
X134984880Y-73635623D01*
X134981622Y-73639220D01*
X134978527Y-73643028D01*
X134975602Y-73647046D01*
X134972850Y-73651273D01*
X134970277Y-73655709D01*
X134967887Y-73660351D01*
X134965685Y-73665200D01*
X134963675Y-73670255D01*
X134961864Y-73675515D01*
X134960255Y-73680978D01*
X134958853Y-73686645D01*
X134957663Y-73692514D01*
X134956690Y-73698585D01*
X134955939Y-73704856D01*
X134955414Y-73711327D01*
X134955121Y-73717997D01*
X134861760Y-73717997D01*
X134862200Y-73713317D01*
X134864201Y-73698495D01*
X134866726Y-73684356D01*
X134869755Y-73670887D01*
X134873265Y-73658077D01*
X134877236Y-73645915D01*
X134881646Y-73634387D01*
X134886474Y-73623483D01*
X134891698Y-73613191D01*
X134897298Y-73603499D01*
X134903252Y-73594395D01*
X134909539Y-73585867D01*
X134916138Y-73577903D01*
X134923027Y-73570492D01*
X134930185Y-73563621D01*
X134937591Y-73557280D01*
X134945224Y-73551456D01*
X134953062Y-73546136D01*
X134961084Y-73541311D01*
X134969269Y-73536967D01*
X134977596Y-73533093D01*
X134986043Y-73529676D01*
X134994588Y-73526706D01*
X135003212Y-73524171D01*
X135011893Y-73522058D01*
X135020608Y-73520355D01*
X135038060Y-73518135D01*
X135055398Y-73517416D01*
X135065192Y-73517643D01*
G37*
G36*
X137797809Y-74268028D02*
G01*
X137807506Y-74268704D01*
X137817093Y-74269824D01*
X137826555Y-74271382D01*
X137835879Y-74273372D01*
X137845049Y-74275786D01*
X137854053Y-74278621D01*
X137862876Y-74281869D01*
X137871504Y-74285525D01*
X137879923Y-74289582D01*
X137888119Y-74294035D01*
X137896078Y-74298878D01*
X137903785Y-74304104D01*
X137911228Y-74309708D01*
X137918391Y-74315683D01*
X137925261Y-74322024D01*
X137931823Y-74328725D01*
X137938064Y-74335779D01*
X137943969Y-74343181D01*
X137949525Y-74350924D01*
X137954717Y-74359003D01*
X137959531Y-74367411D01*
X137963954Y-74376143D01*
X137967970Y-74385193D01*
X137971567Y-74394554D01*
X137974730Y-74404221D01*
X137977445Y-74414187D01*
X137979697Y-74424447D01*
X137981474Y-74434995D01*
X137982760Y-74445824D01*
X137983543Y-74456928D01*
X137983806Y-74468302D01*
X137983806Y-74547069D01*
X137687764Y-74547069D01*
X137687903Y-74554244D01*
X137688316Y-74561194D01*
X137688999Y-74567919D01*
X137689944Y-74574419D01*
X137691148Y-74580693D01*
X137692604Y-74586742D01*
X137694307Y-74592564D01*
X137696252Y-74598161D01*
X137698432Y-74603531D01*
X137700843Y-74608675D01*
X137703479Y-74613592D01*
X137706335Y-74618282D01*
X137709405Y-74622746D01*
X137712684Y-74626982D01*
X137716166Y-74630991D01*
X137719845Y-74634772D01*
X137723717Y-74638325D01*
X137727775Y-74641651D01*
X137732015Y-74644748D01*
X137736431Y-74647617D01*
X137741017Y-74650258D01*
X137745767Y-74652670D01*
X137750677Y-74654853D01*
X137755742Y-74656808D01*
X137760954Y-74658533D01*
X137766310Y-74660028D01*
X137771803Y-74661294D01*
X137777427Y-74662330D01*
X137783179Y-74663137D01*
X137789052Y-74663713D01*
X137795040Y-74664058D01*
X137801138Y-74664174D01*
X137808010Y-74663978D01*
X137814928Y-74663394D01*
X137821872Y-74662429D01*
X137828823Y-74661090D01*
X137835757Y-74659383D01*
X137842656Y-74657315D01*
X137849499Y-74654892D01*
X137856264Y-74652122D01*
X137862931Y-74649011D01*
X137869480Y-74645565D01*
X137875889Y-74641792D01*
X137882138Y-74637697D01*
X137888206Y-74633288D01*
X137894073Y-74628572D01*
X137899717Y-74623554D01*
X137905119Y-74618242D01*
X137974466Y-74677297D01*
X137965519Y-74687116D01*
X137956259Y-74696202D01*
X137946704Y-74704568D01*
X137936869Y-74712230D01*
X137926771Y-74719199D01*
X137916426Y-74725490D01*
X137905851Y-74731118D01*
X137895062Y-74736094D01*
X137884075Y-74740434D01*
X137872908Y-74744151D01*
X137861575Y-74747258D01*
X137850095Y-74749769D01*
X137838482Y-74751699D01*
X137826754Y-74753060D01*
X137814927Y-74753867D01*
X137803017Y-74754132D01*
X137784586Y-74753558D01*
X137765972Y-74751737D01*
X137747364Y-74748521D01*
X137728951Y-74743761D01*
X137710923Y-74737310D01*
X137702112Y-74733404D01*
X137693469Y-74729019D01*
X137685017Y-74724137D01*
X137676779Y-74718740D01*
X137668779Y-74712809D01*
X137661041Y-74706325D01*
X137653589Y-74699271D01*
X137646446Y-74691626D01*
X137639636Y-74683374D01*
X137633183Y-74674495D01*
X137627110Y-74664971D01*
X137621440Y-74654783D01*
X137616199Y-74643913D01*
X137611408Y-74632342D01*
X137607093Y-74620052D01*
X137603276Y-74607025D01*
X137599981Y-74593241D01*
X137597232Y-74578682D01*
X137595053Y-74563330D01*
X137593468Y-74547166D01*
X137592499Y-74530172D01*
X137592170Y-74512329D01*
X137592472Y-74495389D01*
X137593361Y-74479166D01*
X137594378Y-74468329D01*
X137687764Y-74468329D01*
X137888265Y-74468329D01*
X137887893Y-74461663D01*
X137887299Y-74455196D01*
X137886489Y-74448929D01*
X137885466Y-74442861D01*
X137884235Y-74436995D01*
X137882800Y-74431330D01*
X137881166Y-74425868D01*
X137879336Y-74420609D01*
X137877315Y-74415555D01*
X137875107Y-74410706D01*
X137872717Y-74406064D01*
X137870149Y-74401628D01*
X137867408Y-74397401D01*
X137864496Y-74393382D01*
X137861420Y-74389573D01*
X137858182Y-74385974D01*
X137854788Y-74382587D01*
X137851242Y-74379412D01*
X137847548Y-74376450D01*
X137843710Y-74373702D01*
X137839733Y-74371169D01*
X137835620Y-74368851D01*
X137831377Y-74366751D01*
X137827008Y-74364867D01*
X137822516Y-74363202D01*
X137817906Y-74361756D01*
X137813183Y-74360531D01*
X137808351Y-74359526D01*
X137803414Y-74358743D01*
X137798376Y-74358182D01*
X137793241Y-74357846D01*
X137788015Y-74357733D01*
X137782786Y-74357846D01*
X137777644Y-74358182D01*
X137772594Y-74358743D01*
X137767641Y-74359526D01*
X137762789Y-74360531D01*
X137758044Y-74361756D01*
X137753410Y-74363202D01*
X137748892Y-74364867D01*
X137744494Y-74366751D01*
X137740223Y-74368851D01*
X137736081Y-74371169D01*
X137732075Y-74373702D01*
X137728209Y-74376450D01*
X137724488Y-74379412D01*
X137720917Y-74382587D01*
X137717500Y-74385974D01*
X137714242Y-74389573D01*
X137711149Y-74393382D01*
X137708224Y-74397401D01*
X137705473Y-74401628D01*
X137702901Y-74406064D01*
X137700512Y-74410706D01*
X137698311Y-74415555D01*
X137696303Y-74420609D01*
X137694493Y-74425868D01*
X137692886Y-74431330D01*
X137691485Y-74436994D01*
X137690298Y-74442861D01*
X137689327Y-74448929D01*
X137688578Y-74455196D01*
X137688055Y-74461663D01*
X137687764Y-74468329D01*
X137594378Y-74468329D01*
X137594817Y-74463651D01*
X137596819Y-74448830D01*
X137599345Y-74434691D01*
X137602374Y-74421224D01*
X137605885Y-74408416D01*
X137609857Y-74396255D01*
X137614267Y-74384730D01*
X137619096Y-74373828D01*
X137624321Y-74363538D01*
X137629922Y-74353848D01*
X137635877Y-74344746D01*
X137642165Y-74336220D01*
X137648764Y-74328259D01*
X137655654Y-74320850D01*
X137662813Y-74313982D01*
X137670219Y-74307643D01*
X137677852Y-74301821D01*
X137685691Y-74296505D01*
X137693713Y-74291681D01*
X137701898Y-74287339D01*
X137710224Y-74283467D01*
X137718671Y-74280053D01*
X137727216Y-74277085D01*
X137735839Y-74274551D01*
X137744518Y-74272439D01*
X137753232Y-74270738D01*
X137770681Y-74268520D01*
X137788015Y-74267801D01*
X137797809Y-74268028D01*
G37*
D11*
X122374066Y-87293220D02*
X122374066Y-86531316D01*
X122755019Y-86912268D02*
X121993114Y-86912268D01*
X122755019Y-85531316D02*
X122755019Y-86102744D01*
X122755019Y-85817030D02*
X121755019Y-85817030D01*
X121755019Y-85817030D02*
X121897876Y-85912268D01*
X121897876Y-85912268D02*
X121993114Y-86007506D01*
X121993114Y-86007506D02*
X122040733Y-86102744D01*
X121850257Y-85150363D02*
X121802638Y-85102744D01*
X121802638Y-85102744D02*
X121755019Y-85007506D01*
X121755019Y-85007506D02*
X121755019Y-84769411D01*
X121755019Y-84769411D02*
X121802638Y-84674173D01*
X121802638Y-84674173D02*
X121850257Y-84626554D01*
X121850257Y-84626554D02*
X121945495Y-84578935D01*
X121945495Y-84578935D02*
X122040733Y-84578935D01*
X122040733Y-84578935D02*
X122183590Y-84626554D01*
X122183590Y-84626554D02*
X122755019Y-85197982D01*
X122755019Y-85197982D02*
X122755019Y-84578935D01*
X121755019Y-84293220D02*
X122755019Y-83959887D01*
X122755019Y-83959887D02*
X121755019Y-83626554D01*
X140443179Y-86915666D02*
X141205084Y-86915666D01*
D12*
X115362510Y-73562428D02*
X115362510Y-72062428D01*
X115362510Y-72062428D02*
X115933939Y-72062428D01*
X115933939Y-72062428D02*
X116076796Y-72133857D01*
X116076796Y-72133857D02*
X116148225Y-72205285D01*
X116148225Y-72205285D02*
X116219653Y-72348142D01*
X116219653Y-72348142D02*
X116219653Y-72562428D01*
X116219653Y-72562428D02*
X116148225Y-72705285D01*
X116148225Y-72705285D02*
X116076796Y-72776714D01*
X116076796Y-72776714D02*
X115933939Y-72848142D01*
X115933939Y-72848142D02*
X115362510Y-72848142D01*
X116862510Y-73562428D02*
X116862510Y-72562428D01*
X116862510Y-72062428D02*
X116791082Y-72133857D01*
X116791082Y-72133857D02*
X116862510Y-72205285D01*
X116862510Y-72205285D02*
X116933939Y-72133857D01*
X116933939Y-72133857D02*
X116862510Y-72062428D01*
X116862510Y-72062428D02*
X116862510Y-72205285D01*
X118219654Y-73491000D02*
X118076796Y-73562428D01*
X118076796Y-73562428D02*
X117791082Y-73562428D01*
X117791082Y-73562428D02*
X117648225Y-73491000D01*
X117648225Y-73491000D02*
X117576796Y-73419571D01*
X117576796Y-73419571D02*
X117505368Y-73276714D01*
X117505368Y-73276714D02*
X117505368Y-72848142D01*
X117505368Y-72848142D02*
X117576796Y-72705285D01*
X117576796Y-72705285D02*
X117648225Y-72633857D01*
X117648225Y-72633857D02*
X117791082Y-72562428D01*
X117791082Y-72562428D02*
X118076796Y-72562428D01*
X118076796Y-72562428D02*
X118219654Y-72633857D01*
X119076796Y-73562428D02*
X118933939Y-73491000D01*
X118933939Y-73491000D02*
X118862510Y-73419571D01*
X118862510Y-73419571D02*
X118791082Y-73276714D01*
X118791082Y-73276714D02*
X118791082Y-72848142D01*
X118791082Y-72848142D02*
X118862510Y-72705285D01*
X118862510Y-72705285D02*
X118933939Y-72633857D01*
X118933939Y-72633857D02*
X119076796Y-72562428D01*
X119076796Y-72562428D02*
X119291082Y-72562428D01*
X119291082Y-72562428D02*
X119433939Y-72633857D01*
X119433939Y-72633857D02*
X119505368Y-72705285D01*
X119505368Y-72705285D02*
X119576796Y-72848142D01*
X119576796Y-72848142D02*
X119576796Y-73276714D01*
X119576796Y-73276714D02*
X119505368Y-73419571D01*
X119505368Y-73419571D02*
X119433939Y-73491000D01*
X119433939Y-73491000D02*
X119291082Y-73562428D01*
X119291082Y-73562428D02*
X119076796Y-73562428D01*
X120219653Y-73562428D02*
X120219653Y-72062428D01*
X120219653Y-72062428D02*
X120576796Y-72062428D01*
X120576796Y-72062428D02*
X120791082Y-72133857D01*
X120791082Y-72133857D02*
X120933939Y-72276714D01*
X120933939Y-72276714D02*
X121005368Y-72419571D01*
X121005368Y-72419571D02*
X121076796Y-72705285D01*
X121076796Y-72705285D02*
X121076796Y-72919571D01*
X121076796Y-72919571D02*
X121005368Y-73205285D01*
X121005368Y-73205285D02*
X120933939Y-73348142D01*
X120933939Y-73348142D02*
X120791082Y-73491000D01*
X120791082Y-73491000D02*
X120576796Y-73562428D01*
X120576796Y-73562428D02*
X120219653Y-73562428D01*
X122362511Y-73562428D02*
X122362511Y-72776714D01*
X122362511Y-72776714D02*
X122291082Y-72633857D01*
X122291082Y-72633857D02*
X122148225Y-72562428D01*
X122148225Y-72562428D02*
X121862511Y-72562428D01*
X121862511Y-72562428D02*
X121719653Y-72633857D01*
X122362511Y-73491000D02*
X122219653Y-73562428D01*
X122219653Y-73562428D02*
X121862511Y-73562428D01*
X121862511Y-73562428D02*
X121719653Y-73491000D01*
X121719653Y-73491000D02*
X121648225Y-73348142D01*
X121648225Y-73348142D02*
X121648225Y-73205285D01*
X121648225Y-73205285D02*
X121719653Y-73062428D01*
X121719653Y-73062428D02*
X121862511Y-72991000D01*
X121862511Y-72991000D02*
X122219653Y-72991000D01*
X122219653Y-72991000D02*
X122362511Y-72919571D01*
X123076796Y-73562428D02*
X123076796Y-72562428D01*
X123076796Y-72062428D02*
X123005368Y-72133857D01*
X123005368Y-72133857D02*
X123076796Y-72205285D01*
X123076796Y-72205285D02*
X123148225Y-72133857D01*
X123148225Y-72133857D02*
X123076796Y-72062428D01*
X123076796Y-72062428D02*
X123076796Y-72205285D01*
X123719654Y-73491000D02*
X123862511Y-73562428D01*
X123862511Y-73562428D02*
X124148225Y-73562428D01*
X124148225Y-73562428D02*
X124291082Y-73491000D01*
X124291082Y-73491000D02*
X124362511Y-73348142D01*
X124362511Y-73348142D02*
X124362511Y-73276714D01*
X124362511Y-73276714D02*
X124291082Y-73133857D01*
X124291082Y-73133857D02*
X124148225Y-73062428D01*
X124148225Y-73062428D02*
X123933940Y-73062428D01*
X123933940Y-73062428D02*
X123791082Y-72991000D01*
X123791082Y-72991000D02*
X123719654Y-72848142D01*
X123719654Y-72848142D02*
X123719654Y-72776714D01*
X123719654Y-72776714D02*
X123791082Y-72633857D01*
X123791082Y-72633857D02*
X123933940Y-72562428D01*
X123933940Y-72562428D02*
X124148225Y-72562428D01*
X124148225Y-72562428D02*
X124291082Y-72633857D01*
X124862511Y-72562428D02*
X125219654Y-73562428D01*
X125576797Y-72562428D02*
X125219654Y-73562428D01*
X125219654Y-73562428D02*
X125076797Y-73919571D01*
X125076797Y-73919571D02*
X125005368Y-73991000D01*
X125005368Y-73991000D02*
X124862511Y-74062428D01*
X127719654Y-74133857D02*
X127648225Y-74062428D01*
X127648225Y-74062428D02*
X127505368Y-73848142D01*
X127505368Y-73848142D02*
X127433940Y-73705285D01*
X127433940Y-73705285D02*
X127362511Y-73491000D01*
X127362511Y-73491000D02*
X127291082Y-73133857D01*
X127291082Y-73133857D02*
X127291082Y-72848142D01*
X127291082Y-72848142D02*
X127362511Y-72491000D01*
X127362511Y-72491000D02*
X127433940Y-72276714D01*
X127433940Y-72276714D02*
X127505368Y-72133857D01*
X127505368Y-72133857D02*
X127648225Y-71919571D01*
X127648225Y-71919571D02*
X127719654Y-71848142D01*
X128148225Y-72562428D02*
X128505368Y-73562428D01*
X128505368Y-73562428D02*
X128862511Y-72562428D01*
X130219654Y-73562428D02*
X129362511Y-73562428D01*
X129791082Y-73562428D02*
X129791082Y-72062428D01*
X129791082Y-72062428D02*
X129648225Y-72276714D01*
X129648225Y-72276714D02*
X129505368Y-72419571D01*
X129505368Y-72419571D02*
X129362511Y-72491000D01*
X130862510Y-73419571D02*
X130933939Y-73491000D01*
X130933939Y-73491000D02*
X130862510Y-73562428D01*
X130862510Y-73562428D02*
X130791082Y-73491000D01*
X130791082Y-73491000D02*
X130862510Y-73419571D01*
X130862510Y-73419571D02*
X130862510Y-73562428D01*
X131505368Y-72205285D02*
X131576796Y-72133857D01*
X131576796Y-72133857D02*
X131719654Y-72062428D01*
X131719654Y-72062428D02*
X132076796Y-72062428D01*
X132076796Y-72062428D02*
X132219654Y-72133857D01*
X132219654Y-72133857D02*
X132291082Y-72205285D01*
X132291082Y-72205285D02*
X132362511Y-72348142D01*
X132362511Y-72348142D02*
X132362511Y-72491000D01*
X132362511Y-72491000D02*
X132291082Y-72705285D01*
X132291082Y-72705285D02*
X131433939Y-73562428D01*
X131433939Y-73562428D02*
X132362511Y-73562428D01*
X132862510Y-74133857D02*
X132933939Y-74062428D01*
X132933939Y-74062428D02*
X133076796Y-73848142D01*
X133076796Y-73848142D02*
X133148225Y-73705285D01*
X133148225Y-73705285D02*
X133219653Y-73491000D01*
X133219653Y-73491000D02*
X133291082Y-73133857D01*
X133291082Y-73133857D02*
X133291082Y-72848142D01*
X133291082Y-72848142D02*
X133219653Y-72491000D01*
X133219653Y-72491000D02*
X133148225Y-72276714D01*
X133148225Y-72276714D02*
X133076796Y-72133857D01*
X133076796Y-72133857D02*
X132933939Y-71919571D01*
X132933939Y-71919571D02*
X132862510Y-71848142D01*
D11*
X116922779Y-86915666D02*
X117684684Y-86915666D01*
D13*
X138775381Y-72196066D02*
X139118239Y-72196066D01*
X138946810Y-72796066D02*
X138946810Y-72196066D01*
X139318239Y-72796066D02*
X139318239Y-72196066D01*
X139575382Y-72796066D02*
X139575382Y-72481780D01*
X139575382Y-72481780D02*
X139546810Y-72424637D01*
X139546810Y-72424637D02*
X139489667Y-72396066D01*
X139489667Y-72396066D02*
X139403953Y-72396066D01*
X139403953Y-72396066D02*
X139346810Y-72424637D01*
X139346810Y-72424637D02*
X139318239Y-72453209D01*
X140089667Y-72767495D02*
X140032524Y-72796066D01*
X140032524Y-72796066D02*
X139918239Y-72796066D01*
X139918239Y-72796066D02*
X139861096Y-72767495D01*
X139861096Y-72767495D02*
X139832524Y-72710352D01*
X139832524Y-72710352D02*
X139832524Y-72481780D01*
X139832524Y-72481780D02*
X139861096Y-72424637D01*
X139861096Y-72424637D02*
X139918239Y-72396066D01*
X139918239Y-72396066D02*
X140032524Y-72396066D01*
X140032524Y-72396066D02*
X140089667Y-72424637D01*
X140089667Y-72424637D02*
X140118239Y-72481780D01*
X140118239Y-72481780D02*
X140118239Y-72538923D01*
X140118239Y-72538923D02*
X139832524Y-72596066D01*
X140746810Y-72196066D02*
X141089668Y-72196066D01*
X140918239Y-72796066D02*
X140918239Y-72196066D01*
X141261096Y-72624637D02*
X141546811Y-72624637D01*
X141203953Y-72796066D02*
X141403953Y-72196066D01*
X141403953Y-72196066D02*
X141603953Y-72796066D01*
X141803954Y-72796066D02*
X141803954Y-72196066D01*
X141803954Y-72196066D02*
X142032525Y-72196066D01*
X142032525Y-72196066D02*
X142089668Y-72224637D01*
X142089668Y-72224637D02*
X142118239Y-72253209D01*
X142118239Y-72253209D02*
X142146811Y-72310352D01*
X142146811Y-72310352D02*
X142146811Y-72396066D01*
X142146811Y-72396066D02*
X142118239Y-72453209D01*
X142118239Y-72453209D02*
X142089668Y-72481780D01*
X142089668Y-72481780D02*
X142032525Y-72510352D01*
X142032525Y-72510352D02*
X141803954Y-72510352D01*
X142746811Y-72796066D02*
X142546811Y-72510352D01*
X142403954Y-72796066D02*
X142403954Y-72196066D01*
X142403954Y-72196066D02*
X142632525Y-72196066D01*
X142632525Y-72196066D02*
X142689668Y-72224637D01*
X142689668Y-72224637D02*
X142718239Y-72253209D01*
X142718239Y-72253209D02*
X142746811Y-72310352D01*
X142746811Y-72310352D02*
X142746811Y-72396066D01*
X142746811Y-72396066D02*
X142718239Y-72453209D01*
X142718239Y-72453209D02*
X142689668Y-72481780D01*
X142689668Y-72481780D02*
X142632525Y-72510352D01*
X142632525Y-72510352D02*
X142403954Y-72510352D01*
X143575382Y-72196066D02*
X143689668Y-72196066D01*
X143689668Y-72196066D02*
X143746811Y-72224637D01*
X143746811Y-72224637D02*
X143803954Y-72281780D01*
X143803954Y-72281780D02*
X143832525Y-72396066D01*
X143832525Y-72396066D02*
X143832525Y-72596066D01*
X143832525Y-72596066D02*
X143803954Y-72710352D01*
X143803954Y-72710352D02*
X143746811Y-72767495D01*
X143746811Y-72767495D02*
X143689668Y-72796066D01*
X143689668Y-72796066D02*
X143575382Y-72796066D01*
X143575382Y-72796066D02*
X143518240Y-72767495D01*
X143518240Y-72767495D02*
X143461097Y-72710352D01*
X143461097Y-72710352D02*
X143432525Y-72596066D01*
X143432525Y-72596066D02*
X143432525Y-72396066D01*
X143432525Y-72396066D02*
X143461097Y-72281780D01*
X143461097Y-72281780D02*
X143518240Y-72224637D01*
X143518240Y-72224637D02*
X143575382Y-72196066D01*
X144089668Y-72396066D02*
X144089668Y-72996066D01*
X144089668Y-72424637D02*
X144146811Y-72396066D01*
X144146811Y-72396066D02*
X144261096Y-72396066D01*
X144261096Y-72396066D02*
X144318239Y-72424637D01*
X144318239Y-72424637D02*
X144346811Y-72453209D01*
X144346811Y-72453209D02*
X144375382Y-72510352D01*
X144375382Y-72510352D02*
X144375382Y-72681780D01*
X144375382Y-72681780D02*
X144346811Y-72738923D01*
X144346811Y-72738923D02*
X144318239Y-72767495D01*
X144318239Y-72767495D02*
X144261096Y-72796066D01*
X144261096Y-72796066D02*
X144146811Y-72796066D01*
X144146811Y-72796066D02*
X144089668Y-72767495D01*
X144861096Y-72767495D02*
X144803953Y-72796066D01*
X144803953Y-72796066D02*
X144689668Y-72796066D01*
X144689668Y-72796066D02*
X144632525Y-72767495D01*
X144632525Y-72767495D02*
X144603953Y-72710352D01*
X144603953Y-72710352D02*
X144603953Y-72481780D01*
X144603953Y-72481780D02*
X144632525Y-72424637D01*
X144632525Y-72424637D02*
X144689668Y-72396066D01*
X144689668Y-72396066D02*
X144803953Y-72396066D01*
X144803953Y-72396066D02*
X144861096Y-72424637D01*
X144861096Y-72424637D02*
X144889668Y-72481780D01*
X144889668Y-72481780D02*
X144889668Y-72538923D01*
X144889668Y-72538923D02*
X144603953Y-72596066D01*
X145146811Y-72396066D02*
X145146811Y-72796066D01*
X145146811Y-72453209D02*
X145175382Y-72424637D01*
X145175382Y-72424637D02*
X145232525Y-72396066D01*
X145232525Y-72396066D02*
X145318239Y-72396066D01*
X145318239Y-72396066D02*
X145375382Y-72424637D01*
X145375382Y-72424637D02*
X145403954Y-72481780D01*
X145403954Y-72481780D02*
X145403954Y-72796066D01*
X138861096Y-73762032D02*
X138861096Y-73162032D01*
X138861096Y-73447746D02*
X139203953Y-73447746D01*
X139203953Y-73762032D02*
X139203953Y-73162032D01*
X139746810Y-73762032D02*
X139746810Y-73447746D01*
X139746810Y-73447746D02*
X139718238Y-73390603D01*
X139718238Y-73390603D02*
X139661095Y-73362032D01*
X139661095Y-73362032D02*
X139546810Y-73362032D01*
X139546810Y-73362032D02*
X139489667Y-73390603D01*
X139746810Y-73733461D02*
X139689667Y-73762032D01*
X139689667Y-73762032D02*
X139546810Y-73762032D01*
X139546810Y-73762032D02*
X139489667Y-73733461D01*
X139489667Y-73733461D02*
X139461095Y-73676318D01*
X139461095Y-73676318D02*
X139461095Y-73619175D01*
X139461095Y-73619175D02*
X139489667Y-73562032D01*
X139489667Y-73562032D02*
X139546810Y-73533461D01*
X139546810Y-73533461D02*
X139689667Y-73533461D01*
X139689667Y-73533461D02*
X139746810Y-73504889D01*
X140032524Y-73762032D02*
X140032524Y-73362032D01*
X140032524Y-73476318D02*
X140061095Y-73419175D01*
X140061095Y-73419175D02*
X140089667Y-73390603D01*
X140089667Y-73390603D02*
X140146809Y-73362032D01*
X140146809Y-73362032D02*
X140203952Y-73362032D01*
X140661096Y-73762032D02*
X140661096Y-73162032D01*
X140661096Y-73733461D02*
X140603953Y-73762032D01*
X140603953Y-73762032D02*
X140489667Y-73762032D01*
X140489667Y-73762032D02*
X140432524Y-73733461D01*
X140432524Y-73733461D02*
X140403953Y-73704889D01*
X140403953Y-73704889D02*
X140375381Y-73647746D01*
X140375381Y-73647746D02*
X140375381Y-73476318D01*
X140375381Y-73476318D02*
X140403953Y-73419175D01*
X140403953Y-73419175D02*
X140432524Y-73390603D01*
X140432524Y-73390603D02*
X140489667Y-73362032D01*
X140489667Y-73362032D02*
X140603953Y-73362032D01*
X140603953Y-73362032D02*
X140661096Y-73390603D01*
X140889667Y-73362032D02*
X141003953Y-73762032D01*
X141003953Y-73762032D02*
X141118238Y-73476318D01*
X141118238Y-73476318D02*
X141232524Y-73762032D01*
X141232524Y-73762032D02*
X141346810Y-73362032D01*
X141832524Y-73762032D02*
X141832524Y-73447746D01*
X141832524Y-73447746D02*
X141803952Y-73390603D01*
X141803952Y-73390603D02*
X141746809Y-73362032D01*
X141746809Y-73362032D02*
X141632524Y-73362032D01*
X141632524Y-73362032D02*
X141575381Y-73390603D01*
X141832524Y-73733461D02*
X141775381Y-73762032D01*
X141775381Y-73762032D02*
X141632524Y-73762032D01*
X141632524Y-73762032D02*
X141575381Y-73733461D01*
X141575381Y-73733461D02*
X141546809Y-73676318D01*
X141546809Y-73676318D02*
X141546809Y-73619175D01*
X141546809Y-73619175D02*
X141575381Y-73562032D01*
X141575381Y-73562032D02*
X141632524Y-73533461D01*
X141632524Y-73533461D02*
X141775381Y-73533461D01*
X141775381Y-73533461D02*
X141832524Y-73504889D01*
X142118238Y-73762032D02*
X142118238Y-73362032D01*
X142118238Y-73476318D02*
X142146809Y-73419175D01*
X142146809Y-73419175D02*
X142175381Y-73390603D01*
X142175381Y-73390603D02*
X142232523Y-73362032D01*
X142232523Y-73362032D02*
X142289666Y-73362032D01*
X142718238Y-73733461D02*
X142661095Y-73762032D01*
X142661095Y-73762032D02*
X142546810Y-73762032D01*
X142546810Y-73762032D02*
X142489667Y-73733461D01*
X142489667Y-73733461D02*
X142461095Y-73676318D01*
X142461095Y-73676318D02*
X142461095Y-73447746D01*
X142461095Y-73447746D02*
X142489667Y-73390603D01*
X142489667Y-73390603D02*
X142546810Y-73362032D01*
X142546810Y-73362032D02*
X142661095Y-73362032D01*
X142661095Y-73362032D02*
X142718238Y-73390603D01*
X142718238Y-73390603D02*
X142746810Y-73447746D01*
X142746810Y-73447746D02*
X142746810Y-73504889D01*
X142746810Y-73504889D02*
X142461095Y-73562032D01*
X143746810Y-73762032D02*
X143461096Y-73762032D01*
X143461096Y-73762032D02*
X143461096Y-73162032D01*
X143946810Y-73762032D02*
X143946810Y-73362032D01*
X143946810Y-73162032D02*
X143918238Y-73190603D01*
X143918238Y-73190603D02*
X143946810Y-73219175D01*
X143946810Y-73219175D02*
X143975381Y-73190603D01*
X143975381Y-73190603D02*
X143946810Y-73162032D01*
X143946810Y-73162032D02*
X143946810Y-73219175D01*
X144489667Y-73733461D02*
X144432524Y-73762032D01*
X144432524Y-73762032D02*
X144318238Y-73762032D01*
X144318238Y-73762032D02*
X144261095Y-73733461D01*
X144261095Y-73733461D02*
X144232524Y-73704889D01*
X144232524Y-73704889D02*
X144203952Y-73647746D01*
X144203952Y-73647746D02*
X144203952Y-73476318D01*
X144203952Y-73476318D02*
X144232524Y-73419175D01*
X144232524Y-73419175D02*
X144261095Y-73390603D01*
X144261095Y-73390603D02*
X144318238Y-73362032D01*
X144318238Y-73362032D02*
X144432524Y-73362032D01*
X144432524Y-73362032D02*
X144489667Y-73390603D01*
X144975381Y-73733461D02*
X144918238Y-73762032D01*
X144918238Y-73762032D02*
X144803953Y-73762032D01*
X144803953Y-73762032D02*
X144746810Y-73733461D01*
X144746810Y-73733461D02*
X144718238Y-73676318D01*
X144718238Y-73676318D02*
X144718238Y-73447746D01*
X144718238Y-73447746D02*
X144746810Y-73390603D01*
X144746810Y-73390603D02*
X144803953Y-73362032D01*
X144803953Y-73362032D02*
X144918238Y-73362032D01*
X144918238Y-73362032D02*
X144975381Y-73390603D01*
X144975381Y-73390603D02*
X145003953Y-73447746D01*
X145003953Y-73447746D02*
X145003953Y-73504889D01*
X145003953Y-73504889D02*
X144718238Y-73562032D01*
X145261096Y-73362032D02*
X145261096Y-73762032D01*
X145261096Y-73419175D02*
X145289667Y-73390603D01*
X145289667Y-73390603D02*
X145346810Y-73362032D01*
X145346810Y-73362032D02*
X145432524Y-73362032D01*
X145432524Y-73362032D02*
X145489667Y-73390603D01*
X145489667Y-73390603D02*
X145518239Y-73447746D01*
X145518239Y-73447746D02*
X145518239Y-73762032D01*
X145775381Y-73733461D02*
X145832524Y-73762032D01*
X145832524Y-73762032D02*
X145946810Y-73762032D01*
X145946810Y-73762032D02*
X146003953Y-73733461D01*
X146003953Y-73733461D02*
X146032524Y-73676318D01*
X146032524Y-73676318D02*
X146032524Y-73647746D01*
X146032524Y-73647746D02*
X146003953Y-73590603D01*
X146003953Y-73590603D02*
X145946810Y-73562032D01*
X145946810Y-73562032D02*
X145861096Y-73562032D01*
X145861096Y-73562032D02*
X145803953Y-73533461D01*
X145803953Y-73533461D02*
X145775381Y-73476318D01*
X145775381Y-73476318D02*
X145775381Y-73447746D01*
X145775381Y-73447746D02*
X145803953Y-73390603D01*
X145803953Y-73390603D02*
X145861096Y-73362032D01*
X145861096Y-73362032D02*
X145946810Y-73362032D01*
X145946810Y-73362032D02*
X146003953Y-73390603D01*
X146518238Y-73733461D02*
X146461095Y-73762032D01*
X146461095Y-73762032D02*
X146346810Y-73762032D01*
X146346810Y-73762032D02*
X146289667Y-73733461D01*
X146289667Y-73733461D02*
X146261095Y-73676318D01*
X146261095Y-73676318D02*
X146261095Y-73447746D01*
X146261095Y-73447746D02*
X146289667Y-73390603D01*
X146289667Y-73390603D02*
X146346810Y-73362032D01*
X146346810Y-73362032D02*
X146461095Y-73362032D01*
X146461095Y-73362032D02*
X146518238Y-73390603D01*
X146518238Y-73390603D02*
X146546810Y-73447746D01*
X146546810Y-73447746D02*
X146546810Y-73504889D01*
X146546810Y-73504889D02*
X146261095Y-73562032D01*
X138861096Y-74727998D02*
X138861096Y-74127998D01*
X139118239Y-74727998D02*
X139118239Y-74413712D01*
X139118239Y-74413712D02*
X139089667Y-74356569D01*
X139089667Y-74356569D02*
X139032524Y-74327998D01*
X139032524Y-74327998D02*
X138946810Y-74327998D01*
X138946810Y-74327998D02*
X138889667Y-74356569D01*
X138889667Y-74356569D02*
X138861096Y-74385141D01*
X139318238Y-74327998D02*
X139546810Y-74327998D01*
X139403953Y-74127998D02*
X139403953Y-74642284D01*
X139403953Y-74642284D02*
X139432524Y-74699427D01*
X139432524Y-74699427D02*
X139489667Y-74727998D01*
X139489667Y-74727998D02*
X139546810Y-74727998D01*
X139661095Y-74327998D02*
X139889667Y-74327998D01*
X139746810Y-74127998D02*
X139746810Y-74642284D01*
X139746810Y-74642284D02*
X139775381Y-74699427D01*
X139775381Y-74699427D02*
X139832524Y-74727998D01*
X139832524Y-74727998D02*
X139889667Y-74727998D01*
X140089667Y-74327998D02*
X140089667Y-74927998D01*
X140089667Y-74356569D02*
X140146810Y-74327998D01*
X140146810Y-74327998D02*
X140261095Y-74327998D01*
X140261095Y-74327998D02*
X140318238Y-74356569D01*
X140318238Y-74356569D02*
X140346810Y-74385141D01*
X140346810Y-74385141D02*
X140375381Y-74442284D01*
X140375381Y-74442284D02*
X140375381Y-74613712D01*
X140375381Y-74613712D02*
X140346810Y-74670855D01*
X140346810Y-74670855D02*
X140318238Y-74699427D01*
X140318238Y-74699427D02*
X140261095Y-74727998D01*
X140261095Y-74727998D02*
X140146810Y-74727998D01*
X140146810Y-74727998D02*
X140089667Y-74699427D01*
X140632524Y-74670855D02*
X140661095Y-74699427D01*
X140661095Y-74699427D02*
X140632524Y-74727998D01*
X140632524Y-74727998D02*
X140603952Y-74699427D01*
X140603952Y-74699427D02*
X140632524Y-74670855D01*
X140632524Y-74670855D02*
X140632524Y-74727998D01*
X140632524Y-74356569D02*
X140661095Y-74385141D01*
X140661095Y-74385141D02*
X140632524Y-74413712D01*
X140632524Y-74413712D02*
X140603952Y-74385141D01*
X140603952Y-74385141D02*
X140632524Y-74356569D01*
X140632524Y-74356569D02*
X140632524Y-74413712D01*
X141346809Y-74099427D02*
X140832523Y-74870855D01*
X141975380Y-74099427D02*
X141461094Y-74870855D01*
X142118237Y-74327998D02*
X142232523Y-74727998D01*
X142232523Y-74727998D02*
X142346808Y-74442284D01*
X142346808Y-74442284D02*
X142461094Y-74727998D01*
X142461094Y-74727998D02*
X142575380Y-74327998D01*
X142746808Y-74327998D02*
X142861094Y-74727998D01*
X142861094Y-74727998D02*
X142975379Y-74442284D01*
X142975379Y-74442284D02*
X143089665Y-74727998D01*
X143089665Y-74727998D02*
X143203951Y-74327998D01*
X143375379Y-74327998D02*
X143489665Y-74727998D01*
X143489665Y-74727998D02*
X143603950Y-74442284D01*
X143603950Y-74442284D02*
X143718236Y-74727998D01*
X143718236Y-74727998D02*
X143832522Y-74327998D01*
X144061093Y-74670855D02*
X144089664Y-74699427D01*
X144089664Y-74699427D02*
X144061093Y-74727998D01*
X144061093Y-74727998D02*
X144032521Y-74699427D01*
X144032521Y-74699427D02*
X144061093Y-74670855D01*
X144061093Y-74670855D02*
X144061093Y-74727998D01*
X144261092Y-74327998D02*
X144489664Y-74327998D01*
X144346807Y-74127998D02*
X144346807Y-74642284D01*
X144346807Y-74642284D02*
X144375378Y-74699427D01*
X144375378Y-74699427D02*
X144432521Y-74727998D01*
X144432521Y-74727998D02*
X144489664Y-74727998D01*
X144946807Y-74727998D02*
X144946807Y-74413712D01*
X144946807Y-74413712D02*
X144918235Y-74356569D01*
X144918235Y-74356569D02*
X144861092Y-74327998D01*
X144861092Y-74327998D02*
X144746807Y-74327998D01*
X144746807Y-74327998D02*
X144689664Y-74356569D01*
X144946807Y-74699427D02*
X144889664Y-74727998D01*
X144889664Y-74727998D02*
X144746807Y-74727998D01*
X144746807Y-74727998D02*
X144689664Y-74699427D01*
X144689664Y-74699427D02*
X144661092Y-74642284D01*
X144661092Y-74642284D02*
X144661092Y-74585141D01*
X144661092Y-74585141D02*
X144689664Y-74527998D01*
X144689664Y-74527998D02*
X144746807Y-74499427D01*
X144746807Y-74499427D02*
X144889664Y-74499427D01*
X144889664Y-74499427D02*
X144946807Y-74470855D01*
X145232521Y-74327998D02*
X145232521Y-74927998D01*
X145232521Y-74356569D02*
X145289664Y-74327998D01*
X145289664Y-74327998D02*
X145403949Y-74327998D01*
X145403949Y-74327998D02*
X145461092Y-74356569D01*
X145461092Y-74356569D02*
X145489664Y-74385141D01*
X145489664Y-74385141D02*
X145518235Y-74442284D01*
X145518235Y-74442284D02*
X145518235Y-74613712D01*
X145518235Y-74613712D02*
X145489664Y-74670855D01*
X145489664Y-74670855D02*
X145461092Y-74699427D01*
X145461092Y-74699427D02*
X145403949Y-74727998D01*
X145403949Y-74727998D02*
X145289664Y-74727998D01*
X145289664Y-74727998D02*
X145232521Y-74699427D01*
X145775378Y-74727998D02*
X145775378Y-74327998D01*
X145775378Y-74442284D02*
X145803949Y-74385141D01*
X145803949Y-74385141D02*
X145832521Y-74356569D01*
X145832521Y-74356569D02*
X145889663Y-74327998D01*
X145889663Y-74327998D02*
X145946806Y-74327998D01*
X146146807Y-74670855D02*
X146175378Y-74699427D01*
X146175378Y-74699427D02*
X146146807Y-74727998D01*
X146146807Y-74727998D02*
X146118235Y-74699427D01*
X146118235Y-74699427D02*
X146146807Y-74670855D01*
X146146807Y-74670855D02*
X146146807Y-74727998D01*
X146518235Y-74727998D02*
X146461092Y-74699427D01*
X146461092Y-74699427D02*
X146432521Y-74670855D01*
X146432521Y-74670855D02*
X146403949Y-74613712D01*
X146403949Y-74613712D02*
X146403949Y-74442284D01*
X146403949Y-74442284D02*
X146432521Y-74385141D01*
X146432521Y-74385141D02*
X146461092Y-74356569D01*
X146461092Y-74356569D02*
X146518235Y-74327998D01*
X146518235Y-74327998D02*
X146603949Y-74327998D01*
X146603949Y-74327998D02*
X146661092Y-74356569D01*
X146661092Y-74356569D02*
X146689664Y-74385141D01*
X146689664Y-74385141D02*
X146718235Y-74442284D01*
X146718235Y-74442284D02*
X146718235Y-74613712D01*
X146718235Y-74613712D02*
X146689664Y-74670855D01*
X146689664Y-74670855D02*
X146661092Y-74699427D01*
X146661092Y-74699427D02*
X146603949Y-74727998D01*
X146603949Y-74727998D02*
X146518235Y-74727998D01*
X146975378Y-74727998D02*
X146975378Y-74327998D01*
X146975378Y-74442284D02*
X147003949Y-74385141D01*
X147003949Y-74385141D02*
X147032521Y-74356569D01*
X147032521Y-74356569D02*
X147089663Y-74327998D01*
X147089663Y-74327998D02*
X147146806Y-74327998D01*
X147603950Y-74327998D02*
X147603950Y-74813712D01*
X147603950Y-74813712D02*
X147575378Y-74870855D01*
X147575378Y-74870855D02*
X147546807Y-74899427D01*
X147546807Y-74899427D02*
X147489664Y-74927998D01*
X147489664Y-74927998D02*
X147403950Y-74927998D01*
X147403950Y-74927998D02*
X147346807Y-74899427D01*
X147603950Y-74699427D02*
X147546807Y-74727998D01*
X147546807Y-74727998D02*
X147432521Y-74727998D01*
X147432521Y-74727998D02*
X147375378Y-74699427D01*
X147375378Y-74699427D02*
X147346807Y-74670855D01*
X147346807Y-74670855D02*
X147318235Y-74613712D01*
X147318235Y-74613712D02*
X147318235Y-74442284D01*
X147318235Y-74442284D02*
X147346807Y-74385141D01*
X147346807Y-74385141D02*
X147375378Y-74356569D01*
X147375378Y-74356569D02*
X147432521Y-74327998D01*
X147432521Y-74327998D02*
X147546807Y-74327998D01*
X147546807Y-74327998D02*
X147603950Y-74356569D01*
X148318235Y-74099427D02*
X147803949Y-74870855D01*
X148632520Y-74127998D02*
X148746806Y-74127998D01*
X148746806Y-74127998D02*
X148803949Y-74156569D01*
X148803949Y-74156569D02*
X148861092Y-74213712D01*
X148861092Y-74213712D02*
X148889663Y-74327998D01*
X148889663Y-74327998D02*
X148889663Y-74527998D01*
X148889663Y-74527998D02*
X148861092Y-74642284D01*
X148861092Y-74642284D02*
X148803949Y-74699427D01*
X148803949Y-74699427D02*
X148746806Y-74727998D01*
X148746806Y-74727998D02*
X148632520Y-74727998D01*
X148632520Y-74727998D02*
X148575378Y-74699427D01*
X148575378Y-74699427D02*
X148518235Y-74642284D01*
X148518235Y-74642284D02*
X148489663Y-74527998D01*
X148489663Y-74527998D02*
X148489663Y-74327998D01*
X148489663Y-74327998D02*
X148518235Y-74213712D01*
X148518235Y-74213712D02*
X148575378Y-74156569D01*
X148575378Y-74156569D02*
X148632520Y-74127998D01*
X149146806Y-74727998D02*
X149146806Y-74127998D01*
X149146806Y-74413712D02*
X149489663Y-74413712D01*
X149489663Y-74727998D02*
X149489663Y-74127998D01*
X150061091Y-74727998D02*
X149775377Y-74727998D01*
X149775377Y-74727998D02*
X149775377Y-74127998D01*
D11*
X145894466Y-87309104D02*
X145894466Y-86547200D01*
X146275419Y-86928152D02*
X145513514Y-86928152D01*
X145370657Y-86118628D02*
X145323038Y-86071009D01*
X145323038Y-86071009D02*
X145275419Y-85975771D01*
X145275419Y-85975771D02*
X145275419Y-85737676D01*
X145275419Y-85737676D02*
X145323038Y-85642438D01*
X145323038Y-85642438D02*
X145370657Y-85594819D01*
X145370657Y-85594819D02*
X145465895Y-85547200D01*
X145465895Y-85547200D02*
X145561133Y-85547200D01*
X145561133Y-85547200D02*
X145703990Y-85594819D01*
X145703990Y-85594819D02*
X146275419Y-86166247D01*
X146275419Y-86166247D02*
X146275419Y-85547200D01*
X145608752Y-84690057D02*
X146275419Y-84690057D01*
X145227800Y-84928152D02*
X145942085Y-85166247D01*
X145942085Y-85166247D02*
X145942085Y-84547200D01*
X145275419Y-84309104D02*
X146275419Y-83975771D01*
X146275419Y-83975771D02*
X145275419Y-83642438D01*
X115299541Y-73928014D02*
X115299541Y-74463728D01*
X115299541Y-74463728D02*
X115263826Y-74570871D01*
X115263826Y-74570871D02*
X115192398Y-74642300D01*
X115192398Y-74642300D02*
X115085255Y-74678014D01*
X115085255Y-74678014D02*
X115013826Y-74678014D01*
X115978113Y-74678014D02*
X115978113Y-74285157D01*
X115978113Y-74285157D02*
X115942398Y-74213728D01*
X115942398Y-74213728D02*
X115870970Y-74178014D01*
X115870970Y-74178014D02*
X115728113Y-74178014D01*
X115728113Y-74178014D02*
X115656684Y-74213728D01*
X115978113Y-74642300D02*
X115906684Y-74678014D01*
X115906684Y-74678014D02*
X115728113Y-74678014D01*
X115728113Y-74678014D02*
X115656684Y-74642300D01*
X115656684Y-74642300D02*
X115620970Y-74570871D01*
X115620970Y-74570871D02*
X115620970Y-74499442D01*
X115620970Y-74499442D02*
X115656684Y-74428014D01*
X115656684Y-74428014D02*
X115728113Y-74392300D01*
X115728113Y-74392300D02*
X115906684Y-74392300D01*
X115906684Y-74392300D02*
X115978113Y-74356585D01*
X116299541Y-74642300D02*
X116370969Y-74678014D01*
X116370969Y-74678014D02*
X116513826Y-74678014D01*
X116513826Y-74678014D02*
X116585255Y-74642300D01*
X116585255Y-74642300D02*
X116620969Y-74570871D01*
X116620969Y-74570871D02*
X116620969Y-74535157D01*
X116620969Y-74535157D02*
X116585255Y-74463728D01*
X116585255Y-74463728D02*
X116513826Y-74428014D01*
X116513826Y-74428014D02*
X116406684Y-74428014D01*
X116406684Y-74428014D02*
X116335255Y-74392300D01*
X116335255Y-74392300D02*
X116299541Y-74320871D01*
X116299541Y-74320871D02*
X116299541Y-74285157D01*
X116299541Y-74285157D02*
X116335255Y-74213728D01*
X116335255Y-74213728D02*
X116406684Y-74178014D01*
X116406684Y-74178014D02*
X116513826Y-74178014D01*
X116513826Y-74178014D02*
X116585255Y-74213728D01*
X117049541Y-74678014D02*
X116978112Y-74642300D01*
X116978112Y-74642300D02*
X116942398Y-74606585D01*
X116942398Y-74606585D02*
X116906684Y-74535157D01*
X116906684Y-74535157D02*
X116906684Y-74320871D01*
X116906684Y-74320871D02*
X116942398Y-74249442D01*
X116942398Y-74249442D02*
X116978112Y-74213728D01*
X116978112Y-74213728D02*
X117049541Y-74178014D01*
X117049541Y-74178014D02*
X117156684Y-74178014D01*
X117156684Y-74178014D02*
X117228112Y-74213728D01*
X117228112Y-74213728D02*
X117263827Y-74249442D01*
X117263827Y-74249442D02*
X117299541Y-74320871D01*
X117299541Y-74320871D02*
X117299541Y-74535157D01*
X117299541Y-74535157D02*
X117263827Y-74606585D01*
X117263827Y-74606585D02*
X117228112Y-74642300D01*
X117228112Y-74642300D02*
X117156684Y-74678014D01*
X117156684Y-74678014D02*
X117049541Y-74678014D01*
X117620969Y-74178014D02*
X117620969Y-74678014D01*
X117620969Y-74249442D02*
X117656683Y-74213728D01*
X117656683Y-74213728D02*
X117728112Y-74178014D01*
X117728112Y-74178014D02*
X117835255Y-74178014D01*
X117835255Y-74178014D02*
X117906683Y-74213728D01*
X117906683Y-74213728D02*
X117942398Y-74285157D01*
X117942398Y-74285157D02*
X117942398Y-74678014D01*
X118835255Y-74463728D02*
X119192398Y-74463728D01*
X118763826Y-74678014D02*
X119013826Y-73928014D01*
X119013826Y-73928014D02*
X119263826Y-74678014D01*
X119620969Y-74678014D02*
X119549540Y-74642300D01*
X119549540Y-74642300D02*
X119513826Y-74570871D01*
X119513826Y-74570871D02*
X119513826Y-73928014D01*
X120192397Y-74642300D02*
X120120969Y-74678014D01*
X120120969Y-74678014D02*
X119978112Y-74678014D01*
X119978112Y-74678014D02*
X119906683Y-74642300D01*
X119906683Y-74642300D02*
X119870969Y-74570871D01*
X119870969Y-74570871D02*
X119870969Y-74285157D01*
X119870969Y-74285157D02*
X119906683Y-74213728D01*
X119906683Y-74213728D02*
X119978112Y-74178014D01*
X119978112Y-74178014D02*
X120120969Y-74178014D01*
X120120969Y-74178014D02*
X120192397Y-74213728D01*
X120192397Y-74213728D02*
X120228112Y-74285157D01*
X120228112Y-74285157D02*
X120228112Y-74356585D01*
X120228112Y-74356585D02*
X119870969Y-74428014D01*
X120478111Y-74678014D02*
X120870969Y-74178014D01*
X120478111Y-74178014D02*
X120870969Y-74678014D01*
X121478112Y-74678014D02*
X121478112Y-74285157D01*
X121478112Y-74285157D02*
X121442397Y-74213728D01*
X121442397Y-74213728D02*
X121370969Y-74178014D01*
X121370969Y-74178014D02*
X121228112Y-74178014D01*
X121228112Y-74178014D02*
X121156683Y-74213728D01*
X121478112Y-74642300D02*
X121406683Y-74678014D01*
X121406683Y-74678014D02*
X121228112Y-74678014D01*
X121228112Y-74678014D02*
X121156683Y-74642300D01*
X121156683Y-74642300D02*
X121120969Y-74570871D01*
X121120969Y-74570871D02*
X121120969Y-74499442D01*
X121120969Y-74499442D02*
X121156683Y-74428014D01*
X121156683Y-74428014D02*
X121228112Y-74392300D01*
X121228112Y-74392300D02*
X121406683Y-74392300D01*
X121406683Y-74392300D02*
X121478112Y-74356585D01*
X121835254Y-74178014D02*
X121835254Y-74678014D01*
X121835254Y-74249442D02*
X121870968Y-74213728D01*
X121870968Y-74213728D02*
X121942397Y-74178014D01*
X121942397Y-74178014D02*
X122049540Y-74178014D01*
X122049540Y-74178014D02*
X122120968Y-74213728D01*
X122120968Y-74213728D02*
X122156683Y-74285157D01*
X122156683Y-74285157D02*
X122156683Y-74678014D01*
X122835254Y-74678014D02*
X122835254Y-73928014D01*
X122835254Y-74642300D02*
X122763825Y-74678014D01*
X122763825Y-74678014D02*
X122620968Y-74678014D01*
X122620968Y-74678014D02*
X122549539Y-74642300D01*
X122549539Y-74642300D02*
X122513825Y-74606585D01*
X122513825Y-74606585D02*
X122478111Y-74535157D01*
X122478111Y-74535157D02*
X122478111Y-74320871D01*
X122478111Y-74320871D02*
X122513825Y-74249442D01*
X122513825Y-74249442D02*
X122549539Y-74213728D01*
X122549539Y-74213728D02*
X122620968Y-74178014D01*
X122620968Y-74178014D02*
X122763825Y-74178014D01*
X122763825Y-74178014D02*
X122835254Y-74213728D01*
X123478110Y-74642300D02*
X123406682Y-74678014D01*
X123406682Y-74678014D02*
X123263825Y-74678014D01*
X123263825Y-74678014D02*
X123192396Y-74642300D01*
X123192396Y-74642300D02*
X123156682Y-74570871D01*
X123156682Y-74570871D02*
X123156682Y-74285157D01*
X123156682Y-74285157D02*
X123192396Y-74213728D01*
X123192396Y-74213728D02*
X123263825Y-74178014D01*
X123263825Y-74178014D02*
X123406682Y-74178014D01*
X123406682Y-74178014D02*
X123478110Y-74213728D01*
X123478110Y-74213728D02*
X123513825Y-74285157D01*
X123513825Y-74285157D02*
X123513825Y-74356585D01*
X123513825Y-74356585D02*
X123156682Y-74428014D01*
X123835253Y-74678014D02*
X123835253Y-74178014D01*
X123835253Y-74320871D02*
X123870967Y-74249442D01*
X123870967Y-74249442D02*
X123906682Y-74213728D01*
X123906682Y-74213728D02*
X123978110Y-74178014D01*
X123978110Y-74178014D02*
X124049539Y-74178014D01*
X140069219Y-64973104D02*
X140878742Y-64973104D01*
X140878742Y-64973104D02*
X140973980Y-64925485D01*
X140973980Y-64925485D02*
X141021600Y-64877866D01*
X141021600Y-64877866D02*
X141069219Y-64782628D01*
X141069219Y-64782628D02*
X141069219Y-64592152D01*
X141069219Y-64592152D02*
X141021600Y-64496914D01*
X141021600Y-64496914D02*
X140973980Y-64449295D01*
X140973980Y-64449295D02*
X140878742Y-64401676D01*
X140878742Y-64401676D02*
X140069219Y-64401676D01*
X140164457Y-63973104D02*
X140116838Y-63925485D01*
X140116838Y-63925485D02*
X140069219Y-63830247D01*
X140069219Y-63830247D02*
X140069219Y-63592152D01*
X140069219Y-63592152D02*
X140116838Y-63496914D01*
X140116838Y-63496914D02*
X140164457Y-63449295D01*
X140164457Y-63449295D02*
X140259695Y-63401676D01*
X140259695Y-63401676D02*
X140354933Y-63401676D01*
X140354933Y-63401676D02*
X140497790Y-63449295D01*
X140497790Y-63449295D02*
X141069219Y-64020723D01*
X141069219Y-64020723D02*
X141069219Y-63401676D01*
X159349642Y-89947819D02*
X159016309Y-89471628D01*
X158778214Y-89947819D02*
X158778214Y-88947819D01*
X158778214Y-88947819D02*
X159159166Y-88947819D01*
X159159166Y-88947819D02*
X159254404Y-88995438D01*
X159254404Y-88995438D02*
X159302023Y-89043057D01*
X159302023Y-89043057D02*
X159349642Y-89138295D01*
X159349642Y-89138295D02*
X159349642Y-89281152D01*
X159349642Y-89281152D02*
X159302023Y-89376390D01*
X159302023Y-89376390D02*
X159254404Y-89424009D01*
X159254404Y-89424009D02*
X159159166Y-89471628D01*
X159159166Y-89471628D02*
X158778214Y-89471628D01*
X160302023Y-89947819D02*
X159730595Y-89947819D01*
X160016309Y-89947819D02*
X160016309Y-88947819D01*
X160016309Y-88947819D02*
X159921071Y-89090676D01*
X159921071Y-89090676D02*
X159825833Y-89185914D01*
X159825833Y-89185914D02*
X159730595Y-89233533D01*
X160921071Y-88947819D02*
X161016309Y-88947819D01*
X161016309Y-88947819D02*
X161111547Y-88995438D01*
X161111547Y-88995438D02*
X161159166Y-89043057D01*
X161159166Y-89043057D02*
X161206785Y-89138295D01*
X161206785Y-89138295D02*
X161254404Y-89328771D01*
X161254404Y-89328771D02*
X161254404Y-89566866D01*
X161254404Y-89566866D02*
X161206785Y-89757342D01*
X161206785Y-89757342D02*
X161159166Y-89852580D01*
X161159166Y-89852580D02*
X161111547Y-89900200D01*
X161111547Y-89900200D02*
X161016309Y-89947819D01*
X161016309Y-89947819D02*
X160921071Y-89947819D01*
X160921071Y-89947819D02*
X160825833Y-89900200D01*
X160825833Y-89900200D02*
X160778214Y-89852580D01*
X160778214Y-89852580D02*
X160730595Y-89757342D01*
X160730595Y-89757342D02*
X160682976Y-89566866D01*
X160682976Y-89566866D02*
X160682976Y-89328771D01*
X160682976Y-89328771D02*
X160730595Y-89138295D01*
X160730595Y-89138295D02*
X160778214Y-89043057D01*
X160778214Y-89043057D02*
X160825833Y-88995438D01*
X160825833Y-88995438D02*
X160921071Y-88947819D01*
X159444833Y-96297819D02*
X159111500Y-95821628D01*
X158873405Y-96297819D02*
X158873405Y-95297819D01*
X158873405Y-95297819D02*
X159254357Y-95297819D01*
X159254357Y-95297819D02*
X159349595Y-95345438D01*
X159349595Y-95345438D02*
X159397214Y-95393057D01*
X159397214Y-95393057D02*
X159444833Y-95488295D01*
X159444833Y-95488295D02*
X159444833Y-95631152D01*
X159444833Y-95631152D02*
X159397214Y-95726390D01*
X159397214Y-95726390D02*
X159349595Y-95774009D01*
X159349595Y-95774009D02*
X159254357Y-95821628D01*
X159254357Y-95821628D02*
X158873405Y-95821628D01*
X159921024Y-96297819D02*
X160111500Y-96297819D01*
X160111500Y-96297819D02*
X160206738Y-96250200D01*
X160206738Y-96250200D02*
X160254357Y-96202580D01*
X160254357Y-96202580D02*
X160349595Y-96059723D01*
X160349595Y-96059723D02*
X160397214Y-95869247D01*
X160397214Y-95869247D02*
X160397214Y-95488295D01*
X160397214Y-95488295D02*
X160349595Y-95393057D01*
X160349595Y-95393057D02*
X160301976Y-95345438D01*
X160301976Y-95345438D02*
X160206738Y-95297819D01*
X160206738Y-95297819D02*
X160016262Y-95297819D01*
X160016262Y-95297819D02*
X159921024Y-95345438D01*
X159921024Y-95345438D02*
X159873405Y-95393057D01*
X159873405Y-95393057D02*
X159825786Y-95488295D01*
X159825786Y-95488295D02*
X159825786Y-95726390D01*
X159825786Y-95726390D02*
X159873405Y-95821628D01*
X159873405Y-95821628D02*
X159921024Y-95869247D01*
X159921024Y-95869247D02*
X160016262Y-95916866D01*
X160016262Y-95916866D02*
X160206738Y-95916866D01*
X160206738Y-95916866D02*
X160301976Y-95869247D01*
X160301976Y-95869247D02*
X160349595Y-95821628D01*
X160349595Y-95821628D02*
X160397214Y-95726390D01*
X127392133Y-54760019D02*
X127058800Y-54283828D01*
X126820705Y-54760019D02*
X126820705Y-53760019D01*
X126820705Y-53760019D02*
X127201657Y-53760019D01*
X127201657Y-53760019D02*
X127296895Y-53807638D01*
X127296895Y-53807638D02*
X127344514Y-53855257D01*
X127344514Y-53855257D02*
X127392133Y-53950495D01*
X127392133Y-53950495D02*
X127392133Y-54093352D01*
X127392133Y-54093352D02*
X127344514Y-54188590D01*
X127344514Y-54188590D02*
X127296895Y-54236209D01*
X127296895Y-54236209D02*
X127201657Y-54283828D01*
X127201657Y-54283828D02*
X126820705Y-54283828D01*
X128344514Y-54760019D02*
X127773086Y-54760019D01*
X128058800Y-54760019D02*
X128058800Y-53760019D01*
X128058800Y-53760019D02*
X127963562Y-53902876D01*
X127963562Y-53902876D02*
X127868324Y-53998114D01*
X127868324Y-53998114D02*
X127773086Y-54045733D01*
X102437586Y-87657991D02*
X102437586Y-87991324D01*
X102961396Y-87991324D02*
X101961396Y-87991324D01*
X101961396Y-87991324D02*
X101961396Y-87515134D01*
X101961396Y-87229419D02*
X101961396Y-86610372D01*
X101961396Y-86610372D02*
X102342348Y-86943705D01*
X102342348Y-86943705D02*
X102342348Y-86800848D01*
X102342348Y-86800848D02*
X102389967Y-86705610D01*
X102389967Y-86705610D02*
X102437586Y-86657991D01*
X102437586Y-86657991D02*
X102532824Y-86610372D01*
X102532824Y-86610372D02*
X102770919Y-86610372D01*
X102770919Y-86610372D02*
X102866157Y-86657991D01*
X102866157Y-86657991D02*
X102913777Y-86705610D01*
X102913777Y-86705610D02*
X102961396Y-86800848D01*
X102961396Y-86800848D02*
X102961396Y-87086562D01*
X102961396Y-87086562D02*
X102913777Y-87181800D01*
X102913777Y-87181800D02*
X102866157Y-87229419D01*
X144834580Y-52541466D02*
X144882200Y-52589085D01*
X144882200Y-52589085D02*
X144929819Y-52731942D01*
X144929819Y-52731942D02*
X144929819Y-52827180D01*
X144929819Y-52827180D02*
X144882200Y-52970037D01*
X144882200Y-52970037D02*
X144786961Y-53065275D01*
X144786961Y-53065275D02*
X144691723Y-53112894D01*
X144691723Y-53112894D02*
X144501247Y-53160513D01*
X144501247Y-53160513D02*
X144358390Y-53160513D01*
X144358390Y-53160513D02*
X144167914Y-53112894D01*
X144167914Y-53112894D02*
X144072676Y-53065275D01*
X144072676Y-53065275D02*
X143977438Y-52970037D01*
X143977438Y-52970037D02*
X143929819Y-52827180D01*
X143929819Y-52827180D02*
X143929819Y-52731942D01*
X143929819Y-52731942D02*
X143977438Y-52589085D01*
X143977438Y-52589085D02*
X144025057Y-52541466D01*
X143929819Y-52208132D02*
X143929819Y-51589085D01*
X143929819Y-51589085D02*
X144310771Y-51922418D01*
X144310771Y-51922418D02*
X144310771Y-51779561D01*
X144310771Y-51779561D02*
X144358390Y-51684323D01*
X144358390Y-51684323D02*
X144406009Y-51636704D01*
X144406009Y-51636704D02*
X144501247Y-51589085D01*
X144501247Y-51589085D02*
X144739342Y-51589085D01*
X144739342Y-51589085D02*
X144834580Y-51636704D01*
X144834580Y-51636704D02*
X144882200Y-51684323D01*
X144882200Y-51684323D02*
X144929819Y-51779561D01*
X144929819Y-51779561D02*
X144929819Y-52065275D01*
X144929819Y-52065275D02*
X144882200Y-52160513D01*
X144882200Y-52160513D02*
X144834580Y-52208132D01*
X155399080Y-97755857D02*
X155446700Y-97803476D01*
X155446700Y-97803476D02*
X155494319Y-97946333D01*
X155494319Y-97946333D02*
X155494319Y-98041571D01*
X155494319Y-98041571D02*
X155446700Y-98184428D01*
X155446700Y-98184428D02*
X155351461Y-98279666D01*
X155351461Y-98279666D02*
X155256223Y-98327285D01*
X155256223Y-98327285D02*
X155065747Y-98374904D01*
X155065747Y-98374904D02*
X154922890Y-98374904D01*
X154922890Y-98374904D02*
X154732414Y-98327285D01*
X154732414Y-98327285D02*
X154637176Y-98279666D01*
X154637176Y-98279666D02*
X154541938Y-98184428D01*
X154541938Y-98184428D02*
X154494319Y-98041571D01*
X154494319Y-98041571D02*
X154494319Y-97946333D01*
X154494319Y-97946333D02*
X154541938Y-97803476D01*
X154541938Y-97803476D02*
X154589557Y-97755857D01*
X155494319Y-96803476D02*
X155494319Y-97374904D01*
X155494319Y-97089190D02*
X154494319Y-97089190D01*
X154494319Y-97089190D02*
X154637176Y-97184428D01*
X154637176Y-97184428D02*
X154732414Y-97279666D01*
X154732414Y-97279666D02*
X154780033Y-97374904D01*
X155494319Y-95851095D02*
X155494319Y-96422523D01*
X155494319Y-96136809D02*
X154494319Y-96136809D01*
X154494319Y-96136809D02*
X154637176Y-96232047D01*
X154637176Y-96232047D02*
X154732414Y-96327285D01*
X154732414Y-96327285D02*
X154780033Y-96422523D01*
X159349642Y-87915819D02*
X159016309Y-87439628D01*
X158778214Y-87915819D02*
X158778214Y-86915819D01*
X158778214Y-86915819D02*
X159159166Y-86915819D01*
X159159166Y-86915819D02*
X159254404Y-86963438D01*
X159254404Y-86963438D02*
X159302023Y-87011057D01*
X159302023Y-87011057D02*
X159349642Y-87106295D01*
X159349642Y-87106295D02*
X159349642Y-87249152D01*
X159349642Y-87249152D02*
X159302023Y-87344390D01*
X159302023Y-87344390D02*
X159254404Y-87392009D01*
X159254404Y-87392009D02*
X159159166Y-87439628D01*
X159159166Y-87439628D02*
X158778214Y-87439628D01*
X160302023Y-87915819D02*
X159730595Y-87915819D01*
X160016309Y-87915819D02*
X160016309Y-86915819D01*
X160016309Y-86915819D02*
X159921071Y-87058676D01*
X159921071Y-87058676D02*
X159825833Y-87153914D01*
X159825833Y-87153914D02*
X159730595Y-87201533D01*
X161254404Y-87915819D02*
X160682976Y-87915819D01*
X160968690Y-87915819D02*
X160968690Y-86915819D01*
X160968690Y-86915819D02*
X160873452Y-87058676D01*
X160873452Y-87058676D02*
X160778214Y-87153914D01*
X160778214Y-87153914D02*
X160682976Y-87201533D01*
X123861533Y-52829619D02*
X123528200Y-52353428D01*
X123290105Y-52829619D02*
X123290105Y-51829619D01*
X123290105Y-51829619D02*
X123671057Y-51829619D01*
X123671057Y-51829619D02*
X123766295Y-51877238D01*
X123766295Y-51877238D02*
X123813914Y-51924857D01*
X123813914Y-51924857D02*
X123861533Y-52020095D01*
X123861533Y-52020095D02*
X123861533Y-52162952D01*
X123861533Y-52162952D02*
X123813914Y-52258190D01*
X123813914Y-52258190D02*
X123766295Y-52305809D01*
X123766295Y-52305809D02*
X123671057Y-52353428D01*
X123671057Y-52353428D02*
X123290105Y-52353428D01*
X124194867Y-51829619D02*
X124813914Y-51829619D01*
X124813914Y-51829619D02*
X124480581Y-52210571D01*
X124480581Y-52210571D02*
X124623438Y-52210571D01*
X124623438Y-52210571D02*
X124718676Y-52258190D01*
X124718676Y-52258190D02*
X124766295Y-52305809D01*
X124766295Y-52305809D02*
X124813914Y-52401047D01*
X124813914Y-52401047D02*
X124813914Y-52639142D01*
X124813914Y-52639142D02*
X124766295Y-52734380D01*
X124766295Y-52734380D02*
X124718676Y-52782000D01*
X124718676Y-52782000D02*
X124623438Y-52829619D01*
X124623438Y-52829619D02*
X124337724Y-52829619D01*
X124337724Y-52829619D02*
X124242486Y-52782000D01*
X124242486Y-52782000D02*
X124194867Y-52734380D01*
X103374157Y-97260666D02*
X103421777Y-97308285D01*
X103421777Y-97308285D02*
X103469396Y-97451142D01*
X103469396Y-97451142D02*
X103469396Y-97546380D01*
X103469396Y-97546380D02*
X103421777Y-97689237D01*
X103421777Y-97689237D02*
X103326538Y-97784475D01*
X103326538Y-97784475D02*
X103231300Y-97832094D01*
X103231300Y-97832094D02*
X103040824Y-97879713D01*
X103040824Y-97879713D02*
X102897967Y-97879713D01*
X102897967Y-97879713D02*
X102707491Y-97832094D01*
X102707491Y-97832094D02*
X102612253Y-97784475D01*
X102612253Y-97784475D02*
X102517015Y-97689237D01*
X102517015Y-97689237D02*
X102469396Y-97546380D01*
X102469396Y-97546380D02*
X102469396Y-97451142D01*
X102469396Y-97451142D02*
X102517015Y-97308285D01*
X102517015Y-97308285D02*
X102564634Y-97260666D01*
X102469396Y-96355904D02*
X102469396Y-96832094D01*
X102469396Y-96832094D02*
X102945586Y-96879713D01*
X102945586Y-96879713D02*
X102897967Y-96832094D01*
X102897967Y-96832094D02*
X102850348Y-96736856D01*
X102850348Y-96736856D02*
X102850348Y-96498761D01*
X102850348Y-96498761D02*
X102897967Y-96403523D01*
X102897967Y-96403523D02*
X102945586Y-96355904D01*
X102945586Y-96355904D02*
X103040824Y-96308285D01*
X103040824Y-96308285D02*
X103278919Y-96308285D01*
X103278919Y-96308285D02*
X103374157Y-96355904D01*
X103374157Y-96355904D02*
X103421777Y-96403523D01*
X103421777Y-96403523D02*
X103469396Y-96498761D01*
X103469396Y-96498761D02*
X103469396Y-96736856D01*
X103469396Y-96736856D02*
X103421777Y-96832094D01*
X103421777Y-96832094D02*
X103374157Y-96879713D01*
X119498666Y-86452819D02*
X119498666Y-87167104D01*
X119498666Y-87167104D02*
X119451047Y-87309961D01*
X119451047Y-87309961D02*
X119355809Y-87405200D01*
X119355809Y-87405200D02*
X119212952Y-87452819D01*
X119212952Y-87452819D02*
X119117714Y-87452819D01*
X120451047Y-86452819D02*
X119974857Y-86452819D01*
X119974857Y-86452819D02*
X119927238Y-86929009D01*
X119927238Y-86929009D02*
X119974857Y-86881390D01*
X119974857Y-86881390D02*
X120070095Y-86833771D01*
X120070095Y-86833771D02*
X120308190Y-86833771D01*
X120308190Y-86833771D02*
X120403428Y-86881390D01*
X120403428Y-86881390D02*
X120451047Y-86929009D01*
X120451047Y-86929009D02*
X120498666Y-87024247D01*
X120498666Y-87024247D02*
X120498666Y-87262342D01*
X120498666Y-87262342D02*
X120451047Y-87357580D01*
X120451047Y-87357580D02*
X120403428Y-87405200D01*
X120403428Y-87405200D02*
X120308190Y-87452819D01*
X120308190Y-87452819D02*
X120070095Y-87452819D01*
X120070095Y-87452819D02*
X119974857Y-87405200D01*
X119974857Y-87405200D02*
X119927238Y-87357580D01*
X142993666Y-86452819D02*
X142993666Y-87167104D01*
X142993666Y-87167104D02*
X142946047Y-87309961D01*
X142946047Y-87309961D02*
X142850809Y-87405200D01*
X142850809Y-87405200D02*
X142707952Y-87452819D01*
X142707952Y-87452819D02*
X142612714Y-87452819D01*
X143898428Y-86452819D02*
X143707952Y-86452819D01*
X143707952Y-86452819D02*
X143612714Y-86500438D01*
X143612714Y-86500438D02*
X143565095Y-86548057D01*
X143565095Y-86548057D02*
X143469857Y-86690914D01*
X143469857Y-86690914D02*
X143422238Y-86881390D01*
X143422238Y-86881390D02*
X143422238Y-87262342D01*
X143422238Y-87262342D02*
X143469857Y-87357580D01*
X143469857Y-87357580D02*
X143517476Y-87405200D01*
X143517476Y-87405200D02*
X143612714Y-87452819D01*
X143612714Y-87452819D02*
X143803190Y-87452819D01*
X143803190Y-87452819D02*
X143898428Y-87405200D01*
X143898428Y-87405200D02*
X143946047Y-87357580D01*
X143946047Y-87357580D02*
X143993666Y-87262342D01*
X143993666Y-87262342D02*
X143993666Y-87024247D01*
X143993666Y-87024247D02*
X143946047Y-86929009D01*
X143946047Y-86929009D02*
X143898428Y-86881390D01*
X143898428Y-86881390D02*
X143803190Y-86833771D01*
X143803190Y-86833771D02*
X143612714Y-86833771D01*
X143612714Y-86833771D02*
X143517476Y-86881390D01*
X143517476Y-86881390D02*
X143469857Y-86929009D01*
X143469857Y-86929009D02*
X143422238Y-87024247D01*
X103641819Y-93564904D02*
X104451342Y-93564904D01*
X104451342Y-93564904D02*
X104546580Y-93517285D01*
X104546580Y-93517285D02*
X104594200Y-93469666D01*
X104594200Y-93469666D02*
X104641819Y-93374428D01*
X104641819Y-93374428D02*
X104641819Y-93183952D01*
X104641819Y-93183952D02*
X104594200Y-93088714D01*
X104594200Y-93088714D02*
X104546580Y-93041095D01*
X104546580Y-93041095D02*
X104451342Y-92993476D01*
X104451342Y-92993476D02*
X103641819Y-92993476D01*
X103641819Y-92088714D02*
X103641819Y-92279190D01*
X103641819Y-92279190D02*
X103689438Y-92374428D01*
X103689438Y-92374428D02*
X103737057Y-92422047D01*
X103737057Y-92422047D02*
X103879914Y-92517285D01*
X103879914Y-92517285D02*
X104070390Y-92564904D01*
X104070390Y-92564904D02*
X104451342Y-92564904D01*
X104451342Y-92564904D02*
X104546580Y-92517285D01*
X104546580Y-92517285D02*
X104594200Y-92469666D01*
X104594200Y-92469666D02*
X104641819Y-92374428D01*
X104641819Y-92374428D02*
X104641819Y-92183952D01*
X104641819Y-92183952D02*
X104594200Y-92088714D01*
X104594200Y-92088714D02*
X104546580Y-92041095D01*
X104546580Y-92041095D02*
X104451342Y-91993476D01*
X104451342Y-91993476D02*
X104213247Y-91993476D01*
X104213247Y-91993476D02*
X104118009Y-92041095D01*
X104118009Y-92041095D02*
X104070390Y-92088714D01*
X104070390Y-92088714D02*
X104022771Y-92183952D01*
X104022771Y-92183952D02*
X104022771Y-92374428D01*
X104022771Y-92374428D02*
X104070390Y-92469666D01*
X104070390Y-92469666D02*
X104118009Y-92517285D01*
X104118009Y-92517285D02*
X104213247Y-92564904D01*
X112777410Y-90065477D02*
X112444077Y-89589286D01*
X112205982Y-90065477D02*
X112205982Y-89065477D01*
X112205982Y-89065477D02*
X112586934Y-89065477D01*
X112586934Y-89065477D02*
X112682172Y-89113096D01*
X112682172Y-89113096D02*
X112729791Y-89160715D01*
X112729791Y-89160715D02*
X112777410Y-89255953D01*
X112777410Y-89255953D02*
X112777410Y-89398810D01*
X112777410Y-89398810D02*
X112729791Y-89494048D01*
X112729791Y-89494048D02*
X112682172Y-89541667D01*
X112682172Y-89541667D02*
X112586934Y-89589286D01*
X112586934Y-89589286D02*
X112205982Y-89589286D01*
X113634553Y-89065477D02*
X113444077Y-89065477D01*
X113444077Y-89065477D02*
X113348839Y-89113096D01*
X113348839Y-89113096D02*
X113301220Y-89160715D01*
X113301220Y-89160715D02*
X113205982Y-89303572D01*
X113205982Y-89303572D02*
X113158363Y-89494048D01*
X113158363Y-89494048D02*
X113158363Y-89875000D01*
X113158363Y-89875000D02*
X113205982Y-89970238D01*
X113205982Y-89970238D02*
X113253601Y-90017858D01*
X113253601Y-90017858D02*
X113348839Y-90065477D01*
X113348839Y-90065477D02*
X113539315Y-90065477D01*
X113539315Y-90065477D02*
X113634553Y-90017858D01*
X113634553Y-90017858D02*
X113682172Y-89970238D01*
X113682172Y-89970238D02*
X113729791Y-89875000D01*
X113729791Y-89875000D02*
X113729791Y-89636905D01*
X113729791Y-89636905D02*
X113682172Y-89541667D01*
X113682172Y-89541667D02*
X113634553Y-89494048D01*
X113634553Y-89494048D02*
X113539315Y-89446429D01*
X113539315Y-89446429D02*
X113348839Y-89446429D01*
X113348839Y-89446429D02*
X113253601Y-89494048D01*
X113253601Y-89494048D02*
X113205982Y-89541667D01*
X113205982Y-89541667D02*
X113158363Y-89636905D01*
X123912333Y-56741219D02*
X123579000Y-56265028D01*
X123340905Y-56741219D02*
X123340905Y-55741219D01*
X123340905Y-55741219D02*
X123721857Y-55741219D01*
X123721857Y-55741219D02*
X123817095Y-55788838D01*
X123817095Y-55788838D02*
X123864714Y-55836457D01*
X123864714Y-55836457D02*
X123912333Y-55931695D01*
X123912333Y-55931695D02*
X123912333Y-56074552D01*
X123912333Y-56074552D02*
X123864714Y-56169790D01*
X123864714Y-56169790D02*
X123817095Y-56217409D01*
X123817095Y-56217409D02*
X123721857Y-56265028D01*
X123721857Y-56265028D02*
X123340905Y-56265028D01*
X124293286Y-55836457D02*
X124340905Y-55788838D01*
X124340905Y-55788838D02*
X124436143Y-55741219D01*
X124436143Y-55741219D02*
X124674238Y-55741219D01*
X124674238Y-55741219D02*
X124769476Y-55788838D01*
X124769476Y-55788838D02*
X124817095Y-55836457D01*
X124817095Y-55836457D02*
X124864714Y-55931695D01*
X124864714Y-55931695D02*
X124864714Y-56026933D01*
X124864714Y-56026933D02*
X124817095Y-56169790D01*
X124817095Y-56169790D02*
X124245667Y-56741219D01*
X124245667Y-56741219D02*
X124864714Y-56741219D01*
X160045819Y-73826904D02*
X160855342Y-73826904D01*
X160855342Y-73826904D02*
X160950580Y-73779285D01*
X160950580Y-73779285D02*
X160998200Y-73731666D01*
X160998200Y-73731666D02*
X161045819Y-73636428D01*
X161045819Y-73636428D02*
X161045819Y-73445952D01*
X161045819Y-73445952D02*
X160998200Y-73350714D01*
X160998200Y-73350714D02*
X160950580Y-73303095D01*
X160950580Y-73303095D02*
X160855342Y-73255476D01*
X160855342Y-73255476D02*
X160045819Y-73255476D01*
X160045819Y-72303095D02*
X160045819Y-72779285D01*
X160045819Y-72779285D02*
X160522009Y-72826904D01*
X160522009Y-72826904D02*
X160474390Y-72779285D01*
X160474390Y-72779285D02*
X160426771Y-72684047D01*
X160426771Y-72684047D02*
X160426771Y-72445952D01*
X160426771Y-72445952D02*
X160474390Y-72350714D01*
X160474390Y-72350714D02*
X160522009Y-72303095D01*
X160522009Y-72303095D02*
X160617247Y-72255476D01*
X160617247Y-72255476D02*
X160855342Y-72255476D01*
X160855342Y-72255476D02*
X160950580Y-72303095D01*
X160950580Y-72303095D02*
X160998200Y-72350714D01*
X160998200Y-72350714D02*
X161045819Y-72445952D01*
X161045819Y-72445952D02*
X161045819Y-72684047D01*
X161045819Y-72684047D02*
X160998200Y-72779285D01*
X160998200Y-72779285D02*
X160950580Y-72826904D01*
X105531819Y-80383333D02*
X106246104Y-80383333D01*
X106246104Y-80383333D02*
X106388961Y-80430952D01*
X106388961Y-80430952D02*
X106484200Y-80526190D01*
X106484200Y-80526190D02*
X106531819Y-80669047D01*
X106531819Y-80669047D02*
X106531819Y-80764285D01*
X105531819Y-80002380D02*
X105531819Y-79383333D01*
X105531819Y-79383333D02*
X105912771Y-79716666D01*
X105912771Y-79716666D02*
X105912771Y-79573809D01*
X105912771Y-79573809D02*
X105960390Y-79478571D01*
X105960390Y-79478571D02*
X106008009Y-79430952D01*
X106008009Y-79430952D02*
X106103247Y-79383333D01*
X106103247Y-79383333D02*
X106341342Y-79383333D01*
X106341342Y-79383333D02*
X106436580Y-79430952D01*
X106436580Y-79430952D02*
X106484200Y-79478571D01*
X106484200Y-79478571D02*
X106531819Y-79573809D01*
X106531819Y-79573809D02*
X106531819Y-79859523D01*
X106531819Y-79859523D02*
X106484200Y-79954761D01*
X106484200Y-79954761D02*
X106436580Y-80002380D01*
X108073157Y-87491324D02*
X108120777Y-87538943D01*
X108120777Y-87538943D02*
X108168396Y-87681800D01*
X108168396Y-87681800D02*
X108168396Y-87777038D01*
X108168396Y-87777038D02*
X108120777Y-87919895D01*
X108120777Y-87919895D02*
X108025538Y-88015133D01*
X108025538Y-88015133D02*
X107930300Y-88062752D01*
X107930300Y-88062752D02*
X107739824Y-88110371D01*
X107739824Y-88110371D02*
X107596967Y-88110371D01*
X107596967Y-88110371D02*
X107406491Y-88062752D01*
X107406491Y-88062752D02*
X107311253Y-88015133D01*
X107311253Y-88015133D02*
X107216015Y-87919895D01*
X107216015Y-87919895D02*
X107168396Y-87777038D01*
X107168396Y-87777038D02*
X107168396Y-87681800D01*
X107168396Y-87681800D02*
X107216015Y-87538943D01*
X107216015Y-87538943D02*
X107263634Y-87491324D01*
X107168396Y-86634181D02*
X107168396Y-86824657D01*
X107168396Y-86824657D02*
X107216015Y-86919895D01*
X107216015Y-86919895D02*
X107263634Y-86967514D01*
X107263634Y-86967514D02*
X107406491Y-87062752D01*
X107406491Y-87062752D02*
X107596967Y-87110371D01*
X107596967Y-87110371D02*
X107977919Y-87110371D01*
X107977919Y-87110371D02*
X108073157Y-87062752D01*
X108073157Y-87062752D02*
X108120777Y-87015133D01*
X108120777Y-87015133D02*
X108168396Y-86919895D01*
X108168396Y-86919895D02*
X108168396Y-86729419D01*
X108168396Y-86729419D02*
X108120777Y-86634181D01*
X108120777Y-86634181D02*
X108073157Y-86586562D01*
X108073157Y-86586562D02*
X107977919Y-86538943D01*
X107977919Y-86538943D02*
X107739824Y-86538943D01*
X107739824Y-86538943D02*
X107644586Y-86586562D01*
X107644586Y-86586562D02*
X107596967Y-86634181D01*
X107596967Y-86634181D02*
X107549348Y-86729419D01*
X107549348Y-86729419D02*
X107549348Y-86919895D01*
X107549348Y-86919895D02*
X107596967Y-87015133D01*
X107596967Y-87015133D02*
X107644586Y-87062752D01*
X107644586Y-87062752D02*
X107739824Y-87110371D01*
X112777410Y-94383477D02*
X112444077Y-93907286D01*
X112205982Y-94383477D02*
X112205982Y-93383477D01*
X112205982Y-93383477D02*
X112586934Y-93383477D01*
X112586934Y-93383477D02*
X112682172Y-93431096D01*
X112682172Y-93431096D02*
X112729791Y-93478715D01*
X112729791Y-93478715D02*
X112777410Y-93573953D01*
X112777410Y-93573953D02*
X112777410Y-93716810D01*
X112777410Y-93716810D02*
X112729791Y-93812048D01*
X112729791Y-93812048D02*
X112682172Y-93859667D01*
X112682172Y-93859667D02*
X112586934Y-93907286D01*
X112586934Y-93907286D02*
X112205982Y-93907286D01*
X113682172Y-93383477D02*
X113205982Y-93383477D01*
X113205982Y-93383477D02*
X113158363Y-93859667D01*
X113158363Y-93859667D02*
X113205982Y-93812048D01*
X113205982Y-93812048D02*
X113301220Y-93764429D01*
X113301220Y-93764429D02*
X113539315Y-93764429D01*
X113539315Y-93764429D02*
X113634553Y-93812048D01*
X113634553Y-93812048D02*
X113682172Y-93859667D01*
X113682172Y-93859667D02*
X113729791Y-93954905D01*
X113729791Y-93954905D02*
X113729791Y-94193000D01*
X113729791Y-94193000D02*
X113682172Y-94288238D01*
X113682172Y-94288238D02*
X113634553Y-94335858D01*
X113634553Y-94335858D02*
X113539315Y-94383477D01*
X113539315Y-94383477D02*
X113301220Y-94383477D01*
X113301220Y-94383477D02*
X113205982Y-94335858D01*
X113205982Y-94335858D02*
X113158363Y-94288238D01*
X159444833Y-94265819D02*
X159111500Y-93789628D01*
X158873405Y-94265819D02*
X158873405Y-93265819D01*
X158873405Y-93265819D02*
X159254357Y-93265819D01*
X159254357Y-93265819D02*
X159349595Y-93313438D01*
X159349595Y-93313438D02*
X159397214Y-93361057D01*
X159397214Y-93361057D02*
X159444833Y-93456295D01*
X159444833Y-93456295D02*
X159444833Y-93599152D01*
X159444833Y-93599152D02*
X159397214Y-93694390D01*
X159397214Y-93694390D02*
X159349595Y-93742009D01*
X159349595Y-93742009D02*
X159254357Y-93789628D01*
X159254357Y-93789628D02*
X158873405Y-93789628D01*
X160016262Y-93694390D02*
X159921024Y-93646771D01*
X159921024Y-93646771D02*
X159873405Y-93599152D01*
X159873405Y-93599152D02*
X159825786Y-93503914D01*
X159825786Y-93503914D02*
X159825786Y-93456295D01*
X159825786Y-93456295D02*
X159873405Y-93361057D01*
X159873405Y-93361057D02*
X159921024Y-93313438D01*
X159921024Y-93313438D02*
X160016262Y-93265819D01*
X160016262Y-93265819D02*
X160206738Y-93265819D01*
X160206738Y-93265819D02*
X160301976Y-93313438D01*
X160301976Y-93313438D02*
X160349595Y-93361057D01*
X160349595Y-93361057D02*
X160397214Y-93456295D01*
X160397214Y-93456295D02*
X160397214Y-93503914D01*
X160397214Y-93503914D02*
X160349595Y-93599152D01*
X160349595Y-93599152D02*
X160301976Y-93646771D01*
X160301976Y-93646771D02*
X160206738Y-93694390D01*
X160206738Y-93694390D02*
X160016262Y-93694390D01*
X160016262Y-93694390D02*
X159921024Y-93742009D01*
X159921024Y-93742009D02*
X159873405Y-93789628D01*
X159873405Y-93789628D02*
X159825786Y-93884866D01*
X159825786Y-93884866D02*
X159825786Y-94075342D01*
X159825786Y-94075342D02*
X159873405Y-94170580D01*
X159873405Y-94170580D02*
X159921024Y-94218200D01*
X159921024Y-94218200D02*
X160016262Y-94265819D01*
X160016262Y-94265819D02*
X160206738Y-94265819D01*
X160206738Y-94265819D02*
X160301976Y-94218200D01*
X160301976Y-94218200D02*
X160349595Y-94170580D01*
X160349595Y-94170580D02*
X160397214Y-94075342D01*
X160397214Y-94075342D02*
X160397214Y-93884866D01*
X160397214Y-93884866D02*
X160349595Y-93789628D01*
X160349595Y-93789628D02*
X160301976Y-93742009D01*
X160301976Y-93742009D02*
X160206738Y-93694390D01*
X126710833Y-91145580D02*
X126663214Y-91193200D01*
X126663214Y-91193200D02*
X126520357Y-91240819D01*
X126520357Y-91240819D02*
X126425119Y-91240819D01*
X126425119Y-91240819D02*
X126282262Y-91193200D01*
X126282262Y-91193200D02*
X126187024Y-91097961D01*
X126187024Y-91097961D02*
X126139405Y-91002723D01*
X126139405Y-91002723D02*
X126091786Y-90812247D01*
X126091786Y-90812247D02*
X126091786Y-90669390D01*
X126091786Y-90669390D02*
X126139405Y-90478914D01*
X126139405Y-90478914D02*
X126187024Y-90383676D01*
X126187024Y-90383676D02*
X126282262Y-90288438D01*
X126282262Y-90288438D02*
X126425119Y-90240819D01*
X126425119Y-90240819D02*
X126520357Y-90240819D01*
X126520357Y-90240819D02*
X126663214Y-90288438D01*
X126663214Y-90288438D02*
X126710833Y-90336057D01*
X127663214Y-91240819D02*
X127091786Y-91240819D01*
X127377500Y-91240819D02*
X127377500Y-90240819D01*
X127377500Y-90240819D02*
X127282262Y-90383676D01*
X127282262Y-90383676D02*
X127187024Y-90478914D01*
X127187024Y-90478914D02*
X127091786Y-90526533D01*
X112777410Y-88033477D02*
X112444077Y-87557286D01*
X112205982Y-88033477D02*
X112205982Y-87033477D01*
X112205982Y-87033477D02*
X112586934Y-87033477D01*
X112586934Y-87033477D02*
X112682172Y-87081096D01*
X112682172Y-87081096D02*
X112729791Y-87128715D01*
X112729791Y-87128715D02*
X112777410Y-87223953D01*
X112777410Y-87223953D02*
X112777410Y-87366810D01*
X112777410Y-87366810D02*
X112729791Y-87462048D01*
X112729791Y-87462048D02*
X112682172Y-87509667D01*
X112682172Y-87509667D02*
X112586934Y-87557286D01*
X112586934Y-87557286D02*
X112205982Y-87557286D01*
X113110744Y-87033477D02*
X113777410Y-87033477D01*
X113777410Y-87033477D02*
X113348839Y-88033477D01*
X140284095Y-58382819D02*
X140284095Y-59192342D01*
X140284095Y-59192342D02*
X140331714Y-59287580D01*
X140331714Y-59287580D02*
X140379333Y-59335200D01*
X140379333Y-59335200D02*
X140474571Y-59382819D01*
X140474571Y-59382819D02*
X140665047Y-59382819D01*
X140665047Y-59382819D02*
X140760285Y-59335200D01*
X140760285Y-59335200D02*
X140807904Y-59287580D01*
X140807904Y-59287580D02*
X140855523Y-59192342D01*
X140855523Y-59192342D02*
X140855523Y-58382819D01*
X141236476Y-58382819D02*
X141855523Y-58382819D01*
X141855523Y-58382819D02*
X141522190Y-58763771D01*
X141522190Y-58763771D02*
X141665047Y-58763771D01*
X141665047Y-58763771D02*
X141760285Y-58811390D01*
X141760285Y-58811390D02*
X141807904Y-58859009D01*
X141807904Y-58859009D02*
X141855523Y-58954247D01*
X141855523Y-58954247D02*
X141855523Y-59192342D01*
X141855523Y-59192342D02*
X141807904Y-59287580D01*
X141807904Y-59287580D02*
X141760285Y-59335200D01*
X141760285Y-59335200D02*
X141665047Y-59382819D01*
X141665047Y-59382819D02*
X141379333Y-59382819D01*
X141379333Y-59382819D02*
X141284095Y-59335200D01*
X141284095Y-59335200D02*
X141236476Y-59287580D01*
X130810095Y-84214619D02*
X130810095Y-85024142D01*
X130810095Y-85024142D02*
X130857714Y-85119380D01*
X130857714Y-85119380D02*
X130905333Y-85167000D01*
X130905333Y-85167000D02*
X131000571Y-85214619D01*
X131000571Y-85214619D02*
X131191047Y-85214619D01*
X131191047Y-85214619D02*
X131286285Y-85167000D01*
X131286285Y-85167000D02*
X131333904Y-85119380D01*
X131333904Y-85119380D02*
X131381523Y-85024142D01*
X131381523Y-85024142D02*
X131381523Y-84214619D01*
X132381523Y-85214619D02*
X131810095Y-85214619D01*
X132095809Y-85214619D02*
X132095809Y-84214619D01*
X132095809Y-84214619D02*
X132000571Y-84357476D01*
X132000571Y-84357476D02*
X131905333Y-84452714D01*
X131905333Y-84452714D02*
X131810095Y-84500333D01*
X149938080Y-97628857D02*
X149985700Y-97676476D01*
X149985700Y-97676476D02*
X150033319Y-97819333D01*
X150033319Y-97819333D02*
X150033319Y-97914571D01*
X150033319Y-97914571D02*
X149985700Y-98057428D01*
X149985700Y-98057428D02*
X149890461Y-98152666D01*
X149890461Y-98152666D02*
X149795223Y-98200285D01*
X149795223Y-98200285D02*
X149604747Y-98247904D01*
X149604747Y-98247904D02*
X149461890Y-98247904D01*
X149461890Y-98247904D02*
X149271414Y-98200285D01*
X149271414Y-98200285D02*
X149176176Y-98152666D01*
X149176176Y-98152666D02*
X149080938Y-98057428D01*
X149080938Y-98057428D02*
X149033319Y-97914571D01*
X149033319Y-97914571D02*
X149033319Y-97819333D01*
X149033319Y-97819333D02*
X149080938Y-97676476D01*
X149080938Y-97676476D02*
X149128557Y-97628857D01*
X150033319Y-96676476D02*
X150033319Y-97247904D01*
X150033319Y-96962190D02*
X149033319Y-96962190D01*
X149033319Y-96962190D02*
X149176176Y-97057428D01*
X149176176Y-97057428D02*
X149271414Y-97152666D01*
X149271414Y-97152666D02*
X149319033Y-97247904D01*
X149033319Y-96057428D02*
X149033319Y-95962190D01*
X149033319Y-95962190D02*
X149080938Y-95866952D01*
X149080938Y-95866952D02*
X149128557Y-95819333D01*
X149128557Y-95819333D02*
X149223795Y-95771714D01*
X149223795Y-95771714D02*
X149414271Y-95724095D01*
X149414271Y-95724095D02*
X149652366Y-95724095D01*
X149652366Y-95724095D02*
X149842842Y-95771714D01*
X149842842Y-95771714D02*
X149938080Y-95819333D01*
X149938080Y-95819333D02*
X149985700Y-95866952D01*
X149985700Y-95866952D02*
X150033319Y-95962190D01*
X150033319Y-95962190D02*
X150033319Y-96057428D01*
X150033319Y-96057428D02*
X149985700Y-96152666D01*
X149985700Y-96152666D02*
X149938080Y-96200285D01*
X149938080Y-96200285D02*
X149842842Y-96247904D01*
X149842842Y-96247904D02*
X149652366Y-96295523D01*
X149652366Y-96295523D02*
X149414271Y-96295523D01*
X149414271Y-96295523D02*
X149223795Y-96247904D01*
X149223795Y-96247904D02*
X149128557Y-96200285D01*
X149128557Y-96200285D02*
X149080938Y-96152666D01*
X149080938Y-96152666D02*
X149033319Y-96057428D01*
X128556933Y-58677980D02*
X128509314Y-58725600D01*
X128509314Y-58725600D02*
X128366457Y-58773219D01*
X128366457Y-58773219D02*
X128271219Y-58773219D01*
X128271219Y-58773219D02*
X128128362Y-58725600D01*
X128128362Y-58725600D02*
X128033124Y-58630361D01*
X128033124Y-58630361D02*
X127985505Y-58535123D01*
X127985505Y-58535123D02*
X127937886Y-58344647D01*
X127937886Y-58344647D02*
X127937886Y-58201790D01*
X127937886Y-58201790D02*
X127985505Y-58011314D01*
X127985505Y-58011314D02*
X128033124Y-57916076D01*
X128033124Y-57916076D02*
X128128362Y-57820838D01*
X128128362Y-57820838D02*
X128271219Y-57773219D01*
X128271219Y-57773219D02*
X128366457Y-57773219D01*
X128366457Y-57773219D02*
X128509314Y-57820838D01*
X128509314Y-57820838D02*
X128556933Y-57868457D01*
X129414076Y-58106552D02*
X129414076Y-58773219D01*
X129175981Y-57725600D02*
X128937886Y-58439885D01*
X128937886Y-58439885D02*
X129556933Y-58439885D01*
X136235833Y-91145580D02*
X136188214Y-91193200D01*
X136188214Y-91193200D02*
X136045357Y-91240819D01*
X136045357Y-91240819D02*
X135950119Y-91240819D01*
X135950119Y-91240819D02*
X135807262Y-91193200D01*
X135807262Y-91193200D02*
X135712024Y-91097961D01*
X135712024Y-91097961D02*
X135664405Y-91002723D01*
X135664405Y-91002723D02*
X135616786Y-90812247D01*
X135616786Y-90812247D02*
X135616786Y-90669390D01*
X135616786Y-90669390D02*
X135664405Y-90478914D01*
X135664405Y-90478914D02*
X135712024Y-90383676D01*
X135712024Y-90383676D02*
X135807262Y-90288438D01*
X135807262Y-90288438D02*
X135950119Y-90240819D01*
X135950119Y-90240819D02*
X136045357Y-90240819D01*
X136045357Y-90240819D02*
X136188214Y-90288438D01*
X136188214Y-90288438D02*
X136235833Y-90336057D01*
X136616786Y-90336057D02*
X136664405Y-90288438D01*
X136664405Y-90288438D02*
X136759643Y-90240819D01*
X136759643Y-90240819D02*
X136997738Y-90240819D01*
X136997738Y-90240819D02*
X137092976Y-90288438D01*
X137092976Y-90288438D02*
X137140595Y-90336057D01*
X137140595Y-90336057D02*
X137188214Y-90431295D01*
X137188214Y-90431295D02*
X137188214Y-90526533D01*
X137188214Y-90526533D02*
X137140595Y-90669390D01*
X137140595Y-90669390D02*
X136569167Y-91240819D01*
X136569167Y-91240819D02*
X137188214Y-91240819D01*
X150306319Y-93458904D02*
X151115842Y-93458904D01*
X151115842Y-93458904D02*
X151211080Y-93411285D01*
X151211080Y-93411285D02*
X151258700Y-93363666D01*
X151258700Y-93363666D02*
X151306319Y-93268428D01*
X151306319Y-93268428D02*
X151306319Y-93077952D01*
X151306319Y-93077952D02*
X151258700Y-92982714D01*
X151258700Y-92982714D02*
X151211080Y-92935095D01*
X151211080Y-92935095D02*
X151115842Y-92887476D01*
X151115842Y-92887476D02*
X150306319Y-92887476D01*
X150734890Y-92268428D02*
X150687271Y-92363666D01*
X150687271Y-92363666D02*
X150639652Y-92411285D01*
X150639652Y-92411285D02*
X150544414Y-92458904D01*
X150544414Y-92458904D02*
X150496795Y-92458904D01*
X150496795Y-92458904D02*
X150401557Y-92411285D01*
X150401557Y-92411285D02*
X150353938Y-92363666D01*
X150353938Y-92363666D02*
X150306319Y-92268428D01*
X150306319Y-92268428D02*
X150306319Y-92077952D01*
X150306319Y-92077952D02*
X150353938Y-91982714D01*
X150353938Y-91982714D02*
X150401557Y-91935095D01*
X150401557Y-91935095D02*
X150496795Y-91887476D01*
X150496795Y-91887476D02*
X150544414Y-91887476D01*
X150544414Y-91887476D02*
X150639652Y-91935095D01*
X150639652Y-91935095D02*
X150687271Y-91982714D01*
X150687271Y-91982714D02*
X150734890Y-92077952D01*
X150734890Y-92077952D02*
X150734890Y-92268428D01*
X150734890Y-92268428D02*
X150782509Y-92363666D01*
X150782509Y-92363666D02*
X150830128Y-92411285D01*
X150830128Y-92411285D02*
X150925366Y-92458904D01*
X150925366Y-92458904D02*
X151115842Y-92458904D01*
X151115842Y-92458904D02*
X151211080Y-92411285D01*
X151211080Y-92411285D02*
X151258700Y-92363666D01*
X151258700Y-92363666D02*
X151306319Y-92268428D01*
X151306319Y-92268428D02*
X151306319Y-92077952D01*
X151306319Y-92077952D02*
X151258700Y-91982714D01*
X151258700Y-91982714D02*
X151211080Y-91935095D01*
X151211080Y-91935095D02*
X151115842Y-91887476D01*
X151115842Y-91887476D02*
X150925366Y-91887476D01*
X150925366Y-91887476D02*
X150830128Y-91935095D01*
X150830128Y-91935095D02*
X150782509Y-91982714D01*
X150782509Y-91982714D02*
X150734890Y-92077952D01*
X108708157Y-97260666D02*
X108755777Y-97308285D01*
X108755777Y-97308285D02*
X108803396Y-97451142D01*
X108803396Y-97451142D02*
X108803396Y-97546380D01*
X108803396Y-97546380D02*
X108755777Y-97689237D01*
X108755777Y-97689237D02*
X108660538Y-97784475D01*
X108660538Y-97784475D02*
X108565300Y-97832094D01*
X108565300Y-97832094D02*
X108374824Y-97879713D01*
X108374824Y-97879713D02*
X108231967Y-97879713D01*
X108231967Y-97879713D02*
X108041491Y-97832094D01*
X108041491Y-97832094D02*
X107946253Y-97784475D01*
X107946253Y-97784475D02*
X107851015Y-97689237D01*
X107851015Y-97689237D02*
X107803396Y-97546380D01*
X107803396Y-97546380D02*
X107803396Y-97451142D01*
X107803396Y-97451142D02*
X107851015Y-97308285D01*
X107851015Y-97308285D02*
X107898634Y-97260666D01*
X107803396Y-96927332D02*
X107803396Y-96260666D01*
X107803396Y-96260666D02*
X108803396Y-96689237D01*
X154764080Y-87849857D02*
X154811700Y-87897476D01*
X154811700Y-87897476D02*
X154859319Y-88040333D01*
X154859319Y-88040333D02*
X154859319Y-88135571D01*
X154859319Y-88135571D02*
X154811700Y-88278428D01*
X154811700Y-88278428D02*
X154716461Y-88373666D01*
X154716461Y-88373666D02*
X154621223Y-88421285D01*
X154621223Y-88421285D02*
X154430747Y-88468904D01*
X154430747Y-88468904D02*
X154287890Y-88468904D01*
X154287890Y-88468904D02*
X154097414Y-88421285D01*
X154097414Y-88421285D02*
X154002176Y-88373666D01*
X154002176Y-88373666D02*
X153906938Y-88278428D01*
X153906938Y-88278428D02*
X153859319Y-88135571D01*
X153859319Y-88135571D02*
X153859319Y-88040333D01*
X153859319Y-88040333D02*
X153906938Y-87897476D01*
X153906938Y-87897476D02*
X153954557Y-87849857D01*
X154859319Y-86897476D02*
X154859319Y-87468904D01*
X154859319Y-87183190D02*
X153859319Y-87183190D01*
X153859319Y-87183190D02*
X154002176Y-87278428D01*
X154002176Y-87278428D02*
X154097414Y-87373666D01*
X154097414Y-87373666D02*
X154145033Y-87468904D01*
X153954557Y-86516523D02*
X153906938Y-86468904D01*
X153906938Y-86468904D02*
X153859319Y-86373666D01*
X153859319Y-86373666D02*
X153859319Y-86135571D01*
X153859319Y-86135571D02*
X153906938Y-86040333D01*
X153906938Y-86040333D02*
X153954557Y-85992714D01*
X153954557Y-85992714D02*
X154049795Y-85945095D01*
X154049795Y-85945095D02*
X154145033Y-85945095D01*
X154145033Y-85945095D02*
X154287890Y-85992714D01*
X154287890Y-85992714D02*
X154859319Y-86564142D01*
X154859319Y-86564142D02*
X154859319Y-85945095D01*
X149128509Y-87540333D02*
X149128509Y-87873666D01*
X149652319Y-87873666D02*
X148652319Y-87873666D01*
X148652319Y-87873666D02*
X148652319Y-87397476D01*
X148985652Y-86587952D02*
X149652319Y-86587952D01*
X148604700Y-86826047D02*
X149318985Y-87064142D01*
X149318985Y-87064142D02*
X149318985Y-86445095D01*
X152666166Y-70650819D02*
X152666166Y-71365104D01*
X152666166Y-71365104D02*
X152618547Y-71507961D01*
X152618547Y-71507961D02*
X152523309Y-71603200D01*
X152523309Y-71603200D02*
X152380452Y-71650819D01*
X152380452Y-71650819D02*
X152285214Y-71650819D01*
X153094738Y-70746057D02*
X153142357Y-70698438D01*
X153142357Y-70698438D02*
X153237595Y-70650819D01*
X153237595Y-70650819D02*
X153475690Y-70650819D01*
X153475690Y-70650819D02*
X153570928Y-70698438D01*
X153570928Y-70698438D02*
X153618547Y-70746057D01*
X153618547Y-70746057D02*
X153666166Y-70841295D01*
X153666166Y-70841295D02*
X153666166Y-70936533D01*
X153666166Y-70936533D02*
X153618547Y-71079390D01*
X153618547Y-71079390D02*
X153047119Y-71650819D01*
X153047119Y-71650819D02*
X153666166Y-71650819D01*
X125957105Y-67612419D02*
X125957105Y-66612419D01*
X125957105Y-66612419D02*
X126195200Y-66612419D01*
X126195200Y-66612419D02*
X126338057Y-66660038D01*
X126338057Y-66660038D02*
X126433295Y-66755276D01*
X126433295Y-66755276D02*
X126480914Y-66850514D01*
X126480914Y-66850514D02*
X126528533Y-67040990D01*
X126528533Y-67040990D02*
X126528533Y-67183847D01*
X126528533Y-67183847D02*
X126480914Y-67374323D01*
X126480914Y-67374323D02*
X126433295Y-67469561D01*
X126433295Y-67469561D02*
X126338057Y-67564800D01*
X126338057Y-67564800D02*
X126195200Y-67612419D01*
X126195200Y-67612419D02*
X125957105Y-67612419D01*
X127480914Y-67612419D02*
X126909486Y-67612419D01*
X127195200Y-67612419D02*
X127195200Y-66612419D01*
X127195200Y-66612419D02*
X127099962Y-66755276D01*
X127099962Y-66755276D02*
X127004724Y-66850514D01*
X127004724Y-66850514D02*
X126909486Y-66898133D01*
X112777410Y-96415477D02*
X112444077Y-95939286D01*
X112205982Y-96415477D02*
X112205982Y-95415477D01*
X112205982Y-95415477D02*
X112586934Y-95415477D01*
X112586934Y-95415477D02*
X112682172Y-95463096D01*
X112682172Y-95463096D02*
X112729791Y-95510715D01*
X112729791Y-95510715D02*
X112777410Y-95605953D01*
X112777410Y-95605953D02*
X112777410Y-95748810D01*
X112777410Y-95748810D02*
X112729791Y-95844048D01*
X112729791Y-95844048D02*
X112682172Y-95891667D01*
X112682172Y-95891667D02*
X112586934Y-95939286D01*
X112586934Y-95939286D02*
X112205982Y-95939286D01*
X113634553Y-95748810D02*
X113634553Y-96415477D01*
X113396458Y-95367858D02*
X113158363Y-96082143D01*
X113158363Y-96082143D02*
X113777410Y-96082143D01*
X133473666Y-58151819D02*
X133473666Y-58866104D01*
X133473666Y-58866104D02*
X133426047Y-59008961D01*
X133426047Y-59008961D02*
X133330809Y-59104200D01*
X133330809Y-59104200D02*
X133187952Y-59151819D01*
X133187952Y-59151819D02*
X133092714Y-59151819D01*
X134378428Y-58485152D02*
X134378428Y-59151819D01*
X134140333Y-58104200D02*
X133902238Y-58818485D01*
X133902238Y-58818485D02*
X134521285Y-58818485D01*
X112217095Y-74170819D02*
X112217095Y-74980342D01*
X112217095Y-74980342D02*
X112264714Y-75075580D01*
X112264714Y-75075580D02*
X112312333Y-75123200D01*
X112312333Y-75123200D02*
X112407571Y-75170819D01*
X112407571Y-75170819D02*
X112598047Y-75170819D01*
X112598047Y-75170819D02*
X112693285Y-75123200D01*
X112693285Y-75123200D02*
X112740904Y-75075580D01*
X112740904Y-75075580D02*
X112788523Y-74980342D01*
X112788523Y-74980342D02*
X112788523Y-74170819D01*
X113693285Y-74504152D02*
X113693285Y-75170819D01*
X113455190Y-74123200D02*
X113217095Y-74837485D01*
X113217095Y-74837485D02*
X113836142Y-74837485D01*
X129117000Y-61300000D02*
X129692000Y-61300000D01*
X129117000Y-67050000D02*
X129117000Y-61300000D01*
X129117000Y-67050000D02*
X129692000Y-67050000D01*
X139192000Y-61300000D02*
X139767000Y-61300000D01*
X139192000Y-67050000D02*
X139767000Y-67050000D01*
X139767000Y-67050000D02*
X139767000Y-61300000D01*
D14*
X129692000Y-67550000D02*
X129362000Y-67790000D01*
X129362000Y-67310000D01*
X129692000Y-67550000D01*
G36*
X129692000Y-67550000D02*
G01*
X129362000Y-67790000D01*
X129362000Y-67310000D01*
X129692000Y-67550000D01*
G37*
X157171564Y-88758000D02*
X156717436Y-88758000D01*
X157171564Y-90228000D02*
X156717436Y-90228000D01*
X156717436Y-95108000D02*
X157171564Y-95108000D01*
X156717436Y-96578000D02*
X157171564Y-96578000D01*
X124791736Y-53570200D02*
X125245864Y-53570200D01*
X124791736Y-55040200D02*
X125245864Y-55040200D01*
X103344077Y-87583236D02*
X103344077Y-87066080D01*
X104764077Y-87583236D02*
X104764077Y-87066080D01*
X140842748Y-51464800D02*
X142265252Y-51464800D01*
X140842748Y-53284800D02*
X142265252Y-53284800D01*
X107139500Y-70076000D02*
X107139500Y-52116000D01*
X107139500Y-70076000D02*
X122659500Y-70076000D01*
X122659500Y-52116000D02*
X107139500Y-52116000D01*
X122659500Y-70076000D02*
X122659500Y-52116000D01*
X122844500Y-66196000D02*
X123344500Y-66696000D01*
X123344500Y-65696000D02*
X122844500Y-66196000D01*
X123344500Y-66696000D02*
X123344500Y-65696000D01*
X152653500Y-96724748D02*
X152653500Y-97247252D01*
X154123500Y-96724748D02*
X154123500Y-97247252D01*
X157171564Y-86726000D02*
X156717436Y-86726000D01*
X157171564Y-88196000D02*
X156717436Y-88196000D01*
X126468136Y-51639800D02*
X126922264Y-51639800D01*
X126468136Y-53109800D02*
X126922264Y-53109800D01*
X103827077Y-97355252D02*
X103827077Y-96832748D01*
X105297077Y-97355252D02*
X105297077Y-96832748D01*
X114452000Y-97418000D02*
X114452000Y-98158000D01*
X114452000Y-98158000D02*
X114952000Y-98158000D01*
X114692000Y-87997000D02*
X114692000Y-97918000D01*
X114692000Y-87997000D02*
X124972000Y-87997000D01*
X114692000Y-90957000D02*
X124972000Y-90957000D01*
X114692000Y-95858000D02*
X124972000Y-95858000D01*
X114692000Y-97358000D02*
X124972000Y-97358000D01*
X114692000Y-97918000D02*
X124972000Y-97918000D01*
X121145000Y-94281000D02*
X121098000Y-94327000D01*
X121338000Y-94497000D02*
X121303000Y-94532000D01*
X123442000Y-91983000D02*
X123407000Y-92019000D01*
X123647000Y-92189000D02*
X123600000Y-92235000D01*
X124972000Y-87997000D02*
X124972000Y-97918000D01*
X115756573Y-93941042D02*
G75*
G02*
X115757000Y-92574000I1535420J683041D01*
G01*
X116608958Y-91722573D02*
G75*
G02*
X117976000Y-91723000I683041J-1535420D01*
G01*
X117320805Y-94938253D02*
G75*
G02*
X116608000Y-94793000I-28806J1680254D01*
G01*
X117975318Y-94792756D02*
G75*
G02*
X117292000Y-94938000I-683318J1534756D01*
G01*
X118827427Y-92574958D02*
G75*
G02*
X118827000Y-93942000I-1535427J-683042D01*
G01*
X124052000Y-93258000D02*
G75*
G02*
X120692000Y-93258000I-1680000J0D01*
G01*
X120692000Y-93258000D02*
G75*
G02*
X124052000Y-93258000I1680000J0D01*
G01*
X137947000Y-97418000D02*
X137947000Y-98158000D01*
X137947000Y-98158000D02*
X138447000Y-98158000D01*
X138187000Y-87997000D02*
X138187000Y-97918000D01*
X138187000Y-87997000D02*
X148467000Y-87997000D01*
X138187000Y-90957000D02*
X148467000Y-90957000D01*
X138187000Y-95858000D02*
X148467000Y-95858000D01*
X138187000Y-97358000D02*
X148467000Y-97358000D01*
X138187000Y-97918000D02*
X148467000Y-97918000D01*
X144640000Y-94281000D02*
X144593000Y-94327000D01*
X144833000Y-94497000D02*
X144798000Y-94532000D01*
X146937000Y-91983000D02*
X146902000Y-92019000D01*
X147142000Y-92189000D02*
X147095000Y-92235000D01*
X148467000Y-87997000D02*
X148467000Y-97918000D01*
X139251573Y-93941042D02*
G75*
G02*
X139252000Y-92574000I1535420J683041D01*
G01*
X140103958Y-91722573D02*
G75*
G02*
X141471000Y-91723000I683041J-1535420D01*
G01*
X140815805Y-94938253D02*
G75*
G02*
X140103000Y-94793000I-28806J1680254D01*
G01*
X141470318Y-94792756D02*
G75*
G02*
X140787000Y-94938000I-683318J1534756D01*
G01*
X142322427Y-92574958D02*
G75*
G02*
X142322000Y-93942000I-1535427J-683042D01*
G01*
X147547000Y-93258000D02*
G75*
G02*
X144187000Y-93258000I-1680000J0D01*
G01*
X144187000Y-93258000D02*
G75*
G02*
X147547000Y-93258000I1680000J0D01*
G01*
X105027000Y-94303000D02*
X105027000Y-91303000D01*
X108247000Y-94303000D02*
X108247000Y-91303000D01*
X105337000Y-95333000D02*
X104857000Y-94853000D01*
X105337000Y-94853000D01*
X105337000Y-95333000D01*
G36*
X105337000Y-95333000D02*
G01*
X104857000Y-94853000D01*
X105337000Y-94853000D01*
X105337000Y-95333000D01*
G37*
X110504141Y-88875658D02*
X110050013Y-88875658D01*
X110504141Y-90345658D02*
X110050013Y-90345658D01*
X126973064Y-55551400D02*
X126518936Y-55551400D01*
X126973064Y-57021400D02*
X126518936Y-57021400D01*
X156631000Y-73065000D02*
X156631000Y-72265000D01*
X156631000Y-73065000D02*
X156631000Y-73865000D01*
X159751000Y-73065000D02*
X159751000Y-72265000D01*
X159751000Y-73065000D02*
X159751000Y-73865000D01*
X160031000Y-72005000D02*
X159701000Y-71765000D01*
X160031000Y-71525000D01*
X160031000Y-72005000D01*
G36*
X160031000Y-72005000D02*
G01*
X159701000Y-71765000D01*
X160031000Y-71525000D01*
X160031000Y-72005000D01*
G37*
X107077000Y-77450000D02*
X157997000Y-77450000D01*
X107077000Y-80050000D02*
X107077000Y-77450000D01*
X107077000Y-82650000D02*
X107077000Y-81320000D01*
X108407000Y-82650000D02*
X107077000Y-82650000D01*
X109677000Y-80050000D02*
X107077000Y-80050000D01*
X109677000Y-82650000D02*
X109677000Y-80050000D01*
X109677000Y-82650000D02*
X157997000Y-82650000D01*
X157997000Y-82650000D02*
X157997000Y-77450000D01*
X105351077Y-87063406D02*
X105351077Y-87585910D01*
X106821077Y-87063406D02*
X106821077Y-87585910D01*
X110504141Y-93193658D02*
X110050013Y-93193658D01*
X110504141Y-94663658D02*
X110050013Y-94663658D01*
X157171564Y-93076000D02*
X156717436Y-93076000D01*
X157171564Y-94546000D02*
X156717436Y-94546000D01*
X125942500Y-92107000D02*
X125942500Y-96017000D01*
X125942500Y-96017000D02*
X127812500Y-96017000D01*
X127812500Y-96017000D02*
X127812500Y-92107000D01*
X110504141Y-86843658D02*
X110050013Y-86843658D01*
X110504141Y-88313658D02*
X110050013Y-88313658D01*
X139486000Y-56134000D02*
X139486000Y-55334000D01*
X139486000Y-56134000D02*
X139486000Y-56934000D01*
X142606000Y-56134000D02*
X142606000Y-55334000D01*
X142606000Y-56134000D02*
X142606000Y-56934000D01*
X142886000Y-55074000D02*
X142556000Y-54834000D01*
X142886000Y-54594000D01*
X142886000Y-55074000D01*
G36*
X142886000Y-55074000D02*
G01*
X142556000Y-54834000D01*
X142886000Y-54594000D01*
X142886000Y-55074000D01*
G37*
X128199000Y-87013800D02*
X128199000Y-93433800D01*
X128199000Y-93433800D02*
X128469000Y-93433800D01*
X135099000Y-87013800D02*
X135099000Y-93433800D01*
X135099000Y-93433800D02*
X134829000Y-93433800D01*
X128509000Y-95163800D02*
X128039000Y-95503800D01*
X128039000Y-94823800D01*
X128509000Y-95163800D01*
G36*
X128509000Y-95163800D02*
G01*
X128039000Y-95503800D01*
X128039000Y-94823800D01*
X128509000Y-95163800D01*
G37*
X150494500Y-97247252D02*
X150494500Y-96724748D01*
X151964500Y-97247252D02*
X151964500Y-96724748D01*
X123796000Y-59253400D02*
X127706000Y-59253400D01*
X127706000Y-57383400D02*
X123796000Y-57383400D01*
X127706000Y-59253400D02*
X127706000Y-57383400D01*
X135467500Y-92107000D02*
X135467500Y-96017000D01*
X135467500Y-96017000D02*
X137337500Y-96017000D01*
X137337500Y-96017000D02*
X137337500Y-92107000D01*
X151691500Y-94197000D02*
X151691500Y-91197000D01*
X154911500Y-94197000D02*
X154911500Y-91197000D01*
X152001500Y-95227000D02*
X151521500Y-94747000D01*
X152001500Y-94747000D01*
X152001500Y-95227000D01*
G36*
X152001500Y-95227000D02*
G01*
X151521500Y-94747000D01*
X152001500Y-94747000D01*
X152001500Y-95227000D01*
G37*
X105986077Y-96832748D02*
X105986077Y-97355252D01*
X107456077Y-96832748D02*
X107456077Y-97355252D01*
X152018500Y-86945748D02*
X152018500Y-87468252D01*
X153488500Y-86945748D02*
X153488500Y-87468252D01*
X150011500Y-87465578D02*
X150011500Y-86948422D01*
X151431500Y-87465578D02*
X151431500Y-86948422D01*
X145239500Y-70076000D02*
X145239500Y-52116000D01*
X145239500Y-70076000D02*
X160759500Y-70076000D01*
X160759500Y-52116000D02*
X145239500Y-52116000D01*
X160759500Y-70076000D02*
X160759500Y-52116000D01*
X160944500Y-66196000D02*
X161444500Y-66696000D01*
X161444500Y-65696000D02*
X160944500Y-66196000D01*
X161444500Y-66696000D02*
X161444500Y-65696000D01*
X125045000Y-59395000D02*
X125045000Y-64905000D01*
X128345000Y-59395000D02*
X125045000Y-59395000D01*
X128345000Y-59395000D02*
X128345000Y-64905000D01*
X110050013Y-95225658D02*
X110504141Y-95225658D01*
X110050013Y-96695658D02*
X110504141Y-96695658D01*
X129212000Y-50897000D02*
X129212000Y-48167000D01*
X129212000Y-54497000D02*
X129212000Y-53597000D01*
X138282000Y-57577000D02*
X129332000Y-57577000D01*
X138402000Y-48167000D02*
X129212000Y-48167000D01*
X138402000Y-50897000D02*
X138402000Y-48167000D01*
X138402000Y-54497000D02*
X138402000Y-53597000D01*
D11*
X107408000Y-71829000D02*
X107408000Y-72054000D01*
X107408000Y-71829000D02*
X110658000Y-71829000D01*
X107408000Y-75079000D02*
X107408000Y-74854000D01*
X107408000Y-75079000D02*
X110658000Y-75079000D01*
X110658000Y-71829000D02*
X110658000Y-72054000D01*
X110658000Y-75079000D02*
X110658000Y-74854000D01*
D14*
X106933000Y-72054000D02*
X106693000Y-71724000D01*
X107173000Y-71724000D01*
X106933000Y-72054000D01*
G36*
X106933000Y-72054000D02*
G01*
X106693000Y-71724000D01*
X107173000Y-71724000D01*
X106933000Y-72054000D01*
G37*
%LPC*%
D15*
X130217000Y-67775000D03*
X130867000Y-67775000D03*
X131517000Y-67775000D03*
X132167000Y-67775000D03*
X132817000Y-67775000D03*
X133467000Y-67775000D03*
X134117000Y-67775000D03*
X134767000Y-67775000D03*
X135417000Y-67775000D03*
X136067000Y-67775000D03*
X136717000Y-67775000D03*
X137367000Y-67775000D03*
X138017000Y-67775000D03*
X138667000Y-67775000D03*
X138667000Y-60575000D03*
X138017000Y-60575000D03*
X137367000Y-60575000D03*
X136717000Y-60575000D03*
X136067000Y-60575000D03*
X135417000Y-60575000D03*
X134767000Y-60575000D03*
X134117000Y-60575000D03*
X133467000Y-60575000D03*
X132817000Y-60575000D03*
X132167000Y-60575000D03*
X131517000Y-60575000D03*
X130867000Y-60575000D03*
X130217000Y-60575000D03*
D16*
X157857000Y-89493000D03*
X156032000Y-89493000D03*
D17*
X156032000Y-95843000D03*
X157857000Y-95843000D03*
X124106300Y-54305200D03*
X125931300Y-54305200D03*
D18*
X104054077Y-88262158D03*
X104054077Y-86387158D03*
D19*
X140079000Y-52374800D03*
X143029000Y-52374800D03*
D20*
X120614500Y-59846000D03*
X109184500Y-59846000D03*
D21*
X119344500Y-66196000D03*
D22*
X118074500Y-68736000D03*
X116804500Y-66196000D03*
X115534500Y-68736000D03*
X114264500Y-66196000D03*
X112994500Y-68736000D03*
X111724500Y-66196000D03*
X110454500Y-68736000D03*
D23*
X153388500Y-96036000D03*
X153388500Y-97936000D03*
D16*
X157857000Y-87461000D03*
X156032000Y-87461000D03*
D17*
X125782700Y-52374800D03*
X127607700Y-52374800D03*
D24*
X104562077Y-98044000D03*
X104562077Y-96144000D03*
D25*
X117292000Y-93258000D03*
D26*
X122372000Y-93258000D03*
D25*
X140787000Y-93258000D03*
D26*
X145867000Y-93258000D03*
D27*
X105637000Y-94253000D03*
X106137000Y-94253000D03*
X106637000Y-94253000D03*
X107137000Y-94253000D03*
X107637000Y-94253000D03*
X107637000Y-91353000D03*
X107137000Y-91353000D03*
X106637000Y-91353000D03*
X106137000Y-91353000D03*
X105637000Y-91353000D03*
D28*
X106637000Y-92803000D03*
D16*
X111189577Y-89610658D03*
X109364577Y-89610658D03*
X127658500Y-56286400D03*
X125833500Y-56286400D03*
D29*
X159141000Y-71927500D03*
X158191000Y-71927500D03*
X157241000Y-71927500D03*
X157241000Y-74202500D03*
X158191000Y-74202500D03*
X159141000Y-74202500D03*
D30*
X108407000Y-81320000D03*
D31*
X108407000Y-78780000D03*
X110947000Y-81320000D03*
X110947000Y-78780000D03*
X113487000Y-81320000D03*
X113487000Y-78780000D03*
X116027000Y-81320000D03*
X116027000Y-78780000D03*
X118567000Y-81320000D03*
X118567000Y-78780000D03*
X121107000Y-81320000D03*
X121107000Y-78780000D03*
X123647000Y-81320000D03*
X123647000Y-78780000D03*
X126187000Y-81320000D03*
X126187000Y-78780000D03*
X128727000Y-81320000D03*
X128727000Y-78780000D03*
X131267000Y-81320000D03*
X131267000Y-78780000D03*
X133807000Y-81320000D03*
X133807000Y-78780000D03*
X136347000Y-81320000D03*
X136347000Y-78780000D03*
X138887000Y-81320000D03*
X138887000Y-78780000D03*
X141427000Y-81320000D03*
X141427000Y-78780000D03*
X143967000Y-81320000D03*
X143967000Y-78780000D03*
X146507000Y-81320000D03*
X146507000Y-78780000D03*
X149047000Y-81320000D03*
X149047000Y-78780000D03*
X151587000Y-81320000D03*
X151587000Y-78780000D03*
X154127000Y-81320000D03*
X154127000Y-78780000D03*
X156667000Y-81320000D03*
X156667000Y-78780000D03*
D23*
X106086077Y-86374658D03*
X106086077Y-88274658D03*
D16*
X111189577Y-93928658D03*
X109364577Y-93928658D03*
X157857000Y-93811000D03*
X156032000Y-93811000D03*
D32*
X126877500Y-95057000D03*
X126877500Y-92357000D03*
D16*
X111189577Y-87578658D03*
X109364577Y-87578658D03*
D29*
X141996000Y-54996500D03*
X141046000Y-54996500D03*
X140096000Y-54996500D03*
X140096000Y-57271500D03*
X141046000Y-57271500D03*
X141996000Y-57271500D03*
D33*
X129369000Y-95163800D03*
D34*
X131649000Y-88863800D03*
D33*
X133929000Y-95163800D03*
D24*
X151229500Y-97936000D03*
X151229500Y-96036000D03*
D35*
X126746000Y-58318400D03*
X124046000Y-58318400D03*
D32*
X136402500Y-95057000D03*
X136402500Y-92357000D03*
D27*
X152301500Y-94147000D03*
X152801500Y-94147000D03*
X153301500Y-94147000D03*
X153801500Y-94147000D03*
X154301500Y-94147000D03*
X154301500Y-91247000D03*
X153801500Y-91247000D03*
X153301500Y-91247000D03*
X152801500Y-91247000D03*
X152301500Y-91247000D03*
D28*
X153301500Y-92697000D03*
D23*
X106721077Y-96144000D03*
X106721077Y-98044000D03*
X152753500Y-86257000D03*
X152753500Y-88157000D03*
D18*
X150721500Y-88144500D03*
X150721500Y-86269500D03*
D20*
X158714500Y-59846000D03*
X147284500Y-59846000D03*
D21*
X157444500Y-66196000D03*
D22*
X156174500Y-68736000D03*
X154904500Y-66196000D03*
X153634500Y-68736000D03*
X152364500Y-66196000D03*
X151094500Y-68736000D03*
X149824500Y-66196000D03*
X148554500Y-68736000D03*
D36*
X126695000Y-60905000D03*
X126695000Y-64905000D03*
D17*
X109364577Y-95960658D03*
X111189577Y-95960658D03*
D37*
X136782000Y-56897000D03*
X135932000Y-56897000D03*
X135082000Y-56897000D03*
X134232000Y-56897000D03*
X133382000Y-56897000D03*
X132532000Y-56897000D03*
X131682000Y-56897000D03*
X130832000Y-56897000D03*
X130832000Y-55547000D03*
X131682000Y-55547000D03*
X132532000Y-55547000D03*
X133382000Y-55547000D03*
X134232000Y-55547000D03*
X135082000Y-55547000D03*
X135932000Y-55547000D03*
X136782000Y-55547000D03*
D38*
X138132000Y-55917000D03*
D39*
X138132000Y-52537000D03*
D38*
X129482000Y-55917000D03*
D39*
X129482000Y-52537000D03*
D40*
X106883000Y-72454000D03*
X106883000Y-72954000D03*
X106883000Y-73454000D03*
X106883000Y-73954000D03*
X106883000Y-74454000D03*
X111183000Y-74454000D03*
X111183000Y-73954000D03*
X111183000Y-73454000D03*
X111183000Y-72954000D03*
X111183000Y-72454000D03*
%LPD*%
M02*
