M48
; DRILL file {KiCad 8.0.8} date 2025-02-15T02:38:46+0000
; FORMAT={-:-/ absolute / metric / decimal}
; #@! TF.CreationDate,2025-02-15T02:38:46+00:00
; #@! TF.GenerationSoftware,Kicad,Pcbnew,8.0.8
; #@! TF.FileFunction,Plated,1,4,PTH
FMAT,2
METRIC
; #@! TA.AperFunction,Plated,PTH,ViaDrill
T1C0.300
; #@! TA.AperFunction,Plated,PTH,ComponentDrill
T2C0.400
; #@! TA.AperFunction,Plated,PTH,ComponentDrill
T3C0.600
; #@! TA.AperFunction,Plated,PTH,ComponentDrill
T4C0.760
; #@! TA.AperFunction,Plated,PTH,ComponentDrill
T5C1.000
; #@! TA.AperFunction,Plated,PTH,ComponentDrill
T6C1.300
%
G90
G05
T1
X102.489Y-96.139
X102.616Y-68.834
X103.759Y-96.154
X104.013Y-68.874
X105.537Y-69.977
X105.537Y-73.025
X106.883Y-70.906
X108.585Y-73.025
X110.287Y-90.551
X110.287Y-92.964
X111.252Y-91.059
X111.252Y-92.456
X112.402Y-94.749
X113.792Y-94.742
X117.602Y-76.581
X118.567Y-76.621
X127.584Y-53.888
X128.651Y-53.848
X129.404Y-63.201
X130.556Y-62.357
X131.953Y-53.848
X133.096Y-53.848
X137.744Y-95.036
X137.795Y-93.98
X141.046Y-59.73
X142.875Y-59.69
X148.539Y-75.224
X148.59Y-76.581
X151.079Y-74.208
X151.13Y-75.565
X152.349Y-73.446
X152.4Y-75.565
X153.619Y-72.684
X153.67Y-75.565
X154.889Y-71.922
X155.956Y-75.819
X156.083Y-70.739
X156.954Y-90.424
X156.954Y-92.837
X157.861Y-90.805
X157.861Y-92.329
X158.191Y-75.351
X158.998Y-94.99
X159.131Y-77.597
X159.639Y-95.758
X160.274Y-75.807
T2
X130.832Y-55.547
X130.832Y-56.897
X131.682Y-55.547
X131.682Y-56.897
X132.532Y-55.547
X132.532Y-56.897
X133.382Y-55.547
X133.382Y-56.897
X134.232Y-55.547
X134.232Y-56.897
X135.082Y-55.547
X135.082Y-56.897
X135.932Y-55.547
X135.932Y-56.897
X136.782Y-55.547
X136.782Y-56.897
T4
X110.454Y-68.736
X111.724Y-66.196
X112.994Y-68.736
X114.264Y-66.196
X115.534Y-68.736
X116.804Y-66.196
X118.075Y-68.736
X119.344Y-66.196
X148.554Y-68.736
X149.825Y-66.196
X151.094Y-68.736
X152.364Y-66.196
X153.635Y-68.736
X154.904Y-66.196
X156.174Y-68.736
X157.445Y-66.196
T5
X108.407Y-78.78
X108.407Y-81.32
X110.947Y-78.78
X110.947Y-81.32
X113.487Y-78.78
X113.487Y-81.32
X116.027Y-78.78
X116.027Y-81.32
X118.567Y-78.78
X118.567Y-81.32
X121.107Y-78.78
X121.107Y-81.32
X123.647Y-78.78
X123.647Y-81.32
X126.187Y-78.78
X126.187Y-81.32
X128.727Y-78.78
X128.727Y-81.32
X131.267Y-78.78
X131.267Y-81.32
X133.807Y-78.78
X133.807Y-81.32
X136.347Y-78.78
X136.347Y-81.32
X138.887Y-78.78
X138.887Y-81.32
X141.427Y-78.78
X141.427Y-81.32
X143.967Y-78.78
X143.967Y-81.32
X146.507Y-78.78
X146.507Y-81.32
X149.047Y-78.78
X149.047Y-81.32
X151.587Y-78.78
X151.587Y-81.32
X154.127Y-78.78
X154.127Y-81.32
X156.667Y-78.78
X156.667Y-81.32
T6
X117.292Y-93.258
X122.372Y-93.258
X140.787Y-93.258
X145.867Y-93.258
T3
X129.482Y-52.937G85X129.482Y-52.137
G05
X129.482Y-56.667G85X129.482Y-55.167
G05
X138.132Y-52.937G85X138.132Y-52.137
G05
X138.132Y-56.667G85X138.132Y-55.167
G05
M30
