M48
; DRILL file {KiCad 8.0.4} date 2024-08-23T02:14:38+0100
; FORMAT={-:-/ absolute / inch / decimal}
; #@! TF.CreationDate,2024-08-23T02:14:38+01:00
; #@! TF.GenerationSoftware,Kicad,Pcbnew,8.0.4
; #@! TF.FileFunction,Plated,1,2,PTH
FMAT,2
INCH
; #@! TA.AperFunction,Plated,PTH,ViaDrill
T1C0.0118
; #@! TA.AperFunction,Plated,PTH,ComponentDrill
T2C0.0299
; #@! TA.AperFunction,Plated,PTH,ComponentDrill
T3C0.0394
%
G90
G05
T1
X5.6506Y-3.5131
X5.8482Y-3.3307
X6.0106Y-3.0825
X6.2606Y-3.1325
X6.2606Y-3.1725
X6.2606Y-3.2083
X6.2706Y-3.3307
X6.4506Y-4.3325
X6.6406Y-3.1325
X6.7638Y-3.4778
X6.8206Y-3.4725
X6.8506Y-3.1725
X6.9358Y-3.2083
T2
X5.3092Y-3.3833
X5.3592Y-3.2833
X5.4092Y-3.3833
X5.4592Y-3.2833
X5.5092Y-3.3833
X5.5592Y-3.2833
X5.6092Y-3.3833
X5.6592Y-3.2833
X6.8092Y-3.3833
X6.8592Y-3.2833
X6.9092Y-3.3833
X6.9592Y-3.2833
X7.0092Y-3.3833
X7.0592Y-3.2833
X7.1092Y-3.3833
X7.1592Y-3.2833
T3
X5.0606Y-3.7823
X5.0606Y-3.8823
X5.0606Y-4.4323
X5.0606Y-4.5323
X5.2641Y-3.6096
X5.2641Y-3.8096
X5.2641Y-4.5096
X5.2641Y-4.7096
X5.3641Y-3.6096
X5.3641Y-3.8096
X5.3641Y-4.5096
X5.3641Y-4.7096
X5.4641Y-3.6096
X5.4641Y-3.8096
X5.4641Y-4.5096
X5.4641Y-4.7096
X5.5641Y-3.6096
X5.5641Y-3.8096
X5.5641Y-4.5096
X5.5641Y-4.7096
X5.6641Y-3.6096
X5.6641Y-3.8096
X5.6641Y-4.5096
X5.6641Y-4.7096
X5.7641Y-3.6096
X5.7641Y-3.8096
X5.7641Y-4.5096
X5.7641Y-4.7096
X5.8641Y-3.6096
X5.8641Y-3.8096
X5.8641Y-4.5096
X5.8641Y-4.7096
X5.9641Y-3.6096
X5.9641Y-3.8096
X5.9641Y-4.5096
X5.9641Y-4.7096
X6.0641Y-3.6096
X6.0641Y-3.8096
X6.0641Y-4.5096
X6.0641Y-4.7096
X6.1641Y-3.6096
X6.1641Y-3.8096
X6.1641Y-4.5096
X6.1641Y-4.7096
X6.2641Y-3.6096
X6.2641Y-3.8096
X6.2641Y-4.5096
X6.2641Y-4.7096
X6.3641Y-3.6096
X6.3641Y-3.8096
X6.3641Y-4.5096
X6.3641Y-4.7096
X6.4641Y-3.6096
X6.4641Y-3.8096
X6.4641Y-4.5096
X6.4641Y-4.7096
X6.5641Y-3.6096
X6.5641Y-3.8096
X6.5641Y-4.5096
X6.5641Y-4.7096
X6.6641Y-3.6096
X6.6641Y-3.8096
X6.6641Y-4.5096
X6.6641Y-4.7096
X6.7641Y-3.6096
X6.7641Y-3.8096
X6.7641Y-4.5096
X6.7641Y-4.7096
X6.8641Y-3.6096
X6.8641Y-3.8096
X6.8641Y-4.5096
X6.8641Y-4.7096
X6.9641Y-3.6096
X6.9641Y-3.8096
X6.9641Y-4.5096
X6.9641Y-4.7096
X7.0641Y-3.6096
X7.0641Y-3.8096
X7.0641Y-4.5096
X7.0641Y-4.7096
X7.1641Y-3.6096
X7.1641Y-3.8096
X7.1641Y-4.5096
X7.1641Y-4.7096
M30
