%TF.GenerationSoftware,KiCad,Pcbnew,8.0.4*%
%TF.CreationDate,2024-08-14T15:44:39+01:00*%
%TF.ProjectId,PicoChain,5069636f-4368-4616-996e-2e6b69636164,rev?*%
%TF.SameCoordinates,Original*%
%TF.FileFunction,Legend,Bot*%
%TF.FilePolarity,Positive*%
%FSLAX46Y46*%
G04 Gerber Fmt 4.6, Leading zero omitted, Abs format (unit mm)*
G04 Created by KiCad (PCBNEW 8.0.4) date 2024-08-14 15:44:39*
%MOMM*%
%LPD*%
G01*
G04 APERTURE LIST*
%ADD10C,0.300000*%
%ADD11C,0.093750*%
G04 APERTURE END LIST*
D10*
G36*
X185001868Y-70345276D02*
G01*
X184600699Y-70345276D01*
X184600699Y-69817711D01*
X184356701Y-69817711D01*
X184307790Y-69816491D01*
X184231152Y-69809033D01*
X184147239Y-69791134D01*
X184072110Y-69763472D01*
X184005765Y-69726047D01*
X183948205Y-69678859D01*
X183922801Y-69651826D01*
X183879490Y-69591771D01*
X183846174Y-69523730D01*
X183822852Y-69447704D01*
X183809526Y-69363692D01*
X183806055Y-69287582D01*
X183806061Y-69287216D01*
X184228107Y-69287216D01*
X184230152Y-69322310D01*
X184255597Y-69399017D01*
X184310122Y-69451178D01*
X184381687Y-69476683D01*
X184460748Y-69483587D01*
X184600699Y-69483587D01*
X184600699Y-69090845D01*
X184460748Y-69090845D01*
X184432577Y-69091612D01*
X184348290Y-69106378D01*
X184279224Y-69146266D01*
X184239239Y-69210700D01*
X184228107Y-69287216D01*
X183806061Y-69287216D01*
X183806605Y-69256428D01*
X183814848Y-69168308D01*
X183832983Y-69088198D01*
X183861010Y-69016101D01*
X183898929Y-68952014D01*
X183946739Y-68895939D01*
X183983845Y-68863309D01*
X184046760Y-68822523D01*
X184118381Y-68791525D01*
X184198709Y-68770316D01*
X184272300Y-68760119D01*
X184351938Y-68756720D01*
X185001868Y-68756720D01*
X185001868Y-70345276D01*
G37*
G36*
X183250647Y-69278423D02*
G01*
X183250647Y-70357000D01*
X183625804Y-70357000D01*
X183625804Y-69278423D01*
X183250647Y-69278423D01*
G37*
G36*
X183649251Y-68856371D02*
G01*
X183635711Y-68781865D01*
X183632765Y-68774672D01*
X183592653Y-68712772D01*
X183587336Y-68707261D01*
X183527355Y-68665033D01*
X183520291Y-68661832D01*
X183446355Y-68645491D01*
X183438226Y-68645346D01*
X183363719Y-68658886D01*
X183356526Y-68661832D01*
X183294927Y-68701944D01*
X183289482Y-68707261D01*
X183247253Y-68767543D01*
X183244053Y-68774672D01*
X183227348Y-68848245D01*
X183227200Y-68856371D01*
X183241041Y-68930816D01*
X183244053Y-68938071D01*
X183284164Y-68999971D01*
X183289482Y-69005482D01*
X183351756Y-69048758D01*
X183356526Y-69050911D01*
X183430099Y-69067252D01*
X183438226Y-69067397D01*
X183510594Y-69054775D01*
X183520291Y-69050911D01*
X183581829Y-69010737D01*
X183587336Y-69005482D01*
X183629564Y-68945200D01*
X183632765Y-68938071D01*
X183649107Y-68864435D01*
X183649251Y-68856371D01*
G37*
G36*
X182153020Y-69626469D02*
G01*
X182220444Y-69588507D01*
X182294392Y-69565065D01*
X182350124Y-69559791D01*
X182424282Y-69569633D01*
X182451240Y-69578842D01*
X182514644Y-69615730D01*
X182532939Y-69631965D01*
X182577041Y-69690835D01*
X182587894Y-69713664D01*
X182606113Y-69786753D01*
X182607678Y-69818444D01*
X182598327Y-69891693D01*
X182587894Y-69922125D01*
X182550182Y-69985460D01*
X182534039Y-70003458D01*
X182472528Y-70047876D01*
X182452339Y-70056947D01*
X182380131Y-70074154D01*
X182350124Y-70075632D01*
X182272947Y-70065328D01*
X182199685Y-70034416D01*
X182153020Y-70002359D01*
X182153020Y-70320729D01*
X182222606Y-70346856D01*
X182298646Y-70367325D01*
X182372310Y-70378347D01*
X182420099Y-70380447D01*
X182499609Y-70375728D01*
X182576435Y-70361572D01*
X182643948Y-70340513D01*
X182714048Y-70308946D01*
X182778260Y-70269154D01*
X182831526Y-70225841D01*
X182883338Y-70170743D01*
X182927444Y-70108719D01*
X182960853Y-70046323D01*
X182988178Y-69971681D01*
X183003176Y-69898866D01*
X183008800Y-69821328D01*
X183008847Y-69813315D01*
X183004339Y-69735284D01*
X182990815Y-69661474D01*
X182965525Y-69585160D01*
X182962685Y-69578475D01*
X182926966Y-69508686D01*
X182883281Y-69445910D01*
X182836655Y-69394927D01*
X182777945Y-69346016D01*
X182712135Y-69305070D01*
X182646146Y-69274759D01*
X182575685Y-69251962D01*
X182502148Y-69237608D01*
X182425533Y-69231697D01*
X182409841Y-69231528D01*
X182333241Y-69236368D01*
X182260060Y-69250887D01*
X182190298Y-69275085D01*
X182153020Y-69292711D01*
X182153020Y-69626469D01*
G37*
G36*
X181369023Y-69232227D02*
G01*
X181444873Y-69238905D01*
X181517246Y-69252655D01*
X181593581Y-69276225D01*
X181600946Y-69279028D01*
X181671128Y-69310685D01*
X181735012Y-69348924D01*
X181798013Y-69398591D01*
X181847944Y-69449817D01*
X181894439Y-69512365D01*
X181932102Y-69581406D01*
X181959427Y-69655643D01*
X181975409Y-69733775D01*
X181980096Y-69808186D01*
X181979908Y-69824851D01*
X181973347Y-69905301D01*
X181957411Y-69980957D01*
X181932102Y-70051818D01*
X181898299Y-70117120D01*
X181852851Y-70182174D01*
X181798745Y-70240129D01*
X181793402Y-70245017D01*
X181730464Y-70294105D01*
X181666637Y-70331292D01*
X181596512Y-70361396D01*
X181566785Y-70371356D01*
X181489613Y-70390447D01*
X181416670Y-70400532D01*
X181340424Y-70403894D01*
X181305568Y-70403230D01*
X181229444Y-70396880D01*
X181156507Y-70383807D01*
X181079206Y-70361396D01*
X181071707Y-70358705D01*
X181000452Y-70328022D01*
X180935994Y-70290470D01*
X180872943Y-70241228D01*
X180822711Y-70189594D01*
X180775720Y-70126184D01*
X180737388Y-70055848D01*
X180731399Y-70042343D01*
X180707249Y-69972197D01*
X180692759Y-69897686D01*
X180687929Y-69818810D01*
X180687955Y-69816612D01*
X181089098Y-69816612D01*
X181090357Y-69842922D01*
X181109248Y-69916630D01*
X181118517Y-69936264D01*
X181161638Y-69997230D01*
X181176357Y-70011560D01*
X181238941Y-70050719D01*
X181261655Y-70059054D01*
X181334196Y-70069770D01*
X181355909Y-70068858D01*
X181429450Y-70050719D01*
X181448569Y-70041648D01*
X181507120Y-69997230D01*
X181520628Y-69981602D01*
X181559143Y-69916630D01*
X181568707Y-69889733D01*
X181578927Y-69814414D01*
X181577690Y-69789158D01*
X181559143Y-69718060D01*
X181549892Y-69698854D01*
X181507120Y-69638559D01*
X181492258Y-69624229D01*
X181429450Y-69585070D01*
X181409490Y-69577504D01*
X181334196Y-69565653D01*
X181312357Y-69566582D01*
X181238941Y-69585070D01*
X181222493Y-69592755D01*
X181161638Y-69638559D01*
X181147986Y-69654187D01*
X181109248Y-69719159D01*
X181100432Y-69742561D01*
X181089098Y-69816612D01*
X180687955Y-69816612D01*
X180688118Y-69802642D01*
X180694730Y-69724460D01*
X180710787Y-69650715D01*
X180736289Y-69581406D01*
X180770307Y-69517214D01*
X180816486Y-69453297D01*
X180871844Y-69396392D01*
X180877301Y-69391549D01*
X180941396Y-69342760D01*
X181006125Y-69305544D01*
X181077008Y-69275126D01*
X181106912Y-69264908D01*
X181184479Y-69245323D01*
X181257714Y-69234977D01*
X181334196Y-69231528D01*
X181369023Y-69232227D01*
G37*
G36*
X180439900Y-70357000D02*
G01*
X179833201Y-70357000D01*
X179752899Y-70352901D01*
X179675390Y-70340605D01*
X179600674Y-70320111D01*
X179528752Y-70291420D01*
X179460288Y-70255860D01*
X179396312Y-70214759D01*
X179336823Y-70168116D01*
X179281823Y-70115932D01*
X179231768Y-70058802D01*
X179187484Y-69997321D01*
X179148970Y-69931490D01*
X179116226Y-69861309D01*
X179090100Y-69788059D01*
X179071438Y-69713389D01*
X179060241Y-69637300D01*
X179056509Y-69559791D01*
X179478561Y-69559791D01*
X179479330Y-69589746D01*
X179488530Y-69664029D01*
X179510068Y-69738210D01*
X179516155Y-69753267D01*
X179551117Y-69818423D01*
X179600560Y-69878894D01*
X179615730Y-69893245D01*
X179675496Y-69937253D01*
X179745640Y-69971584D01*
X179790176Y-69986330D01*
X179862562Y-70000550D01*
X179941645Y-70005290D01*
X180038732Y-70005290D01*
X180038732Y-69114292D01*
X179941645Y-69114292D01*
X179895556Y-69115922D01*
X179821358Y-69126304D01*
X179747838Y-69148364D01*
X179726732Y-69157185D01*
X179659443Y-69194281D01*
X179602392Y-69241054D01*
X179591502Y-69252320D01*
X179544200Y-69314831D01*
X179510801Y-69382471D01*
X179501513Y-69408535D01*
X179483881Y-69484750D01*
X179478561Y-69559791D01*
X179056509Y-69559791D01*
X179060310Y-69481480D01*
X179071713Y-69404819D01*
X179090718Y-69329806D01*
X179117325Y-69256441D01*
X179150550Y-69186191D01*
X179189408Y-69120520D01*
X179233898Y-69059429D01*
X179284021Y-69002917D01*
X179339022Y-68951214D01*
X179398510Y-68904915D01*
X179462486Y-68864019D01*
X179530951Y-68828528D01*
X179602735Y-68799677D01*
X179677038Y-68779069D01*
X179753860Y-68766704D01*
X179833201Y-68762582D01*
X180439900Y-68762582D01*
X180439900Y-70357000D01*
G37*
G36*
X178396525Y-69230103D02*
G01*
X178471431Y-69245231D01*
X178541401Y-69271096D01*
X178588616Y-69295894D01*
X178653085Y-69340905D01*
X178709928Y-69395293D01*
X178751116Y-69446871D01*
X178789479Y-69509556D01*
X178820570Y-69578475D01*
X178841436Y-69645108D01*
X178855462Y-69721048D01*
X178860138Y-69799759D01*
X178860098Y-69807572D01*
X178855332Y-69883606D01*
X178842624Y-69955849D01*
X178819471Y-70030935D01*
X178790906Y-70094462D01*
X178752212Y-70158226D01*
X178705898Y-70215583D01*
X178667728Y-70252586D01*
X178604719Y-70299847D01*
X178534806Y-70337216D01*
X178471809Y-70360013D01*
X178398214Y-70375338D01*
X178320117Y-70380447D01*
X178257638Y-70376449D01*
X178177200Y-70357417D01*
X178104967Y-70322713D01*
X178040939Y-70272336D01*
X177992587Y-70216682D01*
X177992587Y-70333552D01*
X177617430Y-70333552D01*
X177617430Y-69804156D01*
X177979764Y-69804156D01*
X177980693Y-69825817D01*
X177999182Y-69898311D01*
X178006901Y-69914424D01*
X178050473Y-69975614D01*
X178062850Y-69987601D01*
X178126310Y-70027638D01*
X178145664Y-70034918D01*
X178219367Y-70046323D01*
X178241331Y-70045429D01*
X178314621Y-70027638D01*
X178330683Y-70020116D01*
X178390459Y-69975614D01*
X178403630Y-69960467D01*
X178440651Y-69897212D01*
X178448665Y-69874246D01*
X178458969Y-69800126D01*
X178458092Y-69778392D01*
X178440651Y-69707069D01*
X178433193Y-69691330D01*
X178390459Y-69630866D01*
X178378081Y-69618879D01*
X178314621Y-69578842D01*
X178292044Y-69570507D01*
X178219367Y-69559791D01*
X178198009Y-69560702D01*
X178126310Y-69578842D01*
X178110249Y-69586364D01*
X178050473Y-69630866D01*
X178037124Y-69646012D01*
X177999182Y-69709267D01*
X177991616Y-69729085D01*
X177979764Y-69804156D01*
X177617430Y-69804156D01*
X177617430Y-69254976D01*
X177992587Y-69254976D01*
X177992587Y-69365984D01*
X178026539Y-69333097D01*
X178091106Y-69286096D01*
X178162229Y-69252524D01*
X178239910Y-69232381D01*
X178324147Y-69225667D01*
X178396525Y-69230103D01*
G37*
G36*
X176990214Y-69278423D02*
G01*
X176990214Y-70357000D01*
X177365371Y-70357000D01*
X177365371Y-69278423D01*
X176990214Y-69278423D01*
G37*
G36*
X177388819Y-68856371D02*
G01*
X177375279Y-68781865D01*
X177372332Y-68774672D01*
X177332220Y-68712772D01*
X177326903Y-68707261D01*
X177266922Y-68665033D01*
X177259859Y-68661832D01*
X177185922Y-68645491D01*
X177177793Y-68645346D01*
X177103286Y-68658886D01*
X177096094Y-68661832D01*
X177034494Y-68701944D01*
X177029049Y-68707261D01*
X176986821Y-68767543D01*
X176983620Y-68774672D01*
X176966915Y-68848245D01*
X176966767Y-68856371D01*
X176980608Y-68930816D01*
X176983620Y-68938071D01*
X177023732Y-68999971D01*
X177029049Y-69005482D01*
X177091324Y-69048758D01*
X177096094Y-69050911D01*
X177169667Y-69067252D01*
X177177793Y-69067397D01*
X177250161Y-69054775D01*
X177259859Y-69050911D01*
X177321396Y-69010737D01*
X177326903Y-69005482D01*
X177369132Y-68945200D01*
X177372332Y-68938071D01*
X177388674Y-68864435D01*
X177388819Y-68856371D01*
G37*
G36*
X175997367Y-69544770D02*
G01*
X176070187Y-69513274D01*
X176142054Y-69494851D01*
X176206561Y-69489449D01*
X176280291Y-69503719D01*
X176293390Y-69511064D01*
X176326362Y-69568950D01*
X176321233Y-69600457D01*
X176297786Y-69622806D01*
X176244297Y-69642223D01*
X176172391Y-69658818D01*
X176151607Y-69663472D01*
X176076800Y-69682752D01*
X176004739Y-69711996D01*
X175939695Y-69753870D01*
X175913103Y-69778510D01*
X175868049Y-69840637D01*
X175841697Y-69913673D01*
X175833969Y-69989536D01*
X175840257Y-70064917D01*
X175861094Y-70138928D01*
X175872071Y-70163559D01*
X175911090Y-70226501D01*
X175961469Y-70280046D01*
X175977950Y-70293618D01*
X176042515Y-70334972D01*
X176111886Y-70365334D01*
X176140982Y-70374951D01*
X176214879Y-70392588D01*
X176294237Y-70402085D01*
X176350176Y-70403894D01*
X176432389Y-70399566D01*
X176514164Y-70386583D01*
X176595501Y-70364945D01*
X176676401Y-70334651D01*
X176743482Y-70302795D01*
X176783585Y-70280796D01*
X176645099Y-70009320D01*
X176573795Y-70053431D01*
X176504139Y-70086707D01*
X176426550Y-70111471D01*
X176351113Y-70122084D01*
X176332591Y-70122526D01*
X176259944Y-70108215D01*
X176243930Y-70099079D01*
X176209126Y-70038995D01*
X176214621Y-70003824D01*
X176236969Y-69978179D01*
X176287894Y-69956563D01*
X176362306Y-69939052D01*
X176375455Y-69936413D01*
X176449589Y-69918577D01*
X176521563Y-69894156D01*
X176592403Y-69857577D01*
X176629346Y-69827969D01*
X176673327Y-69766609D01*
X176695810Y-69696694D01*
X176701519Y-69629766D01*
X176695068Y-69552559D01*
X176673837Y-69477775D01*
X176667814Y-69463803D01*
X176629431Y-69399414D01*
X176578169Y-69345007D01*
X176570361Y-69338507D01*
X176504882Y-69295574D01*
X176433456Y-69264799D01*
X176416854Y-69259372D01*
X176340302Y-69241344D01*
X176263734Y-69232861D01*
X176216453Y-69231528D01*
X176138244Y-69234789D01*
X176061017Y-69244572D01*
X175984772Y-69260876D01*
X175909509Y-69283701D01*
X175866942Y-69299672D01*
X175997367Y-69544770D01*
G37*
G36*
X175252915Y-70210820D02*
G01*
X175773885Y-69278423D01*
X175332782Y-69278423D01*
X175045187Y-69831633D01*
X174766017Y-69278423D01*
X174328944Y-69278423D01*
X175194297Y-70896288D01*
X175620745Y-70896288D01*
X175252915Y-70210820D01*
G37*
G36*
X172928334Y-68668427D02*
G01*
X172971481Y-68747601D01*
X173010384Y-68829603D01*
X173045043Y-68914431D01*
X173075458Y-69002087D01*
X173101629Y-69092570D01*
X173123556Y-69185880D01*
X173141239Y-69282018D01*
X173154678Y-69380982D01*
X173163873Y-69482774D01*
X173168825Y-69587393D01*
X173169768Y-69658709D01*
X173168377Y-69737486D01*
X173164204Y-69816785D01*
X173157248Y-69896606D01*
X173152182Y-69941176D01*
X173141012Y-70020620D01*
X173127697Y-70098209D01*
X173112238Y-70173943D01*
X173102723Y-70215217D01*
X173084015Y-70287573D01*
X173060917Y-70364638D01*
X173035386Y-70438197D01*
X173027252Y-70459581D01*
X172998544Y-70527545D01*
X172964651Y-70595858D01*
X172928334Y-70657418D01*
X173157311Y-70788577D01*
X173200018Y-70719282D01*
X173239522Y-70646267D01*
X173275823Y-70569531D01*
X173308923Y-70489074D01*
X173338821Y-70404896D01*
X173360434Y-70334875D01*
X173375298Y-70280796D01*
X173393073Y-70206973D01*
X173408477Y-70131502D01*
X173421512Y-70054383D01*
X173432176Y-69975614D01*
X173440471Y-69895197D01*
X173446396Y-69813132D01*
X173449951Y-69729418D01*
X173451136Y-69644055D01*
X173449945Y-69567851D01*
X173446373Y-69491647D01*
X173440419Y-69415443D01*
X173432085Y-69339240D01*
X173421323Y-69263585D01*
X173408454Y-69189030D01*
X173393479Y-69115574D01*
X173376397Y-69043217D01*
X173356957Y-68972234D01*
X173332405Y-68894787D01*
X173305012Y-68819890D01*
X173285173Y-68771375D01*
X173252841Y-68701015D01*
X173217669Y-68634190D01*
X173179656Y-68570901D01*
X173157311Y-68537268D01*
X172928334Y-68668427D01*
G37*
G36*
X172385382Y-69266699D02*
G01*
X172128927Y-69825771D01*
X171868808Y-69266699D01*
X171444558Y-69266699D01*
X172005096Y-70357000D01*
X172259353Y-70357000D01*
X172813662Y-69266699D01*
X172385382Y-69266699D01*
G37*
G36*
X170882189Y-69114292D02*
G01*
X171116662Y-69114292D01*
X171116662Y-68762582D01*
X170481020Y-68762582D01*
X170481020Y-70357000D01*
X170882189Y-70357000D01*
X170882189Y-69114292D01*
G37*
G36*
X169992657Y-70158064D02*
G01*
X169982147Y-70084974D01*
X169973972Y-70062076D01*
X169935261Y-69998598D01*
X169921216Y-69983308D01*
X169861619Y-69939462D01*
X169842448Y-69930551D01*
X169768334Y-69912412D01*
X169746460Y-69911501D01*
X169673714Y-69922217D01*
X169650839Y-69930551D01*
X169587360Y-69969138D01*
X169572071Y-69983308D01*
X169528225Y-70042905D01*
X169519314Y-70062076D01*
X169501175Y-70136065D01*
X169500263Y-70158064D01*
X169510979Y-70230673D01*
X169519314Y-70253685D01*
X169557901Y-70317163D01*
X169572071Y-70332453D01*
X169631667Y-70375950D01*
X169650839Y-70384843D01*
X169724604Y-70402983D01*
X169746460Y-70403894D01*
X169819412Y-70393178D01*
X169842448Y-70384843D01*
X169905926Y-70346480D01*
X169921216Y-70332453D01*
X169964936Y-70272856D01*
X169973972Y-70253685D01*
X169991763Y-70179795D01*
X169992657Y-70158064D01*
G37*
G36*
X168978561Y-69114292D02*
G01*
X169213034Y-69114292D01*
X169213034Y-68762582D01*
X168577392Y-68762582D01*
X168577392Y-70357000D01*
X168978561Y-70357000D01*
X168978561Y-69114292D01*
G37*
G36*
X168003665Y-70657418D02*
G01*
X167960518Y-70577559D01*
X167921615Y-70495014D01*
X167886956Y-70409784D01*
X167856541Y-70321869D01*
X167830370Y-70231268D01*
X167808443Y-70137981D01*
X167790760Y-70042009D01*
X167777321Y-69943351D01*
X167768126Y-69842008D01*
X167763174Y-69737980D01*
X167762231Y-69667136D01*
X167763651Y-69590484D01*
X167767911Y-69512614D01*
X167775011Y-69433528D01*
X167780183Y-69389065D01*
X167791263Y-69309447D01*
X167804719Y-69231337D01*
X167820552Y-69154733D01*
X167830375Y-69112826D01*
X167849643Y-69039349D01*
X167870767Y-68968944D01*
X167896412Y-68894319D01*
X167907311Y-68865531D01*
X167935612Y-68797166D01*
X167968643Y-68729073D01*
X168003665Y-68668427D01*
X167774688Y-68537268D01*
X167731990Y-68606545D01*
X167692513Y-68679506D01*
X167656256Y-68756153D01*
X167623219Y-68836485D01*
X167593402Y-68920502D01*
X167566804Y-69008204D01*
X167557067Y-69044316D01*
X167539207Y-69117944D01*
X167523728Y-69193381D01*
X167510631Y-69270626D01*
X167499914Y-69349681D01*
X167491580Y-69430544D01*
X167485626Y-69513217D01*
X167482054Y-69597698D01*
X167480863Y-69683988D01*
X167482077Y-69760192D01*
X167485718Y-69836396D01*
X167491786Y-69912600D01*
X167500281Y-69988803D01*
X167510974Y-70064343D01*
X167524003Y-70138555D01*
X167539367Y-70211438D01*
X167557067Y-70282994D01*
X167579478Y-70361733D01*
X167604672Y-70438443D01*
X167632647Y-70513124D01*
X167649391Y-70553737D01*
X167681372Y-70624451D01*
X167715903Y-70691514D01*
X167752985Y-70754926D01*
X167774688Y-70788577D01*
X168003665Y-70657418D01*
G37*
D11*
X184711465Y-70781339D02*
X184711465Y-71317053D01*
X184711465Y-71317053D02*
X184747180Y-71424196D01*
X184747180Y-71424196D02*
X184818608Y-71495625D01*
X184818608Y-71495625D02*
X184925751Y-71531339D01*
X184925751Y-71531339D02*
X184997180Y-71531339D01*
X184032894Y-71531339D02*
X184032894Y-71138482D01*
X184032894Y-71138482D02*
X184068608Y-71067053D01*
X184068608Y-71067053D02*
X184140036Y-71031339D01*
X184140036Y-71031339D02*
X184282894Y-71031339D01*
X184282894Y-71031339D02*
X184354322Y-71067053D01*
X184032894Y-71495625D02*
X184104322Y-71531339D01*
X184104322Y-71531339D02*
X184282894Y-71531339D01*
X184282894Y-71531339D02*
X184354322Y-71495625D01*
X184354322Y-71495625D02*
X184390036Y-71424196D01*
X184390036Y-71424196D02*
X184390036Y-71352767D01*
X184390036Y-71352767D02*
X184354322Y-71281339D01*
X184354322Y-71281339D02*
X184282894Y-71245625D01*
X184282894Y-71245625D02*
X184104322Y-71245625D01*
X184104322Y-71245625D02*
X184032894Y-71209910D01*
X183711465Y-71495625D02*
X183640037Y-71531339D01*
X183640037Y-71531339D02*
X183497180Y-71531339D01*
X183497180Y-71531339D02*
X183425751Y-71495625D01*
X183425751Y-71495625D02*
X183390037Y-71424196D01*
X183390037Y-71424196D02*
X183390037Y-71388482D01*
X183390037Y-71388482D02*
X183425751Y-71317053D01*
X183425751Y-71317053D02*
X183497180Y-71281339D01*
X183497180Y-71281339D02*
X183604323Y-71281339D01*
X183604323Y-71281339D02*
X183675751Y-71245625D01*
X183675751Y-71245625D02*
X183711465Y-71174196D01*
X183711465Y-71174196D02*
X183711465Y-71138482D01*
X183711465Y-71138482D02*
X183675751Y-71067053D01*
X183675751Y-71067053D02*
X183604323Y-71031339D01*
X183604323Y-71031339D02*
X183497180Y-71031339D01*
X183497180Y-71031339D02*
X183425751Y-71067053D01*
X182961465Y-71531339D02*
X183032894Y-71495625D01*
X183032894Y-71495625D02*
X183068608Y-71459910D01*
X183068608Y-71459910D02*
X183104322Y-71388482D01*
X183104322Y-71388482D02*
X183104322Y-71174196D01*
X183104322Y-71174196D02*
X183068608Y-71102767D01*
X183068608Y-71102767D02*
X183032894Y-71067053D01*
X183032894Y-71067053D02*
X182961465Y-71031339D01*
X182961465Y-71031339D02*
X182854322Y-71031339D01*
X182854322Y-71031339D02*
X182782894Y-71067053D01*
X182782894Y-71067053D02*
X182747180Y-71102767D01*
X182747180Y-71102767D02*
X182711465Y-71174196D01*
X182711465Y-71174196D02*
X182711465Y-71388482D01*
X182711465Y-71388482D02*
X182747180Y-71459910D01*
X182747180Y-71459910D02*
X182782894Y-71495625D01*
X182782894Y-71495625D02*
X182854322Y-71531339D01*
X182854322Y-71531339D02*
X182961465Y-71531339D01*
X182390037Y-71031339D02*
X182390037Y-71531339D01*
X182390037Y-71102767D02*
X182354323Y-71067053D01*
X182354323Y-71067053D02*
X182282894Y-71031339D01*
X182282894Y-71031339D02*
X182175751Y-71031339D01*
X182175751Y-71031339D02*
X182104323Y-71067053D01*
X182104323Y-71067053D02*
X182068609Y-71138482D01*
X182068609Y-71138482D02*
X182068609Y-71531339D01*
X181175751Y-71317053D02*
X180818609Y-71317053D01*
X181247180Y-71531339D02*
X180997180Y-70781339D01*
X180997180Y-70781339D02*
X180747180Y-71531339D01*
X180390037Y-71531339D02*
X180461466Y-71495625D01*
X180461466Y-71495625D02*
X180497180Y-71424196D01*
X180497180Y-71424196D02*
X180497180Y-70781339D01*
X179818609Y-71495625D02*
X179890037Y-71531339D01*
X179890037Y-71531339D02*
X180032895Y-71531339D01*
X180032895Y-71531339D02*
X180104323Y-71495625D01*
X180104323Y-71495625D02*
X180140037Y-71424196D01*
X180140037Y-71424196D02*
X180140037Y-71138482D01*
X180140037Y-71138482D02*
X180104323Y-71067053D01*
X180104323Y-71067053D02*
X180032895Y-71031339D01*
X180032895Y-71031339D02*
X179890037Y-71031339D01*
X179890037Y-71031339D02*
X179818609Y-71067053D01*
X179818609Y-71067053D02*
X179782895Y-71138482D01*
X179782895Y-71138482D02*
X179782895Y-71209910D01*
X179782895Y-71209910D02*
X180140037Y-71281339D01*
X179532895Y-71531339D02*
X179140038Y-71031339D01*
X179532895Y-71031339D02*
X179140038Y-71531339D01*
X178532895Y-71531339D02*
X178532895Y-71138482D01*
X178532895Y-71138482D02*
X178568609Y-71067053D01*
X178568609Y-71067053D02*
X178640037Y-71031339D01*
X178640037Y-71031339D02*
X178782895Y-71031339D01*
X178782895Y-71031339D02*
X178854323Y-71067053D01*
X178532895Y-71495625D02*
X178604323Y-71531339D01*
X178604323Y-71531339D02*
X178782895Y-71531339D01*
X178782895Y-71531339D02*
X178854323Y-71495625D01*
X178854323Y-71495625D02*
X178890037Y-71424196D01*
X178890037Y-71424196D02*
X178890037Y-71352767D01*
X178890037Y-71352767D02*
X178854323Y-71281339D01*
X178854323Y-71281339D02*
X178782895Y-71245625D01*
X178782895Y-71245625D02*
X178604323Y-71245625D01*
X178604323Y-71245625D02*
X178532895Y-71209910D01*
X178175752Y-71031339D02*
X178175752Y-71531339D01*
X178175752Y-71102767D02*
X178140038Y-71067053D01*
X178140038Y-71067053D02*
X178068609Y-71031339D01*
X178068609Y-71031339D02*
X177961466Y-71031339D01*
X177961466Y-71031339D02*
X177890038Y-71067053D01*
X177890038Y-71067053D02*
X177854324Y-71138482D01*
X177854324Y-71138482D02*
X177854324Y-71531339D01*
X177175753Y-71531339D02*
X177175753Y-70781339D01*
X177175753Y-71495625D02*
X177247181Y-71531339D01*
X177247181Y-71531339D02*
X177390038Y-71531339D01*
X177390038Y-71531339D02*
X177461467Y-71495625D01*
X177461467Y-71495625D02*
X177497181Y-71459910D01*
X177497181Y-71459910D02*
X177532895Y-71388482D01*
X177532895Y-71388482D02*
X177532895Y-71174196D01*
X177532895Y-71174196D02*
X177497181Y-71102767D01*
X177497181Y-71102767D02*
X177461467Y-71067053D01*
X177461467Y-71067053D02*
X177390038Y-71031339D01*
X177390038Y-71031339D02*
X177247181Y-71031339D01*
X177247181Y-71031339D02*
X177175753Y-71067053D01*
X176532896Y-71495625D02*
X176604324Y-71531339D01*
X176604324Y-71531339D02*
X176747182Y-71531339D01*
X176747182Y-71531339D02*
X176818610Y-71495625D01*
X176818610Y-71495625D02*
X176854324Y-71424196D01*
X176854324Y-71424196D02*
X176854324Y-71138482D01*
X176854324Y-71138482D02*
X176818610Y-71067053D01*
X176818610Y-71067053D02*
X176747182Y-71031339D01*
X176747182Y-71031339D02*
X176604324Y-71031339D01*
X176604324Y-71031339D02*
X176532896Y-71067053D01*
X176532896Y-71067053D02*
X176497182Y-71138482D01*
X176497182Y-71138482D02*
X176497182Y-71209910D01*
X176497182Y-71209910D02*
X176854324Y-71281339D01*
X176175753Y-71531339D02*
X176175753Y-71031339D01*
X176175753Y-71174196D02*
X176140039Y-71102767D01*
X176140039Y-71102767D02*
X176104325Y-71067053D01*
X176104325Y-71067053D02*
X176032896Y-71031339D01*
X176032896Y-71031339D02*
X175961467Y-71031339D01*
M02*
