%TF.GenerationSoftware,KiCad,Pcbnew,8.0.4*%
%TF.CreationDate,2024-08-22T22:51:51+01:00*%
%TF.ProjectId,PicoChain,5069636f-4368-4616-996e-2e6b69636164,v1.1*%
%TF.SameCoordinates,Original*%
%TF.FileFunction,Soldermask,Top*%
%TF.FilePolarity,Negative*%
%FSLAX46Y46*%
G04 Gerber Fmt 4.6, Leading zero omitted, Abs format (unit mm)*
G04 Created by KiCad (PCBNEW 8.0.4) date 2024-08-22 22:51:51*
%MOMM*%
%LPD*%
G01*
G04 APERTURE LIST*
G04 Aperture macros list*
%AMRoundRect*
0 Rectangle with rounded corners*
0 $1 Rounding radius*
0 $2 $3 $4 $5 $6 $7 $8 $9 X,Y pos of 4 corners*
0 Add a 4 corners polygon primitive as box body*
4,1,4,$2,$3,$4,$5,$6,$7,$8,$9,$2,$3,0*
0 Add four circle primitives for the rounded corners*
1,1,$1+$1,$2,$3*
1,1,$1+$1,$4,$5*
1,1,$1+$1,$6,$7*
1,1,$1+$1,$8,$9*
0 Add four rect primitives between the rounded corners*
20,1,$1+$1,$2,$3,$4,$5,0*
20,1,$1+$1,$4,$5,$6,$7,0*
20,1,$1+$1,$6,$7,$8,$9,0*
20,1,$1+$1,$8,$9,$2,$3,0*%
G04 Aperture macros list end*
%ADD10RoundRect,0.250000X0.412500X0.925000X-0.412500X0.925000X-0.412500X-0.925000X0.412500X-0.925000X0*%
%ADD11RoundRect,0.149250X-1.847750X-0.447750X1.847750X-0.447750X1.847750X0.447750X-1.847750X0.447750X0*%
%ADD12RoundRect,0.102000X-3.810000X-5.420000X3.810000X-5.420000X3.810000X5.420000X-3.810000X5.420000X0*%
%ADD13RoundRect,0.250000X-0.425000X0.450000X-0.425000X-0.450000X0.425000X-0.450000X0.425000X0.450000X0*%
%ADD14RoundRect,0.102000X-0.754000X0.754000X-0.754000X-0.754000X0.754000X-0.754000X0.754000X0.754000X0*%
%ADD15R,1.700000X1.700000*%
%ADD16O,1.700000X1.700000*%
%ADD17C,3.200000*%
%ADD18R,1.500000X1.500000*%
%ADD19C,1.500000*%
%ADD20RoundRect,0.250000X0.350000X-0.850000X0.350000X0.850000X-0.350000X0.850000X-0.350000X-0.850000X0*%
%ADD21RoundRect,0.249997X2.650003X-2.950003X2.650003X2.950003X-2.650003X2.950003X-2.650003X-2.950003X0*%
%ADD22R,0.250000X1.100000*%
G04 APERTURE END LIST*
D10*
%TO.C,C6*%
X160303500Y-103950000D03*
X157228500Y-103950000D03*
%TD*%
D11*
%TO.C,U5*%
X163796000Y-102426000D03*
X163796000Y-104966000D03*
X163796000Y-107506000D03*
D12*
X174676000Y-104966000D03*
%TD*%
D13*
%TO.C,C4*%
X153940000Y-81264000D03*
X153940000Y-83964000D03*
%TD*%
D14*
%TO.C,U2*%
X171809400Y-114542600D03*
X174349400Y-114542600D03*
X169269400Y-114542600D03*
X164189400Y-114542600D03*
X176889400Y-114542600D03*
X151489400Y-114542600D03*
X138789400Y-114542600D03*
X176889400Y-96762600D03*
X164189400Y-96762600D03*
X151489400Y-96762600D03*
X138789400Y-96762600D03*
X181969400Y-96762600D03*
X179429400Y-96762600D03*
X174349400Y-96762600D03*
X171809400Y-96762600D03*
X169269400Y-96762600D03*
X166729400Y-96762600D03*
X161649400Y-96762600D03*
X159109400Y-96762600D03*
X156569400Y-96762600D03*
X154029400Y-96762600D03*
X148949400Y-96762600D03*
X146409400Y-96762600D03*
X143869400Y-96762600D03*
X141329400Y-96762600D03*
X136249400Y-96762600D03*
X133709400Y-96762600D03*
X133709400Y-114542600D03*
X136249400Y-114542600D03*
X141329400Y-114542600D03*
X143869400Y-114542600D03*
X146409400Y-114542600D03*
X148949400Y-114542600D03*
X154029400Y-114542600D03*
X159109400Y-114542600D03*
X161649400Y-114542600D03*
X166729400Y-114542600D03*
X156569400Y-114542600D03*
X181969400Y-114542600D03*
X179429400Y-114542600D03*
%TD*%
D15*
%TO.C,+12V*%
X128540000Y-112581000D03*
D16*
X128540000Y-115121000D03*
%TD*%
D17*
%TO.C,J1*%
X145014500Y-77046000D03*
X133584500Y-77046000D03*
D18*
X143744500Y-83396000D03*
D19*
X142474500Y-85936000D03*
X141204500Y-83396000D03*
X139934500Y-85936000D03*
X138664500Y-83396000D03*
X137394500Y-85936000D03*
X136124500Y-83396000D03*
X134854500Y-85936000D03*
%TD*%
D13*
%TO.C,C1*%
X150384000Y-81264000D03*
X150384000Y-83964000D03*
%TD*%
D15*
%TO.C,J6*%
X181969400Y-119622600D03*
D16*
X179429400Y-119622600D03*
X176889400Y-119622600D03*
X174349400Y-119622600D03*
X171809400Y-119622600D03*
X169269400Y-119622600D03*
X166729400Y-119622600D03*
X164189400Y-119622600D03*
X161649400Y-119622600D03*
X159109400Y-119622600D03*
X156569400Y-119622600D03*
X154029400Y-119622600D03*
X151489400Y-119622600D03*
X148949400Y-119622600D03*
X146409400Y-119622600D03*
X143869400Y-119622600D03*
X141329400Y-119622600D03*
X138789400Y-119622600D03*
X136249400Y-119622600D03*
X133709400Y-119622600D03*
%TD*%
D13*
%TO.C,C3*%
X162068000Y-81518000D03*
X162068000Y-84218000D03*
%TD*%
%TO.C,C2*%
X165624000Y-81518000D03*
X165624000Y-84218000D03*
%TD*%
D20*
%TO.C,U3*%
X161059000Y-78857000D03*
D21*
X163339000Y-72557000D03*
D20*
X165619000Y-78857000D03*
%TD*%
D15*
%TO.C,J5*%
X133709400Y-91682600D03*
D16*
X136249400Y-91682600D03*
X138789400Y-91682600D03*
X141329400Y-91682600D03*
X143869400Y-91682600D03*
X146409400Y-91682600D03*
X148949400Y-91682600D03*
X151489400Y-91682600D03*
X154029400Y-91682600D03*
X156569400Y-91682600D03*
X159109400Y-91682600D03*
X161649400Y-91682600D03*
X164189400Y-91682600D03*
X166729400Y-91682600D03*
X169269400Y-91682600D03*
X171809400Y-91682600D03*
X174349400Y-91682600D03*
X176889400Y-91682600D03*
X179429400Y-91682600D03*
X181969400Y-91682600D03*
%TD*%
D22*
%TO.C,U1*%
X157258000Y-87304000D03*
X157758000Y-87304000D03*
X158258000Y-87304000D03*
X158758000Y-87304000D03*
X159258000Y-87304000D03*
X159258000Y-83004000D03*
X158758000Y-83004000D03*
X158258000Y-83004000D03*
X157758000Y-83004000D03*
X157258000Y-83004000D03*
%TD*%
D10*
%TO.C,C5*%
X160303500Y-108776000D03*
X157228500Y-108776000D03*
%TD*%
D17*
%TO.C,J2*%
X183114500Y-77046000D03*
X171684500Y-77046000D03*
D18*
X181844500Y-83396000D03*
D19*
X180574500Y-85936000D03*
X179304500Y-83396000D03*
X178034500Y-85936000D03*
X176764500Y-83396000D03*
X175494500Y-85936000D03*
X174224500Y-83396000D03*
X172954500Y-85936000D03*
%TD*%
D20*
%TO.C,U4*%
X150390000Y-78754000D03*
D21*
X152670000Y-72454000D03*
D20*
X154950000Y-78754000D03*
%TD*%
D15*
%TO.C,+5V*%
X128540000Y-96071000D03*
D16*
X128540000Y-98611000D03*
%TD*%
M02*
