%TF.GenerationSoftware,KiCad,Pcbnew,8.0.4*%
%TF.CreationDate,2024-08-14T15:44:39+01:00*%
%TF.ProjectId,PicoChain,5069636f-4368-4616-996e-2e6b69636164,rev?*%
%TF.SameCoordinates,Original*%
%TF.FileFunction,Legend,Top*%
%TF.FilePolarity,Positive*%
%FSLAX46Y46*%
G04 Gerber Fmt 4.6, Leading zero omitted, Abs format (unit mm)*
G04 Created by KiCad (PCBNEW 8.0.4) date 2024-08-14 15:44:39*
%MOMM*%
%LPD*%
G01*
G04 APERTURE LIST*
%ADD10C,0.300000*%
%ADD11C,0.150000*%
%ADD12C,0.120000*%
%ADD13C,0.127000*%
%ADD14C,0.200000*%
%ADD15C,0.152400*%
G04 APERTURE END LIST*
D10*
G36*
X127751692Y-78643526D02*
G01*
X127835704Y-78656852D01*
X127911730Y-78680174D01*
X127979771Y-78713490D01*
X128039826Y-78756801D01*
X128066859Y-78782205D01*
X128114047Y-78839765D01*
X128151472Y-78906110D01*
X128179134Y-78981239D01*
X128197033Y-79065152D01*
X128204491Y-79141790D01*
X128205711Y-79190701D01*
X128205711Y-79434699D01*
X128733276Y-79434699D01*
X128733276Y-79835868D01*
X127144720Y-79835868D01*
X127144720Y-79294748D01*
X127478845Y-79294748D01*
X127478845Y-79434699D01*
X127871587Y-79434699D01*
X127871587Y-79294748D01*
X127864683Y-79215687D01*
X127839178Y-79144122D01*
X127787017Y-79089597D01*
X127710310Y-79064152D01*
X127675216Y-79062107D01*
X127598700Y-79073239D01*
X127534266Y-79113224D01*
X127494378Y-79182290D01*
X127479612Y-79266577D01*
X127478845Y-79294748D01*
X127144720Y-79294748D01*
X127144720Y-79185938D01*
X127148119Y-79106300D01*
X127158316Y-79032709D01*
X127179525Y-78952381D01*
X127210523Y-78880760D01*
X127251309Y-78817845D01*
X127283939Y-78780739D01*
X127340014Y-78732929D01*
X127404101Y-78695010D01*
X127476198Y-78666983D01*
X127556308Y-78648848D01*
X127644428Y-78640605D01*
X127675582Y-78640055D01*
X127751692Y-78643526D01*
G37*
G36*
X127666423Y-78084647D02*
G01*
X128745000Y-78084647D01*
X128745000Y-78459804D01*
X127666423Y-78459804D01*
X127666423Y-78084647D01*
G37*
G36*
X127244371Y-78483251D02*
G01*
X127169865Y-78469711D01*
X127162672Y-78466765D01*
X127100772Y-78426653D01*
X127095261Y-78421336D01*
X127053033Y-78361355D01*
X127049832Y-78354291D01*
X127033491Y-78280355D01*
X127033346Y-78272226D01*
X127046886Y-78197719D01*
X127049832Y-78190526D01*
X127089944Y-78128927D01*
X127095261Y-78123482D01*
X127155543Y-78081253D01*
X127162672Y-78078053D01*
X127236245Y-78061348D01*
X127244371Y-78061200D01*
X127318816Y-78075041D01*
X127326071Y-78078053D01*
X127387971Y-78118164D01*
X127393482Y-78123482D01*
X127436758Y-78185756D01*
X127438911Y-78190526D01*
X127455252Y-78264099D01*
X127455397Y-78272226D01*
X127442775Y-78344594D01*
X127438911Y-78354291D01*
X127398737Y-78415829D01*
X127393482Y-78421336D01*
X127333200Y-78463564D01*
X127326071Y-78466765D01*
X127252435Y-78483107D01*
X127244371Y-78483251D01*
G37*
G36*
X128014469Y-76987020D02*
G01*
X127976507Y-77054444D01*
X127953065Y-77128392D01*
X127947791Y-77184124D01*
X127957633Y-77258282D01*
X127966842Y-77285240D01*
X128003730Y-77348644D01*
X128019965Y-77366939D01*
X128078835Y-77411041D01*
X128101664Y-77421894D01*
X128174753Y-77440113D01*
X128206444Y-77441678D01*
X128279693Y-77432327D01*
X128310125Y-77421894D01*
X128373460Y-77384182D01*
X128391458Y-77368039D01*
X128435876Y-77306528D01*
X128444947Y-77286339D01*
X128462154Y-77214131D01*
X128463632Y-77184124D01*
X128453328Y-77106947D01*
X128422416Y-77033685D01*
X128390359Y-76987020D01*
X128708729Y-76987020D01*
X128734856Y-77056606D01*
X128755325Y-77132646D01*
X128766347Y-77206310D01*
X128768447Y-77254099D01*
X128763728Y-77333609D01*
X128749572Y-77410435D01*
X128728513Y-77477948D01*
X128696946Y-77548048D01*
X128657154Y-77612260D01*
X128613841Y-77665526D01*
X128558743Y-77717338D01*
X128496719Y-77761444D01*
X128434323Y-77794853D01*
X128359681Y-77822178D01*
X128286866Y-77837176D01*
X128209328Y-77842800D01*
X128201315Y-77842847D01*
X128123284Y-77838339D01*
X128049474Y-77824815D01*
X127973160Y-77799525D01*
X127966475Y-77796685D01*
X127896686Y-77760966D01*
X127833910Y-77717281D01*
X127782927Y-77670655D01*
X127734016Y-77611945D01*
X127693070Y-77546135D01*
X127662759Y-77480146D01*
X127639962Y-77409685D01*
X127625608Y-77336148D01*
X127619697Y-77259533D01*
X127619528Y-77243841D01*
X127624368Y-77167241D01*
X127638887Y-77094060D01*
X127663085Y-77024298D01*
X127680711Y-76987020D01*
X128014469Y-76987020D01*
G37*
G36*
X128285686Y-75526759D02*
G01*
X128360197Y-75541249D01*
X128430343Y-75565399D01*
X128443848Y-75571388D01*
X128514184Y-75609720D01*
X128577594Y-75656711D01*
X128629228Y-75706943D01*
X128678470Y-75769994D01*
X128716022Y-75834452D01*
X128746705Y-75905707D01*
X128749396Y-75913206D01*
X128771807Y-75990507D01*
X128784880Y-76063444D01*
X128791230Y-76139568D01*
X128791894Y-76174424D01*
X128788532Y-76250670D01*
X128778447Y-76323613D01*
X128759356Y-76400785D01*
X128749396Y-76430512D01*
X128719292Y-76500637D01*
X128682105Y-76564464D01*
X128633017Y-76627402D01*
X128628129Y-76632745D01*
X128570174Y-76686851D01*
X128505120Y-76732299D01*
X128439818Y-76766102D01*
X128368957Y-76791411D01*
X128293301Y-76807347D01*
X128212851Y-76813908D01*
X128196186Y-76814096D01*
X128121775Y-76809409D01*
X128043643Y-76793427D01*
X127969406Y-76766102D01*
X127900365Y-76728439D01*
X127837817Y-76681944D01*
X127786591Y-76632013D01*
X127736924Y-76569012D01*
X127698685Y-76505128D01*
X127667028Y-76434946D01*
X127664225Y-76427581D01*
X127640655Y-76351246D01*
X127626905Y-76278873D01*
X127620227Y-76203023D01*
X127619528Y-76168196D01*
X127953653Y-76168196D01*
X127965504Y-76243490D01*
X127973070Y-76263450D01*
X128012229Y-76326258D01*
X128026559Y-76341120D01*
X128086854Y-76383892D01*
X128106060Y-76393143D01*
X128177158Y-76411690D01*
X128202414Y-76412927D01*
X128277733Y-76402707D01*
X128304630Y-76393143D01*
X128369602Y-76354628D01*
X128385230Y-76341120D01*
X128429648Y-76282569D01*
X128438719Y-76263450D01*
X128456858Y-76189909D01*
X128457770Y-76168196D01*
X128447054Y-76095655D01*
X128438719Y-76072941D01*
X128399560Y-76010357D01*
X128385230Y-75995638D01*
X128324264Y-75952517D01*
X128304630Y-75943248D01*
X128230922Y-75924357D01*
X128204612Y-75923098D01*
X128130561Y-75934432D01*
X128107159Y-75943248D01*
X128042187Y-75981986D01*
X128026559Y-75995638D01*
X127980755Y-76056493D01*
X127973070Y-76072941D01*
X127954582Y-76146357D01*
X127953653Y-76168196D01*
X127619528Y-76168196D01*
X127622977Y-76091714D01*
X127633323Y-76018479D01*
X127652908Y-75940912D01*
X127663126Y-75911008D01*
X127693544Y-75840125D01*
X127730760Y-75775396D01*
X127779549Y-75711301D01*
X127784392Y-75705844D01*
X127841297Y-75650486D01*
X127905214Y-75604307D01*
X127969406Y-75570289D01*
X128038715Y-75544787D01*
X128112460Y-75528730D01*
X128190642Y-75522118D01*
X128206810Y-75521929D01*
X128285686Y-75526759D01*
G37*
G36*
X128025300Y-73894241D02*
G01*
X128101389Y-73905438D01*
X128176059Y-73924100D01*
X128249309Y-73950226D01*
X128319490Y-73982970D01*
X128385321Y-74021484D01*
X128446802Y-74065768D01*
X128503932Y-74115823D01*
X128556116Y-74170823D01*
X128602759Y-74230312D01*
X128643860Y-74294288D01*
X128679420Y-74362752D01*
X128708111Y-74434674D01*
X128728605Y-74509390D01*
X128740901Y-74586899D01*
X128745000Y-74667201D01*
X128745000Y-75273900D01*
X127150582Y-75273900D01*
X127150582Y-74775645D01*
X127502292Y-74775645D01*
X127502292Y-74872732D01*
X128393290Y-74872732D01*
X128393290Y-74775645D01*
X128388550Y-74696562D01*
X128374330Y-74624176D01*
X128359584Y-74579640D01*
X128325253Y-74509496D01*
X128281245Y-74449730D01*
X128266894Y-74434560D01*
X128206423Y-74385117D01*
X128141267Y-74350155D01*
X128126210Y-74344068D01*
X128052029Y-74322530D01*
X127977746Y-74313330D01*
X127947791Y-74312561D01*
X127872750Y-74317881D01*
X127796535Y-74335513D01*
X127770471Y-74344801D01*
X127702831Y-74378200D01*
X127640320Y-74425502D01*
X127629054Y-74436392D01*
X127582281Y-74493443D01*
X127545185Y-74560732D01*
X127536364Y-74581838D01*
X127514304Y-74655358D01*
X127503922Y-74729556D01*
X127502292Y-74775645D01*
X127150582Y-74775645D01*
X127150582Y-74667201D01*
X127154704Y-74587860D01*
X127167069Y-74511038D01*
X127187677Y-74436735D01*
X127216528Y-74364951D01*
X127252019Y-74296486D01*
X127292915Y-74232510D01*
X127339214Y-74173022D01*
X127390917Y-74118021D01*
X127447429Y-74067898D01*
X127508520Y-74023408D01*
X127574191Y-73984550D01*
X127644441Y-73951325D01*
X127717806Y-73924718D01*
X127792819Y-73905713D01*
X127869480Y-73894310D01*
X127947791Y-73890509D01*
X128025300Y-73894241D01*
G37*
G36*
X128721552Y-72826587D02*
G01*
X128604682Y-72826587D01*
X128660336Y-72874939D01*
X128710713Y-72938967D01*
X128745417Y-73011200D01*
X128764449Y-73091638D01*
X128768447Y-73154117D01*
X128763338Y-73232214D01*
X128748013Y-73305809D01*
X128725216Y-73368806D01*
X128687847Y-73438719D01*
X128640586Y-73501728D01*
X128603583Y-73539898D01*
X128546226Y-73586212D01*
X128482462Y-73624906D01*
X128418935Y-73653471D01*
X128343849Y-73676624D01*
X128271606Y-73689332D01*
X128195572Y-73694098D01*
X128187759Y-73694138D01*
X128109048Y-73689462D01*
X128033108Y-73675436D01*
X127966475Y-73654570D01*
X127897556Y-73623479D01*
X127834871Y-73585116D01*
X127783293Y-73543928D01*
X127728905Y-73487085D01*
X127683894Y-73422616D01*
X127659096Y-73375401D01*
X127633231Y-73305431D01*
X127618103Y-73230525D01*
X127613667Y-73158147D01*
X127620381Y-73073910D01*
X127625708Y-73053367D01*
X127947791Y-73053367D01*
X127958507Y-73126044D01*
X127966842Y-73148621D01*
X128006879Y-73212081D01*
X128018866Y-73224459D01*
X128079330Y-73267193D01*
X128095069Y-73274651D01*
X128166392Y-73292092D01*
X128188126Y-73292969D01*
X128262246Y-73282665D01*
X128285212Y-73274651D01*
X128348467Y-73237630D01*
X128363614Y-73224459D01*
X128408116Y-73164683D01*
X128415638Y-73148621D01*
X128433429Y-73075331D01*
X128434323Y-73053367D01*
X128422918Y-72979664D01*
X128415638Y-72960310D01*
X128375601Y-72896850D01*
X128363614Y-72884473D01*
X128302424Y-72840901D01*
X128286311Y-72833182D01*
X128213817Y-72814693D01*
X128192156Y-72813764D01*
X128117085Y-72825616D01*
X128097267Y-72833182D01*
X128034012Y-72871124D01*
X128018866Y-72884473D01*
X127974364Y-72944249D01*
X127966842Y-72960310D01*
X127948702Y-73032009D01*
X127947791Y-73053367D01*
X127625708Y-73053367D01*
X127640524Y-72996229D01*
X127674096Y-72925106D01*
X127721097Y-72860539D01*
X127753984Y-72826587D01*
X127642976Y-72826587D01*
X127642976Y-72451430D01*
X128721552Y-72451430D01*
X128721552Y-72826587D01*
G37*
G36*
X127666423Y-71824214D02*
G01*
X128745000Y-71824214D01*
X128745000Y-72199371D01*
X127666423Y-72199371D01*
X127666423Y-71824214D01*
G37*
G36*
X127244371Y-72222819D02*
G01*
X127169865Y-72209279D01*
X127162672Y-72206332D01*
X127100772Y-72166220D01*
X127095261Y-72160903D01*
X127053033Y-72100922D01*
X127049832Y-72093859D01*
X127033491Y-72019922D01*
X127033346Y-72011793D01*
X127046886Y-71937286D01*
X127049832Y-71930094D01*
X127089944Y-71868494D01*
X127095261Y-71863049D01*
X127155543Y-71820821D01*
X127162672Y-71817620D01*
X127236245Y-71800915D01*
X127244371Y-71800767D01*
X127318816Y-71814608D01*
X127326071Y-71817620D01*
X127387971Y-71857732D01*
X127393482Y-71863049D01*
X127436758Y-71925324D01*
X127438911Y-71930094D01*
X127455252Y-72003667D01*
X127455397Y-72011793D01*
X127442775Y-72084161D01*
X127438911Y-72093859D01*
X127398737Y-72155396D01*
X127393482Y-72160903D01*
X127333200Y-72203132D01*
X127326071Y-72206332D01*
X127252435Y-72222674D01*
X127244371Y-72222819D01*
G37*
G36*
X127932770Y-70831367D02*
G01*
X127901274Y-70904187D01*
X127882851Y-70976054D01*
X127877449Y-71040561D01*
X127891719Y-71114291D01*
X127899064Y-71127390D01*
X127956950Y-71160362D01*
X127988457Y-71155233D01*
X128010806Y-71131786D01*
X128030223Y-71078297D01*
X128046818Y-71006391D01*
X128051472Y-70985607D01*
X128070752Y-70910800D01*
X128099996Y-70838739D01*
X128141870Y-70773695D01*
X128166510Y-70747103D01*
X128228637Y-70702049D01*
X128301673Y-70675697D01*
X128377536Y-70667969D01*
X128452917Y-70674257D01*
X128526928Y-70695094D01*
X128551559Y-70706071D01*
X128614501Y-70745090D01*
X128668046Y-70795469D01*
X128681618Y-70811950D01*
X128722972Y-70876515D01*
X128753334Y-70945886D01*
X128762951Y-70974982D01*
X128780588Y-71048879D01*
X128790085Y-71128237D01*
X128791894Y-71184176D01*
X128787566Y-71266389D01*
X128774583Y-71348164D01*
X128752945Y-71429501D01*
X128722651Y-71510401D01*
X128690795Y-71577482D01*
X128668796Y-71617585D01*
X128397320Y-71479099D01*
X128441431Y-71407795D01*
X128474707Y-71338139D01*
X128499471Y-71260550D01*
X128510084Y-71185113D01*
X128510526Y-71166591D01*
X128496215Y-71093944D01*
X128487079Y-71077930D01*
X128426995Y-71043126D01*
X128391824Y-71048621D01*
X128366179Y-71070969D01*
X128344563Y-71121894D01*
X128327052Y-71196306D01*
X128324413Y-71209455D01*
X128306577Y-71283589D01*
X128282156Y-71355563D01*
X128245577Y-71426403D01*
X128215969Y-71463346D01*
X128154609Y-71507327D01*
X128084694Y-71529810D01*
X128017766Y-71535519D01*
X127940559Y-71529068D01*
X127865775Y-71507837D01*
X127851803Y-71501814D01*
X127787414Y-71463431D01*
X127733007Y-71412169D01*
X127726507Y-71404361D01*
X127683574Y-71338882D01*
X127652799Y-71267456D01*
X127647372Y-71250854D01*
X127629344Y-71174302D01*
X127620861Y-71097734D01*
X127619528Y-71050453D01*
X127622789Y-70972244D01*
X127632572Y-70895017D01*
X127648876Y-70818772D01*
X127671701Y-70743509D01*
X127687672Y-70700942D01*
X127932770Y-70831367D01*
G37*
G36*
X128598820Y-70086915D02*
G01*
X127666423Y-70607885D01*
X127666423Y-70166782D01*
X128219633Y-69879187D01*
X127666423Y-69600017D01*
X127666423Y-69162944D01*
X129284288Y-70028297D01*
X129284288Y-70454745D01*
X128598820Y-70086915D01*
G37*
G36*
X133735699Y-98478119D02*
G01*
X133809290Y-98488316D01*
X133889618Y-98509525D01*
X133961239Y-98540523D01*
X134024154Y-98581309D01*
X134061260Y-98613939D01*
X134109070Y-98670014D01*
X134146989Y-98734101D01*
X134175016Y-98806198D01*
X134193151Y-98886308D01*
X134201394Y-98974428D01*
X134201944Y-99005582D01*
X134198473Y-99081692D01*
X134185147Y-99165704D01*
X134161825Y-99241730D01*
X134128509Y-99309771D01*
X134085198Y-99369826D01*
X134059794Y-99396859D01*
X134002234Y-99444047D01*
X133935889Y-99481472D01*
X133860760Y-99509134D01*
X133776847Y-99527033D01*
X133700209Y-99534491D01*
X133651298Y-99535711D01*
X133407300Y-99535711D01*
X133407300Y-100063276D01*
X133006131Y-100063276D01*
X133006131Y-99201587D01*
X133407300Y-99201587D01*
X133547251Y-99201587D01*
X133626312Y-99194683D01*
X133697877Y-99169178D01*
X133752402Y-99117017D01*
X133777847Y-99040310D01*
X133779892Y-99005216D01*
X133768760Y-98928700D01*
X133728775Y-98864266D01*
X133659709Y-98824378D01*
X133575422Y-98809612D01*
X133547251Y-98808845D01*
X133407300Y-98808845D01*
X133407300Y-99201587D01*
X133006131Y-99201587D01*
X133006131Y-98474720D01*
X133656061Y-98474720D01*
X133735699Y-98478119D01*
G37*
G36*
X134757352Y-98996423D02*
G01*
X134757352Y-100075000D01*
X134382195Y-100075000D01*
X134382195Y-98996423D01*
X134757352Y-98996423D01*
G37*
G36*
X134358748Y-98574371D02*
G01*
X134372288Y-98499865D01*
X134375234Y-98492672D01*
X134415346Y-98430772D01*
X134420663Y-98425261D01*
X134480644Y-98383033D01*
X134487708Y-98379832D01*
X134561644Y-98363491D01*
X134569773Y-98363346D01*
X134644280Y-98376886D01*
X134651473Y-98379832D01*
X134713072Y-98419944D01*
X134718517Y-98425261D01*
X134760746Y-98485543D01*
X134763946Y-98492672D01*
X134780651Y-98566245D01*
X134780799Y-98574371D01*
X134766958Y-98648816D01*
X134763946Y-98656071D01*
X134723835Y-98717971D01*
X134718517Y-98723482D01*
X134656243Y-98766758D01*
X134651473Y-98768911D01*
X134577900Y-98785252D01*
X134569773Y-98785397D01*
X134497405Y-98772775D01*
X134487708Y-98768911D01*
X134426170Y-98728737D01*
X134420663Y-98723482D01*
X134378435Y-98663200D01*
X134375234Y-98656071D01*
X134358892Y-98582435D01*
X134358748Y-98574371D01*
G37*
G36*
X135854979Y-99344469D02*
G01*
X135787555Y-99306507D01*
X135713607Y-99283065D01*
X135657875Y-99277791D01*
X135583717Y-99287633D01*
X135556759Y-99296842D01*
X135493355Y-99333730D01*
X135475060Y-99349965D01*
X135430958Y-99408835D01*
X135420105Y-99431664D01*
X135401886Y-99504753D01*
X135400321Y-99536444D01*
X135409672Y-99609693D01*
X135420105Y-99640125D01*
X135457817Y-99703460D01*
X135473960Y-99721458D01*
X135535471Y-99765876D01*
X135555660Y-99774947D01*
X135627868Y-99792154D01*
X135657875Y-99793632D01*
X135735052Y-99783328D01*
X135808314Y-99752416D01*
X135854979Y-99720359D01*
X135854979Y-100038729D01*
X135785393Y-100064856D01*
X135709353Y-100085325D01*
X135635689Y-100096347D01*
X135587900Y-100098447D01*
X135508390Y-100093728D01*
X135431564Y-100079572D01*
X135364051Y-100058513D01*
X135293951Y-100026946D01*
X135229739Y-99987154D01*
X135176473Y-99943841D01*
X135124661Y-99888743D01*
X135080555Y-99826719D01*
X135047146Y-99764323D01*
X135019821Y-99689681D01*
X135004823Y-99616866D01*
X134999199Y-99539328D01*
X134999152Y-99531315D01*
X135003660Y-99453284D01*
X135017184Y-99379474D01*
X135042474Y-99303160D01*
X135045314Y-99296475D01*
X135081033Y-99226686D01*
X135124718Y-99163910D01*
X135171344Y-99112927D01*
X135230054Y-99064016D01*
X135295864Y-99023070D01*
X135361853Y-98992759D01*
X135432314Y-98969962D01*
X135505851Y-98955608D01*
X135582466Y-98949697D01*
X135598158Y-98949528D01*
X135674758Y-98954368D01*
X135747939Y-98968887D01*
X135817701Y-98993085D01*
X135854979Y-99010711D01*
X135854979Y-99344469D01*
G37*
G36*
X136750285Y-98952977D02*
G01*
X136823520Y-98963323D01*
X136901087Y-98982908D01*
X136930991Y-98993126D01*
X137001874Y-99023544D01*
X137066603Y-99060760D01*
X137130698Y-99109549D01*
X137136155Y-99114392D01*
X137191513Y-99171297D01*
X137237692Y-99235214D01*
X137271710Y-99299406D01*
X137297212Y-99368715D01*
X137313269Y-99442460D01*
X137319881Y-99520642D01*
X137320070Y-99536810D01*
X137315240Y-99615686D01*
X137300750Y-99690197D01*
X137276600Y-99760343D01*
X137270611Y-99773848D01*
X137232279Y-99844184D01*
X137185288Y-99907594D01*
X137135056Y-99959228D01*
X137072005Y-100008470D01*
X137007547Y-100046022D01*
X136936292Y-100076705D01*
X136928793Y-100079396D01*
X136851492Y-100101807D01*
X136778555Y-100114880D01*
X136702431Y-100121230D01*
X136667575Y-100121894D01*
X136591329Y-100118532D01*
X136518386Y-100108447D01*
X136441214Y-100089356D01*
X136411487Y-100079396D01*
X136341362Y-100049292D01*
X136277535Y-100012105D01*
X136214597Y-99963017D01*
X136209254Y-99958129D01*
X136155148Y-99900174D01*
X136109700Y-99835120D01*
X136075897Y-99769818D01*
X136050588Y-99698957D01*
X136034652Y-99623301D01*
X136028091Y-99542851D01*
X136027973Y-99532414D01*
X136429072Y-99532414D01*
X136439292Y-99607733D01*
X136448856Y-99634630D01*
X136487371Y-99699602D01*
X136500879Y-99715230D01*
X136559430Y-99759648D01*
X136578549Y-99768719D01*
X136652090Y-99786858D01*
X136673803Y-99787770D01*
X136746344Y-99777054D01*
X136769058Y-99768719D01*
X136831642Y-99729560D01*
X136846361Y-99715230D01*
X136889482Y-99654264D01*
X136898751Y-99634630D01*
X136917642Y-99560922D01*
X136918901Y-99534612D01*
X136907567Y-99460561D01*
X136898751Y-99437159D01*
X136860013Y-99372187D01*
X136846361Y-99356559D01*
X136785506Y-99310755D01*
X136769058Y-99303070D01*
X136695642Y-99284582D01*
X136673803Y-99283653D01*
X136598509Y-99295504D01*
X136578549Y-99303070D01*
X136515741Y-99342229D01*
X136500879Y-99356559D01*
X136458107Y-99416854D01*
X136448856Y-99436060D01*
X136430309Y-99507158D01*
X136429072Y-99532414D01*
X136027973Y-99532414D01*
X136027903Y-99526186D01*
X136032590Y-99451775D01*
X136048572Y-99373643D01*
X136075897Y-99299406D01*
X136113560Y-99230365D01*
X136160055Y-99167817D01*
X136209986Y-99116591D01*
X136272987Y-99066924D01*
X136336871Y-99028685D01*
X136407053Y-98997028D01*
X136414418Y-98994225D01*
X136490753Y-98970655D01*
X136563126Y-98956905D01*
X136638976Y-98950227D01*
X136673803Y-98949528D01*
X136750285Y-98952977D01*
G37*
G36*
X138254139Y-98484704D02*
G01*
X138330961Y-98497069D01*
X138405264Y-98517677D01*
X138477048Y-98546528D01*
X138545513Y-98582019D01*
X138609489Y-98622915D01*
X138668977Y-98669214D01*
X138723978Y-98720917D01*
X138774101Y-98777429D01*
X138818591Y-98838520D01*
X138857449Y-98904191D01*
X138890674Y-98974441D01*
X138917281Y-99047806D01*
X138936286Y-99122819D01*
X138947689Y-99199480D01*
X138951490Y-99277791D01*
X138947758Y-99355300D01*
X138936561Y-99431389D01*
X138917899Y-99506059D01*
X138891773Y-99579309D01*
X138859029Y-99649490D01*
X138820515Y-99715321D01*
X138776231Y-99776802D01*
X138726176Y-99833932D01*
X138671176Y-99886116D01*
X138611687Y-99932759D01*
X138547711Y-99973860D01*
X138479247Y-100009420D01*
X138407325Y-100038111D01*
X138332609Y-100058605D01*
X138255100Y-100070901D01*
X138174798Y-100075000D01*
X137568099Y-100075000D01*
X137568099Y-99723290D01*
X137969267Y-99723290D01*
X138066354Y-99723290D01*
X138145437Y-99718550D01*
X138217823Y-99704330D01*
X138262359Y-99689584D01*
X138332503Y-99655253D01*
X138392269Y-99611245D01*
X138407439Y-99596894D01*
X138456882Y-99536423D01*
X138491844Y-99471267D01*
X138497931Y-99456210D01*
X138519469Y-99382029D01*
X138528669Y-99307746D01*
X138529438Y-99277791D01*
X138524118Y-99202750D01*
X138506486Y-99126535D01*
X138497198Y-99100471D01*
X138463799Y-99032831D01*
X138416497Y-98970320D01*
X138405607Y-98959054D01*
X138348556Y-98912281D01*
X138281267Y-98875185D01*
X138260161Y-98866364D01*
X138186641Y-98844304D01*
X138112443Y-98833922D01*
X138066354Y-98832292D01*
X137969267Y-98832292D01*
X137969267Y-99723290D01*
X137568099Y-99723290D01*
X137568099Y-98480582D01*
X138174798Y-98480582D01*
X138254139Y-98484704D01*
G37*
G36*
X139768089Y-98950381D02*
G01*
X139845770Y-98970524D01*
X139916893Y-99004096D01*
X139981460Y-99051097D01*
X140015412Y-99083984D01*
X140015412Y-98972976D01*
X140390569Y-98972976D01*
X140390569Y-100051552D01*
X140015412Y-100051552D01*
X140015412Y-99934682D01*
X139967060Y-99990336D01*
X139903032Y-100040713D01*
X139830799Y-100075417D01*
X139750361Y-100094449D01*
X139687882Y-100098447D01*
X139609785Y-100093338D01*
X139536190Y-100078013D01*
X139473193Y-100055216D01*
X139403280Y-100017847D01*
X139340271Y-99970586D01*
X139302101Y-99933583D01*
X139255787Y-99876226D01*
X139217093Y-99812462D01*
X139188528Y-99748935D01*
X139165375Y-99673849D01*
X139152667Y-99601606D01*
X139147901Y-99525572D01*
X139147863Y-99518126D01*
X139549030Y-99518126D01*
X139559334Y-99592246D01*
X139567348Y-99615212D01*
X139604369Y-99678467D01*
X139617540Y-99693614D01*
X139677316Y-99738116D01*
X139693378Y-99745638D01*
X139766668Y-99763429D01*
X139788632Y-99764323D01*
X139862335Y-99752918D01*
X139881689Y-99745638D01*
X139945149Y-99705601D01*
X139957526Y-99693614D01*
X140001098Y-99632424D01*
X140008817Y-99616311D01*
X140027306Y-99543817D01*
X140028235Y-99522156D01*
X140016383Y-99447085D01*
X140008817Y-99427267D01*
X139970875Y-99364012D01*
X139957526Y-99348866D01*
X139897750Y-99304364D01*
X139881689Y-99296842D01*
X139809990Y-99278702D01*
X139788632Y-99277791D01*
X139715955Y-99288507D01*
X139693378Y-99296842D01*
X139629918Y-99336879D01*
X139617540Y-99348866D01*
X139574806Y-99409330D01*
X139567348Y-99425069D01*
X139549907Y-99496392D01*
X139549030Y-99518126D01*
X139147863Y-99518126D01*
X139147861Y-99517759D01*
X139152537Y-99439048D01*
X139166563Y-99363108D01*
X139187429Y-99296475D01*
X139218520Y-99227556D01*
X139256883Y-99164871D01*
X139298071Y-99113293D01*
X139354914Y-99058905D01*
X139419383Y-99013894D01*
X139466598Y-98989096D01*
X139536568Y-98963231D01*
X139611474Y-98948103D01*
X139683852Y-98943667D01*
X139768089Y-98950381D01*
G37*
G36*
X141017785Y-98996423D02*
G01*
X141017785Y-100075000D01*
X140642628Y-100075000D01*
X140642628Y-98996423D01*
X141017785Y-98996423D01*
G37*
G36*
X140619180Y-98574371D02*
G01*
X140632720Y-98499865D01*
X140635667Y-98492672D01*
X140675779Y-98430772D01*
X140681096Y-98425261D01*
X140741077Y-98383033D01*
X140748140Y-98379832D01*
X140822077Y-98363491D01*
X140830206Y-98363346D01*
X140904713Y-98376886D01*
X140911905Y-98379832D01*
X140973505Y-98419944D01*
X140978950Y-98425261D01*
X141021178Y-98485543D01*
X141024379Y-98492672D01*
X141041084Y-98566245D01*
X141041232Y-98574371D01*
X141027391Y-98648816D01*
X141024379Y-98656071D01*
X140984267Y-98717971D01*
X140978950Y-98723482D01*
X140916675Y-98766758D01*
X140911905Y-98768911D01*
X140838332Y-98785252D01*
X140830206Y-98785397D01*
X140757838Y-98772775D01*
X140748140Y-98768911D01*
X140686603Y-98728737D01*
X140681096Y-98723482D01*
X140638867Y-98663200D01*
X140635667Y-98656071D01*
X140619325Y-98582435D01*
X140619180Y-98574371D01*
G37*
G36*
X142010632Y-99262770D02*
G01*
X141937812Y-99231274D01*
X141865945Y-99212851D01*
X141801438Y-99207449D01*
X141727708Y-99221719D01*
X141714609Y-99229064D01*
X141681637Y-99286950D01*
X141686766Y-99318457D01*
X141710213Y-99340806D01*
X141763702Y-99360223D01*
X141835608Y-99376818D01*
X141856392Y-99381472D01*
X141931199Y-99400752D01*
X142003260Y-99429996D01*
X142068304Y-99471870D01*
X142094896Y-99496510D01*
X142139950Y-99558637D01*
X142166302Y-99631673D01*
X142174030Y-99707536D01*
X142167742Y-99782917D01*
X142146905Y-99856928D01*
X142135928Y-99881559D01*
X142096909Y-99944501D01*
X142046530Y-99998046D01*
X142030049Y-100011618D01*
X141965484Y-100052972D01*
X141896113Y-100083334D01*
X141867017Y-100092951D01*
X141793120Y-100110588D01*
X141713762Y-100120085D01*
X141657823Y-100121894D01*
X141575610Y-100117566D01*
X141493835Y-100104583D01*
X141412498Y-100082945D01*
X141331598Y-100052651D01*
X141264517Y-100020795D01*
X141224414Y-99998796D01*
X141362900Y-99727320D01*
X141434204Y-99771431D01*
X141503860Y-99804707D01*
X141581449Y-99829471D01*
X141656886Y-99840084D01*
X141675408Y-99840526D01*
X141748055Y-99826215D01*
X141764069Y-99817079D01*
X141798873Y-99756995D01*
X141793378Y-99721824D01*
X141771030Y-99696179D01*
X141720105Y-99674563D01*
X141645693Y-99657052D01*
X141632544Y-99654413D01*
X141558410Y-99636577D01*
X141486436Y-99612156D01*
X141415596Y-99575577D01*
X141378653Y-99545969D01*
X141334672Y-99484609D01*
X141312189Y-99414694D01*
X141306480Y-99347766D01*
X141312931Y-99270559D01*
X141334162Y-99195775D01*
X141340185Y-99181803D01*
X141378568Y-99117414D01*
X141429830Y-99063007D01*
X141437638Y-99056507D01*
X141503117Y-99013574D01*
X141574543Y-98982799D01*
X141591145Y-98977372D01*
X141667697Y-98959344D01*
X141744265Y-98950861D01*
X141791546Y-98949528D01*
X141869755Y-98952789D01*
X141946982Y-98962572D01*
X142023227Y-98978876D01*
X142098490Y-99001701D01*
X142141057Y-99017672D01*
X142010632Y-99262770D01*
G37*
G36*
X142755084Y-99928820D02*
G01*
X142234114Y-98996423D01*
X142675217Y-98996423D01*
X142962812Y-99549633D01*
X143241982Y-98996423D01*
X143679055Y-98996423D01*
X142813702Y-100614288D01*
X142387254Y-100614288D01*
X142755084Y-99928820D01*
G37*
G36*
X145079665Y-98386427D02*
G01*
X145036518Y-98465601D01*
X144997615Y-98547603D01*
X144962956Y-98632431D01*
X144932541Y-98720087D01*
X144906370Y-98810570D01*
X144884443Y-98903880D01*
X144866760Y-99000018D01*
X144853321Y-99098982D01*
X144844126Y-99200774D01*
X144839174Y-99305393D01*
X144838231Y-99376709D01*
X144839622Y-99455486D01*
X144843795Y-99534785D01*
X144850751Y-99614606D01*
X144855817Y-99659176D01*
X144866987Y-99738620D01*
X144880302Y-99816209D01*
X144895761Y-99891943D01*
X144905276Y-99933217D01*
X144923984Y-100005573D01*
X144947082Y-100082638D01*
X144972613Y-100156197D01*
X144980747Y-100177581D01*
X145009455Y-100245545D01*
X145043348Y-100313858D01*
X145079665Y-100375418D01*
X144850688Y-100506577D01*
X144807981Y-100437282D01*
X144768477Y-100364267D01*
X144732176Y-100287531D01*
X144699076Y-100207074D01*
X144669178Y-100122896D01*
X144647565Y-100052875D01*
X144632701Y-99998796D01*
X144614926Y-99924973D01*
X144599522Y-99849502D01*
X144586487Y-99772383D01*
X144575823Y-99693614D01*
X144567528Y-99613197D01*
X144561603Y-99531132D01*
X144558048Y-99447418D01*
X144556863Y-99362055D01*
X144558054Y-99285851D01*
X144561626Y-99209647D01*
X144567580Y-99133443D01*
X144575914Y-99057240D01*
X144586676Y-98981585D01*
X144599545Y-98907030D01*
X144614520Y-98833574D01*
X144631602Y-98761217D01*
X144651042Y-98690234D01*
X144675594Y-98612787D01*
X144702987Y-98537890D01*
X144722826Y-98489375D01*
X144755158Y-98419015D01*
X144790330Y-98352190D01*
X144828343Y-98288901D01*
X144850688Y-98255268D01*
X145079665Y-98386427D01*
G37*
G36*
X145622617Y-98984699D02*
G01*
X145879072Y-99543771D01*
X146139191Y-98984699D01*
X146563441Y-98984699D01*
X146002903Y-100075000D01*
X145748646Y-100075000D01*
X145194337Y-98984699D01*
X145622617Y-98984699D01*
G37*
G36*
X147125810Y-98832292D02*
G01*
X146891337Y-98832292D01*
X146891337Y-98480582D01*
X147526979Y-98480582D01*
X147526979Y-100075000D01*
X147125810Y-100075000D01*
X147125810Y-98832292D01*
G37*
G36*
X148015342Y-99876064D02*
G01*
X148025852Y-99802974D01*
X148034027Y-99780076D01*
X148072738Y-99716598D01*
X148086783Y-99701308D01*
X148146380Y-99657462D01*
X148165551Y-99648551D01*
X148239665Y-99630412D01*
X148261539Y-99629501D01*
X148334285Y-99640217D01*
X148357160Y-99648551D01*
X148420639Y-99687138D01*
X148435928Y-99701308D01*
X148479774Y-99760905D01*
X148488685Y-99780076D01*
X148506824Y-99854065D01*
X148507736Y-99876064D01*
X148497020Y-99948673D01*
X148488685Y-99971685D01*
X148450098Y-100035163D01*
X148435928Y-100050453D01*
X148376332Y-100093950D01*
X148357160Y-100102843D01*
X148283395Y-100120983D01*
X148261539Y-100121894D01*
X148188587Y-100111178D01*
X148165551Y-100102843D01*
X148102073Y-100064480D01*
X148086783Y-100050453D01*
X148043063Y-99990856D01*
X148034027Y-99971685D01*
X148016236Y-99897795D01*
X148015342Y-99876064D01*
G37*
G36*
X149029438Y-98832292D02*
G01*
X148794965Y-98832292D01*
X148794965Y-98480582D01*
X149430607Y-98480582D01*
X149430607Y-100075000D01*
X149029438Y-100075000D01*
X149029438Y-98832292D01*
G37*
G36*
X150004334Y-100375418D02*
G01*
X150047481Y-100295559D01*
X150086384Y-100213014D01*
X150121043Y-100127784D01*
X150151458Y-100039869D01*
X150177629Y-99949268D01*
X150199556Y-99855981D01*
X150217239Y-99760009D01*
X150230678Y-99661351D01*
X150239873Y-99560008D01*
X150244825Y-99455980D01*
X150245768Y-99385136D01*
X150244348Y-99308484D01*
X150240088Y-99230614D01*
X150232988Y-99151528D01*
X150227816Y-99107065D01*
X150216736Y-99027447D01*
X150203280Y-98949337D01*
X150187447Y-98872733D01*
X150177624Y-98830826D01*
X150158356Y-98757349D01*
X150137232Y-98686944D01*
X150111587Y-98612319D01*
X150100688Y-98583531D01*
X150072387Y-98515166D01*
X150039356Y-98447073D01*
X150004334Y-98386427D01*
X150233311Y-98255268D01*
X150276009Y-98324545D01*
X150315486Y-98397506D01*
X150351743Y-98474153D01*
X150384780Y-98554485D01*
X150414597Y-98638502D01*
X150441195Y-98726204D01*
X150450932Y-98762316D01*
X150468792Y-98835944D01*
X150484271Y-98911381D01*
X150497368Y-98988626D01*
X150508085Y-99067681D01*
X150516419Y-99148544D01*
X150522373Y-99231217D01*
X150525945Y-99315698D01*
X150527136Y-99401988D01*
X150525922Y-99478192D01*
X150522281Y-99554396D01*
X150516213Y-99630600D01*
X150507718Y-99706803D01*
X150497025Y-99782343D01*
X150483996Y-99856555D01*
X150468632Y-99929438D01*
X150450932Y-100000994D01*
X150428521Y-100079733D01*
X150403327Y-100156443D01*
X150375352Y-100231124D01*
X150358608Y-100271737D01*
X150326627Y-100342451D01*
X150292096Y-100409514D01*
X150255014Y-100472926D01*
X150233311Y-100506577D01*
X150004334Y-100375418D01*
G37*
D11*
X133333541Y-100496414D02*
X133333541Y-101032128D01*
X133333541Y-101032128D02*
X133297826Y-101139271D01*
X133297826Y-101139271D02*
X133226398Y-101210700D01*
X133226398Y-101210700D02*
X133119255Y-101246414D01*
X133119255Y-101246414D02*
X133047826Y-101246414D01*
X134012113Y-101246414D02*
X134012113Y-100853557D01*
X134012113Y-100853557D02*
X133976398Y-100782128D01*
X133976398Y-100782128D02*
X133904970Y-100746414D01*
X133904970Y-100746414D02*
X133762113Y-100746414D01*
X133762113Y-100746414D02*
X133690684Y-100782128D01*
X134012113Y-101210700D02*
X133940684Y-101246414D01*
X133940684Y-101246414D02*
X133762113Y-101246414D01*
X133762113Y-101246414D02*
X133690684Y-101210700D01*
X133690684Y-101210700D02*
X133654970Y-101139271D01*
X133654970Y-101139271D02*
X133654970Y-101067842D01*
X133654970Y-101067842D02*
X133690684Y-100996414D01*
X133690684Y-100996414D02*
X133762113Y-100960700D01*
X133762113Y-100960700D02*
X133940684Y-100960700D01*
X133940684Y-100960700D02*
X134012113Y-100924985D01*
X134333541Y-101210700D02*
X134404969Y-101246414D01*
X134404969Y-101246414D02*
X134547826Y-101246414D01*
X134547826Y-101246414D02*
X134619255Y-101210700D01*
X134619255Y-101210700D02*
X134654969Y-101139271D01*
X134654969Y-101139271D02*
X134654969Y-101103557D01*
X134654969Y-101103557D02*
X134619255Y-101032128D01*
X134619255Y-101032128D02*
X134547826Y-100996414D01*
X134547826Y-100996414D02*
X134440684Y-100996414D01*
X134440684Y-100996414D02*
X134369255Y-100960700D01*
X134369255Y-100960700D02*
X134333541Y-100889271D01*
X134333541Y-100889271D02*
X134333541Y-100853557D01*
X134333541Y-100853557D02*
X134369255Y-100782128D01*
X134369255Y-100782128D02*
X134440684Y-100746414D01*
X134440684Y-100746414D02*
X134547826Y-100746414D01*
X134547826Y-100746414D02*
X134619255Y-100782128D01*
X135083541Y-101246414D02*
X135012112Y-101210700D01*
X135012112Y-101210700D02*
X134976398Y-101174985D01*
X134976398Y-101174985D02*
X134940684Y-101103557D01*
X134940684Y-101103557D02*
X134940684Y-100889271D01*
X134940684Y-100889271D02*
X134976398Y-100817842D01*
X134976398Y-100817842D02*
X135012112Y-100782128D01*
X135012112Y-100782128D02*
X135083541Y-100746414D01*
X135083541Y-100746414D02*
X135190684Y-100746414D01*
X135190684Y-100746414D02*
X135262112Y-100782128D01*
X135262112Y-100782128D02*
X135297827Y-100817842D01*
X135297827Y-100817842D02*
X135333541Y-100889271D01*
X135333541Y-100889271D02*
X135333541Y-101103557D01*
X135333541Y-101103557D02*
X135297827Y-101174985D01*
X135297827Y-101174985D02*
X135262112Y-101210700D01*
X135262112Y-101210700D02*
X135190684Y-101246414D01*
X135190684Y-101246414D02*
X135083541Y-101246414D01*
X135654969Y-100746414D02*
X135654969Y-101246414D01*
X135654969Y-100817842D02*
X135690683Y-100782128D01*
X135690683Y-100782128D02*
X135762112Y-100746414D01*
X135762112Y-100746414D02*
X135869255Y-100746414D01*
X135869255Y-100746414D02*
X135940683Y-100782128D01*
X135940683Y-100782128D02*
X135976398Y-100853557D01*
X135976398Y-100853557D02*
X135976398Y-101246414D01*
X136869255Y-101032128D02*
X137226398Y-101032128D01*
X136797826Y-101246414D02*
X137047826Y-100496414D01*
X137047826Y-100496414D02*
X137297826Y-101246414D01*
X137654969Y-101246414D02*
X137583540Y-101210700D01*
X137583540Y-101210700D02*
X137547826Y-101139271D01*
X137547826Y-101139271D02*
X137547826Y-100496414D01*
X138226397Y-101210700D02*
X138154969Y-101246414D01*
X138154969Y-101246414D02*
X138012112Y-101246414D01*
X138012112Y-101246414D02*
X137940683Y-101210700D01*
X137940683Y-101210700D02*
X137904969Y-101139271D01*
X137904969Y-101139271D02*
X137904969Y-100853557D01*
X137904969Y-100853557D02*
X137940683Y-100782128D01*
X137940683Y-100782128D02*
X138012112Y-100746414D01*
X138012112Y-100746414D02*
X138154969Y-100746414D01*
X138154969Y-100746414D02*
X138226397Y-100782128D01*
X138226397Y-100782128D02*
X138262112Y-100853557D01*
X138262112Y-100853557D02*
X138262112Y-100924985D01*
X138262112Y-100924985D02*
X137904969Y-100996414D01*
X138512111Y-101246414D02*
X138904969Y-100746414D01*
X138512111Y-100746414D02*
X138904969Y-101246414D01*
X139512112Y-101246414D02*
X139512112Y-100853557D01*
X139512112Y-100853557D02*
X139476397Y-100782128D01*
X139476397Y-100782128D02*
X139404969Y-100746414D01*
X139404969Y-100746414D02*
X139262112Y-100746414D01*
X139262112Y-100746414D02*
X139190683Y-100782128D01*
X139512112Y-101210700D02*
X139440683Y-101246414D01*
X139440683Y-101246414D02*
X139262112Y-101246414D01*
X139262112Y-101246414D02*
X139190683Y-101210700D01*
X139190683Y-101210700D02*
X139154969Y-101139271D01*
X139154969Y-101139271D02*
X139154969Y-101067842D01*
X139154969Y-101067842D02*
X139190683Y-100996414D01*
X139190683Y-100996414D02*
X139262112Y-100960700D01*
X139262112Y-100960700D02*
X139440683Y-100960700D01*
X139440683Y-100960700D02*
X139512112Y-100924985D01*
X139869254Y-100746414D02*
X139869254Y-101246414D01*
X139869254Y-100817842D02*
X139904968Y-100782128D01*
X139904968Y-100782128D02*
X139976397Y-100746414D01*
X139976397Y-100746414D02*
X140083540Y-100746414D01*
X140083540Y-100746414D02*
X140154968Y-100782128D01*
X140154968Y-100782128D02*
X140190683Y-100853557D01*
X140190683Y-100853557D02*
X140190683Y-101246414D01*
X140869254Y-101246414D02*
X140869254Y-100496414D01*
X140869254Y-101210700D02*
X140797825Y-101246414D01*
X140797825Y-101246414D02*
X140654968Y-101246414D01*
X140654968Y-101246414D02*
X140583539Y-101210700D01*
X140583539Y-101210700D02*
X140547825Y-101174985D01*
X140547825Y-101174985D02*
X140512111Y-101103557D01*
X140512111Y-101103557D02*
X140512111Y-100889271D01*
X140512111Y-100889271D02*
X140547825Y-100817842D01*
X140547825Y-100817842D02*
X140583539Y-100782128D01*
X140583539Y-100782128D02*
X140654968Y-100746414D01*
X140654968Y-100746414D02*
X140797825Y-100746414D01*
X140797825Y-100746414D02*
X140869254Y-100782128D01*
X141512110Y-101210700D02*
X141440682Y-101246414D01*
X141440682Y-101246414D02*
X141297825Y-101246414D01*
X141297825Y-101246414D02*
X141226396Y-101210700D01*
X141226396Y-101210700D02*
X141190682Y-101139271D01*
X141190682Y-101139271D02*
X141190682Y-100853557D01*
X141190682Y-100853557D02*
X141226396Y-100782128D01*
X141226396Y-100782128D02*
X141297825Y-100746414D01*
X141297825Y-100746414D02*
X141440682Y-100746414D01*
X141440682Y-100746414D02*
X141512110Y-100782128D01*
X141512110Y-100782128D02*
X141547825Y-100853557D01*
X141547825Y-100853557D02*
X141547825Y-100924985D01*
X141547825Y-100924985D02*
X141190682Y-100996414D01*
X141869253Y-101246414D02*
X141869253Y-100746414D01*
X141869253Y-100889271D02*
X141904967Y-100817842D01*
X141904967Y-100817842D02*
X141940682Y-100782128D01*
X141940682Y-100782128D02*
X142012110Y-100746414D01*
X142012110Y-100746414D02*
X142083539Y-100746414D01*
X155043333Y-104309580D02*
X154995714Y-104357200D01*
X154995714Y-104357200D02*
X154852857Y-104404819D01*
X154852857Y-104404819D02*
X154757619Y-104404819D01*
X154757619Y-104404819D02*
X154614762Y-104357200D01*
X154614762Y-104357200D02*
X154519524Y-104261961D01*
X154519524Y-104261961D02*
X154471905Y-104166723D01*
X154471905Y-104166723D02*
X154424286Y-103976247D01*
X154424286Y-103976247D02*
X154424286Y-103833390D01*
X154424286Y-103833390D02*
X154471905Y-103642914D01*
X154471905Y-103642914D02*
X154519524Y-103547676D01*
X154519524Y-103547676D02*
X154614762Y-103452438D01*
X154614762Y-103452438D02*
X154757619Y-103404819D01*
X154757619Y-103404819D02*
X154852857Y-103404819D01*
X154852857Y-103404819D02*
X154995714Y-103452438D01*
X154995714Y-103452438D02*
X155043333Y-103500057D01*
X155900476Y-103404819D02*
X155710000Y-103404819D01*
X155710000Y-103404819D02*
X155614762Y-103452438D01*
X155614762Y-103452438D02*
X155567143Y-103500057D01*
X155567143Y-103500057D02*
X155471905Y-103642914D01*
X155471905Y-103642914D02*
X155424286Y-103833390D01*
X155424286Y-103833390D02*
X155424286Y-104214342D01*
X155424286Y-104214342D02*
X155471905Y-104309580D01*
X155471905Y-104309580D02*
X155519524Y-104357200D01*
X155519524Y-104357200D02*
X155614762Y-104404819D01*
X155614762Y-104404819D02*
X155805238Y-104404819D01*
X155805238Y-104404819D02*
X155900476Y-104357200D01*
X155900476Y-104357200D02*
X155948095Y-104309580D01*
X155948095Y-104309580D02*
X155995714Y-104214342D01*
X155995714Y-104214342D02*
X155995714Y-103976247D01*
X155995714Y-103976247D02*
X155948095Y-103881009D01*
X155948095Y-103881009D02*
X155900476Y-103833390D01*
X155900476Y-103833390D02*
X155805238Y-103785771D01*
X155805238Y-103785771D02*
X155614762Y-103785771D01*
X155614762Y-103785771D02*
X155519524Y-103833390D01*
X155519524Y-103833390D02*
X155471905Y-103881009D01*
X155471905Y-103881009D02*
X155424286Y-103976247D01*
X157694571Y-102054819D02*
X157123143Y-102054819D01*
X157408857Y-102054819D02*
X157408857Y-101054819D01*
X157408857Y-101054819D02*
X157313619Y-101197676D01*
X157313619Y-101197676D02*
X157218381Y-101292914D01*
X157218381Y-101292914D02*
X157123143Y-101340533D01*
X158313619Y-101054819D02*
X158408857Y-101054819D01*
X158408857Y-101054819D02*
X158504095Y-101102438D01*
X158504095Y-101102438D02*
X158551714Y-101150057D01*
X158551714Y-101150057D02*
X158599333Y-101245295D01*
X158599333Y-101245295D02*
X158646952Y-101435771D01*
X158646952Y-101435771D02*
X158646952Y-101673866D01*
X158646952Y-101673866D02*
X158599333Y-101864342D01*
X158599333Y-101864342D02*
X158551714Y-101959580D01*
X158551714Y-101959580D02*
X158504095Y-102007200D01*
X158504095Y-102007200D02*
X158408857Y-102054819D01*
X158408857Y-102054819D02*
X158313619Y-102054819D01*
X158313619Y-102054819D02*
X158218381Y-102007200D01*
X158218381Y-102007200D02*
X158170762Y-101959580D01*
X158170762Y-101959580D02*
X158123143Y-101864342D01*
X158123143Y-101864342D02*
X158075524Y-101673866D01*
X158075524Y-101673866D02*
X158075524Y-101435771D01*
X158075524Y-101435771D02*
X158123143Y-101245295D01*
X158123143Y-101245295D02*
X158170762Y-101150057D01*
X158170762Y-101150057D02*
X158218381Y-101102438D01*
X158218381Y-101102438D02*
X158313619Y-101054819D01*
X159504095Y-101388152D02*
X159504095Y-102054819D01*
X159075524Y-101388152D02*
X159075524Y-101911961D01*
X159075524Y-101911961D02*
X159123143Y-102007200D01*
X159123143Y-102007200D02*
X159218381Y-102054819D01*
X159218381Y-102054819D02*
X159361238Y-102054819D01*
X159361238Y-102054819D02*
X159456476Y-102007200D01*
X159456476Y-102007200D02*
X159504095Y-101959580D01*
X160313619Y-101531009D02*
X159980286Y-101531009D01*
X159980286Y-102054819D02*
X159980286Y-101054819D01*
X159980286Y-101054819D02*
X160456476Y-101054819D01*
X179048819Y-100901904D02*
X179858342Y-100901904D01*
X179858342Y-100901904D02*
X179953580Y-100854285D01*
X179953580Y-100854285D02*
X180001200Y-100806666D01*
X180001200Y-100806666D02*
X180048819Y-100711428D01*
X180048819Y-100711428D02*
X180048819Y-100520952D01*
X180048819Y-100520952D02*
X180001200Y-100425714D01*
X180001200Y-100425714D02*
X179953580Y-100378095D01*
X179953580Y-100378095D02*
X179858342Y-100330476D01*
X179858342Y-100330476D02*
X179048819Y-100330476D01*
X179048819Y-99378095D02*
X179048819Y-99854285D01*
X179048819Y-99854285D02*
X179525009Y-99901904D01*
X179525009Y-99901904D02*
X179477390Y-99854285D01*
X179477390Y-99854285D02*
X179429771Y-99759047D01*
X179429771Y-99759047D02*
X179429771Y-99520952D01*
X179429771Y-99520952D02*
X179477390Y-99425714D01*
X179477390Y-99425714D02*
X179525009Y-99378095D01*
X179525009Y-99378095D02*
X179620247Y-99330476D01*
X179620247Y-99330476D02*
X179858342Y-99330476D01*
X179858342Y-99330476D02*
X179953580Y-99378095D01*
X179953580Y-99378095D02*
X180001200Y-99425714D01*
X180001200Y-99425714D02*
X180048819Y-99520952D01*
X180048819Y-99520952D02*
X180048819Y-99759047D01*
X180048819Y-99759047D02*
X180001200Y-99854285D01*
X180001200Y-99854285D02*
X179953580Y-99901904D01*
X168252904Y-112055819D02*
X167776714Y-112055819D01*
X167776714Y-112055819D02*
X167776714Y-111055819D01*
X168586238Y-112055819D02*
X168586238Y-111055819D01*
X168586238Y-111055819D02*
X168919571Y-111770104D01*
X168919571Y-111770104D02*
X169252904Y-111055819D01*
X169252904Y-111055819D02*
X169252904Y-112055819D01*
X170252904Y-112055819D02*
X169681476Y-112055819D01*
X169967190Y-112055819D02*
X169967190Y-111055819D01*
X169967190Y-111055819D02*
X169871952Y-111198676D01*
X169871952Y-111198676D02*
X169776714Y-111293914D01*
X169776714Y-111293914D02*
X169681476Y-111341533D01*
X170871952Y-111055819D02*
X170967190Y-111055819D01*
X170967190Y-111055819D02*
X171062428Y-111103438D01*
X171062428Y-111103438D02*
X171110047Y-111151057D01*
X171110047Y-111151057D02*
X171157666Y-111246295D01*
X171157666Y-111246295D02*
X171205285Y-111436771D01*
X171205285Y-111436771D02*
X171205285Y-111674866D01*
X171205285Y-111674866D02*
X171157666Y-111865342D01*
X171157666Y-111865342D02*
X171110047Y-111960580D01*
X171110047Y-111960580D02*
X171062428Y-112008200D01*
X171062428Y-112008200D02*
X170967190Y-112055819D01*
X170967190Y-112055819D02*
X170871952Y-112055819D01*
X170871952Y-112055819D02*
X170776714Y-112008200D01*
X170776714Y-112008200D02*
X170729095Y-111960580D01*
X170729095Y-111960580D02*
X170681476Y-111865342D01*
X170681476Y-111865342D02*
X170633857Y-111674866D01*
X170633857Y-111674866D02*
X170633857Y-111436771D01*
X170633857Y-111436771D02*
X170681476Y-111246295D01*
X170681476Y-111246295D02*
X170729095Y-111151057D01*
X170729095Y-111151057D02*
X170776714Y-111103438D01*
X170776714Y-111103438D02*
X170871952Y-111055819D01*
X171776714Y-111484390D02*
X171681476Y-111436771D01*
X171681476Y-111436771D02*
X171633857Y-111389152D01*
X171633857Y-111389152D02*
X171586238Y-111293914D01*
X171586238Y-111293914D02*
X171586238Y-111246295D01*
X171586238Y-111246295D02*
X171633857Y-111151057D01*
X171633857Y-111151057D02*
X171681476Y-111103438D01*
X171681476Y-111103438D02*
X171776714Y-111055819D01*
X171776714Y-111055819D02*
X171967190Y-111055819D01*
X171967190Y-111055819D02*
X172062428Y-111103438D01*
X172062428Y-111103438D02*
X172110047Y-111151057D01*
X172110047Y-111151057D02*
X172157666Y-111246295D01*
X172157666Y-111246295D02*
X172157666Y-111293914D01*
X172157666Y-111293914D02*
X172110047Y-111389152D01*
X172110047Y-111389152D02*
X172062428Y-111436771D01*
X172062428Y-111436771D02*
X171967190Y-111484390D01*
X171967190Y-111484390D02*
X171776714Y-111484390D01*
X171776714Y-111484390D02*
X171681476Y-111532009D01*
X171681476Y-111532009D02*
X171633857Y-111579628D01*
X171633857Y-111579628D02*
X171586238Y-111674866D01*
X171586238Y-111674866D02*
X171586238Y-111865342D01*
X171586238Y-111865342D02*
X171633857Y-111960580D01*
X171633857Y-111960580D02*
X171681476Y-112008200D01*
X171681476Y-112008200D02*
X171776714Y-112055819D01*
X171776714Y-112055819D02*
X171967190Y-112055819D01*
X171967190Y-112055819D02*
X172062428Y-112008200D01*
X172062428Y-112008200D02*
X172110047Y-111960580D01*
X172110047Y-111960580D02*
X172157666Y-111865342D01*
X172157666Y-111865342D02*
X172157666Y-111674866D01*
X172157666Y-111674866D02*
X172110047Y-111579628D01*
X172110047Y-111579628D02*
X172062428Y-111532009D01*
X172062428Y-111532009D02*
X171967190Y-111484390D01*
X173062428Y-111055819D02*
X172586238Y-111055819D01*
X172586238Y-111055819D02*
X172538619Y-111532009D01*
X172538619Y-111532009D02*
X172586238Y-111484390D01*
X172586238Y-111484390D02*
X172681476Y-111436771D01*
X172681476Y-111436771D02*
X172919571Y-111436771D01*
X172919571Y-111436771D02*
X173014809Y-111484390D01*
X173014809Y-111484390D02*
X173062428Y-111532009D01*
X173062428Y-111532009D02*
X173110047Y-111627247D01*
X173110047Y-111627247D02*
X173110047Y-111865342D01*
X173110047Y-111865342D02*
X173062428Y-111960580D01*
X173062428Y-111960580D02*
X173014809Y-112008200D01*
X173014809Y-112008200D02*
X172919571Y-112055819D01*
X172919571Y-112055819D02*
X172681476Y-112055819D01*
X172681476Y-112055819D02*
X172586238Y-112008200D01*
X172586238Y-112008200D02*
X172538619Y-111960580D01*
X173538619Y-111674866D02*
X174300524Y-111674866D01*
X175300523Y-112055819D02*
X174729095Y-112055819D01*
X175014809Y-112055819D02*
X175014809Y-111055819D01*
X175014809Y-111055819D02*
X174919571Y-111198676D01*
X174919571Y-111198676D02*
X174824333Y-111293914D01*
X174824333Y-111293914D02*
X174729095Y-111341533D01*
X175681476Y-111151057D02*
X175729095Y-111103438D01*
X175729095Y-111103438D02*
X175824333Y-111055819D01*
X175824333Y-111055819D02*
X176062428Y-111055819D01*
X176062428Y-111055819D02*
X176157666Y-111103438D01*
X176157666Y-111103438D02*
X176205285Y-111151057D01*
X176205285Y-111151057D02*
X176252904Y-111246295D01*
X176252904Y-111246295D02*
X176252904Y-111341533D01*
X176252904Y-111341533D02*
X176205285Y-111484390D01*
X176205285Y-111484390D02*
X175633857Y-112055819D01*
X175633857Y-112055819D02*
X176252904Y-112055819D01*
X154283580Y-85764666D02*
X154331200Y-85812285D01*
X154331200Y-85812285D02*
X154378819Y-85955142D01*
X154378819Y-85955142D02*
X154378819Y-86050380D01*
X154378819Y-86050380D02*
X154331200Y-86193237D01*
X154331200Y-86193237D02*
X154235961Y-86288475D01*
X154235961Y-86288475D02*
X154140723Y-86336094D01*
X154140723Y-86336094D02*
X153950247Y-86383713D01*
X153950247Y-86383713D02*
X153807390Y-86383713D01*
X153807390Y-86383713D02*
X153616914Y-86336094D01*
X153616914Y-86336094D02*
X153521676Y-86288475D01*
X153521676Y-86288475D02*
X153426438Y-86193237D01*
X153426438Y-86193237D02*
X153378819Y-86050380D01*
X153378819Y-86050380D02*
X153378819Y-85955142D01*
X153378819Y-85955142D02*
X153426438Y-85812285D01*
X153426438Y-85812285D02*
X153474057Y-85764666D01*
X153712152Y-84907523D02*
X154378819Y-84907523D01*
X153331200Y-85145618D02*
X154045485Y-85383713D01*
X154045485Y-85383713D02*
X154045485Y-84764666D01*
X151644819Y-83780666D02*
X151644819Y-83161619D01*
X151644819Y-83161619D02*
X152025771Y-83494952D01*
X152025771Y-83494952D02*
X152025771Y-83352095D01*
X152025771Y-83352095D02*
X152073390Y-83256857D01*
X152073390Y-83256857D02*
X152121009Y-83209238D01*
X152121009Y-83209238D02*
X152216247Y-83161619D01*
X152216247Y-83161619D02*
X152454342Y-83161619D01*
X152454342Y-83161619D02*
X152549580Y-83209238D01*
X152549580Y-83209238D02*
X152597200Y-83256857D01*
X152597200Y-83256857D02*
X152644819Y-83352095D01*
X152644819Y-83352095D02*
X152644819Y-83637809D01*
X152644819Y-83637809D02*
X152597200Y-83733047D01*
X152597200Y-83733047D02*
X152549580Y-83780666D01*
X151644819Y-82828285D02*
X151644819Y-82209238D01*
X151644819Y-82209238D02*
X152025771Y-82542571D01*
X152025771Y-82542571D02*
X152025771Y-82399714D01*
X152025771Y-82399714D02*
X152073390Y-82304476D01*
X152073390Y-82304476D02*
X152121009Y-82256857D01*
X152121009Y-82256857D02*
X152216247Y-82209238D01*
X152216247Y-82209238D02*
X152454342Y-82209238D01*
X152454342Y-82209238D02*
X152549580Y-82256857D01*
X152549580Y-82256857D02*
X152597200Y-82304476D01*
X152597200Y-82304476D02*
X152644819Y-82399714D01*
X152644819Y-82399714D02*
X152644819Y-82685428D01*
X152644819Y-82685428D02*
X152597200Y-82780666D01*
X152597200Y-82780666D02*
X152549580Y-82828285D01*
X151644819Y-81590190D02*
X151644819Y-81494952D01*
X151644819Y-81494952D02*
X151692438Y-81399714D01*
X151692438Y-81399714D02*
X151740057Y-81352095D01*
X151740057Y-81352095D02*
X151835295Y-81304476D01*
X151835295Y-81304476D02*
X152025771Y-81256857D01*
X152025771Y-81256857D02*
X152263866Y-81256857D01*
X152263866Y-81256857D02*
X152454342Y-81304476D01*
X152454342Y-81304476D02*
X152549580Y-81352095D01*
X152549580Y-81352095D02*
X152597200Y-81399714D01*
X152597200Y-81399714D02*
X152644819Y-81494952D01*
X152644819Y-81494952D02*
X152644819Y-81590190D01*
X152644819Y-81590190D02*
X152597200Y-81685428D01*
X152597200Y-81685428D02*
X152549580Y-81733047D01*
X152549580Y-81733047D02*
X152454342Y-81780666D01*
X152454342Y-81780666D02*
X152263866Y-81828285D01*
X152263866Y-81828285D02*
X152025771Y-81828285D01*
X152025771Y-81828285D02*
X151835295Y-81780666D01*
X151835295Y-81780666D02*
X151740057Y-81733047D01*
X151740057Y-81733047D02*
X151692438Y-81685428D01*
X151692438Y-81685428D02*
X151644819Y-81590190D01*
X151978152Y-80828285D02*
X152644819Y-80828285D01*
X152073390Y-80828285D02*
X152025771Y-80780666D01*
X152025771Y-80780666D02*
X151978152Y-80685428D01*
X151978152Y-80685428D02*
X151978152Y-80542571D01*
X151978152Y-80542571D02*
X152025771Y-80447333D01*
X152025771Y-80447333D02*
X152121009Y-80399714D01*
X152121009Y-80399714D02*
X152644819Y-80399714D01*
X152121009Y-79590190D02*
X152121009Y-79923523D01*
X152644819Y-79923523D02*
X151644819Y-79923523D01*
X151644819Y-79923523D02*
X151644819Y-79447333D01*
X164605474Y-105221665D02*
X164605474Y-105859086D01*
X164605474Y-105859086D02*
X164642970Y-105934076D01*
X164642970Y-105934076D02*
X164680465Y-105971572D01*
X164680465Y-105971572D02*
X164755456Y-106009067D01*
X164755456Y-106009067D02*
X164905437Y-106009067D01*
X164905437Y-106009067D02*
X164980428Y-105971572D01*
X164980428Y-105971572D02*
X165017923Y-105934076D01*
X165017923Y-105934076D02*
X165055418Y-105859086D01*
X165055418Y-105859086D02*
X165055418Y-105221665D01*
X165392876Y-105296656D02*
X165430371Y-105259160D01*
X165430371Y-105259160D02*
X165505362Y-105221665D01*
X165505362Y-105221665D02*
X165692839Y-105221665D01*
X165692839Y-105221665D02*
X165767829Y-105259160D01*
X165767829Y-105259160D02*
X165805325Y-105296656D01*
X165805325Y-105296656D02*
X165842820Y-105371646D01*
X165842820Y-105371646D02*
X165842820Y-105446637D01*
X165842820Y-105446637D02*
X165805325Y-105559123D01*
X165805325Y-105559123D02*
X165355381Y-106009067D01*
X165355381Y-106009067D02*
X165842820Y-106009067D01*
X134065998Y-113249438D02*
X133399331Y-112297057D01*
X132923141Y-113249438D02*
X132923141Y-111249438D01*
X132923141Y-111249438D02*
X133685046Y-111249438D01*
X133685046Y-111249438D02*
X133875522Y-111344676D01*
X133875522Y-111344676D02*
X133970760Y-111439914D01*
X133970760Y-111439914D02*
X134065998Y-111630390D01*
X134065998Y-111630390D02*
X134065998Y-111916104D01*
X134065998Y-111916104D02*
X133970760Y-112106580D01*
X133970760Y-112106580D02*
X133875522Y-112201819D01*
X133875522Y-112201819D02*
X133685046Y-112297057D01*
X133685046Y-112297057D02*
X132923141Y-112297057D01*
X135780284Y-113249438D02*
X135780284Y-112201819D01*
X135780284Y-112201819D02*
X135685046Y-112011342D01*
X135685046Y-112011342D02*
X135494570Y-111916104D01*
X135494570Y-111916104D02*
X135113617Y-111916104D01*
X135113617Y-111916104D02*
X134923141Y-112011342D01*
X135780284Y-113154200D02*
X135589808Y-113249438D01*
X135589808Y-113249438D02*
X135113617Y-113249438D01*
X135113617Y-113249438D02*
X134923141Y-113154200D01*
X134923141Y-113154200D02*
X134827903Y-112963723D01*
X134827903Y-112963723D02*
X134827903Y-112773247D01*
X134827903Y-112773247D02*
X134923141Y-112582771D01*
X134923141Y-112582771D02*
X135113617Y-112487533D01*
X135113617Y-112487533D02*
X135589808Y-112487533D01*
X135589808Y-112487533D02*
X135780284Y-112392295D01*
X136637427Y-113154200D02*
X136827903Y-113249438D01*
X136827903Y-113249438D02*
X137208855Y-113249438D01*
X137208855Y-113249438D02*
X137399332Y-113154200D01*
X137399332Y-113154200D02*
X137494570Y-112963723D01*
X137494570Y-112963723D02*
X137494570Y-112868485D01*
X137494570Y-112868485D02*
X137399332Y-112678009D01*
X137399332Y-112678009D02*
X137208855Y-112582771D01*
X137208855Y-112582771D02*
X136923141Y-112582771D01*
X136923141Y-112582771D02*
X136732665Y-112487533D01*
X136732665Y-112487533D02*
X136637427Y-112297057D01*
X136637427Y-112297057D02*
X136637427Y-112201819D01*
X136637427Y-112201819D02*
X136732665Y-112011342D01*
X136732665Y-112011342D02*
X136923141Y-111916104D01*
X136923141Y-111916104D02*
X137208855Y-111916104D01*
X137208855Y-111916104D02*
X137399332Y-112011342D01*
X138351713Y-111916104D02*
X138351713Y-113916104D01*
X138351713Y-112011342D02*
X138542189Y-111916104D01*
X138542189Y-111916104D02*
X138923142Y-111916104D01*
X138923142Y-111916104D02*
X139113618Y-112011342D01*
X139113618Y-112011342D02*
X139208856Y-112106580D01*
X139208856Y-112106580D02*
X139304094Y-112297057D01*
X139304094Y-112297057D02*
X139304094Y-112868485D01*
X139304094Y-112868485D02*
X139208856Y-113058961D01*
X139208856Y-113058961D02*
X139113618Y-113154200D01*
X139113618Y-113154200D02*
X138923142Y-113249438D01*
X138923142Y-113249438D02*
X138542189Y-113249438D01*
X138542189Y-113249438D02*
X138351713Y-113154200D01*
X140161237Y-113249438D02*
X140161237Y-111249438D01*
X140161237Y-112011342D02*
X140351713Y-111916104D01*
X140351713Y-111916104D02*
X140732666Y-111916104D01*
X140732666Y-111916104D02*
X140923142Y-112011342D01*
X140923142Y-112011342D02*
X141018380Y-112106580D01*
X141018380Y-112106580D02*
X141113618Y-112297057D01*
X141113618Y-112297057D02*
X141113618Y-112868485D01*
X141113618Y-112868485D02*
X141018380Y-113058961D01*
X141018380Y-113058961D02*
X140923142Y-113154200D01*
X140923142Y-113154200D02*
X140732666Y-113249438D01*
X140732666Y-113249438D02*
X140351713Y-113249438D01*
X140351713Y-113249438D02*
X140161237Y-113154200D01*
X142732666Y-113154200D02*
X142542190Y-113249438D01*
X142542190Y-113249438D02*
X142161237Y-113249438D01*
X142161237Y-113249438D02*
X141970761Y-113154200D01*
X141970761Y-113154200D02*
X141875523Y-112963723D01*
X141875523Y-112963723D02*
X141875523Y-112201819D01*
X141875523Y-112201819D02*
X141970761Y-112011342D01*
X141970761Y-112011342D02*
X142161237Y-111916104D01*
X142161237Y-111916104D02*
X142542190Y-111916104D01*
X142542190Y-111916104D02*
X142732666Y-112011342D01*
X142732666Y-112011342D02*
X142827904Y-112201819D01*
X142827904Y-112201819D02*
X142827904Y-112392295D01*
X142827904Y-112392295D02*
X141875523Y-112582771D01*
X143685047Y-113249438D02*
X143685047Y-111916104D01*
X143685047Y-112297057D02*
X143780285Y-112106580D01*
X143780285Y-112106580D02*
X143875523Y-112011342D01*
X143875523Y-112011342D02*
X144065999Y-111916104D01*
X144065999Y-111916104D02*
X144256476Y-111916104D01*
X144923142Y-113249438D02*
X144923142Y-111916104D01*
X144923142Y-112297057D02*
X145018380Y-112106580D01*
X145018380Y-112106580D02*
X145113618Y-112011342D01*
X145113618Y-112011342D02*
X145304094Y-111916104D01*
X145304094Y-111916104D02*
X145494571Y-111916104D01*
X145970761Y-111916104D02*
X146446951Y-113249438D01*
X146923142Y-111916104D02*
X146446951Y-113249438D01*
X146446951Y-113249438D02*
X146256475Y-113725628D01*
X146256475Y-113725628D02*
X146161237Y-113820866D01*
X146161237Y-113820866D02*
X145970761Y-113916104D01*
X149208857Y-113249438D02*
X149208857Y-111249438D01*
X149208857Y-111249438D02*
X149970762Y-111249438D01*
X149970762Y-111249438D02*
X150161238Y-111344676D01*
X150161238Y-111344676D02*
X150256476Y-111439914D01*
X150256476Y-111439914D02*
X150351714Y-111630390D01*
X150351714Y-111630390D02*
X150351714Y-111916104D01*
X150351714Y-111916104D02*
X150256476Y-112106580D01*
X150256476Y-112106580D02*
X150161238Y-112201819D01*
X150161238Y-112201819D02*
X149970762Y-112297057D01*
X149970762Y-112297057D02*
X149208857Y-112297057D01*
X151208857Y-113249438D02*
X151208857Y-111916104D01*
X151208857Y-111249438D02*
X151113619Y-111344676D01*
X151113619Y-111344676D02*
X151208857Y-111439914D01*
X151208857Y-111439914D02*
X151304095Y-111344676D01*
X151304095Y-111344676D02*
X151208857Y-111249438D01*
X151208857Y-111249438D02*
X151208857Y-111439914D01*
X153685048Y-113249438D02*
X153685048Y-111249438D01*
X153685048Y-111249438D02*
X154446953Y-111249438D01*
X154446953Y-111249438D02*
X154637429Y-111344676D01*
X154637429Y-111344676D02*
X154732667Y-111439914D01*
X154732667Y-111439914D02*
X154827905Y-111630390D01*
X154827905Y-111630390D02*
X154827905Y-111916104D01*
X154827905Y-111916104D02*
X154732667Y-112106580D01*
X154732667Y-112106580D02*
X154637429Y-112201819D01*
X154637429Y-112201819D02*
X154446953Y-112297057D01*
X154446953Y-112297057D02*
X153685048Y-112297057D01*
X155685048Y-113249438D02*
X155685048Y-111916104D01*
X155685048Y-111249438D02*
X155589810Y-111344676D01*
X155589810Y-111344676D02*
X155685048Y-111439914D01*
X155685048Y-111439914D02*
X155780286Y-111344676D01*
X155780286Y-111344676D02*
X155685048Y-111249438D01*
X155685048Y-111249438D02*
X155685048Y-111439914D01*
X157494572Y-113154200D02*
X157304096Y-113249438D01*
X157304096Y-113249438D02*
X156923143Y-113249438D01*
X156923143Y-113249438D02*
X156732667Y-113154200D01*
X156732667Y-113154200D02*
X156637429Y-113058961D01*
X156637429Y-113058961D02*
X156542191Y-112868485D01*
X156542191Y-112868485D02*
X156542191Y-112297057D01*
X156542191Y-112297057D02*
X156637429Y-112106580D01*
X156637429Y-112106580D02*
X156732667Y-112011342D01*
X156732667Y-112011342D02*
X156923143Y-111916104D01*
X156923143Y-111916104D02*
X157304096Y-111916104D01*
X157304096Y-111916104D02*
X157494572Y-112011342D01*
X158637429Y-113249438D02*
X158446953Y-113154200D01*
X158446953Y-113154200D02*
X158351715Y-113058961D01*
X158351715Y-113058961D02*
X158256477Y-112868485D01*
X158256477Y-112868485D02*
X158256477Y-112297057D01*
X158256477Y-112297057D02*
X158351715Y-112106580D01*
X158351715Y-112106580D02*
X158446953Y-112011342D01*
X158446953Y-112011342D02*
X158637429Y-111916104D01*
X158637429Y-111916104D02*
X158923144Y-111916104D01*
X158923144Y-111916104D02*
X159113620Y-112011342D01*
X159113620Y-112011342D02*
X159208858Y-112106580D01*
X159208858Y-112106580D02*
X159304096Y-112297057D01*
X159304096Y-112297057D02*
X159304096Y-112868485D01*
X159304096Y-112868485D02*
X159208858Y-113058961D01*
X159208858Y-113058961D02*
X159113620Y-113154200D01*
X159113620Y-113154200D02*
X158923144Y-113249438D01*
X158923144Y-113249438D02*
X158637429Y-113249438D01*
X126778095Y-110324866D02*
X127540000Y-110324866D01*
X127159047Y-110705819D02*
X127159047Y-109943914D01*
X128539999Y-110705819D02*
X127968571Y-110705819D01*
X128254285Y-110705819D02*
X128254285Y-109705819D01*
X128254285Y-109705819D02*
X128159047Y-109848676D01*
X128159047Y-109848676D02*
X128063809Y-109943914D01*
X128063809Y-109943914D02*
X127968571Y-109991533D01*
X128920952Y-109801057D02*
X128968571Y-109753438D01*
X128968571Y-109753438D02*
X129063809Y-109705819D01*
X129063809Y-109705819D02*
X129301904Y-109705819D01*
X129301904Y-109705819D02*
X129397142Y-109753438D01*
X129397142Y-109753438D02*
X129444761Y-109801057D01*
X129444761Y-109801057D02*
X129492380Y-109896295D01*
X129492380Y-109896295D02*
X129492380Y-109991533D01*
X129492380Y-109991533D02*
X129444761Y-110134390D01*
X129444761Y-110134390D02*
X128873333Y-110705819D01*
X128873333Y-110705819D02*
X129492380Y-110705819D01*
X129778095Y-109705819D02*
X130111428Y-110705819D01*
X130111428Y-110705819D02*
X130444761Y-109705819D01*
X127778095Y-116953438D02*
X127682857Y-116905819D01*
X127682857Y-116905819D02*
X127540000Y-116905819D01*
X127540000Y-116905819D02*
X127397143Y-116953438D01*
X127397143Y-116953438D02*
X127301905Y-117048676D01*
X127301905Y-117048676D02*
X127254286Y-117143914D01*
X127254286Y-117143914D02*
X127206667Y-117334390D01*
X127206667Y-117334390D02*
X127206667Y-117477247D01*
X127206667Y-117477247D02*
X127254286Y-117667723D01*
X127254286Y-117667723D02*
X127301905Y-117762961D01*
X127301905Y-117762961D02*
X127397143Y-117858200D01*
X127397143Y-117858200D02*
X127540000Y-117905819D01*
X127540000Y-117905819D02*
X127635238Y-117905819D01*
X127635238Y-117905819D02*
X127778095Y-117858200D01*
X127778095Y-117858200D02*
X127825714Y-117810580D01*
X127825714Y-117810580D02*
X127825714Y-117477247D01*
X127825714Y-117477247D02*
X127635238Y-117477247D01*
X128254286Y-117905819D02*
X128254286Y-116905819D01*
X128254286Y-116905819D02*
X128825714Y-117905819D01*
X128825714Y-117905819D02*
X128825714Y-116905819D01*
X129301905Y-117905819D02*
X129301905Y-116905819D01*
X129301905Y-116905819D02*
X129540000Y-116905819D01*
X129540000Y-116905819D02*
X129682857Y-116953438D01*
X129682857Y-116953438D02*
X129778095Y-117048676D01*
X129778095Y-117048676D02*
X129825714Y-117143914D01*
X129825714Y-117143914D02*
X129873333Y-117334390D01*
X129873333Y-117334390D02*
X129873333Y-117477247D01*
X129873333Y-117477247D02*
X129825714Y-117667723D01*
X129825714Y-117667723D02*
X129778095Y-117762961D01*
X129778095Y-117762961D02*
X129682857Y-117858200D01*
X129682857Y-117858200D02*
X129540000Y-117905819D01*
X129540000Y-117905819D02*
X129301905Y-117905819D01*
X138966166Y-87850819D02*
X138966166Y-88565104D01*
X138966166Y-88565104D02*
X138918547Y-88707961D01*
X138918547Y-88707961D02*
X138823309Y-88803200D01*
X138823309Y-88803200D02*
X138680452Y-88850819D01*
X138680452Y-88850819D02*
X138585214Y-88850819D01*
X139966166Y-88850819D02*
X139394738Y-88850819D01*
X139680452Y-88850819D02*
X139680452Y-87850819D01*
X139680452Y-87850819D02*
X139585214Y-87993676D01*
X139585214Y-87993676D02*
X139489976Y-88088914D01*
X139489976Y-88088914D02*
X139394738Y-88136533D01*
X138275690Y-79850819D02*
X137942357Y-79374628D01*
X137704262Y-79850819D02*
X137704262Y-78850819D01*
X137704262Y-78850819D02*
X138085214Y-78850819D01*
X138085214Y-78850819D02*
X138180452Y-78898438D01*
X138180452Y-78898438D02*
X138228071Y-78946057D01*
X138228071Y-78946057D02*
X138275690Y-79041295D01*
X138275690Y-79041295D02*
X138275690Y-79184152D01*
X138275690Y-79184152D02*
X138228071Y-79279390D01*
X138228071Y-79279390D02*
X138180452Y-79327009D01*
X138180452Y-79327009D02*
X138085214Y-79374628D01*
X138085214Y-79374628D02*
X137704262Y-79374628D01*
X138989976Y-78850819D02*
X138989976Y-79565104D01*
X138989976Y-79565104D02*
X138942357Y-79707961D01*
X138942357Y-79707961D02*
X138847119Y-79803200D01*
X138847119Y-79803200D02*
X138704262Y-79850819D01*
X138704262Y-79850819D02*
X138609024Y-79850819D01*
X139894738Y-79184152D02*
X139894738Y-79850819D01*
X139656643Y-78803200D02*
X139418548Y-79517485D01*
X139418548Y-79517485D02*
X140037595Y-79517485D01*
X140894738Y-78850819D02*
X140418548Y-78850819D01*
X140418548Y-78850819D02*
X140370929Y-79327009D01*
X140370929Y-79327009D02*
X140418548Y-79279390D01*
X140418548Y-79279390D02*
X140513786Y-79231771D01*
X140513786Y-79231771D02*
X140751881Y-79231771D01*
X140751881Y-79231771D02*
X140847119Y-79279390D01*
X140847119Y-79279390D02*
X140894738Y-79327009D01*
X140894738Y-79327009D02*
X140942357Y-79422247D01*
X140942357Y-79422247D02*
X140942357Y-79660342D01*
X140942357Y-79660342D02*
X140894738Y-79755580D01*
X140894738Y-79755580D02*
X140847119Y-79803200D01*
X140847119Y-79803200D02*
X140751881Y-79850819D01*
X140751881Y-79850819D02*
X140513786Y-79850819D01*
X140513786Y-79850819D02*
X140418548Y-79803200D01*
X140418548Y-79803200D02*
X140370929Y-79755580D01*
X150744580Y-85828666D02*
X150792200Y-85876285D01*
X150792200Y-85876285D02*
X150839819Y-86019142D01*
X150839819Y-86019142D02*
X150839819Y-86114380D01*
X150839819Y-86114380D02*
X150792200Y-86257237D01*
X150792200Y-86257237D02*
X150696961Y-86352475D01*
X150696961Y-86352475D02*
X150601723Y-86400094D01*
X150601723Y-86400094D02*
X150411247Y-86447713D01*
X150411247Y-86447713D02*
X150268390Y-86447713D01*
X150268390Y-86447713D02*
X150077914Y-86400094D01*
X150077914Y-86400094D02*
X149982676Y-86352475D01*
X149982676Y-86352475D02*
X149887438Y-86257237D01*
X149887438Y-86257237D02*
X149839819Y-86114380D01*
X149839819Y-86114380D02*
X149839819Y-86019142D01*
X149839819Y-86019142D02*
X149887438Y-85876285D01*
X149887438Y-85876285D02*
X149935057Y-85828666D01*
X150839819Y-84876285D02*
X150839819Y-85447713D01*
X150839819Y-85161999D02*
X149839819Y-85161999D01*
X149839819Y-85161999D02*
X149982676Y-85257237D01*
X149982676Y-85257237D02*
X150077914Y-85352475D01*
X150077914Y-85352475D02*
X150125533Y-85447713D01*
X148088819Y-83780666D02*
X148088819Y-83161619D01*
X148088819Y-83161619D02*
X148469771Y-83494952D01*
X148469771Y-83494952D02*
X148469771Y-83352095D01*
X148469771Y-83352095D02*
X148517390Y-83256857D01*
X148517390Y-83256857D02*
X148565009Y-83209238D01*
X148565009Y-83209238D02*
X148660247Y-83161619D01*
X148660247Y-83161619D02*
X148898342Y-83161619D01*
X148898342Y-83161619D02*
X148993580Y-83209238D01*
X148993580Y-83209238D02*
X149041200Y-83256857D01*
X149041200Y-83256857D02*
X149088819Y-83352095D01*
X149088819Y-83352095D02*
X149088819Y-83637809D01*
X149088819Y-83637809D02*
X149041200Y-83733047D01*
X149041200Y-83733047D02*
X148993580Y-83780666D01*
X148088819Y-82828285D02*
X148088819Y-82209238D01*
X148088819Y-82209238D02*
X148469771Y-82542571D01*
X148469771Y-82542571D02*
X148469771Y-82399714D01*
X148469771Y-82399714D02*
X148517390Y-82304476D01*
X148517390Y-82304476D02*
X148565009Y-82256857D01*
X148565009Y-82256857D02*
X148660247Y-82209238D01*
X148660247Y-82209238D02*
X148898342Y-82209238D01*
X148898342Y-82209238D02*
X148993580Y-82256857D01*
X148993580Y-82256857D02*
X149041200Y-82304476D01*
X149041200Y-82304476D02*
X149088819Y-82399714D01*
X149088819Y-82399714D02*
X149088819Y-82685428D01*
X149088819Y-82685428D02*
X149041200Y-82780666D01*
X149041200Y-82780666D02*
X148993580Y-82828285D01*
X148088819Y-81590190D02*
X148088819Y-81494952D01*
X148088819Y-81494952D02*
X148136438Y-81399714D01*
X148136438Y-81399714D02*
X148184057Y-81352095D01*
X148184057Y-81352095D02*
X148279295Y-81304476D01*
X148279295Y-81304476D02*
X148469771Y-81256857D01*
X148469771Y-81256857D02*
X148707866Y-81256857D01*
X148707866Y-81256857D02*
X148898342Y-81304476D01*
X148898342Y-81304476D02*
X148993580Y-81352095D01*
X148993580Y-81352095D02*
X149041200Y-81399714D01*
X149041200Y-81399714D02*
X149088819Y-81494952D01*
X149088819Y-81494952D02*
X149088819Y-81590190D01*
X149088819Y-81590190D02*
X149041200Y-81685428D01*
X149041200Y-81685428D02*
X148993580Y-81733047D01*
X148993580Y-81733047D02*
X148898342Y-81780666D01*
X148898342Y-81780666D02*
X148707866Y-81828285D01*
X148707866Y-81828285D02*
X148469771Y-81828285D01*
X148469771Y-81828285D02*
X148279295Y-81780666D01*
X148279295Y-81780666D02*
X148184057Y-81733047D01*
X148184057Y-81733047D02*
X148136438Y-81685428D01*
X148136438Y-81685428D02*
X148088819Y-81590190D01*
X148422152Y-80828285D02*
X149088819Y-80828285D01*
X148517390Y-80828285D02*
X148469771Y-80780666D01*
X148469771Y-80780666D02*
X148422152Y-80685428D01*
X148422152Y-80685428D02*
X148422152Y-80542571D01*
X148422152Y-80542571D02*
X148469771Y-80447333D01*
X148469771Y-80447333D02*
X148565009Y-80399714D01*
X148565009Y-80399714D02*
X149088819Y-80399714D01*
X148565009Y-79590190D02*
X148565009Y-79923523D01*
X149088819Y-79923523D02*
X148088819Y-79923523D01*
X148088819Y-79923523D02*
X148088819Y-79447333D01*
X183754219Y-119955933D02*
X184468504Y-119955933D01*
X184468504Y-119955933D02*
X184611361Y-120003552D01*
X184611361Y-120003552D02*
X184706600Y-120098790D01*
X184706600Y-120098790D02*
X184754219Y-120241647D01*
X184754219Y-120241647D02*
X184754219Y-120336885D01*
X183754219Y-119051171D02*
X183754219Y-119241647D01*
X183754219Y-119241647D02*
X183801838Y-119336885D01*
X183801838Y-119336885D02*
X183849457Y-119384504D01*
X183849457Y-119384504D02*
X183992314Y-119479742D01*
X183992314Y-119479742D02*
X184182790Y-119527361D01*
X184182790Y-119527361D02*
X184563742Y-119527361D01*
X184563742Y-119527361D02*
X184658980Y-119479742D01*
X184658980Y-119479742D02*
X184706600Y-119432123D01*
X184706600Y-119432123D02*
X184754219Y-119336885D01*
X184754219Y-119336885D02*
X184754219Y-119146409D01*
X184754219Y-119146409D02*
X184706600Y-119051171D01*
X184706600Y-119051171D02*
X184658980Y-119003552D01*
X184658980Y-119003552D02*
X184563742Y-118955933D01*
X184563742Y-118955933D02*
X184325647Y-118955933D01*
X184325647Y-118955933D02*
X184230409Y-119003552D01*
X184230409Y-119003552D02*
X184182790Y-119051171D01*
X184182790Y-119051171D02*
X184135171Y-119146409D01*
X184135171Y-119146409D02*
X184135171Y-119336885D01*
X184135171Y-119336885D02*
X184182790Y-119432123D01*
X184182790Y-119432123D02*
X184230409Y-119479742D01*
X184230409Y-119479742D02*
X184325647Y-119527361D01*
X162427580Y-85764666D02*
X162475200Y-85812285D01*
X162475200Y-85812285D02*
X162522819Y-85955142D01*
X162522819Y-85955142D02*
X162522819Y-86050380D01*
X162522819Y-86050380D02*
X162475200Y-86193237D01*
X162475200Y-86193237D02*
X162379961Y-86288475D01*
X162379961Y-86288475D02*
X162284723Y-86336094D01*
X162284723Y-86336094D02*
X162094247Y-86383713D01*
X162094247Y-86383713D02*
X161951390Y-86383713D01*
X161951390Y-86383713D02*
X161760914Y-86336094D01*
X161760914Y-86336094D02*
X161665676Y-86288475D01*
X161665676Y-86288475D02*
X161570438Y-86193237D01*
X161570438Y-86193237D02*
X161522819Y-86050380D01*
X161522819Y-86050380D02*
X161522819Y-85955142D01*
X161522819Y-85955142D02*
X161570438Y-85812285D01*
X161570438Y-85812285D02*
X161618057Y-85764666D01*
X161522819Y-85431332D02*
X161522819Y-84812285D01*
X161522819Y-84812285D02*
X161903771Y-85145618D01*
X161903771Y-85145618D02*
X161903771Y-85002761D01*
X161903771Y-85002761D02*
X161951390Y-84907523D01*
X161951390Y-84907523D02*
X161999009Y-84859904D01*
X161999009Y-84859904D02*
X162094247Y-84812285D01*
X162094247Y-84812285D02*
X162332342Y-84812285D01*
X162332342Y-84812285D02*
X162427580Y-84859904D01*
X162427580Y-84859904D02*
X162475200Y-84907523D01*
X162475200Y-84907523D02*
X162522819Y-85002761D01*
X162522819Y-85002761D02*
X162522819Y-85288475D01*
X162522819Y-85288475D02*
X162475200Y-85383713D01*
X162475200Y-85383713D02*
X162427580Y-85431332D01*
X163300819Y-84166666D02*
X163300819Y-83547619D01*
X163300819Y-83547619D02*
X163681771Y-83880952D01*
X163681771Y-83880952D02*
X163681771Y-83738095D01*
X163681771Y-83738095D02*
X163729390Y-83642857D01*
X163729390Y-83642857D02*
X163777009Y-83595238D01*
X163777009Y-83595238D02*
X163872247Y-83547619D01*
X163872247Y-83547619D02*
X164110342Y-83547619D01*
X164110342Y-83547619D02*
X164205580Y-83595238D01*
X164205580Y-83595238D02*
X164253200Y-83642857D01*
X164253200Y-83642857D02*
X164300819Y-83738095D01*
X164300819Y-83738095D02*
X164300819Y-84023809D01*
X164300819Y-84023809D02*
X164253200Y-84119047D01*
X164253200Y-84119047D02*
X164205580Y-84166666D01*
X163300819Y-83214285D02*
X163300819Y-82595238D01*
X163300819Y-82595238D02*
X163681771Y-82928571D01*
X163681771Y-82928571D02*
X163681771Y-82785714D01*
X163681771Y-82785714D02*
X163729390Y-82690476D01*
X163729390Y-82690476D02*
X163777009Y-82642857D01*
X163777009Y-82642857D02*
X163872247Y-82595238D01*
X163872247Y-82595238D02*
X164110342Y-82595238D01*
X164110342Y-82595238D02*
X164205580Y-82642857D01*
X164205580Y-82642857D02*
X164253200Y-82690476D01*
X164253200Y-82690476D02*
X164300819Y-82785714D01*
X164300819Y-82785714D02*
X164300819Y-83071428D01*
X164300819Y-83071428D02*
X164253200Y-83166666D01*
X164253200Y-83166666D02*
X164205580Y-83214285D01*
X163300819Y-81976190D02*
X163300819Y-81880952D01*
X163300819Y-81880952D02*
X163348438Y-81785714D01*
X163348438Y-81785714D02*
X163396057Y-81738095D01*
X163396057Y-81738095D02*
X163491295Y-81690476D01*
X163491295Y-81690476D02*
X163681771Y-81642857D01*
X163681771Y-81642857D02*
X163919866Y-81642857D01*
X163919866Y-81642857D02*
X164110342Y-81690476D01*
X164110342Y-81690476D02*
X164205580Y-81738095D01*
X164205580Y-81738095D02*
X164253200Y-81785714D01*
X164253200Y-81785714D02*
X164300819Y-81880952D01*
X164300819Y-81880952D02*
X164300819Y-81976190D01*
X164300819Y-81976190D02*
X164253200Y-82071428D01*
X164253200Y-82071428D02*
X164205580Y-82119047D01*
X164205580Y-82119047D02*
X164110342Y-82166666D01*
X164110342Y-82166666D02*
X163919866Y-82214285D01*
X163919866Y-82214285D02*
X163681771Y-82214285D01*
X163681771Y-82214285D02*
X163491295Y-82166666D01*
X163491295Y-82166666D02*
X163396057Y-82119047D01*
X163396057Y-82119047D02*
X163348438Y-82071428D01*
X163348438Y-82071428D02*
X163300819Y-81976190D01*
X163634152Y-81214285D02*
X164300819Y-81214285D01*
X163729390Y-81214285D02*
X163681771Y-81166666D01*
X163681771Y-81166666D02*
X163634152Y-81071428D01*
X163634152Y-81071428D02*
X163634152Y-80928571D01*
X163634152Y-80928571D02*
X163681771Y-80833333D01*
X163681771Y-80833333D02*
X163777009Y-80785714D01*
X163777009Y-80785714D02*
X164300819Y-80785714D01*
X163777009Y-79976190D02*
X163777009Y-80309523D01*
X164300819Y-80309523D02*
X163300819Y-80309523D01*
X163300819Y-80309523D02*
X163300819Y-79833333D01*
X165983580Y-85764666D02*
X166031200Y-85812285D01*
X166031200Y-85812285D02*
X166078819Y-85955142D01*
X166078819Y-85955142D02*
X166078819Y-86050380D01*
X166078819Y-86050380D02*
X166031200Y-86193237D01*
X166031200Y-86193237D02*
X165935961Y-86288475D01*
X165935961Y-86288475D02*
X165840723Y-86336094D01*
X165840723Y-86336094D02*
X165650247Y-86383713D01*
X165650247Y-86383713D02*
X165507390Y-86383713D01*
X165507390Y-86383713D02*
X165316914Y-86336094D01*
X165316914Y-86336094D02*
X165221676Y-86288475D01*
X165221676Y-86288475D02*
X165126438Y-86193237D01*
X165126438Y-86193237D02*
X165078819Y-86050380D01*
X165078819Y-86050380D02*
X165078819Y-85955142D01*
X165078819Y-85955142D02*
X165126438Y-85812285D01*
X165126438Y-85812285D02*
X165174057Y-85764666D01*
X165174057Y-85383713D02*
X165126438Y-85336094D01*
X165126438Y-85336094D02*
X165078819Y-85240856D01*
X165078819Y-85240856D02*
X165078819Y-85002761D01*
X165078819Y-85002761D02*
X165126438Y-84907523D01*
X165126438Y-84907523D02*
X165174057Y-84859904D01*
X165174057Y-84859904D02*
X165269295Y-84812285D01*
X165269295Y-84812285D02*
X165364533Y-84812285D01*
X165364533Y-84812285D02*
X165507390Y-84859904D01*
X165507390Y-84859904D02*
X166078819Y-85431332D01*
X166078819Y-85431332D02*
X166078819Y-84812285D01*
X166856819Y-84166666D02*
X166856819Y-83547619D01*
X166856819Y-83547619D02*
X167237771Y-83880952D01*
X167237771Y-83880952D02*
X167237771Y-83738095D01*
X167237771Y-83738095D02*
X167285390Y-83642857D01*
X167285390Y-83642857D02*
X167333009Y-83595238D01*
X167333009Y-83595238D02*
X167428247Y-83547619D01*
X167428247Y-83547619D02*
X167666342Y-83547619D01*
X167666342Y-83547619D02*
X167761580Y-83595238D01*
X167761580Y-83595238D02*
X167809200Y-83642857D01*
X167809200Y-83642857D02*
X167856819Y-83738095D01*
X167856819Y-83738095D02*
X167856819Y-84023809D01*
X167856819Y-84023809D02*
X167809200Y-84119047D01*
X167809200Y-84119047D02*
X167761580Y-84166666D01*
X166856819Y-83214285D02*
X166856819Y-82595238D01*
X166856819Y-82595238D02*
X167237771Y-82928571D01*
X167237771Y-82928571D02*
X167237771Y-82785714D01*
X167237771Y-82785714D02*
X167285390Y-82690476D01*
X167285390Y-82690476D02*
X167333009Y-82642857D01*
X167333009Y-82642857D02*
X167428247Y-82595238D01*
X167428247Y-82595238D02*
X167666342Y-82595238D01*
X167666342Y-82595238D02*
X167761580Y-82642857D01*
X167761580Y-82642857D02*
X167809200Y-82690476D01*
X167809200Y-82690476D02*
X167856819Y-82785714D01*
X167856819Y-82785714D02*
X167856819Y-83071428D01*
X167856819Y-83071428D02*
X167809200Y-83166666D01*
X167809200Y-83166666D02*
X167761580Y-83214285D01*
X166856819Y-81976190D02*
X166856819Y-81880952D01*
X166856819Y-81880952D02*
X166904438Y-81785714D01*
X166904438Y-81785714D02*
X166952057Y-81738095D01*
X166952057Y-81738095D02*
X167047295Y-81690476D01*
X167047295Y-81690476D02*
X167237771Y-81642857D01*
X167237771Y-81642857D02*
X167475866Y-81642857D01*
X167475866Y-81642857D02*
X167666342Y-81690476D01*
X167666342Y-81690476D02*
X167761580Y-81738095D01*
X167761580Y-81738095D02*
X167809200Y-81785714D01*
X167809200Y-81785714D02*
X167856819Y-81880952D01*
X167856819Y-81880952D02*
X167856819Y-81976190D01*
X167856819Y-81976190D02*
X167809200Y-82071428D01*
X167809200Y-82071428D02*
X167761580Y-82119047D01*
X167761580Y-82119047D02*
X167666342Y-82166666D01*
X167666342Y-82166666D02*
X167475866Y-82214285D01*
X167475866Y-82214285D02*
X167237771Y-82214285D01*
X167237771Y-82214285D02*
X167047295Y-82166666D01*
X167047295Y-82166666D02*
X166952057Y-82119047D01*
X166952057Y-82119047D02*
X166904438Y-82071428D01*
X166904438Y-82071428D02*
X166856819Y-81976190D01*
X167190152Y-81214285D02*
X167856819Y-81214285D01*
X167285390Y-81214285D02*
X167237771Y-81166666D01*
X167237771Y-81166666D02*
X167190152Y-81071428D01*
X167190152Y-81071428D02*
X167190152Y-80928571D01*
X167190152Y-80928571D02*
X167237771Y-80833333D01*
X167237771Y-80833333D02*
X167333009Y-80785714D01*
X167333009Y-80785714D02*
X167856819Y-80785714D01*
X167333009Y-79976190D02*
X167333009Y-80309523D01*
X167856819Y-80309523D02*
X166856819Y-80309523D01*
X166856819Y-80309523D02*
X166856819Y-79833333D01*
X158293819Y-74578904D02*
X159103342Y-74578904D01*
X159103342Y-74578904D02*
X159198580Y-74531285D01*
X159198580Y-74531285D02*
X159246200Y-74483666D01*
X159246200Y-74483666D02*
X159293819Y-74388428D01*
X159293819Y-74388428D02*
X159293819Y-74197952D01*
X159293819Y-74197952D02*
X159246200Y-74102714D01*
X159246200Y-74102714D02*
X159198580Y-74055095D01*
X159198580Y-74055095D02*
X159103342Y-74007476D01*
X159103342Y-74007476D02*
X158293819Y-74007476D01*
X158293819Y-73626523D02*
X158293819Y-73007476D01*
X158293819Y-73007476D02*
X158674771Y-73340809D01*
X158674771Y-73340809D02*
X158674771Y-73197952D01*
X158674771Y-73197952D02*
X158722390Y-73102714D01*
X158722390Y-73102714D02*
X158770009Y-73055095D01*
X158770009Y-73055095D02*
X158865247Y-73007476D01*
X158865247Y-73007476D02*
X159103342Y-73007476D01*
X159103342Y-73007476D02*
X159198580Y-73055095D01*
X159198580Y-73055095D02*
X159246200Y-73102714D01*
X159246200Y-73102714D02*
X159293819Y-73197952D01*
X159293819Y-73197952D02*
X159293819Y-73483666D01*
X159293819Y-73483666D02*
X159246200Y-73578904D01*
X159246200Y-73578904D02*
X159198580Y-73626523D01*
X168110819Y-76462095D02*
X168110819Y-76938285D01*
X168110819Y-76938285D02*
X167110819Y-76938285D01*
X168110819Y-76128761D02*
X167110819Y-76128761D01*
X167110819Y-76128761D02*
X167825104Y-75795428D01*
X167825104Y-75795428D02*
X167110819Y-75462095D01*
X167110819Y-75462095D02*
X168110819Y-75462095D01*
X167110819Y-75081142D02*
X167110819Y-74414476D01*
X167110819Y-74414476D02*
X168110819Y-74843047D01*
X167539390Y-73890666D02*
X167491771Y-73985904D01*
X167491771Y-73985904D02*
X167444152Y-74033523D01*
X167444152Y-74033523D02*
X167348914Y-74081142D01*
X167348914Y-74081142D02*
X167301295Y-74081142D01*
X167301295Y-74081142D02*
X167206057Y-74033523D01*
X167206057Y-74033523D02*
X167158438Y-73985904D01*
X167158438Y-73985904D02*
X167110819Y-73890666D01*
X167110819Y-73890666D02*
X167110819Y-73700190D01*
X167110819Y-73700190D02*
X167158438Y-73604952D01*
X167158438Y-73604952D02*
X167206057Y-73557333D01*
X167206057Y-73557333D02*
X167301295Y-73509714D01*
X167301295Y-73509714D02*
X167348914Y-73509714D01*
X167348914Y-73509714D02*
X167444152Y-73557333D01*
X167444152Y-73557333D02*
X167491771Y-73604952D01*
X167491771Y-73604952D02*
X167539390Y-73700190D01*
X167539390Y-73700190D02*
X167539390Y-73890666D01*
X167539390Y-73890666D02*
X167587009Y-73985904D01*
X167587009Y-73985904D02*
X167634628Y-74033523D01*
X167634628Y-74033523D02*
X167729866Y-74081142D01*
X167729866Y-74081142D02*
X167920342Y-74081142D01*
X167920342Y-74081142D02*
X168015580Y-74033523D01*
X168015580Y-74033523D02*
X168063200Y-73985904D01*
X168063200Y-73985904D02*
X168110819Y-73890666D01*
X168110819Y-73890666D02*
X168110819Y-73700190D01*
X168110819Y-73700190D02*
X168063200Y-73604952D01*
X168063200Y-73604952D02*
X168015580Y-73557333D01*
X168015580Y-73557333D02*
X167920342Y-73509714D01*
X167920342Y-73509714D02*
X167729866Y-73509714D01*
X167729866Y-73509714D02*
X167634628Y-73557333D01*
X167634628Y-73557333D02*
X167587009Y-73604952D01*
X167587009Y-73604952D02*
X167539390Y-73700190D01*
X168110819Y-73081142D02*
X167110819Y-73081142D01*
X167110819Y-73081142D02*
X167825104Y-72747809D01*
X167825104Y-72747809D02*
X167110819Y-72414476D01*
X167110819Y-72414476D02*
X168110819Y-72414476D01*
X167110819Y-71747809D02*
X167110819Y-71652571D01*
X167110819Y-71652571D02*
X167158438Y-71557333D01*
X167158438Y-71557333D02*
X167206057Y-71509714D01*
X167206057Y-71509714D02*
X167301295Y-71462095D01*
X167301295Y-71462095D02*
X167491771Y-71414476D01*
X167491771Y-71414476D02*
X167729866Y-71414476D01*
X167729866Y-71414476D02*
X167920342Y-71462095D01*
X167920342Y-71462095D02*
X168015580Y-71509714D01*
X168015580Y-71509714D02*
X168063200Y-71557333D01*
X168063200Y-71557333D02*
X168110819Y-71652571D01*
X168110819Y-71652571D02*
X168110819Y-71747809D01*
X168110819Y-71747809D02*
X168063200Y-71843047D01*
X168063200Y-71843047D02*
X168015580Y-71890666D01*
X168015580Y-71890666D02*
X167920342Y-71938285D01*
X167920342Y-71938285D02*
X167729866Y-71985904D01*
X167729866Y-71985904D02*
X167491771Y-71985904D01*
X167491771Y-71985904D02*
X167301295Y-71938285D01*
X167301295Y-71938285D02*
X167206057Y-71890666D01*
X167206057Y-71890666D02*
X167158438Y-71843047D01*
X167158438Y-71843047D02*
X167110819Y-71747809D01*
X167110819Y-70509714D02*
X167110819Y-70985904D01*
X167110819Y-70985904D02*
X167587009Y-71033523D01*
X167587009Y-71033523D02*
X167539390Y-70985904D01*
X167539390Y-70985904D02*
X167491771Y-70890666D01*
X167491771Y-70890666D02*
X167491771Y-70652571D01*
X167491771Y-70652571D02*
X167539390Y-70557333D01*
X167539390Y-70557333D02*
X167587009Y-70509714D01*
X167587009Y-70509714D02*
X167682247Y-70462095D01*
X167682247Y-70462095D02*
X167920342Y-70462095D01*
X167920342Y-70462095D02*
X168015580Y-70509714D01*
X168015580Y-70509714D02*
X168063200Y-70557333D01*
X168063200Y-70557333D02*
X168110819Y-70652571D01*
X168110819Y-70652571D02*
X168110819Y-70890666D01*
X168110819Y-70890666D02*
X168063200Y-70985904D01*
X168063200Y-70985904D02*
X168015580Y-71033523D01*
X130834219Y-92015933D02*
X131548504Y-92015933D01*
X131548504Y-92015933D02*
X131691361Y-92063552D01*
X131691361Y-92063552D02*
X131786600Y-92158790D01*
X131786600Y-92158790D02*
X131834219Y-92301647D01*
X131834219Y-92301647D02*
X131834219Y-92396885D01*
X130834219Y-91063552D02*
X130834219Y-91539742D01*
X130834219Y-91539742D02*
X131310409Y-91587361D01*
X131310409Y-91587361D02*
X131262790Y-91539742D01*
X131262790Y-91539742D02*
X131215171Y-91444504D01*
X131215171Y-91444504D02*
X131215171Y-91206409D01*
X131215171Y-91206409D02*
X131262790Y-91111171D01*
X131262790Y-91111171D02*
X131310409Y-91063552D01*
X131310409Y-91063552D02*
X131405647Y-91015933D01*
X131405647Y-91015933D02*
X131643742Y-91015933D01*
X131643742Y-91015933D02*
X131738980Y-91063552D01*
X131738980Y-91063552D02*
X131786600Y-91111171D01*
X131786600Y-91111171D02*
X131834219Y-91206409D01*
X131834219Y-91206409D02*
X131834219Y-91444504D01*
X131834219Y-91444504D02*
X131786600Y-91539742D01*
X131786600Y-91539742D02*
X131738980Y-91587361D01*
X155162819Y-85915904D02*
X155972342Y-85915904D01*
X155972342Y-85915904D02*
X156067580Y-85868285D01*
X156067580Y-85868285D02*
X156115200Y-85820666D01*
X156115200Y-85820666D02*
X156162819Y-85725428D01*
X156162819Y-85725428D02*
X156162819Y-85534952D01*
X156162819Y-85534952D02*
X156115200Y-85439714D01*
X156115200Y-85439714D02*
X156067580Y-85392095D01*
X156067580Y-85392095D02*
X155972342Y-85344476D01*
X155972342Y-85344476D02*
X155162819Y-85344476D01*
X156162819Y-84344476D02*
X156162819Y-84915904D01*
X156162819Y-84630190D02*
X155162819Y-84630190D01*
X155162819Y-84630190D02*
X155305676Y-84725428D01*
X155305676Y-84725428D02*
X155400914Y-84820666D01*
X155400914Y-84820666D02*
X155448533Y-84915904D01*
X154162762Y-89240219D02*
X154162762Y-88240219D01*
X154162762Y-88240219D02*
X154543714Y-88240219D01*
X154543714Y-88240219D02*
X154638952Y-88287838D01*
X154638952Y-88287838D02*
X154686571Y-88335457D01*
X154686571Y-88335457D02*
X154734190Y-88430695D01*
X154734190Y-88430695D02*
X154734190Y-88573552D01*
X154734190Y-88573552D02*
X154686571Y-88668790D01*
X154686571Y-88668790D02*
X154638952Y-88716409D01*
X154638952Y-88716409D02*
X154543714Y-88764028D01*
X154543714Y-88764028D02*
X154162762Y-88764028D01*
X155734190Y-89144980D02*
X155686571Y-89192600D01*
X155686571Y-89192600D02*
X155543714Y-89240219D01*
X155543714Y-89240219D02*
X155448476Y-89240219D01*
X155448476Y-89240219D02*
X155305619Y-89192600D01*
X155305619Y-89192600D02*
X155210381Y-89097361D01*
X155210381Y-89097361D02*
X155162762Y-89002123D01*
X155162762Y-89002123D02*
X155115143Y-88811647D01*
X155115143Y-88811647D02*
X155115143Y-88668790D01*
X155115143Y-88668790D02*
X155162762Y-88478314D01*
X155162762Y-88478314D02*
X155210381Y-88383076D01*
X155210381Y-88383076D02*
X155305619Y-88287838D01*
X155305619Y-88287838D02*
X155448476Y-88240219D01*
X155448476Y-88240219D02*
X155543714Y-88240219D01*
X155543714Y-88240219D02*
X155686571Y-88287838D01*
X155686571Y-88287838D02*
X155734190Y-88335457D01*
X156115143Y-88954504D02*
X156591333Y-88954504D01*
X156019905Y-89240219D02*
X156353238Y-88240219D01*
X156353238Y-88240219D02*
X156686571Y-89240219D01*
X157067524Y-89240219D02*
X157258000Y-89240219D01*
X157258000Y-89240219D02*
X157353238Y-89192600D01*
X157353238Y-89192600D02*
X157400857Y-89144980D01*
X157400857Y-89144980D02*
X157496095Y-89002123D01*
X157496095Y-89002123D02*
X157543714Y-88811647D01*
X157543714Y-88811647D02*
X157543714Y-88430695D01*
X157543714Y-88430695D02*
X157496095Y-88335457D01*
X157496095Y-88335457D02*
X157448476Y-88287838D01*
X157448476Y-88287838D02*
X157353238Y-88240219D01*
X157353238Y-88240219D02*
X157162762Y-88240219D01*
X157162762Y-88240219D02*
X157067524Y-88287838D01*
X157067524Y-88287838D02*
X157019905Y-88335457D01*
X157019905Y-88335457D02*
X156972286Y-88430695D01*
X156972286Y-88430695D02*
X156972286Y-88668790D01*
X156972286Y-88668790D02*
X157019905Y-88764028D01*
X157019905Y-88764028D02*
X157067524Y-88811647D01*
X157067524Y-88811647D02*
X157162762Y-88859266D01*
X157162762Y-88859266D02*
X157353238Y-88859266D01*
X157353238Y-88859266D02*
X157448476Y-88811647D01*
X157448476Y-88811647D02*
X157496095Y-88764028D01*
X157496095Y-88764028D02*
X157543714Y-88668790D01*
X158400857Y-88240219D02*
X158210381Y-88240219D01*
X158210381Y-88240219D02*
X158115143Y-88287838D01*
X158115143Y-88287838D02*
X158067524Y-88335457D01*
X158067524Y-88335457D02*
X157972286Y-88478314D01*
X157972286Y-88478314D02*
X157924667Y-88668790D01*
X157924667Y-88668790D02*
X157924667Y-89049742D01*
X157924667Y-89049742D02*
X157972286Y-89144980D01*
X157972286Y-89144980D02*
X158019905Y-89192600D01*
X158019905Y-89192600D02*
X158115143Y-89240219D01*
X158115143Y-89240219D02*
X158305619Y-89240219D01*
X158305619Y-89240219D02*
X158400857Y-89192600D01*
X158400857Y-89192600D02*
X158448476Y-89144980D01*
X158448476Y-89144980D02*
X158496095Y-89049742D01*
X158496095Y-89049742D02*
X158496095Y-88811647D01*
X158496095Y-88811647D02*
X158448476Y-88716409D01*
X158448476Y-88716409D02*
X158400857Y-88668790D01*
X158400857Y-88668790D02*
X158305619Y-88621171D01*
X158305619Y-88621171D02*
X158115143Y-88621171D01*
X158115143Y-88621171D02*
X158019905Y-88668790D01*
X158019905Y-88668790D02*
X157972286Y-88716409D01*
X157972286Y-88716409D02*
X157924667Y-88811647D01*
X159448476Y-89240219D02*
X158877048Y-89240219D01*
X159162762Y-89240219D02*
X159162762Y-88240219D01*
X159162762Y-88240219D02*
X159067524Y-88383076D01*
X159067524Y-88383076D02*
X158972286Y-88478314D01*
X158972286Y-88478314D02*
X158877048Y-88525933D01*
X160353238Y-88240219D02*
X159877048Y-88240219D01*
X159877048Y-88240219D02*
X159829429Y-88716409D01*
X159829429Y-88716409D02*
X159877048Y-88668790D01*
X159877048Y-88668790D02*
X159972286Y-88621171D01*
X159972286Y-88621171D02*
X160210381Y-88621171D01*
X160210381Y-88621171D02*
X160305619Y-88668790D01*
X160305619Y-88668790D02*
X160353238Y-88716409D01*
X160353238Y-88716409D02*
X160400857Y-88811647D01*
X160400857Y-88811647D02*
X160400857Y-89049742D01*
X160400857Y-89049742D02*
X160353238Y-89144980D01*
X160353238Y-89144980D02*
X160305619Y-89192600D01*
X160305619Y-89192600D02*
X160210381Y-89240219D01*
X160210381Y-89240219D02*
X159972286Y-89240219D01*
X159972286Y-89240219D02*
X159877048Y-89192600D01*
X159877048Y-89192600D02*
X159829429Y-89144980D01*
X160829429Y-89240219D02*
X160829429Y-88240219D01*
X160829429Y-88240219D02*
X161067524Y-88240219D01*
X161067524Y-88240219D02*
X161210381Y-88287838D01*
X161210381Y-88287838D02*
X161305619Y-88383076D01*
X161305619Y-88383076D02*
X161353238Y-88478314D01*
X161353238Y-88478314D02*
X161400857Y-88668790D01*
X161400857Y-88668790D02*
X161400857Y-88811647D01*
X161400857Y-88811647D02*
X161353238Y-89002123D01*
X161353238Y-89002123D02*
X161305619Y-89097361D01*
X161305619Y-89097361D02*
X161210381Y-89192600D01*
X161210381Y-89192600D02*
X161067524Y-89240219D01*
X161067524Y-89240219D02*
X160829429Y-89240219D01*
X161829429Y-89240219D02*
X161829429Y-88240219D01*
X161829429Y-88240219D02*
X162210381Y-88240219D01*
X162210381Y-88240219D02*
X162305619Y-88287838D01*
X162305619Y-88287838D02*
X162353238Y-88335457D01*
X162353238Y-88335457D02*
X162400857Y-88430695D01*
X162400857Y-88430695D02*
X162400857Y-88573552D01*
X162400857Y-88573552D02*
X162353238Y-88668790D01*
X162353238Y-88668790D02*
X162305619Y-88716409D01*
X162305619Y-88716409D02*
X162210381Y-88764028D01*
X162210381Y-88764028D02*
X161829429Y-88764028D01*
X155043333Y-109135580D02*
X154995714Y-109183200D01*
X154995714Y-109183200D02*
X154852857Y-109230819D01*
X154852857Y-109230819D02*
X154757619Y-109230819D01*
X154757619Y-109230819D02*
X154614762Y-109183200D01*
X154614762Y-109183200D02*
X154519524Y-109087961D01*
X154519524Y-109087961D02*
X154471905Y-108992723D01*
X154471905Y-108992723D02*
X154424286Y-108802247D01*
X154424286Y-108802247D02*
X154424286Y-108659390D01*
X154424286Y-108659390D02*
X154471905Y-108468914D01*
X154471905Y-108468914D02*
X154519524Y-108373676D01*
X154519524Y-108373676D02*
X154614762Y-108278438D01*
X154614762Y-108278438D02*
X154757619Y-108230819D01*
X154757619Y-108230819D02*
X154852857Y-108230819D01*
X154852857Y-108230819D02*
X154995714Y-108278438D01*
X154995714Y-108278438D02*
X155043333Y-108326057D01*
X155948095Y-108230819D02*
X155471905Y-108230819D01*
X155471905Y-108230819D02*
X155424286Y-108707009D01*
X155424286Y-108707009D02*
X155471905Y-108659390D01*
X155471905Y-108659390D02*
X155567143Y-108611771D01*
X155567143Y-108611771D02*
X155805238Y-108611771D01*
X155805238Y-108611771D02*
X155900476Y-108659390D01*
X155900476Y-108659390D02*
X155948095Y-108707009D01*
X155948095Y-108707009D02*
X155995714Y-108802247D01*
X155995714Y-108802247D02*
X155995714Y-109040342D01*
X155995714Y-109040342D02*
X155948095Y-109135580D01*
X155948095Y-109135580D02*
X155900476Y-109183200D01*
X155900476Y-109183200D02*
X155805238Y-109230819D01*
X155805238Y-109230819D02*
X155567143Y-109230819D01*
X155567143Y-109230819D02*
X155471905Y-109183200D01*
X155471905Y-109183200D02*
X155424286Y-109135580D01*
X157694571Y-106880819D02*
X157123143Y-106880819D01*
X157408857Y-106880819D02*
X157408857Y-105880819D01*
X157408857Y-105880819D02*
X157313619Y-106023676D01*
X157313619Y-106023676D02*
X157218381Y-106118914D01*
X157218381Y-106118914D02*
X157123143Y-106166533D01*
X158313619Y-105880819D02*
X158408857Y-105880819D01*
X158408857Y-105880819D02*
X158504095Y-105928438D01*
X158504095Y-105928438D02*
X158551714Y-105976057D01*
X158551714Y-105976057D02*
X158599333Y-106071295D01*
X158599333Y-106071295D02*
X158646952Y-106261771D01*
X158646952Y-106261771D02*
X158646952Y-106499866D01*
X158646952Y-106499866D02*
X158599333Y-106690342D01*
X158599333Y-106690342D02*
X158551714Y-106785580D01*
X158551714Y-106785580D02*
X158504095Y-106833200D01*
X158504095Y-106833200D02*
X158408857Y-106880819D01*
X158408857Y-106880819D02*
X158313619Y-106880819D01*
X158313619Y-106880819D02*
X158218381Y-106833200D01*
X158218381Y-106833200D02*
X158170762Y-106785580D01*
X158170762Y-106785580D02*
X158123143Y-106690342D01*
X158123143Y-106690342D02*
X158075524Y-106499866D01*
X158075524Y-106499866D02*
X158075524Y-106261771D01*
X158075524Y-106261771D02*
X158123143Y-106071295D01*
X158123143Y-106071295D02*
X158170762Y-105976057D01*
X158170762Y-105976057D02*
X158218381Y-105928438D01*
X158218381Y-105928438D02*
X158313619Y-105880819D01*
X159504095Y-106214152D02*
X159504095Y-106880819D01*
X159075524Y-106214152D02*
X159075524Y-106737961D01*
X159075524Y-106737961D02*
X159123143Y-106833200D01*
X159123143Y-106833200D02*
X159218381Y-106880819D01*
X159218381Y-106880819D02*
X159361238Y-106880819D01*
X159361238Y-106880819D02*
X159456476Y-106833200D01*
X159456476Y-106833200D02*
X159504095Y-106785580D01*
X160313619Y-106357009D02*
X159980286Y-106357009D01*
X159980286Y-106880819D02*
X159980286Y-105880819D01*
X159980286Y-105880819D02*
X160456476Y-105880819D01*
X177066166Y-87850819D02*
X177066166Y-88565104D01*
X177066166Y-88565104D02*
X177018547Y-88707961D01*
X177018547Y-88707961D02*
X176923309Y-88803200D01*
X176923309Y-88803200D02*
X176780452Y-88850819D01*
X176780452Y-88850819D02*
X176685214Y-88850819D01*
X177494738Y-87946057D02*
X177542357Y-87898438D01*
X177542357Y-87898438D02*
X177637595Y-87850819D01*
X177637595Y-87850819D02*
X177875690Y-87850819D01*
X177875690Y-87850819D02*
X177970928Y-87898438D01*
X177970928Y-87898438D02*
X178018547Y-87946057D01*
X178018547Y-87946057D02*
X178066166Y-88041295D01*
X178066166Y-88041295D02*
X178066166Y-88136533D01*
X178066166Y-88136533D02*
X178018547Y-88279390D01*
X178018547Y-88279390D02*
X177447119Y-88850819D01*
X177447119Y-88850819D02*
X178066166Y-88850819D01*
X176375690Y-79850819D02*
X176042357Y-79374628D01*
X175804262Y-79850819D02*
X175804262Y-78850819D01*
X175804262Y-78850819D02*
X176185214Y-78850819D01*
X176185214Y-78850819D02*
X176280452Y-78898438D01*
X176280452Y-78898438D02*
X176328071Y-78946057D01*
X176328071Y-78946057D02*
X176375690Y-79041295D01*
X176375690Y-79041295D02*
X176375690Y-79184152D01*
X176375690Y-79184152D02*
X176328071Y-79279390D01*
X176328071Y-79279390D02*
X176280452Y-79327009D01*
X176280452Y-79327009D02*
X176185214Y-79374628D01*
X176185214Y-79374628D02*
X175804262Y-79374628D01*
X177089976Y-78850819D02*
X177089976Y-79565104D01*
X177089976Y-79565104D02*
X177042357Y-79707961D01*
X177042357Y-79707961D02*
X176947119Y-79803200D01*
X176947119Y-79803200D02*
X176804262Y-79850819D01*
X176804262Y-79850819D02*
X176709024Y-79850819D01*
X177994738Y-79184152D02*
X177994738Y-79850819D01*
X177756643Y-78803200D02*
X177518548Y-79517485D01*
X177518548Y-79517485D02*
X178137595Y-79517485D01*
X178994738Y-78850819D02*
X178518548Y-78850819D01*
X178518548Y-78850819D02*
X178470929Y-79327009D01*
X178470929Y-79327009D02*
X178518548Y-79279390D01*
X178518548Y-79279390D02*
X178613786Y-79231771D01*
X178613786Y-79231771D02*
X178851881Y-79231771D01*
X178851881Y-79231771D02*
X178947119Y-79279390D01*
X178947119Y-79279390D02*
X178994738Y-79327009D01*
X178994738Y-79327009D02*
X179042357Y-79422247D01*
X179042357Y-79422247D02*
X179042357Y-79660342D01*
X179042357Y-79660342D02*
X178994738Y-79755580D01*
X178994738Y-79755580D02*
X178947119Y-79803200D01*
X178947119Y-79803200D02*
X178851881Y-79850819D01*
X178851881Y-79850819D02*
X178613786Y-79850819D01*
X178613786Y-79850819D02*
X178518548Y-79803200D01*
X178518548Y-79803200D02*
X178470929Y-79755580D01*
X147624819Y-74475904D02*
X148434342Y-74475904D01*
X148434342Y-74475904D02*
X148529580Y-74428285D01*
X148529580Y-74428285D02*
X148577200Y-74380666D01*
X148577200Y-74380666D02*
X148624819Y-74285428D01*
X148624819Y-74285428D02*
X148624819Y-74094952D01*
X148624819Y-74094952D02*
X148577200Y-73999714D01*
X148577200Y-73999714D02*
X148529580Y-73952095D01*
X148529580Y-73952095D02*
X148434342Y-73904476D01*
X148434342Y-73904476D02*
X147624819Y-73904476D01*
X147958152Y-72999714D02*
X148624819Y-72999714D01*
X147577200Y-73237809D02*
X148291485Y-73475904D01*
X148291485Y-73475904D02*
X148291485Y-72856857D01*
X157624819Y-76462095D02*
X157624819Y-76938285D01*
X157624819Y-76938285D02*
X156624819Y-76938285D01*
X157624819Y-76128761D02*
X156624819Y-76128761D01*
X156624819Y-76128761D02*
X157339104Y-75795428D01*
X157339104Y-75795428D02*
X156624819Y-75462095D01*
X156624819Y-75462095D02*
X157624819Y-75462095D01*
X156624819Y-75081142D02*
X156624819Y-74414476D01*
X156624819Y-74414476D02*
X157624819Y-74843047D01*
X157053390Y-73890666D02*
X157005771Y-73985904D01*
X157005771Y-73985904D02*
X156958152Y-74033523D01*
X156958152Y-74033523D02*
X156862914Y-74081142D01*
X156862914Y-74081142D02*
X156815295Y-74081142D01*
X156815295Y-74081142D02*
X156720057Y-74033523D01*
X156720057Y-74033523D02*
X156672438Y-73985904D01*
X156672438Y-73985904D02*
X156624819Y-73890666D01*
X156624819Y-73890666D02*
X156624819Y-73700190D01*
X156624819Y-73700190D02*
X156672438Y-73604952D01*
X156672438Y-73604952D02*
X156720057Y-73557333D01*
X156720057Y-73557333D02*
X156815295Y-73509714D01*
X156815295Y-73509714D02*
X156862914Y-73509714D01*
X156862914Y-73509714D02*
X156958152Y-73557333D01*
X156958152Y-73557333D02*
X157005771Y-73604952D01*
X157005771Y-73604952D02*
X157053390Y-73700190D01*
X157053390Y-73700190D02*
X157053390Y-73890666D01*
X157053390Y-73890666D02*
X157101009Y-73985904D01*
X157101009Y-73985904D02*
X157148628Y-74033523D01*
X157148628Y-74033523D02*
X157243866Y-74081142D01*
X157243866Y-74081142D02*
X157434342Y-74081142D01*
X157434342Y-74081142D02*
X157529580Y-74033523D01*
X157529580Y-74033523D02*
X157577200Y-73985904D01*
X157577200Y-73985904D02*
X157624819Y-73890666D01*
X157624819Y-73890666D02*
X157624819Y-73700190D01*
X157624819Y-73700190D02*
X157577200Y-73604952D01*
X157577200Y-73604952D02*
X157529580Y-73557333D01*
X157529580Y-73557333D02*
X157434342Y-73509714D01*
X157434342Y-73509714D02*
X157243866Y-73509714D01*
X157243866Y-73509714D02*
X157148628Y-73557333D01*
X157148628Y-73557333D02*
X157101009Y-73604952D01*
X157101009Y-73604952D02*
X157053390Y-73700190D01*
X157624819Y-73081142D02*
X156624819Y-73081142D01*
X156624819Y-73081142D02*
X157339104Y-72747809D01*
X157339104Y-72747809D02*
X156624819Y-72414476D01*
X156624819Y-72414476D02*
X157624819Y-72414476D01*
X156624819Y-71747809D02*
X156624819Y-71652571D01*
X156624819Y-71652571D02*
X156672438Y-71557333D01*
X156672438Y-71557333D02*
X156720057Y-71509714D01*
X156720057Y-71509714D02*
X156815295Y-71462095D01*
X156815295Y-71462095D02*
X157005771Y-71414476D01*
X157005771Y-71414476D02*
X157243866Y-71414476D01*
X157243866Y-71414476D02*
X157434342Y-71462095D01*
X157434342Y-71462095D02*
X157529580Y-71509714D01*
X157529580Y-71509714D02*
X157577200Y-71557333D01*
X157577200Y-71557333D02*
X157624819Y-71652571D01*
X157624819Y-71652571D02*
X157624819Y-71747809D01*
X157624819Y-71747809D02*
X157577200Y-71843047D01*
X157577200Y-71843047D02*
X157529580Y-71890666D01*
X157529580Y-71890666D02*
X157434342Y-71938285D01*
X157434342Y-71938285D02*
X157243866Y-71985904D01*
X157243866Y-71985904D02*
X157005771Y-71985904D01*
X157005771Y-71985904D02*
X156815295Y-71938285D01*
X156815295Y-71938285D02*
X156720057Y-71890666D01*
X156720057Y-71890666D02*
X156672438Y-71843047D01*
X156672438Y-71843047D02*
X156624819Y-71747809D01*
X156624819Y-70509714D02*
X156624819Y-70985904D01*
X156624819Y-70985904D02*
X157101009Y-71033523D01*
X157101009Y-71033523D02*
X157053390Y-70985904D01*
X157053390Y-70985904D02*
X157005771Y-70890666D01*
X157005771Y-70890666D02*
X157005771Y-70652571D01*
X157005771Y-70652571D02*
X157053390Y-70557333D01*
X157053390Y-70557333D02*
X157101009Y-70509714D01*
X157101009Y-70509714D02*
X157196247Y-70462095D01*
X157196247Y-70462095D02*
X157434342Y-70462095D01*
X157434342Y-70462095D02*
X157529580Y-70509714D01*
X157529580Y-70509714D02*
X157577200Y-70557333D01*
X157577200Y-70557333D02*
X157624819Y-70652571D01*
X157624819Y-70652571D02*
X157624819Y-70890666D01*
X157624819Y-70890666D02*
X157577200Y-70985904D01*
X157577200Y-70985904D02*
X157529580Y-71033523D01*
X127254286Y-93814866D02*
X128016191Y-93814866D01*
X127635238Y-94195819D02*
X127635238Y-93433914D01*
X128968571Y-93195819D02*
X128492381Y-93195819D01*
X128492381Y-93195819D02*
X128444762Y-93672009D01*
X128444762Y-93672009D02*
X128492381Y-93624390D01*
X128492381Y-93624390D02*
X128587619Y-93576771D01*
X128587619Y-93576771D02*
X128825714Y-93576771D01*
X128825714Y-93576771D02*
X128920952Y-93624390D01*
X128920952Y-93624390D02*
X128968571Y-93672009D01*
X128968571Y-93672009D02*
X129016190Y-93767247D01*
X129016190Y-93767247D02*
X129016190Y-94005342D01*
X129016190Y-94005342D02*
X128968571Y-94100580D01*
X128968571Y-94100580D02*
X128920952Y-94148200D01*
X128920952Y-94148200D02*
X128825714Y-94195819D01*
X128825714Y-94195819D02*
X128587619Y-94195819D01*
X128587619Y-94195819D02*
X128492381Y-94148200D01*
X128492381Y-94148200D02*
X128444762Y-94100580D01*
X129301905Y-93195819D02*
X129635238Y-94195819D01*
X129635238Y-94195819D02*
X129968571Y-93195819D01*
X127778095Y-100443438D02*
X127682857Y-100395819D01*
X127682857Y-100395819D02*
X127540000Y-100395819D01*
X127540000Y-100395819D02*
X127397143Y-100443438D01*
X127397143Y-100443438D02*
X127301905Y-100538676D01*
X127301905Y-100538676D02*
X127254286Y-100633914D01*
X127254286Y-100633914D02*
X127206667Y-100824390D01*
X127206667Y-100824390D02*
X127206667Y-100967247D01*
X127206667Y-100967247D02*
X127254286Y-101157723D01*
X127254286Y-101157723D02*
X127301905Y-101252961D01*
X127301905Y-101252961D02*
X127397143Y-101348200D01*
X127397143Y-101348200D02*
X127540000Y-101395819D01*
X127540000Y-101395819D02*
X127635238Y-101395819D01*
X127635238Y-101395819D02*
X127778095Y-101348200D01*
X127778095Y-101348200D02*
X127825714Y-101300580D01*
X127825714Y-101300580D02*
X127825714Y-100967247D01*
X127825714Y-100967247D02*
X127635238Y-100967247D01*
X128254286Y-101395819D02*
X128254286Y-100395819D01*
X128254286Y-100395819D02*
X128825714Y-101395819D01*
X128825714Y-101395819D02*
X128825714Y-100395819D01*
X129301905Y-101395819D02*
X129301905Y-100395819D01*
X129301905Y-100395819D02*
X129540000Y-100395819D01*
X129540000Y-100395819D02*
X129682857Y-100443438D01*
X129682857Y-100443438D02*
X129778095Y-100538676D01*
X129778095Y-100538676D02*
X129825714Y-100633914D01*
X129825714Y-100633914D02*
X129873333Y-100824390D01*
X129873333Y-100824390D02*
X129873333Y-100967247D01*
X129873333Y-100967247D02*
X129825714Y-101157723D01*
X129825714Y-101157723D02*
X129778095Y-101252961D01*
X129778095Y-101252961D02*
X129682857Y-101348200D01*
X129682857Y-101348200D02*
X129540000Y-101395819D01*
X129540000Y-101395819D02*
X129301905Y-101395819D01*
D12*
%TO.C,C6*%
X157016000Y-105460000D02*
X161226000Y-105460000D01*
X161226000Y-102440000D02*
X157016000Y-102440000D01*
X161226000Y-105460000D02*
X161226000Y-102440000D01*
D13*
%TO.C,U5*%
X167548000Y-99886000D02*
X167548000Y-110046000D01*
X167548000Y-110046000D02*
X170546000Y-110046000D01*
X170546000Y-99886000D02*
X167548000Y-99886000D01*
D14*
X161296000Y-102426000D02*
G75*
G02*
X161096000Y-102426000I-100000J0D01*
G01*
X161096000Y-102426000D02*
G75*
G02*
X161296000Y-102426000I100000J0D01*
G01*
D12*
%TO.C,C4*%
X153005000Y-80304000D02*
X153005000Y-84214000D01*
X154875000Y-80304000D02*
X153005000Y-80304000D01*
X154875000Y-84214000D02*
X154875000Y-80304000D01*
D15*
%TO.C,U2*%
X131169400Y-94222600D02*
X131169400Y-117082600D01*
X131169400Y-117082600D02*
X184509400Y-117082600D01*
X181969400Y-101759290D02*
X181969400Y-109462600D01*
X181969400Y-109462600D02*
X187049400Y-109462600D01*
X184509400Y-94222600D02*
X131169400Y-94222600D01*
X184509400Y-117082600D02*
X184509400Y-94222600D01*
X187049400Y-101759290D02*
X181969400Y-101759290D01*
X187049400Y-109462600D02*
X187049400Y-101759290D01*
D12*
%TO.C,+12V*%
X127210000Y-111251000D02*
X128540000Y-111251000D01*
X127210000Y-112581000D02*
X127210000Y-111251000D01*
X127210000Y-113851000D02*
X127210000Y-116451000D01*
X127210000Y-113851000D02*
X129870000Y-113851000D01*
X127210000Y-116451000D02*
X129870000Y-116451000D01*
X129870000Y-113851000D02*
X129870000Y-116451000D01*
%TO.C,J1*%
X131539500Y-87276000D02*
X131539500Y-69316000D01*
X131539500Y-87276000D02*
X147059500Y-87276000D01*
X147059500Y-69316000D02*
X131539500Y-69316000D01*
X147059500Y-87276000D02*
X147059500Y-69316000D01*
X147244500Y-83396000D02*
X147744500Y-83896000D01*
X147744500Y-82896000D02*
X147244500Y-83396000D01*
X147744500Y-83896000D02*
X147744500Y-82896000D01*
%TO.C,C1*%
X149449000Y-80304000D02*
X149449000Y-84214000D01*
X151319000Y-80304000D02*
X149449000Y-80304000D01*
X151319000Y-84214000D02*
X151319000Y-80304000D01*
%TO.C,J6*%
X132379400Y-118292600D02*
X132379400Y-120952600D01*
X180699400Y-118292600D02*
X132379400Y-118292600D01*
X180699400Y-118292600D02*
X180699400Y-120952600D01*
X180699400Y-120952600D02*
X132379400Y-120952600D01*
X181969400Y-118292600D02*
X183299400Y-118292600D01*
X183299400Y-118292600D02*
X183299400Y-119622600D01*
%TO.C,C3*%
X161133000Y-80558000D02*
X161133000Y-84468000D01*
X163003000Y-80558000D02*
X161133000Y-80558000D01*
X163003000Y-84468000D02*
X163003000Y-80558000D01*
%TO.C,C2*%
X164689000Y-80558000D02*
X164689000Y-84468000D01*
X166559000Y-80558000D02*
X164689000Y-80558000D01*
X166559000Y-84468000D02*
X166559000Y-80558000D01*
%TO.C,U3*%
X159889000Y-70707000D02*
X159889000Y-77127000D01*
X159889000Y-77127000D02*
X160159000Y-77127000D01*
X166789000Y-70707000D02*
X166789000Y-77127000D01*
X166789000Y-77127000D02*
X166519000Y-77127000D01*
X160199000Y-78547000D02*
X159869000Y-78787000D01*
X159869000Y-78307000D01*
X160199000Y-78547000D01*
G36*
X160199000Y-78547000D02*
G01*
X159869000Y-78787000D01*
X159869000Y-78307000D01*
X160199000Y-78547000D01*
G37*
%TO.C,J5*%
X132379400Y-93012600D02*
X132379400Y-91682600D01*
X133709400Y-93012600D02*
X132379400Y-93012600D01*
X134979400Y-90352600D02*
X183299400Y-90352600D01*
X134979400Y-93012600D02*
X134979400Y-90352600D01*
X134979400Y-93012600D02*
X183299400Y-93012600D01*
X183299400Y-93012600D02*
X183299400Y-90352600D01*
D11*
%TO.C,U1*%
X156633000Y-83529000D02*
X156858000Y-83529000D01*
X156633000Y-86779000D02*
X156633000Y-83529000D01*
X156633000Y-86779000D02*
X156858000Y-86779000D01*
X159883000Y-83529000D02*
X159658000Y-83529000D01*
X159883000Y-86779000D02*
X159658000Y-86779000D01*
X159883000Y-86779000D02*
X159883000Y-83529000D01*
D12*
X156858000Y-87254000D02*
X156528000Y-87494000D01*
X156528000Y-87014000D01*
X156858000Y-87254000D01*
G36*
X156858000Y-87254000D02*
G01*
X156528000Y-87494000D01*
X156528000Y-87014000D01*
X156858000Y-87254000D01*
G37*
%TO.C,C5*%
X157016000Y-110286000D02*
X161226000Y-110286000D01*
X161226000Y-107266000D02*
X157016000Y-107266000D01*
X161226000Y-110286000D02*
X161226000Y-107266000D01*
%TO.C,J2*%
X169639500Y-87276000D02*
X169639500Y-69316000D01*
X169639500Y-87276000D02*
X185159500Y-87276000D01*
X185159500Y-69316000D02*
X169639500Y-69316000D01*
X185159500Y-87276000D02*
X185159500Y-69316000D01*
X185344500Y-83396000D02*
X185844500Y-83896000D01*
X185844500Y-82896000D02*
X185344500Y-83396000D01*
X185844500Y-83896000D02*
X185844500Y-82896000D01*
%TO.C,U4*%
X149220000Y-70604000D02*
X149220000Y-77024000D01*
X149220000Y-77024000D02*
X149490000Y-77024000D01*
X156120000Y-70604000D02*
X156120000Y-77024000D01*
X156120000Y-77024000D02*
X155850000Y-77024000D01*
X149530000Y-78444000D02*
X149200000Y-78684000D01*
X149200000Y-78204000D01*
X149530000Y-78444000D01*
G36*
X149530000Y-78444000D02*
G01*
X149200000Y-78684000D01*
X149200000Y-78204000D01*
X149530000Y-78444000D01*
G37*
%TO.C,+5V*%
X127210000Y-94741000D02*
X128540000Y-94741000D01*
X127210000Y-96071000D02*
X127210000Y-94741000D01*
X127210000Y-97341000D02*
X127210000Y-99941000D01*
X127210000Y-97341000D02*
X129870000Y-97341000D01*
X127210000Y-99941000D02*
X129870000Y-99941000D01*
X129870000Y-97341000D02*
X129870000Y-99941000D01*
%TD*%
M02*
