%TF.GenerationSoftware,KiCad,Pcbnew,8.0.4*%
%TF.CreationDate,2024-08-14T15:44:39+01:00*%
%TF.ProjectId,PicoChain,5069636f-4368-4616-996e-2e6b69636164,rev?*%
%TF.SameCoordinates,Original*%
%TF.FileFunction,Soldermask,Bot*%
%TF.FilePolarity,Negative*%
%FSLAX46Y46*%
G04 Gerber Fmt 4.6, Leading zero omitted, Abs format (unit mm)*
G04 Created by KiCad (PCBNEW 8.0.4) date 2024-08-14 15:44:39*
%MOMM*%
%LPD*%
G01*
G04 APERTURE LIST*
G04 Aperture macros list*
%AMRoundRect*
0 Rectangle with rounded corners*
0 $1 Rounding radius*
0 $2 $3 $4 $5 $6 $7 $8 $9 X,Y pos of 4 corners*
0 Add a 4 corners polygon primitive as box body*
4,1,4,$2,$3,$4,$5,$6,$7,$8,$9,$2,$3,0*
0 Add four circle primitives for the rounded corners*
1,1,$1+$1,$2,$3*
1,1,$1+$1,$4,$5*
1,1,$1+$1,$6,$7*
1,1,$1+$1,$8,$9*
0 Add four rect primitives between the rounded corners*
20,1,$1+$1,$2,$3,$4,$5,0*
20,1,$1+$1,$4,$5,$6,$7,0*
20,1,$1+$1,$6,$7,$8,$9,0*
20,1,$1+$1,$8,$9,$2,$3,0*%
G04 Aperture macros list end*
%ADD10RoundRect,0.102000X-0.754000X0.754000X-0.754000X-0.754000X0.754000X-0.754000X0.754000X0.754000X0*%
%ADD11R,1.700000X1.700000*%
%ADD12O,1.700000X1.700000*%
%ADD13C,3.200000*%
%ADD14R,1.500000X1.500000*%
%ADD15C,1.500000*%
G04 APERTURE END LIST*
D10*
%TO.C,U2*%
X171809400Y-114542600D03*
X174349400Y-114542600D03*
X169269400Y-114542600D03*
X164189400Y-114542600D03*
X176889400Y-114542600D03*
X151489400Y-114542600D03*
X138789400Y-114542600D03*
X176889400Y-96762600D03*
X164189400Y-96762600D03*
X151489400Y-96762600D03*
X138789400Y-96762600D03*
X181969400Y-96762600D03*
X179429400Y-96762600D03*
X174349400Y-96762600D03*
X171809400Y-96762600D03*
X169269400Y-96762600D03*
X166729400Y-96762600D03*
X161649400Y-96762600D03*
X159109400Y-96762600D03*
X156569400Y-96762600D03*
X154029400Y-96762600D03*
X148949400Y-96762600D03*
X146409400Y-96762600D03*
X143869400Y-96762600D03*
X141329400Y-96762600D03*
X136249400Y-96762600D03*
X133709400Y-96762600D03*
X133709400Y-114542600D03*
X136249400Y-114542600D03*
X141329400Y-114542600D03*
X143869400Y-114542600D03*
X146409400Y-114542600D03*
X148949400Y-114542600D03*
X154029400Y-114542600D03*
X159109400Y-114542600D03*
X161649400Y-114542600D03*
X166729400Y-114542600D03*
X156569400Y-114542600D03*
X181969400Y-114542600D03*
X179429400Y-114542600D03*
%TD*%
D11*
%TO.C,+12V*%
X128540000Y-112581000D03*
D12*
X128540000Y-115121000D03*
%TD*%
D13*
%TO.C,J1*%
X145014500Y-77046000D03*
X133584500Y-77046000D03*
D14*
X143744500Y-83396000D03*
D15*
X142474500Y-85936000D03*
X141204500Y-83396000D03*
X139934500Y-85936000D03*
X138664500Y-83396000D03*
X137394500Y-85936000D03*
X136124500Y-83396000D03*
X134854500Y-85936000D03*
%TD*%
D11*
%TO.C,J6*%
X181969400Y-119622600D03*
D12*
X179429400Y-119622600D03*
X176889400Y-119622600D03*
X174349400Y-119622600D03*
X171809400Y-119622600D03*
X169269400Y-119622600D03*
X166729400Y-119622600D03*
X164189400Y-119622600D03*
X161649400Y-119622600D03*
X159109400Y-119622600D03*
X156569400Y-119622600D03*
X154029400Y-119622600D03*
X151489400Y-119622600D03*
X148949400Y-119622600D03*
X146409400Y-119622600D03*
X143869400Y-119622600D03*
X141329400Y-119622600D03*
X138789400Y-119622600D03*
X136249400Y-119622600D03*
X133709400Y-119622600D03*
%TD*%
D11*
%TO.C,J5*%
X133709400Y-91682600D03*
D12*
X136249400Y-91682600D03*
X138789400Y-91682600D03*
X141329400Y-91682600D03*
X143869400Y-91682600D03*
X146409400Y-91682600D03*
X148949400Y-91682600D03*
X151489400Y-91682600D03*
X154029400Y-91682600D03*
X156569400Y-91682600D03*
X159109400Y-91682600D03*
X161649400Y-91682600D03*
X164189400Y-91682600D03*
X166729400Y-91682600D03*
X169269400Y-91682600D03*
X171809400Y-91682600D03*
X174349400Y-91682600D03*
X176889400Y-91682600D03*
X179429400Y-91682600D03*
X181969400Y-91682600D03*
%TD*%
D13*
%TO.C,J2*%
X183114500Y-77046000D03*
X171684500Y-77046000D03*
D14*
X181844500Y-83396000D03*
D15*
X180574500Y-85936000D03*
X179304500Y-83396000D03*
X178034500Y-85936000D03*
X176764500Y-83396000D03*
X175494500Y-85936000D03*
X174224500Y-83396000D03*
X172954500Y-85936000D03*
%TD*%
D11*
%TO.C,+5V*%
X128540000Y-96071000D03*
D12*
X128540000Y-98611000D03*
%TD*%
M02*
