%TF.GenerationSoftware,KiCad,Pcbnew,8.0.4*%
%TF.CreationDate,2024-08-14T00:22:54+01:00*%
%TF.ProjectId,PicoChain,5069636f-4368-4616-996e-2e6b69636164,rev?*%
%TF.SameCoordinates,Original*%
%TF.FileFunction,Copper,L2,Bot*%
%TF.FilePolarity,Positive*%
%FSLAX46Y46*%
G04 Gerber Fmt 4.6, Leading zero omitted, Abs format (unit mm)*
G04 Created by KiCad (PCBNEW 8.0.4) date 2024-08-14 00:22:54*
%MOMM*%
%LPD*%
G01*
G04 APERTURE LIST*
%TA.AperFunction,ComponentPad*%
%ADD10R,1.508000X1.508000*%
%TD*%
%TA.AperFunction,ComponentPad*%
%ADD11C,1.500000*%
%TD*%
%TA.AperFunction,ComponentPad*%
%ADD12R,1.500000X1.500000*%
%TD*%
%TA.AperFunction,ComponentPad*%
%ADD13O,1.700000X1.700000*%
%TD*%
%TA.AperFunction,ComponentPad*%
%ADD14R,1.700000X1.700000*%
%TD*%
%TA.AperFunction,ViaPad*%
%ADD15C,0.600000*%
%TD*%
%TA.AperFunction,Conductor*%
%ADD16C,0.762000*%
%TD*%
%TA.AperFunction,Conductor*%
%ADD17C,0.508000*%
%TD*%
G04 APERTURE END LIST*
D10*
%TO.P,U2,VSYS,VSYS*%
%TO.N,Net-(J6-Pin_2)*%
X182969400Y-113462600D03*
%TO.P,U2,VBUS,VBUS*%
%TO.N,+5V*%
X185509400Y-113462600D03*
%TO.P,U2,RUN,RUN*%
%TO.N,Net-(J6-Pin_11)*%
X160109400Y-113462600D03*
%TO.P,U2,GP28_A2,GP28_A2*%
%TO.N,Net-(J6-Pin_7)*%
X170269400Y-113462600D03*
%TO.P,U2,GP27_A1,GP27_A1*%
%TO.N,Net-(J6-Pin_9)*%
X165189400Y-113462600D03*
%TO.P,U2,GP26_A0,GP26_A0*%
%TO.N,Net-(J6-Pin_10)*%
X162649400Y-113462600D03*
%TO.P,U2,GP22,GP22*%
%TO.N,Net-(J6-Pin_12)*%
X157569400Y-113462600D03*
%TO.P,U2,GP21,GP21*%
%TO.N,Net-(J6-Pin_14)*%
X152489400Y-113462600D03*
%TO.P,U2,GP20,GP20*%
%TO.N,Net-(J6-Pin_15)*%
X149949400Y-113462600D03*
%TO.P,U2,GP19,GP19*%
%TO.N,Net-(J6-Pin_16)*%
X147409400Y-113462600D03*
%TO.P,U2,GP18,GP18*%
%TO.N,Net-(J6-Pin_17)*%
X144869400Y-113462600D03*
%TO.P,U2,GP17,GP17*%
%TO.N,Net-(J6-Pin_19)*%
X139789400Y-113462600D03*
%TO.P,U2,GP16,GP16*%
%TO.N,Net-(J6-Pin_20)*%
X137249400Y-113462600D03*
%TO.P,U2,GP15,GP15*%
%TO.N,Net-(J5-Pin_1)*%
X137249400Y-95682600D03*
%TO.P,U2,GP14,GP14*%
%TO.N,Net-(J5-Pin_2)*%
X139789400Y-95682600D03*
%TO.P,U2,GP13,GP13*%
%TO.N,Net-(J5-Pin_4)*%
X144869400Y-95682600D03*
%TO.P,U2,GP12,GP12*%
%TO.N,Net-(J5-Pin_5)*%
X147409400Y-95682600D03*
%TO.P,U2,GP11,GP11*%
%TO.N,Net-(J5-Pin_6)*%
X149949400Y-95682600D03*
%TO.P,U2,GP10,GP10*%
%TO.N,Net-(J5-Pin_7)*%
X152489400Y-95682600D03*
%TO.P,U2,GP9,GP9*%
%TO.N,Net-(J5-Pin_9)*%
X157569400Y-95682600D03*
%TO.P,U2,GP8,GP8*%
%TO.N,Net-(J5-Pin_10)*%
X160109400Y-95682600D03*
%TO.P,U2,GP7,GP7*%
%TO.N,Net-(J5-Pin_11)*%
X162649400Y-95682600D03*
%TO.P,U2,GP6,GP6*%
%TO.N,Net-(J5-Pin_12)*%
X165189400Y-95682600D03*
%TO.P,U2,GP5,GP5*%
%TO.N,Net-(J5-Pin_14)*%
X170269400Y-95682600D03*
%TO.P,U2,GP4,GP4*%
%TO.N,Net-(J5-Pin_15)*%
X172809400Y-95682600D03*
%TO.P,U2,GP3,GP3*%
%TO.N,Net-(J5-Pin_16)*%
X175349400Y-95682600D03*
%TO.P,U2,GP2,GP2*%
%TO.N,Net-(J5-Pin_17)*%
X177889400Y-95682600D03*
%TO.P,U2,GP1,GP1*%
%TO.N,Net-(J5-Pin_19)*%
X182969400Y-95682600D03*
%TO.P,U2,GP0,GP0*%
%TO.N,Net-(J5-Pin_20)*%
X185509400Y-95682600D03*
%TO.P,U2,GND7,GND7*%
%TO.N,Net-(J5-Pin_3)*%
X142329400Y-95682600D03*
%TO.P,U2,GND6,GND6*%
%TO.N,Net-(J5-Pin_8)*%
X155029400Y-95682600D03*
%TO.P,U2,GND5,GND5*%
%TO.N,Net-(J5-Pin_13)*%
X167729400Y-95682600D03*
%TO.P,U2,GND4,GND4*%
%TO.N,Net-(J5-Pin_18)*%
X180429400Y-95682600D03*
%TO.P,U2,GND3,GND3*%
%TO.N,Net-(J6-Pin_18)*%
X142329400Y-113462600D03*
%TO.P,U2,GND2,GND2*%
%TO.N,Net-(J6-Pin_13)*%
X155029400Y-113462600D03*
%TO.P,U2,GND,GND*%
%TO.N,GND*%
X180429400Y-113462600D03*
%TO.P,U2,AGND,AGND*%
%TO.N,Net-(J6-Pin_8)*%
X167729400Y-113462600D03*
%TO.P,U2,ADC_VREF,ADC_VREF*%
%TO.N,Net-(J6-Pin_6)*%
X172809400Y-113462600D03*
%TO.P,U2,3V3_EN,3V3_EN*%
%TO.N,Net-(J6-Pin_4)*%
X177889400Y-113462600D03*
%TO.P,U2,3V3,3V3*%
%TO.N,Net-(J6-Pin_5)*%
X175349400Y-113462600D03*
%TD*%
D11*
%TO.P,J2,8*%
%TO.N,+12V*%
X137721900Y-85542600D03*
%TO.P,J2,7*%
%TO.N,/+5V(M)*%
X138991900Y-83002600D03*
%TO.P,J2,6*%
%TO.N,Net-(U1-DSDAM)*%
X140261900Y-85542600D03*
%TO.P,J2,5*%
%TO.N,Net-(U1-DSDAP)*%
X141531900Y-83002600D03*
%TO.P,J2,4*%
%TO.N,GND*%
X142801900Y-85542600D03*
%TO.P,J2,3*%
%TO.N,+5V*%
X144071900Y-83002600D03*
%TO.P,J2,2*%
%TO.N,Net-(U1-DSCLP)*%
X145341900Y-85542600D03*
D12*
%TO.P,J2,1*%
%TO.N,Net-(U1-DSCLM)*%
X146611900Y-83002600D03*
%TD*%
D13*
%TO.P,GND,2,Pin_2*%
%TO.N,GND*%
X132169400Y-110922600D03*
D14*
%TO.P,GND,1,Pin_1*%
%TO.N,/+5V(M)*%
X132169400Y-108382600D03*
%TD*%
D13*
%TO.P,GND,2,Pin_2*%
%TO.N,GND*%
X132169400Y-99492600D03*
D14*
%TO.P,GND,1,Pin_1*%
%TO.N,+12V*%
X132169400Y-96952600D03*
%TD*%
D13*
%TO.P,J6,20,Pin_20*%
%TO.N,Net-(J6-Pin_20)*%
X137249400Y-118542600D03*
%TO.P,J6,19,Pin_19*%
%TO.N,Net-(J6-Pin_19)*%
X139789400Y-118542600D03*
%TO.P,J6,18,Pin_18*%
%TO.N,Net-(J6-Pin_18)*%
X142329400Y-118542600D03*
%TO.P,J6,17,Pin_17*%
%TO.N,Net-(J6-Pin_17)*%
X144869400Y-118542600D03*
%TO.P,J6,16,Pin_16*%
%TO.N,Net-(J6-Pin_16)*%
X147409400Y-118542600D03*
%TO.P,J6,15,Pin_15*%
%TO.N,Net-(J6-Pin_15)*%
X149949400Y-118542600D03*
%TO.P,J6,14,Pin_14*%
%TO.N,Net-(J6-Pin_14)*%
X152489400Y-118542600D03*
%TO.P,J6,13,Pin_13*%
%TO.N,Net-(J6-Pin_13)*%
X155029400Y-118542600D03*
%TO.P,J6,12,Pin_12*%
%TO.N,Net-(J6-Pin_12)*%
X157569400Y-118542600D03*
%TO.P,J6,11,Pin_11*%
%TO.N,Net-(J6-Pin_11)*%
X160109400Y-118542600D03*
%TO.P,J6,10,Pin_10*%
%TO.N,Net-(J6-Pin_10)*%
X162649400Y-118542600D03*
%TO.P,J6,9,Pin_9*%
%TO.N,Net-(J6-Pin_9)*%
X165189400Y-118542600D03*
%TO.P,J6,8,Pin_8*%
%TO.N,Net-(J6-Pin_8)*%
X167729400Y-118542600D03*
%TO.P,J6,7,Pin_7*%
%TO.N,Net-(J6-Pin_7)*%
X170269400Y-118542600D03*
%TO.P,J6,6,Pin_6*%
%TO.N,Net-(J6-Pin_6)*%
X172809400Y-118542600D03*
%TO.P,J6,5,Pin_5*%
%TO.N,Net-(J6-Pin_5)*%
X175349400Y-118542600D03*
%TO.P,J6,4,Pin_4*%
%TO.N,Net-(J6-Pin_4)*%
X177889400Y-118542600D03*
%TO.P,J6,3,Pin_3*%
%TO.N,GND*%
X180429400Y-118542600D03*
%TO.P,J6,2,Pin_2*%
%TO.N,Net-(J6-Pin_2)*%
X182969400Y-118542600D03*
D14*
%TO.P,J6,1,Pin_1*%
%TO.N,+5V*%
X185509400Y-118542600D03*
%TD*%
D11*
%TO.P,J1,8*%
%TO.N,+12V*%
X175821900Y-85542600D03*
%TO.P,J1,7*%
%TO.N,/+5V(M)*%
X177091900Y-83002600D03*
%TO.P,J1,6*%
%TO.N,Net-(U1-DSDAM)*%
X178361900Y-85542600D03*
%TO.P,J1,5*%
%TO.N,Net-(U1-DSDAP)*%
X179631900Y-83002600D03*
%TO.P,J1,4*%
%TO.N,GND*%
X180901900Y-85542600D03*
%TO.P,J1,3*%
%TO.N,+5V*%
X182171900Y-83002600D03*
%TO.P,J1,2*%
%TO.N,Net-(U1-DSCLP)*%
X183441900Y-85542600D03*
D12*
%TO.P,J1,1*%
%TO.N,Net-(U1-DSCLM)*%
X184711900Y-83002600D03*
%TD*%
D13*
%TO.P,J5,20,Pin_20*%
%TO.N,Net-(J5-Pin_20)*%
X185509400Y-90602600D03*
%TO.P,J5,19,Pin_19*%
%TO.N,Net-(J5-Pin_19)*%
X182969400Y-90602600D03*
%TO.P,J5,18,Pin_18*%
%TO.N,Net-(J5-Pin_18)*%
X180429400Y-90602600D03*
%TO.P,J5,17,Pin_17*%
%TO.N,Net-(J5-Pin_17)*%
X177889400Y-90602600D03*
%TO.P,J5,16,Pin_16*%
%TO.N,Net-(J5-Pin_16)*%
X175349400Y-90602600D03*
%TO.P,J5,15,Pin_15*%
%TO.N,Net-(J5-Pin_15)*%
X172809400Y-90602600D03*
%TO.P,J5,14,Pin_14*%
%TO.N,Net-(J5-Pin_14)*%
X170269400Y-90602600D03*
%TO.P,J5,13,Pin_13*%
%TO.N,Net-(J5-Pin_13)*%
X167729400Y-90602600D03*
%TO.P,J5,12,Pin_12*%
%TO.N,Net-(J5-Pin_12)*%
X165189400Y-90602600D03*
%TO.P,J5,11,Pin_11*%
%TO.N,Net-(J5-Pin_11)*%
X162649400Y-90602600D03*
%TO.P,J5,10,Pin_10*%
%TO.N,Net-(J5-Pin_10)*%
X160109400Y-90602600D03*
%TO.P,J5,9,Pin_9*%
%TO.N,Net-(J5-Pin_9)*%
X157569400Y-90602600D03*
%TO.P,J5,8,Pin_8*%
%TO.N,Net-(J5-Pin_8)*%
X155029400Y-90602600D03*
%TO.P,J5,7,Pin_7*%
%TO.N,Net-(J5-Pin_7)*%
X152489400Y-90602600D03*
%TO.P,J5,6,Pin_6*%
%TO.N,Net-(J5-Pin_6)*%
X149949400Y-90602600D03*
%TO.P,J5,5,Pin_5*%
%TO.N,Net-(J5-Pin_5)*%
X147409400Y-90602600D03*
%TO.P,J5,4,Pin_4*%
%TO.N,Net-(J5-Pin_4)*%
X144869400Y-90602600D03*
%TO.P,J5,3,Pin_3*%
%TO.N,Net-(J5-Pin_3)*%
X142329400Y-90602600D03*
%TO.P,J5,2,Pin_2*%
%TO.N,Net-(J5-Pin_2)*%
X139789400Y-90602600D03*
D14*
%TO.P,J5,1,Pin_1*%
%TO.N,Net-(J5-Pin_1)*%
X137249400Y-90602600D03*
%TD*%
D15*
%TO.N,+5V*%
X186436000Y-87630000D03*
%TO.N,Net-(U1-DSDAP)*%
X164785172Y-74338600D03*
X177381400Y-74346600D03*
%TO.N,Net-(U1-DSCLM)*%
X182740559Y-79655441D03*
X164935400Y-79680600D03*
%TO.N,Net-(U1-DSDAM)*%
X164427400Y-73584600D03*
X174960400Y-73584600D03*
%TO.N,Net-(U1-DSCLP)*%
X180937400Y-78918600D03*
X164427400Y-78918600D03*
%TD*%
D16*
%TO.N,+12V*%
X187287400Y-96444600D02*
X187287400Y-89840600D01*
X132234400Y-97017600D02*
X186714400Y-97017600D01*
X132169400Y-96952600D02*
X132234400Y-97017600D01*
X187287400Y-89840600D02*
X185584800Y-88138000D01*
X186714400Y-97017600D02*
X187287400Y-96444600D01*
X185584800Y-88138000D02*
X178417300Y-88138000D01*
X178417300Y-88138000D02*
X175821900Y-85542600D01*
D17*
%TO.N,+5V*%
X182171900Y-83002600D02*
X183497300Y-84328000D01*
X183497300Y-84328000D02*
X184912000Y-84328000D01*
X184912000Y-84328000D02*
X186436000Y-85852000D01*
X186436000Y-85852000D02*
X186436000Y-87630000D01*
D16*
%TO.N,/+5V(M)*%
X132169400Y-108382600D02*
X135206800Y-111420000D01*
X188638400Y-108821600D02*
X188638400Y-84267100D01*
X188638400Y-84267100D02*
X186042900Y-81671600D01*
X135206800Y-111420000D02*
X186040000Y-111420000D01*
X186040000Y-111420000D02*
X188638400Y-108821600D01*
X186042900Y-81671600D02*
X178422900Y-81671600D01*
X178422900Y-81671600D02*
X177091900Y-83002600D01*
D17*
%TO.N,Net-(U1-DSDAP)*%
X164785172Y-74338600D02*
X177373400Y-74338600D01*
X177373400Y-74338600D02*
X177381400Y-74346600D01*
X164785172Y-74338600D02*
X147214738Y-74338600D01*
X141531900Y-80021438D02*
X141531900Y-83002600D01*
X147214738Y-74338600D02*
X141531900Y-80021438D01*
%TO.N,Net-(U1-DSDAM)*%
X164427400Y-73584600D02*
X146139400Y-73584600D01*
X146139400Y-73584600D02*
X140261900Y-79462100D01*
X140261900Y-79462100D02*
X140261900Y-85542600D01*
X164427400Y-73584600D02*
X174960400Y-73584600D01*
%TO.N,Net-(U1-DSCLM)*%
X164935400Y-79680600D02*
X182715400Y-79680600D01*
X182715400Y-79680600D02*
X182740559Y-79655441D01*
%TO.N,Net-(U1-DSCLP)*%
X164427400Y-78918600D02*
X180937400Y-78918600D01*
%TO.N,Net-(U1-DSCLM)*%
X146627400Y-83002600D02*
X149949400Y-79680600D01*
X146611900Y-83002600D02*
X146627400Y-83002600D01*
X149949400Y-79680600D02*
X164935400Y-79680600D01*
%TO.N,Net-(U1-DSCLP)*%
X145341900Y-85542600D02*
X145341900Y-81864600D01*
X148287900Y-78918600D02*
X164427400Y-78918600D01*
X145341900Y-81864600D02*
X148287900Y-78918600D01*
%TD*%
%TA.AperFunction,Conductor*%
%TO.N,GND*%
G36*
X188981621Y-68440502D02*
G01*
X189028114Y-68494158D01*
X189039500Y-68546500D01*
X189039500Y-83465277D01*
X189019498Y-83533398D01*
X188965842Y-83579891D01*
X188895568Y-83589995D01*
X188830988Y-83560501D01*
X188824405Y-83554372D01*
X186448010Y-81177977D01*
X186448008Y-81177975D01*
X186343922Y-81108427D01*
X186228269Y-81060522D01*
X186105493Y-81036100D01*
X186105491Y-81036100D01*
X178485491Y-81036100D01*
X178360309Y-81036100D01*
X178360306Y-81036100D01*
X178237530Y-81060522D01*
X178237525Y-81060524D01*
X178121877Y-81108427D01*
X178017796Y-81177972D01*
X178017794Y-81177973D01*
X177234745Y-81961020D01*
X177172433Y-81995045D01*
X177133300Y-81997317D01*
X177091903Y-81993240D01*
X177091897Y-81993240D01*
X176894990Y-82012633D01*
X176705634Y-82070073D01*
X176531129Y-82163348D01*
X176378175Y-82288875D01*
X176252648Y-82441829D01*
X176159373Y-82616334D01*
X176101933Y-82805690D01*
X176082540Y-83002597D01*
X176082540Y-83002602D01*
X176101933Y-83199509D01*
X176101934Y-83199515D01*
X176101935Y-83199516D01*
X176159373Y-83388865D01*
X176252648Y-83563370D01*
X176378175Y-83716325D01*
X176531130Y-83841852D01*
X176705635Y-83935127D01*
X176894984Y-83992565D01*
X176894988Y-83992565D01*
X176894990Y-83992566D01*
X177091897Y-84011960D01*
X177091900Y-84011960D01*
X177091903Y-84011960D01*
X177288809Y-83992566D01*
X177288810Y-83992565D01*
X177288816Y-83992565D01*
X177478165Y-83935127D01*
X177652670Y-83841852D01*
X177805625Y-83716325D01*
X177931152Y-83563370D01*
X178024427Y-83388865D01*
X178081865Y-83199516D01*
X178101260Y-83002600D01*
X178097182Y-82961200D01*
X178110410Y-82891446D01*
X178133480Y-82859753D01*
X178484101Y-82509132D01*
X178546413Y-82475106D01*
X178617228Y-82480171D01*
X178674064Y-82522718D01*
X178698875Y-82589238D01*
X178693771Y-82634802D01*
X178641933Y-82805690D01*
X178622540Y-83002597D01*
X178622540Y-83002602D01*
X178641933Y-83199509D01*
X178641934Y-83199515D01*
X178641935Y-83199516D01*
X178699373Y-83388865D01*
X178792648Y-83563370D01*
X178918175Y-83716325D01*
X179071130Y-83841852D01*
X179245635Y-83935127D01*
X179434984Y-83992565D01*
X179434988Y-83992565D01*
X179434990Y-83992566D01*
X179631897Y-84011960D01*
X179631900Y-84011960D01*
X179631903Y-84011960D01*
X179828809Y-83992566D01*
X179828810Y-83992565D01*
X179828816Y-83992565D01*
X180018165Y-83935127D01*
X180192670Y-83841852D01*
X180345625Y-83716325D01*
X180471152Y-83563370D01*
X180564427Y-83388865D01*
X180621865Y-83199516D01*
X180641260Y-83002600D01*
X180641260Y-83002597D01*
X180621866Y-82805690D01*
X180621865Y-82805688D01*
X180621865Y-82805684D01*
X180564427Y-82616335D01*
X180498234Y-82492496D01*
X180483762Y-82422990D01*
X180509166Y-82356694D01*
X180566379Y-82314656D01*
X180609356Y-82307100D01*
X181194444Y-82307100D01*
X181262565Y-82327102D01*
X181309058Y-82380758D01*
X181319162Y-82451032D01*
X181305566Y-82492496D01*
X181239373Y-82616334D01*
X181181933Y-82805690D01*
X181162540Y-83002597D01*
X181162540Y-83002602D01*
X181181933Y-83199509D01*
X181181934Y-83199515D01*
X181181935Y-83199516D01*
X181239373Y-83388865D01*
X181332648Y-83563370D01*
X181458175Y-83716325D01*
X181611130Y-83841852D01*
X181785635Y-83935127D01*
X181974984Y-83992565D01*
X181974988Y-83992565D01*
X181974990Y-83992566D01*
X182171897Y-84011960D01*
X182171900Y-84011960D01*
X182171902Y-84011960D01*
X182256058Y-84003670D01*
X182368816Y-83992565D01*
X182368817Y-83992564D01*
X182374976Y-83991958D01*
X182375217Y-83994411D01*
X182435103Y-83999756D01*
X182478094Y-84027922D01*
X182737997Y-84287825D01*
X182938508Y-84488335D01*
X182972533Y-84550648D01*
X182967469Y-84621463D01*
X182924922Y-84678299D01*
X182908812Y-84688551D01*
X182899835Y-84693349D01*
X182881127Y-84703349D01*
X182728175Y-84828875D01*
X182602648Y-84981829D01*
X182509373Y-85156334D01*
X182451933Y-85345690D01*
X182432540Y-85542595D01*
X182432540Y-85542600D01*
X182451933Y-85739509D01*
X182451934Y-85739515D01*
X182451935Y-85739516D01*
X182509373Y-85928865D01*
X182602648Y-86103370D01*
X182728175Y-86256325D01*
X182881130Y-86381852D01*
X183055635Y-86475127D01*
X183244984Y-86532565D01*
X183244988Y-86532565D01*
X183244990Y-86532566D01*
X183441897Y-86551960D01*
X183441900Y-86551960D01*
X183441903Y-86551960D01*
X183638809Y-86532566D01*
X183638810Y-86532565D01*
X183638816Y-86532565D01*
X183828165Y-86475127D01*
X184002670Y-86381852D01*
X184155625Y-86256325D01*
X184281152Y-86103370D01*
X184374427Y-85928865D01*
X184431865Y-85739516D01*
X184436814Y-85689275D01*
X184451260Y-85542600D01*
X184451260Y-85542595D01*
X184431866Y-85345690D01*
X184431865Y-85345688D01*
X184431865Y-85345684D01*
X184374427Y-85156335D01*
X184302568Y-85021896D01*
X184288096Y-84952390D01*
X184313500Y-84886094D01*
X184370713Y-84844056D01*
X184413690Y-84836500D01*
X184649182Y-84836500D01*
X184717303Y-84856502D01*
X184738277Y-84873405D01*
X185890595Y-86025723D01*
X185924621Y-86088035D01*
X185927500Y-86114818D01*
X185927500Y-87383584D01*
X185917907Y-87431807D01*
X185909831Y-87451302D01*
X185865281Y-87506581D01*
X185797916Y-87528999D01*
X185768843Y-87526658D01*
X185647396Y-87502500D01*
X185647391Y-87502500D01*
X178732723Y-87502500D01*
X178664602Y-87482498D01*
X178643628Y-87465595D01*
X177868431Y-86690398D01*
X177834405Y-86628086D01*
X177839470Y-86557271D01*
X177882017Y-86500435D01*
X177948537Y-86475624D01*
X177994097Y-86480727D01*
X178164984Y-86532565D01*
X178164990Y-86532565D01*
X178164992Y-86532566D01*
X178361897Y-86551960D01*
X178361900Y-86551960D01*
X178361903Y-86551960D01*
X178558809Y-86532566D01*
X178558810Y-86532565D01*
X178558816Y-86532565D01*
X178748165Y-86475127D01*
X178922670Y-86381852D01*
X179075625Y-86256325D01*
X179201152Y-86103370D01*
X179294427Y-85928865D01*
X179351865Y-85739516D01*
X179356814Y-85689275D01*
X179371260Y-85542600D01*
X179647125Y-85542600D01*
X179666188Y-85760492D01*
X179722796Y-85971755D01*
X179722798Y-85971761D01*
X179815233Y-86169988D01*
X179858773Y-86232170D01*
X180521900Y-85569044D01*
X180521900Y-85592628D01*
X180547796Y-85689275D01*
X180597824Y-85775925D01*
X180668575Y-85846676D01*
X180755225Y-85896704D01*
X180851872Y-85922600D01*
X180875452Y-85922600D01*
X180212328Y-86585723D01*
X180212328Y-86585724D01*
X180274515Y-86629268D01*
X180472738Y-86721701D01*
X180472744Y-86721703D01*
X180684007Y-86778311D01*
X180901900Y-86797374D01*
X181119792Y-86778311D01*
X181331055Y-86721703D01*
X181331061Y-86721701D01*
X181529287Y-86629267D01*
X181529289Y-86629266D01*
X181591470Y-86585725D01*
X181591470Y-86585724D01*
X180928347Y-85922600D01*
X180951928Y-85922600D01*
X181048575Y-85896704D01*
X181135225Y-85846676D01*
X181205976Y-85775925D01*
X181256004Y-85689275D01*
X181281900Y-85592628D01*
X181281900Y-85569046D01*
X181945024Y-86232170D01*
X181945025Y-86232170D01*
X181988566Y-86169989D01*
X181988567Y-86169987D01*
X182081001Y-85971761D01*
X182081003Y-85971755D01*
X182137611Y-85760492D01*
X182156674Y-85542600D01*
X182137611Y-85324707D01*
X182081003Y-85113444D01*
X182081001Y-85113439D01*
X181988565Y-84915209D01*
X181945025Y-84853028D01*
X181281900Y-85516152D01*
X181281900Y-85492572D01*
X181256004Y-85395925D01*
X181205976Y-85309275D01*
X181135225Y-85238524D01*
X181048575Y-85188496D01*
X180951928Y-85162600D01*
X180928346Y-85162600D01*
X181591470Y-84499473D01*
X181529288Y-84455933D01*
X181331061Y-84363498D01*
X181331055Y-84363496D01*
X181119792Y-84306888D01*
X180901900Y-84287825D01*
X180684007Y-84306888D01*
X180472744Y-84363496D01*
X180472739Y-84363498D01*
X180274511Y-84455934D01*
X180212327Y-84499474D01*
X180875453Y-85162600D01*
X180851872Y-85162600D01*
X180755225Y-85188496D01*
X180668575Y-85238524D01*
X180597824Y-85309275D01*
X180547796Y-85395925D01*
X180521900Y-85492572D01*
X180521900Y-85516153D01*
X179858774Y-84853027D01*
X179815234Y-84915211D01*
X179722798Y-85113439D01*
X179722796Y-85113444D01*
X179666188Y-85324707D01*
X179647125Y-85542600D01*
X179371260Y-85542600D01*
X179371260Y-85542595D01*
X179351866Y-85345690D01*
X179351865Y-85345688D01*
X179351865Y-85345684D01*
X179294427Y-85156335D01*
X179201152Y-84981830D01*
X179075625Y-84828875D01*
X178922670Y-84703348D01*
X178748165Y-84610073D01*
X178558816Y-84552635D01*
X178558815Y-84552634D01*
X178558809Y-84552633D01*
X178361903Y-84533240D01*
X178361897Y-84533240D01*
X178164990Y-84552633D01*
X177975634Y-84610073D01*
X177801129Y-84703348D01*
X177648175Y-84828875D01*
X177522648Y-84981829D01*
X177429373Y-85156334D01*
X177371933Y-85345690D01*
X177352540Y-85542595D01*
X177352540Y-85542600D01*
X177371933Y-85739509D01*
X177371934Y-85739515D01*
X177371935Y-85739516D01*
X177385749Y-85785055D01*
X177423771Y-85910398D01*
X177424404Y-85981392D01*
X177386554Y-86041458D01*
X177322239Y-86071526D01*
X177251878Y-86062049D01*
X177214101Y-86036068D01*
X176863480Y-85685447D01*
X176829454Y-85623135D01*
X176827182Y-85584000D01*
X176831260Y-85542600D01*
X176831260Y-85542595D01*
X176811866Y-85345690D01*
X176811865Y-85345688D01*
X176811865Y-85345684D01*
X176754427Y-85156335D01*
X176661152Y-84981830D01*
X176535625Y-84828875D01*
X176382670Y-84703348D01*
X176208165Y-84610073D01*
X176018816Y-84552635D01*
X176018815Y-84552634D01*
X176018809Y-84552633D01*
X175821903Y-84533240D01*
X175821897Y-84533240D01*
X175624990Y-84552633D01*
X175435634Y-84610073D01*
X175261129Y-84703348D01*
X175108175Y-84828875D01*
X174982648Y-84981829D01*
X174889373Y-85156334D01*
X174831933Y-85345690D01*
X174812540Y-85542595D01*
X174812540Y-85542600D01*
X174831933Y-85739509D01*
X174831934Y-85739515D01*
X174831935Y-85739516D01*
X174889373Y-85928865D01*
X174982648Y-86103370D01*
X175108175Y-86256325D01*
X175261130Y-86381852D01*
X175435635Y-86475127D01*
X175624984Y-86532565D01*
X175624988Y-86532565D01*
X175624990Y-86532566D01*
X175821897Y-86551960D01*
X175821900Y-86551960D01*
X175821901Y-86551960D01*
X175863300Y-86547882D01*
X175933054Y-86561110D01*
X175964747Y-86584180D01*
X178012192Y-88631625D01*
X178116278Y-88701173D01*
X178231931Y-88749078D01*
X178354709Y-88773500D01*
X178479891Y-88773500D01*
X185269377Y-88773500D01*
X185337498Y-88793502D01*
X185358472Y-88810405D01*
X185858328Y-89310261D01*
X185892354Y-89372573D01*
X185887289Y-89443388D01*
X185844742Y-89500224D01*
X185778222Y-89525035D01*
X185746081Y-89523211D01*
X185728659Y-89519954D01*
X185611747Y-89498100D01*
X185407053Y-89498100D01*
X185262962Y-89525035D01*
X185205839Y-89535713D01*
X185014977Y-89609654D01*
X185014966Y-89609659D01*
X184840936Y-89717414D01*
X184689666Y-89855315D01*
X184566313Y-90018663D01*
X184475071Y-90201901D01*
X184419054Y-90398780D01*
X184400168Y-90602595D01*
X184400168Y-90602604D01*
X184419054Y-90806419D01*
X184419055Y-90806421D01*
X184475072Y-91003301D01*
X184566312Y-91186535D01*
X184566313Y-91186536D01*
X184689666Y-91349884D01*
X184840936Y-91487785D01*
X185014966Y-91595540D01*
X185014968Y-91595540D01*
X185014973Y-91595544D01*
X185205844Y-91669488D01*
X185407053Y-91707100D01*
X185407055Y-91707100D01*
X185611745Y-91707100D01*
X185611747Y-91707100D01*
X185812956Y-91669488D01*
X186003827Y-91595544D01*
X186177862Y-91487786D01*
X186329132Y-91349885D01*
X186425350Y-91222472D01*
X186482363Y-91180165D01*
X186553200Y-91175397D01*
X186615369Y-91209683D01*
X186649132Y-91272138D01*
X186651900Y-91298404D01*
X186651900Y-94646374D01*
X186631898Y-94714495D01*
X186578242Y-94760988D01*
X186507968Y-94771092D01*
X186455897Y-94751138D01*
X186362702Y-94688866D01*
X186288467Y-94674100D01*
X184730336Y-94674100D01*
X184730326Y-94674101D01*
X184656099Y-94688865D01*
X184571915Y-94745116D01*
X184515666Y-94829297D01*
X184500900Y-94903530D01*
X184500900Y-94903534D01*
X184500901Y-96256100D01*
X184480899Y-96324221D01*
X184427243Y-96370714D01*
X184374901Y-96382100D01*
X184103900Y-96382100D01*
X184035779Y-96362098D01*
X183989286Y-96308442D01*
X183977900Y-96256100D01*
X183977899Y-94903536D01*
X183977898Y-94903526D01*
X183963134Y-94829299D01*
X183906883Y-94745115D01*
X183822702Y-94688866D01*
X183748467Y-94674100D01*
X182190336Y-94674100D01*
X182190326Y-94674101D01*
X182116099Y-94688865D01*
X182031915Y-94745116D01*
X181975666Y-94829297D01*
X181960900Y-94903530D01*
X181960900Y-94903534D01*
X181960901Y-96256100D01*
X181940899Y-96324221D01*
X181887243Y-96370714D01*
X181834901Y-96382100D01*
X181563900Y-96382100D01*
X181495779Y-96362098D01*
X181449286Y-96308442D01*
X181437900Y-96256100D01*
X181437899Y-94903536D01*
X181437898Y-94903526D01*
X181423134Y-94829299D01*
X181366883Y-94745115D01*
X181282702Y-94688866D01*
X181208467Y-94674100D01*
X179650336Y-94674100D01*
X179650326Y-94674101D01*
X179576099Y-94688865D01*
X179491915Y-94745116D01*
X179435666Y-94829297D01*
X179420900Y-94903530D01*
X179420900Y-94903534D01*
X179420901Y-96256100D01*
X179400899Y-96324221D01*
X179347243Y-96370714D01*
X179294901Y-96382100D01*
X179023900Y-96382100D01*
X178955779Y-96362098D01*
X178909286Y-96308442D01*
X178897900Y-96256100D01*
X178897899Y-94903536D01*
X178897898Y-94903526D01*
X178883134Y-94829299D01*
X178826883Y-94745115D01*
X178742702Y-94688866D01*
X178668467Y-94674100D01*
X177110336Y-94674100D01*
X177110326Y-94674101D01*
X177036099Y-94688865D01*
X176951915Y-94745116D01*
X176895666Y-94829297D01*
X176880900Y-94903530D01*
X176880900Y-94903534D01*
X176880901Y-96256100D01*
X176860899Y-96324221D01*
X176807243Y-96370714D01*
X176754901Y-96382100D01*
X176483900Y-96382100D01*
X176415779Y-96362098D01*
X176369286Y-96308442D01*
X176357900Y-96256100D01*
X176357899Y-94903536D01*
X176357898Y-94903526D01*
X176343134Y-94829299D01*
X176286883Y-94745115D01*
X176202702Y-94688866D01*
X176128467Y-94674100D01*
X174570336Y-94674100D01*
X174570326Y-94674101D01*
X174496099Y-94688865D01*
X174411915Y-94745116D01*
X174355666Y-94829297D01*
X174340900Y-94903530D01*
X174340900Y-94903534D01*
X174340901Y-96256100D01*
X174320899Y-96324221D01*
X174267243Y-96370714D01*
X174214901Y-96382100D01*
X173943900Y-96382100D01*
X173875779Y-96362098D01*
X173829286Y-96308442D01*
X173817900Y-96256100D01*
X173817899Y-94903536D01*
X173817898Y-94903526D01*
X173803134Y-94829299D01*
X173746883Y-94745115D01*
X173662702Y-94688866D01*
X173588467Y-94674100D01*
X172030336Y-94674100D01*
X172030326Y-94674101D01*
X171956099Y-94688865D01*
X171871915Y-94745116D01*
X171815666Y-94829297D01*
X171800900Y-94903530D01*
X171800900Y-94903534D01*
X171800901Y-96256100D01*
X171780899Y-96324221D01*
X171727243Y-96370714D01*
X171674901Y-96382100D01*
X171403900Y-96382100D01*
X171335779Y-96362098D01*
X171289286Y-96308442D01*
X171277900Y-96256100D01*
X171277899Y-94903536D01*
X171277898Y-94903526D01*
X171263134Y-94829299D01*
X171206883Y-94745115D01*
X171122702Y-94688866D01*
X171048467Y-94674100D01*
X169490336Y-94674100D01*
X169490326Y-94674101D01*
X169416099Y-94688865D01*
X169331915Y-94745116D01*
X169275666Y-94829297D01*
X169260900Y-94903530D01*
X169260900Y-94903534D01*
X169260901Y-96256100D01*
X169240899Y-96324221D01*
X169187243Y-96370714D01*
X169134901Y-96382100D01*
X168863900Y-96382100D01*
X168795779Y-96362098D01*
X168749286Y-96308442D01*
X168737900Y-96256100D01*
X168737899Y-94903536D01*
X168737898Y-94903526D01*
X168723134Y-94829299D01*
X168666883Y-94745115D01*
X168582702Y-94688866D01*
X168508467Y-94674100D01*
X166950336Y-94674100D01*
X166950326Y-94674101D01*
X166876099Y-94688865D01*
X166791915Y-94745116D01*
X166735666Y-94829297D01*
X166720900Y-94903530D01*
X166720900Y-94903534D01*
X166720901Y-96256100D01*
X166700899Y-96324221D01*
X166647243Y-96370714D01*
X166594901Y-96382100D01*
X166323900Y-96382100D01*
X166255779Y-96362098D01*
X166209286Y-96308442D01*
X166197900Y-96256100D01*
X166197899Y-94903536D01*
X166197898Y-94903526D01*
X166183134Y-94829299D01*
X166126883Y-94745115D01*
X166042702Y-94688866D01*
X165968467Y-94674100D01*
X164410336Y-94674100D01*
X164410326Y-94674101D01*
X164336099Y-94688865D01*
X164251915Y-94745116D01*
X164195666Y-94829297D01*
X164180900Y-94903530D01*
X164180900Y-94903534D01*
X164180901Y-96256100D01*
X164160899Y-96324221D01*
X164107243Y-96370714D01*
X164054901Y-96382100D01*
X163783900Y-96382100D01*
X163715779Y-96362098D01*
X163669286Y-96308442D01*
X163657900Y-96256100D01*
X163657899Y-94903536D01*
X163657898Y-94903526D01*
X163643134Y-94829299D01*
X163586883Y-94745115D01*
X163502702Y-94688866D01*
X163428467Y-94674100D01*
X161870336Y-94674100D01*
X161870326Y-94674101D01*
X161796099Y-94688865D01*
X161711915Y-94745116D01*
X161655666Y-94829297D01*
X161640900Y-94903530D01*
X161640900Y-94903534D01*
X161640901Y-96256100D01*
X161620899Y-96324221D01*
X161567243Y-96370714D01*
X161514901Y-96382100D01*
X161243900Y-96382100D01*
X161175779Y-96362098D01*
X161129286Y-96308442D01*
X161117900Y-96256100D01*
X161117899Y-94903536D01*
X161117898Y-94903526D01*
X161103134Y-94829299D01*
X161046883Y-94745115D01*
X160962702Y-94688866D01*
X160888467Y-94674100D01*
X159330336Y-94674100D01*
X159330326Y-94674101D01*
X159256099Y-94688865D01*
X159171915Y-94745116D01*
X159115666Y-94829297D01*
X159100900Y-94903530D01*
X159100900Y-94903534D01*
X159100901Y-96256100D01*
X159080899Y-96324221D01*
X159027243Y-96370714D01*
X158974901Y-96382100D01*
X158703900Y-96382100D01*
X158635779Y-96362098D01*
X158589286Y-96308442D01*
X158577900Y-96256100D01*
X158577899Y-94903536D01*
X158577898Y-94903526D01*
X158563134Y-94829299D01*
X158506883Y-94745115D01*
X158422702Y-94688866D01*
X158348467Y-94674100D01*
X156790336Y-94674100D01*
X156790326Y-94674101D01*
X156716099Y-94688865D01*
X156631915Y-94745116D01*
X156575666Y-94829297D01*
X156560900Y-94903530D01*
X156560900Y-94903534D01*
X156560901Y-96256100D01*
X156540899Y-96324221D01*
X156487243Y-96370714D01*
X156434901Y-96382100D01*
X156163900Y-96382100D01*
X156095779Y-96362098D01*
X156049286Y-96308442D01*
X156037900Y-96256100D01*
X156037899Y-94903536D01*
X156037898Y-94903526D01*
X156023134Y-94829299D01*
X155966883Y-94745115D01*
X155882702Y-94688866D01*
X155808467Y-94674100D01*
X154250336Y-94674100D01*
X154250326Y-94674101D01*
X154176099Y-94688865D01*
X154091915Y-94745116D01*
X154035666Y-94829297D01*
X154020900Y-94903530D01*
X154020900Y-94903534D01*
X154020901Y-96256100D01*
X154000899Y-96324221D01*
X153947243Y-96370714D01*
X153894901Y-96382100D01*
X153623900Y-96382100D01*
X153555779Y-96362098D01*
X153509286Y-96308442D01*
X153497900Y-96256100D01*
X153497899Y-94903536D01*
X153497898Y-94903526D01*
X153483134Y-94829299D01*
X153426883Y-94745115D01*
X153342702Y-94688866D01*
X153268467Y-94674100D01*
X151710336Y-94674100D01*
X151710326Y-94674101D01*
X151636099Y-94688865D01*
X151551915Y-94745116D01*
X151495666Y-94829297D01*
X151480900Y-94903530D01*
X151480900Y-94903534D01*
X151480901Y-96256100D01*
X151460899Y-96324221D01*
X151407243Y-96370714D01*
X151354901Y-96382100D01*
X151083900Y-96382100D01*
X151015779Y-96362098D01*
X150969286Y-96308442D01*
X150957900Y-96256100D01*
X150957899Y-94903536D01*
X150957898Y-94903526D01*
X150943134Y-94829299D01*
X150886883Y-94745115D01*
X150802702Y-94688866D01*
X150728467Y-94674100D01*
X149170336Y-94674100D01*
X149170326Y-94674101D01*
X149096099Y-94688865D01*
X149011915Y-94745116D01*
X148955666Y-94829297D01*
X148940900Y-94903530D01*
X148940900Y-94903534D01*
X148940901Y-96256100D01*
X148920899Y-96324221D01*
X148867243Y-96370714D01*
X148814901Y-96382100D01*
X148543900Y-96382100D01*
X148475779Y-96362098D01*
X148429286Y-96308442D01*
X148417900Y-96256100D01*
X148417899Y-94903536D01*
X148417898Y-94903526D01*
X148403134Y-94829299D01*
X148346883Y-94745115D01*
X148262702Y-94688866D01*
X148188467Y-94674100D01*
X146630336Y-94674100D01*
X146630326Y-94674101D01*
X146556099Y-94688865D01*
X146471915Y-94745116D01*
X146415666Y-94829297D01*
X146400900Y-94903530D01*
X146400900Y-94903534D01*
X146400901Y-96256100D01*
X146380899Y-96324221D01*
X146327243Y-96370714D01*
X146274901Y-96382100D01*
X146003900Y-96382100D01*
X145935779Y-96362098D01*
X145889286Y-96308442D01*
X145877900Y-96256100D01*
X145877899Y-94903536D01*
X145877898Y-94903526D01*
X145863134Y-94829299D01*
X145806883Y-94745115D01*
X145722702Y-94688866D01*
X145648467Y-94674100D01*
X144090336Y-94674100D01*
X144090326Y-94674101D01*
X144016099Y-94688865D01*
X143931915Y-94745116D01*
X143875666Y-94829297D01*
X143860900Y-94903530D01*
X143860900Y-94903534D01*
X143860901Y-96256100D01*
X143840899Y-96324221D01*
X143787243Y-96370714D01*
X143734901Y-96382100D01*
X143463900Y-96382100D01*
X143395779Y-96362098D01*
X143349286Y-96308442D01*
X143337900Y-96256100D01*
X143337899Y-94903536D01*
X143337898Y-94903526D01*
X143323134Y-94829299D01*
X143266883Y-94745115D01*
X143182702Y-94688866D01*
X143108467Y-94674100D01*
X141550336Y-94674100D01*
X141550326Y-94674101D01*
X141476099Y-94688865D01*
X141391915Y-94745116D01*
X141335666Y-94829297D01*
X141320900Y-94903530D01*
X141320900Y-94903534D01*
X141320901Y-96256100D01*
X141300899Y-96324221D01*
X141247243Y-96370714D01*
X141194901Y-96382100D01*
X140923900Y-96382100D01*
X140855779Y-96362098D01*
X140809286Y-96308442D01*
X140797900Y-96256100D01*
X140797899Y-94903536D01*
X140797898Y-94903526D01*
X140783134Y-94829299D01*
X140726883Y-94745115D01*
X140642702Y-94688866D01*
X140568467Y-94674100D01*
X139010336Y-94674100D01*
X139010326Y-94674101D01*
X138936099Y-94688865D01*
X138851915Y-94745116D01*
X138795666Y-94829297D01*
X138780900Y-94903530D01*
X138780900Y-94903534D01*
X138780901Y-96256100D01*
X138760899Y-96324221D01*
X138707243Y-96370714D01*
X138654901Y-96382100D01*
X138383900Y-96382100D01*
X138315779Y-96362098D01*
X138269286Y-96308442D01*
X138257900Y-96256100D01*
X138257899Y-94903536D01*
X138257898Y-94903526D01*
X138243134Y-94829299D01*
X138186883Y-94745115D01*
X138102702Y-94688866D01*
X138028467Y-94674100D01*
X136470336Y-94674100D01*
X136470326Y-94674101D01*
X136396099Y-94688865D01*
X136311915Y-94745116D01*
X136255666Y-94829297D01*
X136240900Y-94903530D01*
X136240900Y-94903534D01*
X136240901Y-96256100D01*
X136220899Y-96324221D01*
X136167243Y-96370714D01*
X136114901Y-96382100D01*
X133399899Y-96382100D01*
X133331778Y-96362098D01*
X133285285Y-96308442D01*
X133273899Y-96256100D01*
X133273899Y-96077536D01*
X133273898Y-96077527D01*
X133259134Y-96003299D01*
X133202883Y-95919115D01*
X133118702Y-95862866D01*
X133044467Y-95848100D01*
X131294336Y-95848100D01*
X131294326Y-95848101D01*
X131220099Y-95862865D01*
X131135915Y-95919116D01*
X131079666Y-96003297D01*
X131064900Y-96077530D01*
X131064900Y-97827663D01*
X131064901Y-97827673D01*
X131079665Y-97901900D01*
X131135916Y-97986084D01*
X131220097Y-98042333D01*
X131220099Y-98042334D01*
X131294333Y-98057100D01*
X131485120Y-98057099D01*
X131553238Y-98077101D01*
X131599731Y-98130756D01*
X131609836Y-98201030D01*
X131580343Y-98265611D01*
X131538370Y-98297293D01*
X131491822Y-98318999D01*
X131298325Y-98454487D01*
X131298319Y-98454492D01*
X131131292Y-98621519D01*
X131131287Y-98621525D01*
X130995800Y-98815021D01*
X130895970Y-99029106D01*
X130895968Y-99029111D01*
X130838763Y-99242600D01*
X131736388Y-99242600D01*
X131703475Y-99299607D01*
X131669400Y-99426774D01*
X131669400Y-99558426D01*
X131703475Y-99685593D01*
X131736388Y-99742600D01*
X130838764Y-99742600D01*
X130895968Y-99956088D01*
X130895970Y-99956093D01*
X130995799Y-100170177D01*
X130995800Y-100170179D01*
X131131286Y-100363673D01*
X131131293Y-100363682D01*
X131298317Y-100530706D01*
X131298326Y-100530713D01*
X131491820Y-100666199D01*
X131491822Y-100666200D01*
X131705906Y-100766029D01*
X131705910Y-100766031D01*
X131919400Y-100823235D01*
X131919400Y-99925612D01*
X131976407Y-99958525D01*
X132103574Y-99992600D01*
X132235226Y-99992600D01*
X132362393Y-99958525D01*
X132419400Y-99925612D01*
X132419400Y-100823234D01*
X132632889Y-100766031D01*
X132632893Y-100766029D01*
X132846977Y-100666200D01*
X132846979Y-100666199D01*
X133040473Y-100530713D01*
X133040482Y-100530706D01*
X133207506Y-100363682D01*
X133207513Y-100363673D01*
X133342999Y-100170179D01*
X133343000Y-100170177D01*
X133442829Y-99956093D01*
X133442831Y-99956088D01*
X133500036Y-99742600D01*
X132602412Y-99742600D01*
X132635325Y-99685593D01*
X132669400Y-99558426D01*
X132669400Y-99426774D01*
X132635325Y-99299607D01*
X132602412Y-99242600D01*
X133500036Y-99242600D01*
X133442831Y-99029111D01*
X133442829Y-99029106D01*
X133342999Y-98815021D01*
X133207512Y-98621525D01*
X133040476Y-98454488D01*
X133040473Y-98454486D01*
X132846979Y-98319000D01*
X132846977Y-98318999D01*
X132800430Y-98297294D01*
X132747145Y-98250377D01*
X132727684Y-98182100D01*
X132748226Y-98114140D01*
X132802248Y-98068074D01*
X132853679Y-98057099D01*
X133044466Y-98057099D01*
X133044469Y-98057098D01*
X133044473Y-98057098D01*
X133093726Y-98047301D01*
X133118701Y-98042334D01*
X133202884Y-97986084D01*
X133259134Y-97901901D01*
X133273900Y-97827667D01*
X133273900Y-97779100D01*
X133293902Y-97710979D01*
X133347558Y-97664486D01*
X133399900Y-97653100D01*
X186776990Y-97653100D01*
X186776991Y-97653100D01*
X186899769Y-97628678D01*
X187015422Y-97580773D01*
X187119508Y-97511225D01*
X187781025Y-96849708D01*
X187781025Y-96849707D01*
X187785402Y-96845331D01*
X187786718Y-96846647D01*
X187838179Y-96811595D01*
X187909150Y-96809695D01*
X187969882Y-96846467D01*
X188001093Y-96910235D01*
X188002900Y-96931498D01*
X188002900Y-108506177D01*
X187982898Y-108574298D01*
X187965995Y-108595272D01*
X185813672Y-110747595D01*
X185751360Y-110781621D01*
X185724577Y-110784500D01*
X135522223Y-110784500D01*
X135454102Y-110764498D01*
X135433128Y-110747595D01*
X133310804Y-108625271D01*
X133276778Y-108562959D01*
X133273899Y-108536176D01*
X133273899Y-107507536D01*
X133273898Y-107507527D01*
X133259134Y-107433299D01*
X133202883Y-107349115D01*
X133118702Y-107292866D01*
X133044467Y-107278100D01*
X131294336Y-107278100D01*
X131294326Y-107278101D01*
X131220099Y-107292865D01*
X131135915Y-107349116D01*
X131079666Y-107433297D01*
X131064900Y-107507530D01*
X131064900Y-109257663D01*
X131064901Y-109257673D01*
X131079665Y-109331900D01*
X131135916Y-109416084D01*
X131220097Y-109472333D01*
X131220099Y-109472334D01*
X131294333Y-109487100D01*
X131485119Y-109487099D01*
X131553238Y-109507101D01*
X131599731Y-109560756D01*
X131609836Y-109631030D01*
X131580343Y-109695611D01*
X131538370Y-109727293D01*
X131491822Y-109748999D01*
X131298325Y-109884487D01*
X131298319Y-109884492D01*
X131131292Y-110051519D01*
X131131287Y-110051525D01*
X130995800Y-110245021D01*
X130895970Y-110459106D01*
X130895968Y-110459111D01*
X130838763Y-110672600D01*
X131736388Y-110672600D01*
X131703475Y-110729607D01*
X131669400Y-110856774D01*
X131669400Y-110988426D01*
X131703475Y-111115593D01*
X131736388Y-111172600D01*
X130838764Y-111172600D01*
X130895968Y-111386088D01*
X130895970Y-111386093D01*
X130995799Y-111600177D01*
X130995800Y-111600179D01*
X131131286Y-111793673D01*
X131131293Y-111793682D01*
X131298317Y-111960706D01*
X131298326Y-111960713D01*
X131491820Y-112096199D01*
X131491822Y-112096200D01*
X131705906Y-112196029D01*
X131705910Y-112196031D01*
X131919400Y-112253235D01*
X131919400Y-111355612D01*
X131976407Y-111388525D01*
X132103574Y-111422600D01*
X132235226Y-111422600D01*
X132362393Y-111388525D01*
X132419400Y-111355612D01*
X132419400Y-112253234D01*
X132632889Y-112196031D01*
X132632893Y-112196029D01*
X132846977Y-112096200D01*
X132846979Y-112096199D01*
X133040473Y-111960713D01*
X133040482Y-111960706D01*
X133207506Y-111793682D01*
X133207513Y-111793673D01*
X133342999Y-111600179D01*
X133343000Y-111600177D01*
X133442829Y-111386093D01*
X133442831Y-111386088D01*
X133500036Y-111172600D01*
X132602412Y-111172600D01*
X132635325Y-111115593D01*
X132669400Y-110988426D01*
X132669400Y-110856774D01*
X132635325Y-110729607D01*
X132602412Y-110672600D01*
X133508477Y-110672600D01*
X133576598Y-110692602D01*
X133597572Y-110709505D01*
X134713175Y-111825108D01*
X134801692Y-111913625D01*
X134905778Y-111983173D01*
X135021431Y-112031078D01*
X135144209Y-112055500D01*
X135144210Y-112055500D01*
X179334932Y-112055500D01*
X179403053Y-112075502D01*
X179449546Y-112129158D01*
X179459650Y-112199432D01*
X179430156Y-112264012D01*
X179410441Y-112282368D01*
X179318210Y-112351410D01*
X179232047Y-112466510D01*
X179181800Y-112601228D01*
X179175400Y-112660759D01*
X179175400Y-113212600D01*
X179996388Y-113212600D01*
X179963475Y-113269607D01*
X179929400Y-113396774D01*
X179929400Y-113528426D01*
X179963475Y-113655593D01*
X179996388Y-113712600D01*
X179175400Y-113712600D01*
X179175400Y-114264440D01*
X179181800Y-114323971D01*
X179232047Y-114458689D01*
X179318210Y-114573789D01*
X179433310Y-114659952D01*
X179568028Y-114710199D01*
X179627559Y-114716599D01*
X179627576Y-114716600D01*
X180179400Y-114716600D01*
X180179400Y-113895612D01*
X180236407Y-113928525D01*
X180363574Y-113962600D01*
X180495226Y-113962600D01*
X180622393Y-113928525D01*
X180679400Y-113895612D01*
X180679400Y-114716600D01*
X181231224Y-114716600D01*
X181231240Y-114716599D01*
X181290771Y-114710199D01*
X181425489Y-114659952D01*
X181540589Y-114573789D01*
X181626752Y-114458689D01*
X181676999Y-114323971D01*
X181683399Y-114264440D01*
X181683400Y-114264423D01*
X181683400Y-113712600D01*
X180862412Y-113712600D01*
X180895325Y-113655593D01*
X180929400Y-113528426D01*
X180929400Y-113396774D01*
X180895325Y-113269607D01*
X180862412Y-113212600D01*
X181683400Y-113212600D01*
X181683400Y-112683530D01*
X181960900Y-112683530D01*
X181960900Y-114241663D01*
X181960901Y-114241673D01*
X181975665Y-114315900D01*
X182031916Y-114400084D01*
X182116097Y-114456333D01*
X182116099Y-114456334D01*
X182190333Y-114471100D01*
X183748466Y-114471099D01*
X183748469Y-114471098D01*
X183748473Y-114471098D01*
X183797726Y-114461301D01*
X183822701Y-114456334D01*
X183906884Y-114400084D01*
X183963134Y-114315901D01*
X183977900Y-114241667D01*
X183977899Y-112683534D01*
X183977898Y-112683530D01*
X184500900Y-112683530D01*
X184500900Y-114241663D01*
X184500901Y-114241673D01*
X184515665Y-114315900D01*
X184571916Y-114400084D01*
X184656097Y-114456333D01*
X184656099Y-114456334D01*
X184730333Y-114471100D01*
X186288466Y-114471099D01*
X186288469Y-114471098D01*
X186288473Y-114471098D01*
X186337726Y-114461301D01*
X186362701Y-114456334D01*
X186446884Y-114400084D01*
X186503134Y-114315901D01*
X186517900Y-114241667D01*
X186517899Y-112683534D01*
X186517898Y-112683530D01*
X186517898Y-112683526D01*
X186503134Y-112609299D01*
X186446883Y-112525115D01*
X186362702Y-112468866D01*
X186288467Y-112454100D01*
X184730336Y-112454100D01*
X184730326Y-112454101D01*
X184656099Y-112468865D01*
X184571915Y-112525116D01*
X184515666Y-112609297D01*
X184500900Y-112683530D01*
X183977898Y-112683530D01*
X183977898Y-112683526D01*
X183963134Y-112609299D01*
X183906883Y-112525115D01*
X183822702Y-112468866D01*
X183748467Y-112454100D01*
X182190336Y-112454100D01*
X182190326Y-112454101D01*
X182116099Y-112468865D01*
X182031915Y-112525116D01*
X181975666Y-112609297D01*
X181960900Y-112683530D01*
X181683400Y-112683530D01*
X181683400Y-112660776D01*
X181683399Y-112660759D01*
X181676999Y-112601228D01*
X181626752Y-112466510D01*
X181540589Y-112351410D01*
X181448359Y-112282368D01*
X181405812Y-112225532D01*
X181400748Y-112154716D01*
X181434773Y-112092404D01*
X181497085Y-112058379D01*
X181523868Y-112055500D01*
X186102590Y-112055500D01*
X186102591Y-112055500D01*
X186225369Y-112031078D01*
X186341022Y-111983173D01*
X186445108Y-111913625D01*
X188824405Y-109534326D01*
X188886717Y-109500302D01*
X188957532Y-109505366D01*
X189014368Y-109547913D01*
X189039179Y-109614433D01*
X189039500Y-109623422D01*
X189039500Y-121293500D01*
X189019498Y-121361621D01*
X188965842Y-121408114D01*
X188913500Y-121419500D01*
X133046092Y-121419500D01*
X132977971Y-121399498D01*
X132931478Y-121345842D01*
X132921374Y-121275568D01*
X132950868Y-121210988D01*
X132985706Y-121182913D01*
X133043883Y-121151145D01*
X133124315Y-121107226D01*
X133353395Y-120935739D01*
X133555739Y-120733395D01*
X133727226Y-120504315D01*
X133727229Y-120504309D01*
X133727231Y-120504307D01*
X133864362Y-120253170D01*
X133864367Y-120253161D01*
X133964369Y-119985046D01*
X134025196Y-119705428D01*
X134045610Y-119420000D01*
X134025196Y-119134572D01*
X133964369Y-118854954D01*
X133864367Y-118586839D01*
X133840208Y-118542595D01*
X136140168Y-118542595D01*
X136140168Y-118542604D01*
X136159054Y-118746419D01*
X136209269Y-118922906D01*
X136215072Y-118943301D01*
X136306312Y-119126535D01*
X136306313Y-119126536D01*
X136429666Y-119289884D01*
X136580936Y-119427785D01*
X136754966Y-119535540D01*
X136754968Y-119535540D01*
X136754973Y-119535544D01*
X136945844Y-119609488D01*
X137147053Y-119647100D01*
X137147055Y-119647100D01*
X137351745Y-119647100D01*
X137351747Y-119647100D01*
X137552956Y-119609488D01*
X137743827Y-119535544D01*
X137917862Y-119427786D01*
X138069132Y-119289885D01*
X138192488Y-119126535D01*
X138283728Y-118943301D01*
X138339745Y-118746421D01*
X138352532Y-118608426D01*
X138358632Y-118542604D01*
X138358632Y-118542595D01*
X138680168Y-118542595D01*
X138680168Y-118542604D01*
X138699054Y-118746419D01*
X138749269Y-118922906D01*
X138755072Y-118943301D01*
X138846312Y-119126535D01*
X138846313Y-119126536D01*
X138969666Y-119289884D01*
X139120936Y-119427785D01*
X139294966Y-119535540D01*
X139294968Y-119535540D01*
X139294973Y-119535544D01*
X139485844Y-119609488D01*
X139687053Y-119647100D01*
X139687055Y-119647100D01*
X139891745Y-119647100D01*
X139891747Y-119647100D01*
X140092956Y-119609488D01*
X140283827Y-119535544D01*
X140457862Y-119427786D01*
X140609132Y-119289885D01*
X140732488Y-119126535D01*
X140823728Y-118943301D01*
X140879745Y-118746421D01*
X140892532Y-118608426D01*
X140898632Y-118542604D01*
X140898632Y-118542595D01*
X141220168Y-118542595D01*
X141220168Y-118542604D01*
X141239054Y-118746419D01*
X141289269Y-118922906D01*
X141295072Y-118943301D01*
X141386312Y-119126535D01*
X141386313Y-119126536D01*
X141509666Y-119289884D01*
X141660936Y-119427785D01*
X141834966Y-119535540D01*
X141834968Y-119535540D01*
X141834973Y-119535544D01*
X142025844Y-119609488D01*
X142227053Y-119647100D01*
X142227055Y-119647100D01*
X142431745Y-119647100D01*
X142431747Y-119647100D01*
X142632956Y-119609488D01*
X142823827Y-119535544D01*
X142997862Y-119427786D01*
X143149132Y-119289885D01*
X143272488Y-119126535D01*
X143363728Y-118943301D01*
X143419745Y-118746421D01*
X143432532Y-118608426D01*
X143438632Y-118542604D01*
X143438632Y-118542595D01*
X143760168Y-118542595D01*
X143760168Y-118542604D01*
X143779054Y-118746419D01*
X143829269Y-118922906D01*
X143835072Y-118943301D01*
X143926312Y-119126535D01*
X143926313Y-119126536D01*
X144049666Y-119289884D01*
X144200936Y-119427785D01*
X144374966Y-119535540D01*
X144374968Y-119535540D01*
X144374973Y-119535544D01*
X144565844Y-119609488D01*
X144767053Y-119647100D01*
X144767055Y-119647100D01*
X144971745Y-119647100D01*
X144971747Y-119647100D01*
X145172956Y-119609488D01*
X145363827Y-119535544D01*
X145537862Y-119427786D01*
X145689132Y-119289885D01*
X145812488Y-119126535D01*
X145903728Y-118943301D01*
X145959745Y-118746421D01*
X145972532Y-118608426D01*
X145978632Y-118542604D01*
X145978632Y-118542595D01*
X146300168Y-118542595D01*
X146300168Y-118542604D01*
X146319054Y-118746419D01*
X146369269Y-118922906D01*
X146375072Y-118943301D01*
X146466312Y-119126535D01*
X146466313Y-119126536D01*
X146589666Y-119289884D01*
X146740936Y-119427785D01*
X146914966Y-119535540D01*
X146914968Y-119535540D01*
X146914973Y-119535544D01*
X147105844Y-119609488D01*
X147307053Y-119647100D01*
X147307055Y-119647100D01*
X147511745Y-119647100D01*
X147511747Y-119647100D01*
X147712956Y-119609488D01*
X147903827Y-119535544D01*
X148077862Y-119427786D01*
X148229132Y-119289885D01*
X148352488Y-119126535D01*
X148443728Y-118943301D01*
X148499745Y-118746421D01*
X148512532Y-118608426D01*
X148518632Y-118542604D01*
X148518632Y-118542595D01*
X148840168Y-118542595D01*
X148840168Y-118542604D01*
X148859054Y-118746419D01*
X148909269Y-118922906D01*
X148915072Y-118943301D01*
X149006312Y-119126535D01*
X149006313Y-119126536D01*
X149129666Y-119289884D01*
X149280936Y-119427785D01*
X149454966Y-119535540D01*
X149454968Y-119535540D01*
X149454973Y-119535544D01*
X149645844Y-119609488D01*
X149847053Y-119647100D01*
X149847055Y-119647100D01*
X150051745Y-119647100D01*
X150051747Y-119647100D01*
X150252956Y-119609488D01*
X150443827Y-119535544D01*
X150617862Y-119427786D01*
X150769132Y-119289885D01*
X150892488Y-119126535D01*
X150983728Y-118943301D01*
X151039745Y-118746421D01*
X151052532Y-118608426D01*
X151058632Y-118542604D01*
X151058632Y-118542595D01*
X151380168Y-118542595D01*
X151380168Y-118542604D01*
X151399054Y-118746419D01*
X151449269Y-118922906D01*
X151455072Y-118943301D01*
X151546312Y-119126535D01*
X151546313Y-119126536D01*
X151669666Y-119289884D01*
X151820936Y-119427785D01*
X151994966Y-119535540D01*
X151994968Y-119535540D01*
X151994973Y-119535544D01*
X152185844Y-119609488D01*
X152387053Y-119647100D01*
X152387055Y-119647100D01*
X152591745Y-119647100D01*
X152591747Y-119647100D01*
X152792956Y-119609488D01*
X152983827Y-119535544D01*
X153157862Y-119427786D01*
X153309132Y-119289885D01*
X153432488Y-119126535D01*
X153523728Y-118943301D01*
X153579745Y-118746421D01*
X153592532Y-118608426D01*
X153598632Y-118542604D01*
X153598632Y-118542595D01*
X153920168Y-118542595D01*
X153920168Y-118542604D01*
X153939054Y-118746419D01*
X153989269Y-118922906D01*
X153995072Y-118943301D01*
X154086312Y-119126535D01*
X154086313Y-119126536D01*
X154209666Y-119289884D01*
X154360936Y-119427785D01*
X154534966Y-119535540D01*
X154534968Y-119535540D01*
X154534973Y-119535544D01*
X154725844Y-119609488D01*
X154927053Y-119647100D01*
X154927055Y-119647100D01*
X155131745Y-119647100D01*
X155131747Y-119647100D01*
X155332956Y-119609488D01*
X155523827Y-119535544D01*
X155697862Y-119427786D01*
X155849132Y-119289885D01*
X155972488Y-119126535D01*
X156063728Y-118943301D01*
X156119745Y-118746421D01*
X156132532Y-118608426D01*
X156138632Y-118542604D01*
X156138632Y-118542595D01*
X156460168Y-118542595D01*
X156460168Y-118542604D01*
X156479054Y-118746419D01*
X156529269Y-118922906D01*
X156535072Y-118943301D01*
X156626312Y-119126535D01*
X156626313Y-119126536D01*
X156749666Y-119289884D01*
X156900936Y-119427785D01*
X157074966Y-119535540D01*
X157074968Y-119535540D01*
X157074973Y-119535544D01*
X157265844Y-119609488D01*
X157467053Y-119647100D01*
X157467055Y-119647100D01*
X157671745Y-119647100D01*
X157671747Y-119647100D01*
X157872956Y-119609488D01*
X158063827Y-119535544D01*
X158237862Y-119427786D01*
X158389132Y-119289885D01*
X158512488Y-119126535D01*
X158603728Y-118943301D01*
X158659745Y-118746421D01*
X158672532Y-118608426D01*
X158678632Y-118542604D01*
X158678632Y-118542595D01*
X159000168Y-118542595D01*
X159000168Y-118542604D01*
X159019054Y-118746419D01*
X159069269Y-118922906D01*
X159075072Y-118943301D01*
X159166312Y-119126535D01*
X159166313Y-119126536D01*
X159289666Y-119289884D01*
X159440936Y-119427785D01*
X159614966Y-119535540D01*
X159614968Y-119535540D01*
X159614973Y-119535544D01*
X159805844Y-119609488D01*
X160007053Y-119647100D01*
X160007055Y-119647100D01*
X160211745Y-119647100D01*
X160211747Y-119647100D01*
X160412956Y-119609488D01*
X160603827Y-119535544D01*
X160777862Y-119427786D01*
X160929132Y-119289885D01*
X161052488Y-119126535D01*
X161143728Y-118943301D01*
X161199745Y-118746421D01*
X161212532Y-118608426D01*
X161218632Y-118542604D01*
X161218632Y-118542595D01*
X161540168Y-118542595D01*
X161540168Y-118542604D01*
X161559054Y-118746419D01*
X161609269Y-118922906D01*
X161615072Y-118943301D01*
X161706312Y-119126535D01*
X161706313Y-119126536D01*
X161829666Y-119289884D01*
X161980936Y-119427785D01*
X162154966Y-119535540D01*
X162154968Y-119535540D01*
X162154973Y-119535544D01*
X162345844Y-119609488D01*
X162547053Y-119647100D01*
X162547055Y-119647100D01*
X162751745Y-119647100D01*
X162751747Y-119647100D01*
X162952956Y-119609488D01*
X163143827Y-119535544D01*
X163317862Y-119427786D01*
X163469132Y-119289885D01*
X163592488Y-119126535D01*
X163683728Y-118943301D01*
X163739745Y-118746421D01*
X163752532Y-118608426D01*
X163758632Y-118542604D01*
X163758632Y-118542595D01*
X164080168Y-118542595D01*
X164080168Y-118542604D01*
X164099054Y-118746419D01*
X164149269Y-118922906D01*
X164155072Y-118943301D01*
X164246312Y-119126535D01*
X164246313Y-119126536D01*
X164369666Y-119289884D01*
X164520936Y-119427785D01*
X164694966Y-119535540D01*
X164694968Y-119535540D01*
X164694973Y-119535544D01*
X164885844Y-119609488D01*
X165087053Y-119647100D01*
X165087055Y-119647100D01*
X165291745Y-119647100D01*
X165291747Y-119647100D01*
X165492956Y-119609488D01*
X165683827Y-119535544D01*
X165857862Y-119427786D01*
X166009132Y-119289885D01*
X166132488Y-119126535D01*
X166223728Y-118943301D01*
X166279745Y-118746421D01*
X166292532Y-118608426D01*
X166298632Y-118542604D01*
X166298632Y-118542595D01*
X166620168Y-118542595D01*
X166620168Y-118542604D01*
X166639054Y-118746419D01*
X166689269Y-118922906D01*
X166695072Y-118943301D01*
X166786312Y-119126535D01*
X166786313Y-119126536D01*
X166909666Y-119289884D01*
X167060936Y-119427785D01*
X167234966Y-119535540D01*
X167234968Y-119535540D01*
X167234973Y-119535544D01*
X167425844Y-119609488D01*
X167627053Y-119647100D01*
X167627055Y-119647100D01*
X167831745Y-119647100D01*
X167831747Y-119647100D01*
X168032956Y-119609488D01*
X168223827Y-119535544D01*
X168397862Y-119427786D01*
X168549132Y-119289885D01*
X168672488Y-119126535D01*
X168763728Y-118943301D01*
X168819745Y-118746421D01*
X168832532Y-118608426D01*
X168838632Y-118542604D01*
X168838632Y-118542595D01*
X169160168Y-118542595D01*
X169160168Y-118542604D01*
X169179054Y-118746419D01*
X169229269Y-118922906D01*
X169235072Y-118943301D01*
X169326312Y-119126535D01*
X169326313Y-119126536D01*
X169449666Y-119289884D01*
X169600936Y-119427785D01*
X169774966Y-119535540D01*
X169774968Y-119535540D01*
X169774973Y-119535544D01*
X169965844Y-119609488D01*
X170167053Y-119647100D01*
X170167055Y-119647100D01*
X170371745Y-119647100D01*
X170371747Y-119647100D01*
X170572956Y-119609488D01*
X170763827Y-119535544D01*
X170937862Y-119427786D01*
X171089132Y-119289885D01*
X171212488Y-119126535D01*
X171303728Y-118943301D01*
X171359745Y-118746421D01*
X171372532Y-118608426D01*
X171378632Y-118542604D01*
X171378632Y-118542595D01*
X171700168Y-118542595D01*
X171700168Y-118542604D01*
X171719054Y-118746419D01*
X171769269Y-118922906D01*
X171775072Y-118943301D01*
X171866312Y-119126535D01*
X171866313Y-119126536D01*
X171989666Y-119289884D01*
X172140936Y-119427785D01*
X172314966Y-119535540D01*
X172314968Y-119535540D01*
X172314973Y-119535544D01*
X172505844Y-119609488D01*
X172707053Y-119647100D01*
X172707055Y-119647100D01*
X172911745Y-119647100D01*
X172911747Y-119647100D01*
X173112956Y-119609488D01*
X173303827Y-119535544D01*
X173477862Y-119427786D01*
X173629132Y-119289885D01*
X173752488Y-119126535D01*
X173843728Y-118943301D01*
X173899745Y-118746421D01*
X173912532Y-118608426D01*
X173918632Y-118542604D01*
X173918632Y-118542595D01*
X174240168Y-118542595D01*
X174240168Y-118542604D01*
X174259054Y-118746419D01*
X174309269Y-118922906D01*
X174315072Y-118943301D01*
X174406312Y-119126535D01*
X174406313Y-119126536D01*
X174529666Y-119289884D01*
X174680936Y-119427785D01*
X174854966Y-119535540D01*
X174854968Y-119535540D01*
X174854973Y-119535544D01*
X175045844Y-119609488D01*
X175247053Y-119647100D01*
X175247055Y-119647100D01*
X175451745Y-119647100D01*
X175451747Y-119647100D01*
X175652956Y-119609488D01*
X175843827Y-119535544D01*
X176017862Y-119427786D01*
X176169132Y-119289885D01*
X176292488Y-119126535D01*
X176383728Y-118943301D01*
X176439745Y-118746421D01*
X176452532Y-118608426D01*
X176458632Y-118542604D01*
X176458632Y-118542595D01*
X176780168Y-118542595D01*
X176780168Y-118542604D01*
X176799054Y-118746419D01*
X176849269Y-118922906D01*
X176855072Y-118943301D01*
X176946312Y-119126535D01*
X176946313Y-119126536D01*
X177069666Y-119289884D01*
X177220936Y-119427785D01*
X177394966Y-119535540D01*
X177394968Y-119535540D01*
X177394973Y-119535544D01*
X177585844Y-119609488D01*
X177787053Y-119647100D01*
X177787055Y-119647100D01*
X177991745Y-119647100D01*
X177991747Y-119647100D01*
X178192956Y-119609488D01*
X178383827Y-119535544D01*
X178557862Y-119427786D01*
X178709132Y-119289885D01*
X178832488Y-119126535D01*
X178915426Y-118959972D01*
X178963694Y-118907911D01*
X179032449Y-118890208D01*
X179099859Y-118912487D01*
X179144523Y-118967674D01*
X179149923Y-118983526D01*
X179155968Y-119006089D01*
X179155970Y-119006093D01*
X179255799Y-119220177D01*
X179255800Y-119220179D01*
X179391286Y-119413673D01*
X179391293Y-119413682D01*
X179558317Y-119580706D01*
X179558326Y-119580713D01*
X179751820Y-119716199D01*
X179751822Y-119716200D01*
X179965906Y-119816029D01*
X179965910Y-119816031D01*
X180179400Y-119873235D01*
X180179400Y-118975612D01*
X180236407Y-119008525D01*
X180363574Y-119042600D01*
X180495226Y-119042600D01*
X180622393Y-119008525D01*
X180679400Y-118975612D01*
X180679400Y-119873234D01*
X180892889Y-119816031D01*
X180892893Y-119816029D01*
X181106977Y-119716200D01*
X181106979Y-119716199D01*
X181300473Y-119580713D01*
X181300482Y-119580706D01*
X181467506Y-119413682D01*
X181467513Y-119413673D01*
X181602999Y-119220179D01*
X181603000Y-119220177D01*
X181702829Y-119006093D01*
X181702831Y-119006087D01*
X181708875Y-118983531D01*
X181745824Y-118922906D01*
X181809684Y-118891882D01*
X181880178Y-118900308D01*
X181934927Y-118945509D01*
X181943373Y-118959974D01*
X182026308Y-119126530D01*
X182026312Y-119126535D01*
X182149666Y-119289884D01*
X182300936Y-119427785D01*
X182474966Y-119535540D01*
X182474968Y-119535540D01*
X182474973Y-119535544D01*
X182665844Y-119609488D01*
X182867053Y-119647100D01*
X182867055Y-119647100D01*
X183071745Y-119647100D01*
X183071747Y-119647100D01*
X183272956Y-119609488D01*
X183463827Y-119535544D01*
X183637862Y-119427786D01*
X183789132Y-119289885D01*
X183912488Y-119126535D01*
X184003728Y-118943301D01*
X184059745Y-118746421D01*
X184072532Y-118608426D01*
X184078632Y-118542604D01*
X184078632Y-118542595D01*
X184059745Y-118338780D01*
X184059745Y-118338779D01*
X184003728Y-118141899D01*
X183912488Y-117958665D01*
X183871404Y-117904261D01*
X183789133Y-117795315D01*
X183648960Y-117667530D01*
X184404900Y-117667530D01*
X184404900Y-119417663D01*
X184404901Y-119417673D01*
X184419665Y-119491900D01*
X184475916Y-119576084D01*
X184560097Y-119632333D01*
X184560099Y-119632334D01*
X184634333Y-119647100D01*
X186384466Y-119647099D01*
X186384469Y-119647098D01*
X186384473Y-119647098D01*
X186433726Y-119637301D01*
X186458701Y-119632334D01*
X186542884Y-119576084D01*
X186599134Y-119491901D01*
X186613900Y-119417667D01*
X186613899Y-117667534D01*
X186613898Y-117667530D01*
X186613898Y-117667526D01*
X186599134Y-117593299D01*
X186542883Y-117509115D01*
X186458702Y-117452866D01*
X186384467Y-117438100D01*
X184634336Y-117438100D01*
X184634326Y-117438101D01*
X184560099Y-117452865D01*
X184475915Y-117509116D01*
X184419666Y-117593297D01*
X184404900Y-117667530D01*
X183648960Y-117667530D01*
X183637863Y-117657414D01*
X183463833Y-117549659D01*
X183463828Y-117549657D01*
X183463827Y-117549656D01*
X183463822Y-117549654D01*
X183272959Y-117475713D01*
X183272960Y-117475713D01*
X183272957Y-117475712D01*
X183272956Y-117475712D01*
X183071747Y-117438100D01*
X182867053Y-117438100D01*
X182665844Y-117475712D01*
X182665839Y-117475713D01*
X182474977Y-117549654D01*
X182474966Y-117549659D01*
X182300936Y-117657414D01*
X182149666Y-117795315D01*
X182026312Y-117958664D01*
X182026311Y-117958665D01*
X181943373Y-118125226D01*
X181895104Y-118177289D01*
X181826349Y-118194991D01*
X181758939Y-118172711D01*
X181714275Y-118117524D01*
X181708875Y-118101670D01*
X181702830Y-118079107D01*
X181702829Y-118079106D01*
X181602999Y-117865021D01*
X181467512Y-117671525D01*
X181300476Y-117504488D01*
X181300473Y-117504486D01*
X181106979Y-117369000D01*
X181106977Y-117368999D01*
X180892893Y-117269170D01*
X180892888Y-117269168D01*
X180679400Y-117211964D01*
X180679400Y-118109588D01*
X180622393Y-118076675D01*
X180495226Y-118042600D01*
X180363574Y-118042600D01*
X180236407Y-118076675D01*
X180179400Y-118109588D01*
X180179400Y-117211964D01*
X179965911Y-117269168D01*
X179965906Y-117269170D01*
X179751821Y-117369000D01*
X179558325Y-117504487D01*
X179558319Y-117504492D01*
X179391292Y-117671519D01*
X179391287Y-117671525D01*
X179255800Y-117865021D01*
X179155970Y-118079106D01*
X179155969Y-118079108D01*
X179149923Y-118101674D01*
X179112971Y-118162296D01*
X179049110Y-118193318D01*
X178978616Y-118184889D01*
X178923869Y-118139686D01*
X178915425Y-118125225D01*
X178832488Y-117958665D01*
X178791404Y-117904261D01*
X178709133Y-117795315D01*
X178557863Y-117657414D01*
X178383833Y-117549659D01*
X178383828Y-117549657D01*
X178383827Y-117549656D01*
X178383822Y-117549654D01*
X178192959Y-117475713D01*
X178192960Y-117475713D01*
X178192957Y-117475712D01*
X178192956Y-117475712D01*
X177991747Y-117438100D01*
X177787053Y-117438100D01*
X177585844Y-117475712D01*
X177585839Y-117475713D01*
X177394977Y-117549654D01*
X177394966Y-117549659D01*
X177220936Y-117657414D01*
X177069666Y-117795315D01*
X176946313Y-117958663D01*
X176855071Y-118141901D01*
X176799054Y-118338780D01*
X176780168Y-118542595D01*
X176458632Y-118542595D01*
X176439745Y-118338780D01*
X176439745Y-118338779D01*
X176383728Y-118141899D01*
X176292488Y-117958665D01*
X176251404Y-117904261D01*
X176169133Y-117795315D01*
X176017863Y-117657414D01*
X175843833Y-117549659D01*
X175843828Y-117549657D01*
X175843827Y-117549656D01*
X175843822Y-117549654D01*
X175652959Y-117475713D01*
X175652960Y-117475713D01*
X175652957Y-117475712D01*
X175652956Y-117475712D01*
X175451747Y-117438100D01*
X175247053Y-117438100D01*
X175045844Y-117475712D01*
X175045839Y-117475713D01*
X174854977Y-117549654D01*
X174854966Y-117549659D01*
X174680936Y-117657414D01*
X174529666Y-117795315D01*
X174406313Y-117958663D01*
X174315071Y-118141901D01*
X174259054Y-118338780D01*
X174240168Y-118542595D01*
X173918632Y-118542595D01*
X173899745Y-118338780D01*
X173899745Y-118338779D01*
X173843728Y-118141899D01*
X173752488Y-117958665D01*
X173711404Y-117904261D01*
X173629133Y-117795315D01*
X173477863Y-117657414D01*
X173303833Y-117549659D01*
X173303828Y-117549657D01*
X173303827Y-117549656D01*
X173303822Y-117549654D01*
X173112959Y-117475713D01*
X173112960Y-117475713D01*
X173112957Y-117475712D01*
X173112956Y-117475712D01*
X172911747Y-117438100D01*
X172707053Y-117438100D01*
X172505844Y-117475712D01*
X172505839Y-117475713D01*
X172314977Y-117549654D01*
X172314966Y-117549659D01*
X172140936Y-117657414D01*
X171989666Y-117795315D01*
X171866313Y-117958663D01*
X171775071Y-118141901D01*
X171719054Y-118338780D01*
X171700168Y-118542595D01*
X171378632Y-118542595D01*
X171359745Y-118338780D01*
X171359745Y-118338779D01*
X171303728Y-118141899D01*
X171212488Y-117958665D01*
X171171404Y-117904261D01*
X171089133Y-117795315D01*
X170937863Y-117657414D01*
X170763833Y-117549659D01*
X170763828Y-117549657D01*
X170763827Y-117549656D01*
X170763822Y-117549654D01*
X170572959Y-117475713D01*
X170572960Y-117475713D01*
X170572957Y-117475712D01*
X170572956Y-117475712D01*
X170371747Y-117438100D01*
X170167053Y-117438100D01*
X169965844Y-117475712D01*
X169965839Y-117475713D01*
X169774977Y-117549654D01*
X169774966Y-117549659D01*
X169600936Y-117657414D01*
X169449666Y-117795315D01*
X169326313Y-117958663D01*
X169235071Y-118141901D01*
X169179054Y-118338780D01*
X169160168Y-118542595D01*
X168838632Y-118542595D01*
X168819745Y-118338780D01*
X168819745Y-118338779D01*
X168763728Y-118141899D01*
X168672488Y-117958665D01*
X168631404Y-117904261D01*
X168549133Y-117795315D01*
X168397863Y-117657414D01*
X168223833Y-117549659D01*
X168223828Y-117549657D01*
X168223827Y-117549656D01*
X168223822Y-117549654D01*
X168032959Y-117475713D01*
X168032960Y-117475713D01*
X168032957Y-117475712D01*
X168032956Y-117475712D01*
X167831747Y-117438100D01*
X167627053Y-117438100D01*
X167425844Y-117475712D01*
X167425839Y-117475713D01*
X167234977Y-117549654D01*
X167234966Y-117549659D01*
X167060936Y-117657414D01*
X166909666Y-117795315D01*
X166786313Y-117958663D01*
X166695071Y-118141901D01*
X166639054Y-118338780D01*
X166620168Y-118542595D01*
X166298632Y-118542595D01*
X166279745Y-118338780D01*
X166279745Y-118338779D01*
X166223728Y-118141899D01*
X166132488Y-117958665D01*
X166091404Y-117904261D01*
X166009133Y-117795315D01*
X165857863Y-117657414D01*
X165683833Y-117549659D01*
X165683828Y-117549657D01*
X165683827Y-117549656D01*
X165683822Y-117549654D01*
X165492959Y-117475713D01*
X165492960Y-117475713D01*
X165492957Y-117475712D01*
X165492956Y-117475712D01*
X165291747Y-117438100D01*
X165087053Y-117438100D01*
X164885844Y-117475712D01*
X164885839Y-117475713D01*
X164694977Y-117549654D01*
X164694966Y-117549659D01*
X164520936Y-117657414D01*
X164369666Y-117795315D01*
X164246313Y-117958663D01*
X164155071Y-118141901D01*
X164099054Y-118338780D01*
X164080168Y-118542595D01*
X163758632Y-118542595D01*
X163739745Y-118338780D01*
X163739745Y-118338779D01*
X163683728Y-118141899D01*
X163592488Y-117958665D01*
X163551404Y-117904261D01*
X163469133Y-117795315D01*
X163317863Y-117657414D01*
X163143833Y-117549659D01*
X163143828Y-117549657D01*
X163143827Y-117549656D01*
X163143822Y-117549654D01*
X162952959Y-117475713D01*
X162952960Y-117475713D01*
X162952957Y-117475712D01*
X162952956Y-117475712D01*
X162751747Y-117438100D01*
X162547053Y-117438100D01*
X162345844Y-117475712D01*
X162345839Y-117475713D01*
X162154977Y-117549654D01*
X162154966Y-117549659D01*
X161980936Y-117657414D01*
X161829666Y-117795315D01*
X161706313Y-117958663D01*
X161615071Y-118141901D01*
X161559054Y-118338780D01*
X161540168Y-118542595D01*
X161218632Y-118542595D01*
X161199745Y-118338780D01*
X161199745Y-118338779D01*
X161143728Y-118141899D01*
X161052488Y-117958665D01*
X161011404Y-117904261D01*
X160929133Y-117795315D01*
X160777863Y-117657414D01*
X160603833Y-117549659D01*
X160603828Y-117549657D01*
X160603827Y-117549656D01*
X160603822Y-117549654D01*
X160412959Y-117475713D01*
X160412960Y-117475713D01*
X160412957Y-117475712D01*
X160412956Y-117475712D01*
X160211747Y-117438100D01*
X160007053Y-117438100D01*
X159805844Y-117475712D01*
X159805839Y-117475713D01*
X159614977Y-117549654D01*
X159614966Y-117549659D01*
X159440936Y-117657414D01*
X159289666Y-117795315D01*
X159166313Y-117958663D01*
X159075071Y-118141901D01*
X159019054Y-118338780D01*
X159000168Y-118542595D01*
X158678632Y-118542595D01*
X158659745Y-118338780D01*
X158659745Y-118338779D01*
X158603728Y-118141899D01*
X158512488Y-117958665D01*
X158471404Y-117904261D01*
X158389133Y-117795315D01*
X158237863Y-117657414D01*
X158063833Y-117549659D01*
X158063828Y-117549657D01*
X158063827Y-117549656D01*
X158063822Y-117549654D01*
X157872959Y-117475713D01*
X157872960Y-117475713D01*
X157872957Y-117475712D01*
X157872956Y-117475712D01*
X157671747Y-117438100D01*
X157467053Y-117438100D01*
X157265844Y-117475712D01*
X157265839Y-117475713D01*
X157074977Y-117549654D01*
X157074966Y-117549659D01*
X156900936Y-117657414D01*
X156749666Y-117795315D01*
X156626313Y-117958663D01*
X156535071Y-118141901D01*
X156479054Y-118338780D01*
X156460168Y-118542595D01*
X156138632Y-118542595D01*
X156119745Y-118338780D01*
X156119745Y-118338779D01*
X156063728Y-118141899D01*
X155972488Y-117958665D01*
X155931404Y-117904261D01*
X155849133Y-117795315D01*
X155697863Y-117657414D01*
X155523833Y-117549659D01*
X155523828Y-117549657D01*
X155523827Y-117549656D01*
X155523822Y-117549654D01*
X155332959Y-117475713D01*
X155332960Y-117475713D01*
X155332957Y-117475712D01*
X155332956Y-117475712D01*
X155131747Y-117438100D01*
X154927053Y-117438100D01*
X154725844Y-117475712D01*
X154725839Y-117475713D01*
X154534977Y-117549654D01*
X154534966Y-117549659D01*
X154360936Y-117657414D01*
X154209666Y-117795315D01*
X154086313Y-117958663D01*
X153995071Y-118141901D01*
X153939054Y-118338780D01*
X153920168Y-118542595D01*
X153598632Y-118542595D01*
X153579745Y-118338780D01*
X153579745Y-118338779D01*
X153523728Y-118141899D01*
X153432488Y-117958665D01*
X153391404Y-117904261D01*
X153309133Y-117795315D01*
X153157863Y-117657414D01*
X152983833Y-117549659D01*
X152983828Y-117549657D01*
X152983827Y-117549656D01*
X152983822Y-117549654D01*
X152792959Y-117475713D01*
X152792960Y-117475713D01*
X152792957Y-117475712D01*
X152792956Y-117475712D01*
X152591747Y-117438100D01*
X152387053Y-117438100D01*
X152185844Y-117475712D01*
X152185839Y-117475713D01*
X151994977Y-117549654D01*
X151994966Y-117549659D01*
X151820936Y-117657414D01*
X151669666Y-117795315D01*
X151546313Y-117958663D01*
X151455071Y-118141901D01*
X151399054Y-118338780D01*
X151380168Y-118542595D01*
X151058632Y-118542595D01*
X151039745Y-118338780D01*
X151039745Y-118338779D01*
X150983728Y-118141899D01*
X150892488Y-117958665D01*
X150851404Y-117904261D01*
X150769133Y-117795315D01*
X150617863Y-117657414D01*
X150443833Y-117549659D01*
X150443828Y-117549657D01*
X150443827Y-117549656D01*
X150443822Y-117549654D01*
X150252959Y-117475713D01*
X150252960Y-117475713D01*
X150252957Y-117475712D01*
X150252956Y-117475712D01*
X150051747Y-117438100D01*
X149847053Y-117438100D01*
X149645844Y-117475712D01*
X149645839Y-117475713D01*
X149454977Y-117549654D01*
X149454966Y-117549659D01*
X149280936Y-117657414D01*
X149129666Y-117795315D01*
X149006313Y-117958663D01*
X148915071Y-118141901D01*
X148859054Y-118338780D01*
X148840168Y-118542595D01*
X148518632Y-118542595D01*
X148499745Y-118338780D01*
X148499745Y-118338779D01*
X148443728Y-118141899D01*
X148352488Y-117958665D01*
X148311404Y-117904261D01*
X148229133Y-117795315D01*
X148077863Y-117657414D01*
X147903833Y-117549659D01*
X147903828Y-117549657D01*
X147903827Y-117549656D01*
X147903822Y-117549654D01*
X147712959Y-117475713D01*
X147712960Y-117475713D01*
X147712957Y-117475712D01*
X147712956Y-117475712D01*
X147511747Y-117438100D01*
X147307053Y-117438100D01*
X147105844Y-117475712D01*
X147105839Y-117475713D01*
X146914977Y-117549654D01*
X146914966Y-117549659D01*
X146740936Y-117657414D01*
X146589666Y-117795315D01*
X146466313Y-117958663D01*
X146375071Y-118141901D01*
X146319054Y-118338780D01*
X146300168Y-118542595D01*
X145978632Y-118542595D01*
X145959745Y-118338780D01*
X145959745Y-118338779D01*
X145903728Y-118141899D01*
X145812488Y-117958665D01*
X145771404Y-117904261D01*
X145689133Y-117795315D01*
X145537863Y-117657414D01*
X145363833Y-117549659D01*
X145363828Y-117549657D01*
X145363827Y-117549656D01*
X145363822Y-117549654D01*
X145172959Y-117475713D01*
X145172960Y-117475713D01*
X145172957Y-117475712D01*
X145172956Y-117475712D01*
X144971747Y-117438100D01*
X144767053Y-117438100D01*
X144565844Y-117475712D01*
X144565839Y-117475713D01*
X144374977Y-117549654D01*
X144374966Y-117549659D01*
X144200936Y-117657414D01*
X144049666Y-117795315D01*
X143926313Y-117958663D01*
X143835071Y-118141901D01*
X143779054Y-118338780D01*
X143760168Y-118542595D01*
X143438632Y-118542595D01*
X143419745Y-118338780D01*
X143419745Y-118338779D01*
X143363728Y-118141899D01*
X143272488Y-117958665D01*
X143231404Y-117904261D01*
X143149133Y-117795315D01*
X142997863Y-117657414D01*
X142823833Y-117549659D01*
X142823828Y-117549657D01*
X142823827Y-117549656D01*
X142823822Y-117549654D01*
X142632959Y-117475713D01*
X142632960Y-117475713D01*
X142632957Y-117475712D01*
X142632956Y-117475712D01*
X142431747Y-117438100D01*
X142227053Y-117438100D01*
X142025844Y-117475712D01*
X142025839Y-117475713D01*
X141834977Y-117549654D01*
X141834966Y-117549659D01*
X141660936Y-117657414D01*
X141509666Y-117795315D01*
X141386313Y-117958663D01*
X141295071Y-118141901D01*
X141239054Y-118338780D01*
X141220168Y-118542595D01*
X140898632Y-118542595D01*
X140879745Y-118338780D01*
X140879745Y-118338779D01*
X140823728Y-118141899D01*
X140732488Y-117958665D01*
X140691404Y-117904261D01*
X140609133Y-117795315D01*
X140457863Y-117657414D01*
X140283833Y-117549659D01*
X140283828Y-117549657D01*
X140283827Y-117549656D01*
X140283822Y-117549654D01*
X140092959Y-117475713D01*
X140092960Y-117475713D01*
X140092957Y-117475712D01*
X140092956Y-117475712D01*
X139891747Y-117438100D01*
X139687053Y-117438100D01*
X139485844Y-117475712D01*
X139485839Y-117475713D01*
X139294977Y-117549654D01*
X139294966Y-117549659D01*
X139120936Y-117657414D01*
X138969666Y-117795315D01*
X138846313Y-117958663D01*
X138755071Y-118141901D01*
X138699054Y-118338780D01*
X138680168Y-118542595D01*
X138358632Y-118542595D01*
X138339745Y-118338780D01*
X138339745Y-118338779D01*
X138283728Y-118141899D01*
X138192488Y-117958665D01*
X138151404Y-117904261D01*
X138069133Y-117795315D01*
X137917863Y-117657414D01*
X137743833Y-117549659D01*
X137743828Y-117549657D01*
X137743827Y-117549656D01*
X137743822Y-117549654D01*
X137552959Y-117475713D01*
X137552960Y-117475713D01*
X137552957Y-117475712D01*
X137552956Y-117475712D01*
X137351747Y-117438100D01*
X137147053Y-117438100D01*
X136945844Y-117475712D01*
X136945839Y-117475713D01*
X136754977Y-117549654D01*
X136754966Y-117549659D01*
X136580936Y-117657414D01*
X136429666Y-117795315D01*
X136306313Y-117958663D01*
X136215071Y-118141901D01*
X136159054Y-118338780D01*
X136140168Y-118542595D01*
X133840208Y-118542595D01*
X133727231Y-118335692D01*
X133727227Y-118335687D01*
X133652298Y-118235593D01*
X133555739Y-118106605D01*
X133555737Y-118106603D01*
X133555729Y-118106594D01*
X133353405Y-117904270D01*
X133353396Y-117904262D01*
X133124312Y-117732772D01*
X133124307Y-117732768D01*
X132873170Y-117595637D01*
X132873160Y-117595632D01*
X132605046Y-117495631D01*
X132325424Y-117434803D01*
X132040000Y-117414390D01*
X131754575Y-117434803D01*
X131474953Y-117495631D01*
X131206839Y-117595632D01*
X131206829Y-117595637D01*
X130955692Y-117732768D01*
X130955687Y-117732772D01*
X130726603Y-117904262D01*
X130726594Y-117904270D01*
X130524270Y-118106594D01*
X130524262Y-118106603D01*
X130352772Y-118335687D01*
X130277087Y-118474294D01*
X130226885Y-118524496D01*
X130157511Y-118539587D01*
X130090991Y-118514776D01*
X130048444Y-118457940D01*
X130040500Y-118413908D01*
X130040500Y-112683530D01*
X136240900Y-112683530D01*
X136240900Y-114241663D01*
X136240901Y-114241673D01*
X136255665Y-114315900D01*
X136311916Y-114400084D01*
X136396097Y-114456333D01*
X136396099Y-114456334D01*
X136470333Y-114471100D01*
X138028466Y-114471099D01*
X138028469Y-114471098D01*
X138028473Y-114471098D01*
X138077726Y-114461301D01*
X138102701Y-114456334D01*
X138186884Y-114400084D01*
X138243134Y-114315901D01*
X138257900Y-114241667D01*
X138257899Y-112683534D01*
X138257898Y-112683530D01*
X138780900Y-112683530D01*
X138780900Y-114241663D01*
X138780901Y-114241673D01*
X138795665Y-114315900D01*
X138851916Y-114400084D01*
X138936097Y-114456333D01*
X138936099Y-114456334D01*
X139010333Y-114471100D01*
X140568466Y-114471099D01*
X140568469Y-114471098D01*
X140568473Y-114471098D01*
X140617726Y-114461301D01*
X140642701Y-114456334D01*
X140726884Y-114400084D01*
X140783134Y-114315901D01*
X140797900Y-114241667D01*
X140797899Y-112683534D01*
X140797898Y-112683530D01*
X141320900Y-112683530D01*
X141320900Y-114241663D01*
X141320901Y-114241673D01*
X141335665Y-114315900D01*
X141391916Y-114400084D01*
X141476097Y-114456333D01*
X141476099Y-114456334D01*
X141550333Y-114471100D01*
X143108466Y-114471099D01*
X143108469Y-114471098D01*
X143108473Y-114471098D01*
X143157726Y-114461301D01*
X143182701Y-114456334D01*
X143266884Y-114400084D01*
X143323134Y-114315901D01*
X143337900Y-114241667D01*
X143337899Y-112683534D01*
X143337898Y-112683530D01*
X143860900Y-112683530D01*
X143860900Y-114241663D01*
X143860901Y-114241673D01*
X143875665Y-114315900D01*
X143931916Y-114400084D01*
X144016097Y-114456333D01*
X144016099Y-114456334D01*
X144090333Y-114471100D01*
X145648466Y-114471099D01*
X145648469Y-114471098D01*
X145648473Y-114471098D01*
X145697726Y-114461301D01*
X145722701Y-114456334D01*
X145806884Y-114400084D01*
X145863134Y-114315901D01*
X145877900Y-114241667D01*
X145877899Y-112683534D01*
X145877898Y-112683530D01*
X146400900Y-112683530D01*
X146400900Y-114241663D01*
X146400901Y-114241673D01*
X146415665Y-114315900D01*
X146471916Y-114400084D01*
X146556097Y-114456333D01*
X146556099Y-114456334D01*
X146630333Y-114471100D01*
X148188466Y-114471099D01*
X148188469Y-114471098D01*
X148188473Y-114471098D01*
X148237726Y-114461301D01*
X148262701Y-114456334D01*
X148346884Y-114400084D01*
X148403134Y-114315901D01*
X148417900Y-114241667D01*
X148417899Y-112683534D01*
X148417898Y-112683530D01*
X148940900Y-112683530D01*
X148940900Y-114241663D01*
X148940901Y-114241673D01*
X148955665Y-114315900D01*
X149011916Y-114400084D01*
X149096097Y-114456333D01*
X149096099Y-114456334D01*
X149170333Y-114471100D01*
X150728466Y-114471099D01*
X150728469Y-114471098D01*
X150728473Y-114471098D01*
X150777726Y-114461301D01*
X150802701Y-114456334D01*
X150886884Y-114400084D01*
X150943134Y-114315901D01*
X150957900Y-114241667D01*
X150957899Y-112683534D01*
X150957898Y-112683530D01*
X151480900Y-112683530D01*
X151480900Y-114241663D01*
X151480901Y-114241673D01*
X151495665Y-114315900D01*
X151551916Y-114400084D01*
X151636097Y-114456333D01*
X151636099Y-114456334D01*
X151710333Y-114471100D01*
X153268466Y-114471099D01*
X153268469Y-114471098D01*
X153268473Y-114471098D01*
X153317726Y-114461301D01*
X153342701Y-114456334D01*
X153426884Y-114400084D01*
X153483134Y-114315901D01*
X153497900Y-114241667D01*
X153497899Y-112683534D01*
X153497898Y-112683530D01*
X154020900Y-112683530D01*
X154020900Y-114241663D01*
X154020901Y-114241673D01*
X154035665Y-114315900D01*
X154091916Y-114400084D01*
X154176097Y-114456333D01*
X154176099Y-114456334D01*
X154250333Y-114471100D01*
X155808466Y-114471099D01*
X155808469Y-114471098D01*
X155808473Y-114471098D01*
X155857726Y-114461301D01*
X155882701Y-114456334D01*
X155966884Y-114400084D01*
X156023134Y-114315901D01*
X156037900Y-114241667D01*
X156037899Y-112683534D01*
X156037898Y-112683530D01*
X156560900Y-112683530D01*
X156560900Y-114241663D01*
X156560901Y-114241673D01*
X156575665Y-114315900D01*
X156631916Y-114400084D01*
X156716097Y-114456333D01*
X156716099Y-114456334D01*
X156790333Y-114471100D01*
X158348466Y-114471099D01*
X158348469Y-114471098D01*
X158348473Y-114471098D01*
X158397726Y-114461301D01*
X158422701Y-114456334D01*
X158506884Y-114400084D01*
X158563134Y-114315901D01*
X158577900Y-114241667D01*
X158577899Y-112683534D01*
X158577898Y-112683530D01*
X159100900Y-112683530D01*
X159100900Y-114241663D01*
X159100901Y-114241673D01*
X159115665Y-114315900D01*
X159171916Y-114400084D01*
X159256097Y-114456333D01*
X159256099Y-114456334D01*
X159330333Y-114471100D01*
X160888466Y-114471099D01*
X160888469Y-114471098D01*
X160888473Y-114471098D01*
X160937726Y-114461301D01*
X160962701Y-114456334D01*
X161046884Y-114400084D01*
X161103134Y-114315901D01*
X161117900Y-114241667D01*
X161117899Y-112683534D01*
X161117898Y-112683530D01*
X161640900Y-112683530D01*
X161640900Y-114241663D01*
X161640901Y-114241673D01*
X161655665Y-114315900D01*
X161711916Y-114400084D01*
X161796097Y-114456333D01*
X161796099Y-114456334D01*
X161870333Y-114471100D01*
X163428466Y-114471099D01*
X163428469Y-114471098D01*
X163428473Y-114471098D01*
X163477726Y-114461301D01*
X163502701Y-114456334D01*
X163586884Y-114400084D01*
X163643134Y-114315901D01*
X163657900Y-114241667D01*
X163657899Y-112683534D01*
X163657898Y-112683530D01*
X164180900Y-112683530D01*
X164180900Y-114241663D01*
X164180901Y-114241673D01*
X164195665Y-114315900D01*
X164251916Y-114400084D01*
X164336097Y-114456333D01*
X164336099Y-114456334D01*
X164410333Y-114471100D01*
X165968466Y-114471099D01*
X165968469Y-114471098D01*
X165968473Y-114471098D01*
X166017726Y-114461301D01*
X166042701Y-114456334D01*
X166126884Y-114400084D01*
X166183134Y-114315901D01*
X166197900Y-114241667D01*
X166197899Y-112683534D01*
X166197898Y-112683530D01*
X166720900Y-112683530D01*
X166720900Y-114241663D01*
X166720901Y-114241673D01*
X166735665Y-114315900D01*
X166791916Y-114400084D01*
X166876097Y-114456333D01*
X166876099Y-114456334D01*
X166950333Y-114471100D01*
X168508466Y-114471099D01*
X168508469Y-114471098D01*
X168508473Y-114471098D01*
X168557726Y-114461301D01*
X168582701Y-114456334D01*
X168666884Y-114400084D01*
X168723134Y-114315901D01*
X168737900Y-114241667D01*
X168737899Y-112683534D01*
X168737898Y-112683530D01*
X169260900Y-112683530D01*
X169260900Y-114241663D01*
X169260901Y-114241673D01*
X169275665Y-114315900D01*
X169331916Y-114400084D01*
X169416097Y-114456333D01*
X169416099Y-114456334D01*
X169490333Y-114471100D01*
X171048466Y-114471099D01*
X171048469Y-114471098D01*
X171048473Y-114471098D01*
X171097726Y-114461301D01*
X171122701Y-114456334D01*
X171206884Y-114400084D01*
X171263134Y-114315901D01*
X171277900Y-114241667D01*
X171277899Y-112683534D01*
X171277898Y-112683530D01*
X171800900Y-112683530D01*
X171800900Y-114241663D01*
X171800901Y-114241673D01*
X171815665Y-114315900D01*
X171871916Y-114400084D01*
X171956097Y-114456333D01*
X171956099Y-114456334D01*
X172030333Y-114471100D01*
X173588466Y-114471099D01*
X173588469Y-114471098D01*
X173588473Y-114471098D01*
X173637726Y-114461301D01*
X173662701Y-114456334D01*
X173746884Y-114400084D01*
X173803134Y-114315901D01*
X173817900Y-114241667D01*
X173817899Y-112683534D01*
X173817898Y-112683530D01*
X174340900Y-112683530D01*
X174340900Y-114241663D01*
X174340901Y-114241673D01*
X174355665Y-114315900D01*
X174411916Y-114400084D01*
X174496097Y-114456333D01*
X174496099Y-114456334D01*
X174570333Y-114471100D01*
X176128466Y-114471099D01*
X176128469Y-114471098D01*
X176128473Y-114471098D01*
X176177726Y-114461301D01*
X176202701Y-114456334D01*
X176286884Y-114400084D01*
X176343134Y-114315901D01*
X176357900Y-114241667D01*
X176357899Y-112683534D01*
X176357898Y-112683530D01*
X176880900Y-112683530D01*
X176880900Y-114241663D01*
X176880901Y-114241673D01*
X176895665Y-114315900D01*
X176951916Y-114400084D01*
X177036097Y-114456333D01*
X177036099Y-114456334D01*
X177110333Y-114471100D01*
X178668466Y-114471099D01*
X178668469Y-114471098D01*
X178668473Y-114471098D01*
X178717726Y-114461301D01*
X178742701Y-114456334D01*
X178826884Y-114400084D01*
X178883134Y-114315901D01*
X178897900Y-114241667D01*
X178897899Y-112683534D01*
X178897898Y-112683530D01*
X178897898Y-112683526D01*
X178883134Y-112609299D01*
X178826883Y-112525115D01*
X178742702Y-112468866D01*
X178668467Y-112454100D01*
X177110336Y-112454100D01*
X177110326Y-112454101D01*
X177036099Y-112468865D01*
X176951915Y-112525116D01*
X176895666Y-112609297D01*
X176880900Y-112683530D01*
X176357898Y-112683530D01*
X176357898Y-112683526D01*
X176343134Y-112609299D01*
X176286883Y-112525115D01*
X176202702Y-112468866D01*
X176128467Y-112454100D01*
X174570336Y-112454100D01*
X174570326Y-112454101D01*
X174496099Y-112468865D01*
X174411915Y-112525116D01*
X174355666Y-112609297D01*
X174340900Y-112683530D01*
X173817898Y-112683530D01*
X173817898Y-112683526D01*
X173803134Y-112609299D01*
X173746883Y-112525115D01*
X173662702Y-112468866D01*
X173588467Y-112454100D01*
X172030336Y-112454100D01*
X172030326Y-112454101D01*
X171956099Y-112468865D01*
X171871915Y-112525116D01*
X171815666Y-112609297D01*
X171800900Y-112683530D01*
X171277898Y-112683530D01*
X171277898Y-112683526D01*
X171263134Y-112609299D01*
X171206883Y-112525115D01*
X171122702Y-112468866D01*
X171048467Y-112454100D01*
X169490336Y-112454100D01*
X169490326Y-112454101D01*
X169416099Y-112468865D01*
X169331915Y-112525116D01*
X169275666Y-112609297D01*
X169260900Y-112683530D01*
X168737898Y-112683530D01*
X168737898Y-112683526D01*
X168723134Y-112609299D01*
X168666883Y-112525115D01*
X168582702Y-112468866D01*
X168508467Y-112454100D01*
X166950336Y-112454100D01*
X166950326Y-112454101D01*
X166876099Y-112468865D01*
X166791915Y-112525116D01*
X166735666Y-112609297D01*
X166720900Y-112683530D01*
X166197898Y-112683530D01*
X166197898Y-112683526D01*
X166183134Y-112609299D01*
X166126883Y-112525115D01*
X166042702Y-112468866D01*
X165968467Y-112454100D01*
X164410336Y-112454100D01*
X164410326Y-112454101D01*
X164336099Y-112468865D01*
X164251915Y-112525116D01*
X164195666Y-112609297D01*
X164180900Y-112683530D01*
X163657898Y-112683530D01*
X163657898Y-112683526D01*
X163643134Y-112609299D01*
X163586883Y-112525115D01*
X163502702Y-112468866D01*
X163428467Y-112454100D01*
X161870336Y-112454100D01*
X161870326Y-112454101D01*
X161796099Y-112468865D01*
X161711915Y-112525116D01*
X161655666Y-112609297D01*
X161640900Y-112683530D01*
X161117898Y-112683530D01*
X161117898Y-112683526D01*
X161103134Y-112609299D01*
X161046883Y-112525115D01*
X160962702Y-112468866D01*
X160888467Y-112454100D01*
X159330336Y-112454100D01*
X159330326Y-112454101D01*
X159256099Y-112468865D01*
X159171915Y-112525116D01*
X159115666Y-112609297D01*
X159100900Y-112683530D01*
X158577898Y-112683530D01*
X158577898Y-112683526D01*
X158563134Y-112609299D01*
X158506883Y-112525115D01*
X158422702Y-112468866D01*
X158348467Y-112454100D01*
X156790336Y-112454100D01*
X156790326Y-112454101D01*
X156716099Y-112468865D01*
X156631915Y-112525116D01*
X156575666Y-112609297D01*
X156560900Y-112683530D01*
X156037898Y-112683530D01*
X156037898Y-112683526D01*
X156023134Y-112609299D01*
X155966883Y-112525115D01*
X155882702Y-112468866D01*
X155808467Y-112454100D01*
X154250336Y-112454100D01*
X154250326Y-112454101D01*
X154176099Y-112468865D01*
X154091915Y-112525116D01*
X154035666Y-112609297D01*
X154020900Y-112683530D01*
X153497898Y-112683530D01*
X153497898Y-112683526D01*
X153483134Y-112609299D01*
X153426883Y-112525115D01*
X153342702Y-112468866D01*
X153268467Y-112454100D01*
X151710336Y-112454100D01*
X151710326Y-112454101D01*
X151636099Y-112468865D01*
X151551915Y-112525116D01*
X151495666Y-112609297D01*
X151480900Y-112683530D01*
X150957898Y-112683530D01*
X150957898Y-112683526D01*
X150943134Y-112609299D01*
X150886883Y-112525115D01*
X150802702Y-112468866D01*
X150728467Y-112454100D01*
X149170336Y-112454100D01*
X149170326Y-112454101D01*
X149096099Y-112468865D01*
X149011915Y-112525116D01*
X148955666Y-112609297D01*
X148940900Y-112683530D01*
X148417898Y-112683530D01*
X148417898Y-112683526D01*
X148403134Y-112609299D01*
X148346883Y-112525115D01*
X148262702Y-112468866D01*
X148188467Y-112454100D01*
X146630336Y-112454100D01*
X146630326Y-112454101D01*
X146556099Y-112468865D01*
X146471915Y-112525116D01*
X146415666Y-112609297D01*
X146400900Y-112683530D01*
X145877898Y-112683530D01*
X145877898Y-112683526D01*
X145863134Y-112609299D01*
X145806883Y-112525115D01*
X145722702Y-112468866D01*
X145648467Y-112454100D01*
X144090336Y-112454100D01*
X144090326Y-112454101D01*
X144016099Y-112468865D01*
X143931915Y-112525116D01*
X143875666Y-112609297D01*
X143860900Y-112683530D01*
X143337898Y-112683530D01*
X143337898Y-112683526D01*
X143323134Y-112609299D01*
X143266883Y-112525115D01*
X143182702Y-112468866D01*
X143108467Y-112454100D01*
X141550336Y-112454100D01*
X141550326Y-112454101D01*
X141476099Y-112468865D01*
X141391915Y-112525116D01*
X141335666Y-112609297D01*
X141320900Y-112683530D01*
X140797898Y-112683530D01*
X140797898Y-112683526D01*
X140783134Y-112609299D01*
X140726883Y-112525115D01*
X140642702Y-112468866D01*
X140568467Y-112454100D01*
X139010336Y-112454100D01*
X139010326Y-112454101D01*
X138936099Y-112468865D01*
X138851915Y-112525116D01*
X138795666Y-112609297D01*
X138780900Y-112683530D01*
X138257898Y-112683530D01*
X138257898Y-112683526D01*
X138243134Y-112609299D01*
X138186883Y-112525115D01*
X138102702Y-112468866D01*
X138028467Y-112454100D01*
X136470336Y-112454100D01*
X136470326Y-112454101D01*
X136396099Y-112468865D01*
X136311915Y-112525116D01*
X136255666Y-112609297D01*
X136240900Y-112683530D01*
X130040500Y-112683530D01*
X130040500Y-89727530D01*
X136144900Y-89727530D01*
X136144900Y-91477663D01*
X136144901Y-91477673D01*
X136159665Y-91551900D01*
X136215916Y-91636084D01*
X136300097Y-91692333D01*
X136300099Y-91692334D01*
X136374333Y-91707100D01*
X138124466Y-91707099D01*
X138124469Y-91707098D01*
X138124473Y-91707098D01*
X138173726Y-91697301D01*
X138198701Y-91692334D01*
X138282884Y-91636084D01*
X138339134Y-91551901D01*
X138353900Y-91477667D01*
X138353899Y-90602595D01*
X138680168Y-90602595D01*
X138680168Y-90602604D01*
X138699054Y-90806419D01*
X138699055Y-90806421D01*
X138755072Y-91003301D01*
X138846312Y-91186535D01*
X138846313Y-91186536D01*
X138969666Y-91349884D01*
X139120936Y-91487785D01*
X139294966Y-91595540D01*
X139294968Y-91595540D01*
X139294973Y-91595544D01*
X139485844Y-91669488D01*
X139687053Y-91707100D01*
X139687055Y-91707100D01*
X139891745Y-91707100D01*
X139891747Y-91707100D01*
X140092956Y-91669488D01*
X140283827Y-91595544D01*
X140457862Y-91487786D01*
X140609132Y-91349885D01*
X140732488Y-91186535D01*
X140823728Y-91003301D01*
X140879745Y-90806421D01*
X140898632Y-90602600D01*
X140898632Y-90602595D01*
X141220168Y-90602595D01*
X141220168Y-90602604D01*
X141239054Y-90806419D01*
X141239055Y-90806421D01*
X141295072Y-91003301D01*
X141386312Y-91186535D01*
X141386313Y-91186536D01*
X141509666Y-91349884D01*
X141660936Y-91487785D01*
X141834966Y-91595540D01*
X141834968Y-91595540D01*
X141834973Y-91595544D01*
X142025844Y-91669488D01*
X142227053Y-91707100D01*
X142227055Y-91707100D01*
X142431745Y-91707100D01*
X142431747Y-91707100D01*
X142632956Y-91669488D01*
X142823827Y-91595544D01*
X142997862Y-91487786D01*
X143149132Y-91349885D01*
X143272488Y-91186535D01*
X143363728Y-91003301D01*
X143419745Y-90806421D01*
X143438632Y-90602600D01*
X143438632Y-90602595D01*
X143760168Y-90602595D01*
X143760168Y-90602604D01*
X143779054Y-90806419D01*
X143779055Y-90806421D01*
X143835072Y-91003301D01*
X143926312Y-91186535D01*
X143926313Y-91186536D01*
X144049666Y-91349884D01*
X144200936Y-91487785D01*
X144374966Y-91595540D01*
X144374968Y-91595540D01*
X144374973Y-91595544D01*
X144565844Y-91669488D01*
X144767053Y-91707100D01*
X144767055Y-91707100D01*
X144971745Y-91707100D01*
X144971747Y-91707100D01*
X145172956Y-91669488D01*
X145363827Y-91595544D01*
X145537862Y-91487786D01*
X145689132Y-91349885D01*
X145812488Y-91186535D01*
X145903728Y-91003301D01*
X145959745Y-90806421D01*
X145978632Y-90602600D01*
X145978632Y-90602595D01*
X146300168Y-90602595D01*
X146300168Y-90602604D01*
X146319054Y-90806419D01*
X146319055Y-90806421D01*
X146375072Y-91003301D01*
X146466312Y-91186535D01*
X146466313Y-91186536D01*
X146589666Y-91349884D01*
X146740936Y-91487785D01*
X146914966Y-91595540D01*
X146914968Y-91595540D01*
X146914973Y-91595544D01*
X147105844Y-91669488D01*
X147307053Y-91707100D01*
X147307055Y-91707100D01*
X147511745Y-91707100D01*
X147511747Y-91707100D01*
X147712956Y-91669488D01*
X147903827Y-91595544D01*
X148077862Y-91487786D01*
X148229132Y-91349885D01*
X148352488Y-91186535D01*
X148443728Y-91003301D01*
X148499745Y-90806421D01*
X148518632Y-90602600D01*
X148518632Y-90602595D01*
X148840168Y-90602595D01*
X148840168Y-90602604D01*
X148859054Y-90806419D01*
X148859055Y-90806421D01*
X148915072Y-91003301D01*
X149006312Y-91186535D01*
X149006313Y-91186536D01*
X149129666Y-91349884D01*
X149280936Y-91487785D01*
X149454966Y-91595540D01*
X149454968Y-91595540D01*
X149454973Y-91595544D01*
X149645844Y-91669488D01*
X149847053Y-91707100D01*
X149847055Y-91707100D01*
X150051745Y-91707100D01*
X150051747Y-91707100D01*
X150252956Y-91669488D01*
X150443827Y-91595544D01*
X150617862Y-91487786D01*
X150769132Y-91349885D01*
X150892488Y-91186535D01*
X150983728Y-91003301D01*
X151039745Y-90806421D01*
X151058632Y-90602600D01*
X151058632Y-90602595D01*
X151380168Y-90602595D01*
X151380168Y-90602604D01*
X151399054Y-90806419D01*
X151399055Y-90806421D01*
X151455072Y-91003301D01*
X151546312Y-91186535D01*
X151546313Y-91186536D01*
X151669666Y-91349884D01*
X151820936Y-91487785D01*
X151994966Y-91595540D01*
X151994968Y-91595540D01*
X151994973Y-91595544D01*
X152185844Y-91669488D01*
X152387053Y-91707100D01*
X152387055Y-91707100D01*
X152591745Y-91707100D01*
X152591747Y-91707100D01*
X152792956Y-91669488D01*
X152983827Y-91595544D01*
X153157862Y-91487786D01*
X153309132Y-91349885D01*
X153432488Y-91186535D01*
X153523728Y-91003301D01*
X153579745Y-90806421D01*
X153598632Y-90602600D01*
X153598632Y-90602595D01*
X153920168Y-90602595D01*
X153920168Y-90602604D01*
X153939054Y-90806419D01*
X153939055Y-90806421D01*
X153995072Y-91003301D01*
X154086312Y-91186535D01*
X154086313Y-91186536D01*
X154209666Y-91349884D01*
X154360936Y-91487785D01*
X154534966Y-91595540D01*
X154534968Y-91595540D01*
X154534973Y-91595544D01*
X154725844Y-91669488D01*
X154927053Y-91707100D01*
X154927055Y-91707100D01*
X155131745Y-91707100D01*
X155131747Y-91707100D01*
X155332956Y-91669488D01*
X155523827Y-91595544D01*
X155697862Y-91487786D01*
X155849132Y-91349885D01*
X155972488Y-91186535D01*
X156063728Y-91003301D01*
X156119745Y-90806421D01*
X156138632Y-90602600D01*
X156138632Y-90602595D01*
X156460168Y-90602595D01*
X156460168Y-90602604D01*
X156479054Y-90806419D01*
X156479055Y-90806421D01*
X156535072Y-91003301D01*
X156626312Y-91186535D01*
X156626313Y-91186536D01*
X156749666Y-91349884D01*
X156900936Y-91487785D01*
X157074966Y-91595540D01*
X157074968Y-91595540D01*
X157074973Y-91595544D01*
X157265844Y-91669488D01*
X157467053Y-91707100D01*
X157467055Y-91707100D01*
X157671745Y-91707100D01*
X157671747Y-91707100D01*
X157872956Y-91669488D01*
X158063827Y-91595544D01*
X158237862Y-91487786D01*
X158389132Y-91349885D01*
X158512488Y-91186535D01*
X158603728Y-91003301D01*
X158659745Y-90806421D01*
X158678632Y-90602600D01*
X158678632Y-90602595D01*
X159000168Y-90602595D01*
X159000168Y-90602604D01*
X159019054Y-90806419D01*
X159019055Y-90806421D01*
X159075072Y-91003301D01*
X159166312Y-91186535D01*
X159166313Y-91186536D01*
X159289666Y-91349884D01*
X159440936Y-91487785D01*
X159614966Y-91595540D01*
X159614968Y-91595540D01*
X159614973Y-91595544D01*
X159805844Y-91669488D01*
X160007053Y-91707100D01*
X160007055Y-91707100D01*
X160211745Y-91707100D01*
X160211747Y-91707100D01*
X160412956Y-91669488D01*
X160603827Y-91595544D01*
X160777862Y-91487786D01*
X160929132Y-91349885D01*
X161052488Y-91186535D01*
X161143728Y-91003301D01*
X161199745Y-90806421D01*
X161218632Y-90602600D01*
X161218632Y-90602595D01*
X161540168Y-90602595D01*
X161540168Y-90602604D01*
X161559054Y-90806419D01*
X161559055Y-90806421D01*
X161615072Y-91003301D01*
X161706312Y-91186535D01*
X161706313Y-91186536D01*
X161829666Y-91349884D01*
X161980936Y-91487785D01*
X162154966Y-91595540D01*
X162154968Y-91595540D01*
X162154973Y-91595544D01*
X162345844Y-91669488D01*
X162547053Y-91707100D01*
X162547055Y-91707100D01*
X162751745Y-91707100D01*
X162751747Y-91707100D01*
X162952956Y-91669488D01*
X163143827Y-91595544D01*
X163317862Y-91487786D01*
X163469132Y-91349885D01*
X163592488Y-91186535D01*
X163683728Y-91003301D01*
X163739745Y-90806421D01*
X163758632Y-90602600D01*
X163758632Y-90602595D01*
X164080168Y-90602595D01*
X164080168Y-90602604D01*
X164099054Y-90806419D01*
X164099055Y-90806421D01*
X164155072Y-91003301D01*
X164246312Y-91186535D01*
X164246313Y-91186536D01*
X164369666Y-91349884D01*
X164520936Y-91487785D01*
X164694966Y-91595540D01*
X164694968Y-91595540D01*
X164694973Y-91595544D01*
X164885844Y-91669488D01*
X165087053Y-91707100D01*
X165087055Y-91707100D01*
X165291745Y-91707100D01*
X165291747Y-91707100D01*
X165492956Y-91669488D01*
X165683827Y-91595544D01*
X165857862Y-91487786D01*
X166009132Y-91349885D01*
X166132488Y-91186535D01*
X166223728Y-91003301D01*
X166279745Y-90806421D01*
X166298632Y-90602600D01*
X166298632Y-90602595D01*
X166620168Y-90602595D01*
X166620168Y-90602604D01*
X166639054Y-90806419D01*
X166639055Y-90806421D01*
X166695072Y-91003301D01*
X166786312Y-91186535D01*
X166786313Y-91186536D01*
X166909666Y-91349884D01*
X167060936Y-91487785D01*
X167234966Y-91595540D01*
X167234968Y-91595540D01*
X167234973Y-91595544D01*
X167425844Y-91669488D01*
X167627053Y-91707100D01*
X167627055Y-91707100D01*
X167831745Y-91707100D01*
X167831747Y-91707100D01*
X168032956Y-91669488D01*
X168223827Y-91595544D01*
X168397862Y-91487786D01*
X168549132Y-91349885D01*
X168672488Y-91186535D01*
X168763728Y-91003301D01*
X168819745Y-90806421D01*
X168838632Y-90602600D01*
X168838632Y-90602595D01*
X169160168Y-90602595D01*
X169160168Y-90602604D01*
X169179054Y-90806419D01*
X169179055Y-90806421D01*
X169235072Y-91003301D01*
X169326312Y-91186535D01*
X169326313Y-91186536D01*
X169449666Y-91349884D01*
X169600936Y-91487785D01*
X169774966Y-91595540D01*
X169774968Y-91595540D01*
X169774973Y-91595544D01*
X169965844Y-91669488D01*
X170167053Y-91707100D01*
X170167055Y-91707100D01*
X170371745Y-91707100D01*
X170371747Y-91707100D01*
X170572956Y-91669488D01*
X170763827Y-91595544D01*
X170937862Y-91487786D01*
X171089132Y-91349885D01*
X171212488Y-91186535D01*
X171303728Y-91003301D01*
X171359745Y-90806421D01*
X171378632Y-90602600D01*
X171378632Y-90602595D01*
X171700168Y-90602595D01*
X171700168Y-90602604D01*
X171719054Y-90806419D01*
X171719055Y-90806421D01*
X171775072Y-91003301D01*
X171866312Y-91186535D01*
X171866313Y-91186536D01*
X171989666Y-91349884D01*
X172140936Y-91487785D01*
X172314966Y-91595540D01*
X172314968Y-91595540D01*
X172314973Y-91595544D01*
X172505844Y-91669488D01*
X172707053Y-91707100D01*
X172707055Y-91707100D01*
X172911745Y-91707100D01*
X172911747Y-91707100D01*
X173112956Y-91669488D01*
X173303827Y-91595544D01*
X173477862Y-91487786D01*
X173629132Y-91349885D01*
X173752488Y-91186535D01*
X173843728Y-91003301D01*
X173899745Y-90806421D01*
X173918632Y-90602600D01*
X173918632Y-90602595D01*
X174240168Y-90602595D01*
X174240168Y-90602604D01*
X174259054Y-90806419D01*
X174259055Y-90806421D01*
X174315072Y-91003301D01*
X174406312Y-91186535D01*
X174406313Y-91186536D01*
X174529666Y-91349884D01*
X174680936Y-91487785D01*
X174854966Y-91595540D01*
X174854968Y-91595540D01*
X174854973Y-91595544D01*
X175045844Y-91669488D01*
X175247053Y-91707100D01*
X175247055Y-91707100D01*
X175451745Y-91707100D01*
X175451747Y-91707100D01*
X175652956Y-91669488D01*
X175843827Y-91595544D01*
X176017862Y-91487786D01*
X176169132Y-91349885D01*
X176292488Y-91186535D01*
X176383728Y-91003301D01*
X176439745Y-90806421D01*
X176458632Y-90602600D01*
X176458632Y-90602595D01*
X176780168Y-90602595D01*
X176780168Y-90602604D01*
X176799054Y-90806419D01*
X176799055Y-90806421D01*
X176855072Y-91003301D01*
X176946312Y-91186535D01*
X176946313Y-91186536D01*
X177069666Y-91349884D01*
X177220936Y-91487785D01*
X177394966Y-91595540D01*
X177394968Y-91595540D01*
X177394973Y-91595544D01*
X177585844Y-91669488D01*
X177787053Y-91707100D01*
X177787055Y-91707100D01*
X177991745Y-91707100D01*
X177991747Y-91707100D01*
X178192956Y-91669488D01*
X178383827Y-91595544D01*
X178557862Y-91487786D01*
X178709132Y-91349885D01*
X178832488Y-91186535D01*
X178923728Y-91003301D01*
X178979745Y-90806421D01*
X178998632Y-90602600D01*
X178998632Y-90602595D01*
X179320168Y-90602595D01*
X179320168Y-90602604D01*
X179339054Y-90806419D01*
X179339055Y-90806421D01*
X179395072Y-91003301D01*
X179486312Y-91186535D01*
X179486313Y-91186536D01*
X179609666Y-91349884D01*
X179760936Y-91487785D01*
X179934966Y-91595540D01*
X179934968Y-91595540D01*
X179934973Y-91595544D01*
X180125844Y-91669488D01*
X180327053Y-91707100D01*
X180327055Y-91707100D01*
X180531745Y-91707100D01*
X180531747Y-91707100D01*
X180732956Y-91669488D01*
X180923827Y-91595544D01*
X181097862Y-91487786D01*
X181249132Y-91349885D01*
X181372488Y-91186535D01*
X181463728Y-91003301D01*
X181519745Y-90806421D01*
X181538632Y-90602600D01*
X181538632Y-90602595D01*
X181860168Y-90602595D01*
X181860168Y-90602604D01*
X181879054Y-90806419D01*
X181879055Y-90806421D01*
X181935072Y-91003301D01*
X182026312Y-91186535D01*
X182026313Y-91186536D01*
X182149666Y-91349884D01*
X182300936Y-91487785D01*
X182474966Y-91595540D01*
X182474968Y-91595540D01*
X182474973Y-91595544D01*
X182665844Y-91669488D01*
X182867053Y-91707100D01*
X182867055Y-91707100D01*
X183071745Y-91707100D01*
X183071747Y-91707100D01*
X183272956Y-91669488D01*
X183463827Y-91595544D01*
X183637862Y-91487786D01*
X183789132Y-91349885D01*
X183912488Y-91186535D01*
X184003728Y-91003301D01*
X184059745Y-90806421D01*
X184078632Y-90602600D01*
X184059745Y-90398779D01*
X184003728Y-90201899D01*
X183912488Y-90018665D01*
X183871938Y-89964968D01*
X183789133Y-89855315D01*
X183637863Y-89717414D01*
X183463833Y-89609659D01*
X183463828Y-89609657D01*
X183463827Y-89609656D01*
X183463822Y-89609654D01*
X183272959Y-89535713D01*
X183272960Y-89535713D01*
X183272957Y-89535712D01*
X183272956Y-89535712D01*
X183071747Y-89498100D01*
X182867053Y-89498100D01*
X182722962Y-89525035D01*
X182665839Y-89535713D01*
X182474977Y-89609654D01*
X182474966Y-89609659D01*
X182300936Y-89717414D01*
X182149666Y-89855315D01*
X182026313Y-90018663D01*
X181935071Y-90201901D01*
X181879054Y-90398780D01*
X181860168Y-90602595D01*
X181538632Y-90602595D01*
X181519745Y-90398779D01*
X181463728Y-90201899D01*
X181372488Y-90018665D01*
X181331938Y-89964968D01*
X181249133Y-89855315D01*
X181097863Y-89717414D01*
X180923833Y-89609659D01*
X180923828Y-89609657D01*
X180923827Y-89609656D01*
X180923822Y-89609654D01*
X180732959Y-89535713D01*
X180732960Y-89535713D01*
X180732957Y-89535712D01*
X180732956Y-89535712D01*
X180531747Y-89498100D01*
X180327053Y-89498100D01*
X180182962Y-89525035D01*
X180125839Y-89535713D01*
X179934977Y-89609654D01*
X179934966Y-89609659D01*
X179760936Y-89717414D01*
X179609666Y-89855315D01*
X179486313Y-90018663D01*
X179395071Y-90201901D01*
X179339054Y-90398780D01*
X179320168Y-90602595D01*
X178998632Y-90602595D01*
X178979745Y-90398779D01*
X178923728Y-90201899D01*
X178832488Y-90018665D01*
X178791938Y-89964968D01*
X178709133Y-89855315D01*
X178557863Y-89717414D01*
X178383833Y-89609659D01*
X178383828Y-89609657D01*
X178383827Y-89609656D01*
X178383822Y-89609654D01*
X178192959Y-89535713D01*
X178192960Y-89535713D01*
X178192957Y-89535712D01*
X178192956Y-89535712D01*
X177991747Y-89498100D01*
X177787053Y-89498100D01*
X177642962Y-89525035D01*
X177585839Y-89535713D01*
X177394977Y-89609654D01*
X177394966Y-89609659D01*
X177220936Y-89717414D01*
X177069666Y-89855315D01*
X176946313Y-90018663D01*
X176855071Y-90201901D01*
X176799054Y-90398780D01*
X176780168Y-90602595D01*
X176458632Y-90602595D01*
X176439745Y-90398779D01*
X176383728Y-90201899D01*
X176292488Y-90018665D01*
X176251938Y-89964968D01*
X176169133Y-89855315D01*
X176017863Y-89717414D01*
X175843833Y-89609659D01*
X175843828Y-89609657D01*
X175843827Y-89609656D01*
X175843822Y-89609654D01*
X175652959Y-89535713D01*
X175652960Y-89535713D01*
X175652957Y-89535712D01*
X175652956Y-89535712D01*
X175451747Y-89498100D01*
X175247053Y-89498100D01*
X175102962Y-89525035D01*
X175045839Y-89535713D01*
X174854977Y-89609654D01*
X174854966Y-89609659D01*
X174680936Y-89717414D01*
X174529666Y-89855315D01*
X174406313Y-90018663D01*
X174315071Y-90201901D01*
X174259054Y-90398780D01*
X174240168Y-90602595D01*
X173918632Y-90602595D01*
X173899745Y-90398779D01*
X173843728Y-90201899D01*
X173752488Y-90018665D01*
X173711938Y-89964968D01*
X173629133Y-89855315D01*
X173477863Y-89717414D01*
X173303833Y-89609659D01*
X173303828Y-89609657D01*
X173303827Y-89609656D01*
X173303822Y-89609654D01*
X173112959Y-89535713D01*
X173112960Y-89535713D01*
X173112957Y-89535712D01*
X173112956Y-89535712D01*
X172911747Y-89498100D01*
X172707053Y-89498100D01*
X172562962Y-89525035D01*
X172505839Y-89535713D01*
X172314977Y-89609654D01*
X172314966Y-89609659D01*
X172140936Y-89717414D01*
X171989666Y-89855315D01*
X171866313Y-90018663D01*
X171775071Y-90201901D01*
X171719054Y-90398780D01*
X171700168Y-90602595D01*
X171378632Y-90602595D01*
X171359745Y-90398779D01*
X171303728Y-90201899D01*
X171212488Y-90018665D01*
X171171938Y-89964968D01*
X171089133Y-89855315D01*
X170937863Y-89717414D01*
X170763833Y-89609659D01*
X170763828Y-89609657D01*
X170763827Y-89609656D01*
X170763822Y-89609654D01*
X170572959Y-89535713D01*
X170572960Y-89535713D01*
X170572957Y-89535712D01*
X170572956Y-89535712D01*
X170371747Y-89498100D01*
X170167053Y-89498100D01*
X170022962Y-89525035D01*
X169965839Y-89535713D01*
X169774977Y-89609654D01*
X169774966Y-89609659D01*
X169600936Y-89717414D01*
X169449666Y-89855315D01*
X169326313Y-90018663D01*
X169235071Y-90201901D01*
X169179054Y-90398780D01*
X169160168Y-90602595D01*
X168838632Y-90602595D01*
X168819745Y-90398779D01*
X168763728Y-90201899D01*
X168672488Y-90018665D01*
X168631938Y-89964968D01*
X168549133Y-89855315D01*
X168397863Y-89717414D01*
X168223833Y-89609659D01*
X168223828Y-89609657D01*
X168223827Y-89609656D01*
X168223822Y-89609654D01*
X168032959Y-89535713D01*
X168032960Y-89535713D01*
X168032957Y-89535712D01*
X168032956Y-89535712D01*
X167831747Y-89498100D01*
X167627053Y-89498100D01*
X167482962Y-89525035D01*
X167425839Y-89535713D01*
X167234977Y-89609654D01*
X167234966Y-89609659D01*
X167060936Y-89717414D01*
X166909666Y-89855315D01*
X166786313Y-90018663D01*
X166695071Y-90201901D01*
X166639054Y-90398780D01*
X166620168Y-90602595D01*
X166298632Y-90602595D01*
X166279745Y-90398779D01*
X166223728Y-90201899D01*
X166132488Y-90018665D01*
X166091938Y-89964968D01*
X166009133Y-89855315D01*
X165857863Y-89717414D01*
X165683833Y-89609659D01*
X165683828Y-89609657D01*
X165683827Y-89609656D01*
X165683822Y-89609654D01*
X165492959Y-89535713D01*
X165492960Y-89535713D01*
X165492957Y-89535712D01*
X165492956Y-89535712D01*
X165291747Y-89498100D01*
X165087053Y-89498100D01*
X164942962Y-89525035D01*
X164885839Y-89535713D01*
X164694977Y-89609654D01*
X164694966Y-89609659D01*
X164520936Y-89717414D01*
X164369666Y-89855315D01*
X164246313Y-90018663D01*
X164155071Y-90201901D01*
X164099054Y-90398780D01*
X164080168Y-90602595D01*
X163758632Y-90602595D01*
X163739745Y-90398779D01*
X163683728Y-90201899D01*
X163592488Y-90018665D01*
X163551938Y-89964968D01*
X163469133Y-89855315D01*
X163317863Y-89717414D01*
X163143833Y-89609659D01*
X163143828Y-89609657D01*
X163143827Y-89609656D01*
X163143822Y-89609654D01*
X162952959Y-89535713D01*
X162952960Y-89535713D01*
X162952957Y-89535712D01*
X162952956Y-89535712D01*
X162751747Y-89498100D01*
X162547053Y-89498100D01*
X162402962Y-89525035D01*
X162345839Y-89535713D01*
X162154977Y-89609654D01*
X162154966Y-89609659D01*
X161980936Y-89717414D01*
X161829666Y-89855315D01*
X161706313Y-90018663D01*
X161615071Y-90201901D01*
X161559054Y-90398780D01*
X161540168Y-90602595D01*
X161218632Y-90602595D01*
X161199745Y-90398779D01*
X161143728Y-90201899D01*
X161052488Y-90018665D01*
X161011938Y-89964968D01*
X160929133Y-89855315D01*
X160777863Y-89717414D01*
X160603833Y-89609659D01*
X160603828Y-89609657D01*
X160603827Y-89609656D01*
X160603822Y-89609654D01*
X160412959Y-89535713D01*
X160412960Y-89535713D01*
X160412957Y-89535712D01*
X160412956Y-89535712D01*
X160211747Y-89498100D01*
X160007053Y-89498100D01*
X159862962Y-89525035D01*
X159805839Y-89535713D01*
X159614977Y-89609654D01*
X159614966Y-89609659D01*
X159440936Y-89717414D01*
X159289666Y-89855315D01*
X159166313Y-90018663D01*
X159075071Y-90201901D01*
X159019054Y-90398780D01*
X159000168Y-90602595D01*
X158678632Y-90602595D01*
X158659745Y-90398779D01*
X158603728Y-90201899D01*
X158512488Y-90018665D01*
X158471938Y-89964968D01*
X158389133Y-89855315D01*
X158237863Y-89717414D01*
X158063833Y-89609659D01*
X158063828Y-89609657D01*
X158063827Y-89609656D01*
X158063822Y-89609654D01*
X157872959Y-89535713D01*
X157872960Y-89535713D01*
X157872957Y-89535712D01*
X157872956Y-89535712D01*
X157671747Y-89498100D01*
X157467053Y-89498100D01*
X157322962Y-89525035D01*
X157265839Y-89535713D01*
X157074977Y-89609654D01*
X157074966Y-89609659D01*
X156900936Y-89717414D01*
X156749666Y-89855315D01*
X156626313Y-90018663D01*
X156535071Y-90201901D01*
X156479054Y-90398780D01*
X156460168Y-90602595D01*
X156138632Y-90602595D01*
X156119745Y-90398779D01*
X156063728Y-90201899D01*
X155972488Y-90018665D01*
X155931938Y-89964968D01*
X155849133Y-89855315D01*
X155697863Y-89717414D01*
X155523833Y-89609659D01*
X155523828Y-89609657D01*
X155523827Y-89609656D01*
X155523822Y-89609654D01*
X155332959Y-89535713D01*
X155332960Y-89535713D01*
X155332957Y-89535712D01*
X155332956Y-89535712D01*
X155131747Y-89498100D01*
X154927053Y-89498100D01*
X154782962Y-89525035D01*
X154725839Y-89535713D01*
X154534977Y-89609654D01*
X154534966Y-89609659D01*
X154360936Y-89717414D01*
X154209666Y-89855315D01*
X154086313Y-90018663D01*
X153995071Y-90201901D01*
X153939054Y-90398780D01*
X153920168Y-90602595D01*
X153598632Y-90602595D01*
X153579745Y-90398779D01*
X153523728Y-90201899D01*
X153432488Y-90018665D01*
X153391938Y-89964968D01*
X153309133Y-89855315D01*
X153157863Y-89717414D01*
X152983833Y-89609659D01*
X152983828Y-89609657D01*
X152983827Y-89609656D01*
X152983822Y-89609654D01*
X152792959Y-89535713D01*
X152792960Y-89535713D01*
X152792957Y-89535712D01*
X152792956Y-89535712D01*
X152591747Y-89498100D01*
X152387053Y-89498100D01*
X152242962Y-89525035D01*
X152185839Y-89535713D01*
X151994977Y-89609654D01*
X151994966Y-89609659D01*
X151820936Y-89717414D01*
X151669666Y-89855315D01*
X151546313Y-90018663D01*
X151455071Y-90201901D01*
X151399054Y-90398780D01*
X151380168Y-90602595D01*
X151058632Y-90602595D01*
X151039745Y-90398779D01*
X150983728Y-90201899D01*
X150892488Y-90018665D01*
X150851938Y-89964968D01*
X150769133Y-89855315D01*
X150617863Y-89717414D01*
X150443833Y-89609659D01*
X150443828Y-89609657D01*
X150443827Y-89609656D01*
X150443822Y-89609654D01*
X150252959Y-89535713D01*
X150252960Y-89535713D01*
X150252957Y-89535712D01*
X150252956Y-89535712D01*
X150051747Y-89498100D01*
X149847053Y-89498100D01*
X149702962Y-89525035D01*
X149645839Y-89535713D01*
X149454977Y-89609654D01*
X149454966Y-89609659D01*
X149280936Y-89717414D01*
X149129666Y-89855315D01*
X149006313Y-90018663D01*
X148915071Y-90201901D01*
X148859054Y-90398780D01*
X148840168Y-90602595D01*
X148518632Y-90602595D01*
X148499745Y-90398779D01*
X148443728Y-90201899D01*
X148352488Y-90018665D01*
X148311938Y-89964968D01*
X148229133Y-89855315D01*
X148077863Y-89717414D01*
X147903833Y-89609659D01*
X147903828Y-89609657D01*
X147903827Y-89609656D01*
X147903822Y-89609654D01*
X147712959Y-89535713D01*
X147712960Y-89535713D01*
X147712957Y-89535712D01*
X147712956Y-89535712D01*
X147511747Y-89498100D01*
X147307053Y-89498100D01*
X147162962Y-89525035D01*
X147105839Y-89535713D01*
X146914977Y-89609654D01*
X146914966Y-89609659D01*
X146740936Y-89717414D01*
X146589666Y-89855315D01*
X146466313Y-90018663D01*
X146375071Y-90201901D01*
X146319054Y-90398780D01*
X146300168Y-90602595D01*
X145978632Y-90602595D01*
X145959745Y-90398779D01*
X145903728Y-90201899D01*
X145812488Y-90018665D01*
X145771938Y-89964968D01*
X145689133Y-89855315D01*
X145537863Y-89717414D01*
X145363833Y-89609659D01*
X145363828Y-89609657D01*
X145363827Y-89609656D01*
X145363822Y-89609654D01*
X145172959Y-89535713D01*
X145172960Y-89535713D01*
X145172957Y-89535712D01*
X145172956Y-89535712D01*
X144971747Y-89498100D01*
X144767053Y-89498100D01*
X144622962Y-89525035D01*
X144565839Y-89535713D01*
X144374977Y-89609654D01*
X144374966Y-89609659D01*
X144200936Y-89717414D01*
X144049666Y-89855315D01*
X143926313Y-90018663D01*
X143835071Y-90201901D01*
X143779054Y-90398780D01*
X143760168Y-90602595D01*
X143438632Y-90602595D01*
X143419745Y-90398779D01*
X143363728Y-90201899D01*
X143272488Y-90018665D01*
X143231938Y-89964968D01*
X143149133Y-89855315D01*
X142997863Y-89717414D01*
X142823833Y-89609659D01*
X142823828Y-89609657D01*
X142823827Y-89609656D01*
X142823822Y-89609654D01*
X142632959Y-89535713D01*
X142632960Y-89535713D01*
X142632957Y-89535712D01*
X142632956Y-89535712D01*
X142431747Y-89498100D01*
X142227053Y-89498100D01*
X142082962Y-89525035D01*
X142025839Y-89535713D01*
X141834977Y-89609654D01*
X141834966Y-89609659D01*
X141660936Y-89717414D01*
X141509666Y-89855315D01*
X141386313Y-90018663D01*
X141295071Y-90201901D01*
X141239054Y-90398780D01*
X141220168Y-90602595D01*
X140898632Y-90602595D01*
X140879745Y-90398779D01*
X140823728Y-90201899D01*
X140732488Y-90018665D01*
X140691938Y-89964968D01*
X140609133Y-89855315D01*
X140457863Y-89717414D01*
X140283833Y-89609659D01*
X140283828Y-89609657D01*
X140283827Y-89609656D01*
X140283822Y-89609654D01*
X140092959Y-89535713D01*
X140092960Y-89535713D01*
X140092957Y-89535712D01*
X140092956Y-89535712D01*
X139891747Y-89498100D01*
X139687053Y-89498100D01*
X139542962Y-89525035D01*
X139485839Y-89535713D01*
X139294977Y-89609654D01*
X139294966Y-89609659D01*
X139120936Y-89717414D01*
X138969666Y-89855315D01*
X138846313Y-90018663D01*
X138755071Y-90201901D01*
X138699054Y-90398780D01*
X138680168Y-90602595D01*
X138353899Y-90602595D01*
X138353899Y-89727534D01*
X138353898Y-89727530D01*
X138353898Y-89727526D01*
X138339134Y-89653299D01*
X138282883Y-89569115D01*
X138198702Y-89512866D01*
X138124467Y-89498100D01*
X136374336Y-89498100D01*
X136374326Y-89498101D01*
X136300099Y-89512865D01*
X136215915Y-89569116D01*
X136159666Y-89653297D01*
X136144900Y-89727530D01*
X130040500Y-89727530D01*
X130040500Y-85542595D01*
X136712540Y-85542595D01*
X136712540Y-85542600D01*
X136731933Y-85739509D01*
X136731934Y-85739515D01*
X136731935Y-85739516D01*
X136789373Y-85928865D01*
X136882648Y-86103370D01*
X137008175Y-86256325D01*
X137161130Y-86381852D01*
X137335635Y-86475127D01*
X137524984Y-86532565D01*
X137524988Y-86532565D01*
X137524990Y-86532566D01*
X137721897Y-86551960D01*
X137721900Y-86551960D01*
X137721903Y-86551960D01*
X137918809Y-86532566D01*
X137918810Y-86532565D01*
X137918816Y-86532565D01*
X138108165Y-86475127D01*
X138282670Y-86381852D01*
X138435625Y-86256325D01*
X138561152Y-86103370D01*
X138654427Y-85928865D01*
X138711865Y-85739516D01*
X138716814Y-85689275D01*
X138731260Y-85542600D01*
X138731260Y-85542595D01*
X138711866Y-85345690D01*
X138711865Y-85345688D01*
X138711865Y-85345684D01*
X138654427Y-85156335D01*
X138561152Y-84981830D01*
X138435625Y-84828875D01*
X138282670Y-84703348D01*
X138108165Y-84610073D01*
X137918816Y-84552635D01*
X137918815Y-84552634D01*
X137918809Y-84552633D01*
X137721903Y-84533240D01*
X137721897Y-84533240D01*
X137524990Y-84552633D01*
X137335634Y-84610073D01*
X137161129Y-84703348D01*
X137008175Y-84828875D01*
X136882648Y-84981829D01*
X136789373Y-85156334D01*
X136731933Y-85345690D01*
X136712540Y-85542595D01*
X130040500Y-85542595D01*
X130040500Y-83002597D01*
X137982540Y-83002597D01*
X137982540Y-83002602D01*
X138001933Y-83199509D01*
X138001934Y-83199515D01*
X138001935Y-83199516D01*
X138059373Y-83388865D01*
X138152648Y-83563370D01*
X138278175Y-83716325D01*
X138431130Y-83841852D01*
X138605635Y-83935127D01*
X138794984Y-83992565D01*
X138794988Y-83992565D01*
X138794990Y-83992566D01*
X138991897Y-84011960D01*
X138991900Y-84011960D01*
X138991903Y-84011960D01*
X139188809Y-83992566D01*
X139188810Y-83992565D01*
X139188816Y-83992565D01*
X139378165Y-83935127D01*
X139552670Y-83841852D01*
X139552683Y-83841841D01*
X139557393Y-83838695D01*
X139625145Y-83817477D01*
X139693612Y-83836257D01*
X139741058Y-83889071D01*
X139753400Y-83943457D01*
X139753400Y-84601073D01*
X139733398Y-84669194D01*
X139704914Y-84698201D01*
X139705915Y-84699421D01*
X139548175Y-84828875D01*
X139422648Y-84981829D01*
X139329373Y-85156334D01*
X139271933Y-85345690D01*
X139252540Y-85542595D01*
X139252540Y-85542600D01*
X139271933Y-85739509D01*
X139271934Y-85739515D01*
X139271935Y-85739516D01*
X139329373Y-85928865D01*
X139422648Y-86103370D01*
X139548175Y-86256325D01*
X139701130Y-86381852D01*
X139875635Y-86475127D01*
X140064984Y-86532565D01*
X140064988Y-86532565D01*
X140064990Y-86532566D01*
X140261897Y-86551960D01*
X140261900Y-86551960D01*
X140261903Y-86551960D01*
X140458809Y-86532566D01*
X140458810Y-86532565D01*
X140458816Y-86532565D01*
X140648165Y-86475127D01*
X140822670Y-86381852D01*
X140975625Y-86256325D01*
X141101152Y-86103370D01*
X141194427Y-85928865D01*
X141251865Y-85739516D01*
X141256814Y-85689275D01*
X141271260Y-85542600D01*
X141547125Y-85542600D01*
X141566188Y-85760492D01*
X141622796Y-85971755D01*
X141622798Y-85971761D01*
X141715233Y-86169988D01*
X141758773Y-86232170D01*
X142421900Y-85569044D01*
X142421900Y-85592628D01*
X142447796Y-85689275D01*
X142497824Y-85775925D01*
X142568575Y-85846676D01*
X142655225Y-85896704D01*
X142751872Y-85922600D01*
X142775452Y-85922600D01*
X142112328Y-86585723D01*
X142112328Y-86585724D01*
X142174515Y-86629268D01*
X142372738Y-86721701D01*
X142372744Y-86721703D01*
X142584007Y-86778311D01*
X142801900Y-86797374D01*
X143019792Y-86778311D01*
X143231055Y-86721703D01*
X143231061Y-86721701D01*
X143429287Y-86629267D01*
X143429289Y-86629266D01*
X143491470Y-86585725D01*
X143491470Y-86585724D01*
X142828347Y-85922600D01*
X142851928Y-85922600D01*
X142948575Y-85896704D01*
X143035225Y-85846676D01*
X143105976Y-85775925D01*
X143156004Y-85689275D01*
X143181900Y-85592628D01*
X143181900Y-85569046D01*
X143845024Y-86232170D01*
X143845025Y-86232170D01*
X143888566Y-86169989D01*
X143888567Y-86169987D01*
X143981001Y-85971761D01*
X143981003Y-85971755D01*
X144037611Y-85760492D01*
X144056674Y-85542600D01*
X144037611Y-85324707D01*
X143981003Y-85113444D01*
X143981001Y-85113439D01*
X143888565Y-84915209D01*
X143845025Y-84853028D01*
X143181900Y-85516152D01*
X143181900Y-85492572D01*
X143156004Y-85395925D01*
X143105976Y-85309275D01*
X143035225Y-85238524D01*
X142948575Y-85188496D01*
X142851928Y-85162600D01*
X142828346Y-85162600D01*
X143491470Y-84499473D01*
X143429288Y-84455933D01*
X143231061Y-84363498D01*
X143231055Y-84363496D01*
X143019792Y-84306888D01*
X142801900Y-84287825D01*
X142584007Y-84306888D01*
X142372744Y-84363496D01*
X142372739Y-84363498D01*
X142174511Y-84455934D01*
X142112327Y-84499474D01*
X142775453Y-85162600D01*
X142751872Y-85162600D01*
X142655225Y-85188496D01*
X142568575Y-85238524D01*
X142497824Y-85309275D01*
X142447796Y-85395925D01*
X142421900Y-85492572D01*
X142421900Y-85516153D01*
X141758774Y-84853027D01*
X141715234Y-84915211D01*
X141622798Y-85113439D01*
X141622796Y-85113444D01*
X141566188Y-85324707D01*
X141547125Y-85542600D01*
X141271260Y-85542600D01*
X141271260Y-85542595D01*
X141251866Y-85345690D01*
X141251865Y-85345688D01*
X141251865Y-85345684D01*
X141194427Y-85156335D01*
X141101152Y-84981830D01*
X140975625Y-84828875D01*
X140822670Y-84703348D01*
X140817885Y-84699421D01*
X140819439Y-84697527D01*
X140780849Y-84651313D01*
X140770400Y-84601073D01*
X140770400Y-83943457D01*
X140790402Y-83875336D01*
X140844058Y-83828843D01*
X140914332Y-83818739D01*
X140966407Y-83838695D01*
X140971121Y-83841844D01*
X140971130Y-83841852D01*
X141145635Y-83935127D01*
X141334984Y-83992565D01*
X141334988Y-83992565D01*
X141334990Y-83992566D01*
X141531897Y-84011960D01*
X141531900Y-84011960D01*
X141531903Y-84011960D01*
X141728809Y-83992566D01*
X141728810Y-83992565D01*
X141728816Y-83992565D01*
X141918165Y-83935127D01*
X142092670Y-83841852D01*
X142245625Y-83716325D01*
X142371152Y-83563370D01*
X142464427Y-83388865D01*
X142521865Y-83199516D01*
X142541260Y-83002600D01*
X142541260Y-83002597D01*
X142521866Y-82805690D01*
X142521865Y-82805688D01*
X142521865Y-82805684D01*
X142464427Y-82616335D01*
X142371152Y-82441830D01*
X142245625Y-82288875D01*
X142092670Y-82163348D01*
X142087885Y-82159421D01*
X142089439Y-82157527D01*
X142050849Y-82111313D01*
X142040400Y-82061073D01*
X142040400Y-80284254D01*
X142060402Y-80216133D01*
X142077300Y-80195164D01*
X145816305Y-76456158D01*
X145878617Y-76422133D01*
X145949432Y-76427198D01*
X146006268Y-76469745D01*
X146031079Y-76536265D01*
X146031400Y-76545254D01*
X146031400Y-76773890D01*
X146063060Y-77014382D01*
X146125844Y-77248695D01*
X146125845Y-77248697D01*
X146125846Y-77248700D01*
X146218676Y-77472812D01*
X146218677Y-77472813D01*
X146218682Y-77472824D01*
X146339961Y-77682885D01*
X146339963Y-77682888D01*
X146339964Y-77682889D01*
X146487635Y-77875338D01*
X146487639Y-77875342D01*
X146487644Y-77875348D01*
X146659151Y-78046855D01*
X146659156Y-78046859D01*
X146659162Y-78046865D01*
X146838059Y-78184137D01*
X146851614Y-78194538D01*
X147061675Y-78315817D01*
X147061679Y-78315818D01*
X147061688Y-78315824D01*
X147285800Y-78408654D01*
X147520111Y-78471438D01*
X147520117Y-78471438D01*
X147520118Y-78471439D01*
X147533799Y-78473240D01*
X147704937Y-78495770D01*
X147769861Y-78524491D01*
X147808954Y-78583755D01*
X147809799Y-78654747D01*
X147777584Y-78709786D01*
X144935004Y-81552366D01*
X144934996Y-81552376D01*
X144902300Y-81609009D01*
X144868055Y-81668321D01*
X144868054Y-81668324D01*
X144868053Y-81668326D01*
X144835562Y-81789588D01*
X144833400Y-81797656D01*
X144833400Y-82061742D01*
X144813398Y-82129863D01*
X144759742Y-82176356D01*
X144689468Y-82186460D01*
X144637400Y-82166508D01*
X144632673Y-82163349D01*
X144458165Y-82070073D01*
X144268809Y-82012633D01*
X144071903Y-81993240D01*
X144071897Y-81993240D01*
X143874990Y-82012633D01*
X143685634Y-82070073D01*
X143511129Y-82163348D01*
X143358175Y-82288875D01*
X143232648Y-82441829D01*
X143139373Y-82616334D01*
X143081933Y-82805690D01*
X143062540Y-83002597D01*
X143062540Y-83002602D01*
X143081933Y-83199509D01*
X143081934Y-83199515D01*
X143081935Y-83199516D01*
X143139373Y-83388865D01*
X143232648Y-83563370D01*
X143358175Y-83716325D01*
X143511130Y-83841852D01*
X143685635Y-83935127D01*
X143874984Y-83992565D01*
X143874988Y-83992565D01*
X143874990Y-83992566D01*
X144071897Y-84011960D01*
X144071900Y-84011960D01*
X144071903Y-84011960D01*
X144268809Y-83992566D01*
X144268810Y-83992565D01*
X144268816Y-83992565D01*
X144458165Y-83935127D01*
X144632670Y-83841852D01*
X144632683Y-83841841D01*
X144637393Y-83838695D01*
X144705145Y-83817477D01*
X144773612Y-83836257D01*
X144821058Y-83889071D01*
X144833400Y-83943457D01*
X144833400Y-84601073D01*
X144813398Y-84669194D01*
X144784914Y-84698201D01*
X144785915Y-84699421D01*
X144628175Y-84828875D01*
X144502648Y-84981829D01*
X144409373Y-85156334D01*
X144351933Y-85345690D01*
X144332540Y-85542595D01*
X144332540Y-85542600D01*
X144351933Y-85739509D01*
X144351934Y-85739515D01*
X144351935Y-85739516D01*
X144409373Y-85928865D01*
X144502648Y-86103370D01*
X144628175Y-86256325D01*
X144781130Y-86381852D01*
X144955635Y-86475127D01*
X145144984Y-86532565D01*
X145144988Y-86532565D01*
X145144990Y-86532566D01*
X145341897Y-86551960D01*
X145341900Y-86551960D01*
X145341903Y-86551960D01*
X145538809Y-86532566D01*
X145538810Y-86532565D01*
X145538816Y-86532565D01*
X145728165Y-86475127D01*
X145902670Y-86381852D01*
X146055625Y-86256325D01*
X146181152Y-86103370D01*
X146274427Y-85928865D01*
X146331865Y-85739516D01*
X146336814Y-85689275D01*
X146351260Y-85542600D01*
X146351260Y-85542595D01*
X146331866Y-85345690D01*
X146331865Y-85345688D01*
X146331865Y-85345684D01*
X146274427Y-85156335D01*
X146181152Y-84981830D01*
X146055625Y-84828875D01*
X145902670Y-84703348D01*
X145897885Y-84699421D01*
X145899439Y-84697527D01*
X145860849Y-84651313D01*
X145850400Y-84601073D01*
X145850400Y-84133099D01*
X145870402Y-84064978D01*
X145924058Y-84018485D01*
X145976400Y-84007099D01*
X147386964Y-84007099D01*
X147386966Y-84007099D01*
X147386969Y-84007098D01*
X147386972Y-84007098D01*
X147450758Y-83994411D01*
X147461201Y-83992334D01*
X147545384Y-83936084D01*
X147601634Y-83851901D01*
X147616400Y-83777667D01*
X147616399Y-82784916D01*
X147636401Y-82716796D01*
X147653299Y-82695827D01*
X150123123Y-80226005D01*
X150185435Y-80191979D01*
X150212218Y-80189100D01*
X164688985Y-80189100D01*
X164737202Y-80198690D01*
X164790646Y-80220828D01*
X164935400Y-80239885D01*
X165080154Y-80220828D01*
X165133597Y-80198690D01*
X165181815Y-80189100D01*
X182554884Y-80189100D01*
X182587288Y-80195548D01*
X182587829Y-80193532D01*
X182595801Y-80195667D01*
X182595805Y-80195669D01*
X182740559Y-80214726D01*
X182885313Y-80195669D01*
X183020202Y-80139796D01*
X183136033Y-80050915D01*
X183224914Y-79935084D01*
X183280787Y-79800195D01*
X183299844Y-79655441D01*
X183297233Y-79635612D01*
X183280787Y-79510688D01*
X183261450Y-79464005D01*
X183224914Y-79375799D01*
X183136033Y-79259967D01*
X183136031Y-79259965D01*
X183136030Y-79259964D01*
X183020208Y-79171090D01*
X183020200Y-79171085D01*
X182885311Y-79115212D01*
X182740559Y-79096156D01*
X182595806Y-79115212D01*
X182540362Y-79138178D01*
X182481622Y-79162509D01*
X182433406Y-79172100D01*
X181606987Y-79172100D01*
X181538866Y-79152098D01*
X181492373Y-79098442D01*
X181482065Y-79029654D01*
X181496685Y-78918600D01*
X181496685Y-78918599D01*
X181477628Y-78773847D01*
X181477628Y-78773846D01*
X181421755Y-78638958D01*
X181332874Y-78523126D01*
X181332872Y-78523124D01*
X181332871Y-78523123D01*
X181217049Y-78434249D01*
X181217041Y-78434244D01*
X181082152Y-78378371D01*
X180937400Y-78359315D01*
X180792646Y-78378371D01*
X180792645Y-78378372D01*
X180739203Y-78400509D01*
X180690985Y-78410100D01*
X175672445Y-78410100D01*
X175604324Y-78390098D01*
X175557831Y-78336442D01*
X175547727Y-78266168D01*
X175577221Y-78201588D01*
X175595741Y-78184137D01*
X175774638Y-78046865D01*
X175946165Y-77875338D01*
X176093836Y-77682889D01*
X176215124Y-77472812D01*
X176307954Y-77248700D01*
X176370738Y-77014389D01*
X176402400Y-76773888D01*
X176402400Y-76531312D01*
X176402400Y-76531309D01*
X184131400Y-76531309D01*
X184131400Y-76773890D01*
X184163060Y-77014382D01*
X184225844Y-77248695D01*
X184225845Y-77248697D01*
X184225846Y-77248700D01*
X184318676Y-77472812D01*
X184318677Y-77472813D01*
X184318682Y-77472824D01*
X184439961Y-77682885D01*
X184439963Y-77682888D01*
X184439964Y-77682889D01*
X184587635Y-77875338D01*
X184587639Y-77875342D01*
X184587644Y-77875348D01*
X184759151Y-78046855D01*
X184759156Y-78046859D01*
X184759162Y-78046865D01*
X184938059Y-78184137D01*
X184951614Y-78194538D01*
X185161675Y-78315817D01*
X185161679Y-78315818D01*
X185161688Y-78315824D01*
X185385800Y-78408654D01*
X185620111Y-78471438D01*
X185620115Y-78471438D01*
X185620117Y-78471439D01*
X185682102Y-78479599D01*
X185860612Y-78503100D01*
X185860619Y-78503100D01*
X186103181Y-78503100D01*
X186103188Y-78503100D01*
X186320537Y-78474485D01*
X186343682Y-78471439D01*
X186343682Y-78471438D01*
X186343689Y-78471438D01*
X186578000Y-78408654D01*
X186802112Y-78315824D01*
X187012189Y-78194536D01*
X187204638Y-78046865D01*
X187376165Y-77875338D01*
X187523836Y-77682889D01*
X187645124Y-77472812D01*
X187737954Y-77248700D01*
X187800738Y-77014389D01*
X187832400Y-76773888D01*
X187832400Y-76531312D01*
X187800738Y-76290811D01*
X187737954Y-76056500D01*
X187645124Y-75832388D01*
X187645118Y-75832379D01*
X187645117Y-75832375D01*
X187523838Y-75622314D01*
X187523836Y-75622311D01*
X187376165Y-75429862D01*
X187376159Y-75429856D01*
X187376155Y-75429851D01*
X187204648Y-75258344D01*
X187204642Y-75258339D01*
X187204638Y-75258335D01*
X187012189Y-75110664D01*
X187012188Y-75110663D01*
X187012185Y-75110661D01*
X186802124Y-74989382D01*
X186802116Y-74989378D01*
X186802112Y-74989376D01*
X186578000Y-74896546D01*
X186577997Y-74896545D01*
X186577995Y-74896544D01*
X186343682Y-74833760D01*
X186103190Y-74802100D01*
X186103188Y-74802100D01*
X185860612Y-74802100D01*
X185860609Y-74802100D01*
X185620117Y-74833760D01*
X185385804Y-74896544D01*
X185385800Y-74896546D01*
X185161686Y-74989377D01*
X185161675Y-74989382D01*
X184951614Y-75110661D01*
X184759162Y-75258335D01*
X184759151Y-75258344D01*
X184587644Y-75429851D01*
X184587635Y-75429862D01*
X184439961Y-75622314D01*
X184318682Y-75832375D01*
X184318677Y-75832386D01*
X184225846Y-76056500D01*
X184225844Y-76056504D01*
X184163060Y-76290817D01*
X184131400Y-76531309D01*
X176402400Y-76531309D01*
X176370738Y-76290811D01*
X176307954Y-76056500D01*
X176215124Y-75832388D01*
X176215118Y-75832379D01*
X176215117Y-75832375D01*
X176093838Y-75622314D01*
X176093836Y-75622311D01*
X175946165Y-75429862D01*
X175946159Y-75429856D01*
X175946155Y-75429851D01*
X175774648Y-75258344D01*
X175774642Y-75258339D01*
X175774638Y-75258335D01*
X175582189Y-75110664D01*
X175582188Y-75110663D01*
X175582185Y-75110661D01*
X175532921Y-75082219D01*
X175483928Y-75030837D01*
X175470492Y-74961123D01*
X175496878Y-74895212D01*
X175554710Y-74854030D01*
X175595921Y-74847100D01*
X177115671Y-74847100D01*
X177163888Y-74856690D01*
X177236646Y-74886828D01*
X177381400Y-74905885D01*
X177526154Y-74886828D01*
X177661043Y-74830955D01*
X177776874Y-74742074D01*
X177865755Y-74626243D01*
X177921628Y-74491354D01*
X177940685Y-74346600D01*
X177921628Y-74201846D01*
X177865755Y-74066958D01*
X177776874Y-73951126D01*
X177776872Y-73951124D01*
X177776871Y-73951123D01*
X177661049Y-73862249D01*
X177661041Y-73862244D01*
X177526152Y-73806371D01*
X177381400Y-73787315D01*
X177236647Y-73806371D01*
X177202517Y-73820509D01*
X177154299Y-73830100D01*
X175631040Y-73830100D01*
X175562919Y-73810098D01*
X175516426Y-73756442D01*
X175506118Y-73687654D01*
X175519685Y-73584600D01*
X175519685Y-73584599D01*
X175500628Y-73439847D01*
X175500628Y-73439846D01*
X175444755Y-73304958D01*
X175355874Y-73189126D01*
X175355872Y-73189124D01*
X175355871Y-73189123D01*
X175240049Y-73100249D01*
X175240041Y-73100244D01*
X175105152Y-73044371D01*
X174960400Y-73025315D01*
X174815646Y-73044371D01*
X174815645Y-73044372D01*
X174762203Y-73066509D01*
X174713985Y-73076100D01*
X169182121Y-73076100D01*
X169114000Y-73056098D01*
X169067507Y-73002442D01*
X169057403Y-72932168D01*
X169086897Y-72867588D01*
X169138087Y-72832045D01*
X169373161Y-72744367D01*
X169403144Y-72727994D01*
X169624307Y-72607231D01*
X169624309Y-72607229D01*
X169624315Y-72607226D01*
X169853395Y-72435739D01*
X170055739Y-72233395D01*
X170227226Y-72004315D01*
X170227229Y-72004309D01*
X170227231Y-72004307D01*
X170364362Y-71753170D01*
X170364367Y-71753161D01*
X170464369Y-71485046D01*
X170525196Y-71205428D01*
X170545610Y-70920000D01*
X170525196Y-70634572D01*
X170464369Y-70354954D01*
X170364367Y-70086839D01*
X170315083Y-69996582D01*
X170227231Y-69835692D01*
X170227227Y-69835687D01*
X170227226Y-69835685D01*
X170055739Y-69606605D01*
X170055737Y-69606603D01*
X170055729Y-69606594D01*
X169853405Y-69404270D01*
X169853396Y-69404262D01*
X169624312Y-69232772D01*
X169624307Y-69232768D01*
X169373170Y-69095637D01*
X169373160Y-69095632D01*
X169105046Y-68995631D01*
X168825424Y-68934803D01*
X168540000Y-68914390D01*
X168254575Y-68934803D01*
X167974953Y-68995631D01*
X167706839Y-69095632D01*
X167706829Y-69095637D01*
X167455692Y-69232768D01*
X167455687Y-69232772D01*
X167226603Y-69404262D01*
X167226594Y-69404270D01*
X167024270Y-69606594D01*
X167024262Y-69606603D01*
X166852772Y-69835687D01*
X166852768Y-69835692D01*
X166715637Y-70086829D01*
X166715632Y-70086839D01*
X166615631Y-70354953D01*
X166554803Y-70634575D01*
X166534390Y-70920000D01*
X166554803Y-71205424D01*
X166615631Y-71485046D01*
X166715632Y-71753160D01*
X166715637Y-71753170D01*
X166852768Y-72004307D01*
X166852772Y-72004312D01*
X167024262Y-72233396D01*
X167024270Y-72233405D01*
X167226594Y-72435729D01*
X167226603Y-72435737D01*
X167226605Y-72435739D01*
X167455685Y-72607226D01*
X167455687Y-72607227D01*
X167455692Y-72607231D01*
X167706829Y-72744362D01*
X167706839Y-72744367D01*
X167941912Y-72832045D01*
X167998747Y-72874591D01*
X168023558Y-72941111D01*
X168008467Y-73010485D01*
X167958264Y-73060688D01*
X167897879Y-73076100D01*
X164673815Y-73076100D01*
X164625597Y-73066509D01*
X164572152Y-73044371D01*
X164427400Y-73025315D01*
X164282646Y-73044371D01*
X164282645Y-73044372D01*
X164229203Y-73066509D01*
X164180985Y-73076100D01*
X146072455Y-73076100D01*
X145943126Y-73110753D01*
X145943124Y-73110754D01*
X145943121Y-73110755D01*
X145827176Y-73177696D01*
X145827166Y-73177704D01*
X139855004Y-79149866D01*
X139854998Y-79149873D01*
X139808260Y-79230827D01*
X139788054Y-79265823D01*
X139788053Y-79265824D01*
X139788053Y-79265826D01*
X139753400Y-79395155D01*
X139753400Y-79395156D01*
X139753400Y-82061742D01*
X139733398Y-82129863D01*
X139679742Y-82176356D01*
X139609468Y-82186460D01*
X139557400Y-82166508D01*
X139552673Y-82163349D01*
X139378165Y-82070073D01*
X139188809Y-82012633D01*
X138991903Y-81993240D01*
X138991897Y-81993240D01*
X138794990Y-82012633D01*
X138605634Y-82070073D01*
X138431129Y-82163348D01*
X138278175Y-82288875D01*
X138152648Y-82441829D01*
X138059373Y-82616334D01*
X138001933Y-82805690D01*
X137982540Y-83002597D01*
X130040500Y-83002597D01*
X130040500Y-76531309D01*
X134601400Y-76531309D01*
X134601400Y-76773890D01*
X134633060Y-77014382D01*
X134695844Y-77248695D01*
X134695845Y-77248697D01*
X134695846Y-77248700D01*
X134788676Y-77472812D01*
X134788677Y-77472813D01*
X134788682Y-77472824D01*
X134909961Y-77682885D01*
X134909963Y-77682888D01*
X134909964Y-77682889D01*
X135057635Y-77875338D01*
X135057639Y-77875342D01*
X135057644Y-77875348D01*
X135229151Y-78046855D01*
X135229156Y-78046859D01*
X135229162Y-78046865D01*
X135408059Y-78184137D01*
X135421614Y-78194538D01*
X135631675Y-78315817D01*
X135631679Y-78315818D01*
X135631688Y-78315824D01*
X135855800Y-78408654D01*
X136090111Y-78471438D01*
X136090115Y-78471438D01*
X136090117Y-78471439D01*
X136152102Y-78479599D01*
X136330612Y-78503100D01*
X136330619Y-78503100D01*
X136573181Y-78503100D01*
X136573188Y-78503100D01*
X136790537Y-78474485D01*
X136813682Y-78471439D01*
X136813682Y-78471438D01*
X136813689Y-78471438D01*
X137048000Y-78408654D01*
X137272112Y-78315824D01*
X137482189Y-78194536D01*
X137674638Y-78046865D01*
X137846165Y-77875338D01*
X137993836Y-77682889D01*
X138115124Y-77472812D01*
X138207954Y-77248700D01*
X138270738Y-77014389D01*
X138302400Y-76773888D01*
X138302400Y-76531312D01*
X138270738Y-76290811D01*
X138207954Y-76056500D01*
X138115124Y-75832388D01*
X138115118Y-75832379D01*
X138115117Y-75832375D01*
X137993838Y-75622314D01*
X137993836Y-75622311D01*
X137846165Y-75429862D01*
X137846159Y-75429856D01*
X137846155Y-75429851D01*
X137674648Y-75258344D01*
X137674642Y-75258339D01*
X137674638Y-75258335D01*
X137482189Y-75110664D01*
X137482188Y-75110663D01*
X137482185Y-75110661D01*
X137272124Y-74989382D01*
X137272116Y-74989378D01*
X137272112Y-74989376D01*
X137048000Y-74896546D01*
X137047997Y-74896545D01*
X137047995Y-74896544D01*
X136813682Y-74833760D01*
X136573190Y-74802100D01*
X136573188Y-74802100D01*
X136330612Y-74802100D01*
X136330609Y-74802100D01*
X136090117Y-74833760D01*
X135855804Y-74896544D01*
X135855800Y-74896546D01*
X135631686Y-74989377D01*
X135631675Y-74989382D01*
X135421614Y-75110661D01*
X135229162Y-75258335D01*
X135229151Y-75258344D01*
X135057644Y-75429851D01*
X135057635Y-75429862D01*
X134909961Y-75622314D01*
X134788682Y-75832375D01*
X134788677Y-75832386D01*
X134695846Y-76056500D01*
X134695844Y-76056504D01*
X134633060Y-76290817D01*
X134601400Y-76531309D01*
X130040500Y-76531309D01*
X130040500Y-68546500D01*
X130060502Y-68478379D01*
X130114158Y-68431886D01*
X130166500Y-68420500D01*
X188913500Y-68420500D01*
X188981621Y-68440502D01*
G37*
%TD.AperFunction*%
%TD*%
M02*
