%TF.GenerationSoftware,KiCad,Pcbnew,8.0.4*%
%TF.CreationDate,2024-08-14T00:22:54+01:00*%
%TF.ProjectId,PicoChain,5069636f-4368-4616-996e-2e6b69636164,rev?*%
%TF.SameCoordinates,Original*%
%TF.FileFunction,Copper,L1,Top*%
%TF.FilePolarity,Positive*%
%FSLAX46Y46*%
G04 Gerber Fmt 4.6, Leading zero omitted, Abs format (unit mm)*
G04 Created by KiCad (PCBNEW 8.0.4) date 2024-08-14 00:22:54*
%MOMM*%
%LPD*%
G01*
G04 APERTURE LIST*
%TA.AperFunction,ComponentPad*%
%ADD10R,1.508000X1.508000*%
%TD*%
%TA.AperFunction,ComponentPad*%
%ADD11C,1.500000*%
%TD*%
%TA.AperFunction,ComponentPad*%
%ADD12R,1.500000X1.500000*%
%TD*%
%TA.AperFunction,ComponentPad*%
%ADD13O,1.700000X1.700000*%
%TD*%
%TA.AperFunction,ComponentPad*%
%ADD14R,1.700000X1.700000*%
%TD*%
%TA.AperFunction,SMDPad,CuDef*%
%ADD15R,0.250000X1.100000*%
%TD*%
%TA.AperFunction,ViaPad*%
%ADD16C,0.600000*%
%TD*%
%TA.AperFunction,Conductor*%
%ADD17C,0.254000*%
%TD*%
%TA.AperFunction,Conductor*%
%ADD18C,0.508000*%
%TD*%
%TA.AperFunction,Conductor*%
%ADD19C,0.762000*%
%TD*%
G04 APERTURE END LIST*
D10*
%TO.P,U2,VSYS,VSYS*%
%TO.N,Net-(J6-Pin_2)*%
X182969400Y-113462600D03*
%TO.P,U2,VBUS,VBUS*%
%TO.N,+5V*%
X185509400Y-113462600D03*
%TO.P,U2,RUN,RUN*%
%TO.N,Net-(J6-Pin_11)*%
X160109400Y-113462600D03*
%TO.P,U2,GP28_A2,GP28_A2*%
%TO.N,Net-(J6-Pin_7)*%
X170269400Y-113462600D03*
%TO.P,U2,GP27_A1,GP27_A1*%
%TO.N,Net-(J6-Pin_9)*%
X165189400Y-113462600D03*
%TO.P,U2,GP26_A0,GP26_A0*%
%TO.N,Net-(J6-Pin_10)*%
X162649400Y-113462600D03*
%TO.P,U2,GP22,GP22*%
%TO.N,Net-(J6-Pin_12)*%
X157569400Y-113462600D03*
%TO.P,U2,GP21,GP21*%
%TO.N,Net-(J6-Pin_14)*%
X152489400Y-113462600D03*
%TO.P,U2,GP20,GP20*%
%TO.N,Net-(J6-Pin_15)*%
X149949400Y-113462600D03*
%TO.P,U2,GP19,GP19*%
%TO.N,Net-(J6-Pin_16)*%
X147409400Y-113462600D03*
%TO.P,U2,GP18,GP18*%
%TO.N,Net-(J6-Pin_17)*%
X144869400Y-113462600D03*
%TO.P,U2,GP17,GP17*%
%TO.N,Net-(J6-Pin_19)*%
X139789400Y-113462600D03*
%TO.P,U2,GP16,GP16*%
%TO.N,Net-(J6-Pin_20)*%
X137249400Y-113462600D03*
%TO.P,U2,GP15,GP15*%
%TO.N,Net-(J5-Pin_1)*%
X137249400Y-95682600D03*
%TO.P,U2,GP14,GP14*%
%TO.N,Net-(J5-Pin_2)*%
X139789400Y-95682600D03*
%TO.P,U2,GP13,GP13*%
%TO.N,Net-(J5-Pin_4)*%
X144869400Y-95682600D03*
%TO.P,U2,GP12,GP12*%
%TO.N,Net-(J5-Pin_5)*%
X147409400Y-95682600D03*
%TO.P,U2,GP11,GP11*%
%TO.N,Net-(J5-Pin_6)*%
X149949400Y-95682600D03*
%TO.P,U2,GP10,GP10*%
%TO.N,Net-(J5-Pin_7)*%
X152489400Y-95682600D03*
%TO.P,U2,GP9,GP9*%
%TO.N,Net-(J5-Pin_9)*%
X157569400Y-95682600D03*
%TO.P,U2,GP8,GP8*%
%TO.N,Net-(J5-Pin_10)*%
X160109400Y-95682600D03*
%TO.P,U2,GP7,GP7*%
%TO.N,Net-(J5-Pin_11)*%
X162649400Y-95682600D03*
%TO.P,U2,GP6,GP6*%
%TO.N,Net-(J5-Pin_12)*%
X165189400Y-95682600D03*
%TO.P,U2,GP5,GP5*%
%TO.N,Net-(J5-Pin_14)*%
X170269400Y-95682600D03*
%TO.P,U2,GP4,GP4*%
%TO.N,Net-(J5-Pin_15)*%
X172809400Y-95682600D03*
%TO.P,U2,GP3,GP3*%
%TO.N,Net-(J5-Pin_16)*%
X175349400Y-95682600D03*
%TO.P,U2,GP2,GP2*%
%TO.N,Net-(J5-Pin_17)*%
X177889400Y-95682600D03*
%TO.P,U2,GP1,GP1*%
%TO.N,Net-(J5-Pin_19)*%
X182969400Y-95682600D03*
%TO.P,U2,GP0,GP0*%
%TO.N,Net-(J5-Pin_20)*%
X185509400Y-95682600D03*
%TO.P,U2,GND7,GND7*%
%TO.N,Net-(J5-Pin_3)*%
X142329400Y-95682600D03*
%TO.P,U2,GND6,GND6*%
%TO.N,Net-(J5-Pin_8)*%
X155029400Y-95682600D03*
%TO.P,U2,GND5,GND5*%
%TO.N,Net-(J5-Pin_13)*%
X167729400Y-95682600D03*
%TO.P,U2,GND4,GND4*%
%TO.N,Net-(J5-Pin_18)*%
X180429400Y-95682600D03*
%TO.P,U2,GND3,GND3*%
%TO.N,Net-(J6-Pin_18)*%
X142329400Y-113462600D03*
%TO.P,U2,GND2,GND2*%
%TO.N,Net-(J6-Pin_13)*%
X155029400Y-113462600D03*
%TO.P,U2,GND,GND*%
%TO.N,GND*%
X180429400Y-113462600D03*
%TO.P,U2,AGND,AGND*%
%TO.N,Net-(J6-Pin_8)*%
X167729400Y-113462600D03*
%TO.P,U2,ADC_VREF,ADC_VREF*%
%TO.N,Net-(J6-Pin_6)*%
X172809400Y-113462600D03*
%TO.P,U2,3V3_EN,3V3_EN*%
%TO.N,Net-(J6-Pin_4)*%
X177889400Y-113462600D03*
%TO.P,U2,3V3,3V3*%
%TO.N,Net-(J6-Pin_5)*%
X175349400Y-113462600D03*
%TD*%
D11*
%TO.P,J2,8*%
%TO.N,+12V*%
X137721900Y-85542600D03*
%TO.P,J2,7*%
%TO.N,/+5V(M)*%
X138991900Y-83002600D03*
%TO.P,J2,6*%
%TO.N,Net-(U1-DSDAM)*%
X140261900Y-85542600D03*
%TO.P,J2,5*%
%TO.N,Net-(U1-DSDAP)*%
X141531900Y-83002600D03*
%TO.P,J2,4*%
%TO.N,GND*%
X142801900Y-85542600D03*
%TO.P,J2,3*%
%TO.N,+5V*%
X144071900Y-83002600D03*
%TO.P,J2,2*%
%TO.N,Net-(U1-DSCLP)*%
X145341900Y-85542600D03*
D12*
%TO.P,J2,1*%
%TO.N,Net-(U1-DSCLM)*%
X146611900Y-83002600D03*
%TD*%
D13*
%TO.P,GND,2,Pin_2*%
%TO.N,GND*%
X132169400Y-110922600D03*
D14*
%TO.P,GND,1,Pin_1*%
%TO.N,/+5V(M)*%
X132169400Y-108382600D03*
%TD*%
D13*
%TO.P,GND,2,Pin_2*%
%TO.N,GND*%
X132169400Y-99492600D03*
D14*
%TO.P,GND,1,Pin_1*%
%TO.N,+12V*%
X132169400Y-96952600D03*
%TD*%
D13*
%TO.P,J6,20,Pin_20*%
%TO.N,Net-(J6-Pin_20)*%
X137249400Y-118542600D03*
%TO.P,J6,19,Pin_19*%
%TO.N,Net-(J6-Pin_19)*%
X139789400Y-118542600D03*
%TO.P,J6,18,Pin_18*%
%TO.N,Net-(J6-Pin_18)*%
X142329400Y-118542600D03*
%TO.P,J6,17,Pin_17*%
%TO.N,Net-(J6-Pin_17)*%
X144869400Y-118542600D03*
%TO.P,J6,16,Pin_16*%
%TO.N,Net-(J6-Pin_16)*%
X147409400Y-118542600D03*
%TO.P,J6,15,Pin_15*%
%TO.N,Net-(J6-Pin_15)*%
X149949400Y-118542600D03*
%TO.P,J6,14,Pin_14*%
%TO.N,Net-(J6-Pin_14)*%
X152489400Y-118542600D03*
%TO.P,J6,13,Pin_13*%
%TO.N,Net-(J6-Pin_13)*%
X155029400Y-118542600D03*
%TO.P,J6,12,Pin_12*%
%TO.N,Net-(J6-Pin_12)*%
X157569400Y-118542600D03*
%TO.P,J6,11,Pin_11*%
%TO.N,Net-(J6-Pin_11)*%
X160109400Y-118542600D03*
%TO.P,J6,10,Pin_10*%
%TO.N,Net-(J6-Pin_10)*%
X162649400Y-118542600D03*
%TO.P,J6,9,Pin_9*%
%TO.N,Net-(J6-Pin_9)*%
X165189400Y-118542600D03*
%TO.P,J6,8,Pin_8*%
%TO.N,Net-(J6-Pin_8)*%
X167729400Y-118542600D03*
%TO.P,J6,7,Pin_7*%
%TO.N,Net-(J6-Pin_7)*%
X170269400Y-118542600D03*
%TO.P,J6,6,Pin_6*%
%TO.N,Net-(J6-Pin_6)*%
X172809400Y-118542600D03*
%TO.P,J6,5,Pin_5*%
%TO.N,Net-(J6-Pin_5)*%
X175349400Y-118542600D03*
%TO.P,J6,4,Pin_4*%
%TO.N,Net-(J6-Pin_4)*%
X177889400Y-118542600D03*
%TO.P,J6,3,Pin_3*%
%TO.N,GND*%
X180429400Y-118542600D03*
%TO.P,J6,2,Pin_2*%
%TO.N,Net-(J6-Pin_2)*%
X182969400Y-118542600D03*
D14*
%TO.P,J6,1,Pin_1*%
%TO.N,+5V*%
X185509400Y-118542600D03*
%TD*%
D11*
%TO.P,J1,8*%
%TO.N,+12V*%
X175821900Y-85542600D03*
%TO.P,J1,7*%
%TO.N,/+5V(M)*%
X177091900Y-83002600D03*
%TO.P,J1,6*%
%TO.N,Net-(U1-DSDAM)*%
X178361900Y-85542600D03*
%TO.P,J1,5*%
%TO.N,Net-(U1-DSDAP)*%
X179631900Y-83002600D03*
%TO.P,J1,4*%
%TO.N,GND*%
X180901900Y-85542600D03*
%TO.P,J1,3*%
%TO.N,+5V*%
X182171900Y-83002600D03*
%TO.P,J1,2*%
%TO.N,Net-(U1-DSCLP)*%
X183441900Y-85542600D03*
D12*
%TO.P,J1,1*%
%TO.N,Net-(U1-DSCLM)*%
X184711900Y-83002600D03*
%TD*%
D13*
%TO.P,J5,20,Pin_20*%
%TO.N,Net-(J5-Pin_20)*%
X185509400Y-90602600D03*
%TO.P,J5,19,Pin_19*%
%TO.N,Net-(J5-Pin_19)*%
X182969400Y-90602600D03*
%TO.P,J5,18,Pin_18*%
%TO.N,Net-(J5-Pin_18)*%
X180429400Y-90602600D03*
%TO.P,J5,17,Pin_17*%
%TO.N,Net-(J5-Pin_17)*%
X177889400Y-90602600D03*
%TO.P,J5,16,Pin_16*%
%TO.N,Net-(J5-Pin_16)*%
X175349400Y-90602600D03*
%TO.P,J5,15,Pin_15*%
%TO.N,Net-(J5-Pin_15)*%
X172809400Y-90602600D03*
%TO.P,J5,14,Pin_14*%
%TO.N,Net-(J5-Pin_14)*%
X170269400Y-90602600D03*
%TO.P,J5,13,Pin_13*%
%TO.N,Net-(J5-Pin_13)*%
X167729400Y-90602600D03*
%TO.P,J5,12,Pin_12*%
%TO.N,Net-(J5-Pin_12)*%
X165189400Y-90602600D03*
%TO.P,J5,11,Pin_11*%
%TO.N,Net-(J5-Pin_11)*%
X162649400Y-90602600D03*
%TO.P,J5,10,Pin_10*%
%TO.N,Net-(J5-Pin_10)*%
X160109400Y-90602600D03*
%TO.P,J5,9,Pin_9*%
%TO.N,Net-(J5-Pin_9)*%
X157569400Y-90602600D03*
%TO.P,J5,8,Pin_8*%
%TO.N,Net-(J5-Pin_8)*%
X155029400Y-90602600D03*
%TO.P,J5,7,Pin_7*%
%TO.N,Net-(J5-Pin_7)*%
X152489400Y-90602600D03*
%TO.P,J5,6,Pin_6*%
%TO.N,Net-(J5-Pin_6)*%
X149949400Y-90602600D03*
%TO.P,J5,5,Pin_5*%
%TO.N,Net-(J5-Pin_5)*%
X147409400Y-90602600D03*
%TO.P,J5,4,Pin_4*%
%TO.N,Net-(J5-Pin_4)*%
X144869400Y-90602600D03*
%TO.P,J5,3,Pin_3*%
%TO.N,Net-(J5-Pin_3)*%
X142329400Y-90602600D03*
%TO.P,J5,2,Pin_2*%
%TO.N,Net-(J5-Pin_2)*%
X139789400Y-90602600D03*
D14*
%TO.P,J5,1,Pin_1*%
%TO.N,Net-(J5-Pin_1)*%
X137249400Y-90602600D03*
%TD*%
D15*
%TO.P,U1,10,V_{DD(B)}*%
%TO.N,+5V*%
X159109400Y-80832600D03*
%TO.P,U1,9,DSDAM*%
%TO.N,Net-(U1-DSDAM)*%
X159609400Y-80832600D03*
%TO.P,U1,8,DSDAP*%
%TO.N,Net-(U1-DSDAP)*%
X160109400Y-80832600D03*
%TO.P,U1,7,DSCLP*%
%TO.N,Net-(U1-DSCLP)*%
X160609400Y-80832600D03*
%TO.P,U1,6,DSCLM*%
%TO.N,Net-(U1-DSCLM)*%
X161109400Y-80832600D03*
%TO.P,U1,5,V_{SS}*%
%TO.N,GND*%
X161109400Y-85132600D03*
%TO.P,U1,4,SCL*%
%TO.N,Net-(J5-Pin_14)*%
X160609400Y-85132600D03*
%TO.P,U1,3,EN*%
%TO.N,unconnected-(U1-EN-Pad3)*%
X160109400Y-85132600D03*
%TO.P,U1,2,SDA*%
%TO.N,Net-(J5-Pin_15)*%
X159609400Y-85132600D03*
%TO.P,U1,1,V_{DD(A)}*%
%TO.N,+5V*%
X159109400Y-85132600D03*
%TD*%
D16*
%TO.N,+5V*%
X186436000Y-87630000D03*
%TO.N,Net-(U1-DSDAP)*%
X164785172Y-74338600D03*
X177381400Y-74346600D03*
%TO.N,Net-(U1-DSCLM)*%
X182740559Y-79655441D03*
X164935400Y-79680600D03*
%TO.N,Net-(U1-DSDAM)*%
X164427400Y-73584600D03*
X174960400Y-73584600D03*
%TO.N,Net-(U1-DSCLP)*%
X180937400Y-78918600D03*
X164427400Y-78918600D03*
%TD*%
D17*
%TO.N,GND*%
X159441000Y-87630000D02*
X161109400Y-85961600D01*
D18*
X144889300Y-87630000D02*
X142801900Y-85542600D01*
X159441000Y-87630000D02*
X144889300Y-87630000D01*
D17*
X161109400Y-85961600D02*
X161109400Y-85132600D01*
%TO.N,Net-(J5-Pin_14)*%
X160609400Y-85132600D02*
X160609400Y-84303600D01*
X161347000Y-83566000D02*
X163232800Y-83566000D01*
X160609400Y-84303600D02*
X161347000Y-83566000D01*
X163232800Y-83566000D02*
X163740800Y-84074000D01*
D18*
X163740800Y-84074000D02*
X170269400Y-90602600D01*
D17*
%TO.N,Net-(J5-Pin_15)*%
X165951400Y-83744600D02*
X165264800Y-83058000D01*
X165264800Y-83058000D02*
X160855000Y-83058000D01*
X160855000Y-83058000D02*
X159609400Y-84303600D01*
X159609400Y-84303600D02*
X159609400Y-85132600D01*
D18*
%TO.N,+5V*%
X185509400Y-113462600D02*
X188049400Y-110922600D01*
X188049400Y-110922600D02*
X188049400Y-89243400D01*
X172630800Y-87630000D02*
X167221400Y-82220600D01*
X188049400Y-89243400D02*
X186436000Y-87630000D01*
X186436000Y-87630000D02*
X172630800Y-87630000D01*
X167221400Y-82220600D02*
X159538400Y-82220600D01*
X159538400Y-82220600D02*
X159030400Y-81712600D01*
%TO.N,GND*%
X180429400Y-118542600D02*
X180429400Y-113462600D01*
%TO.N,Net-(J6-Pin_2)*%
X182969400Y-118542600D02*
X182969400Y-113462600D01*
%TO.N,+5V*%
X185509400Y-118542600D02*
X185509400Y-113462600D01*
%TO.N,Net-(J6-Pin_4)*%
X177889400Y-118542600D02*
X177889400Y-113462600D01*
%TO.N,Net-(J6-Pin_5)*%
X175349400Y-118542600D02*
X175349400Y-113462600D01*
%TO.N,Net-(J6-Pin_6)*%
X172809400Y-118542600D02*
X172809400Y-113462600D01*
%TO.N,Net-(J6-Pin_7)*%
X170269400Y-118542600D02*
X170269400Y-113462600D01*
%TO.N,Net-(J6-Pin_8)*%
X167729400Y-118542600D02*
X167729400Y-113462600D01*
%TO.N,Net-(J6-Pin_9)*%
X165189400Y-118542600D02*
X165189400Y-113462600D01*
%TO.N,Net-(J6-Pin_10)*%
X162649400Y-113462600D02*
X162649400Y-118542600D01*
%TO.N,Net-(J6-Pin_11)*%
X160109400Y-118542600D02*
X160109400Y-113462600D01*
%TO.N,Net-(J6-Pin_12)*%
X157569400Y-113462600D02*
X157569400Y-118542600D01*
%TO.N,Net-(J6-Pin_13)*%
X155029400Y-113462600D02*
X155029400Y-118542600D01*
%TO.N,Net-(J6-Pin_14)*%
X152489400Y-118542600D02*
X152489400Y-113462600D01*
%TO.N,Net-(J6-Pin_15)*%
X149949400Y-113462600D02*
X149949400Y-118542600D01*
%TO.N,Net-(J6-Pin_16)*%
X147409400Y-113462600D02*
X147409400Y-118542600D01*
%TO.N,Net-(J6-Pin_17)*%
X144869400Y-113462600D02*
X144869400Y-118542600D01*
%TO.N,Net-(J6-Pin_18)*%
X142329400Y-113462600D02*
X142329400Y-118542600D01*
%TO.N,Net-(J6-Pin_19)*%
X139789400Y-113462600D02*
X139789400Y-118542600D01*
%TO.N,Net-(J6-Pin_20)*%
X137249400Y-113462600D02*
X137249400Y-118542600D01*
%TO.N,Net-(J5-Pin_20)*%
X185509400Y-95682600D02*
X185509400Y-90602600D01*
%TO.N,Net-(J5-Pin_19)*%
X182969400Y-95682600D02*
X182969400Y-90602600D01*
%TO.N,Net-(J5-Pin_18)*%
X180429400Y-95682600D02*
X180429400Y-90602600D01*
%TO.N,Net-(J5-Pin_17)*%
X177889400Y-95682600D02*
X177889400Y-90602600D01*
%TO.N,Net-(J5-Pin_16)*%
X175349400Y-95682600D02*
X175349400Y-90602600D01*
%TO.N,Net-(J5-Pin_15)*%
X172809400Y-95682600D02*
X172809400Y-90602600D01*
%TO.N,Net-(J5-Pin_14)*%
X170269400Y-95682600D02*
X170269400Y-90602600D01*
%TO.N,Net-(J5-Pin_13)*%
X167729400Y-95682600D02*
X167729400Y-90602600D01*
%TO.N,Net-(J5-Pin_12)*%
X165189400Y-95682600D02*
X165189400Y-90602600D01*
%TO.N,Net-(J5-Pin_11)*%
X162649400Y-95682600D02*
X162649400Y-90602600D01*
%TO.N,Net-(J5-Pin_10)*%
X160109400Y-95682600D02*
X160109400Y-90602600D01*
%TO.N,Net-(J5-Pin_9)*%
X157569400Y-95682600D02*
X157569400Y-90602600D01*
%TO.N,Net-(J5-Pin_8)*%
X155029400Y-95682600D02*
X155029400Y-90602600D01*
%TO.N,Net-(J5-Pin_7)*%
X152489400Y-95682600D02*
X152489400Y-90602600D01*
%TO.N,Net-(J5-Pin_6)*%
X149949400Y-95682600D02*
X149949400Y-90602600D01*
%TO.N,Net-(J5-Pin_5)*%
X147409400Y-95682600D02*
X147409400Y-90602600D01*
%TO.N,Net-(J5-Pin_4)*%
X144869400Y-95682600D02*
X144869400Y-90602600D01*
%TO.N,Net-(J5-Pin_3)*%
X142329400Y-95682600D02*
X142329400Y-90602600D01*
%TO.N,Net-(J5-Pin_2)*%
X139789400Y-95682600D02*
X139789400Y-90602600D01*
%TO.N,Net-(J5-Pin_1)*%
X137249400Y-95682600D02*
X137249400Y-90602600D01*
%TO.N,Net-(J5-Pin_15)*%
X172809400Y-90602600D02*
X165951400Y-83744600D01*
D17*
%TO.N,Net-(U1-DSDAM)*%
X159609400Y-80832600D02*
X159609400Y-78402600D01*
X159609400Y-78402600D02*
X164427400Y-73584600D01*
%TO.N,Net-(U1-DSDAP)*%
X160109400Y-80832600D02*
X160109400Y-79014372D01*
X160109400Y-79014372D02*
X164785172Y-74338600D01*
D18*
%TO.N,Net-(U1-DSDAM)*%
X174960400Y-73584600D02*
X178361900Y-76986100D01*
X178361900Y-76986100D02*
X178361900Y-85542600D01*
%TO.N,Net-(U1-DSDAP)*%
X177381400Y-74346600D02*
X179631900Y-76597100D01*
X179631900Y-76597100D02*
X179631900Y-83002600D01*
%TO.N,Net-(U1-DSCLM)*%
X182740559Y-79655441D02*
X184747400Y-81662282D01*
X184747400Y-81662282D02*
X184747400Y-82967100D01*
X184747400Y-82967100D02*
X184711900Y-83002600D01*
%TO.N,Net-(U1-DSCLP)*%
X180937400Y-78918600D02*
X183441900Y-81423100D01*
X183441900Y-81423100D02*
X183441900Y-85542600D01*
D17*
%TO.N,Net-(U1-DSCLM)*%
X164935400Y-79680600D02*
X162261400Y-79680600D01*
X162261400Y-79680600D02*
X161188400Y-80753600D01*
X161188400Y-80753600D02*
X161188400Y-80832600D01*
D19*
%TO.N,/+5V(M)*%
X138991900Y-83002600D02*
X136945320Y-83002600D01*
X130310400Y-106523600D02*
X132169400Y-108382600D01*
X130310400Y-89637520D02*
X130310400Y-106523600D01*
X136945320Y-83002600D02*
X130310400Y-89637520D01*
D18*
%TO.N,+5V*%
X146241900Y-80832600D02*
X159030400Y-80832600D01*
X159030400Y-81712600D02*
X159030400Y-85132600D01*
X144071900Y-83002600D02*
X146241900Y-80832600D01*
X181739186Y-83002600D02*
X182171900Y-83002600D01*
X159030400Y-81712600D02*
X159030400Y-80832600D01*
D19*
%TO.N,+12V*%
X132169400Y-91095100D02*
X132169400Y-96952600D01*
X137721900Y-85542600D02*
X132169400Y-91095100D01*
D17*
%TO.N,Net-(U1-DSCLP)*%
X160609400Y-80003600D02*
X161694400Y-78918600D01*
X161694400Y-78918600D02*
X164427400Y-78918600D01*
X160609400Y-80832600D02*
X160609400Y-80003600D01*
%TD*%
%TA.AperFunction,Conductor*%
%TO.N,GND*%
G36*
X188981621Y-68440502D02*
G01*
X189028114Y-68494158D01*
X189039500Y-68546500D01*
X189039500Y-121293500D01*
X189019498Y-121361621D01*
X188965842Y-121408114D01*
X188913500Y-121419500D01*
X133046092Y-121419500D01*
X132977971Y-121399498D01*
X132931478Y-121345842D01*
X132921374Y-121275568D01*
X132950868Y-121210988D01*
X132985706Y-121182913D01*
X133043883Y-121151145D01*
X133124315Y-121107226D01*
X133353395Y-120935739D01*
X133555739Y-120733395D01*
X133727226Y-120504315D01*
X133727229Y-120504309D01*
X133727231Y-120504307D01*
X133864362Y-120253170D01*
X133864367Y-120253161D01*
X133964369Y-119985046D01*
X134025196Y-119705428D01*
X134045610Y-119420000D01*
X134025196Y-119134572D01*
X133964369Y-118854954D01*
X133864367Y-118586839D01*
X133840208Y-118542595D01*
X136140168Y-118542595D01*
X136140168Y-118542604D01*
X136159054Y-118746419D01*
X136209269Y-118922906D01*
X136215072Y-118943301D01*
X136306312Y-119126535D01*
X136306313Y-119126536D01*
X136429666Y-119289884D01*
X136580936Y-119427785D01*
X136754966Y-119535540D01*
X136754968Y-119535540D01*
X136754973Y-119535544D01*
X136945844Y-119609488D01*
X137147053Y-119647100D01*
X137147055Y-119647100D01*
X137351745Y-119647100D01*
X137351747Y-119647100D01*
X137552956Y-119609488D01*
X137743827Y-119535544D01*
X137917862Y-119427786D01*
X138069132Y-119289885D01*
X138192488Y-119126535D01*
X138283728Y-118943301D01*
X138339745Y-118746421D01*
X138352532Y-118608426D01*
X138358632Y-118542604D01*
X138358632Y-118542595D01*
X138680168Y-118542595D01*
X138680168Y-118542604D01*
X138699054Y-118746419D01*
X138749269Y-118922906D01*
X138755072Y-118943301D01*
X138846312Y-119126535D01*
X138846313Y-119126536D01*
X138969666Y-119289884D01*
X139120936Y-119427785D01*
X139294966Y-119535540D01*
X139294968Y-119535540D01*
X139294973Y-119535544D01*
X139485844Y-119609488D01*
X139687053Y-119647100D01*
X139687055Y-119647100D01*
X139891745Y-119647100D01*
X139891747Y-119647100D01*
X140092956Y-119609488D01*
X140283827Y-119535544D01*
X140457862Y-119427786D01*
X140609132Y-119289885D01*
X140732488Y-119126535D01*
X140823728Y-118943301D01*
X140879745Y-118746421D01*
X140892532Y-118608426D01*
X140898632Y-118542604D01*
X140898632Y-118542595D01*
X141220168Y-118542595D01*
X141220168Y-118542604D01*
X141239054Y-118746419D01*
X141289269Y-118922906D01*
X141295072Y-118943301D01*
X141386312Y-119126535D01*
X141386313Y-119126536D01*
X141509666Y-119289884D01*
X141660936Y-119427785D01*
X141834966Y-119535540D01*
X141834968Y-119535540D01*
X141834973Y-119535544D01*
X142025844Y-119609488D01*
X142227053Y-119647100D01*
X142227055Y-119647100D01*
X142431745Y-119647100D01*
X142431747Y-119647100D01*
X142632956Y-119609488D01*
X142823827Y-119535544D01*
X142997862Y-119427786D01*
X143149132Y-119289885D01*
X143272488Y-119126535D01*
X143363728Y-118943301D01*
X143419745Y-118746421D01*
X143432532Y-118608426D01*
X143438632Y-118542604D01*
X143438632Y-118542595D01*
X143760168Y-118542595D01*
X143760168Y-118542604D01*
X143779054Y-118746419D01*
X143829269Y-118922906D01*
X143835072Y-118943301D01*
X143926312Y-119126535D01*
X143926313Y-119126536D01*
X144049666Y-119289884D01*
X144200936Y-119427785D01*
X144374966Y-119535540D01*
X144374968Y-119535540D01*
X144374973Y-119535544D01*
X144565844Y-119609488D01*
X144767053Y-119647100D01*
X144767055Y-119647100D01*
X144971745Y-119647100D01*
X144971747Y-119647100D01*
X145172956Y-119609488D01*
X145363827Y-119535544D01*
X145537862Y-119427786D01*
X145689132Y-119289885D01*
X145812488Y-119126535D01*
X145903728Y-118943301D01*
X145959745Y-118746421D01*
X145972532Y-118608426D01*
X145978632Y-118542604D01*
X145978632Y-118542595D01*
X146300168Y-118542595D01*
X146300168Y-118542604D01*
X146319054Y-118746419D01*
X146369269Y-118922906D01*
X146375072Y-118943301D01*
X146466312Y-119126535D01*
X146466313Y-119126536D01*
X146589666Y-119289884D01*
X146740936Y-119427785D01*
X146914966Y-119535540D01*
X146914968Y-119535540D01*
X146914973Y-119535544D01*
X147105844Y-119609488D01*
X147307053Y-119647100D01*
X147307055Y-119647100D01*
X147511745Y-119647100D01*
X147511747Y-119647100D01*
X147712956Y-119609488D01*
X147903827Y-119535544D01*
X148077862Y-119427786D01*
X148229132Y-119289885D01*
X148352488Y-119126535D01*
X148443728Y-118943301D01*
X148499745Y-118746421D01*
X148512532Y-118608426D01*
X148518632Y-118542604D01*
X148518632Y-118542595D01*
X148840168Y-118542595D01*
X148840168Y-118542604D01*
X148859054Y-118746419D01*
X148909269Y-118922906D01*
X148915072Y-118943301D01*
X149006312Y-119126535D01*
X149006313Y-119126536D01*
X149129666Y-119289884D01*
X149280936Y-119427785D01*
X149454966Y-119535540D01*
X149454968Y-119535540D01*
X149454973Y-119535544D01*
X149645844Y-119609488D01*
X149847053Y-119647100D01*
X149847055Y-119647100D01*
X150051745Y-119647100D01*
X150051747Y-119647100D01*
X150252956Y-119609488D01*
X150443827Y-119535544D01*
X150617862Y-119427786D01*
X150769132Y-119289885D01*
X150892488Y-119126535D01*
X150983728Y-118943301D01*
X151039745Y-118746421D01*
X151052532Y-118608426D01*
X151058632Y-118542604D01*
X151058632Y-118542595D01*
X151380168Y-118542595D01*
X151380168Y-118542604D01*
X151399054Y-118746419D01*
X151449269Y-118922906D01*
X151455072Y-118943301D01*
X151546312Y-119126535D01*
X151546313Y-119126536D01*
X151669666Y-119289884D01*
X151820936Y-119427785D01*
X151994966Y-119535540D01*
X151994968Y-119535540D01*
X151994973Y-119535544D01*
X152185844Y-119609488D01*
X152387053Y-119647100D01*
X152387055Y-119647100D01*
X152591745Y-119647100D01*
X152591747Y-119647100D01*
X152792956Y-119609488D01*
X152983827Y-119535544D01*
X153157862Y-119427786D01*
X153309132Y-119289885D01*
X153432488Y-119126535D01*
X153523728Y-118943301D01*
X153579745Y-118746421D01*
X153592532Y-118608426D01*
X153598632Y-118542604D01*
X153598632Y-118542595D01*
X153920168Y-118542595D01*
X153920168Y-118542604D01*
X153939054Y-118746419D01*
X153989269Y-118922906D01*
X153995072Y-118943301D01*
X154086312Y-119126535D01*
X154086313Y-119126536D01*
X154209666Y-119289884D01*
X154360936Y-119427785D01*
X154534966Y-119535540D01*
X154534968Y-119535540D01*
X154534973Y-119535544D01*
X154725844Y-119609488D01*
X154927053Y-119647100D01*
X154927055Y-119647100D01*
X155131745Y-119647100D01*
X155131747Y-119647100D01*
X155332956Y-119609488D01*
X155523827Y-119535544D01*
X155697862Y-119427786D01*
X155849132Y-119289885D01*
X155972488Y-119126535D01*
X156063728Y-118943301D01*
X156119745Y-118746421D01*
X156132532Y-118608426D01*
X156138632Y-118542604D01*
X156138632Y-118542595D01*
X156460168Y-118542595D01*
X156460168Y-118542604D01*
X156479054Y-118746419D01*
X156529269Y-118922906D01*
X156535072Y-118943301D01*
X156626312Y-119126535D01*
X156626313Y-119126536D01*
X156749666Y-119289884D01*
X156900936Y-119427785D01*
X157074966Y-119535540D01*
X157074968Y-119535540D01*
X157074973Y-119535544D01*
X157265844Y-119609488D01*
X157467053Y-119647100D01*
X157467055Y-119647100D01*
X157671745Y-119647100D01*
X157671747Y-119647100D01*
X157872956Y-119609488D01*
X158063827Y-119535544D01*
X158237862Y-119427786D01*
X158389132Y-119289885D01*
X158512488Y-119126535D01*
X158603728Y-118943301D01*
X158659745Y-118746421D01*
X158672532Y-118608426D01*
X158678632Y-118542604D01*
X158678632Y-118542595D01*
X159000168Y-118542595D01*
X159000168Y-118542604D01*
X159019054Y-118746419D01*
X159069269Y-118922906D01*
X159075072Y-118943301D01*
X159166312Y-119126535D01*
X159166313Y-119126536D01*
X159289666Y-119289884D01*
X159440936Y-119427785D01*
X159614966Y-119535540D01*
X159614968Y-119535540D01*
X159614973Y-119535544D01*
X159805844Y-119609488D01*
X160007053Y-119647100D01*
X160007055Y-119647100D01*
X160211745Y-119647100D01*
X160211747Y-119647100D01*
X160412956Y-119609488D01*
X160603827Y-119535544D01*
X160777862Y-119427786D01*
X160929132Y-119289885D01*
X161052488Y-119126535D01*
X161143728Y-118943301D01*
X161199745Y-118746421D01*
X161212532Y-118608426D01*
X161218632Y-118542604D01*
X161218632Y-118542595D01*
X161540168Y-118542595D01*
X161540168Y-118542604D01*
X161559054Y-118746419D01*
X161609269Y-118922906D01*
X161615072Y-118943301D01*
X161706312Y-119126535D01*
X161706313Y-119126536D01*
X161829666Y-119289884D01*
X161980936Y-119427785D01*
X162154966Y-119535540D01*
X162154968Y-119535540D01*
X162154973Y-119535544D01*
X162345844Y-119609488D01*
X162547053Y-119647100D01*
X162547055Y-119647100D01*
X162751745Y-119647100D01*
X162751747Y-119647100D01*
X162952956Y-119609488D01*
X163143827Y-119535544D01*
X163317862Y-119427786D01*
X163469132Y-119289885D01*
X163592488Y-119126535D01*
X163683728Y-118943301D01*
X163739745Y-118746421D01*
X163752532Y-118608426D01*
X163758632Y-118542604D01*
X163758632Y-118542595D01*
X164080168Y-118542595D01*
X164080168Y-118542604D01*
X164099054Y-118746419D01*
X164149269Y-118922906D01*
X164155072Y-118943301D01*
X164246312Y-119126535D01*
X164246313Y-119126536D01*
X164369666Y-119289884D01*
X164520936Y-119427785D01*
X164694966Y-119535540D01*
X164694968Y-119535540D01*
X164694973Y-119535544D01*
X164885844Y-119609488D01*
X165087053Y-119647100D01*
X165087055Y-119647100D01*
X165291745Y-119647100D01*
X165291747Y-119647100D01*
X165492956Y-119609488D01*
X165683827Y-119535544D01*
X165857862Y-119427786D01*
X166009132Y-119289885D01*
X166132488Y-119126535D01*
X166223728Y-118943301D01*
X166279745Y-118746421D01*
X166292532Y-118608426D01*
X166298632Y-118542604D01*
X166298632Y-118542595D01*
X166620168Y-118542595D01*
X166620168Y-118542604D01*
X166639054Y-118746419D01*
X166689269Y-118922906D01*
X166695072Y-118943301D01*
X166786312Y-119126535D01*
X166786313Y-119126536D01*
X166909666Y-119289884D01*
X167060936Y-119427785D01*
X167234966Y-119535540D01*
X167234968Y-119535540D01*
X167234973Y-119535544D01*
X167425844Y-119609488D01*
X167627053Y-119647100D01*
X167627055Y-119647100D01*
X167831745Y-119647100D01*
X167831747Y-119647100D01*
X168032956Y-119609488D01*
X168223827Y-119535544D01*
X168397862Y-119427786D01*
X168549132Y-119289885D01*
X168672488Y-119126535D01*
X168763728Y-118943301D01*
X168819745Y-118746421D01*
X168832532Y-118608426D01*
X168838632Y-118542604D01*
X168838632Y-118542595D01*
X169160168Y-118542595D01*
X169160168Y-118542604D01*
X169179054Y-118746419D01*
X169229269Y-118922906D01*
X169235072Y-118943301D01*
X169326312Y-119126535D01*
X169326313Y-119126536D01*
X169449666Y-119289884D01*
X169600936Y-119427785D01*
X169774966Y-119535540D01*
X169774968Y-119535540D01*
X169774973Y-119535544D01*
X169965844Y-119609488D01*
X170167053Y-119647100D01*
X170167055Y-119647100D01*
X170371745Y-119647100D01*
X170371747Y-119647100D01*
X170572956Y-119609488D01*
X170763827Y-119535544D01*
X170937862Y-119427786D01*
X171089132Y-119289885D01*
X171212488Y-119126535D01*
X171303728Y-118943301D01*
X171359745Y-118746421D01*
X171372532Y-118608426D01*
X171378632Y-118542604D01*
X171378632Y-118542595D01*
X171700168Y-118542595D01*
X171700168Y-118542604D01*
X171719054Y-118746419D01*
X171769269Y-118922906D01*
X171775072Y-118943301D01*
X171866312Y-119126535D01*
X171866313Y-119126536D01*
X171989666Y-119289884D01*
X172140936Y-119427785D01*
X172314966Y-119535540D01*
X172314968Y-119535540D01*
X172314973Y-119535544D01*
X172505844Y-119609488D01*
X172707053Y-119647100D01*
X172707055Y-119647100D01*
X172911745Y-119647100D01*
X172911747Y-119647100D01*
X173112956Y-119609488D01*
X173303827Y-119535544D01*
X173477862Y-119427786D01*
X173629132Y-119289885D01*
X173752488Y-119126535D01*
X173843728Y-118943301D01*
X173899745Y-118746421D01*
X173912532Y-118608426D01*
X173918632Y-118542604D01*
X173918632Y-118542595D01*
X174240168Y-118542595D01*
X174240168Y-118542604D01*
X174259054Y-118746419D01*
X174309269Y-118922906D01*
X174315072Y-118943301D01*
X174406312Y-119126535D01*
X174406313Y-119126536D01*
X174529666Y-119289884D01*
X174680936Y-119427785D01*
X174854966Y-119535540D01*
X174854968Y-119535540D01*
X174854973Y-119535544D01*
X175045844Y-119609488D01*
X175247053Y-119647100D01*
X175247055Y-119647100D01*
X175451745Y-119647100D01*
X175451747Y-119647100D01*
X175652956Y-119609488D01*
X175843827Y-119535544D01*
X176017862Y-119427786D01*
X176169132Y-119289885D01*
X176292488Y-119126535D01*
X176383728Y-118943301D01*
X176439745Y-118746421D01*
X176452532Y-118608426D01*
X176458632Y-118542604D01*
X176458632Y-118542595D01*
X176780168Y-118542595D01*
X176780168Y-118542604D01*
X176799054Y-118746419D01*
X176849269Y-118922906D01*
X176855072Y-118943301D01*
X176946312Y-119126535D01*
X176946313Y-119126536D01*
X177069666Y-119289884D01*
X177220936Y-119427785D01*
X177394966Y-119535540D01*
X177394968Y-119535540D01*
X177394973Y-119535544D01*
X177585844Y-119609488D01*
X177787053Y-119647100D01*
X177787055Y-119647100D01*
X177991745Y-119647100D01*
X177991747Y-119647100D01*
X178192956Y-119609488D01*
X178383827Y-119535544D01*
X178557862Y-119427786D01*
X178709132Y-119289885D01*
X178832488Y-119126535D01*
X178915426Y-118959972D01*
X178963694Y-118907911D01*
X179032449Y-118890208D01*
X179099859Y-118912487D01*
X179144523Y-118967674D01*
X179149923Y-118983526D01*
X179155968Y-119006089D01*
X179155970Y-119006093D01*
X179255799Y-119220177D01*
X179255800Y-119220179D01*
X179391286Y-119413673D01*
X179391293Y-119413682D01*
X179558317Y-119580706D01*
X179558326Y-119580713D01*
X179751820Y-119716199D01*
X179751822Y-119716200D01*
X179965906Y-119816029D01*
X179965910Y-119816031D01*
X180179400Y-119873235D01*
X180179400Y-118975612D01*
X180236407Y-119008525D01*
X180363574Y-119042600D01*
X180495226Y-119042600D01*
X180622393Y-119008525D01*
X180679400Y-118975612D01*
X180679400Y-119873234D01*
X180892889Y-119816031D01*
X180892893Y-119816029D01*
X181106977Y-119716200D01*
X181106979Y-119716199D01*
X181300473Y-119580713D01*
X181300482Y-119580706D01*
X181467506Y-119413682D01*
X181467513Y-119413673D01*
X181602999Y-119220179D01*
X181603000Y-119220177D01*
X181702829Y-119006093D01*
X181702831Y-119006087D01*
X181708875Y-118983531D01*
X181745824Y-118922906D01*
X181809684Y-118891882D01*
X181880178Y-118900308D01*
X181934927Y-118945509D01*
X181943373Y-118959974D01*
X182026308Y-119126530D01*
X182026312Y-119126535D01*
X182149666Y-119289884D01*
X182300936Y-119427785D01*
X182474966Y-119535540D01*
X182474968Y-119535540D01*
X182474973Y-119535544D01*
X182665844Y-119609488D01*
X182867053Y-119647100D01*
X182867055Y-119647100D01*
X183071745Y-119647100D01*
X183071747Y-119647100D01*
X183272956Y-119609488D01*
X183463827Y-119535544D01*
X183637862Y-119427786D01*
X183789132Y-119289885D01*
X183912488Y-119126535D01*
X184003728Y-118943301D01*
X184059745Y-118746421D01*
X184072532Y-118608426D01*
X184078632Y-118542604D01*
X184078632Y-118542595D01*
X184059745Y-118338780D01*
X184059745Y-118338779D01*
X184003728Y-118141899D01*
X183912488Y-117958665D01*
X183871404Y-117904261D01*
X183789133Y-117795315D01*
X183637862Y-117657414D01*
X183637858Y-117657411D01*
X183537569Y-117595314D01*
X183490182Y-117542447D01*
X183477900Y-117488187D01*
X183477900Y-114597099D01*
X183497902Y-114528978D01*
X183551558Y-114482485D01*
X183603900Y-114471099D01*
X183748464Y-114471099D01*
X183748466Y-114471099D01*
X183748469Y-114471098D01*
X183748472Y-114471098D01*
X183785063Y-114463819D01*
X183822701Y-114456334D01*
X183906884Y-114400084D01*
X183963134Y-114315901D01*
X183977900Y-114241667D01*
X183977899Y-112683534D01*
X183977898Y-112683530D01*
X183977898Y-112683526D01*
X183963134Y-112609299D01*
X183906883Y-112525115D01*
X183822702Y-112468866D01*
X183748467Y-112454100D01*
X182190336Y-112454100D01*
X182190326Y-112454101D01*
X182116099Y-112468865D01*
X182031915Y-112525116D01*
X181975666Y-112609297D01*
X181960900Y-112683530D01*
X181960900Y-114241663D01*
X181960901Y-114241673D01*
X181975665Y-114315900D01*
X182031916Y-114400084D01*
X182116097Y-114456333D01*
X182116099Y-114456334D01*
X182190333Y-114471100D01*
X182334900Y-114471099D01*
X182403020Y-114491101D01*
X182449513Y-114544756D01*
X182460900Y-114597099D01*
X182460900Y-117488187D01*
X182440898Y-117556308D01*
X182401231Y-117595314D01*
X182300941Y-117657411D01*
X182300937Y-117657414D01*
X182149666Y-117795315D01*
X182026312Y-117958664D01*
X182026311Y-117958665D01*
X181943373Y-118125226D01*
X181895104Y-118177289D01*
X181826349Y-118194991D01*
X181758939Y-118172711D01*
X181714275Y-118117524D01*
X181708875Y-118101670D01*
X181702830Y-118079107D01*
X181702829Y-118079106D01*
X181602999Y-117865021D01*
X181467512Y-117671525D01*
X181300476Y-117504488D01*
X181300473Y-117504486D01*
X181106979Y-117369000D01*
X181106977Y-117368999D01*
X180892893Y-117269170D01*
X180892888Y-117269168D01*
X180679400Y-117211964D01*
X180679400Y-118109588D01*
X180622393Y-118076675D01*
X180495226Y-118042600D01*
X180363574Y-118042600D01*
X180236407Y-118076675D01*
X180179400Y-118109588D01*
X180179400Y-117211964D01*
X179965911Y-117269168D01*
X179965906Y-117269170D01*
X179751821Y-117369000D01*
X179558325Y-117504487D01*
X179558319Y-117504492D01*
X179391292Y-117671519D01*
X179391287Y-117671525D01*
X179255800Y-117865021D01*
X179155970Y-118079106D01*
X179155969Y-118079108D01*
X179149923Y-118101674D01*
X179112971Y-118162296D01*
X179049110Y-118193318D01*
X178978616Y-118184889D01*
X178923869Y-118139686D01*
X178915425Y-118125225D01*
X178832488Y-117958665D01*
X178791404Y-117904261D01*
X178709133Y-117795315D01*
X178557862Y-117657414D01*
X178557858Y-117657411D01*
X178457569Y-117595314D01*
X178410182Y-117542447D01*
X178397900Y-117488187D01*
X178397900Y-114597099D01*
X178417902Y-114528978D01*
X178471558Y-114482485D01*
X178523900Y-114471099D01*
X178668464Y-114471099D01*
X178668466Y-114471099D01*
X178668469Y-114471098D01*
X178668472Y-114471098D01*
X178705063Y-114463819D01*
X178742701Y-114456334D01*
X178826884Y-114400084D01*
X178883134Y-114315901D01*
X178897900Y-114241667D01*
X178897899Y-112683534D01*
X178897898Y-112683530D01*
X178897898Y-112683526D01*
X178893370Y-112660759D01*
X179175400Y-112660759D01*
X179175400Y-113212600D01*
X179996388Y-113212600D01*
X179963475Y-113269607D01*
X179929400Y-113396774D01*
X179929400Y-113528426D01*
X179963475Y-113655593D01*
X179996388Y-113712600D01*
X179175400Y-113712600D01*
X179175400Y-114264440D01*
X179181800Y-114323971D01*
X179232047Y-114458689D01*
X179318210Y-114573789D01*
X179433310Y-114659952D01*
X179568028Y-114710199D01*
X179627559Y-114716599D01*
X179627576Y-114716600D01*
X180179400Y-114716600D01*
X180179400Y-113895612D01*
X180236407Y-113928525D01*
X180363574Y-113962600D01*
X180495226Y-113962600D01*
X180622393Y-113928525D01*
X180679400Y-113895612D01*
X180679400Y-114716600D01*
X181231224Y-114716600D01*
X181231240Y-114716599D01*
X181290771Y-114710199D01*
X181425489Y-114659952D01*
X181540589Y-114573789D01*
X181626752Y-114458689D01*
X181676999Y-114323971D01*
X181683399Y-114264440D01*
X181683400Y-114264423D01*
X181683400Y-113712600D01*
X180862412Y-113712600D01*
X180895325Y-113655593D01*
X180929400Y-113528426D01*
X180929400Y-113396774D01*
X180895325Y-113269607D01*
X180862412Y-113212600D01*
X181683400Y-113212600D01*
X181683400Y-112660776D01*
X181683399Y-112660759D01*
X181676999Y-112601228D01*
X181626752Y-112466510D01*
X181540589Y-112351410D01*
X181425489Y-112265247D01*
X181290771Y-112215000D01*
X181231240Y-112208600D01*
X180679400Y-112208600D01*
X180679400Y-113029588D01*
X180622393Y-112996675D01*
X180495226Y-112962600D01*
X180363574Y-112962600D01*
X180236407Y-112996675D01*
X180179400Y-113029588D01*
X180179400Y-112208600D01*
X179627559Y-112208600D01*
X179568028Y-112215000D01*
X179433310Y-112265247D01*
X179318210Y-112351410D01*
X179232047Y-112466510D01*
X179181800Y-112601228D01*
X179175400Y-112660759D01*
X178893370Y-112660759D01*
X178883134Y-112609299D01*
X178826883Y-112525115D01*
X178742702Y-112468866D01*
X178668467Y-112454100D01*
X177110336Y-112454100D01*
X177110326Y-112454101D01*
X177036099Y-112468865D01*
X176951915Y-112525116D01*
X176895666Y-112609297D01*
X176880900Y-112683530D01*
X176880900Y-114241663D01*
X176880901Y-114241673D01*
X176895665Y-114315900D01*
X176951916Y-114400084D01*
X177036097Y-114456333D01*
X177036099Y-114456334D01*
X177110333Y-114471100D01*
X177254900Y-114471099D01*
X177323020Y-114491101D01*
X177369513Y-114544756D01*
X177380900Y-114597099D01*
X177380900Y-117488187D01*
X177360898Y-117556308D01*
X177321231Y-117595314D01*
X177220941Y-117657411D01*
X177220937Y-117657414D01*
X177069666Y-117795315D01*
X176946313Y-117958663D01*
X176855071Y-118141901D01*
X176799054Y-118338780D01*
X176780168Y-118542595D01*
X176458632Y-118542595D01*
X176439745Y-118338780D01*
X176439745Y-118338779D01*
X176383728Y-118141899D01*
X176292488Y-117958665D01*
X176251404Y-117904261D01*
X176169133Y-117795315D01*
X176017862Y-117657414D01*
X176017858Y-117657411D01*
X175917569Y-117595314D01*
X175870182Y-117542447D01*
X175857900Y-117488187D01*
X175857900Y-114597099D01*
X175877902Y-114528978D01*
X175931558Y-114482485D01*
X175983900Y-114471099D01*
X176128464Y-114471099D01*
X176128466Y-114471099D01*
X176128469Y-114471098D01*
X176128472Y-114471098D01*
X176165063Y-114463819D01*
X176202701Y-114456334D01*
X176286884Y-114400084D01*
X176343134Y-114315901D01*
X176357900Y-114241667D01*
X176357899Y-112683534D01*
X176357898Y-112683530D01*
X176357898Y-112683526D01*
X176343134Y-112609299D01*
X176286883Y-112525115D01*
X176202702Y-112468866D01*
X176128467Y-112454100D01*
X174570336Y-112454100D01*
X174570326Y-112454101D01*
X174496099Y-112468865D01*
X174411915Y-112525116D01*
X174355666Y-112609297D01*
X174340900Y-112683530D01*
X174340900Y-114241663D01*
X174340901Y-114241673D01*
X174355665Y-114315900D01*
X174411916Y-114400084D01*
X174496097Y-114456333D01*
X174496099Y-114456334D01*
X174570333Y-114471100D01*
X174714900Y-114471099D01*
X174783020Y-114491101D01*
X174829513Y-114544756D01*
X174840900Y-114597099D01*
X174840900Y-117488187D01*
X174820898Y-117556308D01*
X174781231Y-117595314D01*
X174680941Y-117657411D01*
X174680937Y-117657414D01*
X174529666Y-117795315D01*
X174406313Y-117958663D01*
X174315071Y-118141901D01*
X174259054Y-118338780D01*
X174240168Y-118542595D01*
X173918632Y-118542595D01*
X173899745Y-118338780D01*
X173899745Y-118338779D01*
X173843728Y-118141899D01*
X173752488Y-117958665D01*
X173711404Y-117904261D01*
X173629133Y-117795315D01*
X173477862Y-117657414D01*
X173477858Y-117657411D01*
X173377569Y-117595314D01*
X173330182Y-117542447D01*
X173317900Y-117488187D01*
X173317900Y-114597099D01*
X173337902Y-114528978D01*
X173391558Y-114482485D01*
X173443900Y-114471099D01*
X173588464Y-114471099D01*
X173588466Y-114471099D01*
X173588469Y-114471098D01*
X173588472Y-114471098D01*
X173625063Y-114463819D01*
X173662701Y-114456334D01*
X173746884Y-114400084D01*
X173803134Y-114315901D01*
X173817900Y-114241667D01*
X173817899Y-112683534D01*
X173817898Y-112683530D01*
X173817898Y-112683526D01*
X173803134Y-112609299D01*
X173746883Y-112525115D01*
X173662702Y-112468866D01*
X173588467Y-112454100D01*
X172030336Y-112454100D01*
X172030326Y-112454101D01*
X171956099Y-112468865D01*
X171871915Y-112525116D01*
X171815666Y-112609297D01*
X171800900Y-112683530D01*
X171800900Y-114241663D01*
X171800901Y-114241673D01*
X171815665Y-114315900D01*
X171871916Y-114400084D01*
X171956097Y-114456333D01*
X171956099Y-114456334D01*
X172030333Y-114471100D01*
X172174900Y-114471099D01*
X172243020Y-114491101D01*
X172289513Y-114544756D01*
X172300900Y-114597099D01*
X172300900Y-117488187D01*
X172280898Y-117556308D01*
X172241231Y-117595314D01*
X172140941Y-117657411D01*
X172140937Y-117657414D01*
X171989666Y-117795315D01*
X171866313Y-117958663D01*
X171775071Y-118141901D01*
X171719054Y-118338780D01*
X171700168Y-118542595D01*
X171378632Y-118542595D01*
X171359745Y-118338780D01*
X171359745Y-118338779D01*
X171303728Y-118141899D01*
X171212488Y-117958665D01*
X171171404Y-117904261D01*
X171089133Y-117795315D01*
X170937862Y-117657414D01*
X170937858Y-117657411D01*
X170837569Y-117595314D01*
X170790182Y-117542447D01*
X170777900Y-117488187D01*
X170777900Y-114597099D01*
X170797902Y-114528978D01*
X170851558Y-114482485D01*
X170903900Y-114471099D01*
X171048464Y-114471099D01*
X171048466Y-114471099D01*
X171048469Y-114471098D01*
X171048472Y-114471098D01*
X171085063Y-114463819D01*
X171122701Y-114456334D01*
X171206884Y-114400084D01*
X171263134Y-114315901D01*
X171277900Y-114241667D01*
X171277899Y-112683534D01*
X171277898Y-112683530D01*
X171277898Y-112683526D01*
X171263134Y-112609299D01*
X171206883Y-112525115D01*
X171122702Y-112468866D01*
X171048467Y-112454100D01*
X169490336Y-112454100D01*
X169490326Y-112454101D01*
X169416099Y-112468865D01*
X169331915Y-112525116D01*
X169275666Y-112609297D01*
X169260900Y-112683530D01*
X169260900Y-114241663D01*
X169260901Y-114241673D01*
X169275665Y-114315900D01*
X169331916Y-114400084D01*
X169416097Y-114456333D01*
X169416099Y-114456334D01*
X169490333Y-114471100D01*
X169634900Y-114471099D01*
X169703020Y-114491101D01*
X169749513Y-114544756D01*
X169760900Y-114597099D01*
X169760900Y-117488187D01*
X169740898Y-117556308D01*
X169701231Y-117595314D01*
X169600941Y-117657411D01*
X169600937Y-117657414D01*
X169449666Y-117795315D01*
X169326313Y-117958663D01*
X169235071Y-118141901D01*
X169179054Y-118338780D01*
X169160168Y-118542595D01*
X168838632Y-118542595D01*
X168819745Y-118338780D01*
X168819745Y-118338779D01*
X168763728Y-118141899D01*
X168672488Y-117958665D01*
X168631404Y-117904261D01*
X168549133Y-117795315D01*
X168397862Y-117657414D01*
X168397858Y-117657411D01*
X168297569Y-117595314D01*
X168250182Y-117542447D01*
X168237900Y-117488187D01*
X168237900Y-114597099D01*
X168257902Y-114528978D01*
X168311558Y-114482485D01*
X168363900Y-114471099D01*
X168508464Y-114471099D01*
X168508466Y-114471099D01*
X168508469Y-114471098D01*
X168508472Y-114471098D01*
X168545063Y-114463819D01*
X168582701Y-114456334D01*
X168666884Y-114400084D01*
X168723134Y-114315901D01*
X168737900Y-114241667D01*
X168737899Y-112683534D01*
X168737898Y-112683530D01*
X168737898Y-112683526D01*
X168723134Y-112609299D01*
X168666883Y-112525115D01*
X168582702Y-112468866D01*
X168508467Y-112454100D01*
X166950336Y-112454100D01*
X166950326Y-112454101D01*
X166876099Y-112468865D01*
X166791915Y-112525116D01*
X166735666Y-112609297D01*
X166720900Y-112683530D01*
X166720900Y-114241663D01*
X166720901Y-114241673D01*
X166735665Y-114315900D01*
X166791916Y-114400084D01*
X166876097Y-114456333D01*
X166876099Y-114456334D01*
X166950333Y-114471100D01*
X167094900Y-114471099D01*
X167163020Y-114491101D01*
X167209513Y-114544756D01*
X167220900Y-114597099D01*
X167220900Y-117488187D01*
X167200898Y-117556308D01*
X167161231Y-117595314D01*
X167060941Y-117657411D01*
X167060937Y-117657414D01*
X166909666Y-117795315D01*
X166786313Y-117958663D01*
X166695071Y-118141901D01*
X166639054Y-118338780D01*
X166620168Y-118542595D01*
X166298632Y-118542595D01*
X166279745Y-118338780D01*
X166279745Y-118338779D01*
X166223728Y-118141899D01*
X166132488Y-117958665D01*
X166091404Y-117904261D01*
X166009133Y-117795315D01*
X165857862Y-117657414D01*
X165857858Y-117657411D01*
X165757569Y-117595314D01*
X165710182Y-117542447D01*
X165697900Y-117488187D01*
X165697900Y-114597099D01*
X165717902Y-114528978D01*
X165771558Y-114482485D01*
X165823900Y-114471099D01*
X165968464Y-114471099D01*
X165968466Y-114471099D01*
X165968469Y-114471098D01*
X165968472Y-114471098D01*
X166005063Y-114463819D01*
X166042701Y-114456334D01*
X166126884Y-114400084D01*
X166183134Y-114315901D01*
X166197900Y-114241667D01*
X166197899Y-112683534D01*
X166197898Y-112683530D01*
X166197898Y-112683526D01*
X166183134Y-112609299D01*
X166126883Y-112525115D01*
X166042702Y-112468866D01*
X165968467Y-112454100D01*
X164410336Y-112454100D01*
X164410326Y-112454101D01*
X164336099Y-112468865D01*
X164251915Y-112525116D01*
X164195666Y-112609297D01*
X164180900Y-112683530D01*
X164180900Y-114241663D01*
X164180901Y-114241673D01*
X164195665Y-114315900D01*
X164251916Y-114400084D01*
X164336097Y-114456333D01*
X164336099Y-114456334D01*
X164410333Y-114471100D01*
X164554900Y-114471099D01*
X164623020Y-114491101D01*
X164669513Y-114544756D01*
X164680900Y-114597099D01*
X164680900Y-117488187D01*
X164660898Y-117556308D01*
X164621231Y-117595314D01*
X164520941Y-117657411D01*
X164520937Y-117657414D01*
X164369666Y-117795315D01*
X164246313Y-117958663D01*
X164155071Y-118141901D01*
X164099054Y-118338780D01*
X164080168Y-118542595D01*
X163758632Y-118542595D01*
X163739745Y-118338780D01*
X163739745Y-118338779D01*
X163683728Y-118141899D01*
X163592488Y-117958665D01*
X163551404Y-117904261D01*
X163469133Y-117795315D01*
X163317862Y-117657414D01*
X163317858Y-117657411D01*
X163217569Y-117595314D01*
X163170182Y-117542447D01*
X163157900Y-117488187D01*
X163157900Y-114597099D01*
X163177902Y-114528978D01*
X163231558Y-114482485D01*
X163283900Y-114471099D01*
X163428464Y-114471099D01*
X163428466Y-114471099D01*
X163428469Y-114471098D01*
X163428472Y-114471098D01*
X163465063Y-114463819D01*
X163502701Y-114456334D01*
X163586884Y-114400084D01*
X163643134Y-114315901D01*
X163657900Y-114241667D01*
X163657899Y-112683534D01*
X163657898Y-112683530D01*
X163657898Y-112683526D01*
X163643134Y-112609299D01*
X163586883Y-112525115D01*
X163502702Y-112468866D01*
X163428467Y-112454100D01*
X161870336Y-112454100D01*
X161870326Y-112454101D01*
X161796099Y-112468865D01*
X161711915Y-112525116D01*
X161655666Y-112609297D01*
X161640900Y-112683530D01*
X161640900Y-114241663D01*
X161640901Y-114241673D01*
X161655665Y-114315900D01*
X161711916Y-114400084D01*
X161796097Y-114456333D01*
X161796099Y-114456334D01*
X161870333Y-114471100D01*
X162014900Y-114471099D01*
X162083020Y-114491101D01*
X162129513Y-114544756D01*
X162140900Y-114597099D01*
X162140900Y-117488187D01*
X162120898Y-117556308D01*
X162081231Y-117595314D01*
X161980941Y-117657411D01*
X161980937Y-117657414D01*
X161829666Y-117795315D01*
X161706313Y-117958663D01*
X161615071Y-118141901D01*
X161559054Y-118338780D01*
X161540168Y-118542595D01*
X161218632Y-118542595D01*
X161199745Y-118338780D01*
X161199745Y-118338779D01*
X161143728Y-118141899D01*
X161052488Y-117958665D01*
X161011404Y-117904261D01*
X160929133Y-117795315D01*
X160777862Y-117657414D01*
X160777858Y-117657411D01*
X160677569Y-117595314D01*
X160630182Y-117542447D01*
X160617900Y-117488187D01*
X160617900Y-114597099D01*
X160637902Y-114528978D01*
X160691558Y-114482485D01*
X160743900Y-114471099D01*
X160888464Y-114471099D01*
X160888466Y-114471099D01*
X160888469Y-114471098D01*
X160888472Y-114471098D01*
X160925063Y-114463819D01*
X160962701Y-114456334D01*
X161046884Y-114400084D01*
X161103134Y-114315901D01*
X161117900Y-114241667D01*
X161117899Y-112683534D01*
X161117898Y-112683530D01*
X161117898Y-112683526D01*
X161103134Y-112609299D01*
X161046883Y-112525115D01*
X160962702Y-112468866D01*
X160888467Y-112454100D01*
X159330336Y-112454100D01*
X159330326Y-112454101D01*
X159256099Y-112468865D01*
X159171915Y-112525116D01*
X159115666Y-112609297D01*
X159100900Y-112683530D01*
X159100900Y-114241663D01*
X159100901Y-114241673D01*
X159115665Y-114315900D01*
X159171916Y-114400084D01*
X159256097Y-114456333D01*
X159256099Y-114456334D01*
X159330333Y-114471100D01*
X159474900Y-114471099D01*
X159543020Y-114491101D01*
X159589513Y-114544756D01*
X159600900Y-114597099D01*
X159600900Y-117488187D01*
X159580898Y-117556308D01*
X159541231Y-117595314D01*
X159440941Y-117657411D01*
X159440937Y-117657414D01*
X159289666Y-117795315D01*
X159166313Y-117958663D01*
X159075071Y-118141901D01*
X159019054Y-118338780D01*
X159000168Y-118542595D01*
X158678632Y-118542595D01*
X158659745Y-118338780D01*
X158659745Y-118338779D01*
X158603728Y-118141899D01*
X158512488Y-117958665D01*
X158471404Y-117904261D01*
X158389133Y-117795315D01*
X158237862Y-117657414D01*
X158237858Y-117657411D01*
X158137569Y-117595314D01*
X158090182Y-117542447D01*
X158077900Y-117488187D01*
X158077900Y-114597099D01*
X158097902Y-114528978D01*
X158151558Y-114482485D01*
X158203900Y-114471099D01*
X158348464Y-114471099D01*
X158348466Y-114471099D01*
X158348469Y-114471098D01*
X158348472Y-114471098D01*
X158385063Y-114463819D01*
X158422701Y-114456334D01*
X158506884Y-114400084D01*
X158563134Y-114315901D01*
X158577900Y-114241667D01*
X158577899Y-112683534D01*
X158577898Y-112683530D01*
X158577898Y-112683526D01*
X158563134Y-112609299D01*
X158506883Y-112525115D01*
X158422702Y-112468866D01*
X158348467Y-112454100D01*
X156790336Y-112454100D01*
X156790326Y-112454101D01*
X156716099Y-112468865D01*
X156631915Y-112525116D01*
X156575666Y-112609297D01*
X156560900Y-112683530D01*
X156560900Y-114241663D01*
X156560901Y-114241673D01*
X156575665Y-114315900D01*
X156631916Y-114400084D01*
X156716097Y-114456333D01*
X156716099Y-114456334D01*
X156790333Y-114471100D01*
X156934900Y-114471099D01*
X157003020Y-114491101D01*
X157049513Y-114544756D01*
X157060900Y-114597099D01*
X157060900Y-117488187D01*
X157040898Y-117556308D01*
X157001231Y-117595314D01*
X156900941Y-117657411D01*
X156900937Y-117657414D01*
X156749666Y-117795315D01*
X156626313Y-117958663D01*
X156535071Y-118141901D01*
X156479054Y-118338780D01*
X156460168Y-118542595D01*
X156138632Y-118542595D01*
X156119745Y-118338780D01*
X156119745Y-118338779D01*
X156063728Y-118141899D01*
X155972488Y-117958665D01*
X155931404Y-117904261D01*
X155849133Y-117795315D01*
X155697862Y-117657414D01*
X155697858Y-117657411D01*
X155597569Y-117595314D01*
X155550182Y-117542447D01*
X155537900Y-117488187D01*
X155537900Y-114597099D01*
X155557902Y-114528978D01*
X155611558Y-114482485D01*
X155663900Y-114471099D01*
X155808464Y-114471099D01*
X155808466Y-114471099D01*
X155808469Y-114471098D01*
X155808472Y-114471098D01*
X155845063Y-114463819D01*
X155882701Y-114456334D01*
X155966884Y-114400084D01*
X156023134Y-114315901D01*
X156037900Y-114241667D01*
X156037899Y-112683534D01*
X156037898Y-112683530D01*
X156037898Y-112683526D01*
X156023134Y-112609299D01*
X155966883Y-112525115D01*
X155882702Y-112468866D01*
X155808467Y-112454100D01*
X154250336Y-112454100D01*
X154250326Y-112454101D01*
X154176099Y-112468865D01*
X154091915Y-112525116D01*
X154035666Y-112609297D01*
X154020900Y-112683530D01*
X154020900Y-114241663D01*
X154020901Y-114241673D01*
X154035665Y-114315900D01*
X154091916Y-114400084D01*
X154176097Y-114456333D01*
X154176099Y-114456334D01*
X154250333Y-114471100D01*
X154394900Y-114471099D01*
X154463020Y-114491101D01*
X154509513Y-114544756D01*
X154520900Y-114597099D01*
X154520900Y-117488187D01*
X154500898Y-117556308D01*
X154461231Y-117595314D01*
X154360941Y-117657411D01*
X154360937Y-117657414D01*
X154209666Y-117795315D01*
X154086313Y-117958663D01*
X153995071Y-118141901D01*
X153939054Y-118338780D01*
X153920168Y-118542595D01*
X153598632Y-118542595D01*
X153579745Y-118338780D01*
X153579745Y-118338779D01*
X153523728Y-118141899D01*
X153432488Y-117958665D01*
X153391404Y-117904261D01*
X153309133Y-117795315D01*
X153157862Y-117657414D01*
X153157858Y-117657411D01*
X153057569Y-117595314D01*
X153010182Y-117542447D01*
X152997900Y-117488187D01*
X152997900Y-114597099D01*
X153017902Y-114528978D01*
X153071558Y-114482485D01*
X153123900Y-114471099D01*
X153268464Y-114471099D01*
X153268466Y-114471099D01*
X153268469Y-114471098D01*
X153268472Y-114471098D01*
X153305063Y-114463819D01*
X153342701Y-114456334D01*
X153426884Y-114400084D01*
X153483134Y-114315901D01*
X153497900Y-114241667D01*
X153497899Y-112683534D01*
X153497898Y-112683530D01*
X153497898Y-112683526D01*
X153483134Y-112609299D01*
X153426883Y-112525115D01*
X153342702Y-112468866D01*
X153268467Y-112454100D01*
X151710336Y-112454100D01*
X151710326Y-112454101D01*
X151636099Y-112468865D01*
X151551915Y-112525116D01*
X151495666Y-112609297D01*
X151480900Y-112683530D01*
X151480900Y-114241663D01*
X151480901Y-114241673D01*
X151495665Y-114315900D01*
X151551916Y-114400084D01*
X151636097Y-114456333D01*
X151636099Y-114456334D01*
X151710333Y-114471100D01*
X151854900Y-114471099D01*
X151923020Y-114491101D01*
X151969513Y-114544756D01*
X151980900Y-114597099D01*
X151980900Y-117488187D01*
X151960898Y-117556308D01*
X151921231Y-117595314D01*
X151820941Y-117657411D01*
X151820937Y-117657414D01*
X151669666Y-117795315D01*
X151546313Y-117958663D01*
X151455071Y-118141901D01*
X151399054Y-118338780D01*
X151380168Y-118542595D01*
X151058632Y-118542595D01*
X151039745Y-118338780D01*
X151039745Y-118338779D01*
X150983728Y-118141899D01*
X150892488Y-117958665D01*
X150851404Y-117904261D01*
X150769133Y-117795315D01*
X150617862Y-117657414D01*
X150617858Y-117657411D01*
X150517569Y-117595314D01*
X150470182Y-117542447D01*
X150457900Y-117488187D01*
X150457900Y-114597099D01*
X150477902Y-114528978D01*
X150531558Y-114482485D01*
X150583900Y-114471099D01*
X150728464Y-114471099D01*
X150728466Y-114471099D01*
X150728469Y-114471098D01*
X150728472Y-114471098D01*
X150765063Y-114463819D01*
X150802701Y-114456334D01*
X150886884Y-114400084D01*
X150943134Y-114315901D01*
X150957900Y-114241667D01*
X150957899Y-112683534D01*
X150957898Y-112683530D01*
X150957898Y-112683526D01*
X150943134Y-112609299D01*
X150886883Y-112525115D01*
X150802702Y-112468866D01*
X150728467Y-112454100D01*
X149170336Y-112454100D01*
X149170326Y-112454101D01*
X149096099Y-112468865D01*
X149011915Y-112525116D01*
X148955666Y-112609297D01*
X148940900Y-112683530D01*
X148940900Y-114241663D01*
X148940901Y-114241673D01*
X148955665Y-114315900D01*
X149011916Y-114400084D01*
X149096097Y-114456333D01*
X149096099Y-114456334D01*
X149170333Y-114471100D01*
X149314900Y-114471099D01*
X149383020Y-114491101D01*
X149429513Y-114544756D01*
X149440900Y-114597099D01*
X149440900Y-117488187D01*
X149420898Y-117556308D01*
X149381231Y-117595314D01*
X149280941Y-117657411D01*
X149280937Y-117657414D01*
X149129666Y-117795315D01*
X149006313Y-117958663D01*
X148915071Y-118141901D01*
X148859054Y-118338780D01*
X148840168Y-118542595D01*
X148518632Y-118542595D01*
X148499745Y-118338780D01*
X148499745Y-118338779D01*
X148443728Y-118141899D01*
X148352488Y-117958665D01*
X148311404Y-117904261D01*
X148229133Y-117795315D01*
X148077862Y-117657414D01*
X148077858Y-117657411D01*
X147977569Y-117595314D01*
X147930182Y-117542447D01*
X147917900Y-117488187D01*
X147917900Y-114597099D01*
X147937902Y-114528978D01*
X147991558Y-114482485D01*
X148043900Y-114471099D01*
X148188464Y-114471099D01*
X148188466Y-114471099D01*
X148188469Y-114471098D01*
X148188472Y-114471098D01*
X148225063Y-114463819D01*
X148262701Y-114456334D01*
X148346884Y-114400084D01*
X148403134Y-114315901D01*
X148417900Y-114241667D01*
X148417899Y-112683534D01*
X148417898Y-112683530D01*
X148417898Y-112683526D01*
X148403134Y-112609299D01*
X148346883Y-112525115D01*
X148262702Y-112468866D01*
X148188467Y-112454100D01*
X146630336Y-112454100D01*
X146630326Y-112454101D01*
X146556099Y-112468865D01*
X146471915Y-112525116D01*
X146415666Y-112609297D01*
X146400900Y-112683530D01*
X146400900Y-114241663D01*
X146400901Y-114241673D01*
X146415665Y-114315900D01*
X146471916Y-114400084D01*
X146556097Y-114456333D01*
X146556099Y-114456334D01*
X146630333Y-114471100D01*
X146774900Y-114471099D01*
X146843020Y-114491101D01*
X146889513Y-114544756D01*
X146900900Y-114597099D01*
X146900900Y-117488187D01*
X146880898Y-117556308D01*
X146841231Y-117595314D01*
X146740941Y-117657411D01*
X146740937Y-117657414D01*
X146589666Y-117795315D01*
X146466313Y-117958663D01*
X146375071Y-118141901D01*
X146319054Y-118338780D01*
X146300168Y-118542595D01*
X145978632Y-118542595D01*
X145959745Y-118338780D01*
X145959745Y-118338779D01*
X145903728Y-118141899D01*
X145812488Y-117958665D01*
X145771404Y-117904261D01*
X145689133Y-117795315D01*
X145537862Y-117657414D01*
X145537858Y-117657411D01*
X145437569Y-117595314D01*
X145390182Y-117542447D01*
X145377900Y-117488187D01*
X145377900Y-114597099D01*
X145397902Y-114528978D01*
X145451558Y-114482485D01*
X145503900Y-114471099D01*
X145648464Y-114471099D01*
X145648466Y-114471099D01*
X145648469Y-114471098D01*
X145648472Y-114471098D01*
X145685063Y-114463819D01*
X145722701Y-114456334D01*
X145806884Y-114400084D01*
X145863134Y-114315901D01*
X145877900Y-114241667D01*
X145877899Y-112683534D01*
X145877898Y-112683530D01*
X145877898Y-112683526D01*
X145863134Y-112609299D01*
X145806883Y-112525115D01*
X145722702Y-112468866D01*
X145648467Y-112454100D01*
X144090336Y-112454100D01*
X144090326Y-112454101D01*
X144016099Y-112468865D01*
X143931915Y-112525116D01*
X143875666Y-112609297D01*
X143860900Y-112683530D01*
X143860900Y-114241663D01*
X143860901Y-114241673D01*
X143875665Y-114315900D01*
X143931916Y-114400084D01*
X144016097Y-114456333D01*
X144016099Y-114456334D01*
X144090333Y-114471100D01*
X144234900Y-114471099D01*
X144303020Y-114491101D01*
X144349513Y-114544756D01*
X144360900Y-114597099D01*
X144360900Y-117488187D01*
X144340898Y-117556308D01*
X144301231Y-117595314D01*
X144200941Y-117657411D01*
X144200937Y-117657414D01*
X144049666Y-117795315D01*
X143926313Y-117958663D01*
X143835071Y-118141901D01*
X143779054Y-118338780D01*
X143760168Y-118542595D01*
X143438632Y-118542595D01*
X143419745Y-118338780D01*
X143419745Y-118338779D01*
X143363728Y-118141899D01*
X143272488Y-117958665D01*
X143231404Y-117904261D01*
X143149133Y-117795315D01*
X142997862Y-117657414D01*
X142997858Y-117657411D01*
X142897569Y-117595314D01*
X142850182Y-117542447D01*
X142837900Y-117488187D01*
X142837900Y-114597099D01*
X142857902Y-114528978D01*
X142911558Y-114482485D01*
X142963900Y-114471099D01*
X143108464Y-114471099D01*
X143108466Y-114471099D01*
X143108469Y-114471098D01*
X143108472Y-114471098D01*
X143145063Y-114463819D01*
X143182701Y-114456334D01*
X143266884Y-114400084D01*
X143323134Y-114315901D01*
X143337900Y-114241667D01*
X143337899Y-112683534D01*
X143337898Y-112683530D01*
X143337898Y-112683526D01*
X143323134Y-112609299D01*
X143266883Y-112525115D01*
X143182702Y-112468866D01*
X143108467Y-112454100D01*
X141550336Y-112454100D01*
X141550326Y-112454101D01*
X141476099Y-112468865D01*
X141391915Y-112525116D01*
X141335666Y-112609297D01*
X141320900Y-112683530D01*
X141320900Y-114241663D01*
X141320901Y-114241673D01*
X141335665Y-114315900D01*
X141391916Y-114400084D01*
X141476097Y-114456333D01*
X141476099Y-114456334D01*
X141550333Y-114471100D01*
X141694900Y-114471099D01*
X141763020Y-114491101D01*
X141809513Y-114544756D01*
X141820900Y-114597099D01*
X141820900Y-117488187D01*
X141800898Y-117556308D01*
X141761231Y-117595314D01*
X141660941Y-117657411D01*
X141660937Y-117657414D01*
X141509666Y-117795315D01*
X141386313Y-117958663D01*
X141295071Y-118141901D01*
X141239054Y-118338780D01*
X141220168Y-118542595D01*
X140898632Y-118542595D01*
X140879745Y-118338780D01*
X140879745Y-118338779D01*
X140823728Y-118141899D01*
X140732488Y-117958665D01*
X140691404Y-117904261D01*
X140609133Y-117795315D01*
X140457862Y-117657414D01*
X140457858Y-117657411D01*
X140357569Y-117595314D01*
X140310182Y-117542447D01*
X140297900Y-117488187D01*
X140297900Y-114597099D01*
X140317902Y-114528978D01*
X140371558Y-114482485D01*
X140423900Y-114471099D01*
X140568464Y-114471099D01*
X140568466Y-114471099D01*
X140568469Y-114471098D01*
X140568472Y-114471098D01*
X140605063Y-114463819D01*
X140642701Y-114456334D01*
X140726884Y-114400084D01*
X140783134Y-114315901D01*
X140797900Y-114241667D01*
X140797899Y-112683534D01*
X140797898Y-112683530D01*
X140797898Y-112683526D01*
X140783134Y-112609299D01*
X140726883Y-112525115D01*
X140642702Y-112468866D01*
X140568467Y-112454100D01*
X139010336Y-112454100D01*
X139010326Y-112454101D01*
X138936099Y-112468865D01*
X138851915Y-112525116D01*
X138795666Y-112609297D01*
X138780900Y-112683530D01*
X138780900Y-114241663D01*
X138780901Y-114241673D01*
X138795665Y-114315900D01*
X138851916Y-114400084D01*
X138936097Y-114456333D01*
X138936099Y-114456334D01*
X139010333Y-114471100D01*
X139154900Y-114471099D01*
X139223020Y-114491101D01*
X139269513Y-114544756D01*
X139280900Y-114597099D01*
X139280900Y-117488187D01*
X139260898Y-117556308D01*
X139221231Y-117595314D01*
X139120941Y-117657411D01*
X139120937Y-117657414D01*
X138969666Y-117795315D01*
X138846313Y-117958663D01*
X138755071Y-118141901D01*
X138699054Y-118338780D01*
X138680168Y-118542595D01*
X138358632Y-118542595D01*
X138339745Y-118338780D01*
X138339745Y-118338779D01*
X138283728Y-118141899D01*
X138192488Y-117958665D01*
X138151404Y-117904261D01*
X138069133Y-117795315D01*
X137917862Y-117657414D01*
X137917858Y-117657411D01*
X137817569Y-117595314D01*
X137770182Y-117542447D01*
X137757900Y-117488187D01*
X137757900Y-114597099D01*
X137777902Y-114528978D01*
X137831558Y-114482485D01*
X137883900Y-114471099D01*
X138028464Y-114471099D01*
X138028466Y-114471099D01*
X138028469Y-114471098D01*
X138028472Y-114471098D01*
X138065063Y-114463819D01*
X138102701Y-114456334D01*
X138186884Y-114400084D01*
X138243134Y-114315901D01*
X138257900Y-114241667D01*
X138257899Y-112683534D01*
X138257898Y-112683530D01*
X138257898Y-112683526D01*
X138243134Y-112609299D01*
X138186883Y-112525115D01*
X138102702Y-112468866D01*
X138028467Y-112454100D01*
X136470336Y-112454100D01*
X136470326Y-112454101D01*
X136396099Y-112468865D01*
X136311915Y-112525116D01*
X136255666Y-112609297D01*
X136240900Y-112683530D01*
X136240900Y-114241663D01*
X136240901Y-114241673D01*
X136255665Y-114315900D01*
X136311916Y-114400084D01*
X136396097Y-114456333D01*
X136396099Y-114456334D01*
X136470333Y-114471100D01*
X136614900Y-114471099D01*
X136683020Y-114491101D01*
X136729513Y-114544756D01*
X136740900Y-114597099D01*
X136740900Y-117488187D01*
X136720898Y-117556308D01*
X136681231Y-117595314D01*
X136580941Y-117657411D01*
X136580937Y-117657414D01*
X136429666Y-117795315D01*
X136306313Y-117958663D01*
X136215071Y-118141901D01*
X136159054Y-118338780D01*
X136140168Y-118542595D01*
X133840208Y-118542595D01*
X133727231Y-118335692D01*
X133727227Y-118335687D01*
X133652298Y-118235593D01*
X133555739Y-118106605D01*
X133555737Y-118106603D01*
X133555729Y-118106594D01*
X133353405Y-117904270D01*
X133353396Y-117904262D01*
X133124312Y-117732772D01*
X133124307Y-117732768D01*
X132873170Y-117595637D01*
X132873160Y-117595632D01*
X132605046Y-117495631D01*
X132325424Y-117434803D01*
X132040000Y-117414390D01*
X131754575Y-117434803D01*
X131474953Y-117495631D01*
X131206839Y-117595632D01*
X131206829Y-117595637D01*
X130955692Y-117732768D01*
X130955687Y-117732772D01*
X130726603Y-117904262D01*
X130726594Y-117904270D01*
X130524270Y-118106594D01*
X130524262Y-118106603D01*
X130352772Y-118335687D01*
X130277087Y-118474294D01*
X130226885Y-118524496D01*
X130157511Y-118539587D01*
X130090991Y-118514776D01*
X130048444Y-118457940D01*
X130040500Y-118413908D01*
X130040500Y-107456623D01*
X130060502Y-107388502D01*
X130114158Y-107342009D01*
X130184432Y-107331905D01*
X130249012Y-107361399D01*
X130255595Y-107367528D01*
X131027995Y-108139928D01*
X131062021Y-108202240D01*
X131064900Y-108229023D01*
X131064900Y-109257663D01*
X131064901Y-109257673D01*
X131079665Y-109331900D01*
X131135916Y-109416084D01*
X131220097Y-109472333D01*
X131220099Y-109472334D01*
X131294333Y-109487100D01*
X131485120Y-109487099D01*
X131553238Y-109507101D01*
X131599731Y-109560756D01*
X131609836Y-109631030D01*
X131580343Y-109695611D01*
X131538370Y-109727293D01*
X131491822Y-109748999D01*
X131298325Y-109884487D01*
X131298319Y-109884492D01*
X131131292Y-110051519D01*
X131131287Y-110051525D01*
X130995800Y-110245021D01*
X130895970Y-110459106D01*
X130895968Y-110459111D01*
X130838763Y-110672600D01*
X131736388Y-110672600D01*
X131703475Y-110729607D01*
X131669400Y-110856774D01*
X131669400Y-110988426D01*
X131703475Y-111115593D01*
X131736388Y-111172600D01*
X130838764Y-111172600D01*
X130895968Y-111386088D01*
X130895970Y-111386093D01*
X130995799Y-111600177D01*
X130995800Y-111600179D01*
X131131286Y-111793673D01*
X131131293Y-111793682D01*
X131298317Y-111960706D01*
X131298326Y-111960713D01*
X131491820Y-112096199D01*
X131491822Y-112096200D01*
X131705906Y-112196029D01*
X131705910Y-112196031D01*
X131919400Y-112253235D01*
X131919400Y-111355612D01*
X131976407Y-111388525D01*
X132103574Y-111422600D01*
X132235226Y-111422600D01*
X132362393Y-111388525D01*
X132419400Y-111355612D01*
X132419400Y-112253234D01*
X132632889Y-112196031D01*
X132632893Y-112196029D01*
X132846977Y-112096200D01*
X132846979Y-112096199D01*
X133040473Y-111960713D01*
X133040482Y-111960706D01*
X133207506Y-111793682D01*
X133207513Y-111793673D01*
X133342999Y-111600179D01*
X133343000Y-111600177D01*
X133442829Y-111386093D01*
X133442831Y-111386088D01*
X133500036Y-111172600D01*
X132602412Y-111172600D01*
X132635325Y-111115593D01*
X132669400Y-110988426D01*
X132669400Y-110856774D01*
X132635325Y-110729607D01*
X132602412Y-110672600D01*
X133500036Y-110672600D01*
X133442831Y-110459111D01*
X133442829Y-110459106D01*
X133342999Y-110245021D01*
X133207512Y-110051525D01*
X133040476Y-109884488D01*
X133040473Y-109884486D01*
X132846979Y-109749000D01*
X132846977Y-109748999D01*
X132800430Y-109727294D01*
X132747145Y-109680377D01*
X132727684Y-109612100D01*
X132748226Y-109544140D01*
X132802248Y-109498074D01*
X132853679Y-109487099D01*
X133044466Y-109487099D01*
X133044469Y-109487098D01*
X133044473Y-109487098D01*
X133093726Y-109477301D01*
X133118701Y-109472334D01*
X133202884Y-109416084D01*
X133259134Y-109331901D01*
X133273900Y-109257667D01*
X133273899Y-107507534D01*
X133273898Y-107507531D01*
X133273898Y-107507526D01*
X133259134Y-107433299D01*
X133229201Y-107388502D01*
X133202884Y-107349116D01*
X133192248Y-107342009D01*
X133118702Y-107292866D01*
X133044469Y-107278100D01*
X133044467Y-107278100D01*
X132015823Y-107278100D01*
X131947702Y-107258098D01*
X131926728Y-107241195D01*
X130982805Y-106297272D01*
X130948779Y-106234960D01*
X130945900Y-106208177D01*
X130945900Y-100482479D01*
X130965902Y-100414358D01*
X131019558Y-100367865D01*
X131089832Y-100357761D01*
X131154412Y-100387255D01*
X131160995Y-100393384D01*
X131298317Y-100530706D01*
X131298326Y-100530713D01*
X131491820Y-100666199D01*
X131491822Y-100666200D01*
X131705906Y-100766029D01*
X131705910Y-100766031D01*
X131919400Y-100823235D01*
X131919400Y-99925612D01*
X131976407Y-99958525D01*
X132103574Y-99992600D01*
X132235226Y-99992600D01*
X132362393Y-99958525D01*
X132419400Y-99925612D01*
X132419400Y-100823234D01*
X132632889Y-100766031D01*
X132632893Y-100766029D01*
X132846977Y-100666200D01*
X132846979Y-100666199D01*
X133040473Y-100530713D01*
X133040482Y-100530706D01*
X133207506Y-100363682D01*
X133207513Y-100363673D01*
X133342999Y-100170179D01*
X133343000Y-100170177D01*
X133442829Y-99956093D01*
X133442831Y-99956088D01*
X133500036Y-99742600D01*
X132602412Y-99742600D01*
X132635325Y-99685593D01*
X132669400Y-99558426D01*
X132669400Y-99426774D01*
X132635325Y-99299607D01*
X132602412Y-99242600D01*
X133500036Y-99242600D01*
X133442831Y-99029111D01*
X133442829Y-99029106D01*
X133342999Y-98815021D01*
X133207512Y-98621525D01*
X133040476Y-98454488D01*
X133040473Y-98454486D01*
X132846979Y-98319000D01*
X132846977Y-98318999D01*
X132800430Y-98297294D01*
X132747145Y-98250377D01*
X132727684Y-98182100D01*
X132748226Y-98114140D01*
X132802248Y-98068074D01*
X132853679Y-98057099D01*
X133044466Y-98057099D01*
X133044469Y-98057098D01*
X133044473Y-98057098D01*
X133093726Y-98047301D01*
X133118701Y-98042334D01*
X133202884Y-97986084D01*
X133259134Y-97901901D01*
X133273900Y-97827667D01*
X133273899Y-96077534D01*
X133273898Y-96077531D01*
X133273898Y-96077526D01*
X133259134Y-96003299D01*
X133202883Y-95919115D01*
X133118702Y-95862866D01*
X133044469Y-95848100D01*
X133044467Y-95848100D01*
X132930900Y-95848100D01*
X132862779Y-95828098D01*
X132816286Y-95774442D01*
X132804900Y-95722100D01*
X132804900Y-91410522D01*
X132824902Y-91342401D01*
X132841800Y-91321432D01*
X134435702Y-89727530D01*
X136144900Y-89727530D01*
X136144900Y-91477663D01*
X136144901Y-91477673D01*
X136159665Y-91551900D01*
X136215916Y-91636084D01*
X136300097Y-91692333D01*
X136300099Y-91692334D01*
X136374333Y-91707100D01*
X136614900Y-91707099D01*
X136683020Y-91727101D01*
X136729513Y-91780756D01*
X136740900Y-91833099D01*
X136740900Y-94548100D01*
X136720898Y-94616221D01*
X136667242Y-94662714D01*
X136614901Y-94674100D01*
X136470336Y-94674100D01*
X136470326Y-94674101D01*
X136396099Y-94688865D01*
X136311915Y-94745116D01*
X136255666Y-94829297D01*
X136240900Y-94903530D01*
X136240900Y-96461663D01*
X136240901Y-96461673D01*
X136255665Y-96535900D01*
X136311916Y-96620084D01*
X136396097Y-96676333D01*
X136396099Y-96676334D01*
X136470333Y-96691100D01*
X138028466Y-96691099D01*
X138028469Y-96691098D01*
X138028473Y-96691098D01*
X138077726Y-96681301D01*
X138102701Y-96676334D01*
X138186884Y-96620084D01*
X138243134Y-96535901D01*
X138257900Y-96461667D01*
X138257899Y-94903534D01*
X138257898Y-94903530D01*
X138257898Y-94903526D01*
X138243134Y-94829299D01*
X138186883Y-94745115D01*
X138102702Y-94688866D01*
X138028469Y-94674100D01*
X138028467Y-94674100D01*
X137883900Y-94674100D01*
X137815779Y-94654098D01*
X137769286Y-94600442D01*
X137757900Y-94548100D01*
X137757900Y-91833099D01*
X137777902Y-91764978D01*
X137831558Y-91718485D01*
X137883900Y-91707099D01*
X138124464Y-91707099D01*
X138124466Y-91707099D01*
X138124469Y-91707098D01*
X138124472Y-91707098D01*
X138161063Y-91699819D01*
X138198701Y-91692334D01*
X138282884Y-91636084D01*
X138339134Y-91551901D01*
X138353900Y-91477667D01*
X138353899Y-90602595D01*
X138680168Y-90602595D01*
X138680168Y-90602604D01*
X138699054Y-90806419D01*
X138699055Y-90806421D01*
X138755072Y-91003301D01*
X138846312Y-91186535D01*
X138846313Y-91186536D01*
X138969666Y-91349884D01*
X139120935Y-91487784D01*
X139120937Y-91487785D01*
X139120938Y-91487786D01*
X139221232Y-91549885D01*
X139268618Y-91602750D01*
X139280900Y-91657011D01*
X139280900Y-94548100D01*
X139260898Y-94616221D01*
X139207242Y-94662714D01*
X139154901Y-94674100D01*
X139010336Y-94674100D01*
X139010326Y-94674101D01*
X138936099Y-94688865D01*
X138851915Y-94745116D01*
X138795666Y-94829297D01*
X138780900Y-94903530D01*
X138780900Y-96461663D01*
X138780901Y-96461673D01*
X138795665Y-96535900D01*
X138851916Y-96620084D01*
X138936097Y-96676333D01*
X138936099Y-96676334D01*
X139010333Y-96691100D01*
X140568466Y-96691099D01*
X140568469Y-96691098D01*
X140568473Y-96691098D01*
X140617726Y-96681301D01*
X140642701Y-96676334D01*
X140726884Y-96620084D01*
X140783134Y-96535901D01*
X140797900Y-96461667D01*
X140797899Y-94903534D01*
X140797898Y-94903530D01*
X140797898Y-94903526D01*
X140783134Y-94829299D01*
X140726883Y-94745115D01*
X140642702Y-94688866D01*
X140568469Y-94674100D01*
X140568467Y-94674100D01*
X140423900Y-94674100D01*
X140355779Y-94654098D01*
X140309286Y-94600442D01*
X140297900Y-94548100D01*
X140297900Y-91657011D01*
X140317902Y-91588890D01*
X140357567Y-91549885D01*
X140457862Y-91487786D01*
X140609132Y-91349885D01*
X140732488Y-91186535D01*
X140823728Y-91003301D01*
X140879745Y-90806421D01*
X140886040Y-90738480D01*
X140898632Y-90602604D01*
X140898632Y-90602595D01*
X141220168Y-90602595D01*
X141220168Y-90602604D01*
X141239054Y-90806419D01*
X141239055Y-90806421D01*
X141295072Y-91003301D01*
X141386312Y-91186535D01*
X141386313Y-91186536D01*
X141509666Y-91349884D01*
X141660935Y-91487784D01*
X141660937Y-91487785D01*
X141660938Y-91487786D01*
X141761232Y-91549885D01*
X141808618Y-91602750D01*
X141820900Y-91657011D01*
X141820900Y-94548100D01*
X141800898Y-94616221D01*
X141747242Y-94662714D01*
X141694901Y-94674100D01*
X141550336Y-94674100D01*
X141550326Y-94674101D01*
X141476099Y-94688865D01*
X141391915Y-94745116D01*
X141335666Y-94829297D01*
X141320900Y-94903530D01*
X141320900Y-96461663D01*
X141320901Y-96461673D01*
X141335665Y-96535900D01*
X141391916Y-96620084D01*
X141476097Y-96676333D01*
X141476099Y-96676334D01*
X141550333Y-96691100D01*
X143108466Y-96691099D01*
X143108469Y-96691098D01*
X143108473Y-96691098D01*
X143157726Y-96681301D01*
X143182701Y-96676334D01*
X143266884Y-96620084D01*
X143323134Y-96535901D01*
X143337900Y-96461667D01*
X143337899Y-94903534D01*
X143337898Y-94903530D01*
X143337898Y-94903526D01*
X143323134Y-94829299D01*
X143266883Y-94745115D01*
X143182702Y-94688866D01*
X143108469Y-94674100D01*
X143108467Y-94674100D01*
X142963900Y-94674100D01*
X142895779Y-94654098D01*
X142849286Y-94600442D01*
X142837900Y-94548100D01*
X142837900Y-91657011D01*
X142857902Y-91588890D01*
X142897567Y-91549885D01*
X142997862Y-91487786D01*
X143149132Y-91349885D01*
X143272488Y-91186535D01*
X143363728Y-91003301D01*
X143419745Y-90806421D01*
X143426040Y-90738480D01*
X143438632Y-90602604D01*
X143438632Y-90602595D01*
X143760168Y-90602595D01*
X143760168Y-90602604D01*
X143779054Y-90806419D01*
X143779055Y-90806421D01*
X143835072Y-91003301D01*
X143926312Y-91186535D01*
X143926313Y-91186536D01*
X144049666Y-91349884D01*
X144200935Y-91487784D01*
X144200937Y-91487785D01*
X144200938Y-91487786D01*
X144301232Y-91549885D01*
X144348618Y-91602750D01*
X144360900Y-91657011D01*
X144360900Y-94548100D01*
X144340898Y-94616221D01*
X144287242Y-94662714D01*
X144234901Y-94674100D01*
X144090336Y-94674100D01*
X144090326Y-94674101D01*
X144016099Y-94688865D01*
X143931915Y-94745116D01*
X143875666Y-94829297D01*
X143860900Y-94903530D01*
X143860900Y-96461663D01*
X143860901Y-96461673D01*
X143875665Y-96535900D01*
X143931916Y-96620084D01*
X144016097Y-96676333D01*
X144016099Y-96676334D01*
X144090333Y-96691100D01*
X145648466Y-96691099D01*
X145648469Y-96691098D01*
X145648473Y-96691098D01*
X145697726Y-96681301D01*
X145722701Y-96676334D01*
X145806884Y-96620084D01*
X145863134Y-96535901D01*
X145877900Y-96461667D01*
X145877899Y-94903534D01*
X145877898Y-94903530D01*
X145877898Y-94903526D01*
X145863134Y-94829299D01*
X145806883Y-94745115D01*
X145722702Y-94688866D01*
X145648469Y-94674100D01*
X145648467Y-94674100D01*
X145503900Y-94674100D01*
X145435779Y-94654098D01*
X145389286Y-94600442D01*
X145377900Y-94548100D01*
X145377900Y-91657011D01*
X145397902Y-91588890D01*
X145437567Y-91549885D01*
X145537862Y-91487786D01*
X145689132Y-91349885D01*
X145812488Y-91186535D01*
X145903728Y-91003301D01*
X145959745Y-90806421D01*
X145966040Y-90738480D01*
X145978632Y-90602604D01*
X145978632Y-90602595D01*
X146300168Y-90602595D01*
X146300168Y-90602604D01*
X146319054Y-90806419D01*
X146319055Y-90806421D01*
X146375072Y-91003301D01*
X146466312Y-91186535D01*
X146466313Y-91186536D01*
X146589666Y-91349884D01*
X146740935Y-91487784D01*
X146740937Y-91487785D01*
X146740938Y-91487786D01*
X146841232Y-91549885D01*
X146888618Y-91602750D01*
X146900900Y-91657011D01*
X146900900Y-94548100D01*
X146880898Y-94616221D01*
X146827242Y-94662714D01*
X146774901Y-94674100D01*
X146630336Y-94674100D01*
X146630326Y-94674101D01*
X146556099Y-94688865D01*
X146471915Y-94745116D01*
X146415666Y-94829297D01*
X146400900Y-94903530D01*
X146400900Y-96461663D01*
X146400901Y-96461673D01*
X146415665Y-96535900D01*
X146471916Y-96620084D01*
X146556097Y-96676333D01*
X146556099Y-96676334D01*
X146630333Y-96691100D01*
X148188466Y-96691099D01*
X148188469Y-96691098D01*
X148188473Y-96691098D01*
X148237726Y-96681301D01*
X148262701Y-96676334D01*
X148346884Y-96620084D01*
X148403134Y-96535901D01*
X148417900Y-96461667D01*
X148417899Y-94903534D01*
X148417898Y-94903530D01*
X148417898Y-94903526D01*
X148403134Y-94829299D01*
X148346883Y-94745115D01*
X148262702Y-94688866D01*
X148188469Y-94674100D01*
X148188467Y-94674100D01*
X148043900Y-94674100D01*
X147975779Y-94654098D01*
X147929286Y-94600442D01*
X147917900Y-94548100D01*
X147917900Y-91657011D01*
X147937902Y-91588890D01*
X147977567Y-91549885D01*
X148077862Y-91487786D01*
X148229132Y-91349885D01*
X148352488Y-91186535D01*
X148443728Y-91003301D01*
X148499745Y-90806421D01*
X148506040Y-90738480D01*
X148518632Y-90602604D01*
X148518632Y-90602595D01*
X148840168Y-90602595D01*
X148840168Y-90602604D01*
X148859054Y-90806419D01*
X148859055Y-90806421D01*
X148915072Y-91003301D01*
X149006312Y-91186535D01*
X149006313Y-91186536D01*
X149129666Y-91349884D01*
X149280935Y-91487784D01*
X149280937Y-91487785D01*
X149280938Y-91487786D01*
X149381232Y-91549885D01*
X149428618Y-91602750D01*
X149440900Y-91657011D01*
X149440900Y-94548100D01*
X149420898Y-94616221D01*
X149367242Y-94662714D01*
X149314901Y-94674100D01*
X149170336Y-94674100D01*
X149170326Y-94674101D01*
X149096099Y-94688865D01*
X149011915Y-94745116D01*
X148955666Y-94829297D01*
X148940900Y-94903530D01*
X148940900Y-96461663D01*
X148940901Y-96461673D01*
X148955665Y-96535900D01*
X149011916Y-96620084D01*
X149096097Y-96676333D01*
X149096099Y-96676334D01*
X149170333Y-96691100D01*
X150728466Y-96691099D01*
X150728469Y-96691098D01*
X150728473Y-96691098D01*
X150777726Y-96681301D01*
X150802701Y-96676334D01*
X150886884Y-96620084D01*
X150943134Y-96535901D01*
X150957900Y-96461667D01*
X150957899Y-94903534D01*
X150957898Y-94903530D01*
X150957898Y-94903526D01*
X150943134Y-94829299D01*
X150886883Y-94745115D01*
X150802702Y-94688866D01*
X150728469Y-94674100D01*
X150728467Y-94674100D01*
X150583900Y-94674100D01*
X150515779Y-94654098D01*
X150469286Y-94600442D01*
X150457900Y-94548100D01*
X150457900Y-91657011D01*
X150477902Y-91588890D01*
X150517567Y-91549885D01*
X150617862Y-91487786D01*
X150769132Y-91349885D01*
X150892488Y-91186535D01*
X150983728Y-91003301D01*
X151039745Y-90806421D01*
X151046040Y-90738480D01*
X151058632Y-90602604D01*
X151058632Y-90602595D01*
X151380168Y-90602595D01*
X151380168Y-90602604D01*
X151399054Y-90806419D01*
X151399055Y-90806421D01*
X151455072Y-91003301D01*
X151546312Y-91186535D01*
X151546313Y-91186536D01*
X151669666Y-91349884D01*
X151820935Y-91487784D01*
X151820937Y-91487785D01*
X151820938Y-91487786D01*
X151921232Y-91549885D01*
X151968618Y-91602750D01*
X151980900Y-91657011D01*
X151980900Y-94548100D01*
X151960898Y-94616221D01*
X151907242Y-94662714D01*
X151854901Y-94674100D01*
X151710336Y-94674100D01*
X151710326Y-94674101D01*
X151636099Y-94688865D01*
X151551915Y-94745116D01*
X151495666Y-94829297D01*
X151480900Y-94903530D01*
X151480900Y-96461663D01*
X151480901Y-96461673D01*
X151495665Y-96535900D01*
X151551916Y-96620084D01*
X151636097Y-96676333D01*
X151636099Y-96676334D01*
X151710333Y-96691100D01*
X153268466Y-96691099D01*
X153268469Y-96691098D01*
X153268473Y-96691098D01*
X153317726Y-96681301D01*
X153342701Y-96676334D01*
X153426884Y-96620084D01*
X153483134Y-96535901D01*
X153497900Y-96461667D01*
X153497899Y-94903534D01*
X153497898Y-94903530D01*
X153497898Y-94903526D01*
X153483134Y-94829299D01*
X153426883Y-94745115D01*
X153342702Y-94688866D01*
X153268469Y-94674100D01*
X153268467Y-94674100D01*
X153123900Y-94674100D01*
X153055779Y-94654098D01*
X153009286Y-94600442D01*
X152997900Y-94548100D01*
X152997900Y-91657011D01*
X153017902Y-91588890D01*
X153057567Y-91549885D01*
X153157862Y-91487786D01*
X153309132Y-91349885D01*
X153432488Y-91186535D01*
X153523728Y-91003301D01*
X153579745Y-90806421D01*
X153586040Y-90738480D01*
X153598632Y-90602604D01*
X153598632Y-90602595D01*
X153920168Y-90602595D01*
X153920168Y-90602604D01*
X153939054Y-90806419D01*
X153939055Y-90806421D01*
X153995072Y-91003301D01*
X154086312Y-91186535D01*
X154086313Y-91186536D01*
X154209666Y-91349884D01*
X154360935Y-91487784D01*
X154360937Y-91487785D01*
X154360938Y-91487786D01*
X154461232Y-91549885D01*
X154508618Y-91602750D01*
X154520900Y-91657011D01*
X154520900Y-94548100D01*
X154500898Y-94616221D01*
X154447242Y-94662714D01*
X154394901Y-94674100D01*
X154250336Y-94674100D01*
X154250326Y-94674101D01*
X154176099Y-94688865D01*
X154091915Y-94745116D01*
X154035666Y-94829297D01*
X154020900Y-94903530D01*
X154020900Y-96461663D01*
X154020901Y-96461673D01*
X154035665Y-96535900D01*
X154091916Y-96620084D01*
X154176097Y-96676333D01*
X154176099Y-96676334D01*
X154250333Y-96691100D01*
X155808466Y-96691099D01*
X155808469Y-96691098D01*
X155808473Y-96691098D01*
X155857726Y-96681301D01*
X155882701Y-96676334D01*
X155966884Y-96620084D01*
X156023134Y-96535901D01*
X156037900Y-96461667D01*
X156037899Y-94903534D01*
X156037898Y-94903530D01*
X156037898Y-94903526D01*
X156023134Y-94829299D01*
X155966883Y-94745115D01*
X155882702Y-94688866D01*
X155808469Y-94674100D01*
X155808467Y-94674100D01*
X155663900Y-94674100D01*
X155595779Y-94654098D01*
X155549286Y-94600442D01*
X155537900Y-94548100D01*
X155537900Y-91657011D01*
X155557902Y-91588890D01*
X155597567Y-91549885D01*
X155697862Y-91487786D01*
X155849132Y-91349885D01*
X155972488Y-91186535D01*
X156063728Y-91003301D01*
X156119745Y-90806421D01*
X156126040Y-90738480D01*
X156138632Y-90602604D01*
X156138632Y-90602595D01*
X156460168Y-90602595D01*
X156460168Y-90602604D01*
X156479054Y-90806419D01*
X156479055Y-90806421D01*
X156535072Y-91003301D01*
X156626312Y-91186535D01*
X156626313Y-91186536D01*
X156749666Y-91349884D01*
X156900935Y-91487784D01*
X156900937Y-91487785D01*
X156900938Y-91487786D01*
X157001232Y-91549885D01*
X157048618Y-91602750D01*
X157060900Y-91657011D01*
X157060900Y-94548100D01*
X157040898Y-94616221D01*
X156987242Y-94662714D01*
X156934901Y-94674100D01*
X156790336Y-94674100D01*
X156790326Y-94674101D01*
X156716099Y-94688865D01*
X156631915Y-94745116D01*
X156575666Y-94829297D01*
X156560900Y-94903530D01*
X156560900Y-96461663D01*
X156560901Y-96461673D01*
X156575665Y-96535900D01*
X156631916Y-96620084D01*
X156716097Y-96676333D01*
X156716099Y-96676334D01*
X156790333Y-96691100D01*
X158348466Y-96691099D01*
X158348469Y-96691098D01*
X158348473Y-96691098D01*
X158397726Y-96681301D01*
X158422701Y-96676334D01*
X158506884Y-96620084D01*
X158563134Y-96535901D01*
X158577900Y-96461667D01*
X158577899Y-94903534D01*
X158577898Y-94903530D01*
X158577898Y-94903526D01*
X158563134Y-94829299D01*
X158506883Y-94745115D01*
X158422702Y-94688866D01*
X158348469Y-94674100D01*
X158348467Y-94674100D01*
X158203900Y-94674100D01*
X158135779Y-94654098D01*
X158089286Y-94600442D01*
X158077900Y-94548100D01*
X158077900Y-91657011D01*
X158097902Y-91588890D01*
X158137567Y-91549885D01*
X158237862Y-91487786D01*
X158389132Y-91349885D01*
X158512488Y-91186535D01*
X158603728Y-91003301D01*
X158659745Y-90806421D01*
X158666040Y-90738480D01*
X158678632Y-90602604D01*
X158678632Y-90602595D01*
X159000168Y-90602595D01*
X159000168Y-90602604D01*
X159019054Y-90806419D01*
X159019055Y-90806421D01*
X159075072Y-91003301D01*
X159166312Y-91186535D01*
X159166313Y-91186536D01*
X159289666Y-91349884D01*
X159440935Y-91487784D01*
X159440937Y-91487785D01*
X159440938Y-91487786D01*
X159541232Y-91549885D01*
X159588618Y-91602750D01*
X159600900Y-91657011D01*
X159600900Y-94548100D01*
X159580898Y-94616221D01*
X159527242Y-94662714D01*
X159474901Y-94674100D01*
X159330336Y-94674100D01*
X159330326Y-94674101D01*
X159256099Y-94688865D01*
X159171915Y-94745116D01*
X159115666Y-94829297D01*
X159100900Y-94903530D01*
X159100900Y-96461663D01*
X159100901Y-96461673D01*
X159115665Y-96535900D01*
X159171916Y-96620084D01*
X159256097Y-96676333D01*
X159256099Y-96676334D01*
X159330333Y-96691100D01*
X160888466Y-96691099D01*
X160888469Y-96691098D01*
X160888473Y-96691098D01*
X160937726Y-96681301D01*
X160962701Y-96676334D01*
X161046884Y-96620084D01*
X161103134Y-96535901D01*
X161117900Y-96461667D01*
X161117899Y-94903534D01*
X161117898Y-94903530D01*
X161117898Y-94903526D01*
X161103134Y-94829299D01*
X161046883Y-94745115D01*
X160962702Y-94688866D01*
X160888469Y-94674100D01*
X160888467Y-94674100D01*
X160743900Y-94674100D01*
X160675779Y-94654098D01*
X160629286Y-94600442D01*
X160617900Y-94548100D01*
X160617900Y-91657011D01*
X160637902Y-91588890D01*
X160677567Y-91549885D01*
X160777862Y-91487786D01*
X160929132Y-91349885D01*
X161052488Y-91186535D01*
X161143728Y-91003301D01*
X161199745Y-90806421D01*
X161206040Y-90738480D01*
X161218632Y-90602604D01*
X161218632Y-90602595D01*
X161540168Y-90602595D01*
X161540168Y-90602604D01*
X161559054Y-90806419D01*
X161559055Y-90806421D01*
X161615072Y-91003301D01*
X161706312Y-91186535D01*
X161706313Y-91186536D01*
X161829666Y-91349884D01*
X161980935Y-91487784D01*
X161980937Y-91487785D01*
X161980938Y-91487786D01*
X162081232Y-91549885D01*
X162128618Y-91602750D01*
X162140900Y-91657011D01*
X162140900Y-94548100D01*
X162120898Y-94616221D01*
X162067242Y-94662714D01*
X162014901Y-94674100D01*
X161870336Y-94674100D01*
X161870326Y-94674101D01*
X161796099Y-94688865D01*
X161711915Y-94745116D01*
X161655666Y-94829297D01*
X161640900Y-94903530D01*
X161640900Y-96461663D01*
X161640901Y-96461673D01*
X161655665Y-96535900D01*
X161711916Y-96620084D01*
X161796097Y-96676333D01*
X161796099Y-96676334D01*
X161870333Y-96691100D01*
X163428466Y-96691099D01*
X163428469Y-96691098D01*
X163428473Y-96691098D01*
X163477726Y-96681301D01*
X163502701Y-96676334D01*
X163586884Y-96620084D01*
X163643134Y-96535901D01*
X163657900Y-96461667D01*
X163657899Y-94903534D01*
X163657898Y-94903530D01*
X163657898Y-94903526D01*
X163643134Y-94829299D01*
X163586883Y-94745115D01*
X163502702Y-94688866D01*
X163428469Y-94674100D01*
X163428467Y-94674100D01*
X163283900Y-94674100D01*
X163215779Y-94654098D01*
X163169286Y-94600442D01*
X163157900Y-94548100D01*
X163157900Y-91657011D01*
X163177902Y-91588890D01*
X163217567Y-91549885D01*
X163317862Y-91487786D01*
X163469132Y-91349885D01*
X163592488Y-91186535D01*
X163683728Y-91003301D01*
X163739745Y-90806421D01*
X163746040Y-90738480D01*
X163758632Y-90602604D01*
X163758632Y-90602595D01*
X164080168Y-90602595D01*
X164080168Y-90602604D01*
X164099054Y-90806419D01*
X164099055Y-90806421D01*
X164155072Y-91003301D01*
X164246312Y-91186535D01*
X164246313Y-91186536D01*
X164369666Y-91349884D01*
X164520935Y-91487784D01*
X164520937Y-91487785D01*
X164520938Y-91487786D01*
X164621232Y-91549885D01*
X164668618Y-91602750D01*
X164680900Y-91657011D01*
X164680900Y-94548100D01*
X164660898Y-94616221D01*
X164607242Y-94662714D01*
X164554901Y-94674100D01*
X164410336Y-94674100D01*
X164410326Y-94674101D01*
X164336099Y-94688865D01*
X164251915Y-94745116D01*
X164195666Y-94829297D01*
X164180900Y-94903530D01*
X164180900Y-96461663D01*
X164180901Y-96461673D01*
X164195665Y-96535900D01*
X164251916Y-96620084D01*
X164336097Y-96676333D01*
X164336099Y-96676334D01*
X164410333Y-96691100D01*
X165968466Y-96691099D01*
X165968469Y-96691098D01*
X165968473Y-96691098D01*
X166017726Y-96681301D01*
X166042701Y-96676334D01*
X166126884Y-96620084D01*
X166183134Y-96535901D01*
X166197900Y-96461667D01*
X166197899Y-94903534D01*
X166197898Y-94903530D01*
X166197898Y-94903526D01*
X166183134Y-94829299D01*
X166126883Y-94745115D01*
X166042702Y-94688866D01*
X165968469Y-94674100D01*
X165968467Y-94674100D01*
X165823900Y-94674100D01*
X165755779Y-94654098D01*
X165709286Y-94600442D01*
X165697900Y-94548100D01*
X165697900Y-91657011D01*
X165717902Y-91588890D01*
X165757567Y-91549885D01*
X165857862Y-91487786D01*
X166009132Y-91349885D01*
X166132488Y-91186535D01*
X166223728Y-91003301D01*
X166279745Y-90806421D01*
X166286040Y-90738480D01*
X166298632Y-90602604D01*
X166298632Y-90602595D01*
X166279745Y-90398780D01*
X166227769Y-90216102D01*
X166223728Y-90201899D01*
X166132488Y-90018665D01*
X166078091Y-89946631D01*
X166009133Y-89855315D01*
X165857863Y-89717414D01*
X165683833Y-89609659D01*
X165683828Y-89609657D01*
X165683827Y-89609656D01*
X165671264Y-89604789D01*
X165492959Y-89535713D01*
X165492960Y-89535713D01*
X165492957Y-89535712D01*
X165492956Y-89535712D01*
X165291747Y-89498100D01*
X165087053Y-89498100D01*
X164885844Y-89535712D01*
X164885839Y-89535713D01*
X164694977Y-89609654D01*
X164694966Y-89609659D01*
X164520936Y-89717414D01*
X164369666Y-89855315D01*
X164246313Y-90018663D01*
X164155071Y-90201901D01*
X164099054Y-90398780D01*
X164080168Y-90602595D01*
X163758632Y-90602595D01*
X163739745Y-90398780D01*
X163687769Y-90216102D01*
X163683728Y-90201899D01*
X163592488Y-90018665D01*
X163538091Y-89946631D01*
X163469133Y-89855315D01*
X163317863Y-89717414D01*
X163143833Y-89609659D01*
X163143828Y-89609657D01*
X163143827Y-89609656D01*
X163131264Y-89604789D01*
X162952959Y-89535713D01*
X162952960Y-89535713D01*
X162952957Y-89535712D01*
X162952956Y-89535712D01*
X162751747Y-89498100D01*
X162547053Y-89498100D01*
X162345844Y-89535712D01*
X162345839Y-89535713D01*
X162154977Y-89609654D01*
X162154966Y-89609659D01*
X161980936Y-89717414D01*
X161829666Y-89855315D01*
X161706313Y-90018663D01*
X161615071Y-90201901D01*
X161559054Y-90398780D01*
X161540168Y-90602595D01*
X161218632Y-90602595D01*
X161199745Y-90398780D01*
X161147769Y-90216102D01*
X161143728Y-90201899D01*
X161052488Y-90018665D01*
X160998091Y-89946631D01*
X160929133Y-89855315D01*
X160777863Y-89717414D01*
X160603833Y-89609659D01*
X160603828Y-89609657D01*
X160603827Y-89609656D01*
X160591264Y-89604789D01*
X160412959Y-89535713D01*
X160412960Y-89535713D01*
X160412957Y-89535712D01*
X160412956Y-89535712D01*
X160211747Y-89498100D01*
X160007053Y-89498100D01*
X159805844Y-89535712D01*
X159805839Y-89535713D01*
X159614977Y-89609654D01*
X159614966Y-89609659D01*
X159440936Y-89717414D01*
X159289666Y-89855315D01*
X159166313Y-90018663D01*
X159075071Y-90201901D01*
X159019054Y-90398780D01*
X159000168Y-90602595D01*
X158678632Y-90602595D01*
X158659745Y-90398780D01*
X158607769Y-90216102D01*
X158603728Y-90201899D01*
X158512488Y-90018665D01*
X158458091Y-89946631D01*
X158389133Y-89855315D01*
X158237863Y-89717414D01*
X158063833Y-89609659D01*
X158063828Y-89609657D01*
X158063827Y-89609656D01*
X158051264Y-89604789D01*
X157872959Y-89535713D01*
X157872960Y-89535713D01*
X157872957Y-89535712D01*
X157872956Y-89535712D01*
X157671747Y-89498100D01*
X157467053Y-89498100D01*
X157265844Y-89535712D01*
X157265839Y-89535713D01*
X157074977Y-89609654D01*
X157074966Y-89609659D01*
X156900936Y-89717414D01*
X156749666Y-89855315D01*
X156626313Y-90018663D01*
X156535071Y-90201901D01*
X156479054Y-90398780D01*
X156460168Y-90602595D01*
X156138632Y-90602595D01*
X156119745Y-90398780D01*
X156067769Y-90216102D01*
X156063728Y-90201899D01*
X155972488Y-90018665D01*
X155918091Y-89946631D01*
X155849133Y-89855315D01*
X155697863Y-89717414D01*
X155523833Y-89609659D01*
X155523828Y-89609657D01*
X155523827Y-89609656D01*
X155511264Y-89604789D01*
X155332959Y-89535713D01*
X155332960Y-89535713D01*
X155332957Y-89535712D01*
X155332956Y-89535712D01*
X155131747Y-89498100D01*
X154927053Y-89498100D01*
X154725844Y-89535712D01*
X154725839Y-89535713D01*
X154534977Y-89609654D01*
X154534966Y-89609659D01*
X154360936Y-89717414D01*
X154209666Y-89855315D01*
X154086313Y-90018663D01*
X153995071Y-90201901D01*
X153939054Y-90398780D01*
X153920168Y-90602595D01*
X153598632Y-90602595D01*
X153579745Y-90398780D01*
X153527769Y-90216102D01*
X153523728Y-90201899D01*
X153432488Y-90018665D01*
X153378091Y-89946631D01*
X153309133Y-89855315D01*
X153157863Y-89717414D01*
X152983833Y-89609659D01*
X152983828Y-89609657D01*
X152983827Y-89609656D01*
X152971264Y-89604789D01*
X152792959Y-89535713D01*
X152792960Y-89535713D01*
X152792957Y-89535712D01*
X152792956Y-89535712D01*
X152591747Y-89498100D01*
X152387053Y-89498100D01*
X152185844Y-89535712D01*
X152185839Y-89535713D01*
X151994977Y-89609654D01*
X151994966Y-89609659D01*
X151820936Y-89717414D01*
X151669666Y-89855315D01*
X151546313Y-90018663D01*
X151455071Y-90201901D01*
X151399054Y-90398780D01*
X151380168Y-90602595D01*
X151058632Y-90602595D01*
X151039745Y-90398780D01*
X150987769Y-90216102D01*
X150983728Y-90201899D01*
X150892488Y-90018665D01*
X150838091Y-89946631D01*
X150769133Y-89855315D01*
X150617863Y-89717414D01*
X150443833Y-89609659D01*
X150443828Y-89609657D01*
X150443827Y-89609656D01*
X150431264Y-89604789D01*
X150252959Y-89535713D01*
X150252960Y-89535713D01*
X150252957Y-89535712D01*
X150252956Y-89535712D01*
X150051747Y-89498100D01*
X149847053Y-89498100D01*
X149645844Y-89535712D01*
X149645839Y-89535713D01*
X149454977Y-89609654D01*
X149454966Y-89609659D01*
X149280936Y-89717414D01*
X149129666Y-89855315D01*
X149006313Y-90018663D01*
X148915071Y-90201901D01*
X148859054Y-90398780D01*
X148840168Y-90602595D01*
X148518632Y-90602595D01*
X148499745Y-90398780D01*
X148447769Y-90216102D01*
X148443728Y-90201899D01*
X148352488Y-90018665D01*
X148298091Y-89946631D01*
X148229133Y-89855315D01*
X148077863Y-89717414D01*
X147903833Y-89609659D01*
X147903828Y-89609657D01*
X147903827Y-89609656D01*
X147891264Y-89604789D01*
X147712959Y-89535713D01*
X147712960Y-89535713D01*
X147712957Y-89535712D01*
X147712956Y-89535712D01*
X147511747Y-89498100D01*
X147307053Y-89498100D01*
X147105844Y-89535712D01*
X147105839Y-89535713D01*
X146914977Y-89609654D01*
X146914966Y-89609659D01*
X146740936Y-89717414D01*
X146589666Y-89855315D01*
X146466313Y-90018663D01*
X146375071Y-90201901D01*
X146319054Y-90398780D01*
X146300168Y-90602595D01*
X145978632Y-90602595D01*
X145959745Y-90398780D01*
X145907769Y-90216102D01*
X145903728Y-90201899D01*
X145812488Y-90018665D01*
X145758091Y-89946631D01*
X145689133Y-89855315D01*
X145537863Y-89717414D01*
X145363833Y-89609659D01*
X145363828Y-89609657D01*
X145363827Y-89609656D01*
X145351264Y-89604789D01*
X145172959Y-89535713D01*
X145172960Y-89535713D01*
X145172957Y-89535712D01*
X145172956Y-89535712D01*
X144971747Y-89498100D01*
X144767053Y-89498100D01*
X144565844Y-89535712D01*
X144565839Y-89535713D01*
X144374977Y-89609654D01*
X144374966Y-89609659D01*
X144200936Y-89717414D01*
X144049666Y-89855315D01*
X143926313Y-90018663D01*
X143835071Y-90201901D01*
X143779054Y-90398780D01*
X143760168Y-90602595D01*
X143438632Y-90602595D01*
X143419745Y-90398780D01*
X143367769Y-90216102D01*
X143363728Y-90201899D01*
X143272488Y-90018665D01*
X143218091Y-89946631D01*
X143149133Y-89855315D01*
X142997863Y-89717414D01*
X142823833Y-89609659D01*
X142823828Y-89609657D01*
X142823827Y-89609656D01*
X142811264Y-89604789D01*
X142632959Y-89535713D01*
X142632960Y-89535713D01*
X142632957Y-89535712D01*
X142632956Y-89535712D01*
X142431747Y-89498100D01*
X142227053Y-89498100D01*
X142025844Y-89535712D01*
X142025839Y-89535713D01*
X141834977Y-89609654D01*
X141834966Y-89609659D01*
X141660936Y-89717414D01*
X141509666Y-89855315D01*
X141386313Y-90018663D01*
X141295071Y-90201901D01*
X141239054Y-90398780D01*
X141220168Y-90602595D01*
X140898632Y-90602595D01*
X140879745Y-90398780D01*
X140827769Y-90216102D01*
X140823728Y-90201899D01*
X140732488Y-90018665D01*
X140678091Y-89946631D01*
X140609133Y-89855315D01*
X140457863Y-89717414D01*
X140283833Y-89609659D01*
X140283828Y-89609657D01*
X140283827Y-89609656D01*
X140271264Y-89604789D01*
X140092959Y-89535713D01*
X140092960Y-89535713D01*
X140092957Y-89535712D01*
X140092956Y-89535712D01*
X139891747Y-89498100D01*
X139687053Y-89498100D01*
X139485844Y-89535712D01*
X139485839Y-89535713D01*
X139294977Y-89609654D01*
X139294966Y-89609659D01*
X139120936Y-89717414D01*
X138969666Y-89855315D01*
X138846313Y-90018663D01*
X138755071Y-90201901D01*
X138699054Y-90398780D01*
X138680168Y-90602595D01*
X138353899Y-90602595D01*
X138353899Y-89727534D01*
X138353898Y-89727530D01*
X138353898Y-89727526D01*
X138339134Y-89653299D01*
X138282883Y-89569115D01*
X138198702Y-89512866D01*
X138124467Y-89498100D01*
X136374336Y-89498100D01*
X136374326Y-89498101D01*
X136300099Y-89512865D01*
X136215915Y-89569116D01*
X136159666Y-89653297D01*
X136144900Y-89727530D01*
X134435702Y-89727530D01*
X137579054Y-86584177D01*
X137641364Y-86550153D01*
X137680494Y-86547881D01*
X137721900Y-86551960D01*
X137721901Y-86551959D01*
X137721902Y-86551960D01*
X137721903Y-86551960D01*
X137918809Y-86532566D01*
X137918810Y-86532565D01*
X137918816Y-86532565D01*
X138108165Y-86475127D01*
X138282670Y-86381852D01*
X138435625Y-86256325D01*
X138561152Y-86103370D01*
X138654427Y-85928865D01*
X138711865Y-85739516D01*
X138715002Y-85707673D01*
X138731260Y-85542602D01*
X138731260Y-85542597D01*
X139252540Y-85542597D01*
X139252540Y-85542602D01*
X139271933Y-85739509D01*
X139271934Y-85739515D01*
X139271935Y-85739516D01*
X139329373Y-85928865D01*
X139422648Y-86103370D01*
X139548175Y-86256325D01*
X139701130Y-86381852D01*
X139875635Y-86475127D01*
X140064984Y-86532565D01*
X140064988Y-86532565D01*
X140064990Y-86532566D01*
X140261897Y-86551960D01*
X140261900Y-86551960D01*
X140261903Y-86551960D01*
X140458809Y-86532566D01*
X140458810Y-86532565D01*
X140458816Y-86532565D01*
X140648165Y-86475127D01*
X140822670Y-86381852D01*
X140975625Y-86256325D01*
X141101152Y-86103370D01*
X141194427Y-85928865D01*
X141251865Y-85739516D01*
X141255002Y-85707673D01*
X141271260Y-85542602D01*
X141271260Y-85542600D01*
X141547125Y-85542600D01*
X141566188Y-85760492D01*
X141622796Y-85971755D01*
X141622798Y-85971761D01*
X141715233Y-86169988D01*
X141758773Y-86232170D01*
X142421900Y-85569044D01*
X142421900Y-85592628D01*
X142447796Y-85689275D01*
X142497824Y-85775925D01*
X142568575Y-85846676D01*
X142655225Y-85896704D01*
X142751872Y-85922600D01*
X142775452Y-85922600D01*
X142112328Y-86585723D01*
X142112328Y-86585724D01*
X142174515Y-86629268D01*
X142372738Y-86721701D01*
X142372744Y-86721703D01*
X142584007Y-86778311D01*
X142801900Y-86797374D01*
X143019792Y-86778311D01*
X143231055Y-86721703D01*
X143231061Y-86721701D01*
X143429287Y-86629267D01*
X143429289Y-86629266D01*
X143491470Y-86585725D01*
X143491470Y-86585724D01*
X142828347Y-85922600D01*
X142851928Y-85922600D01*
X142948575Y-85896704D01*
X143035225Y-85846676D01*
X143105976Y-85775925D01*
X143156004Y-85689275D01*
X143181900Y-85592628D01*
X143181900Y-85569046D01*
X143845024Y-86232170D01*
X143845025Y-86232170D01*
X143888566Y-86169989D01*
X143888567Y-86169987D01*
X143981001Y-85971761D01*
X143981003Y-85971755D01*
X144037611Y-85760492D01*
X144056674Y-85542600D01*
X144056674Y-85542597D01*
X144332540Y-85542597D01*
X144332540Y-85542602D01*
X144351933Y-85739509D01*
X144351934Y-85739515D01*
X144351935Y-85739516D01*
X144409373Y-85928865D01*
X144502648Y-86103370D01*
X144628175Y-86256325D01*
X144781130Y-86381852D01*
X144955635Y-86475127D01*
X145144984Y-86532565D01*
X145144988Y-86532565D01*
X145144990Y-86532566D01*
X145341897Y-86551960D01*
X145341900Y-86551960D01*
X145341903Y-86551960D01*
X145538809Y-86532566D01*
X145538810Y-86532565D01*
X145538816Y-86532565D01*
X145728165Y-86475127D01*
X145902670Y-86381852D01*
X146055625Y-86256325D01*
X146181152Y-86103370D01*
X146274427Y-85928865D01*
X146331865Y-85739516D01*
X146335002Y-85707673D01*
X146351260Y-85542602D01*
X146351260Y-85542597D01*
X146331866Y-85345690D01*
X146331865Y-85345688D01*
X146331865Y-85345684D01*
X146274427Y-85156335D01*
X146181152Y-84981830D01*
X146055625Y-84828875D01*
X145902670Y-84703348D01*
X145728165Y-84610073D01*
X145538816Y-84552635D01*
X145538815Y-84552634D01*
X145538809Y-84552633D01*
X145341903Y-84533240D01*
X145341897Y-84533240D01*
X145144990Y-84552633D01*
X144955634Y-84610073D01*
X144781129Y-84703348D01*
X144628175Y-84828875D01*
X144502648Y-84981829D01*
X144409373Y-85156334D01*
X144351933Y-85345690D01*
X144332540Y-85542597D01*
X144056674Y-85542597D01*
X144037611Y-85324707D01*
X143981003Y-85113444D01*
X143981001Y-85113439D01*
X143888565Y-84915209D01*
X143845025Y-84853028D01*
X143181900Y-85516152D01*
X143181900Y-85492572D01*
X143156004Y-85395925D01*
X143105976Y-85309275D01*
X143035225Y-85238524D01*
X142948575Y-85188496D01*
X142851928Y-85162600D01*
X142828346Y-85162600D01*
X143491470Y-84499473D01*
X143429288Y-84455933D01*
X143231061Y-84363498D01*
X143231055Y-84363496D01*
X143019792Y-84306888D01*
X142801900Y-84287825D01*
X142584007Y-84306888D01*
X142372744Y-84363496D01*
X142372739Y-84363498D01*
X142174511Y-84455934D01*
X142112327Y-84499474D01*
X142775453Y-85162600D01*
X142751872Y-85162600D01*
X142655225Y-85188496D01*
X142568575Y-85238524D01*
X142497824Y-85309275D01*
X142447796Y-85395925D01*
X142421900Y-85492572D01*
X142421900Y-85516153D01*
X141758774Y-84853027D01*
X141715234Y-84915211D01*
X141622798Y-85113439D01*
X141622796Y-85113444D01*
X141566188Y-85324707D01*
X141547125Y-85542600D01*
X141271260Y-85542600D01*
X141271260Y-85542597D01*
X141251866Y-85345690D01*
X141251865Y-85345688D01*
X141251865Y-85345684D01*
X141194427Y-85156335D01*
X141101152Y-84981830D01*
X140975625Y-84828875D01*
X140822670Y-84703348D01*
X140648165Y-84610073D01*
X140458816Y-84552635D01*
X140458815Y-84552634D01*
X140458809Y-84552633D01*
X140261903Y-84533240D01*
X140261897Y-84533240D01*
X140064990Y-84552633D01*
X139875634Y-84610073D01*
X139701129Y-84703348D01*
X139548175Y-84828875D01*
X139422648Y-84981829D01*
X139329373Y-85156334D01*
X139271933Y-85345690D01*
X139252540Y-85542597D01*
X138731260Y-85542597D01*
X138711866Y-85345690D01*
X138711865Y-85345688D01*
X138711865Y-85345684D01*
X138654427Y-85156335D01*
X138561152Y-84981830D01*
X138435625Y-84828875D01*
X138282670Y-84703348D01*
X138108165Y-84610073D01*
X137918816Y-84552635D01*
X137918815Y-84552634D01*
X137918809Y-84552633D01*
X137721903Y-84533240D01*
X137721897Y-84533240D01*
X137524990Y-84552633D01*
X137335634Y-84610073D01*
X137161129Y-84703348D01*
X137008175Y-84828875D01*
X136882648Y-84981829D01*
X136789373Y-85156334D01*
X136731933Y-85345690D01*
X136712540Y-85542597D01*
X136712540Y-85542604D01*
X136716617Y-85584002D01*
X136703388Y-85653755D01*
X136680319Y-85685446D01*
X131764292Y-90601475D01*
X131675777Y-90689989D01*
X131675772Y-90689996D01*
X131606227Y-90794077D01*
X131558324Y-90909725D01*
X131558322Y-90909730D01*
X131533900Y-91032506D01*
X131533900Y-95722100D01*
X131513898Y-95790221D01*
X131460242Y-95836714D01*
X131407901Y-95848100D01*
X131294337Y-95848100D01*
X131294326Y-95848101D01*
X131220099Y-95862865D01*
X131141902Y-95915116D01*
X131074149Y-95936331D01*
X131005682Y-95917548D01*
X130958239Y-95864731D01*
X130945900Y-95810351D01*
X130945900Y-89952943D01*
X130965902Y-89884822D01*
X130982805Y-89863848D01*
X137171648Y-83675005D01*
X137233960Y-83640979D01*
X137260743Y-83638100D01*
X138154384Y-83638100D01*
X138222505Y-83658102D01*
X138251781Y-83684165D01*
X138278175Y-83716325D01*
X138431130Y-83841852D01*
X138605635Y-83935127D01*
X138794984Y-83992565D01*
X138794988Y-83992565D01*
X138794990Y-83992566D01*
X138991897Y-84011960D01*
X138991900Y-84011960D01*
X138991903Y-84011960D01*
X139188809Y-83992566D01*
X139188810Y-83992565D01*
X139188816Y-83992565D01*
X139378165Y-83935127D01*
X139552670Y-83841852D01*
X139705625Y-83716325D01*
X139831152Y-83563370D01*
X139924427Y-83388865D01*
X139981865Y-83199516D01*
X140001260Y-83002600D01*
X140001260Y-83002597D01*
X140522540Y-83002597D01*
X140522540Y-83002602D01*
X140541933Y-83199509D01*
X140541934Y-83199515D01*
X140541935Y-83199516D01*
X140599373Y-83388865D01*
X140692648Y-83563370D01*
X140818175Y-83716325D01*
X140971130Y-83841852D01*
X141145635Y-83935127D01*
X141334984Y-83992565D01*
X141334988Y-83992565D01*
X141334990Y-83992566D01*
X141531897Y-84011960D01*
X141531900Y-84011960D01*
X141531903Y-84011960D01*
X141728809Y-83992566D01*
X141728810Y-83992565D01*
X141728816Y-83992565D01*
X141918165Y-83935127D01*
X142092670Y-83841852D01*
X142245625Y-83716325D01*
X142371152Y-83563370D01*
X142464427Y-83388865D01*
X142521865Y-83199516D01*
X142541260Y-83002600D01*
X142541260Y-83002597D01*
X143062540Y-83002597D01*
X143062540Y-83002602D01*
X143081933Y-83199509D01*
X143081934Y-83199515D01*
X143081935Y-83199516D01*
X143139373Y-83388865D01*
X143232648Y-83563370D01*
X143358175Y-83716325D01*
X143511130Y-83841852D01*
X143685635Y-83935127D01*
X143874984Y-83992565D01*
X143874988Y-83992565D01*
X143874990Y-83992566D01*
X144071897Y-84011960D01*
X144071900Y-84011960D01*
X144071903Y-84011960D01*
X144268809Y-83992566D01*
X144268810Y-83992565D01*
X144268816Y-83992565D01*
X144458165Y-83935127D01*
X144632670Y-83841852D01*
X144785625Y-83716325D01*
X144911152Y-83563370D01*
X145004427Y-83388865D01*
X145061865Y-83199516D01*
X145081260Y-83002600D01*
X145081260Y-83002597D01*
X145061259Y-82799523D01*
X145063717Y-82799280D01*
X145069045Y-82739421D01*
X145097221Y-82696405D01*
X145392307Y-82401319D01*
X145454617Y-82367295D01*
X145525432Y-82372360D01*
X145582268Y-82414907D01*
X145607079Y-82481427D01*
X145607400Y-82490416D01*
X145607400Y-83777663D01*
X145607401Y-83777673D01*
X145622165Y-83851900D01*
X145678416Y-83936084D01*
X145762597Y-83992333D01*
X145762599Y-83992334D01*
X145836833Y-84007100D01*
X147386966Y-84007099D01*
X147386969Y-84007098D01*
X147386973Y-84007098D01*
X147436226Y-83997301D01*
X147461201Y-83992334D01*
X147545384Y-83936084D01*
X147601634Y-83851901D01*
X147616400Y-83777667D01*
X147616399Y-82227534D01*
X147616398Y-82227531D01*
X147616398Y-82227526D01*
X147601634Y-82153299D01*
X147585527Y-82129194D01*
X147545384Y-82069116D01*
X147545383Y-82069115D01*
X147461202Y-82012866D01*
X147386969Y-81998100D01*
X146099717Y-81998100D01*
X146031596Y-81978098D01*
X145985103Y-81924442D01*
X145974999Y-81854168D01*
X146004493Y-81789588D01*
X146010603Y-81783023D01*
X146415624Y-81378004D01*
X146477936Y-81343979D01*
X146504719Y-81341100D01*
X158395900Y-81341100D01*
X158464021Y-81361102D01*
X158510514Y-81414758D01*
X158521900Y-81467100D01*
X158521900Y-81645655D01*
X158521900Y-85199545D01*
X158556553Y-85328874D01*
X158556554Y-85328876D01*
X158556555Y-85328878D01*
X158623497Y-85444824D01*
X158623499Y-85444827D01*
X158692995Y-85514323D01*
X158727021Y-85576635D01*
X158729900Y-85603417D01*
X158729900Y-85707662D01*
X158729901Y-85707673D01*
X158744665Y-85781900D01*
X158800916Y-85866084D01*
X158885097Y-85922333D01*
X158885099Y-85922334D01*
X158959333Y-85937100D01*
X159259466Y-85937099D01*
X159333701Y-85922334D01*
X159333702Y-85922332D01*
X159334818Y-85922111D01*
X159383981Y-85922111D01*
X159385097Y-85922333D01*
X159385099Y-85922334D01*
X159459333Y-85937100D01*
X159759466Y-85937099D01*
X159833701Y-85922334D01*
X159833702Y-85922332D01*
X159834818Y-85922111D01*
X159883981Y-85922111D01*
X159885097Y-85922333D01*
X159885099Y-85922334D01*
X159959333Y-85937100D01*
X160259466Y-85937099D01*
X160333701Y-85922334D01*
X160333702Y-85922332D01*
X160334818Y-85922111D01*
X160383981Y-85922111D01*
X160385097Y-85922333D01*
X160385099Y-85922334D01*
X160459333Y-85937100D01*
X160487265Y-85937099D01*
X160555384Y-85957099D01*
X160588133Y-85987589D01*
X160627210Y-86039788D01*
X160742310Y-86125952D01*
X160877028Y-86176199D01*
X160936559Y-86182599D01*
X160936576Y-86182600D01*
X161282224Y-86182600D01*
X161282240Y-86182599D01*
X161341771Y-86176199D01*
X161476489Y-86125952D01*
X161591589Y-86039789D01*
X161677752Y-85924689D01*
X161727999Y-85789971D01*
X161734399Y-85730440D01*
X161734400Y-85730423D01*
X161734400Y-84534776D01*
X161734399Y-84534759D01*
X161727999Y-84475228D01*
X161677752Y-84340510D01*
X161591589Y-84225410D01*
X161523404Y-84174368D01*
X161480857Y-84117532D01*
X161475793Y-84046716D01*
X161509818Y-83984404D01*
X161572130Y-83950379D01*
X161598913Y-83947500D01*
X163022586Y-83947500D01*
X163090707Y-83967502D01*
X163111681Y-83984404D01*
X163196609Y-84069331D01*
X163230634Y-84131643D01*
X163232172Y-84140468D01*
X163232300Y-84140945D01*
X163266953Y-84270274D01*
X163266954Y-84270276D01*
X163266955Y-84270278D01*
X163333896Y-84386223D01*
X163333904Y-84386233D01*
X168345875Y-89398202D01*
X168379900Y-89460514D01*
X168374836Y-89531329D01*
X168332289Y-89588165D01*
X168265769Y-89612976D01*
X168211264Y-89604789D01*
X168032957Y-89535712D01*
X167965886Y-89523174D01*
X167831747Y-89498100D01*
X167627053Y-89498100D01*
X167425844Y-89535712D01*
X167425839Y-89535713D01*
X167234977Y-89609654D01*
X167234966Y-89609659D01*
X167060936Y-89717414D01*
X166909666Y-89855315D01*
X166786313Y-90018663D01*
X166695071Y-90201901D01*
X166639054Y-90398780D01*
X166620168Y-90602595D01*
X166620168Y-90602604D01*
X166639054Y-90806419D01*
X166639055Y-90806421D01*
X166695072Y-91003301D01*
X166786312Y-91186535D01*
X166786313Y-91186536D01*
X166909666Y-91349884D01*
X167060935Y-91487784D01*
X167060937Y-91487785D01*
X167060938Y-91487786D01*
X167161232Y-91549885D01*
X167208618Y-91602750D01*
X167220900Y-91657011D01*
X167220900Y-94548100D01*
X167200898Y-94616221D01*
X167147242Y-94662714D01*
X167094901Y-94674100D01*
X166950336Y-94674100D01*
X166950326Y-94674101D01*
X166876099Y-94688865D01*
X166791915Y-94745116D01*
X166735666Y-94829297D01*
X166720900Y-94903530D01*
X166720900Y-96461663D01*
X166720901Y-96461673D01*
X166735665Y-96535900D01*
X166791916Y-96620084D01*
X166876097Y-96676333D01*
X166876099Y-96676334D01*
X166950333Y-96691100D01*
X168508466Y-96691099D01*
X168508469Y-96691098D01*
X168508473Y-96691098D01*
X168557726Y-96681301D01*
X168582701Y-96676334D01*
X168666884Y-96620084D01*
X168723134Y-96535901D01*
X168737900Y-96461667D01*
X168737899Y-94903534D01*
X168737898Y-94903530D01*
X168737898Y-94903526D01*
X168723134Y-94829299D01*
X168666883Y-94745115D01*
X168582702Y-94688866D01*
X168508469Y-94674100D01*
X168508467Y-94674100D01*
X168363900Y-94674100D01*
X168295779Y-94654098D01*
X168249286Y-94600442D01*
X168237900Y-94548100D01*
X168237900Y-91657011D01*
X168257902Y-91588890D01*
X168297567Y-91549885D01*
X168397862Y-91487786D01*
X168549132Y-91349885D01*
X168672488Y-91186535D01*
X168763728Y-91003301D01*
X168819745Y-90806421D01*
X168826040Y-90738480D01*
X168838632Y-90602604D01*
X168838632Y-90602595D01*
X168819745Y-90398780D01*
X168763728Y-90201899D01*
X168763727Y-90201897D01*
X168725345Y-90124816D01*
X168712885Y-90054921D01*
X168740192Y-89989385D01*
X168798595Y-89949017D01*
X168869551Y-89946631D01*
X168927230Y-89979557D01*
X169163775Y-90216102D01*
X169197801Y-90278414D01*
X169195870Y-90339677D01*
X169179055Y-90398776D01*
X169179054Y-90398784D01*
X169160168Y-90602595D01*
X169160168Y-90602604D01*
X169179054Y-90806419D01*
X169179055Y-90806421D01*
X169235072Y-91003301D01*
X169326312Y-91186535D01*
X169326313Y-91186536D01*
X169449666Y-91349884D01*
X169600935Y-91487784D01*
X169600937Y-91487785D01*
X169600938Y-91487786D01*
X169701232Y-91549885D01*
X169748618Y-91602750D01*
X169760900Y-91657011D01*
X169760900Y-94548100D01*
X169740898Y-94616221D01*
X169687242Y-94662714D01*
X169634901Y-94674100D01*
X169490336Y-94674100D01*
X169490326Y-94674101D01*
X169416099Y-94688865D01*
X169331915Y-94745116D01*
X169275666Y-94829297D01*
X169260900Y-94903530D01*
X169260900Y-96461663D01*
X169260901Y-96461673D01*
X169275665Y-96535900D01*
X169331916Y-96620084D01*
X169416097Y-96676333D01*
X169416099Y-96676334D01*
X169490333Y-96691100D01*
X171048466Y-96691099D01*
X171048469Y-96691098D01*
X171048473Y-96691098D01*
X171097726Y-96681301D01*
X171122701Y-96676334D01*
X171206884Y-96620084D01*
X171263134Y-96535901D01*
X171277900Y-96461667D01*
X171277899Y-94903534D01*
X171277898Y-94903530D01*
X171277898Y-94903526D01*
X171263134Y-94829299D01*
X171206883Y-94745115D01*
X171122702Y-94688866D01*
X171048469Y-94674100D01*
X171048467Y-94674100D01*
X170903900Y-94674100D01*
X170835779Y-94654098D01*
X170789286Y-94600442D01*
X170777900Y-94548100D01*
X170777900Y-91657011D01*
X170797902Y-91588890D01*
X170837567Y-91549885D01*
X170937862Y-91487786D01*
X171089132Y-91349885D01*
X171212488Y-91186535D01*
X171303728Y-91003301D01*
X171359745Y-90806421D01*
X171366040Y-90738480D01*
X171378632Y-90602604D01*
X171378632Y-90602595D01*
X171359745Y-90398780D01*
X171303728Y-90201899D01*
X171303727Y-90201897D01*
X171265345Y-90124816D01*
X171252885Y-90054921D01*
X171280192Y-89989385D01*
X171338595Y-89949017D01*
X171409551Y-89946631D01*
X171467230Y-89979557D01*
X171703775Y-90216102D01*
X171737801Y-90278414D01*
X171735870Y-90339677D01*
X171719055Y-90398776D01*
X171719054Y-90398784D01*
X171700168Y-90602595D01*
X171700168Y-90602604D01*
X171719054Y-90806419D01*
X171719055Y-90806421D01*
X171775072Y-91003301D01*
X171866312Y-91186535D01*
X171866313Y-91186536D01*
X171989666Y-91349884D01*
X172140935Y-91487784D01*
X172140937Y-91487785D01*
X172140938Y-91487786D01*
X172241232Y-91549885D01*
X172288618Y-91602750D01*
X172300900Y-91657011D01*
X172300900Y-94548100D01*
X172280898Y-94616221D01*
X172227242Y-94662714D01*
X172174901Y-94674100D01*
X172030336Y-94674100D01*
X172030326Y-94674101D01*
X171956099Y-94688865D01*
X171871915Y-94745116D01*
X171815666Y-94829297D01*
X171800900Y-94903530D01*
X171800900Y-96461663D01*
X171800901Y-96461673D01*
X171815665Y-96535900D01*
X171871916Y-96620084D01*
X171956097Y-96676333D01*
X171956099Y-96676334D01*
X172030333Y-96691100D01*
X173588466Y-96691099D01*
X173588469Y-96691098D01*
X173588473Y-96691098D01*
X173637726Y-96681301D01*
X173662701Y-96676334D01*
X173746884Y-96620084D01*
X173803134Y-96535901D01*
X173817900Y-96461667D01*
X173817899Y-94903534D01*
X173817898Y-94903530D01*
X173817898Y-94903526D01*
X173803134Y-94829299D01*
X173746883Y-94745115D01*
X173662702Y-94688866D01*
X173588469Y-94674100D01*
X173588467Y-94674100D01*
X173443900Y-94674100D01*
X173375779Y-94654098D01*
X173329286Y-94600442D01*
X173317900Y-94548100D01*
X173317900Y-91657011D01*
X173337902Y-91588890D01*
X173377567Y-91549885D01*
X173477862Y-91487786D01*
X173629132Y-91349885D01*
X173752488Y-91186535D01*
X173843728Y-91003301D01*
X173899745Y-90806421D01*
X173906040Y-90738480D01*
X173918632Y-90602604D01*
X173918632Y-90602595D01*
X174240168Y-90602595D01*
X174240168Y-90602604D01*
X174259054Y-90806419D01*
X174259055Y-90806421D01*
X174315072Y-91003301D01*
X174406312Y-91186535D01*
X174406313Y-91186536D01*
X174529666Y-91349884D01*
X174680935Y-91487784D01*
X174680937Y-91487785D01*
X174680938Y-91487786D01*
X174781232Y-91549885D01*
X174828618Y-91602750D01*
X174840900Y-91657011D01*
X174840900Y-94548100D01*
X174820898Y-94616221D01*
X174767242Y-94662714D01*
X174714901Y-94674100D01*
X174570336Y-94674100D01*
X174570326Y-94674101D01*
X174496099Y-94688865D01*
X174411915Y-94745116D01*
X174355666Y-94829297D01*
X174340900Y-94903530D01*
X174340900Y-96461663D01*
X174340901Y-96461673D01*
X174355665Y-96535900D01*
X174411916Y-96620084D01*
X174496097Y-96676333D01*
X174496099Y-96676334D01*
X174570333Y-96691100D01*
X176128466Y-96691099D01*
X176128469Y-96691098D01*
X176128473Y-96691098D01*
X176177726Y-96681301D01*
X176202701Y-96676334D01*
X176286884Y-96620084D01*
X176343134Y-96535901D01*
X176357900Y-96461667D01*
X176357899Y-94903534D01*
X176357898Y-94903530D01*
X176357898Y-94903526D01*
X176343134Y-94829299D01*
X176286883Y-94745115D01*
X176202702Y-94688866D01*
X176128469Y-94674100D01*
X176128467Y-94674100D01*
X175983900Y-94674100D01*
X175915779Y-94654098D01*
X175869286Y-94600442D01*
X175857900Y-94548100D01*
X175857900Y-91657011D01*
X175877902Y-91588890D01*
X175917567Y-91549885D01*
X176017862Y-91487786D01*
X176169132Y-91349885D01*
X176292488Y-91186535D01*
X176383728Y-91003301D01*
X176439745Y-90806421D01*
X176446040Y-90738480D01*
X176458632Y-90602604D01*
X176458632Y-90602595D01*
X176780168Y-90602595D01*
X176780168Y-90602604D01*
X176799054Y-90806419D01*
X176799055Y-90806421D01*
X176855072Y-91003301D01*
X176946312Y-91186535D01*
X176946313Y-91186536D01*
X177069666Y-91349884D01*
X177220935Y-91487784D01*
X177220937Y-91487785D01*
X177220938Y-91487786D01*
X177321232Y-91549885D01*
X177368618Y-91602750D01*
X177380900Y-91657011D01*
X177380900Y-94548100D01*
X177360898Y-94616221D01*
X177307242Y-94662714D01*
X177254901Y-94674100D01*
X177110336Y-94674100D01*
X177110326Y-94674101D01*
X177036099Y-94688865D01*
X176951915Y-94745116D01*
X176895666Y-94829297D01*
X176880900Y-94903530D01*
X176880900Y-96461663D01*
X176880901Y-96461673D01*
X176895665Y-96535900D01*
X176951916Y-96620084D01*
X177036097Y-96676333D01*
X177036099Y-96676334D01*
X177110333Y-96691100D01*
X178668466Y-96691099D01*
X178668469Y-96691098D01*
X178668473Y-96691098D01*
X178717726Y-96681301D01*
X178742701Y-96676334D01*
X178826884Y-96620084D01*
X178883134Y-96535901D01*
X178897900Y-96461667D01*
X178897899Y-94903534D01*
X178897898Y-94903530D01*
X178897898Y-94903526D01*
X178883134Y-94829299D01*
X178826883Y-94745115D01*
X178742702Y-94688866D01*
X178668469Y-94674100D01*
X178668467Y-94674100D01*
X178523900Y-94674100D01*
X178455779Y-94654098D01*
X178409286Y-94600442D01*
X178397900Y-94548100D01*
X178397900Y-91657011D01*
X178417902Y-91588890D01*
X178457567Y-91549885D01*
X178557862Y-91487786D01*
X178709132Y-91349885D01*
X178832488Y-91186535D01*
X178923728Y-91003301D01*
X178979745Y-90806421D01*
X178986040Y-90738480D01*
X178998632Y-90602604D01*
X178998632Y-90602595D01*
X179320168Y-90602595D01*
X179320168Y-90602604D01*
X179339054Y-90806419D01*
X179339055Y-90806421D01*
X179395072Y-91003301D01*
X179486312Y-91186535D01*
X179486313Y-91186536D01*
X179609666Y-91349884D01*
X179760935Y-91487784D01*
X179760937Y-91487785D01*
X179760938Y-91487786D01*
X179861232Y-91549885D01*
X179908618Y-91602750D01*
X179920900Y-91657011D01*
X179920900Y-94548100D01*
X179900898Y-94616221D01*
X179847242Y-94662714D01*
X179794901Y-94674100D01*
X179650336Y-94674100D01*
X179650326Y-94674101D01*
X179576099Y-94688865D01*
X179491915Y-94745116D01*
X179435666Y-94829297D01*
X179420900Y-94903530D01*
X179420900Y-96461663D01*
X179420901Y-96461673D01*
X179435665Y-96535900D01*
X179491916Y-96620084D01*
X179576097Y-96676333D01*
X179576099Y-96676334D01*
X179650333Y-96691100D01*
X181208466Y-96691099D01*
X181208469Y-96691098D01*
X181208473Y-96691098D01*
X181257726Y-96681301D01*
X181282701Y-96676334D01*
X181366884Y-96620084D01*
X181423134Y-96535901D01*
X181437900Y-96461667D01*
X181437899Y-94903534D01*
X181437898Y-94903530D01*
X181437898Y-94903526D01*
X181423134Y-94829299D01*
X181366883Y-94745115D01*
X181282702Y-94688866D01*
X181208469Y-94674100D01*
X181208467Y-94674100D01*
X181063900Y-94674100D01*
X180995779Y-94654098D01*
X180949286Y-94600442D01*
X180937900Y-94548100D01*
X180937900Y-91657011D01*
X180957902Y-91588890D01*
X180997567Y-91549885D01*
X181097862Y-91487786D01*
X181249132Y-91349885D01*
X181372488Y-91186535D01*
X181463728Y-91003301D01*
X181519745Y-90806421D01*
X181526040Y-90738480D01*
X181538632Y-90602604D01*
X181538632Y-90602595D01*
X181860168Y-90602595D01*
X181860168Y-90602604D01*
X181879054Y-90806419D01*
X181879055Y-90806421D01*
X181935072Y-91003301D01*
X182026312Y-91186535D01*
X182026313Y-91186536D01*
X182149666Y-91349884D01*
X182300935Y-91487784D01*
X182300937Y-91487785D01*
X182300938Y-91487786D01*
X182401232Y-91549885D01*
X182448618Y-91602750D01*
X182460900Y-91657011D01*
X182460900Y-94548100D01*
X182440898Y-94616221D01*
X182387242Y-94662714D01*
X182334901Y-94674100D01*
X182190336Y-94674100D01*
X182190326Y-94674101D01*
X182116099Y-94688865D01*
X182031915Y-94745116D01*
X181975666Y-94829297D01*
X181960900Y-94903530D01*
X181960900Y-96461663D01*
X181960901Y-96461673D01*
X181975665Y-96535900D01*
X182031916Y-96620084D01*
X182116097Y-96676333D01*
X182116099Y-96676334D01*
X182190333Y-96691100D01*
X183748466Y-96691099D01*
X183748469Y-96691098D01*
X183748473Y-96691098D01*
X183797726Y-96681301D01*
X183822701Y-96676334D01*
X183906884Y-96620084D01*
X183963134Y-96535901D01*
X183977900Y-96461667D01*
X183977899Y-94903534D01*
X183977898Y-94903530D01*
X183977898Y-94903526D01*
X183963134Y-94829299D01*
X183906883Y-94745115D01*
X183822702Y-94688866D01*
X183748469Y-94674100D01*
X183748467Y-94674100D01*
X183603900Y-94674100D01*
X183535779Y-94654098D01*
X183489286Y-94600442D01*
X183477900Y-94548100D01*
X183477900Y-91657011D01*
X183497902Y-91588890D01*
X183537567Y-91549885D01*
X183637862Y-91487786D01*
X183789132Y-91349885D01*
X183912488Y-91186535D01*
X184003728Y-91003301D01*
X184059745Y-90806421D01*
X184066040Y-90738480D01*
X184078632Y-90602604D01*
X184078632Y-90602595D01*
X184400168Y-90602595D01*
X184400168Y-90602604D01*
X184419054Y-90806419D01*
X184419055Y-90806421D01*
X184475072Y-91003301D01*
X184566312Y-91186535D01*
X184566313Y-91186536D01*
X184689666Y-91349884D01*
X184840935Y-91487784D01*
X184840937Y-91487785D01*
X184840938Y-91487786D01*
X184941232Y-91549885D01*
X184988618Y-91602750D01*
X185000900Y-91657011D01*
X185000900Y-94548100D01*
X184980898Y-94616221D01*
X184927242Y-94662714D01*
X184874901Y-94674100D01*
X184730336Y-94674100D01*
X184730326Y-94674101D01*
X184656099Y-94688865D01*
X184571915Y-94745116D01*
X184515666Y-94829297D01*
X184500900Y-94903530D01*
X184500900Y-96461663D01*
X184500901Y-96461673D01*
X184515665Y-96535900D01*
X184571916Y-96620084D01*
X184656097Y-96676333D01*
X184656099Y-96676334D01*
X184730333Y-96691100D01*
X186288466Y-96691099D01*
X186288469Y-96691098D01*
X186288473Y-96691098D01*
X186337726Y-96681301D01*
X186362701Y-96676334D01*
X186446884Y-96620084D01*
X186503134Y-96535901D01*
X186517900Y-96461667D01*
X186517899Y-94903534D01*
X186517898Y-94903530D01*
X186517898Y-94903526D01*
X186503134Y-94829299D01*
X186446883Y-94745115D01*
X186362702Y-94688866D01*
X186288469Y-94674100D01*
X186288467Y-94674100D01*
X186143900Y-94674100D01*
X186075779Y-94654098D01*
X186029286Y-94600442D01*
X186017900Y-94548100D01*
X186017900Y-91657011D01*
X186037902Y-91588890D01*
X186077567Y-91549885D01*
X186177862Y-91487786D01*
X186329132Y-91349885D01*
X186452488Y-91186535D01*
X186543728Y-91003301D01*
X186599745Y-90806421D01*
X186606040Y-90738480D01*
X186618632Y-90602604D01*
X186618632Y-90602595D01*
X186599745Y-90398780D01*
X186547769Y-90216102D01*
X186543728Y-90201899D01*
X186452488Y-90018665D01*
X186398091Y-89946631D01*
X186329133Y-89855315D01*
X186177863Y-89717414D01*
X186003833Y-89609659D01*
X186003828Y-89609657D01*
X186003827Y-89609656D01*
X185991264Y-89604789D01*
X185812959Y-89535713D01*
X185812960Y-89535713D01*
X185812957Y-89535712D01*
X185812956Y-89535712D01*
X185611747Y-89498100D01*
X185407053Y-89498100D01*
X185205844Y-89535712D01*
X185205839Y-89535713D01*
X185014977Y-89609654D01*
X185014966Y-89609659D01*
X184840936Y-89717414D01*
X184689666Y-89855315D01*
X184566313Y-90018663D01*
X184475071Y-90201901D01*
X184419054Y-90398780D01*
X184400168Y-90602595D01*
X184078632Y-90602595D01*
X184059745Y-90398780D01*
X184007769Y-90216102D01*
X184003728Y-90201899D01*
X183912488Y-90018665D01*
X183858091Y-89946631D01*
X183789133Y-89855315D01*
X183637863Y-89717414D01*
X183463833Y-89609659D01*
X183463828Y-89609657D01*
X183463827Y-89609656D01*
X183451264Y-89604789D01*
X183272959Y-89535713D01*
X183272960Y-89535713D01*
X183272957Y-89535712D01*
X183272956Y-89535712D01*
X183071747Y-89498100D01*
X182867053Y-89498100D01*
X182665844Y-89535712D01*
X182665839Y-89535713D01*
X182474977Y-89609654D01*
X182474966Y-89609659D01*
X182300936Y-89717414D01*
X182149666Y-89855315D01*
X182026313Y-90018663D01*
X181935071Y-90201901D01*
X181879054Y-90398780D01*
X181860168Y-90602595D01*
X181538632Y-90602595D01*
X181519745Y-90398780D01*
X181467769Y-90216102D01*
X181463728Y-90201899D01*
X181372488Y-90018665D01*
X181318091Y-89946631D01*
X181249133Y-89855315D01*
X181097863Y-89717414D01*
X180923833Y-89609659D01*
X180923828Y-89609657D01*
X180923827Y-89609656D01*
X180911264Y-89604789D01*
X180732959Y-89535713D01*
X180732960Y-89535713D01*
X180732957Y-89535712D01*
X180732956Y-89535712D01*
X180531747Y-89498100D01*
X180327053Y-89498100D01*
X180125844Y-89535712D01*
X180125839Y-89535713D01*
X179934977Y-89609654D01*
X179934966Y-89609659D01*
X179760936Y-89717414D01*
X179609666Y-89855315D01*
X179486313Y-90018663D01*
X179395071Y-90201901D01*
X179339054Y-90398780D01*
X179320168Y-90602595D01*
X178998632Y-90602595D01*
X178979745Y-90398780D01*
X178927769Y-90216102D01*
X178923728Y-90201899D01*
X178832488Y-90018665D01*
X178778091Y-89946631D01*
X178709133Y-89855315D01*
X178557863Y-89717414D01*
X178383833Y-89609659D01*
X178383828Y-89609657D01*
X178383827Y-89609656D01*
X178371264Y-89604789D01*
X178192959Y-89535713D01*
X178192960Y-89535713D01*
X178192957Y-89535712D01*
X178192956Y-89535712D01*
X177991747Y-89498100D01*
X177787053Y-89498100D01*
X177585844Y-89535712D01*
X177585839Y-89535713D01*
X177394977Y-89609654D01*
X177394966Y-89609659D01*
X177220936Y-89717414D01*
X177069666Y-89855315D01*
X176946313Y-90018663D01*
X176855071Y-90201901D01*
X176799054Y-90398780D01*
X176780168Y-90602595D01*
X176458632Y-90602595D01*
X176439745Y-90398780D01*
X176387769Y-90216102D01*
X176383728Y-90201899D01*
X176292488Y-90018665D01*
X176238091Y-89946631D01*
X176169133Y-89855315D01*
X176017863Y-89717414D01*
X175843833Y-89609659D01*
X175843828Y-89609657D01*
X175843827Y-89609656D01*
X175831264Y-89604789D01*
X175652959Y-89535713D01*
X175652960Y-89535713D01*
X175652957Y-89535712D01*
X175652956Y-89535712D01*
X175451747Y-89498100D01*
X175247053Y-89498100D01*
X175045844Y-89535712D01*
X175045839Y-89535713D01*
X174854977Y-89609654D01*
X174854966Y-89609659D01*
X174680936Y-89717414D01*
X174529666Y-89855315D01*
X174406313Y-90018663D01*
X174315071Y-90201901D01*
X174259054Y-90398780D01*
X174240168Y-90602595D01*
X173918632Y-90602595D01*
X173899745Y-90398780D01*
X173847769Y-90216102D01*
X173843728Y-90201899D01*
X173752488Y-90018665D01*
X173698091Y-89946631D01*
X173629133Y-89855315D01*
X173477863Y-89717414D01*
X173303833Y-89609659D01*
X173303828Y-89609657D01*
X173303827Y-89609656D01*
X173291264Y-89604789D01*
X173112959Y-89535713D01*
X173112960Y-89535713D01*
X173112957Y-89535712D01*
X173112956Y-89535712D01*
X172911747Y-89498100D01*
X172707053Y-89498100D01*
X172631460Y-89512230D01*
X172533884Y-89530470D01*
X172463247Y-89523325D01*
X172421637Y-89495710D01*
X166263633Y-83337704D01*
X166263623Y-83337696D01*
X166147678Y-83270755D01*
X166147676Y-83270754D01*
X166147674Y-83270753D01*
X166018345Y-83236100D01*
X166018343Y-83236100D01*
X166010368Y-83233963D01*
X166010778Y-83232432D01*
X165954448Y-83207509D01*
X165946743Y-83200420D01*
X165690518Y-82944195D01*
X165656493Y-82881883D01*
X165661558Y-82811067D01*
X165704105Y-82754232D01*
X165770626Y-82729421D01*
X165779614Y-82729100D01*
X166958582Y-82729100D01*
X167026703Y-82749102D01*
X167047677Y-82766005D01*
X169677598Y-85395925D01*
X172223899Y-87942226D01*
X172318574Y-88036901D01*
X172434526Y-88103847D01*
X172563855Y-88138500D01*
X186173182Y-88138500D01*
X186241303Y-88158502D01*
X186262277Y-88175405D01*
X187503995Y-89417123D01*
X187538021Y-89479435D01*
X187540900Y-89506218D01*
X187540900Y-110659781D01*
X187520898Y-110727902D01*
X187503995Y-110748876D01*
X185835675Y-112417195D01*
X185773363Y-112451221D01*
X185746580Y-112454100D01*
X184730336Y-112454100D01*
X184730326Y-112454101D01*
X184656099Y-112468865D01*
X184571915Y-112525116D01*
X184515666Y-112609297D01*
X184500900Y-112683530D01*
X184500900Y-114241663D01*
X184500901Y-114241673D01*
X184515665Y-114315900D01*
X184571916Y-114400084D01*
X184656097Y-114456333D01*
X184656099Y-114456334D01*
X184730333Y-114471100D01*
X184874900Y-114471099D01*
X184943020Y-114491101D01*
X184989513Y-114544756D01*
X185000900Y-114597099D01*
X185000900Y-117312100D01*
X184980898Y-117380221D01*
X184927242Y-117426714D01*
X184874901Y-117438100D01*
X184634336Y-117438100D01*
X184634326Y-117438101D01*
X184560099Y-117452865D01*
X184475915Y-117509116D01*
X184419666Y-117593297D01*
X184404900Y-117667530D01*
X184404900Y-119417663D01*
X184404901Y-119417673D01*
X184419665Y-119491900D01*
X184475916Y-119576084D01*
X184560097Y-119632333D01*
X184560099Y-119632334D01*
X184634333Y-119647100D01*
X186384466Y-119647099D01*
X186384469Y-119647098D01*
X186384473Y-119647098D01*
X186433726Y-119637301D01*
X186458701Y-119632334D01*
X186542884Y-119576084D01*
X186599134Y-119491901D01*
X186613900Y-119417667D01*
X186613899Y-117667534D01*
X186613898Y-117667530D01*
X186613898Y-117667526D01*
X186599134Y-117593299D01*
X186542883Y-117509115D01*
X186458702Y-117452866D01*
X186384469Y-117438100D01*
X186384467Y-117438100D01*
X186143900Y-117438100D01*
X186075779Y-117418098D01*
X186029286Y-117364442D01*
X186017900Y-117312100D01*
X186017900Y-114597099D01*
X186037902Y-114528978D01*
X186091558Y-114482485D01*
X186143900Y-114471099D01*
X186288464Y-114471099D01*
X186288466Y-114471099D01*
X186288469Y-114471098D01*
X186288472Y-114471098D01*
X186325063Y-114463819D01*
X186362701Y-114456334D01*
X186446884Y-114400084D01*
X186503134Y-114315901D01*
X186517900Y-114241667D01*
X186517899Y-113225416D01*
X186537901Y-113157296D01*
X186554795Y-113136331D01*
X188456301Y-111234827D01*
X188523247Y-111118874D01*
X188557900Y-110989545D01*
X188557900Y-89176455D01*
X188523247Y-89047126D01*
X188497205Y-89002020D01*
X188456301Y-88931173D01*
X188456299Y-88931171D01*
X188456295Y-88931166D01*
X186969805Y-87444677D01*
X186942491Y-87403800D01*
X186920355Y-87350359D01*
X186920355Y-87350358D01*
X186831474Y-87234526D01*
X186831472Y-87234524D01*
X186831471Y-87234523D01*
X186715649Y-87145649D01*
X186715641Y-87145644D01*
X186580752Y-87089771D01*
X186436000Y-87070715D01*
X186291246Y-87089771D01*
X186291245Y-87089772D01*
X186237803Y-87111909D01*
X186189585Y-87121500D01*
X172893617Y-87121500D01*
X172825496Y-87101498D01*
X172804522Y-87084595D01*
X171262525Y-85542597D01*
X174812540Y-85542597D01*
X174812540Y-85542602D01*
X174831933Y-85739509D01*
X174831934Y-85739515D01*
X174831935Y-85739516D01*
X174889373Y-85928865D01*
X174982648Y-86103370D01*
X175108175Y-86256325D01*
X175261130Y-86381852D01*
X175435635Y-86475127D01*
X175624984Y-86532565D01*
X175624988Y-86532565D01*
X175624990Y-86532566D01*
X175821897Y-86551960D01*
X175821900Y-86551960D01*
X175821903Y-86551960D01*
X176018809Y-86532566D01*
X176018810Y-86532565D01*
X176018816Y-86532565D01*
X176208165Y-86475127D01*
X176382670Y-86381852D01*
X176535625Y-86256325D01*
X176661152Y-86103370D01*
X176754427Y-85928865D01*
X176811865Y-85739516D01*
X176815002Y-85707673D01*
X176831260Y-85542602D01*
X176831260Y-85542597D01*
X176811866Y-85345690D01*
X176811865Y-85345688D01*
X176811865Y-85345684D01*
X176754427Y-85156335D01*
X176661152Y-84981830D01*
X176535625Y-84828875D01*
X176382670Y-84703348D01*
X176208165Y-84610073D01*
X176018816Y-84552635D01*
X176018815Y-84552634D01*
X176018809Y-84552633D01*
X175821903Y-84533240D01*
X175821897Y-84533240D01*
X175624990Y-84552633D01*
X175435634Y-84610073D01*
X175261129Y-84703348D01*
X175108175Y-84828875D01*
X174982648Y-84981829D01*
X174889373Y-85156334D01*
X174831933Y-85345690D01*
X174812540Y-85542597D01*
X171262525Y-85542597D01*
X167533633Y-81813704D01*
X167533623Y-81813696D01*
X167417678Y-81746755D01*
X167417676Y-81746754D01*
X167417674Y-81746753D01*
X167288345Y-81712100D01*
X167288343Y-81712100D01*
X161556049Y-81712100D01*
X161487928Y-81692098D01*
X161441435Y-81638442D01*
X161431331Y-81568168D01*
X161451285Y-81516096D01*
X161474134Y-81481901D01*
X161488900Y-81407667D01*
X161488899Y-81108882D01*
X161505780Y-81045883D01*
X161543899Y-80979857D01*
X161543898Y-80979857D01*
X161543901Y-80979854D01*
X161550620Y-80954774D01*
X161583230Y-80898291D01*
X162382519Y-80099004D01*
X162444831Y-80064979D01*
X162471614Y-80062100D01*
X164478943Y-80062100D01*
X164547064Y-80082102D01*
X164555647Y-80088138D01*
X164655750Y-80164950D01*
X164655757Y-80164955D01*
X164790646Y-80220828D01*
X164935400Y-80239885D01*
X165080154Y-80220828D01*
X165215043Y-80164955D01*
X165330874Y-80076074D01*
X165419755Y-79960243D01*
X165475628Y-79825354D01*
X165494685Y-79680600D01*
X165475628Y-79535846D01*
X165419755Y-79400958D01*
X165330874Y-79285126D01*
X165330872Y-79285124D01*
X165330871Y-79285123D01*
X165215049Y-79196249D01*
X165215041Y-79196244D01*
X165080149Y-79140370D01*
X165072176Y-79138234D01*
X165072832Y-79135783D01*
X165019568Y-79112218D01*
X164980479Y-79052951D01*
X164976024Y-78999577D01*
X164986685Y-78918600D01*
X164967628Y-78773846D01*
X164911755Y-78638958D01*
X164822874Y-78523126D01*
X164822872Y-78523124D01*
X164822871Y-78523123D01*
X164707049Y-78434249D01*
X164707041Y-78434244D01*
X164572152Y-78378371D01*
X164427400Y-78359315D01*
X164282647Y-78378371D01*
X164215202Y-78406308D01*
X164147758Y-78434245D01*
X164147757Y-78434246D01*
X164147751Y-78434249D01*
X164047648Y-78511062D01*
X163981428Y-78536663D01*
X163970944Y-78537100D01*
X161752359Y-78537100D01*
X161752343Y-78537099D01*
X161744625Y-78537099D01*
X161644175Y-78537099D01*
X161595661Y-78550098D01*
X161547145Y-78563098D01*
X161460156Y-78613321D01*
X161460146Y-78613329D01*
X160705995Y-79367481D01*
X160643683Y-79401507D01*
X160572868Y-79396442D01*
X160516032Y-79353895D01*
X160491221Y-79287375D01*
X160490900Y-79278386D01*
X160490900Y-79224584D01*
X160510902Y-79156463D01*
X160527800Y-79135494D01*
X163131984Y-76531309D01*
X172701400Y-76531309D01*
X172701400Y-76773890D01*
X172733060Y-77014382D01*
X172795844Y-77248695D01*
X172795845Y-77248697D01*
X172795846Y-77248700D01*
X172888676Y-77472812D01*
X172888677Y-77472813D01*
X172888682Y-77472824D01*
X173009961Y-77682885D01*
X173009963Y-77682888D01*
X173009964Y-77682889D01*
X173157635Y-77875338D01*
X173157639Y-77875342D01*
X173157644Y-77875348D01*
X173329151Y-78046855D01*
X173329156Y-78046859D01*
X173329162Y-78046865D01*
X173521611Y-78194536D01*
X173521614Y-78194538D01*
X173731675Y-78315817D01*
X173731679Y-78315818D01*
X173731688Y-78315824D01*
X173955800Y-78408654D01*
X174190111Y-78471438D01*
X174190115Y-78471438D01*
X174190117Y-78471439D01*
X174252102Y-78479599D01*
X174430612Y-78503100D01*
X174430619Y-78503100D01*
X174673181Y-78503100D01*
X174673188Y-78503100D01*
X174890537Y-78474485D01*
X174913682Y-78471439D01*
X174913682Y-78471438D01*
X174913689Y-78471438D01*
X175148000Y-78408654D01*
X175372112Y-78315824D01*
X175582189Y-78194536D01*
X175774638Y-78046865D01*
X175946165Y-77875338D01*
X176093836Y-77682889D01*
X176215124Y-77472812D01*
X176307954Y-77248700D01*
X176370738Y-77014389D01*
X176402400Y-76773888D01*
X176402400Y-76531312D01*
X176370738Y-76290811D01*
X176307954Y-76056500D01*
X176263828Y-75949972D01*
X176256240Y-75879384D01*
X176288019Y-75815897D01*
X176349077Y-75779670D01*
X176420029Y-75782204D01*
X176469333Y-75812661D01*
X177816495Y-77159823D01*
X177850521Y-77222135D01*
X177853400Y-77248918D01*
X177853400Y-82061742D01*
X177833398Y-82129863D01*
X177779742Y-82176356D01*
X177709468Y-82186460D01*
X177657400Y-82166508D01*
X177652673Y-82163349D01*
X177478165Y-82070073D01*
X177345530Y-82029839D01*
X177288816Y-82012635D01*
X177288815Y-82012634D01*
X177288809Y-82012633D01*
X177091903Y-81993240D01*
X177091897Y-81993240D01*
X176894990Y-82012633D01*
X176705634Y-82070073D01*
X176531129Y-82163348D01*
X176378175Y-82288875D01*
X176252648Y-82441829D01*
X176159373Y-82616334D01*
X176101933Y-82805690D01*
X176082540Y-83002597D01*
X176082540Y-83002602D01*
X176101933Y-83199509D01*
X176101934Y-83199515D01*
X176101935Y-83199516D01*
X176159373Y-83388865D01*
X176252648Y-83563370D01*
X176378175Y-83716325D01*
X176531130Y-83841852D01*
X176705635Y-83935127D01*
X176894984Y-83992565D01*
X176894988Y-83992565D01*
X176894990Y-83992566D01*
X177091897Y-84011960D01*
X177091900Y-84011960D01*
X177091903Y-84011960D01*
X177288809Y-83992566D01*
X177288810Y-83992565D01*
X177288816Y-83992565D01*
X177478165Y-83935127D01*
X177652670Y-83841852D01*
X177652683Y-83841841D01*
X177657393Y-83838695D01*
X177725145Y-83817477D01*
X177793612Y-83836257D01*
X177841058Y-83889071D01*
X177853400Y-83943457D01*
X177853400Y-84601073D01*
X177833398Y-84669194D01*
X177804914Y-84698201D01*
X177805915Y-84699421D01*
X177648175Y-84828875D01*
X177522648Y-84981829D01*
X177429373Y-85156334D01*
X177371933Y-85345690D01*
X177352540Y-85542597D01*
X177352540Y-85542602D01*
X177371933Y-85739509D01*
X177371934Y-85739515D01*
X177371935Y-85739516D01*
X177429373Y-85928865D01*
X177522648Y-86103370D01*
X177648175Y-86256325D01*
X177801130Y-86381852D01*
X177975635Y-86475127D01*
X178164984Y-86532565D01*
X178164988Y-86532565D01*
X178164990Y-86532566D01*
X178361897Y-86551960D01*
X178361900Y-86551960D01*
X178361903Y-86551960D01*
X178558809Y-86532566D01*
X178558810Y-86532565D01*
X178558816Y-86532565D01*
X178748165Y-86475127D01*
X178922670Y-86381852D01*
X179075625Y-86256325D01*
X179201152Y-86103370D01*
X179294427Y-85928865D01*
X179351865Y-85739516D01*
X179355002Y-85707673D01*
X179371260Y-85542602D01*
X179371260Y-85542600D01*
X179647125Y-85542600D01*
X179666188Y-85760492D01*
X179722796Y-85971755D01*
X179722798Y-85971761D01*
X179815233Y-86169988D01*
X179858773Y-86232170D01*
X180521900Y-85569044D01*
X180521900Y-85592628D01*
X180547796Y-85689275D01*
X180597824Y-85775925D01*
X180668575Y-85846676D01*
X180755225Y-85896704D01*
X180851872Y-85922600D01*
X180875452Y-85922600D01*
X180212328Y-86585723D01*
X180212328Y-86585724D01*
X180274515Y-86629268D01*
X180472738Y-86721701D01*
X180472744Y-86721703D01*
X180684007Y-86778311D01*
X180901900Y-86797374D01*
X181119792Y-86778311D01*
X181331055Y-86721703D01*
X181331061Y-86721701D01*
X181529287Y-86629267D01*
X181529289Y-86629266D01*
X181591470Y-86585725D01*
X181591470Y-86585724D01*
X180928347Y-85922600D01*
X180951928Y-85922600D01*
X181048575Y-85896704D01*
X181135225Y-85846676D01*
X181205976Y-85775925D01*
X181256004Y-85689275D01*
X181281900Y-85592628D01*
X181281900Y-85569046D01*
X181945024Y-86232170D01*
X181945025Y-86232170D01*
X181988566Y-86169989D01*
X181988567Y-86169987D01*
X182081001Y-85971761D01*
X182081003Y-85971755D01*
X182137611Y-85760492D01*
X182156674Y-85542600D01*
X182137611Y-85324707D01*
X182081003Y-85113444D01*
X182081001Y-85113439D01*
X181988565Y-84915209D01*
X181945025Y-84853028D01*
X181281900Y-85516152D01*
X181281900Y-85492572D01*
X181256004Y-85395925D01*
X181205976Y-85309275D01*
X181135225Y-85238524D01*
X181048575Y-85188496D01*
X180951928Y-85162600D01*
X180928346Y-85162600D01*
X181591470Y-84499473D01*
X181529288Y-84455933D01*
X181331061Y-84363498D01*
X181331055Y-84363496D01*
X181119792Y-84306888D01*
X180901900Y-84287825D01*
X180684007Y-84306888D01*
X180472744Y-84363496D01*
X180472739Y-84363498D01*
X180274511Y-84455934D01*
X180212327Y-84499474D01*
X180875453Y-85162600D01*
X180851872Y-85162600D01*
X180755225Y-85188496D01*
X180668575Y-85238524D01*
X180597824Y-85309275D01*
X180547796Y-85395925D01*
X180521900Y-85492572D01*
X180521900Y-85516153D01*
X179858774Y-84853027D01*
X179815234Y-84915211D01*
X179722798Y-85113439D01*
X179722796Y-85113444D01*
X179666188Y-85324707D01*
X179647125Y-85542600D01*
X179371260Y-85542600D01*
X179371260Y-85542597D01*
X179351866Y-85345690D01*
X179351865Y-85345688D01*
X179351865Y-85345684D01*
X179294427Y-85156335D01*
X179201152Y-84981830D01*
X179075625Y-84828875D01*
X178922670Y-84703348D01*
X178917885Y-84699421D01*
X178919439Y-84697527D01*
X178880849Y-84651313D01*
X178870400Y-84601073D01*
X178870400Y-83943457D01*
X178890402Y-83875336D01*
X178944058Y-83828843D01*
X179014332Y-83818739D01*
X179066407Y-83838695D01*
X179071121Y-83841844D01*
X179071130Y-83841852D01*
X179245635Y-83935127D01*
X179434984Y-83992565D01*
X179434988Y-83992565D01*
X179434990Y-83992566D01*
X179631897Y-84011960D01*
X179631900Y-84011960D01*
X179631903Y-84011960D01*
X179828809Y-83992566D01*
X179828810Y-83992565D01*
X179828816Y-83992565D01*
X180018165Y-83935127D01*
X180192670Y-83841852D01*
X180345625Y-83716325D01*
X180471152Y-83563370D01*
X180564427Y-83388865D01*
X180621865Y-83199516D01*
X180641260Y-83002600D01*
X180641260Y-83002597D01*
X180621866Y-82805690D01*
X180621865Y-82805688D01*
X180621865Y-82805684D01*
X180564427Y-82616335D01*
X180471152Y-82441830D01*
X180345625Y-82288875D01*
X180192670Y-82163348D01*
X180187885Y-82159421D01*
X180189439Y-82157527D01*
X180150849Y-82111313D01*
X180140400Y-82061073D01*
X180140400Y-79035364D01*
X180160402Y-78967243D01*
X180214058Y-78920750D01*
X180215511Y-78920541D01*
X180305999Y-78920541D01*
X180348912Y-78940140D01*
X180387296Y-78999866D01*
X180391322Y-79018918D01*
X180397171Y-79063352D01*
X180453044Y-79198241D01*
X180453049Y-79198249D01*
X180541925Y-79314074D01*
X180657750Y-79402950D01*
X180657757Y-79402955D01*
X180711204Y-79425093D01*
X180752078Y-79452406D01*
X182896495Y-81596822D01*
X182930520Y-81659134D01*
X182933400Y-81685917D01*
X182933400Y-82061742D01*
X182913398Y-82129863D01*
X182859742Y-82176356D01*
X182789468Y-82186460D01*
X182737400Y-82166508D01*
X182732673Y-82163349D01*
X182558165Y-82070073D01*
X182425530Y-82029839D01*
X182368816Y-82012635D01*
X182368815Y-82012634D01*
X182368809Y-82012633D01*
X182171903Y-81993240D01*
X182171897Y-81993240D01*
X181974990Y-82012633D01*
X181785634Y-82070073D01*
X181611129Y-82163348D01*
X181458175Y-82288875D01*
X181332648Y-82441829D01*
X181239373Y-82616334D01*
X181181933Y-82805690D01*
X181162540Y-83002597D01*
X181162540Y-83002602D01*
X181181933Y-83199509D01*
X181181934Y-83199515D01*
X181181935Y-83199516D01*
X181239373Y-83388865D01*
X181332648Y-83563370D01*
X181458175Y-83716325D01*
X181611130Y-83841852D01*
X181785635Y-83935127D01*
X181974984Y-83992565D01*
X181974988Y-83992565D01*
X181974990Y-83992566D01*
X182171897Y-84011960D01*
X182171900Y-84011960D01*
X182171903Y-84011960D01*
X182368809Y-83992566D01*
X182368810Y-83992565D01*
X182368816Y-83992565D01*
X182558165Y-83935127D01*
X182732670Y-83841852D01*
X182732683Y-83841841D01*
X182737393Y-83838695D01*
X182805145Y-83817477D01*
X182873612Y-83836257D01*
X182921058Y-83889071D01*
X182933400Y-83943457D01*
X182933400Y-84601073D01*
X182913398Y-84669194D01*
X182884914Y-84698201D01*
X182885915Y-84699421D01*
X182728175Y-84828875D01*
X182602648Y-84981829D01*
X182509373Y-85156334D01*
X182451933Y-85345690D01*
X182432540Y-85542597D01*
X182432540Y-85542602D01*
X182451933Y-85739509D01*
X182451934Y-85739515D01*
X182451935Y-85739516D01*
X182509373Y-85928865D01*
X182602648Y-86103370D01*
X182728175Y-86256325D01*
X182881130Y-86381852D01*
X183055635Y-86475127D01*
X183244984Y-86532565D01*
X183244988Y-86532565D01*
X183244990Y-86532566D01*
X183441897Y-86551960D01*
X183441900Y-86551960D01*
X183441903Y-86551960D01*
X183638809Y-86532566D01*
X183638810Y-86532565D01*
X183638816Y-86532565D01*
X183828165Y-86475127D01*
X184002670Y-86381852D01*
X184155625Y-86256325D01*
X184281152Y-86103370D01*
X184374427Y-85928865D01*
X184431865Y-85739516D01*
X184435002Y-85707673D01*
X184451260Y-85542602D01*
X184451260Y-85542597D01*
X184431866Y-85345690D01*
X184431865Y-85345688D01*
X184431865Y-85345684D01*
X184374427Y-85156335D01*
X184281152Y-84981830D01*
X184155625Y-84828875D01*
X184002670Y-84703348D01*
X183997885Y-84699421D01*
X183999439Y-84697527D01*
X183960849Y-84651313D01*
X183950400Y-84601073D01*
X183950400Y-84133099D01*
X183970402Y-84064978D01*
X184024058Y-84018485D01*
X184076400Y-84007099D01*
X185486964Y-84007099D01*
X185486966Y-84007099D01*
X185486969Y-84007098D01*
X185486972Y-84007098D01*
X185523563Y-83999819D01*
X185561201Y-83992334D01*
X185645384Y-83936084D01*
X185701634Y-83851901D01*
X185716400Y-83777667D01*
X185716399Y-82227534D01*
X185716398Y-82227531D01*
X185716398Y-82227526D01*
X185701634Y-82153299D01*
X185685527Y-82129194D01*
X185645384Y-82069116D01*
X185645383Y-82069115D01*
X185561202Y-82012866D01*
X185486969Y-81998100D01*
X185486967Y-81998100D01*
X185381900Y-81998100D01*
X185313779Y-81978098D01*
X185267286Y-81924442D01*
X185255900Y-81872100D01*
X185255900Y-81595338D01*
X185248620Y-81568168D01*
X185221247Y-81466008D01*
X185154301Y-81350056D01*
X185059626Y-81255381D01*
X184229941Y-80425696D01*
X183274364Y-79470118D01*
X183247050Y-79429241D01*
X183224914Y-79375799D01*
X183136033Y-79259967D01*
X183136031Y-79259965D01*
X183136030Y-79259964D01*
X183020208Y-79171090D01*
X183020200Y-79171085D01*
X182885311Y-79115212D01*
X182740559Y-79096156D01*
X182595806Y-79115212D01*
X182546855Y-79135489D01*
X182460917Y-79171086D01*
X182460916Y-79171087D01*
X182460915Y-79171087D01*
X182345082Y-79259969D01*
X182281807Y-79342431D01*
X182224469Y-79384298D01*
X182153598Y-79388520D01*
X182092750Y-79354822D01*
X181471205Y-78733277D01*
X181443891Y-78692400D01*
X181421755Y-78638959D01*
X181421755Y-78638958D01*
X181332874Y-78523126D01*
X181332872Y-78523124D01*
X181332871Y-78523123D01*
X181217049Y-78434249D01*
X181217041Y-78434244D01*
X181082152Y-78378371D01*
X180937400Y-78359315D01*
X180792647Y-78378371D01*
X180725202Y-78406308D01*
X180657758Y-78434245D01*
X180657757Y-78434246D01*
X180657756Y-78434246D01*
X180541926Y-78523126D01*
X180453046Y-78638956D01*
X180453045Y-78638958D01*
X180453045Y-78638959D01*
X180397171Y-78773847D01*
X180391322Y-78818281D01*
X180362599Y-78883209D01*
X180305999Y-78920541D01*
X180215511Y-78920541D01*
X180225816Y-78919059D01*
X180172164Y-78885475D01*
X180141905Y-78821249D01*
X180140400Y-78801835D01*
X180140400Y-76531309D01*
X184131400Y-76531309D01*
X184131400Y-76773890D01*
X184163060Y-77014382D01*
X184225844Y-77248695D01*
X184225845Y-77248697D01*
X184225846Y-77248700D01*
X184318676Y-77472812D01*
X184318677Y-77472813D01*
X184318682Y-77472824D01*
X184439961Y-77682885D01*
X184439963Y-77682888D01*
X184439964Y-77682889D01*
X184587635Y-77875338D01*
X184587639Y-77875342D01*
X184587644Y-77875348D01*
X184759151Y-78046855D01*
X184759156Y-78046859D01*
X184759162Y-78046865D01*
X184951611Y-78194536D01*
X184951614Y-78194538D01*
X185161675Y-78315817D01*
X185161679Y-78315818D01*
X185161688Y-78315824D01*
X185385800Y-78408654D01*
X185620111Y-78471438D01*
X185620115Y-78471438D01*
X185620117Y-78471439D01*
X185682102Y-78479599D01*
X185860612Y-78503100D01*
X185860619Y-78503100D01*
X186103181Y-78503100D01*
X186103188Y-78503100D01*
X186320537Y-78474485D01*
X186343682Y-78471439D01*
X186343682Y-78471438D01*
X186343689Y-78471438D01*
X186578000Y-78408654D01*
X186802112Y-78315824D01*
X187012189Y-78194536D01*
X187204638Y-78046865D01*
X187376165Y-77875338D01*
X187523836Y-77682889D01*
X187645124Y-77472812D01*
X187737954Y-77248700D01*
X187800738Y-77014389D01*
X187832400Y-76773888D01*
X187832400Y-76531312D01*
X187800738Y-76290811D01*
X187737954Y-76056500D01*
X187645124Y-75832388D01*
X187645118Y-75832379D01*
X187645117Y-75832375D01*
X187523838Y-75622314D01*
X187523836Y-75622311D01*
X187376165Y-75429862D01*
X187376159Y-75429856D01*
X187376155Y-75429851D01*
X187204648Y-75258344D01*
X187204642Y-75258339D01*
X187204638Y-75258335D01*
X187012189Y-75110664D01*
X187012188Y-75110663D01*
X187012185Y-75110661D01*
X186802124Y-74989382D01*
X186802116Y-74989378D01*
X186802112Y-74989376D01*
X186578000Y-74896546D01*
X186577997Y-74896545D01*
X186577995Y-74896544D01*
X186343682Y-74833760D01*
X186103190Y-74802100D01*
X186103188Y-74802100D01*
X185860612Y-74802100D01*
X185860609Y-74802100D01*
X185620117Y-74833760D01*
X185385804Y-74896544D01*
X185385800Y-74896546D01*
X185161686Y-74989377D01*
X185161675Y-74989382D01*
X184951614Y-75110661D01*
X184759162Y-75258335D01*
X184759151Y-75258344D01*
X184587644Y-75429851D01*
X184587635Y-75429862D01*
X184439961Y-75622314D01*
X184318682Y-75832375D01*
X184318677Y-75832386D01*
X184225846Y-76056500D01*
X184225844Y-76056504D01*
X184163060Y-76290817D01*
X184131400Y-76531309D01*
X180140400Y-76531309D01*
X180140400Y-76530156D01*
X180140400Y-76530155D01*
X180105747Y-76400826D01*
X180038801Y-76284874D01*
X179944126Y-76190199D01*
X177915205Y-74161277D01*
X177887891Y-74120400D01*
X177879724Y-74100683D01*
X177865755Y-74066958D01*
X177776874Y-73951126D01*
X177776872Y-73951124D01*
X177776871Y-73951123D01*
X177661049Y-73862249D01*
X177661041Y-73862244D01*
X177526152Y-73806371D01*
X177381400Y-73787315D01*
X177236647Y-73806371D01*
X177169202Y-73834308D01*
X177101758Y-73862245D01*
X177101757Y-73862246D01*
X177101756Y-73862246D01*
X176985926Y-73951126D01*
X176897046Y-74066956D01*
X176897045Y-74066958D01*
X176883076Y-74100683D01*
X176841171Y-74201847D01*
X176822115Y-74346599D01*
X176822115Y-74346601D01*
X176831367Y-74416882D01*
X176820427Y-74487030D01*
X176773299Y-74540129D01*
X176704945Y-74559318D01*
X176637067Y-74538506D01*
X176617350Y-74522422D01*
X175494205Y-73399277D01*
X175466891Y-73358400D01*
X175444755Y-73304959D01*
X175444755Y-73304958D01*
X175355874Y-73189126D01*
X175355872Y-73189124D01*
X175355871Y-73189123D01*
X175240049Y-73100249D01*
X175240041Y-73100244D01*
X175105152Y-73044371D01*
X174960400Y-73025315D01*
X174815647Y-73044371D01*
X174748202Y-73072308D01*
X174680758Y-73100245D01*
X174680757Y-73100246D01*
X174680756Y-73100246D01*
X174564926Y-73189126D01*
X174476046Y-73304956D01*
X174476045Y-73304958D01*
X174476045Y-73304959D01*
X174420171Y-73439847D01*
X174401115Y-73584599D01*
X174401115Y-73584600D01*
X174420171Y-73729352D01*
X174476044Y-73864241D01*
X174476049Y-73864249D01*
X174564925Y-73980074D01*
X174680750Y-74068950D01*
X174680757Y-74068955D01*
X174734204Y-74091093D01*
X174775078Y-74118406D01*
X175391838Y-74735166D01*
X175425864Y-74797478D01*
X175420799Y-74868293D01*
X175378252Y-74925129D01*
X175311732Y-74949940D01*
X175254525Y-74940670D01*
X175148000Y-74896546D01*
X175147995Y-74896544D01*
X174913682Y-74833760D01*
X174673190Y-74802100D01*
X174673188Y-74802100D01*
X174430612Y-74802100D01*
X174430609Y-74802100D01*
X174190117Y-74833760D01*
X173955804Y-74896544D01*
X173955800Y-74896546D01*
X173731686Y-74989377D01*
X173731675Y-74989382D01*
X173521614Y-75110661D01*
X173329162Y-75258335D01*
X173329151Y-75258344D01*
X173157644Y-75429851D01*
X173157635Y-75429862D01*
X173009961Y-75622314D01*
X172888682Y-75832375D01*
X172888677Y-75832386D01*
X172795846Y-76056500D01*
X172795844Y-76056504D01*
X172733060Y-76290817D01*
X172701400Y-76531309D01*
X163131984Y-76531309D01*
X164732170Y-74931123D01*
X164794480Y-74897099D01*
X164804804Y-74895300D01*
X164929926Y-74878828D01*
X165064815Y-74822955D01*
X165180646Y-74734074D01*
X165269527Y-74618243D01*
X165325400Y-74483354D01*
X165344457Y-74338600D01*
X165342491Y-74323670D01*
X165325400Y-74193847D01*
X165311909Y-74161277D01*
X165269527Y-74058958D01*
X165180646Y-73943126D01*
X165180644Y-73943124D01*
X165180643Y-73943123D01*
X165064821Y-73854249D01*
X165064817Y-73854246D01*
X165064815Y-73854245D01*
X165064812Y-73854244D01*
X165064811Y-73854243D01*
X165046383Y-73846610D01*
X164991103Y-73802061D01*
X164968683Y-73734697D01*
X164969680Y-73713762D01*
X164986685Y-73584600D01*
X164984098Y-73564953D01*
X164967628Y-73439847D01*
X164967628Y-73439846D01*
X164911755Y-73304958D01*
X164822874Y-73189126D01*
X164822872Y-73189124D01*
X164822871Y-73189123D01*
X164707049Y-73100249D01*
X164707041Y-73100244D01*
X164572152Y-73044371D01*
X164427400Y-73025315D01*
X164282647Y-73044371D01*
X164215202Y-73072308D01*
X164147758Y-73100245D01*
X164147757Y-73100246D01*
X164147756Y-73100246D01*
X164031926Y-73189126D01*
X163943046Y-73304956D01*
X163943045Y-73304958D01*
X163943045Y-73304959D01*
X163887171Y-73439847D01*
X163870701Y-73564953D01*
X163841978Y-73629880D01*
X163834874Y-73637601D01*
X160458095Y-77014382D01*
X159375153Y-78097324D01*
X159339639Y-78132838D01*
X159304125Y-78168351D01*
X159304121Y-78168356D01*
X159253900Y-78255341D01*
X159227900Y-78352376D01*
X159227900Y-79902100D01*
X159207898Y-79970221D01*
X159154242Y-80016714D01*
X159101901Y-80028100D01*
X158959337Y-80028100D01*
X158959326Y-80028101D01*
X158885099Y-80042865D01*
X158800915Y-80099116D01*
X158744666Y-80183297D01*
X158736832Y-80222682D01*
X158703924Y-80285591D01*
X158642229Y-80320723D01*
X158613253Y-80324100D01*
X146174955Y-80324100D01*
X146045626Y-80358753D01*
X146045624Y-80358754D01*
X146045621Y-80358755D01*
X145929676Y-80425696D01*
X145929666Y-80425704D01*
X144378095Y-81977275D01*
X144315783Y-82011301D01*
X144275130Y-82011675D01*
X144274976Y-82013241D01*
X144071903Y-81993240D01*
X144071897Y-81993240D01*
X143874990Y-82012633D01*
X143685634Y-82070073D01*
X143511129Y-82163348D01*
X143358175Y-82288875D01*
X143232648Y-82441829D01*
X143139373Y-82616334D01*
X143081933Y-82805690D01*
X143062540Y-83002597D01*
X142541260Y-83002597D01*
X142521866Y-82805690D01*
X142521865Y-82805688D01*
X142521865Y-82805684D01*
X142464427Y-82616335D01*
X142371152Y-82441830D01*
X142245625Y-82288875D01*
X142092670Y-82163348D01*
X141918165Y-82070073D01*
X141728816Y-82012635D01*
X141728815Y-82012634D01*
X141728809Y-82012633D01*
X141531903Y-81993240D01*
X141531897Y-81993240D01*
X141334990Y-82012633D01*
X141145634Y-82070073D01*
X140971129Y-82163348D01*
X140818175Y-82288875D01*
X140692648Y-82441829D01*
X140599373Y-82616334D01*
X140541933Y-82805690D01*
X140522540Y-83002597D01*
X140001260Y-83002597D01*
X139981866Y-82805690D01*
X139981865Y-82805688D01*
X139981865Y-82805684D01*
X139924427Y-82616335D01*
X139831152Y-82441830D01*
X139705625Y-82288875D01*
X139552670Y-82163348D01*
X139378165Y-82070073D01*
X139188816Y-82012635D01*
X139188815Y-82012634D01*
X139188809Y-82012633D01*
X138991903Y-81993240D01*
X138991897Y-81993240D01*
X138794990Y-82012633D01*
X138605634Y-82070073D01*
X138431129Y-82163348D01*
X138278173Y-82288876D01*
X138260214Y-82310759D01*
X138251782Y-82321033D01*
X138193106Y-82361002D01*
X138154384Y-82367100D01*
X136882726Y-82367100D01*
X136759950Y-82391522D01*
X136759945Y-82391524D01*
X136644297Y-82439427D01*
X136540216Y-82508972D01*
X136540209Y-82508977D01*
X130255595Y-88793592D01*
X130193283Y-88827618D01*
X130122468Y-88822553D01*
X130065632Y-88780006D01*
X130040821Y-88713486D01*
X130040500Y-88704497D01*
X130040500Y-76531309D01*
X134601400Y-76531309D01*
X134601400Y-76773890D01*
X134633060Y-77014382D01*
X134695844Y-77248695D01*
X134695845Y-77248697D01*
X134695846Y-77248700D01*
X134788676Y-77472812D01*
X134788677Y-77472813D01*
X134788682Y-77472824D01*
X134909961Y-77682885D01*
X134909963Y-77682888D01*
X134909964Y-77682889D01*
X135057635Y-77875338D01*
X135057639Y-77875342D01*
X135057644Y-77875348D01*
X135229151Y-78046855D01*
X135229156Y-78046859D01*
X135229162Y-78046865D01*
X135421611Y-78194536D01*
X135421614Y-78194538D01*
X135631675Y-78315817D01*
X135631679Y-78315818D01*
X135631688Y-78315824D01*
X135855800Y-78408654D01*
X136090111Y-78471438D01*
X136090115Y-78471438D01*
X136090117Y-78471439D01*
X136152102Y-78479599D01*
X136330612Y-78503100D01*
X136330619Y-78503100D01*
X136573181Y-78503100D01*
X136573188Y-78503100D01*
X136790537Y-78474485D01*
X136813682Y-78471439D01*
X136813682Y-78471438D01*
X136813689Y-78471438D01*
X137048000Y-78408654D01*
X137272112Y-78315824D01*
X137482189Y-78194536D01*
X137674638Y-78046865D01*
X137846165Y-77875338D01*
X137993836Y-77682889D01*
X138115124Y-77472812D01*
X138207954Y-77248700D01*
X138270738Y-77014389D01*
X138302400Y-76773888D01*
X138302400Y-76531312D01*
X138302400Y-76531309D01*
X146031400Y-76531309D01*
X146031400Y-76773890D01*
X146063060Y-77014382D01*
X146125844Y-77248695D01*
X146125845Y-77248697D01*
X146125846Y-77248700D01*
X146218676Y-77472812D01*
X146218677Y-77472813D01*
X146218682Y-77472824D01*
X146339961Y-77682885D01*
X146339963Y-77682888D01*
X146339964Y-77682889D01*
X146487635Y-77875338D01*
X146487639Y-77875342D01*
X146487644Y-77875348D01*
X146659151Y-78046855D01*
X146659156Y-78046859D01*
X146659162Y-78046865D01*
X146851611Y-78194536D01*
X146851614Y-78194538D01*
X147061675Y-78315817D01*
X147061679Y-78315818D01*
X147061688Y-78315824D01*
X147285800Y-78408654D01*
X147520111Y-78471438D01*
X147520115Y-78471438D01*
X147520117Y-78471439D01*
X147582102Y-78479599D01*
X147760612Y-78503100D01*
X147760619Y-78503100D01*
X148003181Y-78503100D01*
X148003188Y-78503100D01*
X148220537Y-78474485D01*
X148243682Y-78471439D01*
X148243682Y-78471438D01*
X148243689Y-78471438D01*
X148478000Y-78408654D01*
X148702112Y-78315824D01*
X148912189Y-78194536D01*
X149104638Y-78046865D01*
X149276165Y-77875338D01*
X149423836Y-77682889D01*
X149545124Y-77472812D01*
X149637954Y-77248700D01*
X149700738Y-77014389D01*
X149732400Y-76773888D01*
X149732400Y-76531312D01*
X149700738Y-76290811D01*
X149637954Y-76056500D01*
X149545124Y-75832388D01*
X149545118Y-75832379D01*
X149545117Y-75832375D01*
X149423838Y-75622314D01*
X149423836Y-75622311D01*
X149276165Y-75429862D01*
X149276159Y-75429856D01*
X149276155Y-75429851D01*
X149104648Y-75258344D01*
X149104642Y-75258339D01*
X149104638Y-75258335D01*
X148912189Y-75110664D01*
X148912188Y-75110663D01*
X148912185Y-75110661D01*
X148702124Y-74989382D01*
X148702116Y-74989378D01*
X148702112Y-74989376D01*
X148478000Y-74896546D01*
X148477997Y-74896545D01*
X148477995Y-74896544D01*
X148243682Y-74833760D01*
X148003190Y-74802100D01*
X148003188Y-74802100D01*
X147760612Y-74802100D01*
X147760609Y-74802100D01*
X147520117Y-74833760D01*
X147285804Y-74896544D01*
X147285800Y-74896546D01*
X147061686Y-74989377D01*
X147061675Y-74989382D01*
X146851614Y-75110661D01*
X146659162Y-75258335D01*
X146659151Y-75258344D01*
X146487644Y-75429851D01*
X146487635Y-75429862D01*
X146339961Y-75622314D01*
X146218682Y-75832375D01*
X146218677Y-75832386D01*
X146125846Y-76056500D01*
X146125844Y-76056504D01*
X146063060Y-76290817D01*
X146031400Y-76531309D01*
X138302400Y-76531309D01*
X138270738Y-76290811D01*
X138207954Y-76056500D01*
X138115124Y-75832388D01*
X138115118Y-75832379D01*
X138115117Y-75832375D01*
X137993838Y-75622314D01*
X137993836Y-75622311D01*
X137846165Y-75429862D01*
X137846159Y-75429856D01*
X137846155Y-75429851D01*
X137674648Y-75258344D01*
X137674642Y-75258339D01*
X137674638Y-75258335D01*
X137482189Y-75110664D01*
X137482188Y-75110663D01*
X137482185Y-75110661D01*
X137272124Y-74989382D01*
X137272116Y-74989378D01*
X137272112Y-74989376D01*
X137048000Y-74896546D01*
X137047997Y-74896545D01*
X137047995Y-74896544D01*
X136813682Y-74833760D01*
X136573190Y-74802100D01*
X136573188Y-74802100D01*
X136330612Y-74802100D01*
X136330609Y-74802100D01*
X136090117Y-74833760D01*
X135855804Y-74896544D01*
X135855800Y-74896546D01*
X135631686Y-74989377D01*
X135631675Y-74989382D01*
X135421614Y-75110661D01*
X135229162Y-75258335D01*
X135229151Y-75258344D01*
X135057644Y-75429851D01*
X135057635Y-75429862D01*
X134909961Y-75622314D01*
X134788682Y-75832375D01*
X134788677Y-75832386D01*
X134695846Y-76056500D01*
X134695844Y-76056504D01*
X134633060Y-76290817D01*
X134601400Y-76531309D01*
X130040500Y-76531309D01*
X130040500Y-70920000D01*
X166534390Y-70920000D01*
X166554803Y-71205424D01*
X166615631Y-71485046D01*
X166715632Y-71753160D01*
X166715637Y-71753170D01*
X166852768Y-72004307D01*
X166852772Y-72004312D01*
X167024262Y-72233396D01*
X167024270Y-72233405D01*
X167226594Y-72435729D01*
X167226603Y-72435737D01*
X167226605Y-72435739D01*
X167455685Y-72607226D01*
X167455687Y-72607227D01*
X167455692Y-72607231D01*
X167706829Y-72744362D01*
X167706839Y-72744367D01*
X167974954Y-72844369D01*
X168254572Y-72905196D01*
X168540000Y-72925610D01*
X168825428Y-72905196D01*
X169105046Y-72844369D01*
X169373161Y-72744367D01*
X169403144Y-72727994D01*
X169624307Y-72607231D01*
X169624309Y-72607229D01*
X169624315Y-72607226D01*
X169853395Y-72435739D01*
X170055739Y-72233395D01*
X170227226Y-72004315D01*
X170227229Y-72004309D01*
X170227231Y-72004307D01*
X170364362Y-71753170D01*
X170364367Y-71753161D01*
X170464369Y-71485046D01*
X170525196Y-71205428D01*
X170545610Y-70920000D01*
X170525196Y-70634572D01*
X170464369Y-70354954D01*
X170364367Y-70086839D01*
X170315083Y-69996582D01*
X170227231Y-69835692D01*
X170227227Y-69835687D01*
X170227226Y-69835685D01*
X170055739Y-69606605D01*
X170055737Y-69606603D01*
X170055729Y-69606594D01*
X169853405Y-69404270D01*
X169853396Y-69404262D01*
X169624312Y-69232772D01*
X169624307Y-69232768D01*
X169373170Y-69095637D01*
X169373160Y-69095632D01*
X169105046Y-68995631D01*
X168825424Y-68934803D01*
X168540000Y-68914390D01*
X168254575Y-68934803D01*
X167974953Y-68995631D01*
X167706839Y-69095632D01*
X167706829Y-69095637D01*
X167455692Y-69232768D01*
X167455687Y-69232772D01*
X167226603Y-69404262D01*
X167226594Y-69404270D01*
X167024270Y-69606594D01*
X167024262Y-69606603D01*
X166852772Y-69835687D01*
X166852768Y-69835692D01*
X166715637Y-70086829D01*
X166715632Y-70086839D01*
X166615631Y-70354953D01*
X166554803Y-70634575D01*
X166534390Y-70920000D01*
X130040500Y-70920000D01*
X130040500Y-68546500D01*
X130060502Y-68478379D01*
X130114158Y-68431886D01*
X130166500Y-68420500D01*
X188913500Y-68420500D01*
X188981621Y-68440502D01*
G37*
%TD.AperFunction*%
%TD*%
M02*
