M48
; DRILL file {KiCad 8.0.4} date 2024-08-14T00:23:46+0100
; FORMAT={-:-/ absolute / inch / decimal}
; #@! TF.CreationDate,2024-08-14T00:23:46+01:00
; #@! TF.GenerationSoftware,Kicad,Pcbnew,8.0.4
; #@! TF.FileFunction,Plated,1,2,PTH
FMAT,2
INCH
; #@! TA.AperFunction,Plated,PTH,ViaDrill
T1C0.0118
; #@! TA.AperFunction,Plated,PTH,ComponentDrill
T2C0.0299
; #@! TA.AperFunction,Plated,PTH,ComponentDrill
T3C0.0394
%
G90
G05
T1
X6.4735Y-2.897
X6.4735Y-3.107
X6.4876Y-2.9267
X6.4935Y-3.137
X6.8882Y-2.897
X6.9835Y-2.927
X7.1235Y-3.107
X7.1945Y-3.136
X7.34Y-3.45
T2
X5.4221Y-3.3678
X5.4721Y-3.2678
X5.5221Y-3.3678
X5.5721Y-3.2678
X5.6221Y-3.3678
X5.6721Y-3.2678
X5.7221Y-3.3678
X5.7721Y-3.2678
X6.9221Y-3.3678
X6.9721Y-3.2678
X7.0221Y-3.3678
X7.0721Y-3.2678
X7.1221Y-3.3678
X7.1721Y-3.2678
X7.2221Y-3.3678
X7.2721Y-3.2678
T3
X5.2035Y-3.817
X5.2035Y-3.917
X5.2035Y-4.267
X5.2035Y-4.367
X5.4035Y-3.567
X5.4035Y-3.767
X5.4035Y-4.467
X5.4035Y-4.667
X5.5035Y-3.567
X5.5035Y-3.767
X5.5035Y-4.467
X5.5035Y-4.667
X5.6035Y-3.567
X5.6035Y-3.767
X5.6035Y-4.467
X5.6035Y-4.667
X5.7035Y-3.567
X5.7035Y-3.767
X5.7035Y-4.467
X5.7035Y-4.667
X5.8035Y-3.567
X5.8035Y-3.767
X5.8035Y-4.467
X5.8035Y-4.667
X5.9035Y-3.567
X5.9035Y-3.767
X5.9035Y-4.467
X5.9035Y-4.667
X6.0035Y-3.567
X6.0035Y-3.767
X6.0035Y-4.467
X6.0035Y-4.667
X6.1035Y-3.567
X6.1035Y-3.767
X6.1035Y-4.467
X6.1035Y-4.667
X6.2035Y-3.567
X6.2035Y-3.767
X6.2035Y-4.467
X6.2035Y-4.667
X6.3035Y-3.567
X6.3035Y-3.767
X6.3035Y-4.467
X6.3035Y-4.667
X6.4035Y-3.567
X6.4035Y-3.767
X6.4035Y-4.467
X6.4035Y-4.667
X6.5035Y-3.567
X6.5035Y-3.767
X6.5035Y-4.467
X6.5035Y-4.667
X6.6035Y-3.567
X6.6035Y-3.767
X6.6035Y-4.467
X6.6035Y-4.667
X6.7035Y-3.567
X6.7035Y-3.767
X6.7035Y-4.467
X6.7035Y-4.667
X6.8035Y-3.567
X6.8035Y-3.767
X6.8035Y-4.467
X6.8035Y-4.667
X6.9035Y-3.567
X6.9035Y-3.767
X6.9035Y-4.467
X6.9035Y-4.667
X7.0035Y-3.567
X7.0035Y-3.767
X7.0035Y-4.467
X7.0035Y-4.667
X7.1035Y-3.567
X7.1035Y-3.767
X7.1035Y-4.467
X7.1035Y-4.667
X7.2035Y-3.567
X7.2035Y-3.767
X7.2035Y-4.467
X7.2035Y-4.667
X7.3035Y-3.567
X7.3035Y-3.767
X7.3035Y-4.467
X7.3035Y-4.667
M30
